<?xml version="1.0" encoding="UTF-8" standalone="no"?>
<!DOCTYPE svg PUBLIC "-//W3C//DTD SVG 1.1//EN"
 "http://www.w3.org/Graphics/SVG/1.1/DTD/svg11.dtd">
<!-- Generated by graphviz version 2.50.0 (0)
 -->
<!-- Title: RESOURCEHIJACKINGhttp Pages: 1 -->
<svg width="1116pt" height="2255pt"
 viewBox="0.00 0.00 1116.27 2255.40" xmlns="http://www.w3.org/2000/svg" xmlns:xlink="http://www.w3.org/1999/xlink">
<g id="graph0" class="graph" transform="scale(1 1) rotate(0) translate(4 2251.4)">
<title>RESOURCEHIJACKINGhttp</title>
<polygon fill="white" stroke="transparent" points="-4,4 -4,-2251.4 1112.27,-2251.4 1112.27,4 -4,4"/>
<!-- Victim: 10.0.0.24
RESOURCE HIJACKING
http -->
<g id="node1" class="node">
<title>Victim: 10.0.0.24
RESOURCE HIJACKING
http</title>
<polygon fill="salmon" stroke="black" stroke-width="3" points="826.06,-2150.39 826.06,-2204.78 697.9,-2243.24 516.64,-2243.24 388.48,-2204.78 388.48,-2150.39 516.64,-2111.93 697.9,-2111.93 826.06,-2150.39"/>
<polygon fill="none" stroke="black" stroke-width="3" points="830.06,-2147.42 830.06,-2207.74 698.49,-2247.23 516.06,-2247.23 384.48,-2207.74 384.48,-2147.42 516.06,-2107.94 698.49,-2107.94 830.06,-2147.42"/>
<text text-anchor="middle" x="607.27" y="-2197.38" font-family="Arial" font-size="24.00">Victim: 10.0.0.24</text>
<text text-anchor="middle" x="607.27" y="-2171.38" font-family="Arial" font-size="24.00">RESOURCE HIJACKING</text>
<text text-anchor="middle" x="607.27" y="-2145.38" font-family="Arial" font-size="24.00">http</text>
</g>
<!-- RESOURCE HIJACKING
http | ID: 145 -->
<g id="node2" class="node">
<title>RESOURCE HIJACKING
http | ID: 145</title>
<g id="a_node2"><a xlink:title="GPL WEB_SERVER Oracle Java Process Manager access">
<polygon fill="salmon" stroke="black" stroke-width="3" points="604.81,-2041.77 488.04,-2090.75 254.5,-2090.75 137.73,-2041.77 254.5,-1992.79 488.04,-1992.79 604.81,-2041.77"/>
<text text-anchor="middle" x="371.27" y="-2048.57" font-family="Arial" font-size="24.00">RESOURCE HIJACKING</text>
<text text-anchor="middle" x="371.27" y="-2022.57" font-family="Arial" font-size="24.00">http | ID: 145</text>
</a>
</g>
</g>
<!-- RESOURCE HIJACKING
http | ID: 145&#45;&gt;Victim: 10.0.0.24
RESOURCE HIJACKING
http -->
<g id="edge1" class="edge">
<title>RESOURCE HIJACKING
http | ID: 145&#45;&gt;Victim: 10.0.0.24
RESOURCE HIJACKING
http</title>
<path fill="none" stroke="black" stroke-width="5" d="M456.14,-2090.89C466.36,-2096.69 476.94,-2102.69 487.54,-2108.7"/>
<polygon fill="black" stroke="black" stroke-width="5" points="485.59,-2112.62 496.44,-2113.74 489.9,-2105.01 485.59,-2112.62"/>
</g>
<!-- RESOURCE HIJACKING
http | ID: 130 -->
<g id="node3" class="node">
<title>RESOURCE HIJACKING
http | ID: 130</title>
<g id="a_node3"><a xlink:title="GPL WEB_SERVER Oracle Java Process Manager access">
<polygon fill="salmon" stroke="black" stroke-width="3" points="1078.81,-2041.77 962.04,-2090.75 728.5,-2090.75 611.73,-2041.77 728.5,-1992.79 962.04,-1992.79 1078.81,-2041.77"/>
<text text-anchor="middle" x="845.27" y="-2048.57" font-family="Arial" font-size="24.00">RESOURCE HIJACKING</text>
<text text-anchor="middle" x="845.27" y="-2022.57" font-family="Arial" font-size="24.00">http | ID: 130</text>
</a>
</g>
</g>
<!-- RESOURCE HIJACKING
http | ID: 130&#45;&gt;Victim: 10.0.0.24
RESOURCE HIJACKING
http -->
<g id="edge2" class="edge">
<title>RESOURCE HIJACKING
http | ID: 130&#45;&gt;Victim: 10.0.0.24
RESOURCE HIJACKING
http</title>
<path fill="none" stroke="black" stroke-width="5" d="M759.68,-2090.89C749.17,-2096.8 738.27,-2102.93 727.37,-2109.06"/>
<polygon fill="black" stroke="black" stroke-width="5" points="725.2,-2105.26 718.62,-2113.98 729.49,-2112.89 725.2,-2105.26"/>
</g>
<!-- VULNERABILTY DISCOVERY
mysql -->
<g id="node4" class="node">
<title>VULNERABILTY DISCOVERY
mysql</title>
<g id="a_node4"><a xlink:title="ET SCAN Suspicious inbound to PostgreSQL port 5432&#10;ET SCAN Suspicious inbound to mySQL port 3306&#10;ET SCAN Suspicious inbound to MSSQL port 1433&#10;ET SCAN Suspicious inbound to Oracle SQL port 1521">
<ellipse fill="yellow" stroke="black" stroke-width="3" cx="570.27" cy="-42.43" rx="241.25" ry="42.35"/>
<text text-anchor="middle" x="570.27" y="-49.23" font-family="Arial" font-size="24.00">VULNERABILTY DISCOVERY</text>
<text text-anchor="middle" x="570.27" y="-23.23" font-family="Arial" font-size="24.00">mysql</text>
</a>
</g>
</g>
<!-- SERVICE DISCOVERY
unknown -->
<g id="node5" class="node">
<title>SERVICE DISCOVERY
unknown</title>
<g id="a_node5"><a xlink:title="ET SCAN Potential SSH Scan&#10;ET SCAN Potential VNC Scan 5900&#45;5920&#10;ET SCAN Potential VNC Scan 5800&#45;5820&#10;ET SCAN NMAP OS Detection Probe">
<ellipse fill="none" stroke="black" stroke-width="3" cx="570.27" cy="-223.28" rx="189.51" ry="42.35"/>
<text text-anchor="middle" x="570.27" y="-230.08" font-family="Arial" font-size="24.00">SERVICE DISCOVERY</text>
<text text-anchor="middle" x="570.27" y="-204.08" font-family="Arial" font-size="24.00">unknown</text>
</a>
</g>
</g>
<!-- VULNERABILTY DISCOVERY
mysql&#45;&gt;SERVICE DISCOVERY
unknown -->
<g id="edge3" class="edge">
<title>VULNERABILTY DISCOVERY
mysql&#45;&gt;SERVICE DISCOVERY
unknown</title>
<path fill="none" stroke="maroon" stroke-width="5" d="M570.27,-84.91C570.27,-110.44 570.27,-143.37 570.27,-170.59"/>
<polygon fill="maroon" stroke="maroon" stroke-width="5" points="565.9,-170.71 570.27,-180.71 574.65,-170.71 565.9,-170.71"/>
<text text-anchor="start" x="570.27" y="-157.85" font-family="Arial" font-size="20.00" fill="maroon"> start_next: 03/11/18, 18:01:28</text>
<text text-anchor="start" x="646.27" y="-137.85" font-family="Arial" font-size="20.00" fill="maroon">gap: &#45;105sec</text>
<text text-anchor="start" x="574.27" y="-117.85" font-family="Arial" font-size="20.00" fill="maroon">end_prev: 03/11/18, 18:03:13</text>
<text text-anchor="start" x="599.27" y="-97.85" font-family="Arial" font-weight="bold" font-size="20.00" fill="maroon">Attacker: 10.0.254.202</text>
</g>
<!-- HOST DISCOVERY
http -->
<g id="node6" class="node">
<title>HOST DISCOVERY
http</title>
<g id="a_node6"><a xlink:title="ET SCAN Nmap Scripting Engine User&#45;Agent Detected (Nmap Scripting Engine)&#10;ET SCAN Possible Nmap User&#45;Agent Observed">
<ellipse fill="none" stroke="black" stroke-width="3" cx="296.27" cy="-390.13" rx="162.77" ry="42.35"/>
<text text-anchor="middle" x="296.27" y="-396.93" font-family="Arial" font-size="24.00">HOST DISCOVERY</text>
<text text-anchor="middle" x="296.27" y="-370.93" font-family="Arial" font-size="24.00">http</text>
</a>
</g>
</g>
<!-- SERVICE DISCOVERY
unknown&#45;&gt;HOST DISCOVERY
http -->
<g id="edge4" class="edge">
<title>SERVICE DISCOVERY
unknown&#45;&gt;HOST DISCOVERY
http</title>
<path fill="none" stroke="maroon" stroke-width="5" d="M395.36,-239.61C353.19,-246.96 316.23,-257.79 302.27,-273.71 287.3,-290.76 284.39,-315.28 285.8,-337.33"/>
<polygon fill="maroon" stroke="maroon" stroke-width="5" points="281.47,-338.03 286.76,-347.58 290.18,-337.21 281.47,-338.03"/>
<text text-anchor="middle" x="433.77" y="-323.71" font-family="Arial" font-size="20.00" fill="maroon">start_next: 03/11/18, 18:06:33</text>
<text text-anchor="middle" x="433.77" y="-301.71" font-family="Arial" font-size="20.00" fill="maroon">gap: 14sec</text>
<text text-anchor="middle" x="433.77" y="-279.71" font-family="Arial" font-size="20.00" fill="maroon">end_prev: 03/11/18, 18:06:19</text>
</g>
<!-- SERVICE DISCOVERY
ssh -->
<g id="node9" class="node">
<title>SERVICE DISCOVERY
ssh</title>
<g id="a_node9"><a xlink:title="ET SCAN Potential SSH Scan">
<ellipse fill="none" stroke="black" stroke-width="3" cx="808.27" cy="-390.13" rx="189.51" ry="42.35"/>
<text text-anchor="middle" x="808.27" y="-396.93" font-family="Arial" font-size="24.00">SERVICE DISCOVERY</text>
<text text-anchor="middle" x="808.27" y="-370.93" font-family="Arial" font-size="24.00">ssh</text>
</a>
</g>
</g>
<!-- SERVICE DISCOVERY
unknown&#45;&gt;SERVICE DISCOVERY
ssh -->
<g id="edge8" class="edge">
<title>SERVICE DISCOVERY
unknown&#45;&gt;SERVICE DISCOVERY
ssh</title>
<path fill="none" stroke="maroon" stroke-width="5" d="M627.28,-263.77C661.91,-287.75 706.25,-318.47 742.38,-343.49"/>
<polygon fill="maroon" stroke="maroon" stroke-width="5" points="740.19,-347.3 750.9,-349.4 745.17,-340.11 740.19,-347.3"/>
<text text-anchor="middle" x="863.77" y="-323.71" font-family="Arial" font-size="20.00" fill="maroon">start_next: 03/11/18, 21:04:15</text>
<text text-anchor="middle" x="863.77" y="-301.71" font-family="Arial" font-size="20.00" fill="maroon">gap: 615sec</text>
<text text-anchor="middle" x="863.77" y="-279.71" font-family="Arial" font-size="20.00" fill="maroon">end_prev: 03/11/18, 20:54:01</text>
</g>
<!-- INFO DISCOVERY
ssh -->
<g id="node7" class="node">
<title>INFO DISCOVERY
ssh</title>
<g id="a_node7"><a xlink:title="ET INFO NetSSH SSH Version String Hardcoded in Metasploit">
<ellipse fill="none" stroke="black" stroke-width="3" cx="296.27" cy="-556.98" rx="156.04" ry="42.35"/>
<text text-anchor="middle" x="296.27" y="-563.78" font-family="Arial" font-size="24.00">INFO DISCOVERY</text>
<text text-anchor="middle" x="296.27" y="-537.78" font-family="Arial" font-size="24.00">ssh</text>
</a>
</g>
</g>
<!-- HOST DISCOVERY
http&#45;&gt;INFO DISCOVERY
ssh -->
<g id="edge5" class="edge">
<title>HOST DISCOVERY
http&#45;&gt;INFO DISCOVERY
ssh</title>
<path fill="none" stroke="maroon" stroke-width="5" d="M296.27,-432.73C296.27,-454.4 296.27,-481.11 296.27,-504.12"/>
<polygon fill="maroon" stroke="maroon" stroke-width="5" points="291.9,-504.4 296.27,-514.4 300.65,-504.4 291.9,-504.4"/>
<text text-anchor="middle" x="427.77" y="-490.56" font-family="Arial" font-size="20.00" fill="maroon">start_next: 03/11/18, 20:39:09</text>
<text text-anchor="middle" x="427.77" y="-468.56" font-family="Arial" font-size="20.00" fill="maroon">gap: 9154sec</text>
<text text-anchor="middle" x="427.77" y="-446.56" font-family="Arial" font-size="20.00" fill="maroon">end_prev: 03/11/18, 18:06:36</text>
</g>
<!-- VULNERABILTY DISCOVERY
http -->
<g id="node8" class="node">
<title>VULNERABILTY DISCOVERY
http</title>
<g id="a_node8"><a xlink:title="ET SCAN Suspicious inbound to mySQL port 3306&#10;ET SCAN Suspicious inbound to MSSQL port 1433&#10;ET SCAN Suspicious inbound to PostgreSQL port 5432&#10;ET SCAN Nikto Web App Scan in Progress&#10;ET SCAN Suspicious inbound to Oracle SQL port 1521&#10;ET SCAN OpenVAS User&#45;Agent Inbound&#10;ET SCAN Suspicious inbound to mSQL port 4333">
<ellipse fill="yellow" stroke="black" stroke-width="3" cx="356.27" cy="-723.84" rx="241.25" ry="42.35"/>
<text text-anchor="middle" x="356.27" y="-730.64" font-family="Arial" font-size="24.00">VULNERABILTY DISCOVERY</text>
<text text-anchor="middle" x="356.27" y="-704.64" font-family="Arial" font-size="24.00">http</text>
</a>
</g>
</g>
<!-- INFO DISCOVERY
ssh&#45;&gt;VULNERABILTY DISCOVERY
http -->
<g id="edge6" class="edge">
<title>INFO DISCOVERY
ssh&#45;&gt;VULNERABILTY DISCOVERY
http</title>
<path fill="none" stroke="maroon" stroke-width="5" d="M290.98,-599.63C289.98,-620.22 291.23,-645.18 303.03,-672.96"/>
<polygon fill="maroon" stroke="maroon" stroke-width="5" points="299.08,-674.83 307.24,-682.07 307.02,-671.16 299.08,-674.83"/>
<text text-anchor="middle" x="433.77" y="-657.41" font-family="Arial" font-size="20.00" fill="maroon">start_next: 03/11/18, 20:53:37</text>
<text text-anchor="middle" x="433.77" y="-635.41" font-family="Arial" font-size="20.00" fill="maroon">gap: 801sec</text>
<text text-anchor="middle" x="433.77" y="-613.41" font-family="Arial" font-size="20.00" fill="maroon">end_prev: 03/11/18, 20:40:17</text>
</g>
<!-- VULNERABILTY DISCOVERY
http&#45;&gt;SERVICE DISCOVERY
unknown -->
<g id="edge7" class="edge">
<title>VULNERABILTY DISCOVERY
http&#45;&gt;SERVICE DISCOVERY
unknown</title>
<path fill="none" stroke="maroon" stroke-width="5" d="M526.57,-693.7C543.06,-687.95 556,-681.23 562.27,-673.41 568.41,-665.77 569.84,-392.77 570.17,-276.2"/>
<polygon fill="maroon" stroke="maroon" stroke-width="5" points="574.55,-276.09 570.2,-266.08 565.8,-276.07 574.55,-276.09"/>
<text text-anchor="middle" x="700.77" y="-490.56" font-family="Arial" font-size="20.00" fill="maroon">start_next: 03/11/18, 20:53:38</text>
<text text-anchor="middle" x="700.77" y="-468.56" font-family="Arial" font-size="20.00" fill="maroon">gap: &#45;2sec</text>
<text text-anchor="middle" x="700.77" y="-446.56" font-family="Arial" font-size="20.00" fill="maroon">end_prev: 03/11/18, 20:53:41</text>
</g>
<!-- INFO DISCOVERY
http -->
<g id="node12" class="node">
<title>INFO DISCOVERY
http</title>
<g id="a_node12"><a xlink:title="GPL WEB_SERVER viewcode access&#10;GPL WEB_SERVER .htaccess access&#10;GPL WEB_SERVER writeto.cnf access&#10;GPL WEB_SERVER iisadmin access&#10;ET WEB_SERVER PHP Easteregg Information&#45;Disclosure (funny&#45;logo)&#10;ET WEB_SPECIFIC_APPS Request to Wordpress W3TC Plug&#45;in dbcache Directory&#10;GPL WEB_SERVER services.cnf access&#10;ET WEB_SERVER PHP Easteregg Information&#45;Disclosure (zend&#45;logo)&#10;GPL EXPLOIT unicode directory traversal attempt&#10;ET WEB_SERVER PHP Easteregg Information&#45;Disclosure (php&#45;logo)&#10;GPL WEB_SERVER service.cnf access&#10;GPL EXPLOIT iisadmpwd attempt&#10;ET WEB_SERVER PHP SESSION SuperGlobal in URI&#10;GPL WEB_SERVER /~root access&#10;GPL WEB_SERVER authors.pwd access&#10;ET WEB_SERVER PHP ENV SuperGlobal in URI&#10;GPL EXPLOIT .cnf access&#10;ET POLICY Proxy TRACE Request &#45; inbound&#10;GPL WEB_SERVER .htpasswd access&#10;GPL WEB_SERVER global.asa access&#10;ET WEB_SERVER PHP SERVER SuperGlobal in URI&#10;GPL EXPLOIT fpcount access&#10;GPL WEB_SERVER globals.pl access&#10;GPL WEB_SERVER service.pwd&#10;GPL EXPLOIT ISAPI .idq attempt&#10;ET WEB_SERVER PHP Easteregg Information&#45;Disclosure (phpinfo)&#10;GPL WEB_SERVER printenv access&#10;GPL WEB_SERVER author.exe access&#10;GPL EXPLOIT iissamples access&#10;GPL EXPLOIT .htr access&#10;ET WEB_SERVER PHP REQUEST SuperGlobal in URI">
<ellipse fill="none" stroke="black" stroke-width="3" cx="156.27" cy="-909.54" rx="156.04" ry="42.35"/>
<text text-anchor="middle" x="156.27" y="-916.34" font-family="Arial" font-size="24.00">INFO DISCOVERY</text>
<text text-anchor="middle" x="156.27" y="-890.34" font-family="Arial" font-size="24.00">http</text>
</a>
</g>
</g>
<!-- VULNERABILTY DISCOVERY
http&#45;&gt;INFO DISCOVERY
http -->
<g id="edge12" class="edge">
<title>VULNERABILTY DISCOVERY
http&#45;&gt;INFO DISCOVERY
http</title>
<path fill="none" stroke="magenta" stroke-width="5" d="M161.6,-748.89C137.82,-755.46 118.86,-763.77 110.27,-774.26 86.37,-803.44 96.47,-824.02 110.27,-859.12 110.31,-859.22 110.35,-859.31 110.39,-859.41"/>
<polygon fill="magenta" stroke="magenta" stroke-width="5" points="106.46,-861.34 114.84,-868.34 114.29,-857.44 106.46,-861.34"/>
<text text-anchor="start" x="110.27" y="-841.69" font-family="Arial" font-size="20.00" fill="magenta"> start_next: 03/11/18, 15:18:19</text>
<text text-anchor="start" x="200.77" y="-821.69" font-family="Arial" font-size="20.00" fill="magenta">gap: 0sec</text>
<text text-anchor="start" x="114.27" y="-801.69" font-family="Arial" font-size="20.00" fill="magenta">end_prev: 03/11/18, 15:18:19</text>
<text text-anchor="start" x="139.27" y="-781.69" font-family="Arial" font-weight="bold" font-size="20.00" fill="magenta">Attacker: 10.0.254.201</text>
</g>
<!-- VULNERABILTY DISCOVERY
http&#45;&gt;INFO DISCOVERY
http -->
<g id="edge20" class="edge">
<title>VULNERABILTY DISCOVERY
http&#45;&gt;INFO DISCOVERY
http</title>
<path fill="none" stroke="magenta" stroke-width="5" d="M377,-766.4C388.19,-795.36 395.93,-833.28 375.27,-859.12 365.12,-871.81 338.36,-881.48 306.87,-888.74"/>
<polygon fill="magenta" stroke="magenta" stroke-width="5" points="305.79,-884.5 296.96,-890.92 307.67,-893.05 305.79,-884.5"/>
<text text-anchor="start" x="388.27" y="-841.69" font-family="Arial" font-size="20.00" fill="magenta"> start_next: 03/11/18, 15:23:35</text>
<text text-anchor="start" x="478.77" y="-821.69" font-family="Arial" font-size="20.00" fill="magenta">gap: 0sec</text>
<text text-anchor="start" x="392.27" y="-801.69" font-family="Arial" font-size="20.00" fill="magenta">end_prev: 03/11/18, 15:23:35</text>
<text text-anchor="start" x="417.27" y="-781.69" font-family="Arial" font-weight="bold" font-size="20.00" fill="magenta">Attacker: 10.0.254.206</text>
</g>
<!-- VULNERABILTY DISCOVERY
wap&#45;wsp -->
<g id="node10" class="node">
<title>VULNERABILTY DISCOVERY
wap&#45;wsp</title>
<g id="a_node10"><a xlink:title="ET SCAN OpenVAS User&#45;Agent Inbound">
<ellipse fill="none" stroke="black" stroke-width="3" cx="845.27" cy="-556.98" rx="241.25" ry="42.35"/>
<text text-anchor="middle" x="845.27" y="-563.78" font-family="Arial" font-size="24.00">VULNERABILTY DISCOVERY</text>
<text text-anchor="middle" x="845.27" y="-537.78" font-family="Arial" font-size="24.00">wap&#45;wsp</text>
</a>
</g>
</g>
<!-- SERVICE DISCOVERY
ssh&#45;&gt;VULNERABILTY DISCOVERY
wap&#45;wsp -->
<g id="edge9" class="edge">
<title>SERVICE DISCOVERY
ssh&#45;&gt;VULNERABILTY DISCOVERY
wap&#45;wsp</title>
<path fill="none" stroke="maroon" stroke-width="5" d="M831.45,-432.44C832.51,-435.15 833.47,-437.86 834.27,-440.56 840.32,-460.85 843.25,-483.95 844.61,-504.12"/>
<polygon fill="maroon" stroke="maroon" stroke-width="5" points="840.26,-504.64 845.19,-514.38 848.99,-504.15 840.26,-504.64"/>
<text text-anchor="middle" x="975.77" y="-490.56" font-family="Arial" font-size="20.00" fill="maroon">start_next: 03/11/18, 21:09:49</text>
<text text-anchor="middle" x="975.77" y="-468.56" font-family="Arial" font-size="20.00" fill="maroon">gap: 334sec</text>
<text text-anchor="middle" x="975.77" y="-446.56" font-family="Arial" font-size="20.00" fill="maroon">end_prev: 03/11/18, 21:04:15</text>
</g>
<!-- INFO DISCOVERY
wap&#45;wsp -->
<g id="node11" class="node">
<title>INFO DISCOVERY
wap&#45;wsp</title>
<g id="a_node11"><a xlink:title="GPL WEB_SERVER viewcode access&#10;GPL ATTACK_RESPONSE directory listing&#10;GPL WEB_SERVER .htaccess access&#10;GPL WEB_SERVER /~root access&#10;GPL WEB_SERVER iisadmin access&#10;GPL WEB_SERVER printenv access&#10;ET SCAN SFTP/FTP Password Exposure via sftp&#45;config.json&#10;ET POLICY Proxy TRACE Request &#45; inbound&#10;GPL WEB_SERVER global.asa access&#10;GPL EXPLOIT iissamples access">
<ellipse fill="none" stroke="black" stroke-width="3" cx="845.27" cy="-816.69" rx="156.04" ry="42.35"/>
<text text-anchor="middle" x="845.27" y="-823.49" font-family="Arial" font-size="24.00">INFO DISCOVERY</text>
<text text-anchor="middle" x="845.27" y="-797.49" font-family="Arial" font-size="24.00">wap&#45;wsp</text>
</a>
</g>
</g>
<!-- VULNERABILTY DISCOVERY
wap&#45;wsp&#45;&gt;INFO DISCOVERY
wap&#45;wsp -->
<g id="edge10" class="edge">
<title>VULNERABILTY DISCOVERY
wap&#45;wsp&#45;&gt;INFO DISCOVERY
wap&#45;wsp</title>
<path fill="none" stroke="maroon" stroke-width="5" d="M845.27,-599.68C845.27,-644.4 845.27,-715.5 845.27,-763.81"/>
<polygon fill="maroon" stroke="maroon" stroke-width="5" points="840.9,-764.06 845.27,-774.06 849.65,-764.06 840.9,-764.06"/>
<text text-anchor="middle" x="976.77" y="-657.41" font-family="Arial" font-size="20.00" fill="maroon">start_next: 03/11/18, 21:09:52</text>
<text text-anchor="middle" x="976.77" y="-635.41" font-family="Arial" font-size="20.00" fill="maroon">gap: &#45;210sec</text>
<text text-anchor="middle" x="976.77" y="-613.41" font-family="Arial" font-size="20.00" fill="maroon">end_prev: 03/11/18, 21:13:22</text>
</g>
<!-- INFO DISCOVERY
wap&#45;wsp&#45;&gt;RESOURCE HIJACKING
http | ID: 130 -->
<g id="edge11" class="edge">
<title>INFO DISCOVERY
wap&#45;wsp&#45;&gt;RESOURCE HIJACKING
http | ID: 130</title>
<path fill="none" stroke="maroon" stroke-width="5" d="M845.27,-859.24C845.27,-894.55 845.27,-946.58 845.27,-991.97 845.27,-991.97 845.27,-991.97 845.27,-1881.78 845.27,-1915.11 845.27,-1952.38 845.27,-1982.45"/>
<polygon fill="maroon" stroke="maroon" stroke-width="5" points="840.9,-1982.77 845.27,-1992.77 849.65,-1982.77 840.9,-1982.77"/>
<text text-anchor="middle" x="976.77" y="-1405.95" font-family="Arial" font-size="20.00" fill="maroon">start_next: 03/11/18, 21:09:57</text>
<text text-anchor="middle" x="976.77" y="-1383.95" font-family="Arial" font-size="20.00" fill="maroon">gap: &#45;189sec</text>
<text text-anchor="middle" x="976.77" y="-1361.95" font-family="Arial" font-size="20.00" fill="maroon">end_prev: 03/11/18, 21:13:06</text>
</g>
<!-- DATA EXFILTRATION
http | ID: 15 -->
<g id="node13" class="node">
<title>DATA EXFILTRATION
http | ID: 15</title>
<g id="a_node13"><a xlink:title="GPL WEB_SERVER Tomcat server snoop access&#10;GPL EXPLOIT ISAPI .ida access&#10;GPL EXPLOIT /msadc/samples/ access&#10;ET WEB_SERVER ColdFusion componentutils access&#10;ET WEB_SERVER /system32/ in Uri &#45; Possible Protected Directory Access Attempt&#10;ET WEB_SPECIFIC_APPS PHP&#45;CGI query string parameter vulnerability&#10;ET WEB_SERVER Possible XXE SYSTEM ENTITY in POST BODY.&#10;ET WEB_SERVER /etc/shadow Detected in URI&#10;GPL EXPLOIT ISAPI .idq access">
<polygon fill="none" stroke="black" stroke-width="3" points="412.15,-1082.96 309.71,-1131.94 104.83,-1131.94 2.39,-1082.96 104.83,-1033.98 309.71,-1033.98 412.15,-1082.96"/>
<text text-anchor="middle" x="207.27" y="-1089.76" font-family="Arial" font-size="24.00">DATA EXFILTRATION</text>
<text text-anchor="middle" x="207.27" y="-1063.76" font-family="Arial" font-size="24.00">http | ID: 15</text>
</a>
</g>
</g>
<!-- INFO DISCOVERY
http&#45;&gt;DATA EXFILTRATION
http | ID: 15 -->
<g id="edge13" class="edge">
<title>INFO DISCOVERY
http&#45;&gt;DATA EXFILTRATION
http | ID: 15</title>
<path fill="none" stroke="magenta" stroke-width="5" d="M107.03,-949.87C104.79,-953.08 102.84,-956.45 101.27,-959.97 90.45,-984.25 86.8,-998.09 101.46,-1024.88"/>
<polygon fill="magenta" stroke="magenta" stroke-width="5" points="97.76,-1027.23 106.6,-1033.63 105.31,-1022.79 97.76,-1027.23"/>
<text text-anchor="middle" x="232.77" y="-1009.97" font-family="Arial" font-size="20.00" fill="magenta">start_next: 03/11/18, 15:18:19</text>
<text text-anchor="middle" x="232.77" y="-987.97" font-family="Arial" font-size="20.00" fill="magenta">gap: &#45;10sec</text>
<text text-anchor="middle" x="232.77" y="-965.97" font-family="Arial" font-size="20.00" fill="magenta">end_prev: 03/11/18, 15:18:29</text>
</g>
<!-- INFO DISCOVERY
http&#45;&gt;DATA EXFILTRATION
http | ID: 15 -->
<g id="edge21" class="edge">
<title>INFO DISCOVERY
http&#45;&gt;DATA EXFILTRATION
http | ID: 15</title>
<path fill="none" stroke="magenta" stroke-width="5" d="M292.91,-930.24C324.28,-937.63 351.36,-947.39 361.27,-959.97 379.42,-983.01 378.1,-1001.94 361.27,-1025.97 357.21,-1031.76 352.49,-1036.96 347.27,-1041.62"/>
<polygon fill="magenta" stroke="magenta" stroke-width="5" points="344.32,-1038.38 339.29,-1048.07 349.82,-1045.18 344.32,-1038.38"/>
<text text-anchor="middle" x="506.77" y="-1009.97" font-family="Arial" font-size="20.00" fill="magenta">start_next: 03/11/18, 15:23:35</text>
<text text-anchor="middle" x="506.77" y="-987.97" font-family="Arial" font-size="20.00" fill="magenta">gap: &#45;9sec</text>
<text text-anchor="middle" x="506.77" y="-965.97" font-family="Arial" font-size="20.00" fill="magenta">end_prev: 03/11/18, 15:23:44</text>
</g>
<!-- ARBITRARY CODE EXECUTION
http | ID: 353 -->
<g id="node14" class="node">
<title>ARBITRARY CODE EXECUTION
http | ID: 353</title>
<g id="a_node14"><a xlink:title="ET CURRENT_EVENTS QNAP Shellshock CVE&#45;2014&#45;6271&#10;ET WEB_SPECIFIC_APPS DesktopOnNet don3_requiem.php app_path Parameter Remote File Inclusion&#10;ET WEB_SPECIFIC_APPS Horde type Parameter Local File Inclusion Attempt&#10;ET WEB_SPECIFIC_APPS KR&#45;Web krgourl.php DOCUMENT_ROOT Parameter Remote File Inclusion Attempt&#10;ET WEB_SERVER Possible CVE&#45;2014&#45;6271 Attempt in Headers&#10;ET WEB_SPECIFIC_APPS BASE base_stat_common.php remote file include&#10;ET WEB_SPECIFIC_APPS Golem Gaming Portal root_path Parameter Remote File inclusion Attempt&#10;ET WEB_SPECIFIC_APPS Joomla swMenuPro ImageManager.php Remote File Inclusion Attempt&#10;ET WEB_SPECIFIC_APPS FormMailer formmailer.admin.inc.php BASE_DIR Parameter Remote File Inclusion Attempt&#10;ET WEB_SPECIFIC_APPS AjaxPortal di.php pathtoserverdata Parameter Remote File Inclusion Attempt&#10;ET WEB_SERVER cmd.exe In URI &#45; Possible Command Execution Attempt&#10;ET WEB_SPECIFIC_APPS KingCMS menu.php CONFIG Parameter Remote File Inclusion&#10;ETPRO WEB_SPECIFIC_APPS PHPMoAdmin RCE Attempt&#10;ET WEB_SERVER Exploit Suspected PHP Injection Attack (cmd=)&#10;ET WEB_SPECIFIC_APPS Achievo debugger.php config_atkroot parameter Remote File Inclusion Attempt&#10;ET WEB_SERVER Possible CVE&#45;2014&#45;6271 Attempt&#10;ET WEB_SPECIFIC_APPS Joomla Dada Mail Manager Component config.dadamail.php GLOBALS Parameter Remote File Inclusion&#10;ET WEB_SPECIFIC_APPS WEB&#45;PHP RCE PHPBB 2004&#45;1315&#10;ET WEB_SPECIFIC_APPS DesktopOnNet frontpage.php app_path Parameter Remote File Inclusion&#10;ET WEB_SPECIFIC_APPS Joomla AjaxChat Component ajcuser.php GLOBALS Parameter Remote File Inclusion Attempt">
<polygon fill="none" stroke="black" stroke-width="3" points="422.77,-1273.95 47.77,-1273.95 47.77,-1213.95 422.77,-1213.95 422.77,-1273.95"/>
<text text-anchor="middle" x="235.27" y="-1250.75" font-family="Arial" font-size="24.00">ARBITRARY CODE EXECUTION</text>
<text text-anchor="middle" x="235.27" y="-1224.75" font-family="Arial" font-size="24.00">http | ID: 353</text>
</a>
</g>
</g>
<!-- DATA EXFILTRATION
http | ID: 15&#45;&gt;ARBITRARY CODE EXECUTION
http | ID: 353 -->
<g id="edge14" class="edge">
<title>DATA EXFILTRATION
http | ID: 15&#45;&gt;ARBITRARY CODE EXECUTION
http | ID: 353</title>
<path fill="none" stroke="magenta" stroke-width="5" d="M159.95,-1132.02C158.56,-1134.6 157.32,-1137.25 156.27,-1139.95 146.67,-1164.74 141.54,-1178.47 156.95,-1205.07"/>
<polygon fill="magenta" stroke="magenta" stroke-width="5" points="153.38,-1207.62 162.4,-1213.77 160.79,-1202.97 153.38,-1207.62"/>
<text text-anchor="middle" x="287.77" y="-1189.95" font-family="Arial" font-size="20.00" fill="magenta">start_next: 03/11/18, 15:18:19</text>
<text text-anchor="middle" x="287.77" y="-1167.95" font-family="Arial" font-size="20.00" fill="magenta">gap: &#45;10sec</text>
<text text-anchor="middle" x="287.77" y="-1145.95" font-family="Arial" font-size="20.00" fill="magenta">end_prev: 03/11/18, 15:18:29</text>
</g>
<!-- DATA EXFILTRATION
http | ID: 15&#45;&gt;ARBITRARY CODE EXECUTION
http | ID: 353 -->
<g id="edge22" class="edge">
<title>DATA EXFILTRATION
http | ID: 15&#45;&gt;ARBITRARY CODE EXECUTION
http | ID: 353</title>
<path fill="none" stroke="magenta" stroke-width="5" d="M355.36,-1110.21C383.58,-1118.22 407.18,-1128.1 416.27,-1139.95 434.13,-1163.22 434.82,-1183.23 416.27,-1205.95 415.76,-1206.57 415.2,-1207.19 414.59,-1207.79"/>
<polygon fill="magenta" stroke="magenta" stroke-width="5" points="411.79,-1204.43 406.35,-1213.89 416.99,-1211.46 411.79,-1204.43"/>
<text text-anchor="middle" x="561.77" y="-1189.95" font-family="Arial" font-size="20.00" fill="magenta">start_next: 03/11/18, 15:23:36</text>
<text text-anchor="middle" x="561.77" y="-1167.95" font-family="Arial" font-size="20.00" fill="magenta">gap: &#45;8sec</text>
<text text-anchor="middle" x="561.77" y="-1145.95" font-family="Arial" font-size="20.00" fill="magenta">end_prev: 03/11/18, 15:23:44</text>
</g>
<!-- ROOT PRIVILEGE ESCALATION
http | ID: 133 -->
<g id="node15" class="node">
<title>ROOT PRIVILEGE ESCALATION
http | ID: 133</title>
<g id="a_node15"><a xlink:title="ET WEB_SERVER ColdFusion administrator access&#10;ETPRO WEB_SPECIFIC_APPS ipTIME firmware &lt; 9.58 RCE&#10;GPL EXPLOIT administrators.pwd access&#10;GPL EXPLOIT CodeRed v2 root.exe access">
<polygon fill="none" stroke="black" stroke-width="3" points="443.77,-1418.95 68.77,-1418.95 68.77,-1358.95 443.77,-1358.95 443.77,-1418.95"/>
<text text-anchor="middle" x="256.27" y="-1395.75" font-family="Arial" font-size="24.00">ROOT PRIVILEGE ESCALATION</text>
<text text-anchor="middle" x="256.27" y="-1369.75" font-family="Arial" font-size="24.00">http | ID: 133</text>
</a>
</g>
</g>
<!-- ARBITRARY CODE EXECUTION
http | ID: 353&#45;&gt;ROOT PRIVILEGE ESCALATION
http | ID: 133 -->
<g id="edge15" class="edge">
<title>ARBITRARY CODE EXECUTION
http | ID: 353&#45;&gt;ROOT PRIVILEGE ESCALATION
http | ID: 133</title>
<path fill="none" stroke="magenta" stroke-width="5" d="M202.42,-1274.19C200.8,-1276.67 199.38,-1279.26 198.27,-1281.95 187.05,-1309.05 184.63,-1321.98 198.27,-1347.95 198.72,-1348.8 199.19,-1349.64 199.69,-1350.46"/>
<polygon fill="magenta" stroke="magenta" stroke-width="5" points="196.41,-1353.38 205.92,-1358.74 203.4,-1348.12 196.41,-1353.38"/>
<text text-anchor="middle" x="329.77" y="-1331.95" font-family="Arial" font-size="20.00" fill="magenta">start_next: 03/11/18, 15:18:20</text>
<text text-anchor="middle" x="329.77" y="-1309.95" font-family="Arial" font-size="20.00" fill="magenta">gap: &#45;10sec</text>
<text text-anchor="middle" x="329.77" y="-1287.95" font-family="Arial" font-size="20.00" fill="magenta">end_prev: 03/11/18, 15:18:29</text>
</g>
<!-- ARBITRARY CODE EXECUTION
http | ID: 353&#45;&gt;ROOT PRIVILEGE ESCALATION
http | ID: 133 -->
<g id="edge23" class="edge">
<title>ARBITRARY CODE EXECUTION
http | ID: 353&#45;&gt;ROOT PRIVILEGE ESCALATION
http | ID: 133</title>
<path fill="none" stroke="magenta" stroke-width="5" d="M422.8,-1263.44C439.06,-1268.26 451.8,-1274.32 458.27,-1281.95 477.24,-1304.32 476.89,-1325.28 458.27,-1347.95 456.63,-1349.95 454.52,-1351.86 452.01,-1353.67"/>
<polygon fill="magenta" stroke="magenta" stroke-width="5" points="449.69,-1349.96 443.32,-1358.82 454.15,-1357.48 449.69,-1349.96"/>
<text text-anchor="middle" x="604.77" y="-1331.95" font-family="Arial" font-size="20.00" fill="magenta">start_next: 03/11/18, 15:23:36</text>
<text text-anchor="middle" x="604.77" y="-1309.95" font-family="Arial" font-size="20.00" fill="magenta">gap: &#45;8sec</text>
<text text-anchor="middle" x="604.77" y="-1287.95" font-family="Arial" font-size="20.00" fill="magenta">end_prev: 03/11/18, 15:23:44</text>
</g>
<!-- DATA MANIPULATION
http | ID: 17 -->
<g id="node16" class="node">
<title>DATA MANIPULATION
http | ID: 17</title>
<g id="a_node16"><a xlink:title="ET WEB_SERVER Possible SQL Injection Attempt SELECT FROM&#10;ET WEB_SERVER MYSQL SELECT CONCAT SQL Injection Attempt&#10;ET WEB_SERVER Possible SQL Injection Attempt UNION SELECT">
<polygon fill="none" stroke="black" stroke-width="3" points="484.48,-1552.94 377.88,-1601.92 164.66,-1601.92 58.06,-1552.94 164.66,-1503.96 377.88,-1503.96 484.48,-1552.94"/>
<text text-anchor="middle" x="271.27" y="-1559.74" font-family="Arial" font-size="24.00">DATA MANIPULATION</text>
<text text-anchor="middle" x="271.27" y="-1533.74" font-family="Arial" font-size="24.00">http | ID: 17</text>
</a>
</g>
</g>
<!-- ROOT PRIVILEGE ESCALATION
http | ID: 133&#45;&gt;DATA MANIPULATION
http | ID: 17 -->
<g id="edge16" class="edge">
<title>ROOT PRIVILEGE ESCALATION
http | ID: 133&#45;&gt;DATA MANIPULATION
http | ID: 17</title>
<path fill="none" stroke="magenta" stroke-width="5" d="M233.85,-1419.1C231.99,-1422.61 230.4,-1426.26 229.27,-1429.95 221.53,-1455.26 220.2,-1465.97 229.15,-1494.05"/>
<polygon fill="magenta" stroke="magenta" stroke-width="5" points="225.1,-1495.72 232.42,-1503.81 233.4,-1492.94 225.1,-1495.72"/>
<text text-anchor="middle" x="360.77" y="-1479.95" font-family="Arial" font-size="20.00" fill="magenta">start_next: 03/11/18, 15:18:20</text>
<text text-anchor="middle" x="360.77" y="-1457.95" font-family="Arial" font-size="20.00" fill="magenta">gap: &#45;3sec</text>
<text text-anchor="middle" x="360.77" y="-1435.95" font-family="Arial" font-size="20.00" fill="magenta">end_prev: 03/11/18, 15:18:24</text>
</g>
<!-- ROOT PRIVILEGE ESCALATION
http | ID: 133&#45;&gt;DATA MANIPULATION
http | ID: 17 -->
<g id="edge24" class="edge">
<title>ROOT PRIVILEGE ESCALATION
http | ID: 133&#45;&gt;DATA MANIPULATION
http | ID: 17</title>
<path fill="none" stroke="magenta" stroke-width="5" d="M443.98,-1408.11C464.88,-1413.58 481.47,-1420.69 489.27,-1429.95 508.18,-1452.38 507.25,-1472.77 489.27,-1495.95 480.88,-1506.76 460.76,-1515.85 435.96,-1523.35"/>
<polygon fill="magenta" stroke="magenta" stroke-width="5" points="434.64,-1519.18 426.24,-1526.15 437.06,-1527.59 434.64,-1519.18"/>
<text text-anchor="middle" x="634.77" y="-1479.95" font-family="Arial" font-size="20.00" fill="magenta">start_next: 03/11/18, 15:23:36</text>
<text text-anchor="middle" x="634.77" y="-1457.95" font-family="Arial" font-size="20.00" fill="magenta">gap: &#45;3sec</text>
<text text-anchor="middle" x="634.77" y="-1435.95" font-family="Arial" font-size="20.00" fill="magenta">end_prev: 03/11/18, 15:23:39</text>
</g>
<!-- SURFING
http -->
<g id="node17" class="node">
<title>SURFING
http</title>
<g id="a_node17"><a xlink:title="ET WEB_SERVER WEB&#45;PHP phpinfo access">
<ellipse fill="none" stroke="black" stroke-width="3" cx="283.27" cy="-1726.36" rx="88.28" ry="42.35"/>
<text text-anchor="middle" x="283.27" y="-1733.16" font-family="Arial" font-size="24.00">SURFING</text>
<text text-anchor="middle" x="283.27" y="-1707.16" font-family="Arial" font-size="24.00">http</text>
</a>
</g>
</g>
<!-- DATA MANIPULATION
http | ID: 17&#45;&gt;SURFING
http -->
<g id="edge17" class="edge">
<title>DATA MANIPULATION
http | ID: 17&#45;&gt;SURFING
http</title>
<path fill="none" stroke="magenta" stroke-width="5" d="M253.87,-1601.94C253.25,-1604.62 252.71,-1607.3 252.27,-1609.93 247.49,-1638.87 244.16,-1647.74 252.27,-1675.93 252.3,-1676.03 252.33,-1676.14 252.36,-1676.24"/>
<polygon fill="magenta" stroke="magenta" stroke-width="5" points="248.32,-1677.94 255.91,-1685.78 256.52,-1674.88 248.32,-1677.94"/>
<text text-anchor="middle" x="383.77" y="-1659.93" font-family="Arial" font-size="20.00" fill="magenta">start_next: 03/11/18, 15:18:20</text>
<text text-anchor="middle" x="383.77" y="-1637.93" font-family="Arial" font-size="20.00" fill="magenta">gap: &#45;2sec</text>
<text text-anchor="middle" x="383.77" y="-1615.93" font-family="Arial" font-size="20.00" fill="magenta">end_prev: 03/11/18, 15:18:23</text>
</g>
<!-- DATA MANIPULATION
http | ID: 17&#45;&gt;SURFING
http -->
<g id="edge25" class="edge">
<title>DATA MANIPULATION
http | ID: 17&#45;&gt;SURFING
http</title>
<path fill="none" stroke="magenta" stroke-width="5" d="M434.07,-1576.16C469.99,-1584.47 500.82,-1595.51 512.27,-1609.93 530.52,-1632.9 530.69,-1653.1 512.27,-1675.93 495.38,-1696.86 434.81,-1709.36 380.21,-1716.55"/>
<polygon fill="magenta" stroke="magenta" stroke-width="5" points="379.46,-1712.23 370.09,-1717.83 380.56,-1720.91 379.46,-1712.23"/>
<text text-anchor="middle" x="657.77" y="-1659.93" font-family="Arial" font-size="20.00" fill="magenta">start_next: 03/11/18, 15:23:37</text>
<text text-anchor="middle" x="657.77" y="-1637.93" font-family="Arial" font-size="20.00" fill="magenta">gap: &#45;2sec</text>
<text text-anchor="middle" x="657.77" y="-1615.93" font-family="Arial" font-size="20.00" fill="magenta">end_prev: 03/11/18, 15:23:38</text>
</g>
<!-- ACCOUNT MANIPULATION
http | ID: 373 -->
<g id="node18" class="node">
<title>ACCOUNT MANIPULATION
http | ID: 373</title>
<g id="a_node18"><a xlink:title="GPL EXPLOIT /iisadmpwd/aexp2.htr access&#10;ET WEB_SERVER SELECT USER SQL Injection Attempt in URI">
<polygon fill="none" stroke="black" stroke-width="3" points="452.27,-1910.78 132.27,-1910.78 132.27,-1850.78 452.27,-1850.78 452.27,-1910.78"/>
<text text-anchor="middle" x="292.27" y="-1887.58" font-family="Arial" font-size="24.00">ACCOUNT MANIPULATION</text>
<text text-anchor="middle" x="292.27" y="-1861.58" font-family="Arial" font-size="24.00">http | ID: 373</text>
</a>
</g>
</g>
<!-- SURFING
http&#45;&gt;ACCOUNT MANIPULATION
http | ID: 373 -->
<g id="edge18" class="edge">
<title>SURFING
http&#45;&gt;ACCOUNT MANIPULATION
http | ID: 373</title>
<path fill="none" stroke="magenta" stroke-width="5" d="M271.18,-1768.54C266.98,-1788.48 264.26,-1812.86 270.46,-1840.58"/>
<polygon fill="magenta" stroke="magenta" stroke-width="5" points="266.29,-1841.94 273.03,-1850.52 274.76,-1839.74 266.29,-1841.94"/>
<text text-anchor="middle" x="401.77" y="-1826.78" font-family="Arial" font-size="20.00" fill="magenta">start_next: 03/11/18, 15:18:21</text>
<text text-anchor="middle" x="401.77" y="-1804.78" font-family="Arial" font-size="20.00" fill="magenta">gap: &#45;7sec</text>
<text text-anchor="middle" x="401.77" y="-1782.78" font-family="Arial" font-size="20.00" fill="magenta">end_prev: 03/11/18, 15:18:28</text>
</g>
<!-- SURFING
http&#45;&gt;ACCOUNT MANIPULATION
http | ID: 373 -->
<g id="edge26" class="edge">
<title>SURFING
http&#45;&gt;ACCOUNT MANIPULATION
http | ID: 373</title>
<path fill="none" stroke="magenta" stroke-width="5" d="M370.65,-1733.31C433.33,-1739.62 510.14,-1752.22 530.27,-1776.78 548.87,-1799.47 549.35,-1820.5 530.27,-1842.78 519.75,-1855.07 493.84,-1863.31 462.82,-1868.82"/>
<polygon fill="magenta" stroke="magenta" stroke-width="5" points="461.73,-1864.57 452.57,-1870.52 463.16,-1873.2 461.73,-1864.57"/>
<text text-anchor="middle" x="676.77" y="-1826.78" font-family="Arial" font-size="20.00" fill="magenta">start_next: 03/11/18, 15:23:37</text>
<text text-anchor="middle" x="676.77" y="-1804.78" font-family="Arial" font-size="20.00" fill="magenta">gap: &#45;6sec</text>
<text text-anchor="middle" x="676.77" y="-1782.78" font-family="Arial" font-size="20.00" fill="magenta">end_prev: 03/11/18, 15:23:43</text>
</g>
<!-- ACCOUNT MANIPULATION
http | ID: 373&#45;&gt;RESOURCE HIJACKING
http | ID: 145 -->
<g id="edge19" class="edge">
<title>ACCOUNT MANIPULATION
http | ID: 373&#45;&gt;RESOURCE HIJACKING
http | ID: 145</title>
<path fill="none" stroke="magenta" stroke-width="5" d="M281.34,-1911.12C275.8,-1930.58 271.8,-1956.37 283.62,-1983.36"/>
<polygon fill="magenta" stroke="magenta" stroke-width="5" points="279.85,-1985.59 288.26,-1992.55 287.66,-1981.65 279.85,-1985.59"/>
<text text-anchor="middle" x="414.77" y="-1968.78" font-family="Arial" font-size="20.00" fill="magenta">start_next: 03/11/18, 15:18:23</text>
<text text-anchor="middle" x="414.77" y="-1946.78" font-family="Arial" font-size="20.00" fill="magenta">gap: 0sec</text>
<text text-anchor="middle" x="414.77" y="-1924.78" font-family="Arial" font-size="20.00" fill="magenta">end_prev: 03/11/18, 15:18:23</text>
</g>
<!-- ACCOUNT MANIPULATION
http | ID: 373&#45;&gt;RESOURCE HIJACKING
http | ID: 145 -->
<g id="edge27" class="edge">
<title>ACCOUNT MANIPULATION
http | ID: 373&#45;&gt;RESOURCE HIJACKING
http | ID: 145</title>
<path fill="none" stroke="magenta" stroke-width="5" d="M452.35,-1888.91C493.49,-1894.25 529.96,-1903.36 543.27,-1918.78 562.44,-1940.98 560.51,-1961.05 543.27,-1984.78 539.12,-1990.5 534.37,-1995.65 529.15,-2000.28"/>
<polygon fill="magenta" stroke="magenta" stroke-width="5" points="526.23,-1997.01 521.2,-2006.7 531.73,-2003.82 526.23,-1997.01"/>
<text text-anchor="middle" x="688.77" y="-1968.78" font-family="Arial" font-size="20.00" fill="magenta">start_next: 03/11/18, 15:23:38</text>
<text text-anchor="middle" x="688.77" y="-1946.78" font-family="Arial" font-size="20.00" fill="magenta">gap: 0sec</text>
<text text-anchor="middle" x="688.77" y="-1924.78" font-family="Arial" font-size="20.00" fill="magenta">end_prev: 03/11/18, 15:23:38</text>
</g>
</g>
</svg>
