<?xml version="1.0" encoding="UTF-8" standalone="no"?>
<!DOCTYPE svg PUBLIC "-//W3C//DTD SVG 1.1//EN"
 "http://www.w3.org/Graphics/SVG/1.1/DTD/svg11.dtd">
<!-- Generated by graphviz version 2.50.0 (0)
 -->
<!-- Title: NETWORKDOSssdp Pages: 1 -->
<svg width="517pt" height="919pt"
 viewBox="0.00 0.00 517.12 919.18" xmlns="http://www.w3.org/2000/svg" xmlns:xlink="http://www.w3.org/1999/xlink">
<g id="graph0" class="graph" transform="scale(1 1) rotate(0) translate(4 915.18)">
<title>NETWORKDOSssdp</title>
<polygon fill="white" stroke="transparent" points="-4,4 -4,-915.18 513.12,-915.18 513.12,4 -4,4"/>
<!-- Victim: 10.0.0.244
NETWORK DoS
ssdp -->
<g id="node1" class="node">
<title>Victim: 10.0.0.244
NETWORK DoS
ssdp</title>
<polygon fill="salmon" stroke="black" stroke-width="3" points="402.07,-814.16 402.07,-868.55 307.79,-907.01 174.46,-907.01 80.17,-868.55 80.17,-814.16 174.46,-775.71 307.79,-775.71 402.07,-814.16"/>
<polygon fill="none" stroke="black" stroke-width="3" points="406.08,-811.49 406.08,-871.23 308.58,-911 173.67,-911 76.17,-871.23 76.17,-811.49 173.67,-771.72 308.58,-771.72 406.08,-811.49"/>
<text text-anchor="middle" x="241.12" y="-861.16" font-family="Arial" font-size="24.00">Victim: 10.0.0.244</text>
<text text-anchor="middle" x="241.12" y="-835.16" font-family="Arial" font-size="24.00">NETWORK DoS</text>
<text text-anchor="middle" x="241.12" y="-809.16" font-family="Arial" font-size="24.00">ssdp</text>
</g>
<!-- NETWORK DoS
ssdp | ID: 45 -->
<g id="node2" class="node">
<title>NETWORK DoS
ssdp | ID: 45</title>
<g id="a_node2"><a xlink:title="ET DOS Possible SSDP Amplification Scan in Progress">
<polygon fill="salmon" stroke="black" stroke-width="3" points="397.66,-705.55 319.39,-754.53 162.86,-754.53 84.59,-705.55 162.86,-656.57 319.39,-656.57 397.66,-705.55"/>
<text text-anchor="middle" x="241.12" y="-712.35" font-family="Arial" font-size="24.00">NETWORK DoS</text>
<text text-anchor="middle" x="241.12" y="-686.35" font-family="Arial" font-size="24.00">ssdp | ID: 45</text>
</a>
</g>
</g>
<!-- NETWORK DoS
ssdp | ID: 45&#45;&gt;Victim: 10.0.0.244
NETWORK DoS
ssdp -->
<g id="edge1" class="edge">
<title>NETWORK DoS
ssdp | ID: 45&#45;&gt;Victim: 10.0.0.244
NETWORK DoS
ssdp</title>
<path fill="none" stroke="black" stroke-width="5" d="M241.12,-754.86C241.12,-756.96 241.12,-759.09 241.12,-761.24"/>
<polygon fill="black" stroke="black" stroke-width="5" points="236.75,-761.4 241.12,-771.4 245.5,-761.4 236.75,-761.4"/>
</g>
<!-- VULNERABILTY DISCOVERY
mysql -->
<g id="node3" class="node">
<title>VULNERABILTY DISCOVERY
mysql</title>
<g id="a_node3"><a xlink:title="ET SCAN Suspicious inbound to mySQL port 3306&#10;ET SCAN Suspicious inbound to MSSQL port 1433&#10;ET SCAN Suspicious inbound to PostgreSQL port 5432&#10;ET SCAN Suspicious inbound to Oracle SQL port 1521&#10;ET SCAN Suspicious inbound to mSQL port 4333">
<ellipse fill="yellow" stroke="black" stroke-width="3" cx="241.12" cy="-42.43" rx="241.25" ry="42.35"/>
<text text-anchor="middle" x="241.12" y="-49.23" font-family="Arial" font-size="24.00">VULNERABILTY DISCOVERY</text>
<text text-anchor="middle" x="241.12" y="-23.23" font-family="Arial" font-size="24.00">mysql</text>
</a>
</g>
</g>
<!-- INFO DISCOVERY
xdmcp -->
<g id="node4" class="node">
<title>INFO DISCOVERY
xdmcp</title>
<g id="a_node4"><a xlink:title="GPL DNS named version attempt&#10;GPL RPC xdmcp info query">
<ellipse fill="none" stroke="black" stroke-width="3" cx="241.12" cy="-223.28" rx="156.04" ry="42.35"/>
<text text-anchor="middle" x="241.12" y="-230.08" font-family="Arial" font-size="24.00">INFO DISCOVERY</text>
<text text-anchor="middle" x="241.12" y="-204.08" font-family="Arial" font-size="24.00">xdmcp</text>
</a>
</g>
</g>
<!-- VULNERABILTY DISCOVERY
mysql&#45;&gt;INFO DISCOVERY
xdmcp -->
<g id="edge2" class="edge">
<title>VULNERABILTY DISCOVERY
mysql&#45;&gt;INFO DISCOVERY
xdmcp</title>
<path fill="none" stroke="maroon" stroke-width="5" d="M241.12,-84.91C241.12,-110.44 241.12,-143.37 241.12,-170.59"/>
<polygon fill="maroon" stroke="maroon" stroke-width="5" points="236.75,-170.71 241.12,-180.71 245.5,-170.71 236.75,-170.71"/>
<text text-anchor="start" x="241.12" y="-157.85" font-family="Arial" font-size="20.00" fill="maroon"> start_next: 03/11/18, 20:57:34</text>
<text text-anchor="start" x="320.62" y="-137.85" font-family="Arial" font-size="20.00" fill="maroon">gap: 150sec</text>
<text text-anchor="start" x="245.12" y="-117.85" font-family="Arial" font-size="20.00" fill="maroon">end_prev: 03/11/18, 20:55:04</text>
<text text-anchor="start" x="270.12" y="-97.85" font-family="Arial" font-weight="bold" font-size="20.00" fill="maroon">Attacker: 10.0.254.103</text>
</g>
<!-- HOST DISCOVERY
asf&#45;rmcp -->
<g id="node5" class="node">
<title>HOST DISCOVERY
asf&#45;rmcp</title>
<g id="a_node5"><a xlink:title="ETPRO SCAN IPMI Get Authentication Request (null seq number &#45; null sessionID)">
<ellipse fill="none" stroke="black" stroke-width="3" cx="241.12" cy="-390.13" rx="162.77" ry="42.35"/>
<text text-anchor="middle" x="241.12" y="-396.93" font-family="Arial" font-size="24.00">HOST DISCOVERY</text>
<text text-anchor="middle" x="241.12" y="-370.93" font-family="Arial" font-size="24.00">asf&#45;rmcp</text>
</a>
</g>
</g>
<!-- INFO DISCOVERY
xdmcp&#45;&gt;HOST DISCOVERY
asf&#45;rmcp -->
<g id="edge3" class="edge">
<title>INFO DISCOVERY
xdmcp&#45;&gt;HOST DISCOVERY
asf&#45;rmcp</title>
<path fill="none" stroke="maroon" stroke-width="5" d="M241.12,-265.88C241.12,-287.55 241.12,-314.26 241.12,-337.27"/>
<polygon fill="maroon" stroke="maroon" stroke-width="5" points="236.75,-337.55 241.12,-347.55 245.5,-337.55 236.75,-337.55"/>
<text text-anchor="middle" x="372.62" y="-323.71" font-family="Arial" font-size="20.00" fill="maroon">start_next: 03/11/18, 20:57:35</text>
<text text-anchor="middle" x="372.62" y="-301.71" font-family="Arial" font-size="20.00" fill="maroon">gap: &#45;4sec</text>
<text text-anchor="middle" x="372.62" y="-279.71" font-family="Arial" font-size="20.00" fill="maroon">end_prev: 03/11/18, 20:57:39</text>
</g>
<!-- ACCOUNT MANIPULATION
snmp | ID: 217 -->
<g id="node6" class="node">
<title>ACCOUNT MANIPULATION
snmp | ID: 217</title>
<g id="a_node6"><a xlink:title="GPL SNMP public access udp">
<polygon fill="none" stroke="black" stroke-width="3" stroke-dasharray="1,5" points="401.12,-574.56 81.12,-574.56 81.12,-514.56 401.12,-514.56 401.12,-574.56"/>
<text text-anchor="middle" x="241.12" y="-551.36" font-family="Arial" font-size="24.00">ACCOUNT MANIPULATION</text>
<text text-anchor="middle" x="241.12" y="-525.36" font-family="Arial" font-size="24.00">snmp | ID: 217</text>
</a>
</g>
</g>
<!-- HOST DISCOVERY
asf&#45;rmcp&#45;&gt;ACCOUNT MANIPULATION
snmp | ID: 217 -->
<g id="edge4" class="edge">
<title>HOST DISCOVERY
asf&#45;rmcp&#45;&gt;ACCOUNT MANIPULATION
snmp | ID: 217</title>
<path fill="none" stroke="maroon" stroke-width="5" d="M241.12,-432.78C241.12,-455.05 241.12,-482.32 241.12,-504.23"/>
<polygon fill="maroon" stroke="maroon" stroke-width="5" points="236.75,-504.51 241.12,-514.51 245.5,-504.51 236.75,-504.51"/>
<text text-anchor="middle" x="372.62" y="-490.56" font-family="Arial" font-size="20.00" fill="maroon">start_next: 03/11/18, 20:57:35</text>
<text text-anchor="middle" x="372.62" y="-468.56" font-family="Arial" font-size="20.00" fill="maroon">gap: 0sec</text>
<text text-anchor="middle" x="372.62" y="-446.56" font-family="Arial" font-size="20.00" fill="maroon">end_prev: 03/11/18, 20:57:35</text>
</g>
<!-- ACCOUNT MANIPULATION
snmp | ID: 217&#45;&gt;NETWORK DoS
ssdp | ID: 45 -->
<g id="edge5" class="edge">
<title>ACCOUNT MANIPULATION
snmp | ID: 217&#45;&gt;NETWORK DoS
ssdp | ID: 45</title>
<path fill="none" stroke="maroon" stroke-width="5" d="M241.12,-574.72C241.12,-594.72 241.12,-621.95 241.12,-646.3"/>
<polygon fill="maroon" stroke="maroon" stroke-width="5" points="236.75,-646.53 241.12,-656.53 245.5,-646.53 236.75,-646.53"/>
<text text-anchor="middle" x="372.62" y="-632.56" font-family="Arial" font-size="20.00" fill="maroon">start_next: 03/11/18, 20:57:42</text>
<text text-anchor="middle" x="372.62" y="-610.56" font-family="Arial" font-size="20.00" fill="maroon">gap: 3sec</text>
<text text-anchor="middle" x="372.62" y="-588.56" font-family="Arial" font-size="20.00" fill="maroon">end_prev: 03/11/18, 20:57:40</text>
</g>
</g>
</svg>
