<?xml version="1.0" encoding="UTF-8" standalone="no"?>
<!DOCTYPE svg PUBLIC "-//W3C//DTD SVG 1.1//EN"
 "http://www.w3.org/Graphics/SVG/1.1/DTD/svg11.dtd">
<!-- Generated by graphviz version 2.50.0 (0)
 -->
<!-- Title: NETWORKDOShttp Pages: 1 -->
<svg width="1721pt" height="1171pt"
 viewBox="0.00 0.00 1720.63 1170.87" xmlns="http://www.w3.org/2000/svg" xmlns:xlink="http://www.w3.org/1999/xlink">
<g id="graph0" class="graph" transform="scale(1 1) rotate(0) translate(4 1166.87)">
<title>NETWORKDOShttp</title>
<polygon fill="white" stroke="transparent" points="-4,4 -4,-1166.87 1716.63,-1166.87 1716.63,4 -4,4"/>
<!-- Victim: 10.0.0.24
NETWORK DoS
http -->
<g id="node1" class="node">
<title>Victim: 10.0.0.24
NETWORK DoS
http</title>
<polygon fill="salmon" stroke="black" stroke-width="3" points="1201.2,-1065.85 1201.2,-1120.24 1113,-1158.7 988.27,-1158.7 900.07,-1120.24 900.07,-1065.85 988.27,-1027.39 1113,-1027.39 1201.2,-1065.85"/>
<polygon fill="none" stroke="black" stroke-width="3" points="1205.19,-1063.24 1205.19,-1122.85 1113.83,-1162.69 987.44,-1162.69 896.08,-1122.85 896.08,-1063.24 987.44,-1023.4 1113.83,-1023.4 1205.19,-1063.24"/>
<text text-anchor="middle" x="1050.63" y="-1112.84" font-family="Arial" font-size="24.00">Victim: 10.0.0.24</text>
<text text-anchor="middle" x="1050.63" y="-1086.84" font-family="Arial" font-size="24.00">NETWORK DoS</text>
<text text-anchor="middle" x="1050.63" y="-1060.84" font-family="Arial" font-size="24.00">http</text>
</g>
<!-- NETWORK DoS
http | ID: 112 -->
<g id="node2" class="node">
<title>NETWORK DoS
http | ID: 112</title>
<g id="a_node2"><a xlink:title="ET WEB_SERVER Possible Cherokee Web Server GET AUX Request Denial Of Service Attempt">
<polygon fill="none" stroke="black" stroke-width="3" stroke-dasharray="1,5" points="1482.17,-957.23 1403.9,-1006.21 1247.37,-1006.21 1169.1,-957.23 1247.37,-908.25 1403.9,-908.25 1482.17,-957.23"/>
<text text-anchor="middle" x="1325.63" y="-964.03" font-family="Arial" font-size="24.00">NETWORK DoS</text>
<text text-anchor="middle" x="1325.63" y="-938.03" font-family="Arial" font-size="24.00">http | ID: 112</text>
</a>
</g>
</g>
<!-- NETWORK DoS
http | ID: 112&#45;&gt;Victim: 10.0.0.24
NETWORK DoS
http -->
<g id="edge1" class="edge">
<title>NETWORK DoS
http | ID: 112&#45;&gt;Victim: 10.0.0.24
NETWORK DoS
http</title>
<path fill="none" stroke="black" stroke-width="5" d="M1238.24,-1000.76C1214.71,-1012.21 1188.91,-1024.76 1164.18,-1036.8"/>
<polygon fill="black" stroke="black" stroke-width="5" points="1162.2,-1032.89 1155.12,-1041.2 1166.03,-1040.76 1162.2,-1032.89"/>
</g>
<!-- NETWORK DoS
http | ID: 5 -->
<g id="node3" class="node">
<title>NETWORK DoS
http | ID: 5</title>
<g id="a_node3"><a xlink:title="ET WEB_SERVER Possible Cherokee Web Server GET AUX Request Denial Of Service Attempt">
<polygon fill="salmon" stroke="black" stroke-width="3" points="1047.17,-957.23 968.9,-1006.21 812.37,-1006.21 734.1,-957.23 812.37,-908.25 968.9,-908.25 1047.17,-957.23"/>
<text text-anchor="middle" x="890.63" y="-964.03" font-family="Arial" font-size="24.00">NETWORK DoS</text>
<text text-anchor="middle" x="890.63" y="-938.03" font-family="Arial" font-size="24.00">http | ID: 5</text>
</a>
</g>
</g>
<!-- NETWORK DoS
http | ID: 5&#45;&gt;Victim: 10.0.0.24
NETWORK DoS
http -->
<g id="edge2" class="edge">
<title>NETWORK DoS
http | ID: 5&#45;&gt;Victim: 10.0.0.24
NETWORK DoS
http</title>
<path fill="none" stroke="black" stroke-width="5" d="M948.4,-1006.54C954.44,-1011.6 960.67,-1016.8 966.92,-1022.03"/>
<polygon fill="black" stroke="black" stroke-width="5" points="964.37,-1025.61 974.85,-1028.67 969.99,-1018.89 964.37,-1025.61"/>
</g>
<!-- VULNERABILTY DISCOVERY
mysql -->
<g id="node4" class="node">
<title>VULNERABILTY DISCOVERY
mysql</title>
<g id="a_node4"><a xlink:title="ET SCAN Suspicious inbound to mySQL port 3306&#10;ET SCAN Suspicious inbound to MSSQL port 1433&#10;ET SCAN Suspicious inbound to PostgreSQL port 5432&#10;ET SCAN Suspicious inbound to Oracle SQL port 1521&#10;ET SCAN Suspicious inbound to mSQL port 4333">
<ellipse fill="yellow" stroke="black" stroke-width="3" cx="692.63" cy="-42.43" rx="241.25" ry="42.35"/>
<text text-anchor="middle" x="692.63" y="-49.23" font-family="Arial" font-size="24.00">VULNERABILTY DISCOVERY</text>
<text text-anchor="middle" x="692.63" y="-23.23" font-family="Arial" font-size="24.00">mysql</text>
</a>
</g>
</g>
<!-- SERVICE DISCOVERY
unknown -->
<g id="node5" class="node">
<title>SERVICE DISCOVERY
unknown</title>
<g id="a_node5"><a xlink:title="ET SCAN Potential SSH Scan&#10;ET SCAN Potential VNC Scan 5900&#45;5920&#10;ET SCAN Potential VNC Scan 5800&#45;5820&#10;ET SCAN NMAP OS Detection Probe">
<ellipse fill="none" stroke="black" stroke-width="3" cx="454.63" cy="-223.28" rx="189.51" ry="42.35"/>
<text text-anchor="middle" x="454.63" y="-230.08" font-family="Arial" font-size="24.00">SERVICE DISCOVERY</text>
<text text-anchor="middle" x="454.63" y="-204.08" font-family="Arial" font-size="24.00">unknown</text>
</a>
</g>
</g>
<!-- VULNERABILTY DISCOVERY
mysql&#45;&gt;SERVICE DISCOVERY
unknown -->
<g id="edge3" class="edge">
<title>VULNERABILTY DISCOVERY
mysql&#45;&gt;SERVICE DISCOVERY
unknown</title>
<path fill="none" stroke="maroon" stroke-width="5" d="M694.28,-85.08C694.65,-117.89 692.79,-160.14 681.63,-172.85 672.43,-183.33 651.63,-191.76 626.17,-198.47"/>
<polygon fill="maroon" stroke="maroon" stroke-width="5" points="624.84,-194.3 616.2,-200.97 626.96,-202.79 624.84,-194.3"/>
<text text-anchor="start" x="693.63" y="-157.85" font-family="Arial" font-size="20.00" fill="maroon"> start_next: 03/11/18, 14:36:36</text>
<text text-anchor="start" x="784.13" y="-137.85" font-family="Arial" font-size="20.00" fill="maroon">gap: 0sec</text>
<text text-anchor="start" x="697.63" y="-117.85" font-family="Arial" font-size="20.00" fill="maroon">end_prev: 03/11/18, 14:36:37</text>
<text text-anchor="start" x="722.63" y="-97.85" font-family="Arial" font-weight="bold" font-size="20.00" fill="maroon">Attacker: 10.0.254.205</text>
</g>
<!-- VULNERABILTY DISCOVERY
mysql&#45;&gt;SERVICE DISCOVERY
unknown -->
<g id="edge15" class="edge">
<title>VULNERABILTY DISCOVERY
mysql&#45;&gt;SERVICE DISCOVERY
unknown</title>
<path fill="none" stroke="purple" stroke-width="5" d="M481.24,-62.9C449.52,-69.99 423.7,-79.66 412.63,-92.85 391.57,-117.96 398.92,-136.4 412.93,-172.08"/>
<polygon fill="purple" stroke="purple" stroke-width="5" points="408.91,-173.82 416.62,-181.54 417.06,-170.63 408.91,-173.82"/>
<text text-anchor="start" x="412.63" y="-157.85" font-family="Arial" font-size="20.00" fill="purple"> start_next: 03/11/18, 14:57:35</text>
<text text-anchor="start" x="503.13" y="-137.85" font-family="Arial" font-size="20.00" fill="purple">gap: 0sec</text>
<text text-anchor="start" x="416.63" y="-117.85" font-family="Arial" font-size="20.00" fill="purple">end_prev: 03/11/18, 14:57:35</text>
<text text-anchor="start" x="441.63" y="-97.85" font-family="Arial" font-weight="bold" font-size="20.00" fill="purple">Attacker: 10.0.254.206</text>
</g>
<!-- SERVICE DISCOVERY
ipsma -->
<g id="node9" class="node">
<title>SERVICE DISCOVERY
ipsma</title>
<g id="a_node9"><a xlink:title="ET SCAN Potential VNC Scan 5900&#45;5920&#10;ET SCAN Potential VNC Scan 5800&#45;5820&#10;ET SCAN Potential SSH Scan">
<ellipse fill="none" stroke="black" stroke-width="3" cx="972.63" cy="-223.28" rx="189.51" ry="42.35"/>
<text text-anchor="middle" x="972.63" y="-230.08" font-family="Arial" font-size="24.00">SERVICE DISCOVERY</text>
<text text-anchor="middle" x="972.63" y="-204.08" font-family="Arial" font-size="24.00">ipsma</text>
</a>
</g>
</g>
<!-- VULNERABILTY DISCOVERY
mysql&#45;&gt;SERVICE DISCOVERY
ipsma -->
<g id="edge10" class="edge">
<title>VULNERABILTY DISCOVERY
mysql&#45;&gt;SERVICE DISCOVERY
ipsma</title>
<path fill="none" stroke="purple" stroke-width="5" d="M897.23,-64.9C926.72,-71.81 950.79,-80.9 961.63,-92.85 980.3,-113.42 983.55,-144.15 981.9,-170.51"/>
<polygon fill="purple" stroke="purple" stroke-width="5" points="977.52,-170.4 981.01,-180.74 986.24,-171.15 977.52,-170.4"/>
<text text-anchor="start" x="981.63" y="-157.85" font-family="Arial" font-size="20.00" fill="purple"> start_next: 03/11/18, 17:44:50</text>
<text text-anchor="start" x="1068.63" y="-137.85" font-family="Arial" font-size="20.00" fill="purple">gap: &#45;1sec</text>
<text text-anchor="start" x="985.63" y="-117.85" font-family="Arial" font-size="20.00" fill="purple">end_prev: 03/11/18, 17:44:51</text>
<text text-anchor="start" x="1010.63" y="-97.85" font-family="Arial" font-weight="bold" font-size="20.00" fill="purple">Attacker: 10.0.254.202</text>
</g>
<!-- HOST DISCOVERY
wap&#45;wsp -->
<g id="node6" class="node">
<title>HOST DISCOVERY
wap&#45;wsp</title>
<g id="a_node6"><a xlink:title="ET SCAN Nmap Scripting Engine User&#45;Agent Detected (Nmap Scripting Engine)&#10;ET SCAN Possible Nmap User&#45;Agent Observed">
<ellipse fill="none" stroke="black" stroke-width="3" cx="972.63" cy="-588.96" rx="162.77" ry="42.35"/>
<text text-anchor="middle" x="972.63" y="-595.76" font-family="Arial" font-size="24.00">HOST DISCOVERY</text>
<text text-anchor="middle" x="972.63" y="-569.76" font-family="Arial" font-size="24.00">wap&#45;wsp</text>
</a>
</g>
</g>
<!-- SERVICE DISCOVERY
unknown&#45;&gt;HOST DISCOVERY
wap&#45;wsp -->
<g id="edge4" class="edge">
<title>SERVICE DISCOVERY
unknown&#45;&gt;HOST DISCOVERY
wap&#45;wsp</title>
<path fill="none" stroke="maroon" stroke-width="5" d="M477.73,-265.62C478.81,-268.31 479.8,-271.02 480.63,-273.71 503.6,-347.2 452.06,-386.76 501.63,-445.69 513.31,-459.56 716.71,-517.62 852.36,-555.15"/>
<polygon fill="maroon" stroke="maroon" stroke-width="5" points="851.2,-559.37 862.01,-557.82 853.53,-550.94 851.2,-559.37"/>
<text text-anchor="middle" x="633.13" y="-413.7" font-family="Arial" font-size="20.00" fill="maroon">start_next: 03/11/18, 14:39:18</text>
<text text-anchor="middle" x="633.13" y="-391.7" font-family="Arial" font-size="20.00" fill="maroon">gap: 4sec</text>
<text text-anchor="middle" x="633.13" y="-369.7" font-family="Arial" font-size="20.00" fill="maroon">end_prev: 03/11/18, 14:39:14</text>
</g>
<!-- HOST DISCOVERY
http -->
<g id="node12" class="node">
<title>HOST DISCOVERY
http</title>
<g id="a_node12"><a xlink:title="ET SCAN Nmap Scripting Engine User&#45;Agent Detected (Nmap Scripting Engine)&#10;ET SCAN Possible Nmap User&#45;Agent Observed">
<ellipse fill="none" stroke="black" stroke-width="3" cx="162.63" cy="-496.11" rx="162.77" ry="42.35"/>
<text text-anchor="middle" x="162.63" y="-502.91" font-family="Arial" font-size="24.00">HOST DISCOVERY</text>
<text text-anchor="middle" x="162.63" y="-476.91" font-family="Arial" font-size="24.00">http</text>
</a>
</g>
</g>
<!-- SERVICE DISCOVERY
unknown&#45;&gt;HOST DISCOVERY
http -->
<g id="edge16" class="edge">
<title>SERVICE DISCOVERY
unknown&#45;&gt;HOST DISCOVERY
http</title>
<path fill="none" stroke="purple" stroke-width="5" d="M293.46,-245.66C260.88,-252.84 232.85,-262.07 220.63,-273.71 174.62,-317.56 163.46,-393.07 161.57,-443.54"/>
<polygon fill="purple" stroke="purple" stroke-width="5" points="157.2,-443.49 161.3,-453.6 165.94,-443.72 157.2,-443.49"/>
<text text-anchor="middle" x="352.13" y="-323.71" font-family="Arial" font-size="20.00" fill="purple">start_next: 03/11/18, 14:59:39</text>
<text text-anchor="middle" x="352.13" y="-301.71" font-family="Arial" font-size="20.00" fill="purple">gap: 124sec</text>
<text text-anchor="middle" x="352.13" y="-279.71" font-family="Arial" font-size="20.00" fill="purple">end_prev: 03/11/18, 14:57:35</text>
</g>
<!-- INFO DISCOVERY
http -->
<g id="node7" class="node">
<title>INFO DISCOVERY
http</title>
<g id="a_node7"><a xlink:title="GPL WEB_SERVER .htaccess access&#10;GPL WEB_SERVER /~root access&#10;GPL WEB_SERVER iisadmin access&#10;GPL WEB_SERVER printenv access&#10;GPL WEB_SERVER .htpasswd access&#10;GPL WEB_SERVER global.asa access">
<ellipse fill="yellow" stroke="black" stroke-width="3" cx="615.63" cy="-769.82" rx="156.04" ry="42.35"/>
<text text-anchor="middle" x="615.63" y="-776.62" font-family="Arial" font-size="24.00">INFO DISCOVERY</text>
<text text-anchor="middle" x="615.63" y="-750.62" font-family="Arial" font-size="24.00">http</text>
</a>
</g>
</g>
<!-- HOST DISCOVERY
wap&#45;wsp&#45;&gt;INFO DISCOVERY
http -->
<g id="edge5" class="edge">
<title>HOST DISCOVERY
wap&#45;wsp&#45;&gt;INFO DISCOVERY
http</title>
<path fill="none" stroke="maroon" stroke-width="5" d="M903.14,-627.63C899.58,-631.26 896.36,-635.18 893.63,-639.39 874.14,-669.53 907.42,-693.43 882.63,-719.39 866.38,-736.42 822.17,-747.68 774.3,-755.09"/>
<polygon fill="maroon" stroke="maroon" stroke-width="5" points="773.61,-750.77 764.36,-756.56 774.89,-759.42 773.61,-750.77"/>
<text text-anchor="middle" x="1025.13" y="-696.39" font-family="Arial" font-size="20.00" fill="maroon">start_next: 03/11/18, 21:01:43</text>
<text text-anchor="middle" x="1025.13" y="-674.39" font-family="Arial" font-size="20.00" fill="maroon">gap: 22931sec</text>
<text text-anchor="middle" x="1025.13" y="-652.39" font-family="Arial" font-size="20.00" fill="maroon">end_prev: 03/11/18, 14:39:32</text>
</g>
<!-- INFO DISCOVERY
unknown -->
<g id="node11" class="node">
<title>INFO DISCOVERY
unknown</title>
<g id="a_node11"><a xlink:title="ETPRO ATTACK_RESPONSE MongoDB Version Request">
<ellipse fill="none" stroke="black" stroke-width="3" cx="1166.63" cy="-769.82" rx="156.04" ry="42.35"/>
<text text-anchor="middle" x="1166.63" y="-776.62" font-family="Arial" font-size="24.00">INFO DISCOVERY</text>
<text text-anchor="middle" x="1166.63" y="-750.62" font-family="Arial" font-size="24.00">unknown</text>
</a>
</g>
</g>
<!-- HOST DISCOVERY
wap&#45;wsp&#45;&gt;INFO DISCOVERY
unknown -->
<g id="edge13" class="edge">
<title>HOST DISCOVERY
wap&#45;wsp&#45;&gt;INFO DISCOVERY
unknown</title>
<path fill="none" stroke="purple" stroke-width="5" d="M1104.61,-613.91C1128.99,-620.89 1149.39,-629.39 1157.63,-639.39 1175.16,-660.64 1177.99,-691.11 1176.18,-717.16"/>
<polygon fill="purple" stroke="purple" stroke-width="5" points="1171.81,-716.9 1175.23,-727.26 1180.52,-717.71 1171.81,-716.9"/>
<text text-anchor="middle" x="1308.13" y="-696.39" font-family="Arial" font-size="20.00" fill="purple">start_next: 03/11/18, 17:47:24</text>
<text text-anchor="middle" x="1308.13" y="-674.39" font-family="Arial" font-size="20.00" fill="purple">gap: &#45;1sec</text>
<text text-anchor="middle" x="1308.13" y="-652.39" font-family="Arial" font-size="20.00" fill="purple">end_prev: 03/11/18, 17:47:25</text>
</g>
<!-- INFO DISCOVERY
http&#45;&gt;NETWORK DoS
http | ID: 112 -->
<g id="edge7" class="edge">
<title>INFO DISCOVERY
http&#45;&gt;NETWORK DoS
http | ID: 112</title>
<path fill="none" stroke="magenta" stroke-width="5" d="M756.09,-788.68C830.44,-797.37 923.35,-807.05 1006.63,-812.24 1018.36,-812.97 1421.4,-811.86 1429.63,-820.24 1454.54,-845.62 1447.87,-869.72 1429.63,-900.24 1427.9,-903.15 1425.96,-905.91 1423.84,-908.54"/>
<polygon fill="magenta" stroke="magenta" stroke-width="5" points="1420.52,-905.69 1417,-916.02 1426.97,-911.59 1420.52,-905.69"/>
<text text-anchor="start" x="1445.63" y="-885.24" font-family="Arial" font-size="20.00" fill="magenta"> start_next: 03/11/18, 15:11:34</text>
<text text-anchor="start" x="1532.13" y="-865.24" font-family="Arial" font-size="20.00" fill="magenta">gap: &#45;1sec</text>
<text text-anchor="start" x="1449.63" y="-845.24" font-family="Arial" font-size="20.00" fill="magenta">end_prev: 03/11/18, 15:11:35</text>
<text text-anchor="start" x="1474.13" y="-825.24" font-family="Arial" font-weight="bold" font-size="20.00" fill="magenta">Attacker: 10.0.254.203</text>
</g>
<!-- INFO DISCOVERY
http&#45;&gt;NETWORK DoS
http | ID: 5 -->
<g id="edge6" class="edge">
<title>INFO DISCOVERY
http&#45;&gt;NETWORK DoS
http | ID: 5</title>
<path fill="none" stroke="maroon" stroke-width="5" d="M764.3,-782.93C814.99,-790.25 863.09,-801.88 879.63,-820.24 889.93,-831.68 892.61,-866.54 892.75,-898.1"/>
<polygon fill="maroon" stroke="maroon" stroke-width="5" points="888.38,-898.18 892.71,-908.2 897.13,-898.21 888.38,-898.18"/>
<text text-anchor="middle" x="1024.13" y="-877.24" font-family="Arial" font-size="20.00" fill="maroon">start_next: 03/11/18, 21:01:43</text>
<text text-anchor="middle" x="1024.13" y="-855.24" font-family="Arial" font-size="20.00" fill="maroon">gap: &#45;63sec</text>
<text text-anchor="middle" x="1024.13" y="-833.24" font-family="Arial" font-size="20.00" fill="maroon">end_prev: 03/11/18, 21:02:46</text>
</g>
<!-- INFO DISCOVERY
http&#45;&gt;NETWORK DoS
http | ID: 5 -->
<g id="edge9" class="edge">
<title>INFO DISCOVERY
http&#45;&gt;NETWORK DoS
http | ID: 5</title>
<path fill="none" stroke="purple" stroke-width="5" d="M465.22,-781.39C411.99,-788.52 361.18,-800.41 344.63,-820.24 321.86,-847.55 320.81,-873.85 344.63,-900.24 370.44,-928.83 581.38,-943.64 733.35,-950.67"/>
<polygon fill="purple" stroke="purple" stroke-width="5" points="733.54,-955.06 743.73,-951.15 733.94,-946.32 733.54,-955.06"/>
<text text-anchor="middle" x="476.13" y="-877.24" font-family="Arial" font-size="20.00" fill="purple">start_next: 03/11/18, 17:32:02</text>
<text text-anchor="middle" x="476.13" y="-855.24" font-family="Arial" font-size="20.00" fill="purple">gap: &#45;7sec</text>
<text text-anchor="middle" x="476.13" y="-833.24" font-family="Arial" font-size="20.00" fill="purple">end_prev: 03/11/18, 17:32:09</text>
</g>
<!-- INFO DISCOVERY
http&#45;&gt;NETWORK DoS
http | ID: 5 -->
<g id="edge18" class="edge">
<title>INFO DISCOVERY
http&#45;&gt;NETWORK DoS
http | ID: 5</title>
<path fill="none" stroke="purple" stroke-width="5" d="M610.15,-812.3C606.81,-845 604.97,-887.19 615.63,-900.24 632.9,-921.38 687.71,-934.74 743.91,-943.08"/>
<polygon fill="purple" stroke="purple" stroke-width="5" points="743.52,-947.44 754.04,-944.53 744.76,-938.78 743.52,-947.44"/>
<text text-anchor="middle" x="747.13" y="-877.24" font-family="Arial" font-size="20.00" fill="purple">start_next: 03/11/18, 15:10:40</text>
<text text-anchor="middle" x="747.13" y="-855.24" font-family="Arial" font-size="20.00" fill="purple">gap: &#45;1sec</text>
<text text-anchor="middle" x="747.13" y="-833.24" font-family="Arial" font-size="20.00" fill="purple">end_prev: 03/11/18, 15:10:41</text>
</g>
<!-- SERVICE DISCOVERY
ssh -->
<g id="node8" class="node">
<title>SERVICE DISCOVERY
ssh</title>
<g id="a_node8"><a xlink:title="ET SCAN Potential SSH Scan">
<ellipse fill="yellow" stroke="black" stroke-width="3" cx="613.63" cy="-588.96" rx="189.51" ry="42.35"/>
<text text-anchor="middle" x="613.63" y="-595.76" font-family="Arial" font-size="24.00">SERVICE DISCOVERY</text>
<text text-anchor="middle" x="613.63" y="-569.76" font-family="Arial" font-size="24.00">ssh</text>
</a>
</g>
</g>
<!-- SERVICE DISCOVERY
ssh&#45;&gt;INFO DISCOVERY
http -->
<g id="edge8" class="edge">
<title>SERVICE DISCOVERY
ssh&#45;&gt;INFO DISCOVERY
http</title>
<path fill="none" stroke="purple" stroke-width="5" d="M614.1,-631.45C614.38,-656.98 614.75,-689.91 615.06,-717.13"/>
<polygon fill="purple" stroke="purple" stroke-width="5" points="610.68,-717.3 615.17,-727.25 619.43,-717.2 610.68,-717.3"/>
<text text-anchor="start" x="614.63" y="-704.39" font-family="Arial" font-size="20.00" fill="purple"> start_next: 03/11/18, 17:32:02</text>
<text text-anchor="start" x="682.63" y="-684.39" font-family="Arial" font-size="20.00" fill="purple">gap: 12506sec</text>
<text text-anchor="start" x="618.63" y="-664.39" font-family="Arial" font-size="20.00" fill="purple">end_prev: 03/11/18, 14:03:36</text>
<text text-anchor="start" x="643.63" y="-644.39" font-family="Arial" font-weight="bold" font-size="20.00" fill="purple">Attacker: 10.0.254.202</text>
</g>
<!-- DATA EXFILTRATION
unknown | ID: 31 -->
<g id="node10" class="node">
<title>DATA EXFILTRATION
unknown | ID: 31</title>
<g id="a_node10"><a xlink:title="ETPRO ATTACK_RESPONSE MongoDB Database Enumeration Request">
<polygon fill="none" stroke="black" stroke-width="3" points="1177.52,-396.7 1075.08,-445.68 870.19,-445.68 767.75,-396.7 870.19,-347.72 1075.08,-347.72 1177.52,-396.7"/>
<text text-anchor="middle" x="972.63" y="-403.5" font-family="Arial" font-size="24.00">DATA EXFILTRATION</text>
<text text-anchor="middle" x="972.63" y="-377.5" font-family="Arial" font-size="24.00">unknown | ID: 31</text>
</a>
</g>
</g>
<!-- SERVICE DISCOVERY
ipsma&#45;&gt;DATA EXFILTRATION
unknown | ID: 31 -->
<g id="edge11" class="edge">
<title>SERVICE DISCOVERY
ipsma&#45;&gt;DATA EXFILTRATION
unknown | ID: 31</title>
<path fill="none" stroke="purple" stroke-width="5" d="M972.63,-265.77C972.63,-287.27 972.63,-313.86 972.63,-337.39"/>
<polygon fill="purple" stroke="purple" stroke-width="5" points="968.26,-337.6 972.63,-347.6 977.01,-337.6 968.26,-337.6"/>
<text text-anchor="middle" x="1104.13" y="-323.71" font-family="Arial" font-size="20.00" fill="purple">start_next: 03/11/18, 17:47:24</text>
<text text-anchor="middle" x="1104.13" y="-301.71" font-family="Arial" font-size="20.00" fill="purple">gap: 0sec</text>
<text text-anchor="middle" x="1104.13" y="-279.71" font-family="Arial" font-size="20.00" fill="purple">end_prev: 03/11/18, 17:47:25</text>
</g>
<!-- DATA EXFILTRATION
unknown | ID: 31&#45;&gt;HOST DISCOVERY
wap&#45;wsp -->
<g id="edge12" class="edge">
<title>DATA EXFILTRATION
unknown | ID: 31&#45;&gt;HOST DISCOVERY
wap&#45;wsp</title>
<path fill="none" stroke="purple" stroke-width="5" d="M972.63,-445.71C972.63,-473.36 972.63,-508.11 972.63,-536.35"/>
<polygon fill="purple" stroke="purple" stroke-width="5" points="968.26,-536.43 972.63,-546.43 977.01,-536.43 968.26,-536.43"/>
<text text-anchor="middle" x="1104.13" y="-513.11" font-family="Arial" font-size="20.00" fill="purple">start_next: 03/11/18, 17:47:24</text>
<text text-anchor="middle" x="1104.13" y="-491.11" font-family="Arial" font-size="20.00" fill="purple">gap: 0sec</text>
<text text-anchor="middle" x="1104.13" y="-469.11" font-family="Arial" font-size="20.00" fill="purple">end_prev: 03/11/18, 17:47:24</text>
</g>
<!-- INFO DISCOVERY
unknown&#45;&gt;NETWORK DoS
http | ID: 5 -->
<g id="edge14" class="edge">
<title>INFO DISCOVERY
unknown&#45;&gt;NETWORK DoS
http | ID: 5</title>
<path fill="none" stroke="purple" stroke-width="5" d="M1167.95,-812.51C1168.07,-845.34 1165.88,-887.6 1154.63,-900.24 1137.59,-919.4 1086.87,-932.41 1034.38,-941.03"/>
<polygon fill="purple" stroke="purple" stroke-width="5" points="1033.41,-936.75 1024.21,-942.64 1034.78,-945.39 1033.41,-936.75"/>
<text text-anchor="middle" x="1299.13" y="-877.24" font-family="Arial" font-size="20.00" fill="purple">start_next: 03/11/18, 20:36:17</text>
<text text-anchor="middle" x="1299.13" y="-855.24" font-family="Arial" font-size="20.00" fill="purple">gap: 10132sec</text>
<text text-anchor="middle" x="1299.13" y="-833.24" font-family="Arial" font-size="20.00" fill="purple">end_prev: 03/11/18, 17:47:24</text>
</g>
<!-- HOST DISCOVERY
http&#45;&gt;INFO DISCOVERY
http -->
<g id="edge17" class="edge">
<title>HOST DISCOVERY
http&#45;&gt;INFO DISCOVERY
http</title>
<path fill="none" stroke="purple" stroke-width="5" d="M148.55,-538.39C141.49,-567.22 138.07,-605.09 157.63,-631.39 195.77,-682.65 353.62,-721.95 473.44,-745.14"/>
<polygon fill="purple" stroke="purple" stroke-width="5" points="472.81,-749.48 483.45,-747.06 474.45,-740.88 472.81,-749.48"/>
<text text-anchor="middle" x="289.13" y="-605.96" font-family="Arial" font-size="20.00" fill="purple">start_next: 03/11/18, 15:10:40</text>
<text text-anchor="middle" x="289.13" y="-583.96" font-family="Arial" font-size="20.00" fill="purple">gap: 661sec</text>
<text text-anchor="middle" x="289.13" y="-561.96" font-family="Arial" font-size="20.00" fill="purple">end_prev: 03/11/18, 14:59:39</text>
</g>
</g>
</svg>
