<?xml version="1.0" encoding="UTF-8" standalone="no"?>
<!DOCTYPE svg PUBLIC "-//W3C//DTD SVG 1.1//EN"
 "http://www.w3.org/Graphics/SVG/1.1/DTD/svg11.dtd">
<!-- Generated by graphviz version 2.50.0 (0)
 -->
<!-- Title: DATAEXFILTRATIONunknown Pages: 1 -->
<svg width="5715pt" height="1347pt"
 viewBox="0.00 0.00 5714.63 1346.87" xmlns="http://www.w3.org/2000/svg" xmlns:xlink="http://www.w3.org/1999/xlink">
<g id="graph0" class="graph" transform="scale(1 1) rotate(0) translate(4 1342.87)">
<title>DATAEXFILTRATIONunknown</title>
<polygon fill="white" stroke="transparent" points="-4,4 -4,-1342.87 5710.63,-1342.87 5710.63,4 -4,4"/>
<!-- Victim: 10.0.0.24
DATA EXFILTRATION
unknown -->
<g id="node1" class="node">
<title>Victim: 10.0.0.24
DATA EXFILTRATION
unknown</title>
<polygon fill="salmon" stroke="black" stroke-width="3" points="4671.85,-1241.85 4671.85,-1296.24 4559.25,-1334.7 4400.02,-1334.7 4287.42,-1296.24 4287.42,-1241.85 4400.02,-1203.39 4559.25,-1203.39 4671.85,-1241.85"/>
<polygon fill="none" stroke="black" stroke-width="3" points="4675.85,-1239 4675.85,-1299.09 4559.92,-1338.69 4399.35,-1338.69 4283.42,-1299.09 4283.42,-1239 4399.35,-1199.4 4559.92,-1199.4 4675.85,-1239"/>
<text text-anchor="middle" x="4479.63" y="-1288.84" font-family="Arial" font-size="24.00">Victim: 10.0.0.24</text>
<text text-anchor="middle" x="4479.63" y="-1262.84" font-family="Arial" font-size="24.00">DATA EXFILTRATION</text>
<text text-anchor="middle" x="4479.63" y="-1236.84" font-family="Arial" font-size="24.00">unknown</text>
</g>
<!-- DATA EXFILTRATION
unknown | ID: 31 -->
<g id="node2" class="node">
<title>DATA EXFILTRATION
unknown | ID: 31</title>
<g id="a_node2"><a xlink:title="ETPRO ATTACK_RESPONSE MongoDB Database Enumeration Request">
<polygon fill="salmon" stroke="black" stroke-width="3" points="4684.52,-1133.23 4582.08,-1182.21 4377.19,-1182.21 4274.75,-1133.23 4377.19,-1084.25 4582.08,-1084.25 4684.52,-1133.23"/>
<text text-anchor="middle" x="4479.63" y="-1140.03" font-family="Arial" font-size="24.00">DATA EXFILTRATION</text>
<text text-anchor="middle" x="4479.63" y="-1114.03" font-family="Arial" font-size="24.00">unknown | ID: 31</text>
</a>
</g>
</g>
<!-- DATA EXFILTRATION
unknown | ID: 31&#45;&gt;Victim: 10.0.0.24
DATA EXFILTRATION
unknown -->
<g id="edge1" class="edge">
<title>DATA EXFILTRATION
unknown | ID: 31&#45;&gt;Victim: 10.0.0.24
DATA EXFILTRATION
unknown</title>
<path fill="none" stroke="black" stroke-width="5" d="M4479.63,-1182.54C4479.63,-1184.65 4479.63,-1186.78 4479.63,-1188.93"/>
<polygon fill="black" stroke="black" stroke-width="5" points="4475.26,-1189.08 4479.63,-1199.08 4484.01,-1189.08 4475.26,-1189.08"/>
</g>
<!-- VULNERABILTY DISCOVERY
mysql -->
<g id="node3" class="node">
<title>VULNERABILTY DISCOVERY
mysql</title>
<g id="a_node3"><a xlink:title="ET SCAN Suspicious inbound to mySQL port 3306&#10;ET SCAN Suspicious inbound to MSSQL port 1433&#10;ET SCAN Suspicious inbound to PostgreSQL port 5432&#10;ET SCAN Suspicious inbound to Oracle SQL port 1521&#10;ET SCAN Suspicious inbound to mSQL port 4333">
<ellipse fill="yellow" stroke="black" stroke-width="3" cx="2093.63" cy="-778.96" rx="241.25" ry="42.35"/>
<text text-anchor="middle" x="2093.63" y="-785.76" font-family="Arial" font-size="24.00">VULNERABILTY DISCOVERY</text>
<text text-anchor="middle" x="2093.63" y="-759.76" font-family="Arial" font-size="24.00">mysql</text>
</a>
</g>
</g>
<!-- SERVICE DISCOVERY
unknown -->
<g id="node4" class="node">
<title>SERVICE DISCOVERY
unknown</title>
<g id="a_node4"><a xlink:title="ET SCAN Potential VNC Scan 5800&#45;5820&#10;ET SCAN Potential SSH Scan&#10;ET SCAN Potential VNC Scan 5900&#45;5920">
<ellipse fill="none" stroke="black" stroke-width="3" cx="3345.63" cy="-959.82" rx="189.51" ry="42.35"/>
<text text-anchor="middle" x="3345.63" y="-966.62" font-family="Arial" font-size="24.00">SERVICE DISCOVERY</text>
<text text-anchor="middle" x="3345.63" y="-940.62" font-family="Arial" font-size="24.00">unknown</text>
</a>
</g>
</g>
<!-- VULNERABILTY DISCOVERY
mysql&#45;&gt;SERVICE DISCOVERY
unknown -->
<g id="edge2" class="edge">
<title>VULNERABILTY DISCOVERY
mysql&#45;&gt;SERVICE DISCOVERY
unknown</title>
<path fill="none" stroke="orange" stroke-width="5" d="M2089.04,-821.67C2086.44,-854.76 2085.72,-897.38 2097.63,-909.39 2133.87,-945.94 2802.92,-955.46 3146.12,-957.94"/>
<polygon fill="orange" stroke="orange" stroke-width="5" points="3146.15,-962.32 3156.18,-958.01 3146.21,-953.57 3146.15,-962.32"/>
<text text-anchor="start" x="2097.63" y="-894.39" font-family="Arial" font-size="20.00" fill="orange"> start_next: 03/11/18, 13:58:44</text>
<text text-anchor="start" x="2173.63" y="-874.39" font-family="Arial" font-size="20.00" fill="orange">gap: &#45;277sec</text>
<text text-anchor="start" x="2101.63" y="-854.39" font-family="Arial" font-size="20.00" fill="orange">end_prev: 03/11/18, 14:03:21</text>
<text text-anchor="start" x="2126.63" y="-834.39" font-family="Arial" font-weight="bold" font-size="20.00" fill="orange">Attacker: 10.0.254.202</text>
</g>
<!-- VULNERABILTY DISCOVERY
mysql&#45;&gt;SERVICE DISCOVERY
unknown -->
<g id="edge6" class="edge">
<title>VULNERABILTY DISCOVERY
mysql&#45;&gt;SERVICE DISCOVERY
unknown</title>
<path fill="none" stroke="orange" stroke-width="5" d="M2295.97,-802.05C2326.14,-808.91 2351.03,-817.83 2362.63,-829.39 2388.26,-854.92 2350.4,-885.59 2377.63,-909.39 2406.12,-934.28 2872.3,-948.59 3147.15,-954.91"/>
<polygon fill="orange" stroke="orange" stroke-width="5" points="3147.16,-959.28 3157.25,-955.14 3147.36,-950.53 3147.16,-959.28"/>
<text text-anchor="start" x="2377.63" y="-894.39" font-family="Arial" font-size="20.00" fill="orange"> start_next: 03/11/18, 14:20:54</text>
<text text-anchor="start" x="2453.63" y="-874.39" font-family="Arial" font-size="20.00" fill="orange">gap: &#45;268sec</text>
<text text-anchor="start" x="2381.63" y="-854.39" font-family="Arial" font-size="20.00" fill="orange">end_prev: 03/11/18, 14:25:22</text>
<text text-anchor="start" x="2406.63" y="-834.39" font-family="Arial" font-weight="bold" font-size="20.00" fill="orange">Attacker: 10.0.254.202</text>
</g>
<!-- VULNERABILTY DISCOVERY
mysql&#45;&gt;SERVICE DISCOVERY
unknown -->
<g id="edge14" class="edge">
<title>VULNERABILTY DISCOVERY
mysql&#45;&gt;SERVICE DISCOVERY
unknown</title>
<path fill="none" stroke="blue" stroke-width="5" d="M2329.24,-788.08C2467.09,-795.09 2618.71,-807.65 2642.63,-829.39 2669.41,-853.72 2630.64,-885.3 2657.63,-909.39 2693.57,-941.46 2956.03,-952.74 3146.12,-956.7"/>
<polygon fill="blue" stroke="blue" stroke-width="5" points="3146.17,-961.08 3156.25,-956.9 3146.34,-952.33 3146.17,-961.08"/>
<text text-anchor="middle" x="2789.13" y="-886.39" font-family="Arial" font-size="20.00" fill="blue">start_next: 03/11/18, 14:17:40</text>
<text text-anchor="middle" x="2789.13" y="-864.39" font-family="Arial" font-size="20.00" fill="blue">gap: 0sec</text>
<text text-anchor="middle" x="2789.13" y="-842.39" font-family="Arial" font-size="20.00" fill="blue">end_prev: 03/11/18, 14:17:40</text>
</g>
<!-- VULNERABILTY DISCOVERY
mysql&#45;&gt;SERVICE DISCOVERY
unknown -->
<g id="edge17" class="edge">
<title>VULNERABILTY DISCOVERY
mysql&#45;&gt;SERVICE DISCOVERY
unknown</title>
<path fill="none" stroke="blue" stroke-width="5" d="M2334.88,-779.6C2562.3,-781.61 2874.55,-791.4 2917.63,-829.39 2944.77,-853.32 2906.22,-884.67 2932.63,-909.39 2949.66,-925.33 3054.68,-937.77 3154.55,-946.18"/>
<polygon fill="blue" stroke="blue" stroke-width="5" points="3154.48,-950.56 3164.81,-947.03 3155.21,-941.84 3154.48,-950.56"/>
<text text-anchor="middle" x="3064.13" y="-886.39" font-family="Arial" font-size="20.00" fill="blue">start_next: 03/11/18, 14:44:37</text>
<text text-anchor="middle" x="3064.13" y="-864.39" font-family="Arial" font-size="20.00" fill="blue">gap: &#45;54sec</text>
<text text-anchor="middle" x="3064.13" y="-842.39" font-family="Arial" font-size="20.00" fill="blue">end_prev: 03/11/18, 14:45:30</text>
</g>
<!-- VULNERABILTY DISCOVERY
mysql&#45;&gt;SERVICE DISCOVERY
unknown -->
<g id="edge22" class="edge">
<title>VULNERABILTY DISCOVERY
mysql&#45;&gt;SERVICE DISCOVERY
unknown</title>
<path fill="none" stroke="blue" stroke-width="5" d="M2333.33,-783.98C2646.34,-790.2 3158.73,-804.17 3192.63,-829.39 3222.86,-851.87 3194.53,-882.23 3220.63,-909.39 3223.81,-912.7 3227.24,-915.79 3230.86,-918.68"/>
<polygon fill="blue" stroke="blue" stroke-width="5" points="3228.41,-922.31 3239.07,-924.68 3233.58,-915.25 3228.41,-922.31"/>
<text text-anchor="middle" x="3352.13" y="-886.39" font-family="Arial" font-size="20.00" fill="blue">start_next: 03/11/18, 17:14:10</text>
<text text-anchor="middle" x="3352.13" y="-864.39" font-family="Arial" font-size="20.00" fill="blue">gap: &#45;59sec</text>
<text text-anchor="middle" x="3352.13" y="-842.39" font-family="Arial" font-size="20.00" fill="blue">end_prev: 03/11/18, 17:15:09</text>
</g>
<!-- SERVICE DISCOVERY
dsd -->
<g id="node7" class="node">
<title>SERVICE DISCOVERY
dsd</title>
<g id="a_node7"><a xlink:title="ET SCAN Potential VNC Scan 5900&#45;5920&#10;ET SCAN Potential VNC Scan 5800&#45;5820&#10;ET SCAN Potential SSH Scan">
<ellipse fill="none" stroke="black" stroke-width="3" cx="474.63" cy="-959.82" rx="189.51" ry="42.35"/>
<text text-anchor="middle" x="474.63" y="-966.62" font-family="Arial" font-size="24.00">SERVICE DISCOVERY</text>
<text text-anchor="middle" x="474.63" y="-940.62" font-family="Arial" font-size="24.00">dsd</text>
</a>
</g>
</g>
<!-- VULNERABILTY DISCOVERY
mysql&#45;&gt;SERVICE DISCOVERY
dsd -->
<g id="edge9" class="edge">
<title>VULNERABILTY DISCOVERY
mysql&#45;&gt;SERVICE DISCOVERY
dsd</title>
<path fill="none" stroke="orange" stroke-width="5" d="M1853.15,-782.72C1487.76,-787.81 823.79,-800.85 717.63,-829.39 653.1,-846.74 586.59,-883.74 539.5,-913.75"/>
<polygon fill="orange" stroke="orange" stroke-width="5" points="536.97,-910.17 530.93,-919.27 541.71,-917.53 536.97,-910.17"/>
<text text-anchor="start" x="717.63" y="-894.39" font-family="Arial" font-size="20.00" fill="orange"> start_next: 03/11/18, 17:15:04</text>
<text text-anchor="start" x="799.13" y="-874.39" font-family="Arial" font-size="20.00" fill="orange">gap: &#45;24sec</text>
<text text-anchor="start" x="721.63" y="-854.39" font-family="Arial" font-size="20.00" fill="orange">end_prev: 03/11/18, 17:15:28</text>
<text text-anchor="start" x="746.63" y="-834.39" font-family="Arial" font-weight="bold" font-size="20.00" fill="orange">Attacker: 10.0.254.201</text>
</g>
<!-- VULNERABILTY DISCOVERY
ncube&#45;lm -->
<g id="node10" class="node">
<title>VULNERABILTY DISCOVERY
ncube&#45;lm</title>
<g id="a_node10"><a xlink:title="ET SCAN Suspicious inbound to mySQL port 3306&#10;ET SCAN Suspicious inbound to Oracle SQL port 1521">
<ellipse fill="yellow" stroke="black" stroke-width="3" cx="1865.63" cy="-959.82" rx="241.25" ry="42.35"/>
<text text-anchor="middle" x="1865.63" y="-966.62" font-family="Arial" font-size="24.00">VULNERABILTY DISCOVERY</text>
<text text-anchor="middle" x="1865.63" y="-940.62" font-family="Arial" font-size="24.00">ncube&#45;lm</text>
</a>
</g>
</g>
<!-- VULNERABILTY DISCOVERY
mysql&#45;&gt;VULNERABILTY DISCOVERY
ncube&#45;lm -->
<g id="edge26" class="edge">
<title>VULNERABILTY DISCOVERY
mysql&#45;&gt;VULNERABILTY DISCOVERY
ncube&#45;lm</title>
<path fill="none" stroke="purple" stroke-width="5" d="M1856.1,-786.54C1716.7,-792.92 1563.61,-805.36 1541.63,-829.39 1529.64,-842.51 1529.71,-896.2 1541.63,-909.39 1547.55,-915.94 1611.89,-916.21 1620.63,-917.39 1642.7,-920.37 1665.83,-923.83 1688.69,-927.46"/>
<polygon fill="purple" stroke="purple" stroke-width="5" points="1688.25,-931.82 1698.82,-929.08 1689.63,-923.18 1688.25,-931.82"/>
<text text-anchor="middle" x="1673.13" y="-886.39" font-family="Arial" font-size="20.00" fill="purple">start_next: 03/11/18, 15:28:21</text>
<text text-anchor="middle" x="1673.13" y="-864.39" font-family="Arial" font-size="20.00" fill="purple">gap: 4144sec</text>
<text text-anchor="middle" x="1673.13" y="-842.39" font-family="Arial" font-size="20.00" fill="purple">end_prev: 03/11/18, 14:19:17</text>
</g>
<!-- VULNERABILTY DISCOVERY
ms&#45;sql&#45;s -->
<g id="node11" class="node">
<title>VULNERABILTY DISCOVERY
ms&#45;sql&#45;s</title>
<g id="a_node11"><a xlink:title="ET SCAN Suspicious inbound to mySQL port 3306&#10;ET SCAN Suspicious inbound to MSSQL port 1433&#10;ET SCAN Suspicious inbound to PostgreSQL port 5432&#10;ET SCAN Suspicious inbound to Oracle SQL port 1521&#10;ET SCAN Suspicious inbound to mSQL port 4333">
<ellipse fill="none" stroke="black" stroke-width="3" cx="989.63" cy="-959.82" rx="241.25" ry="42.35"/>
<text text-anchor="middle" x="989.63" y="-966.62" font-family="Arial" font-size="24.00">VULNERABILTY DISCOVERY</text>
<text text-anchor="middle" x="989.63" y="-940.62" font-family="Arial" font-size="24.00">ms&#45;sql&#45;s</text>
</a>
</g>
</g>
<!-- VULNERABILTY DISCOVERY
mysql&#45;&gt;VULNERABILTY DISCOVERY
ms&#45;sql&#45;s -->
<g id="edge31" class="edge">
<title>VULNERABILTY DISCOVERY
mysql&#45;&gt;VULNERABILTY DISCOVERY
ms&#45;sql&#45;s</title>
<path fill="none" stroke="purple" stroke-width="5" d="M1853.19,-782.74C1539.75,-787.53 1027.67,-799.85 997.63,-829.39 986.75,-840.1 985.15,-875.8 986.06,-907.01"/>
<polygon fill="purple" stroke="purple" stroke-width="5" points="981.7,-907.55 986.45,-917.37 990.44,-907.21 981.7,-907.55"/>
<text text-anchor="middle" x="1129.13" y="-886.39" font-family="Arial" font-size="20.00" fill="purple">start_next: 03/11/18, 16:25:48</text>
<text text-anchor="middle" x="1129.13" y="-864.39" font-family="Arial" font-size="20.00" fill="purple">gap: 979sec</text>
<text text-anchor="middle" x="1129.13" y="-842.39" font-family="Arial" font-size="20.00" fill="purple">end_prev: 03/11/18, 16:09:29</text>
</g>
<!-- SERVICE DISCOVERY
ipsma -->
<g id="node14" class="node">
<title>SERVICE DISCOVERY
ipsma</title>
<g id="a_node14"><a xlink:title="ET SCAN Potential VNC Scan 5900&#45;5920&#10;ET SCAN Potential VNC Scan 5800&#45;5820&#10;ET SCAN Potential SSH Scan">
<ellipse fill="none" stroke="black" stroke-width="3" cx="1427.63" cy="-959.82" rx="189.51" ry="42.35"/>
<text text-anchor="middle" x="1427.63" y="-966.62" font-family="Arial" font-size="24.00">SERVICE DISCOVERY</text>
<text text-anchor="middle" x="1427.63" y="-940.62" font-family="Arial" font-size="24.00">ipsma</text>
</a>
</g>
</g>
<!-- VULNERABILTY DISCOVERY
mysql&#45;&gt;SERVICE DISCOVERY
ipsma -->
<g id="edge36" class="edge">
<title>VULNERABILTY DISCOVERY
mysql&#45;&gt;SERVICE DISCOVERY
ipsma</title>
<path fill="none" stroke="purple" stroke-width="5" d="M1855.96,-786.33C1619.75,-793.84 1289.7,-808.09 1269.63,-829.39 1257.45,-842.33 1259.11,-895.07 1269.63,-909.39 1273.6,-914.79 1278.15,-919.61 1283.15,-923.92"/>
<polygon fill="purple" stroke="purple" stroke-width="5" points="1280.77,-927.61 1291.36,-930.28 1286.13,-920.69 1280.77,-927.61"/>
<text text-anchor="middle" x="1401.13" y="-886.39" font-family="Arial" font-size="20.00" fill="purple">start_next: 03/11/18, 17:44:50</text>
<text text-anchor="middle" x="1401.13" y="-864.39" font-family="Arial" font-size="20.00" fill="purple">gap: &#45;1sec</text>
<text text-anchor="middle" x="1401.13" y="-842.39" font-family="Arial" font-size="20.00" fill="purple">end_prev: 03/11/18, 17:44:51</text>
</g>
<!-- HOST DISCOVERY
wap&#45;wsp -->
<g id="node5" class="node">
<title>HOST DISCOVERY
wap&#45;wsp</title>
<g id="a_node5"><a xlink:title="ET SCAN Nmap Scripting Engine User&#45;Agent Detected (Nmap Scripting Engine)&#10;ET SCAN Possible Nmap User&#45;Agent Observed">
<ellipse fill="none" stroke="black" stroke-width="3" cx="3913.63" cy="-42.43" rx="162.77" ry="42.35"/>
<text text-anchor="middle" x="3913.63" y="-49.23" font-family="Arial" font-size="24.00">HOST DISCOVERY</text>
<text text-anchor="middle" x="3913.63" y="-23.23" font-family="Arial" font-size="24.00">wap&#45;wsp</text>
</a>
</g>
</g>
<!-- SERVICE DISCOVERY
unknown&#45;&gt;HOST DISCOVERY
wap&#45;wsp -->
<g id="edge3" class="edge">
<title>SERVICE DISCOVERY
unknown&#45;&gt;HOST DISCOVERY
wap&#45;wsp</title>
<path fill="none" stroke="orange" stroke-width="5" d="M3464.33,-926.55C3470.52,-921.62 3476.06,-915.94 3480.63,-909.39 3501,-880.25 3492.88,-862.77 3480.63,-829.39 3411.66,-641.4 3168.21,-644.82 3230.63,-454.56 3292.85,-264.96 3324.19,-193.27 3496.63,-92.85 3538.05,-68.74 3646.91,-56.35 3743.01,-50.01"/>
<polygon fill="orange" stroke="orange" stroke-width="5" points="3743.47,-54.37 3753.17,-49.36 3742.91,-45.64 3743.47,-54.37"/>
<text text-anchor="middle" x="3362.13" y="-511.56" font-family="Arial" font-size="20.00" fill="orange">start_next: 03/11/18, 14:07:13</text>
<text text-anchor="middle" x="3362.13" y="-489.56" font-family="Arial" font-size="20.00" fill="orange">gap: &#45;15sec</text>
<text text-anchor="middle" x="3362.13" y="-467.56" font-family="Arial" font-size="20.00" fill="orange">end_prev: 03/11/18, 14:07:28</text>
</g>
<!-- SERVICE DISCOVERY
unknown&#45;&gt;HOST DISCOVERY
wap&#45;wsp -->
<g id="edge7" class="edge">
<title>SERVICE DISCOVERY
unknown&#45;&gt;HOST DISCOVERY
wap&#45;wsp</title>
<path fill="none" stroke="orange" stroke-width="5" d="M3472.92,-928.12C3480.33,-922.83 3487.04,-916.63 3492.63,-909.39 3527.89,-863.77 3501.63,-837.63 3501.63,-779.96 3501.63,-222.28 3501.63,-222.28 3501.63,-222.28 3501.63,-110.73 3630.29,-68 3743.82,-52.01"/>
<polygon fill="orange" stroke="orange" stroke-width="5" points="3744.72,-56.3 3754.05,-50.63 3743.56,-47.63 3744.72,-56.3"/>
<text text-anchor="middle" x="3633.13" y="-511.56" font-family="Arial" font-size="20.00" fill="orange">start_next: 03/11/18, 14:28:39</text>
<text text-anchor="middle" x="3633.13" y="-489.56" font-family="Arial" font-size="20.00" fill="orange">gap: &#45;7sec</text>
<text text-anchor="middle" x="3633.13" y="-467.56" font-family="Arial" font-size="20.00" fill="orange">end_prev: 03/11/18, 14:28:46</text>
</g>
<!-- SERVICE DISCOVERY
unknown&#45;&gt;HOST DISCOVERY
wap&#45;wsp -->
<g id="edge15" class="edge">
<title>SERVICE DISCOVERY
unknown&#45;&gt;HOST DISCOVERY
wap&#45;wsp</title>
<path fill="none" stroke="blue" stroke-width="5" d="M3480.53,-929.93C3606.96,-898.86 3776.63,-845.03 3776.63,-779.96 3776.63,-222.28 3776.63,-222.28 3776.63,-222.28 3776.63,-168.97 3815.47,-121.72 3851.79,-89.2"/>
<polygon fill="blue" stroke="blue" stroke-width="5" points="3854.83,-92.35 3859.49,-82.48 3849.08,-85.76 3854.83,-92.35"/>
<text text-anchor="middle" x="3908.13" y="-511.56" font-family="Arial" font-size="20.00" fill="blue">start_next: 03/11/18, 14:20:50</text>
<text text-anchor="middle" x="3908.13" y="-489.56" font-family="Arial" font-size="20.00" fill="blue">gap: &#45;58sec</text>
<text text-anchor="middle" x="3908.13" y="-467.56" font-family="Arial" font-size="20.00" fill="blue">end_prev: 03/11/18, 14:21:49</text>
</g>
<!-- SERVICE DISCOVERY
unknown&#45;&gt;HOST DISCOVERY
wap&#45;wsp -->
<g id="edge18" class="edge">
<title>SERVICE DISCOVERY
unknown&#45;&gt;HOST DISCOVERY
wap&#45;wsp</title>
<path fill="none" stroke="blue" stroke-width="5" d="M3528.37,-948.44C3737.55,-931.43 4051.63,-887.91 4051.63,-779.96 4051.63,-222.28 4051.63,-222.28 4051.63,-222.28 4051.63,-168.82 4012.51,-121.59 3975.93,-89.1"/>
<polygon fill="blue" stroke="blue" stroke-width="5" points="3978.6,-85.63 3968.18,-82.4 3972.88,-92.25 3978.6,-85.63"/>
<text text-anchor="middle" x="4183.13" y="-511.56" font-family="Arial" font-size="20.00" fill="blue">start_next: 03/11/18, 15:06:59</text>
<text text-anchor="middle" x="4183.13" y="-489.56" font-family="Arial" font-size="20.00" fill="blue">gap: 1290sec</text>
<text text-anchor="middle" x="4183.13" y="-467.56" font-family="Arial" font-size="20.00" fill="blue">end_prev: 03/11/18, 14:45:29</text>
</g>
<!-- SERVICE DISCOVERY
unknown&#45;&gt;HOST DISCOVERY
wap&#45;wsp -->
<g id="edge23" class="edge">
<title>SERVICE DISCOVERY
unknown&#45;&gt;HOST DISCOVERY
wap&#45;wsp</title>
<path fill="none" stroke="blue" stroke-width="5" d="M3533.02,-953.3C3675.3,-947.18 3858.1,-934.62 3928.63,-909.39 4041.37,-869.08 4272.65,-646.3 4315.63,-534.56 4328.4,-501.37 4327.67,-488.01 4315.63,-454.56 4245.02,-258.3 4180.93,-221.34 4016.63,-92.85 4012.88,-89.91 4008.92,-87.09 4004.83,-84.39"/>
<polygon fill="blue" stroke="blue" stroke-width="5" points="4007.06,-80.63 3996.26,-79.01 4002.41,-88.04 4007.06,-80.63"/>
<text text-anchor="middle" x="4457.13" y="-511.56" font-family="Arial" font-size="20.00" fill="blue">start_next: 03/11/18, 17:37:14</text>
<text text-anchor="middle" x="4457.13" y="-489.56" font-family="Arial" font-size="20.00" fill="blue">gap: 1319sec</text>
<text text-anchor="middle" x="4457.13" y="-467.56" font-family="Arial" font-size="20.00" fill="blue">end_prev: 03/11/18, 17:15:15</text>
</g>
<!-- HOST DISCOVERY
wap&#45;wsp&#45;&gt;DATA EXFILTRATION
unknown | ID: 31 -->
<g id="edge8" class="edge">
<title>HOST DISCOVERY
wap&#45;wsp&#45;&gt;DATA EXFILTRATION
unknown | ID: 31</title>
<path fill="none" stroke="orange" stroke-width="5" d="M4073.59,-50.5C4179.09,-57.1 4319.95,-69.58 4442.63,-92.85 4645.84,-131.41 4889.63,-15.45 4889.63,-222.28 4889.63,-222.28 4889.63,-222.28 4889.63,-960.82 4889.63,-1019.3 4745.83,-1068.64 4628.55,-1099.15"/>
<polygon fill="orange" stroke="orange" stroke-width="5" points="4627.32,-1094.94 4618.73,-1101.67 4629.5,-1103.42 4627.32,-1094.94"/>
<text text-anchor="middle" x="5021.13" y="-608.55" font-family="Arial" font-size="20.00" fill="orange">start_next: 03/11/18, 14:28:39</text>
<text text-anchor="middle" x="5021.13" y="-586.55" font-family="Arial" font-size="20.00" fill="orange">gap: &#45;8sec</text>
<text text-anchor="middle" x="5021.13" y="-564.55" font-family="Arial" font-size="20.00" fill="orange">end_prev: 03/11/18, 14:28:48</text>
</g>
<!-- HOST DISCOVERY
wap&#45;wsp&#45;&gt;DATA EXFILTRATION
unknown | ID: 31 -->
<g id="edge11" class="edge">
<title>HOST DISCOVERY
wap&#45;wsp&#45;&gt;DATA EXFILTRATION
unknown | ID: 31</title>
<path fill="none" stroke="orange" stroke-width="5" d="M4073.92,-49.89C4411.87,-65.67 5166.63,-113.13 5166.63,-222.28 5166.63,-222.28 5166.63,-222.28 5166.63,-960.82 5166.63,-1063.27 4875.38,-1104.98 4672.15,-1121.61"/>
<polygon fill="orange" stroke="orange" stroke-width="5" points="4671.55,-1117.27 4661.93,-1122.43 4672.25,-1125.99 4671.55,-1117.27"/>
<text text-anchor="middle" x="5298.13" y="-608.55" font-family="Arial" font-size="20.00" fill="orange">start_next: 03/11/18, 17:19:21</text>
<text text-anchor="middle" x="5298.13" y="-586.55" font-family="Arial" font-size="20.00" fill="orange">gap: &#45;3sec</text>
<text text-anchor="middle" x="5298.13" y="-564.55" font-family="Arial" font-size="20.00" fill="orange">end_prev: 03/11/18, 17:19:24</text>
</g>
<!-- HOST DISCOVERY
wap&#45;wsp&#45;&gt;DATA EXFILTRATION
unknown | ID: 31 -->
<g id="edge24" class="edge">
<title>HOST DISCOVERY
wap&#45;wsp&#45;&gt;DATA EXFILTRATION
unknown | ID: 31</title>
<path fill="none" stroke="blue" stroke-width="5" d="M4075.92,-45.66C4469.69,-53.22 5443.63,-85.72 5443.63,-222.28 5443.63,-222.28 5443.63,-222.28 5443.63,-960.82 5443.63,-1132.23 5243.67,-1042.39 5075.63,-1076.24 4944.22,-1102.72 4793.92,-1116.73 4677.13,-1124.11"/>
<polygon fill="blue" stroke="blue" stroke-width="5" points="4676.72,-1119.76 4667.01,-1124.74 4677.26,-1128.49 4676.72,-1119.76"/>
<text text-anchor="middle" x="5575.13" y="-608.55" font-family="Arial" font-size="20.00" fill="blue">start_next: 03/11/18, 17:37:14</text>
<text text-anchor="middle" x="5575.13" y="-586.55" font-family="Arial" font-size="20.00" fill="blue">gap: &#45;26sec</text>
<text text-anchor="middle" x="5575.13" y="-564.55" font-family="Arial" font-size="20.00" fill="blue">end_prev: 03/11/18, 17:37:41</text>
</g>
<!-- HOST DISCOVERY
wap&#45;wsp&#45;&gt;VULNERABILTY DISCOVERY
mysql -->
<g id="edge16" class="edge">
<title>HOST DISCOVERY
wap&#45;wsp&#45;&gt;VULNERABILTY DISCOVERY
mysql</title>
<path fill="none" stroke="blue" stroke-width="5" d="M3751.15,-45.74C3516.74,-50.1 3095.51,-62.05 2946.63,-92.85 2785.45,-126.2 2599.63,-57.68 2599.63,-222.28 2599.63,-222.28 2599.63,-222.28 2599.63,-592.55 2599.63,-664.06 2419.22,-716.28 2273.85,-746.75"/>
<polygon fill="blue" stroke="blue" stroke-width="5" points="2272.79,-742.5 2263.89,-748.81 2274.57,-751.07 2272.79,-742.5"/>
<text text-anchor="middle" x="2731.13" y="-421.13" font-family="Arial" font-size="20.00" fill="blue">start_next: 03/11/18, 14:44:18</text>
<text text-anchor="middle" x="2731.13" y="-399.13" font-family="Arial" font-size="20.00" fill="blue">gap: 1364sec</text>
<text text-anchor="middle" x="2731.13" y="-377.13" font-family="Arial" font-size="20.00" fill="blue">end_prev: 03/11/18, 14:21:34</text>
</g>
<!-- INFO DISCOVERY
unknown -->
<g id="node6" class="node">
<title>INFO DISCOVERY
unknown</title>
<g id="a_node6"><a xlink:title="ETPRO ATTACK_RESPONSE MongoDB Version Request">
<ellipse fill="yellow" stroke="black" stroke-width="3" cx="4598.63" cy="-591.55" rx="156.04" ry="42.35"/>
<text text-anchor="middle" x="4598.63" y="-598.35" font-family="Arial" font-size="24.00">INFO DISCOVERY</text>
<text text-anchor="middle" x="4598.63" y="-572.35" font-family="Arial" font-size="24.00">unknown</text>
</a>
</g>
</g>
<!-- HOST DISCOVERY
wap&#45;wsp&#45;&gt;INFO DISCOVERY
unknown -->
<g id="edge4" class="edge">
<title>HOST DISCOVERY
wap&#45;wsp&#45;&gt;INFO DISCOVERY
unknown</title>
<path fill="none" stroke="orange" stroke-width="5" d="M4071.01,-53.22C4173.95,-61.17 4298.2,-74.16 4347.63,-92.85 4478.96,-142.51 4541.73,-149.21 4606.63,-273.71 4629.92,-318.36 4615.82,-461.12 4605.89,-538.88"/>
<polygon fill="orange" stroke="orange" stroke-width="5" points="4601.53,-538.47 4604.58,-548.95 4610.21,-539.59 4601.53,-538.47"/>
<text text-anchor="middle" x="4751.13" y="-330.71" font-family="Arial" font-size="20.00" fill="orange">start_next: 03/11/18, 14:07:14</text>
<text text-anchor="middle" x="4751.13" y="-308.71" font-family="Arial" font-size="20.00" fill="orange">gap: &#45;13sec</text>
<text text-anchor="middle" x="4751.13" y="-286.71" font-family="Arial" font-size="20.00" fill="orange">end_prev: 03/11/18, 14:07:28</text>
</g>
<!-- HOST DISCOVERY
wap&#45;wsp&#45;&gt;INFO DISCOVERY
unknown -->
<g id="edge19" class="edge">
<title>HOST DISCOVERY
wap&#45;wsp&#45;&gt;INFO DISCOVERY
unknown</title>
<path fill="none" stroke="blue" stroke-width="5" d="M4071.94,-52.35C4182.6,-60.22 4313.67,-73.48 4331.63,-92.85 4371.08,-135.4 4309.24,-306.26 4342.63,-353.71 4411.13,-451 4521.34,-357.83 4590.63,-454.56 4600.11,-467.79 4601.71,-506.09 4601.16,-538.68"/>
<polygon fill="blue" stroke="blue" stroke-width="5" points="4596.78,-538.92 4600.92,-549.03 4605.53,-539.13 4596.78,-538.92"/>
<text text-anchor="middle" x="4474.13" y="-330.71" font-family="Arial" font-size="20.00" fill="blue">start_next: 03/11/18, 15:07:00</text>
<text text-anchor="middle" x="4474.13" y="-308.71" font-family="Arial" font-size="20.00" fill="blue">gap: &#45;31sec</text>
<text text-anchor="middle" x="4474.13" y="-286.71" font-family="Arial" font-size="20.00" fill="blue">end_prev: 03/11/18, 15:07:31</text>
</g>
<!-- SERVICE DISCOVERY
ssh -->
<g id="node9" class="node">
<title>SERVICE DISCOVERY
ssh</title>
<g id="a_node9"><a xlink:title="ET SCAN Potential SSH Scan">
<ellipse fill="yellow" stroke="black" stroke-width="3" cx="1675.63" cy="-223.28" rx="189.51" ry="42.35"/>
<text text-anchor="middle" x="1675.63" y="-230.08" font-family="Arial" font-size="24.00">SERVICE DISCOVERY</text>
<text text-anchor="middle" x="1675.63" y="-204.08" font-family="Arial" font-size="24.00">ssh</text>
</a>
</g>
</g>
<!-- HOST DISCOVERY
wap&#45;wsp&#45;&gt;SERVICE DISCOVERY
ssh -->
<g id="edge28" class="edge">
<title>HOST DISCOVERY
wap&#45;wsp&#45;&gt;SERVICE DISCOVERY
ssh</title>
<path fill="none" stroke="purple" stroke-width="5" d="M3751.07,-45.13C3404.51,-49.32 2602.62,-62.1 2331.63,-92.85 2149.34,-113.54 1942.1,-158.02 1810.2,-189.02"/>
<polygon fill="purple" stroke="purple" stroke-width="5" points="1809.17,-184.77 1800.44,-191.32 1811.18,-193.28 1809.17,-184.77"/>
<text text-anchor="middle" x="2463.13" y="-149.85" font-family="Arial" font-size="20.00" fill="purple">start_next: 03/11/18, 15:43:50</text>
<text text-anchor="middle" x="2463.13" y="-127.85" font-family="Arial" font-size="20.00" fill="purple">gap: &#45;2sec</text>
<text text-anchor="middle" x="2463.13" y="-105.85" font-family="Arial" font-size="20.00" fill="purple">end_prev: 03/11/18, 15:43:53</text>
</g>
<!-- INFO DISCOVERY
unknown&#45;&gt;DATA EXFILTRATION
unknown | ID: 31 -->
<g id="edge5" class="edge">
<title>INFO DISCOVERY
unknown&#45;&gt;DATA EXFILTRATION
unknown | ID: 31</title>
<path fill="none" stroke="orange" stroke-width="5" d="M4534.7,-630.48C4473.39,-670.97 4384.71,-741.36 4346.63,-829.39 4309.25,-915.82 4374.34,-1015.79 4425.95,-1076.48"/>
<polygon fill="orange" stroke="orange" stroke-width="5" points="4422.64,-1079.35 4432.49,-1084.05 4429.26,-1073.62 4422.64,-1079.35"/>
<text text-anchor="middle" x="4478.13" y="-886.39" font-family="Arial" font-size="20.00" fill="orange">start_next: 03/11/18, 14:07:18</text>
<text text-anchor="middle" x="4478.13" y="-864.39" font-family="Arial" font-size="20.00" fill="orange">gap: 4sec</text>
<text text-anchor="middle" x="4478.13" y="-842.39" font-family="Arial" font-size="20.00" fill="orange">end_prev: 03/11/18, 14:07:14</text>
</g>
<!-- INFO DISCOVERY
unknown&#45;&gt;DATA EXFILTRATION
unknown | ID: 31 -->
<g id="edge20" class="edge">
<title>INFO DISCOVERY
unknown&#45;&gt;DATA EXFILTRATION
unknown | ID: 31</title>
<path fill="none" stroke="blue" stroke-width="5" d="M4606.95,-633.92C4617.66,-695.25 4632.07,-813.38 4606.63,-909.39 4590.38,-970.73 4552.87,-1032.83 4522.81,-1075.84"/>
<polygon fill="blue" stroke="blue" stroke-width="5" points="4519.11,-1073.49 4516.9,-1084.18 4526.25,-1078.54 4519.11,-1073.49"/>
<text text-anchor="middle" x="4751.13" y="-886.39" font-family="Arial" font-size="20.00" fill="blue">start_next: 03/11/18, 15:07:00</text>
<text text-anchor="middle" x="4751.13" y="-864.39" font-family="Arial" font-size="20.00" fill="blue">gap: 0sec</text>
<text text-anchor="middle" x="4751.13" y="-842.39" font-family="Arial" font-size="20.00" fill="blue">end_prev: 03/11/18, 15:07:00</text>
</g>
<!-- INFO DISCOVERY
unknown&#45;&gt;VULNERABILTY DISCOVERY
mysql -->
<g id="edge30" class="edge">
<title>INFO DISCOVERY
unknown&#45;&gt;VULNERABILTY DISCOVERY
mysql</title>
<path fill="none" stroke="purple" stroke-width="5" d="M4448.51,-603.66C4026.98,-634.86 2830.39,-723.43 2324.24,-760.9"/>
<polygon fill="purple" stroke="purple" stroke-width="5" points="2323.91,-756.53 2314.26,-761.63 2324.55,-765.26 2323.91,-756.53"/>
<text text-anchor="start" x="3788.63" y="-713.54" font-family="Arial" font-size="20.00" fill="purple"> start_next: 03/11/18, 15:53:27</text>
<text text-anchor="start" x="3868.13" y="-693.54" font-family="Arial" font-size="20.00" fill="purple">gap: 575sec</text>
<text text-anchor="start" x="3792.63" y="-673.54" font-family="Arial" font-size="20.00" fill="purple">end_prev: 03/11/18, 15:43:52</text>
<text text-anchor="start" x="3817.63" y="-653.54" font-family="Arial" font-weight="bold" font-size="20.00" fill="purple">Attacker: 10.0.254.201</text>
</g>
<!-- SERVICE DISCOVERY
dsd&#45;&gt;HOST DISCOVERY
wap&#45;wsp -->
<g id="edge10" class="edge">
<title>SERVICE DISCOVERY
dsd&#45;&gt;HOST DISCOVERY
wap&#45;wsp</title>
<path fill="none" stroke="orange" stroke-width="5" d="M461.8,-917.35C451.81,-881.38 439.63,-827.74 439.63,-779.96 439.63,-222.28 439.63,-222.28 439.63,-222.28 439.63,-55.11 3039.08,-43.32 3740.83,-43.19"/>
<polygon fill="orange" stroke="orange" stroke-width="5" points="3741.03,-47.56 3751.03,-43.18 3741.02,-38.81 3741.03,-47.56"/>
<text text-anchor="middle" x="571.13" y="-511.56" font-family="Arial" font-size="20.00" fill="orange">start_next: 03/11/18, 17:19:17</text>
<text text-anchor="middle" x="571.13" y="-489.56" font-family="Arial" font-size="20.00" fill="orange">gap: &#45;7sec</text>
<text text-anchor="middle" x="571.13" y="-467.56" font-family="Arial" font-size="20.00" fill="orange">end_prev: 03/11/18, 17:19:24</text>
</g>
<!-- HOST DISCOVERY
http -->
<g id="node8" class="node">
<title>HOST DISCOVERY
http</title>
<g id="a_node8"><a xlink:title="ET SCAN Nmap Scripting Engine User&#45;Agent Detected (Nmap Scripting Engine)&#10;ET SCAN Possible Nmap User&#45;Agent Observed">
<ellipse fill="yellow" stroke="black" stroke-width="3" cx="162.63" cy="-42.43" rx="162.77" ry="42.35"/>
<text text-anchor="middle" x="162.63" y="-49.23" font-family="Arial" font-size="24.00">HOST DISCOVERY</text>
<text text-anchor="middle" x="162.63" y="-23.23" font-family="Arial" font-size="24.00">http</text>
</a>
</g>
</g>
<!-- HOST DISCOVERY
http&#45;&gt;SERVICE DISCOVERY
ssh -->
<g id="edge12" class="edge">
<title>HOST DISCOVERY
http&#45;&gt;SERVICE DISCOVERY
ssh</title>
<path fill="none" stroke="blue" stroke-width="5" d="M309.43,-60.78C589.36,-93.87 1198.39,-165.86 1499.64,-201.48"/>
<polygon fill="blue" stroke="blue" stroke-width="5" points="1499.34,-205.85 1509.79,-202.67 1500.37,-197.16 1499.34,-205.85"/>
<text text-anchor="start" x="1228.63" y="-157.85" font-family="Arial" font-size="20.00" fill="blue"> start_next: 03/11/18, 14:03:50</text>
<text text-anchor="start" x="1308.13" y="-137.85" font-family="Arial" font-size="20.00" fill="blue">gap: 393sec</text>
<text text-anchor="start" x="1232.63" y="-117.85" font-family="Arial" font-size="20.00" fill="blue">end_prev: 03/11/18, 13:57:16</text>
<text text-anchor="start" x="1257.63" y="-97.85" font-family="Arial" font-weight="bold" font-size="20.00" fill="blue">Attacker: 10.0.254.202</text>
</g>
<!-- SERVICE DISCOVERY
ssh&#45;&gt;DATA EXFILTRATION
unknown | ID: 31 -->
<g id="edge29" class="edge">
<title>SERVICE DISCOVERY
ssh&#45;&gt;DATA EXFILTRATION
unknown | ID: 31</title>
<path fill="none" stroke="purple" stroke-width="5" d="M1576.61,-259.49C1271.11,-372.26 385.02,-732.87 744.63,-1002.24 922.32,-1135.34 1017.39,-1057.84 1238.63,-1076.24 1829.33,-1125.37 3642.42,-1131.56 4266.19,-1132.21"/>
<polygon fill="purple" stroke="purple" stroke-width="5" points="4266.64,-1136.59 4276.65,-1132.22 4266.65,-1127.84 4266.64,-1136.59"/>
<text text-anchor="middle" x="932.13" y="-705.54" font-family="Arial" font-size="20.00" fill="purple">start_next: 03/11/18, 15:43:51</text>
<text text-anchor="middle" x="932.13" y="-683.54" font-family="Arial" font-size="20.00" fill="purple">gap: 1sec</text>
<text text-anchor="middle" x="932.13" y="-661.54" font-family="Arial" font-size="20.00" fill="purple">end_prev: 03/11/18, 15:43:50</text>
</g>
<!-- SERVICE DISCOVERY
ssh&#45;&gt;VULNERABILTY DISCOVERY
mysql -->
<g id="edge13" class="edge">
<title>SERVICE DISCOVERY
ssh&#45;&gt;VULNERABILTY DISCOVERY
mysql</title>
<path fill="none" stroke="blue" stroke-width="5" d="M1860.94,-232.32C1942.66,-239.01 2027.61,-251.27 2060.63,-273.71 2203.55,-370.79 2162.3,-475.78 2163.63,-648.54 2163.91,-684.09 2179.99,-696.97 2163.63,-728.54 2163.47,-728.85 2163.31,-729.16 2163.14,-729.46"/>
<polygon fill="blue" stroke="blue" stroke-width="5" points="2159.42,-727.17 2157.58,-737.93 2166.73,-731.97 2159.42,-727.17"/>
<text text-anchor="middle" x="2300.13" y="-511.56" font-family="Arial" font-size="20.00" fill="blue">start_next: 03/11/18, 14:17:06</text>
<text text-anchor="middle" x="2300.13" y="-489.56" font-family="Arial" font-size="20.00" fill="blue">gap: 796sec</text>
<text text-anchor="middle" x="2300.13" y="-467.56" font-family="Arial" font-size="20.00" fill="blue">end_prev: 03/11/18, 14:03:50</text>
</g>
<!-- SERVICE DISCOVERY
ssh&#45;&gt;VULNERABILTY DISCOVERY
mysql -->
<g id="edge21" class="edge">
<title>SERVICE DISCOVERY
ssh&#45;&gt;VULNERABILTY DISCOVERY
mysql</title>
<path fill="none" stroke="blue" stroke-width="5" d="M1652.73,-265.55C1621.98,-326.81 1575.7,-444.29 1616.63,-534.56 1669.85,-651.9 1805.24,-713.53 1918.23,-745.38"/>
<polygon fill="blue" stroke="blue" stroke-width="5" points="1917.25,-749.64 1928.06,-748.09 1919.58,-741.21 1917.25,-749.64"/>
<text text-anchor="start" x="1616.63" y="-519.56" font-family="Arial" font-size="20.00" fill="blue"> start_next: 03/11/18, 17:13:59</text>
<text text-anchor="start" x="1690.13" y="-499.56" font-family="Arial" font-size="20.00" fill="blue">gap: 7610sec</text>
<text text-anchor="start" x="1620.63" y="-479.56" font-family="Arial" font-size="20.00" fill="blue">end_prev: 03/11/18, 15:07:09</text>
<text text-anchor="start" x="1645.63" y="-459.56" font-family="Arial" font-weight="bold" font-size="20.00" fill="blue">Attacker: 10.0.254.202</text>
</g>
<!-- INFO DISCOVERY
http -->
<g id="node12" class="node">
<title>INFO DISCOVERY
http</title>
<g id="a_node12"><a xlink:title="GPL WEB_SERVER .htaccess access&#10;GPL WEB_SERVER /~root access&#10;GPL WEB_SERVER iisadmin access&#10;GPL WEB_SERVER printenv access&#10;GPL WEB_SERVER .htpasswd access&#10;GPL WEB_SERVER global.asa access">
<ellipse fill="none" stroke="black" stroke-width="3" cx="1839.63" cy="-404.13" rx="156.04" ry="42.35"/>
<text text-anchor="middle" x="1839.63" y="-410.93" font-family="Arial" font-size="24.00">INFO DISCOVERY</text>
<text text-anchor="middle" x="1839.63" y="-384.93" font-family="Arial" font-size="24.00">http</text>
</a>
</g>
</g>
<!-- SERVICE DISCOVERY
ssh&#45;&gt;INFO DISCOVERY
http -->
<g id="edge33" class="edge">
<title>SERVICE DISCOVERY
ssh&#45;&gt;INFO DISCOVERY
http</title>
<path fill="none" stroke="purple" stroke-width="5" d="M1713.26,-265.31C1737.72,-291.99 1769.72,-326.89 1795.4,-354.9"/>
<polygon fill="purple" stroke="purple" stroke-width="5" points="1792.48,-358.19 1802.47,-362.6 1798.93,-352.27 1792.48,-358.19"/>
<text text-anchor="start" x="1791.63" y="-338.71" font-family="Arial" font-size="20.00" fill="purple"> start_next: 03/11/18, 17:32:02</text>
<text text-anchor="start" x="1859.63" y="-318.71" font-family="Arial" font-size="20.00" fill="purple">gap: 12506sec</text>
<text text-anchor="start" x="1795.63" y="-298.71" font-family="Arial" font-size="20.00" fill="purple">end_prev: 03/11/18, 14:03:36</text>
<text text-anchor="start" x="1820.63" y="-278.71" font-family="Arial" font-weight="bold" font-size="20.00" fill="purple">Attacker: 10.0.254.202</text>
</g>
<!-- VULNERABILTY DISCOVERY
ncube&#45;lm&#45;&gt;VULNERABILTY DISCOVERY
mysql -->
<g id="edge25" class="edge">
<title>VULNERABILTY DISCOVERY
ncube&#45;lm&#45;&gt;VULNERABILTY DISCOVERY
mysql</title>
<path fill="none" stroke="purple" stroke-width="5" d="M1822.94,-918.05C1821.28,-915.25 1819.82,-912.36 1818.63,-909.39 1805.44,-876.37 1795.82,-856.67 1818.63,-829.39 1828.13,-818.04 1848.71,-809.29 1874.57,-802.55"/>
<polygon fill="purple" stroke="purple" stroke-width="5" points="1875.65,-806.79 1884.32,-800.16 1873.56,-798.29 1875.65,-806.79"/>
<text text-anchor="start" x="1818.63" y="-894.39" font-family="Arial" font-size="20.00" fill="purple"> start_next: 03/11/18, 14:11:26</text>
<text text-anchor="start" x="1897.63" y="-874.39" font-family="Arial" font-size="20.00" fill="purple">gap: 494sec</text>
<text text-anchor="start" x="1822.13" y="-854.39" font-family="Arial" font-size="20.00" fill="purple">end_prev: 03/11/18, 14:03:12</text>
<text text-anchor="start" x="1847.13" y="-834.39" font-family="Arial" font-weight="bold" font-size="20.00" fill="purple">Attacker: 10.0.254.201</text>
</g>
<!-- VULNERABILTY DISCOVERY
ncube&#45;lm&#45;&gt;HOST DISCOVERY
wap&#45;wsp -->
<g id="edge27" class="edge">
<title>VULNERABILTY DISCOVERY
ncube&#45;lm&#45;&gt;HOST DISCOVERY
wap&#45;wsp</title>
<path fill="none" stroke="purple" stroke-width="5" d="M2101.35,-950.75C2359.42,-942.03 2785.46,-927.96 3152.63,-917.39 3161.38,-917.14 3461.52,-915.66 3467.63,-909.39 3480.04,-896.66 3479.03,-843.04 3467.63,-829.39 3454.9,-814.13 3442.2,-828.49 3423.63,-821.39 3196.13,-734.37 3075.54,-747.14 2956.63,-534.56 2939.28,-503.53 2941.72,-486.83 2956.63,-454.56 3060.67,-229.4 3153.07,-189.19 3381.63,-92.85 3444.69,-66.28 3611.75,-53.92 3742,-48.21"/>
<polygon fill="purple" stroke="purple" stroke-width="5" points="3742.3,-52.58 3752.11,-47.78 3741.93,-43.84 3742.3,-52.58"/>
<text text-anchor="middle" x="3088.13" y="-511.56" font-family="Arial" font-size="20.00" fill="purple">start_next: 03/11/18, 15:43:35</text>
<text text-anchor="middle" x="3088.13" y="-489.56" font-family="Arial" font-size="20.00" fill="purple">gap: 912sec</text>
<text text-anchor="middle" x="3088.13" y="-467.56" font-family="Arial" font-size="20.00" fill="purple">end_prev: 03/11/18, 15:28:23</text>
</g>
<!-- VULNERABILTY DISCOVERY
ms&#45;sql&#45;s&#45;&gt;DATA EXFILTRATION
unknown | ID: 31 -->
<g id="edge32" class="edge">
<title>VULNERABILTY DISCOVERY
ms&#45;sql&#45;s&#45;&gt;DATA EXFILTRATION
unknown | ID: 31</title>
<path fill="none" stroke="purple" stroke-width="5" d="M1142.88,-992.61C1284.54,-1020.43 1501.28,-1059.01 1691.63,-1076.24 2190.61,-1121.43 3705.22,-1130.15 4266.99,-1131.83"/>
<polygon fill="purple" stroke="purple" stroke-width="5" points="4267.21,-1136.21 4277.23,-1131.86 4267.24,-1127.46 4267.21,-1136.21"/>
<text text-anchor="middle" x="1823.13" y="-1060.24" font-family="Arial" font-size="20.00" fill="purple">start_next: 03/11/18, 16:27:23</text>
<text text-anchor="middle" x="1823.13" y="-1038.24" font-family="Arial" font-size="20.00" fill="purple">gap: &#45;581sec</text>
<text text-anchor="middle" x="1823.13" y="-1016.24" font-family="Arial" font-size="20.00" fill="purple">end_prev: 03/11/18, 16:37:04</text>
</g>
<!-- NETWORK DoS
http | ID: 5 -->
<g id="node13" class="node">
<title>NETWORK DoS
http | ID: 5</title>
<g id="a_node13"><a xlink:title="ET WEB_SERVER Possible Cherokee Web Server GET AUX Request Denial Of Service Attempt">
<polygon fill="none" stroke="black" stroke-width="3" points="2054.17,-591.55 1975.9,-640.53 1819.37,-640.53 1741.1,-591.55 1819.37,-542.57 1975.9,-542.57 2054.17,-591.55"/>
<text text-anchor="middle" x="1897.63" y="-598.35" font-family="Arial" font-size="24.00">NETWORK DoS</text>
<text text-anchor="middle" x="1897.63" y="-572.35" font-family="Arial" font-size="24.00">http | ID: 5</text>
</a>
</g>
</g>
<!-- INFO DISCOVERY
http&#45;&gt;NETWORK DoS
http | ID: 5 -->
<g id="edge34" class="edge">
<title>INFO DISCOVERY
http&#45;&gt;NETWORK DoS
http | ID: 5</title>
<path fill="none" stroke="purple" stroke-width="5" d="M1880.54,-445.17C1882.48,-448.21 1884.2,-451.35 1885.63,-454.56 1891.76,-468.32 1894.76,-501.95 1896.23,-532.32"/>
<polygon fill="purple" stroke="purple" stroke-width="5" points="1891.87,-532.66 1896.67,-542.46 1900.61,-532.28 1891.87,-532.66"/>
<text text-anchor="middle" x="2028.13" y="-511.56" font-family="Arial" font-size="20.00" fill="purple">start_next: 03/11/18, 17:32:02</text>
<text text-anchor="middle" x="2028.13" y="-489.56" font-family="Arial" font-size="20.00" fill="purple">gap: &#45;7sec</text>
<text text-anchor="middle" x="2028.13" y="-467.56" font-family="Arial" font-size="20.00" fill="purple">end_prev: 03/11/18, 17:32:09</text>
</g>
<!-- NETWORK DoS
http | ID: 5&#45;&gt;VULNERABILTY DISCOVERY
mysql -->
<g id="edge35" class="edge">
<title>NETWORK DoS
http | ID: 5&#45;&gt;VULNERABILTY DISCOVERY
mysql</title>
<path fill="none" stroke="purple" stroke-width="5" d="M1886.64,-640.61C1883.04,-669.16 1884.09,-704.38 1903.63,-728.54 1907.9,-733.81 1915.44,-738.64 1925.12,-743.04"/>
<polygon fill="purple" stroke="purple" stroke-width="5" points="1923.67,-747.17 1934.59,-746.95 1927.02,-739.09 1923.67,-747.17"/>
<text text-anchor="middle" x="2035.13" y="-705.54" font-family="Arial" font-size="20.00" fill="purple">start_next: 03/11/18, 17:44:50</text>
<text text-anchor="middle" x="2035.13" y="-683.54" font-family="Arial" font-size="20.00" fill="purple">gap: 762sec</text>
<text text-anchor="middle" x="2035.13" y="-661.54" font-family="Arial" font-size="20.00" fill="purple">end_prev: 03/11/18, 17:32:08</text>
</g>
<!-- SERVICE DISCOVERY
ipsma&#45;&gt;DATA EXFILTRATION
unknown | ID: 31 -->
<g id="edge37" class="edge">
<title>SERVICE DISCOVERY
ipsma&#45;&gt;DATA EXFILTRATION
unknown | ID: 31</title>
<path fill="none" stroke="purple" stroke-width="5" d="M1554.38,-991.42C1576.67,-995.79 1599.74,-999.67 1621.63,-1002.24 1695.37,-1010.92 1881.44,-1007.56 1955.63,-1010.24 2826.77,-1041.72 3866.16,-1097.83 4287.81,-1121.37"/>
<polygon fill="purple" stroke="purple" stroke-width="5" points="4287.74,-1125.74 4297.96,-1121.93 4288.22,-1117.01 4287.74,-1125.74"/>
<text text-anchor="middle" x="3525.13" y="-1060.24" font-family="Arial" font-size="20.00" fill="purple">start_next: 03/11/18, 17:47:24</text>
<text text-anchor="middle" x="3525.13" y="-1038.24" font-family="Arial" font-size="20.00" fill="purple">gap: 0sec</text>
<text text-anchor="middle" x="3525.13" y="-1016.24" font-family="Arial" font-size="20.00" fill="purple">end_prev: 03/11/18, 17:47:25</text>
</g>
</g>
</svg>
