<?xml version="1.0" encoding="UTF-8" standalone="no"?>
<!DOCTYPE svg PUBLIC "-//W3C//DTD SVG 1.1//EN"
 "http://www.w3.org/Graphics/SVG/1.1/DTD/svg11.dtd">
<!-- Generated by graphviz version 2.50.0 (0)
 -->
<!-- Title: NETWORKDOShttp Pages: 1 -->
<svg width="1247pt" height="958pt"
 viewBox="0.00 0.00 1246.50 958.03" xmlns="http://www.w3.org/2000/svg" xmlns:xlink="http://www.w3.org/1999/xlink">
<g id="graph0" class="graph" transform="scale(1 1) rotate(0) translate(4 954.03)">
<title>NETWORKDOShttp</title>
<polygon fill="white" stroke="transparent" points="-4,4 -4,-954.03 1242.5,-954.03 1242.5,4 -4,4"/>
<!-- Victim: 10.0.1.41
NETWORK DoS
http -->
<g id="node1" class="node">
<title>Victim: 10.0.1.41
NETWORK DoS
http</title>
<polygon fill="salmon" stroke="black" stroke-width="3" points="951.07,-853.02 951.07,-907.41 862.87,-945.87 738.14,-945.87 649.94,-907.41 649.94,-853.02 738.14,-814.56 862.87,-814.56 951.07,-853.02"/>
<polygon fill="none" stroke="black" stroke-width="3" points="955.06,-850.41 955.06,-910.02 863.7,-949.86 737.31,-949.86 645.95,-910.02 645.95,-850.41 737.31,-810.57 863.7,-810.57 955.06,-850.41"/>
<text text-anchor="middle" x="800.5" y="-900.01" font-family="Arial" font-size="24.00">Victim: 10.0.1.41</text>
<text text-anchor="middle" x="800.5" y="-874.01" font-family="Arial" font-size="24.00">NETWORK DoS</text>
<text text-anchor="middle" x="800.5" y="-848.01" font-family="Arial" font-size="24.00">http</text>
</g>
<!-- NETWORK DoS
http | ID: 5 -->
<g id="node2" class="node">
<title>NETWORK DoS
http | ID: 5</title>
<g id="a_node2"><a xlink:title="ET WEB_SERVER Possible Cherokee Web Server GET AUX Request Denial Of Service Attempt">
<polygon fill="salmon" stroke="black" stroke-width="3" points="957.04,-744.4 878.77,-793.38 722.24,-793.38 643.97,-744.4 722.24,-695.42 878.77,-695.42 957.04,-744.4"/>
<text text-anchor="middle" x="800.5" y="-751.2" font-family="Arial" font-size="24.00">NETWORK DoS</text>
<text text-anchor="middle" x="800.5" y="-725.2" font-family="Arial" font-size="24.00">http | ID: 5</text>
</a>
</g>
</g>
<!-- NETWORK DoS
http | ID: 5&#45;&gt;Victim: 10.0.1.41
NETWORK DoS
http -->
<g id="edge1" class="edge">
<title>NETWORK DoS
http | ID: 5&#45;&gt;Victim: 10.0.1.41
NETWORK DoS
http</title>
<path fill="none" stroke="black" stroke-width="5" d="M800.5,-793.71C800.5,-795.82 800.5,-797.95 800.5,-800.1"/>
<polygon fill="black" stroke="black" stroke-width="5" points="796.13,-800.25 800.5,-810.25 804.88,-800.25 796.13,-800.25"/>
</g>
<!-- VULNERABILTY DISCOVERY
mysql -->
<g id="node3" class="node">
<title>VULNERABILTY DISCOVERY
mysql</title>
<g id="a_node3"><a xlink:title="ET SCAN Suspicious inbound to mySQL port 3306&#10;ET SCAN Suspicious inbound to MSSQL port 1433&#10;ET SCAN Suspicious inbound to PostgreSQL port 5432&#10;ET SCAN Suspicious inbound to Oracle SQL port 1521&#10;ET SCAN Suspicious inbound to mSQL port 4333">
<ellipse fill="yellow" stroke="black" stroke-width="3" cx="344.5" cy="-390.13" rx="241.25" ry="42.35"/>
<text text-anchor="middle" x="344.5" y="-396.93" font-family="Arial" font-size="24.00">VULNERABILTY DISCOVERY</text>
<text text-anchor="middle" x="344.5" y="-370.93" font-family="Arial" font-size="24.00">mysql</text>
</a>
</g>
</g>
<!-- SERVICE DISCOVERY
unknown -->
<g id="node4" class="node">
<title>SERVICE DISCOVERY
unknown</title>
<g id="a_node4"><a xlink:title="ET SCAN Potential VNC Scan 5900&#45;5920&#10;ET SCAN Potential VNC Scan 5800&#45;5820">
<ellipse fill="none" stroke="black" stroke-width="3" cx="504.5" cy="-42.43" rx="189.51" ry="42.35"/>
<text text-anchor="middle" x="504.5" y="-49.23" font-family="Arial" font-size="24.00">SERVICE DISCOVERY</text>
<text text-anchor="middle" x="504.5" y="-23.23" font-family="Arial" font-size="24.00">unknown</text>
</a>
</g>
</g>
<!-- VULNERABILTY DISCOVERY
mysql&#45;&gt;SERVICE DISCOVERY
unknown -->
<g id="edge2" class="edge">
<title>VULNERABILTY DISCOVERY
mysql&#45;&gt;SERVICE DISCOVERY
unknown</title>
<path fill="none" stroke="blue" stroke-width="5" d="M231.93,-352.49C130.39,-313.34 5.48,-246.08 65.5,-166.85 99.3,-122.25 229.62,-89.27 339.57,-68.68"/>
<polygon fill="blue" stroke="blue" stroke-width="5" points="340.43,-72.97 349.47,-66.85 338.84,-64.37 340.43,-72.97"/>
<text text-anchor="start" x="65.5" y="-231.85" font-family="Arial" font-size="20.00" fill="blue"> start_next: 03/11/18, 14:45:40</text>
<text text-anchor="start" x="152.5" y="-211.85" font-family="Arial" font-size="20.00" fill="blue">gap: &#45;2sec</text>
<text text-anchor="start" x="69.5" y="-191.85" font-family="Arial" font-size="20.00" fill="blue">end_prev: 03/11/18, 14:45:42</text>
<text text-anchor="start" x="94.5" y="-171.85" font-family="Arial" font-weight="bold" font-size="20.00" fill="blue">Attacker: 10.0.254.204</text>
</g>
<!-- VULNERABILTY DISCOVERY
mysql&#45;&gt;SERVICE DISCOVERY
unknown -->
<g id="edge5" class="edge">
<title>VULNERABILTY DISCOVERY
mysql&#45;&gt;SERVICE DISCOVERY
unknown</title>
<path fill="none" stroke="blue" stroke-width="5" d="M340.42,-347.45C335.71,-292.02 330.42,-197.49 345.5,-166.85 361.73,-133.9 391.45,-107.19 420.83,-87.17"/>
<polygon fill="blue" stroke="blue" stroke-width="5" points="423.58,-90.59 429.51,-81.43 418.75,-83.29 423.58,-90.59"/>
<text text-anchor="middle" x="477" y="-223.85" font-family="Arial" font-size="20.00" fill="blue">start_next: 03/11/18, 21:00:29</text>
<text text-anchor="middle" x="477" y="-201.85" font-family="Arial" font-size="20.00" fill="blue">gap: &#45;4sec</text>
<text text-anchor="middle" x="477" y="-179.85" font-family="Arial" font-size="20.00" fill="blue">end_prev: 03/11/18, 21:00:33</text>
</g>
<!-- SERVICE DISCOVERY
ipsma -->
<g id="node7" class="node">
<title>SERVICE DISCOVERY
ipsma</title>
<g id="a_node7"><a xlink:title="ET SCAN Potential VNC Scan 5900&#45;5920&#10;ET SCAN Potential VNC Scan 5800&#45;5820">
<ellipse fill="none" stroke="black" stroke-width="3" cx="189.5" cy="-570.98" rx="189.51" ry="42.35"/>
<text text-anchor="middle" x="189.5" y="-577.78" font-family="Arial" font-size="24.00">SERVICE DISCOVERY</text>
<text text-anchor="middle" x="189.5" y="-551.78" font-family="Arial" font-size="24.00">ipsma</text>
</a>
</g>
</g>
<!-- VULNERABILTY DISCOVERY
mysql&#45;&gt;SERVICE DISCOVERY
ipsma -->
<g id="edge8" class="edge">
<title>VULNERABILTY DISCOVERY
mysql&#45;&gt;SERVICE DISCOVERY
ipsma</title>
<path fill="none" stroke="magenta" stroke-width="5" d="M147.07,-414.55C122.26,-421.2 102.43,-429.71 93.5,-440.56 70.92,-468.02 74.99,-490.2 93.5,-520.56 94.44,-522.1 95.45,-523.59 96.51,-525.04"/>
<polygon fill="magenta" stroke="magenta" stroke-width="5" points="93.38,-528.11 103.2,-532.87 100.03,-522.42 93.38,-528.11"/>
<text text-anchor="start" x="93.5" y="-505.56" font-family="Arial" font-size="20.00" fill="magenta"> start_next: 03/11/18, 21:08:00</text>
<text text-anchor="start" x="180.5" y="-485.56" font-family="Arial" font-size="20.00" fill="magenta">gap: &#45;1sec</text>
<text text-anchor="start" x="97.5" y="-465.56" font-family="Arial" font-size="20.00" fill="magenta">end_prev: 03/11/18, 21:08:01</text>
<text text-anchor="start" x="122.5" y="-445.56" font-family="Arial" font-weight="bold" font-size="20.00" fill="magenta">Attacker: 10.0.254.203</text>
</g>
<!-- SERVICE DISCOVERY
dsd -->
<g id="node8" class="node">
<title>SERVICE DISCOVERY
dsd</title>
<g id="a_node8"><a xlink:title="ET SCAN Potential VNC Scan 5900&#45;5920&#10;ET SCAN Potential VNC Scan 5800&#45;5820">
<ellipse fill="none" stroke="black" stroke-width="3" cx="659.5" cy="-570.98" rx="189.51" ry="42.35"/>
<text text-anchor="middle" x="659.5" y="-577.78" font-family="Arial" font-size="24.00">SERVICE DISCOVERY</text>
<text text-anchor="middle" x="659.5" y="-551.78" font-family="Arial" font-size="24.00">dsd</text>
</a>
</g>
</g>
<!-- VULNERABILTY DISCOVERY
mysql&#45;&gt;SERVICE DISCOVERY
dsd -->
<g id="edge10" class="edge">
<title>VULNERABILTY DISCOVERY
mysql&#45;&gt;SERVICE DISCOVERY
dsd</title>
<path fill="none" stroke="magenta" stroke-width="5" d="M556.5,-410.45C592.19,-417.58 622.04,-427.3 635.5,-440.56 655.79,-460.54 662.01,-491.72 663.06,-518.48"/>
<polygon fill="magenta" stroke="magenta" stroke-width="5" points="658.69,-518.55 663.23,-528.48 667.43,-518.41 658.69,-518.55"/>
<text text-anchor="middle" x="794" y="-497.56" font-family="Arial" font-size="20.00" fill="magenta">start_next: 03/11/18, 21:41:45</text>
<text text-anchor="middle" x="794" y="-475.56" font-family="Arial" font-size="20.00" fill="magenta">gap: &#45;8sec</text>
<text text-anchor="middle" x="794" y="-453.56" font-family="Arial" font-size="20.00" fill="magenta">end_prev: 03/11/18, 21:41:54</text>
</g>
<!-- ACCOUNT MANIPULATION
snmp | ID: 43 -->
<g id="node5" class="node">
<title>ACCOUNT MANIPULATION
snmp | ID: 43</title>
<g id="a_node5"><a xlink:title="GPL SNMP public access udp">
<polygon fill="none" stroke="black" stroke-width="3" points="931.5,-236.85 611.5,-236.85 611.5,-176.85 931.5,-176.85 931.5,-236.85"/>
<text text-anchor="middle" x="771.5" y="-213.65" font-family="Arial" font-size="24.00">ACCOUNT MANIPULATION</text>
<text text-anchor="middle" x="771.5" y="-187.65" font-family="Arial" font-size="24.00">snmp | ID: 43</text>
</a>
</g>
</g>
<!-- SERVICE DISCOVERY
unknown&#45;&gt;ACCOUNT MANIPULATION
snmp | ID: 43 -->
<g id="edge3" class="edge">
<title>SERVICE DISCOVERY
unknown&#45;&gt;ACCOUNT MANIPULATION
snmp | ID: 43</title>
<path fill="none" stroke="blue" stroke-width="5" d="M557.19,-83.18C589.35,-106.6 631.79,-136 671.5,-158.85 679.44,-163.42 687.9,-167.92 696.4,-172.21"/>
<polygon fill="blue" stroke="blue" stroke-width="5" points="694.72,-176.26 705.62,-176.79 698.61,-168.42 694.72,-176.26"/>
<text text-anchor="middle" x="803" y="-142.85" font-family="Arial" font-size="20.00" fill="blue">start_next: 03/11/18, 18:32:09</text>
<text text-anchor="middle" x="803" y="-120.85" font-family="Arial" font-size="20.00" fill="blue">gap: 13588sec</text>
<text text-anchor="middle" x="803" y="-98.85" font-family="Arial" font-size="20.00" fill="blue">end_prev: 03/11/18, 14:45:40</text>
</g>
<!-- INFO DISCOVERY
http -->
<g id="node6" class="node">
<title>INFO DISCOVERY
http</title>
<g id="a_node6"><a xlink:title="GPL WEB_SERVER .htaccess access&#10;GPL WEB_SERVER /~root access&#10;GPL WEB_SERVER iisadmin access&#10;GPL WEB_SERVER printenv access&#10;GPL WEB_SERVER .htpasswd access">
<ellipse fill="none" stroke="black" stroke-width="3" cx="940.5" cy="-297.28" rx="156.04" ry="42.35"/>
<text text-anchor="middle" x="940.5" y="-304.08" font-family="Arial" font-size="24.00">INFO DISCOVERY</text>
<text text-anchor="middle" x="940.5" y="-278.08" font-family="Arial" font-size="24.00">http</text>
</a>
</g>
</g>
<!-- SERVICE DISCOVERY
unknown&#45;&gt;INFO DISCOVERY
http -->
<g id="edge6" class="edge">
<title>SERVICE DISCOVERY
unknown&#45;&gt;INFO DISCOVERY
http</title>
<path fill="none" stroke="blue" stroke-width="5" d="M687.51,-53.65C795.44,-61.57 914.26,-74.34 931.5,-92.85 968.8,-132.9 964.28,-198.89 954.88,-244.81"/>
<polygon fill="blue" stroke="blue" stroke-width="5" points="950.55,-244.16 952.68,-254.87 959.1,-246.03 950.55,-244.16"/>
<text text-anchor="middle" x="1091" y="-142.85" font-family="Arial" font-size="20.00" fill="blue">start_next: 03/11/18, 22:15:19</text>
<text text-anchor="middle" x="1091" y="-120.85" font-family="Arial" font-size="20.00" fill="blue">gap: 4490sec</text>
<text text-anchor="middle" x="1091" y="-98.85" font-family="Arial" font-size="20.00" fill="blue">end_prev: 03/11/18, 21:00:29</text>
</g>
<!-- ACCOUNT MANIPULATION
snmp | ID: 43&#45;&gt;VULNERABILTY DISCOVERY
mysql -->
<g id="edge4" class="edge">
<title>ACCOUNT MANIPULATION
snmp | ID: 43&#45;&gt;VULNERABILTY DISCOVERY
mysql</title>
<path fill="none" stroke="blue" stroke-width="5" d="M657.17,-236.92C639.94,-240.66 622.31,-244.13 605.5,-246.85 566.74,-253.14 554.04,-240.46 517.5,-254.85 469.37,-273.82 423.52,-310.57 391.13,-340.83"/>
<polygon fill="blue" stroke="blue" stroke-width="5" points="387.85,-337.92 383.61,-347.98 393.87,-344.26 387.85,-337.92"/>
<text text-anchor="middle" x="649" y="-314.28" font-family="Arial" font-size="20.00" fill="blue">start_next: 03/11/18, 21:00:29</text>
<text text-anchor="middle" x="649" y="-292.28" font-family="Arial" font-size="20.00" fill="blue">gap: 8900sec</text>
<text text-anchor="middle" x="649" y="-270.28" font-family="Arial" font-size="20.00" fill="blue">end_prev: 03/11/18, 18:32:09</text>
</g>
<!-- INFO DISCOVERY
http&#45;&gt;NETWORK DoS
http | ID: 5 -->
<g id="edge7" class="edge">
<title>INFO DISCOVERY
http&#45;&gt;NETWORK DoS
http | ID: 5</title>
<path fill="none" stroke="blue" stroke-width="5" d="M952.81,-339.83C972.73,-416.08 1002.94,-580.37 930.5,-687.41 925.86,-694.28 920.17,-700.31 913.81,-705.61"/>
<polygon fill="blue" stroke="blue" stroke-width="5" points="910.77,-702.42 905.42,-711.93 916.04,-709.41 910.77,-702.42"/>
<text text-anchor="middle" x="1107" y="-497.56" font-family="Arial" font-size="20.00" fill="blue">start_next: 03/11/18, 22:15:21</text>
<text text-anchor="middle" x="1107" y="-475.56" font-family="Arial" font-size="20.00" fill="blue">gap: &#45;9sec</text>
<text text-anchor="middle" x="1107" y="-453.56" font-family="Arial" font-size="20.00" fill="blue">end_prev: 03/11/18, 22:15:30</text>
</g>
<!-- SERVICE DISCOVERY
ipsma&#45;&gt;VULNERABILTY DISCOVERY
mysql -->
<g id="edge9" class="edge">
<title>SERVICE DISCOVERY
ipsma&#45;&gt;VULNERABILTY DISCOVERY
mysql</title>
<path fill="none" stroke="magenta" stroke-width="5" d="M323.78,-540.92C339.98,-534.95 352.82,-528.14 358.5,-520.56 375.03,-498.51 372.64,-468.1 365.6,-442.3"/>
<polygon fill="magenta" stroke="magenta" stroke-width="5" points="369.77,-440.99 362.71,-432.67 361.39,-443.5 369.77,-440.99"/>
<text text-anchor="middle" x="503" y="-497.56" font-family="Arial" font-size="20.00" fill="magenta">start_next: 03/11/18, 21:41:45</text>
<text text-anchor="middle" x="503" y="-475.56" font-family="Arial" font-size="20.00" fill="magenta">gap: 2024sec</text>
<text text-anchor="middle" x="503" y="-453.56" font-family="Arial" font-size="20.00" fill="magenta">end_prev: 03/11/18, 21:08:01</text>
</g>
<!-- SERVICE DISCOVERY
dsd&#45;&gt;NETWORK DoS
http | ID: 5 -->
<g id="edge11" class="edge">
<title>SERVICE DISCOVERY
dsd&#45;&gt;NETWORK DoS
http | ID: 5</title>
<path fill="none" stroke="magenta" stroke-width="5" d="M653.65,-613.52C652.54,-637.28 655.21,-666.42 670.5,-687.41 675.5,-694.26 681.5,-700.29 688.16,-705.58"/>
<polygon fill="magenta" stroke="magenta" stroke-width="5" points="685.59,-709.12 696.26,-711.46 690.74,-702.04 685.59,-709.12"/>
<text text-anchor="middle" x="802" y="-671.41" font-family="Arial" font-size="20.00" fill="magenta">start_next: 03/11/18, 21:49:58</text>
<text text-anchor="middle" x="802" y="-649.41" font-family="Arial" font-size="20.00" fill="magenta">gap: 491sec</text>
<text text-anchor="middle" x="802" y="-627.41" font-family="Arial" font-size="20.00" fill="magenta">end_prev: 03/11/18, 21:41:47</text>
</g>
</g>
</svg>
