<?xml version="1.0" encoding="UTF-8" standalone="no"?>
<!DOCTYPE svg PUBLIC "-//W3C//DTD SVG 1.1//EN"
 "http://www.w3.org/Graphics/SVG/1.1/DTD/svg11.dtd">
<!-- Generated by graphviz version 2.50.0 (0)
 -->
<!-- Title: DATAMANIPULATIONremotewarecl Pages: 1 -->
<svg width="2573pt" height="1427pt"
 viewBox="0.00 0.00 2572.50 1426.87" xmlns="http://www.w3.org/2000/svg" xmlns:xlink="http://www.w3.org/1999/xlink">
<g id="graph0" class="graph" transform="scale(1 1) rotate(0) translate(4 1422.87)">
<title>DATAMANIPULATIONremotewarecl</title>
<polygon fill="white" stroke="transparent" points="-4,4 -4,-1422.87 2568.5,-1422.87 2568.5,4 -4,4"/>
<!-- Victim: 10.0.0.20
DATA MANIPULATION
remoteware&#45;cl -->
<g id="node1" class="node">
<title>Victim: 10.0.0.20
DATA MANIPULATION
remoteware&#45;cl</title>
<polygon fill="salmon" stroke="black" stroke-width="3" points="1955.03,-1321.85 1955.03,-1376.24 1838.15,-1414.7 1672.86,-1414.7 1555.98,-1376.24 1555.98,-1321.85 1672.86,-1283.39 1838.15,-1283.39 1955.03,-1321.85"/>
<polygon fill="none" stroke="black" stroke-width="3" points="1959.03,-1318.96 1959.03,-1379.13 1838.79,-1418.69 1672.22,-1418.69 1551.98,-1379.13 1551.98,-1318.96 1672.22,-1279.4 1838.79,-1279.4 1959.03,-1318.96"/>
<text text-anchor="middle" x="1755.5" y="-1368.84" font-family="Arial" font-size="24.00">Victim: 10.0.0.20</text>
<text text-anchor="middle" x="1755.5" y="-1342.84" font-family="Arial" font-size="24.00">DATA MANIPULATION</text>
<text text-anchor="middle" x="1755.5" y="-1316.84" font-family="Arial" font-size="24.00">remoteware&#45;cl</text>
</g>
<!-- DATA MANIPULATION
remoteware&#45;cl | ID: 23 -->
<g id="node2" class="node">
<title>DATA MANIPULATION
remoteware&#45;cl | ID: 23</title>
<g id="a_node2"><a xlink:title="ET WEB_SERVER Possible SQL Injection Attempt SELECT FROM&#10;ET WEB_SERVER Possible SQL Injection Attempt UNION SELECT">
<polygon fill="salmon" stroke="black" stroke-width="3" points="1968.72,-1213.23 1862.11,-1262.21 1648.9,-1262.21 1542.29,-1213.23 1648.9,-1164.25 1862.11,-1164.25 1968.72,-1213.23"/>
<text text-anchor="middle" x="1755.5" y="-1220.03" font-family="Arial" font-size="24.00">DATA MANIPULATION</text>
<text text-anchor="middle" x="1755.5" y="-1194.03" font-family="Arial" font-size="24.00">remoteware&#45;cl | ID: 23</text>
</a>
</g>
</g>
<!-- DATA MANIPULATION
remoteware&#45;cl | ID: 23&#45;&gt;Victim: 10.0.0.20
DATA MANIPULATION
remoteware&#45;cl -->
<g id="edge1" class="edge">
<title>DATA MANIPULATION
remoteware&#45;cl | ID: 23&#45;&gt;Victim: 10.0.0.20
DATA MANIPULATION
remoteware&#45;cl</title>
<path fill="none" stroke="black" stroke-width="5" d="M1755.5,-1262.54C1755.5,-1264.65 1755.5,-1266.78 1755.5,-1268.93"/>
<polygon fill="black" stroke="black" stroke-width="5" points="1751.13,-1269.08 1755.5,-1279.08 1759.88,-1269.08 1751.13,-1269.08"/>
</g>
<!-- VULNERABILTY DISCOVERY
mysql -->
<g id="node3" class="node">
<title>VULNERABILTY DISCOVERY
mysql</title>
<g id="a_node3"><a xlink:title="ET SCAN Suspicious inbound to mySQL port 3306&#10;ET SCAN Suspicious inbound to MSSQL port 1433&#10;ET SCAN Suspicious inbound to PostgreSQL port 5432&#10;ET SCAN Suspicious inbound to Oracle SQL port 1521&#10;ET SCAN Suspicious inbound to mSQL port 4333">
<ellipse fill="yellow" stroke="black" stroke-width="3" cx="469.5" cy="-42.43" rx="241.25" ry="42.35"/>
<text text-anchor="middle" x="469.5" y="-49.23" font-family="Arial" font-size="24.00">VULNERABILTY DISCOVERY</text>
<text text-anchor="middle" x="469.5" y="-23.23" font-family="Arial" font-size="24.00">mysql</text>
</a>
</g>
</g>
<!-- SERVICE DISCOVERY
cpdlc -->
<g id="node4" class="node">
<title>SERVICE DISCOVERY
cpdlc</title>
<g id="a_node4"><a xlink:title="ET SCAN Potential VNC Scan 5900&#45;5920&#10;ET SCAN Potential VNC Scan 5800&#45;5820">
<ellipse fill="none" stroke="black" stroke-width="3" cx="189.5" cy="-316.13" rx="189.51" ry="42.35"/>
<text text-anchor="middle" x="189.5" y="-322.93" font-family="Arial" font-size="24.00">SERVICE DISCOVERY</text>
<text text-anchor="middle" x="189.5" y="-296.93" font-family="Arial" font-size="24.00">cpdlc</text>
</a>
</g>
</g>
<!-- VULNERABILTY DISCOVERY
mysql&#45;&gt;SERVICE DISCOVERY
cpdlc -->
<g id="edge2" class="edge">
<title>VULNERABILTY DISCOVERY
mysql&#45;&gt;SERVICE DISCOVERY
cpdlc</title>
<path fill="none" stroke="maroon" stroke-width="5" d="M260.75,-63.74C230.2,-70.75 205.34,-80.18 194.5,-92.85 154.59,-139.5 162.34,-213.98 173.94,-263.7"/>
<polygon fill="maroon" stroke="maroon" stroke-width="5" points="169.74,-264.95 176.38,-273.61 178.24,-262.86 169.74,-264.95"/>
<text text-anchor="start" x="194.5" y="-157.85" font-family="Arial" font-size="20.00" fill="maroon"> start_next: 03/11/18, 14:36:05</text>
<text text-anchor="start" x="285" y="-137.85" font-family="Arial" font-size="20.00" fill="maroon">gap: 0sec</text>
<text text-anchor="start" x="198.5" y="-117.85" font-family="Arial" font-size="20.00" fill="maroon">end_prev: 03/11/18, 14:36:05</text>
<text text-anchor="start" x="223.5" y="-97.85" font-family="Arial" font-weight="bold" font-size="20.00" fill="maroon">Attacker: 10.0.254.204</text>
</g>
<!-- SERVICE DISCOVERY
unknown -->
<g id="node10" class="node">
<title>SERVICE DISCOVERY
unknown</title>
<g id="a_node10"><a xlink:title="ET SCAN Potential SSH Scan&#10;ET SCAN Potential VNC Scan 5800&#45;5820&#10;ET SCAN Potential VNC Scan 5900&#45;5920&#10;ET SCAN NMAP OS Detection Probe">
<ellipse fill="none" stroke="black" stroke-width="3" cx="567.5" cy="-223.28" rx="189.51" ry="42.35"/>
<text text-anchor="middle" x="567.5" y="-230.08" font-family="Arial" font-size="24.00">SERVICE DISCOVERY</text>
<text text-anchor="middle" x="567.5" y="-204.08" font-family="Arial" font-size="24.00">unknown</text>
</a>
</g>
</g>
<!-- VULNERABILTY DISCOVERY
mysql&#45;&gt;SERVICE DISCOVERY
unknown -->
<g id="edge9" class="edge">
<title>VULNERABILTY DISCOVERY
mysql&#45;&gt;SERVICE DISCOVERY
unknown</title>
<path fill="none" stroke="darkgreen" stroke-width="5" d="M675.9,-64.41C704.87,-71.35 728.29,-80.59 738.5,-92.85 761.26,-120.17 759.87,-144.43 738.5,-172.85 733.88,-179 724.58,-184.63 712.61,-189.71"/>
<polygon fill="darkgreen" stroke="darkgreen" stroke-width="5" points="710.68,-185.76 702.96,-193.48 713.86,-193.91 710.68,-185.76"/>
<text text-anchor="start" x="755.5" y="-157.85" font-family="Arial" font-size="20.00" fill="darkgreen"> start_next: 03/11/18, 14:53:39</text>
<text text-anchor="start" x="831.5" y="-137.85" font-family="Arial" font-size="20.00" fill="darkgreen">gap: &#45;263sec</text>
<text text-anchor="start" x="759.5" y="-117.85" font-family="Arial" font-size="20.00" fill="darkgreen">end_prev: 03/11/18, 14:58:02</text>
<text text-anchor="start" x="784.5" y="-97.85" font-family="Arial" font-weight="bold" font-size="20.00" fill="darkgreen">Attacker: 10.0.254.201</text>
</g>
<!-- VULNERABILTY DISCOVERY
mysql&#45;&gt;SERVICE DISCOVERY
unknown -->
<g id="edge17" class="edge">
<title>VULNERABILTY DISCOVERY
mysql&#45;&gt;SERVICE DISCOVERY
unknown</title>
<path fill="none" stroke="darkgreen" stroke-width="5" d="M464.91,-84.89C462.17,-117.09 460.73,-158.6 469.5,-172.85 470.47,-174.41 471.49,-175.93 472.58,-177.4"/>
<polygon fill="darkgreen" stroke="darkgreen" stroke-width="5" points="469.57,-180.61 479.42,-185.31 476.19,-174.88 469.57,-180.61"/>
<text text-anchor="start" x="469.5" y="-157.85" font-family="Arial" font-size="20.00" fill="darkgreen"> start_next: 03/11/18, 17:42:35</text>
<text text-anchor="start" x="551" y="-137.85" font-family="Arial" font-size="20.00" fill="darkgreen">gap: &#45;10sec</text>
<text text-anchor="start" x="473.5" y="-117.85" font-family="Arial" font-size="20.00" fill="darkgreen">end_prev: 03/11/18, 17:42:45</text>
<text text-anchor="start" x="498.5" y="-97.85" font-family="Arial" font-weight="bold" font-size="20.00" fill="darkgreen">Attacker: 10.0.254.204</text>
</g>
<!-- VULNERABILTY DISCOVERY
remoteware&#45;cl -->
<g id="node5" class="node">
<title>VULNERABILTY DISCOVERY
remoteware&#45;cl</title>
<g id="a_node5"><a xlink:title="ET SCAN Nikto Web App Scan in Progress">
<ellipse fill="none" stroke="black" stroke-width="3" cx="1209.5" cy="-575.84" rx="241.25" ry="42.35"/>
<text text-anchor="middle" x="1209.5" y="-582.64" font-family="Arial" font-size="24.00">VULNERABILTY DISCOVERY</text>
<text text-anchor="middle" x="1209.5" y="-556.64" font-family="Arial" font-size="24.00">remoteware&#45;cl</text>
</a>
</g>
</g>
<!-- SERVICE DISCOVERY
cpdlc&#45;&gt;VULNERABILTY DISCOVERY
remoteware&#45;cl -->
<g id="edge3" class="edge">
<title>SERVICE DISCOVERY
cpdlc&#45;&gt;VULNERABILTY DISCOVERY
remoteware&#45;cl</title>
<path fill="none" stroke="maroon" stroke-width="5" d="M191.06,-358.75C194.11,-387.56 202.29,-425.27 223.5,-451.41 270.59,-509.45 302.23,-506.39 374.5,-525.41 481.03,-553.45 754.52,-565.62 959.69,-570.87"/>
<polygon fill="maroon" stroke="maroon" stroke-width="5" points="959.61,-575.25 969.71,-571.13 959.83,-566.5 959.61,-575.25"/>
<text text-anchor="middle" x="355" y="-425.98" font-family="Arial" font-size="20.00" fill="maroon">start_next: 03/11/18, 19:26:10</text>
<text text-anchor="middle" x="355" y="-403.98" font-family="Arial" font-size="20.00" fill="maroon">gap: 17405sec</text>
<text text-anchor="middle" x="355" y="-381.98" font-family="Arial" font-size="20.00" fill="maroon">end_prev: 03/11/18, 14:36:05</text>
</g>
<!-- INFO DISCOVERY
remoteware&#45;cl -->
<g id="node6" class="node">
<title>INFO DISCOVERY
remoteware&#45;cl</title>
<g id="a_node6"><a xlink:title="GPL WEB_SERVER viewcode access&#10;GPL WEB_SERVER .htaccess access&#10;GPL WEB_SERVER writeto.cnf access&#10;GPL WEB_SERVER iisadmin access&#10;ET WEB_SPECIFIC_APPS Request to Wordpress W3TC Plug&#45;in dbcache Directory&#10;GPL WEB_SERVER services.cnf access&#10;GPL EXPLOIT unicode directory traversal attempt&#10;GPL WEB_SERVER service.cnf access&#10;GPL EXPLOIT iisadmpwd attempt&#10;ET WEB_SERVER PHP SESSION SuperGlobal in URI&#10;GPL WEB_SERVER /~root access&#10;GPL WEB_SERVER authors.pwd access&#10;GPL EXPLOIT .cnf access&#10;ET POLICY Proxy TRACE Request &#45; inbound&#10;GPL WEB_SERVER .htpasswd access&#10;GPL WEB_SERVER global.asa access&#10;ET WEB_SERVER PHP SERVER SuperGlobal in URI&#10;GPL EXPLOIT fpcount access&#10;GPL WEB_SERVER globals.pl access&#10;GPL WEB_SERVER 403 Forbidden&#10;GPL WEB_SERVER service.pwd&#10;GPL EXPLOIT ISAPI .idq attempt&#10;ET WEB_SERVER PHP Easteregg Information&#45;Disclosure (phpinfo)&#10;GPL WEB_SERVER printenv access&#10;GPL WEB_SERVER author.exe access&#10;GPL EXPLOIT iissamples access&#10;GPL EXPLOIT .htr access&#10;ET WEB_SERVER PHP REQUEST SuperGlobal in URI">
<ellipse fill="yellow" stroke="black" stroke-width="3" cx="1477.5" cy="-223.28" rx="156.04" ry="42.35"/>
<text text-anchor="middle" x="1477.5" y="-230.08" font-family="Arial" font-size="24.00">INFO DISCOVERY</text>
<text text-anchor="middle" x="1477.5" y="-204.08" font-family="Arial" font-size="24.00">remoteware&#45;cl</text>
</a>
</g>
</g>
<!-- VULNERABILTY DISCOVERY
remoteware&#45;cl&#45;&gt;INFO DISCOVERY
remoteware&#45;cl -->
<g id="edge4" class="edge">
<title>VULNERABILTY DISCOVERY
remoteware&#45;cl&#45;&gt;INFO DISCOVERY
remoteware&#45;cl</title>
<path fill="none" stroke="maroon" stroke-width="5" d="M1219.46,-533.4C1222.78,-508.46 1221.64,-478.03 1202.5,-459.41 1183.46,-440.88 981.98,-470.51 963.5,-451.41 937.29,-424.3 941.69,-397.32 963.5,-366.56 1005.9,-306.78 1192.38,-266.53 1328.55,-244.52"/>
<polygon fill="maroon" stroke="maroon" stroke-width="5" points="1329.49,-248.8 1338.68,-242.9 1328.11,-240.15 1329.49,-248.8"/>
<text text-anchor="middle" x="1094.5" y="-425.98" font-family="Arial" font-size="20.00" fill="maroon">start_next: 03/11/18, 19:26:11</text>
<text text-anchor="middle" x="1094.5" y="-403.98" font-family="Arial" font-size="20.00" fill="maroon">gap: &#45;72sec</text>
<text text-anchor="middle" x="1094.5" y="-381.98" font-family="Arial" font-size="20.00" fill="maroon">end_prev: 03/11/18, 19:27:23</text>
</g>
<!-- VULNERABILTY DISCOVERY
remoteware&#45;cl&#45;&gt;INFO DISCOVERY
remoteware&#45;cl -->
<g id="edge20" class="edge">
<title>VULNERABILTY DISCOVERY
remoteware&#45;cl&#45;&gt;INFO DISCOVERY
remoteware&#45;cl</title>
<path fill="none" stroke="darkgreen" stroke-width="5" d="M1216.35,-533.33C1216.75,-530.65 1217.14,-527.99 1217.5,-525.41 1219.98,-507.81 1226.79,-381.44 1236.5,-366.56 1268.26,-317.91 1322.91,-283.67 1372.16,-260.99"/>
<polygon fill="darkgreen" stroke="darkgreen" stroke-width="5" points="1373.96,-264.98 1381.28,-256.89 1370.37,-257 1373.96,-264.98"/>
<text text-anchor="middle" x="1368" y="-425.98" font-family="Arial" font-size="20.00" fill="darkgreen">start_next: 03/11/18, 18:07:27</text>
<text text-anchor="middle" x="1368" y="-403.98" font-family="Arial" font-size="20.00" fill="darkgreen">gap: &#45;563sec</text>
<text text-anchor="middle" x="1368" y="-381.98" font-family="Arial" font-size="20.00" fill="darkgreen">end_prev: 03/11/18, 18:16:50</text>
</g>
<!-- DATA EXFILTRATION
remoteware&#45;cl | ID: 22 -->
<g id="node7" class="node">
<title>DATA EXFILTRATION
remoteware&#45;cl | ID: 22</title>
<g id="a_node7"><a xlink:title="GPL WEB_SERVER Tomcat server snoop access&#10;GPL EXPLOIT ISAPI .ida access&#10;GPL EXPLOIT /msadc/samples/ access&#10;ET WEB_SERVER ColdFusion componentutils access&#10;ET WEB_SERVER /system32/ in Uri &#45; Possible Protected Directory Access Attempt&#10;ET WEB_SPECIFIC_APPS PHP&#45;CGI query string parameter vulnerability&#10;ET WEB_SERVER Possible XXE SYSTEM ENTITY in POST BODY.&#10;ET WEB_SERVER /etc/shadow Detected in URI&#10;GPL EXPLOIT ISAPI .idq access">
<polygon fill="none" stroke="black" stroke-width="3" points="1757.78,-749.25 1654.14,-798.23 1446.86,-798.23 1343.22,-749.25 1446.86,-700.27 1654.14,-700.27 1757.78,-749.25"/>
<text text-anchor="middle" x="1550.5" y="-756.05" font-family="Arial" font-size="24.00">DATA EXFILTRATION</text>
<text text-anchor="middle" x="1550.5" y="-730.05" font-family="Arial" font-size="24.00">remoteware&#45;cl | ID: 22</text>
</a>
</g>
</g>
<!-- VULNERABILTY DISCOVERY
remoteware&#45;cl&#45;&gt;DATA EXFILTRATION
remoteware&#45;cl | ID: 22 -->
<g id="edge12" class="edge">
<title>VULNERABILTY DISCOVERY
remoteware&#45;cl&#45;&gt;DATA EXFILTRATION
remoteware&#45;cl | ID: 22</title>
<path fill="none" stroke="darkgreen" stroke-width="5" d="M1198.2,-618.31C1194.22,-642.63 1194.35,-672.39 1211.5,-692.26 1231.76,-715.73 1291.46,-729.37 1355.22,-737.3"/>
<polygon fill="darkgreen" stroke="darkgreen" stroke-width="5" points="1355.03,-741.68 1365.48,-738.52 1356.07,-732.99 1355.03,-741.68"/>
<text text-anchor="middle" x="1343" y="-676.26" font-family="Arial" font-size="20.00" fill="darkgreen">start_next: 03/11/18, 15:05:41</text>
<text text-anchor="middle" x="1343" y="-654.26" font-family="Arial" font-size="20.00" fill="darkgreen">gap: &#45;571sec</text>
<text text-anchor="middle" x="1343" y="-632.26" font-family="Arial" font-size="20.00" fill="darkgreen">end_prev: 03/11/18, 15:15:13</text>
</g>
<!-- VULNERABILTY DISCOVERY
remoteware&#45;cl&#45;&gt;DATA EXFILTRATION
remoteware&#45;cl | ID: 22 -->
<g id="edge27" class="edge">
<title>VULNERABILTY DISCOVERY
remoteware&#45;cl&#45;&gt;DATA EXFILTRATION
remoteware&#45;cl | ID: 22</title>
<path fill="none" stroke="magenta" stroke-width="5" d="M1407.85,-600.06C1436.55,-606.8 1460.21,-615.38 1471.5,-626.26 1491.13,-645.18 1474.85,-662.8 1486.99,-690.97"/>
<polygon fill="magenta" stroke="magenta" stroke-width="5" points="1483.23,-693.23 1491.74,-700.06 1490.99,-689.17 1483.23,-693.23"/>
<text text-anchor="middle" x="1618" y="-676.26" font-family="Arial" font-size="20.00" fill="magenta">start_next: 03/11/18, 15:48:26</text>
<text text-anchor="middle" x="1618" y="-654.26" font-family="Arial" font-size="20.00" fill="magenta">gap: &#45;552sec</text>
<text text-anchor="middle" x="1618" y="-632.26" font-family="Arial" font-size="20.00" fill="magenta">end_prev: 03/11/18, 15:57:38</text>
</g>
<!-- INFO DISCOVERY
remoteware&#45;cl&#45;&gt;DATA EXFILTRATION
remoteware&#45;cl | ID: 22 -->
<g id="edge5" class="edge">
<title>INFO DISCOVERY
remoteware&#45;cl&#45;&gt;DATA EXFILTRATION
remoteware&#45;cl | ID: 22</title>
<path fill="none" stroke="maroon" stroke-width="5" d="M1627.92,-235.13C1680.35,-242.29 1730.21,-254.14 1746.5,-273.71 1761.39,-291.57 1760.51,-673.7 1746.5,-692.26 1739.7,-701.29 1724.08,-709.3 1704.48,-716.23"/>
<polygon fill="maroon" stroke="maroon" stroke-width="5" points="1702.98,-712.12 1694.88,-719.44 1705.76,-720.42 1702.98,-712.12"/>
<text text-anchor="middle" x="1888" y="-509.41" font-family="Arial" font-size="20.00" fill="maroon">start_next: 03/11/18, 19:26:16</text>
<text text-anchor="middle" x="1888" y="-487.41" font-family="Arial" font-size="20.00" fill="maroon">gap: &#45;80sec</text>
<text text-anchor="middle" x="1888" y="-465.41" font-family="Arial" font-size="20.00" fill="maroon">end_prev: 03/11/18, 19:27:36</text>
</g>
<!-- INFO DISCOVERY
remoteware&#45;cl&#45;&gt;DATA EXFILTRATION
remoteware&#45;cl | ID: 22 -->
<g id="edge21" class="edge">
<title>INFO DISCOVERY
remoteware&#45;cl&#45;&gt;DATA EXFILTRATION
remoteware&#45;cl | ID: 22</title>
<path fill="none" stroke="darkgreen" stroke-width="5" d="M1623.83,-238.42C1757.23,-260.38 1944.43,-316.42 2018.5,-459.41 2091.64,-600.58 1871.63,-680.31 1708.89,-718.79"/>
<polygon fill="darkgreen" stroke="darkgreen" stroke-width="5" points="1707.49,-714.63 1698.74,-721.16 1709.48,-723.15 1707.49,-714.63"/>
<text text-anchor="middle" x="2164" y="-509.41" font-family="Arial" font-size="20.00" fill="darkgreen">start_next: 03/11/18, 18:07:28</text>
<text text-anchor="middle" x="2164" y="-487.41" font-family="Arial" font-size="20.00" fill="darkgreen">gap: &#45;564sec</text>
<text text-anchor="middle" x="2164" y="-465.41" font-family="Arial" font-size="20.00" fill="darkgreen">end_prev: 03/11/18, 18:16:52</text>
</g>
<!-- ARBITRARY CODE EXECUTION
remoteware&#45;cl | ID: 398 -->
<g id="node8" class="node">
<title>ARBITRARY CODE EXECUTION
remoteware&#45;cl | ID: 398</title>
<g id="a_node8"><a xlink:title="ET WEB_SPECIFIC_APPS WEB&#45;PHP RCE PHPBB 2004&#45;1315&#10;ET CURRENT_EVENTS QNAP Shellshock CVE&#45;2014&#45;6271&#10;ET WEB_SERVER Possible CVE&#45;2014&#45;6271 Attempt in Headers">
<polygon fill="none" stroke="black" stroke-width="3" stroke-dasharray="1,5" points="1943,-940.24 1568,-940.24 1568,-880.24 1943,-880.24 1943,-940.24"/>
<text text-anchor="middle" x="1755.5" y="-917.04" font-family="Arial" font-size="24.00">ARBITRARY CODE EXECUTION</text>
<text text-anchor="middle" x="1755.5" y="-891.04" font-family="Arial" font-size="24.00">remoteware&#45;cl | ID: 398</text>
</a>
</g>
</g>
<!-- INFO DISCOVERY
remoteware&#45;cl&#45;&gt;ARBITRARY CODE EXECUTION
remoteware&#45;cl | ID: 398 -->
<g id="edge14" class="edge">
<title>INFO DISCOVERY
remoteware&#45;cl&#45;&gt;ARBITRARY CODE EXECUTION
remoteware&#45;cl | ID: 398</title>
<path fill="none" stroke="darkgreen" stroke-width="5" d="M1632.98,-227.57C1871.77,-236.89 2301.5,-272.5 2301.5,-407.98 2301.5,-407.98 2301.5,-407.98 2301.5,-750.25 2301.5,-833.46 2236.12,-839.8 2159.5,-872.24 2122.07,-888.09 2036.26,-897.17 1953.3,-902.36"/>
<polygon fill="darkgreen" stroke="darkgreen" stroke-width="5" points="1952.92,-898 1943.2,-902.98 1953.45,-906.74 1952.92,-898"/>
<text text-anchor="middle" x="2433" y="-592.84" font-family="Arial" font-size="20.00" fill="darkgreen">start_next: 03/11/18, 15:05:58</text>
<text text-anchor="middle" x="2433" y="-570.84" font-family="Arial" font-size="20.00" fill="darkgreen">gap: &#45;561sec</text>
<text text-anchor="middle" x="2433" y="-548.84" font-family="Arial" font-size="20.00" fill="darkgreen">end_prev: 03/11/18, 15:15:19</text>
</g>
<!-- SURFING
remoteware&#45;cl -->
<g id="node12" class="node">
<title>SURFING
remoteware&#45;cl</title>
<g id="a_node12"><a xlink:title="ET WEB_SERVER WEB&#45;PHP phpinfo access">
<ellipse fill="none" stroke="black" stroke-width="3" cx="1623.5" cy="-408.98" rx="120.42" ry="42.35"/>
<text text-anchor="middle" x="1623.5" y="-415.78" font-family="Arial" font-size="24.00">SURFING</text>
<text text-anchor="middle" x="1623.5" y="-389.78" font-family="Arial" font-size="24.00">remoteware&#45;cl</text>
</a>
</g>
</g>
<!-- INFO DISCOVERY
remoteware&#45;cl&#45;&gt;SURFING
remoteware&#45;cl -->
<g id="edge25" class="edge">
<title>INFO DISCOVERY
remoteware&#45;cl&#45;&gt;SURFING
remoteware&#45;cl</title>
<path fill="none" stroke="magenta" stroke-width="5" d="M1467.33,-265.79C1462.81,-294.54 1462.19,-332.23 1481.5,-358.56 1483.3,-361.01 1502.59,-368.22 1526.4,-376.4"/>
<polygon fill="magenta" stroke="magenta" stroke-width="5" points="1525.21,-380.62 1536.09,-379.7 1528.03,-372.34 1525.21,-380.62"/>
<text text-anchor="start" x="1481.5" y="-341.13" font-family="Arial" font-size="20.00" fill="magenta"> start_next: 03/11/18, 15:45:39</text>
<text text-anchor="start" x="1557.5" y="-321.13" font-family="Arial" font-size="20.00" fill="magenta">gap: &#45;717sec</text>
<text text-anchor="start" x="1485.5" y="-301.13" font-family="Arial" font-size="20.00" fill="magenta">end_prev: 03/11/18, 15:57:35</text>
<text text-anchor="start" x="1510.5" y="-281.13" font-family="Arial" font-weight="bold" font-size="20.00" fill="magenta">Attacker: 10.0.254.203</text>
</g>
<!-- DATA EXFILTRATION
remoteware&#45;cl | ID: 22&#45;&gt;INFO DISCOVERY
remoteware&#45;cl -->
<g id="edge13" class="edge">
<title>DATA EXFILTRATION
remoteware&#45;cl | ID: 22&#45;&gt;INFO DISCOVERY
remoteware&#45;cl</title>
<path fill="none" stroke="darkgreen" stroke-width="5" d="M1380.84,-731.4C1228.81,-712.71 1021.27,-677.17 964.5,-618.26 934.77,-587.41 944.34,-567.87 938.5,-525.41 930.83,-469.52 928.45,-310.16 971.5,-273.71 997.46,-251.73 1175.61,-238.3 1313.26,-231.09"/>
<polygon fill="darkgreen" stroke="darkgreen" stroke-width="5" points="1313.76,-235.44 1323.52,-230.56 1313.31,-226.71 1313.76,-235.44"/>
<text text-anchor="middle" x="1070" y="-509.41" font-family="Arial" font-size="20.00" fill="darkgreen">start_next: 03/11/18, 15:05:48</text>
<text text-anchor="middle" x="1070" y="-487.41" font-family="Arial" font-size="20.00" fill="darkgreen">gap: &#45;571sec</text>
<text text-anchor="middle" x="1070" y="-465.41" font-family="Arial" font-size="20.00" fill="darkgreen">end_prev: 03/11/18, 15:15:19</text>
</g>
<!-- DATA EXFILTRATION
remoteware&#45;cl | ID: 22&#45;&gt;ARBITRARY CODE EXECUTION
remoteware&#45;cl | ID: 398 -->
<g id="edge6" class="edge">
<title>DATA EXFILTRATION
remoteware&#45;cl | ID: 22&#45;&gt;ARBITRARY CODE EXECUTION
remoteware&#45;cl | ID: 398</title>
<path fill="none" stroke="maroon" stroke-width="5" d="M1602.59,-798.39C1604.37,-800.96 1606.02,-803.58 1607.5,-806.24 1622.16,-832.51 1601.75,-850.47 1622.5,-872.24 1622.85,-872.6 1623.19,-872.96 1623.54,-873.31"/>
<polygon fill="maroon" stroke="maroon" stroke-width="5" points="1620.88,-876.8 1631.26,-880.2 1626.71,-870.28 1620.88,-876.8"/>
<text text-anchor="middle" x="1754" y="-856.24" font-family="Arial" font-size="20.00" fill="maroon">start_next: 03/11/18, 19:26:26</text>
<text text-anchor="middle" x="1754" y="-834.24" font-family="Arial" font-size="20.00" fill="maroon">gap: &#45;71sec</text>
<text text-anchor="middle" x="1754" y="-812.24" font-family="Arial" font-size="20.00" fill="maroon">end_prev: 03/11/18, 19:27:38</text>
</g>
<!-- DATA EXFILTRATION
remoteware&#45;cl | ID: 22&#45;&gt;ARBITRARY CODE EXECUTION
remoteware&#45;cl | ID: 398 -->
<g id="edge22" class="edge">
<title>DATA EXFILTRATION
remoteware&#45;cl | ID: 22&#45;&gt;ARBITRARY CODE EXECUTION
remoteware&#45;cl | ID: 398</title>
<path fill="none" stroke="darkgreen" stroke-width="5" d="M1734.21,-760.53C1799.56,-768.34 1862.08,-782.08 1882.5,-806.24 1901.44,-828.64 1900.11,-848.78 1882.5,-872.24 1882.44,-872.33 1882.38,-872.42 1882.31,-872.5"/>
<polygon fill="darkgreen" stroke="darkgreen" stroke-width="5" points="1879.09,-869.54 1875.75,-879.94 1885.65,-875.33 1879.09,-869.54"/>
<text text-anchor="middle" x="2027" y="-856.24" font-family="Arial" font-size="20.00" fill="darkgreen">start_next: 03/11/18, 18:07:44</text>
<text text-anchor="middle" x="2027" y="-834.24" font-family="Arial" font-size="20.00" fill="darkgreen">gap: &#45;549sec</text>
<text text-anchor="middle" x="2027" y="-812.24" font-family="Arial" font-size="20.00" fill="darkgreen">end_prev: 03/11/18, 18:16:53</text>
</g>
<!-- DATA EXFILTRATION
remoteware&#45;cl | ID: 22&#45;&gt;ARBITRARY CODE EXECUTION
remoteware&#45;cl | ID: 398 -->
<g id="edge28" class="edge">
<title>DATA EXFILTRATION
remoteware&#45;cl | ID: 22&#45;&gt;ARBITRARY CODE EXECUTION
remoteware&#45;cl | ID: 398</title>
<path fill="none" stroke="magenta" stroke-width="5" d="M1401.98,-777.17C1374.85,-785.08 1352.3,-794.75 1343.5,-806.24 1325.68,-829.54 1323.71,-850.59 1343.5,-872.24 1358.83,-889.01 1459.66,-898.24 1557.72,-903.29"/>
<polygon fill="magenta" stroke="magenta" stroke-width="5" points="1557.6,-907.66 1567.81,-903.8 1558.04,-898.93 1557.6,-907.66"/>
<text text-anchor="middle" x="1475" y="-856.24" font-family="Arial" font-size="20.00" fill="magenta">start_next: 03/11/18, 15:48:35</text>
<text text-anchor="middle" x="1475" y="-834.24" font-family="Arial" font-size="20.00" fill="magenta">gap: &#45;541sec</text>
<text text-anchor="middle" x="1475" y="-812.24" font-family="Arial" font-size="20.00" fill="magenta">end_prev: 03/11/18, 15:57:36</text>
</g>
<!-- ROOT PRIVILEGE ESCALATION
remoteware&#45;cl | ID: 157 -->
<g id="node9" class="node">
<title>ROOT PRIVILEGE ESCALATION
remoteware&#45;cl | ID: 157</title>
<g id="a_node9"><a xlink:title="ET WEB_SERVER ColdFusion administrator access&#10;ETPRO WEB_SPECIFIC_APPS ipTIME firmware &lt; 9.58 RCE&#10;GPL EXPLOIT administrators.pwd access&#10;GPL EXPLOIT CodeRed v2 root.exe access">
<polygon fill="none" stroke="black" stroke-width="3" stroke-dasharray="1,5" points="1943,-1082.24 1568,-1082.24 1568,-1022.24 1943,-1022.24 1943,-1082.24"/>
<text text-anchor="middle" x="1755.5" y="-1059.04" font-family="Arial" font-size="24.00">ROOT PRIVILEGE ESCALATION</text>
<text text-anchor="middle" x="1755.5" y="-1033.04" font-family="Arial" font-size="24.00">remoteware&#45;cl | ID: 157</text>
</a>
</g>
</g>
<!-- ARBITRARY CODE EXECUTION
remoteware&#45;cl | ID: 398&#45;&gt;ROOT PRIVILEGE ESCALATION
remoteware&#45;cl | ID: 157 -->
<g id="edge7" class="edge">
<title>ARBITRARY CODE EXECUTION
remoteware&#45;cl | ID: 398&#45;&gt;ROOT PRIVILEGE ESCALATION
remoteware&#45;cl | ID: 157</title>
<path fill="none" stroke="maroon" stroke-width="5" d="M1567.9,-916.89C1468.26,-921.88 1363.11,-931.16 1347.5,-948.24 1327.72,-969.9 1327.72,-992.59 1347.5,-1014.24 1362.58,-1030.74 1461.18,-1039.96 1557.67,-1045.07"/>
<polygon fill="maroon" stroke="maroon" stroke-width="5" points="1557.69,-1049.45 1567.9,-1045.6 1558.14,-1040.71 1557.69,-1049.45"/>
<text text-anchor="middle" x="1479" y="-998.24" font-family="Arial" font-size="20.00" fill="maroon">start_next: 03/11/18, 19:26:32</text>
<text text-anchor="middle" x="1479" y="-976.24" font-family="Arial" font-size="20.00" fill="maroon">gap: 5sec</text>
<text text-anchor="middle" x="1479" y="-954.24" font-family="Arial" font-size="20.00" fill="maroon">end_prev: 03/11/18, 19:26:27</text>
</g>
<!-- ARBITRARY CODE EXECUTION
remoteware&#45;cl | ID: 398&#45;&gt;ROOT PRIVILEGE ESCALATION
remoteware&#45;cl | ID: 157 -->
<g id="edge15" class="edge">
<title>ARBITRARY CODE EXECUTION
remoteware&#45;cl | ID: 398&#45;&gt;ROOT PRIVILEGE ESCALATION
remoteware&#45;cl | ID: 157</title>
<path fill="none" stroke="darkgreen" stroke-width="5" d="M1632.2,-940.4C1627.94,-942.86 1624.61,-945.48 1622.5,-948.24 1604.76,-971.6 1604.76,-990.89 1622.5,-1014.24 1622.96,-1014.85 1623.48,-1015.45 1624.06,-1016.04"/>
<polygon fill="darkgreen" stroke="darkgreen" stroke-width="5" points="1621.56,-1019.63 1632.2,-1022.09 1626.78,-1012.61 1621.56,-1019.63"/>
<text text-anchor="middle" x="1754" y="-998.24" font-family="Arial" font-size="20.00" fill="darkgreen">start_next: 03/11/18, 15:06:04</text>
<text text-anchor="middle" x="1754" y="-976.24" font-family="Arial" font-size="20.00" fill="darkgreen">gap: &#45;81sec</text>
<text text-anchor="middle" x="1754" y="-954.24" font-family="Arial" font-size="20.00" fill="darkgreen">end_prev: 03/11/18, 15:07:25</text>
</g>
<!-- ARBITRARY CODE EXECUTION
remoteware&#45;cl | ID: 398&#45;&gt;ROOT PRIVILEGE ESCALATION
remoteware&#45;cl | ID: 157 -->
<g id="edge23" class="edge">
<title>ARBITRARY CODE EXECUTION
remoteware&#45;cl | ID: 398&#45;&gt;ROOT PRIVILEGE ESCALATION
remoteware&#45;cl | ID: 157</title>
<path fill="none" stroke="darkgreen" stroke-width="5" d="M1875.75,-940.55C1878.18,-942.93 1880.44,-945.49 1882.5,-948.24 1900.11,-971.71 1900.11,-990.78 1882.5,-1014.24 1882.44,-1014.33 1882.38,-1014.42 1882.31,-1014.5"/>
<polygon fill="darkgreen" stroke="darkgreen" stroke-width="5" points="1879.09,-1011.54 1875.75,-1021.94 1885.65,-1017.33 1879.09,-1011.54"/>
<text text-anchor="middle" x="2027" y="-998.24" font-family="Arial" font-size="20.00" fill="darkgreen">start_next: 03/11/18, 18:07:49</text>
<text text-anchor="middle" x="2027" y="-976.24" font-family="Arial" font-size="20.00" fill="darkgreen">gap: &#45;71sec</text>
<text text-anchor="middle" x="2027" y="-954.24" font-family="Arial" font-size="20.00" fill="darkgreen">end_prev: 03/11/18, 18:09:00</text>
</g>
<!-- ARBITRARY CODE EXECUTION
remoteware&#45;cl | ID: 398&#45;&gt;ROOT PRIVILEGE ESCALATION
remoteware&#45;cl | ID: 157 -->
<g id="edge29" class="edge">
<title>ARBITRARY CODE EXECUTION
remoteware&#45;cl | ID: 398&#45;&gt;ROOT PRIVILEGE ESCALATION
remoteware&#45;cl | ID: 157</title>
<path fill="none" stroke="magenta" stroke-width="5" d="M1943.19,-917.21C2040.51,-922.3 2142.29,-931.56 2157.5,-948.24 2177.27,-969.92 2177.27,-992.57 2157.5,-1014.24 2142.81,-1030.36 2047.37,-1039.55 1953.18,-1044.74"/>
<polygon fill="magenta" stroke="magenta" stroke-width="5" points="1952.94,-1040.37 1943.19,-1045.28 1953.41,-1049.11 1952.94,-1040.37"/>
<text text-anchor="middle" x="2303" y="-998.24" font-family="Arial" font-size="20.00" fill="magenta">start_next: 03/11/18, 15:48:40</text>
<text text-anchor="middle" x="2303" y="-976.24" font-family="Arial" font-size="20.00" fill="magenta">gap: &#45;72sec</text>
<text text-anchor="middle" x="2303" y="-954.24" font-family="Arial" font-size="20.00" fill="magenta">end_prev: 03/11/18, 15:49:52</text>
</g>
<!-- ROOT PRIVILEGE ESCALATION
remoteware&#45;cl | ID: 157&#45;&gt;DATA MANIPULATION
remoteware&#45;cl | ID: 23 -->
<g id="edge8" class="edge">
<title>ROOT PRIVILEGE ESCALATION
remoteware&#45;cl | ID: 157&#45;&gt;DATA MANIPULATION
remoteware&#45;cl | ID: 23</title>
<path fill="none" stroke="maroon" stroke-width="5" d="M1567.9,-1058.89C1468.26,-1063.88 1363.11,-1073.16 1347.5,-1090.24 1276.61,-1167.86 1410.34,-1196.89 1543.26,-1207.36"/>
<polygon fill="maroon" stroke="maroon" stroke-width="5" points="1542.93,-1211.72 1553.23,-1208.11 1543.59,-1203 1542.93,-1211.72"/>
<text text-anchor="middle" x="1479" y="-1140.24" font-family="Arial" font-size="20.00" fill="maroon">start_next: 03/11/18, 19:27:26</text>
<text text-anchor="middle" x="1479" y="-1118.24" font-family="Arial" font-size="20.00" fill="maroon">gap: &#45;10sec</text>
<text text-anchor="middle" x="1479" y="-1096.24" font-family="Arial" font-size="20.00" fill="maroon">end_prev: 03/11/18, 19:27:36</text>
</g>
<!-- ROOT PRIVILEGE ESCALATION
remoteware&#45;cl | ID: 157&#45;&gt;DATA MANIPULATION
remoteware&#45;cl | ID: 23 -->
<g id="edge16" class="edge">
<title>ROOT PRIVILEGE ESCALATION
remoteware&#45;cl | ID: 157&#45;&gt;DATA MANIPULATION
remoteware&#45;cl | ID: 23</title>
<path fill="none" stroke="darkgreen" stroke-width="5" d="M1632.2,-1082.4C1627.94,-1084.86 1624.61,-1087.48 1622.5,-1090.24 1604.76,-1113.6 1606.28,-1131.81 1622.5,-1156.24 1624.02,-1158.53 1625.65,-1160.72 1627.38,-1162.82"/>
<polygon fill="darkgreen" stroke="darkgreen" stroke-width="5" points="1624.51,-1166.15 1634.53,-1170.49 1630.91,-1160.19 1624.51,-1166.15"/>
<text text-anchor="middle" x="1754" y="-1140.24" font-family="Arial" font-size="20.00" fill="darkgreen">start_next: 03/11/18, 15:07:00</text>
<text text-anchor="middle" x="1754" y="-1118.24" font-family="Arial" font-size="20.00" fill="darkgreen">gap: &#45;148sec</text>
<text text-anchor="middle" x="1754" y="-1096.24" font-family="Arial" font-size="20.00" fill="darkgreen">end_prev: 03/11/18, 15:09:29</text>
</g>
<!-- ROOT PRIVILEGE ESCALATION
remoteware&#45;cl | ID: 157&#45;&gt;DATA MANIPULATION
remoteware&#45;cl | ID: 23 -->
<g id="edge24" class="edge">
<title>ROOT PRIVILEGE ESCALATION
remoteware&#45;cl | ID: 157&#45;&gt;DATA MANIPULATION
remoteware&#45;cl | ID: 23</title>
<path fill="none" stroke="darkgreen" stroke-width="5" d="M1875.75,-1082.55C1878.18,-1084.93 1880.44,-1087.49 1882.5,-1090.24 1900.11,-1113.71 1898.53,-1131.67 1882.5,-1156.24 1881.39,-1157.95 1880.22,-1159.6 1878.98,-1161.2"/>
<polygon fill="darkgreen" stroke="darkgreen" stroke-width="5" points="1875.63,-1158.39 1872.34,-1168.8 1882.22,-1164.15 1875.63,-1158.39"/>
<text text-anchor="middle" x="2026" y="-1140.24" font-family="Arial" font-size="20.00" fill="darkgreen">start_next: 03/11/18, 18:08:43</text>
<text text-anchor="middle" x="2026" y="-1118.24" font-family="Arial" font-size="20.00" fill="darkgreen">gap: &#45;147sec</text>
<text text-anchor="middle" x="2026" y="-1096.24" font-family="Arial" font-size="20.00" fill="darkgreen">end_prev: 03/11/18, 18:11:10</text>
</g>
<!-- ROOT PRIVILEGE ESCALATION
remoteware&#45;cl | ID: 157&#45;&gt;DATA MANIPULATION
remoteware&#45;cl | ID: 23 -->
<g id="edge30" class="edge">
<title>ROOT PRIVILEGE ESCALATION
remoteware&#45;cl | ID: 157&#45;&gt;DATA MANIPULATION
remoteware&#45;cl | ID: 23</title>
<path fill="none" stroke="magenta" stroke-width="5" d="M1943.19,-1059.21C2040.51,-1064.3 2142.29,-1073.56 2157.5,-1090.24 2227.09,-1166.52 2096.79,-1195.74 1966.39,-1206.62"/>
<polygon fill="magenta" stroke="magenta" stroke-width="5" points="1965.82,-1202.28 1956.2,-1207.44 1966.52,-1211 1965.82,-1202.28"/>
<text text-anchor="middle" x="2308" y="-1140.24" font-family="Arial" font-size="20.00" fill="magenta">start_next: 03/11/18, 15:49:34</text>
<text text-anchor="middle" x="2308" y="-1118.24" font-family="Arial" font-size="20.00" fill="magenta">gap: &#45;146sec</text>
<text text-anchor="middle" x="2308" y="-1096.24" font-family="Arial" font-size="20.00" fill="magenta">end_prev: 03/11/18, 15:52:00</text>
</g>
<!-- HOST DISCOVERY
remoteware&#45;cl -->
<g id="node11" class="node">
<title>HOST DISCOVERY
remoteware&#45;cl</title>
<g id="a_node11"><a xlink:title="ET SCAN Nmap Scripting Engine User&#45;Agent Detected (Nmap Scripting Engine)&#10;ET SCAN Possible Nmap User&#45;Agent Observed">
<ellipse fill="none" stroke="black" stroke-width="3" cx="652.5" cy="-408.98" rx="162.77" ry="42.35"/>
<text text-anchor="middle" x="652.5" y="-415.78" font-family="Arial" font-size="24.00">HOST DISCOVERY</text>
<text text-anchor="middle" x="652.5" y="-389.78" font-family="Arial" font-size="24.00">remoteware&#45;cl</text>
</a>
</g>
</g>
<!-- SERVICE DISCOVERY
unknown&#45;&gt;HOST DISCOVERY
remoteware&#45;cl -->
<g id="edge10" class="edge">
<title>SERVICE DISCOVERY
unknown&#45;&gt;HOST DISCOVERY
remoteware&#45;cl</title>
<path fill="none" stroke="darkgreen" stroke-width="5" d="M646.68,-261.98C650.04,-265.57 653.03,-269.47 655.5,-273.71 669.85,-298.22 669.87,-329.82 665.94,-356.2"/>
<polygon fill="darkgreen" stroke="darkgreen" stroke-width="5" points="661.57,-355.8 664.19,-366.4 670.19,-357.28 661.57,-355.8"/>
<text text-anchor="middle" x="800" y="-333.13" font-family="Arial" font-size="20.00" fill="darkgreen">start_next: 03/11/18, 15:01:05</text>
<text text-anchor="middle" x="800" y="-311.13" font-family="Arial" font-size="20.00" fill="darkgreen">gap: 194sec</text>
<text text-anchor="middle" x="800" y="-289.13" font-family="Arial" font-size="20.00" fill="darkgreen">end_prev: 03/11/18, 14:57:51</text>
</g>
<!-- SERVICE DISCOVERY
unknown&#45;&gt;HOST DISCOVERY
remoteware&#45;cl -->
<g id="edge18" class="edge">
<title>SERVICE DISCOVERY
unknown&#45;&gt;HOST DISCOVERY
remoteware&#45;cl</title>
<path fill="none" stroke="darkgreen" stroke-width="5" d="M429.36,-252.32C411.71,-258.48 397.64,-265.61 391.5,-273.71 380.12,-288.73 378.84,-344.59 391.5,-358.56 403.81,-372.12 455.44,-363.6 473.5,-366.56 490.9,-369.41 509.13,-372.96 527.02,-376.77"/>
<polygon fill="darkgreen" stroke="darkgreen" stroke-width="5" points="526.21,-381.07 536.91,-378.92 528.07,-372.52 526.21,-381.07"/>
<text text-anchor="middle" x="523" y="-333.13" font-family="Arial" font-size="20.00" fill="darkgreen">start_next: 03/11/18, 17:59:39</text>
<text text-anchor="middle" x="523" y="-311.13" font-family="Arial" font-size="20.00" fill="darkgreen">gap: 938sec</text>
<text text-anchor="middle" x="523" y="-289.13" font-family="Arial" font-size="20.00" fill="darkgreen">end_prev: 03/11/18, 17:44:01</text>
</g>
<!-- HOST DISCOVERY
remoteware&#45;cl&#45;&gt;VULNERABILTY DISCOVERY
remoteware&#45;cl -->
<g id="edge11" class="edge">
<title>HOST DISCOVERY
remoteware&#45;cl&#45;&gt;VULNERABILTY DISCOVERY
remoteware&#45;cl</title>
<path fill="none" stroke="darkgreen" stroke-width="5" d="M652.6,-451.44C653.61,-480.31 657.06,-515.36 667.5,-525.41 689.77,-546.84 830.86,-559.28 963.5,-566.32"/>
<polygon fill="darkgreen" stroke="darkgreen" stroke-width="5" points="963.63,-570.7 973.84,-566.85 964.08,-561.97 963.63,-570.7"/>
<text text-anchor="middle" x="799" y="-509.41" font-family="Arial" font-size="20.00" fill="darkgreen">start_next: 03/11/18, 15:05:40</text>
<text text-anchor="middle" x="799" y="-487.41" font-family="Arial" font-size="20.00" fill="darkgreen">gap: 275sec</text>
<text text-anchor="middle" x="799" y="-465.41" font-family="Arial" font-size="20.00" fill="darkgreen">end_prev: 03/11/18, 15:01:05</text>
</g>
<!-- HOST DISCOVERY
remoteware&#45;cl&#45;&gt;VULNERABILTY DISCOVERY
remoteware&#45;cl -->
<g id="edge19" class="edge">
<title>HOST DISCOVERY
remoteware&#45;cl&#45;&gt;VULNERABILTY DISCOVERY
remoteware&#45;cl</title>
<path fill="none" stroke="darkgreen" stroke-width="5" d="M537.4,-438.99C516.25,-443.64 494.28,-448.03 473.5,-451.41 464.25,-452.92 395.81,-452.47 389.5,-459.41 369.77,-481.11 369.4,-504.05 389.5,-525.41 409.16,-546.28 727.7,-560.44 961.87,-568.08"/>
<polygon fill="darkgreen" stroke="darkgreen" stroke-width="5" points="961.77,-572.45 971.9,-568.4 962.05,-563.71 961.77,-572.45"/>
<text text-anchor="middle" x="521" y="-509.41" font-family="Arial" font-size="20.00" fill="darkgreen">start_next: 03/11/18, 18:07:26</text>
<text text-anchor="middle" x="521" y="-487.41" font-family="Arial" font-size="20.00" fill="darkgreen">gap: 467sec</text>
<text text-anchor="middle" x="521" y="-465.41" font-family="Arial" font-size="20.00" fill="darkgreen">end_prev: 03/11/18, 17:59:40</text>
</g>
<!-- SURFING
remoteware&#45;cl&#45;&gt;VULNERABILTY DISCOVERY
remoteware&#45;cl -->
<g id="edge26" class="edge">
<title>SURFING
remoteware&#45;cl&#45;&gt;VULNERABILTY DISCOVERY
remoteware&#45;cl</title>
<path fill="none" stroke="magenta" stroke-width="5" d="M1538.44,-439.11C1520.24,-445.59 1501.17,-452.58 1483.5,-459.41 1424.35,-482.29 1358.86,-509.8 1306.74,-532.22"/>
<polygon fill="magenta" stroke="magenta" stroke-width="5" points="1304.95,-528.23 1297.5,-536.2 1308.42,-536.26 1304.95,-528.23"/>
<text text-anchor="middle" x="1615" y="-509.41" font-family="Arial" font-size="20.00" fill="magenta">start_next: 03/11/18, 15:48:19</text>
<text text-anchor="middle" x="1615" y="-487.41" font-family="Arial" font-size="20.00" fill="magenta">gap: &#45;540sec</text>
<text text-anchor="middle" x="1615" y="-465.41" font-family="Arial" font-size="20.00" fill="magenta">end_prev: 03/11/18, 15:57:18</text>
</g>
</g>
</svg>
