<?xml version="1.0" encoding="UTF-8" standalone="no"?>
<!DOCTYPE svg PUBLIC "-//W3C//DTD SVG 1.1//EN"
 "http://www.w3.org/Graphics/SVG/1.1/DTD/svg11.dtd">
<!-- Generated by graphviz version 2.50.0 (0)
 -->
<!-- Title: NETWORKDOShttp Pages: 1 -->
<svg width="1951pt" height="1139pt"
 viewBox="0.00 0.00 1951.28 1138.89" xmlns="http://www.w3.org/2000/svg" xmlns:xlink="http://www.w3.org/1999/xlink">
<g id="graph0" class="graph" transform="scale(1 1) rotate(0) translate(4 1134.89)">
<title>NETWORKDOShttp</title>
<polygon fill="white" stroke="transparent" points="-4,4 -4,-1134.89 1947.28,-1134.89 1947.28,4 -4,4"/>
<!-- Victim: 10.0.1.40
NETWORK DoS
http -->
<g id="node1" class="node">
<title>Victim: 10.0.1.40
NETWORK DoS
http</title>
<polygon fill="salmon" stroke="black" stroke-width="3" points="1409.84,-1033.87 1409.84,-1088.26 1321.65,-1126.72 1196.92,-1126.72 1108.72,-1088.26 1108.72,-1033.87 1196.92,-995.41 1321.65,-995.41 1409.84,-1033.87"/>
<polygon fill="none" stroke="black" stroke-width="3" points="1413.84,-1031.26 1413.84,-1090.87 1322.48,-1130.71 1196.09,-1130.71 1104.73,-1090.87 1104.73,-1031.26 1196.09,-991.42 1322.48,-991.42 1413.84,-1031.26"/>
<text text-anchor="middle" x="1259.28" y="-1080.87" font-family="Arial" font-size="24.00">Victim: 10.0.1.40</text>
<text text-anchor="middle" x="1259.28" y="-1054.87" font-family="Arial" font-size="24.00">NETWORK DoS</text>
<text text-anchor="middle" x="1259.28" y="-1028.87" font-family="Arial" font-size="24.00">http</text>
</g>
<!-- NETWORK DoS
http | ID: 5 -->
<g id="node2" class="node">
<title>NETWORK DoS
http | ID: 5</title>
<g id="a_node2"><a xlink:title="ET WEB_SERVER Possible Cherokee Web Server GET AUX Request Denial Of Service Attempt">
<polygon fill="salmon" stroke="black" stroke-width="3" points="1415.82,-925.25 1337.55,-974.23 1181.02,-974.23 1102.75,-925.25 1181.02,-876.27 1337.55,-876.27 1415.82,-925.25"/>
<text text-anchor="middle" x="1259.28" y="-932.05" font-family="Arial" font-size="24.00">NETWORK DoS</text>
<text text-anchor="middle" x="1259.28" y="-906.05" font-family="Arial" font-size="24.00">http | ID: 5</text>
</a>
</g>
</g>
<!-- NETWORK DoS
http | ID: 5&#45;&gt;Victim: 10.0.1.40
NETWORK DoS
http -->
<g id="edge1" class="edge">
<title>NETWORK DoS
http | ID: 5&#45;&gt;Victim: 10.0.1.40
NETWORK DoS
http</title>
<path fill="none" stroke="black" stroke-width="5" d="M1259.28,-974.56C1259.28,-976.67 1259.28,-978.8 1259.28,-980.95"/>
<polygon fill="black" stroke="black" stroke-width="5" points="1254.91,-981.1 1259.28,-991.1 1263.66,-981.1 1254.91,-981.1"/>
</g>
<!-- VULNERABILTY DISCOVERY
mysql -->
<g id="node3" class="node">
<title>VULNERABILTY DISCOVERY
mysql</title>
<g id="a_node3"><a xlink:title="ET SCAN Suspicious inbound to mySQL port 3306&#10;ET SCAN Suspicious inbound to MSSQL port 1433&#10;ET SCAN Suspicious inbound to PostgreSQL port 5432&#10;ET SCAN Suspicious inbound to Oracle SQL port 1521&#10;ET SCAN Suspicious inbound to mSQL port 4333">
<ellipse fill="yellow" stroke="black" stroke-width="3" cx="844.28" cy="-223.28" rx="241.25" ry="42.35"/>
<text text-anchor="middle" x="844.28" y="-230.08" font-family="Arial" font-size="24.00">VULNERABILTY DISCOVERY</text>
<text text-anchor="middle" x="844.28" y="-204.08" font-family="Arial" font-size="24.00">mysql</text>
</a>
</g>
</g>
<!-- SERVICE DISCOVERY
dsd -->
<g id="node4" class="node">
<title>SERVICE DISCOVERY
dsd</title>
<g id="a_node4"><a xlink:title="ET SCAN Potential VNC Scan 5900&#45;5920&#10;ET SCAN Potential VNC Scan 5800&#45;5820">
<ellipse fill="none" stroke="black" stroke-width="3" cx="1117.28" cy="-42.43" rx="189.51" ry="42.35"/>
<text text-anchor="middle" x="1117.28" y="-49.23" font-family="Arial" font-size="24.00">SERVICE DISCOVERY</text>
<text text-anchor="middle" x="1117.28" y="-23.23" font-family="Arial" font-size="24.00">dsd</text>
</a>
</g>
</g>
<!-- VULNERABILTY DISCOVERY
mysql&#45;&gt;SERVICE DISCOVERY
dsd -->
<g id="edge2" class="edge">
<title>VULNERABILTY DISCOVERY
mysql&#45;&gt;SERVICE DISCOVERY
dsd</title>
<path fill="none" stroke="maroon" stroke-width="5" d="M953.65,-185.42C958.27,-181.63 962.52,-177.45 966.28,-172.85 989.19,-144.85 957.88,-120.43 981.28,-92.85 984.52,-89.04 988.07,-85.53 991.87,-82.28"/>
<polygon fill="maroon" stroke="maroon" stroke-width="5" points="994.77,-85.57 1000,-75.99 989.42,-78.65 994.77,-85.57"/>
<text text-anchor="start" x="981.28" y="-157.85" font-family="Arial" font-size="20.00" fill="maroon"> start_next: 03/11/18, 14:01:08</text>
<text text-anchor="start" x="1071.78" y="-137.85" font-family="Arial" font-size="20.00" fill="maroon">gap: 0sec</text>
<text text-anchor="start" x="985.28" y="-117.85" font-family="Arial" font-size="20.00" fill="maroon">end_prev: 03/11/18, 14:01:09</text>
<text text-anchor="start" x="1010.28" y="-97.85" font-family="Arial" font-weight="bold" font-size="20.00" fill="maroon">Attacker: 10.0.254.205</text>
</g>
<!-- VULNERABILTY DISCOVERY
mysql&#45;&gt;SERVICE DISCOVERY
dsd -->
<g id="edge10" class="edge">
<title>VULNERABILTY DISCOVERY
mysql&#45;&gt;SERVICE DISCOVERY
dsd</title>
<path fill="none" stroke="magenta" stroke-width="5" d="M1067.57,-207.22C1152.9,-199.16 1233.09,-187.76 1246.28,-172.85 1269.84,-146.22 1266.43,-122.15 1246.28,-92.85 1243.94,-89.45 1241.33,-86.28 1238.5,-83.33"/>
<polygon fill="magenta" stroke="magenta" stroke-width="5" points="1241.34,-80 1231.03,-76.43 1235.41,-86.43 1241.34,-80"/>
<text text-anchor="start" x="1262.28" y="-157.85" font-family="Arial" font-size="20.00" fill="magenta"> start_next: 03/11/18, 21:41:45</text>
<text text-anchor="start" x="1349.28" y="-137.85" font-family="Arial" font-size="20.00" fill="magenta">gap: &#45;9sec</text>
<text text-anchor="start" x="1266.28" y="-117.85" font-family="Arial" font-size="20.00" fill="magenta">end_prev: 03/11/18, 21:41:54</text>
<text text-anchor="start" x="1291.28" y="-97.85" font-family="Arial" font-weight="bold" font-size="20.00" fill="magenta">Attacker: 10.0.254.203</text>
</g>
<!-- SERVICE DISCOVERY
unknown -->
<g id="node5" class="node">
<title>SERVICE DISCOVERY
unknown</title>
<g id="a_node5"><a xlink:title="ET SCAN Potential SSH Scan&#10;ET SCAN Potential VNC Scan 5900&#45;5920&#10;ET SCAN Potential VNC Scan 5800&#45;5820&#10;ET SCAN NMAP OS Detection Probe">
<ellipse fill="none" stroke="black" stroke-width="3" cx="844.28" cy="-404.13" rx="189.51" ry="42.35"/>
<text text-anchor="middle" x="844.28" y="-410.93" font-family="Arial" font-size="24.00">SERVICE DISCOVERY</text>
<text text-anchor="middle" x="844.28" y="-384.93" font-family="Arial" font-size="24.00">unknown</text>
</a>
</g>
</g>
<!-- VULNERABILTY DISCOVERY
mysql&#45;&gt;SERVICE DISCOVERY
unknown -->
<g id="edge4" class="edge">
<title>VULNERABILTY DISCOVERY
mysql&#45;&gt;SERVICE DISCOVERY
unknown</title>
<path fill="none" stroke="maroon" stroke-width="5" d="M1081.15,-231.45C1215.93,-238.05 1362.11,-250.5 1383.28,-273.71 1395.27,-286.84 1395.27,-340.57 1383.28,-353.71 1360.05,-379.17 1186.38,-391.68 1042.36,-397.72"/>
<polygon fill="maroon" stroke="maroon" stroke-width="5" points="1041.85,-393.36 1032.04,-398.15 1042.21,-402.11 1041.85,-393.36"/>
<text text-anchor="middle" x="1522.78" y="-330.71" font-family="Arial" font-size="20.00" fill="maroon">start_next: 03/11/18, 14:18:41</text>
<text text-anchor="middle" x="1522.78" y="-308.71" font-family="Arial" font-size="20.00" fill="maroon">gap: 0sec</text>
<text text-anchor="middle" x="1522.78" y="-286.71" font-family="Arial" font-size="20.00" fill="maroon">end_prev: 03/11/18, 14:18:41</text>
</g>
<!-- VULNERABILTY DISCOVERY
mysql&#45;&gt;SERVICE DISCOVERY
unknown -->
<g id="edge6" class="edge">
<title>VULNERABILTY DISCOVERY
mysql&#45;&gt;SERVICE DISCOVERY
unknown</title>
<path fill="none" stroke="maroon" stroke-width="5" d="M606.58,-230.6C369.76,-238.1 38.42,-252.33 18.28,-273.71 -6.09,-299.59 -6.09,-327.82 18.28,-353.71 39.57,-376.31 408.85,-390.92 646.38,-398.03"/>
<polygon fill="maroon" stroke="maroon" stroke-width="5" points="646.4,-402.41 656.53,-398.33 646.66,-393.66 646.4,-402.41"/>
<text text-anchor="middle" x="149.78" y="-330.71" font-family="Arial" font-size="20.00" fill="maroon">start_next: 03/11/18, 14:35:08</text>
<text text-anchor="middle" x="149.78" y="-308.71" font-family="Arial" font-size="20.00" fill="maroon">gap: 0sec</text>
<text text-anchor="middle" x="149.78" y="-286.71" font-family="Arial" font-size="20.00" fill="maroon">end_prev: 03/11/18, 14:35:08</text>
</g>
<!-- VULNERABILTY DISCOVERY
mysql&#45;&gt;SERVICE DISCOVERY
unknown -->
<g id="edge13" class="edge">
<title>VULNERABILTY DISCOVERY
mysql&#45;&gt;SERVICE DISCOVERY
unknown</title>
<path fill="none" stroke="purple" stroke-width="5" d="M606.79,-230.9C467.75,-237.3 315.2,-249.74 293.28,-273.71 281.29,-286.83 281.29,-340.59 293.28,-353.71 317.28,-379.95 497.91,-392.37 645.92,-398.18"/>
<polygon fill="purple" stroke="purple" stroke-width="5" points="645.91,-402.56 656.07,-398.57 646.25,-393.81 645.91,-402.56"/>
<text text-anchor="start" x="293.28" y="-338.71" font-family="Arial" font-size="20.00" fill="purple"> start_next: 03/11/18, 20:07:58</text>
<text text-anchor="start" x="380.28" y="-318.71" font-family="Arial" font-size="20.00" fill="purple">gap: &#45;2sec</text>
<text text-anchor="start" x="297.28" y="-298.71" font-family="Arial" font-size="20.00" fill="purple">end_prev: 03/11/18, 20:08:00</text>
<text text-anchor="start" x="322.28" y="-278.71" font-family="Arial" font-weight="bold" font-size="20.00" fill="purple">Attacker: 10.0.254.202</text>
</g>
<!-- VULNERABILTY DISCOVERY
mysql&#45;&gt;SERVICE DISCOVERY
unknown -->
<g id="edge15" class="edge">
<title>VULNERABILTY DISCOVERY
mysql&#45;&gt;SERVICE DISCOVERY
unknown</title>
<path fill="none" stroke="purple" stroke-width="5" d="M640.12,-245.98C612.42,-252.85 590.11,-261.87 580.28,-273.71 557.57,-301.06 557.57,-326.35 580.28,-353.71 592.31,-368.2 623.04,-378.46 659.46,-385.73"/>
<polygon fill="purple" stroke="purple" stroke-width="5" points="658.71,-390.04 669.36,-387.61 660.35,-381.44 658.71,-390.04"/>
<text text-anchor="middle" x="711.78" y="-330.71" font-family="Arial" font-size="20.00" fill="purple">start_next: 03/11/18, 21:12:41</text>
<text text-anchor="middle" x="711.78" y="-308.71" font-family="Arial" font-size="20.00" fill="purple">gap: &#45;1sec</text>
<text text-anchor="middle" x="711.78" y="-286.71" font-family="Arial" font-size="20.00" fill="purple">end_prev: 03/11/18, 21:12:42</text>
</g>
<!-- SERVICE DISCOVERY
dsd&#45;&gt;VULNERABILTY DISCOVERY
mysql -->
<g id="edge3" class="edge">
<title>SERVICE DISCOVERY
dsd&#45;&gt;VULNERABILTY DISCOVERY
mysql</title>
<path fill="none" stroke="maroon" stroke-width="5" d="M934.78,-54.06C830.95,-62.03 718.39,-74.71 702.28,-92.85 678.68,-119.44 681.69,-143.87 702.28,-172.85 704.06,-175.35 705.96,-177.71 707.99,-179.96"/>
<polygon fill="maroon" stroke="maroon" stroke-width="5" points="705.12,-183.28 715.32,-187.17 711.25,-177.04 705.12,-183.28"/>
<text text-anchor="middle" x="833.78" y="-149.85" font-family="Arial" font-size="20.00" fill="maroon">start_next: 03/11/18, 14:18:41</text>
<text text-anchor="middle" x="833.78" y="-127.85" font-family="Arial" font-size="20.00" fill="maroon">gap: 1052sec</text>
<text text-anchor="middle" x="833.78" y="-105.85" font-family="Arial" font-size="20.00" fill="maroon">end_prev: 03/11/18, 14:01:09</text>
</g>
<!-- INFO DISCOVERY
http -->
<g id="node6" class="node">
<title>INFO DISCOVERY
http</title>
<g id="a_node6"><a xlink:title="GPL WEB_SERVER .htaccess access&#10;GPL WEB_SERVER /~root access&#10;GPL WEB_SERVER iisadmin access&#10;GPL WEB_SERVER printenv access&#10;GPL WEB_SERVER .htpasswd access&#10;GPL WEB_SERVER global.asa access">
<ellipse fill="yellow" stroke="black" stroke-width="3" cx="1399.28" cy="-737.84" rx="156.04" ry="42.35"/>
<text text-anchor="middle" x="1399.28" y="-744.64" font-family="Arial" font-size="24.00">INFO DISCOVERY</text>
<text text-anchor="middle" x="1399.28" y="-718.64" font-family="Arial" font-size="24.00">http</text>
</a>
</g>
</g>
<!-- SERVICE DISCOVERY
dsd&#45;&gt;INFO DISCOVERY
http -->
<g id="edge11" class="edge">
<title>SERVICE DISCOVERY
dsd&#45;&gt;INFO DISCOVERY
http</title>
<path fill="none" stroke="magenta" stroke-width="5" d="M1299.98,-53.86C1391.12,-61.33 1490.46,-73.56 1531.28,-92.85 1606.43,-128.38 1666.28,-139.16 1666.28,-222.28 1666.28,-222.28 1666.28,-222.28 1666.28,-571.98 1666.28,-642.75 1597.55,-684.14 1529.83,-707.75"/>
<polygon fill="magenta" stroke="magenta" stroke-width="5" points="1528.36,-703.63 1520.29,-710.97 1531.16,-711.92 1528.36,-703.63"/>
<text text-anchor="middle" x="1797.78" y="-421.13" font-family="Arial" font-size="20.00" fill="magenta">start_next: 03/11/18, 21:50:04</text>
<text text-anchor="middle" x="1797.78" y="-399.13" font-family="Arial" font-size="20.00" fill="magenta">gap: 497sec</text>
<text text-anchor="middle" x="1797.78" y="-377.13" font-family="Arial" font-size="20.00" fill="magenta">end_prev: 03/11/18, 21:41:47</text>
</g>
<!-- SERVICE DISCOVERY
unknown&#45;&gt;VULNERABILTY DISCOVERY
mysql -->
<g id="edge5" class="edge">
<title>SERVICE DISCOVERY
unknown&#45;&gt;VULNERABILTY DISCOVERY
mysql</title>
<path fill="none" stroke="maroon" stroke-width="5" d="M844.28,-361.57C844.28,-336.02 844.28,-303.09 844.28,-275.88"/>
<polygon fill="maroon" stroke="maroon" stroke-width="5" points="848.66,-275.76 844.28,-265.76 839.91,-275.76 848.66,-275.76"/>
<text text-anchor="middle" x="975.78" y="-330.71" font-family="Arial" font-size="20.00" fill="maroon">start_next: 03/11/18, 14:35:08</text>
<text text-anchor="middle" x="975.78" y="-308.71" font-family="Arial" font-size="20.00" fill="maroon">gap: 824sec</text>
<text text-anchor="middle" x="975.78" y="-286.71" font-family="Arial" font-size="20.00" fill="maroon">end_prev: 03/11/18, 14:21:24</text>
</g>
<!-- SERVICE DISCOVERY
unknown&#45;&gt;VULNERABILTY DISCOVERY
mysql -->
<g id="edge14" class="edge">
<title>SERVICE DISCOVERY
unknown&#45;&gt;VULNERABILTY DISCOVERY
mysql</title>
<path fill="none" stroke="purple" stroke-width="5" d="M1019.21,-387.61C1059.89,-380.27 1095.18,-369.49 1108.28,-353.71 1119.64,-340.03 1119.64,-287.38 1108.28,-273.71 1099.65,-263.3 1081.37,-255.07 1058.26,-248.57"/>
<polygon fill="purple" stroke="purple" stroke-width="5" points="1059.23,-244.3 1048.45,-245.98 1057,-252.76 1059.23,-244.3"/>
<text text-anchor="middle" x="1247.78" y="-330.71" font-family="Arial" font-size="20.00" fill="purple">start_next: 03/11/18, 21:12:41</text>
<text text-anchor="middle" x="1247.78" y="-308.71" font-family="Arial" font-size="20.00" fill="purple">gap: 3879sec</text>
<text text-anchor="middle" x="1247.78" y="-286.71" font-family="Arial" font-size="20.00" fill="purple">end_prev: 03/11/18, 20:08:01</text>
</g>
<!-- SERVICE DISCOVERY
unknown&#45;&gt;INFO DISCOVERY
http -->
<g id="edge7" class="edge">
<title>SERVICE DISCOVERY
unknown&#45;&gt;INFO DISCOVERY
http</title>
<path fill="none" stroke="maroon" stroke-width="5" d="M1016.04,-422.21C1047.83,-429.51 1079.92,-439.88 1108.28,-454.56 1218.28,-511.49 1314.56,-623.54 1364,-688.02"/>
<polygon fill="maroon" stroke="maroon" stroke-width="5" points="1360.55,-690.71 1370.08,-696.03 1367.52,-685.42 1360.55,-690.71"/>
<text text-anchor="middle" x="1429.78" y="-587.98" font-family="Arial" font-size="20.00" fill="maroon">start_next: 03/11/18, 22:53:02</text>
<text text-anchor="middle" x="1429.78" y="-565.98" font-family="Arial" font-size="20.00" fill="maroon">gap: 29711sec</text>
<text text-anchor="middle" x="1429.78" y="-543.98" font-family="Arial" font-size="20.00" fill="maroon">end_prev: 03/11/18, 14:37:51</text>
</g>
<!-- VULNERABILTY DISCOVERY
http -->
<g id="node7" class="node">
<title>VULNERABILTY DISCOVERY
http</title>
<g id="a_node7"><a xlink:title="ET SCAN NMAP SIP Version Detect OPTIONS Scan">
<ellipse fill="none" stroke="black" stroke-width="3" cx="844.28" cy="-570.98" rx="241.25" ry="42.35"/>
<text text-anchor="middle" x="844.28" y="-577.78" font-family="Arial" font-size="24.00">VULNERABILTY DISCOVERY</text>
<text text-anchor="middle" x="844.28" y="-551.78" font-family="Arial" font-size="24.00">http</text>
</a>
</g>
</g>
<!-- SERVICE DISCOVERY
unknown&#45;&gt;VULNERABILTY DISCOVERY
http -->
<g id="edge16" class="edge">
<title>SERVICE DISCOVERY
unknown&#45;&gt;VULNERABILTY DISCOVERY
http</title>
<path fill="none" stroke="purple" stroke-width="5" d="M844.28,-446.73C844.28,-468.4 844.28,-495.11 844.28,-518.12"/>
<polygon fill="purple" stroke="purple" stroke-width="5" points="839.91,-518.4 844.28,-528.4 848.66,-518.4 839.91,-518.4"/>
<text text-anchor="middle" x="975.78" y="-504.56" font-family="Arial" font-size="20.00" fill="purple">start_next: 03/11/18, 21:33:00</text>
<text text-anchor="middle" x="975.78" y="-482.56" font-family="Arial" font-size="20.00" fill="purple">gap: 1215sec</text>
<text text-anchor="middle" x="975.78" y="-460.56" font-family="Arial" font-size="20.00" fill="purple">end_prev: 03/11/18, 21:12:45</text>
</g>
<!-- INFO DISCOVERY
http&#45;&gt;NETWORK DoS
http | ID: 5 -->
<g id="edge8" class="edge">
<title>INFO DISCOVERY
http&#45;&gt;NETWORK DoS
http | ID: 5</title>
<path fill="none" stroke="maroon" stroke-width="5" d="M1548.72,-750.27C1599.52,-757.51 1647.5,-769.25 1663.28,-788.26 1686,-815.62 1686.64,-841.45 1663.28,-868.26 1631.78,-904.43 1520.49,-918 1422.67,-922.76"/>
<polygon fill="maroon" stroke="maroon" stroke-width="5" points="1422.43,-918.39 1412.64,-923.22 1422.83,-927.13 1422.43,-918.39"/>
<text text-anchor="middle" x="1811.78" y="-845.26" font-family="Arial" font-size="20.00" fill="maroon">start_next: 03/11/18, 22:53:02</text>
<text text-anchor="middle" x="1811.78" y="-823.26" font-family="Arial" font-size="20.00" fill="maroon">gap: &#45;1sec</text>
<text text-anchor="middle" x="1811.78" y="-801.26" font-family="Arial" font-size="20.00" fill="maroon">end_prev: 03/11/18, 22:53:04</text>
</g>
<!-- INFO DISCOVERY
http&#45;&gt;NETWORK DoS
http | ID: 5 -->
<g id="edge9" class="edge">
<title>INFO DISCOVERY
http&#45;&gt;NETWORK DoS
http | ID: 5</title>
<path fill="none" stroke="blue" stroke-width="5" d="M1248,-748.84C1193.11,-755.88 1140.35,-767.87 1123.28,-788.26 1111.88,-801.9 1113.39,-853.49 1123.28,-868.26 1128.61,-876.21 1135.28,-883.03 1142.8,-888.88"/>
<polygon fill="blue" stroke="blue" stroke-width="5" points="1140.57,-892.67 1151.27,-894.86 1145.62,-885.52 1140.57,-892.67"/>
<text text-anchor="start" x="1123.28" y="-853.26" font-family="Arial" font-size="20.00" fill="blue"> start_next: 03/11/18, 22:14:52</text>
<text text-anchor="start" x="1204.78" y="-833.26" font-family="Arial" font-size="20.00" fill="blue">gap: &#45;10sec</text>
<text text-anchor="start" x="1127.28" y="-813.26" font-family="Arial" font-size="20.00" fill="blue">end_prev: 03/11/18, 22:15:02</text>
<text text-anchor="start" x="1152.28" y="-793.26" font-family="Arial" font-weight="bold" font-size="20.00" fill="blue">Attacker: 10.0.254.203</text>
</g>
<!-- INFO DISCOVERY
http&#45;&gt;NETWORK DoS
http | ID: 5 -->
<g id="edge12" class="edge">
<title>INFO DISCOVERY
http&#45;&gt;NETWORK DoS
http | ID: 5</title>
<path fill="none" stroke="magenta" stroke-width="5" d="M1397.86,-780.41C1396.32,-815.51 1393.37,-861.19 1388.28,-868.26 1383.53,-874.89 1377.81,-880.73 1371.48,-885.89"/>
<polygon fill="magenta" stroke="magenta" stroke-width="5" points="1368.57,-882.6 1363.14,-892.07 1373.78,-889.63 1368.57,-882.6"/>
<text text-anchor="middle" x="1528.78" y="-845.26" font-family="Arial" font-size="20.00" fill="magenta">start_next: 03/11/18, 21:50:04</text>
<text text-anchor="middle" x="1528.78" y="-823.26" font-family="Arial" font-size="20.00" fill="magenta">gap: &#45;70sec</text>
<text text-anchor="middle" x="1528.78" y="-801.26" font-family="Arial" font-size="20.00" fill="magenta">end_prev: 03/11/18, 21:51:14</text>
</g>
<!-- HOST DISCOVERY
http -->
<g id="node8" class="node">
<title>HOST DISCOVERY
http</title>
<g id="a_node8"><a xlink:title="ET SCAN Nmap Scripting Engine User&#45;Agent Detected (Nmap Scripting Engine)&#10;ET SCAN Possible Nmap User&#45;Agent Observed">
<ellipse fill="none" stroke="black" stroke-width="3" cx="844.28" cy="-737.84" rx="162.77" ry="42.35"/>
<text text-anchor="middle" x="844.28" y="-744.64" font-family="Arial" font-size="24.00">HOST DISCOVERY</text>
<text text-anchor="middle" x="844.28" y="-718.64" font-family="Arial" font-size="24.00">http</text>
</a>
</g>
</g>
<!-- VULNERABILTY DISCOVERY
http&#45;&gt;HOST DISCOVERY
http -->
<g id="edge17" class="edge">
<title>VULNERABILTY DISCOVERY
http&#45;&gt;HOST DISCOVERY
http</title>
<path fill="none" stroke="purple" stroke-width="5" d="M844.28,-613.58C844.28,-635.26 844.28,-661.96 844.28,-684.97"/>
<polygon fill="purple" stroke="purple" stroke-width="5" points="839.91,-685.25 844.28,-695.25 848.66,-685.25 839.91,-685.25"/>
<text text-anchor="middle" x="975.78" y="-671.41" font-family="Arial" font-size="20.00" fill="purple">start_next: 03/11/18, 21:33:50</text>
<text text-anchor="middle" x="975.78" y="-649.41" font-family="Arial" font-size="20.00" fill="purple">gap: 50sec</text>
<text text-anchor="middle" x="975.78" y="-627.41" font-family="Arial" font-size="20.00" fill="purple">end_prev: 03/11/18, 21:33:00</text>
</g>
<!-- HOST DISCOVERY
http&#45;&gt;NETWORK DoS
http | ID: 5 -->
<g id="edge18" class="edge">
<title>HOST DISCOVERY
http&#45;&gt;NETWORK DoS
http | ID: 5</title>
<path fill="none" stroke="purple" stroke-width="5" d="M834.15,-780.2C829.85,-808.55 829.94,-845.09 851.28,-868.26 884.24,-904.05 997.44,-917.61 1096.26,-922.46"/>
<polygon fill="purple" stroke="purple" stroke-width="5" points="1096.2,-926.84 1106.39,-922.93 1096.6,-918.1 1096.2,-926.84"/>
<text text-anchor="middle" x="982.78" y="-845.26" font-family="Arial" font-size="20.00" fill="purple">start_next: 03/11/18, 21:34:23</text>
<text text-anchor="middle" x="982.78" y="-823.26" font-family="Arial" font-size="20.00" fill="purple">gap: 34sec</text>
<text text-anchor="middle" x="982.78" y="-801.26" font-family="Arial" font-size="20.00" fill="purple">end_prev: 03/11/18, 21:33:50</text>
</g>
</g>
</svg>
