<?xml version="1.0" encoding="UTF-8" standalone="no"?>
<!DOCTYPE svg PUBLIC "-//W3C//DTD SVG 1.1//EN"
 "http://www.w3.org/Graphics/SVG/1.1/DTD/svg11.dtd">
<!-- Generated by graphviz version 2.50.0 (0)
 -->
<!-- Title: RESOURCEHIJACKINGremotewarecl Pages: 1 -->
<svg width="1956pt" height="2059pt"
 viewBox="0.00 0.00 1956.36 2058.85" xmlns="http://www.w3.org/2000/svg" xmlns:xlink="http://www.w3.org/1999/xlink">
<g id="graph0" class="graph" transform="scale(1 1) rotate(0) translate(4 2054.85)">
<title>RESOURCEHIJACKINGremotewarecl</title>
<polygon fill="white" stroke="transparent" points="-4,4 -4,-2054.85 1952.36,-2054.85 1952.36,4 -4,4"/>
<!-- Victim: 10.0.0.20
RESOURCE HIJACKING
remoteware&#45;cl -->
<g id="node1" class="node">
<title>Victim: 10.0.0.20
RESOURCE HIJACKING
remoteware&#45;cl</title>
<polygon fill="salmon" stroke="black" stroke-width="3" points="1626.15,-1953.83 1626.15,-2008.22 1497.99,-2046.68 1316.73,-2046.68 1188.57,-2008.22 1188.57,-1953.83 1316.73,-1915.37 1497.99,-1915.37 1626.15,-1953.83"/>
<polygon fill="none" stroke="black" stroke-width="3" points="1630.15,-1950.86 1630.15,-2011.19 1498.57,-2050.67 1316.14,-2050.67 1184.57,-2011.19 1184.57,-1950.86 1316.14,-1911.38 1498.57,-1911.38 1630.15,-1950.86"/>
<text text-anchor="middle" x="1407.36" y="-2000.82" font-family="Arial" font-size="24.00">Victim: 10.0.0.20</text>
<text text-anchor="middle" x="1407.36" y="-1974.82" font-family="Arial" font-size="24.00">RESOURCE HIJACKING</text>
<text text-anchor="middle" x="1407.36" y="-1948.82" font-family="Arial" font-size="24.00">remoteware&#45;cl</text>
</g>
<!-- RESOURCE HIJACKING
remoteware&#45;cl | ID: 61 -->
<g id="node2" class="node">
<title>RESOURCE HIJACKING
remoteware&#45;cl | ID: 61</title>
<g id="a_node2"><a xlink:title="GPL WEB_SERVER Oracle Java Process Manager access">
<polygon fill="salmon" stroke="black" stroke-width="3" points="1640.9,-1845.21 1524.13,-1894.19 1290.59,-1894.19 1173.82,-1845.21 1290.59,-1796.23 1524.13,-1796.23 1640.9,-1845.21"/>
<text text-anchor="middle" x="1407.36" y="-1852.01" font-family="Arial" font-size="24.00">RESOURCE HIJACKING</text>
<text text-anchor="middle" x="1407.36" y="-1826.01" font-family="Arial" font-size="24.00">remoteware&#45;cl | ID: 61</text>
</a>
</g>
</g>
<!-- RESOURCE HIJACKING
remoteware&#45;cl | ID: 61&#45;&gt;Victim: 10.0.0.20
RESOURCE HIJACKING
remoteware&#45;cl -->
<g id="edge1" class="edge">
<title>RESOURCE HIJACKING
remoteware&#45;cl | ID: 61&#45;&gt;Victim: 10.0.0.20
RESOURCE HIJACKING
remoteware&#45;cl</title>
<path fill="none" stroke="black" stroke-width="5" d="M1407.36,-1894.52C1407.36,-1896.63 1407.36,-1898.76 1407.36,-1900.91"/>
<polygon fill="black" stroke="black" stroke-width="5" points="1402.98,-1901.06 1407.36,-1911.06 1411.73,-1901.06 1402.98,-1901.06"/>
</g>
<!-- VULNERABILTY DISCOVERY
mysql -->
<g id="node3" class="node">
<title>VULNERABILTY DISCOVERY
mysql</title>
<g id="a_node3"><a xlink:title="ET SCAN Suspicious inbound to mySQL port 3306&#10;ET SCAN Suspicious inbound to MSSQL port 1433&#10;ET SCAN Suspicious inbound to PostgreSQL port 5432&#10;ET SCAN Suspicious inbound to Oracle SQL port 1521&#10;ET SCAN Suspicious inbound to mSQL port 4333">
<ellipse fill="yellow" stroke="black" stroke-width="3" cx="444.36" cy="-42.43" rx="241.25" ry="42.35"/>
<text text-anchor="middle" x="444.36" y="-49.23" font-family="Arial" font-size="24.00">VULNERABILTY DISCOVERY</text>
<text text-anchor="middle" x="444.36" y="-23.23" font-family="Arial" font-size="24.00">mysql</text>
</a>
</g>
</g>
<!-- SERVICE DISCOVERY
unknown -->
<g id="node4" class="node">
<title>SERVICE DISCOVERY
unknown</title>
<g id="a_node4"><a xlink:title="ET SCAN Potential SSH Scan&#10;ET SCAN Potential VNC Scan 5800&#45;5820&#10;ET SCAN Potential VNC Scan 5900&#45;5920&#10;ET SCAN NMAP OS Detection Probe">
<ellipse fill="none" stroke="black" stroke-width="3" cx="444.36" cy="-223.28" rx="189.51" ry="42.35"/>
<text text-anchor="middle" x="444.36" y="-230.08" font-family="Arial" font-size="24.00">SERVICE DISCOVERY</text>
<text text-anchor="middle" x="444.36" y="-204.08" font-family="Arial" font-size="24.00">unknown</text>
</a>
</g>
</g>
<!-- VULNERABILTY DISCOVERY
mysql&#45;&gt;SERVICE DISCOVERY
unknown -->
<g id="edge2" class="edge">
<title>VULNERABILTY DISCOVERY
mysql&#45;&gt;SERVICE DISCOVERY
unknown</title>
<path fill="none" stroke="darkgreen" stroke-width="5" d="M320.8,-78.97C316.16,-83.1 311.96,-87.71 308.36,-92.85 287.96,-121.97 287.96,-143.73 308.36,-172.85 311.03,-176.66 314.02,-180.17 317.27,-183.42"/>
<polygon fill="darkgreen" stroke="darkgreen" stroke-width="5" points="314.41,-186.73 324.8,-190.1 320.22,-180.19 314.41,-186.73"/>
<text text-anchor="start" x="308.36" y="-157.85" font-family="Arial" font-size="20.00" fill="darkgreen"> start_next: 03/11/18, 14:53:39</text>
<text text-anchor="start" x="384.36" y="-137.85" font-family="Arial" font-size="20.00" fill="darkgreen">gap: &#45;263sec</text>
<text text-anchor="start" x="312.36" y="-117.85" font-family="Arial" font-size="20.00" fill="darkgreen">end_prev: 03/11/18, 14:58:02</text>
<text text-anchor="start" x="337.36" y="-97.85" font-family="Arial" font-weight="bold" font-size="20.00" fill="darkgreen">Attacker: 10.0.254.201</text>
</g>
<!-- VULNERABILTY DISCOVERY
mysql&#45;&gt;SERVICE DISCOVERY
unknown -->
<g id="edge13" class="edge">
<title>VULNERABILTY DISCOVERY
mysql&#45;&gt;SERVICE DISCOVERY
unknown</title>
<path fill="none" stroke="darkgreen" stroke-width="5" d="M561.87,-79.7C566.16,-83.64 570.03,-88.01 573.36,-92.85 593.51,-122.15 593.51,-143.56 573.36,-172.85 571.02,-176.26 568.41,-179.43 565.58,-182.38"/>
<polygon fill="darkgreen" stroke="darkgreen" stroke-width="5" points="562.48,-179.28 558.1,-189.28 568.42,-185.71 562.48,-179.28"/>
<text text-anchor="start" x="589.36" y="-157.85" font-family="Arial" font-size="20.00" fill="darkgreen"> start_next: 03/11/18, 17:42:35</text>
<text text-anchor="start" x="670.86" y="-137.85" font-family="Arial" font-size="20.00" fill="darkgreen">gap: &#45;10sec</text>
<text text-anchor="start" x="593.36" y="-117.85" font-family="Arial" font-size="20.00" fill="darkgreen">end_prev: 03/11/18, 17:42:45</text>
<text text-anchor="start" x="618.36" y="-97.85" font-family="Arial" font-weight="bold" font-size="20.00" fill="darkgreen">Attacker: 10.0.254.204</text>
</g>
<!-- HOST DISCOVERY
remoteware&#45;cl -->
<g id="node5" class="node">
<title>HOST DISCOVERY
remoteware&#45;cl</title>
<g id="a_node5"><a xlink:title="ET SCAN Nmap Scripting Engine User&#45;Agent Detected (Nmap Scripting Engine)&#10;ET SCAN Possible Nmap User&#45;Agent Observed">
<ellipse fill="none" stroke="black" stroke-width="3" cx="444.36" cy="-390.13" rx="162.77" ry="42.35"/>
<text text-anchor="middle" x="444.36" y="-396.93" font-family="Arial" font-size="24.00">HOST DISCOVERY</text>
<text text-anchor="middle" x="444.36" y="-370.93" font-family="Arial" font-size="24.00">remoteware&#45;cl</text>
</a>
</g>
</g>
<!-- SERVICE DISCOVERY
unknown&#45;&gt;HOST DISCOVERY
remoteware&#45;cl -->
<g id="edge3" class="edge">
<title>SERVICE DISCOVERY
unknown&#45;&gt;HOST DISCOVERY
remoteware&#45;cl</title>
<path fill="none" stroke="darkgreen" stroke-width="5" d="M327.41,-256.72C321.31,-261.61 315.86,-267.23 311.36,-273.71 294.62,-297.79 294.62,-315.62 311.36,-339.71 314.83,-344.69 318.86,-349.18 323.32,-353.21"/>
<polygon fill="darkgreen" stroke="darkgreen" stroke-width="5" points="320.67,-356.7 331.2,-359.59 326.18,-349.9 320.67,-356.7"/>
<text text-anchor="middle" x="442.86" y="-323.71" font-family="Arial" font-size="20.00" fill="darkgreen">start_next: 03/11/18, 15:01:05</text>
<text text-anchor="middle" x="442.86" y="-301.71" font-family="Arial" font-size="20.00" fill="darkgreen">gap: 194sec</text>
<text text-anchor="middle" x="442.86" y="-279.71" font-family="Arial" font-size="20.00" fill="darkgreen">end_prev: 03/11/18, 14:57:51</text>
</g>
<!-- SERVICE DISCOVERY
unknown&#45;&gt;HOST DISCOVERY
remoteware&#45;cl -->
<g id="edge14" class="edge">
<title>SERVICE DISCOVERY
unknown&#45;&gt;HOST DISCOVERY
remoteware&#45;cl</title>
<path fill="none" stroke="darkgreen" stroke-width="5" d="M556.63,-257.68C562.22,-262.34 567.22,-267.65 571.36,-273.71 587.92,-297.92 587.92,-315.49 571.36,-339.71 568.35,-344.11 564.88,-348.12 561.06,-351.77"/>
<polygon fill="darkgreen" stroke="darkgreen" stroke-width="5" points="558.1,-348.56 553.32,-358.37 563.77,-355.22 558.1,-348.56"/>
<text text-anchor="middle" x="715.86" y="-323.71" font-family="Arial" font-size="20.00" fill="darkgreen">start_next: 03/11/18, 17:59:39</text>
<text text-anchor="middle" x="715.86" y="-301.71" font-family="Arial" font-size="20.00" fill="darkgreen">gap: 938sec</text>
<text text-anchor="middle" x="715.86" y="-279.71" font-family="Arial" font-size="20.00" fill="darkgreen">end_prev: 03/11/18, 17:44:01</text>
</g>
<!-- VULNERABILTY DISCOVERY
remoteware&#45;cl -->
<g id="node6" class="node">
<title>VULNERABILTY DISCOVERY
remoteware&#45;cl</title>
<g id="a_node6"><a xlink:title="ET SCAN Nikto Web App Scan in Progress">
<ellipse fill="none" stroke="black" stroke-width="3" cx="581.36" cy="-556.98" rx="241.25" ry="42.35"/>
<text text-anchor="middle" x="581.36" y="-563.78" font-family="Arial" font-size="24.00">VULNERABILTY DISCOVERY</text>
<text text-anchor="middle" x="581.36" y="-537.78" font-family="Arial" font-size="24.00">remoteware&#45;cl</text>
</a>
</g>
</g>
<!-- HOST DISCOVERY
remoteware&#45;cl&#45;&gt;VULNERABILTY DISCOVERY
remoteware&#45;cl -->
<g id="edge4" class="edge">
<title>HOST DISCOVERY
remoteware&#45;cl&#45;&gt;VULNERABILTY DISCOVERY
remoteware&#45;cl</title>
<path fill="none" stroke="darkgreen" stroke-width="5" d="M551.45,-422.31C558.6,-427.49 565.05,-433.52 570.36,-440.56 577.95,-450.63 580.75,-478.52 581.62,-504.36"/>
<polygon fill="darkgreen" stroke="darkgreen" stroke-width="5" points="577.25,-504.6 581.88,-514.49 586,-504.39 577.25,-504.6"/>
<text text-anchor="middle" x="713.86" y="-490.56" font-family="Arial" font-size="20.00" fill="darkgreen">start_next: 03/11/18, 15:05:40</text>
<text text-anchor="middle" x="713.86" y="-468.56" font-family="Arial" font-size="20.00" fill="darkgreen">gap: 275sec</text>
<text text-anchor="middle" x="713.86" y="-446.56" font-family="Arial" font-size="20.00" fill="darkgreen">end_prev: 03/11/18, 15:01:05</text>
</g>
<!-- HOST DISCOVERY
remoteware&#45;cl&#45;&gt;VULNERABILTY DISCOVERY
remoteware&#45;cl -->
<g id="edge15" class="edge">
<title>HOST DISCOVERY
remoteware&#45;cl&#45;&gt;VULNERABILTY DISCOVERY
remoteware&#45;cl</title>
<path fill="none" stroke="darkgreen" stroke-width="5" d="M327.62,-419.76C319.43,-425.48 312.15,-432.34 306.36,-440.56 289.47,-464.54 287.54,-484.06 306.36,-506.56 315.85,-517.91 336.44,-526.66 362.29,-533.4"/>
<polygon fill="darkgreen" stroke="darkgreen" stroke-width="5" points="361.29,-537.66 372.04,-535.79 363.37,-529.16 361.29,-537.66"/>
<text text-anchor="middle" x="437.86" y="-490.56" font-family="Arial" font-size="20.00" fill="darkgreen">start_next: 03/11/18, 18:07:26</text>
<text text-anchor="middle" x="437.86" y="-468.56" font-family="Arial" font-size="20.00" fill="darkgreen">gap: 467sec</text>
<text text-anchor="middle" x="437.86" y="-446.56" font-family="Arial" font-size="20.00" fill="darkgreen">end_prev: 03/11/18, 17:59:40</text>
</g>
<!-- DATA EXFILTRATION
remoteware&#45;cl | ID: 22 -->
<g id="node7" class="node">
<title>DATA EXFILTRATION
remoteware&#45;cl | ID: 22</title>
<g id="a_node7"><a xlink:title="GPL WEB_SERVER Tomcat server snoop access&#10;GPL EXPLOIT ISAPI .ida access&#10;GPL EXPLOIT /msadc/samples/ access&#10;ET WEB_SERVER ColdFusion componentutils access&#10;ET WEB_SERVER /system32/ in Uri &#45; Possible Protected Directory Access Attempt&#10;ET WEB_SPECIFIC_APPS PHP&#45;CGI query string parameter vulnerability&#10;ET WEB_SERVER Possible XXE SYSTEM ENTITY in POST BODY.&#10;ET WEB_SERVER /etc/shadow Detected in URI&#10;GPL EXPLOIT ISAPI .idq access">
<polygon fill="none" stroke="black" stroke-width="3" points="513.64,-744.4 410,-793.38 202.72,-793.38 99.08,-744.4 202.72,-695.42 410,-695.42 513.64,-744.4"/>
<text text-anchor="middle" x="306.36" y="-751.2" font-family="Arial" font-size="24.00">DATA EXFILTRATION</text>
<text text-anchor="middle" x="306.36" y="-725.2" font-family="Arial" font-size="24.00">remoteware&#45;cl | ID: 22</text>
</a>
</g>
</g>
<!-- VULNERABILTY DISCOVERY
remoteware&#45;cl&#45;&gt;DATA EXFILTRATION
remoteware&#45;cl | ID: 22 -->
<g id="edge5" class="edge">
<title>VULNERABILTY DISCOVERY
remoteware&#45;cl&#45;&gt;DATA EXFILTRATION
remoteware&#45;cl | ID: 22</title>
<path fill="none" stroke="darkgreen" stroke-width="5" d="M583.02,-599.66C583.41,-632.48 581.55,-674.73 570.36,-687.41 556.82,-702.74 521.82,-714.13 481.56,-722.48"/>
<polygon fill="darkgreen" stroke="darkgreen" stroke-width="5" points="480.45,-718.24 471.5,-724.48 482.16,-726.82 480.45,-718.24"/>
<text text-anchor="middle" x="714.86" y="-664.41" font-family="Arial" font-size="20.00" fill="darkgreen">start_next: 03/11/18, 15:05:41</text>
<text text-anchor="middle" x="714.86" y="-642.41" font-family="Arial" font-size="20.00" fill="darkgreen">gap: &#45;571sec</text>
<text text-anchor="middle" x="714.86" y="-620.41" font-family="Arial" font-size="20.00" fill="darkgreen">end_prev: 03/11/18, 15:15:13</text>
</g>
<!-- VULNERABILTY DISCOVERY
remoteware&#45;cl&#45;&gt;DATA EXFILTRATION
remoteware&#45;cl | ID: 22 -->
<g id="edge26" class="edge">
<title>VULNERABILTY DISCOVERY
remoteware&#45;cl&#45;&gt;DATA EXFILTRATION
remoteware&#45;cl | ID: 22</title>
<path fill="none" stroke="magenta" stroke-width="5" d="M372.04,-578.18C341.66,-585.2 317.02,-594.67 306.36,-607.41 288.63,-628.61 287.11,-658.85 290.69,-685.44"/>
<polygon fill="magenta" stroke="magenta" stroke-width="5" points="286.39,-686.24 292.29,-695.42 295.03,-684.85 286.39,-686.24"/>
<text text-anchor="middle" x="437.86" y="-664.41" font-family="Arial" font-size="20.00" fill="magenta">start_next: 03/11/18, 15:48:26</text>
<text text-anchor="middle" x="437.86" y="-642.41" font-family="Arial" font-size="20.00" fill="magenta">gap: &#45;552sec</text>
<text text-anchor="middle" x="437.86" y="-620.41" font-family="Arial" font-size="20.00" fill="magenta">end_prev: 03/11/18, 15:57:38</text>
</g>
<!-- INFO DISCOVERY
remoteware&#45;cl -->
<g id="node8" class="node">
<title>INFO DISCOVERY
remoteware&#45;cl</title>
<g id="a_node8"><a xlink:title="GPL WEB_SERVER viewcode access&#10;GPL WEB_SERVER .htaccess access&#10;GPL WEB_SERVER writeto.cnf access&#10;GPL WEB_SERVER iisadmin access&#10;ET WEB_SPECIFIC_APPS Request to Wordpress W3TC Plug&#45;in dbcache Directory&#10;GPL WEB_SERVER services.cnf access&#10;GPL EXPLOIT unicode directory traversal attempt&#10;GPL WEB_SERVER service.cnf access&#10;GPL EXPLOIT iisadmpwd attempt&#10;ET WEB_SERVER PHP SESSION SuperGlobal in URI&#10;GPL WEB_SERVER /~root access&#10;GPL WEB_SERVER authors.pwd access&#10;GPL EXPLOIT .cnf access&#10;ET POLICY Proxy TRACE Request &#45; inbound&#10;GPL WEB_SERVER .htpasswd access&#10;GPL WEB_SERVER global.asa access&#10;ET WEB_SERVER PHP SERVER SuperGlobal in URI&#10;GPL EXPLOIT fpcount access&#10;GPL WEB_SERVER globals.pl access&#10;GPL WEB_SERVER 403 Forbidden&#10;GPL WEB_SERVER service.pwd&#10;GPL EXPLOIT ISAPI .idq attempt&#10;ET WEB_SERVER PHP Easteregg Information&#45;Disclosure (phpinfo)&#10;GPL WEB_SERVER printenv access&#10;GPL WEB_SERVER author.exe access&#10;GPL EXPLOIT iissamples access&#10;GPL EXPLOIT .htr access&#10;ET WEB_SERVER PHP REQUEST SuperGlobal in URI">
<ellipse fill="yellow" stroke="black" stroke-width="3" cx="717.36" cy="-917.82" rx="156.04" ry="42.35"/>
<text text-anchor="middle" x="717.36" y="-924.62" font-family="Arial" font-size="24.00">INFO DISCOVERY</text>
<text text-anchor="middle" x="717.36" y="-898.62" font-family="Arial" font-size="24.00">remoteware&#45;cl</text>
</a>
</g>
</g>
<!-- VULNERABILTY DISCOVERY
remoteware&#45;cl&#45;&gt;INFO DISCOVERY
remoteware&#45;cl -->
<g id="edge16" class="edge">
<title>VULNERABILTY DISCOVERY
remoteware&#45;cl&#45;&gt;INFO DISCOVERY
remoteware&#45;cl</title>
<path fill="none" stroke="darkgreen" stroke-width="5" d="M785.98,-579.54C813.93,-586.42 836.45,-595.49 846.36,-607.41 864.82,-629.63 862.73,-843.59 846.36,-867.39 842.92,-872.39 838.9,-876.89 834.45,-880.93"/>
<polygon fill="darkgreen" stroke="darkgreen" stroke-width="5" points="831.59,-877.61 826.58,-887.31 837.1,-884.41 831.59,-877.61"/>
<text text-anchor="middle" x="991.86" y="-761.4" font-family="Arial" font-size="20.00" fill="darkgreen">start_next: 03/11/18, 18:07:27</text>
<text text-anchor="middle" x="991.86" y="-739.4" font-family="Arial" font-size="20.00" fill="darkgreen">gap: &#45;563sec</text>
<text text-anchor="middle" x="991.86" y="-717.4" font-family="Arial" font-size="20.00" fill="darkgreen">end_prev: 03/11/18, 18:16:50</text>
</g>
<!-- DATA EXFILTRATION
remoteware&#45;cl | ID: 22&#45;&gt;INFO DISCOVERY
remoteware&#45;cl -->
<g id="edge6" class="edge">
<title>DATA EXFILTRATION
remoteware&#45;cl | ID: 22&#45;&gt;INFO DISCOVERY
remoteware&#45;cl</title>
<path fill="none" stroke="darkgreen" stroke-width="5" d="M469.73,-765.32C514.64,-773.91 555.4,-785.68 571.36,-801.39 592.79,-822.5 566.6,-844.71 586.36,-867.39 590.81,-872.5 595.85,-877.08 601.29,-881.19"/>
<polygon fill="darkgreen" stroke="darkgreen" stroke-width="5" points="598.81,-884.8 609.53,-886.89 603.79,-877.6 598.81,-884.8"/>
<text text-anchor="middle" x="717.86" y="-851.39" font-family="Arial" font-size="20.00" fill="darkgreen">start_next: 03/11/18, 15:05:48</text>
<text text-anchor="middle" x="717.86" y="-829.39" font-family="Arial" font-size="20.00" fill="darkgreen">gap: &#45;571sec</text>
<text text-anchor="middle" x="717.86" y="-807.39" font-family="Arial" font-size="20.00" fill="darkgreen">end_prev: 03/11/18, 15:15:19</text>
</g>
<!-- ARBITRARY CODE EXECUTION
remoteware&#45;cl | ID: 398 -->
<g id="node9" class="node">
<title>ARBITRARY CODE EXECUTION
remoteware&#45;cl | ID: 398</title>
<g id="a_node9"><a xlink:title="ET WEB_SPECIFIC_APPS WEB&#45;PHP RCE PHPBB 2004&#45;1315&#10;ET CURRENT_EVENTS QNAP Shellshock CVE&#45;2014&#45;6271&#10;ET WEB_SERVER Possible CVE&#45;2014&#45;6271 Attempt in Headers">
<polygon fill="none" stroke="black" stroke-width="3" stroke-dasharray="1,5" points="606.86,-1105.24 231.86,-1105.24 231.86,-1045.24 606.86,-1045.24 606.86,-1105.24"/>
<text text-anchor="middle" x="419.36" y="-1082.04" font-family="Arial" font-size="24.00">ARBITRARY CODE EXECUTION</text>
<text text-anchor="middle" x="419.36" y="-1056.04" font-family="Arial" font-size="24.00">remoteware&#45;cl | ID: 398</text>
</a>
</g>
</g>
<!-- DATA EXFILTRATION
remoteware&#45;cl | ID: 22&#45;&gt;ARBITRARY CODE EXECUTION
remoteware&#45;cl | ID: 398 -->
<g id="edge18" class="edge">
<title>DATA EXFILTRATION
remoteware&#45;cl | ID: 22&#45;&gt;ARBITRARY CODE EXECUTION
remoteware&#45;cl | ID: 398</title>
<path fill="none" stroke="darkgreen" stroke-width="5" d="M291.52,-793.73C280.43,-838.81 270.83,-906.93 294.36,-960.24 308.54,-992.37 336.74,-1019.35 362.77,-1038.99"/>
<polygon fill="darkgreen" stroke="darkgreen" stroke-width="5" points="360.47,-1042.73 371.13,-1045.11 365.64,-1035.67 360.47,-1042.73"/>
<text text-anchor="middle" x="425.86" y="-934.82" font-family="Arial" font-size="20.00" fill="darkgreen">start_next: 03/11/18, 18:07:44</text>
<text text-anchor="middle" x="425.86" y="-912.82" font-family="Arial" font-size="20.00" fill="darkgreen">gap: &#45;549sec</text>
<text text-anchor="middle" x="425.86" y="-890.82" font-family="Arial" font-size="20.00" fill="darkgreen">end_prev: 03/11/18, 18:16:53</text>
</g>
<!-- DATA EXFILTRATION
remoteware&#45;cl | ID: 22&#45;&gt;ARBITRARY CODE EXECUTION
remoteware&#45;cl | ID: 398 -->
<g id="edge27" class="edge">
<title>DATA EXFILTRATION
remoteware&#45;cl | ID: 22&#45;&gt;ARBITRARY CODE EXECUTION
remoteware&#45;cl | ID: 398</title>
<path fill="none" stroke="magenta" stroke-width="5" d="M162.41,-774.57C107,-793.57 49.2,-824.68 16.36,-875.39 -4.14,-907.04 -6.39,-930.17 16.36,-960.24 43.5,-996.12 138.56,-1023.95 229.54,-1043.13"/>
<polygon fill="magenta" stroke="magenta" stroke-width="5" points="228.78,-1047.44 239.46,-1045.19 230.56,-1038.87 228.78,-1047.44"/>
<text text-anchor="middle" x="147.86" y="-934.82" font-family="Arial" font-size="20.00" fill="magenta">start_next: 03/11/18, 15:48:35</text>
<text text-anchor="middle" x="147.86" y="-912.82" font-family="Arial" font-size="20.00" fill="magenta">gap: &#45;541sec</text>
<text text-anchor="middle" x="147.86" y="-890.82" font-family="Arial" font-size="20.00" fill="magenta">end_prev: 03/11/18, 15:57:36</text>
</g>
<!-- INFO DISCOVERY
remoteware&#45;cl&#45;&gt;DATA EXFILTRATION
remoteware&#45;cl | ID: 22 -->
<g id="edge17" class="edge">
<title>INFO DISCOVERY
remoteware&#45;cl&#45;&gt;DATA EXFILTRATION
remoteware&#45;cl | ID: 22</title>
<path fill="none" stroke="darkgreen" stroke-width="5" d="M612.15,-886.38C593.38,-881.97 573.9,-878.03 555.36,-875.39 541.71,-873.45 316.99,-877.25 307.36,-867.39 298.41,-858.22 297.69,-830.45 299.43,-803.72"/>
<polygon fill="darkgreen" stroke="darkgreen" stroke-width="5" points="303.81,-803.87 300.21,-793.57 295.09,-803.21 303.81,-803.87"/>
<text text-anchor="middle" x="438.86" y="-851.39" font-family="Arial" font-size="20.00" fill="darkgreen">start_next: 03/11/18, 18:07:28</text>
<text text-anchor="middle" x="438.86" y="-829.39" font-family="Arial" font-size="20.00" fill="darkgreen">gap: &#45;564sec</text>
<text text-anchor="middle" x="438.86" y="-807.39" font-family="Arial" font-size="20.00" fill="darkgreen">end_prev: 03/11/18, 18:16:52</text>
</g>
<!-- INFO DISCOVERY
remoteware&#45;cl&#45;&gt;ARBITRARY CODE EXECUTION
remoteware&#45;cl | ID: 398 -->
<g id="edge7" class="edge">
<title>INFO DISCOVERY
remoteware&#45;cl&#45;&gt;ARBITRARY CODE EXECUTION
remoteware&#45;cl | ID: 398</title>
<path fill="none" stroke="darkgreen" stroke-width="5" d="M646.36,-955.85C597.19,-981.49 532.25,-1015.36 484.42,-1040.31"/>
<polygon fill="darkgreen" stroke="darkgreen" stroke-width="5" points="482.24,-1036.51 475.4,-1045.01 486.29,-1044.27 482.24,-1036.51"/>
<text text-anchor="middle" x="752.86" y="-1018.24" font-family="Arial" font-size="20.00" fill="darkgreen">start_next: 03/11/18, 15:05:58</text>
<text text-anchor="middle" x="752.86" y="-996.24" font-family="Arial" font-size="20.00" fill="darkgreen">gap: &#45;561sec</text>
<text text-anchor="middle" x="752.86" y="-974.24" font-family="Arial" font-size="20.00" fill="darkgreen">end_prev: 03/11/18, 15:15:19</text>
</g>
<!-- SURFING
remoteware&#45;cl -->
<g id="node12" class="node">
<title>SURFING
remoteware&#45;cl</title>
<g id="a_node12"><a xlink:title="ET WEB_SERVER WEB&#45;PHP phpinfo access">
<ellipse fill="none" stroke="black" stroke-width="3" cx="1266.36" cy="-390.13" rx="120.42" ry="42.35"/>
<text text-anchor="middle" x="1266.36" y="-396.93" font-family="Arial" font-size="24.00">SURFING</text>
<text text-anchor="middle" x="1266.36" y="-370.93" font-family="Arial" font-size="24.00">remoteware&#45;cl</text>
</a>
</g>
</g>
<!-- INFO DISCOVERY
remoteware&#45;cl&#45;&gt;SURFING
remoteware&#45;cl -->
<g id="edge24" class="edge">
<title>INFO DISCOVERY
remoteware&#45;cl&#45;&gt;SURFING
remoteware&#45;cl</title>
<path fill="none" stroke="magenta" stroke-width="5" d="M846.29,-893.75C950.71,-872.23 1085.92,-836.94 1120.36,-793.39 1171.73,-728.42 1107.13,-686.3 1132.36,-607.41 1152.54,-544.3 1195.08,-480.9 1226.84,-439.21"/>
<polygon fill="magenta" stroke="magenta" stroke-width="5" points="1230.4,-441.76 1233.04,-431.17 1223.47,-436.41 1230.4,-441.76"/>
<text text-anchor="start" x="1132.36" y="-672.41" font-family="Arial" font-size="20.00" fill="magenta"> start_next: 03/11/18, 15:45:39</text>
<text text-anchor="start" x="1208.36" y="-652.41" font-family="Arial" font-size="20.00" fill="magenta">gap: &#45;717sec</text>
<text text-anchor="start" x="1136.36" y="-632.41" font-family="Arial" font-size="20.00" fill="magenta">end_prev: 03/11/18, 15:57:35</text>
<text text-anchor="start" x="1161.36" y="-612.41" font-family="Arial" font-weight="bold" font-size="20.00" fill="magenta">Attacker: 10.0.254.203</text>
</g>
<!-- ROOT PRIVILEGE ESCALATION
remoteware&#45;cl | ID: 157 -->
<g id="node10" class="node">
<title>ROOT PRIVILEGE ESCALATION
remoteware&#45;cl | ID: 157</title>
<g id="a_node10"><a xlink:title="ET WEB_SERVER ColdFusion administrator access&#10;ETPRO WEB_SPECIFIC_APPS ipTIME firmware &lt; 9.58 RCE&#10;GPL EXPLOIT administrators.pwd access&#10;GPL EXPLOIT CodeRed v2 root.exe access">
<polygon fill="none" stroke="black" stroke-width="3" stroke-dasharray="1,5" points="871.86,-1250.24 496.86,-1250.24 496.86,-1190.24 871.86,-1190.24 871.86,-1250.24"/>
<text text-anchor="middle" x="684.36" y="-1227.04" font-family="Arial" font-size="24.00">ROOT PRIVILEGE ESCALATION</text>
<text text-anchor="middle" x="684.36" y="-1201.04" font-family="Arial" font-size="24.00">remoteware&#45;cl | ID: 157</text>
</a>
</g>
</g>
<!-- ARBITRARY CODE EXECUTION
remoteware&#45;cl | ID: 398&#45;&gt;ROOT PRIVILEGE ESCALATION
remoteware&#45;cl | ID: 157 -->
<g id="edge8" class="edge">
<title>ARBITRARY CODE EXECUTION
remoteware&#45;cl | ID: 398&#45;&gt;ROOT PRIVILEGE ESCALATION
remoteware&#45;cl | ID: 157</title>
<path fill="none" stroke="darkgreen" stroke-width="5" d="M296.27,-1105.44C292.64,-1108.69 289.31,-1112.28 286.36,-1116.24 268.86,-1139.78 266.6,-1160.56 286.36,-1182.24 300.81,-1198.1 394.11,-1207.27 486.74,-1212.51"/>
<polygon fill="darkgreen" stroke="darkgreen" stroke-width="5" points="486.63,-1216.89 496.86,-1213.07 487.11,-1208.15 486.63,-1216.89"/>
<text text-anchor="middle" x="417.86" y="-1166.24" font-family="Arial" font-size="20.00" fill="darkgreen">start_next: 03/11/18, 15:06:04</text>
<text text-anchor="middle" x="417.86" y="-1144.24" font-family="Arial" font-size="20.00" fill="darkgreen">gap: &#45;81sec</text>
<text text-anchor="middle" x="417.86" y="-1122.24" font-family="Arial" font-size="20.00" fill="darkgreen">end_prev: 03/11/18, 15:07:25</text>
</g>
<!-- ARBITRARY CODE EXECUTION
remoteware&#45;cl | ID: 398&#45;&gt;ROOT PRIVILEGE ESCALATION
remoteware&#45;cl | ID: 157 -->
<g id="edge19" class="edge">
<title>ARBITRARY CODE EXECUTION
remoteware&#45;cl | ID: 398&#45;&gt;ROOT PRIVILEGE ESCALATION
remoteware&#45;cl | ID: 157</title>
<path fill="none" stroke="darkgreen" stroke-width="5" d="M534.24,-1105.41C538.6,-1108.65 542.68,-1112.25 546.36,-1116.24 566.74,-1138.36 540.83,-1160.25 561.36,-1182.24 561.69,-1182.6 562.03,-1182.95 562.37,-1183.3"/>
<polygon fill="darkgreen" stroke="darkgreen" stroke-width="5" points="559.59,-1186.69 569.94,-1190.17 565.47,-1180.21 559.59,-1186.69"/>
<text text-anchor="middle" x="692.86" y="-1166.24" font-family="Arial" font-size="20.00" fill="darkgreen">start_next: 03/11/18, 18:07:49</text>
<text text-anchor="middle" x="692.86" y="-1144.24" font-family="Arial" font-size="20.00" fill="darkgreen">gap: &#45;71sec</text>
<text text-anchor="middle" x="692.86" y="-1122.24" font-family="Arial" font-size="20.00" fill="darkgreen">end_prev: 03/11/18, 18:09:00</text>
</g>
<!-- ARBITRARY CODE EXECUTION
remoteware&#45;cl | ID: 398&#45;&gt;ROOT PRIVILEGE ESCALATION
remoteware&#45;cl | ID: 157 -->
<g id="edge28" class="edge">
<title>ARBITRARY CODE EXECUTION
remoteware&#45;cl | ID: 398&#45;&gt;ROOT PRIVILEGE ESCALATION
remoteware&#45;cl | ID: 157</title>
<path fill="none" stroke="magenta" stroke-width="5" d="M607.08,-1083.65C704.42,-1089.47 806.19,-1099.49 821.36,-1116.24 841.05,-1137.99 839.19,-1158.95 821.36,-1182.24 820.97,-1182.76 820.53,-1183.27 820.06,-1183.77"/>
<polygon fill="magenta" stroke="magenta" stroke-width="5" points="817.16,-1180.48 811.81,-1189.99 822.43,-1187.46 817.16,-1180.48"/>
<text text-anchor="middle" x="967.86" y="-1166.24" font-family="Arial" font-size="20.00" fill="magenta">start_next: 03/11/18, 15:48:40</text>
<text text-anchor="middle" x="967.86" y="-1144.24" font-family="Arial" font-size="20.00" fill="magenta">gap: &#45;72sec</text>
<text text-anchor="middle" x="967.86" y="-1122.24" font-family="Arial" font-size="20.00" fill="magenta">end_prev: 03/11/18, 15:49:52</text>
</g>
<!-- DATA MANIPULATION
remoteware&#45;cl | ID: 23 -->
<g id="node11" class="node">
<title>DATA MANIPULATION
remoteware&#45;cl | ID: 23</title>
<g id="a_node11"><a xlink:title="ET WEB_SERVER Possible SQL Injection Attempt SELECT FROM&#10;ET WEB_SERVER Possible SQL Injection Attempt UNION SELECT">
<polygon fill="none" stroke="black" stroke-width="3" points="1276.57,-1381.23 1169.96,-1430.21 956.75,-1430.21 850.15,-1381.23 956.75,-1332.25 1169.96,-1332.25 1276.57,-1381.23"/>
<text text-anchor="middle" x="1063.36" y="-1388.03" font-family="Arial" font-size="24.00">DATA MANIPULATION</text>
<text text-anchor="middle" x="1063.36" y="-1362.03" font-family="Arial" font-size="24.00">remoteware&#45;cl | ID: 23</text>
</a>
</g>
</g>
<!-- ROOT PRIVILEGE ESCALATION
remoteware&#45;cl | ID: 157&#45;&gt;DATA MANIPULATION
remoteware&#45;cl | ID: 23 -->
<g id="edge9" class="edge">
<title>ROOT PRIVILEGE ESCALATION
remoteware&#45;cl | ID: 157&#45;&gt;DATA MANIPULATION
remoteware&#45;cl | ID: 23</title>
<path fill="none" stroke="darkgreen" stroke-width="5" d="M803.68,-1250.3C806.76,-1252.74 809.66,-1255.38 812.36,-1258.24 833.01,-1280.12 806.19,-1302.87 827.36,-1324.24 838.76,-1335.75 864.61,-1345.4 895.21,-1353.26"/>
<polygon fill="darkgreen" stroke="darkgreen" stroke-width="5" points="894.54,-1357.6 905.3,-1355.75 896.64,-1349.11 894.54,-1357.6"/>
<text text-anchor="middle" x="958.86" y="-1308.24" font-family="Arial" font-size="20.00" fill="darkgreen">start_next: 03/11/18, 15:07:00</text>
<text text-anchor="middle" x="958.86" y="-1286.24" font-family="Arial" font-size="20.00" fill="darkgreen">gap: &#45;148sec</text>
<text text-anchor="middle" x="958.86" y="-1264.24" font-family="Arial" font-size="20.00" fill="darkgreen">end_prev: 03/11/18, 15:09:29</text>
</g>
<!-- ROOT PRIVILEGE ESCALATION
remoteware&#45;cl | ID: 157&#45;&gt;DATA MANIPULATION
remoteware&#45;cl | ID: 23 -->
<g id="edge20" class="edge">
<title>ROOT PRIVILEGE ESCALATION
remoteware&#45;cl | ID: 157&#45;&gt;DATA MANIPULATION
remoteware&#45;cl | ID: 23</title>
<path fill="none" stroke="darkgreen" stroke-width="5" d="M871.94,-1227.15C969.68,-1232.22 1072.07,-1241.49 1087.36,-1258.24 1103.14,-1275.54 1101.24,-1300.09 1093.8,-1322.64"/>
<polygon fill="darkgreen" stroke="darkgreen" stroke-width="5" points="1089.65,-1321.26 1090.31,-1332.15 1097.86,-1324.27 1089.65,-1321.26"/>
<text text-anchor="middle" x="1231.86" y="-1308.24" font-family="Arial" font-size="20.00" fill="darkgreen">start_next: 03/11/18, 18:08:43</text>
<text text-anchor="middle" x="1231.86" y="-1286.24" font-family="Arial" font-size="20.00" fill="darkgreen">gap: &#45;147sec</text>
<text text-anchor="middle" x="1231.86" y="-1264.24" font-family="Arial" font-size="20.00" fill="darkgreen">end_prev: 03/11/18, 18:11:10</text>
</g>
<!-- ROOT PRIVILEGE ESCALATION
remoteware&#45;cl | ID: 157&#45;&gt;DATA MANIPULATION
remoteware&#45;cl | ID: 23 -->
<g id="edge29" class="edge">
<title>ROOT PRIVILEGE ESCALATION
remoteware&#45;cl | ID: 157&#45;&gt;DATA MANIPULATION
remoteware&#45;cl | ID: 23</title>
<path fill="none" stroke="magenta" stroke-width="5" d="M558.28,-1250.28C553.93,-1252.77 550.51,-1255.42 548.36,-1258.24 530.55,-1281.55 528.77,-1302.41 548.36,-1324.24 569.69,-1348.02 725.96,-1362.65 860.82,-1370.96"/>
<polygon fill="magenta" stroke="magenta" stroke-width="5" points="860.65,-1375.34 870.9,-1371.58 861.19,-1366.6 860.65,-1375.34"/>
<text text-anchor="middle" x="679.86" y="-1308.24" font-family="Arial" font-size="20.00" fill="magenta">start_next: 03/11/18, 15:49:34</text>
<text text-anchor="middle" x="679.86" y="-1286.24" font-family="Arial" font-size="20.00" fill="magenta">gap: &#45;146sec</text>
<text text-anchor="middle" x="679.86" y="-1264.24" font-family="Arial" font-size="20.00" fill="magenta">end_prev: 03/11/18, 15:52:00</text>
</g>
<!-- DATA MANIPULATION
remoteware&#45;cl | ID: 23&#45;&gt;SURFING
remoteware&#45;cl -->
<g id="edge10" class="edge">
<title>DATA MANIPULATION
remoteware&#45;cl | ID: 23&#45;&gt;SURFING
remoteware&#45;cl</title>
<path fill="none" stroke="darkgreen" stroke-width="5" d="M1236.35,-1362.51C1291.38,-1353.84 1343.42,-1341.46 1364.36,-1324.24 1402.42,-1292.96 1405.36,-1270.51 1405.36,-1221.24 1405.36,-555.98 1405.36,-555.98 1405.36,-555.98 1405.36,-506.04 1367.61,-463.38 1331.46,-433.98"/>
<polygon fill="darkgreen" stroke="darkgreen" stroke-width="5" points="1333.86,-430.3 1323.3,-427.54 1328.43,-437.17 1333.86,-430.3"/>
<text text-anchor="middle" x="1536.86" y="-934.82" font-family="Arial" font-size="20.00" fill="darkgreen">start_next: 03/11/18, 15:07:02</text>
<text text-anchor="middle" x="1536.86" y="-912.82" font-family="Arial" font-size="20.00" fill="darkgreen">gap: &#45;97sec</text>
<text text-anchor="middle" x="1536.86" y="-890.82" font-family="Arial" font-size="20.00" fill="darkgreen">end_prev: 03/11/18, 15:08:39</text>
</g>
<!-- REMOTE SERVICE EXPLOIT
remoteware&#45;cl | ID: 517 -->
<g id="node14" class="node">
<title>REMOTE SERVICE EXPLOIT
remoteware&#45;cl | ID: 517</title>
<g id="a_node14"><a xlink:title="ET WEB_SERVER Script tag in URI Possible Cross Site Scripting Attempt">
<polygon fill="none" stroke="black" stroke-width="3" stroke-dasharray="1,5" points="1438.36,-1572.22 1100.36,-1572.22 1100.36,-1512.22 1438.36,-1512.22 1438.36,-1572.22"/>
<text text-anchor="middle" x="1269.36" y="-1549.02" font-family="Arial" font-size="24.00">REMOTE SERVICE EXPLOIT</text>
<text text-anchor="middle" x="1269.36" y="-1523.02" font-family="Arial" font-size="24.00">remoteware&#45;cl | ID: 517</text>
</a>
</g>
</g>
<!-- DATA MANIPULATION
remoteware&#45;cl | ID: 23&#45;&gt;REMOTE SERVICE EXPLOIT
remoteware&#45;cl | ID: 517 -->
<g id="edge21" class="edge">
<title>DATA MANIPULATION
remoteware&#45;cl | ID: 23&#45;&gt;REMOTE SERVICE EXPLOIT
remoteware&#45;cl | ID: 517</title>
<path fill="none" stroke="darkgreen" stroke-width="5" d="M1233.23,-1401.18C1276.09,-1409.6 1313.83,-1421.52 1327.36,-1438.22 1344.09,-1458.88 1342.08,-1475.18 1326.95,-1503.1"/>
<polygon fill="darkgreen" stroke="darkgreen" stroke-width="5" points="1322.94,-1501.3 1321.84,-1512.16 1330.56,-1505.6 1322.94,-1501.3"/>
<text text-anchor="middle" x="1470.86" y="-1488.22" font-family="Arial" font-size="20.00" fill="darkgreen">start_next: 03/11/18, 18:08:43</text>
<text text-anchor="middle" x="1470.86" y="-1466.22" font-family="Arial" font-size="20.00" fill="darkgreen">gap: &#45;96sec</text>
<text text-anchor="middle" x="1470.86" y="-1444.22" font-family="Arial" font-size="20.00" fill="darkgreen">end_prev: 03/11/18, 18:10:19</text>
</g>
<!-- DATA MANIPULATION
remoteware&#45;cl | ID: 23&#45;&gt;REMOTE SERVICE EXPLOIT
remoteware&#45;cl | ID: 517 -->
<g id="edge30" class="edge">
<title>DATA MANIPULATION
remoteware&#45;cl | ID: 23&#45;&gt;REMOTE SERVICE EXPLOIT
remoteware&#45;cl | ID: 517</title>
<path fill="none" stroke="magenta" stroke-width="5" d="M1049.87,-1430.32C1045.99,-1455.06 1046.58,-1484.16 1063.36,-1504.22 1068.51,-1510.39 1078.04,-1515.52 1090.26,-1519.81"/>
<polygon fill="magenta" stroke="magenta" stroke-width="5" points="1089.26,-1524.08 1100.11,-1522.92 1091.89,-1515.74 1089.26,-1524.08"/>
<text text-anchor="middle" x="1194.86" y="-1488.22" font-family="Arial" font-size="20.00" fill="magenta">start_next: 03/11/18, 15:49:34</text>
<text text-anchor="middle" x="1194.86" y="-1466.22" font-family="Arial" font-size="20.00" fill="magenta">gap: &#45;95sec</text>
<text text-anchor="middle" x="1194.86" y="-1444.22" font-family="Arial" font-size="20.00" fill="magenta">end_prev: 03/11/18, 15:51:09</text>
</g>
<!-- SURFING
remoteware&#45;cl&#45;&gt;VULNERABILTY DISCOVERY
remoteware&#45;cl -->
<g id="edge25" class="edge">
<title>SURFING
remoteware&#45;cl&#45;&gt;VULNERABILTY DISCOVERY
remoteware&#45;cl</title>
<path fill="none" stroke="magenta" stroke-width="5" d="M1145.97,-390.92C1041.66,-393.33 901.24,-403.66 860.36,-440.56 838.03,-460.71 867.03,-485.7 845.36,-506.56 835.19,-516.34 815.08,-524.26 790.29,-530.65"/>
<polygon fill="magenta" stroke="magenta" stroke-width="5" points="789.25,-526.4 780.57,-533.03 791.32,-534.9 789.25,-526.4"/>
<text text-anchor="middle" x="991.86" y="-490.56" font-family="Arial" font-size="20.00" fill="magenta">start_next: 03/11/18, 15:48:19</text>
<text text-anchor="middle" x="991.86" y="-468.56" font-family="Arial" font-size="20.00" fill="magenta">gap: &#45;540sec</text>
<text text-anchor="middle" x="991.86" y="-446.56" font-family="Arial" font-size="20.00" fill="magenta">end_prev: 03/11/18, 15:57:18</text>
</g>
<!-- ACCOUNT MANIPULATION
remoteware&#45;cl | ID: 239 -->
<g id="node13" class="node">
<title>ACCOUNT MANIPULATION
remoteware&#45;cl | ID: 239</title>
<g id="a_node13"><a xlink:title="GPL EXPLOIT /iisadmpwd/aexp2.htr access&#10;ET WEB_SERVER SELECT USER SQL Injection Attempt in URI">
<polygon fill="none" stroke="black" stroke-width="3" stroke-dasharray="1,5" points="1567.36,-1714.22 1247.36,-1714.22 1247.36,-1654.22 1567.36,-1654.22 1567.36,-1714.22"/>
<text text-anchor="middle" x="1407.36" y="-1691.02" font-family="Arial" font-size="24.00">ACCOUNT MANIPULATION</text>
<text text-anchor="middle" x="1407.36" y="-1665.02" font-family="Arial" font-size="24.00">remoteware&#45;cl | ID: 239</text>
</a>
</g>
</g>
<!-- SURFING
remoteware&#45;cl&#45;&gt;ACCOUNT MANIPULATION
remoteware&#45;cl | ID: 239 -->
<g id="edge11" class="edge">
<title>SURFING
remoteware&#45;cl&#45;&gt;ACCOUNT MANIPULATION
remoteware&#45;cl | ID: 239</title>
<path fill="none" stroke="darkgreen" stroke-width="5" d="M1370.58,-411.29C1492.92,-438 1679.36,-489.59 1679.36,-555.98 1679.36,-555.98 1679.36,-555.98 1679.36,-1543.22 1679.36,-1589.14 1702.81,-1612.77 1671.36,-1646.22 1656.99,-1661.51 1619.67,-1670.61 1577.46,-1675.99"/>
<polygon fill="darkgreen" stroke="darkgreen" stroke-width="5" points="1576.93,-1671.65 1567.52,-1677.18 1577.97,-1680.34 1576.93,-1671.65"/>
<text text-anchor="middle" x="1810.86" y="-1092.24" font-family="Arial" font-size="20.00" fill="darkgreen">start_next: 03/11/18, 15:07:28</text>
<text text-anchor="middle" x="1810.86" y="-1070.24" font-family="Arial" font-size="20.00" fill="darkgreen">gap: &#45;453sec</text>
<text text-anchor="middle" x="1810.86" y="-1048.24" font-family="Arial" font-size="20.00" fill="darkgreen">end_prev: 03/11/18, 15:15:00</text>
</g>
<!-- ACCOUNT MANIPULATION
remoteware&#45;cl | ID: 239&#45;&gt;RESOURCE HIJACKING
remoteware&#45;cl | ID: 61 -->
<g id="edge12" class="edge">
<title>ACCOUNT MANIPULATION
remoteware&#45;cl | ID: 239&#45;&gt;RESOURCE HIJACKING
remoteware&#45;cl | ID: 61</title>
<path fill="none" stroke="darkgreen" stroke-width="5" d="M1247.33,-1689.58C1197.86,-1694.54 1152.17,-1704.11 1136.36,-1722.22 1117.07,-1744.32 1117.83,-1765.48 1136.36,-1788.22 1148.27,-1802.84 1178.34,-1813.76 1214.33,-1821.87"/>
<polygon fill="darkgreen" stroke="darkgreen" stroke-width="5" points="1213.42,-1826.15 1224.11,-1823.98 1215.26,-1817.59 1213.42,-1826.15"/>
<text text-anchor="middle" x="1267.86" y="-1772.22" font-family="Arial" font-size="20.00" fill="darkgreen">start_next: 03/11/18, 15:08:38</text>
<text text-anchor="middle" x="1267.86" y="-1750.22" font-family="Arial" font-size="20.00" fill="darkgreen">gap: &#45;1sec</text>
<text text-anchor="middle" x="1267.86" y="-1728.22" font-family="Arial" font-size="20.00" fill="darkgreen">end_prev: 03/11/18, 15:08:39</text>
</g>
<!-- ACCOUNT MANIPULATION
remoteware&#45;cl | ID: 239&#45;&gt;RESOURCE HIJACKING
remoteware&#45;cl | ID: 61 -->
<g id="edge23" class="edge">
<title>ACCOUNT MANIPULATION
remoteware&#45;cl | ID: 239&#45;&gt;RESOURCE HIJACKING
remoteware&#45;cl | ID: 61</title>
<path fill="none" stroke="darkgreen" stroke-width="5" d="M1407.36,-1714.38C1407.36,-1734.39 1407.36,-1761.61 1407.36,-1785.97"/>
<polygon fill="darkgreen" stroke="darkgreen" stroke-width="5" points="1402.98,-1786.2 1407.36,-1796.2 1411.73,-1786.2 1402.98,-1786.2"/>
<text text-anchor="middle" x="1538.86" y="-1772.22" font-family="Arial" font-size="20.00" fill="darkgreen">start_next: 03/11/18, 18:10:18</text>
<text text-anchor="middle" x="1538.86" y="-1750.22" font-family="Arial" font-size="20.00" fill="darkgreen">gap: &#45;1sec</text>
<text text-anchor="middle" x="1538.86" y="-1728.22" font-family="Arial" font-size="20.00" fill="darkgreen">end_prev: 03/11/18, 18:10:19</text>
</g>
<!-- ACCOUNT MANIPULATION
remoteware&#45;cl | ID: 239&#45;&gt;RESOURCE HIJACKING
remoteware&#45;cl | ID: 61 -->
<g id="edge32" class="edge">
<title>ACCOUNT MANIPULATION
remoteware&#45;cl | ID: 239&#45;&gt;RESOURCE HIJACKING
remoteware&#45;cl | ID: 61</title>
<path fill="none" stroke="magenta" stroke-width="5" d="M1567.55,-1690.51C1614.09,-1695.63 1656.44,-1705.07 1671.36,-1722.22 1690.61,-1744.36 1689.82,-1765.43 1671.36,-1788.22 1660.12,-1802.1 1632.17,-1812.67 1598.45,-1820.69"/>
<polygon fill="magenta" stroke="magenta" stroke-width="5" points="1597.09,-1816.51 1588.31,-1822.98 1599.03,-1825.04 1597.09,-1816.51"/>
<text text-anchor="middle" x="1816.86" y="-1772.22" font-family="Arial" font-size="20.00" fill="magenta">start_next: 03/11/18, 15:51:08</text>
<text text-anchor="middle" x="1816.86" y="-1750.22" font-family="Arial" font-size="20.00" fill="magenta">gap: &#45;1sec</text>
<text text-anchor="middle" x="1816.86" y="-1728.22" font-family="Arial" font-size="20.00" fill="magenta">end_prev: 03/11/18, 15:51:09</text>
</g>
<!-- REMOTE SERVICE EXPLOIT
remoteware&#45;cl | ID: 517&#45;&gt;ACCOUNT MANIPULATION
remoteware&#45;cl | ID: 239 -->
<g id="edge22" class="edge">
<title>REMOTE SERVICE EXPLOIT
remoteware&#45;cl | ID: 517&#45;&gt;ACCOUNT MANIPULATION
remoteware&#45;cl | ID: 239</title>
<path fill="none" stroke="darkgreen" stroke-width="5" d="M1146.05,-1572.38C1141.79,-1574.84 1138.46,-1577.46 1136.36,-1580.22 1118.61,-1603.58 1117.07,-1624.12 1136.36,-1646.22 1151.09,-1663.1 1191.75,-1672.56 1237.25,-1677.78"/>
<polygon fill="darkgreen" stroke="darkgreen" stroke-width="5" points="1236.92,-1682.15 1247.33,-1678.86 1237.85,-1673.45 1236.92,-1682.15"/>
<text text-anchor="middle" x="1267.86" y="-1630.22" font-family="Arial" font-size="20.00" fill="darkgreen">start_next: 03/11/18, 18:09:02</text>
<text text-anchor="middle" x="1267.86" y="-1608.22" font-family="Arial" font-size="20.00" fill="darkgreen">gap: &#45;435sec</text>
<text text-anchor="middle" x="1267.86" y="-1586.22" font-family="Arial" font-size="20.00" fill="darkgreen">end_prev: 03/11/18, 18:16:17</text>
</g>
<!-- REMOTE SERVICE EXPLOIT
remoteware&#45;cl | ID: 517&#45;&gt;ACCOUNT MANIPULATION
remoteware&#45;cl | ID: 239 -->
<g id="edge31" class="edge">
<title>REMOTE SERVICE EXPLOIT
remoteware&#45;cl | ID: 517&#45;&gt;ACCOUNT MANIPULATION
remoteware&#45;cl | ID: 239</title>
<path fill="none" stroke="magenta" stroke-width="5" d="M1388.71,-1572.38C1391.44,-1574.8 1394,-1577.41 1396.36,-1580.22 1404.31,-1589.73 1406.89,-1618.85 1407.58,-1643.71"/>
<polygon fill="magenta" stroke="magenta" stroke-width="5" points="1403.21,-1644.12 1407.76,-1654.04 1411.96,-1643.96 1403.21,-1644.12"/>
<text text-anchor="middle" x="1538.86" y="-1630.22" font-family="Arial" font-size="20.00" fill="magenta">start_next: 03/11/18, 15:49:54</text>
<text text-anchor="middle" x="1538.86" y="-1608.22" font-family="Arial" font-size="20.00" fill="magenta">gap: &#45;428sec</text>
<text text-anchor="middle" x="1538.86" y="-1586.22" font-family="Arial" font-size="20.00" fill="magenta">end_prev: 03/11/18, 15:57:02</text>
</g>
</g>
</svg>
