<?xml version="1.0" encoding="UTF-8" standalone="no"?>
<!DOCTYPE svg PUBLIC "-//W3C//DTD SVG 1.1//EN"
 "http://www.w3.org/Graphics/SVG/1.1/DTD/svg11.dtd">
<!-- Generated by graphviz version 2.50.0 (0)
 -->
<!-- Title: DATADELIVERYhttp Pages: 1 -->
<svg width="1047pt" height="2091pt"
 viewBox="0.00 0.00 1046.57 2090.83" xmlns="http://www.w3.org/2000/svg" xmlns:xlink="http://www.w3.org/1999/xlink">
<g id="graph0" class="graph" transform="scale(1 1) rotate(0) translate(4 2086.83)">
<title>DATADELIVERYhttp</title>
<polygon fill="white" stroke="transparent" points="-4,4 -4,-2086.83 1042.57,-2086.83 1042.57,4 -4,4"/>
<!-- Victim: 10.0.0.23
DATA DELIVERY
http -->
<g id="node1" class="node">
<title>Victim: 10.0.0.23
DATA DELIVERY
http</title>
<polygon fill="salmon" stroke="black" stroke-width="3" points="439.59,-1985.81 439.59,-2040.2 349.88,-2078.66 223.01,-2078.66 133.3,-2040.2 133.3,-1985.81 223.01,-1947.35 349.88,-1947.35 439.59,-1985.81"/>
<polygon fill="none" stroke="black" stroke-width="3" points="443.59,-1983.18 443.59,-2042.83 350.7,-2082.65 222.19,-2082.65 129.3,-2042.83 129.3,-1983.18 222.19,-1943.36 350.7,-1943.36 443.59,-1983.18"/>
<text text-anchor="middle" x="286.45" y="-2032.8" font-family="Arial" font-size="24.00">Victim: 10.0.0.23</text>
<text text-anchor="middle" x="286.45" y="-2006.8" font-family="Arial" font-size="24.00">DATA DELIVERY</text>
<text text-anchor="middle" x="286.45" y="-1980.8" font-family="Arial" font-size="24.00">http</text>
</g>
<!-- DATA DELIVERY
http | ID: 19 -->
<g id="node2" class="node">
<title>DATA DELIVERY
http | ID: 19</title>
<g id="a_node2"><a xlink:title="ET WEB_SPECIFIC_APPS PHP&#45;Paid4Mail RFI attempt &#10;ET WEB_SPECIFIC_APPS Possible eFront database.php Remote File Inclusion Attempt&#10;ET WEB_SPECIFIC_APPS MAXcms fm_includes_special Parameter Remote File Inclusion Attempt&#10;ET WEB_SPECIFIC_APPS PHP Aardvark Topsites PHP CONFIG PATH Remote File Include Attempt&#10;ET WEB_SPECIFIC_APPS Possible Mambo/Joomla! com_koesubmit Component &#39;koesubmit.php&#39; Remote File Inclusion Attempt&#10;ET WEB_SPECIFIC_APPS SERWeb load_lang.php configdir Parameter Remote File Inclusion&#10;ET WEB_SPECIFIC_APPS TECHNOTE shop_this_skin_path Parameter Remote File Inclusion&#10;ET WEB_SPECIFIC_APPS p&#45;Table for WordPress wptable&#45;tinymce.php ABSPATH Parameter RFI Attempt&#10;ET WEB_SPECIFIC_APPS ProjectButler RFI attempt &#10;ET WEB_SPECIFIC_APPS PHPOF DB_AdoDB.Class.PHP PHPOF_INCLUDE_PATH parameter Remote File Inclusion&#10;ET WEB_SPECIFIC_APPS SAPID get_infochannel.inc.php Remote File inclusion Attempt&#10;ET WEB_SPECIFIC_APPS Joomla Onguma Time Sheet Component onguma.class.php mosConfig_absolute_path Parameter Remote File Inclusion&#10;ET WEB_SPECIFIC_APPS phptraverse mp3_id.php GLOBALS Parameter Remote File Inclusion Attempt&#10;ET WEB_SPECIFIC_APPS Sisplet CMS komentar.php site_path Parameter Remote File Inclusion Attempt&#10;ET WEB_SPECIFIC_APPS SERWeb main_prepend.php functionsdir Parameter Remote File Inclusion&#10;ET WEB_SPECIFIC_APPS Mambo Component com_smf smf.php Remote File Inclusion Attempt&#10;ET WEB_SPECIFIC_APPS OpenX phpAdsNew phpAds_geoPlugin Parameter Remote File Inclusion Attempt&#10;ET WEB_SPECIFIC_APPS Enthusiast path parameter Remote File Inclusion&#10;ET WEB_SPECIFIC_APPS ProdLer prodler.class.php sPath Parameter Remote File Inclusion Attempt&#10;ET WEB_SPECIFIC_APPS PHP Classifieds class.phpmailer.php lang_path Parameter Remote File Inclusion Attempt&#10;ET WEB_SPECIFIC_APPS Joomla Simple RSS Reader admin.rssreader.php mosConfig_live_site Parameter Remote File Inclusion&#10;ET WEB_SPECIFIC_APPS Possible OpenSiteAdmin pageHeader.php Remote File Inclusion Attempt&#10;ET WEB_SPECIFIC_APPS phpSkelSite theme parameter remote file inclusion&#10;ET WEB_SPECIFIC_APPS PointComma pctemplate.php pcConfig Parameter Remote File Inclusion Attempt&#10;ET WEB_SPECIFIC_APPS phPortal gunaysoft.php icerikyolu Parameter Remote File Inclusion&#10;ET WEB_SPECIFIC_APPS OBOphiX fonctions_racine.php chemin_lib parameter Remote File Inclusion Attempt&#10;ET WEB_SPECIFIC_APPS PHP phpMyAgenda rootagenda Remote File Include Attempt&#10;ET WEB_SPECIFIC_APPS Ve&#45;EDIT edit_htmlarea.php highlighter Parameter Remote File Inclusion&#10;ET WEB_SPECIFIC_APPS MODx CMS snippet.reflect.php reflect_base Remote File Inclusion&#10;ET WEB_SPECIFIC_APPS phPortal gunaysoft.php sayfaid Parameter Remote File Inclusion&#10;ET WEB_SPECIFIC_APPS YapBB class_yapbbcooker.php cfgIncludeDirectory Parameter Remote File Inclusion">
<polygon fill="salmon" stroke="black" stroke-width="3" points="449.54,-1877.19 368,-1926.17 204.9,-1926.17 123.35,-1877.19 204.9,-1828.21 368,-1828.21 449.54,-1877.19"/>
<text text-anchor="middle" x="286.45" y="-1883.99" font-family="Arial" font-size="24.00">DATA DELIVERY</text>
<text text-anchor="middle" x="286.45" y="-1857.99" font-family="Arial" font-size="24.00">http | ID: 19</text>
</a>
</g>
</g>
<!-- DATA DELIVERY
http | ID: 19&#45;&gt;Victim: 10.0.0.23
DATA DELIVERY
http -->
<g id="edge1" class="edge">
<title>DATA DELIVERY
http | ID: 19&#45;&gt;Victim: 10.0.0.23
DATA DELIVERY
http</title>
<path fill="none" stroke="black" stroke-width="5" d="M286.45,-1926.5C286.45,-1928.61 286.45,-1930.74 286.45,-1932.89"/>
<polygon fill="black" stroke="black" stroke-width="5" points="282.07,-1933.04 286.45,-1943.04 290.82,-1933.04 282.07,-1933.04"/>
</g>
<!-- HOST DISCOVERY
http -->
<g id="node3" class="node">
<title>HOST DISCOVERY
http</title>
<g id="a_node3"><a xlink:title="ET SCAN Nmap Scripting Engine User&#45;Agent Detected (Nmap Scripting Engine)&#10;ET SCAN Possible Nmap User&#45;Agent Observed">
<ellipse fill="yellow" stroke="black" stroke-width="3" cx="347.45" cy="-42.43" rx="162.77" ry="42.35"/>
<text text-anchor="middle" x="347.45" y="-49.23" font-family="Arial" font-size="24.00">HOST DISCOVERY</text>
<text text-anchor="middle" x="347.45" y="-23.23" font-family="Arial" font-size="24.00">http</text>
</a>
</g>
</g>
<!-- VULNERABILTY DISCOVERY
mysql -->
<g id="node4" class="node">
<title>VULNERABILTY DISCOVERY
mysql</title>
<g id="a_node4"><a xlink:title="ET SCAN Suspicious inbound to mySQL port 3306&#10;ET SCAN Suspicious inbound to MSSQL port 1433&#10;ET SCAN Nikto Web App Scan in Progress&#10;ET SCAN Suspicious inbound to PostgreSQL port 5432&#10;ET SCAN Suspicious inbound to Oracle SQL port 1521&#10;ET SCAN Suspicious inbound to mSQL port 4333">
<ellipse fill="none" stroke="black" stroke-width="3" cx="347.45" cy="-223.28" rx="241.25" ry="42.35"/>
<text text-anchor="middle" x="347.45" y="-230.08" font-family="Arial" font-size="24.00">VULNERABILTY DISCOVERY</text>
<text text-anchor="middle" x="347.45" y="-204.08" font-family="Arial" font-size="24.00">mysql</text>
</a>
</g>
</g>
<!-- HOST DISCOVERY
http&#45;&gt;VULNERABILTY DISCOVERY
mysql -->
<g id="edge2" class="edge">
<title>HOST DISCOVERY
http&#45;&gt;VULNERABILTY DISCOVERY
mysql</title>
<path fill="none" stroke="darkgreen" stroke-width="5" d="M347.45,-84.91C347.45,-110.44 347.45,-143.37 347.45,-170.59"/>
<polygon fill="darkgreen" stroke="darkgreen" stroke-width="5" points="343.07,-170.71 347.45,-180.71 351.82,-170.71 343.07,-170.71"/>
<text text-anchor="start" x="347.45" y="-157.85" font-family="Arial" font-size="20.00" fill="darkgreen"> start_next: 03/11/18, 14:52:49</text>
<text text-anchor="start" x="437.95" y="-137.85" font-family="Arial" font-size="20.00" fill="darkgreen">gap: 4sec</text>
<text text-anchor="start" x="351.45" y="-117.85" font-family="Arial" font-size="20.00" fill="darkgreen">end_prev: 03/11/18, 14:52:45</text>
<text text-anchor="start" x="376.45" y="-97.85" font-family="Arial" font-weight="bold" font-size="20.00" fill="darkgreen">Attacker: 10.0.254.201</text>
</g>
<!-- INFO DISCOVERY
http -->
<g id="node5" class="node">
<title>INFO DISCOVERY
http</title>
<g id="a_node5"><a xlink:title="GPL WEB_SERVER viewcode access&#10;GPL WEB_SERVER .htaccess access&#10;GPL WEB_SERVER writeto.cnf access&#10;GPL WEB_SERVER iisadmin access&#10;ET WEB_SERVER PHP Easteregg Information&#45;Disclosure (funny&#45;logo)&#10;ET WEB_SPECIFIC_APPS Request to Wordpress W3TC Plug&#45;in dbcache Directory&#10;GPL WEB_SERVER services.cnf access&#10;ET WEB_SERVER PHP Easteregg Information&#45;Disclosure (zend&#45;logo)&#10;GPL EXPLOIT unicode directory traversal attempt&#10;ET WEB_SERVER PHP Easteregg Information&#45;Disclosure (php&#45;logo)&#10;GPL WEB_SERVER service.cnf access&#10;GPL EXPLOIT iisadmpwd attempt&#10;ET WEB_SERVER PHP SESSION SuperGlobal in URI&#10;GPL WEB_SERVER /~root access&#10;GPL WEB_SERVER authors.pwd access&#10;ET WEB_SERVER PHP ENV SuperGlobal in URI&#10;GPL EXPLOIT .cnf access&#10;ET POLICY Proxy TRACE Request &#45; inbound&#10;GPL WEB_SERVER .htpasswd access&#10;GPL WEB_SERVER global.asa access&#10;ET WEB_SERVER PHP SERVER SuperGlobal in URI&#10;GPL EXPLOIT fpcount access&#10;GPL WEB_SERVER globals.pl access&#10;GPL WEB_SERVER 403 Forbidden&#10;GPL WEB_SERVER service.pwd&#10;GPL EXPLOIT ISAPI .idq attempt&#10;ET WEB_SERVER PHP Easteregg Information&#45;Disclosure (phpinfo)&#10;GPL WEB_SERVER printenv access&#10;GPL WEB_SERVER author.exe access&#10;GPL EXPLOIT iissamples access&#10;GPL EXPLOIT .htr access&#10;ET WEB_SERVER PHP REQUEST SuperGlobal in URI">
<ellipse fill="yellow" stroke="black" stroke-width="3" cx="347.45" cy="-390.13" rx="156.04" ry="42.35"/>
<text text-anchor="middle" x="347.45" y="-396.93" font-family="Arial" font-size="24.00">INFO DISCOVERY</text>
<text text-anchor="middle" x="347.45" y="-370.93" font-family="Arial" font-size="24.00">http</text>
</a>
</g>
</g>
<!-- VULNERABILTY DISCOVERY
mysql&#45;&gt;INFO DISCOVERY
http -->
<g id="edge3" class="edge">
<title>VULNERABILTY DISCOVERY
mysql&#45;&gt;INFO DISCOVERY
http</title>
<path fill="none" stroke="darkgreen" stroke-width="5" d="M347.45,-265.88C347.45,-287.55 347.45,-314.26 347.45,-337.27"/>
<polygon fill="darkgreen" stroke="darkgreen" stroke-width="5" points="343.07,-337.55 347.45,-347.55 351.82,-337.55 343.07,-337.55"/>
<text text-anchor="middle" x="478.95" y="-323.71" font-family="Arial" font-size="20.00" fill="darkgreen">start_next: 03/11/18, 14:52:49</text>
<text text-anchor="middle" x="478.95" y="-301.71" font-family="Arial" font-size="20.00" fill="darkgreen">gap: &#45;313sec</text>
<text text-anchor="middle" x="478.95" y="-279.71" font-family="Arial" font-size="20.00" fill="darkgreen">end_prev: 03/11/18, 14:58:02</text>
</g>
<!-- DATA EXFILTRATION
http | ID: 15 -->
<g id="node6" class="node">
<title>DATA EXFILTRATION
http | ID: 15</title>
<g id="a_node6"><a xlink:title="GPL WEB_SERVER Tomcat server snoop access&#10;GPL EXPLOIT ISAPI .ida access&#10;GPL EXPLOIT /msadc/samples/ access&#10;ET WEB_SERVER ColdFusion componentutils access&#10;ET WEB_SERVER /system32/ in Uri &#45; Possible Protected Directory Access Attempt&#10;ET WEB_SPECIFIC_APPS PHP&#45;CGI query string parameter vulnerability&#10;ET WEB_SERVER Possible XXE SYSTEM ENTITY in POST BODY.&#10;ET WEB_SERVER /etc/shadow Detected in URI&#10;GPL EXPLOIT ISAPI .idq access">
<polygon fill="none" stroke="black" stroke-width="3" points="491.33,-744.4 388.89,-793.38 184.01,-793.38 81.56,-744.4 184.01,-695.42 388.89,-695.42 491.33,-744.4"/>
<text text-anchor="middle" x="286.45" y="-751.2" font-family="Arial" font-size="24.00">DATA EXFILTRATION</text>
<text text-anchor="middle" x="286.45" y="-725.2" font-family="Arial" font-size="24.00">http | ID: 15</text>
</a>
</g>
</g>
<!-- INFO DISCOVERY
http&#45;&gt;DATA EXFILTRATION
http | ID: 15 -->
<g id="edge4" class="edge">
<title>INFO DISCOVERY
http&#45;&gt;DATA EXFILTRATION
http | ID: 15</title>
<path fill="none" stroke="darkgreen" stroke-width="5" d="M210.92,-411.01C139.91,-429.03 59.04,-463.34 15.45,-528.56 -5.51,-559.91 -4.64,-581.49 15.45,-613.41 43.78,-658.43 92.51,-688.2 140.91,-707.74"/>
<polygon fill="darkgreen" stroke="darkgreen" stroke-width="5" points="139.35,-711.83 150.26,-711.39 142.53,-703.68 139.35,-711.83"/>
<text text-anchor="middle" x="146.95" y="-587.98" font-family="Arial" font-size="20.00" fill="darkgreen">start_next: 03/11/18, 14:52:50</text>
<text text-anchor="middle" x="146.95" y="-565.98" font-family="Arial" font-size="20.00" fill="darkgreen">gap: &#45;24sec</text>
<text text-anchor="middle" x="146.95" y="-543.98" font-family="Arial" font-size="20.00" fill="darkgreen">end_prev: 03/11/18, 14:53:13</text>
</g>
<!-- INFO DISCOVERY
http&#45;&gt;DATA EXFILTRATION
http | ID: 15 -->
<g id="edge13" class="edge">
<title>INFO DISCOVERY
http&#45;&gt;DATA EXFILTRATION
http | ID: 15</title>
<path fill="none" stroke="magenta" stroke-width="5" d="M325.19,-432.18C312.01,-458.8 296.54,-494.72 289.45,-528.56 278.53,-580.61 278.84,-641.32 281.26,-684.9"/>
<polygon fill="magenta" stroke="magenta" stroke-width="5" points="276.91,-685.32 281.88,-695.04 285.64,-684.79 276.91,-685.32"/>
<text text-anchor="middle" x="420.95" y="-587.98" font-family="Arial" font-size="20.00" fill="magenta">start_next: 03/11/18, 15:24:01</text>
<text text-anchor="middle" x="420.95" y="-565.98" font-family="Arial" font-size="20.00" fill="magenta">gap: &#45;9sec</text>
<text text-anchor="middle" x="420.95" y="-543.98" font-family="Arial" font-size="20.00" fill="magenta">end_prev: 03/11/18, 15:24:10</text>
</g>
<!-- VULNERABILTY DISCOVERY
http -->
<g id="node13" class="node">
<title>VULNERABILTY DISCOVERY
http</title>
<g id="a_node13"><a xlink:title="ET SCAN Nikto Web App Scan in Progress">
<ellipse fill="yellow" stroke="black" stroke-width="3" cx="797.45" cy="-570.98" rx="241.25" ry="42.35"/>
<text text-anchor="middle" x="797.45" y="-577.78" font-family="Arial" font-size="24.00">VULNERABILTY DISCOVERY</text>
<text text-anchor="middle" x="797.45" y="-551.78" font-family="Arial" font-size="24.00">http</text>
</a>
</g>
</g>
<!-- INFO DISCOVERY
http&#45;&gt;VULNERABILTY DISCOVERY
http -->
<g id="edge21" class="edge">
<title>INFO DISCOVERY
http&#45;&gt;VULNERABILTY DISCOVERY
http</title>
<path fill="none" stroke="magenta" stroke-width="5" d="M355.63,-432.62C363.86,-462.4 379.74,-500.66 409.45,-520.56 422.48,-529.29 534.85,-526.81 550.45,-528.56 574.09,-531.2 598.91,-534.61 623.32,-538.33"/>
<polygon fill="magenta" stroke="magenta" stroke-width="5" points="622.83,-542.68 633.38,-539.89 624.17,-534.04 622.83,-542.68"/>
<text text-anchor="start" x="409.45" y="-505.56" font-family="Arial" font-size="20.00" fill="magenta"> start_next: 03/11/18, 15:17:47</text>
<text text-anchor="start" x="496.45" y="-485.56" font-family="Arial" font-size="20.00" fill="magenta">gap: &#45;9sec</text>
<text text-anchor="start" x="413.45" y="-465.56" font-family="Arial" font-size="20.00" fill="magenta">end_prev: 03/11/18, 15:17:56</text>
<text text-anchor="start" x="438.45" y="-445.56" font-family="Arial" font-weight="bold" font-size="20.00" fill="magenta">Attacker: 10.0.254.203</text>
</g>
<!-- ARBITRARY CODE EXECUTION
http | ID: 353 -->
<g id="node7" class="node">
<title>ARBITRARY CODE EXECUTION
http | ID: 353</title>
<g id="a_node7"><a xlink:title="ET CURRENT_EVENTS QNAP Shellshock CVE&#45;2014&#45;6271&#10;ET WEB_SPECIFIC_APPS DesktopOnNet don3_requiem.php app_path Parameter Remote File Inclusion&#10;ET WEB_SPECIFIC_APPS Horde type Parameter Local File Inclusion Attempt&#10;ET WEB_SPECIFIC_APPS KR&#45;Web krgourl.php DOCUMENT_ROOT Parameter Remote File Inclusion Attempt&#10;ET WEB_SERVER Possible CVE&#45;2014&#45;6271 Attempt in Headers&#10;ET WEB_SPECIFIC_APPS BASE base_stat_common.php remote file include&#10;ET WEB_SPECIFIC_APPS Golem Gaming Portal root_path Parameter Remote File inclusion Attempt&#10;ET WEB_SPECIFIC_APPS Joomla swMenuPro ImageManager.php Remote File Inclusion Attempt&#10;ET WEB_SPECIFIC_APPS FormMailer formmailer.admin.inc.php BASE_DIR Parameter Remote File Inclusion Attempt&#10;ET WEB_SPECIFIC_APPS AjaxPortal di.php pathtoserverdata Parameter Remote File Inclusion Attempt&#10;ET WEB_SERVER cmd.exe In URI &#45; Possible Command Execution Attempt&#10;ET WEB_SPECIFIC_APPS KingCMS menu.php CONFIG Parameter Remote File Inclusion&#10;ETPRO WEB_SPECIFIC_APPS PHPMoAdmin RCE Attempt&#10;ET WEB_SERVER Exploit Suspected PHP Injection Attack (cmd=)&#10;ET WEB_SPECIFIC_APPS Achievo debugger.php config_atkroot parameter Remote File Inclusion Attempt&#10;ET WEB_SERVER Possible CVE&#45;2014&#45;6271 Attempt&#10;ET WEB_SPECIFIC_APPS Joomla Dada Mail Manager Component config.dadamail.php GLOBALS Parameter Remote File Inclusion&#10;ET WEB_SPECIFIC_APPS WEB&#45;PHP RCE PHPBB 2004&#45;1315&#10;ET WEB_SPECIFIC_APPS DesktopOnNet frontpage.php app_path Parameter Remote File Inclusion&#10;ET WEB_SPECIFIC_APPS Joomla AjaxChat Component ajcuser.php GLOBALS Parameter Remote File Inclusion Attempt">
<polygon fill="none" stroke="black" stroke-width="3" points="473.95,-935.39 98.95,-935.39 98.95,-875.39 473.95,-875.39 473.95,-935.39"/>
<text text-anchor="middle" x="286.45" y="-912.19" font-family="Arial" font-size="24.00">ARBITRARY CODE EXECUTION</text>
<text text-anchor="middle" x="286.45" y="-886.19" font-family="Arial" font-size="24.00">http | ID: 353</text>
</a>
</g>
</g>
<!-- DATA EXFILTRATION
http | ID: 15&#45;&gt;ARBITRARY CODE EXECUTION
http | ID: 353 -->
<g id="edge5" class="edge">
<title>DATA EXFILTRATION
http | ID: 15&#45;&gt;ARBITRARY CODE EXECUTION
http | ID: 353</title>
<path fill="none" stroke="darkgreen" stroke-width="5" d="M119.35,-762.53C72.41,-770.98 30.12,-783.37 15.45,-801.39 -3.08,-824.13 -3.84,-845.29 15.45,-867.39 27.1,-880.74 54.99,-889.45 88.66,-895.09"/>
<polygon fill="darkgreen" stroke="darkgreen" stroke-width="5" points="88.23,-899.46 98.79,-896.68 89.58,-890.81 88.23,-899.46"/>
<text text-anchor="middle" x="146.95" y="-851.39" font-family="Arial" font-size="20.00" fill="darkgreen">start_next: 03/11/18, 14:52:51</text>
<text text-anchor="middle" x="146.95" y="-829.39" font-family="Arial" font-size="20.00" fill="darkgreen">gap: &#45;22sec</text>
<text text-anchor="middle" x="146.95" y="-807.39" font-family="Arial" font-size="20.00" fill="darkgreen">end_prev: 03/11/18, 14:53:13</text>
</g>
<!-- DATA EXFILTRATION
http | ID: 15&#45;&gt;ARBITRARY CODE EXECUTION
http | ID: 353 -->
<g id="edge14" class="edge">
<title>DATA EXFILTRATION
http | ID: 15&#45;&gt;ARBITRARY CODE EXECUTION
http | ID: 353</title>
<path fill="none" stroke="magenta" stroke-width="5" d="M286.45,-793.53C286.45,-816.47 286.45,-843.55 286.45,-865.21"/>
<polygon fill="magenta" stroke="magenta" stroke-width="5" points="282.07,-865.36 286.45,-875.36 290.82,-865.36 282.07,-865.36"/>
<text text-anchor="middle" x="417.95" y="-851.39" font-family="Arial" font-size="20.00" fill="magenta">start_next: 03/11/18, 15:24:01</text>
<text text-anchor="middle" x="417.95" y="-829.39" font-family="Arial" font-size="20.00" fill="magenta">gap: &#45;9sec</text>
<text text-anchor="middle" x="417.95" y="-807.39" font-family="Arial" font-size="20.00" fill="magenta">end_prev: 03/11/18, 15:24:10</text>
</g>
<!-- DATA EXFILTRATION
http | ID: 15&#45;&gt;ARBITRARY CODE EXECUTION
http | ID: 353 -->
<g id="edge23" class="edge">
<title>DATA EXFILTRATION
http | ID: 15&#45;&gt;ARBITRARY CODE EXECUTION
http | ID: 353</title>
<path fill="none" stroke="magenta" stroke-width="5" d="M451.74,-763.46C496.47,-771.93 536.44,-784.1 550.45,-801.39 568.91,-824.18 569.69,-845.26 550.45,-867.39 539.69,-879.76 514.67,-888.12 484.11,-893.73"/>
<polygon fill="magenta" stroke="magenta" stroke-width="5" points="483.13,-889.46 474.01,-895.46 484.6,-898.09 483.13,-889.46"/>
<text text-anchor="middle" x="695.95" y="-851.39" font-family="Arial" font-size="20.00" fill="magenta">start_next: 03/11/18, 15:17:48</text>
<text text-anchor="middle" x="695.95" y="-829.39" font-family="Arial" font-size="20.00" fill="magenta">gap: &#45;8sec</text>
<text text-anchor="middle" x="695.95" y="-807.39" font-family="Arial" font-size="20.00" fill="magenta">end_prev: 03/11/18, 15:17:56</text>
</g>
<!-- ROOT PRIVILEGE ESCALATION
http | ID: 133 -->
<g id="node8" class="node">
<title>ROOT PRIVILEGE ESCALATION
http | ID: 133</title>
<g id="a_node8"><a xlink:title="ET WEB_SERVER ColdFusion administrator access&#10;ETPRO WEB_SPECIFIC_APPS ipTIME firmware &lt; 9.58 RCE&#10;GPL EXPLOIT administrators.pwd access&#10;GPL EXPLOIT CodeRed v2 root.exe access">
<polygon fill="none" stroke="black" stroke-width="3" points="473.95,-1077.39 98.95,-1077.39 98.95,-1017.39 473.95,-1017.39 473.95,-1077.39"/>
<text text-anchor="middle" x="286.45" y="-1054.19" font-family="Arial" font-size="24.00">ROOT PRIVILEGE ESCALATION</text>
<text text-anchor="middle" x="286.45" y="-1028.19" font-family="Arial" font-size="24.00">http | ID: 133</text>
</a>
</g>
</g>
<!-- ARBITRARY CODE EXECUTION
http | ID: 353&#45;&gt;ROOT PRIVILEGE ESCALATION
http | ID: 133 -->
<g id="edge6" class="edge">
<title>ARBITRARY CODE EXECUTION
http | ID: 353&#45;&gt;ROOT PRIVILEGE ESCALATION
http | ID: 133</title>
<path fill="none" stroke="darkgreen" stroke-width="5" d="M98.79,-914.11C60.65,-919.66 28.25,-928.72 15.45,-943.39 -3.84,-965.49 -3.84,-987.29 15.45,-1009.39 27.1,-1022.74 54.99,-1031.45 88.66,-1037.09"/>
<polygon fill="darkgreen" stroke="darkgreen" stroke-width="5" points="88.23,-1041.46 98.79,-1038.68 89.58,-1032.81 88.23,-1041.46"/>
<text text-anchor="middle" x="146.95" y="-993.39" font-family="Arial" font-size="20.00" fill="darkgreen">start_next: 03/11/18, 14:52:52</text>
<text text-anchor="middle" x="146.95" y="-971.39" font-family="Arial" font-size="20.00" fill="darkgreen">gap: &#45;21sec</text>
<text text-anchor="middle" x="146.95" y="-949.39" font-family="Arial" font-size="20.00" fill="darkgreen">end_prev: 03/11/18, 14:53:13</text>
</g>
<!-- ARBITRARY CODE EXECUTION
http | ID: 353&#45;&gt;ROOT PRIVILEGE ESCALATION
http | ID: 133 -->
<g id="edge15" class="edge">
<title>ARBITRARY CODE EXECUTION
http | ID: 353&#45;&gt;ROOT PRIVILEGE ESCALATION
http | ID: 133</title>
<path fill="none" stroke="magenta" stroke-width="5" d="M286.45,-935.4C286.45,-956.1 286.45,-984.18 286.45,-1006.91"/>
<polygon fill="magenta" stroke="magenta" stroke-width="5" points="282.07,-1006.94 286.45,-1016.94 290.82,-1006.94 282.07,-1006.94"/>
<text text-anchor="middle" x="417.95" y="-993.39" font-family="Arial" font-size="20.00" fill="magenta">start_next: 03/11/18, 15:24:01</text>
<text text-anchor="middle" x="417.95" y="-971.39" font-family="Arial" font-size="20.00" fill="magenta">gap: &#45;8sec</text>
<text text-anchor="middle" x="417.95" y="-949.39" font-family="Arial" font-size="20.00" fill="magenta">end_prev: 03/11/18, 15:24:10</text>
</g>
<!-- ARBITRARY CODE EXECUTION
http | ID: 353&#45;&gt;ROOT PRIVILEGE ESCALATION
http | ID: 133 -->
<g id="edge24" class="edge">
<title>ARBITRARY CODE EXECUTION
http | ID: 353&#45;&gt;ROOT PRIVILEGE ESCALATION
http | ID: 133</title>
<path fill="none" stroke="magenta" stroke-width="5" d="M474.01,-915.32C509.09,-920.9 538.53,-929.68 550.45,-943.39 569.69,-965.53 569.69,-987.26 550.45,-1009.39 539.69,-1021.76 514.67,-1030.12 484.11,-1035.73"/>
<polygon fill="magenta" stroke="magenta" stroke-width="5" points="483.13,-1031.46 474.01,-1037.46 484.6,-1040.09 483.13,-1031.46"/>
<text text-anchor="middle" x="695.95" y="-993.39" font-family="Arial" font-size="20.00" fill="magenta">start_next: 03/11/18, 15:17:48</text>
<text text-anchor="middle" x="695.95" y="-971.39" font-family="Arial" font-size="20.00" fill="magenta">gap: &#45;8sec</text>
<text text-anchor="middle" x="695.95" y="-949.39" font-family="Arial" font-size="20.00" fill="magenta">end_prev: 03/11/18, 15:17:56</text>
</g>
<!-- DATA MANIPULATION
http | ID: 17 -->
<g id="node9" class="node">
<title>DATA MANIPULATION
http | ID: 17</title>
<g id="a_node9"><a xlink:title="ET WEB_SERVER Possible SQL Injection Attempt SELECT FROM&#10;ET WEB_SERVER MYSQL SELECT CONCAT SQL Injection Attempt&#10;ET WEB_SERVER Possible SQL Injection Attempt UNION SELECT">
<polygon fill="none" stroke="black" stroke-width="3" points="499.66,-1208.38 393.05,-1257.36 179.84,-1257.36 73.23,-1208.38 179.84,-1159.4 393.05,-1159.4 499.66,-1208.38"/>
<text text-anchor="middle" x="286.45" y="-1215.18" font-family="Arial" font-size="24.00">DATA MANIPULATION</text>
<text text-anchor="middle" x="286.45" y="-1189.18" font-family="Arial" font-size="24.00">http | ID: 17</text>
</a>
</g>
</g>
<!-- ROOT PRIVILEGE ESCALATION
http | ID: 133&#45;&gt;DATA MANIPULATION
http | ID: 17 -->
<g id="edge7" class="edge">
<title>ROOT PRIVILEGE ESCALATION
http | ID: 133&#45;&gt;DATA MANIPULATION
http | ID: 17</title>
<path fill="none" stroke="darkgreen" stroke-width="5" d="M98.79,-1056.11C60.65,-1061.66 28.25,-1070.72 15.45,-1085.39 -3.84,-1107.49 -3.08,-1128.65 15.45,-1151.39 28.54,-1167.47 63.62,-1179.07 104.37,-1187.39"/>
<polygon fill="darkgreen" stroke="darkgreen" stroke-width="5" points="103.62,-1191.7 114.27,-1189.32 105.3,-1183.11 103.62,-1191.7"/>
<text text-anchor="middle" x="146.95" y="-1135.39" font-family="Arial" font-size="20.00" fill="darkgreen">start_next: 03/11/18, 14:52:53</text>
<text text-anchor="middle" x="146.95" y="-1113.39" font-family="Arial" font-size="20.00" fill="darkgreen">gap: &#45;8sec</text>
<text text-anchor="middle" x="146.95" y="-1091.39" font-family="Arial" font-size="20.00" fill="darkgreen">end_prev: 03/11/18, 14:53:02</text>
</g>
<!-- ROOT PRIVILEGE ESCALATION
http | ID: 133&#45;&gt;DATA MANIPULATION
http | ID: 17 -->
<g id="edge16" class="edge">
<title>ROOT PRIVILEGE ESCALATION
http | ID: 133&#45;&gt;DATA MANIPULATION
http | ID: 17</title>
<path fill="none" stroke="magenta" stroke-width="5" d="M286.45,-1077.55C286.45,-1097.55 286.45,-1124.78 286.45,-1149.13"/>
<polygon fill="magenta" stroke="magenta" stroke-width="5" points="282.07,-1149.37 286.45,-1159.37 290.82,-1149.37 282.07,-1149.37"/>
<text text-anchor="middle" x="417.95" y="-1135.39" font-family="Arial" font-size="20.00" fill="magenta">start_next: 03/11/18, 15:24:02</text>
<text text-anchor="middle" x="417.95" y="-1113.39" font-family="Arial" font-size="20.00" fill="magenta">gap: &#45;3sec</text>
<text text-anchor="middle" x="417.95" y="-1091.39" font-family="Arial" font-size="20.00" fill="magenta">end_prev: 03/11/18, 15:24:05</text>
</g>
<!-- ROOT PRIVILEGE ESCALATION
http | ID: 133&#45;&gt;DATA MANIPULATION
http | ID: 17 -->
<g id="edge25" class="edge">
<title>ROOT PRIVILEGE ESCALATION
http | ID: 133&#45;&gt;DATA MANIPULATION
http | ID: 17</title>
<path fill="none" stroke="magenta" stroke-width="5" d="M474.01,-1057.32C509.09,-1062.9 538.53,-1071.68 550.45,-1085.39 569.69,-1107.53 568.91,-1128.6 550.45,-1151.39 537.97,-1166.79 504.92,-1178.12 466.25,-1186.4"/>
<polygon fill="magenta" stroke="magenta" stroke-width="5" points="465.23,-1182.14 456.31,-1188.44 466.99,-1190.71 465.23,-1182.14"/>
<text text-anchor="middle" x="695.95" y="-1135.39" font-family="Arial" font-size="20.00" fill="magenta">start_next: 03/11/18, 15:17:49</text>
<text text-anchor="middle" x="695.95" y="-1113.39" font-family="Arial" font-size="20.00" fill="magenta">gap: &#45;3sec</text>
<text text-anchor="middle" x="695.95" y="-1091.39" font-family="Arial" font-size="20.00" fill="magenta">end_prev: 03/11/18, 15:17:51</text>
</g>
<!-- SURFING
http -->
<g id="node10" class="node">
<title>SURFING
http</title>
<g id="a_node10"><a xlink:title="ET WEB_SERVER WEB&#45;PHP phpinfo access">
<ellipse fill="none" stroke="black" stroke-width="3" cx="286.45" cy="-1381.8" rx="88.28" ry="42.35"/>
<text text-anchor="middle" x="286.45" y="-1388.6" font-family="Arial" font-size="24.00">SURFING</text>
<text text-anchor="middle" x="286.45" y="-1362.6" font-family="Arial" font-size="24.00">http</text>
</a>
</g>
</g>
<!-- DATA MANIPULATION
http | ID: 17&#45;&gt;SURFING
http -->
<g id="edge8" class="edge">
<title>DATA MANIPULATION
http | ID: 17&#45;&gt;SURFING
http</title>
<path fill="none" stroke="darkgreen" stroke-width="5" d="M114.27,-1227.44C69.39,-1235.86 29.59,-1248 15.45,-1265.37 -3.08,-1288.11 -3.34,-1308.84 15.45,-1331.37 37.41,-1357.7 119.79,-1370.04 188.01,-1375.8"/>
<polygon fill="darkgreen" stroke="darkgreen" stroke-width="5" points="188.08,-1380.2 198.4,-1376.64 188.78,-1371.48 188.08,-1380.2"/>
<text text-anchor="middle" x="146.95" y="-1315.37" font-family="Arial" font-size="20.00" fill="darkgreen">start_next: 03/11/18, 14:52:54</text>
<text text-anchor="middle" x="146.95" y="-1293.37" font-family="Arial" font-size="20.00" fill="darkgreen">gap: &#45;6sec</text>
<text text-anchor="middle" x="146.95" y="-1271.37" font-family="Arial" font-size="20.00" fill="darkgreen">end_prev: 03/11/18, 14:52:59</text>
</g>
<!-- DATA MANIPULATION
http | ID: 17&#45;&gt;SURFING
http -->
<g id="edge17" class="edge">
<title>DATA MANIPULATION
http | ID: 17&#45;&gt;SURFING
http</title>
<path fill="none" stroke="magenta" stroke-width="5" d="M286.45,-1257.59C286.45,-1279.91 286.45,-1306.47 286.45,-1329.2"/>
<polygon fill="magenta" stroke="magenta" stroke-width="5" points="282.07,-1329.35 286.45,-1339.35 290.82,-1329.35 282.07,-1329.35"/>
<text text-anchor="middle" x="417.95" y="-1315.37" font-family="Arial" font-size="20.00" fill="magenta">start_next: 03/11/18, 15:24:02</text>
<text text-anchor="middle" x="417.95" y="-1293.37" font-family="Arial" font-size="20.00" fill="magenta">gap: &#45;2sec</text>
<text text-anchor="middle" x="417.95" y="-1271.37" font-family="Arial" font-size="20.00" fill="magenta">end_prev: 03/11/18, 15:24:04</text>
</g>
<!-- DATA MANIPULATION
http | ID: 17&#45;&gt;SURFING
http -->
<g id="edge26" class="edge">
<title>DATA MANIPULATION
http | ID: 17&#45;&gt;SURFING
http</title>
<path fill="none" stroke="magenta" stroke-width="5" d="M456.31,-1228.33C499.17,-1236.75 536.92,-1248.67 550.45,-1265.37 568.91,-1288.16 569.18,-1308.8 550.45,-1331.37 529.3,-1356.84 450.43,-1369.26 384.35,-1375.27"/>
<polygon fill="magenta" stroke="magenta" stroke-width="5" points="383.87,-1370.92 374.28,-1376.15 384.62,-1379.64 383.87,-1370.92"/>
<text text-anchor="middle" x="694.95" y="-1315.37" font-family="Arial" font-size="20.00" fill="magenta">start_next: 03/11/18, 15:17:49</text>
<text text-anchor="middle" x="694.95" y="-1293.37" font-family="Arial" font-size="20.00" fill="magenta">gap: &#45;2sec</text>
<text text-anchor="middle" x="694.95" y="-1271.37" font-family="Arial" font-size="20.00" fill="magenta">end_prev: 03/11/18, 15:17:51</text>
</g>
<!-- ACCOUNT MANIPULATION
http | ID: 373 -->
<g id="node11" class="node">
<title>ACCOUNT MANIPULATION
http | ID: 373</title>
<g id="a_node11"><a xlink:title="GPL EXPLOIT /iisadmpwd/aexp2.htr access&#10;ET WEB_SERVER SELECT USER SQL Injection Attempt in URI">
<polygon fill="none" stroke="black" stroke-width="3" points="446.45,-1566.22 126.45,-1566.22 126.45,-1506.22 446.45,-1506.22 446.45,-1566.22"/>
<text text-anchor="middle" x="286.45" y="-1543.02" font-family="Arial" font-size="24.00">ACCOUNT MANIPULATION</text>
<text text-anchor="middle" x="286.45" y="-1517.02" font-family="Arial" font-size="24.00">http | ID: 373</text>
</a>
</g>
</g>
<!-- SURFING
http&#45;&gt;ACCOUNT MANIPULATION
http | ID: 373 -->
<g id="edge9" class="edge">
<title>SURFING
http&#45;&gt;ACCOUNT MANIPULATION
http | ID: 373</title>
<path fill="none" stroke="darkgreen" stroke-width="5" d="M198.4,-1386.95C128.41,-1392.32 38.54,-1404.54 15.45,-1432.22 -3.34,-1454.75 -3.84,-1476.12 15.45,-1498.22 30.17,-1515.1 70.84,-1524.56 116.33,-1529.78"/>
<polygon fill="darkgreen" stroke="darkgreen" stroke-width="5" points="116.01,-1534.15 126.42,-1530.86 116.94,-1525.45 116.01,-1534.15"/>
<text text-anchor="middle" x="146.95" y="-1482.22" font-family="Arial" font-size="20.00" fill="darkgreen">start_next: 03/11/18, 14:52:56</text>
<text text-anchor="middle" x="146.95" y="-1460.22" font-family="Arial" font-size="20.00" fill="darkgreen">gap: &#45;16sec</text>
<text text-anchor="middle" x="146.95" y="-1438.22" font-family="Arial" font-size="20.00" fill="darkgreen">end_prev: 03/11/18, 14:53:12</text>
</g>
<!-- SURFING
http&#45;&gt;ACCOUNT MANIPULATION
http | ID: 373 -->
<g id="edge18" class="edge">
<title>SURFING
http&#45;&gt;ACCOUNT MANIPULATION
http | ID: 373</title>
<path fill="none" stroke="magenta" stroke-width="5" d="M286.45,-1424.45C286.45,-1446.72 286.45,-1473.98 286.45,-1495.89"/>
<polygon fill="magenta" stroke="magenta" stroke-width="5" points="282.07,-1496.17 286.45,-1506.17 290.82,-1496.17 282.07,-1496.17"/>
<text text-anchor="middle" x="417.95" y="-1482.22" font-family="Arial" font-size="20.00" fill="magenta">start_next: 03/11/18, 15:24:03</text>
<text text-anchor="middle" x="417.95" y="-1460.22" font-family="Arial" font-size="20.00" fill="magenta">gap: &#45;6sec</text>
<text text-anchor="middle" x="417.95" y="-1438.22" font-family="Arial" font-size="20.00" fill="magenta">end_prev: 03/11/18, 15:24:09</text>
</g>
<!-- SURFING
http&#45;&gt;ACCOUNT MANIPULATION
http | ID: 373 -->
<g id="edge27" class="edge">
<title>SURFING
http&#45;&gt;ACCOUNT MANIPULATION
http | ID: 373</title>
<path fill="none" stroke="magenta" stroke-width="5" d="M374.28,-1387.45C442.18,-1393.09 528.22,-1405.45 550.45,-1432.22 569.18,-1454.79 569.69,-1476.09 550.45,-1498.22 536.6,-1514.14 499.15,-1523.41 456.66,-1528.75"/>
<polygon fill="magenta" stroke="magenta" stroke-width="5" points="456.06,-1524.42 446.64,-1529.93 457.08,-1533.11 456.06,-1524.42"/>
<text text-anchor="middle" x="695.95" y="-1482.22" font-family="Arial" font-size="20.00" fill="magenta">start_next: 03/11/18, 15:17:49</text>
<text text-anchor="middle" x="695.95" y="-1460.22" font-family="Arial" font-size="20.00" fill="magenta">gap: &#45;6sec</text>
<text text-anchor="middle" x="695.95" y="-1438.22" font-family="Arial" font-size="20.00" fill="magenta">end_prev: 03/11/18, 15:17:55</text>
</g>
<!-- RESOURCE HIJACKING
http | ID: 145 -->
<g id="node12" class="node">
<title>RESOURCE HIJACKING
http | ID: 145</title>
<g id="a_node12"><a xlink:title="GPL WEB_SERVER Oracle Java Process Manager access">
<polygon fill="none" stroke="black" stroke-width="3" points="519.98,-1697.21 403.21,-1746.19 169.68,-1746.19 52.91,-1697.21 169.68,-1648.23 403.21,-1648.23 519.98,-1697.21"/>
<text text-anchor="middle" x="286.45" y="-1704.01" font-family="Arial" font-size="24.00">RESOURCE HIJACKING</text>
<text text-anchor="middle" x="286.45" y="-1678.01" font-family="Arial" font-size="24.00">http | ID: 145</text>
</a>
</g>
</g>
<!-- ACCOUNT MANIPULATION
http | ID: 373&#45;&gt;RESOURCE HIJACKING
http | ID: 145 -->
<g id="edge10" class="edge">
<title>ACCOUNT MANIPULATION
http | ID: 373&#45;&gt;RESOURCE HIJACKING
http | ID: 145</title>
<path fill="none" stroke="darkgreen" stroke-width="5" d="M126.42,-1541.58C76.95,-1546.54 31.25,-1556.11 15.45,-1574.22 -3.84,-1596.32 -3.08,-1617.48 15.45,-1640.22 27.35,-1654.84 57.43,-1665.76 93.42,-1673.87"/>
<polygon fill="darkgreen" stroke="darkgreen" stroke-width="5" points="92.5,-1678.15 103.2,-1675.98 94.35,-1669.59 92.5,-1678.15"/>
<text text-anchor="middle" x="146.95" y="-1624.22" font-family="Arial" font-size="20.00" fill="darkgreen">start_next: 03/11/18, 14:52:59</text>
<text text-anchor="middle" x="146.95" y="-1602.22" font-family="Arial" font-size="20.00" fill="darkgreen">gap: 0sec</text>
<text text-anchor="middle" x="146.95" y="-1580.22" font-family="Arial" font-size="20.00" fill="darkgreen">end_prev: 03/11/18, 14:52:59</text>
</g>
<!-- ACCOUNT MANIPULATION
http | ID: 373&#45;&gt;RESOURCE HIJACKING
http | ID: 145 -->
<g id="edge19" class="edge">
<title>ACCOUNT MANIPULATION
http | ID: 373&#45;&gt;RESOURCE HIJACKING
http | ID: 145</title>
<path fill="none" stroke="magenta" stroke-width="5" d="M286.45,-1566.38C286.45,-1586.39 286.45,-1613.61 286.45,-1637.97"/>
<polygon fill="magenta" stroke="magenta" stroke-width="5" points="282.07,-1638.2 286.45,-1648.2 290.82,-1638.2 282.07,-1638.2"/>
<text text-anchor="middle" x="417.95" y="-1624.22" font-family="Arial" font-size="20.00" fill="magenta">start_next: 03/11/18, 15:24:04</text>
<text text-anchor="middle" x="417.95" y="-1602.22" font-family="Arial" font-size="20.00" fill="magenta">gap: 0sec</text>
<text text-anchor="middle" x="417.95" y="-1580.22" font-family="Arial" font-size="20.00" fill="magenta">end_prev: 03/11/18, 15:24:04</text>
</g>
<!-- ACCOUNT MANIPULATION
http | ID: 373&#45;&gt;RESOURCE HIJACKING
http | ID: 145 -->
<g id="edge28" class="edge">
<title>ACCOUNT MANIPULATION
http | ID: 373&#45;&gt;RESOURCE HIJACKING
http | ID: 145</title>
<path fill="none" stroke="magenta" stroke-width="5" d="M446.64,-1542.51C493.17,-1547.63 535.53,-1557.07 550.45,-1574.22 569.69,-1596.36 568.91,-1617.43 550.45,-1640.22 539.21,-1654.1 511.25,-1664.67 477.54,-1672.69"/>
<polygon fill="magenta" stroke="magenta" stroke-width="5" points="476.18,-1668.51 467.39,-1674.98 478.11,-1677.04 476.18,-1668.51"/>
<text text-anchor="middle" x="695.95" y="-1624.22" font-family="Arial" font-size="20.00" fill="magenta">start_next: 03/11/18, 15:17:51</text>
<text text-anchor="middle" x="695.95" y="-1602.22" font-family="Arial" font-size="20.00" fill="magenta">gap: 0sec</text>
<text text-anchor="middle" x="695.95" y="-1580.22" font-family="Arial" font-size="20.00" fill="magenta">end_prev: 03/11/18, 15:17:51</text>
</g>
<!-- RESOURCE HIJACKING
http | ID: 145&#45;&gt;DATA DELIVERY
http | ID: 19 -->
<g id="edge11" class="edge">
<title>RESOURCE HIJACKING
http | ID: 145&#45;&gt;DATA DELIVERY
http | ID: 19</title>
<path fill="none" stroke="darkgreen" stroke-width="5" d="M103.2,-1718.45C62.95,-1726.75 28.42,-1738.28 15.45,-1754.2 -3.08,-1776.95 -3.08,-1797.46 15.45,-1820.2 31.83,-1840.32 82.65,-1853.43 135.91,-1861.86"/>
<polygon fill="darkgreen" stroke="darkgreen" stroke-width="5" points="135.33,-1866.2 145.88,-1863.39 136.65,-1857.55 135.33,-1866.2"/>
<text text-anchor="middle" x="146.95" y="-1804.2" font-family="Arial" font-size="20.00" fill="darkgreen">start_next: 03/11/18, 14:53:03</text>
<text text-anchor="middle" x="146.95" y="-1782.2" font-family="Arial" font-size="20.00" fill="darkgreen">gap: 4sec</text>
<text text-anchor="middle" x="146.95" y="-1760.2" font-family="Arial" font-size="20.00" fill="darkgreen">end_prev: 03/11/18, 14:52:59</text>
</g>
<!-- RESOURCE HIJACKING
http | ID: 145&#45;&gt;DATA DELIVERY
http | ID: 19 -->
<g id="edge20" class="edge">
<title>RESOURCE HIJACKING
http | ID: 145&#45;&gt;DATA DELIVERY
http | ID: 19</title>
<path fill="none" stroke="magenta" stroke-width="5" d="M286.45,-1746.38C286.45,-1768.44 286.45,-1794.77 286.45,-1817.94"/>
<polygon fill="magenta" stroke="magenta" stroke-width="5" points="282.07,-1817.99 286.45,-1827.99 290.82,-1817.99 282.07,-1817.99"/>
<text text-anchor="middle" x="417.95" y="-1804.2" font-family="Arial" font-size="20.00" fill="magenta">start_next: 03/11/18, 15:24:05</text>
<text text-anchor="middle" x="417.95" y="-1782.2" font-family="Arial" font-size="20.00" fill="magenta">gap: 1sec</text>
<text text-anchor="middle" x="417.95" y="-1760.2" font-family="Arial" font-size="20.00" fill="magenta">end_prev: 03/11/18, 15:24:04</text>
</g>
<!-- RESOURCE HIJACKING
http | ID: 145&#45;&gt;DATA DELIVERY
http | ID: 19 -->
<g id="edge29" class="edge">
<title>RESOURCE HIJACKING
http | ID: 145&#45;&gt;DATA DELIVERY
http | ID: 19</title>
<path fill="none" stroke="magenta" stroke-width="5" d="M467.39,-1719.44C505.57,-1727.7 538.1,-1738.96 550.45,-1754.2 568.91,-1776.99 568.91,-1797.41 550.45,-1820.2 534.76,-1839.57 486.51,-1852.51 435.48,-1861.02"/>
<polygon fill="magenta" stroke="magenta" stroke-width="5" points="434.76,-1856.7 425.58,-1862.61 436.15,-1865.34 434.76,-1856.7"/>
<text text-anchor="middle" x="694.95" y="-1804.2" font-family="Arial" font-size="20.00" fill="magenta">start_next: 03/11/18, 15:17:52</text>
<text text-anchor="middle" x="694.95" y="-1782.2" font-family="Arial" font-size="20.00" fill="magenta">gap: 1sec</text>
<text text-anchor="middle" x="694.95" y="-1760.2" font-family="Arial" font-size="20.00" fill="magenta">end_prev: 03/11/18, 15:17:51</text>
</g>
<!-- VULNERABILTY DISCOVERY
http&#45;&gt;INFO DISCOVERY
http -->
<g id="edge12" class="edge">
<title>VULNERABILTY DISCOVERY
http&#45;&gt;INFO DISCOVERY
http</title>
<path fill="none" stroke="magenta" stroke-width="5" d="M770.9,-528.55C749.62,-499 717,-461.02 678.45,-440.56 648.18,-424.5 575.53,-412.75 505.99,-404.74"/>
<polygon fill="magenta" stroke="magenta" stroke-width="5" points="506.19,-400.36 495.76,-403.59 505.21,-409.05 506.19,-400.36"/>
<text text-anchor="start" x="763.45" y="-505.56" font-family="Arial" font-size="20.00" fill="magenta"> start_next: 03/11/18, 15:24:01</text>
<text text-anchor="start" x="853.95" y="-485.56" font-family="Arial" font-size="20.00" fill="magenta">gap: 0sec</text>
<text text-anchor="start" x="767.45" y="-465.56" font-family="Arial" font-size="20.00" fill="magenta">end_prev: 03/11/18, 15:24:01</text>
<text text-anchor="start" x="792.45" y="-445.56" font-family="Arial" font-weight="bold" font-size="20.00" fill="magenta">Attacker: 10.0.254.206</text>
</g>
<!-- VULNERABILTY DISCOVERY
http&#45;&gt;DATA EXFILTRATION
http | ID: 15 -->
<g id="edge22" class="edge">
<title>VULNERABILTY DISCOVERY
http&#45;&gt;DATA EXFILTRATION
http | ID: 15</title>
<path fill="none" stroke="magenta" stroke-width="5" d="M687.51,-608.86C607.72,-635.63 499.51,-671.93 415.59,-700.08"/>
<polygon fill="magenta" stroke="magenta" stroke-width="5" points="414.09,-695.97 406,-703.3 416.88,-704.26 414.09,-695.97"/>
<text text-anchor="middle" x="777.95" y="-671.41" font-family="Arial" font-size="20.00" fill="magenta">start_next: 03/11/18, 15:17:47</text>
<text text-anchor="middle" x="777.95" y="-649.41" font-family="Arial" font-size="20.00" fill="magenta">gap: 0sec</text>
<text text-anchor="middle" x="777.95" y="-627.41" font-family="Arial" font-size="20.00" fill="magenta">end_prev: 03/11/18, 15:17:47</text>
</g>
</g>
</svg>
