<?xml version="1.0" encoding="UTF-8" standalone="no"?>
<!DOCTYPE svg PUBLIC "-//W3C//DTD SVG 1.1//EN"
 "http://www.w3.org/Graphics/SVG/1.1/DTD/svg11.dtd">
<!-- Generated by graphviz version 2.50.0 (0)
 -->
<!-- Title: NETWORKDOShttp Pages: 1 -->
<svg width="2004pt" height="610pt"
 viewBox="0.00 0.00 2004.11 610.33" xmlns="http://www.w3.org/2000/svg" xmlns:xlink="http://www.w3.org/1999/xlink">
<g id="graph0" class="graph" transform="scale(1 1) rotate(0) translate(4 606.33)">
<title>NETWORKDOShttp</title>
<polygon fill="white" stroke="transparent" points="-4,4 -4,-606.33 2000.11,-606.33 2000.11,4 -4,4"/>
<!-- Victim: 10.0.0.23
NETWORK DoS
http -->
<g id="node1" class="node">
<title>Victim: 10.0.0.23
NETWORK DoS
http</title>
<polygon fill="salmon" stroke="black" stroke-width="3" points="1742.67,-505.31 1742.67,-559.7 1654.47,-598.16 1529.75,-598.16 1441.55,-559.7 1441.55,-505.31 1529.75,-466.85 1654.47,-466.85 1742.67,-505.31"/>
<polygon fill="none" stroke="black" stroke-width="3" points="1746.66,-502.7 1746.66,-562.31 1655.31,-602.15 1528.91,-602.15 1437.55,-562.31 1437.55,-502.7 1528.91,-462.86 1655.31,-462.86 1746.66,-502.7"/>
<text text-anchor="middle" x="1592.11" y="-552.31" font-family="Arial" font-size="24.00">Victim: 10.0.0.23</text>
<text text-anchor="middle" x="1592.11" y="-526.31" font-family="Arial" font-size="24.00">NETWORK DoS</text>
<text text-anchor="middle" x="1592.11" y="-500.31" font-family="Arial" font-size="24.00">http</text>
</g>
<!-- NETWORK DoS
http | ID: 5 -->
<g id="node2" class="node">
<title>NETWORK DoS
http | ID: 5</title>
<g id="a_node2"><a xlink:title="ET WEB_SERVER Possible Cherokee Web Server GET AUX Request Denial Of Service Attempt">
<polygon fill="salmon" stroke="black" stroke-width="3" points="1748.64,-396.7 1670.38,-445.68 1513.84,-445.68 1435.57,-396.7 1513.84,-347.72 1670.38,-347.72 1748.64,-396.7"/>
<text text-anchor="middle" x="1592.11" y="-403.5" font-family="Arial" font-size="24.00">NETWORK DoS</text>
<text text-anchor="middle" x="1592.11" y="-377.5" font-family="Arial" font-size="24.00">http | ID: 5</text>
</a>
</g>
</g>
<!-- NETWORK DoS
http | ID: 5&#45;&gt;Victim: 10.0.0.23
NETWORK DoS
http -->
<g id="edge1" class="edge">
<title>NETWORK DoS
http | ID: 5&#45;&gt;Victim: 10.0.0.23
NETWORK DoS
http</title>
<path fill="none" stroke="black" stroke-width="5" d="M1592.11,-446C1592.11,-448.11 1592.11,-450.24 1592.11,-452.39"/>
<polygon fill="black" stroke="black" stroke-width="5" points="1587.73,-452.54 1592.11,-462.54 1596.48,-452.54 1587.73,-452.54"/>
</g>
<!-- VULNERABILTY DISCOVERY
mysql -->
<g id="node3" class="node">
<title>VULNERABILTY DISCOVERY
mysql</title>
<g id="a_node3"><a xlink:title="ET SCAN Suspicious inbound to mySQL port 3306&#10;ET SCAN Suspicious inbound to MSSQL port 1433&#10;ET SCAN Suspicious inbound to PostgreSQL port 5432&#10;ET SCAN Suspicious inbound to Oracle SQL port 1521&#10;ET SCAN Suspicious inbound to mSQL port 4333">
<ellipse fill="yellow" stroke="black" stroke-width="3" cx="1083.11" cy="-209.28" rx="241.25" ry="42.35"/>
<text text-anchor="middle" x="1083.11" y="-216.08" font-family="Arial" font-size="24.00">VULNERABILTY DISCOVERY</text>
<text text-anchor="middle" x="1083.11" y="-190.08" font-family="Arial" font-size="24.00">mysql</text>
</a>
</g>
</g>
<!-- SERVICE DISCOVERY
unknown -->
<g id="node4" class="node">
<title>SERVICE DISCOVERY
unknown</title>
<g id="a_node4"><a xlink:title="ET SCAN Potential VNC Scan 5800&#45;5820&#10;ET SCAN Potential SSH Scan&#10;ET SCAN Potential VNC Scan 5900&#45;5920">
<ellipse fill="none" stroke="black" stroke-width="3" cx="580.11" cy="-396.7" rx="189.51" ry="42.35"/>
<text text-anchor="middle" x="580.11" y="-403.5" font-family="Arial" font-size="24.00">SERVICE DISCOVERY</text>
<text text-anchor="middle" x="580.11" y="-377.5" font-family="Arial" font-size="24.00">unknown</text>
</a>
</g>
</g>
<!-- VULNERABILTY DISCOVERY
mysql&#45;&gt;SERVICE DISCOVERY
unknown -->
<g id="edge2" class="edge">
<title>VULNERABILTY DISCOVERY
mysql&#45;&gt;SERVICE DISCOVERY
unknown</title>
<path fill="none" stroke="orange" stroke-width="5" d="M920.77,-240.67C892.63,-245.03 863.58,-248.96 836.11,-251.71 822.61,-253.05 601.96,-250.38 592.11,-259.71 580.1,-271.07 577.62,-310.46 577.84,-343.94"/>
<polygon fill="orange" stroke="orange" stroke-width="5" points="573.47,-344.17 577.99,-354.11 582.22,-344.04 573.47,-344.17"/>
<text text-anchor="start" x="592.11" y="-324.71" font-family="Arial" font-size="20.00" fill="orange"> start_next: 03/11/18, 13:58:44</text>
<text text-anchor="start" x="668.11" y="-304.71" font-family="Arial" font-size="20.00" fill="orange">gap: &#45;277sec</text>
<text text-anchor="start" x="596.11" y="-284.71" font-family="Arial" font-size="20.00" fill="orange">end_prev: 03/11/18, 14:03:21</text>
<text text-anchor="start" x="621.11" y="-264.71" font-family="Arial" font-weight="bold" font-size="20.00" fill="orange">Attacker: 10.0.254.202</text>
</g>
<!-- VULNERABILTY DISCOVERY
mysql&#45;&gt;SERVICE DISCOVERY
unknown -->
<g id="edge5" class="edge">
<title>VULNERABILTY DISCOVERY
mysql&#45;&gt;SERVICE DISCOVERY
unknown</title>
<path fill="none" stroke="orange" stroke-width="5" d="M912.27,-239.4C894.09,-245.21 879.52,-251.96 872.11,-259.71 847.11,-285.85 882.51,-313.95 857.11,-339.71 841.62,-355.42 802.82,-367 759,-375.42"/>
<polygon fill="orange" stroke="orange" stroke-width="5" points="758.01,-371.15 748.98,-377.27 759.61,-379.75 758.01,-371.15"/>
<text text-anchor="middle" x="1003.61" y="-316.71" font-family="Arial" font-size="20.00" fill="orange">start_next: 03/11/18, 14:20:54</text>
<text text-anchor="middle" x="1003.61" y="-294.71" font-family="Arial" font-size="20.00" fill="orange">gap: &#45;267sec</text>
<text text-anchor="middle" x="1003.61" y="-272.71" font-family="Arial" font-size="20.00" fill="orange">end_prev: 03/11/18, 14:25:22</text>
</g>
<!-- VULNERABILTY DISCOVERY
mysql&#45;&gt;SERVICE DISCOVERY
unknown -->
<g id="edge9" class="edge">
<title>VULNERABILTY DISCOVERY
mysql&#45;&gt;SERVICE DISCOVERY
unknown</title>
<path fill="none" stroke="magenta" stroke-width="5" d="M1127.8,-251.24C1129.46,-253.98 1130.91,-256.8 1132.11,-259.71 1145.65,-292.58 1155.95,-313.33 1132.11,-339.71 1108.08,-366.3 925.42,-380.89 776.7,-388.45"/>
<polygon fill="magenta" stroke="magenta" stroke-width="5" points="776.27,-384.1 766.5,-388.96 776.71,-392.83 776.27,-384.1"/>
<text text-anchor="start" x="1147.11" y="-324.71" font-family="Arial" font-size="20.00" fill="magenta"> start_next: 03/11/18, 14:24:36</text>
<text text-anchor="start" x="1228.61" y="-304.71" font-family="Arial" font-size="20.00" fill="magenta">gap: &#45;32sec</text>
<text text-anchor="start" x="1151.11" y="-284.71" font-family="Arial" font-size="20.00" fill="magenta">end_prev: 03/11/18, 14:25:08</text>
<text text-anchor="start" x="1176.11" y="-264.71" font-family="Arial" font-weight="bold" font-size="20.00" fill="magenta">Attacker: 10.0.254.201</text>
</g>
<!-- HOST DISCOVERY
unknown -->
<g id="node5" class="node">
<title>HOST DISCOVERY
unknown</title>
<g id="a_node5"><a xlink:title="ET SCAN Nmap Scripting Engine User&#45;Agent Detected (Nmap Scripting Engine)&#10;ET SCAN Possible Nmap User&#45;Agent Observed">
<ellipse fill="none" stroke="black" stroke-width="3" cx="602.11" cy="-42.43" rx="162.77" ry="42.35"/>
<text text-anchor="middle" x="602.11" y="-49.23" font-family="Arial" font-size="24.00">HOST DISCOVERY</text>
<text text-anchor="middle" x="602.11" y="-23.23" font-family="Arial" font-size="24.00">unknown</text>
</a>
</g>
</g>
<!-- SERVICE DISCOVERY
unknown&#45;&gt;HOST DISCOVERY
unknown -->
<g id="edge3" class="edge">
<title>SERVICE DISCOVERY
unknown&#45;&gt;HOST DISCOVERY
unknown</title>
<path fill="none" stroke="orange" stroke-width="5" d="M399.45,-383.59C198.82,-363.02 -83.56,-308.56 24.11,-166.85 73.31,-102.1 283.2,-70.21 435.91,-55.32"/>
<polygon fill="orange" stroke="orange" stroke-width="5" points="436.35,-59.67 445.89,-54.36 435.52,-50.96 436.35,-59.67"/>
<text text-anchor="middle" x="155.61" y="-226.28" font-family="Arial" font-size="20.00" fill="orange">start_next: 03/11/18, 14:07:13</text>
<text text-anchor="middle" x="155.61" y="-204.28" font-family="Arial" font-size="20.00" fill="orange">gap: &#45;7sec</text>
<text text-anchor="middle" x="155.61" y="-182.28" font-family="Arial" font-size="20.00" fill="orange">end_prev: 03/11/18, 14:07:20</text>
</g>
<!-- SERVICE DISCOVERY
unknown&#45;&gt;HOST DISCOVERY
unknown -->
<g id="edge6" class="edge">
<title>SERVICE DISCOVERY
unknown&#45;&gt;HOST DISCOVERY
unknown</title>
<path fill="none" stroke="orange" stroke-width="5" d="M456.72,-364.39C398.84,-342.84 335.21,-307.68 301.11,-251.71 281.49,-219.5 280.1,-198.17 301.11,-166.85 335.76,-115.2 396.29,-85.15 454.03,-67.67"/>
<polygon fill="orange" stroke="orange" stroke-width="5" points="455.27,-71.87 463.64,-64.87 452.82,-63.47 455.27,-71.87"/>
<text text-anchor="middle" x="432.61" y="-226.28" font-family="Arial" font-size="20.00" fill="orange">start_next: 03/11/18, 14:28:39</text>
<text text-anchor="middle" x="432.61" y="-204.28" font-family="Arial" font-size="20.00" fill="orange">gap: &#45;7sec</text>
<text text-anchor="middle" x="432.61" y="-182.28" font-family="Arial" font-size="20.00" fill="orange">end_prev: 03/11/18, 14:28:46</text>
</g>
<!-- SERVICE DISCOVERY
unknown&#45;&gt;HOST DISCOVERY
unknown -->
<g id="edge10" class="edge">
<title>SERVICE DISCOVERY
unknown&#45;&gt;HOST DISCOVERY
unknown</title>
<path fill="none" stroke="magenta" stroke-width="5" d="M575.99,-354.22C572.18,-308.26 568.06,-232.04 575.11,-166.85 577.71,-142.84 583.07,-116.64 588.33,-94.58"/>
<polygon fill="magenta" stroke="magenta" stroke-width="5" points="592.61,-95.52 590.73,-84.76 584.11,-93.44 592.61,-95.52"/>
<text text-anchor="middle" x="706.61" y="-226.28" font-family="Arial" font-size="20.00" fill="magenta">start_next: 03/11/18, 14:24:42</text>
<text text-anchor="middle" x="706.61" y="-204.28" font-family="Arial" font-size="20.00" fill="magenta">gap: 6sec</text>
<text text-anchor="middle" x="706.61" y="-182.28" font-family="Arial" font-size="20.00" fill="magenta">end_prev: 03/11/18, 14:24:36</text>
</g>
<!-- HOST DISCOVERY
unknown&#45;&gt;VULNERABILTY DISCOVERY
mysql -->
<g id="edge4" class="edge">
<title>HOST DISCOVERY
unknown&#45;&gt;VULNERABILTY DISCOVERY
mysql</title>
<path fill="none" stroke="orange" stroke-width="5" d="M632.42,-84.35C654.4,-110.61 686.6,-142.71 723.11,-158.85 746.13,-169.03 811.11,-163.88 836.11,-166.85 859.45,-169.63 883.94,-173.08 908.06,-176.8"/>
<polygon fill="orange" stroke="orange" stroke-width="5" points="907.45,-181.13 918.01,-178.35 908.8,-172.48 907.45,-181.13"/>
<text text-anchor="middle" x="854.61" y="-142.85" font-family="Arial" font-size="20.00" fill="orange">start_next: 03/11/18, 14:20:54</text>
<text text-anchor="middle" x="854.61" y="-120.85" font-family="Arial" font-size="20.00" fill="orange">gap: 806sec</text>
<text text-anchor="middle" x="854.61" y="-98.85" font-family="Arial" font-size="20.00" fill="orange">end_prev: 03/11/18, 14:07:28</text>
</g>
<!-- INFO DISCOVERY
http -->
<g id="node6" class="node">
<title>INFO DISCOVERY
http</title>
<g id="a_node6"><a xlink:title="GPL WEB_SERVER .htaccess access&#10;GPL WEB_SERVER /~root access&#10;GPL WEB_SERVER iisadmin access&#10;GPL WEB_SERVER printenv access&#10;GPL WEB_SERVER .htpasswd access&#10;GPL WEB_SERVER global.asa access&#10;GPL WEB_SERVER 403 Forbidden">
<ellipse fill="none" stroke="black" stroke-width="3" cx="1487.11" cy="-209.28" rx="156.04" ry="42.35"/>
<text text-anchor="middle" x="1487.11" y="-216.08" font-family="Arial" font-size="24.00">INFO DISCOVERY</text>
<text text-anchor="middle" x="1487.11" y="-190.08" font-family="Arial" font-size="24.00">http</text>
</a>
</g>
</g>
<!-- HOST DISCOVERY
unknown&#45;&gt;INFO DISCOVERY
http -->
<g id="edge7" class="edge">
<title>HOST DISCOVERY
unknown&#45;&gt;INFO DISCOVERY
http</title>
<path fill="none" stroke="orange" stroke-width="5" d="M756.36,-56.11C826.2,-63.72 909.44,-75.41 983.11,-92.85 1069.69,-113.35 1084.8,-141.72 1172.11,-158.85 1239.8,-172.14 1258.93,-156.38 1327.11,-166.85 1341.77,-169.1 1357.03,-172.14 1372.05,-175.54"/>
<polygon fill="orange" stroke="orange" stroke-width="5" points="1371.15,-179.82 1381.88,-177.83 1373.13,-171.3 1371.15,-179.82"/>
<text text-anchor="middle" x="1303.61" y="-142.85" font-family="Arial" font-size="20.00" fill="orange">start_next: 03/11/18, 15:46:54</text>
<text text-anchor="middle" x="1303.61" y="-120.85" font-family="Arial" font-size="20.00" fill="orange">gap: 4684sec</text>
<text text-anchor="middle" x="1303.61" y="-98.85" font-family="Arial" font-size="20.00" fill="orange">end_prev: 03/11/18, 14:28:49</text>
</g>
<!-- HOST DISCOVERY
unknown&#45;&gt;INFO DISCOVERY
http -->
<g id="edge11" class="edge">
<title>HOST DISCOVERY
unknown&#45;&gt;INFO DISCOVERY
http</title>
<path fill="none" stroke="magenta" stroke-width="5" d="M764.83,-44.32C990.86,-46.9 1378.31,-56.61 1432.11,-92.85 1454.04,-107.62 1467.46,-133.63 1475.56,-157.22"/>
<polygon fill="magenta" stroke="magenta" stroke-width="5" points="1471.4,-158.6 1478.61,-166.8 1479.74,-155.95 1471.4,-158.6"/>
<text text-anchor="middle" x="1606.11" y="-142.85" font-family="Arial" font-size="20.00" fill="magenta">start_next: 03/11/18, 15:11:08</text>
<text text-anchor="middle" x="1606.11" y="-120.85" font-family="Arial" font-size="20.00" fill="magenta">gap: 2753sec</text>
<text text-anchor="middle" x="1606.11" y="-98.85" font-family="Arial" font-size="20.00" fill="magenta">end_prev: 03/11/18, 14:25:15</text>
</g>
<!-- INFO DISCOVERY
http&#45;&gt;NETWORK DoS
http | ID: 5 -->
<g id="edge8" class="edge">
<title>INFO DISCOVERY
http&#45;&gt;NETWORK DoS
http | ID: 5</title>
<path fill="none" stroke="orange" stroke-width="5" d="M1461.83,-251.42C1460.76,-254.17 1459.84,-256.94 1459.11,-259.71 1450.05,-294.09 1439.44,-310.09 1459.11,-339.71 1464.04,-347.13 1470.17,-353.57 1477.07,-359.16"/>
<polygon fill="orange" stroke="orange" stroke-width="5" points="1474.84,-362.96 1485.5,-365.34 1480.02,-355.9 1474.84,-362.96"/>
<text text-anchor="middle" x="1590.61" y="-316.71" font-family="Arial" font-size="20.00" fill="orange">start_next: 03/11/18, 15:46:54</text>
<text text-anchor="middle" x="1590.61" y="-294.71" font-family="Arial" font-size="20.00" fill="orange">gap: &#45;2sec</text>
<text text-anchor="middle" x="1590.61" y="-272.71" font-family="Arial" font-size="20.00" fill="orange">end_prev: 03/11/18, 15:46:55</text>
</g>
<!-- INFO DISCOVERY
http&#45;&gt;NETWORK DoS
http | ID: 5 -->
<g id="edge12" class="edge">
<title>INFO DISCOVERY
http&#45;&gt;NETWORK DoS
http | ID: 5</title>
<path fill="none" stroke="magenta" stroke-width="5" d="M1630.82,-226C1670.75,-233.49 1706.64,-244.3 1719.11,-259.71 1741.48,-287.34 1738.53,-309.92 1719.11,-339.71 1714.9,-346.16 1709.77,-351.87 1704,-356.93"/>
<polygon fill="magenta" stroke="magenta" stroke-width="5" points="1700.9,-353.8 1695.77,-363.43 1706.33,-360.67 1700.9,-353.8"/>
<text text-anchor="middle" x="1865.11" y="-316.71" font-family="Arial" font-size="20.00" fill="magenta">start_next: 03/11/18, 15:11:08</text>
<text text-anchor="middle" x="1865.11" y="-294.71" font-family="Arial" font-size="20.00" fill="magenta">gap: &#45;2sec</text>
<text text-anchor="middle" x="1865.11" y="-272.71" font-family="Arial" font-size="20.00" fill="magenta">end_prev: 03/11/18, 15:11:10</text>
</g>
</g>
</svg>
