<?xml version="1.0" encoding="UTF-8" standalone="no"?>
<!DOCTYPE svg PUBLIC "-//W3C//DTD SVG 1.1//EN"
 "http://www.w3.org/Graphics/SVG/1.1/DTD/svg11.dtd">
<!-- Generated by graphviz version 2.50.0 (0)
 -->
<!-- Title: DATADESTRUCTIONuscli Pages: 1 -->
<svg width="485pt" height="443pt"
 viewBox="0.00 0.00 485.02 443.48" xmlns="http://www.w3.org/2000/svg" xmlns:xlink="http://www.w3.org/1999/xlink">
<g id="graph0" class="graph" transform="scale(1 1) rotate(0) translate(4 439.48)">
<title>DATADESTRUCTIONuscli</title>
<polygon fill="white" stroke="transparent" points="-4,4 -4,-439.48 481.02,-439.48 481.02,4 -4,4"/>
<!-- Victim: 10.0.1.46
DATA DESTRUCTION
us&#45;cli -->
<g id="node1" class="node">
<title>Victim: 10.0.1.46
DATA DESTRUCTION
us&#45;cli</title>
<polygon fill="salmon" stroke="black" stroke-width="3" points="404.89,-338.46 404.89,-392.85 290.15,-431.31 127.89,-431.31 13.15,-392.85 13.15,-338.46 127.89,-300 290.15,-300 404.89,-338.46"/>
<polygon fill="none" stroke="black" stroke-width="3" points="408.89,-335.59 408.89,-395.72 290.81,-435.3 127.24,-435.3 9.16,-395.72 9.16,-335.59 127.24,-296.01 290.81,-296.01 408.89,-335.59"/>
<text text-anchor="middle" x="209.02" y="-385.45" font-family="Arial" font-size="24.00">Victim: 10.0.1.46</text>
<text text-anchor="middle" x="209.02" y="-359.45" font-family="Arial" font-size="24.00">DATA DESTRUCTION</text>
<text text-anchor="middle" x="209.02" y="-333.45" font-family="Arial" font-size="24.00">us&#45;cli</text>
</g>
<!-- DATA DESTRUCTION
us&#45;cli | ID: 1332 -->
<g id="node2" class="node">
<title>DATA DESTRUCTION
us&#45;cli | ID: 1332</title>
<g id="a_node2"><a xlink:title="GPL WEB_SERVER DELETE attempt">
<polygon fill="none" stroke="black" stroke-width="3" stroke-dasharray="1,5" points="418.07,-229.84 313.55,-278.82 104.5,-278.82 -0.02,-229.84 104.5,-180.86 313.55,-180.86 418.07,-229.84"/>
<text text-anchor="middle" x="209.02" y="-236.64" font-family="Arial" font-size="24.00">DATA DESTRUCTION</text>
<text text-anchor="middle" x="209.02" y="-210.64" font-family="Arial" font-size="24.00">us&#45;cli | ID: 1332</text>
</a>
</g>
</g>
<!-- DATA DESTRUCTION
us&#45;cli | ID: 1332&#45;&gt;Victim: 10.0.1.46
DATA DESTRUCTION
us&#45;cli -->
<g id="edge1" class="edge">
<title>DATA DESTRUCTION
us&#45;cli | ID: 1332&#45;&gt;Victim: 10.0.1.46
DATA DESTRUCTION
us&#45;cli</title>
<path fill="none" stroke="black" stroke-width="5" d="M209.02,-279.15C209.02,-281.26 209.02,-283.39 209.02,-285.54"/>
<polygon fill="black" stroke="black" stroke-width="5" points="204.65,-285.69 209.02,-295.69 213.4,-285.69 204.65,-285.69"/>
</g>
<!-- INFO DISCOVERY
unknown -->
<g id="node3" class="node">
<title>INFO DISCOVERY
unknown</title>
<g id="a_node3"><a xlink:title="GPL WEB_SERVER 403 Forbidden">
<ellipse fill="yellow" stroke="black" stroke-width="3" cx="209.02" cy="-42.43" rx="156.04" ry="42.35"/>
<text text-anchor="middle" x="209.02" y="-49.23" font-family="Arial" font-size="24.00">INFO DISCOVERY</text>
<text text-anchor="middle" x="209.02" y="-23.23" font-family="Arial" font-size="24.00">unknown</text>
</a>
</g>
</g>
<!-- INFO DISCOVERY
unknown&#45;&gt;DATA DESTRUCTION
us&#45;cli | ID: 1332 -->
<g id="edge2" class="edge">
<title>INFO DISCOVERY
unknown&#45;&gt;DATA DESTRUCTION
us&#45;cli | ID: 1332</title>
<path fill="none" stroke="blue" stroke-width="5" d="M209.02,-85.04C209.02,-110.33 209.02,-143.01 209.02,-170.82"/>
<polygon fill="blue" stroke="blue" stroke-width="5" points="204.65,-170.82 209.02,-180.82 213.4,-170.82 204.65,-170.82"/>
<text text-anchor="start" x="209.02" y="-157.85" font-family="Arial" font-size="20.00" fill="blue"> start_next: 03/11/18, 15:22:24</text>
<text text-anchor="start" x="282.52" y="-137.85" font-family="Arial" font-size="20.00" fill="blue">gap: 1604sec</text>
<text text-anchor="start" x="213.02" y="-117.85" font-family="Arial" font-size="20.00" fill="blue">end_prev: 03/11/18, 14:55:40</text>
<text text-anchor="start" x="238.02" y="-97.85" font-family="Arial" font-weight="bold" font-size="20.00" fill="blue">Attacker: 10.0.254.204</text>
</g>
</g>
</svg>
