<?xml version="1.0" encoding="UTF-8" standalone="no"?>
<!DOCTYPE svg PUBLIC "-//W3C//DTD SVG 1.1//EN"
 "http://www.w3.org/Graphics/SVG/1.1/DTD/svg11.dtd">
<!-- Generated by graphviz version 2.50.0 (0)
 -->
<!-- Title: DATAEXFILTRATIONhttp Pages: 1 -->
<svg width="2372pt" height="1324pt"
 viewBox="0.00 0.00 2371.52 1323.72" xmlns="http://www.w3.org/2000/svg" xmlns:xlink="http://www.w3.org/1999/xlink">
<g id="graph0" class="graph" transform="scale(1 1) rotate(0) translate(4 1319.72)">
<title>DATAEXFILTRATIONhttp</title>
<polygon fill="white" stroke="transparent" points="-4,4 -4,-1319.72 2367.52,-1319.72 2367.52,4 -4,4"/>
<!-- Victim: 10.0.0.24
DATA EXFILTRATION
http -->
<g id="node1" class="node">
<title>Victim: 10.0.0.24
DATA EXFILTRATION
http</title>
<polygon fill="salmon" stroke="black" stroke-width="3" points="990.73,-1218.7 990.73,-1273.09 878.13,-1311.55 718.9,-1311.55 606.31,-1273.09 606.31,-1218.7 718.9,-1180.24 878.13,-1180.24 990.73,-1218.7"/>
<polygon fill="none" stroke="black" stroke-width="3" points="994.73,-1215.85 994.73,-1275.94 878.8,-1315.54 718.23,-1315.54 602.3,-1275.94 602.3,-1215.85 718.23,-1176.25 878.8,-1176.25 994.73,-1215.85"/>
<text text-anchor="middle" x="798.52" y="-1265.7" font-family="Arial" font-size="24.00">Victim: 10.0.0.24</text>
<text text-anchor="middle" x="798.52" y="-1239.7" font-family="Arial" font-size="24.00">DATA EXFILTRATION</text>
<text text-anchor="middle" x="798.52" y="-1213.7" font-family="Arial" font-size="24.00">http</text>
</g>
<!-- DATA EXFILTRATION
http | ID: 15 -->
<g id="node2" class="node">
<title>DATA EXFILTRATION
http | ID: 15</title>
<g id="a_node2"><a xlink:title="GPL WEB_SERVER Tomcat server snoop access&#10;ETPRO WEB_SERVER Possible Information Leak Vuln CVE&#45;2015&#45;1648&#10;GPL EXPLOIT ISAPI .ida access&#10;GPL EXPLOIT /msadc/samples/ access&#10;ET WEB_SERVER ColdFusion componentutils access&#10;ET WEB_SERVER /system32/ in Uri &#45; Possible Protected Directory Access Attempt&#10;ET WEB_SPECIFIC_APPS PHP&#45;CGI query string parameter vulnerability&#10;ET WEB_SERVER Possible XXE SYSTEM ENTITY in POST BODY.&#10;ET WEB_SERVER IIS 8.3 Filename With Wildcard (Possible File/Dir Bruteforce)&#10;ET WEB_SERVER /etc/shadow Detected in URI&#10;ET INFO WinHttp AutoProxy Request wpad.dat Possible BadTunnel&#10;GPL EXPLOIT ISAPI .idq access">
<polygon fill="salmon" stroke="black" stroke-width="3" points="1003.4,-1110.09 900.96,-1159.07 696.08,-1159.07 593.64,-1110.09 696.08,-1061.11 900.96,-1061.11 1003.4,-1110.09"/>
<text text-anchor="middle" x="798.52" y="-1116.89" font-family="Arial" font-size="24.00">DATA EXFILTRATION</text>
<text text-anchor="middle" x="798.52" y="-1090.89" font-family="Arial" font-size="24.00">http | ID: 15</text>
</a>
</g>
</g>
<!-- DATA EXFILTRATION
http | ID: 15&#45;&gt;Victim: 10.0.0.24
DATA EXFILTRATION
http -->
<g id="edge1" class="edge">
<title>DATA EXFILTRATION
http | ID: 15&#45;&gt;Victim: 10.0.0.24
DATA EXFILTRATION
http</title>
<path fill="none" stroke="black" stroke-width="5" d="M798.52,-1159.4C798.52,-1161.5 798.52,-1163.63 798.52,-1165.78"/>
<polygon fill="black" stroke="black" stroke-width="5" points="794.14,-1165.93 798.52,-1175.93 802.89,-1165.93 794.14,-1165.93"/>
</g>
<!-- VULNERABILTY DISCOVERY
mysql -->
<g id="node3" class="node">
<title>VULNERABILTY DISCOVERY
mysql</title>
<g id="a_node3"><a xlink:title="ET SCAN Suspicious inbound to mySQL port 3306&#10;ET SCAN Suspicious inbound to MSSQL port 1433&#10;ET SCAN Suspicious inbound to PostgreSQL port 5432&#10;ET SCAN Nikto Web App Scan in Progress&#10;ET SCAN Suspicious inbound to Oracle SQL port 1521&#10;ET SCAN Suspicious inbound to mSQL port 4333">
<ellipse fill="yellow" stroke="black" stroke-width="3" cx="1353.52" cy="-42.43" rx="241.25" ry="42.35"/>
<text text-anchor="middle" x="1353.52" y="-49.23" font-family="Arial" font-size="24.00">VULNERABILTY DISCOVERY</text>
<text text-anchor="middle" x="1353.52" y="-23.23" font-family="Arial" font-size="24.00">mysql</text>
</a>
</g>
</g>
<!-- SERVICE DISCOVERY
cpdlc -->
<g id="node4" class="node">
<title>SERVICE DISCOVERY
cpdlc</title>
<g id="a_node4"><a xlink:title="ET SCAN Potential VNC Scan 5900&#45;5920&#10;ET SCAN Potential VNC Scan 5800&#45;5820">
<ellipse fill="none" stroke="black" stroke-width="3" cx="503.52" cy="-316.13" rx="189.51" ry="42.35"/>
<text text-anchor="middle" x="503.52" y="-322.93" font-family="Arial" font-size="24.00">SERVICE DISCOVERY</text>
<text text-anchor="middle" x="503.52" y="-296.93" font-family="Arial" font-size="24.00">cpdlc</text>
</a>
</g>
</g>
<!-- VULNERABILTY DISCOVERY
mysql&#45;&gt;SERVICE DISCOVERY
cpdlc -->
<g id="edge2" class="edge">
<title>VULNERABILTY DISCOVERY
mysql&#45;&gt;SERVICE DISCOVERY
cpdlc</title>
<path fill="none" stroke="maroon" stroke-width="5" d="M1115.66,-49.42C872.52,-56.74 527.49,-70.92 506.52,-92.85 463.76,-137.57 473.38,-213.45 486.54,-263.93"/>
<polygon fill="maroon" stroke="maroon" stroke-width="5" points="482.35,-265.17 489.21,-273.67 490.79,-262.87 482.35,-265.17"/>
<text text-anchor="start" x="506.52" y="-157.85" font-family="Arial" font-size="20.00" fill="maroon"> start_next: 03/11/18, 14:36:05</text>
<text text-anchor="start" x="597.02" y="-137.85" font-family="Arial" font-size="20.00" fill="maroon">gap: 0sec</text>
<text text-anchor="start" x="510.52" y="-117.85" font-family="Arial" font-size="20.00" fill="maroon">end_prev: 03/11/18, 14:36:05</text>
<text text-anchor="start" x="535.52" y="-97.85" font-family="Arial" font-weight="bold" font-size="20.00" fill="maroon">Attacker: 10.0.254.204</text>
</g>
<!-- SERVICE DISCOVERY
unknown -->
<g id="node6" class="node">
<title>SERVICE DISCOVERY
unknown</title>
<g id="a_node6"><a xlink:title="ET SCAN Potential SSH Scan&#10;ET SCAN Potential VNC Scan 5900&#45;5920&#10;ET SCAN Potential VNC Scan 5800&#45;5820&#10;ET SCAN NMAP OS Detection Probe">
<ellipse fill="none" stroke="black" stroke-width="3" cx="1353.52" cy="-223.28" rx="189.51" ry="42.35"/>
<text text-anchor="middle" x="1353.52" y="-230.08" font-family="Arial" font-size="24.00">SERVICE DISCOVERY</text>
<text text-anchor="middle" x="1353.52" y="-204.08" font-family="Arial" font-size="24.00">unknown</text>
</a>
</g>
</g>
<!-- VULNERABILTY DISCOVERY
mysql&#45;&gt;SERVICE DISCOVERY
unknown -->
<g id="edge5" class="edge">
<title>VULNERABILTY DISCOVERY
mysql&#45;&gt;SERVICE DISCOVERY
unknown</title>
<path fill="none" stroke="maroon" stroke-width="5" d="M1353.52,-84.91C1353.52,-110.44 1353.52,-143.37 1353.52,-170.59"/>
<polygon fill="maroon" stroke="maroon" stroke-width="5" points="1349.14,-170.71 1353.52,-180.71 1357.89,-170.71 1349.14,-170.71"/>
<text text-anchor="start" x="1353.52" y="-157.85" font-family="Arial" font-size="20.00" fill="maroon"> start_next: 03/11/18, 18:01:28</text>
<text text-anchor="start" x="1429.52" y="-137.85" font-family="Arial" font-size="20.00" fill="maroon">gap: &#45;105sec</text>
<text text-anchor="start" x="1357.52" y="-117.85" font-family="Arial" font-size="20.00" fill="maroon">end_prev: 03/11/18, 18:03:13</text>
<text text-anchor="start" x="1382.52" y="-97.85" font-family="Arial" font-weight="bold" font-size="20.00" fill="maroon">Attacker: 10.0.254.202</text>
</g>
<!-- INFO DISCOVERY
http -->
<g id="node13" class="node">
<title>INFO DISCOVERY
http</title>
<g id="a_node13"><a xlink:title="GPL WEB_SERVER viewcode access&#10;GPL WEB_SERVER .htaccess access&#10;GPL WEB_SERVER writeto.cnf access&#10;GPL WEB_SERVER iisadmin access&#10;ET WEB_SERVER PHP Easteregg Information&#45;Disclosure (funny&#45;logo)&#10;ET WEB_SPECIFIC_APPS Request to Wordpress W3TC Plug&#45;in dbcache Directory&#10;GPL WEB_SERVER services.cnf access&#10;ET WEB_SERVER PHP Easteregg Information&#45;Disclosure (zend&#45;logo)&#10;GPL EXPLOIT unicode directory traversal attempt&#10;ET WEB_SERVER PHP Easteregg Information&#45;Disclosure (php&#45;logo)&#10;GPL WEB_SERVER service.cnf access&#10;GPL EXPLOIT iisadmpwd attempt&#10;ET WEB_SERVER PHP SESSION SuperGlobal in URI&#10;GPL WEB_SERVER /~root access&#10;GPL WEB_SERVER authors.pwd access&#10;ET WEB_SERVER PHP ENV SuperGlobal in URI&#10;GPL EXPLOIT .cnf access&#10;ET POLICY Proxy TRACE Request &#45; inbound&#10;GPL WEB_SERVER .htpasswd access&#10;GPL WEB_SERVER global.asa access&#10;ET WEB_SERVER PHP SERVER SuperGlobal in URI&#10;GPL EXPLOIT fpcount access&#10;GPL WEB_SERVER globals.pl access&#10;GPL WEB_SERVER service.pwd&#10;GPL EXPLOIT ISAPI .idq attempt&#10;ET WEB_SERVER PHP Easteregg Information&#45;Disclosure (phpinfo)&#10;GPL WEB_SERVER printenv access&#10;GPL WEB_SERVER author.exe access&#10;GPL EXPLOIT iissamples access&#10;GPL EXPLOIT .htr access&#10;ET WEB_SERVER PHP REQUEST SuperGlobal in URI">
<ellipse fill="none" stroke="black" stroke-width="3" cx="834.52" cy="-930.11" rx="156.04" ry="42.35"/>
<text text-anchor="middle" x="834.52" y="-936.91" font-family="Arial" font-size="24.00">INFO DISCOVERY</text>
<text text-anchor="middle" x="834.52" y="-910.91" font-family="Arial" font-size="24.00">http</text>
</a>
</g>
</g>
<!-- VULNERABILTY DISCOVERY
mysql&#45;&gt;INFO DISCOVERY
http -->
<g id="edge16" class="edge">
<title>VULNERABILTY DISCOVERY
mysql&#45;&gt;INFO DISCOVERY
http</title>
<path fill="none" stroke="darkgreen" stroke-width="5" d="M1156.78,-67.08C990.62,-92.73 779.52,-141.26 779.52,-222.28 779.52,-222.28 779.52,-222.28 779.52,-743.69 779.52,-790.69 795.96,-841.74 810.87,-878.34"/>
<polygon fill="darkgreen" stroke="darkgreen" stroke-width="5" points="806.93,-880.26 814.82,-887.8 815,-876.89 806.93,-880.26"/>
<text text-anchor="middle" x="911.02" y="-509.41" font-family="Arial" font-size="20.00" fill="darkgreen">start_next: 03/11/18, 14:52:49</text>
<text text-anchor="middle" x="911.02" y="-487.41" font-family="Arial" font-size="20.00" fill="darkgreen">gap: &#45;313sec</text>
<text text-anchor="middle" x="911.02" y="-465.41" font-family="Arial" font-size="20.00" fill="darkgreen">end_prev: 03/11/18, 14:58:02</text>
</g>
<!-- SERVICE DISCOVERY
rpas&#45;c2 -->
<g id="node14" class="node">
<title>SERVICE DISCOVERY
rpas&#45;c2</title>
<g id="a_node14"><a xlink:title="ET SCAN Potential VNC Scan 5900&#45;5920&#10;ET SCAN Potential VNC Scan 5800&#45;5820">
<ellipse fill="none" stroke="black" stroke-width="3" cx="2103.52" cy="-223.28" rx="189.51" ry="42.35"/>
<text text-anchor="middle" x="2103.52" y="-230.08" font-family="Arial" font-size="24.00">SERVICE DISCOVERY</text>
<text text-anchor="middle" x="2103.52" y="-204.08" font-family="Arial" font-size="24.00">rpas&#45;c2</text>
</a>
</g>
</g>
<!-- VULNERABILTY DISCOVERY
mysql&#45;&gt;SERVICE DISCOVERY
rpas&#45;c2 -->
<g id="edge21" class="edge">
<title>VULNERABILTY DISCOVERY
mysql&#45;&gt;SERVICE DISCOVERY
rpas&#45;c2</title>
<path fill="none" stroke="magenta" stroke-width="5" d="M1532.78,-70.94C1569.55,-77.43 1607.89,-84.83 1643.52,-92.85 1760.97,-119.31 1893.07,-157.36 1985.48,-185.36"/>
<polygon fill="magenta" stroke="magenta" stroke-width="5" points="1984.3,-189.57 1995.14,-188.29 1986.84,-181.2 1984.3,-189.57"/>
<text text-anchor="start" x="1939.52" y="-157.85" font-family="Arial" font-size="20.00" fill="magenta"> start_next: 03/11/18, 15:03:33</text>
<text text-anchor="start" x="2026.52" y="-137.85" font-family="Arial" font-size="20.00" fill="magenta">gap: &#45;3sec</text>
<text text-anchor="start" x="1943.52" y="-117.85" font-family="Arial" font-size="20.00" fill="magenta">end_prev: 03/11/18, 15:03:36</text>
<text text-anchor="start" x="1968.52" y="-97.85" font-family="Arial" font-weight="bold" font-size="20.00" fill="magenta">Attacker: 10.0.254.205</text>
</g>
<!-- VULNERABILTY DISCOVERY
wap&#45;wsp -->
<g id="node5" class="node">
<title>VULNERABILTY DISCOVERY
wap&#45;wsp</title>
<g id="a_node5"><a xlink:title="ET SCAN Nikto Web App Scan in Progress&#10;ET SCAN OpenVAS User&#45;Agent Inbound">
<ellipse fill="none" stroke="black" stroke-width="3" cx="505.52" cy="-575.84" rx="241.25" ry="42.35"/>
<text text-anchor="middle" x="505.52" y="-582.64" font-family="Arial" font-size="24.00">VULNERABILTY DISCOVERY</text>
<text text-anchor="middle" x="505.52" y="-556.64" font-family="Arial" font-size="24.00">wap&#45;wsp</text>
</a>
</g>
</g>
<!-- SERVICE DISCOVERY
cpdlc&#45;&gt;VULNERABILTY DISCOVERY
wap&#45;wsp -->
<g id="edge3" class="edge">
<title>SERVICE DISCOVERY
cpdlc&#45;&gt;VULNERABILTY DISCOVERY
wap&#45;wsp</title>
<path fill="none" stroke="maroon" stroke-width="5" d="M503.84,-358.82C504.19,-403.55 504.74,-474.65 505.12,-522.96"/>
<polygon fill="maroon" stroke="maroon" stroke-width="5" points="500.74,-523.24 505.19,-533.21 509.49,-523.17 500.74,-523.24"/>
<text text-anchor="middle" x="636.02" y="-425.98" font-family="Arial" font-size="20.00" fill="maroon">start_next: 03/11/18, 19:22:02</text>
<text text-anchor="middle" x="636.02" y="-403.98" font-family="Arial" font-size="20.00" fill="maroon">gap: 17157sec</text>
<text text-anchor="middle" x="636.02" y="-381.98" font-family="Arial" font-size="20.00" fill="maroon">end_prev: 03/11/18, 14:36:05</text>
</g>
<!-- VULNERABILTY DISCOVERY
wap&#45;wsp&#45;&gt;DATA EXFILTRATION
http | ID: 15 -->
<g id="edge4" class="edge">
<title>VULNERABILTY DISCOVERY
wap&#45;wsp&#45;&gt;DATA EXFILTRATION
http | ID: 15</title>
<path fill="none" stroke="maroon" stroke-width="5" d="M503.47,-618.5C498.46,-728.46 487.95,-1020.29 515.52,-1053.1 530.48,-1070.91 571.85,-1083.16 618.49,-1091.55"/>
<polygon fill="maroon" stroke="maroon" stroke-width="5" points="617.91,-1095.89 628.51,-1093.28 619.4,-1087.27 617.91,-1095.89"/>
<text text-anchor="middle" x="630.02" y="-850.12" font-family="Arial" font-size="20.00" fill="maroon">start_next: 03/11/18, 19:22:02</text>
<text text-anchor="middle" x="630.02" y="-828.12" font-family="Arial" font-size="20.00" fill="maroon">gap: 0sec</text>
<text text-anchor="middle" x="630.02" y="-806.12" font-family="Arial" font-size="20.00" fill="maroon">end_prev: 03/11/18, 19:22:02</text>
</g>
<!-- INFO DISCOVERY
wap&#45;wsp -->
<g id="node11" class="node">
<title>INFO DISCOVERY
wap&#45;wsp</title>
<g id="a_node11"><a xlink:title="GPL WEB_SERVER viewcode access&#10;GPL ATTACK_RESPONSE directory listing&#10;GPL WEB_SERVER .htaccess access&#10;GPL WEB_SERVER /~root access&#10;GPL WEB_SERVER iisadmin access&#10;GPL WEB_SERVER printenv access&#10;ET SCAN SFTP/FTP Password Exposure via sftp&#45;config.json&#10;ET POLICY Proxy TRACE Request &#45; inbound&#10;GPL WEB_SERVER global.asa access&#10;GPL EXPLOIT iissamples access">
<ellipse fill="none" stroke="black" stroke-width="3" cx="233.52" cy="-742.69" rx="156.04" ry="42.35"/>
<text text-anchor="middle" x="233.52" y="-749.49" font-family="Arial" font-size="24.00">INFO DISCOVERY</text>
<text text-anchor="middle" x="233.52" y="-723.49" font-family="Arial" font-size="24.00">wap&#45;wsp</text>
</a>
</g>
</g>
<!-- VULNERABILTY DISCOVERY
wap&#45;wsp&#45;&gt;INFO DISCOVERY
wap&#45;wsp -->
<g id="edge12" class="edge">
<title>VULNERABILTY DISCOVERY
wap&#45;wsp&#45;&gt;INFO DISCOVERY
wap&#45;wsp</title>
<path fill="none" stroke="maroon" stroke-width="5" d="M301.6,-598.53C273.05,-605.4 249.89,-614.43 239.52,-626.26 224.56,-643.33 221.65,-667.85 223.06,-689.9"/>
<polygon fill="maroon" stroke="maroon" stroke-width="5" points="218.73,-690.6 224.02,-700.15 227.44,-689.78 218.73,-690.6"/>
<text text-anchor="middle" x="371.02" y="-676.26" font-family="Arial" font-size="20.00" fill="maroon">start_next: 03/11/18, 21:09:52</text>
<text text-anchor="middle" x="371.02" y="-654.26" font-family="Arial" font-size="20.00" fill="maroon">gap: &#45;210sec</text>
<text text-anchor="middle" x="371.02" y="-632.26" font-family="Arial" font-size="20.00" fill="maroon">end_prev: 03/11/18, 21:13:22</text>
</g>
<!-- HOST DISCOVERY
http -->
<g id="node7" class="node">
<title>HOST DISCOVERY
http</title>
<g id="a_node7"><a xlink:title="ET SCAN Nmap Scripting Engine User&#45;Agent Detected (Nmap Scripting Engine)&#10;ET SCAN Possible Nmap User&#45;Agent Observed">
<ellipse fill="yellow" stroke="black" stroke-width="3" cx="1381.52" cy="-408.98" rx="162.77" ry="42.35"/>
<text text-anchor="middle" x="1381.52" y="-415.78" font-family="Arial" font-size="24.00">HOST DISCOVERY</text>
<text text-anchor="middle" x="1381.52" y="-389.78" font-family="Arial" font-size="24.00">http</text>
</a>
</g>
</g>
<!-- SERVICE DISCOVERY
unknown&#45;&gt;HOST DISCOVERY
http -->
<g id="edge6" class="edge">
<title>SERVICE DISCOVERY
unknown&#45;&gt;HOST DISCOVERY
http</title>
<path fill="none" stroke="maroon" stroke-width="5" d="M1350.31,-265.72C1349.4,-290.27 1349.92,-322.05 1357.58,-356.78"/>
<polygon fill="maroon" stroke="maroon" stroke-width="5" points="1353.35,-357.94 1359.93,-366.65 1361.87,-355.91 1353.35,-357.94"/>
<text text-anchor="middle" x="1489.02" y="-333.13" font-family="Arial" font-size="20.00" fill="maroon">start_next: 03/11/18, 18:06:33</text>
<text text-anchor="middle" x="1489.02" y="-311.13" font-family="Arial" font-size="20.00" fill="maroon">gap: 14sec</text>
<text text-anchor="middle" x="1489.02" y="-289.13" font-family="Arial" font-size="20.00" fill="maroon">end_prev: 03/11/18, 18:06:19</text>
</g>
<!-- SERVICE DISCOVERY
ssh -->
<g id="node10" class="node">
<title>SERVICE DISCOVERY
ssh</title>
<g id="a_node10"><a xlink:title="ET SCAN Potential SSH Scan">
<ellipse fill="none" stroke="black" stroke-width="3" cx="1022.52" cy="-408.98" rx="189.51" ry="42.35"/>
<text text-anchor="middle" x="1022.52" y="-415.78" font-family="Arial" font-size="24.00">SERVICE DISCOVERY</text>
<text text-anchor="middle" x="1022.52" y="-389.78" font-family="Arial" font-size="24.00">ssh</text>
</a>
</g>
</g>
<!-- SERVICE DISCOVERY
unknown&#45;&gt;SERVICE DISCOVERY
ssh -->
<g id="edge10" class="edge">
<title>SERVICE DISCOVERY
unknown&#45;&gt;SERVICE DISCOVERY
ssh</title>
<path fill="none" stroke="maroon" stroke-width="5" d="M1185.66,-243.01C1142.62,-250.52 1103.63,-260.58 1086.52,-273.71 1060.13,-293.96 1044.09,-327.83 1034.67,-356.48"/>
<polygon fill="maroon" stroke="maroon" stroke-width="5" points="1030.39,-355.52 1031.61,-366.37 1038.75,-358.11 1030.39,-355.52"/>
<text text-anchor="middle" x="1218.02" y="-333.13" font-family="Arial" font-size="20.00" fill="maroon">start_next: 03/11/18, 21:04:15</text>
<text text-anchor="middle" x="1218.02" y="-311.13" font-family="Arial" font-size="20.00" fill="maroon">gap: 615sec</text>
<text text-anchor="middle" x="1218.02" y="-289.13" font-family="Arial" font-size="20.00" fill="maroon">end_prev: 03/11/18, 20:54:01</text>
</g>
<!-- HOST DISCOVERY
http&#45;&gt;VULNERABILTY DISCOVERY
mysql -->
<g id="edge15" class="edge">
<title>HOST DISCOVERY
http&#45;&gt;VULNERABILTY DISCOVERY
mysql</title>
<path fill="none" stroke="darkgreen" stroke-width="5" d="M1531.7,-392.47C1572.36,-385.02 1608.71,-374.19 1621.52,-358.56 1653.37,-319.69 1636.57,-109.72 1622.52,-92.85 1613.5,-82.02 1594.19,-73.56 1569.86,-66.94"/>
<polygon fill="darkgreen" stroke="darkgreen" stroke-width="5" points="1570.69,-62.64 1559.92,-64.41 1568.52,-71.12 1570.69,-62.64"/>
<text text-anchor="start" x="1639.52" y="-248.28" font-family="Arial" font-size="20.00" fill="darkgreen"> start_next: 03/11/18, 14:52:49</text>
<text text-anchor="start" x="1730.02" y="-228.28" font-family="Arial" font-size="20.00" fill="darkgreen">gap: 3sec</text>
<text text-anchor="start" x="1643.52" y="-208.28" font-family="Arial" font-size="20.00" fill="darkgreen">end_prev: 03/11/18, 14:52:45</text>
<text text-anchor="start" x="1668.52" y="-188.28" font-family="Arial" font-weight="bold" font-size="20.00" fill="darkgreen">Attacker: 10.0.254.201</text>
</g>
<!-- INFO DISCOVERY
ssh -->
<g id="node8" class="node">
<title>INFO DISCOVERY
ssh</title>
<g id="a_node8"><a xlink:title="ET INFO NetSSH SSH Version String Hardcoded in Metasploit">
<ellipse fill="none" stroke="black" stroke-width="3" cx="1463.52" cy="-575.84" rx="156.04" ry="42.35"/>
<text text-anchor="middle" x="1463.52" y="-582.64" font-family="Arial" font-size="24.00">INFO DISCOVERY</text>
<text text-anchor="middle" x="1463.52" y="-556.64" font-family="Arial" font-size="24.00">ssh</text>
</a>
</g>
</g>
<!-- HOST DISCOVERY
http&#45;&gt;INFO DISCOVERY
ssh -->
<g id="edge7" class="edge">
<title>HOST DISCOVERY
http&#45;&gt;INFO DISCOVERY
ssh</title>
<path fill="none" stroke="maroon" stroke-width="5" d="M1360.06,-451.14C1351.07,-474.48 1345.57,-503.34 1359.52,-525.41 1361.39,-528.37 1363.49,-531.15 1365.78,-533.77"/>
<polygon fill="maroon" stroke="maroon" stroke-width="5" points="1363.01,-537.19 1373.18,-541.15 1369.19,-530.99 1363.01,-537.19"/>
<text text-anchor="middle" x="1491.02" y="-509.41" font-family="Arial" font-size="20.00" fill="maroon">start_next: 03/11/18, 20:39:09</text>
<text text-anchor="middle" x="1491.02" y="-487.41" font-family="Arial" font-size="20.00" fill="maroon">gap: 9154sec</text>
<text text-anchor="middle" x="1491.02" y="-465.41" font-family="Arial" font-size="20.00" fill="maroon">end_prev: 03/11/18, 18:06:36</text>
</g>
<!-- VULNERABILTY DISCOVERY
http -->
<g id="node9" class="node">
<title>VULNERABILTY DISCOVERY
http</title>
<g id="a_node9"><a xlink:title="ET SCAN Suspicious inbound to mySQL port 3306&#10;ET SCAN Suspicious inbound to MSSQL port 1433&#10;ET SCAN Suspicious inbound to PostgreSQL port 5432&#10;ET SCAN Nikto Web App Scan in Progress&#10;ET SCAN Suspicious inbound to Oracle SQL port 1521&#10;ET SCAN OpenVAS User&#45;Agent Inbound&#10;ET SCAN Suspicious inbound to mSQL port 4333">
<ellipse fill="yellow" stroke="black" stroke-width="3" cx="1179.52" cy="-742.69" rx="241.25" ry="42.35"/>
<text text-anchor="middle" x="1179.52" y="-749.49" font-family="Arial" font-size="24.00">VULNERABILTY DISCOVERY</text>
<text text-anchor="middle" x="1179.52" y="-723.49" font-family="Arial" font-size="24.00">http</text>
</a>
</g>
</g>
<!-- HOST DISCOVERY
http&#45;&gt;VULNERABILTY DISCOVERY
http -->
<g id="edge18" class="edge">
<title>HOST DISCOVERY
http&#45;&gt;VULNERABILTY DISCOVERY
http</title>
<path fill="none" stroke="darkgreen" stroke-width="5" d="M1355.3,-451.05C1353.65,-453.86 1352.04,-456.66 1350.52,-459.41 1334.72,-487.93 1345.9,-507.72 1318.52,-525.41 1305.31,-533.95 1046.48,-522.13 1035.52,-533.41 987.08,-583.23 1053.36,-650.94 1111.15,-695.44"/>
<polygon fill="darkgreen" stroke="darkgreen" stroke-width="5" points="1108.63,-699.02 1119.24,-701.56 1113.91,-692.04 1108.63,-699.02"/>
<text text-anchor="start" x="1035.52" y="-600.84" font-family="Arial" font-size="20.00" fill="darkgreen"> start_next: 03/11/18, 17:37:53</text>
<text text-anchor="start" x="1126.02" y="-580.84" font-family="Arial" font-size="20.00" fill="darkgreen">gap: 5sec</text>
<text text-anchor="start" x="1039.52" y="-560.84" font-family="Arial" font-size="20.00" fill="darkgreen">end_prev: 03/11/18, 17:37:48</text>
<text text-anchor="start" x="1064.52" y="-540.84" font-family="Arial" font-weight="bold" font-size="20.00" fill="darkgreen">Attacker: 10.0.254.204</text>
</g>
<!-- INFO DISCOVERY
ssh&#45;&gt;VULNERABILTY DISCOVERY
http -->
<g id="edge8" class="edge">
<title>INFO DISCOVERY
ssh&#45;&gt;VULNERABILTY DISCOVERY
http</title>
<path fill="none" stroke="maroon" stroke-width="5" d="M1387.5,-612.94C1379.01,-617.3 1370.53,-621.79 1362.52,-626.26 1323.81,-647.86 1281.91,-674.07 1247.98,-696.05"/>
<polygon fill="maroon" stroke="maroon" stroke-width="5" points="1245.53,-692.43 1239.53,-701.55 1250.3,-699.76 1245.53,-692.43"/>
<text text-anchor="middle" x="1494.02" y="-676.26" font-family="Arial" font-size="20.00" fill="maroon">start_next: 03/11/18, 20:53:37</text>
<text text-anchor="middle" x="1494.02" y="-654.26" font-family="Arial" font-size="20.00" fill="maroon">gap: 801sec</text>
<text text-anchor="middle" x="1494.02" y="-632.26" font-family="Arial" font-size="20.00" fill="maroon">end_prev: 03/11/18, 20:40:17</text>
</g>
<!-- VULNERABILTY DISCOVERY
http&#45;&gt;SERVICE DISCOVERY
unknown -->
<g id="edge9" class="edge">
<title>VULNERABILTY DISCOVERY
http&#45;&gt;SERVICE DISCOVERY
unknown</title>
<path fill="none" stroke="maroon" stroke-width="5" d="M1408.65,-729.31C1508.73,-721.51 1607.04,-709.57 1622.52,-692.26 1638.02,-674.93 1632.54,-291.45 1617.52,-273.71 1605.31,-259.29 1574.4,-249.05 1537.83,-241.78"/>
<polygon fill="maroon" stroke="maroon" stroke-width="5" points="1538.54,-237.46 1527.9,-239.91 1536.92,-246.06 1538.54,-237.46"/>
<text text-anchor="middle" x="1763.02" y="-509.41" font-family="Arial" font-size="20.00" fill="maroon">start_next: 03/11/18, 20:53:38</text>
<text text-anchor="middle" x="1763.02" y="-487.41" font-family="Arial" font-size="20.00" fill="maroon">gap: &#45;2sec</text>
<text text-anchor="middle" x="1763.02" y="-465.41" font-family="Arial" font-size="20.00" fill="maroon">end_prev: 03/11/18, 20:53:41</text>
</g>
<!-- VULNERABILTY DISCOVERY
http&#45;&gt;INFO DISCOVERY
http -->
<g id="edge19" class="edge">
<title>VULNERABILTY DISCOVERY
http&#45;&gt;INFO DISCOVERY
http</title>
<path fill="none" stroke="darkgreen" stroke-width="5" d="M948.21,-754.84C897.8,-762.17 854.42,-774.03 837.52,-793.12 817.58,-815.64 816.74,-849.41 820.93,-877.66"/>
<polygon fill="darkgreen" stroke="darkgreen" stroke-width="5" points="816.66,-878.68 822.67,-887.79 825.29,-877.19 816.66,-878.68"/>
<text text-anchor="middle" x="969.02" y="-850.12" font-family="Arial" font-size="20.00" fill="darkgreen">start_next: 03/11/18, 17:37:53</text>
<text text-anchor="middle" x="969.02" y="-828.12" font-family="Arial" font-size="20.00" fill="darkgreen">gap: &#45;292sec</text>
<text text-anchor="middle" x="969.02" y="-806.12" font-family="Arial" font-size="20.00" fill="darkgreen">end_prev: 03/11/18, 17:42:44</text>
</g>
<!-- VULNERABILTY DISCOVERY
http&#45;&gt;INFO DISCOVERY
http -->
<g id="edge24" class="edge">
<title>VULNERABILTY DISCOVERY
http&#45;&gt;INFO DISCOVERY
http</title>
<path fill="none" stroke="magenta" stroke-width="5" d="M1119.29,-783.98C1116.8,-786.89 1114.52,-789.93 1112.52,-793.12 1093.29,-823.76 1122.78,-847.23 1097.52,-873.12 1080.89,-890.15 1035.78,-902.5 987.52,-911.19"/>
<polygon fill="magenta" stroke="magenta" stroke-width="5" points="986.61,-906.91 977.51,-912.94 988.11,-915.53 986.61,-906.91"/>
<text text-anchor="start" x="1112.52" y="-858.12" font-family="Arial" font-size="20.00" fill="magenta"> start_next: 03/11/18, 15:18:19</text>
<text text-anchor="start" x="1203.02" y="-838.12" font-family="Arial" font-size="20.00" fill="magenta">gap: 0sec</text>
<text text-anchor="start" x="1116.52" y="-818.12" font-family="Arial" font-size="20.00" fill="magenta">end_prev: 03/11/18, 15:18:19</text>
<text text-anchor="start" x="1141.52" y="-798.12" font-family="Arial" font-weight="bold" font-size="20.00" fill="magenta">Attacker: 10.0.254.201</text>
</g>
<!-- VULNERABILTY DISCOVERY
http&#45;&gt;INFO DISCOVERY
http -->
<g id="edge26" class="edge">
<title>VULNERABILTY DISCOVERY
http&#45;&gt;INFO DISCOVERY
http</title>
<path fill="none" stroke="magenta" stroke-width="5" d="M1344.67,-773.68C1359.87,-779.26 1371.74,-785.72 1377.52,-793.12 1399.4,-821.14 1401.34,-846.72 1377.52,-873.12 1352.33,-901.04 1149.62,-915.86 999.22,-923.09"/>
<polygon fill="magenta" stroke="magenta" stroke-width="5" points="998.72,-918.74 988.94,-923.58 999.13,-927.48 998.72,-918.74"/>
<text text-anchor="start" x="1394.52" y="-858.12" font-family="Arial" font-size="20.00" fill="magenta"> start_next: 03/11/18, 15:23:35</text>
<text text-anchor="start" x="1485.02" y="-838.12" font-family="Arial" font-size="20.00" fill="magenta">gap: 0sec</text>
<text text-anchor="start" x="1398.52" y="-818.12" font-family="Arial" font-size="20.00" fill="magenta">end_prev: 03/11/18, 15:23:35</text>
<text text-anchor="start" x="1423.52" y="-798.12" font-family="Arial" font-weight="bold" font-size="20.00" fill="magenta">Attacker: 10.0.254.206</text>
</g>
<!-- SERVICE DISCOVERY
ssh&#45;&gt;VULNERABILTY DISCOVERY
wap&#45;wsp -->
<g id="edge11" class="edge">
<title>SERVICE DISCOVERY
ssh&#45;&gt;VULNERABILTY DISCOVERY
wap&#45;wsp</title>
<path fill="none" stroke="maroon" stroke-width="5" d="M1045.4,-451.29C1055.54,-475.71 1061.57,-505.62 1043.52,-525.41 1032.75,-537.21 881.09,-550.45 741.54,-560.25"/>
<polygon fill="maroon" stroke="maroon" stroke-width="5" points="741.19,-555.89 731.51,-560.95 741.8,-564.62 741.19,-555.89"/>
<text text-anchor="middle" x="1187.02" y="-509.41" font-family="Arial" font-size="20.00" fill="maroon">start_next: 03/11/18, 21:09:49</text>
<text text-anchor="middle" x="1187.02" y="-487.41" font-family="Arial" font-size="20.00" fill="maroon">gap: 334sec</text>
<text text-anchor="middle" x="1187.02" y="-465.41" font-family="Arial" font-size="20.00" fill="maroon">end_prev: 03/11/18, 21:04:15</text>
</g>
<!-- RESOURCE HIJACKING
http | ID: 130 -->
<g id="node12" class="node">
<title>RESOURCE HIJACKING
http | ID: 130</title>
<g id="a_node12"><a xlink:title="GPL WEB_SERVER Oracle Java Process Manager access">
<polygon fill="none" stroke="black" stroke-width="3" points="467.05,-930.11 350.29,-979.09 116.75,-979.09 -0.02,-930.11 116.75,-881.13 350.29,-881.13 467.05,-930.11"/>
<text text-anchor="middle" x="233.52" y="-936.91" font-family="Arial" font-size="24.00">RESOURCE HIJACKING</text>
<text text-anchor="middle" x="233.52" y="-910.91" font-family="Arial" font-size="24.00">http | ID: 130</text>
</a>
</g>
</g>
<!-- INFO DISCOVERY
wap&#45;wsp&#45;&gt;RESOURCE HIJACKING
http | ID: 130 -->
<g id="edge13" class="edge">
<title>INFO DISCOVERY
wap&#45;wsp&#45;&gt;RESOURCE HIJACKING
http | ID: 130</title>
<path fill="none" stroke="maroon" stroke-width="5" d="M233.52,-785.3C233.52,-810.6 233.52,-843.27 233.52,-871.08"/>
<polygon fill="maroon" stroke="maroon" stroke-width="5" points="229.14,-871.08 233.52,-881.08 237.89,-871.08 229.14,-871.08"/>
<text text-anchor="middle" x="365.02" y="-850.12" font-family="Arial" font-size="20.00" fill="maroon">start_next: 03/11/18, 21:09:57</text>
<text text-anchor="middle" x="365.02" y="-828.12" font-family="Arial" font-size="20.00" fill="maroon">gap: &#45;189sec</text>
<text text-anchor="middle" x="365.02" y="-806.12" font-family="Arial" font-size="20.00" fill="maroon">end_prev: 03/11/18, 21:13:06</text>
</g>
<!-- RESOURCE HIJACKING
http | ID: 130&#45;&gt;DATA EXFILTRATION
http | ID: 15 -->
<g id="edge14" class="edge">
<title>RESOURCE HIJACKING
http | ID: 130&#45;&gt;DATA EXFILTRATION
http | ID: 15</title>
<path fill="none" stroke="maroon" stroke-width="5" d="M222.28,-979.15C219.4,-1004.35 221.26,-1033.89 239.52,-1053.1 264.52,-1079.4 449.39,-1094.04 599.79,-1101.69"/>
<polygon fill="maroon" stroke="maroon" stroke-width="5" points="599.89,-1106.08 610.1,-1102.21 600.33,-1097.34 599.89,-1106.08"/>
<text text-anchor="middle" x="371.02" y="-1037.1" font-family="Arial" font-size="20.00" fill="maroon">start_next: 03/11/18, 21:09:58</text>
<text text-anchor="middle" x="371.02" y="-1015.1" font-family="Arial" font-size="20.00" fill="maroon">gap: 1sec</text>
<text text-anchor="middle" x="371.02" y="-993.1" font-family="Arial" font-size="20.00" fill="maroon">end_prev: 03/11/18, 21:09:57</text>
</g>
<!-- INFO DISCOVERY
http&#45;&gt;DATA EXFILTRATION
http | ID: 15 -->
<g id="edge17" class="edge">
<title>INFO DISCOVERY
http&#45;&gt;DATA EXFILTRATION
http | ID: 15</title>
<path fill="none" stroke="darkgreen" stroke-width="5" d="M988.05,-938.01C1127.31,-945.89 1314.32,-961.17 1337.52,-987.1 1357.08,-1008.96 1357.16,-1031.31 1337.52,-1053.1 1314.41,-1078.73 1140.72,-1093.37 996.66,-1101.2"/>
<polygon fill="darkgreen" stroke="darkgreen" stroke-width="5" points="996.09,-1096.85 986.34,-1101.75 996.56,-1105.59 996.09,-1096.85"/>
<text text-anchor="middle" x="1484.02" y="-1037.1" font-family="Arial" font-size="20.00" fill="darkgreen">start_next: 03/11/18, 14:52:49</text>
<text text-anchor="middle" x="1484.02" y="-1015.1" font-family="Arial" font-size="20.00" fill="darkgreen">gap: &#45;3sec</text>
<text text-anchor="middle" x="1484.02" y="-993.1" font-family="Arial" font-size="20.00" fill="darkgreen">end_prev: 03/11/18, 14:52:51</text>
</g>
<!-- INFO DISCOVERY
http&#45;&gt;DATA EXFILTRATION
http | ID: 15 -->
<g id="edge20" class="edge">
<title>INFO DISCOVERY
http&#45;&gt;DATA EXFILTRATION
http | ID: 15</title>
<path fill="none" stroke="darkgreen" stroke-width="5" d="M683.02,-940.73C616.24,-948.44 548.21,-962.29 527.52,-987.1 508.73,-1009.62 508.99,-1030.35 527.52,-1053.1 541.13,-1069.81 578.52,-1081.69 621.33,-1090.07"/>
<polygon fill="darkgreen" stroke="darkgreen" stroke-width="5" points="620.79,-1094.42 631.42,-1091.96 622.4,-1085.82 620.79,-1094.42"/>
<text text-anchor="middle" x="659.02" y="-1037.1" font-family="Arial" font-size="20.00" fill="darkgreen">start_next: 03/11/18, 17:37:54</text>
<text text-anchor="middle" x="659.02" y="-1015.1" font-family="Arial" font-size="20.00" fill="darkgreen">gap: &#45;3sec</text>
<text text-anchor="middle" x="659.02" y="-993.1" font-family="Arial" font-size="20.00" fill="darkgreen">end_prev: 03/11/18, 17:37:57</text>
</g>
<!-- INFO DISCOVERY
http&#45;&gt;DATA EXFILTRATION
http | ID: 15 -->
<g id="edge25" class="edge">
<title>INFO DISCOVERY
http&#45;&gt;DATA EXFILTRATION
http | ID: 15</title>
<path fill="none" stroke="magenta" stroke-width="5" d="M808.23,-972C805.94,-976.94 803.95,-982.03 802.52,-987.1 796.76,-1007.42 794.88,-1030.4 794.73,-1050.9"/>
<polygon fill="magenta" stroke="magenta" stroke-width="5" points="790.36,-1051.08 794.79,-1061.05 799.11,-1051.03 790.36,-1051.08"/>
<text text-anchor="middle" x="934.02" y="-1037.1" font-family="Arial" font-size="20.00" fill="magenta">start_next: 03/11/18, 15:18:19</text>
<text text-anchor="middle" x="934.02" y="-1015.1" font-family="Arial" font-size="20.00" fill="magenta">gap: &#45;10sec</text>
<text text-anchor="middle" x="934.02" y="-993.1" font-family="Arial" font-size="20.00" fill="magenta">end_prev: 03/11/18, 15:18:29</text>
</g>
<!-- INFO DISCOVERY
http&#45;&gt;DATA EXFILTRATION
http | ID: 15 -->
<g id="edge27" class="edge">
<title>INFO DISCOVERY
http&#45;&gt;DATA EXFILTRATION
http | ID: 15</title>
<path fill="none" stroke="magenta" stroke-width="5" d="M971.93,-950.41C1012.78,-959.13 1050.01,-971.14 1062.52,-987.1 1071.57,-998.64 1071.75,-1041.7 1062.52,-1053.1 1049.55,-1069.11 1014.33,-1080.72 973.68,-1089.08"/>
<polygon fill="magenta" stroke="magenta" stroke-width="5" points="972.78,-1084.8 963.81,-1091.02 974.47,-1093.38 972.78,-1084.8"/>
<text text-anchor="middle" x="1201.02" y="-1037.1" font-family="Arial" font-size="20.00" fill="magenta">start_next: 03/11/18, 15:23:35</text>
<text text-anchor="middle" x="1201.02" y="-1015.1" font-family="Arial" font-size="20.00" fill="magenta">gap: &#45;9sec</text>
<text text-anchor="middle" x="1201.02" y="-993.1" font-family="Arial" font-size="20.00" fill="magenta">end_prev: 03/11/18, 15:23:44</text>
</g>
<!-- ROOT PRIVILEGE ESCALATION
http | ID: 141 -->
<g id="node15" class="node">
<title>ROOT PRIVILEGE ESCALATION
http | ID: 141</title>
<g id="a_node15"><a xlink:title="GPL EXPLOIT CodeRed v2 root.exe access">
<polygon fill="none" stroke="black" stroke-width="3" points="2279.02,-522.41 1904.02,-522.41 1904.02,-462.41 2279.02,-462.41 2279.02,-522.41"/>
<text text-anchor="middle" x="2091.52" y="-499.21" font-family="Arial" font-size="24.00">ROOT PRIVILEGE ESCALATION</text>
<text text-anchor="middle" x="2091.52" y="-473.21" font-family="Arial" font-size="24.00">http | ID: 141</text>
</a>
</g>
</g>
<!-- SERVICE DISCOVERY
rpas&#45;c2&#45;&gt;ROOT PRIVILEGE ESCALATION
http | ID: 141 -->
<g id="edge22" class="edge">
<title>SERVICE DISCOVERY
rpas&#45;c2&#45;&gt;ROOT PRIVILEGE ESCALATION
http | ID: 141</title>
<path fill="none" stroke="magenta" stroke-width="5" d="M2101.66,-265.73C2099.37,-316.62 2095.52,-402.31 2093.28,-452.17"/>
<polygon fill="magenta" stroke="magenta" stroke-width="5" points="2088.91,-452.06 2092.83,-462.25 2097.65,-452.45 2088.91,-452.06"/>
<text text-anchor="middle" x="2232.02" y="-333.13" font-family="Arial" font-size="20.00" fill="magenta">start_next: 03/11/18, 16:18:43</text>
<text text-anchor="middle" x="2232.02" y="-311.13" font-family="Arial" font-size="20.00" fill="magenta">gap: 4509sec</text>
<text text-anchor="middle" x="2232.02" y="-289.13" font-family="Arial" font-size="20.00" fill="magenta">end_prev: 03/11/18, 15:03:35</text>
</g>
<!-- ROOT PRIVILEGE ESCALATION
http | ID: 141&#45;&gt;DATA EXFILTRATION
http | ID: 15 -->
<g id="edge23" class="edge">
<title>ROOT PRIVILEGE ESCALATION
http | ID: 141&#45;&gt;DATA EXFILTRATION
http | ID: 15</title>
<path fill="none" stroke="magenta" stroke-width="5" d="M1996.3,-522.49C1935.69,-547.57 1868.52,-590.62 1868.52,-658.26 1868.52,-658.26 1868.52,-658.26 1868.52,-931.11 1868.52,-1055.54 1736.78,-1021.16 1616.52,-1053.1 1504.82,-1082.76 1205.7,-1097.32 1001.87,-1104"/>
<polygon fill="magenta" stroke="magenta" stroke-width="5" points="1001.48,-1099.64 991.63,-1104.33 1001.77,-1108.38 1001.48,-1099.64"/>
<text text-anchor="middle" x="2000.02" y="-759.69" font-family="Arial" font-size="20.00" fill="magenta">start_next: 03/11/18, 16:19:09</text>
<text text-anchor="middle" x="2000.02" y="-737.69" font-family="Arial" font-size="20.00" fill="magenta">gap: 26sec</text>
<text text-anchor="middle" x="2000.02" y="-715.69" font-family="Arial" font-size="20.00" fill="magenta">end_prev: 03/11/18, 16:18:43</text>
</g>
</g>
</svg>
