<?xml version="1.0" encoding="UTF-8" standalone="no"?>
<!DOCTYPE svg PUBLIC "-//W3C//DTD SVG 1.1//EN"
 "http://www.w3.org/Graphics/SVG/1.1/DTD/svg11.dtd">
<!-- Generated by graphviz version 2.50.0 (0)
 -->
<!-- Title: NETWORKDOShttp Pages: 1 -->
<svg width="433pt" height="443pt"
 viewBox="0.00 0.00 432.77 443.48" xmlns="http://www.w3.org/2000/svg" xmlns:xlink="http://www.w3.org/1999/xlink">
<g id="graph0" class="graph" transform="scale(1 1) rotate(0) translate(4 439.48)">
<title>NETWORKDOShttp</title>
<polygon fill="white" stroke="transparent" points="-4,4 -4,-439.48 428.77,-439.48 428.77,4 -4,4"/>
<!-- Victim: 10.0.0.22
NETWORK DoS
http -->
<g id="node1" class="node">
<title>Victim: 10.0.0.22
NETWORK DoS
http</title>
<polygon fill="salmon" stroke="black" stroke-width="3" points="307.33,-338.46 307.33,-392.85 219.13,-431.31 94.4,-431.31 6.21,-392.85 6.21,-338.46 94.4,-300 219.13,-300 307.33,-338.46"/>
<polygon fill="none" stroke="black" stroke-width="3" points="311.32,-335.85 311.32,-395.46 219.97,-435.3 93.57,-435.3 2.21,-395.46 2.21,-335.85 93.57,-296.01 219.97,-296.01 311.32,-335.85"/>
<text text-anchor="middle" x="156.77" y="-385.45" font-family="Arial" font-size="24.00">Victim: 10.0.0.22</text>
<text text-anchor="middle" x="156.77" y="-359.45" font-family="Arial" font-size="24.00">NETWORK DoS</text>
<text text-anchor="middle" x="156.77" y="-333.45" font-family="Arial" font-size="24.00">http</text>
</g>
<!-- NETWORK DoS
http | ID: 112 -->
<g id="node2" class="node">
<title>NETWORK DoS
http | ID: 112</title>
<g id="a_node2"><a xlink:title="ET WEB_SERVER Possible Cherokee Web Server GET AUX Request Denial Of Service Attempt">
<polygon fill="none" stroke="black" stroke-width="3" stroke-dasharray="1,5" points="313.3,-229.84 235.03,-278.82 78.5,-278.82 0.23,-229.84 78.5,-180.86 235.03,-180.86 313.3,-229.84"/>
<text text-anchor="middle" x="156.77" y="-236.64" font-family="Arial" font-size="24.00">NETWORK DoS</text>
<text text-anchor="middle" x="156.77" y="-210.64" font-family="Arial" font-size="24.00">http | ID: 112</text>
</a>
</g>
</g>
<!-- NETWORK DoS
http | ID: 112&#45;&gt;Victim: 10.0.0.22
NETWORK DoS
http -->
<g id="edge1" class="edge">
<title>NETWORK DoS
http | ID: 112&#45;&gt;Victim: 10.0.0.22
NETWORK DoS
http</title>
<path fill="none" stroke="black" stroke-width="5" d="M156.77,-279.15C156.77,-281.26 156.77,-283.39 156.77,-285.54"/>
<polygon fill="black" stroke="black" stroke-width="5" points="152.39,-285.69 156.77,-295.69 161.14,-285.69 152.39,-285.69"/>
</g>
<!-- INFO DISCOVERY
http -->
<g id="node3" class="node">
<title>INFO DISCOVERY
http</title>
<g id="a_node3"><a xlink:title="GPL WEB_SERVER .htaccess access&#10;GPL WEB_SERVER /~root access&#10;GPL WEB_SERVER iisadmin access&#10;GPL WEB_SERVER printenv access&#10;GPL WEB_SERVER .htpasswd access&#10;GPL WEB_SERVER global.asa access">
<ellipse fill="yellow" stroke="black" stroke-width="3" cx="156.77" cy="-42.43" rx="156.04" ry="42.35"/>
<text text-anchor="middle" x="156.77" y="-49.23" font-family="Arial" font-size="24.00">INFO DISCOVERY</text>
<text text-anchor="middle" x="156.77" y="-23.23" font-family="Arial" font-size="24.00">http</text>
</a>
</g>
</g>
<!-- INFO DISCOVERY
http&#45;&gt;NETWORK DoS
http | ID: 112 -->
<g id="edge2" class="edge">
<title>INFO DISCOVERY
http&#45;&gt;NETWORK DoS
http | ID: 112</title>
<path fill="none" stroke="magenta" stroke-width="5" d="M156.77,-85.04C156.77,-110.33 156.77,-143.01 156.77,-170.82"/>
<polygon fill="magenta" stroke="magenta" stroke-width="5" points="152.39,-170.82 156.77,-180.82 161.14,-170.82 152.39,-170.82"/>
<text text-anchor="start" x="156.77" y="-157.85" font-family="Arial" font-size="20.00" fill="magenta"> start_next: 03/11/18, 15:10:01</text>
<text text-anchor="start" x="243.77" y="-137.85" font-family="Arial" font-size="20.00" fill="magenta">gap: &#45;1sec</text>
<text text-anchor="start" x="160.77" y="-117.85" font-family="Arial" font-size="20.00" fill="magenta">end_prev: 03/11/18, 15:10:02</text>
<text text-anchor="start" x="185.77" y="-97.85" font-family="Arial" font-weight="bold" font-size="20.00" fill="magenta">Attacker: 10.0.254.201</text>
</g>
</g>
</svg>
