<?xml version="1.0" encoding="UTF-8" standalone="no"?>
<!DOCTYPE svg PUBLIC "-//W3C//DTD SVG 1.1//EN"
 "http://www.w3.org/Graphics/SVG/1.1/DTD/svg11.dtd">
<!-- Generated by graphviz version 2.50.0 (0)
 -->
<!-- Title: DATAEXFILTRATIONhttp Pages: 1 -->
<svg width="2512pt" height="1217pt"
 viewBox="0.00 0.00 2511.50 1217.01" xmlns="http://www.w3.org/2000/svg" xmlns:xlink="http://www.w3.org/1999/xlink">
<g id="graph0" class="graph" transform="scale(1 1) rotate(0) translate(4 1213.01)">
<title>DATAEXFILTRATIONhttp</title>
<polygon fill="white" stroke="transparent" points="-4,4 -4,-1213.01 2507.5,-1213.01 2507.5,4 -4,4"/>
<!-- Victim: 10.0.0.176
DATA EXFILTRATION
http -->
<g id="node1" class="node">
<title>Victim: 10.0.0.176
DATA EXFILTRATION
http</title>
<polygon fill="salmon" stroke="black" stroke-width="3" points="1198.72,-1112 1198.72,-1166.39 1086.12,-1204.85 926.89,-1204.85 814.29,-1166.39 814.29,-1112 926.89,-1073.54 1086.12,-1073.54 1198.72,-1112"/>
<polygon fill="none" stroke="black" stroke-width="3" points="1202.72,-1109.15 1202.72,-1169.24 1086.79,-1208.84 926.22,-1208.84 810.29,-1169.24 810.29,-1109.15 926.22,-1069.55 1086.79,-1069.55 1202.72,-1109.15"/>
<text text-anchor="middle" x="1006.5" y="-1158.99" font-family="Arial" font-size="24.00">Victim: 10.0.0.176</text>
<text text-anchor="middle" x="1006.5" y="-1132.99" font-family="Arial" font-size="24.00">DATA EXFILTRATION</text>
<text text-anchor="middle" x="1006.5" y="-1106.99" font-family="Arial" font-size="24.00">http</text>
</g>
<!-- DATA EXFILTRATION
http | ID: 15 -->
<g id="node2" class="node">
<title>DATA EXFILTRATION
http | ID: 15</title>
<g id="a_node2"><a xlink:title="GPL WEB_SERVER Tomcat server snoop access&#10;ETPRO WEB_SERVER Possible Information Leak Vuln CVE&#45;2015&#45;1648&#10;GPL EXPLOIT ISAPI .ida access&#10;GPL EXPLOIT /msadc/samples/ access&#10;ET WEB_SERVER ColdFusion componentutils access&#10;ET WEB_SERVER /system32/ in Uri &#45; Possible Protected Directory Access Attempt&#10;ET WEB_SPECIFIC_APPS PHP&#45;CGI query string parameter vulnerability&#10;ET WEB_SERVER Possible XXE SYSTEM ENTITY in POST BODY.&#10;ET WEB_SERVER /etc/shadow Detected in URI&#10;ET WEB_SERVER Possible MySQL SQLi Attempt Information Schema Access&#10;GPL EXPLOIT ISAPI .idq access">
<polygon fill="salmon" stroke="black" stroke-width="3" points="1211.39,-938.38 1108.95,-987.36 904.06,-987.36 801.62,-938.38 904.06,-889.4 1108.95,-889.4 1211.39,-938.38"/>
<text text-anchor="middle" x="1006.5" y="-945.18" font-family="Arial" font-size="24.00">DATA EXFILTRATION</text>
<text text-anchor="middle" x="1006.5" y="-919.18" font-family="Arial" font-size="24.00">http | ID: 15</text>
</a>
</g>
</g>
<!-- DATA EXFILTRATION
http | ID: 15&#45;&gt;Victim: 10.0.0.176
DATA EXFILTRATION
http -->
<g id="edge1" class="edge">
<title>DATA EXFILTRATION
http | ID: 15&#45;&gt;Victim: 10.0.0.176
DATA EXFILTRATION
http</title>
<path fill="none" stroke="black" stroke-width="5" d="M1006.5,-987.51C1006.5,-1009.03 1006.5,-1034.96 1006.5,-1059.2"/>
<polygon fill="black" stroke="black" stroke-width="5" points="1002.13,-1059.47 1006.5,-1069.47 1010.88,-1059.47 1002.13,-1059.47"/>
</g>
<!-- VULNERABILTY DISCOVERY
http -->
<g id="node3" class="node">
<title>VULNERABILTY DISCOVERY
http</title>
<g id="a_node3"><a xlink:title="ET SCAN Suspicious inbound to mSQL port 4333&#10;ET SCAN Suspicious inbound to mySQL port 3306&#10;ET SCAN Suspicious inbound to MSSQL port 1433&#10;ETPRO WEB_SERVER SQLMap Scan Tool User Agent&#10;ET SCAN Nikto Web App Scan in Progress&#10;ET SCAN Suspicious inbound to PostgreSQL port 5432&#10;ET SCAN Sqlmap SQL Injection Scan&#10;ET SCAN Suspicious inbound to Oracle SQL port 1521">
<ellipse fill="yellow" stroke="black" stroke-width="3" cx="1261.5" cy="-223.28" rx="241.25" ry="42.35"/>
<text text-anchor="middle" x="1261.5" y="-230.08" font-family="Arial" font-size="24.00">VULNERABILTY DISCOVERY</text>
<text text-anchor="middle" x="1261.5" y="-204.08" font-family="Arial" font-size="24.00">http</text>
</a>
</g>
</g>
<!-- VULNERABILTY DISCOVERY
http&#45;&gt;DATA EXFILTRATION
http | ID: 15 -->
<g id="edge24" class="edge">
<title>VULNERABILTY DISCOVERY
http&#45;&gt;DATA EXFILTRATION
http | ID: 15</title>
<path fill="none" stroke="purple" stroke-width="5" d="M1192.56,-264.17C1189.32,-267.19 1186.27,-270.37 1183.5,-273.71 1156.64,-306.11 1160.28,-321.3 1148.5,-361.71 1143.03,-380.48 1130.36,-521.85 1115.5,-534.56 1095.15,-551.98 893.62,-523.79 874.5,-542.56 847.62,-568.96 839.16,-850.34 860.5,-881.39 863.72,-886.07 867.39,-890.37 871.42,-894.3"/>
<polygon fill="purple" stroke="purple" stroke-width="5" points="868.63,-897.67 879.03,-901 874.41,-891.11 868.63,-897.67"/>
<text text-anchor="middle" x="1006" y="-601.98" font-family="Arial" font-size="20.00" fill="purple">start_next: 03/11/18, 17:20:13</text>
<text text-anchor="middle" x="1006" y="-579.98" font-family="Arial" font-size="20.00" fill="purple">gap: 0sec</text>
<text text-anchor="middle" x="1006" y="-557.98" font-family="Arial" font-size="20.00" fill="purple">end_prev: 03/11/18, 17:20:13</text>
</g>
<!-- ROOT PRIVILEGE ESCALATION
http | ID: 615 -->
<g id="node4" class="node">
<title>ROOT PRIVILEGE ESCALATION
http | ID: 615</title>
<g id="a_node4"><a xlink:title="ET WEB_SERVER Possible SQLi xp_cmdshell POST body&#10;ET WEB_SERVER Attempt To Access MSSQL xp_cmdshell Stored Procedure Via URI">
<polygon fill="none" stroke="black" stroke-width="3" stroke-dasharray="1,5" points="2019,-434.13 1644,-434.13 1644,-374.13 2019,-374.13 2019,-434.13"/>
<text text-anchor="middle" x="1831.5" y="-410.93" font-family="Arial" font-size="24.00">ROOT PRIVILEGE ESCALATION</text>
<text text-anchor="middle" x="1831.5" y="-384.93" font-family="Arial" font-size="24.00">http | ID: 615</text>
</a>
</g>
</g>
<!-- VULNERABILTY DISCOVERY
http&#45;&gt;ROOT PRIVILEGE ESCALATION
http | ID: 615 -->
<g id="edge2" class="edge">
<title>VULNERABILTY DISCOVERY
http&#45;&gt;ROOT PRIVILEGE ESCALATION
http | ID: 615</title>
<path fill="none" stroke="maroon" stroke-width="5" d="M1380.11,-260.3C1394.73,-264.79 1409.47,-269.34 1423.5,-273.71 1528.62,-306.41 1648.7,-344.6 1731.22,-370.98"/>
<polygon fill="maroon" stroke="maroon" stroke-width="5" points="1729.99,-375.18 1740.85,-374.06 1732.66,-366.85 1729.99,-375.18"/>
<text text-anchor="start" x="1675.5" y="-338.71" font-family="Arial" font-size="20.00" fill="maroon"> start_next: 03/11/18, 20:45:55</text>
<text text-anchor="start" x="1757" y="-318.71" font-family="Arial" font-size="20.00" fill="maroon">gap: &#45;82sec</text>
<text text-anchor="start" x="1679.5" y="-298.71" font-family="Arial" font-size="20.00" fill="maroon">end_prev: 03/11/18, 20:47:17</text>
<text text-anchor="start" x="1704.5" y="-278.71" font-family="Arial" font-weight="bold" font-size="20.00" fill="maroon">Attacker: 10.0.254.206</text>
</g>
<!-- INFO DISCOVERY
http -->
<g id="node9" class="node">
<title>INFO DISCOVERY
http</title>
<g id="a_node9"><a xlink:title="GPL WEB_SERVER viewcode access&#10;GPL WEB_SERVER .htaccess access&#10;GPL WEB_SERVER writeto.cnf access&#10;GPL WEB_SERVER iisadmin access&#10;ET WEB_SERVER PHP Easteregg Information&#45;Disclosure (funny&#45;logo)&#10;ET WEB_SPECIFIC_APPS Request to Wordpress W3TC Plug&#45;in dbcache Directory&#10;GPL WEB_SERVER services.cnf access&#10;ET WEB_SERVER PHP Easteregg Information&#45;Disclosure (zend&#45;logo)&#10;GPL EXPLOIT unicode directory traversal attempt&#10;ET WEB_SERVER PHP Easteregg Information&#45;Disclosure (php&#45;logo)&#10;GPL WEB_SERVER service.cnf access&#10;GPL EXPLOIT iisadmpwd attempt&#10;ET WEB_SERVER PHP SESSION SuperGlobal in URI&#10;GPL WEB_SERVER /~root access&#10;GPL WEB_SERVER authors.pwd access&#10;ET WEB_SERVER PHP ENV SuperGlobal in URI&#10;GPL EXPLOIT .cnf access&#10;ET POLICY Proxy TRACE Request &#45; inbound&#10;GPL WEB_SERVER .htpasswd access&#10;GPL WEB_SERVER global.asa access&#10;ET WEB_SERVER PHP SERVER SuperGlobal in URI&#10;GPL EXPLOIT fpcount access&#10;GPL WEB_SERVER globals.pl access&#10;GPL WEB_SERVER service.pwd&#10;GPL EXPLOIT ISAPI .idq attempt&#10;ET WEB_SERVER PHP Easteregg Information&#45;Disclosure (phpinfo)&#10;GPL WEB_SERVER printenv access&#10;GPL WEB_SERVER author.exe access&#10;GPL EXPLOIT iissamples access&#10;GPL EXPLOIT .htr access&#10;ET WEB_SERVER PHP REQUEST SuperGlobal in URI">
<ellipse fill="none" stroke="black" stroke-width="3" cx="1143.5" cy="-758.4" rx="156.04" ry="42.35"/>
<text text-anchor="middle" x="1143.5" y="-765.2" font-family="Arial" font-size="24.00">INFO DISCOVERY</text>
<text text-anchor="middle" x="1143.5" y="-739.2" font-family="Arial" font-size="24.00">http</text>
</a>
</g>
</g>
<!-- VULNERABILTY DISCOVERY
http&#45;&gt;INFO DISCOVERY
http -->
<g id="edge10" class="edge">
<title>VULNERABILTY DISCOVERY
http&#45;&gt;INFO DISCOVERY
http</title>
<path fill="none" stroke="darkgreen" stroke-width="5" d="M1233.79,-265.79C1205.84,-310.29 1164.49,-384.08 1147.5,-454.56 1136.41,-500.6 1138.95,-631.8 1141.43,-705.51"/>
<polygon fill="darkgreen" stroke="darkgreen" stroke-width="5" points="1137.07,-706.11 1141.79,-715.95 1145.82,-705.81 1137.07,-706.11"/>
<text text-anchor="middle" x="1279" y="-511.56" font-family="Arial" font-size="20.00" fill="darkgreen">start_next: 03/11/18, 17:37:53</text>
<text text-anchor="middle" x="1279" y="-489.56" font-family="Arial" font-size="20.00" fill="darkgreen">gap: &#45;291sec</text>
<text text-anchor="middle" x="1279" y="-467.56" font-family="Arial" font-size="20.00" fill="darkgreen">end_prev: 03/11/18, 17:42:45</text>
</g>
<!-- VULNERABILTY DISCOVERY
http&#45;&gt;INFO DISCOVERY
http -->
<g id="edge16" class="edge">
<title>VULNERABILTY DISCOVERY
http&#45;&gt;INFO DISCOVERY
http</title>
<path fill="none" stroke="magenta" stroke-width="5" d="M1305.37,-265.37C1363.13,-324.72 1452.4,-437.91 1407.5,-534.56 1369.92,-615.47 1286.87,-677.6 1223.89,-715.44"/>
<polygon fill="magenta" stroke="magenta" stroke-width="5" points="1221.52,-711.76 1215.15,-720.62 1225.98,-719.29 1221.52,-711.76"/>
<text text-anchor="start" x="1419.5" y="-519.56" font-family="Arial" font-size="20.00" fill="magenta"> start_next: 03/11/18, 15:19:52</text>
<text text-anchor="start" x="1510" y="-499.56" font-family="Arial" font-size="20.00" fill="magenta">gap: 0sec</text>
<text text-anchor="start" x="1423.5" y="-479.56" font-family="Arial" font-size="20.00" fill="magenta">end_prev: 03/11/18, 15:19:52</text>
<text text-anchor="start" x="1448.5" y="-459.56" font-family="Arial" font-weight="bold" font-size="20.00" fill="magenta">Attacker: 10.0.254.206</text>
</g>
<!-- REMOTE SERVICE EXPLOIT
http | ID: 347 -->
<g id="node5" class="node">
<title>REMOTE SERVICE EXPLOIT
http | ID: 347</title>
<g id="a_node5"><a xlink:title="ET WEB_SERVER Script tag in URI Possible Cross Site Scripting Attempt">
<polygon fill="none" stroke="black" stroke-width="3" stroke-dasharray="1,5" points="2067.5,-614.98 1729.5,-614.98 1729.5,-554.98 2067.5,-554.98 2067.5,-614.98"/>
<text text-anchor="middle" x="1898.5" y="-591.78" font-family="Arial" font-size="24.00">REMOTE SERVICE EXPLOIT</text>
<text text-anchor="middle" x="1898.5" y="-565.78" font-family="Arial" font-size="24.00">http | ID: 347</text>
</a>
</g>
</g>
<!-- ROOT PRIVILEGE ESCALATION
http | ID: 615&#45;&gt;REMOTE SERVICE EXPLOIT
http | ID: 347 -->
<g id="edge3" class="edge">
<title>ROOT PRIVILEGE ESCALATION
http | ID: 615&#45;&gt;REMOTE SERVICE EXPLOIT
http | ID: 347</title>
<path fill="none" stroke="maroon" stroke-width="5" d="M1842.42,-434.27C1853.76,-464.54 1871.56,-512.06 1884.06,-545.43"/>
<polygon fill="maroon" stroke="maroon" stroke-width="5" points="1879.99,-547.03 1887.6,-554.86 1888.18,-543.96 1879.99,-547.03"/>
<text text-anchor="middle" x="2010" y="-511.56" font-family="Arial" font-size="20.00" fill="maroon">start_next: 03/11/18, 20:45:55</text>
<text text-anchor="middle" x="2010" y="-489.56" font-family="Arial" font-size="20.00" fill="maroon">gap: &#45;42sec</text>
<text text-anchor="middle" x="2010" y="-467.56" font-family="Arial" font-size="20.00" fill="maroon">end_prev: 03/11/18, 20:46:37</text>
</g>
<!-- DATA MANIPULATION
http | ID: 129 -->
<g id="node6" class="node">
<title>DATA MANIPULATION
http | ID: 129</title>
<g id="a_node6"><a xlink:title="ET WEB_SERVER Possible SQL Injection Attempt SELECT FROM&#10;ET WEB_SERVER MYSQL SELECT CONCAT SQL Injection Attempt&#10;ET WEB_SERVER Possible SQL Injection Attempt UNION SELECT">
<polygon fill="none" stroke="black" stroke-width="3" points="2179.72,-758.4 2073.11,-807.38 1859.9,-807.38 1753.29,-758.4 1859.9,-709.42 2073.11,-709.42 2179.72,-758.4"/>
<text text-anchor="middle" x="1966.5" y="-765.2" font-family="Arial" font-size="24.00">DATA MANIPULATION</text>
<text text-anchor="middle" x="1966.5" y="-739.2" font-family="Arial" font-size="24.00">http | ID: 129</text>
</a>
</g>
</g>
<!-- REMOTE SERVICE EXPLOIT
http | ID: 347&#45;&gt;DATA MANIPULATION
http | ID: 129 -->
<g id="edge4" class="edge">
<title>REMOTE SERVICE EXPLOIT
http | ID: 347&#45;&gt;DATA MANIPULATION
http | ID: 129</title>
<path fill="none" stroke="maroon" stroke-width="5" d="M1910.04,-615.06C1919.23,-638.23 1932.39,-671.4 1943.69,-699.89"/>
<polygon fill="maroon" stroke="maroon" stroke-width="5" points="1939.69,-701.67 1947.44,-709.35 1947.82,-698.44 1939.69,-701.67"/>
<text text-anchor="middle" x="2074" y="-685.41" font-family="Arial" font-size="20.00" fill="maroon">start_next: 03/11/18, 20:45:55</text>
<text text-anchor="middle" x="2074" y="-663.41" font-family="Arial" font-size="20.00" fill="maroon">gap: 0sec</text>
<text text-anchor="middle" x="2074" y="-641.41" font-family="Arial" font-size="20.00" fill="maroon">end_prev: 03/11/18, 20:45:55</text>
</g>
<!-- DATA MANIPULATION
http | ID: 129&#45;&gt;DATA EXFILTRATION
http | ID: 15 -->
<g id="edge5" class="edge">
<title>DATA MANIPULATION
http | ID: 129&#45;&gt;DATA EXFILTRATION
http | ID: 15</title>
<path fill="none" stroke="maroon" stroke-width="5" d="M1969.3,-807.46C1969.86,-837.11 1968.02,-871.34 1957.5,-881.39 1951.74,-886.9 1678.47,-888.99 1670.5,-889.39 1507.66,-897.54 1322.65,-911.28 1189.35,-921.98"/>
<polygon fill="maroon" stroke="maroon" stroke-width="5" points="1188.66,-917.64 1179.04,-922.81 1189.36,-926.37 1188.66,-917.64"/>
<text text-anchor="middle" x="2100" y="-865.39" font-family="Arial" font-size="20.00" fill="maroon">start_next: 03/11/18, 20:45:55</text>
<text text-anchor="middle" x="2100" y="-843.39" font-family="Arial" font-size="20.00" fill="maroon">gap: &#45;84sec</text>
<text text-anchor="middle" x="2100" y="-821.39" font-family="Arial" font-size="20.00" fill="maroon">end_prev: 03/11/18, 20:47:19</text>
</g>
<!-- HOST DISCOVERY
http -->
<g id="node7" class="node">
<title>HOST DISCOVERY
http</title>
<g id="a_node7"><a xlink:title="ET SCAN Nmap Scripting Engine User&#45;Agent Detected (Nmap Scripting Engine)&#10;ET SCAN Possible Nmap User&#45;Agent Observed">
<ellipse fill="yellow" stroke="black" stroke-width="3" cx="976.5" cy="-42.43" rx="162.77" ry="42.35"/>
<text text-anchor="middle" x="976.5" y="-49.23" font-family="Arial" font-size="24.00">HOST DISCOVERY</text>
<text text-anchor="middle" x="976.5" y="-23.23" font-family="Arial" font-size="24.00">http</text>
</a>
</g>
</g>
<!-- HOST DISCOVERY
http&#45;&gt;VULNERABILTY DISCOVERY
http -->
<g id="edge9" class="edge">
<title>HOST DISCOVERY
http&#45;&gt;VULNERABILTY DISCOVERY
http</title>
<path fill="none" stroke="darkgreen" stroke-width="5" d="M1115.36,-64.59C1135.96,-71.51 1156.09,-80.69 1173.5,-92.85 1201.72,-112.56 1223.56,-144.46 1238.43,-171.66"/>
<polygon fill="darkgreen" stroke="darkgreen" stroke-width="5" points="1234.65,-173.88 1243.2,-180.67 1242.39,-169.79 1234.65,-173.88"/>
<text text-anchor="start" x="1238.5" y="-157.85" font-family="Arial" font-size="20.00" fill="darkgreen"> start_next: 03/11/18, 17:37:52</text>
<text text-anchor="start" x="1329" y="-137.85" font-family="Arial" font-size="20.00" fill="darkgreen">gap: 4sec</text>
<text text-anchor="start" x="1242.5" y="-117.85" font-family="Arial" font-size="20.00" fill="darkgreen">end_prev: 03/11/18, 17:37:48</text>
<text text-anchor="start" x="1267.5" y="-97.85" font-family="Arial" font-weight="bold" font-size="20.00" fill="darkgreen">Attacker: 10.0.254.204</text>
</g>
<!-- VULNERABILTY DISCOVERY
mysql -->
<g id="node8" class="node">
<title>VULNERABILTY DISCOVERY
mysql</title>
<g id="a_node8"><a xlink:title="ET SCAN Suspicious inbound to mySQL port 3306&#10;ET SCAN Suspicious inbound to MSSQL port 1433&#10;ET SCAN Nikto Web App Scan in Progress&#10;ET SCAN Suspicious inbound to PostgreSQL port 5432&#10;ET SCAN Suspicious inbound to Oracle SQL port 1521&#10;ET SCAN Suspicious inbound to mSQL port 4333">
<ellipse fill="yellow" stroke="black" stroke-width="3" cx="732.5" cy="-223.28" rx="241.25" ry="42.35"/>
<text text-anchor="middle" x="732.5" y="-230.08" font-family="Arial" font-size="24.00">VULNERABILTY DISCOVERY</text>
<text text-anchor="middle" x="732.5" y="-204.08" font-family="Arial" font-size="24.00">mysql</text>
</a>
</g>
</g>
<!-- HOST DISCOVERY
http&#45;&gt;VULNERABILTY DISCOVERY
mysql -->
<g id="edge6" class="edge">
<title>HOST DISCOVERY
http&#45;&gt;VULNERABILTY DISCOVERY
mysql</title>
<path fill="none" stroke="darkgreen" stroke-width="5" d="M922.96,-82.68C885.5,-110.13 835.32,-146.92 795.86,-175.84"/>
<polygon fill="darkgreen" stroke="darkgreen" stroke-width="5" points="793.1,-172.44 787.62,-181.88 798.27,-179.5 793.1,-172.44"/>
<text text-anchor="start" x="904.5" y="-157.85" font-family="Arial" font-size="20.00" fill="darkgreen"> start_next: 03/11/18, 14:52:48</text>
<text text-anchor="start" x="995" y="-137.85" font-family="Arial" font-size="20.00" fill="darkgreen">gap: 3sec</text>
<text text-anchor="start" x="908.5" y="-117.85" font-family="Arial" font-size="20.00" fill="darkgreen">end_prev: 03/11/18, 14:52:45</text>
<text text-anchor="start" x="933.5" y="-97.85" font-family="Arial" font-weight="bold" font-size="20.00" fill="darkgreen">Attacker: 10.0.254.201</text>
</g>
<!-- VULNERABILTY DISCOVERY
mysql&#45;&gt;INFO DISCOVERY
http -->
<g id="edge7" class="edge">
<title>VULNERABILTY DISCOVERY
mysql&#45;&gt;INFO DISCOVERY
http</title>
<path fill="none" stroke="darkgreen" stroke-width="5" d="M833.73,-262.18C837.36,-265.69 840.65,-269.52 843.5,-273.71 932.24,-403.71 772.41,-497.65 861.5,-627.41 896.34,-678.14 956.17,-709.47 1011.79,-728.62"/>
<polygon fill="darkgreen" stroke="darkgreen" stroke-width="5" points="1010.52,-732.81 1021.39,-731.83 1013.29,-724.51 1010.52,-732.81"/>
<text text-anchor="middle" x="983" y="-511.56" font-family="Arial" font-size="20.00" fill="darkgreen">start_next: 03/11/18, 14:52:49</text>
<text text-anchor="middle" x="983" y="-489.56" font-family="Arial" font-size="20.00" fill="darkgreen">gap: &#45;314sec</text>
<text text-anchor="middle" x="983" y="-467.56" font-family="Arial" font-size="20.00" fill="darkgreen">end_prev: 03/11/18, 14:58:02</text>
</g>
<!-- SERVICE DISCOVERY
rpas&#45;c2 -->
<g id="node10" class="node">
<title>SERVICE DISCOVERY
rpas&#45;c2</title>
<g id="a_node10"><a xlink:title="ET SCAN Potential VNC Scan 5900&#45;5920&#10;ET SCAN Potential VNC Scan 5800&#45;5820&#10;ET SCAN Potential SSH Scan">
<ellipse fill="none" stroke="black" stroke-width="3" cx="189.5" cy="-404.13" rx="189.51" ry="42.35"/>
<text text-anchor="middle" x="189.5" y="-410.93" font-family="Arial" font-size="24.00">SERVICE DISCOVERY</text>
<text text-anchor="middle" x="189.5" y="-384.93" font-family="Arial" font-size="24.00">rpas&#45;c2</text>
</a>
</g>
</g>
<!-- VULNERABILTY DISCOVERY
mysql&#45;&gt;SERVICE DISCOVERY
rpas&#45;c2 -->
<g id="edge12" class="edge">
<title>VULNERABILTY DISCOVERY
mysql&#45;&gt;SERVICE DISCOVERY
rpas&#45;c2</title>
<path fill="none" stroke="magenta" stroke-width="5" d="M499.83,-234.6C414.56,-241.69 330,-253.62 293.5,-273.71 260.66,-291.78 234.35,-324.89 216.41,-353.09"/>
<polygon fill="magenta" stroke="magenta" stroke-width="5" points="212.64,-350.86 211.11,-361.67 220.09,-355.46 212.64,-350.86"/>
<text text-anchor="start" x="293.5" y="-338.71" font-family="Arial" font-size="20.00" fill="magenta"> start_next: 03/11/18, 14:32:48</text>
<text text-anchor="start" x="375" y="-318.71" font-family="Arial" font-size="20.00" fill="magenta">gap: &#45;10sec</text>
<text text-anchor="start" x="297.5" y="-298.71" font-family="Arial" font-size="20.00" fill="magenta">end_prev: 03/11/18, 14:32:58</text>
<text text-anchor="start" x="322.5" y="-278.71" font-family="Arial" font-weight="bold" font-size="20.00" fill="magenta">Attacker: 10.0.254.205</text>
</g>
<!-- SERVICE DISCOVERY
unknown -->
<g id="node13" class="node">
<title>SERVICE DISCOVERY
unknown</title>
<g id="a_node13"><a xlink:title="ET SCAN Potential VNC Scan 5800&#45;5820">
<ellipse fill="none" stroke="black" stroke-width="3" cx="575.5" cy="-404.13" rx="189.51" ry="42.35"/>
<text text-anchor="middle" x="575.5" y="-410.93" font-family="Arial" font-size="24.00">SERVICE DISCOVERY</text>
<text text-anchor="middle" x="575.5" y="-384.93" font-family="Arial" font-size="24.00">unknown</text>
</a>
</g>
</g>
<!-- VULNERABILTY DISCOVERY
mysql&#45;&gt;SERVICE DISCOVERY
unknown -->
<g id="edge18" class="edge">
<title>VULNERABILTY DISCOVERY
mysql&#45;&gt;SERVICE DISCOVERY
unknown</title>
<path fill="none" stroke="purple" stroke-width="5" d="M593.53,-258.12C587.95,-262.69 582.87,-267.86 578.5,-273.71 562.17,-295.56 560.66,-325.79 563.57,-351.54"/>
<polygon fill="purple" stroke="purple" stroke-width="5" points="559.25,-352.21 564.95,-361.52 567.92,-351.02 559.25,-352.21"/>
<text text-anchor="start" x="578.5" y="-338.71" font-family="Arial" font-size="20.00" fill="purple"> start_next: 03/11/18, 15:48:56</text>
<text text-anchor="start" x="669" y="-318.71" font-family="Arial" font-size="20.00" fill="purple">gap: 0sec</text>
<text text-anchor="start" x="582.5" y="-298.71" font-family="Arial" font-size="20.00" fill="purple">end_prev: 03/11/18, 15:48:56</text>
<text text-anchor="start" x="607.5" y="-278.71" font-family="Arial" font-weight="bold" font-size="20.00" fill="purple">Attacker: 10.0.254.206</text>
</g>
<!-- INFO DISCOVERY
http&#45;&gt;DATA EXFILTRATION
http | ID: 15 -->
<g id="edge8" class="edge">
<title>INFO DISCOVERY
http&#45;&gt;DATA EXFILTRATION
http | ID: 15</title>
<path fill="none" stroke="darkgreen" stroke-width="5" d="M996.63,-773.16C942.05,-781.57 889.27,-794.81 872.5,-815.39 853.98,-838.13 856.25,-856.98 872.5,-881.39 874.62,-884.57 876.95,-887.57 879.47,-890.39"/>
<polygon fill="darkgreen" stroke="darkgreen" stroke-width="5" points="876.39,-893.5 886.55,-897.49 882.59,-887.32 876.39,-893.5"/>
<text text-anchor="middle" x="1004" y="-865.39" font-family="Arial" font-size="20.00" fill="darkgreen">start_next: 03/11/18, 14:52:50</text>
<text text-anchor="middle" x="1004" y="-843.39" font-family="Arial" font-size="20.00" fill="darkgreen">gap: &#45;46sec</text>
<text text-anchor="middle" x="1004" y="-821.39" font-family="Arial" font-size="20.00" fill="darkgreen">end_prev: 03/11/18, 14:53:36</text>
</g>
<!-- INFO DISCOVERY
http&#45;&gt;DATA EXFILTRATION
http | ID: 15 -->
<g id="edge11" class="edge">
<title>INFO DISCOVERY
http&#45;&gt;DATA EXFILTRATION
http | ID: 15</title>
<path fill="none" stroke="darkgreen" stroke-width="5" d="M1144.16,-800.93C1143.83,-831.12 1141.51,-868.81 1132.5,-881.39 1130.98,-883.52 1129.36,-885.57 1127.64,-887.54"/>
<polygon fill="darkgreen" stroke="darkgreen" stroke-width="5" points="1124.45,-884.55 1120.63,-894.77 1130.73,-890.64 1124.45,-884.55"/>
<text text-anchor="middle" x="1275" y="-865.39" font-family="Arial" font-size="20.00" fill="darkgreen">start_next: 03/11/18, 17:37:53</text>
<text text-anchor="middle" x="1275" y="-843.39" font-family="Arial" font-size="20.00" fill="darkgreen">gap: &#45;33sec</text>
<text text-anchor="middle" x="1275" y="-821.39" font-family="Arial" font-size="20.00" fill="darkgreen">end_prev: 03/11/18, 17:38:27</text>
</g>
<!-- INFO DISCOVERY
http&#45;&gt;DATA EXFILTRATION
http | ID: 15 -->
<g id="edge17" class="edge">
<title>INFO DISCOVERY
http&#45;&gt;DATA EXFILTRATION
http | ID: 15</title>
<path fill="none" stroke="magenta" stroke-width="5" d="M1289.14,-774.02C1341.41,-782.51 1391.47,-795.6 1407.5,-815.39 1425.97,-838.18 1426.76,-859.26 1407.5,-881.39 1380.82,-912.06 1296.38,-926.45 1211.83,-933"/>
<polygon fill="magenta" stroke="magenta" stroke-width="5" points="1211.44,-928.64 1201.79,-933.74 1212.08,-937.37 1211.44,-928.64"/>
<text text-anchor="middle" x="1553" y="-865.39" font-family="Arial" font-size="20.00" fill="magenta">start_next: 03/11/18, 15:19:52</text>
<text text-anchor="middle" x="1553" y="-843.39" font-family="Arial" font-size="20.00" fill="magenta">gap: &#45;39sec</text>
<text text-anchor="middle" x="1553" y="-821.39" font-family="Arial" font-size="20.00" fill="magenta">end_prev: 03/11/18, 15:20:31</text>
</g>
<!-- NETWORK DoS
http | ID: 5 -->
<g id="node14" class="node">
<title>NETWORK DoS
http | ID: 5</title>
<g id="a_node14"><a xlink:title="ET WEB_SERVER Possible Cherokee Web Server GET AUX Request Denial Of Service Attempt">
<polygon fill="none" stroke="black" stroke-width="3" points="1987.04,-938.38 1908.77,-987.36 1752.24,-987.36 1673.97,-938.38 1752.24,-889.4 1908.77,-889.4 1987.04,-938.38"/>
<text text-anchor="middle" x="1830.5" y="-945.18" font-family="Arial" font-size="24.00">NETWORK DoS</text>
<text text-anchor="middle" x="1830.5" y="-919.18" font-family="Arial" font-size="24.00">http | ID: 5</text>
</a>
</g>
</g>
<!-- INFO DISCOVERY
http&#45;&gt;NETWORK DoS
http | ID: 5 -->
<g id="edge21" class="edge">
<title>INFO DISCOVERY
http&#45;&gt;NETWORK DoS
http | ID: 5</title>
<path fill="none" stroke="purple" stroke-width="5" d="M1297.31,-766.32C1446.37,-774.45 1654.04,-790.15 1682.5,-815.39 1705.01,-835.35 1678.17,-858.34 1697.5,-881.39 1703.36,-888.37 1710.23,-894.49 1717.71,-899.87"/>
<polygon fill="purple" stroke="purple" stroke-width="5" points="1715.3,-903.52 1726.06,-905.41 1720.15,-896.23 1715.3,-903.52"/>
<text text-anchor="middle" x="1829" y="-865.39" font-family="Arial" font-size="20.00" fill="purple">start_next: 03/11/18, 17:16:50</text>
<text text-anchor="middle" x="1829" y="-843.39" font-family="Arial" font-size="20.00" fill="purple">gap: &#45;256sec</text>
<text text-anchor="middle" x="1829" y="-821.39" font-family="Arial" font-size="20.00" fill="purple">end_prev: 03/11/18, 17:21:06</text>
</g>
<!-- HOST DISCOVERY
etlservicemgr -->
<g id="node11" class="node">
<title>HOST DISCOVERY
etlservicemgr</title>
<g id="a_node11"><a xlink:title="ET SCAN Nmap Scripting Engine User&#45;Agent Detected (Nmap Scripting Engine)&#10;ET SCAN Possible Nmap User&#45;Agent Observed">
<ellipse fill="none" stroke="black" stroke-width="3" cx="439.5" cy="-584.98" rx="162.77" ry="42.35"/>
<text text-anchor="middle" x="439.5" y="-591.78" font-family="Arial" font-size="24.00">HOST DISCOVERY</text>
<text text-anchor="middle" x="439.5" y="-565.78" font-family="Arial" font-size="24.00">etlservicemgr</text>
</a>
</g>
</g>
<!-- SERVICE DISCOVERY
rpas&#45;c2&#45;&gt;HOST DISCOVERY
etlservicemgr -->
<g id="edge13" class="edge">
<title>SERVICE DISCOVERY
rpas&#45;c2&#45;&gt;HOST DISCOVERY
etlservicemgr</title>
<path fill="none" stroke="magenta" stroke-width="5" d="M187.57,-446.71C188.57,-475.16 194.81,-511.73 217.5,-534.56 228.89,-546.01 255.66,-555.19 286.82,-562.38"/>
<polygon fill="magenta" stroke="magenta" stroke-width="5" points="285.91,-566.66 296.62,-564.55 287.8,-558.12 285.91,-566.66"/>
<text text-anchor="middle" x="349" y="-511.56" font-family="Arial" font-size="20.00" fill="magenta">start_next: 03/11/18, 14:33:10</text>
<text text-anchor="middle" x="349" y="-489.56" font-family="Arial" font-size="20.00" fill="magenta">gap: 0sec</text>
<text text-anchor="middle" x="349" y="-467.56" font-family="Arial" font-size="20.00" fill="magenta">end_prev: 03/11/18, 14:33:09</text>
</g>
<!-- HOST DISCOVERY
etlservicemgr&#45;&gt;INFO DISCOVERY
http -->
<g id="edge20" class="edge">
<title>HOST DISCOVERY
etlservicemgr&#45;&gt;INFO DISCOVERY
http</title>
<path fill="none" stroke="purple" stroke-width="5" d="M546.92,-616.88C554.94,-622.13 562.3,-628.25 568.5,-635.41 588.21,-658.14 560.96,-681.5 583.5,-701.41 612.84,-727.32 824.84,-742.73 979.35,-750.63"/>
<polygon fill="purple" stroke="purple" stroke-width="5" points="979.23,-755.01 989.44,-751.14 979.67,-746.27 979.23,-755.01"/>
<text text-anchor="middle" x="715" y="-685.41" font-family="Arial" font-size="20.00" fill="purple">start_next: 03/11/18, 17:16:45</text>
<text text-anchor="middle" x="715" y="-663.41" font-family="Arial" font-size="20.00" fill="purple">gap: 5257sec</text>
<text text-anchor="middle" x="715" y="-641.41" font-family="Arial" font-size="20.00" fill="purple">end_prev: 03/11/18, 15:49:08</text>
</g>
<!-- ROOT PRIVILEGE ESCALATION
http | ID: 141 -->
<g id="node12" class="node">
<title>ROOT PRIVILEGE ESCALATION
http | ID: 141</title>
<g id="a_node12"><a xlink:title="GPL EXPLOIT CodeRed v2 root.exe access">
<polygon fill="none" stroke="black" stroke-width="3" points="561,-788.4 186,-788.4 186,-728.4 561,-728.4 561,-788.4"/>
<text text-anchor="middle" x="373.5" y="-765.2" font-family="Arial" font-size="24.00">ROOT PRIVILEGE ESCALATION</text>
<text text-anchor="middle" x="373.5" y="-739.2" font-family="Arial" font-size="24.00">http | ID: 141</text>
</a>
</g>
</g>
<!-- HOST DISCOVERY
etlservicemgr&#45;&gt;ROOT PRIVILEGE ESCALATION
http | ID: 141 -->
<g id="edge14" class="edge">
<title>HOST DISCOVERY
etlservicemgr&#45;&gt;ROOT PRIVILEGE ESCALATION
http | ID: 141</title>
<path fill="none" stroke="magenta" stroke-width="5" d="M327.74,-615.94C320.34,-621.38 313.76,-627.81 308.5,-635.41 291.82,-659.54 296.28,-674.75 308.5,-701.41 311.78,-708.55 316.46,-715.13 321.83,-721.06"/>
<polygon fill="magenta" stroke="magenta" stroke-width="5" points="318.81,-724.22 328.95,-728.24 325.02,-718.06 318.81,-724.22"/>
<text text-anchor="middle" x="440" y="-685.41" font-family="Arial" font-size="20.00" fill="magenta">start_next: 03/11/18, 16:20:09</text>
<text text-anchor="middle" x="440" y="-663.41" font-family="Arial" font-size="20.00" fill="magenta">gap: 6417sec</text>
<text text-anchor="middle" x="440" y="-641.41" font-family="Arial" font-size="20.00" fill="magenta">end_prev: 03/11/18, 14:33:12</text>
</g>
<!-- ROOT PRIVILEGE ESCALATION
http | ID: 141&#45;&gt;DATA EXFILTRATION
http | ID: 15 -->
<g id="edge15" class="edge">
<title>ROOT PRIVILEGE ESCALATION
http | ID: 141&#45;&gt;DATA EXFILTRATION
http | ID: 15</title>
<path fill="none" stroke="magenta" stroke-width="5" d="M412.85,-788.53C453.6,-817.11 520.21,-859.51 584.5,-881.39 656.59,-905.92 739,-919.78 811.76,-927.58"/>
<polygon fill="magenta" stroke="magenta" stroke-width="5" points="811.56,-931.96 821.96,-928.64 812.46,-923.25 811.56,-931.96"/>
<text text-anchor="middle" x="716" y="-865.39" font-family="Arial" font-size="20.00" fill="magenta">start_next: 03/11/18, 16:23:30</text>
<text text-anchor="middle" x="716" y="-843.39" font-family="Arial" font-size="20.00" fill="magenta">gap: 201sec</text>
<text text-anchor="middle" x="716" y="-821.39" font-family="Arial" font-size="20.00" fill="magenta">end_prev: 03/11/18, 16:20:09</text>
</g>
<!-- SERVICE DISCOVERY
unknown&#45;&gt;HOST DISCOVERY
etlservicemgr -->
<g id="edge19" class="edge">
<title>SERVICE DISCOVERY
unknown&#45;&gt;HOST DISCOVERY
etlservicemgr</title>
<path fill="none" stroke="purple" stroke-width="5" d="M546.86,-446.24C528.63,-471.98 504.25,-505.63 481.5,-534.56 481.22,-534.92 480.93,-535.29 480.64,-535.66"/>
<polygon fill="purple" stroke="purple" stroke-width="5" points="477.22,-532.93 474.36,-543.46 484.04,-538.41 477.22,-532.93"/>
<text text-anchor="middle" x="673" y="-511.56" font-family="Arial" font-size="20.00" fill="purple">start_next: 03/11/18, 15:49:08</text>
<text text-anchor="middle" x="673" y="-489.56" font-family="Arial" font-size="20.00" fill="purple">gap: 12sec</text>
<text text-anchor="middle" x="673" y="-467.56" font-family="Arial" font-size="20.00" fill="purple">end_prev: 03/11/18, 15:48:56</text>
</g>
<!-- SURFING
http -->
<g id="node15" class="node">
<title>SURFING
http</title>
<g id="a_node15"><a xlink:title="ET WEB_SERVER WEB&#45;PHP phpinfo access">
<ellipse fill="none" stroke="black" stroke-width="3" cx="2070.5" cy="-1139.19" rx="88.28" ry="42.35"/>
<text text-anchor="middle" x="2070.5" y="-1145.99" font-family="Arial" font-size="24.00">SURFING</text>
<text text-anchor="middle" x="2070.5" y="-1119.99" font-family="Arial" font-size="24.00">http</text>
</a>
</g>
</g>
<!-- NETWORK DoS
http | ID: 5&#45;&gt;SURFING
http -->
<g id="edge22" class="edge">
<title>NETWORK DoS
http | ID: 5&#45;&gt;SURFING
http</title>
<path fill="none" stroke="purple" stroke-width="5" d="M1885.31,-987.47C1911.48,-1010.16 1943.36,-1037.45 1972.5,-1061.37 1986.47,-1072.84 2001.77,-1085 2016.04,-1096.2"/>
<polygon fill="purple" stroke="purple" stroke-width="5" points="2013.73,-1099.94 2024.3,-1102.66 2019.12,-1093.05 2013.73,-1099.94"/>
<text text-anchor="middle" x="2104" y="-1045.37" font-family="Arial" font-size="20.00" fill="purple">start_next: 03/11/18, 17:17:03</text>
<text text-anchor="middle" x="2104" y="-1023.37" font-family="Arial" font-size="20.00" fill="purple">gap: 13sec</text>
<text text-anchor="middle" x="2104" y="-1001.37" font-family="Arial" font-size="20.00" fill="purple">end_prev: 03/11/18, 17:16:50</text>
</g>
<!-- SURFING
http&#45;&gt;VULNERABILTY DISCOVERY
http -->
<g id="edge23" class="edge">
<title>SURFING
http&#45;&gt;VULNERABILTY DISCOVERY
http</title>
<path fill="none" stroke="purple" stroke-width="5" d="M2149.28,-1119.52C2180.35,-1108.02 2213.18,-1089.82 2232.5,-1061.37 2263.04,-1016.43 2240.5,-993.71 2240.5,-939.38 2240.5,-403.13 2240.5,-403.13 2240.5,-403.13 2240.5,-259.55 2083.89,-308.15 1944.5,-273.71 1863.96,-253.8 1668.21,-240.91 1506.82,-233.3"/>
<polygon fill="purple" stroke="purple" stroke-width="5" points="1506.92,-228.93 1496.73,-232.83 1506.52,-237.67 1506.92,-228.93"/>
<text text-anchor="middle" x="2372" y="-685.41" font-family="Arial" font-size="20.00" fill="purple">start_next: 03/11/18, 17:20:13</text>
<text text-anchor="middle" x="2372" y="-663.41" font-family="Arial" font-size="20.00" fill="purple">gap: &#45;50sec</text>
<text text-anchor="middle" x="2372" y="-641.41" font-family="Arial" font-size="20.00" fill="purple">end_prev: 03/11/18, 17:21:03</text>
</g>
</g>
</svg>
