<?xml version="1.0" encoding="UTF-8" standalone="no"?>
<!DOCTYPE svg PUBLIC "-//W3C//DTD SVG 1.1//EN"
 "http://www.w3.org/Graphics/SVG/1.1/DTD/svg11.dtd">
<!-- Generated by graphviz version 2.50.0 (0)
 -->
<!-- Title: NETWORKDOShttp Pages: 1 -->
<svg width="4984pt" height="971pt"
 viewBox="0.00 0.00 4984.38 971.16" xmlns="http://www.w3.org/2000/svg" xmlns:xlink="http://www.w3.org/1999/xlink">
<g id="graph0" class="graph" transform="scale(1 1) rotate(0) translate(4 967.16)">
<title>NETWORKDOShttp</title>
<polygon fill="white" stroke="transparent" points="-4,4 -4,-967.16 4980.38,-967.16 4980.38,4 -4,4"/>
<!-- Victim: 10.0.0.176
NETWORK DoS
http -->
<g id="node1" class="node">
<title>Victim: 10.0.0.176
NETWORK DoS
http</title>
<polygon fill="salmon" stroke="black" stroke-width="3" points="737.33,-866.14 737.33,-920.53 643.05,-958.99 509.71,-958.99 415.43,-920.53 415.43,-866.14 509.71,-827.69 643.05,-827.69 737.33,-866.14"/>
<polygon fill="none" stroke="black" stroke-width="3" points="741.34,-863.47 741.34,-923.21 643.84,-962.98 508.93,-962.98 411.43,-923.21 411.43,-863.47 508.93,-823.7 643.84,-823.7 741.34,-863.47"/>
<text text-anchor="middle" x="576.38" y="-913.14" font-family="Arial" font-size="24.00">Victim: 10.0.0.176</text>
<text text-anchor="middle" x="576.38" y="-887.14" font-family="Arial" font-size="24.00">NETWORK DoS</text>
<text text-anchor="middle" x="576.38" y="-861.14" font-family="Arial" font-size="24.00">http</text>
</g>
<!-- NETWORK DoS
http | ID: 5 -->
<g id="node2" class="node">
<title>NETWORK DoS
http | ID: 5</title>
<g id="a_node2"><a xlink:title="ET WEB_SERVER Possible Cherokee Web Server GET AUX Request Denial Of Service Attempt">
<polygon fill="salmon" stroke="black" stroke-width="3" points="732.92,-757.53 654.65,-806.51 498.11,-806.51 419.85,-757.53 498.11,-708.55 654.65,-708.55 732.92,-757.53"/>
<text text-anchor="middle" x="576.38" y="-764.33" font-family="Arial" font-size="24.00">NETWORK DoS</text>
<text text-anchor="middle" x="576.38" y="-738.33" font-family="Arial" font-size="24.00">http | ID: 5</text>
</a>
</g>
</g>
<!-- NETWORK DoS
http | ID: 5&#45;&gt;Victim: 10.0.0.176
NETWORK DoS
http -->
<g id="edge1" class="edge">
<title>NETWORK DoS
http | ID: 5&#45;&gt;Victim: 10.0.0.176
NETWORK DoS
http</title>
<path fill="none" stroke="black" stroke-width="5" d="M576.38,-806.84C576.38,-808.94 576.38,-811.07 576.38,-813.22"/>
<polygon fill="black" stroke="black" stroke-width="5" points="572.01,-813.38 576.38,-823.38 580.76,-813.38 572.01,-813.38"/>
</g>
<!-- VULNERABILTY DISCOVERY
mysql -->
<g id="node3" class="node">
<title>VULNERABILTY DISCOVERY
mysql</title>
<g id="a_node3"><a xlink:title="ET SCAN Suspicious inbound to PostgreSQL port 5432&#10;ET SCAN Suspicious inbound to mySQL port 3306&#10;ET SCAN Suspicious inbound to MSSQL port 1433&#10;ET SCAN Suspicious inbound to Oracle SQL port 1521">
<ellipse fill="yellow" stroke="black" stroke-width="3" cx="2502.38" cy="-215.84" rx="241.25" ry="42.35"/>
<text text-anchor="middle" x="2502.38" y="-222.64" font-family="Arial" font-size="24.00">VULNERABILTY DISCOVERY</text>
<text text-anchor="middle" x="2502.38" y="-196.64" font-family="Arial" font-size="24.00">mysql</text>
</a>
</g>
</g>
<!-- SERVICE DISCOVERY
unknown -->
<g id="node4" class="node">
<title>SERVICE DISCOVERY
unknown</title>
<g id="a_node4"><a xlink:title="ET SCAN Potential VNC Scan 5800&#45;5820&#10;ET SCAN Potential SSH Scan&#10;GPL ICMP_INFO PING *NIX&#10;ET SCAN Potential VNC Scan 5900&#45;5920&#10;ET SCAN NMAP OS Detection Probe">
<ellipse fill="none" stroke="black" stroke-width="3" cx="3136.38" cy="-403.26" rx="189.51" ry="42.35"/>
<text text-anchor="middle" x="3136.38" y="-410.06" font-family="Arial" font-size="24.00">SERVICE DISCOVERY</text>
<text text-anchor="middle" x="3136.38" y="-384.06" font-family="Arial" font-size="24.00">unknown</text>
</a>
</g>
</g>
<!-- VULNERABILTY DISCOVERY
mysql&#45;&gt;SERVICE DISCOVERY
unknown -->
<g id="edge2" class="edge">
<title>VULNERABILTY DISCOVERY
mysql&#45;&gt;SERVICE DISCOVERY
unknown</title>
<path fill="none" stroke="maroon" stroke-width="5" d="M2497.78,-258.47C2494.93,-293.43 2493.88,-339.7 2506.38,-352.83 2535.93,-383.86 2764.01,-395.43 2937.32,-399.73"/>
<polygon fill="maroon" stroke="maroon" stroke-width="5" points="2937.25,-404.1 2947.35,-399.97 2937.46,-395.35 2937.25,-404.1"/>
<text text-anchor="start" x="2506.38" y="-337.83" font-family="Arial" font-size="20.00" fill="maroon"> start_next: 03/11/18, 14:36:36</text>
<text text-anchor="start" x="2596.88" y="-317.83" font-family="Arial" font-size="20.00" fill="maroon">gap: 0sec</text>
<text text-anchor="start" x="2510.38" y="-297.83" font-family="Arial" font-size="20.00" fill="maroon">end_prev: 03/11/18, 14:36:37</text>
<text text-anchor="start" x="2535.38" y="-277.83" font-family="Arial" font-weight="bold" font-size="20.00" fill="maroon">Attacker: 10.0.254.205</text>
</g>
<!-- VULNERABILTY DISCOVERY
mysql&#45;&gt;SERVICE DISCOVERY
unknown -->
<g id="edge12" class="edge">
<title>VULNERABILTY DISCOVERY
mysql&#45;&gt;SERVICE DISCOVERY
unknown</title>
<path fill="none" stroke="blue" stroke-width="5" d="M2694.5,-241.53C2729.26,-249.49 2758.57,-259.76 2771.38,-272.83 2796.71,-298.66 2760.23,-327.84 2786.38,-352.83 2809.75,-375.17 2873.15,-387.49 2939.68,-394.26"/>
<polygon fill="blue" stroke="blue" stroke-width="5" points="2939.57,-398.64 2949.94,-395.26 2940.41,-389.93 2939.57,-398.64"/>
<text text-anchor="middle" x="2917.88" y="-329.83" font-family="Arial" font-size="20.00" fill="blue">start_next: 03/11/18, 21:52:43</text>
<text text-anchor="middle" x="2917.88" y="-307.83" font-family="Arial" font-size="20.00" fill="blue">gap: 2sec</text>
<text text-anchor="middle" x="2917.88" y="-285.83" font-family="Arial" font-size="20.00" fill="blue">end_prev: 03/11/18, 21:52:41</text>
</g>
<!-- VULNERABILTY DISCOVERY
mysql&#45;&gt;SERVICE DISCOVERY
unknown -->
<g id="edge24" class="edge">
<title>VULNERABILTY DISCOVERY
mysql&#45;&gt;SERVICE DISCOVERY
unknown</title>
<path fill="none" stroke="purple" stroke-width="5" d="M2665.52,-247.14C2708.58,-254.08 2755.11,-260.64 2798.38,-264.83 2812.1,-266.16 3035.92,-263.86 3046.38,-272.83 3073.84,-296.38 3041.35,-322.71 3061.38,-352.83 3062.01,-353.77 3062.66,-354.7 3063.33,-355.62"/>
<polygon fill="purple" stroke="purple" stroke-width="5" points="3060.17,-358.65 3069.96,-363.47 3066.86,-353.01 3060.17,-358.65"/>
<text text-anchor="start" x="3061.38" y="-337.83" font-family="Arial" font-size="20.00" fill="purple"> start_next: 03/11/18, 17:57:04</text>
<text text-anchor="start" x="3151.88" y="-317.83" font-family="Arial" font-size="20.00" fill="purple">gap: 1sec</text>
<text text-anchor="start" x="3065.38" y="-297.83" font-family="Arial" font-size="20.00" fill="purple">end_prev: 03/11/18, 17:57:02</text>
<text text-anchor="start" x="3090.38" y="-277.83" font-family="Arial" font-weight="bold" font-size="20.00" fill="purple">Attacker: 10.0.254.202</text>
</g>
<!-- VULNERABILTY DISCOVERY
mysql&#45;&gt;SERVICE DISCOVERY
unknown -->
<g id="edge30" class="edge">
<title>VULNERABILTY DISCOVERY
mysql&#45;&gt;SERVICE DISCOVERY
unknown</title>
<path fill="none" stroke="purple" stroke-width="5" d="M2268.36,-226.26C2129.08,-234.34 1975.24,-248.64 1953.38,-272.83 1941.47,-286.03 1941.08,-340 1953.38,-352.83 1986.8,-387.67 2608.26,-398 2936.7,-401.02"/>
<polygon fill="purple" stroke="purple" stroke-width="5" points="2936.77,-405.4 2946.81,-401.11 2936.85,-396.65 2936.77,-405.4"/>
<text text-anchor="start" x="1953.38" y="-337.83" font-family="Arial" font-size="20.00" fill="purple"> start_next: 03/11/18, 15:48:56</text>
<text text-anchor="start" x="2043.88" y="-317.83" font-family="Arial" font-size="20.00" fill="purple">gap: 0sec</text>
<text text-anchor="start" x="1957.38" y="-297.83" font-family="Arial" font-size="20.00" fill="purple">end_prev: 03/11/18, 15:48:56</text>
<text text-anchor="start" x="1982.38" y="-277.83" font-family="Arial" font-weight="bold" font-size="20.00" fill="purple">Attacker: 10.0.254.206</text>
</g>
<!-- SERVICE DISCOVERY
cpdlc -->
<g id="node7" class="node">
<title>SERVICE DISCOVERY
cpdlc</title>
<g id="a_node7"><a xlink:title="ET SCAN Potential VNC Scan 5900&#45;5920&#10;ET SCAN Potential VNC Scan 5800&#45;5820&#10;ET SCAN Potential SSH Scan">
<ellipse fill="none" stroke="black" stroke-width="3" cx="3689.38" cy="-403.26" rx="189.51" ry="42.35"/>
<text text-anchor="middle" x="3689.38" y="-410.06" font-family="Arial" font-size="24.00">SERVICE DISCOVERY</text>
<text text-anchor="middle" x="3689.38" y="-384.06" font-family="Arial" font-size="24.00">cpdlc</text>
</a>
</g>
</g>
<!-- VULNERABILTY DISCOVERY
mysql&#45;&gt;SERVICE DISCOVERY
cpdlc -->
<g id="edge6" class="edge">
<title>VULNERABILTY DISCOVERY
mysql&#45;&gt;SERVICE DISCOVERY
cpdlc</title>
<path fill="none" stroke="blue" stroke-width="5" d="M2663.92,-247.4C2707.42,-254.43 2754.56,-260.97 2798.38,-264.83 2857.27,-270.02 3272.22,-262.22 3330.38,-272.83 3425.35,-290.17 3528.51,-329.7 3599.77,-360.54"/>
<polygon fill="blue" stroke="blue" stroke-width="5" points="3598.26,-364.65 3609.18,-364.64 3601.76,-356.63 3598.26,-364.65"/>
<text text-anchor="start" x="3580.38" y="-337.83" font-family="Arial" font-size="20.00" fill="blue"> start_next: 03/11/18, 19:30:16</text>
<text text-anchor="start" x="3667.38" y="-317.83" font-family="Arial" font-size="20.00" fill="blue">gap: &#45;1sec</text>
<text text-anchor="start" x="3584.38" y="-297.83" font-family="Arial" font-size="20.00" fill="blue">end_prev: 03/11/18, 19:30:16</text>
<text text-anchor="start" x="3609.38" y="-277.83" font-family="Arial" font-weight="bold" font-size="20.00" fill="blue">Attacker: 10.0.254.203</text>
</g>
<!-- SERVICE DISCOVERY
dsd -->
<g id="node9" class="node">
<title>SERVICE DISCOVERY
dsd</title>
<g id="a_node9"><a xlink:title="ET SCAN Potential VNC Scan 5900&#45;5920">
<ellipse fill="none" stroke="black" stroke-width="3" cx="4439.38" cy="-403.26" rx="189.51" ry="42.35"/>
<text text-anchor="middle" x="4439.38" y="-410.06" font-family="Arial" font-size="24.00">SERVICE DISCOVERY</text>
<text text-anchor="middle" x="4439.38" y="-384.06" font-family="Arial" font-size="24.00">dsd</text>
</a>
</g>
</g>
<!-- VULNERABILTY DISCOVERY
mysql&#45;&gt;SERVICE DISCOVERY
dsd -->
<g id="edge16" class="edge">
<title>VULNERABILTY DISCOVERY
mysql&#45;&gt;SERVICE DISCOVERY
dsd</title>
<path fill="none" stroke="magenta" stroke-width="5" d="M2663.13,-247.54C2706.84,-254.62 2754.28,-261.15 2798.38,-264.83 2873.29,-271.09 4077.93,-256.86 4151.38,-272.83 4227.9,-289.47 4308.71,-327.85 4365.18,-358.51"/>
<polygon fill="magenta" stroke="magenta" stroke-width="5" points="4363.16,-362.39 4374.03,-363.37 4367.37,-354.72 4363.16,-362.39"/>
<text text-anchor="start" x="4352.38" y="-337.83" font-family="Arial" font-size="20.00" fill="magenta"> start_next: 03/11/18, 14:33:03</text>
<text text-anchor="start" x="4442.88" y="-317.83" font-family="Arial" font-size="20.00" fill="magenta">gap: 0sec</text>
<text text-anchor="start" x="4356.38" y="-297.83" font-family="Arial" font-size="20.00" fill="magenta">end_prev: 03/11/18, 14:33:03</text>
<text text-anchor="start" x="4381.38" y="-277.83" font-family="Arial" font-weight="bold" font-size="20.00" fill="magenta">Attacker: 10.0.254.201</text>
</g>
<!-- SERVICE DISCOVERY
ads&#45;c -->
<g id="node13" class="node">
<title>SERVICE DISCOVERY
ads&#45;c</title>
<g id="a_node13"><a xlink:title="ET SCAN Potential VNC Scan 5900&#45;5920&#10;ET SCAN Potential VNC Scan 5800&#45;5820&#10;ET SCAN Potential SSH Scan">
<ellipse fill="none" stroke="black" stroke-width="3" cx="1664.38" cy="-403.26" rx="189.51" ry="42.35"/>
<text text-anchor="middle" x="1664.38" y="-410.06" font-family="Arial" font-size="24.00">SERVICE DISCOVERY</text>
<text text-anchor="middle" x="1664.38" y="-384.06" font-family="Arial" font-size="24.00">ads&#45;c</text>
</a>
</g>
</g>
<!-- VULNERABILTY DISCOVERY
mysql&#45;&gt;SERVICE DISCOVERY
ads&#45;c -->
<g id="edge27" class="edge">
<title>VULNERABILTY DISCOVERY
mysql&#45;&gt;SERVICE DISCOVERY
ads&#45;c</title>
<path fill="none" stroke="purple" stroke-width="5" d="M2292.09,-236.69C2181.55,-246.49 2043.74,-257.7 1920.38,-264.83 1907.01,-265.61 1689.24,-263.76 1679.38,-272.83 1668.1,-283.23 1664.56,-318.95 1663.73,-350.24"/>
<polygon fill="purple" stroke="purple" stroke-width="5" points="1659.35,-350.56 1663.54,-360.64 1668.09,-350.72 1659.35,-350.56"/>
<text text-anchor="middle" x="1810.88" y="-329.83" font-family="Arial" font-size="20.00" fill="purple">start_next: 03/11/18, 19:52:43</text>
<text text-anchor="middle" x="1810.88" y="-307.83" font-family="Arial" font-size="20.00" fill="purple">gap: &#45;2sec</text>
<text text-anchor="middle" x="1810.88" y="-285.83" font-family="Arial" font-size="20.00" fill="purple">end_prev: 03/11/18, 19:52:45</text>
</g>
<!-- SERVICE DISCOVERY
unknown&#45;&gt;VULNERABILTY DISCOVERY
mysql -->
<g id="edge11" class="edge">
<title>SERVICE DISCOVERY
unknown&#45;&gt;VULNERABILTY DISCOVERY
mysql</title>
<path fill="none" stroke="blue" stroke-width="5" d="M2947.93,-398.5C2689.92,-392.43 2255.63,-378.44 2231.38,-352.83 2219.16,-339.92 2220.15,-286.62 2231.38,-272.83 2241.68,-260.19 2265.58,-250.31 2295.15,-242.62"/>
<polygon fill="blue" stroke="blue" stroke-width="5" points="2296.28,-246.85 2304.93,-240.2 2294.18,-238.36 2296.28,-246.85"/>
<text text-anchor="middle" x="2362.88" y="-329.83" font-family="Arial" font-size="20.00" fill="blue">start_next: 03/11/18, 21:52:41</text>
<text text-anchor="middle" x="2362.88" y="-307.83" font-family="Arial" font-size="20.00" fill="blue">gap: 1007sec</text>
<text text-anchor="middle" x="2362.88" y="-285.83" font-family="Arial" font-size="20.00" fill="blue">end_prev: 03/11/18, 21:35:54</text>
</g>
<!-- HOST DISCOVERY
etlservicemgr -->
<g id="node5" class="node">
<title>HOST DISCOVERY
etlservicemgr</title>
<g id="a_node5"><a xlink:title="ET SCAN Nmap Scripting Engine User&#45;Agent Detected (Nmap Scripting Engine)&#10;ET SCAN Possible Nmap User&#45;Agent Observed">
<ellipse fill="none" stroke="black" stroke-width="3" cx="2079.38" cy="-42.43" rx="162.77" ry="42.35"/>
<text text-anchor="middle" x="2079.38" y="-49.23" font-family="Arial" font-size="24.00">HOST DISCOVERY</text>
<text text-anchor="middle" x="2079.38" y="-23.23" font-family="Arial" font-size="24.00">etlservicemgr</text>
</a>
</g>
</g>
<!-- SERVICE DISCOVERY
unknown&#45;&gt;HOST DISCOVERY
etlservicemgr -->
<g id="edge3" class="edge">
<title>SERVICE DISCOVERY
unknown&#45;&gt;HOST DISCOVERY
etlservicemgr</title>
<path fill="none" stroke="maroon" stroke-width="5" d="M3282.28,-376.13C3302.81,-369.67 3319.35,-361.93 3326.38,-352.83 3337.26,-338.77 3338.85,-285.5 3326.38,-272.83 3316.36,-262.66 2824.91,-271.68 2812.38,-264.83 2766.53,-239.76 2785.57,-202.52 2747.38,-166.85 2698.79,-121.47 2680.81,-112.79 2617.38,-92.85 2550.94,-71.97 2380.54,-58.68 2249.15,-51.2"/>
<polygon fill="maroon" stroke="maroon" stroke-width="5" points="2249.19,-46.83 2238.96,-50.63 2248.7,-55.56 2249.19,-46.83"/>
<text text-anchor="middle" x="2943.88" y="-232.84" font-family="Arial" font-size="20.00" fill="maroon">start_next: 03/11/18, 14:39:18</text>
<text text-anchor="middle" x="2943.88" y="-210.84" font-family="Arial" font-size="20.00" fill="maroon">gap: 4sec</text>
<text text-anchor="middle" x="2943.88" y="-188.84" font-family="Arial" font-size="20.00" fill="maroon">end_prev: 03/11/18, 14:39:14</text>
</g>
<!-- SERVICE DISCOVERY
unknown&#45;&gt;HOST DISCOVERY
etlservicemgr -->
<g id="edge13" class="edge">
<title>SERVICE DISCOVERY
unknown&#45;&gt;HOST DISCOVERY
etlservicemgr</title>
<path fill="none" stroke="blue" stroke-width="5" d="M3287.21,-377.3C3309.61,-370.67 3327.76,-362.58 3335.38,-352.83 3357.28,-324.82 3360.11,-298.38 3335.38,-272.83 3316.36,-253.18 3110.02,-282.78 3089.38,-264.83 3056.03,-235.83 3103.39,-198.35 3072.38,-166.85 3015.64,-109.21 2515.96,-70.12 2247.81,-53.09"/>
<polygon fill="blue" stroke="blue" stroke-width="5" points="2247.83,-48.71 2237.58,-52.44 2247.28,-57.44 2247.83,-48.71"/>
<text text-anchor="middle" x="3220.88" y="-232.84" font-family="Arial" font-size="20.00" fill="blue">start_next: 03/11/18, 21:52:55</text>
<text text-anchor="middle" x="3220.88" y="-210.84" font-family="Arial" font-size="20.00" fill="blue">gap: 0sec</text>
<text text-anchor="middle" x="3220.88" y="-188.84" font-family="Arial" font-size="20.00" fill="blue">end_prev: 03/11/18, 21:52:56</text>
</g>
<!-- SERVICE DISCOVERY
unknown&#45;&gt;HOST DISCOVERY
etlservicemgr -->
<g id="edge25" class="edge">
<title>SERVICE DISCOVERY
unknown&#45;&gt;HOST DISCOVERY
etlservicemgr</title>
<path fill="none" stroke="purple" stroke-width="5" d="M3292.73,-379.23C3318.51,-372.35 3339.69,-363.66 3348.38,-352.83 3361.32,-336.72 3362.75,-182.61 3349.38,-166.85 3279.64,-84.68 2582.01,-56.11 2251.43,-47.14"/>
<polygon fill="purple" stroke="purple" stroke-width="5" points="2251.39,-42.76 2241.27,-46.87 2251.15,-51.51 2251.39,-42.76"/>
<text text-anchor="middle" x="3489.88" y="-232.84" font-family="Arial" font-size="20.00" fill="purple">start_next: 03/11/18, 17:57:17</text>
<text text-anchor="middle" x="3489.88" y="-210.84" font-family="Arial" font-size="20.00" fill="purple">gap: 0sec</text>
<text text-anchor="middle" x="3489.88" y="-188.84" font-family="Arial" font-size="20.00" fill="purple">end_prev: 03/11/18, 17:57:17</text>
</g>
<!-- SERVICE DISCOVERY
unknown&#45;&gt;HOST DISCOVERY
etlservicemgr -->
<g id="edge31" class="edge">
<title>SERVICE DISCOVERY
unknown&#45;&gt;HOST DISCOVERY
etlservicemgr</title>
<path fill="none" stroke="purple" stroke-width="5" d="M3274.03,-374.04C3302.08,-367.61 3331.29,-360.42 3358.38,-352.83 3465.03,-322.98 3488.66,-305.83 3594.38,-272.83 3606.74,-268.98 3614.59,-275.16 3622.38,-264.83 3635.49,-247.45 3636.39,-183.52 3622.38,-166.85 3535.66,-63.64 2636.9,-46.4 2252.37,-43.77"/>
<polygon fill="purple" stroke="purple" stroke-width="5" points="2252.3,-39.39 2242.27,-43.7 2252.24,-48.14 2252.3,-39.39"/>
<text text-anchor="middle" x="3763.88" y="-232.84" font-family="Arial" font-size="20.00" fill="purple">start_next: 03/11/18, 15:49:08</text>
<text text-anchor="middle" x="3763.88" y="-210.84" font-family="Arial" font-size="20.00" fill="purple">gap: 12sec</text>
<text text-anchor="middle" x="3763.88" y="-188.84" font-family="Arial" font-size="20.00" fill="purple">end_prev: 03/11/18, 15:48:56</text>
</g>
<!-- HOST DISCOVERY
etlservicemgr&#45;&gt;NETWORK DoS
http | ID: 5 -->
<g id="edge29" class="edge">
<title>HOST DISCOVERY
etlservicemgr&#45;&gt;NETWORK DoS
http | ID: 5</title>
<path fill="none" stroke="purple" stroke-width="5" d="M1916.75,-42.67C1555.07,-41.9 693.41,-45.3 406.38,-92.85 224.7,-122.95 10.38,-30.68 10.38,-214.84 10.38,-214.84 10.38,-214.84 10.38,-585.11 10.38,-636.54 -17.42,-663.62 18.38,-700.54 45.97,-728.99 264.13,-743.9 419.33,-750.98"/>
<polygon fill="purple" stroke="purple" stroke-width="5" points="419.27,-755.36 429.46,-751.44 419.66,-746.62 419.27,-755.36"/>
<text text-anchor="middle" x="141.88" y="-420.26" font-family="Arial" font-size="20.00" fill="purple">start_next: 03/11/18, 21:25:42</text>
<text text-anchor="middle" x="141.88" y="-398.26" font-family="Arial" font-size="20.00" fill="purple">gap: 5564sec</text>
<text text-anchor="middle" x="141.88" y="-376.26" font-family="Arial" font-size="20.00" fill="purple">end_prev: 03/11/18, 19:52:58</text>
</g>
<!-- HOST DISCOVERY
etlservicemgr&#45;&gt;VULNERABILTY DISCOVERY
mysql -->
<g id="edge26" class="edge">
<title>HOST DISCOVERY
etlservicemgr&#45;&gt;VULNERABILTY DISCOVERY
mysql</title>
<path fill="none" stroke="purple" stroke-width="5" d="M2165.75,-78.43C2233.27,-105.79 2327.37,-143.92 2398.92,-172.92"/>
<polygon fill="purple" stroke="purple" stroke-width="5" points="2397.51,-177.06 2408.42,-176.76 2400.79,-168.95 2397.51,-177.06"/>
<text text-anchor="middle" x="2484.88" y="-142.85" font-family="Arial" font-size="20.00" fill="purple">start_next: 03/11/18, 19:52:42</text>
<text text-anchor="middle" x="2484.88" y="-120.85" font-family="Arial" font-size="20.00" fill="purple">gap: 6924sec</text>
<text text-anchor="middle" x="2484.88" y="-98.85" font-family="Arial" font-size="20.00" fill="purple">end_prev: 03/11/18, 17:57:18</text>
</g>
<!-- INFO DISCOVERY
http -->
<g id="node6" class="node">
<title>INFO DISCOVERY
http</title>
<g id="a_node6"><a xlink:title="GPL WEB_SERVER viewcode access&#10;GPL WEB_SERVER .htaccess access&#10;GPL WEB_SERVER writeto.cnf access&#10;GPL WEB_SERVER iisadmin access&#10;ET WEB_SERVER PHP Easteregg Information&#45;Disclosure (funny&#45;logo)&#10;ET WEB_SPECIFIC_APPS Request to Wordpress W3TC Plug&#45;in dbcache Directory&#10;GPL WEB_SERVER services.cnf access&#10;ET WEB_SERVER PHP Easteregg Information&#45;Disclosure (zend&#45;logo)&#10;GPL EXPLOIT unicode directory traversal attempt&#10;ET WEB_SERVER PHP Easteregg Information&#45;Disclosure (php&#45;logo)&#10;GPL WEB_SERVER service.cnf access&#10;GPL EXPLOIT iisadmpwd attempt&#10;ET WEB_SERVER PHP SESSION SuperGlobal in URI&#10;GPL WEB_SERVER /~root access&#10;GPL WEB_SERVER authors.pwd access&#10;ET WEB_SERVER PHP ENV SuperGlobal in URI&#10;GPL EXPLOIT .cnf access&#10;GPL WEB_SERVER .htpasswd access&#10;ET POLICY Proxy TRACE Request &#45; inbound&#10;GPL WEB_SERVER global.asa access&#10;ET WEB_SERVER PHP SERVER SuperGlobal in URI&#10;GPL EXPLOIT fpcount access&#10;GPL WEB_SERVER globals.pl access&#10;GPL WEB_SERVER service.pwd&#10;GPL EXPLOIT ISAPI .idq attempt&#10;ET WEB_SERVER PHP Easteregg Information&#45;Disclosure (phpinfo)&#10;GPL WEB_SERVER printenv access&#10;GPL WEB_SERVER author.exe access&#10;GPL EXPLOIT iissamples access&#10;GPL EXPLOIT .htr access&#10;ET WEB_SERVER PHP REQUEST SuperGlobal in URI">
<ellipse fill="none" stroke="black" stroke-width="3" cx="789.38" cy="-584.11" rx="156.04" ry="42.35"/>
<text text-anchor="middle" x="789.38" y="-590.91" font-family="Arial" font-size="24.00">INFO DISCOVERY</text>
<text text-anchor="middle" x="789.38" y="-564.91" font-family="Arial" font-size="24.00">http</text>
</a>
</g>
</g>
<!-- HOST DISCOVERY
etlservicemgr&#45;&gt;INFO DISCOVERY
http -->
<g id="edge4" class="edge">
<title>HOST DISCOVERY
etlservicemgr&#45;&gt;INFO DISCOVERY
http</title>
<path fill="none" stroke="maroon" stroke-width="5" d="M1917.58,-46.88C1660.28,-53.08 1179.15,-67.85 1104.38,-92.85 969.01,-138.13 905.3,-146.75 838.38,-272.83 830.05,-288.54 826.13,-339.95 838.38,-352.83 850.57,-365.65 985.19,-348.01 997.38,-360.83 1050.32,-416.5 1045.01,-473.41 997.38,-533.69 988.27,-545.21 964.91,-554.34 936.97,-561.44"/>
<polygon fill="maroon" stroke="maroon" stroke-width="5" points="935.61,-557.27 926.92,-563.87 937.66,-565.78 935.61,-557.27"/>
<text text-anchor="middle" x="969.88" y="-329.83" font-family="Arial" font-size="20.00" fill="maroon">start_next: 03/11/18, 17:32:15</text>
<text text-anchor="middle" x="969.88" y="-307.83" font-family="Arial" font-size="20.00" fill="maroon">gap: 10363sec</text>
<text text-anchor="middle" x="969.88" y="-285.83" font-family="Arial" font-size="20.00" fill="maroon">end_prev: 03/11/18, 14:39:32</text>
</g>
<!-- HOST DISCOVERY
etlservicemgr&#45;&gt;INFO DISCOVERY
http -->
<g id="edge8" class="edge">
<title>HOST DISCOVERY
etlservicemgr&#45;&gt;INFO DISCOVERY
http</title>
<path fill="none" stroke="blue" stroke-width="5" d="M1916.89,-45.2C1741.71,-48.82 1475.1,-59.78 1379.38,-92.85 1244.47,-139.47 1191.68,-153.49 1113.38,-272.83 1093.54,-303.08 1108.94,-318.23 1098.38,-352.83 1072.83,-436.55 1088.05,-478.15 1020.38,-533.69 1006.25,-545.28 973.97,-554.79 937.88,-562.26"/>
<polygon fill="blue" stroke="blue" stroke-width="5" points="936.56,-558.07 927.61,-564.32 938.27,-566.65 936.56,-558.07"/>
<text text-anchor="middle" x="1244.88" y="-329.83" font-family="Arial" font-size="20.00" fill="blue">start_next: 03/11/18, 19:39:07</text>
<text text-anchor="middle" x="1244.88" y="-307.83" font-family="Arial" font-size="20.00" fill="blue">gap: 516sec</text>
<text text-anchor="middle" x="1244.88" y="-285.83" font-family="Arial" font-size="20.00" fill="blue">end_prev: 03/11/18, 19:30:32</text>
</g>
<!-- HOST DISCOVERY
etlservicemgr&#45;&gt;INFO DISCOVERY
http -->
<g id="edge14" class="edge">
<title>HOST DISCOVERY
etlservicemgr&#45;&gt;INFO DISCOVERY
http</title>
<path fill="none" stroke="blue" stroke-width="5" d="M1930.24,-59.39C1880.33,-66.91 1824.84,-77.68 1775.38,-92.85 1593.65,-148.62 1503.16,-122.06 1387.38,-272.83 1365.4,-301.46 1394.22,-323.36 1373.38,-352.83 1278.84,-486.53 1206.24,-477.62 1052.38,-533.69 1016.82,-546.64 977.26,-556.36 939.84,-563.59"/>
<polygon fill="blue" stroke="blue" stroke-width="5" points="938.88,-559.31 929.86,-565.46 940.5,-567.91 938.88,-559.31"/>
<text text-anchor="middle" x="1518.88" y="-329.83" font-family="Arial" font-size="20.00" fill="blue">start_next: 03/11/18, 21:54:31</text>
<text text-anchor="middle" x="1518.88" y="-307.83" font-family="Arial" font-size="20.00" fill="blue">gap: 94sec</text>
<text text-anchor="middle" x="1518.88" y="-285.83" font-family="Arial" font-size="20.00" fill="blue">end_prev: 03/11/18, 21:52:57</text>
</g>
<!-- HOST DISCOVERY
etlservicemgr&#45;&gt;INFO DISCOVERY
http -->
<g id="edge32" class="edge">
<title>HOST DISCOVERY
etlservicemgr&#45;&gt;INFO DISCOVERY
http</title>
<path fill="none" stroke="purple" stroke-width="5" d="M1916.98,-44.85C1549.77,-48.62 677.39,-60.85 547.38,-92.85 474.04,-110.91 456.35,-123.67 394.38,-166.85 338.68,-205.67 310.94,-210.36 284.38,-272.83 269.34,-308.22 272.1,-413.02 292.38,-445.69 332.15,-509.73 366.38,-508.37 437.38,-533.69 497.12,-554.99 565.63,-567.15 626.24,-574.08"/>
<polygon fill="purple" stroke="purple" stroke-width="5" points="625.86,-578.44 636.28,-575.19 626.83,-569.74 625.86,-578.44"/>
<text text-anchor="middle" x="415.88" y="-329.83" font-family="Arial" font-size="20.00" fill="purple">start_next: 03/11/18, 17:16:45</text>
<text text-anchor="middle" x="415.88" y="-307.83" font-family="Arial" font-size="20.00" fill="purple">gap: 5257sec</text>
<text text-anchor="middle" x="415.88" y="-285.83" font-family="Arial" font-size="20.00" fill="purple">end_prev: 03/11/18, 15:49:08</text>
</g>
<!-- HOST DISCOVERY
asf&#45;rmcp -->
<g id="node10" class="node">
<title>HOST DISCOVERY
asf&#45;rmcp</title>
<g id="a_node10"><a xlink:title="ETPRO SCAN IPMI Get Authentication Request (null seq number &#45; null sessionID)">
<ellipse fill="none" stroke="black" stroke-width="3" cx="560.38" cy="-215.84" rx="162.77" ry="42.35"/>
<text text-anchor="middle" x="560.38" y="-222.64" font-family="Arial" font-size="24.00">HOST DISCOVERY</text>
<text text-anchor="middle" x="560.38" y="-196.64" font-family="Arial" font-size="24.00">asf&#45;rmcp</text>
</a>
</g>
</g>
<!-- HOST DISCOVERY
etlservicemgr&#45;&gt;HOST DISCOVERY
asf&#45;rmcp -->
<g id="edge18" class="edge">
<title>HOST DISCOVERY
etlservicemgr&#45;&gt;HOST DISCOVERY
asf&#45;rmcp</title>
<path fill="none" stroke="magenta" stroke-width="5" d="M1916.74,-42.89C1535.74,-42.42 613.88,-46.13 566.38,-92.85 548.18,-110.76 545.77,-138.81 548.33,-163.5"/>
<polygon fill="magenta" stroke="magenta" stroke-width="5" points="544,-164.13 549.64,-173.48 552.68,-162.99 544,-164.13"/>
<text text-anchor="middle" x="697.88" y="-142.85" font-family="Arial" font-size="20.00" fill="magenta">start_next: 03/11/18, 14:44:02</text>
<text text-anchor="middle" x="697.88" y="-120.85" font-family="Arial" font-size="20.00" fill="magenta">gap: 646sec</text>
<text text-anchor="middle" x="697.88" y="-98.85" font-family="Arial" font-size="20.00" fill="magenta">end_prev: 03/11/18, 14:33:16</text>
</g>
<!-- INFO DISCOVERY
http&#45;&gt;NETWORK DoS
http | ID: 5 -->
<g id="edge5" class="edge">
<title>INFO DISCOVERY
http&#45;&gt;NETWORK DoS
http | ID: 5</title>
<path fill="none" stroke="maroon" stroke-width="5" d="M835.07,-624.7C837.13,-627.85 838.94,-631.13 840.38,-634.54 851.82,-661.55 858.85,-677.75 840.38,-700.54 824.24,-720.46 773.65,-733.58 721.01,-742.08"/>
<polygon fill="maroon" stroke="maroon" stroke-width="5" points="720.03,-737.8 710.82,-743.66 721.37,-746.45 720.03,-737.8"/>
<text text-anchor="middle" x="982.88" y="-684.54" font-family="Arial" font-size="20.00" fill="maroon">start_next: 03/11/18, 17:32:18</text>
<text text-anchor="middle" x="982.88" y="-662.54" font-family="Arial" font-size="20.00" fill="maroon">gap: &#45;128sec</text>
<text text-anchor="middle" x="982.88" y="-640.54" font-family="Arial" font-size="20.00" fill="maroon">end_prev: 03/11/18, 17:34:26</text>
</g>
<!-- INFO DISCOVERY
http&#45;&gt;NETWORK DoS
http | ID: 5 -->
<g id="edge9" class="edge">
<title>INFO DISCOVERY
http&#45;&gt;NETWORK DoS
http | ID: 5</title>
<path fill="none" stroke="blue" stroke-width="5" d="M944.68,-589.76C1017.2,-595.54 1092.57,-608.01 1115.38,-634.54 1134.51,-656.78 1135.02,-678.75 1115.38,-700.54 1090.02,-728.67 883.25,-743.57 733.36,-750.75"/>
<polygon fill="blue" stroke="blue" stroke-width="5" points="732.9,-746.39 723.12,-751.23 733.31,-755.13 732.9,-746.39"/>
<text text-anchor="middle" x="1260.88" y="-684.54" font-family="Arial" font-size="20.00" fill="blue">start_next: 03/11/18, 19:39:20</text>
<text text-anchor="middle" x="1260.88" y="-662.54" font-family="Arial" font-size="20.00" fill="blue">gap: &#45;73sec</text>
<text text-anchor="middle" x="1260.88" y="-640.54" font-family="Arial" font-size="20.00" fill="blue">end_prev: 03/11/18, 19:40:33</text>
</g>
<!-- INFO DISCOVERY
http&#45;&gt;NETWORK DoS
http | ID: 5 -->
<g id="edge15" class="edge">
<title>INFO DISCOVERY
http&#45;&gt;NETWORK DoS
http | ID: 5</title>
<path fill="none" stroke="blue" stroke-width="5" d="M945.3,-587.21C1113.3,-591.12 1360.72,-602.34 1390.38,-634.54 1410.26,-656.11 1410.4,-679.1 1390.38,-700.54 1347.21,-746.78 967.96,-755.75 742.67,-756.95"/>
<polygon fill="blue" stroke="blue" stroke-width="5" points="742.37,-752.57 732.39,-757 742.41,-761.32 742.37,-752.57"/>
<text text-anchor="middle" x="1535.88" y="-684.54" font-family="Arial" font-size="20.00" fill="blue">start_next: 03/11/18, 21:54:58</text>
<text text-anchor="middle" x="1535.88" y="-662.54" font-family="Arial" font-size="20.00" fill="blue">gap: &#45;98sec</text>
<text text-anchor="middle" x="1535.88" y="-640.54" font-family="Arial" font-size="20.00" fill="blue">end_prev: 03/11/18, 21:56:35</text>
</g>
<!-- INFO DISCOVERY
http&#45;&gt;NETWORK DoS
http | ID: 5 -->
<g id="edge21" class="edge">
<title>INFO DISCOVERY
http&#45;&gt;NETWORK DoS
http | ID: 5</title>
<path fill="none" stroke="magenta" stroke-width="5" d="M633.01,-584.14C422.8,-584.49 70.62,-591.6 30.38,-634.54 10.33,-655.94 10.73,-678.76 30.38,-700.54 56.19,-729.12 267.13,-743.93 419.1,-750.97"/>
<polygon fill="magenta" stroke="magenta" stroke-width="5" points="419.29,-755.36 429.48,-751.44 419.69,-746.61 419.29,-755.36"/>
<text text-anchor="middle" x="161.88" y="-684.54" font-family="Arial" font-size="20.00" fill="magenta">start_next: 03/11/18, 15:12:24</text>
<text text-anchor="middle" x="161.88" y="-662.54" font-family="Arial" font-size="20.00" fill="magenta">gap: &#45;11sec</text>
<text text-anchor="middle" x="161.88" y="-640.54" font-family="Arial" font-size="20.00" fill="magenta">end_prev: 03/11/18, 15:12:35</text>
</g>
<!-- INFO DISCOVERY
http&#45;&gt;NETWORK DoS
http | ID: 5 -->
<g id="edge23" class="edge">
<title>INFO DISCOVERY
http&#45;&gt;NETWORK DoS
http | ID: 5</title>
<path fill="none" stroke="purple" stroke-width="5" d="M634.99,-590.68C501.8,-597.13 327.42,-610.13 305.38,-634.54 285.72,-656.31 286.86,-677.79 305.38,-700.54 322.27,-721.27 375.71,-734.56 430.72,-742.96"/>
<polygon fill="purple" stroke="purple" stroke-width="5" points="430.11,-747.29 440.64,-744.42 431.38,-738.63 430.11,-747.29"/>
<text text-anchor="middle" x="436.88" y="-684.54" font-family="Arial" font-size="20.00" fill="purple">start_next: 03/11/18, 17:35:48</text>
<text text-anchor="middle" x="436.88" y="-662.54" font-family="Arial" font-size="20.00" fill="purple">gap: &#45;234sec</text>
<text text-anchor="middle" x="436.88" y="-640.54" font-family="Arial" font-size="20.00" fill="purple">end_prev: 03/11/18, 17:39:42</text>
</g>
<!-- INFO DISCOVERY
http&#45;&gt;NETWORK DoS
http | ID: 5 -->
<g id="edge33" class="edge">
<title>INFO DISCOVERY
http&#45;&gt;NETWORK DoS
http | ID: 5</title>
<path fill="none" stroke="purple" stroke-width="5" d="M650.25,-603.64C616.49,-611.08 587.01,-621.16 576.38,-634.54 568.47,-644.5 567.98,-671.98 569.7,-698.34"/>
<polygon fill="purple" stroke="purple" stroke-width="5" points="565.34,-698.71 570.45,-708.35 574.06,-698.05 565.34,-698.71"/>
<text text-anchor="middle" x="707.88" y="-684.54" font-family="Arial" font-size="20.00" fill="purple">start_next: 03/11/18, 17:16:50</text>
<text text-anchor="middle" x="707.88" y="-662.54" font-family="Arial" font-size="20.00" fill="purple">gap: &#45;256sec</text>
<text text-anchor="middle" x="707.88" y="-640.54" font-family="Arial" font-size="20.00" fill="purple">end_prev: 03/11/18, 17:21:06</text>
</g>
<!-- SERVICE DISCOVERY
cpdlc&#45;&gt;HOST DISCOVERY
etlservicemgr -->
<g id="edge7" class="edge">
<title>SERVICE DISCOVERY
cpdlc&#45;&gt;HOST DISCOVERY
etlservicemgr</title>
<path fill="none" stroke="blue" stroke-width="5" d="M3865.83,-387.73C3975.33,-379.06 4118.97,-368.32 4246.38,-360.83 4256.65,-360.23 4424.27,-360.26 4431.38,-352.83 4461.11,-321.8 4413.98,-190.93 4378.38,-166.85 4203.86,-48.79 2757.1,-41.48 2252.33,-42.57"/>
<polygon fill="blue" stroke="blue" stroke-width="5" points="2252.03,-38.2 2242.04,-42.6 2252.05,-46.95 2252.03,-38.2"/>
<text text-anchor="middle" x="4561.88" y="-232.84" font-family="Arial" font-size="20.00" fill="blue">start_next: 03/11/18, 19:30:30</text>
<text text-anchor="middle" x="4561.88" y="-210.84" font-family="Arial" font-size="20.00" fill="blue">gap: 0sec</text>
<text text-anchor="middle" x="4561.88" y="-188.84" font-family="Arial" font-size="20.00" fill="blue">end_prev: 03/11/18, 19:30:30</text>
</g>
<!-- RESOURCE HIJACKING
http | ID: 20 -->
<g id="node8" class="node">
<title>RESOURCE HIJACKING
http | ID: 20</title>
<g id="a_node8"><a xlink:title="GPL WEB_SERVER Oracle Java Process Manager access">
<polygon fill="yellow" stroke="black" stroke-width="3" points="4374.92,-215.84 4258.15,-264.82 4024.61,-264.82 3907.85,-215.84 4024.61,-166.86 4258.15,-166.86 4374.92,-215.84"/>
<text text-anchor="middle" x="4141.38" y="-222.64" font-family="Arial" font-size="24.00">RESOURCE HIJACKING</text>
<text text-anchor="middle" x="4141.38" y="-196.64" font-family="Arial" font-size="24.00">http | ID: 20</text>
</a>
</g>
</g>
<!-- RESOURCE HIJACKING
http | ID: 20&#45;&gt;SERVICE DISCOVERY
unknown -->
<g id="edge10" class="edge">
<title>RESOURCE HIJACKING
http | ID: 20&#45;&gt;SERVICE DISCOVERY
unknown</title>
<path fill="none" stroke="blue" stroke-width="5" d="M3978.36,-245.46C3933.09,-254.84 3894.09,-264.88 3886.38,-272.83 3861.2,-298.8 3898.97,-329.43 3871.38,-352.83 3863.44,-359.57 3506.78,-360.12 3496.38,-360.83 3434.53,-365.04 3366.94,-372.15 3307.21,-379.3"/>
<polygon fill="blue" stroke="blue" stroke-width="5" points="3306.33,-375 3296.93,-380.54 3307.38,-383.69 3306.33,-375"/>
<text text-anchor="start" x="3886.38" y="-337.83" font-family="Arial" font-size="20.00" fill="blue"> start_next: 03/11/18, 21:35:52</text>
<text text-anchor="start" x="3959.88" y="-317.83" font-family="Arial" font-size="20.00" fill="blue">gap: 6951sec</text>
<text text-anchor="start" x="3890.38" y="-297.83" font-family="Arial" font-size="20.00" fill="blue">end_prev: 03/11/18, 19:40:01</text>
<text text-anchor="start" x="3915.38" y="-277.83" font-family="Arial" font-weight="bold" font-size="20.00" fill="blue">Attacker: 10.0.254.203</text>
</g>
<!-- SERVICE DISCOVERY
dsd&#45;&gt;HOST DISCOVERY
etlservicemgr -->
<g id="edge17" class="edge">
<title>SERVICE DISCOVERY
dsd&#45;&gt;HOST DISCOVERY
etlservicemgr</title>
<path fill="none" stroke="magenta" stroke-width="5" d="M4555.94,-369.66C4607.88,-348.68 4664.09,-315.57 4694.38,-264.83 4716.71,-227.44 4722.87,-199.79 4694.38,-166.85 4545.13,5.72 4413.74,-112.01 4186.38,-92.85 3812.53,-61.35 2685.56,-48.6 2251.97,-44.78"/>
<polygon fill="magenta" stroke="magenta" stroke-width="5" points="2251.9,-40.4 2241.86,-44.69 2251.82,-49.15 2251.9,-40.4"/>
<text text-anchor="middle" x="4844.88" y="-232.84" font-family="Arial" font-size="20.00" fill="magenta">start_next: 03/11/18, 14:33:16</text>
<text text-anchor="middle" x="4844.88" y="-210.84" font-family="Arial" font-size="20.00" fill="magenta">gap: 13sec</text>
<text text-anchor="middle" x="4844.88" y="-188.84" font-family="Arial" font-size="20.00" fill="magenta">end_prev: 03/11/18, 14:33:03</text>
</g>
<!-- INFO DISCOVERY
xdmcp -->
<g id="node11" class="node">
<title>INFO DISCOVERY
xdmcp</title>
<g id="a_node11"><a xlink:title="GPL RPC xdmcp info query">
<ellipse fill="none" stroke="black" stroke-width="3" cx="451.38" cy="-403.26" rx="156.04" ry="42.35"/>
<text text-anchor="middle" x="451.38" y="-410.06" font-family="Arial" font-size="24.00">INFO DISCOVERY</text>
<text text-anchor="middle" x="451.38" y="-384.06" font-family="Arial" font-size="24.00">xdmcp</text>
</a>
</g>
</g>
<!-- HOST DISCOVERY
asf&#45;rmcp&#45;&gt;INFO DISCOVERY
xdmcp -->
<g id="edge19" class="edge">
<title>HOST DISCOVERY
asf&#45;rmcp&#45;&gt;INFO DISCOVERY
xdmcp</title>
<path fill="none" stroke="magenta" stroke-width="5" d="M561.04,-258.55C560.8,-292.76 558.46,-337.9 548.38,-352.83 546.7,-355.33 544.84,-357.71 542.85,-359.97"/>
<polygon fill="magenta" stroke="magenta" stroke-width="5" points="539.57,-357.07 535.59,-367.23 545.76,-363.25 539.57,-357.07"/>
<text text-anchor="middle" x="692.88" y="-329.83" font-family="Arial" font-size="20.00" fill="magenta">start_next: 03/11/18, 14:49:45</text>
<text text-anchor="middle" x="692.88" y="-307.83" font-family="Arial" font-size="20.00" fill="magenta">gap: 343sec</text>
<text text-anchor="middle" x="692.88" y="-285.83" font-family="Arial" font-size="20.00" fill="magenta">end_prev: 03/11/18, 14:44:02</text>
</g>
<!-- INFO DISCOVERY
xdmcp&#45;&gt;INFO DISCOVERY
http -->
<g id="edge20" class="edge">
<title>INFO DISCOVERY
xdmcp&#45;&gt;INFO DISCOVERY
http</title>
<path fill="none" stroke="magenta" stroke-width="5" d="M440.53,-445.76C435.84,-474 435.44,-510.33 456.38,-533.69 479.44,-559.4 552.19,-571.9 623.83,-577.92"/>
<polygon fill="magenta" stroke="magenta" stroke-width="5" points="623.61,-582.29 633.92,-578.72 624.3,-573.57 623.61,-582.29"/>
<text text-anchor="middle" x="587.88" y="-510.69" font-family="Arial" font-size="20.00" fill="magenta">start_next: 03/11/18, 15:12:21</text>
<text text-anchor="middle" x="587.88" y="-488.69" font-family="Arial" font-size="20.00" fill="magenta">gap: 1356sec</text>
<text text-anchor="middle" x="587.88" y="-466.69" font-family="Arial" font-size="20.00" fill="magenta">end_prev: 03/11/18, 14:49:45</text>
</g>
<!-- SERVICE DISCOVERY
ssh -->
<g id="node12" class="node">
<title>SERVICE DISCOVERY
ssh</title>
<g id="a_node12"><a xlink:title="ET SCAN Potential SSH Scan">
<ellipse fill="yellow" stroke="black" stroke-width="3" cx="804.38" cy="-403.26" rx="189.51" ry="42.35"/>
<text text-anchor="middle" x="804.38" y="-410.06" font-family="Arial" font-size="24.00">SERVICE DISCOVERY</text>
<text text-anchor="middle" x="804.38" y="-384.06" font-family="Arial" font-size="24.00">ssh</text>
</a>
</g>
</g>
<!-- SERVICE DISCOVERY
ssh&#45;&gt;INFO DISCOVERY
http -->
<g id="edge22" class="edge">
<title>SERVICE DISCOVERY
ssh&#45;&gt;INFO DISCOVERY
http</title>
<path fill="none" stroke="purple" stroke-width="5" d="M739.19,-443.46C736.59,-446.65 734.29,-450.06 732.38,-453.69 715.82,-485.15 717.62,-501.34 732.38,-533.69 732.64,-534.24 732.9,-534.8 733.18,-535.35"/>
<polygon fill="purple" stroke="purple" stroke-width="5" points="729.44,-537.63 738.36,-543.92 736.93,-533.1 729.44,-537.63"/>
<text text-anchor="start" x="732.38" y="-518.69" font-family="Arial" font-size="20.00" fill="purple"> start_next: 03/11/18, 17:35:45</text>
<text text-anchor="start" x="800.38" y="-498.69" font-family="Arial" font-size="20.00" fill="purple">gap: 12730sec</text>
<text text-anchor="start" x="736.38" y="-478.69" font-family="Arial" font-size="20.00" fill="purple">end_prev: 03/11/18, 14:03:36</text>
<text text-anchor="start" x="761.38" y="-458.69" font-family="Arial" font-weight="bold" font-size="20.00" fill="purple">Attacker: 10.0.254.202</text>
</g>
<!-- SERVICE DISCOVERY
ads&#45;c&#45;&gt;HOST DISCOVERY
etlservicemgr -->
<g id="edge28" class="edge">
<title>SERVICE DISCOVERY
ads&#45;c&#45;&gt;HOST DISCOVERY
etlservicemgr</title>
<path fill="none" stroke="purple" stroke-width="5" d="M1654.1,-360.66C1649.82,-333.78 1648.91,-299.06 1664.38,-272.83 1726.31,-167.84 1855.44,-107.56 1953.31,-75.39"/>
<polygon fill="purple" stroke="purple" stroke-width="5" points="1954.8,-79.5 1962.98,-72.27 1952.12,-71.17 1954.8,-79.5"/>
<text text-anchor="middle" x="1890.88" y="-232.84" font-family="Arial" font-size="20.00" fill="purple">start_next: 03/11/18, 19:52:56</text>
<text text-anchor="middle" x="1890.88" y="-210.84" font-family="Arial" font-size="20.00" fill="purple">gap: 0sec</text>
<text text-anchor="middle" x="1890.88" y="-188.84" font-family="Arial" font-size="20.00" fill="purple">end_prev: 03/11/18, 19:52:56</text>
</g>
</g>
</svg>
