<?xml version="1.0" encoding="UTF-8" standalone="no"?>
<!DOCTYPE svg PUBLIC "-//W3C//DTD SVG 1.1//EN"
 "http://www.w3.org/Graphics/SVG/1.1/DTD/svg11.dtd">
<!-- Generated by graphviz version 2.50.0 (0)
 -->
<!-- Title: DATAEXFILTRATIONwapwsp Pages: 1 -->
<svg width="1067pt" height="1625pt"
 viewBox="0.00 0.00 1067.39 1624.57" xmlns="http://www.w3.org/2000/svg" xmlns:xlink="http://www.w3.org/1999/xlink">
<g id="graph0" class="graph" transform="scale(1 1) rotate(0) translate(4 1620.57)">
<title>DATAEXFILTRATIONwapwsp</title>
<polygon fill="white" stroke="transparent" points="-4,4 -4,-1620.57 1063.39,-1620.57 1063.39,4 -4,4"/>
<!-- Victim: 10.0.0.24
DATA EXFILTRATION
wap&#45;wsp -->
<g id="node1" class="node">
<title>Victim: 10.0.0.24
DATA EXFILTRATION
wap&#45;wsp</title>
<polygon fill="salmon" stroke="black" stroke-width="3" points="677.34,-1519.56 677.34,-1573.95 564.74,-1612.4 405.51,-1612.4 292.91,-1573.95 292.91,-1519.56 405.51,-1481.1 564.74,-1481.1 677.34,-1519.56"/>
<polygon fill="none" stroke="black" stroke-width="3" points="681.34,-1516.71 681.34,-1576.8 565.41,-1616.39 404.84,-1616.39 288.91,-1576.8 288.91,-1516.71 404.84,-1477.11 565.41,-1477.11 681.34,-1516.71"/>
<text text-anchor="middle" x="485.12" y="-1566.55" font-family="Arial" font-size="24.00">Victim: 10.0.0.24</text>
<text text-anchor="middle" x="485.12" y="-1540.55" font-family="Arial" font-size="24.00">DATA EXFILTRATION</text>
<text text-anchor="middle" x="485.12" y="-1514.55" font-family="Arial" font-size="24.00">wap&#45;wsp</text>
</g>
<!-- DATA EXFILTRATION
wap&#45;wsp | ID: 56 -->
<g id="node2" class="node">
<title>DATA EXFILTRATION
wap&#45;wsp | ID: 56</title>
<g id="a_node2"><a xlink:title="GPL WEB_SERVER Tomcat server snoop access&#10;GPL EXPLOIT ISAPI .ida access&#10;GPL EXPLOIT /msadc/samples/ access&#10;ET WEB_SERVER /system32/ in Uri &#45; Possible Protected Directory Access Attempt&#10;ET WEB_SPECIFIC_APPS PHP&#45;CGI query string parameter vulnerability&#10;ET WEB_SERVER /etc/shadow Detected in URI&#10;GPL EXPLOIT ISAPI .idq access">
<polygon fill="salmon" stroke="black" stroke-width="3" points="690,-1410.94 587.56,-1459.92 382.68,-1459.92 280.24,-1410.94 382.68,-1361.96 587.56,-1361.96 690,-1410.94"/>
<text text-anchor="middle" x="485.12" y="-1417.74" font-family="Arial" font-size="24.00">DATA EXFILTRATION</text>
<text text-anchor="middle" x="485.12" y="-1391.74" font-family="Arial" font-size="24.00">wap&#45;wsp | ID: 56</text>
</a>
</g>
</g>
<!-- DATA EXFILTRATION
wap&#45;wsp | ID: 56&#45;&gt;Victim: 10.0.0.24
DATA EXFILTRATION
wap&#45;wsp -->
<g id="edge1" class="edge">
<title>DATA EXFILTRATION
wap&#45;wsp | ID: 56&#45;&gt;Victim: 10.0.0.24
DATA EXFILTRATION
wap&#45;wsp</title>
<path fill="none" stroke="black" stroke-width="5" d="M485.12,-1460.25C485.12,-1462.35 485.12,-1464.49 485.12,-1466.64"/>
<polygon fill="black" stroke="black" stroke-width="5" points="480.75,-1466.79 485.12,-1476.79 489.5,-1466.79 480.75,-1466.79"/>
</g>
<!-- HOST DISCOVERY
http -->
<g id="node3" class="node">
<title>HOST DISCOVERY
http</title>
<g id="a_node3"><a xlink:title="ET SCAN Nmap Scripting Engine User&#45;Agent Detected (Nmap Scripting Engine)&#10;ET SCAN Possible Nmap User&#45;Agent Observed">
<ellipse fill="yellow" stroke="black" stroke-width="3" cx="485.12" cy="-42.43" rx="162.77" ry="42.35"/>
<text text-anchor="middle" x="485.12" y="-49.23" font-family="Arial" font-size="24.00">HOST DISCOVERY</text>
<text text-anchor="middle" x="485.12" y="-23.23" font-family="Arial" font-size="24.00">http</text>
</a>
</g>
</g>
<!-- VULNERABILTY DISCOVERY
mysql -->
<g id="node4" class="node">
<title>VULNERABILTY DISCOVERY
mysql</title>
<g id="a_node4"><a xlink:title="ET SCAN Suspicious inbound to mySQL port 3306&#10;ET SCAN Suspicious inbound to MSSQL port 1433&#10;ET SCAN Nikto Web App Scan in Progress&#10;ET SCAN Suspicious inbound to PostgreSQL port 5432&#10;ET SCAN Suspicious inbound to Oracle SQL port 1521&#10;ET SCAN Suspicious inbound to mSQL port 4333">
<ellipse fill="none" stroke="black" stroke-width="3" cx="241.12" cy="-223.28" rx="241.25" ry="42.35"/>
<text text-anchor="middle" x="241.12" y="-230.08" font-family="Arial" font-size="24.00">VULNERABILTY DISCOVERY</text>
<text text-anchor="middle" x="241.12" y="-204.08" font-family="Arial" font-size="24.00">mysql</text>
</a>
</g>
</g>
<!-- HOST DISCOVERY
http&#45;&gt;VULNERABILTY DISCOVERY
mysql -->
<g id="edge2" class="edge">
<title>HOST DISCOVERY
http&#45;&gt;VULNERABILTY DISCOVERY
mysql</title>
<path fill="none" stroke="darkgreen" stroke-width="5" d="M418.52,-81.38C412.56,-85.14 406.69,-89 401.12,-92.85 364.6,-118.17 325.79,-149.44 295.55,-174.9"/>
<polygon fill="darkgreen" stroke="darkgreen" stroke-width="5" points="292.46,-171.78 287.65,-181.58 298.11,-178.46 292.46,-171.78"/>
<text text-anchor="start" x="401.12" y="-157.85" font-family="Arial" font-size="20.00" fill="darkgreen"> start_next: 03/11/18, 14:52:49</text>
<text text-anchor="start" x="491.62" y="-137.85" font-family="Arial" font-size="20.00" fill="darkgreen">gap: 3sec</text>
<text text-anchor="start" x="405.12" y="-117.85" font-family="Arial" font-size="20.00" fill="darkgreen">end_prev: 03/11/18, 14:52:45</text>
<text text-anchor="start" x="430.12" y="-97.85" font-family="Arial" font-weight="bold" font-size="20.00" fill="darkgreen">Attacker: 10.0.254.201</text>
</g>
<!-- VULNERABILTY DISCOVERY
http -->
<g id="node11" class="node">
<title>VULNERABILTY DISCOVERY
http</title>
<g id="a_node11"><a xlink:title="ET SCAN Suspicious inbound to mySQL port 3306&#10;ET SCAN Suspicious inbound to MSSQL port 1433&#10;ET SCAN Nikto Web App Scan in Progress&#10;ET SCAN Suspicious inbound to PostgreSQL port 5432&#10;ET SCAN Suspicious inbound to Oracle SQL port 1521&#10;ET SCAN Suspicious inbound to mSQL port 4333">
<ellipse fill="none" stroke="black" stroke-width="3" cx="730.12" cy="-223.28" rx="241.25" ry="42.35"/>
<text text-anchor="middle" x="730.12" y="-230.08" font-family="Arial" font-size="24.00">VULNERABILTY DISCOVERY</text>
<text text-anchor="middle" x="730.12" y="-204.08" font-family="Arial" font-size="24.00">http</text>
</a>
</g>
</g>
<!-- HOST DISCOVERY
http&#45;&gt;VULNERABILTY DISCOVERY
http -->
<g id="edge10" class="edge">
<title>HOST DISCOVERY
http&#45;&gt;VULNERABILTY DISCOVERY
http</title>
<path fill="none" stroke="darkgreen" stroke-width="5" d="M620,-66.29C636.64,-73 652.55,-81.67 666.12,-92.85 690.33,-112.8 706.17,-144.17 716.03,-171.03"/>
<polygon fill="darkgreen" stroke="darkgreen" stroke-width="5" points="711.97,-172.69 719.4,-180.69 720.24,-169.81 711.97,-172.69"/>
<text text-anchor="start" x="715.12" y="-157.85" font-family="Arial" font-size="20.00" fill="darkgreen"> start_next: 03/11/18, 17:37:53</text>
<text text-anchor="start" x="805.62" y="-137.85" font-family="Arial" font-size="20.00" fill="darkgreen">gap: 5sec</text>
<text text-anchor="start" x="719.12" y="-117.85" font-family="Arial" font-size="20.00" fill="darkgreen">end_prev: 03/11/18, 17:37:48</text>
<text text-anchor="start" x="744.12" y="-97.85" font-family="Arial" font-weight="bold" font-size="20.00" fill="darkgreen">Attacker: 10.0.254.204</text>
</g>
<!-- INFO DISCOVERY
http -->
<g id="node5" class="node">
<title>INFO DISCOVERY
http</title>
<g id="a_node5"><a xlink:title="GPL WEB_SERVER .htaccess access&#10;GPL WEB_SERVER /~root access&#10;GPL WEB_SERVER iisadmin access&#10;GPL WEB_SERVER printenv access&#10;GPL EXPLOIT .cnf access&#10;ET POLICY Proxy TRACE Request &#45; inbound&#10;GPL WEB_SERVER .htpasswd access&#10;GPL EXPLOIT .htr access">
<ellipse fill="none" stroke="black" stroke-width="3" cx="485.12" cy="-390.13" rx="156.04" ry="42.35"/>
<text text-anchor="middle" x="485.12" y="-396.93" font-family="Arial" font-size="24.00">INFO DISCOVERY</text>
<text text-anchor="middle" x="485.12" y="-370.93" font-family="Arial" font-size="24.00">http</text>
</a>
</g>
</g>
<!-- VULNERABILTY DISCOVERY
mysql&#45;&gt;INFO DISCOVERY
http -->
<g id="edge3" class="edge">
<title>VULNERABILTY DISCOVERY
mysql&#45;&gt;INFO DISCOVERY
http</title>
<path fill="none" stroke="darkgreen" stroke-width="5" d="M296.72,-264.65C328.21,-287.2 368.51,-315.54 405.12,-339.71 408.16,-341.71 411.28,-343.74 414.44,-345.78"/>
<polygon fill="darkgreen" stroke="darkgreen" stroke-width="5" points="412.09,-349.47 422.87,-351.18 416.81,-342.1 412.09,-349.47"/>
<text text-anchor="middle" x="536.62" y="-323.71" font-family="Arial" font-size="20.00" fill="darkgreen">start_next: 03/11/18, 14:52:49</text>
<text text-anchor="middle" x="536.62" y="-301.71" font-family="Arial" font-size="20.00" fill="darkgreen">gap: &#45;313sec</text>
<text text-anchor="middle" x="536.62" y="-279.71" font-family="Arial" font-size="20.00" fill="darkgreen">end_prev: 03/11/18, 14:58:02</text>
</g>
<!-- DATA EXFILTRATION
http | ID: 15 -->
<g id="node6" class="node">
<title>DATA EXFILTRATION
http | ID: 15</title>
<g id="a_node6"><a xlink:title="GPL EXPLOIT ISAPI .idq access&#10;GPL EXPLOIT ISAPI .ida access">
<polygon fill="none" stroke="black" stroke-width="3" points="690,-563.55 587.56,-612.53 382.68,-612.53 280.24,-563.55 382.68,-514.57 587.56,-514.57 690,-563.55"/>
<text text-anchor="middle" x="485.12" y="-570.35" font-family="Arial" font-size="24.00">DATA EXFILTRATION</text>
<text text-anchor="middle" x="485.12" y="-544.35" font-family="Arial" font-size="24.00">http | ID: 15</text>
</a>
</g>
</g>
<!-- INFO DISCOVERY
http&#45;&gt;DATA EXFILTRATION
http | ID: 15 -->
<g id="edge4" class="edge">
<title>INFO DISCOVERY
http&#45;&gt;DATA EXFILTRATION
http | ID: 15</title>
<path fill="none" stroke="darkgreen" stroke-width="5" d="M373.16,-419.82C365.04,-425.53 357.82,-432.37 352.12,-440.56 335.38,-464.64 335.9,-482.12 352.12,-506.56 354.06,-509.48 356.19,-512.25 358.47,-514.88"/>
<polygon fill="darkgreen" stroke="darkgreen" stroke-width="5" points="355.66,-518.25 365.78,-522.33 361.9,-512.12 355.66,-518.25"/>
<text text-anchor="middle" x="483.62" y="-490.56" font-family="Arial" font-size="20.00" fill="darkgreen">start_next: 03/11/18, 14:52:49</text>
<text text-anchor="middle" x="483.62" y="-468.56" font-family="Arial" font-size="20.00" fill="darkgreen">gap: &#45;3sec</text>
<text text-anchor="middle" x="483.62" y="-446.56" font-family="Arial" font-size="20.00" fill="darkgreen">end_prev: 03/11/18, 14:52:51</text>
</g>
<!-- INFO DISCOVERY
http&#45;&gt;DATA EXFILTRATION
http | ID: 15 -->
<g id="edge12" class="edge">
<title>INFO DISCOVERY
http&#45;&gt;DATA EXFILTRATION
http | ID: 15</title>
<path fill="none" stroke="darkgreen" stroke-width="5" d="M592.95,-421.05C600.35,-426.5 606.91,-432.94 612.12,-440.56 628.68,-464.77 628.14,-481.99 612.12,-506.56 610.66,-508.81 609.07,-510.97 607.39,-513.05"/>
<polygon fill="darkgreen" stroke="darkgreen" stroke-width="5" points="603.97,-510.31 600.43,-520.63 610.42,-516.22 603.97,-510.31"/>
<text text-anchor="middle" x="755.62" y="-490.56" font-family="Arial" font-size="20.00" fill="darkgreen">start_next: 03/11/18, 17:37:54</text>
<text text-anchor="middle" x="755.62" y="-468.56" font-family="Arial" font-size="20.00" fill="darkgreen">gap: &#45;3sec</text>
<text text-anchor="middle" x="755.62" y="-446.56" font-family="Arial" font-size="20.00" fill="darkgreen">end_prev: 03/11/18, 17:37:57</text>
</g>
<!-- SERVICE DISCOVERY
unknown -->
<g id="node7" class="node">
<title>SERVICE DISCOVERY
unknown</title>
<g id="a_node7"><a xlink:title="ET SCAN Potential SSH Scan&#10;ET SCAN Potential VNC Scan 5800&#45;5820&#10;ET SCAN Potential VNC Scan 5900&#45;5920&#10;ET SCAN NMAP OS Detection Probe">
<ellipse fill="none" stroke="black" stroke-width="3" cx="485.12" cy="-736.96" rx="189.51" ry="42.35"/>
<text text-anchor="middle" x="485.12" y="-743.76" font-family="Arial" font-size="24.00">SERVICE DISCOVERY</text>
<text text-anchor="middle" x="485.12" y="-717.76" font-family="Arial" font-size="24.00">unknown</text>
</a>
</g>
</g>
<!-- DATA EXFILTRATION
http | ID: 15&#45;&gt;SERVICE DISCOVERY
unknown -->
<g id="edge5" class="edge">
<title>DATA EXFILTRATION
http | ID: 15&#45;&gt;SERVICE DISCOVERY
unknown</title>
<path fill="none" stroke="darkgreen" stroke-width="5" d="M365.78,-604.77C360.63,-609.46 356,-614.69 352.12,-620.54 335.9,-644.97 335.38,-662.45 352.12,-686.54 354.65,-690.18 357.49,-693.55 360.57,-696.68"/>
<polygon fill="darkgreen" stroke="darkgreen" stroke-width="5" points="357.81,-700.09 368.17,-703.53 363.67,-693.58 357.81,-700.09"/>
<text text-anchor="middle" x="483.62" y="-670.54" font-family="Arial" font-size="20.00" fill="darkgreen">start_next: 03/11/18, 14:53:39</text>
<text text-anchor="middle" x="483.62" y="-648.54" font-family="Arial" font-size="20.00" fill="darkgreen">gap: 50sec</text>
<text text-anchor="middle" x="483.62" y="-626.54" font-family="Arial" font-size="20.00" fill="darkgreen">end_prev: 03/11/18, 14:52:49</text>
</g>
<!-- DATA EXFILTRATION
http | ID: 15&#45;&gt;SERVICE DISCOVERY
unknown -->
<g id="edge13" class="edge">
<title>DATA EXFILTRATION
http | ID: 15&#45;&gt;SERVICE DISCOVERY
unknown</title>
<path fill="none" stroke="darkgreen" stroke-width="5" d="M600.43,-606.46C604.82,-610.71 608.77,-615.39 612.12,-620.54 628.14,-645.11 628.68,-662.33 612.12,-686.54 609.92,-689.75 607.48,-692.76 604.84,-695.57"/>
<polygon fill="darkgreen" stroke="darkgreen" stroke-width="5" points="601.69,-692.53 597.39,-702.57 607.68,-698.91 601.69,-692.53"/>
<text text-anchor="middle" x="755.62" y="-670.54" font-family="Arial" font-size="20.00" fill="darkgreen">start_next: 03/11/18, 17:42:35</text>
<text text-anchor="middle" x="755.62" y="-648.54" font-family="Arial" font-size="20.00" fill="darkgreen">gap: 281sec</text>
<text text-anchor="middle" x="755.62" y="-626.54" font-family="Arial" font-size="20.00" fill="darkgreen">end_prev: 03/11/18, 17:37:54</text>
</g>
<!-- HOST DISCOVERY
wap&#45;wsp -->
<g id="node8" class="node">
<title>HOST DISCOVERY
wap&#45;wsp</title>
<g id="a_node8"><a xlink:title="ET SCAN Nmap Scripting Engine User&#45;Agent Detected (Nmap Scripting Engine)&#10;ET SCAN Possible Nmap User&#45;Agent Observed">
<ellipse fill="none" stroke="black" stroke-width="3" cx="485.12" cy="-903.82" rx="162.77" ry="42.35"/>
<text text-anchor="middle" x="485.12" y="-910.62" font-family="Arial" font-size="24.00">HOST DISCOVERY</text>
<text text-anchor="middle" x="485.12" y="-884.62" font-family="Arial" font-size="24.00">wap&#45;wsp</text>
</a>
</g>
</g>
<!-- SERVICE DISCOVERY
unknown&#45;&gt;HOST DISCOVERY
wap&#45;wsp -->
<g id="edge6" class="edge">
<title>SERVICE DISCOVERY
unknown&#45;&gt;HOST DISCOVERY
wap&#45;wsp</title>
<path fill="none" stroke="darkgreen" stroke-width="5" d="M368.17,-770.4C362.08,-775.29 356.62,-780.92 352.12,-787.39 335.38,-811.48 335.38,-829.31 352.12,-853.39 355.59,-858.38 359.63,-862.87 364.08,-866.9"/>
<polygon fill="darkgreen" stroke="darkgreen" stroke-width="5" points="361.44,-870.39 371.97,-873.27 366.94,-863.58 361.44,-870.39"/>
<text text-anchor="middle" x="483.62" y="-837.39" font-family="Arial" font-size="20.00" fill="darkgreen">start_next: 03/11/18, 15:01:05</text>
<text text-anchor="middle" x="483.62" y="-815.39" font-family="Arial" font-size="20.00" fill="darkgreen">gap: 194sec</text>
<text text-anchor="middle" x="483.62" y="-793.39" font-family="Arial" font-size="20.00" fill="darkgreen">end_prev: 03/11/18, 14:57:51</text>
</g>
<!-- SERVICE DISCOVERY
unknown&#45;&gt;HOST DISCOVERY
wap&#45;wsp -->
<g id="edge14" class="edge">
<title>SERVICE DISCOVERY
unknown&#45;&gt;HOST DISCOVERY
wap&#45;wsp</title>
<path fill="none" stroke="darkgreen" stroke-width="5" d="M597.39,-771.36C602.98,-776.02 607.98,-781.34 612.12,-787.39 628.68,-811.6 628.68,-829.18 612.12,-853.39 609.11,-857.79 605.65,-861.81 601.83,-865.46"/>
<polygon fill="darkgreen" stroke="darkgreen" stroke-width="5" points="598.86,-862.24 594.08,-872.05 604.53,-868.9 598.86,-862.24"/>
<text text-anchor="middle" x="755.62" y="-837.39" font-family="Arial" font-size="20.00" fill="darkgreen">start_next: 03/11/18, 17:59:39</text>
<text text-anchor="middle" x="755.62" y="-815.39" font-family="Arial" font-size="20.00" fill="darkgreen">gap: 938sec</text>
<text text-anchor="middle" x="755.62" y="-793.39" font-family="Arial" font-size="20.00" fill="darkgreen">end_prev: 03/11/18, 17:44:01</text>
</g>
<!-- VULNERABILTY DISCOVERY
wap&#45;wsp -->
<g id="node9" class="node">
<title>VULNERABILTY DISCOVERY
wap&#45;wsp</title>
<g id="a_node9"><a xlink:title="ET SCAN Nikto Web App Scan in Progress">
<ellipse fill="none" stroke="black" stroke-width="3" cx="485.12" cy="-1070.67" rx="241.25" ry="42.35"/>
<text text-anchor="middle" x="485.12" y="-1077.47" font-family="Arial" font-size="24.00">VULNERABILTY DISCOVERY</text>
<text text-anchor="middle" x="485.12" y="-1051.47" font-family="Arial" font-size="24.00">wap&#45;wsp</text>
</a>
</g>
</g>
<!-- HOST DISCOVERY
wap&#45;wsp&#45;&gt;VULNERABILTY DISCOVERY
wap&#45;wsp -->
<g id="edge7" class="edge">
<title>HOST DISCOVERY
wap&#45;wsp&#45;&gt;VULNERABILTY DISCOVERY
wap&#45;wsp</title>
<path fill="none" stroke="darkgreen" stroke-width="5" d="M371.97,-934.36C364.33,-939.89 357.54,-946.46 352.12,-954.24 335.38,-978.33 335.38,-996.16 352.12,-1020.24 353.66,-1022.46 355.31,-1024.57 357.06,-1026.59"/>
<polygon fill="darkgreen" stroke="darkgreen" stroke-width="5" points="354.14,-1029.86 364.27,-1033.92 360.37,-1023.72 354.14,-1029.86"/>
<text text-anchor="middle" x="483.62" y="-1004.24" font-family="Arial" font-size="20.00" fill="darkgreen">start_next: 03/11/18, 15:05:26</text>
<text text-anchor="middle" x="483.62" y="-982.24" font-family="Arial" font-size="20.00" fill="darkgreen">gap: 260sec</text>
<text text-anchor="middle" x="483.62" y="-960.24" font-family="Arial" font-size="20.00" fill="darkgreen">end_prev: 03/11/18, 15:01:06</text>
</g>
<!-- HOST DISCOVERY
wap&#45;wsp&#45;&gt;VULNERABILTY DISCOVERY
wap&#45;wsp -->
<g id="edge15" class="edge">
<title>HOST DISCOVERY
wap&#45;wsp&#45;&gt;VULNERABILTY DISCOVERY
wap&#45;wsp</title>
<path fill="none" stroke="darkgreen" stroke-width="5" d="M594.08,-935.58C601.02,-940.85 607.18,-947.02 612.12,-954.24 628.68,-978.46 628.68,-996.03 612.12,-1020.24 610.79,-1022.19 609.38,-1024.05 607.88,-1025.85"/>
<polygon fill="darkgreen" stroke="darkgreen" stroke-width="5" points="604.56,-1022.99 600.83,-1033.25 610.89,-1029.03 604.56,-1022.99"/>
<text text-anchor="middle" x="755.62" y="-1004.24" font-family="Arial" font-size="20.00" fill="darkgreen">start_next: 03/11/18, 18:07:13</text>
<text text-anchor="middle" x="755.62" y="-982.24" font-family="Arial" font-size="20.00" fill="darkgreen">gap: 454sec</text>
<text text-anchor="middle" x="755.62" y="-960.24" font-family="Arial" font-size="20.00" fill="darkgreen">end_prev: 03/11/18, 17:59:40</text>
</g>
<!-- VULNERABILTY DISCOVERY
wap&#45;wsp&#45;&gt;DATA EXFILTRATION
wap&#45;wsp | ID: 56 -->
<g id="edge16" class="edge">
<title>VULNERABILTY DISCOVERY
wap&#45;wsp&#45;&gt;DATA EXFILTRATION
wap&#45;wsp | ID: 56</title>
<path fill="none" stroke="darkgreen" stroke-width="5" d="M483.01,-1113.36C481.91,-1137.28 480.67,-1167.87 480.12,-1195.1 479.36,-1232.8 479.4,-1242.24 480.12,-1279.95 480.58,-1303.45 481.49,-1329.32 482.41,-1351.76"/>
<polygon fill="darkgreen" stroke="darkgreen" stroke-width="5" points="478.04,-1351.99 482.83,-1361.8 486.78,-1351.63 478.04,-1351.99"/>
<text text-anchor="middle" x="611.62" y="-1254.52" font-family="Arial" font-size="20.00" fill="darkgreen">start_next: 03/11/18, 18:07:13</text>
<text text-anchor="middle" x="611.62" y="-1232.52" font-family="Arial" font-size="20.00" fill="darkgreen">gap: 0sec</text>
<text text-anchor="middle" x="611.62" y="-1210.52" font-family="Arial" font-size="20.00" fill="darkgreen">end_prev: 03/11/18, 18:07:13</text>
</g>
<!-- INFO DISCOVERY
wap&#45;wsp -->
<g id="node10" class="node">
<title>INFO DISCOVERY
wap&#45;wsp</title>
<g id="a_node10"><a xlink:title="GPL WEB_SERVER viewcode access&#10;GPL WEB_SERVER .htaccess access&#10;GPL WEB_SERVER writeto.cnf access&#10;GPL WEB_SERVER iisadmin access&#10;GPL WEB_SERVER services.cnf access&#10;GPL EXPLOIT unicode directory traversal attempt&#10;GPL WEB_SERVER service.cnf access&#10;GPL EXPLOIT iisadmpwd attempt&#10;ET WEB_SERVER PHP SESSION SuperGlobal in URI&#10;GPL WEB_SERVER /~root access&#10;GPL WEB_SERVER authors.pwd access&#10;ET WEB_SERVER PHP ENV SuperGlobal in URI&#10;GPL EXPLOIT .cnf access&#10;ET POLICY Proxy TRACE Request &#45; inbound&#10;GPL WEB_SERVER .htpasswd access&#10;GPL WEB_SERVER global.asa access&#10;ET WEB_SERVER PHP SERVER SuperGlobal in URI&#10;GPL EXPLOIT fpcount access&#10;GPL WEB_SERVER globals.pl access&#10;GPL WEB_SERVER service.pwd&#10;GPL EXPLOIT ISAPI .idq attempt&#10;ET WEB_SERVER PHP Easteregg Information&#45;Disclosure (phpinfo)&#10;GPL WEB_SERVER printenv access&#10;GPL WEB_SERVER author.exe access&#10;GPL EXPLOIT iissamples access&#10;GPL EXPLOIT .htr access&#10;ET WEB_SERVER PHP REQUEST SuperGlobal in URI">
<ellipse fill="none" stroke="black" stroke-width="3" cx="903.12" cy="-1237.52" rx="156.04" ry="42.35"/>
<text text-anchor="middle" x="903.12" y="-1244.32" font-family="Arial" font-size="24.00">INFO DISCOVERY</text>
<text text-anchor="middle" x="903.12" y="-1218.32" font-family="Arial" font-size="24.00">wap&#45;wsp</text>
</a>
</g>
</g>
<!-- VULNERABILTY DISCOVERY
wap&#45;wsp&#45;&gt;INFO DISCOVERY
wap&#45;wsp -->
<g id="edge8" class="edge">
<title>VULNERABILTY DISCOVERY
wap&#45;wsp&#45;&gt;INFO DISCOVERY
wap&#45;wsp</title>
<path fill="none" stroke="darkgreen" stroke-width="5" d="M581.28,-1109.59C648.86,-1136.24 738.91,-1171.76 806.57,-1198.44"/>
<polygon fill="darkgreen" stroke="darkgreen" stroke-width="5" points="805.06,-1202.55 815.97,-1202.15 808.27,-1194.41 805.06,-1202.55"/>
<text text-anchor="middle" x="898.62" y="-1171.1" font-family="Arial" font-size="20.00" fill="darkgreen">start_next: 03/11/18, 15:05:26</text>
<text text-anchor="middle" x="898.62" y="-1149.1" font-family="Arial" font-size="20.00" fill="darkgreen">gap: 0sec</text>
<text text-anchor="middle" x="898.62" y="-1127.1" font-family="Arial" font-size="20.00" fill="darkgreen">end_prev: 03/11/18, 15:05:26</text>
</g>
<!-- INFO DISCOVERY
wap&#45;wsp&#45;&gt;DATA EXFILTRATION
wap&#45;wsp | ID: 56 -->
<g id="edge9" class="edge">
<title>INFO DISCOVERY
wap&#45;wsp&#45;&gt;DATA EXFILTRATION
wap&#45;wsp | ID: 56</title>
<path fill="none" stroke="darkgreen" stroke-width="5" d="M818.53,-1273.21C756.9,-1298.49 672.58,-1333.07 604.16,-1361.13"/>
<polygon fill="darkgreen" stroke="darkgreen" stroke-width="5" points="602.2,-1357.2 594.61,-1365.04 605.52,-1365.29 602.2,-1357.2"/>
<text text-anchor="middle" x="910.62" y="-1337.95" font-family="Arial" font-size="20.00" fill="darkgreen">start_next: 03/11/18, 15:05:26</text>
<text text-anchor="middle" x="910.62" y="-1315.95" font-family="Arial" font-size="20.00" fill="darkgreen">gap: &#45;10sec</text>
<text text-anchor="middle" x="910.62" y="-1293.95" font-family="Arial" font-size="20.00" fill="darkgreen">end_prev: 03/11/18, 15:05:37</text>
</g>
<!-- VULNERABILTY DISCOVERY
http&#45;&gt;INFO DISCOVERY
http -->
<g id="edge11" class="edge">
<title>VULNERABILTY DISCOVERY
http&#45;&gt;INFO DISCOVERY
http</title>
<path fill="none" stroke="darkgreen" stroke-width="5" d="M716.11,-265.86C705.71,-290.69 689.14,-320.95 665.12,-339.71 653.18,-349.03 639.6,-356.6 625.37,-362.74"/>
<polygon fill="darkgreen" stroke="darkgreen" stroke-width="5" points="623.55,-358.76 615.93,-366.57 626.85,-366.86 623.55,-358.76"/>
<text text-anchor="middle" x="843.62" y="-323.71" font-family="Arial" font-size="20.00" fill="darkgreen">start_next: 03/11/18, 17:37:53</text>
<text text-anchor="middle" x="843.62" y="-301.71" font-family="Arial" font-size="20.00" fill="darkgreen">gap: &#45;292sec</text>
<text text-anchor="middle" x="843.62" y="-279.71" font-family="Arial" font-size="20.00" fill="darkgreen">end_prev: 03/11/18, 17:42:44</text>
</g>
</g>
</svg>
