<?xml version="1.0" encoding="UTF-8" standalone="no"?>
<!DOCTYPE svg PUBLIC "-//W3C//DTD SVG 1.1//EN"
 "http://www.w3.org/Graphics/SVG/1.1/DTD/svg11.dtd">
<!-- Generated by graphviz version 2.50.0 (0)
 -->
<!-- Title: DATAEXFILTRATIONremotewarecl Pages: 1 -->
<svg width="1812pt" height="1311pt"
 viewBox="0.00 0.00 1811.50 1310.59" xmlns="http://www.w3.org/2000/svg" xmlns:xlink="http://www.w3.org/1999/xlink">
<g id="graph0" class="graph" transform="scale(1 1) rotate(0) translate(4 1306.59)">
<title>DATAEXFILTRATIONremotewarecl</title>
<polygon fill="white" stroke="transparent" points="-4,4 -4,-1306.59 1807.5,-1306.59 1807.5,4 -4,4"/>
<!-- Victim: 10.0.0.20
DATA EXFILTRATION
remoteware&#45;cl -->
<g id="node1" class="node">
<title>Victim: 10.0.0.20
DATA EXFILTRATION
remoteware&#45;cl</title>
<polygon fill="salmon" stroke="black" stroke-width="3" points="715.72,-1205.58 715.72,-1259.97 603.12,-1298.42 443.89,-1298.42 331.29,-1259.97 331.29,-1205.58 443.89,-1167.12 603.12,-1167.12 715.72,-1205.58"/>
<polygon fill="none" stroke="black" stroke-width="3" points="719.72,-1202.73 719.72,-1262.82 603.79,-1302.41 443.22,-1302.41 327.29,-1262.82 327.29,-1202.73 443.22,-1163.13 603.79,-1163.13 719.72,-1202.73"/>
<text text-anchor="middle" x="523.5" y="-1252.57" font-family="Arial" font-size="24.00">Victim: 10.0.0.20</text>
<text text-anchor="middle" x="523.5" y="-1226.57" font-family="Arial" font-size="24.00">DATA EXFILTRATION</text>
<text text-anchor="middle" x="523.5" y="-1200.57" font-family="Arial" font-size="24.00">remoteware&#45;cl</text>
</g>
<!-- DATA EXFILTRATION
remoteware&#45;cl | ID: 22 -->
<g id="node2" class="node">
<title>DATA EXFILTRATION
remoteware&#45;cl | ID: 22</title>
<g id="a_node2"><a xlink:title="GPL WEB_SERVER Tomcat server snoop access&#10;GPL EXPLOIT ISAPI .ida access&#10;GPL EXPLOIT /msadc/samples/ access&#10;ET WEB_SERVER ColdFusion componentutils access&#10;ET WEB_SERVER /system32/ in Uri &#45; Possible Protected Directory Access Attempt&#10;ET WEB_SERVER Possible XXE SYSTEM ENTITY in POST BODY.&#10;ET WEB_SPECIFIC_APPS PHP&#45;CGI query string parameter vulnerability&#10;ET WEB_SERVER /etc/shadow Detected in URI&#10;ET INFO WinHttp AutoProxy Request wpad.dat Possible BadTunnel&#10;GPL EXPLOIT ISAPI .idq access">
<polygon fill="salmon" stroke="black" stroke-width="3" points="730.78,-1096.96 627.14,-1145.94 419.86,-1145.94 316.22,-1096.96 419.86,-1047.98 627.14,-1047.98 730.78,-1096.96"/>
<text text-anchor="middle" x="523.5" y="-1103.76" font-family="Arial" font-size="24.00">DATA EXFILTRATION</text>
<text text-anchor="middle" x="523.5" y="-1077.76" font-family="Arial" font-size="24.00">remoteware&#45;cl | ID: 22</text>
</a>
</g>
</g>
<!-- DATA EXFILTRATION
remoteware&#45;cl | ID: 22&#45;&gt;Victim: 10.0.0.20
DATA EXFILTRATION
remoteware&#45;cl -->
<g id="edge1" class="edge">
<title>DATA EXFILTRATION
remoteware&#45;cl | ID: 22&#45;&gt;Victim: 10.0.0.20
DATA EXFILTRATION
remoteware&#45;cl</title>
<path fill="none" stroke="black" stroke-width="5" d="M523.5,-1146.27C523.5,-1148.37 523.5,-1150.51 523.5,-1152.66"/>
<polygon fill="black" stroke="black" stroke-width="5" points="519.13,-1152.81 523.5,-1162.81 527.88,-1152.81 519.13,-1152.81"/>
</g>
<!-- VULNERABILTY DISCOVERY
mysql -->
<g id="node3" class="node">
<title>VULNERABILTY DISCOVERY
mysql</title>
<g id="a_node3"><a xlink:title="ET SCAN Suspicious inbound to mySQL port 3306&#10;ET SCAN Suspicious inbound to MSSQL port 1433&#10;ET SCAN Suspicious inbound to PostgreSQL port 5432&#10;ET SCAN Suspicious inbound to Oracle SQL port 1521&#10;ET SCAN Suspicious inbound to mSQL port 4333">
<ellipse fill="yellow" stroke="black" stroke-width="3" cx="724.5" cy="-42.43" rx="241.25" ry="42.35"/>
<text text-anchor="middle" x="724.5" y="-49.23" font-family="Arial" font-size="24.00">VULNERABILTY DISCOVERY</text>
<text text-anchor="middle" x="724.5" y="-23.23" font-family="Arial" font-size="24.00">mysql</text>
</a>
</g>
</g>
<!-- SERVICE DISCOVERY
cpdlc -->
<g id="node4" class="node">
<title>SERVICE DISCOVERY
cpdlc</title>
<g id="a_node4"><a xlink:title="ET SCAN Potential VNC Scan 5900&#45;5920&#10;ET SCAN Potential VNC Scan 5800&#45;5820">
<ellipse fill="none" stroke="black" stroke-width="3" cx="189.5" cy="-316.13" rx="189.51" ry="42.35"/>
<text text-anchor="middle" x="189.5" y="-322.93" font-family="Arial" font-size="24.00">SERVICE DISCOVERY</text>
<text text-anchor="middle" x="189.5" y="-296.93" font-family="Arial" font-size="24.00">cpdlc</text>
</a>
</g>
</g>
<!-- VULNERABILTY DISCOVERY
mysql&#45;&gt;SERVICE DISCOVERY
cpdlc -->
<g id="edge2" class="edge">
<title>VULNERABILTY DISCOVERY
mysql&#45;&gt;SERVICE DISCOVERY
cpdlc</title>
<path fill="none" stroke="maroon" stroke-width="5" d="M483.71,-44.9C297.43,-48.62 66.15,-59.93 35.5,-92.85 -16.23,-148.43 58.88,-222.51 121.2,-269.52"/>
<polygon fill="maroon" stroke="maroon" stroke-width="5" points="118.87,-273.24 129.51,-275.69 124.08,-266.21 118.87,-273.24"/>
<text text-anchor="start" x="35.5" y="-157.85" font-family="Arial" font-size="20.00" fill="maroon"> start_next: 03/11/18, 14:36:05</text>
<text text-anchor="start" x="126" y="-137.85" font-family="Arial" font-size="20.00" fill="maroon">gap: 0sec</text>
<text text-anchor="start" x="39.5" y="-117.85" font-family="Arial" font-size="20.00" fill="maroon">end_prev: 03/11/18, 14:36:05</text>
<text text-anchor="start" x="64.5" y="-97.85" font-family="Arial" font-weight="bold" font-size="20.00" fill="maroon">Attacker: 10.0.254.204</text>
</g>
<!-- SERVICE DISCOVERY
unknown -->
<g id="node7" class="node">
<title>SERVICE DISCOVERY
unknown</title>
<g id="a_node7"><a xlink:title="ET SCAN Potential SSH Scan&#10;ET SCAN Potential VNC Scan 5900&#45;5920&#10;ET SCAN Potential VNC Scan 5800&#45;5820&#10;ET SCAN NMAP OS Detection Probe">
<ellipse fill="none" stroke="black" stroke-width="3" cx="627.5" cy="-223.28" rx="189.51" ry="42.35"/>
<text text-anchor="middle" x="627.5" y="-230.08" font-family="Arial" font-size="24.00">SERVICE DISCOVERY</text>
<text text-anchor="middle" x="627.5" y="-204.08" font-family="Arial" font-size="24.00">unknown</text>
</a>
</g>
</g>
<!-- VULNERABILTY DISCOVERY
mysql&#45;&gt;SERVICE DISCOVERY
unknown -->
<g id="edge6" class="edge">
<title>VULNERABILTY DISCOVERY
mysql&#45;&gt;SERVICE DISCOVERY
unknown</title>
<path fill="none" stroke="maroon" stroke-width="5" d="M840.21,-79.84C844.42,-83.75 848.23,-88.07 851.5,-92.85 861.54,-107.53 862.64,-158.99 851.5,-172.85 843.05,-183.37 823.39,-191.78 799.03,-198.47"/>
<polygon fill="maroon" stroke="maroon" stroke-width="5" points="797.68,-194.3 789.1,-201.04 799.87,-202.77 797.68,-194.3"/>
<text text-anchor="start" x="859.5" y="-157.85" font-family="Arial" font-size="20.00" fill="maroon"> start_next: 03/11/18, 18:01:25</text>
<text text-anchor="start" x="937" y="-137.85" font-family="Arial" font-size="20.00" fill="maroon">gap: &#45;111sec</text>
<text text-anchor="start" x="863.5" y="-117.85" font-family="Arial" font-size="20.00" fill="maroon">end_prev: 03/11/18, 18:03:15</text>
<text text-anchor="start" x="888.5" y="-97.85" font-family="Arial" font-weight="bold" font-size="20.00" fill="maroon">Attacker: 10.0.254.202</text>
</g>
<!-- VULNERABILTY DISCOVERY
mysql&#45;&gt;SERVICE DISCOVERY
unknown -->
<g id="edge13" class="edge">
<title>VULNERABILTY DISCOVERY
mysql&#45;&gt;SERVICE DISCOVERY
unknown</title>
<path fill="none" stroke="darkgreen" stroke-width="5" d="M948.05,-58.34C1034.12,-66.4 1115.2,-77.82 1128.5,-92.85 1152.07,-119.48 1152.38,-146.51 1128.5,-172.85 1107.66,-195.85 955.7,-208.55 824.54,-215.29"/>
<polygon fill="darkgreen" stroke="darkgreen" stroke-width="5" points="824.1,-210.93 814.33,-215.8 824.54,-219.67 824.1,-210.93"/>
<text text-anchor="start" x="1146.5" y="-157.85" font-family="Arial" font-size="20.00" fill="darkgreen"> start_next: 03/11/18, 14:53:39</text>
<text text-anchor="start" x="1222.5" y="-137.85" font-family="Arial" font-size="20.00" fill="darkgreen">gap: &#45;263sec</text>
<text text-anchor="start" x="1150.5" y="-117.85" font-family="Arial" font-size="20.00" fill="darkgreen">end_prev: 03/11/18, 14:58:02</text>
<text text-anchor="start" x="1175.5" y="-97.85" font-family="Arial" font-weight="bold" font-size="20.00" fill="darkgreen">Attacker: 10.0.254.201</text>
</g>
<!-- VULNERABILTY DISCOVERY
mysql&#45;&gt;SERVICE DISCOVERY
unknown -->
<g id="edge17" class="edge">
<title>VULNERABILTY DISCOVERY
mysql&#45;&gt;SERVICE DISCOVERY
unknown</title>
<path fill="none" stroke="darkgreen" stroke-width="5" d="M499.74,-57.79C410.79,-65.81 326.25,-77.36 312.5,-92.85 300.71,-106.15 300.95,-159.34 312.5,-172.85 329.82,-193.1 378.65,-205.11 432.85,-212.21"/>
<polygon fill="darkgreen" stroke="darkgreen" stroke-width="5" points="432.56,-216.58 443.02,-213.48 433.64,-207.9 432.56,-216.58"/>
<text text-anchor="start" x="312.5" y="-157.85" font-family="Arial" font-size="20.00" fill="darkgreen"> start_next: 03/11/18, 17:42:35</text>
<text text-anchor="start" x="394" y="-137.85" font-family="Arial" font-size="20.00" fill="darkgreen">gap: &#45;10sec</text>
<text text-anchor="start" x="316.5" y="-117.85" font-family="Arial" font-size="20.00" fill="darkgreen">end_prev: 03/11/18, 17:42:45</text>
<text text-anchor="start" x="341.5" y="-97.85" font-family="Arial" font-weight="bold" font-size="20.00" fill="darkgreen">Attacker: 10.0.254.204</text>
</g>
<!-- SERVICE DISCOVERY
ssh -->
<g id="node8" class="node">
<title>SERVICE DISCOVERY
ssh</title>
<g id="a_node8"><a xlink:title="ET SCAN Potential VNC Scan 5800&#45;5820&#10;ET SCAN Potential SSH Scan">
<ellipse fill="none" stroke="black" stroke-width="3" cx="1402.5" cy="-316.13" rx="189.51" ry="42.35"/>
<text text-anchor="middle" x="1402.5" y="-322.93" font-family="Arial" font-size="24.00">SERVICE DISCOVERY</text>
<text text-anchor="middle" x="1402.5" y="-296.93" font-family="Arial" font-size="24.00">ssh</text>
</a>
</g>
</g>
<!-- VULNERABILTY DISCOVERY
mysql&#45;&gt;SERVICE DISCOVERY
ssh -->
<g id="edge8" class="edge">
<title>VULNERABILTY DISCOVERY
mysql&#45;&gt;SERVICE DISCOVERY
ssh</title>
<path fill="none" stroke="maroon" stroke-width="5" d="M965.53,-44.97C1151.11,-48.74 1381.01,-60.08 1411.5,-92.85 1453.69,-138.18 1439.51,-213.9 1423.02,-264.18"/>
<polygon fill="maroon" stroke="maroon" stroke-width="5" points="1418.8,-263 1419.7,-273.88 1427.08,-265.83 1418.8,-263"/>
<text text-anchor="middle" x="1570" y="-149.85" font-family="Arial" font-size="20.00" fill="maroon">start_next: 03/11/18, 20:53:38</text>
<text text-anchor="middle" x="1570" y="-127.85" font-family="Arial" font-size="20.00" fill="maroon">gap: 0sec</text>
<text text-anchor="middle" x="1570" y="-105.85" font-family="Arial" font-size="20.00" fill="maroon">end_prev: 03/11/18, 20:53:38</text>
</g>
<!-- VULNERABILTY DISCOVERY
remoteware&#45;cl -->
<g id="node5" class="node">
<title>VULNERABILTY DISCOVERY
remoteware&#45;cl</title>
<g id="a_node5"><a xlink:title="ET SCAN Nikto Web App Scan in Progress&#10;ET SCAN OpenVAS User&#45;Agent Inbound&#10;ET SCAN Suspicious inbound to mySQL port 3306">
<ellipse fill="none" stroke="black" stroke-width="3" cx="674.5" cy="-575.84" rx="241.25" ry="42.35"/>
<text text-anchor="middle" x="674.5" y="-582.64" font-family="Arial" font-size="24.00">VULNERABILTY DISCOVERY</text>
<text text-anchor="middle" x="674.5" y="-556.64" font-family="Arial" font-size="24.00">remoteware&#45;cl</text>
</a>
</g>
</g>
<!-- SERVICE DISCOVERY
cpdlc&#45;&gt;VULNERABILTY DISCOVERY
remoteware&#45;cl -->
<g id="edge3" class="edge">
<title>SERVICE DISCOVERY
cpdlc&#45;&gt;VULNERABILTY DISCOVERY
remoteware&#45;cl</title>
<path fill="none" stroke="maroon" stroke-width="5" d="M197.25,-358.8C204.89,-388.58 219.49,-427.48 246.5,-451.41 305.29,-503.5 384.8,-533.69 459.33,-551.15"/>
<polygon fill="maroon" stroke="maroon" stroke-width="5" points="458.62,-555.47 469.34,-553.42 460.56,-546.94 458.62,-555.47"/>
<text text-anchor="middle" x="378" y="-425.98" font-family="Arial" font-size="20.00" fill="maroon">start_next: 03/11/18, 19:26:10</text>
<text text-anchor="middle" x="378" y="-403.98" font-family="Arial" font-size="20.00" fill="maroon">gap: 17405sec</text>
<text text-anchor="middle" x="378" y="-381.98" font-family="Arial" font-size="20.00" fill="maroon">end_prev: 03/11/18, 14:36:05</text>
</g>
<!-- VULNERABILTY DISCOVERY
remoteware&#45;cl&#45;&gt;DATA EXFILTRATION
remoteware&#45;cl | ID: 22 -->
<g id="edge16" class="edge">
<title>VULNERABILTY DISCOVERY
remoteware&#45;cl&#45;&gt;DATA EXFILTRATION
remoteware&#45;cl | ID: 22</title>
<path fill="none" stroke="darkgreen" stroke-width="5" d="M513.98,-607.52C412.77,-636.41 290.9,-691.17 234.5,-793.12 178.02,-895.23 306.09,-988.39 409.42,-1043.65"/>
<polygon fill="darkgreen" stroke="darkgreen" stroke-width="5" points="407.5,-1047.59 418.39,-1048.39 411.59,-1039.85 407.5,-1047.59"/>
<text text-anchor="middle" x="366" y="-850.12" font-family="Arial" font-size="20.00" fill="darkgreen">start_next: 03/11/18, 15:05:41</text>
<text text-anchor="middle" x="366" y="-828.12" font-family="Arial" font-size="20.00" fill="darkgreen">gap: &#45;571sec</text>
<text text-anchor="middle" x="366" y="-806.12" font-family="Arial" font-size="20.00" fill="darkgreen">end_prev: 03/11/18, 15:15:13</text>
</g>
<!-- VULNERABILTY DISCOVERY
remoteware&#45;cl&#45;&gt;DATA EXFILTRATION
remoteware&#45;cl | ID: 22 -->
<g id="edge24" class="edge">
<title>VULNERABILTY DISCOVERY
remoteware&#45;cl&#45;&gt;DATA EXFILTRATION
remoteware&#45;cl | ID: 22</title>
<path fill="none" stroke="magenta" stroke-width="5" d="M542.84,-611.5C537.21,-615.86 532.04,-620.76 527.5,-626.26 477.18,-687.39 500.9,-926.04 515.29,-1037.72"/>
<polygon fill="magenta" stroke="magenta" stroke-width="5" points="510.97,-1038.46 516.61,-1047.8 519.65,-1037.32 510.97,-1038.46"/>
<text text-anchor="middle" x="631" y="-850.12" font-family="Arial" font-size="20.00" fill="magenta">start_next: 03/11/18, 15:48:26</text>
<text text-anchor="middle" x="631" y="-828.12" font-family="Arial" font-size="20.00" fill="magenta">gap: &#45;552sec</text>
<text text-anchor="middle" x="631" y="-806.12" font-family="Arial" font-size="20.00" fill="magenta">end_prev: 03/11/18, 15:57:38</text>
</g>
<!-- INFO DISCOVERY
remoteware&#45;cl -->
<g id="node6" class="node">
<title>INFO DISCOVERY
remoteware&#45;cl</title>
<g id="a_node6"><a xlink:title="GPL WEB_SERVER viewcode access&#10;GPL WEB_SERVER .htaccess access&#10;GPL WEB_SERVER writeto.cnf access&#10;GPL WEB_SERVER iisadmin access&#10;ET WEB_SPECIFIC_APPS Request to Wordpress W3TC Plug&#45;in dbcache Directory&#10;GPL WEB_SERVER services.cnf access&#10;GPL EXPLOIT unicode directory traversal attempt&#10;GPL WEB_SERVER service.cnf access&#10;GPL EXPLOIT iisadmpwd attempt&#10;ET WEB_SERVER PHP SESSION SuperGlobal in URI&#10;GPL WEB_SERVER /~root access&#10;GPL WEB_SERVER authors.pwd access&#10;GPL EXPLOIT .cnf access&#10;ET POLICY Proxy TRACE Request &#45; inbound&#10;GPL WEB_SERVER .htpasswd access&#10;GPL WEB_SERVER global.asa access&#10;ET WEB_SERVER PHP SERVER SuperGlobal in URI&#10;GPL EXPLOIT fpcount access&#10;GPL WEB_SERVER globals.pl access&#10;GPL WEB_SERVER 403 Forbidden&#10;GPL WEB_SERVER service.pwd&#10;GPL EXPLOIT ISAPI .idq attempt&#10;ET WEB_SERVER PHP Easteregg Information&#45;Disclosure (phpinfo)&#10;GPL WEB_SERVER printenv access&#10;GPL WEB_SERVER author.exe access&#10;GPL EXPLOIT iissamples access&#10;GPL EXPLOIT .htr access&#10;ET WEB_SERVER PHP REQUEST SuperGlobal in URI">
<ellipse fill="yellow" stroke="black" stroke-width="3" cx="800.5" cy="-742.69" rx="156.04" ry="42.35"/>
<text text-anchor="middle" x="800.5" y="-749.49" font-family="Arial" font-size="24.00">INFO DISCOVERY</text>
<text text-anchor="middle" x="800.5" y="-723.49" font-family="Arial" font-size="24.00">remoteware&#45;cl</text>
</a>
</g>
</g>
<!-- VULNERABILTY DISCOVERY
remoteware&#45;cl&#45;&gt;INFO DISCOVERY
remoteware&#45;cl -->
<g id="edge4" class="edge">
<title>VULNERABILTY DISCOVERY
remoteware&#45;cl&#45;&gt;INFO DISCOVERY
remoteware&#45;cl</title>
<path fill="none" stroke="maroon" stroke-width="5" d="M553.65,-612.59C549.12,-616.67 545.02,-621.21 541.5,-626.26 524.76,-650.35 522.81,-669.66 541.5,-692.26 555.71,-709.43 596.57,-720.69 641.75,-728.05"/>
<polygon fill="maroon" stroke="maroon" stroke-width="5" points="641.21,-732.4 651.76,-729.61 642.55,-723.75 641.21,-732.4"/>
<text text-anchor="middle" x="672.5" y="-676.26" font-family="Arial" font-size="20.00" fill="maroon">start_next: 03/11/18, 19:26:11</text>
<text text-anchor="middle" x="672.5" y="-654.26" font-family="Arial" font-size="20.00" fill="maroon">gap: &#45;72sec</text>
<text text-anchor="middle" x="672.5" y="-632.26" font-family="Arial" font-size="20.00" fill="maroon">end_prev: 03/11/18, 19:27:23</text>
</g>
<!-- VULNERABILTY DISCOVERY
remoteware&#45;cl&#45;&gt;INFO DISCOVERY
remoteware&#45;cl -->
<g id="edge20" class="edge">
<title>VULNERABILTY DISCOVERY
remoteware&#45;cl&#45;&gt;INFO DISCOVERY
remoteware&#45;cl</title>
<path fill="none" stroke="darkgreen" stroke-width="5" d="M789.31,-613.32C793.48,-617.21 797.26,-621.51 800.5,-626.26 813.03,-644.63 814.7,-668.75 812.57,-690.2"/>
<polygon fill="darkgreen" stroke="darkgreen" stroke-width="5" points="808.23,-689.67 811.3,-700.15 816.91,-690.78 808.23,-689.67"/>
<text text-anchor="middle" x="945" y="-676.26" font-family="Arial" font-size="20.00" fill="darkgreen">start_next: 03/11/18, 18:07:27</text>
<text text-anchor="middle" x="945" y="-654.26" font-family="Arial" font-size="20.00" fill="darkgreen">gap: &#45;563sec</text>
<text text-anchor="middle" x="945" y="-632.26" font-family="Arial" font-size="20.00" fill="darkgreen">end_prev: 03/11/18, 18:16:50</text>
</g>
<!-- ROOT PRIVILEGE ESCALATION
remoteware&#45;cl | ID: &#45;1 -->
<g id="node9" class="node">
<title>ROOT PRIVILEGE ESCALATION
remoteware&#45;cl | ID: &#45;1</title>
<g id="a_node9"><a xlink:title="ET WEB_SERVER ColdFusion administrator access">
<polygon fill="none" stroke="black" stroke-width="3" points="1739,-772.69 1364,-772.69 1364,-712.69 1739,-712.69 1739,-772.69"/>
<text text-anchor="middle" x="1551.5" y="-749.49" font-family="Arial" font-size="24.00">ROOT PRIVILEGE ESCALATION</text>
<text text-anchor="middle" x="1551.5" y="-723.49" font-family="Arial" font-size="24.00">remoteware&#45;cl | ID: &#45;1</text>
</a>
</g>
</g>
<!-- VULNERABILTY DISCOVERY
remoteware&#45;cl&#45;&gt;ROOT PRIVILEGE ESCALATION
remoteware&#45;cl | ID: &#45;1 -->
<g id="edge10" class="edge">
<title>VULNERABILTY DISCOVERY
remoteware&#45;cl&#45;&gt;ROOT PRIVILEGE ESCALATION
remoteware&#45;cl | ID: &#45;1</title>
<path fill="none" stroke="maroon" stroke-width="5" d="M886.96,-595.99C954.84,-603.6 1030.09,-613.62 1098.5,-626.26 1217.86,-648.32 1352.36,-684 1443.58,-709.86"/>
<polygon fill="maroon" stroke="maroon" stroke-width="5" points="1442.56,-714.12 1453.37,-712.64 1444.95,-705.7 1442.56,-714.12"/>
<text text-anchor="middle" x="1511" y="-676.26" font-family="Arial" font-size="20.00" fill="maroon">start_next: 03/11/18, 21:08:24</text>
<text text-anchor="middle" x="1511" y="-654.26" font-family="Arial" font-size="20.00" fill="maroon">gap: &#45;245sec</text>
<text text-anchor="middle" x="1511" y="-632.26" font-family="Arial" font-size="20.00" fill="maroon">end_prev: 03/11/18, 21:12:29</text>
</g>
<!-- INFO DISCOVERY
remoteware&#45;cl&#45;&gt;DATA EXFILTRATION
remoteware&#45;cl | ID: 22 -->
<g id="edge5" class="edge">
<title>INFO DISCOVERY
remoteware&#45;cl&#45;&gt;DATA EXFILTRATION
remoteware&#45;cl | ID: 22</title>
<path fill="none" stroke="maroon" stroke-width="5" d="M802.94,-785.51C805.39,-841.58 806.47,-937.38 787.5,-965.97 759.04,-1008.87 712.07,-1038.14 665.58,-1057.86"/>
<polygon fill="maroon" stroke="maroon" stroke-width="5" points="663.88,-1053.83 656.29,-1061.68 667.2,-1061.92 663.88,-1053.83"/>
<text text-anchor="middle" x="935" y="-940.54" font-family="Arial" font-size="20.00" fill="maroon">start_next: 03/11/18, 19:26:16</text>
<text text-anchor="middle" x="935" y="-918.54" font-family="Arial" font-size="20.00" fill="maroon">gap: &#45;80sec</text>
<text text-anchor="middle" x="935" y="-896.54" font-family="Arial" font-size="20.00" fill="maroon">end_prev: 03/11/18, 19:27:36</text>
</g>
<!-- INFO DISCOVERY
remoteware&#45;cl&#45;&gt;DATA EXFILTRATION
remoteware&#45;cl | ID: 22 -->
<g id="edge21" class="edge">
<title>INFO DISCOVERY
remoteware&#45;cl&#45;&gt;DATA EXFILTRATION
remoteware&#45;cl | ID: 22</title>
<path fill="none" stroke="darkgreen" stroke-width="5" d="M802.67,-785.18C801.74,-814.56 795.02,-852.31 769.5,-873.12 748.31,-890.4 542.53,-861.47 523.5,-881.12 512.82,-892.15 515.89,-977.94 519.43,-1037.7"/>
<polygon fill="darkgreen" stroke="darkgreen" stroke-width="5" points="515.07,-1038.08 520.05,-1047.8 523.8,-1037.55 515.07,-1038.08"/>
<text text-anchor="middle" x="655" y="-940.54" font-family="Arial" font-size="20.00" fill="darkgreen">start_next: 03/11/18, 18:07:28</text>
<text text-anchor="middle" x="655" y="-918.54" font-family="Arial" font-size="20.00" fill="darkgreen">gap: &#45;564sec</text>
<text text-anchor="middle" x="655" y="-896.54" font-family="Arial" font-size="20.00" fill="darkgreen">end_prev: 03/11/18, 18:16:52</text>
</g>
<!-- SURFING
remoteware&#45;cl -->
<g id="node12" class="node">
<title>SURFING
remoteware&#45;cl</title>
<g id="a_node12"><a xlink:title="ET WEB_SERVER WEB&#45;PHP phpinfo access">
<ellipse fill="none" stroke="black" stroke-width="3" cx="1190.5" cy="-923.54" rx="120.42" ry="42.35"/>
<text text-anchor="middle" x="1190.5" y="-930.34" font-family="Arial" font-size="24.00">SURFING</text>
<text text-anchor="middle" x="1190.5" y="-904.34" font-family="Arial" font-size="24.00">remoteware&#45;cl</text>
</a>
</g>
</g>
<!-- INFO DISCOVERY
remoteware&#45;cl&#45;&gt;SURFING
remoteware&#45;cl -->
<g id="edge22" class="edge">
<title>INFO DISCOVERY
remoteware&#45;cl&#45;&gt;SURFING
remoteware&#45;cl</title>
<path fill="none" stroke="magenta" stroke-width="5" d="M805.62,-785.11C810.36,-821.84 817.15,-870.15 820.5,-873.12 830.66,-882.11 1051.15,-878.75 1064.5,-881.12 1076.02,-883.16 1087.92,-886.01 1099.61,-889.29"/>
<polygon fill="magenta" stroke="magenta" stroke-width="5" points="1098.54,-893.53 1109.36,-892.13 1100.98,-885.13 1098.54,-893.53"/>
<text text-anchor="start" x="820.5" y="-858.12" font-family="Arial" font-size="20.00" fill="magenta"> start_next: 03/11/18, 15:45:39</text>
<text text-anchor="start" x="896.5" y="-838.12" font-family="Arial" font-size="20.00" fill="magenta">gap: &#45;717sec</text>
<text text-anchor="start" x="824.5" y="-818.12" font-family="Arial" font-size="20.00" fill="magenta">end_prev: 03/11/18, 15:57:35</text>
<text text-anchor="start" x="849.5" y="-798.12" font-family="Arial" font-weight="bold" font-size="20.00" fill="magenta">Attacker: 10.0.254.203</text>
</g>
<!-- SERVICE DISCOVERY
unknown&#45;&gt;VULNERABILTY DISCOVERY
mysql -->
<g id="edge7" class="edge">
<title>SERVICE DISCOVERY
unknown&#45;&gt;VULNERABILTY DISCOVERY
mysql</title>
<path fill="none" stroke="maroon" stroke-width="5" d="M591.29,-181.43C589.82,-178.63 588.54,-175.77 587.5,-172.85 581.57,-156.09 577.29,-107.4 587.5,-92.85 589.09,-90.59 590.8,-88.43 592.6,-86.37"/>
<polygon fill="maroon" stroke="maroon" stroke-width="5" points="596.09,-89.07 600.04,-78.89 589.89,-82.89 596.09,-89.07"/>
<text text-anchor="middle" x="719" y="-149.85" font-family="Arial" font-size="20.00" fill="maroon">start_next: 03/11/18, 20:53:37</text>
<text text-anchor="middle" x="719" y="-127.85" font-family="Arial" font-size="20.00" fill="maroon">gap: 10038sec</text>
<text text-anchor="middle" x="719" y="-105.85" font-family="Arial" font-size="20.00" fill="maroon">end_prev: 03/11/18, 18:06:19</text>
</g>
<!-- HOST DISCOVERY
remoteware&#45;cl -->
<g id="node11" class="node">
<title>HOST DISCOVERY
remoteware&#45;cl</title>
<g id="a_node11"><a xlink:title="ET SCAN Nmap Scripting Engine User&#45;Agent Detected (Nmap Scripting Engine)&#10;ET SCAN Possible Nmap User&#45;Agent Observed">
<ellipse fill="none" stroke="black" stroke-width="3" cx="675.5" cy="-408.98" rx="162.77" ry="42.35"/>
<text text-anchor="middle" x="675.5" y="-415.78" font-family="Arial" font-size="24.00">HOST DISCOVERY</text>
<text text-anchor="middle" x="675.5" y="-389.78" font-family="Arial" font-size="24.00">remoteware&#45;cl</text>
</a>
</g>
</g>
<!-- SERVICE DISCOVERY
unknown&#45;&gt;HOST DISCOVERY
remoteware&#45;cl -->
<g id="edge14" class="edge">
<title>SERVICE DISCOVERY
unknown&#45;&gt;HOST DISCOVERY
remoteware&#45;cl</title>
<path fill="none" stroke="darkgreen" stroke-width="5" d="M480.85,-250.34C460.2,-256.81 443.58,-264.56 436.5,-273.71 413.42,-303.53 412.67,-329.34 436.5,-358.56 447.69,-372.27 458.17,-362.99 475.5,-366.56 496.36,-370.86 518.44,-375.42 540.01,-379.88"/>
<polygon fill="darkgreen" stroke="darkgreen" stroke-width="5" points="539.21,-384.18 549.89,-381.93 540.98,-375.62 539.21,-384.18"/>
<text text-anchor="middle" x="568" y="-333.13" font-family="Arial" font-size="20.00" fill="darkgreen">start_next: 03/11/18, 15:01:05</text>
<text text-anchor="middle" x="568" y="-311.13" font-family="Arial" font-size="20.00" fill="darkgreen">gap: 194sec</text>
<text text-anchor="middle" x="568" y="-289.13" font-family="Arial" font-size="20.00" fill="darkgreen">end_prev: 03/11/18, 14:57:51</text>
</g>
<!-- SERVICE DISCOVERY
unknown&#45;&gt;HOST DISCOVERY
remoteware&#45;cl -->
<g id="edge18" class="edge">
<title>SERVICE DISCOVERY
unknown&#45;&gt;HOST DISCOVERY
remoteware&#45;cl</title>
<path fill="none" stroke="darkgreen" stroke-width="5" d="M690,-263.68C692.48,-266.82 694.69,-270.17 696.5,-273.71 709.6,-299.2 705.54,-330.74 697.66,-356.84"/>
<polygon fill="darkgreen" stroke="darkgreen" stroke-width="5" points="693.43,-355.69 694.48,-366.55 701.75,-358.41 693.43,-355.69"/>
<text text-anchor="middle" x="837" y="-333.13" font-family="Arial" font-size="20.00" fill="darkgreen">start_next: 03/11/18, 17:59:39</text>
<text text-anchor="middle" x="837" y="-311.13" font-family="Arial" font-size="20.00" fill="darkgreen">gap: 938sec</text>
<text text-anchor="middle" x="837" y="-289.13" font-family="Arial" font-size="20.00" fill="darkgreen">end_prev: 03/11/18, 17:44:01</text>
</g>
<!-- SERVICE DISCOVERY
ssh&#45;&gt;VULNERABILTY DISCOVERY
remoteware&#45;cl -->
<g id="edge9" class="edge">
<title>SERVICE DISCOVERY
ssh&#45;&gt;VULNERABILTY DISCOVERY
remoteware&#45;cl</title>
<path fill="none" stroke="maroon" stroke-width="5" d="M1355.43,-357.28C1295.44,-405.99 1186.53,-486.4 1078.5,-525.41 1027.75,-543.74 971.32,-555.53 917.12,-563.06"/>
<polygon fill="maroon" stroke="maroon" stroke-width="5" points="916.36,-558.74 907.03,-564.41 917.52,-567.42 916.36,-558.74"/>
<text text-anchor="middle" x="1474" y="-425.98" font-family="Arial" font-size="20.00" fill="maroon">start_next: 03/11/18, 21:03:29</text>
<text text-anchor="middle" x="1474" y="-403.98" font-family="Arial" font-size="20.00" fill="maroon">gap: 455sec</text>
<text text-anchor="middle" x="1474" y="-381.98" font-family="Arial" font-size="20.00" fill="maroon">end_prev: 03/11/18, 20:55:54</text>
</g>
<!-- USER PRIVILEGE ESCALATION
remoteware&#45;cl | ID: &#45;1 -->
<g id="node10" class="node">
<title>USER PRIVILEGE ESCALATION
remoteware&#45;cl | ID: &#45;1</title>
<g id="a_node10"><a xlink:title="ET POLICY Outgoing Basic Auth Base64 HTTP Password detected unencrypted&#10;ET POLICY Incoming Basic Auth Base64 HTTP Password detected unencrypted&#10;ET WEB_SPECIFIC_APPS Microhard Systems 3G/4G Cellular Ethernet and Serial Gateway &#45; Default Credentials">
<polygon fill="none" stroke="black" stroke-width="3" points="1701.5,-953.54 1329.5,-953.54 1329.5,-893.54 1701.5,-893.54 1701.5,-953.54"/>
<text text-anchor="middle" x="1515.5" y="-930.34" font-family="Arial" font-size="24.00">USER PRIVILEGE ESCALATION</text>
<text text-anchor="middle" x="1515.5" y="-904.34" font-family="Arial" font-size="24.00">remoteware&#45;cl | ID: &#45;1</text>
</a>
</g>
</g>
<!-- ROOT PRIVILEGE ESCALATION
remoteware&#45;cl | ID: &#45;1&#45;&gt;USER PRIVILEGE ESCALATION
remoteware&#45;cl | ID: &#45;1 -->
<g id="edge11" class="edge">
<title>ROOT PRIVILEGE ESCALATION
remoteware&#45;cl | ID: &#45;1&#45;&gt;USER PRIVILEGE ESCALATION
remoteware&#45;cl | ID: &#45;1</title>
<path fill="none" stroke="maroon" stroke-width="5" d="M1545.64,-772.82C1539.57,-802.97 1530.06,-850.21 1523.35,-883.55"/>
<polygon fill="maroon" stroke="maroon" stroke-width="5" points="1519.05,-882.76 1521.37,-893.42 1527.63,-884.48 1519.05,-882.76"/>
<text text-anchor="middle" x="1672" y="-850.12" font-family="Arial" font-size="20.00" fill="maroon">start_next: 03/11/18, 21:08:26</text>
<text text-anchor="middle" x="1672" y="-828.12" font-family="Arial" font-size="20.00" fill="maroon">gap: 2sec</text>
<text text-anchor="middle" x="1672" y="-806.12" font-family="Arial" font-size="20.00" fill="maroon">end_prev: 03/11/18, 21:08:24</text>
</g>
<!-- USER PRIVILEGE ESCALATION
remoteware&#45;cl | ID: &#45;1&#45;&gt;DATA EXFILTRATION
remoteware&#45;cl | ID: 22 -->
<g id="edge12" class="edge">
<title>USER PRIVILEGE ESCALATION
remoteware&#45;cl | ID: &#45;1&#45;&gt;DATA EXFILTRATION
remoteware&#45;cl | ID: 22</title>
<path fill="none" stroke="maroon" stroke-width="5" d="M1378.33,-953.58C1356.99,-957.88 1335.17,-962.14 1314.5,-965.97 1098.87,-1005.89 849.01,-1045.92 688.75,-1070.79"/>
<polygon fill="maroon" stroke="maroon" stroke-width="5" points="688.01,-1066.48 678.8,-1072.34 689.35,-1075.13 688.01,-1066.48"/>
<text text-anchor="middle" x="1382" y="-1023.97" font-family="Arial" font-size="20.00" fill="maroon">start_next: 03/11/18, 21:09:29</text>
<text text-anchor="middle" x="1382" y="-1001.97" font-family="Arial" font-size="20.00" fill="maroon">gap: 42sec</text>
<text text-anchor="middle" x="1382" y="-979.97" font-family="Arial" font-size="20.00" fill="maroon">end_prev: 03/11/18, 21:08:47</text>
</g>
<!-- HOST DISCOVERY
remoteware&#45;cl&#45;&gt;VULNERABILTY DISCOVERY
remoteware&#45;cl -->
<g id="edge15" class="edge">
<title>HOST DISCOVERY
remoteware&#45;cl&#45;&gt;VULNERABILTY DISCOVERY
remoteware&#45;cl</title>
<path fill="none" stroke="darkgreen" stroke-width="5" d="M561.51,-439.43C553.81,-444.99 546.96,-451.58 541.5,-459.41 524.73,-483.48 524.76,-501.33 541.5,-525.41 543.04,-527.62 544.69,-529.74 546.44,-531.76"/>
<polygon fill="darkgreen" stroke="darkgreen" stroke-width="5" points="543.52,-535.02 553.65,-539.08 549.76,-528.89 543.52,-535.02"/>
<text text-anchor="middle" x="673" y="-509.41" font-family="Arial" font-size="20.00" fill="darkgreen">start_next: 03/11/18, 15:05:40</text>
<text text-anchor="middle" x="673" y="-487.41" font-family="Arial" font-size="20.00" fill="darkgreen">gap: 275sec</text>
<text text-anchor="middle" x="673" y="-465.41" font-family="Arial" font-size="20.00" fill="darkgreen">end_prev: 03/11/18, 15:01:05</text>
</g>
<!-- HOST DISCOVERY
remoteware&#45;cl&#45;&gt;VULNERABILTY DISCOVERY
remoteware&#45;cl -->
<g id="edge19" class="edge">
<title>HOST DISCOVERY
remoteware&#45;cl&#45;&gt;VULNERABILTY DISCOVERY
remoteware&#45;cl</title>
<path fill="none" stroke="darkgreen" stroke-width="5" d="M783.62,-440.84C790.49,-446.09 796.61,-452.23 801.5,-459.41 818.03,-483.65 818.06,-501.2 801.5,-525.41 800.18,-527.36 798.76,-529.22 797.26,-531.02"/>
<polygon fill="darkgreen" stroke="darkgreen" stroke-width="5" points="793.94,-528.16 790.21,-538.42 800.27,-534.19 793.94,-528.16"/>
<text text-anchor="middle" x="946" y="-509.41" font-family="Arial" font-size="20.00" fill="darkgreen">start_next: 03/11/18, 18:07:26</text>
<text text-anchor="middle" x="946" y="-487.41" font-family="Arial" font-size="20.00" fill="darkgreen">gap: 467sec</text>
<text text-anchor="middle" x="946" y="-465.41" font-family="Arial" font-size="20.00" fill="darkgreen">end_prev: 03/11/18, 17:59:40</text>
</g>
<!-- SURFING
remoteware&#45;cl&#45;&gt;VULNERABILTY DISCOVERY
remoteware&#45;cl -->
<g id="edge23" class="edge">
<title>SURFING
remoteware&#45;cl&#45;&gt;VULNERABILTY DISCOVERY
remoteware&#45;cl</title>
<path fill="none" stroke="magenta" stroke-width="5" d="M1156.08,-882.69C1135.58,-856.67 1111.01,-820.97 1097.5,-785.12 1072.43,-718.52 1127.9,-676.5 1077.5,-626.26 1063.86,-612.67 988.4,-601.67 906.39,-593.53"/>
<polygon fill="magenta" stroke="magenta" stroke-width="5" points="906.74,-589.17 896.36,-592.55 905.89,-597.88 906.74,-589.17"/>
<text text-anchor="middle" x="1229" y="-759.69" font-family="Arial" font-size="20.00" fill="magenta">start_next: 03/11/18, 15:48:19</text>
<text text-anchor="middle" x="1229" y="-737.69" font-family="Arial" font-size="20.00" fill="magenta">gap: &#45;540sec</text>
<text text-anchor="middle" x="1229" y="-715.69" font-family="Arial" font-size="20.00" fill="magenta">end_prev: 03/11/18, 15:57:18</text>
</g>
</g>
</svg>
