<?xml version="1.0" encoding="UTF-8" standalone="no"?>
<!DOCTYPE svg PUBLIC "-//W3C//DTD SVG 1.1//EN"
 "http://www.w3.org/Graphics/SVG/1.1/DTD/svg11.dtd">
<!-- Generated by graphviz version 2.50.0 (0)
 -->
<!-- Title: NETWORKDOShttp Pages: 1 -->
<svg width="4026pt" height="1384pt"
 viewBox="0.00 0.00 4025.78 1383.87" xmlns="http://www.w3.org/2000/svg" xmlns:xlink="http://www.w3.org/1999/xlink">
<g id="graph0" class="graph" transform="scale(1 1) rotate(0) translate(4 1379.87)">
<title>NETWORKDOShttp</title>
<polygon fill="white" stroke="transparent" points="-4,4 -4,-1379.87 4021.78,-1379.87 4021.78,4 -4,4"/>
<!-- Victim: 10.0.1.46
NETWORK DoS
http -->
<g id="node1" class="node">
<title>Victim: 10.0.1.46
NETWORK DoS
http</title>
<polygon fill="salmon" stroke="black" stroke-width="3" points="305.34,-1278.85 305.34,-1333.24 217.14,-1371.7 92.41,-1371.7 4.22,-1333.24 4.22,-1278.85 92.41,-1240.39 217.14,-1240.39 305.34,-1278.85"/>
<polygon fill="none" stroke="black" stroke-width="3" points="309.33,-1276.24 309.33,-1335.85 217.98,-1375.69 91.58,-1375.69 0.22,-1335.85 0.22,-1276.24 91.58,-1236.4 217.98,-1236.4 309.33,-1276.24"/>
<text text-anchor="middle" x="154.78" y="-1325.84" font-family="Arial" font-size="24.00">Victim: 10.0.1.46</text>
<text text-anchor="middle" x="154.78" y="-1299.84" font-family="Arial" font-size="24.00">NETWORK DoS</text>
<text text-anchor="middle" x="154.78" y="-1273.84" font-family="Arial" font-size="24.00">http</text>
</g>
<!-- NETWORK DoS
http | ID: 5 -->
<g id="node2" class="node">
<title>NETWORK DoS
http | ID: 5</title>
<g id="a_node2"><a xlink:title="ET WEB_SERVER Possible Cherokee Web Server GET AUX Request Denial Of Service Attempt">
<polygon fill="salmon" stroke="black" stroke-width="3" points="1382.31,-396.7 1304.04,-445.68 1147.51,-445.68 1069.24,-396.7 1147.51,-347.72 1304.04,-347.72 1382.31,-396.7"/>
<text text-anchor="middle" x="1225.78" y="-403.5" font-family="Arial" font-size="24.00">NETWORK DoS</text>
<text text-anchor="middle" x="1225.78" y="-377.5" font-family="Arial" font-size="24.00">http | ID: 5</text>
</a>
</g>
</g>
<!-- NETWORK DoS
http | ID: 5&#45;&gt;Victim: 10.0.1.46
NETWORK DoS
http -->
<g id="edge1" class="edge">
<title>NETWORK DoS
http | ID: 5&#45;&gt;Victim: 10.0.1.46
NETWORK DoS
http</title>
<path fill="none" stroke="black" stroke-width="5" d="M1075.98,-400.95C795.25,-407.71 215.11,-425.07 181.78,-453.69 137.19,-491.96 154.78,-524.35 154.78,-583.11 154.78,-583.11 154.78,-583.11 154.78,-1112.8 154.78,-1150.01 154.78,-1191.27 154.78,-1226"/>
<polygon fill="black" stroke="black" stroke-width="5" points="150.4,-1226.09 154.78,-1236.09 159.15,-1226.09 150.4,-1226.09"/>
</g>
<!-- VULNERABILTY DISCOVERY
mysql -->
<g id="node3" class="node">
<title>VULNERABILTY DISCOVERY
mysql</title>
<g id="a_node3"><a xlink:title="ET SCAN Suspicious inbound to mySQL port 3306&#10;ET SCAN Suspicious inbound to MSSQL port 1433&#10;ET SCAN Nmap Scripting Engine User&#45;Agent Detected (Nmap NSE)&#10;ET SCAN Suspicious inbound to PostgreSQL port 5432&#10;ET SCAN Suspicious inbound to Oracle SQL port 1521&#10;ET SCAN Suspicious inbound to mSQL port 4333">
<ellipse fill="yellow" stroke="black" stroke-width="3" cx="1630.78" cy="-396.7" rx="241.25" ry="42.35"/>
<text text-anchor="middle" x="1630.78" y="-403.5" font-family="Arial" font-size="24.00">VULNERABILTY DISCOVERY</text>
<text text-anchor="middle" x="1630.78" y="-377.5" font-family="Arial" font-size="24.00">mysql</text>
</a>
</g>
</g>
<!-- SERVICE DISCOVERY
dsd -->
<g id="node4" class="node">
<title>SERVICE DISCOVERY
dsd</title>
<g id="a_node4"><a xlink:title="ET SCAN Potential VNC Scan 5900&#45;5920&#10;ET SCAN NMAP SIP Version Detection Script Activity&#10;ET SCAN Potential VNC Scan 5800&#45;5820">
<ellipse fill="none" stroke="black" stroke-width="3" cx="697.78" cy="-584.11" rx="189.51" ry="42.35"/>
<text text-anchor="middle" x="697.78" y="-590.91" font-family="Arial" font-size="24.00">SERVICE DISCOVERY</text>
<text text-anchor="middle" x="697.78" y="-564.91" font-family="Arial" font-size="24.00">dsd</text>
</a>
</g>
</g>
<!-- VULNERABILTY DISCOVERY
mysql&#45;&gt;SERVICE DISCOVERY
dsd -->
<g id="edge2" class="edge">
<title>VULNERABILTY DISCOVERY
mysql&#45;&gt;SERVICE DISCOVERY
dsd</title>
<path fill="none" stroke="maroon" stroke-width="5" d="M1486.02,-430.64C1453.23,-436.82 1418.44,-442.37 1385.78,-445.69 1373.12,-446.97 478.73,-444.65 469.78,-453.69 457.26,-466.31 458.62,-519.85 469.78,-533.69 478.54,-544.55 499.12,-553.15 524.52,-559.92"/>
<polygon fill="maroon" stroke="maroon" stroke-width="5" points="523.71,-564.22 534.47,-562.42 525.84,-555.74 523.71,-564.22"/>
<text text-anchor="start" x="469.78" y="-518.69" font-family="Arial" font-size="20.00" fill="maroon"> start_next: 03/11/18, 14:01:08</text>
<text text-anchor="start" x="560.28" y="-498.69" font-family="Arial" font-size="20.00" fill="maroon">gap: 0sec</text>
<text text-anchor="start" x="473.78" y="-478.69" font-family="Arial" font-size="20.00" fill="maroon">end_prev: 03/11/18, 14:01:09</text>
<text text-anchor="start" x="498.78" y="-458.69" font-family="Arial" font-weight="bold" font-size="20.00" fill="maroon">Attacker: 10.0.254.205</text>
</g>
<!-- SERVICE DISCOVERY
unknown -->
<g id="node5" class="node">
<title>SERVICE DISCOVERY
unknown</title>
<g id="a_node5"><a xlink:title="ET SCAN Potential VNC Scan 5800&#45;5820&#10;ET SCAN NMAP SIP Version Detection Script Activity&#10;ET SCAN Potential SSH Scan&#10;ET SCAN Potential VNC Scan 5900&#45;5920&#10;ET SCAN NMAP OS Detection Probe">
<ellipse fill="none" stroke="black" stroke-width="3" cx="2693.78" cy="-584.11" rx="189.51" ry="42.35"/>
<text text-anchor="middle" x="2693.78" y="-590.91" font-family="Arial" font-size="24.00">SERVICE DISCOVERY</text>
<text text-anchor="middle" x="2693.78" y="-564.91" font-family="Arial" font-size="24.00">unknown</text>
</a>
</g>
</g>
<!-- VULNERABILTY DISCOVERY
mysql&#45;&gt;SERVICE DISCOVERY
unknown -->
<g id="edge4" class="edge">
<title>VULNERABILTY DISCOVERY
mysql&#45;&gt;SERVICE DISCOVERY
unknown</title>
<path fill="none" stroke="maroon" stroke-width="5" d="M1871.15,-400.95C2078.8,-406.1 2351.42,-419.39 2389.78,-453.69 2416.75,-477.8 2378.99,-508.31 2404.78,-533.69 2420.92,-549.57 2460.75,-560.38 2505.85,-567.73"/>
<polygon fill="maroon" stroke="maroon" stroke-width="5" points="2505.3,-572.07 2515.85,-569.29 2506.65,-563.43 2505.3,-572.07"/>
<text text-anchor="middle" x="2536.28" y="-510.69" font-family="Arial" font-size="20.00" fill="maroon">start_next: 03/11/18, 14:18:41</text>
<text text-anchor="middle" x="2536.28" y="-488.69" font-family="Arial" font-size="20.00" fill="maroon">gap: &#45;172sec</text>
<text text-anchor="middle" x="2536.28" y="-466.69" font-family="Arial" font-size="20.00" fill="maroon">end_prev: 03/11/18, 14:21:33</text>
</g>
<!-- VULNERABILTY DISCOVERY
mysql&#45;&gt;SERVICE DISCOVERY
unknown -->
<g id="edge9" class="edge">
<title>VULNERABILTY DISCOVERY
mysql&#45;&gt;SERVICE DISCOVERY
unknown</title>
<path fill="none" stroke="maroon" stroke-width="5" d="M1869.16,-403.24C2165.23,-411.2 2635.28,-427.83 2664.78,-453.69 2689.75,-475.58 2674.54,-495.01 2679.8,-531.46"/>
<polygon fill="maroon" stroke="maroon" stroke-width="5" points="2675.57,-532.65 2681.74,-541.65 2684.17,-531.01 2675.57,-532.65"/>
<text text-anchor="middle" x="2811.28" y="-510.69" font-family="Arial" font-size="20.00" fill="maroon">start_next: 03/11/18, 14:35:08</text>
<text text-anchor="middle" x="2811.28" y="-488.69" font-family="Arial" font-size="20.00" fill="maroon">gap: &#45;171sec</text>
<text text-anchor="middle" x="2811.28" y="-466.69" font-family="Arial" font-size="20.00" fill="maroon">end_prev: 03/11/18, 14:37:59</text>
</g>
<!-- VULNERABILTY DISCOVERY
mysql&#45;&gt;SERVICE DISCOVERY
unknown -->
<g id="edge17" class="edge">
<title>VULNERABILTY DISCOVERY
mysql&#45;&gt;SERVICE DISCOVERY
unknown</title>
<path fill="none" stroke="orange" stroke-width="5" d="M1587.85,-438.53C1584.61,-443.33 1581.82,-448.41 1579.78,-453.69 1566.94,-486.84 1555.2,-507.99 1579.78,-533.69 1610.83,-566.14 2182.46,-577.52 2494.47,-581.32"/>
<polygon fill="orange" stroke="orange" stroke-width="5" points="2494.48,-585.69 2504.54,-581.44 2494.59,-576.94 2494.48,-585.69"/>
<text text-anchor="middle" x="1711.28" y="-510.69" font-family="Arial" font-size="20.00" fill="orange">start_next: 03/11/18, 15:55:13</text>
<text text-anchor="middle" x="1711.28" y="-488.69" font-family="Arial" font-size="20.00" fill="orange">gap: &#45;58sec</text>
<text text-anchor="middle" x="1711.28" y="-466.69" font-family="Arial" font-size="20.00" fill="orange">end_prev: 03/11/18, 15:56:12</text>
</g>
<!-- VULNERABILTY DISCOVERY
mysql&#45;&gt;SERVICE DISCOVERY
unknown -->
<g id="edge24" class="edge">
<title>VULNERABILTY DISCOVERY
mysql&#45;&gt;SERVICE DISCOVERY
unknown</title>
<path fill="none" stroke="blue" stroke-width="5" d="M1789.33,-428.77C1812.28,-435.97 1831.1,-444.32 1839.78,-453.69 1864.36,-480.22 1827.63,-509.77 1854.78,-533.69 1901.62,-574.95 2260.81,-583.13 2493.78,-584.02"/>
<polygon fill="blue" stroke="blue" stroke-width="5" points="2494.07,-588.4 2504.09,-584.06 2494.1,-579.65 2494.07,-588.4"/>
<text text-anchor="middle" x="1986.28" y="-510.69" font-family="Arial" font-size="20.00" fill="blue">start_next: 03/11/18, 17:33:03</text>
<text text-anchor="middle" x="1986.28" y="-488.69" font-family="Arial" font-size="20.00" fill="blue">gap: 0sec</text>
<text text-anchor="middle" x="1986.28" y="-466.69" font-family="Arial" font-size="20.00" fill="blue">end_prev: 03/11/18, 17:33:03</text>
</g>
<!-- VULNERABILTY DISCOVERY
mysql&#45;&gt;SERVICE DISCOVERY
unknown -->
<g id="edge34" class="edge">
<title>VULNERABILTY DISCOVERY
mysql&#45;&gt;SERVICE DISCOVERY
unknown</title>
<path fill="none" stroke="magenta" stroke-width="5" d="M1857.25,-411.41C1973.72,-420.67 2095.38,-434.7 2114.78,-453.69 2140.43,-478.79 2099.77,-508.95 2125.78,-533.69 2152.66,-559.26 2342.95,-571.83 2495.98,-577.86"/>
<polygon fill="magenta" stroke="magenta" stroke-width="5" points="2495.84,-582.23 2506,-578.25 2496.18,-573.49 2495.84,-582.23"/>
<text text-anchor="middle" x="2257.28" y="-510.69" font-family="Arial" font-size="20.00" fill="magenta">start_next: 03/11/18, 14:54:32</text>
<text text-anchor="middle" x="2257.28" y="-488.69" font-family="Arial" font-size="20.00" fill="magenta">gap: &#45;68sec</text>
<text text-anchor="middle" x="2257.28" y="-466.69" font-family="Arial" font-size="20.00" fill="magenta">end_prev: 03/11/18, 14:55:40</text>
</g>
<!-- SERVICE DISCOVERY
ag&#45;swim -->
<g id="node17" class="node">
<title>SERVICE DISCOVERY
ag&#45;swim</title>
<g id="a_node17"><a xlink:title="ET SCAN Potential VNC Scan 5900&#45;5920&#10;ET SCAN Potential VNC Scan 5800&#45;5820">
<ellipse fill="none" stroke="black" stroke-width="3" cx="1191.78" cy="-584.11" rx="189.51" ry="42.35"/>
<text text-anchor="middle" x="1191.78" y="-590.91" font-family="Arial" font-size="24.00">SERVICE DISCOVERY</text>
<text text-anchor="middle" x="1191.78" y="-564.91" font-family="Arial" font-size="24.00">ag&#45;swim</text>
</a>
</g>
</g>
<!-- VULNERABILTY DISCOVERY
mysql&#45;&gt;SERVICE DISCOVERY
ag&#45;swim -->
<g id="edge32" class="edge">
<title>VULNERABILTY DISCOVERY
mysql&#45;&gt;SERVICE DISCOVERY
ag&#45;swim</title>
<path fill="none" stroke="magenta" stroke-width="5" d="M1485.01,-430.5C1452.51,-436.62 1418.1,-442.19 1385.78,-445.69 1375.81,-446.76 1031.79,-446.51 1024.78,-453.69 1012.35,-466.39 1014.14,-519.44 1024.78,-533.69 1029.17,-539.56 1037.89,-544.99 1049.16,-549.92"/>
<polygon fill="magenta" stroke="magenta" stroke-width="5" points="1047.78,-554.09 1058.7,-553.77 1051.06,-545.97 1047.78,-554.09"/>
<text text-anchor="start" x="1024.78" y="-518.69" font-family="Arial" font-size="20.00" fill="magenta"> start_next: 03/11/18, 14:42:06</text>
<text text-anchor="start" x="1106.28" y="-498.69" font-family="Arial" font-size="20.00" fill="magenta">gap: &#45;32sec</text>
<text text-anchor="start" x="1028.78" y="-478.69" font-family="Arial" font-size="20.00" fill="magenta">end_prev: 03/11/18, 14:42:38</text>
<text text-anchor="start" x="1053.78" y="-458.69" font-family="Arial" font-weight="bold" font-size="20.00" fill="magenta">Attacker: 10.0.254.206</text>
</g>
<!-- SERVICE DISCOVERY
dsd&#45;&gt;VULNERABILTY DISCOVERY
mysql -->
<g id="edge3" class="edge">
<title>SERVICE DISCOVERY
dsd&#45;&gt;VULNERABILTY DISCOVERY
mysql</title>
<path fill="none" stroke="maroon" stroke-width="5" d="M730.39,-542.1C731.99,-539.33 733.48,-536.51 734.78,-533.69 750.03,-500.59 724.46,-476.63 752.78,-453.69 766.44,-442.61 1368.29,-447.49 1385.78,-445.69 1415.02,-442.66 1445.97,-437.87 1475.66,-432.46"/>
<polygon fill="maroon" stroke="maroon" stroke-width="5" points="1476.65,-436.73 1485.68,-430.61 1475.05,-428.13 1476.65,-436.73"/>
<text text-anchor="middle" x="884.28" y="-510.69" font-family="Arial" font-size="20.00" fill="maroon">start_next: 03/11/18, 14:18:41</text>
<text text-anchor="middle" x="884.28" y="-488.69" font-family="Arial" font-size="20.00" fill="maroon">gap: 951sec</text>
<text text-anchor="middle" x="884.28" y="-466.69" font-family="Arial" font-size="20.00" fill="maroon">end_prev: 03/11/18, 14:02:50</text>
</g>
<!-- HOST DISCOVERY
us&#45;cli -->
<g id="node6" class="node">
<title>HOST DISCOVERY
us&#45;cli</title>
<g id="a_node6"><a xlink:title="ET SCAN Nmap Scripting Engine User&#45;Agent Detected (Nmap Scripting Engine)&#10;ET SCAN Possible Nmap User&#45;Agent Observed">
<ellipse fill="none" stroke="black" stroke-width="3" cx="2165.78" cy="-750.96" rx="162.77" ry="42.35"/>
<text text-anchor="middle" x="2165.78" y="-757.76" font-family="Arial" font-size="24.00">HOST DISCOVERY</text>
<text text-anchor="middle" x="2165.78" y="-731.76" font-family="Arial" font-size="24.00">us&#45;cli</text>
</a>
</g>
</g>
<!-- SERVICE DISCOVERY
unknown&#45;&gt;HOST DISCOVERY
us&#45;cli -->
<g id="edge5" class="edge">
<title>SERVICE DISCOVERY
unknown&#45;&gt;HOST DISCOVERY
us&#45;cli</title>
<path fill="none" stroke="maroon" stroke-width="5" d="M2543.48,-609.99C2510.65,-616.8 2476.31,-624.99 2444.78,-634.54 2378.38,-654.65 2306.07,-684.81 2251.71,-709.26"/>
<polygon fill="maroon" stroke="maroon" stroke-width="5" points="2249.76,-705.34 2242.45,-713.45 2253.37,-713.31 2249.76,-705.34"/>
<text text-anchor="middle" x="2576.28" y="-684.54" font-family="Arial" font-size="20.00" fill="maroon">start_next: 03/11/18, 14:21:26</text>
<text text-anchor="middle" x="2576.28" y="-662.54" font-family="Arial" font-size="20.00" fill="maroon">gap: 2sec</text>
<text text-anchor="middle" x="2576.28" y="-640.54" font-family="Arial" font-size="20.00" fill="maroon">end_prev: 03/11/18, 14:21:24</text>
</g>
<!-- HOST DISCOVERY
http -->
<g id="node9" class="node">
<title>HOST DISCOVERY
http</title>
<g id="a_node9"><a xlink:title="ET SCAN Nmap Scripting Engine User&#45;Agent Detected (Nmap Scripting Engine)&#10;ET SCAN Possible Nmap User&#45;Agent Observed">
<ellipse fill="none" stroke="black" stroke-width="3" cx="3446.78" cy="-750.96" rx="162.77" ry="42.35"/>
<text text-anchor="middle" x="3446.78" y="-757.76" font-family="Arial" font-size="24.00">HOST DISCOVERY</text>
<text text-anchor="middle" x="3446.78" y="-731.76" font-family="Arial" font-size="24.00">http</text>
</a>
</g>
</g>
<!-- SERVICE DISCOVERY
unknown&#45;&gt;HOST DISCOVERY
http -->
<g id="edge10" class="edge">
<title>SERVICE DISCOVERY
unknown&#45;&gt;HOST DISCOVERY
http</title>
<path fill="none" stroke="maroon" stroke-width="5" d="M2825.4,-614.69C2930.48,-638.21 3081.5,-671.83 3213.78,-700.54 3245.55,-707.43 3279.78,-714.76 3311.96,-721.59"/>
<polygon fill="maroon" stroke="maroon" stroke-width="5" points="3311.19,-725.9 3321.88,-723.7 3313.01,-717.34 3311.19,-725.9"/>
<text text-anchor="middle" x="3345.28" y="-684.54" font-family="Arial" font-size="20.00" fill="maroon">start_next: 03/11/18, 14:37:53</text>
<text text-anchor="middle" x="3345.28" y="-662.54" font-family="Arial" font-size="20.00" fill="maroon">gap: 2sec</text>
<text text-anchor="middle" x="3345.28" y="-640.54" font-family="Arial" font-size="20.00" fill="maroon">end_prev: 03/11/18, 14:37:51</text>
</g>
<!-- INFO DISCOVERY
http -->
<g id="node10" class="node">
<title>INFO DISCOVERY
http</title>
<g id="a_node10"><a xlink:title="GPL WEB_SERVER viewcode access&#10;GPL WEB_SERVER .htaccess access&#10;GPL WEB_SERVER writeto.cnf access&#10;GPL WEB_SERVER iisadmin access&#10;ET WEB_SERVER PHP Easteregg Information&#45;Disclosure (funny&#45;logo)&#10;ET WEB_SPECIFIC_APPS Request to Wordpress W3TC Plug&#45;in dbcache Directory&#10;GPL WEB_SERVER services.cnf access&#10;ET WEB_SERVER PHP Easteregg Information&#45;Disclosure (zend&#45;logo)&#10;GPL EXPLOIT unicode directory traversal attempt&#10;ET WEB_SERVER PHP Easteregg Information&#45;Disclosure (php&#45;logo)&#10;GPL WEB_SERVER service.cnf access&#10;GPL EXPLOIT iisadmpwd attempt&#10;ET WEB_SERVER PHP SESSION SuperGlobal in URI&#10;GPL WEB_SERVER /~root access&#10;GPL WEB_SERVER authors.pwd access&#10;ET WEB_SERVER PHP ENV SuperGlobal in URI&#10;GPL EXPLOIT .cnf access&#10;GPL WEB_SERVER .htpasswd access&#10;ET POLICY Proxy TRACE Request &#45; inbound&#10;GPL WEB_SERVER global.asa access&#10;ET WEB_SERVER PHP SERVER SuperGlobal in URI&#10;GPL EXPLOIT fpcount access&#10;GPL WEB_SERVER globals.pl access&#10;GPL WEB_SERVER 403 Forbidden&#10;GPL WEB_SERVER service.pwd&#10;GPL EXPLOIT ISAPI .idq attempt&#10;ET WEB_SERVER PHP Easteregg Information&#45;Disclosure (phpinfo)&#10;GPL WEB_SERVER printenv access&#10;GPL WEB_SERVER author.exe access&#10;GPL EXPLOIT iissamples access&#10;GPL EXPLOIT .htr access&#10;ET WEB_SERVER PHP REQUEST SuperGlobal in URI">
<ellipse fill="yellow" stroke="black" stroke-width="3" cx="2388.78" cy="-42.43" rx="156.04" ry="42.35"/>
<text text-anchor="middle" x="2388.78" y="-49.23" font-family="Arial" font-size="24.00">INFO DISCOVERY</text>
<text text-anchor="middle" x="2388.78" y="-23.23" font-family="Arial" font-size="24.00">http</text>
</a>
</g>
</g>
<!-- SERVICE DISCOVERY
unknown&#45;&gt;INFO DISCOVERY
http -->
<g id="edge14" class="edge">
<title>SERVICE DISCOVERY
unknown&#45;&gt;INFO DISCOVERY
http</title>
<path fill="none" stroke="orange" stroke-width="5" d="M2863.27,-565.06C2898.44,-557.78 2928.32,-547.67 2939.78,-533.69 2962.31,-506.18 2959.53,-483.25 2939.78,-453.69 2866.28,-343.67 2740.92,-447.9 2664.78,-339.71 2633.17,-294.79 2688.87,-134.25 2652.78,-92.85 2637.61,-75.46 2594.72,-64.13 2547.81,-56.77"/>
<polygon fill="orange" stroke="orange" stroke-width="5" points="2548.28,-52.42 2537.74,-55.26 2546.98,-61.07 2548.28,-52.42"/>
<text text-anchor="middle" x="2795.78" y="-316.71" font-family="Arial" font-size="20.00" fill="orange">start_next: 03/11/18, 20:11:57</text>
<text text-anchor="middle" x="2795.78" y="-294.71" font-family="Arial" font-size="20.00" fill="orange">gap: 2274sec</text>
<text text-anchor="middle" x="2795.78" y="-272.71" font-family="Arial" font-size="20.00" fill="orange">end_prev: 03/11/18, 19:34:03</text>
</g>
<!-- SERVICE DISCOVERY
unknown&#45;&gt;INFO DISCOVERY
http -->
<g id="edge18" class="edge">
<title>SERVICE DISCOVERY
unknown&#45;&gt;INFO DISCOVERY
http</title>
<path fill="none" stroke="orange" stroke-width="5" d="M2866.79,-566.8C2905.68,-559.46 2939.21,-548.89 2951.78,-533.69 2974.43,-506.28 2954.32,-489.15 2951.78,-453.69 2951,-442.82 2929.67,-268.86 2923.78,-259.71 2842.36,-133.18 2672.34,-80.67 2545.7,-58.88"/>
<polygon fill="orange" stroke="orange" stroke-width="5" points="2546.1,-54.51 2535.51,-57.18 2544.65,-63.14 2546.1,-54.51"/>
<text text-anchor="middle" x="3068.28" y="-316.71" font-family="Arial" font-size="20.00" fill="orange">start_next: 03/11/18, 18:04:35</text>
<text text-anchor="middle" x="3068.28" y="-294.71" font-family="Arial" font-size="20.00" fill="orange">gap: 7762sec</text>
<text text-anchor="middle" x="3068.28" y="-272.71" font-family="Arial" font-size="20.00" fill="orange">end_prev: 03/11/18, 15:55:13</text>
</g>
<!-- SERVICE DISCOVERY
unknown&#45;&gt;INFO DISCOVERY
http -->
<g id="edge35" class="edge">
<title>SERVICE DISCOVERY
unknown&#45;&gt;INFO DISCOVERY
http</title>
<path fill="none" stroke="magenta" stroke-width="5" d="M2868.09,-567.24C2910.24,-559.87 2947.34,-549.17 2961.78,-533.69 3018.5,-472.85 2921.78,-404.27 2982.78,-347.71 3000.39,-331.38 3182.11,-357 3198.78,-339.71 3211.11,-326.9 3208.88,-274.33 3198.78,-259.71 3079.67,-87.29 2960.95,-144.18 2757.78,-92.85 2689.83,-75.69 2613.24,-64.2 2547.52,-56.65"/>
<polygon fill="magenta" stroke="magenta" stroke-width="5" points="2547.91,-52.29 2537.48,-55.52 2546.93,-60.99 2547.91,-52.29"/>
<text text-anchor="middle" x="3338.28" y="-316.71" font-family="Arial" font-size="20.00" fill="magenta">start_next: 03/11/18, 15:10:25</text>
<text text-anchor="middle" x="3338.28" y="-294.71" font-family="Arial" font-size="20.00" fill="magenta">gap: 886sec</text>
<text text-anchor="middle" x="3338.28" y="-272.71" font-family="Arial" font-size="20.00" fill="magenta">end_prev: 03/11/18, 14:55:38</text>
</g>
<!-- VULNERABILTY DISCOVERY
sip -->
<g id="node14" class="node">
<title>VULNERABILTY DISCOVERY
sip</title>
<g id="a_node14"><a xlink:title="ET SCAN Nmap Scripting Engine User&#45;Agent Detected (Nmap NSE)">
<ellipse fill="none" stroke="black" stroke-width="3" cx="3327.78" cy="-1306.04" rx="241.25" ry="42.35"/>
<text text-anchor="middle" x="3327.78" y="-1312.84" font-family="Arial" font-size="24.00">VULNERABILTY DISCOVERY</text>
<text text-anchor="middle" x="3327.78" y="-1286.84" font-family="Arial" font-size="24.00">sip</text>
</a>
</g>
</g>
<!-- SERVICE DISCOVERY
unknown&#45;&gt;VULNERABILTY DISCOVERY
sip -->
<g id="edge25" class="edge">
<title>SERVICE DISCOVERY
unknown&#45;&gt;VULNERABILTY DISCOVERY
sip</title>
<path fill="none" stroke="blue" stroke-width="5" d="M2703.47,-626.56C2703.96,-629.25 2704.4,-631.93 2704.78,-634.54 2712.16,-685.43 2712.78,-698.54 2712.78,-749.96 2712.78,-749.96 2712.78,-749.96 2712.78,-1112.8 2712.78,-1200.22 2942.02,-1252.55 3120.58,-1280.06"/>
<polygon fill="blue" stroke="blue" stroke-width="5" points="3120.11,-1284.41 3130.65,-1281.59 3121.42,-1275.76 3120.11,-1284.41"/>
<text text-anchor="middle" x="2844.28" y="-941.38" font-family="Arial" font-size="20.00" fill="blue">start_next: 03/11/18, 17:54:27</text>
<text text-anchor="middle" x="2844.28" y="-919.38" font-family="Arial" font-size="20.00" fill="blue">gap: 879sec</text>
<text text-anchor="middle" x="2844.28" y="-897.38" font-family="Arial" font-size="20.00" fill="blue">end_prev: 03/11/18, 17:39:47</text>
</g>
<!-- INFO DISCOVERY
us&#45;cli -->
<g id="node7" class="node">
<title>INFO DISCOVERY
us&#45;cli</title>
<g id="a_node7"><a xlink:title="GPL WEB_SERVER .htaccess access&#10;GPL WEB_SERVER /~root access&#10;GPL WEB_SERVER iisadmin access&#10;GPL WEB_SERVER printenv access&#10;GPL WEB_SERVER .htpasswd access&#10;GPL WEB_SERVER global.asa access">
<ellipse fill="none" stroke="black" stroke-width="3" cx="1891.78" cy="-924.38" rx="156.04" ry="42.35"/>
<text text-anchor="middle" x="1891.78" y="-931.18" font-family="Arial" font-size="24.00">INFO DISCOVERY</text>
<text text-anchor="middle" x="1891.78" y="-905.18" font-family="Arial" font-size="24.00">us&#45;cli</text>
</a>
</g>
</g>
<!-- HOST DISCOVERY
us&#45;cli&#45;&gt;INFO DISCOVERY
us&#45;cli -->
<g id="edge6" class="edge">
<title>HOST DISCOVERY
us&#45;cli&#45;&gt;INFO DISCOVERY
us&#45;cli</title>
<path fill="none" stroke="maroon" stroke-width="5" d="M2104.29,-790.43C2061.98,-816.9 2005.71,-852.11 1961.69,-879.64"/>
<polygon fill="maroon" stroke="maroon" stroke-width="5" points="1959.22,-876.03 1953.06,-885.04 1963.86,-883.45 1959.22,-876.03"/>
<text text-anchor="middle" x="2216.28" y="-851.39" font-family="Arial" font-size="20.00" fill="maroon">start_next: 03/11/18, 14:28:13</text>
<text text-anchor="middle" x="2216.28" y="-829.39" font-family="Arial" font-size="20.00" fill="maroon">gap: 403sec</text>
<text text-anchor="middle" x="2216.28" y="-807.39" font-family="Arial" font-size="20.00" fill="maroon">end_prev: 03/11/18, 14:21:30</text>
</g>
<!-- SURFING
us&#45;cli -->
<g id="node8" class="node">
<title>SURFING
us&#45;cli</title>
<g id="a_node8"><a xlink:title="ET WEB_SERVER WEB&#45;PHP phpinfo access">
<ellipse fill="none" stroke="black" stroke-width="3" cx="571.78" cy="-1111.8" rx="88.28" ry="42.35"/>
<text text-anchor="middle" x="571.78" y="-1118.6" font-family="Arial" font-size="24.00">SURFING</text>
<text text-anchor="middle" x="571.78" y="-1092.6" font-family="Arial" font-size="24.00">us&#45;cli</text>
</a>
</g>
</g>
<!-- INFO DISCOVERY
us&#45;cli&#45;&gt;SURFING
us&#45;cli -->
<g id="edge7" class="edge">
<title>INFO DISCOVERY
us&#45;cli&#45;&gt;SURFING
us&#45;cli</title>
<path fill="none" stroke="maroon" stroke-width="5" d="M1754.46,-944.72C1567.01,-971.11 1220.47,-1019.88 924.78,-1061.37 837.31,-1073.64 737.64,-1087.6 666.57,-1097.54"/>
<polygon fill="maroon" stroke="maroon" stroke-width="5" points="665.6,-1093.26 656.3,-1098.98 666.81,-1101.92 665.6,-1093.26"/>
<text text-anchor="middle" x="1606.28" y="-1038.37" font-family="Arial" font-size="20.00" fill="maroon">start_next: 03/11/18, 14:28:15</text>
<text text-anchor="middle" x="1606.28" y="-1016.37" font-family="Arial" font-size="20.00" fill="maroon">gap: &#45;3sec</text>
<text text-anchor="middle" x="1606.28" y="-994.37" font-family="Arial" font-size="20.00" fill="maroon">end_prev: 03/11/18, 14:28:18</text>
</g>
<!-- SURFING
us&#45;cli&#45;&gt;VULNERABILTY DISCOVERY
mysql -->
<g id="edge8" class="edge">
<title>SURFING
us&#45;cli&#45;&gt;VULNERABILTY DISCOVERY
mysql</title>
<path fill="none" stroke="maroon" stroke-width="5" d="M531.67,-1073.79C506.39,-1048.1 475.31,-1011.71 457.78,-973.37 448.79,-953.71 449.78,-947 449.78,-925.38 449.78,-583.11 449.78,-583.11 449.78,-583.11 449.78,-525.38 418.43,-492.92 460.78,-453.69 470.2,-444.95 1373,-446.98 1385.78,-445.69 1415.12,-442.71 1446.18,-437.92 1475.97,-432.5"/>
<polygon fill="maroon" stroke="maroon" stroke-width="5" points="1476.98,-436.76 1486.02,-430.64 1475.39,-428.16 1476.98,-436.76"/>
<text text-anchor="middle" x="581.28" y="-767.96" font-family="Arial" font-size="20.00" fill="maroon">start_next: 03/11/18, 14:35:08</text>
<text text-anchor="middle" x="581.28" y="-745.96" font-family="Arial" font-size="20.00" fill="maroon">gap: 411sec</text>
<text text-anchor="middle" x="581.28" y="-723.96" font-family="Arial" font-size="20.00" fill="maroon">end_prev: 03/11/18, 14:28:18</text>
</g>
<!-- SURFING
us&#45;cli&#45;&gt;VULNERABILTY DISCOVERY
mysql -->
<g id="edge23" class="edge">
<title>SURFING
us&#45;cli&#45;&gt;VULNERABILTY DISCOVERY
mysql</title>
<path fill="none" stroke="blue" stroke-width="5" d="M483.72,-1107.55C366.22,-1097.98 172.78,-1061.54 172.78,-925.38 172.78,-583.11 172.78,-583.11 172.78,-583.11 172.78,-452.04 310.2,-483.74 437.78,-453.69 489.04,-441.61 1333.38,-450.99 1385.78,-445.69 1415.12,-442.71 1446.18,-437.93 1475.97,-432.51"/>
<polygon fill="blue" stroke="blue" stroke-width="5" points="1476.98,-436.77 1486.02,-430.65 1475.39,-428.17 1476.98,-436.77"/>
<text text-anchor="middle" x="304.28" y="-767.96" font-family="Arial" font-size="20.00" fill="blue">start_next: 03/11/18, 17:33:01</text>
<text text-anchor="middle" x="304.28" y="-745.96" font-family="Arial" font-size="20.00" fill="blue">gap: 8106sec</text>
<text text-anchor="middle" x="304.28" y="-723.96" font-family="Arial" font-size="20.00" fill="blue">end_prev: 03/11/18, 15:17:55</text>
</g>
<!-- HOST DISCOVERY
http&#45;&gt;INFO DISCOVERY
http -->
<g id="edge11" class="edge">
<title>HOST DISCOVERY
http&#45;&gt;INFO DISCOVERY
http</title>
<path fill="none" stroke="maroon" stroke-width="5" d="M3470.83,-709C3471.95,-706.19 3472.95,-703.35 3473.78,-700.54 3488.21,-651.18 3481.78,-636.54 3481.78,-585.11 3481.78,-208.28 3481.78,-208.28 3481.78,-208.28 3481.78,-115.42 2856.99,-68.74 2552.17,-51.49"/>
<polygon fill="maroon" stroke="maroon" stroke-width="5" points="2552.13,-47.11 2541.91,-50.92 2551.64,-55.85 2552.13,-47.11"/>
<text text-anchor="middle" x="3613.28" y="-413.7" font-family="Arial" font-size="20.00" fill="maroon">start_next: 03/11/18, 17:36:54</text>
<text text-anchor="middle" x="3613.28" y="-391.7" font-family="Arial" font-size="20.00" fill="maroon">gap: 10564sec</text>
<text text-anchor="middle" x="3613.28" y="-369.7" font-family="Arial" font-size="20.00" fill="maroon">end_prev: 03/11/18, 14:40:50</text>
</g>
<!-- SERVICE DISCOVERY
ssh -->
<g id="node15" class="node">
<title>SERVICE DISCOVERY
ssh</title>
<g id="a_node15"><a xlink:title="ET SCAN Potential SSH Scan&#10;GPL ICMP_INFO PING *NIX">
<ellipse fill="none" stroke="black" stroke-width="3" cx="3190.78" cy="-924.38" rx="189.51" ry="42.35"/>
<text text-anchor="middle" x="3190.78" y="-931.18" font-family="Arial" font-size="24.00">SERVICE DISCOVERY</text>
<text text-anchor="middle" x="3190.78" y="-905.18" font-family="Arial" font-size="24.00">ssh</text>
</a>
</g>
</g>
<!-- HOST DISCOVERY
http&#45;&gt;SERVICE DISCOVERY
ssh -->
<g id="edge27" class="edge">
<title>HOST DISCOVERY
http&#45;&gt;SERVICE DISCOVERY
ssh</title>
<path fill="none" stroke="blue" stroke-width="5" d="M3295.17,-766.4C3251.11,-773.84 3210.98,-784.94 3196.78,-801.39 3180.41,-820.35 3177.86,-847.78 3179.88,-871.84"/>
<polygon fill="blue" stroke="blue" stroke-width="5" points="3175.54,-872.45 3180.99,-881.9 3184.24,-871.48 3175.54,-872.45"/>
<text text-anchor="middle" x="3328.28" y="-851.39" font-family="Arial" font-size="20.00" fill="blue">start_next: 03/11/18, 17:54:37</text>
<text text-anchor="middle" x="3328.28" y="-829.39" font-family="Arial" font-size="20.00" fill="blue">gap: 1sec</text>
<text text-anchor="middle" x="3328.28" y="-807.39" font-family="Arial" font-size="20.00" fill="blue">end_prev: 03/11/18, 17:54:36</text>
</g>
<!-- INFO DISCOVERY
http&#45;&gt;NETWORK DoS
http | ID: 5 -->
<g id="edge12" class="edge">
<title>INFO DISCOVERY
http&#45;&gt;NETWORK DoS
http | ID: 5</title>
<path fill="none" stroke="maroon" stroke-width="5" d="M2232.81,-45.6C1960.91,-50.13 1410.97,-62.78 1220.78,-92.85 1099.57,-112.02 1029.01,-69.14 954.78,-166.85 894.87,-245.7 1017.16,-315.79 1116.39,-357.01"/>
<polygon fill="maroon" stroke="maroon" stroke-width="5" points="1115,-361.17 1125.91,-360.91 1118.32,-353.07 1115,-361.17"/>
<text text-anchor="middle" x="1086.28" y="-226.28" font-family="Arial" font-size="20.00" fill="maroon">start_next: 03/11/18, 17:36:54</text>
<text text-anchor="middle" x="1086.28" y="-204.28" font-family="Arial" font-size="20.00" fill="maroon">gap: &#45;15sec</text>
<text text-anchor="middle" x="1086.28" y="-182.28" font-family="Arial" font-size="20.00" fill="maroon">end_prev: 03/11/18, 17:37:09</text>
</g>
<!-- INFO DISCOVERY
http&#45;&gt;NETWORK DoS
http | ID: 5 -->
<g id="edge15" class="edge">
<title>INFO DISCOVERY
http&#45;&gt;NETWORK DoS
http | ID: 5</title>
<path fill="none" stroke="orange" stroke-width="5" d="M2233.76,-47.96C2016.87,-55 1634.02,-70.16 1496.78,-92.85 1376.13,-112.8 1306.98,-70.43 1231.78,-166.85 1211.83,-192.43 1214.88,-278.4 1219.71,-337.37"/>
<polygon fill="orange" stroke="orange" stroke-width="5" points="1215.38,-338.09 1220.59,-347.68 1224.1,-337.34 1215.38,-338.09"/>
<text text-anchor="middle" x="1362.78" y="-226.28" font-family="Arial" font-size="20.00" fill="orange">start_next: 03/11/18, 20:11:57</text>
<text text-anchor="middle" x="1362.78" y="-204.28" font-family="Arial" font-size="20.00" fill="orange">gap: &#45;20sec</text>
<text text-anchor="middle" x="1362.78" y="-182.28" font-family="Arial" font-size="20.00" fill="orange">end_prev: 03/11/18, 20:12:17</text>
</g>
<!-- INFO DISCOVERY
http&#45;&gt;NETWORK DoS
http | ID: 5 -->
<g id="edge21" class="edge">
<title>INFO DISCOVERY
http&#45;&gt;NETWORK DoS
http | ID: 5</title>
<path fill="none" stroke="blue" stroke-width="5" d="M2233.59,-48.05C2109.7,-53.65 1932.09,-65.95 1778.78,-92.85 1655.8,-114.43 1592.97,-75.58 1507.78,-166.85 1481.53,-194.97 1513.6,-220.75 1490.78,-251.71 1453.47,-302.3 1392.87,-337.11 1339.04,-359.81"/>
<polygon fill="blue" stroke="blue" stroke-width="5" points="1337.35,-355.77 1329.77,-363.63 1340.68,-363.86 1337.35,-355.77"/>
<text text-anchor="start" x="1507.78" y="-234.28" font-family="Arial" font-size="20.00" fill="blue"> start_next: 03/11/18, 14:44:54</text>
<text text-anchor="start" x="1583.78" y="-214.28" font-family="Arial" font-size="20.00" fill="blue">gap: &#45;108sec</text>
<text text-anchor="start" x="1511.78" y="-194.28" font-family="Arial" font-size="20.00" fill="blue">end_prev: 03/11/18, 14:46:43</text>
<text text-anchor="start" x="1536.78" y="-174.28" font-family="Arial" font-weight="bold" font-size="20.00" fill="blue">Attacker: 10.0.254.203</text>
</g>
<!-- INFO DISCOVERY
http&#45;&gt;NETWORK DoS
http | ID: 5 -->
<g id="edge31" class="edge">
<title>INFO DISCOVERY
http&#45;&gt;NETWORK DoS
http | ID: 5</title>
<path fill="none" stroke="blue" stroke-width="5" d="M2247.1,-60.39C2187.42,-68.57 2117.42,-79.53 2054.78,-92.85 1935.17,-118.3 1872.96,-77.22 1789.78,-166.85 1763.61,-195.04 1799.17,-223.73 1772.78,-251.71 1666.86,-364 1587.84,-307.92 1436.78,-339.71 1414.75,-344.34 1408.72,-342.7 1386.78,-347.71 1371.12,-351.28 1354.74,-355.53 1338.69,-360.01"/>
<polygon fill="blue" stroke="blue" stroke-width="5" points="1337.17,-355.89 1328.74,-362.83 1339.56,-364.31 1337.17,-355.89"/>
<text text-anchor="middle" x="1920.78" y="-226.28" font-family="Arial" font-size="20.00" fill="blue">start_next: 03/11/18, 22:11:29</text>
<text text-anchor="middle" x="1920.78" y="-204.28" font-family="Arial" font-size="20.00" fill="blue">gap: &#45;102sec</text>
<text text-anchor="middle" x="1920.78" y="-182.28" font-family="Arial" font-size="20.00" fill="blue">end_prev: 03/11/18, 22:13:12</text>
</g>
<!-- INFO DISCOVERY
http&#45;&gt;NETWORK DoS
http | ID: 5 -->
<g id="edge36" class="edge">
<title>INFO DISCOVERY
http&#45;&gt;NETWORK DoS
http | ID: 5</title>
<path fill="none" stroke="magenta" stroke-width="5" d="M2251.54,-62.83C2184.85,-79.4 2109.27,-110.08 2062.78,-166.85 2038.56,-196.42 2075.37,-224.25 2048.78,-251.71 1908.5,-396.51 1804.03,-316.36 1603.78,-339.71 1507.92,-350.88 1482,-332.02 1386.78,-347.71 1370.18,-350.44 1352.89,-354.38 1336.05,-358.84"/>
<polygon fill="magenta" stroke="magenta" stroke-width="5" points="1334.71,-354.67 1326.21,-361.52 1337.01,-363.12 1334.71,-354.67"/>
<text text-anchor="middle" x="2194.28" y="-226.28" font-family="Arial" font-size="20.00" fill="magenta">start_next: 03/11/18, 15:10:25</text>
<text text-anchor="middle" x="2194.28" y="-204.28" font-family="Arial" font-size="20.00" fill="magenta">gap: &#45;373sec</text>
<text text-anchor="middle" x="2194.28" y="-182.28" font-family="Arial" font-size="20.00" fill="magenta">end_prev: 03/11/18, 15:16:38</text>
</g>
<!-- SURFING
http -->
<g id="node12" class="node">
<title>SURFING
http</title>
<g id="a_node12"><a xlink:title="ET WEB_SERVER WEB&#45;PHP phpinfo access">
<ellipse fill="yellow" stroke="black" stroke-width="3" cx="2417.78" cy="-209.28" rx="88.28" ry="42.35"/>
<text text-anchor="middle" x="2417.78" y="-216.08" font-family="Arial" font-size="24.00">SURFING</text>
<text text-anchor="middle" x="2417.78" y="-190.08" font-family="Arial" font-size="24.00">http</text>
</a>
</g>
</g>
<!-- INFO DISCOVERY
http&#45;&gt;SURFING
http -->
<g id="edge19" class="edge">
<title>INFO DISCOVERY
http&#45;&gt;SURFING
http</title>
<path fill="none" stroke="orange" stroke-width="5" d="M2385.93,-84.91C2385.52,-104.9 2386.4,-129.3 2393.18,-158.15"/>
<polygon fill="orange" stroke="orange" stroke-width="5" points="2389.01,-159.49 2395.71,-168.1 2397.49,-157.33 2389.01,-159.49"/>
<text text-anchor="middle" x="2524.28" y="-142.85" font-family="Arial" font-size="20.00" fill="orange">start_next: 03/11/18, 18:04:37</text>
<text text-anchor="middle" x="2524.28" y="-120.85" font-family="Arial" font-size="20.00" fill="orange">gap: &#45;80sec</text>
<text text-anchor="middle" x="2524.28" y="-98.85" font-family="Arial" font-size="20.00" fill="orange">end_prev: 03/11/18, 18:05:56</text>
</g>
<!-- VULNERABILTY DISCOVERY
ms&#45;sql&#45;s -->
<g id="node11" class="node">
<title>VULNERABILTY DISCOVERY
ms&#45;sql&#45;s</title>
<g id="a_node11"><a xlink:title="ET SCAN Suspicious inbound to mySQL port 3306&#10;ET SCAN Suspicious inbound to MSSQL port 1433&#10;ET SCAN Suspicious inbound to PostgreSQL port 5432&#10;ET SCAN Suspicious inbound to Oracle SQL port 1521&#10;ET SCAN Suspicious inbound to mSQL port 4333">
<ellipse fill="yellow" stroke="black" stroke-width="3" cx="3226.78" cy="-396.7" rx="241.25" ry="42.35"/>
<text text-anchor="middle" x="3226.78" y="-403.5" font-family="Arial" font-size="24.00">VULNERABILTY DISCOVERY</text>
<text text-anchor="middle" x="3226.78" y="-377.5" font-family="Arial" font-size="24.00">ms&#45;sql&#45;s</text>
</a>
</g>
</g>
<!-- VULNERABILTY DISCOVERY
ms&#45;sql&#45;s&#45;&gt;SERVICE DISCOVERY
unknown -->
<g id="edge13" class="edge">
<title>VULNERABILTY DISCOVERY
ms&#45;sql&#45;s&#45;&gt;SERVICE DISCOVERY
unknown</title>
<path fill="none" stroke="orange" stroke-width="5" d="M3167.01,-438.03C3118.56,-468.85 3047.45,-509.96 2979.78,-533.69 2945.33,-545.76 2907.48,-554.96 2870.91,-561.95"/>
<polygon fill="orange" stroke="orange" stroke-width="5" points="2869.66,-557.73 2860.63,-563.86 2871.26,-566.33 2869.66,-557.73"/>
<text text-anchor="start" x="3135.78" y="-518.69" font-family="Arial" font-size="20.00" fill="orange"> start_next: 03/11/18, 19:34:02</text>
<text text-anchor="start" x="3226.28" y="-498.69" font-family="Arial" font-size="20.00" fill="orange">gap: 5sec</text>
<text text-anchor="start" x="3139.78" y="-478.69" font-family="Arial" font-size="20.00" fill="orange">end_prev: 03/11/18, 19:33:57</text>
<text text-anchor="start" x="3164.78" y="-458.69" font-family="Arial" font-weight="bold" font-size="20.00" fill="orange">Attacker: 10.0.254.202</text>
</g>
<!-- SURFING
http&#45;&gt;NETWORK DoS
http | ID: 5 -->
<g id="edge20" class="edge">
<title>SURFING
http&#45;&gt;NETWORK DoS
http | ID: 5</title>
<path fill="none" stroke="orange" stroke-width="5" d="M2358.01,-240.63C2346.88,-245.12 2335.16,-249.1 2323.78,-251.71 2298.52,-257.48 2111.47,-244.12 2090.78,-259.71 2060.91,-282.2 2094.89,-317.55 2064.78,-339.71 2049.6,-350.87 1405.4,-344.88 1386.78,-347.71 1370.02,-350.25 1352.58,-354.11 1335.63,-358.56"/>
<polygon fill="orange" stroke="orange" stroke-width="5" points="1334.22,-354.41 1325.71,-361.24 1336.51,-362.86 1334.22,-354.41"/>
<text text-anchor="middle" x="2222.28" y="-316.71" font-family="Arial" font-size="20.00" fill="orange">start_next: 03/11/18, 18:05:40</text>
<text text-anchor="middle" x="2222.28" y="-294.71" font-family="Arial" font-size="20.00" fill="orange">gap: &#45;17sec</text>
<text text-anchor="middle" x="2222.28" y="-272.71" font-family="Arial" font-size="20.00" fill="orange">end_prev: 03/11/18, 18:05:56</text>
</g>
<!-- SURFING
http&#45;&gt;VULNERABILTY DISCOVERY
mysql -->
<g id="edge16" class="edge">
<title>SURFING
http&#45;&gt;VULNERABILTY DISCOVERY
mysql</title>
<path fill="none" stroke="orange" stroke-width="5" d="M2390.31,-249.73C2388.34,-253.05 2386.47,-256.4 2384.78,-259.71 2367.45,-293.5 2385.13,-316.89 2354.78,-339.71 2316.86,-368.21 2073.27,-382.55 1878.96,-389.53"/>
<polygon fill="orange" stroke="orange" stroke-width="5" points="1878.71,-385.16 1868.87,-389.89 1879.02,-393.9 1878.71,-385.16"/>
<text text-anchor="start" x="2384.78" y="-324.71" font-family="Arial" font-size="20.00" fill="orange"> start_next: 03/11/18, 15:55:13</text>
<text text-anchor="start" x="2458.28" y="-304.71" font-family="Arial" font-size="20.00" fill="orange">gap: 3096sec</text>
<text text-anchor="start" x="2388.78" y="-284.71" font-family="Arial" font-size="20.00" fill="orange">end_prev: 03/11/18, 15:03:37</text>
<text text-anchor="start" x="2413.78" y="-264.71" font-family="Arial" font-weight="bold" font-size="20.00" fill="orange">Attacker: 10.0.254.201</text>
</g>
<!-- RESOURCE HIJACKING
http | ID: 20 -->
<g id="node13" class="node">
<title>RESOURCE HIJACKING
http | ID: 20</title>
<g id="a_node13"><a xlink:title="GPL WEB_SERVER Oracle Java Process Manager access">
<polygon fill="yellow" stroke="black" stroke-width="3" points="928.31,-924.38 811.55,-973.36 578.01,-973.36 461.24,-924.38 578.01,-875.4 811.55,-875.4 928.31,-924.38"/>
<text text-anchor="middle" x="694.78" y="-931.18" font-family="Arial" font-size="24.00">RESOURCE HIJACKING</text>
<text text-anchor="middle" x="694.78" y="-905.18" font-family="Arial" font-size="24.00">http | ID: 20</text>
</a>
</g>
</g>
<!-- RESOURCE HIJACKING
http | ID: 20&#45;&gt;SURFING
us&#45;cli -->
<g id="edge22" class="edge">
<title>RESOURCE HIJACKING
http | ID: 20&#45;&gt;SURFING
us&#45;cli</title>
<path fill="none" stroke="blue" stroke-width="5" d="M662.78,-973.61C644.6,-1001.01 621.92,-1035.21 603.75,-1062.6"/>
<polygon fill="blue" stroke="blue" stroke-width="5" points="599.9,-1060.49 598.02,-1071.24 607.19,-1065.33 599.9,-1060.49"/>
<text text-anchor="start" x="655.78" y="-1046.37" font-family="Arial" font-size="20.00" fill="blue"> start_next: 03/11/18, 15:17:52</text>
<text text-anchor="start" x="729.28" y="-1026.37" font-family="Arial" font-size="20.00" fill="blue">gap: 1873sec</text>
<text text-anchor="start" x="659.78" y="-1006.37" font-family="Arial" font-size="20.00" fill="blue">end_prev: 03/11/18, 14:46:39</text>
<text text-anchor="start" x="684.78" y="-986.37" font-family="Arial" font-weight="bold" font-size="20.00" fill="blue">Attacker: 10.0.254.203</text>
</g>
<!-- VULNERABILTY DISCOVERY
sip&#45;&gt;HOST DISCOVERY
http -->
<g id="edge26" class="edge">
<title>VULNERABILTY DISCOVERY
sip&#45;&gt;HOST DISCOVERY
http</title>
<path fill="none" stroke="blue" stroke-width="5" d="M3419.81,-1266.76C3434.62,-1256.46 3447.95,-1243.75 3456.78,-1228.22 3502.18,-1148.34 3468.49,-911.23 3456.84,-803.42"/>
<polygon fill="blue" stroke="blue" stroke-width="5" points="3461.18,-802.89 3455.79,-793.4 3452.48,-803.81 3461.18,-802.89"/>
<text text-anchor="middle" x="3610.28" y="-1038.37" font-family="Arial" font-size="20.00" fill="blue">start_next: 03/11/18, 17:54:27</text>
<text text-anchor="middle" x="3610.28" y="-1016.37" font-family="Arial" font-size="20.00" fill="blue">gap: 0sec</text>
<text text-anchor="middle" x="3610.28" y="-994.37" font-family="Arial" font-size="20.00" fill="blue">end_prev: 03/11/18, 17:54:27</text>
</g>
<!-- VULNERABILTY DISCOVERY
sip&#45;&gt;INFO DISCOVERY
http -->
<g id="edge30" class="edge">
<title>VULNERABILTY DISCOVERY
sip&#45;&gt;INFO DISCOVERY
http</title>
<path fill="none" stroke="blue" stroke-width="5" d="M3543.03,-1286.86C3649.61,-1264.75 3755.78,-1216.65 3755.78,-1112.8 3755.78,-208.28 3755.78,-208.28 3755.78,-208.28 3755.78,-88.57 2918.82,-55.27 2554.69,-46.44"/>
<polygon fill="blue" stroke="blue" stroke-width="5" points="2554.69,-42.06 2544.59,-46.2 2554.48,-50.81 2554.69,-42.06"/>
<text text-anchor="middle" x="3886.78" y="-684.54" font-family="Arial" font-size="20.00" fill="blue">start_next: 03/11/18, 22:11:28</text>
<text text-anchor="middle" x="3886.78" y="-662.54" font-family="Arial" font-size="20.00" fill="blue">gap: 3468sec</text>
<text text-anchor="middle" x="3886.78" y="-640.54" font-family="Arial" font-size="20.00" fill="blue">end_prev: 03/11/18, 21:13:41</text>
</g>
<!-- SERVICE DISCOVERY
sip -->
<g id="node16" class="node">
<title>SERVICE DISCOVERY
sip</title>
<g id="a_node16"><a xlink:title="ET SCAN NMAP SIP Version Detection Script Activity">
<ellipse fill="none" stroke="black" stroke-width="3" cx="3190.78" cy="-1111.8" rx="189.51" ry="42.35"/>
<text text-anchor="middle" x="3190.78" y="-1118.6" font-family="Arial" font-size="24.00">SERVICE DISCOVERY</text>
<text text-anchor="middle" x="3190.78" y="-1092.6" font-family="Arial" font-size="24.00">sip</text>
</a>
</g>
</g>
<!-- SERVICE DISCOVERY
ssh&#45;&gt;SERVICE DISCOVERY
sip -->
<g id="edge28" class="edge">
<title>SERVICE DISCOVERY
ssh&#45;&gt;SERVICE DISCOVERY
sip</title>
<path fill="none" stroke="blue" stroke-width="5" d="M3190.78,-966.99C3190.78,-994.19 3190.78,-1029.92 3190.78,-1058.96"/>
<polygon fill="blue" stroke="blue" stroke-width="5" points="3186.4,-1059.32 3190.78,-1069.32 3195.15,-1059.32 3186.4,-1059.32"/>
<text text-anchor="middle" x="3321.78" y="-1038.37" font-family="Arial" font-size="20.00" fill="blue">start_next: 03/11/18, 21:11:23</text>
<text text-anchor="middle" x="3321.78" y="-1016.37" font-family="Arial" font-size="20.00" fill="blue">gap: 11771sec</text>
<text text-anchor="middle" x="3321.78" y="-994.37" font-family="Arial" font-size="20.00" fill="blue">end_prev: 03/11/18, 17:55:12</text>
</g>
<!-- SERVICE DISCOVERY
sip&#45;&gt;VULNERABILTY DISCOVERY
sip -->
<g id="edge29" class="edge">
<title>SERVICE DISCOVERY
sip&#45;&gt;VULNERABILTY DISCOVERY
sip</title>
<path fill="none" stroke="blue" stroke-width="5" d="M3183.75,-1154.32C3181.95,-1177.64 3183.49,-1206.36 3196.78,-1228.22 3204.45,-1240.85 3215.05,-1251.64 3226.92,-1260.78"/>
<polygon fill="blue" stroke="blue" stroke-width="5" points="3224.66,-1264.53 3235.32,-1266.84 3229.78,-1257.44 3224.66,-1264.53"/>
<text text-anchor="middle" x="3328.28" y="-1212.22" font-family="Arial" font-size="20.00" fill="blue">start_next: 03/11/18, 21:13:41</text>
<text text-anchor="middle" x="3328.28" y="-1190.22" font-family="Arial" font-size="20.00" fill="blue">gap: 55sec</text>
<text text-anchor="middle" x="3328.28" y="-1168.22" font-family="Arial" font-size="20.00" fill="blue">end_prev: 03/11/18, 21:12:45</text>
</g>
<!-- SERVICE DISCOVERY
ag&#45;swim&#45;&gt;VULNERABILTY DISCOVERY
mysql -->
<g id="edge33" class="edge">
<title>SERVICE DISCOVERY
ag&#45;swim&#45;&gt;VULNERABILTY DISCOVERY
mysql</title>
<path fill="none" stroke="magenta" stroke-width="5" d="M1278.02,-546.25C1282.37,-542.43 1286.34,-538.26 1289.78,-533.69 1311.51,-504.77 1278.11,-478.13 1304.78,-453.69 1318.11,-441.46 1367.88,-448.32 1385.78,-445.69 1412.8,-441.71 1441.36,-436.79 1469.07,-431.62"/>
<polygon fill="magenta" stroke="magenta" stroke-width="5" points="1470.22,-435.86 1479.23,-429.71 1468.6,-427.26 1470.22,-435.86"/>
<text text-anchor="middle" x="1436.28" y="-510.69" font-family="Arial" font-size="20.00" fill="magenta">start_next: 03/11/18, 14:54:30</text>
<text text-anchor="middle" x="1436.28" y="-488.69" font-family="Arial" font-size="20.00" fill="magenta">gap: 745sec</text>
<text text-anchor="middle" x="1436.28" y="-466.69" font-family="Arial" font-size="20.00" fill="magenta">end_prev: 03/11/18, 14:42:06</text>
</g>
</g>
</svg>
