<?xml version="1.0" encoding="UTF-8" standalone="no"?>
<!DOCTYPE svg PUBLIC "-//W3C//DTD SVG 1.1//EN"
 "http://www.w3.org/Graphics/SVG/1.1/DTD/svg11.dtd">
<!-- Generated by graphviz version 2.50.0 (0)
 -->
<!-- Title: NETWORKDOShttp Pages: 1 -->
<svg width="2552pt" height="1167pt"
 viewBox="0.00 0.00 2552.00 1166.89" xmlns="http://www.w3.org/2000/svg" xmlns:xlink="http://www.w3.org/1999/xlink">
<g id="graph0" class="graph" transform="scale(1 1) rotate(0) translate(4 1162.89)">
<title>NETWORKDOShttp</title>
<polygon fill="white" stroke="transparent" points="-4,4 -4,-1162.89 2548,-1162.89 2548,4 -4,4"/>
<!-- Victim: 10.0.0.11
NETWORK DoS
http -->
<g id="node1" class="node">
<title>Victim: 10.0.0.11
NETWORK DoS
http</title>
<polygon fill="salmon" stroke="black" stroke-width="3" points="1519.46,-1061.87 1519.46,-1116.26 1432.5,-1154.72 1309.5,-1154.72 1222.54,-1116.26 1222.54,-1061.87 1309.5,-1023.41 1432.5,-1023.41 1519.46,-1061.87"/>
<polygon fill="none" stroke="black" stroke-width="3" points="1523.46,-1059.27 1523.46,-1118.86 1433.34,-1158.71 1308.66,-1158.71 1218.54,-1118.86 1218.54,-1059.27 1308.66,-1019.42 1433.34,-1019.42 1523.46,-1059.27"/>
<text text-anchor="middle" x="1371" y="-1108.87" font-family="Arial" font-size="24.00">Victim: 10.0.0.11</text>
<text text-anchor="middle" x="1371" y="-1082.87" font-family="Arial" font-size="24.00">NETWORK DoS</text>
<text text-anchor="middle" x="1371" y="-1056.87" font-family="Arial" font-size="24.00">http</text>
</g>
<!-- NETWORK DoS
http | ID: 112 -->
<g id="node2" class="node">
<title>NETWORK DoS
http | ID: 112</title>
<g id="a_node2"><a xlink:title="ET WEB_SERVER Possible Cherokee Web Server GET AUX Request Denial Of Service Attempt">
<polygon fill="none" stroke="black" stroke-width="3" stroke-dasharray="1,5" points="1776.54,-953.25 1698.27,-1002.23 1541.73,-1002.23 1463.46,-953.25 1541.73,-904.27 1698.27,-904.27 1776.54,-953.25"/>
<text text-anchor="middle" x="1620" y="-960.05" font-family="Arial" font-size="24.00">NETWORK DoS</text>
<text text-anchor="middle" x="1620" y="-934.05" font-family="Arial" font-size="24.00">http | ID: 112</text>
</a>
</g>
</g>
<!-- NETWORK DoS
http | ID: 112&#45;&gt;Victim: 10.0.0.11
NETWORK DoS
http -->
<g id="edge1" class="edge">
<title>NETWORK DoS
http | ID: 112&#45;&gt;Victim: 10.0.0.11
NETWORK DoS
http</title>
<path fill="none" stroke="black" stroke-width="5" d="M1536.39,-999.18C1517.77,-1009.19 1497.77,-1019.94 1478.35,-1030.38"/>
<polygon fill="black" stroke="black" stroke-width="5" points="1476.2,-1026.56 1469.47,-1035.15 1480.35,-1034.27 1476.2,-1026.56"/>
</g>
<!-- NETWORK DoS
http | ID: 5 -->
<g id="node3" class="node">
<title>NETWORK DoS
http | ID: 5</title>
<g id="a_node3"><a xlink:title="ET WEB_SERVER Possible Cherokee Web Server GET AUX Request Denial Of Service Attempt">
<polygon fill="salmon" stroke="black" stroke-width="3" points="1279.54,-953.25 1201.27,-1002.23 1044.73,-1002.23 966.46,-953.25 1044.73,-904.27 1201.27,-904.27 1279.54,-953.25"/>
<text text-anchor="middle" x="1123" y="-960.05" font-family="Arial" font-size="24.00">NETWORK DoS</text>
<text text-anchor="middle" x="1123" y="-934.05" font-family="Arial" font-size="24.00">http | ID: 5</text>
</a>
</g>
</g>
<!-- NETWORK DoS
http | ID: 5&#45;&gt;Victim: 10.0.0.11
NETWORK DoS
http -->
<g id="edge2" class="edge">
<title>NETWORK DoS
http | ID: 5&#45;&gt;Victim: 10.0.0.11
NETWORK DoS
http</title>
<path fill="none" stroke="black" stroke-width="5" d="M1206.27,-999.18C1224.82,-1009.19 1244.73,-1019.94 1264.08,-1030.38"/>
<polygon fill="black" stroke="black" stroke-width="5" points="1262.05,-1034.25 1272.93,-1035.15 1266.21,-1026.55 1262.05,-1034.25"/>
</g>
<!-- VULNERABILTY DISCOVERY
mysql -->
<g id="node4" class="node">
<title>VULNERABILTY DISCOVERY
mysql</title>
<g id="a_node4"><a xlink:title="ET SCAN Suspicious inbound to mySQL port 3306&#10;ET SCAN Suspicious inbound to MSSQL port 1433&#10;ET SCAN Suspicious inbound to PostgreSQL port 5432&#10;ET SCAN Suspicious inbound to Oracle SQL port 1521&#10;ET SCAN Suspicious inbound to mSQL port 4333">
<ellipse fill="yellow" stroke="black" stroke-width="3" cx="1119" cy="-404.13" rx="241.25" ry="42.35"/>
<text text-anchor="middle" x="1119" y="-410.93" font-family="Arial" font-size="24.00">VULNERABILTY DISCOVERY</text>
<text text-anchor="middle" x="1119" y="-384.93" font-family="Arial" font-size="24.00">mysql</text>
</a>
</g>
</g>
<!-- SERVICE DISCOVERY
spt&#45;automation -->
<g id="node5" class="node">
<title>SERVICE DISCOVERY
spt&#45;automation</title>
<g id="a_node5"><a xlink:title="ET SCAN Potential VNC Scan 5800&#45;5820&#10;ET SCAN Potential SSH Scan&#10;ET SCAN Potential VNC Scan 5900&#45;5920">
<ellipse fill="none" stroke="black" stroke-width="3" cx="750" cy="-584.98" rx="189.51" ry="42.35"/>
<text text-anchor="middle" x="750" y="-591.78" font-family="Arial" font-size="24.00">SERVICE DISCOVERY</text>
<text text-anchor="middle" x="750" y="-565.78" font-family="Arial" font-size="24.00">spt&#45;automation</text>
</a>
</g>
</g>
<!-- VULNERABILTY DISCOVERY
mysql&#45;&gt;SERVICE DISCOVERY
spt&#45;automation -->
<g id="edge3" class="edge">
<title>VULNERABILTY DISCOVERY
mysql&#45;&gt;SERVICE DISCOVERY
spt&#45;automation</title>
<path fill="none" stroke="orange" stroke-width="5" d="M915.23,-426.9C883.99,-433.81 858.1,-442.82 846,-454.56 819.91,-479.87 849.84,-504.78 829,-534.56 828.24,-535.64 827.45,-536.7 826.64,-537.75"/>
<polygon fill="orange" stroke="orange" stroke-width="5" points="823.22,-535.01 819.84,-545.39 829.76,-540.82 823.22,-535.01"/>
<text text-anchor="start" x="846" y="-519.56" font-family="Arial" font-size="20.00" fill="orange"> start_next: 03/11/18, 17:11:27</text>
<text text-anchor="start" x="927" y="-499.56" font-family="Arial" font-size="20.00" fill="orange">gap: &#45;10sec</text>
<text text-anchor="start" x="850" y="-479.56" font-family="Arial" font-size="20.00" fill="orange">end_prev: 03/11/18, 17:11:38</text>
<text text-anchor="start" x="874.5" y="-459.56" font-family="Arial" font-weight="bold" font-size="20.00" fill="orange">Attacker: 10.0.254.201</text>
</g>
<!-- SERVICE DISCOVERY
unknown -->
<g id="node9" class="node">
<title>SERVICE DISCOVERY
unknown</title>
<g id="a_node9"><a xlink:title="ET SCAN Potential VNC Scan 5800&#45;5820&#10;GPL ICMP_INFO PING *NIX&#10;ET SCAN Potential SSH Scan&#10;ET SCAN Potential VNC Scan 5900&#45;5920">
<ellipse fill="none" stroke="black" stroke-width="3" cx="1394" cy="-584.98" rx="189.51" ry="42.35"/>
<text text-anchor="middle" x="1394" y="-591.78" font-family="Arial" font-size="24.00">SERVICE DISCOVERY</text>
<text text-anchor="middle" x="1394" y="-565.78" font-family="Arial" font-size="24.00">unknown</text>
</a>
</g>
</g>
<!-- VULNERABILTY DISCOVERY
mysql&#45;&gt;SERVICE DISCOVERY
unknown -->
<g id="edge8" class="edge">
<title>VULNERABILTY DISCOVERY
mysql&#45;&gt;SERVICE DISCOVERY
unknown</title>
<path fill="none" stroke="purple" stroke-width="5" d="M1114.83,-446.75C1112.52,-479.54 1112,-521.78 1123,-534.56 1135.98,-549.64 1169.14,-560.14 1208.01,-567.44"/>
<polygon fill="purple" stroke="purple" stroke-width="5" points="1207.39,-571.77 1218,-569.23 1208.93,-563.16 1207.39,-571.77"/>
<text text-anchor="middle" x="1254.5" y="-511.56" font-family="Arial" font-size="20.00" fill="purple">start_next: 03/11/18, 14:41:08</text>
<text text-anchor="middle" x="1254.5" y="-489.56" font-family="Arial" font-size="20.00" fill="purple">gap: &#45;2sec</text>
<text text-anchor="middle" x="1254.5" y="-467.56" font-family="Arial" font-size="20.00" fill="purple">end_prev: 03/11/18, 14:41:10</text>
</g>
<!-- VULNERABILTY DISCOVERY
mysql&#45;&gt;SERVICE DISCOVERY
unknown -->
<g id="edge11" class="edge">
<title>VULNERABILTY DISCOVERY
mysql&#45;&gt;SERVICE DISCOVERY
unknown</title>
<path fill="none" stroke="purple" stroke-width="5" d="M1321.4,-427.31C1349.62,-434.13 1372.56,-443.02 1383,-454.56 1393.19,-465.83 1395.7,-501.1 1395.79,-531.98"/>
<polygon fill="purple" stroke="purple" stroke-width="5" points="1391.42,-532.22 1395.74,-542.24 1400.17,-532.27 1391.42,-532.22"/>
<text text-anchor="middle" x="1527.5" y="-511.56" font-family="Arial" font-size="20.00" fill="purple">start_next: 03/11/18, 14:54:34</text>
<text text-anchor="middle" x="1527.5" y="-489.56" font-family="Arial" font-size="20.00" fill="purple">gap: &#45;34sec</text>
<text text-anchor="middle" x="1527.5" y="-467.56" font-family="Arial" font-size="20.00" fill="purple">end_prev: 03/11/18, 14:55:09</text>
</g>
<!-- VULNERABILTY DISCOVERY
mysql&#45;&gt;SERVICE DISCOVERY
unknown -->
<g id="edge26" class="edge">
<title>VULNERABILTY DISCOVERY
mysql&#45;&gt;SERVICE DISCOVERY
unknown</title>
<path fill="none" stroke="purple" stroke-width="5" d="M1355.86,-412.3C1490.64,-418.9 1636.82,-431.35 1658,-454.56 1669.98,-467.69 1669.36,-520.88 1658,-534.56 1645.97,-549.05 1615.24,-559.32 1578.82,-566.58"/>
<polygon fill="purple" stroke="purple" stroke-width="5" points="1577.94,-562.3 1568.93,-568.46 1579.57,-570.89 1577.94,-562.3"/>
<text text-anchor="middle" x="1798.5" y="-511.56" font-family="Arial" font-size="20.00" fill="purple">start_next: 03/11/18, 15:48:40</text>
<text text-anchor="middle" x="1798.5" y="-489.56" font-family="Arial" font-size="20.00" fill="purple">gap: &#45;2sec</text>
<text text-anchor="middle" x="1798.5" y="-467.56" font-family="Arial" font-size="20.00" fill="purple">end_prev: 03/11/18, 15:48:42</text>
</g>
<!-- SERVICE DISCOVERY
cpdlc -->
<g id="node13" class="node">
<title>SERVICE DISCOVERY
cpdlc</title>
<g id="a_node13"><a xlink:title="ET SCAN Potential VNC Scan 5900&#45;5920&#10;ET SCAN Potential VNC Scan 5800&#45;5820">
<ellipse fill="none" stroke="black" stroke-width="3" cx="319" cy="-584.98" rx="189.51" ry="42.35"/>
<text text-anchor="middle" x="319" y="-591.78" font-family="Arial" font-size="24.00">SERVICE DISCOVERY</text>
<text text-anchor="middle" x="319" y="-565.78" font-family="Arial" font-size="24.00">cpdlc</text>
</a>
</g>
</g>
<!-- VULNERABILTY DISCOVERY
mysql&#45;&gt;SERVICE DISCOVERY
cpdlc -->
<g id="edge23" class="edge">
<title>VULNERABILTY DISCOVERY
mysql&#45;&gt;SERVICE DISCOVERY
cpdlc</title>
<path fill="none" stroke="purple" stroke-width="5" d="M888.27,-416.62C764.13,-424.61 624.57,-437 565,-454.56 500.94,-473.44 434.25,-509.73 386.5,-539.09"/>
<polygon fill="purple" stroke="purple" stroke-width="5" points="384,-535.49 377.81,-544.48 388.61,-542.93 384,-535.49"/>
<text text-anchor="middle" x="696.5" y="-511.56" font-family="Arial" font-size="20.00" fill="purple">start_next: 03/11/18, 15:39:06</text>
<text text-anchor="middle" x="696.5" y="-489.56" font-family="Arial" font-size="20.00" fill="purple">gap: 0sec</text>
<text text-anchor="middle" x="696.5" y="-467.56" font-family="Arial" font-size="20.00" fill="purple">end_prev: 03/11/18, 15:39:06</text>
</g>
<!-- HOST DISCOVERY
http -->
<g id="node6" class="node">
<title>HOST DISCOVERY
http</title>
<g id="a_node6"><a xlink:title="ET SCAN Nmap Scripting Engine User&#45;Agent Detected (Nmap Scripting Engine)&#10;ET SCAN Possible Nmap User&#45;Agent Observed">
<ellipse fill="none" stroke="black" stroke-width="3" cx="911" cy="-42.43" rx="162.77" ry="42.35"/>
<text text-anchor="middle" x="911" y="-49.23" font-family="Arial" font-size="24.00">HOST DISCOVERY</text>
<text text-anchor="middle" x="911" y="-23.23" font-family="Arial" font-size="24.00">http</text>
</a>
</g>
</g>
<!-- SERVICE DISCOVERY
spt&#45;automation&#45;&gt;HOST DISCOVERY
http -->
<g id="edge4" class="edge">
<title>SERVICE DISCOVERY
spt&#45;automation&#45;&gt;HOST DISCOVERY
http</title>
<path fill="none" stroke="orange" stroke-width="5" d="M602.28,-558.2C581.21,-551.69 564.21,-543.85 557,-534.56 521.43,-488.73 538.96,-324.49 567,-273.71 618.77,-179.96 726.82,-117.33 808.09,-81.35"/>
<polygon fill="orange" stroke="orange" stroke-width="5" points="809.94,-85.32 817.36,-77.31 806.45,-77.3 809.94,-85.32"/>
<text text-anchor="middle" x="698.5" y="-330.71" font-family="Arial" font-size="20.00" fill="orange">start_next: 03/11/18, 17:14:42</text>
<text text-anchor="middle" x="698.5" y="-308.71" font-family="Arial" font-size="20.00" fill="orange">gap: &#45;5sec</text>
<text text-anchor="middle" x="698.5" y="-286.71" font-family="Arial" font-size="20.00" fill="orange">end_prev: 03/11/18, 17:14:48</text>
</g>
<!-- HOST DISCOVERY
http&#45;&gt;VULNERABILTY DISCOVERY
mysql -->
<g id="edge10" class="edge">
<title>HOST DISCOVERY
http&#45;&gt;VULNERABILTY DISCOVERY
mysql</title>
<path fill="none" stroke="purple" stroke-width="5" d="M874.2,-84.05C837.32,-129.95 790.59,-206.02 825,-265.71 853.54,-315.21 905.6,-347.05 958.08,-367.47"/>
<polygon fill="purple" stroke="purple" stroke-width="5" points="956.63,-371.6 967.53,-371.02 959.71,-363.41 956.63,-371.6"/>
<text text-anchor="middle" x="956.5" y="-240.28" font-family="Arial" font-size="20.00" fill="purple">start_next: 03/11/18, 14:54:34</text>
<text text-anchor="middle" x="956.5" y="-218.28" font-family="Arial" font-size="20.00" fill="purple">gap: 795sec</text>
<text text-anchor="middle" x="956.5" y="-196.28" font-family="Arial" font-size="20.00" fill="purple">end_prev: 03/11/18, 14:41:19</text>
</g>
<!-- HOST DISCOVERY
http&#45;&gt;VULNERABILTY DISCOVERY
mysql -->
<g id="edge25" class="edge">
<title>HOST DISCOVERY
http&#45;&gt;VULNERABILTY DISCOVERY
mysql</title>
<path fill="none" stroke="purple" stroke-width="5" d="M1073.39,-45.13C1247.51,-48.68 1503.26,-59.58 1534,-92.85 1612.67,-178.01 1610.98,-267.02 1534,-353.71 1520.61,-368.79 1440.53,-380.1 1354.23,-388.06"/>
<polygon fill="purple" stroke="purple" stroke-width="5" points="1353.79,-383.71 1344.23,-388.97 1354.58,-392.42 1353.79,-383.71"/>
<text text-anchor="middle" x="1724.5" y="-240.28" font-family="Arial" font-size="20.00" fill="purple">start_next: 03/11/18, 15:48:39</text>
<text text-anchor="middle" x="1724.5" y="-218.28" font-family="Arial" font-size="20.00" fill="purple">gap: 565sec</text>
<text text-anchor="middle" x="1724.5" y="-196.28" font-family="Arial" font-size="20.00" fill="purple">end_prev: 03/11/18, 15:39:15</text>
</g>
<!-- INFO DISCOVERY
http -->
<g id="node7" class="node">
<title>INFO DISCOVERY
http</title>
<g id="a_node7"><a xlink:title="GPL WEB_SERVER viewcode access&#10;GPL WEB_SERVER .htaccess access&#10;GPL WEB_SERVER writeto.cnf access&#10;GPL WEB_SERVER iisadmin access&#10;ET WEB_SERVER PHP Easteregg Information&#45;Disclosure (funny&#45;logo)&#10;ET POLICY Http Client Body contains passwd= in cleartext&#10;ET WEB_SPECIFIC_APPS Request to Wordpress W3TC Plug&#45;in dbcache Directory&#10;GPL WEB_SERVER services.cnf access&#10;ET WEB_SERVER PHP Easteregg Information&#45;Disclosure (zend&#45;logo)&#10;GPL EXPLOIT unicode directory traversal attempt&#10;ET WEB_SERVER PHP Easteregg Information&#45;Disclosure (php&#45;logo)&#10;GPL WEB_SERVER service.cnf access&#10;GPL EXPLOIT iisadmpwd attempt&#10;ET WEB_SERVER PHP SESSION SuperGlobal in URI&#10;GPL WEB_SERVER /~root access&#10;GPL WEB_SERVER authors.pwd access&#10;ET WEB_SERVER PHP ENV SuperGlobal in URI&#10;GPL EXPLOIT .cnf access&#10;GPL WEB_SERVER .htpasswd access&#10;ET POLICY Proxy TRACE Request &#45; inbound&#10;GPL WEB_SERVER global.asa access&#10;ET WEB_SERVER PHP SERVER SuperGlobal in URI&#10;GPL EXPLOIT fpcount access&#10;GPL WEB_SERVER globals.pl access&#10;GPL WEB_SERVER 403 Forbidden&#10;GPL WEB_SERVER service.pwd&#10;GPL EXPLOIT ISAPI .idq attempt&#10;ET WEB_SERVER PHP Easteregg Information&#45;Disclosure (phpinfo)&#10;GPL WEB_SERVER printenv access&#10;GPL WEB_SERVER author.exe access&#10;GPL EXPLOIT iissamples access&#10;GPL EXPLOIT .htr access&#10;ET WEB_SERVER PHP REQUEST SuperGlobal in URI">
<ellipse fill="yellow" stroke="black" stroke-width="3" cx="1123" cy="-765.84" rx="156.04" ry="42.35"/>
<text text-anchor="middle" x="1123" y="-772.64" font-family="Arial" font-size="24.00">INFO DISCOVERY</text>
<text text-anchor="middle" x="1123" y="-746.64" font-family="Arial" font-size="24.00">http</text>
</a>
</g>
</g>
<!-- HOST DISCOVERY
http&#45;&gt;INFO DISCOVERY
http -->
<g id="edge5" class="edge">
<title>HOST DISCOVERY
http&#45;&gt;INFO DISCOVERY
http</title>
<path fill="none" stroke="orange" stroke-width="5" d="M749.75,-48.5C643.48,-54.26 501.79,-66.57 379,-92.85 204.95,-130.11 0,-44.28 0,-222.28 0,-222.28 0,-222.28 0,-585.98 0,-682.08 649.57,-735.46 960.66,-755.51"/>
<polygon fill="orange" stroke="orange" stroke-width="5" points="960.41,-759.88 970.67,-756.15 960.97,-751.15 960.41,-759.88"/>
<text text-anchor="middle" x="131.5" y="-421.13" font-family="Arial" font-size="20.00" fill="orange">start_next: 03/11/18, 21:18:00</text>
<text text-anchor="middle" x="131.5" y="-399.13" font-family="Arial" font-size="20.00" fill="orange">gap: 14592sec</text>
<text text-anchor="middle" x="131.5" y="-377.13" font-family="Arial" font-size="20.00" fill="orange">end_prev: 03/11/18, 17:14:48</text>
</g>
<!-- SERVICE DISCOVERY
ssh -->
<g id="node8" class="node">
<title>SERVICE DISCOVERY
ssh</title>
<g id="a_node8"><a xlink:title="ET SCAN Potential SSH Scan">
<ellipse fill="yellow" stroke="black" stroke-width="3" cx="1281" cy="-223.28" rx="189.51" ry="42.35"/>
<text text-anchor="middle" x="1281" y="-230.08" font-family="Arial" font-size="24.00">SERVICE DISCOVERY</text>
<text text-anchor="middle" x="1281" y="-204.08" font-family="Arial" font-size="24.00">ssh</text>
</a>
</g>
</g>
<!-- HOST DISCOVERY
http&#45;&gt;SERVICE DISCOVERY
ssh -->
<g id="edge21" class="edge">
<title>HOST DISCOVERY
http&#45;&gt;SERVICE DISCOVERY
ssh</title>
<path fill="none" stroke="purple" stroke-width="5" d="M1069.6,-52.05C1139.21,-58.88 1210.99,-71.09 1237,-92.85 1249.4,-103.23 1261.06,-139.22 1269.26,-170.63"/>
<polygon fill="purple" stroke="purple" stroke-width="5" points="1265.1,-172.01 1271.8,-180.62 1273.58,-169.85 1265.1,-172.01"/>
<text text-anchor="middle" x="1401.5" y="-149.85" font-family="Arial" font-size="20.00" fill="purple">start_next: 03/11/18, 14:32:33</text>
<text text-anchor="middle" x="1401.5" y="-127.85" font-family="Arial" font-size="20.00" fill="purple">gap: &#45;1sec</text>
<text text-anchor="middle" x="1401.5" y="-105.85" font-family="Arial" font-size="20.00" fill="purple">end_prev: 03/11/18, 14:32:34</text>
</g>
<!-- INFO DISCOVERY
http&#45;&gt;NETWORK DoS
http | ID: 112 -->
<g id="edge29" class="edge">
<title>INFO DISCOVERY
http&#45;&gt;NETWORK DoS
http | ID: 112</title>
<path fill="none" stroke="purple" stroke-width="5" d="M1278.43,-770.67C1427.8,-775.99 1634.55,-788.36 1660,-816.26 1682,-840.38 1672.75,-859.1 1660.38,-894.22"/>
<polygon fill="purple" stroke="purple" stroke-width="5" points="1656.11,-893.16 1657.01,-904.04 1664.39,-896 1656.11,-893.16"/>
<text text-anchor="start" x="1674" y="-881.26" font-family="Arial" font-size="20.00" fill="purple"> start_next: 03/11/18, 17:29:55</text>
<text text-anchor="start" x="1755.5" y="-861.26" font-family="Arial" font-size="20.00" fill="purple">gap: &#45;42sec</text>
<text text-anchor="start" x="1678" y="-841.26" font-family="Arial" font-size="20.00" fill="purple">end_prev: 03/11/18, 17:30:37</text>
<text text-anchor="start" x="1703" y="-821.26" font-family="Arial" font-weight="bold" font-size="20.00" fill="purple">Attacker: 10.0.254.203</text>
</g>
<!-- INFO DISCOVERY
http&#45;&gt;NETWORK DoS
http | ID: 5 -->
<g id="edge6" class="edge">
<title>INFO DISCOVERY
http&#45;&gt;NETWORK DoS
http | ID: 5</title>
<path fill="none" stroke="orange" stroke-width="5" d="M1123,-808.45C1123,-833.74 1123,-866.42 1123,-894.23"/>
<polygon fill="orange" stroke="orange" stroke-width="5" points="1118.63,-894.23 1123,-904.23 1127.38,-894.23 1118.63,-894.23"/>
<text text-anchor="middle" x="1254.5" y="-873.26" font-family="Arial" font-size="20.00" fill="orange">start_next: 03/11/18, 21:18:00</text>
<text text-anchor="middle" x="1254.5" y="-851.26" font-family="Arial" font-size="20.00" fill="orange">gap: &#45;239sec</text>
<text text-anchor="middle" x="1254.5" y="-829.26" font-family="Arial" font-size="20.00" fill="orange">end_prev: 03/11/18, 21:21:59</text>
</g>
<!-- INFO DISCOVERY
http&#45;&gt;NETWORK DoS
http | ID: 5 -->
<g id="edge14" class="edge">
<title>INFO DISCOVERY
http&#45;&gt;NETWORK DoS
http | ID: 5</title>
<path fill="none" stroke="purple" stroke-width="5" d="M1272.44,-778.27C1323.24,-785.51 1371.21,-797.25 1387,-816.26 1398.36,-829.94 1398.19,-882.45 1387,-896.26 1370.86,-916.19 1320.27,-929.31 1267.63,-937.8"/>
<polygon fill="purple" stroke="purple" stroke-width="5" points="1266.65,-933.53 1257.44,-939.39 1267.99,-942.17 1266.65,-933.53"/>
<text text-anchor="middle" x="1527.5" y="-873.26" font-family="Arial" font-size="20.00" fill="purple">start_next: 03/11/18, 15:19:21</text>
<text text-anchor="middle" x="1527.5" y="-851.26" font-family="Arial" font-size="20.00" fill="purple">gap: &#45;11sec</text>
<text text-anchor="middle" x="1527.5" y="-829.26" font-family="Arial" font-size="20.00" fill="purple">end_prev: 03/11/18, 15:19:32</text>
</g>
<!-- INFO DISCOVERY
http&#45;&gt;NETWORK DoS
http | ID: 5 -->
<g id="edge19" class="edge">
<title>INFO DISCOVERY
http&#45;&gt;NETWORK DoS
http | ID: 5</title>
<path fill="none" stroke="purple" stroke-width="5" d="M967.43,-770.4C815.39,-775.53 603.04,-787.76 577,-816.26 553.02,-842.51 553.18,-869.87 577,-896.26 602.81,-924.85 813.75,-939.66 965.72,-946.69"/>
<polygon fill="purple" stroke="purple" stroke-width="5" points="965.91,-951.08 976.1,-947.17 966.31,-942.34 965.91,-951.08"/>
<text text-anchor="middle" x="708.5" y="-873.26" font-family="Arial" font-size="20.00" fill="purple">start_next: 03/11/18, 20:34:40</text>
<text text-anchor="middle" x="708.5" y="-851.26" font-family="Arial" font-size="20.00" fill="purple">gap: &#45;289sec</text>
<text text-anchor="middle" x="708.5" y="-829.26" font-family="Arial" font-size="20.00" fill="purple">end_prev: 03/11/18, 20:39:29</text>
</g>
<!-- INFO DISCOVERY
http&#45;&gt;NETWORK DoS
http | ID: 5 -->
<g id="edge28" class="edge">
<title>INFO DISCOVERY
http&#45;&gt;NETWORK DoS
http | ID: 5</title>
<path fill="none" stroke="purple" stroke-width="5" d="M973.56,-778.27C922.76,-785.51 874.79,-797.25 859,-816.26 836.29,-843.62 836.62,-868.64 859,-896.26 875.14,-916.19 925.73,-929.31 978.37,-937.8"/>
<polygon fill="purple" stroke="purple" stroke-width="5" points="978.01,-942.17 988.56,-939.39 979.35,-933.53 978.01,-942.17"/>
<text text-anchor="middle" x="990.5" y="-873.26" font-family="Arial" font-size="20.00" fill="purple">start_next: 03/11/18, 22:31:16</text>
<text text-anchor="middle" x="990.5" y="-851.26" font-family="Arial" font-size="20.00" fill="purple">gap: &#45;71sec</text>
<text text-anchor="middle" x="990.5" y="-829.26" font-family="Arial" font-size="20.00" fill="purple">end_prev: 03/11/18, 22:32:27</text>
</g>
<!-- SERVICE DISCOVERY
ssh&#45;&gt;VULNERABILTY DISCOVERY
mysql -->
<g id="edge7" class="edge">
<title>SERVICE DISCOVERY
ssh&#45;&gt;VULNERABILTY DISCOVERY
mysql</title>
<path fill="none" stroke="purple" stroke-width="5" d="M1150.66,-254.12C1128.82,-258.46 1106.33,-262.53 1085,-265.71 1074.96,-267.2 1000.86,-266.22 994,-273.71 969.98,-299.92 974.01,-324.3 994,-353.71 995.31,-355.63 996.7,-357.47 998.17,-359.25"/>
<polygon fill="purple" stroke="purple" stroke-width="5" points="995.05,-362.32 1005.1,-366.58 1001.41,-356.3 995.05,-362.32"/>
<text text-anchor="start" x="994" y="-338.71" font-family="Arial" font-size="20.00" fill="purple"> start_next: 03/11/18, 14:41:07</text>
<text text-anchor="start" x="1067.5" y="-318.71" font-family="Arial" font-size="20.00" fill="purple">gap: 2252sec</text>
<text text-anchor="start" x="998" y="-298.71" font-family="Arial" font-size="20.00" fill="purple">end_prev: 03/11/18, 14:03:36</text>
<text text-anchor="start" x="1023" y="-278.71" font-family="Arial" font-weight="bold" font-size="20.00" fill="purple">Attacker: 10.0.254.202</text>
</g>
<!-- SERVICE DISCOVERY
ssh&#45;&gt;VULNERABILTY DISCOVERY
mysql -->
<g id="edge22" class="edge">
<title>SERVICE DISCOVERY
ssh&#45;&gt;VULNERABILTY DISCOVERY
mysql</title>
<path fill="none" stroke="purple" stroke-width="5" d="M1274.97,-265.84C1269.5,-302.38 1261.88,-350.28 1259,-353.71 1256.8,-356.32 1254.45,-358.79 1251.98,-361.14"/>
<polygon fill="purple" stroke="purple" stroke-width="5" points="1248.96,-357.96 1244.2,-367.78 1254.65,-364.61 1248.96,-357.96"/>
<text text-anchor="middle" x="1405.5" y="-330.71" font-family="Arial" font-size="20.00" fill="purple">start_next: 03/11/18, 15:39:05</text>
<text text-anchor="middle" x="1405.5" y="-308.71" font-family="Arial" font-size="20.00" fill="purple">gap: 3993sec</text>
<text text-anchor="middle" x="1405.5" y="-286.71" font-family="Arial" font-size="20.00" fill="purple">end_prev: 03/11/18, 14:32:33</text>
</g>
<!-- SERVICE DISCOVERY
ssh&#45;&gt;HOST DISCOVERY
http -->
<g id="edge20" class="edge">
<title>SERVICE DISCOVERY
ssh&#45;&gt;HOST DISCOVERY
http</title>
<path fill="none" stroke="purple" stroke-width="5" d="M1151.5,-192.29C1129.41,-187.92 1106.61,-183.89 1085,-180.85 1072.54,-179.1 982.38,-179.97 972,-172.85 945.78,-154.9 930.54,-122.57 921.84,-94.72"/>
<polygon fill="purple" stroke="purple" stroke-width="5" points="926.03,-93.46 919.03,-85.08 917.63,-95.91 926.03,-93.46"/>
<text text-anchor="start" x="972" y="-157.85" font-family="Arial" font-size="20.00" fill="purple"> start_next: 03/11/18, 14:32:33</text>
<text text-anchor="start" x="1051.5" y="-137.85" font-family="Arial" font-size="20.00" fill="purple">gap: 469sec</text>
<text text-anchor="start" x="976" y="-117.85" font-family="Arial" font-size="20.00" fill="purple">end_prev: 03/11/18, 14:24:44</text>
<text text-anchor="start" x="1001" y="-97.85" font-family="Arial" font-weight="bold" font-size="20.00" fill="purple">Attacker: 10.0.254.206</text>
</g>
<!-- SERVICE DISCOVERY
unknown&#45;&gt;HOST DISCOVERY
http -->
<g id="edge9" class="edge">
<title>SERVICE DISCOVERY
unknown&#45;&gt;HOST DISCOVERY
http</title>
<path fill="none" stroke="purple" stroke-width="5" d="M1569.94,-569.18C1725.35,-555.89 1927.89,-537.96 1931,-534.56 2039.24,-415.9 1968.98,-295.98 1857,-180.85 1752.78,-73.71 1326.87,-49.3 1083.57,-44.25"/>
<polygon fill="purple" stroke="purple" stroke-width="5" points="1083.64,-39.88 1073.56,-44.05 1083.47,-48.62 1083.64,-39.88"/>
<text text-anchor="middle" x="2107.5" y="-330.71" font-family="Arial" font-size="20.00" fill="purple">start_next: 03/11/18, 14:41:18</text>
<text text-anchor="middle" x="2107.5" y="-308.71" font-family="Arial" font-size="20.00" fill="purple">gap: 0sec</text>
<text text-anchor="middle" x="2107.5" y="-286.71" font-family="Arial" font-size="20.00" fill="purple">end_prev: 03/11/18, 14:41:18</text>
</g>
<!-- SERVICE DISCOVERY
unknown&#45;&gt;INFO DISCOVERY
http -->
<g id="edge13" class="edge">
<title>SERVICE DISCOVERY
unknown&#45;&gt;INFO DISCOVERY
http</title>
<path fill="none" stroke="purple" stroke-width="5" d="M1402.7,-627.45C1406.06,-655.66 1404.97,-691.99 1384,-715.41 1368.95,-732.21 1327.29,-743.39 1281.56,-750.79"/>
<polygon fill="purple" stroke="purple" stroke-width="5" points="1280.65,-746.51 1271.44,-752.36 1281.99,-755.15 1280.65,-746.51"/>
<text text-anchor="middle" x="1536.5" y="-692.41" font-family="Arial" font-size="20.00" fill="purple">start_next: 03/11/18, 15:19:21</text>
<text text-anchor="middle" x="1536.5" y="-670.41" font-family="Arial" font-size="20.00" fill="purple">gap: 811sec</text>
<text text-anchor="middle" x="1536.5" y="-648.41" font-family="Arial" font-size="20.00" fill="purple">end_prev: 03/11/18, 15:05:50</text>
</g>
<!-- SERVICE DISCOVERY
unknown&#45;&gt;INFO DISCOVERY
http -->
<g id="edge27" class="edge">
<title>SERVICE DISCOVERY
unknown&#45;&gt;INFO DISCOVERY
http</title>
<path fill="none" stroke="purple" stroke-width="5" d="M1216.83,-600.08C1172.8,-607.41 1134.1,-618.54 1120,-635.41 1102.24,-656.67 1102.27,-687.46 1107.09,-713.67"/>
<polygon fill="purple" stroke="purple" stroke-width="5" points="1102.81,-714.58 1109.14,-723.47 1111.37,-712.78 1102.81,-714.58"/>
<text text-anchor="middle" x="1251.5" y="-692.41" font-family="Arial" font-size="20.00" fill="purple">start_next: 03/11/18, 22:31:16</text>
<text text-anchor="middle" x="1251.5" y="-670.41" font-family="Arial" font-size="20.00" fill="purple">gap: 24155sec</text>
<text text-anchor="middle" x="1251.5" y="-648.41" font-family="Arial" font-size="20.00" fill="purple">end_prev: 03/11/18, 15:48:40</text>
</g>
<!-- SERVICE DISCOVERY
unknown&#45;&gt;SERVICE DISCOVERY
unknown -->
<g id="edge12" class="edge">
<title>SERVICE DISCOVERY
unknown&#45;&gt;SERVICE DISCOVERY
unknown</title>
<path fill="none" stroke="purple" stroke-width="5" d="M1577.98,-574.7C1585.9,-577.34 1590.5,-580.77 1590.5,-584.98 1590.5,-587.09 1589.35,-589.01 1587.21,-590.72"/>
<polygon fill="purple" stroke="purple" stroke-width="5" points="1585.02,-586.92 1577.98,-595.27 1588.89,-594.77 1585.02,-586.92"/>
<text text-anchor="middle" x="1722" y="-601.98" font-family="Arial" font-size="20.00" fill="purple">start_next: 03/11/18, 15:05:50</text>
<text text-anchor="middle" x="1722" y="-579.98" font-family="Arial" font-size="20.00" fill="purple">gap: 640sec</text>
<text text-anchor="middle" x="1722" y="-557.98" font-family="Arial" font-size="20.00" fill="purple">end_prev: 03/11/18, 14:55:10</text>
</g>
<!-- SURFING
http -->
<g id="node10" class="node">
<title>SURFING
http</title>
<g id="a_node10"><a xlink:title="ET WEB_SERVER WEB&#45;PHP phpinfo access">
<ellipse fill="yellow" stroke="black" stroke-width="3" cx="1960" cy="-584.98" rx="88.28" ry="42.35"/>
<text text-anchor="middle" x="1960" y="-591.78" font-family="Arial" font-size="24.00">SURFING</text>
<text text-anchor="middle" x="1960" y="-565.78" font-family="Arial" font-size="24.00">http</text>
</a>
</g>
</g>
<!-- SURFING
http&#45;&gt;INFO DISCOVERY
http -->
<g id="edge18" class="edge">
<title>SURFING
http&#45;&gt;INFO DISCOVERY
http</title>
<path fill="none" stroke="purple" stroke-width="5" d="M1900.77,-616.54C1890.1,-620.91 1878.9,-624.8 1868,-627.41 1849.39,-631.86 1711.41,-624.07 1696,-635.41 1665.55,-657.84 1696.95,-692.32 1667,-715.41 1637.31,-738.3 1436.77,-751.77 1287.75,-758.72"/>
<polygon fill="purple" stroke="purple" stroke-width="5" points="1287.35,-754.36 1277.57,-759.19 1287.76,-763.1 1287.35,-754.36"/>
<text text-anchor="middle" x="1827.5" y="-692.41" font-family="Arial" font-size="20.00" fill="purple">start_next: 03/11/18, 20:29:41</text>
<text text-anchor="middle" x="1827.5" y="-670.41" font-family="Arial" font-size="20.00" fill="purple">gap: 16885sec</text>
<text text-anchor="middle" x="1827.5" y="-648.41" font-family="Arial" font-size="20.00" fill="purple">end_prev: 03/11/18, 15:48:16</text>
</g>
<!-- INFO DISCOVERY
unknown -->
<g id="node11" class="node">
<title>INFO DISCOVERY
unknown</title>
<g id="a_node11"><a xlink:title="GPL WEB_SERVER 403 Forbidden&#10;ET WEB_SERVER Possible Attempt to Get SQL Server Version in URI using SELECT VERSION">
<ellipse fill="none" stroke="black" stroke-width="3" cx="1959" cy="-765.84" rx="156.04" ry="42.35"/>
<text text-anchor="middle" x="1959" y="-772.64" font-family="Arial" font-size="24.00">INFO DISCOVERY</text>
<text text-anchor="middle" x="1959" y="-746.64" font-family="Arial" font-size="24.00">unknown</text>
</a>
</g>
</g>
<!-- SURFING
http&#45;&gt;INFO DISCOVERY
unknown -->
<g id="edge15" class="edge">
<title>SURFING
http&#45;&gt;INFO DISCOVERY
unknown</title>
<path fill="none" stroke="purple" stroke-width="5" d="M1959.77,-627.47C1959.63,-653 1959.44,-685.93 1959.29,-713.15"/>
<polygon fill="purple" stroke="purple" stroke-width="5" points="1954.91,-713.25 1959.23,-723.27 1963.66,-713.3 1954.91,-713.25"/>
<text text-anchor="start" x="1960" y="-700.41" font-family="Arial" font-size="20.00" fill="purple"> start_next: 03/11/18, 15:37:48</text>
<text text-anchor="start" x="2033.5" y="-680.41" font-family="Arial" font-size="20.00" fill="purple">gap: 1096sec</text>
<text text-anchor="start" x="1964" y="-660.41" font-family="Arial" font-size="20.00" fill="purple">end_prev: 03/11/18, 15:19:32</text>
<text text-anchor="start" x="1989" y="-640.41" font-family="Arial" font-weight="bold" font-size="20.00" fill="purple">Attacker: 10.0.254.202</text>
</g>
<!-- REMOTE SERVICE EXPLOIT
http | ID: 33 -->
<g id="node12" class="node">
<title>REMOTE SERVICE EXPLOIT
http | ID: 33</title>
<g id="a_node12"><a xlink:title="ET WEB_SERVER Script tag in URI Possible Cross Site Scripting Attempt">
<polygon fill="none" stroke="black" stroke-width="3" points="2182,-983.25 1844,-983.25 1844,-923.25 2182,-923.25 2182,-983.25"/>
<text text-anchor="middle" x="2013" y="-960.05" font-family="Arial" font-size="24.00">REMOTE SERVICE EXPLOIT</text>
<text text-anchor="middle" x="2013" y="-934.05" font-family="Arial" font-size="24.00">http | ID: 33</text>
</a>
</g>
</g>
<!-- INFO DISCOVERY
unknown&#45;&gt;REMOTE SERVICE EXPLOIT
http | ID: 33 -->
<g id="edge16" class="edge">
<title>INFO DISCOVERY
unknown&#45;&gt;REMOTE SERVICE EXPLOIT
http | ID: 33</title>
<path fill="none" stroke="purple" stroke-width="5" d="M1955.18,-808.46C1954.31,-834.55 1956.04,-868.4 1967,-896.26 1969.54,-902.71 1973.11,-908.98 1977.16,-914.85"/>
<polygon fill="purple" stroke="purple" stroke-width="5" points="1973.87,-917.75 1983.37,-923.12 1980.87,-912.5 1973.87,-917.75"/>
<text text-anchor="middle" x="2098.5" y="-873.26" font-family="Arial" font-size="20.00" fill="purple">start_next: 03/11/18, 15:37:48</text>
<text text-anchor="middle" x="2098.5" y="-851.26" font-family="Arial" font-size="20.00" fill="purple">gap: &#45;67sec</text>
<text text-anchor="middle" x="2098.5" y="-829.26" font-family="Arial" font-size="20.00" fill="purple">end_prev: 03/11/18, 15:38:55</text>
</g>
<!-- REMOTE SERVICE EXPLOIT
http | ID: 33&#45;&gt;SURFING
http -->
<g id="edge17" class="edge">
<title>REMOTE SERVICE EXPLOIT
http | ID: 33&#45;&gt;SURFING
http</title>
<path fill="none" stroke="purple" stroke-width="5" d="M2175.26,-923.22C2199.34,-915.78 2218.84,-906.83 2227,-896.26 2297.85,-804.5 2301.14,-724.54 2227,-635.41 2205.49,-609.56 2125.02,-597.17 2058,-591.27"/>
<polygon fill="purple" stroke="purple" stroke-width="5" points="2058.12,-586.89 2047.79,-590.41 2057.39,-595.61 2058.12,-586.89"/>
<text text-anchor="middle" x="2412.5" y="-782.84" font-family="Arial" font-size="20.00" fill="purple">start_next: 03/11/18, 15:46:34</text>
<text text-anchor="middle" x="2412.5" y="-760.84" font-family="Arial" font-size="20.00" fill="purple">gap: 459sec</text>
<text text-anchor="middle" x="2412.5" y="-738.84" font-family="Arial" font-size="20.00" fill="purple">end_prev: 03/11/18, 15:38:55</text>
</g>
<!-- SERVICE DISCOVERY
cpdlc&#45;&gt;HOST DISCOVERY
http -->
<g id="edge24" class="edge">
<title>SERVICE DISCOVERY
cpdlc&#45;&gt;HOST DISCOVERY
http</title>
<path fill="none" stroke="purple" stroke-width="5" d="M307.56,-542.62C288.16,-468.71 253.44,-317.6 281,-273.71 377.25,-120.42 588.86,-68.38 740.27,-51.15"/>
<polygon fill="purple" stroke="purple" stroke-width="5" points="741.14,-55.46 750.61,-50.02 740.19,-46.76 741.14,-55.46"/>
<text text-anchor="middle" x="412.5" y="-330.71" font-family="Arial" font-size="20.00" fill="purple">start_next: 03/11/18, 15:39:15</text>
<text text-anchor="middle" x="412.5" y="-308.71" font-family="Arial" font-size="20.00" fill="purple">gap: 7sec</text>
<text text-anchor="middle" x="412.5" y="-286.71" font-family="Arial" font-size="20.00" fill="purple">end_prev: 03/11/18, 15:39:07</text>
</g>
</g>
</svg>
