<?xml version="1.0" encoding="UTF-8" standalone="no"?>
<!DOCTYPE svg PUBLIC "-//W3C//DTD SVG 1.1//EN"
 "http://www.w3.org/Graphics/SVG/1.1/DTD/svg11.dtd">
<!-- Generated by graphviz version 2.50.0 (0)
 -->
<!-- Title: DATADELIVERYhttp Pages: 1 -->
<svg width="2754pt" height="2051pt"
 viewBox="0.00 0.00 2754.00 2051.45" xmlns="http://www.w3.org/2000/svg" xmlns:xlink="http://www.w3.org/1999/xlink">
<g id="graph0" class="graph" transform="scale(1 1) rotate(0) translate(4 2047.45)">
<title>DATADELIVERYhttp</title>
<polygon fill="white" stroke="transparent" points="-4,4 -4,-2047.45 2750,-2047.45 2750,4 -4,4"/>
<!-- Victim: 10.0.0.35
DATA DELIVERY
http -->
<g id="node1" class="node">
<title>Victim: 10.0.0.35
DATA DELIVERY
http</title>
<polygon fill="salmon" stroke="black" stroke-width="3" points="702.14,-1946.43 702.14,-2000.82 612.43,-2039.28 485.57,-2039.28 395.86,-2000.82 395.86,-1946.43 485.57,-1907.97 612.43,-1907.97 702.14,-1946.43"/>
<polygon fill="none" stroke="black" stroke-width="3" points="706.15,-1943.8 706.15,-2003.45 613.26,-2043.27 484.74,-2043.27 391.85,-2003.45 391.85,-1943.8 484.74,-1903.98 613.26,-1903.98 706.15,-1943.8"/>
<text text-anchor="middle" x="549" y="-1993.42" font-family="Arial" font-size="24.00">Victim: 10.0.0.35</text>
<text text-anchor="middle" x="549" y="-1967.42" font-family="Arial" font-size="24.00">DATA DELIVERY</text>
<text text-anchor="middle" x="549" y="-1941.42" font-family="Arial" font-size="24.00">http</text>
</g>
<!-- DATA DELIVERY
http | ID: 21 -->
<g id="node2" class="node">
<title>DATA DELIVERY
http | ID: 21</title>
<g id="a_node2"><a xlink:title="GPL WEB_SERVER perl post attempt">
<polygon fill="salmon" stroke="black" stroke-width="3" points="546.1,-1837.81 464.55,-1886.79 301.45,-1886.79 219.9,-1837.81 301.45,-1788.83 464.55,-1788.83 546.1,-1837.81"/>
<text text-anchor="middle" x="383" y="-1844.61" font-family="Arial" font-size="24.00">DATA DELIVERY</text>
<text text-anchor="middle" x="383" y="-1818.61" font-family="Arial" font-size="24.00">http | ID: 21</text>
</a>
</g>
</g>
<!-- DATA DELIVERY
http | ID: 21&#45;&gt;Victim: 10.0.0.35
DATA DELIVERY
http -->
<g id="edge1" class="edge">
<title>DATA DELIVERY
http | ID: 21&#45;&gt;Victim: 10.0.0.35
DATA DELIVERY
http</title>
<path fill="none" stroke="black" stroke-width="5" d="M442.93,-1887.12C449.47,-1892.39 456.22,-1897.83 463,-1903.3"/>
<polygon fill="black" stroke="black" stroke-width="5" points="460.42,-1906.84 470.95,-1909.71 465.91,-1900.03 460.42,-1906.84"/>
</g>
<!-- DATA DELIVERY
http | ID: 705 -->
<g id="node3" class="node">
<title>DATA DELIVERY
http | ID: 705</title>
<g id="a_node3"><a xlink:title="GPL WEB_SERVER perl post attempt">
<polygon fill="none" stroke="black" stroke-width="3" stroke-dasharray="1,5" points="978.1,-1837.81 896.55,-1886.79 733.45,-1886.79 651.9,-1837.81 733.45,-1788.83 896.55,-1788.83 978.1,-1837.81"/>
<text text-anchor="middle" x="815" y="-1844.61" font-family="Arial" font-size="24.00">DATA DELIVERY</text>
<text text-anchor="middle" x="815" y="-1818.61" font-family="Arial" font-size="24.00">http | ID: 705</text>
</a>
</g>
</g>
<!-- DATA DELIVERY
http | ID: 705&#45;&gt;Victim: 10.0.0.35
DATA DELIVERY
http -->
<g id="edge2" class="edge">
<title>DATA DELIVERY
http | ID: 705&#45;&gt;Victim: 10.0.0.35
DATA DELIVERY
http</title>
<path fill="none" stroke="black" stroke-width="5" d="M726.8,-1883.18C705.93,-1893.68 683.39,-1905.02 661.61,-1915.98"/>
<polygon fill="black" stroke="black" stroke-width="5" points="659.62,-1912.08 652.65,-1920.48 663.55,-1919.9 659.62,-1912.08"/>
</g>
<!-- SERVICE DISCOVERY
unknown -->
<g id="node4" class="node">
<title>SERVICE DISCOVERY
unknown</title>
<g id="a_node4"><a xlink:title="ET SCAN Potential VNC Scan 5800&#45;5820&#10;ET SCAN NMAP OS Detection Probe">
<ellipse fill="yellow" stroke="black" stroke-width="3" cx="720" cy="-840.98" rx="189.51" ry="42.35"/>
<text text-anchor="middle" x="720" y="-847.78" font-family="Arial" font-size="24.00">SERVICE DISCOVERY</text>
<text text-anchor="middle" x="720" y="-821.78" font-family="Arial" font-size="24.00">unknown</text>
</a>
</g>
</g>
<!-- VULNERABILTY DISCOVERY
ms&#45;sql&#45;s -->
<g id="node5" class="node">
<title>VULNERABILTY DISCOVERY
ms&#45;sql&#45;s</title>
<g id="a_node5"><a xlink:title="ET POLICY Suspicious inbound to MSSQL port 1433&#10;ET POLICY Suspicious inbound to Oracle SQL port 1521">
<ellipse fill="none" stroke="black" stroke-width="3" cx="909" cy="-1021.84" rx="241.25" ry="42.35"/>
<text text-anchor="middle" x="909" y="-1028.64" font-family="Arial" font-size="24.00">VULNERABILTY DISCOVERY</text>
<text text-anchor="middle" x="909" y="-1002.64" font-family="Arial" font-size="24.00">ms&#45;sql&#45;s</text>
</a>
</g>
</g>
<!-- SERVICE DISCOVERY
unknown&#45;&gt;VULNERABILTY DISCOVERY
ms&#45;sql&#45;s -->
<g id="edge3" class="edge">
<title>SERVICE DISCOVERY
unknown&#45;&gt;VULNERABILTY DISCOVERY
ms&#45;sql&#45;s</title>
<path fill="none" stroke="blue" stroke-width="5" d="M762.89,-882.57C791.2,-909.36 828.43,-944.59 858.22,-972.79"/>
<polygon fill="blue" stroke="blue" stroke-width="5" points="855.36,-976.1 865.63,-979.79 861.37,-969.74 855.36,-976.1"/>
<text text-anchor="start" x="854" y="-956.41" font-family="Arial" font-size="20.00" fill="blue"> start_next: 04/11/17, 12:55:53</text>
<text text-anchor="start" x="939" y="-936.41" font-family="Arial" font-size="20.00" fill="blue">gap: 37sec</text>
<text text-anchor="start" x="858" y="-916.41" font-family="Arial" font-size="20.00" fill="blue">end_prev: 04/11/17, 12:55:16</text>
<text text-anchor="start" x="888.5" y="-896.41" font-family="Arial" font-weight="bold" font-size="20.00" fill="blue">Attacker: 10.0.254.31</text>
</g>
<!-- INFO DISCOVERY
http -->
<g id="node17" class="node">
<title>INFO DISCOVERY
http</title>
<g id="a_node17"><a xlink:title="GPL WEB_SERVER mod_gzip_status access&#10;GPL WEB_SERVER globals.pl access">
<ellipse fill="none" stroke="black" stroke-width="3" cx="865" cy="-1664.4" rx="156.04" ry="42.35"/>
<text text-anchor="middle" x="865" y="-1671.2" font-family="Arial" font-size="24.00">INFO DISCOVERY</text>
<text text-anchor="middle" x="865" y="-1645.2" font-family="Arial" font-size="24.00">http</text>
</a>
</g>
</g>
<!-- SERVICE DISCOVERY
unknown&#45;&gt;INFO DISCOVERY
http -->
<g id="edge16" class="edge">
<title>SERVICE DISCOVERY
unknown&#45;&gt;INFO DISCOVERY
http</title>
<path fill="none" stroke="blue" stroke-width="5" d="M696.54,-883.18C678.63,-918.54 657,-971.46 657,-1020.84 657,-1020.84 657,-1020.84 657,-1510.97 657,-1566.18 705.27,-1603.57 755.3,-1627.5"/>
<polygon fill="blue" stroke="blue" stroke-width="5" points="753.74,-1631.6 764.66,-1631.81 757.41,-1623.65 753.74,-1631.6"/>
<text text-anchor="middle" x="788.5" y="-1289.12" font-family="Arial" font-size="20.00" fill="blue">start_next: 04/11/17, 14:49:28</text>
<text text-anchor="middle" x="788.5" y="-1267.12" font-family="Arial" font-size="20.00" fill="blue">gap: 83sec</text>
<text text-anchor="middle" x="788.5" y="-1245.12" font-family="Arial" font-size="20.00" fill="blue">end_prev: 04/11/17, 14:48:05</text>
</g>
<!-- HOST DISCOVERY
ms&#45;wbt&#45;server -->
<g id="node6" class="node">
<title>HOST DISCOVERY
ms&#45;wbt&#45;server</title>
<g id="a_node6"><a xlink:title="ET SCAN Behavioral Unusually fast Terminal Server Traffic Potential Scan or Infection (Inbound)">
<ellipse fill="none" stroke="black" stroke-width="3" cx="1123" cy="-1188.69" rx="162.77" ry="42.35"/>
<text text-anchor="middle" x="1123" y="-1195.49" font-family="Arial" font-size="24.00">HOST DISCOVERY</text>
<text text-anchor="middle" x="1123" y="-1169.49" font-family="Arial" font-size="24.00">ms&#45;wbt&#45;server</text>
</a>
</g>
</g>
<!-- VULNERABILTY DISCOVERY
ms&#45;sql&#45;s&#45;&gt;HOST DISCOVERY
ms&#45;wbt&#45;server -->
<g id="edge4" class="edge">
<title>VULNERABILTY DISCOVERY
ms&#45;sql&#45;s&#45;&gt;HOST DISCOVERY
ms&#45;wbt&#45;server</title>
<path fill="none" stroke="blue" stroke-width="5" d="M939.97,-1064.08C959.5,-1088.03 986.39,-1117.47 1015,-1138.26 1019.38,-1141.45 1023.99,-1144.5 1028.75,-1147.41"/>
<polygon fill="blue" stroke="blue" stroke-width="5" points="1026.61,-1151.22 1037.45,-1152.49 1031.03,-1143.67 1026.61,-1151.22"/>
<text text-anchor="middle" x="1146.5" y="-1122.26" font-family="Arial" font-size="20.00" fill="blue">start_next: 04/11/17, 13:59:44</text>
<text text-anchor="middle" x="1146.5" y="-1100.26" font-family="Arial" font-size="20.00" fill="blue">gap: 3551sec</text>
<text text-anchor="middle" x="1146.5" y="-1078.26" font-family="Arial" font-size="20.00" fill="blue">end_prev: 04/11/17, 13:00:34</text>
</g>
<!-- VULNERABILTY DISCOVERY
postgresql -->
<g id="node7" class="node">
<title>VULNERABILTY DISCOVERY
postgresql</title>
<g id="a_node7"><a xlink:title="ET POLICY Suspicious inbound to PostgreSQL port 5432&#10;ET POLICY Suspicious inbound to mSQL port 4333">
<ellipse fill="none" stroke="black" stroke-width="3" cx="1408" cy="-1355.54" rx="241.25" ry="42.35"/>
<text text-anchor="middle" x="1408" y="-1362.34" font-family="Arial" font-size="24.00">VULNERABILTY DISCOVERY</text>
<text text-anchor="middle" x="1408" y="-1336.34" font-family="Arial" font-size="24.00">postgresql</text>
</a>
</g>
</g>
<!-- HOST DISCOVERY
ms&#45;wbt&#45;server&#45;&gt;VULNERABILTY DISCOVERY
postgresql -->
<g id="edge5" class="edge">
<title>HOST DISCOVERY
ms&#45;wbt&#45;server&#45;&gt;VULNERABILTY DISCOVERY
postgresql</title>
<path fill="none" stroke="blue" stroke-width="5" d="M1188.74,-1227.72C1230.97,-1252.14 1286.02,-1283.98 1330.39,-1309.65"/>
<polygon fill="blue" stroke="blue" stroke-width="5" points="1328.27,-1313.48 1339.11,-1314.7 1332.65,-1305.9 1328.27,-1313.48"/>
<text text-anchor="middle" x="1447.5" y="-1289.12" font-family="Arial" font-size="20.00" fill="blue">start_next: 04/11/17, 13:59:47</text>
<text text-anchor="middle" x="1447.5" y="-1267.12" font-family="Arial" font-size="20.00" fill="blue">gap: 3sec</text>
<text text-anchor="middle" x="1447.5" y="-1245.12" font-family="Arial" font-size="20.00" fill="blue">end_prev: 04/11/17, 13:59:44</text>
</g>
<!-- ARBITRARY CODE EXECUTION
ssdp | ID: 355 -->
<g id="node8" class="node">
<title>ARBITRARY CODE EXECUTION
ssdp | ID: 355</title>
<g id="a_node8"><a xlink:title="GPL MISC UPnP malformed advertisement">
<polygon fill="none" stroke="black" stroke-width="3" points="1573.5,-1539.97 1198.5,-1539.97 1198.5,-1479.97 1573.5,-1479.97 1573.5,-1539.97"/>
<text text-anchor="middle" x="1386" y="-1516.77" font-family="Arial" font-size="24.00">ARBITRARY CODE EXECUTION</text>
<text text-anchor="middle" x="1386" y="-1490.77" font-family="Arial" font-size="24.00">ssdp | ID: 355</text>
</a>
</g>
</g>
<!-- HOST DISCOVERY
ms&#45;wbt&#45;server&#45;&gt;ARBITRARY CODE EXECUTION
ssdp | ID: 355 -->
<g id="edge27" class="edge">
<title>HOST DISCOVERY
ms&#45;wbt&#45;server&#45;&gt;ARBITRARY CODE EXECUTION
ssdp | ID: 355</title>
<path fill="none" stroke="blue" stroke-width="5" d="M1061.55,-1228.12C1022.19,-1251.9 969.57,-1282.16 921,-1305.12 911.97,-1309.39 905.67,-1304.89 900,-1313.12 878.6,-1344.17 876.49,-1368.48 900,-1397.97 936.54,-1443.8 1070.46,-1472.2 1188.48,-1488.79"/>
<polygon fill="blue" stroke="blue" stroke-width="5" points="1187.89,-1493.13 1198.39,-1490.17 1189.09,-1484.46 1187.89,-1493.13"/>
<text text-anchor="middle" x="1031.5" y="-1372.54" font-family="Arial" font-size="20.00" fill="blue">start_next: 04/11/17, 20:58:19</text>
<text text-anchor="middle" x="1031.5" y="-1350.54" font-family="Arial" font-size="20.00" fill="blue">gap: 52sec</text>
<text text-anchor="middle" x="1031.5" y="-1328.54" font-family="Arial" font-size="20.00" fill="blue">end_prev: 04/11/17, 20:57:27</text>
</g>
<!-- VULNERABILTY DISCOVERY
postgresql&#45;&gt;ARBITRARY CODE EXECUTION
ssdp | ID: 355 -->
<g id="edge6" class="edge">
<title>VULNERABILTY DISCOVERY
postgresql&#45;&gt;ARBITRARY CODE EXECUTION
ssdp | ID: 355</title>
<path fill="none" stroke="blue" stroke-width="5" d="M1393.71,-1398.15C1393.06,-1400.78 1392.48,-1403.4 1392,-1405.97 1388.09,-1426.77 1386.52,-1450.3 1385.95,-1469.62"/>
<polygon fill="blue" stroke="blue" stroke-width="5" points="1381.57,-1469.78 1385.73,-1479.87 1390.32,-1469.97 1381.57,-1469.78"/>
<text text-anchor="middle" x="1523.5" y="-1455.97" font-family="Arial" font-size="20.00" fill="blue">start_next: 04/11/17, 14:01:15</text>
<text text-anchor="middle" x="1523.5" y="-1433.97" font-family="Arial" font-size="20.00" fill="blue">gap: 86sec</text>
<text text-anchor="middle" x="1523.5" y="-1411.97" font-family="Arial" font-size="20.00" fill="blue">end_prev: 04/11/17, 13:59:49</text>
</g>
<!-- REMOTE SERVICE EXPLOIT
snmp | ID: 52 -->
<g id="node9" class="node">
<title>REMOTE SERVICE EXPLOIT
snmp | ID: 52</title>
<g id="a_node9"><a xlink:title="ET SNMP Samsung Printer SNMP Hardcode RW Community String">
<polygon fill="none" stroke="black" stroke-width="3" points="1965,-1694.4 1627,-1694.4 1627,-1634.4 1965,-1634.4 1965,-1694.4"/>
<text text-anchor="middle" x="1796" y="-1671.2" font-family="Arial" font-size="24.00">REMOTE SERVICE EXPLOIT</text>
<text text-anchor="middle" x="1796" y="-1645.2" font-family="Arial" font-size="24.00">snmp | ID: 52</text>
</a>
</g>
</g>
<!-- ARBITRARY CODE EXECUTION
ssdp | ID: 355&#45;&gt;REMOTE SERVICE EXPLOIT
snmp | ID: 52 -->
<g id="edge7" class="edge">
<title>ARBITRARY CODE EXECUTION
ssdp | ID: 355&#45;&gt;REMOTE SERVICE EXPLOIT
snmp | ID: 52</title>
<path fill="none" stroke="blue" stroke-width="5" d="M1377.62,-1540.05C1372.94,-1563.04 1371.16,-1594.41 1389,-1613.97 1405.02,-1631.53 1515.09,-1644.22 1616.73,-1652.34"/>
<polygon fill="blue" stroke="blue" stroke-width="5" points="1616.54,-1656.71 1626.85,-1653.14 1617.22,-1647.99 1616.54,-1656.71"/>
<text text-anchor="middle" x="1520.5" y="-1597.97" font-family="Arial" font-size="20.00" fill="blue">start_next: 04/11/17, 14:01:40</text>
<text text-anchor="middle" x="1520.5" y="-1575.97" font-family="Arial" font-size="20.00" fill="blue">gap: 20sec</text>
<text text-anchor="middle" x="1520.5" y="-1553.97" font-family="Arial" font-size="20.00" fill="blue">end_prev: 04/11/17, 14:01:20</text>
</g>
<!-- ARBITRARY CODE EXECUTION
ssdp | ID: 355&#45;&gt;REMOTE SERVICE EXPLOIT
snmp | ID: 52 -->
<g id="edge21" class="edge">
<title>ARBITRARY CODE EXECUTION
ssdp | ID: 355&#45;&gt;REMOTE SERVICE EXPLOIT
snmp | ID: 52</title>
<path fill="none" stroke="blue" stroke-width="5" d="M1573.76,-1522.48C1607.5,-1527.98 1636.06,-1536.07 1649,-1547.97 1671.14,-1568.33 1644.21,-1591.31 1664,-1613.97 1668.81,-1619.48 1674.31,-1624.38 1680.25,-1628.73"/>
<polygon fill="blue" stroke="blue" stroke-width="5" points="1677.87,-1632.41 1688.61,-1634.34 1682.74,-1625.14 1677.87,-1632.41"/>
<text text-anchor="middle" x="1795.5" y="-1597.97" font-family="Arial" font-size="20.00" fill="blue">start_next: 04/11/17, 18:00:56</text>
<text text-anchor="middle" x="1795.5" y="-1575.97" font-family="Arial" font-size="20.00" fill="blue">gap: 27sec</text>
<text text-anchor="middle" x="1795.5" y="-1553.97" font-family="Arial" font-size="20.00" fill="blue">end_prev: 04/11/17, 18:00:29</text>
</g>
<!-- ARBITRARY CODE EXECUTION
ssdp | ID: 355&#45;&gt;INFO DISCOVERY
http -->
<g id="edge28" class="edge">
<title>ARBITRARY CODE EXECUTION
ssdp | ID: 355&#45;&gt;INFO DISCOVERY
http</title>
<path fill="none" stroke="blue" stroke-width="5" d="M1198.37,-1528.41C1168.81,-1533.39 1138.84,-1539.78 1111,-1547.97 1051.05,-1565.61 987.28,-1595.9 939.69,-1621.03"/>
<polygon fill="blue" stroke="blue" stroke-width="5" points="937.47,-1617.25 930.69,-1625.81 941.58,-1624.98 937.47,-1617.25"/>
<text text-anchor="middle" x="1242.5" y="-1597.97" font-family="Arial" font-size="20.00" fill="blue">start_next: 04/11/17, 21:08:16</text>
<text text-anchor="middle" x="1242.5" y="-1575.97" font-family="Arial" font-size="20.00" fill="blue">gap: 587sec</text>
<text text-anchor="middle" x="1242.5" y="-1553.97" font-family="Arial" font-size="20.00" fill="blue">end_prev: 04/11/17, 20:58:29</text>
</g>
<!-- INFO DISCOVERY
xdmcp -->
<g id="node10" class="node">
<title>INFO DISCOVERY
xdmcp</title>
<g id="a_node10"><a xlink:title="GPL WEB_SERVER mod_gzip_status access&#10;GPL RPC xdmcp info query">
<ellipse fill="none" stroke="black" stroke-width="3" cx="1795" cy="-42.43" rx="156.04" ry="42.35"/>
<text text-anchor="middle" x="1795" y="-49.23" font-family="Arial" font-size="24.00">INFO DISCOVERY</text>
<text text-anchor="middle" x="1795" y="-23.23" font-family="Arial" font-size="24.00">xdmcp</text>
</a>
</g>
</g>
<!-- REMOTE SERVICE EXPLOIT
snmp | ID: 52&#45;&gt;INFO DISCOVERY
xdmcp -->
<g id="edge8" class="edge">
<title>REMOTE SERVICE EXPLOIT
snmp | ID: 52&#45;&gt;INFO DISCOVERY
xdmcp</title>
<path fill="none" stroke="blue" stroke-width="5" d="M1902.27,-1634.35C1910.57,-1628.72 1918.03,-1622 1924,-1613.97 1951.42,-1577.14 1932,-1556.89 1932,-1510.97 1932,-222.28 1932,-222.28 1932,-222.28 1932,-168.97 1893.16,-121.72 1856.84,-89.2"/>
<polygon fill="blue" stroke="blue" stroke-width="5" points="1859.56,-85.76 1849.15,-82.48 1853.81,-92.35 1859.56,-85.76"/>
<text text-anchor="middle" x="2063.5" y="-857.98" font-family="Arial" font-size="20.00" fill="blue">start_next: 04/11/17, 14:01:41</text>
<text text-anchor="middle" x="2063.5" y="-835.98" font-family="Arial" font-size="20.00" fill="blue">gap: 1sec</text>
<text text-anchor="middle" x="2063.5" y="-813.98" font-family="Arial" font-size="20.00" fill="blue">end_prev: 04/11/17, 14:01:40</text>
</g>
<!-- REMOTE SERVICE EXPLOIT
snmp | ID: 52&#45;&gt;INFO DISCOVERY
xdmcp -->
<g id="edge22" class="edge">
<title>REMOTE SERVICE EXPLOIT
snmp | ID: 52&#45;&gt;INFO DISCOVERY
xdmcp</title>
<path fill="none" stroke="blue" stroke-width="5" d="M1957.75,-1634.38C2073.52,-1608.85 2209,-1567 2209,-1510.97 2209,-222.28 2209,-222.28 2209,-222.28 2209,-108.16 2074.8,-66.01 1959.21,-50.87"/>
<polygon fill="blue" stroke="blue" stroke-width="5" points="1959.62,-46.52 1949.16,-49.62 1958.54,-55.2 1959.62,-46.52"/>
<text text-anchor="middle" x="2340.5" y="-857.98" font-family="Arial" font-size="20.00" fill="blue">start_next: 04/11/17, 18:58:50</text>
<text text-anchor="middle" x="2340.5" y="-835.98" font-family="Arial" font-size="20.00" fill="blue">gap: 3473sec</text>
<text text-anchor="middle" x="2340.5" y="-813.98" font-family="Arial" font-size="20.00" fill="blue">end_prev: 04/11/17, 18:00:56</text>
</g>
<!-- ACCOUNT MANIPULATION
snmp | ID: 230 -->
<g id="node11" class="node">
<title>ACCOUNT MANIPULATION
snmp | ID: 230</title>
<g id="a_node11"><a xlink:title="GPL SNMP private access udp&#10;GPL SNMP public access udp">
<polygon fill="none" stroke="black" stroke-width="3" points="320,-336.71 0,-336.71 0,-276.71 320,-276.71 320,-336.71"/>
<text text-anchor="middle" x="160" y="-313.51" font-family="Arial" font-size="24.00">ACCOUNT MANIPULATION</text>
<text text-anchor="middle" x="160" y="-287.51" font-family="Arial" font-size="24.00">snmp | ID: 230</text>
</a>
</g>
</g>
<!-- INFO DISCOVERY
xdmcp&#45;&gt;ACCOUNT MANIPULATION
snmp | ID: 230 -->
<g id="edge9" class="edge">
<title>INFO DISCOVERY
xdmcp&#45;&gt;ACCOUNT MANIPULATION
snmp | ID: 230</title>
<path fill="none" stroke="blue" stroke-width="5" d="M1642.26,-51.65C1461.68,-61.07 1152.05,-76.32 886,-84.85 862.12,-85.62 478.67,-85.31 456,-92.85 348.38,-128.64 246.39,-218.61 194.89,-269.38"/>
<polygon fill="blue" stroke="blue" stroke-width="5" points="191.66,-266.42 187.66,-276.58 197.83,-272.62 191.66,-266.42"/>
<text text-anchor="middle" x="587.5" y="-149.85" font-family="Arial" font-size="20.00" fill="blue">start_next: 04/11/17, 14:02:34</text>
<text text-anchor="middle" x="587.5" y="-127.85" font-family="Arial" font-size="20.00" fill="blue">gap: &#45;212sec</text>
<text text-anchor="middle" x="587.5" y="-105.85" font-family="Arial" font-size="20.00" fill="blue">end_prev: 04/11/17, 14:06:05</text>
</g>
<!-- VULNERABILTY DISCOVERY
http -->
<g id="node13" class="node">
<title>VULNERABILTY DISCOVERY
http</title>
<g id="a_node13"><a xlink:title="ET POLICY Suspicious inbound to mySQL port 3306&#10;ET POLICY Suspicious inbound to MSSQL port 1433&#10;ET SCAN Nessus User Agent&#10;ET POLICY Suspicious inbound to PostgreSQL port 5432&#10;ET SCAN Nikto Web App Scan in Progress">
<ellipse fill="none" stroke="black" stroke-width="3" cx="720" cy="-223.28" rx="241.25" ry="42.35"/>
<text text-anchor="middle" x="720" y="-230.08" font-family="Arial" font-size="24.00">VULNERABILTY DISCOVERY</text>
<text text-anchor="middle" x="720" y="-204.08" font-family="Arial" font-size="24.00">http</text>
</a>
</g>
</g>
<!-- INFO DISCOVERY
xdmcp&#45;&gt;VULNERABILTY DISCOVERY
http -->
<g id="edge23" class="edge">
<title>INFO DISCOVERY
xdmcp&#45;&gt;VULNERABILTY DISCOVERY
http</title>
<path fill="none" stroke="blue" stroke-width="5" d="M1649.83,-58.46C1572.49,-67.14 1475.85,-79.07 1390,-92.85 1210.56,-121.66 1167.49,-138.65 989,-172.85 958.7,-178.66 926.46,-184.7 895.2,-190.49"/>
<polygon fill="blue" stroke="blue" stroke-width="5" points="894.13,-186.23 885.1,-192.35 895.72,-194.84 894.13,-186.23"/>
<text text-anchor="middle" x="1521.5" y="-149.85" font-family="Arial" font-size="20.00" fill="blue">start_next: 04/11/17, 19:03:50</text>
<text text-anchor="middle" x="1521.5" y="-127.85" font-family="Arial" font-size="20.00" fill="blue">gap: &#45;11sec</text>
<text text-anchor="middle" x="1521.5" y="-105.85" font-family="Arial" font-size="20.00" fill="blue">end_prev: 04/11/17, 19:04:01</text>
</g>
<!-- ACCOUNT MANIPULATION
snmp | ID: 889 -->
<g id="node19" class="node">
<title>ACCOUNT MANIPULATION
snmp | ID: 889</title>
<g id="a_node19"><a xlink:title="GPL SNMP private access udp&#10;GPL SNMP public access udp">
<polygon fill="none" stroke="black" stroke-width="3" points="1819,-478.71 1499,-478.71 1499,-418.71 1819,-418.71 1819,-478.71"/>
<text text-anchor="middle" x="1659" y="-455.51" font-family="Arial" font-size="24.00">ACCOUNT MANIPULATION</text>
<text text-anchor="middle" x="1659" y="-429.51" font-family="Arial" font-size="24.00">snmp | ID: 889</text>
</a>
</g>
</g>
<!-- INFO DISCOVERY
xdmcp&#45;&gt;ACCOUNT MANIPULATION
snmp | ID: 889 -->
<g id="edge19" class="edge">
<title>INFO DISCOVERY
xdmcp&#45;&gt;ACCOUNT MANIPULATION
snmp | ID: 889</title>
<path fill="none" stroke="blue" stroke-width="5" d="M1741.87,-82.59C1713.05,-107.21 1680.11,-141.68 1664,-180.85 1632.86,-256.59 1642.33,-354.92 1651.18,-408.57"/>
<polygon fill="blue" stroke="blue" stroke-width="5" points="1646.92,-409.57 1652.93,-418.68 1655.54,-408.08 1646.92,-409.57"/>
<text text-anchor="middle" x="1795.5" y="-240.28" font-family="Arial" font-size="20.00" fill="blue">start_next: 04/11/17, 16:30:57</text>
<text text-anchor="middle" x="1795.5" y="-218.28" font-family="Arial" font-size="20.00" fill="blue">gap: 55sec</text>
<text text-anchor="middle" x="1795.5" y="-196.28" font-family="Arial" font-size="20.00" fill="blue">end_prev: 04/11/17, 16:30:02</text>
</g>
<!-- ACCOUNT MANIPULATION
snmp | ID: 230&#45;&gt;DATA DELIVERY
http | ID: 21 -->
<g id="edge10" class="edge">
<title>ACCOUNT MANIPULATION
snmp | ID: 230&#45;&gt;DATA DELIVERY
http | ID: 21</title>
<path fill="none" stroke="blue" stroke-width="5" d="M141.57,-336.76C125.92,-364.24 106,-407.2 106,-447.71 106,-447.71 106,-447.71 106,-1665.4 106,-1740.9 181.34,-1784.27 253.43,-1808.49"/>
<polygon fill="blue" stroke="blue" stroke-width="5" points="252.25,-1812.71 263.11,-1811.64 254.96,-1804.39 252.25,-1812.71"/>
<text text-anchor="middle" x="237.5" y="-1038.84" font-family="Arial" font-size="20.00" fill="blue">start_next: 04/11/17, 14:07:56</text>
<text text-anchor="middle" x="237.5" y="-1016.84" font-family="Arial" font-size="20.00" fill="blue">gap: 314sec</text>
<text text-anchor="middle" x="237.5" y="-994.84" font-family="Arial" font-size="20.00" fill="blue">end_prev: 04/11/17, 14:02:43</text>
</g>
<!-- HOST DISCOVERY
http -->
<g id="node12" class="node">
<title>HOST DISCOVERY
http</title>
<g id="a_node12"><a xlink:title="ET SCAN Possible Nmap User&#45;Agent Observed&#10;ET SCAN Nmap Scripting Engine User&#45;Agent Detected (Nmap Scripting Engine)">
<ellipse fill="yellow" stroke="black" stroke-width="3" cx="720" cy="-42.43" rx="162.77" ry="42.35"/>
<text text-anchor="middle" x="720" y="-49.23" font-family="Arial" font-size="24.00">HOST DISCOVERY</text>
<text text-anchor="middle" x="720" y="-23.23" font-family="Arial" font-size="24.00">http</text>
</a>
</g>
</g>
<!-- HOST DISCOVERY
http&#45;&gt;VULNERABILTY DISCOVERY
http -->
<g id="edge11" class="edge">
<title>HOST DISCOVERY
http&#45;&gt;VULNERABILTY DISCOVERY
http</title>
<path fill="none" stroke="blue" stroke-width="5" d="M720,-84.91C720,-110.44 720,-143.37 720,-170.59"/>
<polygon fill="blue" stroke="blue" stroke-width="5" points="715.63,-170.71 720,-180.71 724.38,-170.71 715.63,-170.71"/>
<text text-anchor="start" x="720" y="-157.85" font-family="Arial" font-size="20.00" fill="blue"> start_next: 04/11/17, 14:46:23</text>
<text text-anchor="start" x="810.5" y="-137.85" font-family="Arial" font-size="20.00" fill="blue">gap: 1sec</text>
<text text-anchor="start" x="724" y="-117.85" font-family="Arial" font-size="20.00" fill="blue">end_prev: 04/11/17, 14:46:22</text>
<text text-anchor="start" x="754.5" y="-97.85" font-family="Arial" font-weight="bold" font-size="20.00" fill="blue">Attacker: 10.0.254.31</text>
</g>
<!-- VULNERABILTY DISCOVERY
http&#45;&gt;DATA DELIVERY
http | ID: 21 -->
<g id="edge24" class="edge">
<title>VULNERABILTY DISCOVERY
http&#45;&gt;DATA DELIVERY
http | ID: 21</title>
<path fill="none" stroke="blue" stroke-width="5" d="M518.61,-246.85C446.64,-267.13 383,-305.27 383,-376.71 383,-376.71 383,-376.71 383,-1665.4 383,-1702.99 383,-1745.22 383,-1778.36"/>
<polygon fill="blue" stroke="blue" stroke-width="5" points="378.63,-1778.78 383,-1788.79 387.38,-1778.79 378.63,-1778.78"/>
<text text-anchor="middle" x="514.5" y="-1038.84" font-family="Arial" font-size="20.00" fill="blue">start_next: 04/11/17, 19:06:43</text>
<text text-anchor="middle" x="514.5" y="-1016.84" font-family="Arial" font-size="20.00" fill="blue">gap: &#45;86sec</text>
<text text-anchor="middle" x="514.5" y="-994.84" font-family="Arial" font-size="20.00" fill="blue">end_prev: 04/11/17, 19:08:09</text>
</g>
<!-- ACCOUNT MANIPULATION
snmp | ID: 275 -->
<g id="node14" class="node">
<title>ACCOUNT MANIPULATION
snmp | ID: 275</title>
<g id="a_node14"><a xlink:title="GPL SNMP public access udp">
<polygon fill="none" stroke="black" stroke-width="3" points="880,-407.71 560,-407.71 560,-347.71 880,-347.71 880,-407.71"/>
<text text-anchor="middle" x="720" y="-384.51" font-family="Arial" font-size="24.00">ACCOUNT MANIPULATION</text>
<text text-anchor="middle" x="720" y="-358.51" font-family="Arial" font-size="24.00">snmp | ID: 275</text>
</a>
</g>
</g>
<!-- VULNERABILTY DISCOVERY
http&#45;&gt;ACCOUNT MANIPULATION
snmp | ID: 275 -->
<g id="edge12" class="edge">
<title>VULNERABILTY DISCOVERY
http&#45;&gt;ACCOUNT MANIPULATION
snmp | ID: 275</title>
<path fill="none" stroke="blue" stroke-width="5" d="M720,-265.93C720,-288.2 720,-315.47 720,-337.38"/>
<polygon fill="blue" stroke="blue" stroke-width="5" points="715.63,-337.65 720,-347.65 724.38,-337.65 715.63,-337.65"/>
<text text-anchor="middle" x="851.5" y="-323.71" font-family="Arial" font-size="20.00" fill="blue">start_next: 04/11/17, 14:46:25</text>
<text text-anchor="middle" x="851.5" y="-301.71" font-family="Arial" font-size="20.00" fill="blue">gap: &#45;543sec</text>
<text text-anchor="middle" x="851.5" y="-279.71" font-family="Arial" font-size="20.00" fill="blue">end_prev: 04/11/17, 14:55:28</text>
</g>
<!-- ARBITRARY CODE EXECUTION
http | ID: 32 -->
<g id="node15" class="node">
<title>ARBITRARY CODE EXECUTION
http | ID: 32</title>
<g id="a_node15"><a xlink:title="ET CURRENT_EVENTS QNAP Shellshock CVE&#45;2014&#45;6271">
<polygon fill="none" stroke="black" stroke-width="3" points="907.5,-549.71 532.5,-549.71 532.5,-489.71 907.5,-489.71 907.5,-549.71"/>
<text text-anchor="middle" x="720" y="-526.51" font-family="Arial" font-size="24.00">ARBITRARY CODE EXECUTION</text>
<text text-anchor="middle" x="720" y="-500.51" font-family="Arial" font-size="24.00">http | ID: 32</text>
</a>
</g>
</g>
<!-- ACCOUNT MANIPULATION
snmp | ID: 275&#45;&gt;ARBITRARY CODE EXECUTION
http | ID: 32 -->
<g id="edge13" class="edge">
<title>ACCOUNT MANIPULATION
snmp | ID: 275&#45;&gt;ARBITRARY CODE EXECUTION
http | ID: 32</title>
<path fill="none" stroke="blue" stroke-width="5" d="M720,-407.71C720,-428.41 720,-456.49 720,-479.23"/>
<polygon fill="blue" stroke="blue" stroke-width="5" points="715.63,-479.25 720,-489.25 724.38,-479.25 715.63,-479.25"/>
<text text-anchor="middle" x="851.5" y="-465.71" font-family="Arial" font-size="20.00" fill="blue">start_next: 04/11/17, 14:47:05</text>
<text text-anchor="middle" x="851.5" y="-443.71" font-family="Arial" font-size="20.00" fill="blue">gap: 39sec</text>
<text text-anchor="middle" x="851.5" y="-421.71" font-family="Arial" font-size="20.00" fill="blue">end_prev: 04/11/17, 14:46:25</text>
</g>
<!-- SURFING
http -->
<g id="node16" class="node">
<title>SURFING
http</title>
<g id="a_node16"><a xlink:title="ET WEB_SERVER WEB&#45;PHP phpinfo access">
<ellipse fill="none" stroke="black" stroke-width="3" cx="720" cy="-674.13" rx="88.28" ry="42.35"/>
<text text-anchor="middle" x="720" y="-680.93" font-family="Arial" font-size="24.00">SURFING</text>
<text text-anchor="middle" x="720" y="-654.93" font-family="Arial" font-size="24.00">http</text>
</a>
</g>
</g>
<!-- ARBITRARY CODE EXECUTION
http | ID: 32&#45;&gt;SURFING
http -->
<g id="edge14" class="edge">
<title>ARBITRARY CODE EXECUTION
http | ID: 32&#45;&gt;SURFING
http</title>
<path fill="none" stroke="blue" stroke-width="5" d="M720,-549.73C720,-569.99 720,-597.58 720,-621.53"/>
<polygon fill="blue" stroke="blue" stroke-width="5" points="715.63,-621.54 720,-631.54 724.38,-621.54 715.63,-621.54"/>
<text text-anchor="middle" x="851.5" y="-607.71" font-family="Arial" font-size="20.00" fill="blue">start_next: 04/11/17, 14:47:48</text>
<text text-anchor="middle" x="851.5" y="-585.71" font-family="Arial" font-size="20.00" fill="blue">gap: 43sec</text>
<text text-anchor="middle" x="851.5" y="-563.71" font-family="Arial" font-size="20.00" fill="blue">end_prev: 04/11/17, 14:47:05</text>
</g>
<!-- SURFING
http&#45;&gt;SERVICE DISCOVERY
unknown -->
<g id="edge15" class="edge">
<title>SURFING
http&#45;&gt;SERVICE DISCOVERY
unknown</title>
<path fill="none" stroke="blue" stroke-width="5" d="M720,-716.73C720,-738.4 720,-765.11 720,-788.12"/>
<polygon fill="blue" stroke="blue" stroke-width="5" points="715.63,-788.4 720,-798.4 724.38,-788.4 715.63,-788.4"/>
<text text-anchor="middle" x="851.5" y="-774.56" font-family="Arial" font-size="20.00" fill="blue">start_next: 04/11/17, 14:48:03</text>
<text text-anchor="middle" x="851.5" y="-752.56" font-family="Arial" font-size="20.00" fill="blue">gap: &#45;389sec</text>
<text text-anchor="middle" x="851.5" y="-730.56" font-family="Arial" font-size="20.00" fill="blue">end_prev: 04/11/17, 14:54:32</text>
</g>
<!-- INFO DISCOVERY
http&#45;&gt;DATA DELIVERY
http | ID: 705 -->
<g id="edge29" class="edge">
<title>INFO DISCOVERY
http&#45;&gt;DATA DELIVERY
http | ID: 705</title>
<path fill="none" stroke="blue" stroke-width="5" d="M852.9,-1706.89C846.6,-1728.48 838.8,-1755.22 831.92,-1778.82"/>
<polygon fill="blue" stroke="blue" stroke-width="5" points="827.63,-1777.89 829.03,-1788.72 836.03,-1780.34 827.63,-1777.89"/>
<text text-anchor="middle" x="982.5" y="-1764.82" font-family="Arial" font-size="20.00" fill="blue">start_next: 04/11/17, 21:09:26</text>
<text text-anchor="middle" x="982.5" y="-1742.82" font-family="Arial" font-size="20.00" fill="blue">gap: 70sec</text>
<text text-anchor="middle" x="982.5" y="-1720.82" font-family="Arial" font-size="20.00" fill="blue">end_prev: 04/11/17, 21:08:16</text>
</g>
<!-- DATA EXFILTRATION
http | ID: 26 -->
<g id="node18" class="node">
<title>DATA EXFILTRATION
http | ID: 26</title>
<g id="a_node18"><a xlink:title="ET WEB_SPECIFIC_APPS PHP&#45;CGI query string parameter vulnerability">
<polygon fill="none" stroke="black" stroke-width="3" points="2247.88,-1837.81 2145.44,-1886.79 1940.56,-1886.79 1838.12,-1837.81 1940.56,-1788.83 2145.44,-1788.83 2247.88,-1837.81"/>
<text text-anchor="middle" x="2043" y="-1844.61" font-family="Arial" font-size="24.00">DATA EXFILTRATION</text>
<text text-anchor="middle" x="2043" y="-1818.61" font-family="Arial" font-size="24.00">http | ID: 26</text>
</a>
</g>
</g>
<!-- INFO DISCOVERY
http&#45;&gt;DATA EXFILTRATION
http | ID: 26 -->
<g id="edge17" class="edge">
<title>INFO DISCOVERY
http&#45;&gt;DATA EXFILTRATION
http | ID: 26</title>
<path fill="none" stroke="blue" stroke-width="5" d="M1001.28,-1685.23C1218.61,-1716.85 1643.01,-1778.61 1877.47,-1812.73"/>
<polygon fill="blue" stroke="blue" stroke-width="5" points="1876.93,-1817.07 1887.45,-1814.18 1878.19,-1808.41 1876.93,-1817.07"/>
<text text-anchor="middle" x="1760.5" y="-1764.82" font-family="Arial" font-size="20.00" fill="blue">start_next: 04/11/17, 14:50:08</text>
<text text-anchor="middle" x="1760.5" y="-1742.82" font-family="Arial" font-size="20.00" fill="blue">gap: 40sec</text>
<text text-anchor="middle" x="1760.5" y="-1720.82" font-family="Arial" font-size="20.00" fill="blue">end_prev: 04/11/17, 14:49:28</text>
</g>
<!-- DATA EXFILTRATION
http | ID: 26&#45;&gt;INFO DISCOVERY
xdmcp -->
<g id="edge18" class="edge">
<title>DATA EXFILTRATION
http | ID: 26&#45;&gt;INFO DISCOVERY
xdmcp</title>
<path fill="none" stroke="blue" stroke-width="5" d="M2187.68,-1809.02C2315.92,-1780.12 2483,-1730.06 2483,-1665.4 2483,-222.28 2483,-222.28 2483,-222.28 2483,-114.19 2160.88,-70.28 1957.46,-53.33"/>
<polygon fill="blue" stroke="blue" stroke-width="5" points="1957.59,-48.95 1947.26,-52.49 1956.87,-57.67 1957.59,-48.95"/>
<text text-anchor="middle" x="2614.5" y="-948.41" font-family="Arial" font-size="20.00" fill="blue">start_next: 04/11/17, 16:29:58</text>
<text text-anchor="middle" x="2614.5" y="-926.41" font-family="Arial" font-size="20.00" fill="blue">gap: 5990sec</text>
<text text-anchor="middle" x="2614.5" y="-904.41" font-family="Arial" font-size="20.00" fill="blue">end_prev: 04/11/17, 14:50:08</text>
</g>
<!-- ACCOUNT MANIPULATION
snmp | ID: 889&#45;&gt;ARBITRARY CODE EXECUTION
ssdp | ID: 355 -->
<g id="edge20" class="edge">
<title>ACCOUNT MANIPULATION
snmp | ID: 889&#45;&gt;ARBITRARY CODE EXECUTION
ssdp | ID: 355</title>
<path fill="none" stroke="blue" stroke-width="5" d="M1659.33,-478.93C1659.62,-507.25 1660,-551.42 1660,-589.71 1660,-589.71 1660,-589.71 1660,-1356.54 1660,-1407.97 1687.09,-1434.37 1652,-1471.97 1640.61,-1484.17 1614.79,-1492.44 1583.5,-1498.03"/>
<polygon fill="blue" stroke="blue" stroke-width="5" points="1582.76,-1493.71 1573.62,-1499.68 1584.2,-1502.34 1582.76,-1493.71"/>
<text text-anchor="middle" x="1791.5" y="-948.41" font-family="Arial" font-size="20.00" fill="blue">start_next: 04/11/17, 18:00:29</text>
<text text-anchor="middle" x="1791.5" y="-926.41" font-family="Arial" font-size="20.00" fill="blue">gap: 5361sec</text>
<text text-anchor="middle" x="1791.5" y="-904.41" font-family="Arial" font-size="20.00" fill="blue">end_prev: 04/11/17, 16:31:09</text>
</g>
<!-- SERVICE DISCOVERY
ssh -->
<g id="node20" class="node">
<title>SERVICE DISCOVERY
ssh</title>
<g id="a_node20"><a xlink:title="ET SCAN Potential VNC Scan 5800&#45;5820&#10;ET SCAN Potential SSH Scan">
<ellipse fill="yellow" stroke="black" stroke-width="3" cx="1380" cy="-840.98" rx="189.51" ry="42.35"/>
<text text-anchor="middle" x="1380" y="-847.78" font-family="Arial" font-size="24.00">SERVICE DISCOVERY</text>
<text text-anchor="middle" x="1380" y="-821.78" font-family="Arial" font-size="24.00">ssh</text>
</a>
</g>
</g>
<!-- VULNERABILTY DISCOVERY
ncube&#45;lm -->
<g id="node21" class="node">
<title>VULNERABILTY DISCOVERY
ncube&#45;lm</title>
<g id="a_node21"><a xlink:title="ET POLICY Suspicious inbound to PostgreSQL port 5432&#10;ET POLICY Suspicious inbound to Oracle SQL port 1521&#10;ET POLICY Suspicious inbound to mSQL port 4333">
<ellipse fill="none" stroke="black" stroke-width="3" cx="1398" cy="-1021.84" rx="241.25" ry="42.35"/>
<text text-anchor="middle" x="1398" y="-1028.64" font-family="Arial" font-size="24.00">VULNERABILTY DISCOVERY</text>
<text text-anchor="middle" x="1398" y="-1002.64" font-family="Arial" font-size="24.00">ncube&#45;lm</text>
</a>
</g>
</g>
<!-- SERVICE DISCOVERY
ssh&#45;&gt;VULNERABILTY DISCOVERY
ncube&#45;lm -->
<g id="edge25" class="edge">
<title>SERVICE DISCOVERY
ssh&#45;&gt;VULNERABILTY DISCOVERY
ncube&#45;lm</title>
<path fill="none" stroke="blue" stroke-width="5" d="M1378.71,-883.61C1378.57,-906.71 1379.33,-936.15 1383.89,-968.92"/>
<polygon fill="blue" stroke="blue" stroke-width="5" points="1379.62,-969.96 1385.43,-979.2 1388.28,-968.66 1379.62,-969.96"/>
<text text-anchor="start" x="1384" y="-956.41" font-family="Arial" font-size="20.00" fill="blue"> start_next: 04/11/17, 20:56:55</text>
<text text-anchor="start" x="1471" y="-936.41" font-family="Arial" font-size="20.00" fill="blue">gap: &#45;1sec</text>
<text text-anchor="start" x="1388" y="-916.41" font-family="Arial" font-size="20.00" fill="blue">end_prev: 04/11/17, 20:56:56</text>
<text text-anchor="start" x="1418.5" y="-896.41" font-family="Arial" font-weight="bold" font-size="20.00" fill="blue">Attacker: 10.0.254.31</text>
</g>
<!-- VULNERABILTY DISCOVERY
ncube&#45;lm&#45;&gt;HOST DISCOVERY
ms&#45;wbt&#45;server -->
<g id="edge26" class="edge">
<title>VULNERABILTY DISCOVERY
ncube&#45;lm&#45;&gt;HOST DISCOVERY
ms&#45;wbt&#45;server</title>
<path fill="none" stroke="blue" stroke-width="5" d="M1362.8,-1064C1339.94,-1088.52 1308.27,-1118.59 1275,-1138.26 1265.3,-1144 1254.85,-1149.16 1244.14,-1153.78"/>
<polygon fill="blue" stroke="blue" stroke-width="5" points="1242.24,-1149.83 1234.67,-1157.7 1245.59,-1157.92 1242.24,-1149.83"/>
<text text-anchor="middle" x="1484.5" y="-1122.26" font-family="Arial" font-size="20.00" fill="blue">start_next: 04/11/17, 20:57:27</text>
<text text-anchor="middle" x="1484.5" y="-1100.26" font-family="Arial" font-size="20.00" fill="blue">gap: 1sec</text>
<text text-anchor="middle" x="1484.5" y="-1078.26" font-family="Arial" font-size="20.00" fill="blue">end_prev: 04/11/17, 20:57:26</text>
</g>
</g>
</svg>
