<?xml version="1.0" encoding="UTF-8" standalone="no"?>
<!DOCTYPE svg PUBLIC "-//W3C//DTD SVG 1.1//EN"
 "http://www.w3.org/Graphics/SVG/1.1/DTD/svg11.dtd">
<!-- Generated by graphviz version 2.50.0 (0)
 -->
<!-- Title: DATADELIVERYhttp Pages: 1 -->
<svg width="1893pt" height="1660pt"
 viewBox="0.00 0.00 1893.12 1659.70" xmlns="http://www.w3.org/2000/svg" xmlns:xlink="http://www.w3.org/1999/xlink">
<g id="graph0" class="graph" transform="scale(1 1) rotate(0) translate(4 1655.7)">
<title>DATADELIVERYhttp</title>
<polygon fill="white" stroke="transparent" points="-4,4 -4,-1655.7 1889.12,-1655.7 1889.12,4 -4,4"/>
<!-- Victim: 10.0.0.80
DATA DELIVERY
http -->
<g id="node1" class="node">
<title>Victim: 10.0.0.80
DATA DELIVERY
http</title>
<polygon fill="salmon" stroke="black" stroke-width="3" points="1015.27,-1554.68 1015.27,-1609.07 925.56,-1647.53 798.69,-1647.53 708.98,-1609.07 708.98,-1554.68 798.69,-1516.22 925.56,-1516.22 1015.27,-1554.68"/>
<polygon fill="none" stroke="black" stroke-width="3" points="1019.27,-1552.06 1019.27,-1611.7 926.38,-1651.52 797.86,-1651.52 704.98,-1611.7 704.98,-1552.06 797.86,-1512.23 926.38,-1512.23 1019.27,-1552.06"/>
<text text-anchor="middle" x="862.12" y="-1601.68" font-family="Arial" font-size="24.00">Victim: 10.0.0.80</text>
<text text-anchor="middle" x="862.12" y="-1575.68" font-family="Arial" font-size="24.00">DATA DELIVERY</text>
<text text-anchor="middle" x="862.12" y="-1549.68" font-family="Arial" font-size="24.00">http</text>
</g>
<!-- DATA DELIVERY
http | ID: 21 -->
<g id="node2" class="node">
<title>DATA DELIVERY
http | ID: 21</title>
<g id="a_node2"><a xlink:title="ET WEB_SERVER PHP Possible https Local File Inclusion Attempt&#10;ET WEB_SERVER PHP Possible php Remote File Inclusion Attempt&#10;ET WEB_SERVER PHP tags in HTTP POST">
<polygon fill="salmon" stroke="black" stroke-width="3" points="1193.22,-1446.07 1111.67,-1495.05 948.57,-1495.05 867.02,-1446.07 948.57,-1397.09 1111.67,-1397.09 1193.22,-1446.07"/>
<text text-anchor="middle" x="1030.12" y="-1452.87" font-family="Arial" font-size="24.00">DATA DELIVERY</text>
<text text-anchor="middle" x="1030.12" y="-1426.87" font-family="Arial" font-size="24.00">http | ID: 21</text>
</a>
</g>
</g>
<!-- DATA DELIVERY
http | ID: 21&#45;&gt;Victim: 10.0.0.80
DATA DELIVERY
http -->
<g id="edge1" class="edge">
<title>DATA DELIVERY
http | ID: 21&#45;&gt;Victim: 10.0.0.80
DATA DELIVERY
http</title>
<path fill="none" stroke="black" stroke-width="5" d="M969.47,-1495.37C962.78,-1500.7 955.88,-1506.2 948.95,-1511.72"/>
<polygon fill="black" stroke="black" stroke-width="5" points="945.92,-1508.54 940.82,-1518.2 951.37,-1515.39 945.92,-1508.54"/>
</g>
<!-- DATA DELIVERY
http | ID: 246 -->
<g id="node3" class="node">
<title>DATA DELIVERY
http | ID: 246</title>
<g id="a_node3"><a xlink:title="ET WEB_SERVER PHP tags in HTTP POST&#10;ET WEB_SERVER PHP Possible php Remote File Inclusion Attempt&#10;ET WEB_SERVER PHP Possible https Local File Inclusion Attempt&#10;GPL WEB_SERVER perl post attempt">
<polygon fill="salmon" stroke="black" stroke-width="3" points="859.22,-1446.07 777.67,-1495.05 614.57,-1495.05 533.02,-1446.07 614.57,-1397.09 777.67,-1397.09 859.22,-1446.07"/>
<text text-anchor="middle" x="696.12" y="-1452.87" font-family="Arial" font-size="24.00">DATA DELIVERY</text>
<text text-anchor="middle" x="696.12" y="-1426.87" font-family="Arial" font-size="24.00">http | ID: 246</text>
</a>
</g>
</g>
<!-- DATA DELIVERY
http | ID: 246&#45;&gt;Victim: 10.0.0.80
DATA DELIVERY
http -->
<g id="edge2" class="edge">
<title>DATA DELIVERY
http | ID: 246&#45;&gt;Victim: 10.0.0.80
DATA DELIVERY
http</title>
<path fill="none" stroke="black" stroke-width="5" d="M756.05,-1495.37C762.59,-1500.65 769.34,-1506.09 776.12,-1511.55"/>
<polygon fill="black" stroke="black" stroke-width="5" points="773.54,-1515.09 784.08,-1517.96 779.04,-1508.28 773.54,-1515.09"/>
</g>
<!-- VULNERABILTY DISCOVERY
mysql -->
<g id="node4" class="node">
<title>VULNERABILTY DISCOVERY
mysql</title>
<g id="a_node4"><a xlink:title="ET POLICY Suspicious inbound to MSSQL port 1433&#10;ET POLICY Suspicious inbound to mySQL port 3306&#10;ET POLICY Suspicious inbound to Oracle SQL port 1521&#10;ET POLICY Suspicious inbound to PostgreSQL port 5432">
<ellipse fill="yellow" stroke="black" stroke-width="3" cx="730.12" cy="-584.11" rx="241.25" ry="42.35"/>
<text text-anchor="middle" x="730.12" y="-590.91" font-family="Arial" font-size="24.00">VULNERABILTY DISCOVERY</text>
<text text-anchor="middle" x="730.12" y="-564.91" font-family="Arial" font-size="24.00">mysql</text>
</a>
</g>
</g>
<!-- SERVICE DISCOVERY
unknown -->
<g id="node5" class="node">
<title>SERVICE DISCOVERY
unknown</title>
<g id="a_node5"><a xlink:title="ET SCAN Potential SSH Scan&#10;ET SCAN Potential VNC Scan 5800&#45;5820&#10;ET SCAN NMAP OS Detection Probe&#10;ET SCAN Potential VNC Scan 5900&#45;5920">
<ellipse fill="none" stroke="black" stroke-width="3" cx="730.12" cy="-764.96" rx="189.51" ry="42.35"/>
<text text-anchor="middle" x="730.12" y="-771.76" font-family="Arial" font-size="24.00">SERVICE DISCOVERY</text>
<text text-anchor="middle" x="730.12" y="-745.76" font-family="Arial" font-size="24.00">unknown</text>
</a>
</g>
</g>
<!-- VULNERABILTY DISCOVERY
mysql&#45;&gt;SERVICE DISCOVERY
unknown -->
<g id="edge3" class="edge">
<title>VULNERABILTY DISCOVERY
mysql&#45;&gt;SERVICE DISCOVERY
unknown</title>
<path fill="none" stroke="maroon" stroke-width="5" d="M730.12,-626.59C730.12,-652.12 730.12,-685.05 730.12,-712.27"/>
<polygon fill="maroon" stroke="maroon" stroke-width="5" points="725.75,-712.4 730.12,-722.4 734.5,-712.4 725.75,-712.4"/>
<text text-anchor="start" x="730.12" y="-699.54" font-family="Arial" font-size="20.00" fill="maroon"> start_next: 04/11/17, 13:25:10</text>
<text text-anchor="start" x="811.62" y="-679.54" font-family="Arial" font-size="20.00" fill="maroon">gap: &#45;94sec</text>
<text text-anchor="start" x="734.12" y="-659.54" font-family="Arial" font-size="20.00" fill="maroon">end_prev: 04/11/17, 13:26:44</text>
<text text-anchor="start" x="764.62" y="-639.54" font-family="Arial" font-weight="bold" font-size="20.00" fill="maroon">Attacker: 10.0.254.30</text>
</g>
<!-- HOST DISCOVERY
http -->
<g id="node6" class="node">
<title>HOST DISCOVERY
http</title>
<g id="a_node6"><a xlink:title="ET SCAN Possible Nmap User&#45;Agent Observed&#10;ET SCAN Nmap Scripting Engine User&#45;Agent Detected (Nmap Scripting Engine)">
<ellipse fill="none" stroke="black" stroke-width="3" cx="1013.12" cy="-999.82" rx="162.77" ry="42.35"/>
<text text-anchor="middle" x="1013.12" y="-1006.62" font-family="Arial" font-size="24.00">HOST DISCOVERY</text>
<text text-anchor="middle" x="1013.12" y="-980.62" font-family="Arial" font-size="24.00">http</text>
</a>
</g>
</g>
<!-- SERVICE DISCOVERY
unknown&#45;&gt;HOST DISCOVERY
http -->
<g id="edge4" class="edge">
<title>SERVICE DISCOVERY
unknown&#45;&gt;HOST DISCOVERY
http</title>
<path fill="none" stroke="maroon" stroke-width="5" d="M905.43,-781.21C948.2,-788.56 985.82,-799.41 1000.12,-815.39 1031.63,-850.58 1031.06,-906.37 1024.97,-947.19"/>
<polygon fill="maroon" stroke="maroon" stroke-width="5" points="1020.62,-946.64 1023.32,-957.22 1029.26,-948.06 1020.62,-946.64"/>
<text text-anchor="middle" x="1157.62" y="-865.39" font-family="Arial" font-size="20.00" fill="maroon">start_next: 04/11/17, 13:30:42</text>
<text text-anchor="middle" x="1157.62" y="-843.39" font-family="Arial" font-size="20.00" fill="maroon">gap: &#45;27sec</text>
<text text-anchor="middle" x="1157.62" y="-821.39" font-family="Arial" font-size="20.00" fill="maroon">end_prev: 04/11/17, 13:31:09</text>
</g>
<!-- ARBITRARY CODE EXECUTION
ssdp | ID: 355 -->
<g id="node11" class="node">
<title>ARBITRARY CODE EXECUTION
ssdp | ID: 355</title>
<g id="a_node11"><a xlink:title="GPL MISC UPnP malformed advertisement">
<polygon fill="none" stroke="black" stroke-width="3" points="723.62,-949.39 348.62,-949.39 348.62,-889.39 723.62,-889.39 723.62,-949.39"/>
<text text-anchor="middle" x="536.12" y="-926.19" font-family="Arial" font-size="24.00">ARBITRARY CODE EXECUTION</text>
<text text-anchor="middle" x="536.12" y="-900.19" font-family="Arial" font-size="24.00">ssdp | ID: 355</text>
</a>
</g>
</g>
<!-- SERVICE DISCOVERY
unknown&#45;&gt;ARBITRARY CODE EXECUTION
ssdp | ID: 355 -->
<g id="edge10" class="edge">
<title>SERVICE DISCOVERY
unknown&#45;&gt;ARBITRARY CODE EXECUTION
ssdp | ID: 355</title>
<path fill="none" stroke="blue" stroke-width="5" d="M555.51,-781.62C515.13,-788.96 480.14,-799.7 467.12,-815.39 450.08,-835.94 451.58,-852.91 467.75,-880.66"/>
<polygon fill="blue" stroke="blue" stroke-width="5" points="464.02,-882.94 472.96,-889.2 471.49,-878.39 464.02,-882.94"/>
<text text-anchor="middle" x="598.62" y="-865.39" font-family="Arial" font-size="20.00" fill="blue">start_next: 04/11/17, 14:02:58</text>
<text text-anchor="middle" x="598.62" y="-843.39" font-family="Arial" font-size="20.00" fill="blue">gap: 88sec</text>
<text text-anchor="middle" x="598.62" y="-821.39" font-family="Arial" font-size="20.00" fill="blue">end_prev: 04/11/17, 14:01:29</text>
</g>
<!-- SERVICE DISCOVERY
unknown&#45;&gt;ARBITRARY CODE EXECUTION
ssdp | ID: 355 -->
<g id="edge15" class="edge">
<title>SERVICE DISCOVERY
unknown&#45;&gt;ARBITRARY CODE EXECUTION
ssdp | ID: 355</title>
<path fill="none" stroke="blue" stroke-width="5" d="M734.32,-807.49C736.24,-835.96 736.35,-870.49 727.12,-881.39 726.6,-882.01 726.03,-882.62 725.41,-883.22"/>
<polygon fill="blue" stroke="blue" stroke-width="5" points="722.62,-879.84 717.12,-889.27 727.77,-886.91 722.62,-879.84"/>
<text text-anchor="middle" x="867.62" y="-865.39" font-family="Arial" font-size="20.00" fill="blue">start_next: 04/11/17, 16:31:45</text>
<text text-anchor="middle" x="867.62" y="-843.39" font-family="Arial" font-size="20.00" fill="blue">gap: 73sec</text>
<text text-anchor="middle" x="867.62" y="-821.39" font-family="Arial" font-size="20.00" fill="blue">end_prev: 04/11/17, 16:30:32</text>
</g>
<!-- HOST DISCOVERY
http&#45;&gt;DATA DELIVERY
http | ID: 21 -->
<g id="edge5" class="edge">
<title>HOST DISCOVERY
http&#45;&gt;DATA DELIVERY
http | ID: 21</title>
<path fill="none" stroke="maroon" stroke-width="5" d="M1014.57,-1042.44C1016.14,-1086.94 1018.73,-1159.57 1021.12,-1222.22 1023.26,-1278.04 1025.85,-1341.71 1027.7,-1386.67"/>
<polygon fill="maroon" stroke="maroon" stroke-width="5" points="1023.33,-1387.01 1028.12,-1396.82 1032.07,-1386.64 1023.33,-1387.01"/>
<text text-anchor="middle" x="1152.62" y="-1190.23" font-family="Arial" font-size="20.00" fill="maroon">start_next: 04/11/17, 14:29:52</text>
<text text-anchor="middle" x="1152.62" y="-1168.23" font-family="Arial" font-size="20.00" fill="maroon">gap: 3520sec</text>
<text text-anchor="middle" x="1152.62" y="-1146.23" font-family="Arial" font-size="20.00" fill="maroon">end_prev: 04/11/17, 13:31:12</text>
</g>
<!-- SERVICE DISCOVERY
ssh -->
<g id="node7" class="node">
<title>SERVICE DISCOVERY
ssh</title>
<g id="a_node7"><a xlink:title="ET SCAN Potential VNC Scan 5800&#45;5820&#10;ET SCAN Potential SSH Scan&#10;ET SCAN Potential VNC Scan 5900&#45;5920">
<ellipse fill="yellow" stroke="black" stroke-width="3" cx="241.12" cy="-42.43" rx="189.51" ry="42.35"/>
<text text-anchor="middle" x="241.12" y="-49.23" font-family="Arial" font-size="24.00">SERVICE DISCOVERY</text>
<text text-anchor="middle" x="241.12" y="-23.23" font-family="Arial" font-size="24.00">ssh</text>
</a>
</g>
</g>
<!-- VULNERABILTY DISCOVERY
postgresql -->
<g id="node8" class="node">
<title>VULNERABILTY DISCOVERY
postgresql</title>
<g id="a_node8"><a xlink:title="ET POLICY Suspicious inbound to Oracle SQL port 1521&#10;ET POLICY Suspicious inbound to PostgreSQL port 5432">
<ellipse fill="none" stroke="black" stroke-width="3" cx="241.12" cy="-223.28" rx="241.25" ry="42.35"/>
<text text-anchor="middle" x="241.12" y="-230.08" font-family="Arial" font-size="24.00">VULNERABILTY DISCOVERY</text>
<text text-anchor="middle" x="241.12" y="-204.08" font-family="Arial" font-size="24.00">postgresql</text>
</a>
</g>
</g>
<!-- SERVICE DISCOVERY
ssh&#45;&gt;VULNERABILTY DISCOVERY
postgresql -->
<g id="edge6" class="edge">
<title>SERVICE DISCOVERY
ssh&#45;&gt;VULNERABILTY DISCOVERY
postgresql</title>
<path fill="none" stroke="blue" stroke-width="5" d="M241.12,-84.91C241.12,-110.44 241.12,-143.37 241.12,-170.59"/>
<polygon fill="blue" stroke="blue" stroke-width="5" points="236.75,-170.71 241.12,-180.71 245.5,-170.71 236.75,-170.71"/>
<text text-anchor="start" x="241.12" y="-157.85" font-family="Arial" font-size="20.00" fill="blue"> start_next: 04/11/17, 13:04:56</text>
<text text-anchor="start" x="320.62" y="-137.85" font-family="Arial" font-size="20.00" fill="blue">gap: 281sec</text>
<text text-anchor="start" x="245.12" y="-117.85" font-family="Arial" font-size="20.00" fill="blue">end_prev: 04/11/17, 13:00:15</text>
<text text-anchor="start" x="275.62" y="-97.85" font-family="Arial" font-weight="bold" font-size="20.00" fill="blue">Attacker: 10.0.254.31</text>
</g>
<!-- ACCOUNT MANIPULATION
snmp | ID: 53 -->
<g id="node9" class="node">
<title>ACCOUNT MANIPULATION
snmp | ID: 53</title>
<g id="a_node9"><a xlink:title="GPL SNMP private access udp&#10;GPL SNMP public access udp">
<polygon fill="none" stroke="black" stroke-width="3" points="401.12,-426.7 81.12,-426.7 81.12,-366.7 401.12,-366.7 401.12,-426.7"/>
<text text-anchor="middle" x="241.12" y="-403.5" font-family="Arial" font-size="24.00">ACCOUNT MANIPULATION</text>
<text text-anchor="middle" x="241.12" y="-377.5" font-family="Arial" font-size="24.00">snmp | ID: 53</text>
</a>
</g>
</g>
<!-- VULNERABILTY DISCOVERY
postgresql&#45;&gt;ACCOUNT MANIPULATION
snmp | ID: 53 -->
<g id="edge7" class="edge">
<title>VULNERABILTY DISCOVERY
postgresql&#45;&gt;ACCOUNT MANIPULATION
snmp | ID: 53</title>
<path fill="none" stroke="blue" stroke-width="5" d="M241.12,-265.77C241.12,-293.33 241.12,-329.28 241.12,-356.37"/>
<polygon fill="blue" stroke="blue" stroke-width="5" points="236.75,-356.66 241.12,-366.66 245.5,-356.66 236.75,-356.66"/>
<text text-anchor="middle" x="372.62" y="-323.71" font-family="Arial" font-size="20.00" fill="blue">start_next: 04/11/17, 13:58:50</text>
<text text-anchor="middle" x="372.62" y="-301.71" font-family="Arial" font-size="20.00" fill="blue">gap: 3163sec</text>
<text text-anchor="middle" x="372.62" y="-279.71" font-family="Arial" font-size="20.00" fill="blue">end_prev: 04/11/17, 13:06:07</text>
</g>
<!-- VULNERABILTY DISCOVERY
ncube&#45;lm -->
<g id="node10" class="node">
<title>VULNERABILTY DISCOVERY
ncube&#45;lm</title>
<g id="a_node10"><a xlink:title="ET POLICY Suspicious inbound to mySQL port 3306&#10;ET POLICY Suspicious inbound to mSQL port 4333&#10;ET POLICY Suspicious inbound to MSSQL port 1433&#10;ET POLICY Suspicious inbound to Oracle SQL port 1521&#10;ET SCAN Nessus User Agent">
<ellipse fill="none" stroke="black" stroke-width="3" cx="241.12" cy="-584.11" rx="241.25" ry="42.35"/>
<text text-anchor="middle" x="241.12" y="-590.91" font-family="Arial" font-size="24.00">VULNERABILTY DISCOVERY</text>
<text text-anchor="middle" x="241.12" y="-564.91" font-family="Arial" font-size="24.00">ncube&#45;lm</text>
</a>
</g>
</g>
<!-- ACCOUNT MANIPULATION
snmp | ID: 53&#45;&gt;VULNERABILTY DISCOVERY
ncube&#45;lm -->
<g id="edge8" class="edge">
<title>ACCOUNT MANIPULATION
snmp | ID: 53&#45;&gt;VULNERABILTY DISCOVERY
ncube&#45;lm</title>
<path fill="none" stroke="blue" stroke-width="5" d="M241.12,-427.08C241.12,-455.02 241.12,-497.68 241.12,-531.33"/>
<polygon fill="blue" stroke="blue" stroke-width="5" points="236.75,-531.46 241.12,-541.46 245.5,-531.46 236.75,-531.46"/>
<text text-anchor="middle" x="372.62" y="-510.69" font-family="Arial" font-size="20.00" fill="blue">start_next: 04/11/17, 14:00:02</text>
<text text-anchor="middle" x="372.62" y="-488.69" font-family="Arial" font-size="20.00" fill="blue">gap: &#45;264sec</text>
<text text-anchor="middle" x="372.62" y="-466.69" font-family="Arial" font-size="20.00" fill="blue">end_prev: 04/11/17, 14:04:26</text>
</g>
<!-- VULNERABILTY DISCOVERY
ncube&#45;lm&#45;&gt;SERVICE DISCOVERY
unknown -->
<g id="edge9" class="edge">
<title>VULNERABILTY DISCOVERY
ncube&#45;lm&#45;&gt;SERVICE DISCOVERY
unknown</title>
<path fill="none" stroke="blue" stroke-width="5" d="M298.6,-625.46C342.55,-654.46 405.67,-692.23 466.12,-714.54 495.33,-725.32 527.27,-733.84 558.52,-740.54"/>
<polygon fill="blue" stroke="blue" stroke-width="5" points="557.95,-744.89 568.63,-742.66 559.74,-736.33 557.95,-744.89"/>
<text text-anchor="middle" x="597.62" y="-691.54" font-family="Arial" font-size="20.00" fill="blue">start_next: 04/11/17, 14:01:29</text>
<text text-anchor="middle" x="597.62" y="-669.54" font-family="Arial" font-size="20.00" fill="blue">gap: &#45;355sec</text>
<text text-anchor="middle" x="597.62" y="-647.54" font-family="Arial" font-size="20.00" fill="blue">end_prev: 04/11/17, 14:07:25</text>
</g>
<!-- SURFING
http -->
<g id="node12" class="node">
<title>SURFING
http</title>
<g id="a_node12"><a xlink:title="ET WEB_SERVER WEB&#45;PHP phpinfo access">
<ellipse fill="none" stroke="black" stroke-width="3" cx="537.12" cy="-1272.65" rx="88.28" ry="42.35"/>
<text text-anchor="middle" x="537.12" y="-1279.45" font-family="Arial" font-size="24.00">SURFING</text>
<text text-anchor="middle" x="537.12" y="-1253.45" font-family="Arial" font-size="24.00">http</text>
</a>
</g>
</g>
<!-- ARBITRARY CODE EXECUTION
ssdp | ID: 355&#45;&gt;SURFING
http -->
<g id="edge11" class="edge">
<title>ARBITRARY CODE EXECUTION
ssdp | ID: 355&#45;&gt;SURFING
http</title>
<path fill="none" stroke="blue" stroke-width="5" d="M655.31,-949.46C659.64,-951.95 663.02,-954.6 665.12,-957.39 735.96,-1051.4 731.69,-1125.15 665.12,-1222.22 656.03,-1235.48 642.83,-1245.19 628.33,-1252.29"/>
<polygon fill="blue" stroke="blue" stroke-width="5" points="626.51,-1248.31 619.16,-1256.38 630.07,-1256.3 626.51,-1248.31"/>
<text text-anchor="middle" x="848.62" y="-1100.24" font-family="Arial" font-size="20.00" fill="blue">start_next: 04/11/17, 14:04:47</text>
<text text-anchor="middle" x="848.62" y="-1078.24" font-family="Arial" font-size="20.00" fill="blue">gap: 99sec</text>
<text text-anchor="middle" x="848.62" y="-1056.24" font-family="Arial" font-size="20.00" fill="blue">end_prev: 04/11/17, 14:03:08</text>
</g>
<!-- REMOTE SERVICE EXPLOIT
snmp | ID: 52 -->
<g id="node15" class="node">
<title>REMOTE SERVICE EXPLOIT
snmp | ID: 52</title>
<g id="a_node15"><a xlink:title="ET SNMP Samsung Printer SNMP Hardcode RW Community String">
<polygon fill="none" stroke="black" stroke-width="3" points="570.12,-1113.24 232.12,-1113.24 232.12,-1053.24 570.12,-1053.24 570.12,-1113.24"/>
<text text-anchor="middle" x="401.12" y="-1090.04" font-family="Arial" font-size="24.00">REMOTE SERVICE EXPLOIT</text>
<text text-anchor="middle" x="401.12" y="-1064.04" font-family="Arial" font-size="24.00">snmp | ID: 52</text>
</a>
</g>
</g>
<!-- ARBITRARY CODE EXECUTION
ssdp | ID: 355&#45;&gt;REMOTE SERVICE EXPLOIT
snmp | ID: 52 -->
<g id="edge16" class="edge">
<title>ARBITRARY CODE EXECUTION
ssdp | ID: 355&#45;&gt;REMOTE SERVICE EXPLOIT
snmp | ID: 52</title>
<path fill="none" stroke="blue" stroke-width="5" d="M415.21,-949.46C410.78,-951.95 407.31,-954.6 405.12,-957.39 386.4,-981.32 386.98,-1016.45 391.33,-1043.36"/>
<polygon fill="blue" stroke="blue" stroke-width="5" points="387.03,-1044.19 393.15,-1053.23 395.64,-1042.6 387.03,-1044.19"/>
<text text-anchor="middle" x="536.62" y="-1016.82" font-family="Arial" font-size="20.00" fill="blue">start_next: 04/11/17, 16:32:12</text>
<text text-anchor="middle" x="536.62" y="-994.82" font-family="Arial" font-size="20.00" fill="blue">gap: 17sec</text>
<text text-anchor="middle" x="536.62" y="-972.82" font-family="Arial" font-size="20.00" fill="blue">end_prev: 04/11/17, 16:31:55</text>
</g>
<!-- SURFING
http&#45;&gt;DATA DELIVERY
http | ID: 246 -->
<g id="edge12" class="edge">
<title>SURFING
http&#45;&gt;DATA DELIVERY
http | ID: 246</title>
<path fill="none" stroke="blue" stroke-width="5" d="M624.55,-1279.45C653.61,-1286.06 683.12,-1298.85 701.12,-1323.08 714.5,-1341.08 715.96,-1365.03 713.08,-1386.95"/>
<polygon fill="blue" stroke="blue" stroke-width="5" points="708.76,-1386.28 711.48,-1396.85 717.4,-1387.68 708.76,-1386.28"/>
<text text-anchor="middle" x="846.62" y="-1373.08" font-family="Arial" font-size="20.00" fill="blue">start_next: 04/11/17, 14:04:48</text>
<text text-anchor="middle" x="846.62" y="-1351.08" font-family="Arial" font-size="20.00" fill="blue">gap: 0sec</text>
<text text-anchor="middle" x="846.62" y="-1329.08" font-family="Arial" font-size="20.00" fill="blue">end_prev: 04/11/17, 14:04:48</text>
</g>
<!-- SURFING
http&#45;&gt;DATA DELIVERY
http | ID: 246 -->
<g id="edge18" class="edge">
<title>SURFING
http&#45;&gt;DATA DELIVERY
http | ID: 246</title>
<path fill="none" stroke="blue" stroke-width="5" d="M464.28,-1297.28C453.48,-1303.93 443.77,-1312.38 437.12,-1323.08 421.64,-1347.99 418.7,-1366.25 437.12,-1389.08 452.32,-1407.91 498.79,-1420.73 548.26,-1429.28"/>
<polygon fill="blue" stroke="blue" stroke-width="5" points="547.6,-1433.61 558.18,-1430.94 549.04,-1424.98 547.6,-1433.61"/>
<text text-anchor="middle" x="568.62" y="-1373.08" font-family="Arial" font-size="20.00" fill="blue">start_next: 04/11/17, 16:33:39</text>
<text text-anchor="middle" x="568.62" y="-1351.08" font-family="Arial" font-size="20.00" fill="blue">gap: 0sec</text>
<text text-anchor="middle" x="568.62" y="-1329.08" font-family="Arial" font-size="20.00" fill="blue">end_prev: 04/11/17, 16:33:38</text>
</g>
<!-- DATA EXFILTRATION
http | ID: 26 -->
<g id="node13" class="node">
<title>DATA EXFILTRATION
http | ID: 26</title>
<g id="a_node13"><a xlink:title="ET WEB_SPECIFIC_APPS PHP&#45;CGI query string parameter vulnerability&#10;ET WEB_SERVER Tilde in URI &#45; potential .php~ source disclosure vulnerability">
<polygon fill="yellow" stroke="black" stroke-width="3" points="1595,-396.7 1492.56,-445.68 1287.68,-445.68 1185.24,-396.7 1287.68,-347.72 1492.56,-347.72 1595,-396.7"/>
<text text-anchor="middle" x="1390.12" y="-403.5" font-family="Arial" font-size="24.00">DATA EXFILTRATION</text>
<text text-anchor="middle" x="1390.12" y="-377.5" font-family="Arial" font-size="24.00">http | ID: 26</text>
</a>
</g>
</g>
<!-- VULNERABILTY DISCOVERY
http -->
<g id="node14" class="node">
<title>VULNERABILTY DISCOVERY
http</title>
<g id="a_node14"><a xlink:title="ET POLICY Suspicious inbound to mSQL port 4333&#10;ET POLICY Suspicious inbound to MSSQL port 1433&#10;ET POLICY Suspicious inbound to Oracle SQL port 1521&#10;ET SCAN Nessus User Agent&#10;ET POLICY Suspicious inbound to PostgreSQL port 5432">
<ellipse fill="none" stroke="black" stroke-width="3" cx="1219.12" cy="-584.11" rx="241.25" ry="42.35"/>
<text text-anchor="middle" x="1219.12" y="-590.91" font-family="Arial" font-size="24.00">VULNERABILTY DISCOVERY</text>
<text text-anchor="middle" x="1219.12" y="-564.91" font-family="Arial" font-size="24.00">http</text>
</a>
</g>
</g>
<!-- DATA EXFILTRATION
http | ID: 26&#45;&gt;VULNERABILTY DISCOVERY
http -->
<g id="edge13" class="edge">
<title>DATA EXFILTRATION
http | ID: 26&#45;&gt;VULNERABILTY DISCOVERY
http</title>
<path fill="none" stroke="blue" stroke-width="5" d="M1324.3,-445.88C1321.48,-448.45 1318.74,-451.06 1316.12,-453.69 1292.1,-477.82 1269.06,-508.14 1251.47,-533.37"/>
<polygon fill="blue" stroke="blue" stroke-width="5" points="1247.8,-530.99 1245.72,-541.71 1255,-535.96 1247.8,-530.99"/>
<text text-anchor="start" x="1316.12" y="-518.69" font-family="Arial" font-size="20.00" fill="blue"> start_next: 04/11/17, 16:29:03</text>
<text text-anchor="start" x="1389.62" y="-498.69" font-family="Arial" font-size="20.00" fill="blue">gap: 8644sec</text>
<text text-anchor="start" x="1320.12" y="-478.69" font-family="Arial" font-size="20.00" fill="blue">end_prev: 04/11/17, 14:04:59</text>
<text text-anchor="start" x="1350.62" y="-458.69" font-family="Arial" font-weight="bold" font-size="20.00" fill="blue">Attacker: 10.0.254.31</text>
</g>
<!-- INFO DISCOVERY
xdmcp -->
<g id="node16" class="node">
<title>INFO DISCOVERY
xdmcp</title>
<g id="a_node16"><a xlink:title="GPL WEB_SERVER mod_gzip_status access&#10;GPL RPC xdmcp info query">
<ellipse fill="none" stroke="black" stroke-width="3" cx="1623.12" cy="-584.11" rx="156.04" ry="42.35"/>
<text text-anchor="middle" x="1623.12" y="-590.91" font-family="Arial" font-size="24.00">INFO DISCOVERY</text>
<text text-anchor="middle" x="1623.12" y="-564.91" font-family="Arial" font-size="24.00">xdmcp</text>
</a>
</g>
</g>
<!-- DATA EXFILTRATION
http | ID: 26&#45;&gt;INFO DISCOVERY
xdmcp -->
<g id="edge19" class="edge">
<title>DATA EXFILTRATION
http | ID: 26&#45;&gt;INFO DISCOVERY
xdmcp</title>
<path fill="none" stroke="blue" stroke-width="5" d="M1537.57,-424.5C1553.6,-431.98 1568.61,-441.52 1581.12,-453.69 1602.15,-474.12 1612.67,-505.17 1617.91,-531.74"/>
<polygon fill="blue" stroke="blue" stroke-width="5" points="1613.62,-532.59 1619.68,-541.67 1622.24,-531.06 1613.62,-532.59"/>
<text text-anchor="start" x="1617.12" y="-518.69" font-family="Arial" font-size="20.00" fill="blue"> start_next: 04/11/17, 18:03:14</text>
<text text-anchor="start" x="1690.62" y="-498.69" font-family="Arial" font-size="20.00" fill="blue">gap: 5364sec</text>
<text text-anchor="start" x="1621.12" y="-478.69" font-family="Arial" font-size="20.00" fill="blue">end_prev: 04/11/17, 16:33:50</text>
<text text-anchor="start" x="1651.62" y="-458.69" font-family="Arial" font-weight="bold" font-size="20.00" fill="blue">Attacker: 10.0.254.31</text>
</g>
<!-- VULNERABILTY DISCOVERY
http&#45;&gt;SERVICE DISCOVERY
unknown -->
<g id="edge14" class="edge">
<title>VULNERABILTY DISCOVERY
http&#45;&gt;SERVICE DISCOVERY
unknown</title>
<path fill="none" stroke="blue" stroke-width="5" d="M1163.08,-625.57C1120.19,-654.62 1058.5,-692.41 999.12,-714.54 968.98,-725.77 935.96,-734.52 903.68,-741.31"/>
<polygon fill="blue" stroke="blue" stroke-width="5" points="902.62,-737.07 893.7,-743.36 904.37,-745.64 902.62,-737.07"/>
<text text-anchor="middle" x="1279.62" y="-691.54" font-family="Arial" font-size="20.00" fill="blue">start_next: 04/11/17, 16:30:32</text>
<text text-anchor="middle" x="1279.62" y="-669.54" font-family="Arial" font-size="20.00" fill="blue">gap: &#45;366sec</text>
<text text-anchor="middle" x="1279.62" y="-647.54" font-family="Arial" font-size="20.00" fill="blue">end_prev: 04/11/17, 16:36:37</text>
</g>
<!-- REMOTE SERVICE EXPLOIT
snmp | ID: 52&#45;&gt;SURFING
http -->
<g id="edge17" class="edge">
<title>REMOTE SERVICE EXPLOIT
snmp | ID: 52&#45;&gt;SURFING
http</title>
<path fill="none" stroke="blue" stroke-width="5" d="M393.27,-1113.34C386.97,-1143.49 382.47,-1190.55 405.12,-1222.22 415.12,-1236.2 429.56,-1246.23 445.26,-1253.42"/>
<polygon fill="blue" stroke="blue" stroke-width="5" points="443.71,-1257.52 454.62,-1257.34 447.09,-1249.44 443.71,-1257.52"/>
<text text-anchor="middle" x="536.62" y="-1190.23" font-family="Arial" font-size="20.00" fill="blue">start_next: 04/11/17, 16:33:38</text>
<text text-anchor="middle" x="536.62" y="-1168.23" font-family="Arial" font-size="20.00" fill="blue">gap: 86sec</text>
<text text-anchor="middle" x="536.62" y="-1146.23" font-family="Arial" font-size="20.00" fill="blue">end_prev: 04/11/17, 16:32:12</text>
</g>
<!-- REMOTE SERVICE EXPLOIT
snmp | ID: 1158 -->
<g id="node17" class="node">
<title>REMOTE SERVICE EXPLOIT
snmp | ID: 1158</title>
<g id="a_node17"><a xlink:title="ET SNMP Samsung Printer SNMP Hardcode RW Community String">
<polygon fill="none" stroke="black" stroke-width="3" stroke-dasharray="1,5" points="1753.12,-794.96 1415.12,-794.96 1415.12,-734.96 1753.12,-734.96 1753.12,-794.96"/>
<text text-anchor="middle" x="1584.12" y="-771.76" font-family="Arial" font-size="24.00">REMOTE SERVICE EXPLOIT</text>
<text text-anchor="middle" x="1584.12" y="-745.76" font-family="Arial" font-size="24.00">snmp | ID: 1158</text>
</a>
</g>
</g>
<!-- INFO DISCOVERY
xdmcp&#45;&gt;REMOTE SERVICE EXPLOIT
snmp | ID: 1158 -->
<g id="edge20" class="edge">
<title>INFO DISCOVERY
xdmcp&#45;&gt;REMOTE SERVICE EXPLOIT
snmp | ID: 1158</title>
<path fill="none" stroke="blue" stroke-width="5" d="M1614.08,-626.59C1607.62,-656.22 1598.98,-695.83 1592.64,-724.9"/>
<polygon fill="blue" stroke="blue" stroke-width="5" points="1588.36,-724 1590.5,-734.71 1596.91,-725.87 1588.36,-724"/>
<text text-anchor="middle" x="1742.62" y="-691.54" font-family="Arial" font-size="20.00" fill="blue">start_next: 04/11/17, 18:03:15</text>
<text text-anchor="middle" x="1742.62" y="-669.54" font-family="Arial" font-size="20.00" fill="blue">gap: &#45;75sec</text>
<text text-anchor="middle" x="1742.62" y="-647.54" font-family="Arial" font-size="20.00" fill="blue">end_prev: 04/11/17, 18:04:30</text>
</g>
<!-- ACCOUNT MANIPULATION
snmp | ID: 676 -->
<g id="node18" class="node">
<title>ACCOUNT MANIPULATION
snmp | ID: 676</title>
<g id="a_node18"><a xlink:title="GPL SNMP private access udp&#10;GPL SNMP public access udp">
<polygon fill="none" stroke="black" stroke-width="3" points="1691.12,-949.39 1371.12,-949.39 1371.12,-889.39 1691.12,-889.39 1691.12,-949.39"/>
<text text-anchor="middle" x="1531.12" y="-926.19" font-family="Arial" font-size="24.00">ACCOUNT MANIPULATION</text>
<text text-anchor="middle" x="1531.12" y="-900.19" font-family="Arial" font-size="24.00">snmp | ID: 676</text>
</a>
</g>
</g>
<!-- REMOTE SERVICE EXPLOIT
snmp | ID: 1158&#45;&gt;ACCOUNT MANIPULATION
snmp | ID: 676 -->
<g id="edge21" class="edge">
<title>REMOTE SERVICE EXPLOIT
snmp | ID: 1158&#45;&gt;ACCOUNT MANIPULATION
snmp | ID: 676</title>
<path fill="none" stroke="blue" stroke-width="5" d="M1574.03,-794.99C1565.69,-818.97 1553.79,-853.21 1544.63,-879.54"/>
<polygon fill="blue" stroke="blue" stroke-width="5" points="1540.42,-878.33 1541.27,-889.21 1548.69,-881.2 1540.42,-878.33"/>
<text text-anchor="middle" x="1696.62" y="-865.39" font-family="Arial" font-size="20.00" fill="blue">start_next: 04/11/17, 18:03:58</text>
<text text-anchor="middle" x="1696.62" y="-843.39" font-family="Arial" font-size="20.00" fill="blue">gap: 43sec</text>
<text text-anchor="middle" x="1696.62" y="-821.39" font-family="Arial" font-size="20.00" fill="blue">end_prev: 04/11/17, 18:03:15</text>
</g>
<!-- DATA EXFILTRATION
http | ID: 228 -->
<g id="node19" class="node">
<title>DATA EXFILTRATION
http | ID: 228</title>
<g id="a_node19"><a xlink:title="ET WEB_SPECIFIC_APPS PHP&#45;CGI query string parameter vulnerability&#10;ET WEB_SERVER Tilde in URI &#45; potential .php~ source disclosure vulnerability">
<polygon fill="none" stroke="black" stroke-width="3" points="1697,-1173.23 1594.56,-1222.21 1389.68,-1222.21 1287.24,-1173.23 1389.68,-1124.25 1594.56,-1124.25 1697,-1173.23"/>
<text text-anchor="middle" x="1492.12" y="-1180.03" font-family="Arial" font-size="24.00">DATA EXFILTRATION</text>
<text text-anchor="middle" x="1492.12" y="-1154.03" font-family="Arial" font-size="24.00">http | ID: 228</text>
</a>
</g>
</g>
<!-- ACCOUNT MANIPULATION
snmp | ID: 676&#45;&gt;DATA EXFILTRATION
http | ID: 228 -->
<g id="edge22" class="edge">
<title>ACCOUNT MANIPULATION
snmp | ID: 676&#45;&gt;DATA EXFILTRATION
http | ID: 228</title>
<path fill="none" stroke="blue" stroke-width="5" d="M1526.57,-949.77C1520.36,-989.92 1509.07,-1062.77 1501.12,-1114.15"/>
<polygon fill="blue" stroke="blue" stroke-width="5" points="1496.78,-1113.57 1499.57,-1124.12 1505.43,-1114.91 1496.78,-1113.57"/>
<text text-anchor="middle" x="1656.62" y="-1016.82" font-family="Arial" font-size="20.00" fill="blue">start_next: 04/11/17, 18:04:35</text>
<text text-anchor="middle" x="1656.62" y="-994.82" font-family="Arial" font-size="20.00" fill="blue">gap: 25sec</text>
<text text-anchor="middle" x="1656.62" y="-972.82" font-family="Arial" font-size="20.00" fill="blue">end_prev: 04/11/17, 18:04:10</text>
</g>
<!-- DATA EXFILTRATION
http | ID: 228&#45;&gt;DATA DELIVERY
http | ID: 21 -->
<g id="edge23" class="edge">
<title>DATA EXFILTRATION
http | ID: 228&#45;&gt;DATA DELIVERY
http | ID: 21</title>
<path fill="none" stroke="blue" stroke-width="5" d="M1410.06,-1222.34C1328.92,-1269.91 1205.04,-1342.53 1120.97,-1391.81"/>
<polygon fill="blue" stroke="blue" stroke-width="5" points="1118.61,-1388.12 1112.2,-1396.95 1123.04,-1395.67 1118.61,-1388.12"/>
<text text-anchor="middle" x="1523.62" y="-1289.65" font-family="Arial" font-size="20.00" fill="blue">start_next: 04/11/17, 18:04:36</text>
<text text-anchor="middle" x="1523.62" y="-1267.65" font-family="Arial" font-size="20.00" fill="blue">gap: &#45;11sec</text>
<text text-anchor="middle" x="1523.62" y="-1245.65" font-family="Arial" font-size="20.00" fill="blue">end_prev: 04/11/17, 18:04:47</text>
</g>
</g>
</svg>
