<?xml version="1.0" encoding="UTF-8" standalone="no"?>
<!DOCTYPE svg PUBLIC "-//W3C//DTD SVG 1.1//EN"
 "http://www.w3.org/Graphics/SVG/1.1/DTD/svg11.dtd">
<!-- Generated by graphviz version 2.50.0 (0)
 -->
<!-- Title: DATAEXFILTRATIONmicrosoftds Pages: 1 -->
<svg width="782pt" height="766pt"
 viewBox="0.00 0.00 782.12 766.33" xmlns="http://www.w3.org/2000/svg" xmlns:xlink="http://www.w3.org/1999/xlink">
<g id="graph0" class="graph" transform="scale(1 1) rotate(0) translate(4 762.33)">
<title>DATAEXFILTRATIONmicrosoftds</title>
<polygon fill="white" stroke="transparent" points="-4,4 -4,-762.33 778.12,-762.33 778.12,4 -4,4"/>
<!-- Victim: 10.0.0.224
DATA EXFILTRATION
microsoft&#45;ds -->
<g id="node1" class="node">
<title>Victim: 10.0.0.224
DATA EXFILTRATION
microsoft&#45;ds</title>
<polygon fill="salmon" stroke="black" stroke-width="3" points="433.34,-661.31 433.34,-715.7 320.74,-754.16 161.51,-754.16 48.91,-715.7 48.91,-661.31 161.51,-622.85 320.74,-622.85 433.34,-661.31"/>
<polygon fill="none" stroke="black" stroke-width="3" points="437.34,-658.46 437.34,-718.55 321.41,-758.15 160.84,-758.15 44.91,-718.55 44.91,-658.46 160.84,-618.86 321.41,-618.86 437.34,-658.46"/>
<text text-anchor="middle" x="241.12" y="-708.31" font-family="Arial" font-size="24.00">Victim: 10.0.0.224</text>
<text text-anchor="middle" x="241.12" y="-682.31" font-family="Arial" font-size="24.00">DATA EXFILTRATION</text>
<text text-anchor="middle" x="241.12" y="-656.31" font-family="Arial" font-size="24.00">microsoft&#45;ds</text>
</g>
<!-- DATA EXFILTRATION
microsoft&#45;ds | ID: 37 -->
<g id="node2" class="node">
<title>DATA EXFILTRATION
microsoft&#45;ds | ID: 37</title>
<g id="a_node2"><a xlink:title="GPL NETBIOS SMB&#45;DS IPC$ share access&#10;GPL NETBIOS SMB&#45;DS ADMIN$ share access">
<polygon fill="salmon" stroke="black" stroke-width="3" points="446,-552.7 343.56,-601.68 138.68,-601.68 36.24,-552.7 138.68,-503.72 343.56,-503.72 446,-552.7"/>
<text text-anchor="middle" x="241.12" y="-559.5" font-family="Arial" font-size="24.00">DATA EXFILTRATION</text>
<text text-anchor="middle" x="241.12" y="-533.5" font-family="Arial" font-size="24.00">microsoft&#45;ds | ID: 37</text>
</a>
</g>
</g>
<!-- DATA EXFILTRATION
microsoft&#45;ds | ID: 37&#45;&gt;Victim: 10.0.0.224
DATA EXFILTRATION
microsoft&#45;ds -->
<g id="edge1" class="edge">
<title>DATA EXFILTRATION
microsoft&#45;ds | ID: 37&#45;&gt;Victim: 10.0.0.224
DATA EXFILTRATION
microsoft&#45;ds</title>
<path fill="none" stroke="black" stroke-width="5" d="M241.12,-602C241.12,-604.11 241.12,-606.24 241.12,-608.39"/>
<polygon fill="black" stroke="black" stroke-width="5" points="236.75,-608.54 241.12,-618.54 245.5,-608.54 236.75,-608.54"/>
</g>
<!-- VULNERABILTY DISCOVERY
ncube&#45;lm -->
<g id="node3" class="node">
<title>VULNERABILTY DISCOVERY
ncube&#45;lm</title>
<g id="a_node3"><a xlink:title="ET POLICY Suspicious inbound to Oracle SQL port 1521">
<ellipse fill="yellow" stroke="black" stroke-width="3" cx="241.12" cy="-42.43" rx="241.25" ry="42.35"/>
<text text-anchor="middle" x="241.12" y="-49.23" font-family="Arial" font-size="24.00">VULNERABILTY DISCOVERY</text>
<text text-anchor="middle" x="241.12" y="-23.23" font-family="Arial" font-size="24.00">ncube&#45;lm</text>
</a>
</g>
</g>
<!-- VULNERABILTY DISCOVERY
ncube&#45;lm&#45;&gt;DATA EXFILTRATION
microsoft&#45;ds | ID: 37 -->
<g id="edge5" class="edge">
<title>VULNERABILTY DISCOVERY
ncube&#45;lm&#45;&gt;DATA EXFILTRATION
microsoft&#45;ds | ID: 37</title>
<path fill="none" stroke="turquoise" stroke-width="5" d="M238.83,-85.08C235.84,-144.63 231.18,-257.54 233.12,-353.71 234.07,-400.75 236.29,-454.04 238.15,-493.48"/>
<polygon fill="turquoise" stroke="turquoise" stroke-width="5" points="233.79,-493.92 238.64,-503.7 242.53,-493.5 233.79,-493.92"/>
<text text-anchor="start" x="233.12" y="-338.71" font-family="Arial" font-size="20.00" fill="turquoise"> start_next: 04/11/17, 16:30:20</text>
<text text-anchor="start" x="306.62" y="-318.71" font-family="Arial" font-size="20.00" fill="turquoise">gap: 2187sec</text>
<text text-anchor="start" x="237.12" y="-298.71" font-family="Arial" font-size="20.00" fill="turquoise">end_prev: 04/11/17, 15:53:53</text>
<text text-anchor="start" x="267.62" y="-278.71" font-family="Arial" font-weight="bold" font-size="20.00" fill="turquoise">Attacker: 10.0.254.31</text>
</g>
<!-- SERVICE DISCOVERY
ag&#45;swim -->
<g id="node4" class="node">
<title>SERVICE DISCOVERY
ag&#45;swim</title>
<g id="a_node4"><a xlink:title="ET SCAN Potential VNC Scan 5900&#45;5920">
<ellipse fill="none" stroke="black" stroke-width="3" cx="473.12" cy="-223.28" rx="189.51" ry="42.35"/>
<text text-anchor="middle" x="473.12" y="-230.08" font-family="Arial" font-size="24.00">SERVICE DISCOVERY</text>
<text text-anchor="middle" x="473.12" y="-204.08" font-family="Arial" font-size="24.00">ag&#45;swim</text>
</a>
</g>
</g>
<!-- VULNERABILTY DISCOVERY
ncube&#45;lm&#45;&gt;SERVICE DISCOVERY
ag&#45;swim -->
<g id="edge2" class="edge">
<title>VULNERABILTY DISCOVERY
ncube&#45;lm&#45;&gt;SERVICE DISCOVERY
ag&#45;swim</title>
<path fill="none" stroke="darkgreen" stroke-width="5" d="M293.77,-84.01C329.19,-111.32 375.98,-147.39 412.89,-175.85"/>
<polygon fill="darkgreen" stroke="darkgreen" stroke-width="5" points="410.5,-179.52 421.09,-182.16 415.84,-172.59 410.5,-179.52"/>
<text text-anchor="start" x="404.12" y="-157.85" font-family="Arial" font-size="20.00" fill="darkgreen"> start_next: 04/11/17, 13:53:29</text>
<text text-anchor="start" x="483.62" y="-137.85" font-family="Arial" font-size="20.00" fill="darkgreen">gap: 340sec</text>
<text text-anchor="start" x="408.12" y="-117.85" font-family="Arial" font-size="20.00" fill="darkgreen">end_prev: 04/11/17, 13:47:50</text>
<text text-anchor="start" x="438.62" y="-97.85" font-family="Arial" font-weight="bold" font-size="20.00" fill="darkgreen">Attacker: 10.0.254.35</text>
</g>
<!-- COMMAND AND CONTROL
unknown | ID: 308 -->
<g id="node5" class="node">
<title>COMMAND AND CONTROL
unknown | ID: 308</title>
<g id="a_node5"><a xlink:title="ET POLICY RDP connection confirm">
<polygon fill="none" stroke="black" stroke-width="3" points="620.62,-421.71 297.62,-421.71 297.62,-361.71 620.62,-361.71 620.62,-421.71"/>
<text text-anchor="middle" x="459.12" y="-398.51" font-family="Arial" font-size="24.00">COMMAND AND CONTROL</text>
<text text-anchor="middle" x="459.12" y="-372.51" font-family="Arial" font-size="24.00">unknown | ID: 308</text>
</a>
</g>
</g>
<!-- SERVICE DISCOVERY
ag&#45;swim&#45;&gt;COMMAND AND CONTROL
unknown | ID: 308 -->
<g id="edge3" class="edge">
<title>SERVICE DISCOVERY
ag&#45;swim&#45;&gt;COMMAND AND CONTROL
unknown | ID: 308</title>
<path fill="none" stroke="darkgreen" stroke-width="5" d="M499.31,-265.38C500.41,-268.13 501.37,-270.92 502.12,-273.71 510.68,-305.2 516.02,-319.05 501.88,-352.06"/>
<polygon fill="darkgreen" stroke="darkgreen" stroke-width="5" points="497.79,-350.48 497.61,-361.39 505.75,-354.12 497.79,-350.48"/>
<text text-anchor="middle" x="642.62" y="-330.71" font-family="Arial" font-size="20.00" fill="darkgreen">start_next: 04/11/17, 13:54:51</text>
<text text-anchor="middle" x="642.62" y="-308.71" font-family="Arial" font-size="20.00" fill="darkgreen">gap: 82sec</text>
<text text-anchor="middle" x="642.62" y="-286.71" font-family="Arial" font-size="20.00" fill="darkgreen">end_prev: 04/11/17, 13:53:29</text>
</g>
<!-- COMMAND AND CONTROL
unknown | ID: 308&#45;&gt;DATA EXFILTRATION
microsoft&#45;ds | ID: 37 -->
<g id="edge4" class="edge">
<title>COMMAND AND CONTROL
unknown | ID: 308&#45;&gt;DATA EXFILTRATION
microsoft&#45;ds | ID: 37</title>
<path fill="none" stroke="darkgreen" stroke-width="5" d="M419.14,-421.87C390.12,-443.03 350.02,-472.28 315.22,-497.66"/>
<polygon fill="darkgreen" stroke="darkgreen" stroke-width="5" points="312.46,-494.25 306.96,-503.68 317.62,-501.32 312.46,-494.25"/>
<text text-anchor="middle" x="537.62" y="-479.71" font-family="Arial" font-size="20.00" fill="darkgreen">start_next: 04/11/17, 14:38:54</text>
<text text-anchor="middle" x="537.62" y="-457.71" font-family="Arial" font-size="20.00" fill="darkgreen">gap: 2643sec</text>
<text text-anchor="middle" x="537.62" y="-435.71" font-family="Arial" font-size="20.00" fill="darkgreen">end_prev: 04/11/17, 13:54:51</text>
</g>
</g>
</svg>
