<?xml version="1.0" encoding="UTF-8" standalone="no"?>
<!DOCTYPE svg PUBLIC "-//W3C//DTD SVG 1.1//EN"
 "http://www.w3.org/Graphics/SVG/1.1/DTD/svg11.dtd">
<!-- Generated by graphviz version 2.50.0 (0)
 -->
<!-- Title: DATADELIVERYhttp Pages: 1 -->
<svg width="2727pt" height="1410pt"
 viewBox="0.00 0.00 2727.00 1410.12" xmlns="http://www.w3.org/2000/svg" xmlns:xlink="http://www.w3.org/1999/xlink">
<g id="graph0" class="graph" transform="scale(1 1) rotate(0) translate(4 1406.12)">
<title>DATADELIVERYhttp</title>
<polygon fill="white" stroke="transparent" points="-4,4 -4,-1406.12 2723,-1406.12 2723,4 -4,4"/>
<!-- Victim: 10.0.0.77
DATA DELIVERY
http -->
<g id="node1" class="node">
<title>Victim: 10.0.0.77
DATA DELIVERY
http</title>
<polygon fill="salmon" stroke="black" stroke-width="3" points="2360.14,-1305.1 2360.14,-1359.49 2270.43,-1397.95 2143.57,-1397.95 2053.86,-1359.49 2053.86,-1305.1 2143.57,-1266.64 2270.43,-1266.64 2360.14,-1305.1"/>
<polygon fill="none" stroke="black" stroke-width="3" points="2364.15,-1302.48 2364.15,-1362.12 2271.26,-1401.94 2142.74,-1401.94 2049.85,-1362.12 2049.85,-1302.48 2142.74,-1262.65 2271.26,-1262.65 2364.15,-1302.48"/>
<text text-anchor="middle" x="2207" y="-1352.1" font-family="Arial" font-size="24.00">Victim: 10.0.0.77</text>
<text text-anchor="middle" x="2207" y="-1326.1" font-family="Arial" font-size="24.00">DATA DELIVERY</text>
<text text-anchor="middle" x="2207" y="-1300.1" font-family="Arial" font-size="24.00">http</text>
</g>
<!-- DATA DELIVERY
http | ID: 21 -->
<g id="node2" class="node">
<title>DATA DELIVERY
http | ID: 21</title>
<g id="a_node2"><a xlink:title="ET WEB_SERVER PHP tags in HTTP POST">
<polygon fill="salmon" stroke="black" stroke-width="3" points="2572.1,-1131.49 2490.55,-1180.47 2327.45,-1180.47 2245.9,-1131.49 2327.45,-1082.51 2490.55,-1082.51 2572.1,-1131.49"/>
<text text-anchor="middle" x="2409" y="-1138.29" font-family="Arial" font-size="24.00">DATA DELIVERY</text>
<text text-anchor="middle" x="2409" y="-1112.29" font-family="Arial" font-size="24.00">http | ID: 21</text>
</a>
</g>
</g>
<!-- DATA DELIVERY
http | ID: 21&#45;&gt;Victim: 10.0.0.77
DATA DELIVERY
http -->
<g id="edge1" class="edge">
<title>DATA DELIVERY
http | ID: 21&#45;&gt;Victim: 10.0.0.77
DATA DELIVERY
http</title>
<path fill="none" stroke="black" stroke-width="5" d="M2360.1,-1180.61C2336.83,-1203.51 2308.49,-1231.41 2282.54,-1256.95"/>
<polygon fill="black" stroke="black" stroke-width="5" points="2279.35,-1253.95 2275.29,-1264.09 2285.49,-1260.19 2279.35,-1253.95"/>
</g>
<!-- DATA DELIVERY
http | ID: 246 -->
<g id="node3" class="node">
<title>DATA DELIVERY
http | ID: 246</title>
<g id="a_node3"><a xlink:title="ET WEB_SERVER PHP Possible php Remote File Inclusion Attempt&#10;ET WEB_SERVER PHP tags in HTTP POST&#10;GPL WEB_SERVER perl post attempt">
<polygon fill="salmon" stroke="black" stroke-width="3" points="2168.1,-1131.49 2086.55,-1180.47 1923.45,-1180.47 1841.9,-1131.49 1923.45,-1082.51 2086.55,-1082.51 2168.1,-1131.49"/>
<text text-anchor="middle" x="2005" y="-1138.29" font-family="Arial" font-size="24.00">DATA DELIVERY</text>
<text text-anchor="middle" x="2005" y="-1112.29" font-family="Arial" font-size="24.00">http | ID: 246</text>
</a>
</g>
</g>
<!-- DATA DELIVERY
http | ID: 246&#45;&gt;Victim: 10.0.0.77
DATA DELIVERY
http -->
<g id="edge2" class="edge">
<title>DATA DELIVERY
http | ID: 246&#45;&gt;Victim: 10.0.0.77
DATA DELIVERY
http</title>
<path fill="none" stroke="black" stroke-width="5" d="M2053.9,-1180.61C2077.17,-1203.51 2105.51,-1231.41 2131.46,-1256.95"/>
<polygon fill="black" stroke="black" stroke-width="5" points="2128.51,-1260.19 2138.71,-1264.09 2134.65,-1253.95 2128.51,-1260.19"/>
</g>
<!-- SERVICE DISCOVERY
ff&#45;ice -->
<g id="node4" class="node">
<title>SERVICE DISCOVERY
ff&#45;ice</title>
<g id="a_node4"><a xlink:title="ET SCAN Potential VNC Scan 5900&#45;5920">
<ellipse fill="yellow" stroke="black" stroke-width="3" cx="1016" cy="-764.09" rx="189.51" ry="42.35"/>
<text text-anchor="middle" x="1016" y="-770.89" font-family="Arial" font-size="24.00">SERVICE DISCOVERY</text>
<text text-anchor="middle" x="1016" y="-744.89" font-family="Arial" font-size="24.00">ff&#45;ice</text>
</a>
</g>
</g>
<!-- VULNERABILTY DISCOVERY
postgresql -->
<g id="node5" class="node">
<title>VULNERABILTY DISCOVERY
postgresql</title>
<g id="a_node5"><a xlink:title="ET POLICY Suspicious inbound to mSQL port 4333&#10;ET POLICY Suspicious inbound to Oracle SQL port 1521&#10;ET POLICY Suspicious inbound to PostgreSQL port 5432">
<ellipse fill="none" stroke="black" stroke-width="3" cx="1016" cy="-951.51" rx="241.25" ry="42.35"/>
<text text-anchor="middle" x="1016" y="-958.31" font-family="Arial" font-size="24.00">VULNERABILTY DISCOVERY</text>
<text text-anchor="middle" x="1016" y="-932.31" font-family="Arial" font-size="24.00">postgresql</text>
</a>
</g>
</g>
<!-- SERVICE DISCOVERY
ff&#45;ice&#45;&gt;VULNERABILTY DISCOVERY
postgresql -->
<g id="edge3" class="edge">
<title>SERVICE DISCOVERY
ff&#45;ice&#45;&gt;VULNERABILTY DISCOVERY
postgresql</title>
<path fill="none" stroke="blue" stroke-width="5" d="M1016,-806.7C1016,-833.9 1016,-869.63 1016,-898.67"/>
<polygon fill="blue" stroke="blue" stroke-width="5" points="1011.63,-899.04 1016,-909.04 1020.38,-899.04 1011.63,-899.04"/>
<text text-anchor="start" x="1016" y="-879.52" font-family="Arial" font-size="20.00" fill="blue"> start_next: 04/11/17, 13:03:10</text>
<text text-anchor="start" x="1101" y="-859.52" font-family="Arial" font-size="20.00" fill="blue">gap: 63sec</text>
<text text-anchor="start" x="1020" y="-839.52" font-family="Arial" font-size="20.00" fill="blue">end_prev: 04/11/17, 13:02:07</text>
<text text-anchor="start" x="1050.5" y="-819.52" font-family="Arial" font-weight="bold" font-size="20.00" fill="blue">Attacker: 10.0.254.31</text>
</g>
<!-- VULNERABILTY DISCOVERY
postgresql&#45;&gt;VULNERABILTY DISCOVERY
postgresql -->
<g id="edge4" class="edge">
<title>VULNERABILTY DISCOVERY
postgresql&#45;&gt;VULNERABILTY DISCOVERY
postgresql</title>
<path fill="none" stroke="blue" stroke-width="5" d="M1251.58,-942.37C1259.56,-944.81 1264.12,-947.86 1264.12,-951.51 1264.12,-953.33 1262.98,-955.01 1260.85,-956.53"/>
<polygon fill="blue" stroke="blue" stroke-width="5" points="1258.95,-952.59 1251.58,-960.65 1262.5,-960.59 1258.95,-952.59"/>
<text text-anchor="middle" x="1395.62" y="-968.51" font-family="Arial" font-size="20.00" fill="blue">start_next: 04/11/17, 13:59:59</text>
<text text-anchor="middle" x="1395.62" y="-946.51" font-family="Arial" font-size="20.00" fill="blue">gap: 3353sec</text>
<text text-anchor="middle" x="1395.62" y="-924.51" font-family="Arial" font-size="20.00" fill="blue">end_prev: 04/11/17, 13:04:06</text>
</g>
<!-- BRUTE FORCE CREDENTIALS
pop3s | ID: 886 -->
<g id="node6" class="node">
<title>BRUTE FORCE CREDENTIALS
pop3s | ID: 886</title>
<g id="a_node6"><a xlink:title="ET SCAN Rapid POP3S Connections &#45; Possible Brute Force Attack">
<polygon fill="none" stroke="black" stroke-width="3" points="1095,-1161.49 733,-1161.49 733,-1101.49 1095,-1101.49 1095,-1161.49"/>
<text text-anchor="middle" x="914" y="-1138.29" font-family="Arial" font-size="24.00">BRUTE FORCE CREDENTIALS</text>
<text text-anchor="middle" x="914" y="-1112.29" font-family="Arial" font-size="24.00">pop3s | ID: 886</text>
</a>
</g>
</g>
<!-- VULNERABILTY DISCOVERY
postgresql&#45;&gt;BRUTE FORCE CREDENTIALS
pop3s | ID: 886 -->
<g id="edge5" class="edge">
<title>VULNERABILTY DISCOVERY
postgresql&#45;&gt;BRUTE FORCE CREDENTIALS
pop3s | ID: 886</title>
<path fill="none" stroke="blue" stroke-width="5" d="M992.34,-993.79C975.3,-1023.53 952.46,-1063.37 935.85,-1092.37"/>
<polygon fill="blue" stroke="blue" stroke-width="5" points="931.86,-1090.52 930.69,-1101.37 939.45,-1094.87 931.86,-1090.52"/>
<text text-anchor="middle" x="1115.5" y="-1058.5" font-family="Arial" font-size="20.00" fill="blue">start_next: 04/11/17, 14:00:31</text>
<text text-anchor="middle" x="1115.5" y="-1036.5" font-family="Arial" font-size="20.00" fill="blue">gap: 31sec</text>
<text text-anchor="middle" x="1115.5" y="-1014.5" font-family="Arial" font-size="20.00" fill="blue">end_prev: 04/11/17, 14:00:01</text>
</g>
<!-- ARBITRARY CODE EXECUTION
ssdp | ID: 355 -->
<g id="node7" class="node">
<title>ARBITRARY CODE EXECUTION
ssdp | ID: 355</title>
<g id="a_node7"><a xlink:title="GPL MISC UPnP malformed advertisement">
<polygon fill="none" stroke="black" stroke-width="3" points="562.5,-1362.3 187.5,-1362.3 187.5,-1302.3 562.5,-1302.3 562.5,-1362.3"/>
<text text-anchor="middle" x="375" y="-1339.1" font-family="Arial" font-size="24.00">ARBITRARY CODE EXECUTION</text>
<text text-anchor="middle" x="375" y="-1313.1" font-family="Arial" font-size="24.00">ssdp | ID: 355</text>
</a>
</g>
</g>
<!-- BRUTE FORCE CREDENTIALS
pop3s | ID: 886&#45;&gt;ARBITRARY CODE EXECUTION
ssdp | ID: 355 -->
<g id="edge6" class="edge">
<title>BRUTE FORCE CREDENTIALS
pop3s | ID: 886&#45;&gt;ARBITRARY CODE EXECUTION
ssdp | ID: 355</title>
<path fill="none" stroke="blue" stroke-width="5" d="M878.51,-1161.52C842.66,-1189.41 784.62,-1230.71 728,-1254.48 679.24,-1274.94 624.3,-1290.26 572.55,-1301.6"/>
<polygon fill="blue" stroke="blue" stroke-width="5" points="571.45,-1297.36 562.59,-1303.75 573.29,-1305.92 571.45,-1297.36"/>
<text text-anchor="middle" x="974.5" y="-1238.48" font-family="Arial" font-size="20.00" fill="blue">start_next: 04/11/17, 14:01:34</text>
<text text-anchor="middle" x="974.5" y="-1216.48" font-family="Arial" font-size="20.00" fill="blue">gap: 63sec</text>
<text text-anchor="middle" x="974.5" y="-1194.48" font-family="Arial" font-size="20.00" fill="blue">end_prev: 04/11/17, 14:00:31</text>
</g>
<!-- REMOTE SERVICE EXPLOIT
snmp | ID: 52 -->
<g id="node8" class="node">
<title>REMOTE SERVICE EXPLOIT
snmp | ID: 52</title>
<g id="a_node8"><a xlink:title="ET SNMP Samsung Printer SNMP Hardcode RW Community String">
<polygon fill="none" stroke="black" stroke-width="3" points="485,-72.43 147,-72.43 147,-12.43 485,-12.43 485,-72.43"/>
<text text-anchor="middle" x="316" y="-49.23" font-family="Arial" font-size="24.00">REMOTE SERVICE EXPLOIT</text>
<text text-anchor="middle" x="316" y="-23.23" font-family="Arial" font-size="24.00">snmp | ID: 52</text>
</a>
</g>
</g>
<!-- ARBITRARY CODE EXECUTION
ssdp | ID: 355&#45;&gt;REMOTE SERVICE EXPLOIT
snmp | ID: 52 -->
<g id="edge7" class="edge">
<title>ARBITRARY CODE EXECUTION
ssdp | ID: 355&#45;&gt;REMOTE SERVICE EXPLOIT
snmp | ID: 52</title>
<path fill="none" stroke="blue" stroke-width="5" d="M349.51,-1302.27C319.88,-1265.46 275,-1198.75 275,-1132.49 275,-222.28 275,-222.28 275,-222.28 275,-173.07 289.93,-118.12 301.77,-82.28"/>
<polygon fill="blue" stroke="blue" stroke-width="5" points="305.95,-83.58 305.01,-72.7 297.66,-80.77 305.95,-83.58"/>
<text text-anchor="middle" x="406.5" y="-690.66" font-family="Arial" font-size="20.00" fill="blue">start_next: 04/11/17, 14:02:06</text>
<text text-anchor="middle" x="406.5" y="-668.66" font-family="Arial" font-size="20.00" fill="blue">gap: 21sec</text>
<text text-anchor="middle" x="406.5" y="-646.66" font-family="Arial" font-size="20.00" fill="blue">end_prev: 04/11/17, 14:01:44</text>
</g>
<!-- ARBITRARY CODE EXECUTION
ssdp | ID: 355&#45;&gt;REMOTE SERVICE EXPLOIT
snmp | ID: 52 -->
<g id="edge15" class="edge">
<title>ARBITRARY CODE EXECUTION
ssdp | ID: 355&#45;&gt;REMOTE SERVICE EXPLOIT
snmp | ID: 52</title>
<path fill="none" stroke="blue" stroke-width="5" d="M187.23,-1302.56C93.57,-1276.41 0,-1226.72 0,-1132.49 0,-222.28 0,-222.28 0,-222.28 0,-145.05 72.37,-100.78 147.84,-75.61"/>
<polygon fill="blue" stroke="blue" stroke-width="5" points="149.36,-79.71 157.54,-72.48 146.68,-71.38 149.36,-79.71"/>
<text text-anchor="middle" x="131.5" y="-690.66" font-family="Arial" font-size="20.00" fill="blue">start_next: 04/11/17, 16:30:22</text>
<text text-anchor="middle" x="131.5" y="-668.66" font-family="Arial" font-size="20.00" fill="blue">gap: 22sec</text>
<text text-anchor="middle" x="131.5" y="-646.66" font-family="Arial" font-size="20.00" fill="blue">end_prev: 04/11/17, 16:29:59</text>
</g>
<!-- SURFING
unknown -->
<g id="node9" class="node">
<title>SURFING
unknown</title>
<g id="a_node9"><a xlink:title="ET WEB_SERVER WEB&#45;PHP phpinfo access">
<ellipse fill="none" stroke="black" stroke-width="3" cx="439" cy="-223.28" rx="88.28" ry="42.35"/>
<text text-anchor="middle" x="439" y="-230.08" font-family="Arial" font-size="24.00">SURFING</text>
<text text-anchor="middle" x="439" y="-204.08" font-family="Arial" font-size="24.00">unknown</text>
</a>
</g>
</g>
<!-- REMOTE SERVICE EXPLOIT
snmp | ID: 52&#45;&gt;SURFING
unknown -->
<g id="edge8" class="edge">
<title>REMOTE SERVICE EXPLOIT
snmp | ID: 52&#45;&gt;SURFING
unknown</title>
<path fill="none" stroke="blue" stroke-width="5" d="M336.04,-72.56C354.97,-100.09 383.72,-141.9 406.03,-174.34"/>
<polygon fill="blue" stroke="blue" stroke-width="5" points="402.58,-177.04 411.85,-182.8 409.79,-172.08 402.58,-177.04"/>
<text text-anchor="middle" x="534.5" y="-149.85" font-family="Arial" font-size="20.00" fill="blue">start_next: 04/11/17, 14:04:16</text>
<text text-anchor="middle" x="534.5" y="-127.85" font-family="Arial" font-size="20.00" fill="blue">gap: 130sec</text>
<text text-anchor="middle" x="534.5" y="-105.85" font-family="Arial" font-size="20.00" fill="blue">end_prev: 04/11/17, 14:02:06</text>
</g>
<!-- SURFING
http -->
<g id="node15" class="node">
<title>SURFING
http</title>
<g id="a_node15"><a xlink:title="ET WEB_SERVER WEB&#45;PHP phpinfo access">
<ellipse fill="none" stroke="black" stroke-width="3" cx="2047" cy="-764.09" rx="88.28" ry="42.35"/>
<text text-anchor="middle" x="2047" y="-770.89" font-family="Arial" font-size="24.00">SURFING</text>
<text text-anchor="middle" x="2047" y="-744.89" font-family="Arial" font-size="24.00">http</text>
</a>
</g>
</g>
<!-- REMOTE SERVICE EXPLOIT
snmp | ID: 52&#45;&gt;SURFING
http -->
<g id="edge16" class="edge">
<title>REMOTE SERVICE EXPLOIT
snmp | ID: 52&#45;&gt;SURFING
http</title>
<path fill="none" stroke="blue" stroke-width="5" d="M485.2,-48.62C846.34,-61.97 1660,-105.06 1660,-222.28 1660,-222.28 1660,-222.28 1660,-577.68 1660,-705.68 1834.32,-745.38 1948.97,-757.65"/>
<polygon fill="blue" stroke="blue" stroke-width="5" points="1948.79,-762.03 1959.18,-758.69 1949.68,-753.33 1948.79,-762.03"/>
<text text-anchor="middle" x="1791.5" y="-413.7" font-family="Arial" font-size="20.00" fill="blue">start_next: 04/11/17, 16:32:49</text>
<text text-anchor="middle" x="1791.5" y="-391.7" font-family="Arial" font-size="20.00" fill="blue">gap: 147sec</text>
<text text-anchor="middle" x="1791.5" y="-369.7" font-family="Arial" font-size="20.00" fill="blue">end_prev: 04/11/17, 16:30:22</text>
</g>
<!-- DATA DELIVERY
unknown | ID: 388 -->
<g id="node10" class="node">
<title>DATA DELIVERY
unknown | ID: 388</title>
<g id="a_node10"><a xlink:title="ET WEB_SERVER PHP Possible php Remote File Inclusion Attempt&#10;ET WEB_SERVER PHP tags in HTTP POST&#10;GPL WEB_SERVER perl post attempt">
<polygon fill="none" stroke="black" stroke-width="3" points="652.06,-396.7 566.03,-445.68 393.97,-445.68 307.94,-396.7 393.97,-347.72 566.03,-347.72 652.06,-396.7"/>
<text text-anchor="middle" x="480" y="-403.5" font-family="Arial" font-size="24.00">DATA DELIVERY</text>
<text text-anchor="middle" x="480" y="-377.5" font-family="Arial" font-size="24.00">unknown | ID: 388</text>
</a>
</g>
</g>
<!-- SURFING
unknown&#45;&gt;DATA DELIVERY
unknown | ID: 388 -->
<g id="edge9" class="edge">
<title>SURFING
unknown&#45;&gt;DATA DELIVERY
unknown | ID: 388</title>
<path fill="none" stroke="blue" stroke-width="5" d="M448.92,-265.77C454.09,-287.36 460.48,-314.1 466.13,-337.7"/>
<polygon fill="blue" stroke="blue" stroke-width="5" points="461.92,-338.89 468.5,-347.6 470.43,-336.86 461.92,-338.89"/>
<text text-anchor="middle" x="597.5" y="-323.71" font-family="Arial" font-size="20.00" fill="blue">start_next: 04/11/17, 14:04:17</text>
<text text-anchor="middle" x="597.5" y="-301.71" font-family="Arial" font-size="20.00" fill="blue">gap: 2sec</text>
<text text-anchor="middle" x="597.5" y="-279.71" font-family="Arial" font-size="20.00" fill="blue">end_prev: 04/11/17, 14:04:16</text>
</g>
<!-- DATA EXFILTRATION
unknown | ID: 57 -->
<g id="node11" class="node">
<title>DATA EXFILTRATION
unknown | ID: 57</title>
<g id="a_node11"><a xlink:title="ET WEB_SPECIFIC_APPS PHP&#45;CGI query string parameter vulnerability">
<polygon fill="none" stroke="black" stroke-width="3" points="738.88,-576.68 636.44,-625.65 431.56,-625.65 329.12,-576.68 431.56,-527.7 636.44,-527.7 738.88,-576.68"/>
<text text-anchor="middle" x="534" y="-583.48" font-family="Arial" font-size="24.00">DATA EXFILTRATION</text>
<text text-anchor="middle" x="534" y="-557.48" font-family="Arial" font-size="24.00">unknown | ID: 57</text>
</a>
</g>
</g>
<!-- DATA DELIVERY
unknown | ID: 388&#45;&gt;DATA EXFILTRATION
unknown | ID: 57 -->
<g id="edge10" class="edge">
<title>DATA DELIVERY
unknown | ID: 388&#45;&gt;DATA EXFILTRATION
unknown | ID: 57</title>
<path fill="none" stroke="blue" stroke-width="5" d="M494.61,-445.86C501.34,-468.02 509.37,-494.49 516.42,-517.73"/>
<polygon fill="blue" stroke="blue" stroke-width="5" points="512.29,-519.17 519.38,-527.47 520.66,-516.63 512.29,-519.17"/>
<text text-anchor="middle" x="648.5" y="-503.69" font-family="Arial" font-size="20.00" fill="blue">start_next: 04/11/17, 14:04:26</text>
<text text-anchor="middle" x="648.5" y="-481.69" font-family="Arial" font-size="20.00" fill="blue">gap: &#45;6sec</text>
<text text-anchor="middle" x="648.5" y="-459.69" font-family="Arial" font-size="20.00" fill="blue">end_prev: 04/11/17, 14:04:32</text>
</g>
<!-- HOST DISCOVERY
ms&#45;wbt&#45;server -->
<g id="node12" class="node">
<title>HOST DISCOVERY
ms&#45;wbt&#45;server</title>
<g id="a_node12"><a xlink:title="ET SCAN Behavioral Unusually fast Terminal Server Traffic Potential Scan or Infection (Inbound)">
<ellipse fill="none" stroke="black" stroke-width="3" cx="544" cy="-764.09" rx="162.77" ry="42.35"/>
<text text-anchor="middle" x="544" y="-770.89" font-family="Arial" font-size="24.00">HOST DISCOVERY</text>
<text text-anchor="middle" x="544" y="-744.89" font-family="Arial" font-size="24.00">ms&#45;wbt&#45;server</text>
</a>
</g>
</g>
<!-- DATA EXFILTRATION
unknown | ID: 57&#45;&gt;HOST DISCOVERY
ms&#45;wbt&#45;server -->
<g id="edge11" class="edge">
<title>DATA EXFILTRATION
unknown | ID: 57&#45;&gt;HOST DISCOVERY
ms&#45;wbt&#45;server</title>
<path fill="none" stroke="blue" stroke-width="5" d="M538.46,-625.92C538.66,-628.54 538.84,-631.13 539,-633.66 540.63,-659.18 541.8,-687.55 542.59,-711.22"/>
<polygon fill="blue" stroke="blue" stroke-width="5" points="538.23,-711.53 542.92,-721.39 546.97,-711.25 538.23,-711.53"/>
<text text-anchor="middle" x="674.5" y="-690.66" font-family="Arial" font-size="20.00" fill="blue">start_next: 04/11/17, 16:27:35</text>
<text text-anchor="middle" x="674.5" y="-668.66" font-family="Arial" font-size="20.00" fill="blue">gap: 8584sec</text>
<text text-anchor="middle" x="674.5" y="-646.66" font-family="Arial" font-size="20.00" fill="blue">end_prev: 04/11/17, 14:04:32</text>
</g>
<!-- VULNERABILTY DISCOVERY
ms&#45;sql&#45;s -->
<g id="node13" class="node">
<title>VULNERABILTY DISCOVERY
ms&#45;sql&#45;s</title>
<g id="a_node13"><a xlink:title="ET POLICY Suspicious inbound to MSSQL port 1433&#10;ET POLICY Suspicious inbound to mSQL port 4333">
<ellipse fill="none" stroke="black" stroke-width="3" cx="527" cy="-951.51" rx="241.25" ry="42.35"/>
<text text-anchor="middle" x="527" y="-958.31" font-family="Arial" font-size="24.00">VULNERABILTY DISCOVERY</text>
<text text-anchor="middle" x="527" y="-932.31" font-family="Arial" font-size="24.00">ms&#45;sql&#45;s</text>
</a>
</g>
</g>
<!-- HOST DISCOVERY
ms&#45;wbt&#45;server&#45;&gt;VULNERABILTY DISCOVERY
ms&#45;sql&#45;s -->
<g id="edge12" class="edge">
<title>HOST DISCOVERY
ms&#45;wbt&#45;server&#45;&gt;VULNERABILTY DISCOVERY
ms&#45;sql&#45;s</title>
<path fill="none" stroke="blue" stroke-width="5" d="M540.18,-806.7C537.68,-834.02 534.39,-869.94 531.72,-899.05"/>
<polygon fill="blue" stroke="blue" stroke-width="5" points="527.36,-898.68 530.8,-909.04 536.07,-899.48 527.36,-898.68"/>
<text text-anchor="middle" x="671.5" y="-871.52" font-family="Arial" font-size="20.00" fill="blue">start_next: 04/11/17, 16:28:00</text>
<text text-anchor="middle" x="671.5" y="-849.52" font-family="Arial" font-size="20.00" fill="blue">gap: 24sec</text>
<text text-anchor="middle" x="671.5" y="-827.52" font-family="Arial" font-size="20.00" fill="blue">end_prev: 04/11/17, 16:27:35</text>
</g>
<!-- SERVICE DISCOVERY
ssh -->
<g id="node14" class="node">
<title>SERVICE DISCOVERY
ssh</title>
<g id="a_node14"><a xlink:title="ET SCAN Potential SSH Scan">
<ellipse fill="none" stroke="black" stroke-width="3" cx="501" cy="-1131.49" rx="189.51" ry="42.35"/>
<text text-anchor="middle" x="501" y="-1138.29" font-family="Arial" font-size="24.00">SERVICE DISCOVERY</text>
<text text-anchor="middle" x="501" y="-1112.29" font-family="Arial" font-size="24.00">ssh</text>
</a>
</g>
</g>
<!-- VULNERABILTY DISCOVERY
ms&#45;sql&#45;s&#45;&gt;SERVICE DISCOVERY
ssh -->
<g id="edge13" class="edge">
<title>VULNERABILTY DISCOVERY
ms&#45;sql&#45;s&#45;&gt;SERVICE DISCOVERY
ssh</title>
<path fill="none" stroke="blue" stroke-width="5" d="M520.9,-994.24C517.2,-1019.56 512.45,-1052.09 508.52,-1079"/>
<polygon fill="blue" stroke="blue" stroke-width="5" points="504.17,-1078.49 507.06,-1089.02 512.83,-1079.76 504.17,-1078.49"/>
<text text-anchor="middle" x="650.5" y="-1058.5" font-family="Arial" font-size="20.00" fill="blue">start_next: 04/11/17, 16:28:26</text>
<text text-anchor="middle" x="650.5" y="-1036.5" font-family="Arial" font-size="20.00" fill="blue">gap: &#45;28sec</text>
<text text-anchor="middle" x="650.5" y="-1014.5" font-family="Arial" font-size="20.00" fill="blue">end_prev: 04/11/17, 16:28:54</text>
</g>
<!-- SERVICE DISCOVERY
ssh&#45;&gt;ARBITRARY CODE EXECUTION
ssdp | ID: 355 -->
<g id="edge14" class="edge">
<title>SERVICE DISCOVERY
ssh&#45;&gt;ARBITRARY CODE EXECUTION
ssdp | ID: 355</title>
<path fill="none" stroke="blue" stroke-width="5" d="M474.89,-1173.68C452.59,-1208.87 420.77,-1259.07 399.08,-1293.31"/>
<polygon fill="blue" stroke="blue" stroke-width="5" points="395.18,-1291.29 393.52,-1302.08 402.57,-1295.97 395.18,-1291.29"/>
<text text-anchor="middle" x="595.5" y="-1238.48" font-family="Arial" font-size="20.00" fill="blue">start_next: 04/11/17, 16:29:49</text>
<text text-anchor="middle" x="595.5" y="-1216.48" font-family="Arial" font-size="20.00" fill="blue">gap: 84sec</text>
<text text-anchor="middle" x="595.5" y="-1194.48" font-family="Arial" font-size="20.00" fill="blue">end_prev: 04/11/17, 16:28:26</text>
</g>
<!-- SURFING
http&#45;&gt;DATA DELIVERY
http | ID: 246 -->
<g id="edge23" class="edge">
<title>SURFING
http&#45;&gt;DATA DELIVERY
http | ID: 246</title>
<path fill="none" stroke="blue" stroke-width="5" d="M2032.76,-806.01C2024.09,-833.04 2013.78,-869.44 2009,-902.52 2000.73,-959.7 2000.59,-1025.78 2002,-1072.03"/>
<polygon fill="blue" stroke="blue" stroke-width="5" points="1997.63,-1072.33 2002.34,-1082.17 2006.37,-1072.03 1997.63,-1072.33"/>
<text text-anchor="middle" x="2140.5" y="-968.51" font-family="Arial" font-size="20.00" fill="blue">start_next: 04/11/17, 18:04:20</text>
<text text-anchor="middle" x="2140.5" y="-946.51" font-family="Arial" font-size="20.00" fill="blue">gap: 2sec</text>
<text text-anchor="middle" x="2140.5" y="-924.51" font-family="Arial" font-size="20.00" fill="blue">end_prev: 04/11/17, 18:04:18</text>
</g>
<!-- DATA EXFILTRATION
http | ID: 228 -->
<g id="node16" class="node">
<title>DATA EXFILTRATION
http | ID: 228</title>
<g id="a_node16"><a xlink:title="ET WEB_SPECIFIC_APPS PHP&#45;CGI query string parameter vulnerability&#10;ET WEB_SERVER Tilde in URI &#45; potential .php~ source disclosure vulnerability">
<polygon fill="none" stroke="black" stroke-width="3" points="2684.88,-951.51 2582.44,-1000.49 2377.56,-1000.49 2275.12,-951.51 2377.56,-902.53 2582.44,-902.53 2684.88,-951.51"/>
<text text-anchor="middle" x="2480" y="-958.31" font-family="Arial" font-size="24.00">DATA EXFILTRATION</text>
<text text-anchor="middle" x="2480" y="-932.31" font-family="Arial" font-size="24.00">http | ID: 228</text>
</a>
</g>
</g>
<!-- SURFING
http&#45;&gt;DATA EXFILTRATION
http | ID: 228 -->
<g id="edge17" class="edge">
<title>SURFING
http&#45;&gt;DATA EXFILTRATION
http | ID: 228</title>
<path fill="none" stroke="blue" stroke-width="5" d="M2112.29,-793.05C2178.72,-821.5 2283.08,-866.18 2363.67,-900.7"/>
<polygon fill="blue" stroke="blue" stroke-width="5" points="2361.97,-904.72 2372.88,-904.64 2365.41,-896.68 2361.97,-904.72"/>
<text text-anchor="middle" x="2470.5" y="-871.52" font-family="Arial" font-size="20.00" fill="blue">start_next: 04/11/17, 16:33:00</text>
<text text-anchor="middle" x="2470.5" y="-849.52" font-family="Arial" font-size="20.00" fill="blue">gap: 11sec</text>
<text text-anchor="middle" x="2470.5" y="-827.52" font-family="Arial" font-size="20.00" fill="blue">end_prev: 04/11/17, 16:32:49</text>
</g>
<!-- DATA EXFILTRATION
http | ID: 228&#45;&gt;DATA DELIVERY
http | ID: 21 -->
<g id="edge18" class="edge">
<title>DATA EXFILTRATION
http | ID: 228&#45;&gt;DATA DELIVERY
http | ID: 21</title>
<path fill="none" stroke="blue" stroke-width="5" d="M2460.79,-1000.67C2451.91,-1022.93 2441.29,-1049.54 2431.99,-1072.85"/>
<polygon fill="blue" stroke="blue" stroke-width="5" points="2427.87,-1071.38 2428.23,-1082.28 2436,-1074.62 2427.87,-1071.38"/>
<text text-anchor="middle" x="2588" y="-1058.5" font-family="Arial" font-size="20.00" fill="blue">start_next: 04/11/17, 16:33:11</text>
<text text-anchor="middle" x="2588" y="-1036.5" font-family="Arial" font-size="20.00" fill="blue">gap: &#45;3sec</text>
<text text-anchor="middle" x="2588" y="-1014.5" font-family="Arial" font-size="20.00" fill="blue">end_prev: 04/11/17, 16:33:15</text>
</g>
<!-- VULNERABILTY DISCOVERY
ncube&#45;lm -->
<g id="node17" class="node">
<title>VULNERABILTY DISCOVERY
ncube&#45;lm</title>
<g id="a_node17"><a xlink:title="ET POLICY Suspicious inbound to MSSQL port 1433&#10;ET POLICY Suspicious inbound to Oracle SQL port 1521&#10;ET POLICY Suspicious inbound to mSQL port 4333">
<ellipse fill="yellow" stroke="black" stroke-width="3" cx="2090" cy="-42.43" rx="241.25" ry="42.35"/>
<text text-anchor="middle" x="2090" y="-49.23" font-family="Arial" font-size="24.00">VULNERABILTY DISCOVERY</text>
<text text-anchor="middle" x="2090" y="-23.23" font-family="Arial" font-size="24.00">ncube&#45;lm</text>
</a>
</g>
</g>
<!-- REMOTE SERVICE EXPLOIT
snmp | ID: 365 -->
<g id="node18" class="node">
<title>REMOTE SERVICE EXPLOIT
snmp | ID: 365</title>
<g id="a_node18"><a xlink:title="ET SNMP Samsung Printer SNMP Hardcode RW Community String">
<polygon fill="none" stroke="black" stroke-width="3" points="2259,-253.28 1921,-253.28 1921,-193.28 2259,-193.28 2259,-253.28"/>
<text text-anchor="middle" x="2090" y="-230.08" font-family="Arial" font-size="24.00">REMOTE SERVICE EXPLOIT</text>
<text text-anchor="middle" x="2090" y="-204.08" font-family="Arial" font-size="24.00">snmp | ID: 365</text>
</a>
</g>
</g>
<!-- VULNERABILTY DISCOVERY
ncube&#45;lm&#45;&gt;REMOTE SERVICE EXPLOIT
snmp | ID: 365 -->
<g id="edge19" class="edge">
<title>VULNERABILTY DISCOVERY
ncube&#45;lm&#45;&gt;REMOTE SERVICE EXPLOIT
snmp | ID: 365</title>
<path fill="none" stroke="blue" stroke-width="5" d="M2090,-84.91C2090,-114.41 2090,-153.8 2090,-182.83"/>
<polygon fill="blue" stroke="blue" stroke-width="5" points="2085.63,-183.02 2090,-193.02 2094.38,-183.02 2085.63,-183.02"/>
<text text-anchor="start" x="2090" y="-157.85" font-family="Arial" font-size="20.00" fill="blue"> start_next: 04/11/17, 18:01:20</text>
<text text-anchor="start" x="2175" y="-137.85" font-family="Arial" font-size="20.00" fill="blue">gap: 87sec</text>
<text text-anchor="start" x="2094" y="-117.85" font-family="Arial" font-size="20.00" fill="blue">end_prev: 04/11/17, 17:59:53</text>
<text text-anchor="start" x="2124.5" y="-97.85" font-family="Arial" font-weight="bold" font-size="20.00" fill="blue">Attacker: 10.0.254.31</text>
</g>
<!-- ACCOUNT MANIPULATION
snmp | ID: 53 -->
<g id="node19" class="node">
<title>ACCOUNT MANIPULATION
snmp | ID: 53</title>
<g id="a_node19"><a xlink:title="GPL SNMP public access udp">
<polygon fill="none" stroke="black" stroke-width="3" points="2250,-426.7 1930,-426.7 1930,-366.7 2250,-366.7 2250,-426.7"/>
<text text-anchor="middle" x="2090" y="-403.5" font-family="Arial" font-size="24.00">ACCOUNT MANIPULATION</text>
<text text-anchor="middle" x="2090" y="-377.5" font-family="Arial" font-size="24.00">snmp | ID: 53</text>
</a>
</g>
</g>
<!-- REMOTE SERVICE EXPLOIT
snmp | ID: 365&#45;&gt;ACCOUNT MANIPULATION
snmp | ID: 53 -->
<g id="edge20" class="edge">
<title>REMOTE SERVICE EXPLOIT
snmp | ID: 365&#45;&gt;ACCOUNT MANIPULATION
snmp | ID: 53</title>
<path fill="none" stroke="blue" stroke-width="5" d="M2090,-253.36C2090,-281.68 2090,-324.93 2090,-356.32"/>
<polygon fill="blue" stroke="blue" stroke-width="5" points="2085.63,-356.47 2090,-366.47 2094.38,-356.47 2085.63,-356.47"/>
<text text-anchor="middle" x="2221.5" y="-323.71" font-family="Arial" font-size="20.00" fill="blue">start_next: 04/11/17, 18:02:22</text>
<text text-anchor="middle" x="2221.5" y="-301.71" font-family="Arial" font-size="20.00" fill="blue">gap: 61sec</text>
<text text-anchor="middle" x="2221.5" y="-279.71" font-family="Arial" font-size="20.00" fill="blue">end_prev: 04/11/17, 18:01:20</text>
</g>
<!-- INFO DISCOVERY
http -->
<g id="node20" class="node">
<title>INFO DISCOVERY
http</title>
<g id="a_node20"><a xlink:title="GPL WEB_SERVER mod_gzip_status access">
<ellipse fill="none" stroke="black" stroke-width="3" cx="2079" cy="-576.68" rx="156.04" ry="42.35"/>
<text text-anchor="middle" x="2079" y="-583.48" font-family="Arial" font-size="24.00">INFO DISCOVERY</text>
<text text-anchor="middle" x="2079" y="-557.48" font-family="Arial" font-size="24.00">http</text>
</a>
</g>
</g>
<!-- ACCOUNT MANIPULATION
snmp | ID: 53&#45;&gt;INFO DISCOVERY
http -->
<g id="edge21" class="edge">
<title>ACCOUNT MANIPULATION
snmp | ID: 53&#45;&gt;INFO DISCOVERY
http</title>
<path fill="none" stroke="blue" stroke-width="5" d="M2088.18,-427.09C2086.57,-453.25 2084.16,-492.15 2082.22,-523.58"/>
<polygon fill="blue" stroke="blue" stroke-width="5" points="2077.83,-523.67 2081.58,-533.92 2086.56,-524.21 2077.83,-523.67"/>
<text text-anchor="middle" x="2218.5" y="-503.69" font-family="Arial" font-size="20.00" fill="blue">start_next: 04/11/17, 18:03:34</text>
<text text-anchor="middle" x="2218.5" y="-481.69" font-family="Arial" font-size="20.00" fill="blue">gap: 62sec</text>
<text text-anchor="middle" x="2218.5" y="-459.69" font-family="Arial" font-size="20.00" fill="blue">end_prev: 04/11/17, 18:02:32</text>
</g>
<!-- INFO DISCOVERY
http&#45;&gt;SURFING
http -->
<g id="edge22" class="edge">
<title>INFO DISCOVERY
http&#45;&gt;SURFING
http</title>
<path fill="none" stroke="blue" stroke-width="5" d="M2071.82,-619.29C2067.1,-646.6 2060.9,-682.52 2055.88,-711.63"/>
<polygon fill="blue" stroke="blue" stroke-width="5" points="2051.55,-711.02 2054.16,-721.62 2060.17,-712.51 2051.55,-711.02"/>
<text text-anchor="middle" x="2200.5" y="-690.66" font-family="Arial" font-size="20.00" fill="blue">start_next: 04/11/17, 18:03:51</text>
<text text-anchor="middle" x="2200.5" y="-668.66" font-family="Arial" font-size="20.00" fill="blue">gap: 17sec</text>
<text text-anchor="middle" x="2200.5" y="-646.66" font-family="Arial" font-size="20.00" fill="blue">end_prev: 04/11/17, 18:03:34</text>
</g>
<!-- DATA EXFILTRATION
http | ID: 26 -->
<g id="node21" class="node">
<title>DATA EXFILTRATION
http | ID: 26</title>
<g id="a_node21"><a xlink:title="ET WEB_SPECIFIC_APPS PHP&#45;CGI query string parameter vulnerability">
<polygon fill="yellow" stroke="black" stroke-width="3" points="1587.88,-576.68 1485.44,-625.65 1280.56,-625.65 1178.12,-576.68 1280.56,-527.7 1485.44,-527.7 1587.88,-576.68"/>
<text text-anchor="middle" x="1383" y="-583.48" font-family="Arial" font-size="24.00">DATA EXFILTRATION</text>
<text text-anchor="middle" x="1383" y="-557.48" font-family="Arial" font-size="24.00">http | ID: 26</text>
</a>
</g>
</g>
<!-- ACCOUNT MANIPULATION
snmp | ID: 1179 -->
<g id="node22" class="node">
<title>ACCOUNT MANIPULATION
snmp | ID: 1179</title>
<g id="a_node22"><a xlink:title="GPL SNMP public access udp">
<polygon fill="none" stroke="black" stroke-width="3" stroke-dasharray="1,5" points="1627,-794.09 1307,-794.09 1307,-734.09 1627,-734.09 1627,-794.09"/>
<text text-anchor="middle" x="1467" y="-770.89" font-family="Arial" font-size="24.00">ACCOUNT MANIPULATION</text>
<text text-anchor="middle" x="1467" y="-744.89" font-family="Arial" font-size="24.00">snmp | ID: 1179</text>
</a>
</g>
</g>
<!-- DATA EXFILTRATION
http | ID: 26&#45;&gt;ACCOUNT MANIPULATION
snmp | ID: 1179 -->
<g id="edge24" class="edge">
<title>DATA EXFILTRATION
http | ID: 26&#45;&gt;ACCOUNT MANIPULATION
snmp | ID: 1179</title>
<path fill="none" stroke="blue" stroke-width="5" d="M1373.7,-625.71C1370.88,-653.22 1371.83,-687.38 1387,-713.66 1389.8,-718.53 1393.3,-722.97 1397.25,-727.03"/>
<polygon fill="blue" stroke="blue" stroke-width="5" points="1394.46,-730.4 1404.79,-733.91 1400.35,-723.94 1394.46,-730.4"/>
<text text-anchor="start" x="1387" y="-698.66" font-family="Arial" font-size="20.00" fill="blue"> start_next: 04/11/17, 20:55:40</text>
<text text-anchor="start" x="1455" y="-678.66" font-family="Arial" font-size="20.00" fill="blue">gap: 10260sec</text>
<text text-anchor="start" x="1391" y="-658.66" font-family="Arial" font-size="20.00" fill="blue">end_prev: 04/11/17, 18:04:40</text>
<text text-anchor="start" x="1421.5" y="-638.66" font-family="Arial" font-weight="bold" font-size="20.00" fill="blue">Attacker: 10.0.254.31</text>
</g>
<!-- ARBITRARY CODE EXECUTION
ssdp | ID: 703 -->
<g id="node23" class="node">
<title>ARBITRARY CODE EXECUTION
ssdp | ID: 703</title>
<g id="a_node23"><a xlink:title="GPL MISC UPnP malformed advertisement">
<polygon fill="none" stroke="black" stroke-width="3" points="1920.5,-981.51 1545.5,-981.51 1545.5,-921.51 1920.5,-921.51 1920.5,-981.51"/>
<text text-anchor="middle" x="1733" y="-958.31" font-family="Arial" font-size="24.00">ARBITRARY CODE EXECUTION</text>
<text text-anchor="middle" x="1733" y="-932.31" font-family="Arial" font-size="24.00">ssdp | ID: 703</text>
</a>
</g>
</g>
<!-- ACCOUNT MANIPULATION
snmp | ID: 1179&#45;&gt;ARBITRARY CODE EXECUTION
ssdp | ID: 703 -->
<g id="edge25" class="edge">
<title>ACCOUNT MANIPULATION
snmp | ID: 1179&#45;&gt;ARBITRARY CODE EXECUTION
ssdp | ID: 703</title>
<path fill="none" stroke="blue" stroke-width="5" d="M1508.86,-794.27C1556.02,-827.14 1632.64,-880.55 1682.94,-915.61"/>
<polygon fill="blue" stroke="blue" stroke-width="5" points="1680.68,-919.37 1691.39,-921.5 1685.69,-912.19 1680.68,-919.37"/>
<text text-anchor="middle" x="1778.5" y="-871.52" font-family="Arial" font-size="20.00" fill="blue">start_next: 04/11/17, 20:58:25</text>
<text text-anchor="middle" x="1778.5" y="-849.52" font-family="Arial" font-size="20.00" fill="blue">gap: &#45;135sec</text>
<text text-anchor="middle" x="1778.5" y="-827.52" font-family="Arial" font-size="20.00" fill="blue">end_prev: 04/11/17, 21:00:40</text>
</g>
<!-- ARBITRARY CODE EXECUTION
ssdp | ID: 703&#45;&gt;DATA DELIVERY
http | ID: 246 -->
<g id="edge26" class="edge">
<title>ARBITRARY CODE EXECUTION
ssdp | ID: 703&#45;&gt;DATA DELIVERY
http | ID: 246</title>
<path fill="none" stroke="blue" stroke-width="5" d="M1724.73,-981.7C1718.94,-1008.92 1715.6,-1049.03 1737,-1074.5 1753.41,-1094.03 1803.17,-1107.02 1855.43,-1115.53"/>
<polygon fill="blue" stroke="blue" stroke-width="5" points="1855,-1119.89 1865.56,-1117.12 1856.36,-1111.25 1855,-1119.89"/>
<text text-anchor="middle" x="1868.5" y="-1058.5" font-family="Arial" font-size="20.00" fill="blue">start_next: 04/11/17, 21:00:18</text>
<text text-anchor="middle" x="1868.5" y="-1036.5" font-family="Arial" font-size="20.00" fill="blue">gap: &#45;192sec</text>
<text text-anchor="middle" x="1868.5" y="-1014.5" font-family="Arial" font-size="20.00" fill="blue">end_prev: 04/11/17, 21:03:29</text>
</g>
</g>
</svg>
