<?xml version="1.0" encoding="UTF-8" standalone="no"?>
<!DOCTYPE svg PUBLIC "-//W3C//DTD SVG 1.1//EN"
 "http://www.w3.org/Graphics/SVG/1.1/DTD/svg11.dtd">
<!-- Generated by graphviz version 2.50.0 (0)
 -->
<!-- Title: DATADELIVERYhttp Pages: 1 -->
<svg width="843pt" height="1737pt"
 viewBox="0.00 0.00 843.00 1736.87" xmlns="http://www.w3.org/2000/svg" xmlns:xlink="http://www.w3.org/1999/xlink">
<g id="graph0" class="graph" transform="scale(1 1) rotate(0) translate(4 1732.87)">
<title>DATADELIVERYhttp</title>
<polygon fill="white" stroke="transparent" points="-4,4 -4,-1732.87 839,-1732.87 839,4 -4,4"/>
<!-- Victim: 10.0.0.81
DATA DELIVERY
http -->
<g id="node1" class="node">
<title>Victim: 10.0.0.81
DATA DELIVERY
http</title>
<polygon fill="salmon" stroke="black" stroke-width="3" points="541.14,-1631.85 541.14,-1686.24 451.43,-1724.7 324.57,-1724.7 234.86,-1686.24 234.86,-1631.85 324.57,-1593.39 451.43,-1593.39 541.14,-1631.85"/>
<polygon fill="none" stroke="black" stroke-width="3" points="545.15,-1629.22 545.15,-1688.87 452.26,-1728.69 323.74,-1728.69 230.85,-1688.87 230.85,-1629.22 323.74,-1589.4 452.26,-1589.4 545.15,-1629.22"/>
<text text-anchor="middle" x="388" y="-1678.84" font-family="Arial" font-size="24.00">Victim: 10.0.0.81</text>
<text text-anchor="middle" x="388" y="-1652.84" font-family="Arial" font-size="24.00">DATA DELIVERY</text>
<text text-anchor="middle" x="388" y="-1626.84" font-family="Arial" font-size="24.00">http</text>
</g>
<!-- DATA DELIVERY
http | ID: 21 -->
<g id="node2" class="node">
<title>DATA DELIVERY
http | ID: 21</title>
<g id="a_node2"><a xlink:title="ET WEB_SERVER PHP Possible php Remote File Inclusion Attempt&#10;ET WEB_SERVER PHP tags in HTTP POST">
<polygon fill="salmon" stroke="black" stroke-width="3" points="551.1,-1523.23 469.55,-1572.21 306.45,-1572.21 224.9,-1523.23 306.45,-1474.25 469.55,-1474.25 551.1,-1523.23"/>
<text text-anchor="middle" x="388" y="-1530.03" font-family="Arial" font-size="24.00">DATA DELIVERY</text>
<text text-anchor="middle" x="388" y="-1504.03" font-family="Arial" font-size="24.00">http | ID: 21</text>
</a>
</g>
</g>
<!-- DATA DELIVERY
http | ID: 21&#45;&gt;Victim: 10.0.0.81
DATA DELIVERY
http -->
<g id="edge1" class="edge">
<title>DATA DELIVERY
http | ID: 21&#45;&gt;Victim: 10.0.0.81
DATA DELIVERY
http</title>
<path fill="none" stroke="black" stroke-width="5" d="M388,-1572.54C388,-1574.65 388,-1576.78 388,-1578.93"/>
<polygon fill="black" stroke="black" stroke-width="5" points="383.63,-1579.08 388,-1589.08 392.38,-1579.08 383.63,-1579.08"/>
</g>
<!-- SERVICE DISCOVERY
ag&#45;swim -->
<g id="node3" class="node">
<title>SERVICE DISCOVERY
ag&#45;swim</title>
<g id="a_node3"><a xlink:title="ET SCAN Potential VNC Scan 5900&#45;5920">
<ellipse fill="yellow" stroke="black" stroke-width="3" cx="387" cy="-42.43" rx="189.51" ry="42.35"/>
<text text-anchor="middle" x="387" y="-49.23" font-family="Arial" font-size="24.00">SERVICE DISCOVERY</text>
<text text-anchor="middle" x="387" y="-23.23" font-family="Arial" font-size="24.00">ag&#45;swim</text>
</a>
</g>
</g>
<!-- VULNERABILTY DISCOVERY
postgresql -->
<g id="node4" class="node">
<title>VULNERABILTY DISCOVERY
postgresql</title>
<g id="a_node4"><a xlink:title="ET POLICY Suspicious inbound to Oracle SQL port 1521&#10;ET POLICY Suspicious inbound to PostgreSQL port 5432">
<ellipse fill="none" stroke="black" stroke-width="3" cx="387" cy="-223.28" rx="241.25" ry="42.35"/>
<text text-anchor="middle" x="387" y="-230.08" font-family="Arial" font-size="24.00">VULNERABILTY DISCOVERY</text>
<text text-anchor="middle" x="387" y="-204.08" font-family="Arial" font-size="24.00">postgresql</text>
</a>
</g>
</g>
<!-- SERVICE DISCOVERY
ag&#45;swim&#45;&gt;VULNERABILTY DISCOVERY
postgresql -->
<g id="edge2" class="edge">
<title>SERVICE DISCOVERY
ag&#45;swim&#45;&gt;VULNERABILTY DISCOVERY
postgresql</title>
<path fill="none" stroke="blue" stroke-width="5" d="M387,-84.91C387,-110.44 387,-143.37 387,-170.59"/>
<polygon fill="blue" stroke="blue" stroke-width="5" points="382.63,-170.71 387,-180.71 391.38,-170.71 382.63,-170.71"/>
<text text-anchor="start" x="387" y="-157.85" font-family="Arial" font-size="20.00" fill="blue"> start_next: 04/11/17, 13:01:26</text>
<text text-anchor="start" x="472" y="-137.85" font-family="Arial" font-size="20.00" fill="blue">gap: 16sec</text>
<text text-anchor="start" x="391" y="-117.85" font-family="Arial" font-size="20.00" fill="blue">end_prev: 04/11/17, 13:01:10</text>
<text text-anchor="start" x="421.5" y="-97.85" font-family="Arial" font-weight="bold" font-size="20.00" fill="blue">Attacker: 10.0.254.31</text>
</g>
<!-- VULNERABILTY DISCOVERY
mysql -->
<g id="node5" class="node">
<title>VULNERABILTY DISCOVERY
mysql</title>
<g id="a_node5"><a xlink:title="ET POLICY Suspicious inbound to mySQL port 3306&#10;ET POLICY Suspicious inbound to mSQL port 4333&#10;ET POLICY Suspicious inbound to MSSQL port 1433&#10;ET POLICY Suspicious inbound to Oracle SQL port 1521&#10;ET POLICY Suspicious inbound to PostgreSQL port 5432">
<ellipse fill="none" stroke="black" stroke-width="3" cx="387" cy="-390.13" rx="241.25" ry="42.35"/>
<text text-anchor="middle" x="387" y="-396.93" font-family="Arial" font-size="24.00">VULNERABILTY DISCOVERY</text>
<text text-anchor="middle" x="387" y="-370.93" font-family="Arial" font-size="24.00">mysql</text>
</a>
</g>
</g>
<!-- VULNERABILTY DISCOVERY
postgresql&#45;&gt;VULNERABILTY DISCOVERY
mysql -->
<g id="edge3" class="edge">
<title>VULNERABILTY DISCOVERY
postgresql&#45;&gt;VULNERABILTY DISCOVERY
mysql</title>
<path fill="none" stroke="blue" stroke-width="5" d="M387,-265.88C387,-287.55 387,-314.26 387,-337.27"/>
<polygon fill="blue" stroke="blue" stroke-width="5" points="382.63,-337.55 387,-347.55 391.38,-337.55 382.63,-337.55"/>
<text text-anchor="middle" x="518.5" y="-323.71" font-family="Arial" font-size="20.00" fill="blue">start_next: 04/11/17, 13:59:27</text>
<text text-anchor="middle" x="518.5" y="-301.71" font-family="Arial" font-size="20.00" fill="blue">gap: 3453sec</text>
<text text-anchor="middle" x="518.5" y="-279.71" font-family="Arial" font-size="20.00" fill="blue">end_prev: 04/11/17, 13:01:54</text>
</g>
<!-- INFO DISCOVERY
xdmcp -->
<g id="node6" class="node">
<title>INFO DISCOVERY
xdmcp</title>
<g id="a_node6"><a xlink:title="GPL WEB_SERVER mod_gzip_status access&#10;GPL RPC xdmcp info query">
<ellipse fill="yellow" stroke="black" stroke-width="3" cx="387" cy="-556.98" rx="156.04" ry="42.35"/>
<text text-anchor="middle" x="387" y="-563.78" font-family="Arial" font-size="24.00">INFO DISCOVERY</text>
<text text-anchor="middle" x="387" y="-537.78" font-family="Arial" font-size="24.00">xdmcp</text>
</a>
</g>
</g>
<!-- VULNERABILTY DISCOVERY
mysql&#45;&gt;INFO DISCOVERY
xdmcp -->
<g id="edge4" class="edge">
<title>VULNERABILTY DISCOVERY
mysql&#45;&gt;INFO DISCOVERY
xdmcp</title>
<path fill="none" stroke="blue" stroke-width="5" d="M387,-432.73C387,-454.4 387,-481.11 387,-504.12"/>
<polygon fill="blue" stroke="blue" stroke-width="5" points="382.63,-504.4 387,-514.4 391.38,-504.4 382.63,-504.4"/>
<text text-anchor="middle" x="518.5" y="-490.56" font-family="Arial" font-size="20.00" fill="blue">start_next: 04/11/17, 14:01:26</text>
<text text-anchor="middle" x="518.5" y="-468.56" font-family="Arial" font-size="20.00" fill="blue">gap: 97sec</text>
<text text-anchor="middle" x="518.5" y="-446.56" font-family="Arial" font-size="20.00" fill="blue">end_prev: 04/11/17, 13:59:49</text>
</g>
<!-- REMOTE SERVICE EXPLOIT
snmp | ID: 874 -->
<g id="node7" class="node">
<title>REMOTE SERVICE EXPLOIT
snmp | ID: 874</title>
<g id="a_node7"><a xlink:title="ET SNMP Samsung Printer SNMP Hardcode RW Community String">
<polygon fill="none" stroke="black" stroke-width="3" stroke-dasharray="1,5" points="338,-755.41 0,-755.41 0,-695.41 338,-695.41 338,-755.41"/>
<text text-anchor="middle" x="169" y="-732.21" font-family="Arial" font-size="24.00">REMOTE SERVICE EXPLOIT</text>
<text text-anchor="middle" x="169" y="-706.21" font-family="Arial" font-size="24.00">snmp | ID: 874</text>
</a>
</g>
</g>
<!-- INFO DISCOVERY
xdmcp&#45;&gt;REMOTE SERVICE EXPLOIT
snmp | ID: 874 -->
<g id="edge5" class="edge">
<title>INFO DISCOVERY
xdmcp&#45;&gt;REMOTE SERVICE EXPLOIT
snmp | ID: 874</title>
<path fill="none" stroke="blue" stroke-width="5" d="M298.58,-592.18C289.98,-596.81 281.64,-601.89 274,-607.41 243.4,-629.53 215.2,-661.92 195.75,-687.01"/>
<polygon fill="blue" stroke="blue" stroke-width="5" points="192.08,-684.61 189.5,-695.22 199.04,-689.91 192.08,-684.61"/>
<text text-anchor="middle" x="405.5" y="-664.41" font-family="Arial" font-size="20.00" fill="blue">start_next: 04/11/17, 14:01:27</text>
<text text-anchor="middle" x="405.5" y="-642.41" font-family="Arial" font-size="20.00" fill="blue">gap: &#45;119sec</text>
<text text-anchor="middle" x="405.5" y="-620.41" font-family="Arial" font-size="20.00" fill="blue">end_prev: 04/11/17, 14:03:26</text>
</g>
<!-- REMOTE SERVICE EXPLOIT
snmp | ID: 350 -->
<g id="node12" class="node">
<title>REMOTE SERVICE EXPLOIT
snmp | ID: 350</title>
<g id="a_node12"><a xlink:title="ET SNMP Samsung Printer SNMP Hardcode RW Community String">
<polygon fill="none" stroke="black" stroke-width="3" stroke-dasharray="1,5" points="735,-826.41 397,-826.41 397,-766.41 735,-766.41 735,-826.41"/>
<text text-anchor="middle" x="566" y="-803.21" font-family="Arial" font-size="24.00">REMOTE SERVICE EXPLOIT</text>
<text text-anchor="middle" x="566" y="-777.21" font-family="Arial" font-size="24.00">snmp | ID: 350</text>
</a>
</g>
</g>
<!-- INFO DISCOVERY
xdmcp&#45;&gt;REMOTE SERVICE EXPLOIT
snmp | ID: 350 -->
<g id="edge11" class="edge">
<title>INFO DISCOVERY
xdmcp&#45;&gt;REMOTE SERVICE EXPLOIT
snmp | ID: 350</title>
<path fill="none" stroke="blue" stroke-width="5" d="M505.92,-584.6C516.48,-590.71 526.13,-598.2 534,-607.41 569.31,-648.7 572.5,-714.3 570.24,-756.08"/>
<polygon fill="blue" stroke="blue" stroke-width="5" points="565.87,-755.89 569.57,-766.16 574.6,-756.48 565.87,-755.89"/>
<text text-anchor="start" x="567" y="-672.41" font-family="Arial" font-size="20.00" fill="blue"> start_next: 04/11/17, 16:29:49</text>
<text text-anchor="start" x="643" y="-652.41" font-family="Arial" font-size="20.00" fill="blue">gap: &#45;103sec</text>
<text text-anchor="start" x="571" y="-632.41" font-family="Arial" font-size="20.00" fill="blue">end_prev: 04/11/17, 16:31:32</text>
<text text-anchor="start" x="601.5" y="-612.41" font-family="Arial" font-weight="bold" font-size="20.00" fill="blue">Attacker: 10.0.254.31</text>
</g>
<!-- ACCOUNT MANIPULATION
snmp | ID: 351 -->
<g id="node8" class="node">
<title>ACCOUNT MANIPULATION
snmp | ID: 351</title>
<g id="a_node8"><a xlink:title="GPL SNMP private access udp&#10;GPL SNMP public access udp">
<polygon fill="none" stroke="black" stroke-width="3" stroke-dasharray="1,5" points="371,-900.41 51,-900.41 51,-840.41 371,-840.41 371,-900.41"/>
<text text-anchor="middle" x="211" y="-877.21" font-family="Arial" font-size="24.00">ACCOUNT MANIPULATION</text>
<text text-anchor="middle" x="211" y="-851.21" font-family="Arial" font-size="24.00">snmp | ID: 351</text>
</a>
</g>
</g>
<!-- REMOTE SERVICE EXPLOIT
snmp | ID: 874&#45;&gt;ACCOUNT MANIPULATION
snmp | ID: 351 -->
<g id="edge6" class="edge">
<title>REMOTE SERVICE EXPLOIT
snmp | ID: 874&#45;&gt;ACCOUNT MANIPULATION
snmp | ID: 351</title>
<path fill="none" stroke="blue" stroke-width="5" d="M135.26,-755.59C133.6,-758.08 132.15,-760.7 131,-763.41 119.59,-790.44 115.58,-804.46 131,-829.41 131.61,-830.4 132.26,-831.37 132.93,-832.31"/>
<polygon fill="blue" stroke="blue" stroke-width="5" points="129.91,-835.5 139.76,-840.2 136.52,-829.77 129.91,-835.5"/>
<text text-anchor="middle" x="262.5" y="-813.41" font-family="Arial" font-size="20.00" fill="blue">start_next: 04/11/17, 14:02:10</text>
<text text-anchor="middle" x="262.5" y="-791.41" font-family="Arial" font-size="20.00" fill="blue">gap: 42sec</text>
<text text-anchor="middle" x="262.5" y="-769.41" font-family="Arial" font-size="20.00" fill="blue">end_prev: 04/11/17, 14:01:27</text>
</g>
<!-- USER PRIVILEGE ESCALATION
http | ID: 49 -->
<g id="node9" class="node">
<title>USER PRIVILEGE ESCALATION
http | ID: 49</title>
<g id="a_node9"><a xlink:title="ET POLICY Outgoing Basic Auth Base64 HTTP Password detected unencrypted&#10;ET POLICY Incoming Basic Auth Base64 HTTP Password detected unencrypted">
<polygon fill="none" stroke="black" stroke-width="3" points="574,-1045.41 202,-1045.41 202,-985.41 574,-985.41 574,-1045.41"/>
<text text-anchor="middle" x="388" y="-1022.21" font-family="Arial" font-size="24.00">USER PRIVILEGE ESCALATION</text>
<text text-anchor="middle" x="388" y="-996.21" font-family="Arial" font-size="24.00">http | ID: 49</text>
</a>
</g>
</g>
<!-- ACCOUNT MANIPULATION
snmp | ID: 351&#45;&gt;USER PRIVILEGE ESCALATION
http | ID: 49 -->
<g id="edge7" class="edge">
<title>ACCOUNT MANIPULATION
snmp | ID: 351&#45;&gt;USER PRIVILEGE ESCALATION
http | ID: 49</title>
<path fill="none" stroke="blue" stroke-width="5" d="M222.44,-900.52C233.2,-924.34 251.47,-957.27 277,-977.41 277.9,-978.12 278.81,-978.81 279.73,-979.49"/>
<polygon fill="blue" stroke="blue" stroke-width="5" points="277.63,-983.35 288.38,-985.28 282.5,-976.08 277.63,-983.35"/>
<text text-anchor="middle" x="408.5" y="-961.41" font-family="Arial" font-size="20.00" fill="blue">start_next: 04/11/17, 14:03:23</text>
<text text-anchor="middle" x="408.5" y="-939.41" font-family="Arial" font-size="20.00" fill="blue">gap: 62sec</text>
<text text-anchor="middle" x="408.5" y="-917.41" font-family="Arial" font-size="20.00" fill="blue">end_prev: 04/11/17, 14:02:22</text>
</g>
<!-- SURFING
http -->
<g id="node10" class="node">
<title>SURFING
http</title>
<g id="a_node10"><a xlink:title="ET WEB_SERVER WEB&#45;PHP phpinfo access">
<ellipse fill="none" stroke="black" stroke-width="3" cx="388" cy="-1169.84" rx="88.28" ry="42.35"/>
<text text-anchor="middle" x="388" y="-1176.64" font-family="Arial" font-size="24.00">SURFING</text>
<text text-anchor="middle" x="388" y="-1150.64" font-family="Arial" font-size="24.00">http</text>
</a>
</g>
</g>
<!-- USER PRIVILEGE ESCALATION
http | ID: 49&#45;&gt;SURFING
http -->
<g id="edge8" class="edge">
<title>USER PRIVILEGE ESCALATION
http | ID: 49&#45;&gt;SURFING
http</title>
<path fill="none" stroke="blue" stroke-width="5" d="M264.69,-1045.57C260.44,-1048.03 257.1,-1050.64 255,-1053.41 237.25,-1076.77 238.26,-1095.33 255,-1119.41 264.93,-1133.7 279.51,-1143.86 295.41,-1151.09"/>
<polygon fill="blue" stroke="blue" stroke-width="5" points="293.99,-1155.24 304.9,-1155.02 297.34,-1147.16 293.99,-1155.24"/>
<text text-anchor="middle" x="386.5" y="-1103.41" font-family="Arial" font-size="20.00" fill="blue">start_next: 04/11/17, 14:03:28</text>
<text text-anchor="middle" x="386.5" y="-1081.41" font-family="Arial" font-size="20.00" fill="blue">gap: &#45;1sec</text>
<text text-anchor="middle" x="386.5" y="-1059.41" font-family="Arial" font-size="20.00" fill="blue">end_prev: 04/11/17, 14:03:29</text>
</g>
<!-- USER PRIVILEGE ESCALATION
http | ID: 49&#45;&gt;SURFING
http -->
<g id="edge13" class="edge">
<title>USER PRIVILEGE ESCALATION
http | ID: 49&#45;&gt;SURFING
http</title>
<path fill="none" stroke="blue" stroke-width="5" d="M508.25,-1045.72C510.67,-1048.1 512.93,-1050.66 515,-1053.41 532.6,-1076.88 531.56,-1095.2 515,-1119.41 506.13,-1132.39 493.3,-1141.96 479.18,-1149.02"/>
<polygon fill="blue" stroke="blue" stroke-width="5" points="477.03,-1145.18 469.74,-1153.3 480.65,-1153.15 477.03,-1145.18"/>
<text text-anchor="middle" x="658.5" y="-1103.41" font-family="Arial" font-size="20.00" fill="blue">start_next: 04/11/17, 16:31:39</text>
<text text-anchor="middle" x="658.5" y="-1081.41" font-family="Arial" font-size="20.00" fill="blue">gap: 0sec</text>
<text text-anchor="middle" x="658.5" y="-1059.41" font-family="Arial" font-size="20.00" fill="blue">end_prev: 04/11/17, 16:31:39</text>
</g>
<!-- DATA EXFILTRATION
http | ID: 228 -->
<g id="node11" class="node">
<title>DATA EXFILTRATION
http | ID: 228</title>
<g id="a_node11"><a xlink:title="ET WEB_SPECIFIC_APPS PHP&#45;CGI query string parameter vulnerability">
<polygon fill="none" stroke="black" stroke-width="3" points="592.88,-1343.25 490.44,-1392.23 285.56,-1392.23 183.12,-1343.25 285.56,-1294.27 490.44,-1294.27 592.88,-1343.25"/>
<text text-anchor="middle" x="388" y="-1350.05" font-family="Arial" font-size="24.00">DATA EXFILTRATION</text>
<text text-anchor="middle" x="388" y="-1324.05" font-family="Arial" font-size="24.00">http | ID: 228</text>
</a>
</g>
</g>
<!-- SURFING
http&#45;&gt;DATA EXFILTRATION
http | ID: 228 -->
<g id="edge9" class="edge">
<title>SURFING
http&#45;&gt;DATA EXFILTRATION
http | ID: 228</title>
<path fill="none" stroke="blue" stroke-width="5" d="M304.9,-1184.65C285.41,-1191.98 266.88,-1203.17 255,-1220.26 238.26,-1244.35 238.77,-1261.83 255,-1286.26 256.94,-1289.19 259.07,-1291.96 261.35,-1294.58"/>
<polygon fill="blue" stroke="blue" stroke-width="5" points="258.53,-1297.96 268.66,-1302.03 264.78,-1291.83 258.53,-1297.96"/>
<text text-anchor="middle" x="386.5" y="-1270.26" font-family="Arial" font-size="20.00" fill="blue">start_next: 04/11/17, 14:03:36</text>
<text text-anchor="middle" x="386.5" y="-1248.26" font-family="Arial" font-size="20.00" fill="blue">gap: 7sec</text>
<text text-anchor="middle" x="386.5" y="-1226.26" font-family="Arial" font-size="20.00" fill="blue">end_prev: 04/11/17, 14:03:29</text>
</g>
<!-- SURFING
http&#45;&gt;DATA EXFILTRATION
http | ID: 228 -->
<g id="edge14" class="edge">
<title>SURFING
http&#45;&gt;DATA EXFILTRATION
http | ID: 228</title>
<path fill="none" stroke="blue" stroke-width="5" d="M469.74,-1186.37C487.5,-1193.69 504.18,-1204.45 515,-1220.26 531.56,-1244.48 531.02,-1261.69 515,-1286.26 513.53,-1288.52 511.95,-1290.68 510.27,-1292.75"/>
<polygon fill="blue" stroke="blue" stroke-width="5" points="506.85,-1290.01 503.31,-1300.34 513.29,-1295.93 506.85,-1290.01"/>
<text text-anchor="middle" x="658.5" y="-1270.26" font-family="Arial" font-size="20.00" fill="blue">start_next: 04/11/17, 16:31:43</text>
<text text-anchor="middle" x="658.5" y="-1248.26" font-family="Arial" font-size="20.00" fill="blue">gap: 5sec</text>
<text text-anchor="middle" x="658.5" y="-1226.26" font-family="Arial" font-size="20.00" fill="blue">end_prev: 04/11/17, 16:31:39</text>
</g>
<!-- DATA EXFILTRATION
http | ID: 228&#45;&gt;DATA DELIVERY
http | ID: 21 -->
<g id="edge10" class="edge">
<title>DATA EXFILTRATION
http | ID: 228&#45;&gt;DATA DELIVERY
http | ID: 21</title>
<path fill="none" stroke="blue" stroke-width="5" d="M268.66,-1384.47C263.5,-1389.16 258.88,-1394.4 255,-1400.24 238.77,-1424.68 238.77,-1441.81 255,-1466.24 259.48,-1472.99 264.96,-1478.93 271.1,-1484.16"/>
<polygon fill="blue" stroke="blue" stroke-width="5" points="268.62,-1487.77 279.21,-1490.4 273.95,-1480.83 268.62,-1487.77"/>
<text text-anchor="middle" x="386.5" y="-1450.24" font-family="Arial" font-size="20.00" fill="blue">start_next: 04/11/17, 14:03:36</text>
<text text-anchor="middle" x="386.5" y="-1428.24" font-family="Arial" font-size="20.00" fill="blue">gap: &#45;2sec</text>
<text text-anchor="middle" x="386.5" y="-1406.24" font-family="Arial" font-size="20.00" fill="blue">end_prev: 04/11/17, 14:03:38</text>
</g>
<!-- DATA EXFILTRATION
http | ID: 228&#45;&gt;DATA DELIVERY
http | ID: 21 -->
<g id="edge15" class="edge">
<title>DATA EXFILTRATION
http | ID: 228&#45;&gt;DATA DELIVERY
http | ID: 21</title>
<path fill="none" stroke="blue" stroke-width="5" d="M503.31,-1386.17C507.7,-1390.42 511.64,-1395.1 515,-1400.24 531.02,-1424.82 531.02,-1441.67 515,-1466.24 511.2,-1472.08 506.64,-1477.3 501.54,-1481.99"/>
<polygon fill="blue" stroke="blue" stroke-width="5" points="498.61,-1478.73 493.7,-1488.48 504.19,-1485.47 498.61,-1478.73"/>
<text text-anchor="middle" x="658.5" y="-1450.24" font-family="Arial" font-size="20.00" fill="blue">start_next: 04/11/17, 16:31:43</text>
<text text-anchor="middle" x="658.5" y="-1428.24" font-family="Arial" font-size="20.00" fill="blue">gap: &#45;5sec</text>
<text text-anchor="middle" x="658.5" y="-1406.24" font-family="Arial" font-size="20.00" fill="blue">end_prev: 04/11/17, 16:31:48</text>
</g>
<!-- REMOTE SERVICE EXPLOIT
snmp | ID: 350&#45;&gt;USER PRIVILEGE ESCALATION
http | ID: 49 -->
<g id="edge12" class="edge">
<title>REMOTE SERVICE EXPLOIT
snmp | ID: 350&#45;&gt;USER PRIVILEGE ESCALATION
http | ID: 49</title>
<path fill="none" stroke="blue" stroke-width="5" d="M570.25,-826.47C574.27,-865.91 574.92,-936.17 537,-977.41 536.28,-978.2 535.45,-978.97 534.54,-979.73"/>
<polygon fill="blue" stroke="blue" stroke-width="5" points="531.86,-976.25 525.78,-985.31 536.56,-983.63 531.86,-976.25"/>
<text text-anchor="middle" x="703.5" y="-887.41" font-family="Arial" font-size="20.00" fill="blue">start_next: 04/11/17, 16:31:30</text>
<text text-anchor="middle" x="703.5" y="-865.41" font-family="Arial" font-size="20.00" fill="blue">gap: 101sec</text>
<text text-anchor="middle" x="703.5" y="-843.41" font-family="Arial" font-size="20.00" fill="blue">end_prev: 04/11/17, 16:29:49</text>
</g>
</g>
</svg>
