<?xml version="1.0" encoding="UTF-8" standalone="no"?>
<!DOCTYPE svg PUBLIC "-//W3C//DTD SVG 1.1//EN"
 "http://www.w3.org/Graphics/SVG/1.1/DTD/svg11.dtd">
<!-- Generated by graphviz version 2.50.0 (0)
 -->
<!-- Title: DATADELIVERYwapwsp Pages: 1 -->
<svg width="1021pt" height="1230pt"
 viewBox="0.00 0.00 1020.65 1230.31" xmlns="http://www.w3.org/2000/svg" xmlns:xlink="http://www.w3.org/1999/xlink">
<g id="graph0" class="graph" transform="scale(1 1) rotate(0) translate(4 1226.31)">
<title>DATADELIVERYwapwsp</title>
<polygon fill="white" stroke="transparent" points="-4,4 -4,-1226.31 1016.65,-1226.31 1016.65,4 -4,4"/>
<!-- Victim: 10.0.0.151
DATA DELIVERY
wap&#45;wsp -->
<g id="node1" class="node">
<title>Victim: 10.0.0.151
DATA DELIVERY
wap&#45;wsp</title>
<polygon fill="salmon" stroke="black" stroke-width="3" points="501.6,-1125.29 501.6,-1179.68 407.31,-1218.14 273.98,-1218.14 179.7,-1179.68 179.7,-1125.29 273.98,-1086.83 407.31,-1086.83 501.6,-1125.29"/>
<polygon fill="none" stroke="black" stroke-width="3" points="505.6,-1122.61 505.6,-1182.36 408.1,-1222.13 273.19,-1222.13 175.69,-1182.36 175.69,-1122.61 273.19,-1082.84 408.1,-1082.84 505.6,-1122.61"/>
<text text-anchor="middle" x="340.65" y="-1172.29" font-family="Arial" font-size="24.00">Victim: 10.0.0.151</text>
<text text-anchor="middle" x="340.65" y="-1146.29" font-family="Arial" font-size="24.00">DATA DELIVERY</text>
<text text-anchor="middle" x="340.65" y="-1120.29" font-family="Arial" font-size="24.00">wap&#45;wsp</text>
</g>
<!-- DATA DELIVERY
wap&#45;wsp | ID: 406 -->
<g id="node2" class="node">
<title>DATA DELIVERY
wap&#45;wsp | ID: 406</title>
<g id="a_node2"><a xlink:title="ET WEB_SERVER PHP tags in HTTP POST&#10;GPL WEB_SERVER perl post attempt">
<polygon fill="none" stroke="black" stroke-width="3" stroke-dasharray="1,5" points="341.44,-1016.68 256.05,-1065.65 85.25,-1065.65 -0.15,-1016.68 85.25,-967.7 256.05,-967.7 341.44,-1016.68"/>
<text text-anchor="middle" x="170.65" y="-1023.48" font-family="Arial" font-size="24.00">DATA DELIVERY</text>
<text text-anchor="middle" x="170.65" y="-997.48" font-family="Arial" font-size="24.00">wap&#45;wsp | ID: 406</text>
</a>
</g>
</g>
<!-- DATA DELIVERY
wap&#45;wsp | ID: 406&#45;&gt;Victim: 10.0.0.151
DATA DELIVERY
wap&#45;wsp -->
<g id="edge1" class="edge">
<title>DATA DELIVERY
wap&#45;wsp | ID: 406&#45;&gt;Victim: 10.0.0.151
DATA DELIVERY
wap&#45;wsp</title>
<path fill="none" stroke="black" stroke-width="5" d="M232.02,-1065.98C238.58,-1071.15 245.35,-1076.48 252.15,-1081.82"/>
<polygon fill="black" stroke="black" stroke-width="5" points="249.56,-1085.36 260.13,-1088.11 254.98,-1078.48 249.56,-1085.36"/>
</g>
<!-- DATA DELIVERY
wap&#45;wsp | ID: 69 -->
<g id="node3" class="node">
<title>DATA DELIVERY
wap&#45;wsp | ID: 69</title>
<g id="a_node3"><a xlink:title="GPL WEB_SERVER perl post attempt">
<polygon fill="salmon" stroke="black" stroke-width="3" points="674.75,-1016.68 593.2,-1065.65 430.1,-1065.65 348.55,-1016.68 430.1,-967.7 593.2,-967.7 674.75,-1016.68"/>
<text text-anchor="middle" x="511.65" y="-1023.48" font-family="Arial" font-size="24.00">DATA DELIVERY</text>
<text text-anchor="middle" x="511.65" y="-997.48" font-family="Arial" font-size="24.00">wap&#45;wsp | ID: 69</text>
</a>
</g>
</g>
<!-- DATA DELIVERY
wap&#45;wsp | ID: 69&#45;&gt;Victim: 10.0.0.151
DATA DELIVERY
wap&#45;wsp -->
<g id="edge2" class="edge">
<title>DATA DELIVERY
wap&#45;wsp | ID: 69&#45;&gt;Victim: 10.0.0.151
DATA DELIVERY
wap&#45;wsp</title>
<path fill="none" stroke="black" stroke-width="5" d="M449.91,-1065.98C443.31,-1071.15 436.51,-1076.48 429.67,-1081.82"/>
<polygon fill="black" stroke="black" stroke-width="5" points="426.82,-1078.5 421.64,-1088.11 432.21,-1085.39 426.82,-1078.5"/>
</g>
<!-- INFO DISCOVERY
xdmcp -->
<g id="node4" class="node">
<title>INFO DISCOVERY
xdmcp</title>
<g id="a_node4"><a xlink:title="GPL WEB_SERVER mod_gzip_status access&#10;GPL RPC xdmcp info query">
<ellipse fill="yellow" stroke="black" stroke-width="3" cx="450.65" cy="-687.26" rx="156.04" ry="42.35"/>
<text text-anchor="middle" x="450.65" y="-694.06" font-family="Arial" font-size="24.00">INFO DISCOVERY</text>
<text text-anchor="middle" x="450.65" y="-668.06" font-family="Arial" font-size="24.00">xdmcp</text>
</a>
</g>
</g>
<!-- ACCOUNT MANIPULATION
snmp | ID: 965 -->
<g id="node5" class="node">
<title>ACCOUNT MANIPULATION
snmp | ID: 965</title>
<g id="a_node5"><a xlink:title="GPL SNMP private access udp&#10;GPL SNMP public access udp">
<polygon fill="none" stroke="black" stroke-width="3" stroke-dasharray="1,5" points="330.65,-885.69 10.65,-885.69 10.65,-825.69 330.65,-825.69 330.65,-885.69"/>
<text text-anchor="middle" x="170.65" y="-862.49" font-family="Arial" font-size="24.00">ACCOUNT MANIPULATION</text>
<text text-anchor="middle" x="170.65" y="-836.49" font-family="Arial" font-size="24.00">snmp | ID: 965</text>
</a>
</g>
</g>
<!-- INFO DISCOVERY
xdmcp&#45;&gt;ACCOUNT MANIPULATION
snmp | ID: 965 -->
<g id="edge3" class="edge">
<title>INFO DISCOVERY
xdmcp&#45;&gt;ACCOUNT MANIPULATION
snmp | ID: 965</title>
<path fill="none" stroke="blue" stroke-width="5" d="M300.21,-698.92C246.07,-706.07 194.01,-717.96 176.65,-737.69 158.34,-758.48 157.82,-790.28 161.34,-815.48"/>
<polygon fill="blue" stroke="blue" stroke-width="5" points="157.04,-816.32 162.99,-825.47 165.67,-814.89 157.04,-816.32"/>
<text text-anchor="start" x="176.65" y="-802.69" font-family="Arial" font-size="20.00" fill="blue"> start_next: 04/11/17, 14:03:19</text>
<text text-anchor="start" x="258.15" y="-782.69" font-family="Arial" font-size="20.00" fill="blue">gap: &#45;22sec</text>
<text text-anchor="start" x="180.65" y="-762.69" font-family="Arial" font-size="20.00" fill="blue">end_prev: 04/11/17, 14:03:41</text>
<text text-anchor="start" x="211.15" y="-742.69" font-family="Arial" font-weight="bold" font-size="20.00" fill="blue">Attacker: 10.0.254.31</text>
</g>
<!-- ACCOUNT MANIPULATION
snmp | ID: 408 -->
<g id="node10" class="node">
<title>ACCOUNT MANIPULATION
snmp | ID: 408</title>
<g id="a_node10"><a xlink:title="GPL SNMP private access udp&#10;GPL SNMP public access udp">
<polygon fill="none" stroke="black" stroke-width="3" stroke-dasharray="1,5" points="771.65,-885.69 451.65,-885.69 451.65,-825.69 771.65,-825.69 771.65,-885.69"/>
<text text-anchor="middle" x="611.65" y="-862.49" font-family="Arial" font-size="24.00">ACCOUNT MANIPULATION</text>
<text text-anchor="middle" x="611.65" y="-836.49" font-family="Arial" font-size="24.00">snmp | ID: 408</text>
</a>
</g>
</g>
<!-- INFO DISCOVERY
xdmcp&#45;&gt;ACCOUNT MANIPULATION
snmp | ID: 408 -->
<g id="edge9" class="edge">
<title>INFO DISCOVERY
xdmcp&#45;&gt;ACCOUNT MANIPULATION
snmp | ID: 408</title>
<path fill="none" stroke="blue" stroke-width="5" d="M446.65,-729.74C444.44,-762.44 443.98,-804.63 454.65,-817.69 455.22,-818.39 455.87,-819.08 456.59,-819.76"/>
<polygon fill="blue" stroke="blue" stroke-width="5" points="454.07,-823.34 464.76,-825.58 459.15,-816.22 454.07,-823.34"/>
<text text-anchor="middle" x="586.15" y="-794.69" font-family="Arial" font-size="20.00" fill="blue">start_next: 04/11/17, 16:31:24</text>
<text text-anchor="middle" x="586.15" y="-772.69" font-family="Arial" font-size="20.00" fill="blue">gap: 20sec</text>
<text text-anchor="middle" x="586.15" y="-750.69" font-family="Arial" font-size="20.00" fill="blue">end_prev: 04/11/17, 16:31:04</text>
</g>
<!-- INFO DISCOVERY
xdmcp&#45;&gt;ACCOUNT MANIPULATION
snmp | ID: 408 -->
<g id="edge11" class="edge">
<title>INFO DISCOVERY
xdmcp&#45;&gt;ACCOUNT MANIPULATION
snmp | ID: 408</title>
<path fill="none" stroke="blue" stroke-width="5" d="M600.09,-699.7C650.89,-706.93 698.86,-718.67 714.65,-737.69 737.36,-765.04 735.1,-788.6 714.65,-817.69 714.59,-817.77 714.52,-817.86 714.46,-817.95"/>
<polygon fill="blue" stroke="blue" stroke-width="5" points="711.22,-815.01 708.09,-825.46 717.89,-820.66 711.22,-815.01"/>
<text text-anchor="start" x="731.65" y="-802.69" font-family="Arial" font-size="20.00" fill="blue"> start_next: 04/11/17, 18:02:42</text>
<text text-anchor="start" x="813.15" y="-782.69" font-family="Arial" font-size="20.00" fill="blue">gap: &#45;32sec</text>
<text text-anchor="start" x="735.65" y="-762.69" font-family="Arial" font-size="20.00" fill="blue">end_prev: 04/11/17, 18:03:14</text>
<text text-anchor="start" x="766.15" y="-742.69" font-family="Arial" font-weight="bold" font-size="20.00" fill="blue">Attacker: 10.0.254.31</text>
</g>
<!-- ACCOUNT MANIPULATION
snmp | ID: 965&#45;&gt;DATA DELIVERY
wap&#45;wsp | ID: 406 -->
<g id="edge4" class="edge">
<title>ACCOUNT MANIPULATION
snmp | ID: 965&#45;&gt;DATA DELIVERY
wap&#45;wsp | ID: 406</title>
<path fill="none" stroke="blue" stroke-width="5" d="M170.65,-885.85C170.65,-905.85 170.65,-933.07 170.65,-957.43"/>
<polygon fill="blue" stroke="blue" stroke-width="5" points="166.27,-957.66 170.65,-967.66 175.02,-957.66 166.27,-957.66"/>
<text text-anchor="middle" x="302.15" y="-943.69" font-family="Arial" font-size="20.00" fill="blue">start_next: 04/11/17, 14:03:49</text>
<text text-anchor="middle" x="302.15" y="-921.69" font-family="Arial" font-size="20.00" fill="blue">gap: 26sec</text>
<text text-anchor="middle" x="302.15" y="-899.69" font-family="Arial" font-size="20.00" fill="blue">end_prev: 04/11/17, 14:03:23</text>
</g>
<!-- DATA EXFILTRATION
wap&#45;wsp | ID: 68 -->
<g id="node6" class="node">
<title>DATA EXFILTRATION
wap&#45;wsp | ID: 68</title>
<g id="a_node6"><a xlink:title="ET WEB_SPECIFIC_APPS PHP&#45;CGI query string parameter vulnerability">
<polygon fill="yellow" stroke="black" stroke-width="3" points="655.53,-48.99 553.09,-97.97 348.21,-97.97 245.77,-48.99 348.21,-0.01 553.09,-0.01 655.53,-48.99"/>
<text text-anchor="middle" x="450.65" y="-55.79" font-family="Arial" font-size="24.00">DATA EXFILTRATION</text>
<text text-anchor="middle" x="450.65" y="-29.79" font-family="Arial" font-size="24.00">wap&#45;wsp | ID: 68</text>
</a>
</g>
</g>
<!-- VULNERABILTY DISCOVERY
ncube&#45;lm -->
<g id="node7" class="node">
<title>VULNERABILTY DISCOVERY
ncube&#45;lm</title>
<g id="a_node7"><a xlink:title="ET POLICY Suspicious inbound to MSSQL port 1433&#10;ET POLICY Suspicious inbound to Oracle SQL port 1521&#10;ET POLICY Suspicious inbound to mSQL port 4333">
<ellipse fill="none" stroke="black" stroke-width="3" cx="450.65" cy="-236.41" rx="241.25" ry="42.35"/>
<text text-anchor="middle" x="450.65" y="-243.21" font-family="Arial" font-size="24.00">VULNERABILTY DISCOVERY</text>
<text text-anchor="middle" x="450.65" y="-217.21" font-family="Arial" font-size="24.00">ncube&#45;lm</text>
</a>
</g>
</g>
<!-- DATA EXFILTRATION
wap&#45;wsp | ID: 68&#45;&gt;VULNERABILTY DISCOVERY
ncube&#45;lm -->
<g id="edge5" class="edge">
<title>DATA EXFILTRATION
wap&#45;wsp | ID: 68&#45;&gt;VULNERABILTY DISCOVERY
ncube&#45;lm</title>
<path fill="none" stroke="blue" stroke-width="5" d="M450.65,-98.22C450.65,-124.37 450.65,-156.7 450.65,-183.4"/>
<polygon fill="blue" stroke="blue" stroke-width="5" points="446.27,-183.71 450.65,-193.71 455.02,-183.71 446.27,-183.71"/>
<text text-anchor="start" x="450.65" y="-170.98" font-family="Arial" font-size="20.00" fill="blue"> start_next: 04/11/17, 16:28:37</text>
<text text-anchor="start" x="524.15" y="-150.98" font-family="Arial" font-size="20.00" fill="blue">gap: 8677sec</text>
<text text-anchor="start" x="454.65" y="-130.98" font-family="Arial" font-size="20.00" fill="blue">end_prev: 04/11/17, 14:03:59</text>
<text text-anchor="start" x="485.15" y="-110.98" font-family="Arial" font-weight="bold" font-size="20.00" fill="blue">Attacker: 10.0.254.31</text>
</g>
<!-- ARBITRARY CODE EXECUTION
ssdp | ID: 355 -->
<g id="node8" class="node">
<title>ARBITRARY CODE EXECUTION
ssdp | ID: 355</title>
<g id="a_node8"><a xlink:title="GPL MISC UPnP malformed advertisement">
<polygon fill="none" stroke="black" stroke-width="3" points="638.15,-420.83 263.15,-420.83 263.15,-360.83 638.15,-360.83 638.15,-420.83"/>
<text text-anchor="middle" x="450.65" y="-397.63" font-family="Arial" font-size="24.00">ARBITRARY CODE EXECUTION</text>
<text text-anchor="middle" x="450.65" y="-371.63" font-family="Arial" font-size="24.00">ssdp | ID: 355</text>
</a>
</g>
</g>
<!-- VULNERABILTY DISCOVERY
ncube&#45;lm&#45;&gt;ARBITRARY CODE EXECUTION
ssdp | ID: 355 -->
<g id="edge6" class="edge">
<title>VULNERABILTY DISCOVERY
ncube&#45;lm&#45;&gt;ARBITRARY CODE EXECUTION
ssdp | ID: 355</title>
<path fill="none" stroke="blue" stroke-width="5" d="M450.65,-279.06C450.65,-301.33 450.65,-328.59 450.65,-350.5"/>
<polygon fill="blue" stroke="blue" stroke-width="5" points="446.27,-350.78 450.65,-360.78 455.02,-350.78 446.27,-350.78"/>
<text text-anchor="middle" x="582.15" y="-336.83" font-family="Arial" font-size="20.00" fill="blue">start_next: 04/11/17, 16:30:40</text>
<text text-anchor="middle" x="582.15" y="-314.83" font-family="Arial" font-size="20.00" fill="blue">gap: 91sec</text>
<text text-anchor="middle" x="582.15" y="-292.83" font-family="Arial" font-size="20.00" fill="blue">end_prev: 04/11/17, 16:29:09</text>
</g>
<!-- REMOTE SERVICE EXPLOIT
snmp | ID: 52 -->
<g id="node9" class="node">
<title>REMOTE SERVICE EXPLOIT
snmp | ID: 52</title>
<g id="a_node9"><a xlink:title="ET SNMP Samsung Printer SNMP Hardcode RW Community String">
<polygon fill="none" stroke="black" stroke-width="3" points="619.65,-562.83 281.65,-562.83 281.65,-502.83 619.65,-502.83 619.65,-562.83"/>
<text text-anchor="middle" x="450.65" y="-539.63" font-family="Arial" font-size="24.00">REMOTE SERVICE EXPLOIT</text>
<text text-anchor="middle" x="450.65" y="-513.63" font-family="Arial" font-size="24.00">snmp | ID: 52</text>
</a>
</g>
</g>
<!-- ARBITRARY CODE EXECUTION
ssdp | ID: 355&#45;&gt;REMOTE SERVICE EXPLOIT
snmp | ID: 52 -->
<g id="edge7" class="edge">
<title>ARBITRARY CODE EXECUTION
ssdp | ID: 355&#45;&gt;REMOTE SERVICE EXPLOIT
snmp | ID: 52</title>
<path fill="none" stroke="blue" stroke-width="5" d="M450.65,-420.84C450.65,-441.54 450.65,-469.62 450.65,-492.35"/>
<polygon fill="blue" stroke="blue" stroke-width="5" points="446.27,-492.38 450.65,-502.38 455.02,-492.38 446.27,-492.38"/>
<text text-anchor="middle" x="582.15" y="-478.83" font-family="Arial" font-size="20.00" fill="blue">start_next: 04/11/17, 16:30:59</text>
<text text-anchor="middle" x="582.15" y="-456.83" font-family="Arial" font-size="20.00" fill="blue">gap: 13sec</text>
<text text-anchor="middle" x="582.15" y="-434.83" font-family="Arial" font-size="20.00" fill="blue">end_prev: 04/11/17, 16:30:45</text>
</g>
<!-- REMOTE SERVICE EXPLOIT
snmp | ID: 52&#45;&gt;INFO DISCOVERY
xdmcp -->
<g id="edge8" class="edge">
<title>REMOTE SERVICE EXPLOIT
snmp | ID: 52&#45;&gt;INFO DISCOVERY
xdmcp</title>
<path fill="none" stroke="blue" stroke-width="5" d="M450.65,-562.86C450.65,-583.12 450.65,-610.7 450.65,-634.66"/>
<polygon fill="blue" stroke="blue" stroke-width="5" points="446.27,-634.67 450.65,-644.67 455.02,-634.67 446.27,-634.67"/>
<text text-anchor="middle" x="582.15" y="-620.83" font-family="Arial" font-size="20.00" fill="blue">start_next: 04/11/17, 16:31:00</text>
<text text-anchor="middle" x="582.15" y="-598.83" font-family="Arial" font-size="20.00" fill="blue">gap: 1sec</text>
<text text-anchor="middle" x="582.15" y="-576.83" font-family="Arial" font-size="20.00" fill="blue">end_prev: 04/11/17, 16:30:59</text>
</g>
<!-- ACCOUNT MANIPULATION
snmp | ID: 408&#45;&gt;DATA DELIVERY
wap&#45;wsp | ID: 69 -->
<g id="edge10" class="edge">
<title>ACCOUNT MANIPULATION
snmp | ID: 408&#45;&gt;DATA DELIVERY
wap&#45;wsp | ID: 69</title>
<path fill="none" stroke="blue" stroke-width="5" d="M485.57,-885.72C481.21,-888.21 477.8,-890.87 475.65,-893.69 461.39,-912.34 465.19,-936.54 474.5,-958.46"/>
<polygon fill="blue" stroke="blue" stroke-width="5" points="470.6,-960.47 478.79,-967.69 478.54,-956.78 470.6,-960.47"/>
<text text-anchor="middle" x="607.15" y="-943.69" font-family="Arial" font-size="20.00" fill="blue">start_next: 04/11/17, 16:31:50</text>
<text text-anchor="middle" x="607.15" y="-921.69" font-family="Arial" font-size="20.00" fill="blue">gap: 22sec</text>
<text text-anchor="middle" x="607.15" y="-899.69" font-family="Arial" font-size="20.00" fill="blue">end_prev: 04/11/17, 16:31:28</text>
</g>
<!-- ACCOUNT MANIPULATION
snmp | ID: 408&#45;&gt;DATA DELIVERY
wap&#45;wsp | ID: 69 -->
<g id="edge12" class="edge">
<title>ACCOUNT MANIPULATION
snmp | ID: 408&#45;&gt;DATA DELIVERY
wap&#45;wsp | ID: 69</title>
<path fill="none" stroke="blue" stroke-width="5" d="M729.07,-886.13C731.43,-888.47 733.63,-890.98 735.65,-893.69 753.18,-917.21 753.7,-936.56 735.65,-959.69 723.99,-974.62 690.38,-986.16 652.63,-994.78"/>
<polygon fill="blue" stroke="blue" stroke-width="5" points="651.26,-990.6 642.43,-997.02 653.13,-999.15 651.26,-990.6"/>
<text text-anchor="middle" x="881.15" y="-943.69" font-family="Arial" font-size="20.00" fill="blue">start_next: 04/11/17, 18:03:14</text>
<text text-anchor="middle" x="881.15" y="-921.69" font-family="Arial" font-size="20.00" fill="blue">gap: 26sec</text>
<text text-anchor="middle" x="881.15" y="-899.69" font-family="Arial" font-size="20.00" fill="blue">end_prev: 04/11/17, 18:02:48</text>
</g>
</g>
</svg>
