<?xml version="1.0" encoding="UTF-8" standalone="no"?>
<!DOCTYPE svg PUBLIC "-//W3C//DTD SVG 1.1//EN"
 "http://www.w3.org/Graphics/SVG/1.1/DTD/svg11.dtd">
<!-- Generated by graphviz version 2.50.0 (0)
 -->
<!-- Title: NETWORKDOSssdp Pages: 1 -->
<svg width="517pt" height="1780pt"
 viewBox="0.00 0.00 517.12 1779.70" xmlns="http://www.w3.org/2000/svg" xmlns:xlink="http://www.w3.org/1999/xlink">
<g id="graph0" class="graph" transform="scale(1 1) rotate(0) translate(4 1775.7)">
<title>NETWORKDOSssdp</title>
<polygon fill="white" stroke="transparent" points="-4,4 -4,-1775.7 513.12,-1775.7 513.12,4 -4,4"/>
<!-- Victim: 10.0.0.202
NETWORK DoS
ssdp -->
<g id="node1" class="node">
<title>Victim: 10.0.0.202
NETWORK DoS
ssdp</title>
<polygon fill="salmon" stroke="black" stroke-width="3" points="402.07,-1674.68 402.07,-1729.07 307.79,-1767.53 174.46,-1767.53 80.17,-1729.07 80.17,-1674.68 174.46,-1636.22 307.79,-1636.22 402.07,-1674.68"/>
<polygon fill="none" stroke="black" stroke-width="3" points="406.08,-1672.01 406.08,-1731.75 308.58,-1771.52 173.67,-1771.52 76.17,-1731.75 76.17,-1672.01 173.67,-1632.23 308.58,-1632.23 406.08,-1672.01"/>
<text text-anchor="middle" x="241.12" y="-1721.68" font-family="Arial" font-size="24.00">Victim: 10.0.0.202</text>
<text text-anchor="middle" x="241.12" y="-1695.68" font-family="Arial" font-size="24.00">NETWORK DoS</text>
<text text-anchor="middle" x="241.12" y="-1669.68" font-family="Arial" font-size="24.00">ssdp</text>
</g>
<!-- NETWORK DoS
ssdp | ID: 55 -->
<g id="node2" class="node">
<title>NETWORK DoS
ssdp | ID: 55</title>
<g id="a_node2"><a xlink:title="ET DOS Possible SSDP Amplification Scan in Progress">
<polygon fill="salmon" stroke="black" stroke-width="3" points="397.66,-1566.07 319.39,-1615.05 162.86,-1615.05 84.59,-1566.07 162.86,-1517.09 319.39,-1517.09 397.66,-1566.07"/>
<text text-anchor="middle" x="241.12" y="-1572.87" font-family="Arial" font-size="24.00">NETWORK DoS</text>
<text text-anchor="middle" x="241.12" y="-1546.87" font-family="Arial" font-size="24.00">ssdp | ID: 55</text>
</a>
</g>
</g>
<!-- NETWORK DoS
ssdp | ID: 55&#45;&gt;Victim: 10.0.0.202
NETWORK DoS
ssdp -->
<g id="edge1" class="edge">
<title>NETWORK DoS
ssdp | ID: 55&#45;&gt;Victim: 10.0.0.202
NETWORK DoS
ssdp</title>
<path fill="none" stroke="black" stroke-width="5" d="M241.12,-1615.37C241.12,-1617.48 241.12,-1619.61 241.12,-1621.76"/>
<polygon fill="black" stroke="black" stroke-width="5" points="236.75,-1621.91 241.12,-1631.91 245.5,-1621.91 236.75,-1621.91"/>
</g>
<!-- VULNERABILTY DISCOVERY
ms&#45;sql&#45;s -->
<g id="node3" class="node">
<title>VULNERABILTY DISCOVERY
ms&#45;sql&#45;s</title>
<g id="a_node3"><a xlink:title="ET POLICY Suspicious inbound to MSSQL port 1433">
<ellipse fill="yellow" stroke="black" stroke-width="3" cx="241.12" cy="-42.43" rx="241.25" ry="42.35"/>
<text text-anchor="middle" x="241.12" y="-49.23" font-family="Arial" font-size="24.00">VULNERABILTY DISCOVERY</text>
<text text-anchor="middle" x="241.12" y="-23.23" font-family="Arial" font-size="24.00">ms&#45;sql&#45;s</text>
</a>
</g>
</g>
<!-- VULNERABILTY DISCOVERY
ncube&#45;lm -->
<g id="node4" class="node">
<title>VULNERABILTY DISCOVERY
ncube&#45;lm</title>
<g id="a_node4"><a xlink:title="ET POLICY Suspicious inbound to Oracle SQL port 1521">
<ellipse fill="none" stroke="black" stroke-width="3" cx="241.12" cy="-223.28" rx="241.25" ry="42.35"/>
<text text-anchor="middle" x="241.12" y="-230.08" font-family="Arial" font-size="24.00">VULNERABILTY DISCOVERY</text>
<text text-anchor="middle" x="241.12" y="-204.08" font-family="Arial" font-size="24.00">ncube&#45;lm</text>
</a>
</g>
</g>
<!-- VULNERABILTY DISCOVERY
ms&#45;sql&#45;s&#45;&gt;VULNERABILTY DISCOVERY
ncube&#45;lm -->
<g id="edge2" class="edge">
<title>VULNERABILTY DISCOVERY
ms&#45;sql&#45;s&#45;&gt;VULNERABILTY DISCOVERY
ncube&#45;lm</title>
<path fill="none" stroke="blue" stroke-width="5" d="M241.12,-84.91C241.12,-110.44 241.12,-143.37 241.12,-170.59"/>
<polygon fill="blue" stroke="blue" stroke-width="5" points="236.75,-170.71 241.12,-180.71 245.5,-170.71 236.75,-170.71"/>
<text text-anchor="start" x="241.12" y="-157.85" font-family="Arial" font-size="20.00" fill="blue"> start_next: 04/11/17, 13:08:38</text>
<text text-anchor="start" x="321.12" y="-137.85" font-family="Arial" font-size="20.00" fill="blue">gap: 711sec</text>
<text text-anchor="start" x="245.12" y="-117.85" font-family="Arial" font-size="20.00" fill="blue">end_prev: 04/11/17, 12:56:47</text>
<text text-anchor="start" x="275.62" y="-97.85" font-family="Arial" font-weight="bold" font-size="20.00" fill="blue">Attacker: 10.0.254.31</text>
</g>
<!-- ACCOUNT MANIPULATION
snmp | ID: 53 -->
<g id="node5" class="node">
<title>ACCOUNT MANIPULATION
snmp | ID: 53</title>
<g id="a_node5"><a xlink:title="GPL SNMP private access udp&#10;GPL SNMP public access udp">
<polygon fill="none" stroke="black" stroke-width="3" points="401.12,-407.71 81.12,-407.71 81.12,-347.71 401.12,-347.71 401.12,-407.71"/>
<text text-anchor="middle" x="241.12" y="-384.51" font-family="Arial" font-size="24.00">ACCOUNT MANIPULATION</text>
<text text-anchor="middle" x="241.12" y="-358.51" font-family="Arial" font-size="24.00">snmp | ID: 53</text>
</a>
</g>
</g>
<!-- VULNERABILTY DISCOVERY
ncube&#45;lm&#45;&gt;ACCOUNT MANIPULATION
snmp | ID: 53 -->
<g id="edge3" class="edge">
<title>VULNERABILTY DISCOVERY
ncube&#45;lm&#45;&gt;ACCOUNT MANIPULATION
snmp | ID: 53</title>
<path fill="none" stroke="blue" stroke-width="5" d="M241.12,-265.93C241.12,-288.2 241.12,-315.47 241.12,-337.38"/>
<polygon fill="blue" stroke="blue" stroke-width="5" points="236.75,-337.65 241.12,-347.65 245.5,-337.65 236.75,-337.65"/>
<text text-anchor="middle" x="372.62" y="-323.71" font-family="Arial" font-size="20.00" fill="blue">start_next: 04/11/17, 14:01:27</text>
<text text-anchor="middle" x="372.62" y="-301.71" font-family="Arial" font-size="20.00" fill="blue">gap: 3169sec</text>
<text text-anchor="middle" x="372.62" y="-279.71" font-family="Arial" font-size="20.00" fill="blue">end_prev: 04/11/17, 13:08:38</text>
</g>
<!-- SERVICE DISCOVERY
ssh -->
<g id="node6" class="node">
<title>SERVICE DISCOVERY
ssh</title>
<g id="a_node6"><a xlink:title="ET SCAN Potential SSH Scan">
<ellipse fill="none" stroke="black" stroke-width="3" cx="241.12" cy="-532.13" rx="189.51" ry="42.35"/>
<text text-anchor="middle" x="241.12" y="-538.93" font-family="Arial" font-size="24.00">SERVICE DISCOVERY</text>
<text text-anchor="middle" x="241.12" y="-512.93" font-family="Arial" font-size="24.00">ssh</text>
</a>
</g>
</g>
<!-- ACCOUNT MANIPULATION
snmp | ID: 53&#45;&gt;SERVICE DISCOVERY
ssh -->
<g id="edge4" class="edge">
<title>ACCOUNT MANIPULATION
snmp | ID: 53&#45;&gt;SERVICE DISCOVERY
ssh</title>
<path fill="none" stroke="blue" stroke-width="5" d="M241.12,-407.73C241.12,-427.99 241.12,-455.58 241.12,-479.53"/>
<polygon fill="blue" stroke="blue" stroke-width="5" points="236.75,-479.54 241.12,-489.54 245.5,-479.54 236.75,-479.54"/>
<text text-anchor="middle" x="372.62" y="-465.71" font-family="Arial" font-size="20.00" fill="blue">start_next: 04/11/17, 14:06:20</text>
<text text-anchor="middle" x="372.62" y="-443.71" font-family="Arial" font-size="20.00" fill="blue">gap: 13sec</text>
<text text-anchor="middle" x="372.62" y="-421.71" font-family="Arial" font-size="20.00" fill="blue">end_prev: 04/11/17, 14:06:08</text>
</g>
<!-- SURFING
http -->
<g id="node7" class="node">
<title>SURFING
http</title>
<g id="a_node7"><a xlink:title="ET WEB_SERVER WEB&#45;PHP phpinfo access">
<ellipse fill="none" stroke="black" stroke-width="3" cx="241.12" cy="-698.98" rx="88.28" ry="42.35"/>
<text text-anchor="middle" x="241.12" y="-705.78" font-family="Arial" font-size="24.00">SURFING</text>
<text text-anchor="middle" x="241.12" y="-679.78" font-family="Arial" font-size="24.00">http</text>
</a>
</g>
</g>
<!-- SERVICE DISCOVERY
ssh&#45;&gt;SURFING
http -->
<g id="edge5" class="edge">
<title>SERVICE DISCOVERY
ssh&#45;&gt;SURFING
http</title>
<path fill="none" stroke="blue" stroke-width="5" d="M241.12,-574.73C241.12,-596.4 241.12,-623.11 241.12,-646.12"/>
<polygon fill="blue" stroke="blue" stroke-width="5" points="236.75,-646.4 241.12,-656.4 245.5,-646.4 236.75,-646.4"/>
<text text-anchor="middle" x="372.62" y="-632.56" font-family="Arial" font-size="20.00" fill="blue">start_next: 04/11/17, 14:10:34</text>
<text text-anchor="middle" x="372.62" y="-610.56" font-family="Arial" font-size="20.00" fill="blue">gap: 253sec</text>
<text text-anchor="middle" x="372.62" y="-588.56" font-family="Arial" font-size="20.00" fill="blue">end_prev: 04/11/17, 14:06:20</text>
</g>
<!-- DATA DELIVERY
http | ID: 246 -->
<g id="node8" class="node">
<title>DATA DELIVERY
http | ID: 246</title>
<g id="a_node8"><a xlink:title="ET WEB_SERVER PHP Possible php Remote File Inclusion Attempt&#10;ET WEB_SERVER PHP tags in HTTP POST&#10;GPL WEB_SERVER perl post attempt">
<polygon fill="none" stroke="black" stroke-width="3" points="404.22,-872.4 322.67,-921.38 159.57,-921.38 78.02,-872.4 159.57,-823.42 322.67,-823.42 404.22,-872.4"/>
<text text-anchor="middle" x="241.12" y="-879.2" font-family="Arial" font-size="24.00">DATA DELIVERY</text>
<text text-anchor="middle" x="241.12" y="-853.2" font-family="Arial" font-size="24.00">http | ID: 246</text>
</a>
</g>
</g>
<!-- SURFING
http&#45;&gt;DATA DELIVERY
http | ID: 246 -->
<g id="edge6" class="edge">
<title>SURFING
http&#45;&gt;DATA DELIVERY
http | ID: 246</title>
<path fill="none" stroke="blue" stroke-width="5" d="M241.12,-741.48C241.12,-762.97 241.12,-789.57 241.12,-813.09"/>
<polygon fill="blue" stroke="blue" stroke-width="5" points="236.75,-813.31 241.12,-823.31 245.5,-813.31 236.75,-813.31"/>
<text text-anchor="middle" x="372.62" y="-799.41" font-family="Arial" font-size="20.00" fill="blue">start_next: 04/11/17, 14:10:37</text>
<text text-anchor="middle" x="372.62" y="-777.41" font-family="Arial" font-size="20.00" fill="blue">gap: 1sec</text>
<text text-anchor="middle" x="372.62" y="-755.41" font-family="Arial" font-size="20.00" fill="blue">end_prev: 04/11/17, 14:10:36</text>
</g>
<!-- DATA EXFILTRATION
http | ID: 26 -->
<g id="node9" class="node">
<title>DATA EXFILTRATION
http | ID: 26</title>
<g id="a_node9"><a xlink:title="ET WEB_SPECIFIC_APPS PHP&#45;CGI query string parameter vulnerability">
<polygon fill="none" stroke="black" stroke-width="3" points="446,-1052.38 343.56,-1101.36 138.68,-1101.36 36.24,-1052.38 138.68,-1003.4 343.56,-1003.4 446,-1052.38"/>
<text text-anchor="middle" x="241.12" y="-1059.18" font-family="Arial" font-size="24.00">DATA EXFILTRATION</text>
<text text-anchor="middle" x="241.12" y="-1033.18" font-family="Arial" font-size="24.00">http | ID: 26</text>
</a>
</g>
</g>
<!-- DATA DELIVERY
http | ID: 246&#45;&gt;DATA EXFILTRATION
http | ID: 26 -->
<g id="edge7" class="edge">
<title>DATA DELIVERY
http | ID: 246&#45;&gt;DATA EXFILTRATION
http | ID: 26</title>
<path fill="none" stroke="blue" stroke-width="5" d="M241.12,-921.56C241.12,-943.63 241.12,-969.96 241.12,-993.13"/>
<polygon fill="blue" stroke="blue" stroke-width="5" points="236.75,-993.18 241.12,-1003.18 245.5,-993.18 236.75,-993.18"/>
<text text-anchor="middle" x="372.62" y="-979.39" font-family="Arial" font-size="20.00" fill="blue">start_next: 04/11/17, 14:10:48</text>
<text text-anchor="middle" x="372.62" y="-957.39" font-family="Arial" font-size="20.00" fill="blue">gap: &#45;319sec</text>
<text text-anchor="middle" x="372.62" y="-935.39" font-family="Arial" font-size="20.00" fill="blue">end_prev: 04/11/17, 14:16:07</text>
</g>
<!-- VULNERABILTY DISCOVERY
http -->
<g id="node10" class="node">
<title>VULNERABILTY DISCOVERY
http</title>
<g id="a_node10"><a xlink:title="ET SCAN Nessus User Agent">
<ellipse fill="none" stroke="black" stroke-width="3" cx="241.12" cy="-1225.8" rx="241.25" ry="42.35"/>
<text text-anchor="middle" x="241.12" y="-1232.6" font-family="Arial" font-size="24.00">VULNERABILTY DISCOVERY</text>
<text text-anchor="middle" x="241.12" y="-1206.6" font-family="Arial" font-size="24.00">http</text>
</a>
</g>
</g>
<!-- DATA EXFILTRATION
http | ID: 26&#45;&gt;VULNERABILTY DISCOVERY
http -->
<g id="edge8" class="edge">
<title>DATA EXFILTRATION
http | ID: 26&#45;&gt;VULNERABILTY DISCOVERY
http</title>
<path fill="none" stroke="blue" stroke-width="5" d="M241.12,-1101.59C241.12,-1123.91 241.12,-1150.47 241.12,-1173.2"/>
<polygon fill="blue" stroke="blue" stroke-width="5" points="236.75,-1173.35 241.12,-1183.35 245.5,-1173.35 236.75,-1173.35"/>
<text text-anchor="middle" x="372.62" y="-1159.37" font-family="Arial" font-size="20.00" fill="blue">start_next: 04/11/17, 14:18:12</text>
<text text-anchor="middle" x="372.62" y="-1137.37" font-family="Arial" font-size="20.00" fill="blue">gap: 35sec</text>
<text text-anchor="middle" x="372.62" y="-1115.37" font-family="Arial" font-size="20.00" fill="blue">end_prev: 04/11/17, 14:17:37</text>
</g>
<!-- VULNERABILTY DISCOVERY
ahsp -->
<g id="node11" class="node">
<title>VULNERABILTY DISCOVERY
ahsp</title>
<g id="a_node11"><a xlink:title="ET POLICY Suspicious inbound to PostgreSQL port 5432&#10;ET POLICY Suspicious inbound to Oracle SQL port 1521&#10;ET POLICY Suspicious inbound to mSQL port 4333">
<ellipse fill="none" stroke="black" stroke-width="3" cx="241.12" cy="-1392.65" rx="241.25" ry="42.35"/>
<text text-anchor="middle" x="241.12" y="-1399.45" font-family="Arial" font-size="24.00">VULNERABILTY DISCOVERY</text>
<text text-anchor="middle" x="241.12" y="-1373.45" font-family="Arial" font-size="24.00">ahsp</text>
</a>
</g>
</g>
<!-- VULNERABILTY DISCOVERY
http&#45;&gt;VULNERABILTY DISCOVERY
ahsp -->
<g id="edge9" class="edge">
<title>VULNERABILTY DISCOVERY
http&#45;&gt;VULNERABILTY DISCOVERY
ahsp</title>
<path fill="none" stroke="blue" stroke-width="5" d="M241.12,-1268.4C241.12,-1290.07 241.12,-1316.78 241.12,-1339.78"/>
<polygon fill="blue" stroke="blue" stroke-width="5" points="236.75,-1340.06 241.12,-1350.06 245.5,-1340.06 236.75,-1340.06"/>
<text text-anchor="middle" x="372.62" y="-1326.22" font-family="Arial" font-size="20.00" fill="blue">start_next: 04/11/17, 16:31:18</text>
<text text-anchor="middle" x="372.62" y="-1304.22" font-family="Arial" font-size="20.00" fill="blue">gap: 7194sec</text>
<text text-anchor="middle" x="372.62" y="-1282.22" font-family="Arial" font-size="20.00" fill="blue">end_prev: 04/11/17, 14:31:25</text>
</g>
<!-- VULNERABILTY DISCOVERY
ahsp&#45;&gt;NETWORK DoS
ssdp | ID: 55 -->
<g id="edge10" class="edge">
<title>VULNERABILTY DISCOVERY
ahsp&#45;&gt;NETWORK DoS
ssdp | ID: 55</title>
<path fill="none" stroke="blue" stroke-width="5" d="M241.12,-1435.14C241.12,-1456.64 241.12,-1483.24 241.12,-1506.76"/>
<polygon fill="blue" stroke="blue" stroke-width="5" points="236.75,-1506.97 241.12,-1516.97 245.5,-1506.97 236.75,-1506.97"/>
<text text-anchor="middle" x="372.62" y="-1493.08" font-family="Arial" font-size="20.00" fill="blue">start_next: 04/11/17, 16:32:58</text>
<text text-anchor="middle" x="372.62" y="-1471.08" font-family="Arial" font-size="20.00" fill="blue">gap: 40sec</text>
<text text-anchor="middle" x="372.62" y="-1449.08" font-family="Arial" font-size="20.00" fill="blue">end_prev: 04/11/17, 16:32:18</text>
</g>
</g>
</svg>
