<?xml version="1.0" encoding="UTF-8" standalone="no"?>
<!DOCTYPE svg PUBLIC "-//W3C//DTD SVG 1.1//EN"
 "http://www.w3.org/Graphics/SVG/1.1/DTD/svg11.dtd">
<!-- Generated by graphviz version 2.50.0 (0)
 -->
<!-- Title: DATAEXFILTRATIONhttp Pages: 1 -->
<svg width="2111pt" height="1694pt"
 viewBox="0.00 0.00 2111.12 1693.70" xmlns="http://www.w3.org/2000/svg" xmlns:xlink="http://www.w3.org/1999/xlink">
<g id="graph0" class="graph" transform="scale(1 1) rotate(0) translate(4 1689.7)">
<title>DATAEXFILTRATIONhttp</title>
<polygon fill="white" stroke="transparent" points="-4,4 -4,-1689.7 2107.12,-1689.7 2107.12,4 -4,4"/>
<!-- Victim: 10.0.0.167
DATA EXFILTRATION
http -->
<g id="node1" class="node">
<title>Victim: 10.0.0.167
DATA EXFILTRATION
http</title>
<polygon fill="salmon" stroke="black" stroke-width="3" points="1037.34,-1588.68 1037.34,-1643.07 924.74,-1681.53 765.51,-1681.53 652.91,-1643.07 652.91,-1588.68 765.51,-1550.22 924.74,-1550.22 1037.34,-1588.68"/>
<polygon fill="none" stroke="black" stroke-width="3" points="1041.34,-1585.83 1041.34,-1645.92 925.41,-1685.52 764.84,-1685.52 648.91,-1645.92 648.91,-1585.83 764.84,-1546.23 925.41,-1546.23 1041.34,-1585.83"/>
<text text-anchor="middle" x="845.12" y="-1635.68" font-family="Arial" font-size="24.00">Victim: 10.0.0.167</text>
<text text-anchor="middle" x="845.12" y="-1609.68" font-family="Arial" font-size="24.00">DATA EXFILTRATION</text>
<text text-anchor="middle" x="845.12" y="-1583.68" font-family="Arial" font-size="24.00">http</text>
</g>
<!-- DATA EXFILTRATION
http | ID: 26 -->
<g id="node2" class="node">
<title>DATA EXFILTRATION
http | ID: 26</title>
<g id="a_node2"><a xlink:title="ET WEB_SPECIFIC_APPS PHP&#45;CGI query string parameter vulnerability">
<polygon fill="salmon" stroke="black" stroke-width="3" points="1050,-1480.07 947.56,-1529.05 742.68,-1529.05 640.24,-1480.07 742.68,-1431.09 947.56,-1431.09 1050,-1480.07"/>
<text text-anchor="middle" x="845.12" y="-1486.87" font-family="Arial" font-size="24.00">DATA EXFILTRATION</text>
<text text-anchor="middle" x="845.12" y="-1460.87" font-family="Arial" font-size="24.00">http | ID: 26</text>
</a>
</g>
</g>
<!-- DATA EXFILTRATION
http | ID: 26&#45;&gt;Victim: 10.0.0.167
DATA EXFILTRATION
http -->
<g id="edge1" class="edge">
<title>DATA EXFILTRATION
http | ID: 26&#45;&gt;Victim: 10.0.0.167
DATA EXFILTRATION
http</title>
<path fill="none" stroke="black" stroke-width="5" d="M845.12,-1529.37C845.12,-1531.48 845.12,-1533.61 845.12,-1535.76"/>
<polygon fill="black" stroke="black" stroke-width="5" points="840.75,-1535.91 845.12,-1545.91 849.5,-1535.91 840.75,-1535.91"/>
</g>
<!-- VULNERABILTY DISCOVERY
postgresql -->
<g id="node3" class="node">
<title>VULNERABILTY DISCOVERY
postgresql</title>
<g id="a_node3"><a xlink:title="ET POLICY Suspicious inbound to Oracle SQL port 1521&#10;ET POLICY Suspicious inbound to PostgreSQL port 5432">
<ellipse fill="yellow" stroke="black" stroke-width="3" cx="241.12" cy="-42.43" rx="241.25" ry="42.35"/>
<text text-anchor="middle" x="241.12" y="-49.23" font-family="Arial" font-size="24.00">VULNERABILTY DISCOVERY</text>
<text text-anchor="middle" x="241.12" y="-23.23" font-family="Arial" font-size="24.00">postgresql</text>
</a>
</g>
</g>
<!-- SERVICE DISCOVERY
ssh -->
<g id="node4" class="node">
<title>SERVICE DISCOVERY
ssh</title>
<g id="a_node4"><a xlink:title="ET SCAN Potential SSH Scan">
<ellipse fill="none" stroke="black" stroke-width="3" cx="241.12" cy="-223.28" rx="189.51" ry="42.35"/>
<text text-anchor="middle" x="241.12" y="-230.08" font-family="Arial" font-size="24.00">SERVICE DISCOVERY</text>
<text text-anchor="middle" x="241.12" y="-204.08" font-family="Arial" font-size="24.00">ssh</text>
</a>
</g>
</g>
<!-- VULNERABILTY DISCOVERY
postgresql&#45;&gt;SERVICE DISCOVERY
ssh -->
<g id="edge2" class="edge">
<title>VULNERABILTY DISCOVERY
postgresql&#45;&gt;SERVICE DISCOVERY
ssh</title>
<path fill="none" stroke="blue" stroke-width="5" d="M241.12,-84.91C241.12,-110.44 241.12,-143.37 241.12,-170.59"/>
<polygon fill="blue" stroke="blue" stroke-width="5" points="236.75,-170.71 241.12,-180.71 245.5,-170.71 236.75,-170.71"/>
<text text-anchor="start" x="241.12" y="-157.85" font-family="Arial" font-size="20.00" fill="blue"> start_next: 04/11/17, 13:34:49</text>
<text text-anchor="start" x="320.62" y="-137.85" font-family="Arial" font-size="20.00" fill="blue">gap: 859sec</text>
<text text-anchor="start" x="245.12" y="-117.85" font-family="Arial" font-size="20.00" fill="blue">end_prev: 04/11/17, 13:20:30</text>
<text text-anchor="start" x="275.62" y="-97.85" font-family="Arial" font-weight="bold" font-size="20.00" fill="blue">Attacker: 10.0.254.31</text>
</g>
<!-- VULNERABILTY DISCOVERY
ms&#45;sql&#45;s -->
<g id="node5" class="node">
<title>VULNERABILTY DISCOVERY
ms&#45;sql&#45;s</title>
<g id="a_node5"><a xlink:title="ET POLICY Suspicious inbound to mySQL port 3306&#10;ET POLICY Suspicious inbound to mSQL port 4333&#10;ET POLICY Suspicious inbound to MSSQL port 1433&#10;ET POLICY Suspicious inbound to Oracle SQL port 1521&#10;ET SCAN Nessus User Agent&#10;ET POLICY Suspicious inbound to PostgreSQL port 5432">
<ellipse fill="yellow" stroke="black" stroke-width="3" cx="434.12" cy="-404.13" rx="241.25" ry="42.35"/>
<text text-anchor="middle" x="434.12" y="-410.93" font-family="Arial" font-size="24.00">VULNERABILTY DISCOVERY</text>
<text text-anchor="middle" x="434.12" y="-384.93" font-family="Arial" font-size="24.00">ms&#45;sql&#45;s</text>
</a>
</g>
</g>
<!-- SERVICE DISCOVERY
ssh&#45;&gt;VULNERABILTY DISCOVERY
ms&#45;sql&#45;s -->
<g id="edge3" class="edge">
<title>SERVICE DISCOVERY
ssh&#45;&gt;VULNERABILTY DISCOVERY
ms&#45;sql&#45;s</title>
<path fill="none" stroke="blue" stroke-width="5" d="M272.47,-265.18C294.24,-292.1 324.86,-327.13 356.12,-353.71 357.42,-354.81 358.75,-355.91 360.1,-357"/>
<polygon fill="blue" stroke="blue" stroke-width="5" points="357.47,-360.5 368.05,-363.16 362.83,-353.58 357.47,-360.5"/>
<text text-anchor="middle" x="487.62" y="-330.71" font-family="Arial" font-size="20.00" fill="blue">start_next: 04/11/17, 14:01:06</text>
<text text-anchor="middle" x="487.62" y="-308.71" font-family="Arial" font-size="20.00" fill="blue">gap: 1578sec</text>
<text text-anchor="middle" x="487.62" y="-286.71" font-family="Arial" font-size="20.00" fill="blue">end_prev: 04/11/17, 13:34:49</text>
</g>
<!-- ARBITRARY CODE EXECUTION
ssdp | ID: 355 -->
<g id="node6" class="node">
<title>ARBITRARY CODE EXECUTION
ssdp | ID: 355</title>
<g id="a_node6"><a xlink:title="GPL MISC UPnP malformed advertisement">
<polygon fill="none" stroke="black" stroke-width="3" points="387.62,-614.98 12.62,-614.98 12.62,-554.98 387.62,-554.98 387.62,-614.98"/>
<text text-anchor="middle" x="200.12" y="-591.78" font-family="Arial" font-size="24.00">ARBITRARY CODE EXECUTION</text>
<text text-anchor="middle" x="200.12" y="-565.78" font-family="Arial" font-size="24.00">ssdp | ID: 355</text>
</a>
</g>
</g>
<!-- VULNERABILTY DISCOVERY
ms&#45;sql&#45;s&#45;&gt;ARBITRARY CODE EXECUTION
ssdp | ID: 355 -->
<g id="edge4" class="edge">
<title>VULNERABILTY DISCOVERY
ms&#45;sql&#45;s&#45;&gt;ARBITRARY CODE EXECUTION
ssdp | ID: 355</title>
<path fill="none" stroke="blue" stroke-width="5" d="M226.85,-425.82C197.37,-432.8 173.5,-442.12 163.12,-454.56 140.35,-481.86 151.9,-500.82 163.12,-534.56 164.46,-538.56 166.25,-542.51 168.34,-546.31"/>
<polygon fill="blue" stroke="blue" stroke-width="5" points="164.68,-548.7 173.66,-554.9 172.12,-544.09 164.68,-548.7"/>
<text text-anchor="middle" x="294.62" y="-511.56" font-family="Arial" font-size="20.00" fill="blue">start_next: 04/11/17, 14:03:08</text>
<text text-anchor="middle" x="294.62" y="-489.56" font-family="Arial" font-size="20.00" fill="blue">gap: 51sec</text>
<text text-anchor="middle" x="294.62" y="-467.56" font-family="Arial" font-size="20.00" fill="blue">end_prev: 04/11/17, 14:02:17</text>
</g>
<!-- VULNERABILTY DISCOVERY
ms&#45;sql&#45;s&#45;&gt;ARBITRARY CODE EXECUTION
ssdp | ID: 355 -->
<g id="edge11" class="edge">
<title>VULNERABILTY DISCOVERY
ms&#45;sql&#45;s&#45;&gt;ARBITRARY CODE EXECUTION
ssdp | ID: 355</title>
<path fill="none" stroke="blue" stroke-width="5" d="M435.76,-446.78C436.12,-479.58 434.26,-521.83 423.12,-534.56 417.56,-540.92 407.65,-546.54 395.02,-551.48"/>
<polygon fill="blue" stroke="blue" stroke-width="5" points="393.28,-547.45 385.35,-554.96 396.25,-555.69 393.28,-547.45"/>
<text text-anchor="middle" x="567.62" y="-511.56" font-family="Arial" font-size="20.00" fill="blue">start_next: 04/11/17, 16:31:31</text>
<text text-anchor="middle" x="567.62" y="-489.56" font-family="Arial" font-size="20.00" fill="blue">gap: &#45;116sec</text>
<text text-anchor="middle" x="567.62" y="-467.56" font-family="Arial" font-size="20.00" fill="blue">end_prev: 04/11/17, 16:33:27</text>
</g>
<!-- SERVICE DISCOVERY
unknown -->
<g id="node12" class="node">
<title>SERVICE DISCOVERY
unknown</title>
<g id="a_node12"><a xlink:title="ET SCAN Potential SSH Scan&#10;ET SCAN Potential VNC Scan 5900&#45;5920">
<ellipse fill="none" stroke="black" stroke-width="3" cx="709.12" cy="-584.98" rx="189.51" ry="42.35"/>
<text text-anchor="middle" x="709.12" y="-591.78" font-family="Arial" font-size="24.00">SERVICE DISCOVERY</text>
<text text-anchor="middle" x="709.12" y="-565.78" font-family="Arial" font-size="24.00">unknown</text>
</a>
</g>
</g>
<!-- VULNERABILTY DISCOVERY
ms&#45;sql&#45;s&#45;&gt;SERVICE DISCOVERY
unknown -->
<g id="edge17" class="edge">
<title>VULNERABILTY DISCOVERY
ms&#45;sql&#45;s&#45;&gt;SERVICE DISCOVERY
unknown</title>
<path fill="none" stroke="blue" stroke-width="5" d="M636.52,-427.31C664.74,-434.13 687.68,-443.02 698.12,-454.56 716.75,-475.16 720,-505.89 718.36,-532.24"/>
<polygon fill="blue" stroke="blue" stroke-width="5" points="713.98,-532.12 717.47,-542.46 722.7,-532.88 713.98,-532.12"/>
<text text-anchor="start" x="719.12" y="-519.56" font-family="Arial" font-size="20.00" fill="blue"> start_next: 04/11/17, 18:01:39</text>
<text text-anchor="start" x="804.12" y="-499.56" font-family="Arial" font-size="20.00" fill="blue">gap: 40sec</text>
<text text-anchor="start" x="723.12" y="-479.56" font-family="Arial" font-size="20.00" fill="blue">end_prev: 04/11/17, 18:00:59</text>
<text text-anchor="start" x="753.62" y="-459.56" font-family="Arial" font-weight="bold" font-size="20.00" fill="blue">Attacker: 10.0.254.31</text>
</g>
<!-- REMOTE SERVICE EXPLOIT
snmp | ID: 52 -->
<g id="node7" class="node">
<title>REMOTE SERVICE EXPLOIT
snmp | ID: 52</title>
<g id="a_node7"><a xlink:title="ET SNMP Samsung Printer SNMP Hardcode RW Community String">
<polygon fill="none" stroke="black" stroke-width="3" points="436.12,-802.4 98.12,-802.4 98.12,-742.4 436.12,-742.4 436.12,-802.4"/>
<text text-anchor="middle" x="267.12" y="-779.2" font-family="Arial" font-size="24.00">REMOTE SERVICE EXPLOIT</text>
<text text-anchor="middle" x="267.12" y="-753.2" font-family="Arial" font-size="24.00">snmp | ID: 52</text>
</a>
</g>
</g>
<!-- ARBITRARY CODE EXECUTION
ssdp | ID: 355&#45;&gt;REMOTE SERVICE EXPLOIT
snmp | ID: 52 -->
<g id="edge5" class="edge">
<title>ARBITRARY CODE EXECUTION
ssdp | ID: 355&#45;&gt;REMOTE SERVICE EXPLOIT
snmp | ID: 52</title>
<path fill="none" stroke="blue" stroke-width="5" d="M138.47,-615.15C131.54,-620.91 125.44,-627.63 121.12,-635.41 103.89,-666.51 100.98,-686.11 121.12,-715.41 126.66,-723.46 133.52,-730.35 141.23,-736.26"/>
<polygon fill="blue" stroke="blue" stroke-width="5" points="139.2,-740.17 149.9,-742.28 144.19,-732.98 139.2,-740.17"/>
<text text-anchor="middle" x="252.62" y="-692.41" font-family="Arial" font-size="20.00" fill="blue">start_next: 04/11/17, 14:03:40</text>
<text text-anchor="middle" x="252.62" y="-670.41" font-family="Arial" font-size="20.00" fill="blue">gap: 22sec</text>
<text text-anchor="middle" x="252.62" y="-648.41" font-family="Arial" font-size="20.00" fill="blue">end_prev: 04/11/17, 14:03:18</text>
</g>
<!-- ARBITRARY CODE EXECUTION
ssdp | ID: 355&#45;&gt;REMOTE SERVICE EXPLOIT
snmp | ID: 52 -->
<g id="edge12" class="edge">
<title>ARBITRARY CODE EXECUTION
ssdp | ID: 355&#45;&gt;REMOTE SERVICE EXPLOIT
snmp | ID: 52</title>
<path fill="none" stroke="blue" stroke-width="5" d="M345.94,-615.03C362.32,-620.92 375.24,-627.71 381.12,-635.41 402.7,-663.67 399.92,-685.23 381.12,-715.41 376.11,-723.45 369.58,-730.37 362.16,-736.32"/>
<polygon fill="blue" stroke="blue" stroke-width="5" points="359.32,-732.98 353.81,-742.4 364.47,-740.05 359.32,-732.98"/>
<text text-anchor="middle" x="528.62" y="-692.41" font-family="Arial" font-size="20.00" fill="blue">start_next: 04/11/17, 16:32:03</text>
<text text-anchor="middle" x="528.62" y="-670.41" font-family="Arial" font-size="20.00" fill="blue">gap: 22sec</text>
<text text-anchor="middle" x="528.62" y="-648.41" font-family="Arial" font-size="20.00" fill="blue">end_prev: 04/11/17, 16:31:41</text>
</g>
<!-- INFO DISCOVERY
xdmcp -->
<g id="node8" class="node">
<title>INFO DISCOVERY
xdmcp</title>
<g id="a_node8"><a xlink:title="GPL WEB_SERVER mod_gzip_status access&#10;GPL RPC xdmcp info query">
<ellipse fill="none" stroke="black" stroke-width="3" cx="434.12" cy="-945.82" rx="156.04" ry="42.35"/>
<text text-anchor="middle" x="434.12" y="-952.62" font-family="Arial" font-size="24.00">INFO DISCOVERY</text>
<text text-anchor="middle" x="434.12" y="-926.62" font-family="Arial" font-size="24.00">xdmcp</text>
</a>
</g>
</g>
<!-- REMOTE SERVICE EXPLOIT
snmp | ID: 52&#45;&gt;INFO DISCOVERY
xdmcp -->
<g id="edge6" class="edge">
<title>REMOTE SERVICE EXPLOIT
snmp | ID: 52&#45;&gt;INFO DISCOVERY
xdmcp</title>
<path fill="none" stroke="blue" stroke-width="5" d="M189.45,-802.5C178.95,-809.71 169.59,-818.56 163.12,-829.39 148.08,-854.57 144.33,-872.86 163.12,-895.39 178.63,-913.98 224.26,-925.6 273.77,-932.85"/>
<polygon fill="blue" stroke="blue" stroke-width="5" points="273.2,-937.19 283.71,-934.24 274.41,-928.52 273.2,-937.19"/>
<text text-anchor="middle" x="294.62" y="-879.39" font-family="Arial" font-size="20.00" fill="blue">start_next: 04/11/17, 14:03:41</text>
<text text-anchor="middle" x="294.62" y="-857.39" font-family="Arial" font-size="20.00" fill="blue">gap: 1sec</text>
<text text-anchor="middle" x="294.62" y="-835.39" font-family="Arial" font-size="20.00" fill="blue">end_prev: 04/11/17, 14:03:40</text>
</g>
<!-- REMOTE SERVICE EXPLOIT
snmp | ID: 52&#45;&gt;INFO DISCOVERY
xdmcp -->
<g id="edge13" class="edge">
<title>REMOTE SERVICE EXPLOIT
snmp | ID: 52&#45;&gt;INFO DISCOVERY
xdmcp</title>
<path fill="none" stroke="blue" stroke-width="5" d="M391.57,-802.4C403.64,-809.52 414.56,-818.37 423.12,-829.39 430.87,-839.35 433.66,-867.24 434.5,-893.1"/>
<polygon fill="blue" stroke="blue" stroke-width="5" points="430.13,-893.35 434.74,-903.25 438.88,-893.15 430.13,-893.35"/>
<text text-anchor="middle" x="566.62" y="-879.39" font-family="Arial" font-size="20.00" fill="blue">start_next: 04/11/17, 16:32:05</text>
<text text-anchor="middle" x="566.62" y="-857.39" font-family="Arial" font-size="20.00" fill="blue">gap: 2sec</text>
<text text-anchor="middle" x="566.62" y="-835.39" font-family="Arial" font-size="20.00" fill="blue">end_prev: 04/11/17, 16:32:03</text>
</g>
<!-- ACCOUNT MANIPULATION
snmp | ID: 53 -->
<g id="node9" class="node">
<title>ACCOUNT MANIPULATION
snmp | ID: 53</title>
<g id="a_node9"><a xlink:title="GPL SNMP private access udp&#10;GPL SNMP public access udp">
<polygon fill="none" stroke="black" stroke-width="3" points="594.12,-1142.67 274.12,-1142.67 274.12,-1082.67 594.12,-1082.67 594.12,-1142.67"/>
<text text-anchor="middle" x="434.12" y="-1119.47" font-family="Arial" font-size="24.00">ACCOUNT MANIPULATION</text>
<text text-anchor="middle" x="434.12" y="-1093.47" font-family="Arial" font-size="24.00">snmp | ID: 53</text>
</a>
</g>
</g>
<!-- INFO DISCOVERY
xdmcp&#45;&gt;ACCOUNT MANIPULATION
snmp | ID: 53 -->
<g id="edge7" class="edge">
<title>INFO DISCOVERY
xdmcp&#45;&gt;ACCOUNT MANIPULATION
snmp | ID: 53</title>
<path fill="none" stroke="blue" stroke-width="5" d="M283.71,-957.39C230.48,-964.52 179.67,-976.41 163.12,-996.24 144.33,-1018.77 144.33,-1039.72 163.12,-1062.24 177.57,-1079.57 218.17,-1090.83 263.68,-1098.16"/>
<polygon fill="blue" stroke="blue" stroke-width="5" points="263.22,-1102.51 273.77,-1099.7 264.55,-1093.86 263.22,-1102.51"/>
<text text-anchor="middle" x="294.62" y="-1046.24" font-family="Arial" font-size="20.00" fill="blue">start_next: 04/11/17, 14:04:35</text>
<text text-anchor="middle" x="294.62" y="-1024.24" font-family="Arial" font-size="20.00" fill="blue">gap: &#45;59sec</text>
<text text-anchor="middle" x="294.62" y="-1002.24" font-family="Arial" font-size="20.00" fill="blue">end_prev: 04/11/17, 14:05:34</text>
</g>
<!-- INFO DISCOVERY
xdmcp&#45;&gt;ACCOUNT MANIPULATION
snmp | ID: 53 -->
<g id="edge14" class="edge">
<title>INFO DISCOVERY
xdmcp&#45;&gt;ACCOUNT MANIPULATION
snmp | ID: 53</title>
<path fill="none" stroke="blue" stroke-width="5" d="M434.12,-988.42C434.12,-1014.24 434.12,-1047.21 434.12,-1072.55"/>
<polygon fill="blue" stroke="blue" stroke-width="5" points="429.75,-1072.55 434.12,-1082.55 438.5,-1072.55 429.75,-1072.55"/>
<text text-anchor="middle" x="565.62" y="-1046.24" font-family="Arial" font-size="20.00" fill="blue">start_next: 04/11/17, 16:33:04</text>
<text text-anchor="middle" x="565.62" y="-1024.24" font-family="Arial" font-size="20.00" fill="blue">gap: &#45;25sec</text>
<text text-anchor="middle" x="565.62" y="-1002.24" font-family="Arial" font-size="20.00" fill="blue">end_prev: 04/11/17, 16:33:28</text>
</g>
<!-- INFO DISCOVERY
xdmcp&#45;&gt;ACCOUNT MANIPULATION
snmp | ID: 53 -->
<g id="edge20" class="edge">
<title>INFO DISCOVERY
xdmcp&#45;&gt;ACCOUNT MANIPULATION
snmp | ID: 53</title>
<path fill="none" stroke="blue" stroke-width="5" d="M583.56,-958.25C634.36,-965.49 682.34,-977.23 698.12,-996.24 716.86,-1018.81 716.86,-1039.67 698.12,-1062.24 684.51,-1078.64 646.98,-1089.62 604.34,-1096.98"/>
<polygon fill="blue" stroke="blue" stroke-width="5" points="603.45,-1092.69 594.29,-1098.63 604.87,-1101.32 603.45,-1092.69"/>
<text text-anchor="middle" x="844.62" y="-1046.24" font-family="Arial" font-size="20.00" fill="blue">start_next: 04/11/17, 18:04:03</text>
<text text-anchor="middle" x="844.62" y="-1024.24" font-family="Arial" font-size="20.00" fill="blue">gap: 46sec</text>
<text text-anchor="middle" x="844.62" y="-1002.24" font-family="Arial" font-size="20.00" fill="blue">end_prev: 04/11/17, 18:03:18</text>
</g>
<!-- DATA DELIVERY
http | ID: 246 -->
<g id="node10" class="node">
<title>DATA DELIVERY
http | ID: 246</title>
<g id="a_node10"><a xlink:title="GPL WEB_SERVER perl post attempt">
<polygon fill="none" stroke="black" stroke-width="3" points="597.22,-1300.09 515.67,-1349.07 352.57,-1349.07 271.02,-1300.09 352.57,-1251.11 515.67,-1251.11 597.22,-1300.09"/>
<text text-anchor="middle" x="434.12" y="-1306.89" font-family="Arial" font-size="24.00">DATA DELIVERY</text>
<text text-anchor="middle" x="434.12" y="-1280.89" font-family="Arial" font-size="24.00">http | ID: 246</text>
</a>
</g>
</g>
<!-- ACCOUNT MANIPULATION
snmp | ID: 53&#45;&gt;DATA DELIVERY
http | ID: 246 -->
<g id="edge8" class="edge">
<title>ACCOUNT MANIPULATION
snmp | ID: 53&#45;&gt;DATA DELIVERY
http | ID: 246</title>
<path fill="none" stroke="blue" stroke-width="5" d="M273.77,-1125.64C224.26,-1132.89 178.63,-1144.5 163.12,-1163.1 140.35,-1190.4 140.67,-1215.53 163.12,-1243.1 179.51,-1263.22 230.32,-1276.33 283.59,-1284.76"/>
<polygon fill="blue" stroke="blue" stroke-width="5" points="283.01,-1289.1 293.56,-1286.28 284.33,-1280.45 283.01,-1289.1"/>
<text text-anchor="middle" x="294.62" y="-1220.1" font-family="Arial" font-size="20.00" fill="blue">start_next: 04/11/17, 14:05:37</text>
<text text-anchor="middle" x="294.62" y="-1198.1" font-family="Arial" font-size="20.00" fill="blue">gap: 33sec</text>
<text text-anchor="middle" x="294.62" y="-1176.1" font-family="Arial" font-size="20.00" fill="blue">end_prev: 04/11/17, 14:05:04</text>
</g>
<!-- ACCOUNT MANIPULATION
snmp | ID: 53&#45;&gt;DATA DELIVERY
http | ID: 246 -->
<g id="edge15" class="edge">
<title>ACCOUNT MANIPULATION
snmp | ID: 53&#45;&gt;DATA DELIVERY
http | ID: 246</title>
<path fill="none" stroke="blue" stroke-width="5" d="M434.12,-1143.05C434.12,-1169.22 434.12,-1208.28 434.12,-1240.77"/>
<polygon fill="blue" stroke="blue" stroke-width="5" points="429.75,-1241.07 434.12,-1251.07 438.5,-1241.07 429.75,-1241.07"/>
<text text-anchor="middle" x="565.62" y="-1220.1" font-family="Arial" font-size="20.00" fill="blue">start_next: 04/11/17, 16:33:31</text>
<text text-anchor="middle" x="565.62" y="-1198.1" font-family="Arial" font-size="20.00" fill="blue">gap: 15sec</text>
<text text-anchor="middle" x="565.62" y="-1176.1" font-family="Arial" font-size="20.00" fill="blue">end_prev: 04/11/17, 16:33:16</text>
</g>
<!-- ACCOUNT MANIPULATION
snmp | ID: 53&#45;&gt;DATA DELIVERY
http | ID: 246 -->
<g id="edge21" class="edge">
<title>ACCOUNT MANIPULATION
snmp | ID: 53&#45;&gt;DATA DELIVERY
http | ID: 246</title>
<path fill="none" stroke="blue" stroke-width="5" d="M594.29,-1126.71C640.99,-1134.04 683.45,-1145.43 698.12,-1163.1 709.48,-1176.78 709.31,-1229.28 698.12,-1243.1 682.43,-1262.46 634.19,-1275.4 583.15,-1283.91"/>
<polygon fill="blue" stroke="blue" stroke-width="5" points="582.44,-1279.6 573.26,-1285.5 583.83,-1288.24 582.44,-1279.6"/>
<text text-anchor="middle" x="838.62" y="-1220.1" font-family="Arial" font-size="20.00" fill="blue">start_next: 04/11/17, 18:04:41</text>
<text text-anchor="middle" x="838.62" y="-1198.1" font-family="Arial" font-size="20.00" fill="blue">gap: 30sec</text>
<text text-anchor="middle" x="838.62" y="-1176.1" font-family="Arial" font-size="20.00" fill="blue">end_prev: 04/11/17, 18:04:11</text>
</g>
<!-- DATA DELIVERY
http | ID: 246&#45;&gt;DATA EXFILTRATION
http | ID: 26 -->
<g id="edge9" class="edge">
<title>DATA DELIVERY
http | ID: 246&#45;&gt;DATA EXFILTRATION
http | ID: 26</title>
<path fill="none" stroke="blue" stroke-width="5" d="M293.56,-1313.89C236.78,-1322.24 180.53,-1335.7 163.12,-1357.08 144.6,-1379.82 143.25,-1401.5 163.12,-1423.08 195.05,-1457.73 449.37,-1470.94 638.15,-1475.97"/>
<polygon fill="blue" stroke="blue" stroke-width="5" points="638.11,-1480.34 648.22,-1476.23 638.34,-1471.6 638.11,-1480.34"/>
<text text-anchor="middle" x="294.62" y="-1407.08" font-family="Arial" font-size="20.00" fill="blue">start_next: 04/11/17, 14:05:39</text>
<text text-anchor="middle" x="294.62" y="-1385.08" font-family="Arial" font-size="20.00" fill="blue">gap: 2sec</text>
<text text-anchor="middle" x="294.62" y="-1363.08" font-family="Arial" font-size="20.00" fill="blue">end_prev: 04/11/17, 14:05:37</text>
</g>
<!-- DATA DELIVERY
http | ID: 246&#45;&gt;DATA EXFILTRATION
http | ID: 26 -->
<g id="edge16" class="edge">
<title>DATA DELIVERY
http | ID: 246&#45;&gt;DATA EXFILTRATION
http | ID: 26</title>
<path fill="none" stroke="blue" stroke-width="5" d="M429.58,-1349.31C427.95,-1378.61 428.48,-1412.37 438.12,-1423.08 466,-1454.01 553.1,-1468.37 639.61,-1474.84"/>
<polygon fill="blue" stroke="blue" stroke-width="5" points="639.31,-1479.21 649.6,-1475.56 639.94,-1470.48 639.31,-1479.21"/>
<text text-anchor="middle" x="569.62" y="-1407.08" font-family="Arial" font-size="20.00" fill="blue">start_next: 04/11/17, 16:33:38</text>
<text text-anchor="middle" x="569.62" y="-1385.08" font-family="Arial" font-size="20.00" fill="blue">gap: 7sec</text>
<text text-anchor="middle" x="569.62" y="-1363.08" font-family="Arial" font-size="20.00" fill="blue">end_prev: 04/11/17, 16:33:31</text>
</g>
<!-- DATA DELIVERY
http | ID: 246&#45;&gt;DATA EXFILTRATION
http | ID: 26 -->
<g id="edge22" class="edge">
<title>DATA DELIVERY
http | ID: 246&#45;&gt;DATA EXFILTRATION
http | ID: 26</title>
<path fill="none" stroke="blue" stroke-width="5" d="M570.5,-1316.41C624.91,-1325.23 679.14,-1338.37 698.12,-1357.08 719.55,-1378.19 693.82,-1400 713.12,-1423.08 715.36,-1425.75 717.75,-1428.3 720.26,-1430.73"/>
<polygon fill="blue" stroke="blue" stroke-width="5" points="717.76,-1434.35 728.16,-1437.66 723.53,-1427.78 717.76,-1434.35"/>
<text text-anchor="middle" x="844.62" y="-1407.08" font-family="Arial" font-size="20.00" fill="blue">start_next: 04/11/17, 18:04:44</text>
<text text-anchor="middle" x="844.62" y="-1385.08" font-family="Arial" font-size="20.00" fill="blue">gap: 3sec</text>
<text text-anchor="middle" x="844.62" y="-1363.08" font-family="Arial" font-size="20.00" fill="blue">end_prev: 04/11/17, 18:04:41</text>
</g>
<!-- SERVICE DISCOVERY
spt&#45;automation -->
<g id="node11" class="node">
<title>SERVICE DISCOVERY
spt&#45;automation</title>
<g id="a_node11"><a xlink:title="ET SCAN Potential VNC Scan 5800&#45;5820&#10;ET SCAN Potential SSH Scan">
<ellipse fill="yellow" stroke="black" stroke-width="3" cx="627.12" cy="-223.28" rx="189.51" ry="42.35"/>
<text text-anchor="middle" x="627.12" y="-230.08" font-family="Arial" font-size="24.00">SERVICE DISCOVERY</text>
<text text-anchor="middle" x="627.12" y="-204.08" font-family="Arial" font-size="24.00">spt&#45;automation</text>
</a>
</g>
</g>
<!-- SERVICE DISCOVERY
spt&#45;automation&#45;&gt;VULNERABILTY DISCOVERY
ms&#45;sql&#45;s -->
<g id="edge10" class="edge">
<title>SERVICE DISCOVERY
spt&#45;automation&#45;&gt;VULNERABILTY DISCOVERY
ms&#45;sql&#45;s</title>
<path fill="none" stroke="blue" stroke-width="5" d="M634.94,-265.89C637.71,-293.81 636.13,-329.72 616.12,-353.71 612.11,-358.51 605.24,-362.99 596.44,-367.12"/>
<polygon fill="blue" stroke="blue" stroke-width="5" points="594.52,-363.19 587.04,-371.14 597.96,-371.23 594.52,-363.19"/>
<text text-anchor="start" x="636.12" y="-338.71" font-family="Arial" font-size="20.00" fill="blue"> start_next: 04/11/17, 16:29:55</text>
<text text-anchor="start" x="717.62" y="-318.71" font-family="Arial" font-size="20.00" fill="blue">gap: &#45;30sec</text>
<text text-anchor="start" x="640.12" y="-298.71" font-family="Arial" font-size="20.00" fill="blue">end_prev: 04/11/17, 16:30:24</text>
<text text-anchor="start" x="670.62" y="-278.71" font-family="Arial" font-weight="bold" font-size="20.00" fill="blue">Attacker: 10.0.254.31</text>
</g>
<!-- NETWORK DoS
ssdp | ID: 55 -->
<g id="node13" class="node">
<title>NETWORK DoS
ssdp | ID: 55</title>
<g id="a_node13"><a xlink:title="ET DOS Possible SSDP Amplification Scan in Progress">
<polygon fill="none" stroke="black" stroke-width="3" points="865.66,-772.4 787.39,-821.38 630.86,-821.38 552.59,-772.4 630.86,-723.42 787.39,-723.42 865.66,-772.4"/>
<text text-anchor="middle" x="709.12" y="-779.2" font-family="Arial" font-size="24.00">NETWORK DoS</text>
<text text-anchor="middle" x="709.12" y="-753.2" font-family="Arial" font-size="24.00">ssdp | ID: 55</text>
</a>
</g>
</g>
<!-- SERVICE DISCOVERY
unknown&#45;&gt;NETWORK DoS
ssdp | ID: 55 -->
<g id="edge18" class="edge">
<title>SERVICE DISCOVERY
unknown&#45;&gt;NETWORK DoS
ssdp | ID: 55</title>
<path fill="none" stroke="blue" stroke-width="5" d="M709.12,-627.6C709.12,-652.89 709.12,-685.57 709.12,-713.38"/>
<polygon fill="blue" stroke="blue" stroke-width="5" points="704.75,-713.38 709.12,-723.38 713.5,-713.38 704.75,-713.38"/>
<text text-anchor="middle" x="840.62" y="-692.41" font-family="Arial" font-size="20.00" fill="blue">start_next: 04/11/17, 18:02:30</text>
<text text-anchor="middle" x="840.62" y="-670.41" font-family="Arial" font-size="20.00" fill="blue">gap: &#45;57sec</text>
<text text-anchor="middle" x="840.62" y="-648.41" font-family="Arial" font-size="20.00" fill="blue">end_prev: 04/11/17, 18:03:27</text>
</g>
<!-- NETWORK DoS
ssdp | ID: 55&#45;&gt;INFO DISCOVERY
xdmcp -->
<g id="edge19" class="edge">
<title>NETWORK DoS
ssdp | ID: 55&#45;&gt;INFO DISCOVERY
xdmcp</title>
<path fill="none" stroke="blue" stroke-width="5" d="M717.49,-821.39C719.02,-846.41 715.93,-875.8 698.12,-895.39 682.6,-912.46 639.63,-923.72 592.75,-931.11"/>
<polygon fill="blue" stroke="blue" stroke-width="5" points="591.93,-926.81 582.7,-932.63 593.24,-935.46 591.93,-926.81"/>
<text text-anchor="middle" x="849.62" y="-879.39" font-family="Arial" font-size="20.00" fill="blue">start_next: 04/11/17, 18:03:14</text>
<text text-anchor="middle" x="849.62" y="-857.39" font-family="Arial" font-size="20.00" fill="blue">gap: 45sec</text>
<text text-anchor="middle" x="849.62" y="-835.39" font-family="Arial" font-size="20.00" fill="blue">end_prev: 04/11/17, 18:02:30</text>
</g>
<!-- SURFING
http -->
<g id="node14" class="node">
<title>SURFING
http</title>
<g id="a_node14"><a xlink:title="ET WEB_SERVER WEB&#45;PHP phpinfo access">
<ellipse fill="yellow" stroke="black" stroke-width="3" cx="1137.12" cy="-1112.67" rx="88.28" ry="42.35"/>
<text text-anchor="middle" x="1137.12" y="-1119.47" font-family="Arial" font-size="24.00">SURFING</text>
<text text-anchor="middle" x="1137.12" y="-1093.47" font-family="Arial" font-size="24.00">http</text>
</a>
</g>
</g>
<!-- SURFING
http&#45;&gt;DATA EXFILTRATION
http | ID: 26 -->
<g id="edge32" class="edge">
<title>SURFING
http&#45;&gt;DATA EXFILTRATION
http | ID: 26</title>
<path fill="none" stroke="turquoise" stroke-width="5" d="M1052.33,-1125.21C1029.48,-1132.46 1007,-1144.18 992.12,-1163.1 974.22,-1185.86 989.74,-1399.36 973.12,-1423.08 971.43,-1425.5 969.6,-1427.81 967.66,-1430.03"/>
<polygon fill="turquoise" stroke="turquoise" stroke-width="5" points="964.52,-1426.99 960.67,-1437.2 970.78,-1433.1 964.52,-1426.99"/>
<text text-anchor="middle" x="1114.62" y="-1317.09" font-family="Arial" font-size="20.00" fill="turquoise">start_next: 04/11/17, 12:56:16</text>
<text text-anchor="middle" x="1114.62" y="-1295.09" font-family="Arial" font-size="20.00" fill="turquoise">gap: &#45;8sec</text>
<text text-anchor="middle" x="1114.62" y="-1273.09" font-family="Arial" font-size="20.00" fill="turquoise">end_prev: 04/11/17, 12:56:24</text>
</g>
<!-- INFO DISCOVERY
http -->
<g id="node15" class="node">
<title>INFO DISCOVERY
http</title>
<g id="a_node15"><a xlink:title="GPL WEB_SERVER globals.pl access">
<ellipse fill="none" stroke="black" stroke-width="3" cx="1407.12" cy="-1300.09" rx="156.04" ry="42.35"/>
<text text-anchor="middle" x="1407.12" y="-1306.89" font-family="Arial" font-size="24.00">INFO DISCOVERY</text>
<text text-anchor="middle" x="1407.12" y="-1280.89" font-family="Arial" font-size="24.00">http</text>
</a>
</g>
</g>
<!-- SURFING
http&#45;&gt;INFO DISCOVERY
http -->
<g id="edge23" class="edge">
<title>SURFING
http&#45;&gt;INFO DISCOVERY
http</title>
<path fill="none" stroke="purple" stroke-width="5" d="M1053.61,-1126.57C1033.16,-1133.89 1013.59,-1145.3 1001.12,-1163.1 990.92,-1177.66 988.76,-1230.32 1001.12,-1243.1 1010.56,-1252.84 1231.73,-1248.93 1245.12,-1251.1 1263.74,-1254.11 1283.22,-1258.63 1301.97,-1263.72"/>
<polygon fill="purple" stroke="purple" stroke-width="5" points="1300.88,-1267.96 1311.69,-1266.43 1303.23,-1259.53 1300.88,-1267.96"/>
<text text-anchor="start" x="1001.12" y="-1228.1" font-family="Arial" font-size="20.00" fill="purple"> start_next: 04/11/17, 13:40:40</text>
<text text-anchor="start" x="1083.62" y="-1208.1" font-family="Arial" font-size="20.00" fill="purple">gap: &#45;11sec</text>
<text text-anchor="start" x="1005.12" y="-1188.1" font-family="Arial" font-size="20.00" fill="purple">end_prev: 04/11/17, 13:40:51</text>
<text text-anchor="start" x="1035.62" y="-1168.1" font-family="Arial" font-weight="bold" font-size="20.00" fill="purple">Attacker: 10.0.254.30</text>
</g>
<!-- SURFING
http&#45;&gt;INFO DISCOVERY
http -->
<g id="edge25" class="edge">
<title>SURFING
http&#45;&gt;INFO DISCOVERY
http</title>
<path fill="none" stroke="tomato" stroke-width="5" d="M1217.77,-1130.33C1235.98,-1137.62 1253.6,-1148.09 1266.12,-1163.1 1289.29,-1190.88 1258.69,-1214.72 1281.12,-1243.1 1286.51,-1249.91 1292.91,-1255.92 1299.91,-1261.21"/>
<polygon fill="tomato" stroke="tomato" stroke-width="5" points="1297.68,-1264.99 1308.39,-1267.1 1302.67,-1257.81 1297.68,-1264.99"/>
<text text-anchor="start" x="1281.12" y="-1228.1" font-family="Arial" font-size="20.00" fill="tomato"> start_next: 04/11/17, 13:41:51</text>
<text text-anchor="start" x="1368.12" y="-1208.1" font-family="Arial" font-size="20.00" fill="tomato">gap: &#45;9sec</text>
<text text-anchor="start" x="1285.12" y="-1188.1" font-family="Arial" font-size="20.00" fill="tomato">end_prev: 04/11/17, 13:42:00</text>
<text text-anchor="start" x="1315.62" y="-1168.1" font-family="Arial" font-weight="bold" font-size="20.00" fill="tomato">Attacker: 10.0.254.33</text>
</g>
<!-- INFO DISCOVERY
http&#45;&gt;DATA EXFILTRATION
http | ID: 26 -->
<g id="edge24" class="edge">
<title>INFO DISCOVERY
http&#45;&gt;DATA EXFILTRATION
http | ID: 26</title>
<path fill="none" stroke="purple" stroke-width="5" d="M1310.77,-1333.61C1289.37,-1339.71 1266.65,-1345.34 1245.12,-1349.08 1182.41,-1359.97 1163.18,-1339.08 1102.12,-1357.08 1045.23,-1373.84 1039.6,-1397.4 986.12,-1423.08 980.06,-1425.99 973.81,-1428.87 967.46,-1431.71"/>
<polygon fill="purple" stroke="purple" stroke-width="5" points="965.49,-1427.8 958.1,-1435.84 969.01,-1435.81 965.49,-1427.8"/>
<text text-anchor="middle" x="1233.62" y="-1407.08" font-family="Arial" font-size="20.00" fill="purple">start_next: 04/11/17, 13:40:41</text>
<text text-anchor="middle" x="1233.62" y="-1385.08" font-family="Arial" font-size="20.00" fill="purple">gap: 1sec</text>
<text text-anchor="middle" x="1233.62" y="-1363.08" font-family="Arial" font-size="20.00" fill="purple">end_prev: 04/11/17, 13:40:40</text>
</g>
<!-- INFO DISCOVERY
http&#45;&gt;DATA EXFILTRATION
http | ID: 26 -->
<g id="edge26" class="edge">
<title>INFO DISCOVERY
http&#45;&gt;DATA EXFILTRATION
http | ID: 26</title>
<path fill="none" stroke="tomato" stroke-width="5" d="M1402.91,-1342.73C1397.84,-1369.96 1386.68,-1403.91 1362.12,-1423.08 1336.26,-1443.26 1173.07,-1458.57 1036.86,-1468.04"/>
<polygon fill="tomato" stroke="tomato" stroke-width="5" points="1036.36,-1463.69 1026.68,-1468.74 1036.96,-1472.42 1036.36,-1463.69"/>
<text text-anchor="middle" x="1531.62" y="-1407.08" font-family="Arial" font-size="20.00" fill="tomato">start_next: 04/11/17, 13:41:52</text>
<text text-anchor="middle" x="1531.62" y="-1385.08" font-family="Arial" font-size="20.00" fill="tomato">gap: 1sec</text>
<text text-anchor="middle" x="1531.62" y="-1363.08" font-family="Arial" font-size="20.00" fill="tomato">end_prev: 04/11/17, 13:41:51</text>
</g>
<!-- INFO DISCOVERY
http&#45;&gt;SURFING
http -->
<g id="edge31" class="edge">
<title>INFO DISCOVERY
http&#45;&gt;SURFING
http</title>
<path fill="none" stroke="turquoise" stroke-width="5" d="M1517.49,-1270.03C1528.71,-1262.93 1538.7,-1254.09 1546.12,-1243.1 1556.07,-1228.36 1557.92,-1176.4 1546.12,-1163.1 1525.8,-1140.17 1349.49,-1125.79 1235.08,-1118.79"/>
<polygon fill="turquoise" stroke="turquoise" stroke-width="5" points="1235.14,-1114.41 1224.9,-1118.18 1234.62,-1123.15 1235.14,-1114.41"/>
<text text-anchor="middle" x="1686.62" y="-1220.1" font-family="Arial" font-size="20.00" fill="turquoise">start_next: 04/11/17, 12:56:15</text>
<text text-anchor="middle" x="1686.62" y="-1198.1" font-family="Arial" font-size="20.00" fill="turquoise">gap: 1sec</text>
<text text-anchor="middle" x="1686.62" y="-1176.1" font-family="Arial" font-size="20.00" fill="turquoise">end_prev: 04/11/17, 12:56:14</text>
</g>
<!-- HOST DISCOVERY
ms&#45;wbt&#45;server -->
<g id="node16" class="node">
<title>HOST DISCOVERY
ms&#45;wbt&#45;server</title>
<g id="a_node16"><a xlink:title="ET SCAN Behavioral Unusually fast Terminal Server Traffic Potential Scan or Infection (Inbound)">
<ellipse fill="yellow" stroke="black" stroke-width="3" cx="1832.12" cy="-584.98" rx="162.77" ry="42.35"/>
<text text-anchor="middle" x="1832.12" y="-591.78" font-family="Arial" font-size="24.00">HOST DISCOVERY</text>
<text text-anchor="middle" x="1832.12" y="-565.78" font-family="Arial" font-size="24.00">ms&#45;wbt&#45;server</text>
</a>
</g>
</g>
<!-- SERVICE DISCOVERY
rpas&#45;c2 -->
<g id="node17" class="node">
<title>SERVICE DISCOVERY
rpas&#45;c2</title>
<g id="a_node17"><a xlink:title="ET SCAN Potential VNC Scan 5800&#45;5820&#10;ET SCAN Potential VNC Scan 5900&#45;5920">
<ellipse fill="none" stroke="black" stroke-width="3" cx="1832.12" cy="-772.4" rx="189.51" ry="42.35"/>
<text text-anchor="middle" x="1832.12" y="-779.2" font-family="Arial" font-size="24.00">SERVICE DISCOVERY</text>
<text text-anchor="middle" x="1832.12" y="-753.2" font-family="Arial" font-size="24.00">rpas&#45;c2</text>
</a>
</g>
</g>
<!-- HOST DISCOVERY
ms&#45;wbt&#45;server&#45;&gt;SERVICE DISCOVERY
rpas&#45;c2 -->
<g id="edge27" class="edge">
<title>HOST DISCOVERY
ms&#45;wbt&#45;server&#45;&gt;SERVICE DISCOVERY
rpas&#45;c2</title>
<path fill="none" stroke="turquoise" stroke-width="5" d="M1832.12,-627.6C1832.12,-654.79 1832.12,-690.52 1832.12,-719.56"/>
<polygon fill="turquoise" stroke="turquoise" stroke-width="5" points="1827.75,-719.93 1832.12,-729.93 1836.5,-719.93 1827.75,-719.93"/>
<text text-anchor="start" x="1832.12" y="-700.41" font-family="Arial" font-size="20.00" fill="turquoise"> start_next: 04/11/17, 12:50:31</text>
<text text-anchor="start" x="1911.62" y="-680.41" font-family="Arial" font-size="20.00" fill="turquoise">gap: 167sec</text>
<text text-anchor="start" x="1836.12" y="-660.41" font-family="Arial" font-size="20.00" fill="turquoise">end_prev: 04/11/17, 12:47:45</text>
<text text-anchor="start" x="1866.62" y="-640.41" font-family="Arial" font-weight="bold" font-size="20.00" fill="turquoise">Attacker: 10.0.254.30</text>
</g>
<!-- HOST DISCOVERY
http -->
<g id="node18" class="node">
<title>HOST DISCOVERY
http</title>
<g id="a_node18"><a xlink:title="ET SCAN Possible Nmap User&#45;Agent Observed&#10;ET SCAN Nmap Scripting Engine User&#45;Agent Detected (Nmap Scripting Engine)">
<ellipse fill="none" stroke="black" stroke-width="3" cx="1832.12" cy="-945.82" rx="162.77" ry="42.35"/>
<text text-anchor="middle" x="1832.12" y="-952.62" font-family="Arial" font-size="24.00">HOST DISCOVERY</text>
<text text-anchor="middle" x="1832.12" y="-926.62" font-family="Arial" font-size="24.00">http</text>
</a>
</g>
</g>
<!-- SERVICE DISCOVERY
rpas&#45;c2&#45;&gt;HOST DISCOVERY
http -->
<g id="edge28" class="edge">
<title>SERVICE DISCOVERY
rpas&#45;c2&#45;&gt;HOST DISCOVERY
http</title>
<path fill="none" stroke="turquoise" stroke-width="5" d="M1832.12,-814.9C1832.12,-838.41 1832.12,-868.04 1832.12,-893.06"/>
<polygon fill="turquoise" stroke="turquoise" stroke-width="5" points="1827.75,-893.11 1832.12,-903.11 1836.5,-893.11 1827.75,-893.11"/>
<text text-anchor="middle" x="1963.62" y="-879.39" font-family="Arial" font-size="20.00" fill="turquoise">start_next: 04/11/17, 12:55:58</text>
<text text-anchor="middle" x="1963.62" y="-857.39" font-family="Arial" font-size="20.00" fill="turquoise">gap: &#45;325sec</text>
<text text-anchor="middle" x="1963.62" y="-835.39" font-family="Arial" font-size="20.00" fill="turquoise">end_prev: 04/11/17, 13:01:23</text>
</g>
<!-- ARBITRARY CODE EXECUTION
http | ID: 32 -->
<g id="node19" class="node">
<title>ARBITRARY CODE EXECUTION
http | ID: 32</title>
<g id="a_node19"><a xlink:title="ET CURRENT_EVENTS QNAP Shellshock CVE&#45;2014&#45;6271">
<polygon fill="none" stroke="black" stroke-width="3" points="2019.62,-1142.67 1644.62,-1142.67 1644.62,-1082.67 2019.62,-1082.67 2019.62,-1142.67"/>
<text text-anchor="middle" x="1832.12" y="-1119.47" font-family="Arial" font-size="24.00">ARBITRARY CODE EXECUTION</text>
<text text-anchor="middle" x="1832.12" y="-1093.47" font-family="Arial" font-size="24.00">http | ID: 32</text>
</a>
</g>
</g>
<!-- HOST DISCOVERY
http&#45;&gt;ARBITRARY CODE EXECUTION
http | ID: 32 -->
<g id="edge29" class="edge">
<title>HOST DISCOVERY
http&#45;&gt;ARBITRARY CODE EXECUTION
http | ID: 32</title>
<path fill="none" stroke="turquoise" stroke-width="5" d="M1832.12,-988.42C1832.12,-1014.24 1832.12,-1047.21 1832.12,-1072.55"/>
<polygon fill="turquoise" stroke="turquoise" stroke-width="5" points="1827.75,-1072.55 1832.12,-1082.55 1836.5,-1072.55 1827.75,-1072.55"/>
<text text-anchor="middle" x="1963.62" y="-1046.24" font-family="Arial" font-size="20.00" fill="turquoise">start_next: 04/11/17, 12:56:09</text>
<text text-anchor="middle" x="1963.62" y="-1024.24" font-family="Arial" font-size="20.00" fill="turquoise">gap: 11sec</text>
<text text-anchor="middle" x="1963.62" y="-1002.24" font-family="Arial" font-size="20.00" fill="turquoise">end_prev: 04/11/17, 12:55:58</text>
</g>
<!-- ARBITRARY CODE EXECUTION
http | ID: 32&#45;&gt;INFO DISCOVERY
http -->
<g id="edge30" class="edge">
<title>ARBITRARY CODE EXECUTION
http | ID: 32&#45;&gt;INFO DISCOVERY
http</title>
<path fill="none" stroke="turquoise" stroke-width="5" d="M1838.47,-1142.83C1843,-1172.22 1844.46,-1216.86 1819.12,-1243.1 1785.25,-1278.18 1672.37,-1291.82 1573.32,-1296.89"/>
<polygon fill="turquoise" stroke="turquoise" stroke-width="5" points="1572.94,-1292.53 1563.16,-1297.38 1573.36,-1301.27 1572.94,-1292.53"/>
<text text-anchor="middle" x="1971.62" y="-1220.1" font-family="Arial" font-size="20.00" fill="turquoise">start_next: 04/11/17, 12:56:14</text>
<text text-anchor="middle" x="1971.62" y="-1198.1" font-family="Arial" font-size="20.00" fill="turquoise">gap: 5sec</text>
<text text-anchor="middle" x="1971.62" y="-1176.1" font-family="Arial" font-size="20.00" fill="turquoise">end_prev: 04/11/17, 12:56:09</text>
</g>
</g>
</svg>
