<?xml version="1.0" encoding="UTF-8" standalone="no"?>
<!DOCTYPE svg PUBLIC "-//W3C//DTD SVG 1.1//EN"
 "http://www.w3.org/Graphics/SVG/1.1/DTD/svg11.dtd">
<!-- Generated by graphviz version 2.50.0 (0)
 -->
<!-- Title: DATADELIVERYunknown Pages: 1 -->
<svg width="1966pt" height="2693pt"
 viewBox="0.00 0.00 1966.00 2693.22" xmlns="http://www.w3.org/2000/svg" xmlns:xlink="http://www.w3.org/1999/xlink">
<g id="graph0" class="graph" transform="scale(1 1) rotate(0) translate(4 2689.22)">
<title>DATADELIVERYunknown</title>
<polygon fill="white" stroke="transparent" points="-4,4 -4,-2689.22 1962,-2689.22 1962,4 -4,4"/>
<!-- Victim: 10.0.0.223
DATA DELIVERY
unknown -->
<g id="node1" class="node">
<title>Victim: 10.0.0.223
DATA DELIVERY
unknown</title>
<polygon fill="salmon" stroke="black" stroke-width="3" points="1899.95,-2588.2 1899.95,-2642.59 1805.67,-2681.05 1672.33,-2681.05 1578.05,-2642.59 1578.05,-2588.2 1672.33,-2549.74 1805.67,-2549.74 1899.95,-2588.2"/>
<polygon fill="none" stroke="black" stroke-width="3" points="1903.95,-2585.52 1903.95,-2645.27 1806.46,-2685.04 1671.54,-2685.04 1574.05,-2645.27 1574.05,-2585.52 1671.54,-2545.75 1806.46,-2545.75 1903.95,-2585.52"/>
<text text-anchor="middle" x="1739" y="-2635.19" font-family="Arial" font-size="24.00">Victim: 10.0.0.223</text>
<text text-anchor="middle" x="1739" y="-2609.19" font-family="Arial" font-size="24.00">DATA DELIVERY</text>
<text text-anchor="middle" x="1739" y="-2583.19" font-family="Arial" font-size="24.00">unknown</text>
</g>
<!-- DATA DELIVERY
unknown | ID: 396 -->
<g id="node2" class="node">
<title>DATA DELIVERY
unknown | ID: 396</title>
<g id="a_node2"><a xlink:title="GPL WEB_SERVER perl post attempt">
<polygon fill="salmon" stroke="black" stroke-width="3" points="1900.06,-785.8 1814.03,-834.78 1641.97,-834.78 1555.94,-785.8 1641.97,-736.82 1814.03,-736.82 1900.06,-785.8"/>
<text text-anchor="middle" x="1728" y="-792.6" font-family="Arial" font-size="24.00">DATA DELIVERY</text>
<text text-anchor="middle" x="1728" y="-766.6" font-family="Arial" font-size="24.00">unknown | ID: 396</text>
</a>
</g>
</g>
<!-- DATA DELIVERY
unknown | ID: 396&#45;&gt;Victim: 10.0.0.223
DATA DELIVERY
unknown -->
<g id="edge1" class="edge">
<title>DATA DELIVERY
unknown | ID: 396&#45;&gt;Victim: 10.0.0.223
DATA DELIVERY
unknown</title>
<path fill="none" stroke="black" stroke-width="5" d="M1732.54,-835.11C1735.57,-871.51 1739,-922.66 1739,-967.64 1739,-967.64 1739,-967.64 1739,-2422.15 1739,-2459.36 1739,-2500.62 1739,-2535.35"/>
<polygon fill="black" stroke="black" stroke-width="5" points="1734.63,-2535.44 1739,-2545.44 1743.38,-2535.44 1734.63,-2535.44"/>
</g>
<!-- VULNERABILTY DISCOVERY
postgresql -->
<g id="node3" class="node">
<title>VULNERABILTY DISCOVERY
postgresql</title>
<g id="a_node3"><a xlink:title="ET POLICY Suspicious inbound to Oracle SQL port 1521&#10;ET POLICY Suspicious inbound to PostgreSQL port 5432">
<ellipse fill="yellow" stroke="black" stroke-width="3" cx="1462" cy="-2066.88" rx="241.25" ry="42.35"/>
<text text-anchor="middle" x="1462" y="-2073.68" font-family="Arial" font-size="24.00">VULNERABILTY DISCOVERY</text>
<text text-anchor="middle" x="1462" y="-2047.68" font-family="Arial" font-size="24.00">postgresql</text>
</a>
</g>
</g>
<!-- VULNERABILTY DISCOVERY
ms&#45;sql&#45;s -->
<g id="node4" class="node">
<title>VULNERABILTY DISCOVERY
ms&#45;sql&#45;s</title>
<g id="a_node4"><a xlink:title="ET POLICY Suspicious inbound to MSSQL port 1433&#10;ET POLICY Suspicious inbound to Oracle SQL port 1521&#10;ET POLICY Suspicious inbound to mSQL port 4333">
<ellipse fill="none" stroke="black" stroke-width="3" cx="1462" cy="-2254.29" rx="241.25" ry="42.35"/>
<text text-anchor="middle" x="1462" y="-2261.09" font-family="Arial" font-size="24.00">VULNERABILTY DISCOVERY</text>
<text text-anchor="middle" x="1462" y="-2235.09" font-family="Arial" font-size="24.00">ms&#45;sql&#45;s</text>
</a>
</g>
</g>
<!-- VULNERABILTY DISCOVERY
postgresql&#45;&gt;VULNERABILTY DISCOVERY
ms&#45;sql&#45;s -->
<g id="edge2" class="edge">
<title>VULNERABILTY DISCOVERY
postgresql&#45;&gt;VULNERABILTY DISCOVERY
ms&#45;sql&#45;s</title>
<path fill="none" stroke="blue" stroke-width="5" d="M1462,-2109.49C1462,-2136.69 1462,-2172.41 1462,-2201.45"/>
<polygon fill="blue" stroke="blue" stroke-width="5" points="1457.63,-2201.82 1462,-2211.82 1466.38,-2201.82 1457.63,-2201.82"/>
<text text-anchor="start" x="1462" y="-2188.87" font-family="Arial" font-size="20.00" fill="blue"> start_next: 04/11/17, 14:03:01</text>
<text text-anchor="start" x="1535.5" y="-2168.87" font-family="Arial" font-size="20.00" fill="blue">gap: 3603sec</text>
<text text-anchor="start" x="1466" y="-2148.87" font-family="Arial" font-size="20.00" fill="blue">end_prev: 04/11/17, 13:02:57</text>
<text text-anchor="start" x="1496.5" y="-2128.87" font-family="Arial" font-weight="bold" font-size="20.00" fill="blue">Attacker: 10.0.254.31</text>
</g>
<!-- SERVICE DISCOVERY
unknown -->
<g id="node5" class="node">
<title>SERVICE DISCOVERY
unknown</title>
<g id="a_node5"><a xlink:title="ET SCAN Potential VNC Scan 5800&#45;5820">
<ellipse fill="none" stroke="black" stroke-width="3" cx="1424" cy="-2421.15" rx="189.51" ry="42.35"/>
<text text-anchor="middle" x="1424" y="-2427.95" font-family="Arial" font-size="24.00">SERVICE DISCOVERY</text>
<text text-anchor="middle" x="1424" y="-2401.95" font-family="Arial" font-size="24.00">unknown</text>
</a>
</g>
</g>
<!-- VULNERABILTY DISCOVERY
ms&#45;sql&#45;s&#45;&gt;SERVICE DISCOVERY
unknown -->
<g id="edge3" class="edge">
<title>VULNERABILTY DISCOVERY
ms&#45;sql&#45;s&#45;&gt;SERVICE DISCOVERY
unknown</title>
<path fill="none" stroke="blue" stroke-width="5" d="M1452.41,-2296.89C1447.39,-2318.66 1441.2,-2345.51 1435.88,-2368.59"/>
<polygon fill="blue" stroke="blue" stroke-width="5" points="1431.57,-2367.83 1433.59,-2378.56 1440.1,-2369.8 1431.57,-2367.83"/>
<text text-anchor="middle" x="1580.5" y="-2354.72" font-family="Arial" font-size="20.00" fill="blue">start_next: 04/11/17, 14:04:31</text>
<text text-anchor="middle" x="1580.5" y="-2332.72" font-family="Arial" font-size="20.00" fill="blue">gap: 13sec</text>
<text text-anchor="middle" x="1580.5" y="-2310.72" font-family="Arial" font-size="20.00" fill="blue">end_prev: 04/11/17, 14:04:18</text>
</g>
<!-- ARBITRARY CODE EXECUTION
microsoft&#45;ds | ID: 309 -->
<g id="node6" class="node">
<title>ARBITRARY CODE EXECUTION
microsoft&#45;ds | ID: 309</title>
<g id="a_node6"><a xlink:title="GPL NETBIOS DCERPC Remote Activation bind attempt&#10;ET CURRENT_EVENTS QNAP Shellshock CVE&#45;2014&#45;6271&#10;GPL NETBIOS DCERPC IActivation little endian bind attempt&#10;GPL MISC UPnP malformed advertisement&#10;GPL NETBIOS SMB&#45;DS Session Setup NTMLSSP unicode asn1 overflow attempt">
<polygon fill="none" stroke="black" stroke-width="3" points="853.5,-2645.39 478.5,-2645.39 478.5,-2585.39 853.5,-2585.39 853.5,-2645.39"/>
<text text-anchor="middle" x="666" y="-2622.19" font-family="Arial" font-size="24.00">ARBITRARY CODE EXECUTION</text>
<text text-anchor="middle" x="666" y="-2596.19" font-family="Arial" font-size="24.00">microsoft&#45;ds | ID: 309</text>
</a>
</g>
</g>
<!-- SERVICE DISCOVERY
unknown&#45;&gt;ARBITRARY CODE EXECUTION
microsoft&#45;ds | ID: 309 -->
<g id="edge4" class="edge">
<title>SERVICE DISCOVERY
unknown&#45;&gt;ARBITRARY CODE EXECUTION
microsoft&#45;ds | ID: 309</title>
<path fill="none" stroke="blue" stroke-width="5" d="M1366.31,-2461.58C1325.76,-2487.35 1269.27,-2519.48 1215,-2537.57 1102.12,-2575.21 970.22,-2594.41 864,-2604.2"/>
<polygon fill="blue" stroke="blue" stroke-width="5" points="863.37,-2599.87 853.8,-2605.12 864.15,-2608.58 863.37,-2599.87"/>
<text text-anchor="middle" x="1478.5" y="-2521.57" font-family="Arial" font-size="20.00" fill="blue">start_next: 04/11/17, 14:04:45</text>
<text text-anchor="middle" x="1478.5" y="-2499.57" font-family="Arial" font-size="20.00" fill="blue">gap: 14sec</text>
<text text-anchor="middle" x="1478.5" y="-2477.57" font-family="Arial" font-size="20.00" fill="blue">end_prev: 04/11/17, 14:04:31</text>
</g>
<!-- REMOTE SERVICE EXPLOIT
snmp | ID: 52 -->
<g id="node7" class="node">
<title>REMOTE SERVICE EXPLOIT
snmp | ID: 52</title>
<g id="a_node7"><a xlink:title="ET SNMP Samsung Printer SNMP Hardcode RW Community String">
<polygon fill="none" stroke="black" stroke-width="3" points="645,-60 307,-60 307,0 645,0 645,-60"/>
<text text-anchor="middle" x="476" y="-36.8" font-family="Arial" font-size="24.00">REMOTE SERVICE EXPLOIT</text>
<text text-anchor="middle" x="476" y="-10.8" font-family="Arial" font-size="24.00">snmp | ID: 52</text>
</a>
</g>
</g>
<!-- ARBITRARY CODE EXECUTION
microsoft&#45;ds | ID: 309&#45;&gt;REMOTE SERVICE EXPLOIT
snmp | ID: 52 -->
<g id="edge5" class="edge">
<title>ARBITRARY CODE EXECUTION
microsoft&#45;ds | ID: 309&#45;&gt;REMOTE SERVICE EXPLOIT
snmp | ID: 52</title>
<path fill="none" stroke="blue" stroke-width="5" d="M853.53,-2605.01C931.07,-2595.08 1019.78,-2575.54 1093,-2537.57 1157.85,-2503.95 1210,-2495.19 1210,-2422.15 1210,-183.43 1210,-183.43 1210,-183.43 1210,-70.52 872.87,-40.64 655.57,-33.11"/>
<polygon fill="blue" stroke="blue" stroke-width="5" points="655.46,-28.73 645.32,-32.77 655.16,-37.48 655.46,-28.73"/>
<text text-anchor="middle" x="1341.5" y="-1328.78" font-family="Arial" font-size="20.00" fill="blue">start_next: 04/11/17, 14:05:21</text>
<text text-anchor="middle" x="1341.5" y="-1306.78" font-family="Arial" font-size="20.00" fill="blue">gap: &#45;80sec</text>
<text text-anchor="middle" x="1341.5" y="-1284.78" font-family="Arial" font-size="20.00" fill="blue">end_prev: 04/11/17, 14:06:41</text>
</g>
<!-- ARBITRARY CODE EXECUTION
microsoft&#45;ds | ID: 309&#45;&gt;REMOTE SERVICE EXPLOIT
snmp | ID: 52 -->
<g id="edge14" class="edge">
<title>ARBITRARY CODE EXECUTION
microsoft&#45;ds | ID: 309&#45;&gt;REMOTE SERVICE EXPLOIT
snmp | ID: 52</title>
<path fill="none" stroke="blue" stroke-width="5" d="M478.27,-2597.02C281.3,-2573.45 0,-2522.26 0,-2422.15 0,-183.43 0,-183.43 0,-183.43 0,-118.67 161.82,-77.61 296.76,-54.62"/>
<polygon fill="blue" stroke="blue" stroke-width="5" points="297.7,-58.9 306.84,-52.93 296.25,-50.27 297.7,-58.9"/>
<text text-anchor="middle" x="131.5" y="-1328.78" font-family="Arial" font-size="20.00" fill="blue">start_next: 04/11/17, 16:33:47</text>
<text text-anchor="middle" x="131.5" y="-1306.78" font-family="Arial" font-size="20.00" fill="blue">gap: &#45;170sec</text>
<text text-anchor="middle" x="131.5" y="-1284.78" font-family="Arial" font-size="20.00" fill="blue">end_prev: 04/11/17, 16:36:37</text>
</g>
<!-- ARBITRARY CODE EXECUTION
microsoft&#45;ds | ID: 309&#45;&gt;REMOTE SERVICE EXPLOIT
snmp | ID: 52 -->
<g id="edge30" class="edge">
<title>ARBITRARY CODE EXECUTION
microsoft&#45;ds | ID: 309&#45;&gt;REMOTE SERVICE EXPLOIT
snmp | ID: 52</title>
<path fill="none" stroke="blue" stroke-width="5" d="M478.23,-2592.73C377.97,-2569.53 275,-2521.52 275,-2422.15 275,-183.43 275,-183.43 275,-183.43 275,-127.52 282.28,-104.07 325,-68 325.85,-67.28 326.71,-66.58 327.59,-65.89"/>
<polygon fill="blue" stroke="blue" stroke-width="5" points="330.18,-69.41 335.74,-60.02 325.06,-62.31 330.18,-69.41"/>
<text text-anchor="middle" x="406.5" y="-1328.78" font-family="Arial" font-size="20.00" fill="blue">start_next: 04/11/17, 18:04:59</text>
<text text-anchor="middle" x="406.5" y="-1306.78" font-family="Arial" font-size="20.00" fill="blue">gap: &#45;76sec</text>
<text text-anchor="middle" x="406.5" y="-1284.78" font-family="Arial" font-size="20.00" fill="blue">end_prev: 04/11/17, 18:06:15</text>
</g>
<!-- COMMAND AND CONTROL
unknown | ID: 308 -->
<g id="node8" class="node">
<title>COMMAND AND CONTROL
unknown | ID: 308</title>
<g id="a_node8"><a xlink:title="ET POLICY RDP connection confirm">
<polygon fill="none" stroke="black" stroke-width="3" points="692.5,-214.43 369.5,-214.43 369.5,-154.43 692.5,-154.43 692.5,-214.43"/>
<text text-anchor="middle" x="531" y="-191.23" font-family="Arial" font-size="24.00">COMMAND AND CONTROL</text>
<text text-anchor="middle" x="531" y="-165.23" font-family="Arial" font-size="24.00">unknown | ID: 308</text>
</a>
</g>
</g>
<!-- REMOTE SERVICE EXPLOIT
snmp | ID: 52&#45;&gt;COMMAND AND CONTROL
unknown | ID: 308 -->
<g id="edge6" class="edge">
<title>REMOTE SERVICE EXPLOIT
snmp | ID: 52&#45;&gt;COMMAND AND CONTROL
unknown | ID: 308</title>
<path fill="none" stroke="blue" stroke-width="5" d="M596.25,-60.31C598.67,-62.68 600.93,-65.24 603,-68 620.6,-91.46 616.67,-108.04 603,-134 600.44,-138.86 597.16,-143.34 593.42,-147.44"/>
<polygon fill="blue" stroke="blue" stroke-width="5" points="590.36,-144.32 586.24,-154.43 596.45,-150.59 590.36,-144.32"/>
<text text-anchor="middle" x="745.5" y="-118" font-family="Arial" font-size="20.00" fill="blue">start_next: 04/11/17, 14:05:45</text>
<text text-anchor="middle" x="745.5" y="-96" font-family="Arial" font-size="20.00" fill="blue">gap: 24sec</text>
<text text-anchor="middle" x="745.5" y="-74" font-family="Arial" font-size="20.00" fill="blue">end_prev: 04/11/17, 14:05:21</text>
</g>
<!-- REMOTE SERVICE EXPLOIT
snmp | ID: 52&#45;&gt;COMMAND AND CONTROL
unknown | ID: 308 -->
<g id="edge15" class="edge">
<title>REMOTE SERVICE EXPLOIT
snmp | ID: 52&#45;&gt;COMMAND AND CONTROL
unknown | ID: 308</title>
<path fill="none" stroke="blue" stroke-width="5" d="M348.55,-60.25C344.37,-62.68 341.1,-65.26 339,-68 321.17,-91.29 321.03,-110.82 339,-134 343.79,-140.18 352.92,-145.72 364.71,-150.66"/>
<polygon fill="blue" stroke="blue" stroke-width="5" points="363.31,-154.81 374.21,-154.31 366.45,-146.64 363.31,-154.81"/>
<text text-anchor="middle" x="470.5" y="-118" font-family="Arial" font-size="20.00" fill="blue">start_next: 04/11/17, 16:34:13</text>
<text text-anchor="middle" x="470.5" y="-96" font-family="Arial" font-size="20.00" fill="blue">gap: 26sec</text>
<text text-anchor="middle" x="470.5" y="-74" font-family="Arial" font-size="20.00" fill="blue">end_prev: 04/11/17, 16:33:47</text>
</g>
<!-- INFO DISCOVERY
xdmcp -->
<g id="node25" class="node">
<title>INFO DISCOVERY
xdmcp</title>
<g id="a_node25"><a xlink:title="GPL WEB_SERVER mod_gzip_status access&#10;GPL RPC xdmcp info query">
<ellipse fill="none" stroke="black" stroke-width="3" cx="1378" cy="-184.43" rx="156.04" ry="42.35"/>
<text text-anchor="middle" x="1378" y="-191.23" font-family="Arial" font-size="24.00">INFO DISCOVERY</text>
<text text-anchor="middle" x="1378" y="-165.23" font-family="Arial" font-size="24.00">xdmcp</text>
</a>
</g>
</g>
<!-- REMOTE SERVICE EXPLOIT
snmp | ID: 52&#45;&gt;INFO DISCOVERY
xdmcp -->
<g id="edge31" class="edge">
<title>REMOTE SERVICE EXPLOIT
snmp | ID: 52&#45;&gt;INFO DISCOVERY
xdmcp</title>
<path fill="none" stroke="blue" stroke-width="5" d="M645.18,-34.49C846.69,-39.43 1162.76,-49.93 1215,-68 1256.96,-82.52 1297.73,-111.39 1328,-136.63"/>
<polygon fill="blue" stroke="blue" stroke-width="5" points="1325.4,-140.16 1335.86,-143.3 1331.06,-133.49 1325.4,-140.16"/>
<text text-anchor="middle" x="1455.5" y="-118" font-family="Arial" font-size="20.00" fill="blue">start_next: 04/11/17, 18:04:59</text>
<text text-anchor="middle" x="1455.5" y="-96" font-family="Arial" font-size="20.00" fill="blue">gap: 0sec</text>
<text text-anchor="middle" x="1455.5" y="-74" font-family="Arial" font-size="20.00" fill="blue">end_prev: 04/11/17, 18:04:59</text>
</g>
<!-- ACCOUNT MANIPULATION
snmp | ID: 53 -->
<g id="node9" class="node">
<title>ACCOUNT MANIPULATION
snmp | ID: 53</title>
<g id="a_node9"><a xlink:title="GPL SNMP private access udp&#10;GPL SNMP public access udp">
<polygon fill="none" stroke="black" stroke-width="3" points="810,-368.85 490,-368.85 490,-308.85 810,-308.85 810,-368.85"/>
<text text-anchor="middle" x="650" y="-345.65" font-family="Arial" font-size="24.00">ACCOUNT MANIPULATION</text>
<text text-anchor="middle" x="650" y="-319.65" font-family="Arial" font-size="24.00">snmp | ID: 53</text>
</a>
</g>
</g>
<!-- COMMAND AND CONTROL
unknown | ID: 308&#45;&gt;ACCOUNT MANIPULATION
snmp | ID: 53 -->
<g id="edge7" class="edge">
<title>COMMAND AND CONTROL
unknown | ID: 308&#45;&gt;ACCOUNT MANIPULATION
snmp | ID: 53</title>
<path fill="none" stroke="blue" stroke-width="5" d="M692.64,-209.81C716.03,-216.46 734.95,-224.71 743,-234.85 761.24,-257.83 759.47,-276.58 743,-300.85 742.94,-300.94 742.88,-301.03 742.82,-301.12"/>
<polygon fill="blue" stroke="blue" stroke-width="5" points="739.44,-298.34 736.41,-308.83 746.17,-303.93 739.44,-298.34"/>
<text text-anchor="middle" x="887.5" y="-284.85" font-family="Arial" font-size="20.00" fill="blue">start_next: 04/11/17, 14:05:50</text>
<text text-anchor="middle" x="887.5" y="-262.85" font-family="Arial" font-size="20.00" fill="blue">gap: &#45;110sec</text>
<text text-anchor="middle" x="887.5" y="-240.85" font-family="Arial" font-size="20.00" fill="blue">end_prev: 04/11/17, 14:07:41</text>
</g>
<!-- COMMAND AND CONTROL
unknown | ID: 308&#45;&gt;ACCOUNT MANIPULATION
snmp | ID: 53 -->
<g id="edge16" class="edge">
<title>COMMAND AND CONTROL
unknown | ID: 308&#45;&gt;ACCOUNT MANIPULATION
snmp | ID: 53</title>
<path fill="none" stroke="blue" stroke-width="5" d="M492.69,-214.49C487.12,-220.56 482.19,-227.41 479,-234.85 467.43,-261.81 460.58,-278.02 479,-300.85 479.77,-301.81 480.67,-302.75 481.69,-303.66"/>
<polygon fill="blue" stroke="blue" stroke-width="5" points="479.22,-307.28 489.94,-309.36 484.19,-300.08 479.22,-307.28"/>
<text text-anchor="middle" x="610.5" y="-284.85" font-family="Arial" font-size="20.00" fill="blue">start_next: 04/11/17, 16:34:19</text>
<text text-anchor="middle" x="610.5" y="-262.85" font-family="Arial" font-size="20.00" fill="blue">gap: &#45;105sec</text>
<text text-anchor="middle" x="610.5" y="-240.85" font-family="Arial" font-size="20.00" fill="blue">end_prev: 04/11/17, 16:36:04</text>
</g>
<!-- DATA DELIVERY
wsman | ID: 399 -->
<g id="node10" class="node">
<title>DATA DELIVERY
wsman | ID: 399</title>
<g id="a_node10"><a xlink:title="GPL WEB_SERVER perl post attempt">
<polygon fill="none" stroke="black" stroke-width="3" points="895.1,-499.84 813.55,-548.82 650.45,-548.82 568.9,-499.84 650.45,-450.86 813.55,-450.86 895.1,-499.84"/>
<text text-anchor="middle" x="732" y="-506.64" font-family="Arial" font-size="24.00">DATA DELIVERY</text>
<text text-anchor="middle" x="732" y="-480.64" font-family="Arial" font-size="24.00">wsman | ID: 399</text>
</a>
</g>
</g>
<!-- ACCOUNT MANIPULATION
snmp | ID: 53&#45;&gt;DATA DELIVERY
wsman | ID: 399 -->
<g id="edge8" class="edge">
<title>ACCOUNT MANIPULATION
snmp | ID: 53&#45;&gt;DATA DELIVERY
wsman | ID: 399</title>
<path fill="none" stroke="blue" stroke-width="5" d="M810.07,-354.51C833.62,-359.81 852.75,-367.03 861,-376.85 879.87,-399.31 877.09,-418.33 861,-442.85 856.95,-449.03 852.05,-454.53 846.57,-459.42"/>
<polygon fill="blue" stroke="blue" stroke-width="5" points="843.79,-456.04 838.75,-465.72 849.28,-462.85 843.79,-456.04"/>
<text text-anchor="middle" x="1005.5" y="-426.85" font-family="Arial" font-size="20.00" fill="blue">start_next: 04/11/17, 14:06:39</text>
<text text-anchor="middle" x="1005.5" y="-404.85" font-family="Arial" font-size="20.00" fill="blue">gap: 41sec</text>
<text text-anchor="middle" x="1005.5" y="-382.85" font-family="Arial" font-size="20.00" fill="blue">end_prev: 04/11/17, 14:05:58</text>
</g>
<!-- ACCOUNT MANIPULATION
snmp | ID: 53&#45;&gt;DATA DELIVERY
wsman | ID: 399 -->
<g id="edge17" class="edge">
<title>ACCOUNT MANIPULATION
snmp | ID: 53&#45;&gt;DATA DELIVERY
wsman | ID: 399</title>
<path fill="none" stroke="blue" stroke-width="5" d="M602.22,-368.99C600.22,-371.45 598.45,-374.07 597,-376.85 583.44,-402.86 580.71,-418.46 597,-442.85 601.76,-449.98 607.62,-456.2 614.19,-461.63"/>
<polygon fill="blue" stroke="blue" stroke-width="5" points="611.6,-465.16 622.22,-467.65 616.85,-458.15 611.6,-465.16"/>
<text text-anchor="middle" x="728.5" y="-426.85" font-family="Arial" font-size="20.00" fill="blue">start_next: 04/11/17, 16:35:00</text>
<text text-anchor="middle" x="728.5" y="-404.85" font-family="Arial" font-size="20.00" fill="blue">gap: 34sec</text>
<text text-anchor="middle" x="728.5" y="-382.85" font-family="Arial" font-size="20.00" fill="blue">end_prev: 04/11/17, 16:34:27</text>
</g>
<!-- DATA EXFILTRATION
wsman | ID: 63 -->
<g id="node11" class="node">
<title>DATA EXFILTRATION
wsman | ID: 63</title>
<g id="a_node11"><a xlink:title="ET WEB_SPECIFIC_APPS PHP&#45;CGI query string parameter vulnerability">
<polygon fill="none" stroke="black" stroke-width="3" points="1020.88,-679.82 918.44,-728.8 713.56,-728.8 611.12,-679.82 713.56,-630.84 918.44,-630.84 1020.88,-679.82"/>
<text text-anchor="middle" x="816" y="-686.62" font-family="Arial" font-size="24.00">DATA EXFILTRATION</text>
<text text-anchor="middle" x="816" y="-660.62" font-family="Arial" font-size="24.00">wsman | ID: 63</text>
</a>
</g>
</g>
<!-- DATA DELIVERY
wsman | ID: 399&#45;&gt;DATA EXFILTRATION
wsman | ID: 63 -->
<g id="edge9" class="edge">
<title>DATA DELIVERY
wsman | ID: 399&#45;&gt;DATA EXFILTRATION
wsman | ID: 63</title>
<path fill="none" stroke="blue" stroke-width="5" d="M836.63,-535.23C844.56,-541.31 851.57,-548.45 857,-556.83 871.45,-579.14 867.2,-592.32 857.2,-621.17"/>
<polygon fill="blue" stroke="blue" stroke-width="5" points="853.05,-619.77 853.93,-630.65 861.32,-622.63 853.05,-619.77"/>
<text text-anchor="middle" x="997.5" y="-606.83" font-family="Arial" font-size="20.00" fill="blue">start_next: 04/11/17, 14:06:42</text>
<text text-anchor="middle" x="997.5" y="-584.83" font-family="Arial" font-size="20.00" fill="blue">gap: 3sec</text>
<text text-anchor="middle" x="997.5" y="-562.83" font-family="Arial" font-size="20.00" fill="blue">end_prev: 04/11/17, 14:06:39</text>
</g>
<!-- DATA DELIVERY
wsman | ID: 399&#45;&gt;DATA EXFILTRATION
wsman | ID: 63 -->
<g id="edge18" class="edge">
<title>DATA DELIVERY
wsman | ID: 399&#45;&gt;DATA EXFILTRATION
wsman | ID: 63</title>
<path fill="none" stroke="blue" stroke-width="5" d="M620.32,-530.74C609.63,-537.7 600.13,-546.27 593,-556.83 576.58,-581.14 574.96,-599.7 593,-622.83 602.26,-634.71 625.45,-644.45 653.53,-652.28"/>
<polygon fill="blue" stroke="blue" stroke-width="5" points="652.45,-656.52 663.24,-654.86 654.7,-648.06 652.45,-656.52"/>
<text text-anchor="middle" x="724.5" y="-606.83" font-family="Arial" font-size="20.00" fill="blue">start_next: 04/11/17, 16:35:04</text>
<text text-anchor="middle" x="724.5" y="-584.83" font-family="Arial" font-size="20.00" fill="blue">gap: 3sec</text>
<text text-anchor="middle" x="724.5" y="-562.83" font-family="Arial" font-size="20.00" fill="blue">end_prev: 04/11/17, 16:35:00</text>
</g>
<!-- SERVICE DISCOVERY
rfb -->
<g id="node12" class="node">
<title>SERVICE DISCOVERY
rfb</title>
<g id="a_node12"><a xlink:title="ET SCAN Potential VNC Scan 5800&#45;5820&#10;ET SCAN Potential VNC Scan 5900&#45;5920">
<ellipse fill="none" stroke="black" stroke-width="3" cx="579" cy="-885.22" rx="189.51" ry="42.35"/>
<text text-anchor="middle" x="579" y="-892.02" font-family="Arial" font-size="24.00">SERVICE DISCOVERY</text>
<text text-anchor="middle" x="579" y="-866.02" font-family="Arial" font-size="24.00">rfb</text>
</a>
</g>
</g>
<!-- DATA EXFILTRATION
wsman | ID: 63&#45;&gt;SERVICE DISCOVERY
rfb -->
<g id="edge10" class="edge">
<title>DATA EXFILTRATION
wsman | ID: 63&#45;&gt;SERVICE DISCOVERY
rfb</title>
<path fill="none" stroke="blue" stroke-width="5" d="M667.23,-706.77C636.71,-714.91 610.62,-724.93 600,-736.81 577.17,-762.35 572.35,-800.95 573.01,-832.24"/>
<polygon fill="blue" stroke="blue" stroke-width="5" points="568.65,-832.73 573.43,-842.55 577.4,-832.38 568.65,-832.73"/>
<text text-anchor="middle" x="731.5" y="-802.8" font-family="Arial" font-size="20.00" fill="blue">start_next: 04/11/17, 16:22:36</text>
<text text-anchor="middle" x="731.5" y="-780.8" font-family="Arial" font-size="20.00" fill="blue">gap: 8154sec</text>
<text text-anchor="middle" x="731.5" y="-758.8" font-family="Arial" font-size="20.00" fill="blue">end_prev: 04/11/17, 14:06:42</text>
</g>
<!-- HOST DISCOVERY
wsman -->
<g id="node15" class="node">
<title>HOST DISCOVERY
wsman</title>
<g id="a_node15"><a xlink:title="ET SCAN Possible Nmap User&#45;Agent Observed&#10;ET SCAN Nmap Scripting Engine User&#45;Agent Detected (Nmap Scripting Engine)">
<ellipse fill="none" stroke="black" stroke-width="3" cx="938" cy="-885.22" rx="162.77" ry="42.35"/>
<text text-anchor="middle" x="938" y="-892.02" font-family="Arial" font-size="24.00">HOST DISCOVERY</text>
<text text-anchor="middle" x="938" y="-866.02" font-family="Arial" font-size="24.00">wsman</text>
</a>
</g>
</g>
<!-- DATA EXFILTRATION
wsman | ID: 63&#45;&gt;HOST DISCOVERY
wsman -->
<g id="edge19" class="edge">
<title>DATA EXFILTRATION
wsman | ID: 63&#45;&gt;HOST DISCOVERY
wsman</title>
<path fill="none" stroke="blue" stroke-width="5" d="M858.39,-728.8C860.34,-731.47 862.23,-734.15 864,-736.81 884.39,-767.47 902.97,-804.52 916.41,-833.8"/>
<polygon fill="blue" stroke="blue" stroke-width="5" points="912.47,-835.72 920.59,-843.02 920.44,-832.11 912.47,-835.72"/>
<text text-anchor="middle" x="1047.5" y="-802.8" font-family="Arial" font-size="20.00" fill="blue">start_next: 04/11/17, 16:36:36</text>
<text text-anchor="middle" x="1047.5" y="-780.8" font-family="Arial" font-size="20.00" fill="blue">gap: &#45;10sec</text>
<text text-anchor="middle" x="1047.5" y="-758.8" font-family="Arial" font-size="20.00" fill="blue">end_prev: 04/11/17, 16:36:46</text>
</g>
<!-- VULNERABILTY DISCOVERY
ahsp -->
<g id="node13" class="node">
<title>VULNERABILTY DISCOVERY
ahsp</title>
<g id="a_node13"><a xlink:title="ET POLICY Suspicious inbound to mySQL port 3306&#10;ET POLICY Suspicious inbound to mSQL port 4333&#10;ET POLICY Suspicious inbound to MSSQL port 1433&#10;ET POLICY Suspicious inbound to Oracle SQL port 1521&#10;ET POLICY Suspicious inbound to PostgreSQL port 5432">
<ellipse fill="none" stroke="black" stroke-width="3" cx="594" cy="-1052.07" rx="241.25" ry="42.35"/>
<text text-anchor="middle" x="594" y="-1058.87" font-family="Arial" font-size="24.00">VULNERABILTY DISCOVERY</text>
<text text-anchor="middle" x="594" y="-1032.87" font-family="Arial" font-size="24.00">ahsp</text>
</a>
</g>
</g>
<!-- SERVICE DISCOVERY
rfb&#45;&gt;VULNERABILTY DISCOVERY
ahsp -->
<g id="edge11" class="edge">
<title>SERVICE DISCOVERY
rfb&#45;&gt;VULNERABILTY DISCOVERY
ahsp</title>
<path fill="none" stroke="blue" stroke-width="5" d="M582.79,-927.82C584.77,-949.59 587.21,-976.44 589.31,-999.52"/>
<polygon fill="blue" stroke="blue" stroke-width="5" points="584.95,-999.92 590.22,-1009.48 593.67,-999.13 584.95,-999.92"/>
<text text-anchor="middle" x="720.5" y="-985.64" font-family="Arial" font-size="20.00" fill="blue">start_next: 04/11/17, 16:27:31</text>
<text text-anchor="middle" x="720.5" y="-963.64" font-family="Arial" font-size="20.00" fill="blue">gap: 290sec</text>
<text text-anchor="middle" x="720.5" y="-941.64" font-family="Arial" font-size="20.00" fill="blue">end_prev: 04/11/17, 16:22:42</text>
</g>
<!-- SERVICE DISCOVERY
microsoft&#45;ds -->
<g id="node14" class="node">
<title>SERVICE DISCOVERY
microsoft&#45;ds</title>
<g id="a_node14"><a xlink:title="ET SCAN Behavioral Unusual Port 445 traffic Potential Scan or Infection&#10;ET SCAN Potential VNC Scan 5900&#45;5920">
<ellipse fill="none" stroke="black" stroke-width="3" cx="733" cy="-1311.78" rx="189.51" ry="42.35"/>
<text text-anchor="middle" x="733" y="-1318.58" font-family="Arial" font-size="24.00">SERVICE DISCOVERY</text>
<text text-anchor="middle" x="733" y="-1292.58" font-family="Arial" font-size="24.00">microsoft&#45;ds</text>
</a>
</g>
</g>
<!-- VULNERABILTY DISCOVERY
ahsp&#45;&gt;SERVICE DISCOVERY
microsoft&#45;ds -->
<g id="edge12" class="edge">
<title>VULNERABILTY DISCOVERY
ahsp&#45;&gt;SERVICE DISCOVERY
microsoft&#45;ds</title>
<path fill="none" stroke="blue" stroke-width="5" d="M616.33,-1094.48C640.7,-1139.65 679.72,-1211.99 705.84,-1260.42"/>
<polygon fill="blue" stroke="blue" stroke-width="5" points="702.12,-1262.75 710.72,-1269.47 709.83,-1258.6 702.12,-1262.75"/>
<text text-anchor="middle" x="785.5" y="-1152.5" font-family="Arial" font-size="20.00" fill="blue">start_next: 04/11/17, 16:31:24</text>
<text text-anchor="middle" x="785.5" y="-1130.5" font-family="Arial" font-size="20.00" fill="blue">gap: &#45;294sec</text>
<text text-anchor="middle" x="785.5" y="-1108.5" font-family="Arial" font-size="20.00" fill="blue">end_prev: 04/11/17, 16:36:18</text>
</g>
<!-- SERVICE DISCOVERY
microsoft&#45;ds&#45;&gt;ARBITRARY CODE EXECUTION
microsoft&#45;ds | ID: 309 -->
<g id="edge13" class="edge">
<title>SERVICE DISCOVERY
microsoft&#45;ds&#45;&gt;ARBITRARY CODE EXECUTION
microsoft&#45;ds | ID: 309</title>
<path fill="none" stroke="blue" stroke-width="5" d="M604.21,-1342.95C546.41,-1364.9 491,-1401.72 491,-1462.2 491,-1462.2 491,-1462.2 491,-2422.15 491,-2491.26 553.62,-2546.49 603.95,-2579.7"/>
<polygon fill="blue" stroke="blue" stroke-width="5" points="601.77,-2583.5 612.54,-2585.24 606.51,-2576.15 601.77,-2583.5"/>
<text text-anchor="middle" x="622.5" y="-1903.9" font-family="Arial" font-size="20.00" fill="blue">start_next: 04/11/17, 16:33:08</text>
<text text-anchor="middle" x="622.5" y="-1881.9" font-family="Arial" font-size="20.00" fill="blue">gap: &#45;164sec</text>
<text text-anchor="middle" x="622.5" y="-1859.9" font-family="Arial" font-size="20.00" fill="blue">end_prev: 04/11/17, 16:35:52</text>
</g>
<!-- SURFING
wsman -->
<g id="node16" class="node">
<title>SURFING
wsman</title>
<g id="a_node16"><a xlink:title="ET WEB_SERVER WEB&#45;PHP phpinfo access">
<ellipse fill="none" stroke="black" stroke-width="3" cx="937" cy="-1052.07" rx="88.28" ry="42.35"/>
<text text-anchor="middle" x="937" y="-1058.87" font-family="Arial" font-size="24.00">SURFING</text>
<text text-anchor="middle" x="937" y="-1032.87" font-family="Arial" font-size="24.00">wsman</text>
</a>
</g>
</g>
<!-- HOST DISCOVERY
wsman&#45;&gt;SURFING
wsman -->
<g id="edge20" class="edge">
<title>HOST DISCOVERY
wsman&#45;&gt;SURFING
wsman</title>
<path fill="none" stroke="blue" stroke-width="5" d="M937.75,-927.82C937.62,-949.49 937.45,-976.2 937.31,-999.21"/>
<polygon fill="blue" stroke="blue" stroke-width="5" points="932.94,-999.46 937.25,-1009.48 941.69,-999.51 932.94,-999.46"/>
<text text-anchor="middle" x="1068.5" y="-985.64" font-family="Arial" font-size="20.00" fill="blue">start_next: 04/11/17, 16:36:38</text>
<text text-anchor="middle" x="1068.5" y="-963.64" font-family="Arial" font-size="20.00" fill="blue">gap: 2sec</text>
<text text-anchor="middle" x="1068.5" y="-941.64" font-family="Arial" font-size="20.00" fill="blue">end_prev: 04/11/17, 16:36:36</text>
</g>
<!-- HOST DISCOVERY
unknown -->
<g id="node17" class="node">
<title>HOST DISCOVERY
unknown</title>
<g id="a_node17"><a xlink:title="ET SCAN Possible Nmap User&#45;Agent Observed&#10;ET SCAN Nmap Scripting Engine User&#45;Agent Detected (Nmap Scripting Engine)">
<ellipse fill="none" stroke="black" stroke-width="3" cx="935" cy="-1218.92" rx="162.77" ry="42.35"/>
<text text-anchor="middle" x="935" y="-1225.72" font-family="Arial" font-size="24.00">HOST DISCOVERY</text>
<text text-anchor="middle" x="935" y="-1199.72" font-family="Arial" font-size="24.00">unknown</text>
</a>
</g>
</g>
<!-- SURFING
wsman&#45;&gt;HOST DISCOVERY
unknown -->
<g id="edge21" class="edge">
<title>SURFING
wsman&#45;&gt;HOST DISCOVERY
unknown</title>
<path fill="none" stroke="blue" stroke-width="5" d="M936.5,-1094.67C936.23,-1116.34 935.91,-1143.05 935.63,-1166.06"/>
<polygon fill="blue" stroke="blue" stroke-width="5" points="931.25,-1166.29 935.5,-1176.34 940,-1166.39 931.25,-1166.29"/>
<text text-anchor="middle" x="1067.5" y="-1152.5" font-family="Arial" font-size="20.00" fill="blue">start_next: 04/11/17, 16:51:38</text>
<text text-anchor="middle" x="1067.5" y="-1130.5" font-family="Arial" font-size="20.00" fill="blue">gap: 892sec</text>
<text text-anchor="middle" x="1067.5" y="-1108.5" font-family="Arial" font-size="20.00" fill="blue">end_prev: 04/11/17, 16:36:46</text>
</g>
<!-- ARBITRARY CODE EXECUTION
unknown | ID: 47 -->
<g id="node18" class="node">
<title>ARBITRARY CODE EXECUTION
unknown | ID: 47</title>
<g id="a_node18"><a xlink:title="ET CURRENT_EVENTS QNAP Shellshock CVE&#45;2014&#45;6271">
<polygon fill="none" stroke="black" stroke-width="3" points="1122.5,-1422.2 747.5,-1422.2 747.5,-1362.2 1122.5,-1362.2 1122.5,-1422.2"/>
<text text-anchor="middle" x="935" y="-1399" font-family="Arial" font-size="24.00">ARBITRARY CODE EXECUTION</text>
<text text-anchor="middle" x="935" y="-1373" font-family="Arial" font-size="24.00">unknown | ID: 47</text>
</a>
</g>
</g>
<!-- HOST DISCOVERY
unknown&#45;&gt;ARBITRARY CODE EXECUTION
unknown | ID: 47 -->
<g id="edge22" class="edge">
<title>HOST DISCOVERY
unknown&#45;&gt;ARBITRARY CODE EXECUTION
unknown | ID: 47</title>
<path fill="none" stroke="blue" stroke-width="5" d="M935,-1261.39C935,-1288.92 935,-1324.84 935,-1351.91"/>
<polygon fill="blue" stroke="blue" stroke-width="5" points="930.63,-1352.19 935,-1362.19 939.38,-1352.19 930.63,-1352.19"/>
<text text-anchor="middle" x="1066.5" y="-1328.78" font-family="Arial" font-size="20.00" fill="blue">start_next: 04/11/17, 16:51:39</text>
<text text-anchor="middle" x="1066.5" y="-1306.78" font-family="Arial" font-size="20.00" fill="blue">gap: 1sec</text>
<text text-anchor="middle" x="1066.5" y="-1284.78" font-family="Arial" font-size="20.00" fill="blue">end_prev: 04/11/17, 16:51:38</text>
</g>
<!-- SURFING
unknown -->
<g id="node19" class="node">
<title>SURFING
unknown</title>
<g id="a_node19"><a xlink:title="ET WEB_SERVER WEB&#45;PHP phpinfo access">
<ellipse fill="none" stroke="black" stroke-width="3" cx="936" cy="-1546.63" rx="88.28" ry="42.35"/>
<text text-anchor="middle" x="936" y="-1553.43" font-family="Arial" font-size="24.00">SURFING</text>
<text text-anchor="middle" x="936" y="-1527.43" font-family="Arial" font-size="24.00">unknown</text>
</a>
</g>
</g>
<!-- ARBITRARY CODE EXECUTION
unknown | ID: 47&#45;&gt;SURFING
unknown -->
<g id="edge23" class="edge">
<title>ARBITRARY CODE EXECUTION
unknown | ID: 47&#45;&gt;SURFING
unknown</title>
<path fill="none" stroke="blue" stroke-width="5" d="M935.19,-1422.23C935.32,-1442.49 935.5,-1470.07 935.66,-1494.03"/>
<polygon fill="blue" stroke="blue" stroke-width="5" points="931.29,-1494.07 935.73,-1504.04 940.04,-1494.01 931.29,-1494.07"/>
<text text-anchor="middle" x="1066.5" y="-1480.2" font-family="Arial" font-size="20.00" fill="blue">start_next: 04/11/17, 16:51:40</text>
<text text-anchor="middle" x="1066.5" y="-1458.2" font-family="Arial" font-size="20.00" fill="blue">gap: 1sec</text>
<text text-anchor="middle" x="1066.5" y="-1436.2" font-family="Arial" font-size="20.00" fill="blue">end_prev: 04/11/17, 16:51:39</text>
</g>
<!-- INFO DISCOVERY
unknown -->
<g id="node20" class="node">
<title>INFO DISCOVERY
unknown</title>
<g id="a_node20"><a xlink:title="GPL WEB_SERVER globals.pl access">
<ellipse fill="none" stroke="black" stroke-width="3" cx="936" cy="-1713.48" rx="156.04" ry="42.35"/>
<text text-anchor="middle" x="936" y="-1720.28" font-family="Arial" font-size="24.00">INFO DISCOVERY</text>
<text text-anchor="middle" x="936" y="-1694.28" font-family="Arial" font-size="24.00">unknown</text>
</a>
</g>
</g>
<!-- SURFING
unknown&#45;&gt;INFO DISCOVERY
unknown -->
<g id="edge24" class="edge">
<title>SURFING
unknown&#45;&gt;INFO DISCOVERY
unknown</title>
<path fill="none" stroke="blue" stroke-width="5" d="M936,-1589.23C936,-1610.9 936,-1637.61 936,-1660.62"/>
<polygon fill="blue" stroke="blue" stroke-width="5" points="931.63,-1660.9 936,-1670.9 940.38,-1660.9 931.63,-1660.9"/>
<text text-anchor="middle" x="1067.5" y="-1647.06" font-family="Arial" font-size="20.00" fill="blue">start_next: 04/11/17, 16:51:42</text>
<text text-anchor="middle" x="1067.5" y="-1625.06" font-family="Arial" font-size="20.00" fill="blue">gap: &#45;5sec</text>
<text text-anchor="middle" x="1067.5" y="-1603.06" font-family="Arial" font-size="20.00" fill="blue">end_prev: 04/11/17, 16:51:47</text>
</g>
<!-- DATA EXFILTRATION
unknown | ID: 301 -->
<g id="node21" class="node">
<title>DATA EXFILTRATION
unknown | ID: 301</title>
<g id="a_node21"><a xlink:title="ET WEB_SPECIFIC_APPS PHP&#45;CGI query string parameter vulnerability">
<polygon fill="none" stroke="black" stroke-width="3" points="1170.88,-1886.9 1068.44,-1935.88 863.56,-1935.88 761.12,-1886.9 863.56,-1837.92 1068.44,-1837.92 1170.88,-1886.9"/>
<text text-anchor="middle" x="966" y="-1893.7" font-family="Arial" font-size="24.00">DATA EXFILTRATION</text>
<text text-anchor="middle" x="966" y="-1867.7" font-family="Arial" font-size="24.00">unknown | ID: 301</text>
</a>
</g>
</g>
<!-- INFO DISCOVERY
unknown&#45;&gt;DATA EXFILTRATION
unknown | ID: 301 -->
<g id="edge25" class="edge">
<title>INFO DISCOVERY
unknown&#45;&gt;DATA EXFILTRATION
unknown | ID: 301</title>
<path fill="none" stroke="blue" stroke-width="5" d="M934.65,-1756.11C934.79,-1775.94 936.09,-1800.11 941.87,-1827.77"/>
<polygon fill="blue" stroke="blue" stroke-width="5" points="937.64,-1828.9 944.1,-1837.7 946.17,-1826.98 937.64,-1828.9"/>
<text text-anchor="middle" x="1073.5" y="-1813.91" font-family="Arial" font-size="20.00" fill="blue">start_next: 04/11/17, 16:51:43</text>
<text text-anchor="middle" x="1073.5" y="-1791.91" font-family="Arial" font-size="20.00" fill="blue">gap: 1sec</text>
<text text-anchor="middle" x="1073.5" y="-1769.91" font-family="Arial" font-size="20.00" fill="blue">end_prev: 04/11/17, 16:51:42</text>
</g>
<!-- NETWORK DoS
ms&#45;wbt&#45;server | ID: 36 -->
<g id="node22" class="node">
<title>NETWORK DoS
ms&#45;wbt&#45;server | ID: 36</title>
<g id="a_node22"><a xlink:title="ET DOS Microsoft Remote Desktop (RDP) Syn then Reset 30 Second DoS Attempt">
<polygon fill="none" stroke="black" stroke-width="3" points="1145.28,-2066.88 1041.64,-2115.86 834.36,-2115.86 730.72,-2066.88 834.36,-2017.9 1041.64,-2017.9 1145.28,-2066.88"/>
<text text-anchor="middle" x="938" y="-2073.68" font-family="Arial" font-size="24.00">NETWORK DoS</text>
<text text-anchor="middle" x="938" y="-2047.68" font-family="Arial" font-size="24.00">ms&#45;wbt&#45;server | ID: 36</text>
</a>
</g>
</g>
<!-- DATA EXFILTRATION
unknown | ID: 301&#45;&gt;NETWORK DoS
ms&#45;wbt&#45;server | ID: 36 -->
<g id="edge26" class="edge">
<title>DATA EXFILTRATION
unknown | ID: 301&#45;&gt;NETWORK DoS
ms&#45;wbt&#45;server | ID: 36</title>
<path fill="none" stroke="blue" stroke-width="5" d="M944.04,-1936.09C943.26,-1938.7 942.57,-1941.31 942,-1943.89 937.43,-1964.41 935.81,-1987.36 935.53,-2007.76"/>
<polygon fill="blue" stroke="blue" stroke-width="5" points="931.15,-2007.84 935.49,-2017.86 939.9,-2007.87 931.15,-2007.84"/>
<text text-anchor="middle" x="1073.5" y="-1993.89" font-family="Arial" font-size="20.00" fill="blue">start_next: 04/11/17, 18:01:49</text>
<text text-anchor="middle" x="1073.5" y="-1971.89" font-family="Arial" font-size="20.00" fill="blue">gap: 4202sec</text>
<text text-anchor="middle" x="1073.5" y="-1949.89" font-family="Arial" font-size="20.00" fill="blue">end_prev: 04/11/17, 16:51:47</text>
</g>
<!-- SERVICE DISCOVERY
epmap -->
<g id="node23" class="node">
<title>SERVICE DISCOVERY
epmap</title>
<g id="a_node23"><a xlink:title="ET SCAN Behavioral Unusual Port 135 traffic Potential Scan or Infection&#10;ET SCAN Potential VNC Scan 5800&#45;5820&#10;ET SCAN Behavioral Unusual Port 445 traffic Potential Scan or Infection">
<ellipse fill="none" stroke="black" stroke-width="3" cx="913" cy="-2254.29" rx="189.51" ry="42.35"/>
<text text-anchor="middle" x="913" y="-2261.09" font-family="Arial" font-size="24.00">SERVICE DISCOVERY</text>
<text text-anchor="middle" x="913" y="-2235.09" font-family="Arial" font-size="24.00">epmap</text>
</a>
</g>
</g>
<!-- NETWORK DoS
ms&#45;wbt&#45;server | ID: 36&#45;&gt;SERVICE DISCOVERY
epmap -->
<g id="edge27" class="edge">
<title>NETWORK DoS
ms&#45;wbt&#45;server | ID: 36&#45;&gt;SERVICE DISCOVERY
epmap</title>
<path fill="none" stroke="blue" stroke-width="5" d="M931.5,-2116.11C927.96,-2142.37 923.57,-2174.87 919.96,-2201.64"/>
<polygon fill="blue" stroke="blue" stroke-width="5" points="915.62,-2201.11 918.62,-2211.6 924.29,-2202.27 915.62,-2201.11"/>
<text text-anchor="middle" x="1060" y="-2180.87" font-family="Arial" font-size="20.00" fill="blue">start_next: 04/11/17, 18:02:11</text>
<text text-anchor="middle" x="1060" y="-2158.87" font-family="Arial" font-size="20.00" fill="blue">gap: &#45;174sec</text>
<text text-anchor="middle" x="1060" y="-2136.87" font-family="Arial" font-size="20.00" fill="blue">end_prev: 04/11/17, 18:05:05</text>
</g>
<!-- VULNERABILTY DISCOVERY
ncube&#45;lm -->
<g id="node24" class="node">
<title>VULNERABILTY DISCOVERY
ncube&#45;lm</title>
<g id="a_node24"><a xlink:title="ET POLICY Suspicious inbound to PostgreSQL port 5432&#10;ET POLICY Suspicious inbound to Oracle SQL port 1521&#10;ET POLICY Suspicious inbound to mSQL port 4333">
<ellipse fill="none" stroke="black" stroke-width="3" cx="889" cy="-2421.15" rx="241.25" ry="42.35"/>
<text text-anchor="middle" x="889" y="-2427.95" font-family="Arial" font-size="24.00">VULNERABILTY DISCOVERY</text>
<text text-anchor="middle" x="889" y="-2401.95" font-family="Arial" font-size="24.00">ncube&#45;lm</text>
</a>
</g>
</g>
<!-- SERVICE DISCOVERY
epmap&#45;&gt;VULNERABILTY DISCOVERY
ncube&#45;lm -->
<g id="edge28" class="edge">
<title>SERVICE DISCOVERY
epmap&#45;&gt;VULNERABILTY DISCOVERY
ncube&#45;lm</title>
<path fill="none" stroke="blue" stroke-width="5" d="M906.94,-2296.89C903.77,-2318.66 899.87,-2345.51 896.51,-2368.59"/>
<polygon fill="blue" stroke="blue" stroke-width="5" points="892.17,-2368.03 895.05,-2378.56 900.82,-2369.3 892.17,-2368.03"/>
<text text-anchor="middle" x="1036.5" y="-2354.72" font-family="Arial" font-size="20.00" fill="blue">start_next: 04/11/17, 18:02:44</text>
<text text-anchor="middle" x="1036.5" y="-2332.72" font-family="Arial" font-size="20.00" fill="blue">gap: &#45;96sec</text>
<text text-anchor="middle" x="1036.5" y="-2310.72" font-family="Arial" font-size="20.00" fill="blue">end_prev: 04/11/17, 18:04:20</text>
</g>
<!-- VULNERABILTY DISCOVERY
ncube&#45;lm&#45;&gt;ARBITRARY CODE EXECUTION
microsoft&#45;ds | ID: 309 -->
<g id="edge29" class="edge">
<title>VULNERABILTY DISCOVERY
ncube&#45;lm&#45;&gt;ARBITRARY CODE EXECUTION
microsoft&#45;ds | ID: 309</title>
<path fill="none" stroke="blue" stroke-width="5" d="M841.71,-2462.92C801.96,-2497.18 745.7,-2545.69 707.63,-2578.5"/>
<polygon fill="blue" stroke="blue" stroke-width="5" points="704.52,-2575.41 699.8,-2585.26 710.23,-2582.04 704.52,-2575.41"/>
<text text-anchor="middle" x="960.5" y="-2521.57" font-family="Arial" font-size="20.00" fill="blue">start_next: 04/11/17, 18:04:20</text>
<text text-anchor="middle" x="960.5" y="-2499.57" font-family="Arial" font-size="20.00" fill="blue">gap: 76sec</text>
<text text-anchor="middle" x="960.5" y="-2477.57" font-family="Arial" font-size="20.00" fill="blue">end_prev: 04/11/17, 18:03:04</text>
</g>
<!-- COMMAND AND CONTROL
unknown | ID: 1365 -->
<g id="node26" class="node">
<title>COMMAND AND CONTROL
unknown | ID: 1365</title>
<g id="a_node26"><a xlink:title="ET POLICY RDP connection confirm">
<polygon fill="none" stroke="black" stroke-width="3" stroke-dasharray="1,5" points="1633.5,-368.85 1310.5,-368.85 1310.5,-308.85 1633.5,-308.85 1633.5,-368.85"/>
<text text-anchor="middle" x="1472" y="-345.65" font-family="Arial" font-size="24.00">COMMAND AND CONTROL</text>
<text text-anchor="middle" x="1472" y="-319.65" font-family="Arial" font-size="24.00">unknown | ID: 1365</text>
</a>
</g>
</g>
<!-- INFO DISCOVERY
xdmcp&#45;&gt;COMMAND AND CONTROL
unknown | ID: 1365 -->
<g id="edge32" class="edge">
<title>INFO DISCOVERY
xdmcp&#45;&gt;COMMAND AND CONTROL
unknown | ID: 1365</title>
<path fill="none" stroke="blue" stroke-width="5" d="M1403.44,-226.68C1417.55,-249.56 1434.97,-277.81 1448.72,-300.11"/>
<polygon fill="blue" stroke="blue" stroke-width="5" points="1445.02,-302.43 1453.99,-308.65 1452.46,-297.84 1445.02,-302.43"/>
<text text-anchor="middle" x="1577.5" y="-284.85" font-family="Arial" font-size="20.00" fill="blue">start_next: 04/11/17, 18:05:22</text>
<text text-anchor="middle" x="1577.5" y="-262.85" font-family="Arial" font-size="20.00" fill="blue">gap: &#45;49sec</text>
<text text-anchor="middle" x="1577.5" y="-240.85" font-family="Arial" font-size="20.00" fill="blue">end_prev: 04/11/17, 18:06:11</text>
</g>
<!-- ACCOUNT MANIPULATION
snmp | ID: 952 -->
<g id="node27" class="node">
<title>ACCOUNT MANIPULATION
snmp | ID: 952</title>
<g id="a_node27"><a xlink:title="GPL SNMP public access udp">
<polygon fill="none" stroke="black" stroke-width="3" stroke-dasharray="1,5" points="1832,-529.84 1512,-529.84 1512,-469.84 1832,-469.84 1832,-529.84"/>
<text text-anchor="middle" x="1672" y="-506.64" font-family="Arial" font-size="24.00">ACCOUNT MANIPULATION</text>
<text text-anchor="middle" x="1672" y="-480.64" font-family="Arial" font-size="24.00">snmp | ID: 952</text>
</a>
</g>
</g>
<!-- COMMAND AND CONTROL
unknown | ID: 1365&#45;&gt;ACCOUNT MANIPULATION
snmp | ID: 952 -->
<g id="edge33" class="edge">
<title>COMMAND AND CONTROL
unknown | ID: 1365&#45;&gt;ACCOUNT MANIPULATION
snmp | ID: 952</title>
<path fill="none" stroke="blue" stroke-width="5" d="M1508.68,-369.01C1542.13,-395.6 1591.62,-434.95 1627.35,-463.35"/>
<polygon fill="blue" stroke="blue" stroke-width="5" points="1624.66,-466.8 1635.21,-469.6 1630.11,-459.95 1624.66,-466.8"/>
<text text-anchor="middle" x="1726.5" y="-426.85" font-family="Arial" font-size="20.00" fill="blue">start_next: 04/11/17, 18:05:28</text>
<text text-anchor="middle" x="1726.5" y="-404.85" font-family="Arial" font-size="20.00" fill="blue">gap: &#45;107sec</text>
<text text-anchor="middle" x="1726.5" y="-382.85" font-family="Arial" font-size="20.00" fill="blue">end_prev: 04/11/17, 18:07:15</text>
</g>
<!-- ACCOUNT MANIPULATION
snmp | ID: 952&#45;&gt;DATA DELIVERY
unknown | ID: 396 -->
<g id="edge34" class="edge">
<title>ACCOUNT MANIPULATION
snmp | ID: 952&#45;&gt;DATA DELIVERY
unknown | ID: 396</title>
<path fill="none" stroke="blue" stroke-width="5" d="M1677.73,-529.9C1686.82,-576 1704.73,-666.79 1716.53,-726.64"/>
<polygon fill="blue" stroke="blue" stroke-width="5" points="1712.29,-727.74 1718.51,-736.7 1720.87,-726.04 1712.29,-727.74"/>
<text text-anchor="middle" x="1826.5" y="-606.83" font-family="Arial" font-size="20.00" fill="blue">start_next: 04/11/17, 18:06:13</text>
<text text-anchor="middle" x="1826.5" y="-584.83" font-family="Arial" font-size="20.00" fill="blue">gap: 45sec</text>
<text text-anchor="middle" x="1826.5" y="-562.83" font-family="Arial" font-size="20.00" fill="blue">end_prev: 04/11/17, 18:05:28</text>
</g>
</g>
</svg>
