<?xml version="1.0" encoding="UTF-8" standalone="no"?>
<!DOCTYPE svg PUBLIC "-//W3C//DTD SVG 1.1//EN"
 "http://www.w3.org/Graphics/SVG/1.1/DTD/svg11.dtd">
<!-- Generated by graphviz version 2.50.0 (0)
 -->
<!-- Title: DATADELIVERYvrmlmultiuse Pages: 1 -->
<svg width="1556pt" height="1504pt"
 viewBox="0.00 0.00 1556.12 1503.70" xmlns="http://www.w3.org/2000/svg" xmlns:xlink="http://www.w3.org/1999/xlink">
<g id="graph0" class="graph" transform="scale(1 1) rotate(0) translate(4 1499.7)">
<title>DATADELIVERYvrmlmultiuse</title>
<polygon fill="white" stroke="transparent" points="-4,4 -4,-1499.7 1552.12,-1499.7 1552.12,4 -4,4"/>
<!-- Victim: 10.0.99.143
DATA DELIVERY
vrml&#45;multi&#45;use -->
<g id="node1" class="node">
<title>Victim: 10.0.99.143
DATA DELIVERY
vrml&#45;multi&#45;use</title>
<polygon fill="salmon" stroke="black" stroke-width="3" points="904.51,-1398.68 904.51,-1453.07 804.11,-1491.53 662.13,-1491.53 561.74,-1453.07 561.74,-1398.68 662.13,-1360.22 804.11,-1360.22 904.51,-1398.68"/>
<polygon fill="none" stroke="black" stroke-width="3" points="908.51,-1395.94 908.51,-1455.81 804.85,-1495.52 661.39,-1495.52 557.74,-1455.81 557.74,-1395.94 661.39,-1356.23 804.85,-1356.23 908.51,-1395.94"/>
<text text-anchor="middle" x="733.12" y="-1445.68" font-family="Arial" font-size="24.00">Victim: 10.0.99.143</text>
<text text-anchor="middle" x="733.12" y="-1419.68" font-family="Arial" font-size="24.00">DATA DELIVERY</text>
<text text-anchor="middle" x="733.12" y="-1393.68" font-family="Arial" font-size="24.00">vrml&#45;multi&#45;use</text>
</g>
<!-- DATA DELIVERY
vrml&#45;multi&#45;use | ID: 416 -->
<g id="node2" class="node">
<title>DATA DELIVERY
vrml&#45;multi&#45;use | ID: 416</title>
<g id="a_node2"><a xlink:title="ET WEB_SERVER PHP Possible php Remote File Inclusion Attempt&#10;ET WEB_SERVER PHP tags in HTTP POST&#10;GPL WEB_SERVER perl post attempt">
<polygon fill="salmon" stroke="black" stroke-width="3" points="950.5,-1290.07 841.81,-1339.05 624.44,-1339.05 515.75,-1290.07 624.44,-1241.09 841.81,-1241.09 950.5,-1290.07"/>
<text text-anchor="middle" x="733.12" y="-1296.87" font-family="Arial" font-size="24.00">DATA DELIVERY</text>
<text text-anchor="middle" x="733.12" y="-1270.87" font-family="Arial" font-size="24.00">vrml&#45;multi&#45;use | ID: 416</text>
</a>
</g>
</g>
<!-- DATA DELIVERY
vrml&#45;multi&#45;use | ID: 416&#45;&gt;Victim: 10.0.99.143
DATA DELIVERY
vrml&#45;multi&#45;use -->
<g id="edge1" class="edge">
<title>DATA DELIVERY
vrml&#45;multi&#45;use | ID: 416&#45;&gt;Victim: 10.0.99.143
DATA DELIVERY
vrml&#45;multi&#45;use</title>
<path fill="none" stroke="black" stroke-width="5" d="M733.12,-1339.37C733.12,-1341.48 733.12,-1343.61 733.12,-1345.76"/>
<polygon fill="black" stroke="black" stroke-width="5" points="728.75,-1345.91 733.12,-1355.91 737.5,-1345.91 728.75,-1345.91"/>
</g>
<!-- VULNERABILTY DISCOVERY
ms&#45;sql&#45;s -->
<g id="node3" class="node">
<title>VULNERABILTY DISCOVERY
ms&#45;sql&#45;s</title>
<g id="a_node3"><a xlink:title="ET POLICY Suspicious inbound to mySQL port 3306&#10;ET POLICY Suspicious inbound to mSQL port 4333&#10;ET POLICY Suspicious inbound to MSSQL port 1433&#10;ET POLICY Suspicious inbound to Oracle SQL port 1521&#10;ET POLICY Suspicious inbound to PostgreSQL port 5432">
<ellipse fill="yellow" stroke="black" stroke-width="3" cx="241.12" cy="-403.26" rx="241.25" ry="42.35"/>
<text text-anchor="middle" x="241.12" y="-410.06" font-family="Arial" font-size="24.00">VULNERABILTY DISCOVERY</text>
<text text-anchor="middle" x="241.12" y="-384.06" font-family="Arial" font-size="24.00">ms&#45;sql&#45;s</text>
</a>
</g>
</g>
<!-- SERVICE DISCOVERY
microsoft&#45;ds -->
<g id="node4" class="node">
<title>SERVICE DISCOVERY
microsoft&#45;ds</title>
<g id="a_node4"><a xlink:title="ET SCAN Behavioral Unusual Port 135 traffic Potential Scan or Infection&#10;ET SCAN Potential VNC Scan 5800&#45;5820&#10;ET SCAN Behavioral Unusual Port 445 traffic Potential Scan or Infection">
<ellipse fill="none" stroke="black" stroke-width="3" cx="402.12" cy="-584.11" rx="189.51" ry="42.35"/>
<text text-anchor="middle" x="402.12" y="-590.91" font-family="Arial" font-size="24.00">SERVICE DISCOVERY</text>
<text text-anchor="middle" x="402.12" y="-564.91" font-family="Arial" font-size="24.00">microsoft&#45;ds</text>
</a>
</g>
</g>
<!-- VULNERABILTY DISCOVERY
ms&#45;sql&#45;s&#45;&gt;SERVICE DISCOVERY
microsoft&#45;ds -->
<g id="edge2" class="edge">
<title>VULNERABILTY DISCOVERY
ms&#45;sql&#45;s&#45;&gt;SERVICE DISCOVERY
microsoft&#45;ds</title>
<path fill="none" stroke="blue" stroke-width="5" d="M401.3,-434.98C415.55,-440.42 426.67,-446.64 432.12,-453.69 452.1,-479.49 443.47,-496.48 432.26,-532.05"/>
<polygon fill="blue" stroke="blue" stroke-width="5" points="427.94,-531.22 429.21,-542.06 436.31,-533.77 427.94,-531.22"/>
<text text-anchor="start" x="445.12" y="-518.69" font-family="Arial" font-size="20.00" fill="blue"> start_next: 04/11/17, 14:08:09</text>
<text text-anchor="start" x="526.62" y="-498.69" font-family="Arial" font-size="20.00" fill="blue">gap: &#45;32sec</text>
<text text-anchor="start" x="449.12" y="-478.69" font-family="Arial" font-size="20.00" fill="blue">end_prev: 04/11/17, 14:08:41</text>
<text text-anchor="start" x="479.62" y="-458.69" font-family="Arial" font-weight="bold" font-size="20.00" fill="blue">Attacker: 10.0.254.31</text>
</g>
<!-- SERVICE DISCOVERY
rpas&#45;c2 -->
<g id="node12" class="node">
<title>SERVICE DISCOVERY
rpas&#45;c2</title>
<g id="a_node12"><a xlink:title="ET SCAN Potential VNC Scan 5900&#45;5920">
<ellipse fill="none" stroke="black" stroke-width="3" cx="190.12" cy="-676.96" rx="189.51" ry="42.35"/>
<text text-anchor="middle" x="190.12" y="-683.76" font-family="Arial" font-size="24.00">SERVICE DISCOVERY</text>
<text text-anchor="middle" x="190.12" y="-657.76" font-family="Arial" font-size="24.00">rpas&#45;c2</text>
</a>
</g>
</g>
<!-- VULNERABILTY DISCOVERY
ms&#45;sql&#45;s&#45;&gt;SERVICE DISCOVERY
rpas&#45;c2 -->
<g id="edge14" class="edge">
<title>VULNERABILTY DISCOVERY
ms&#45;sql&#45;s&#45;&gt;SERVICE DISCOVERY
rpas&#45;c2</title>
<path fill="none" stroke="blue" stroke-width="5" d="M174.46,-444.11C172.06,-447.11 169.92,-450.31 168.12,-453.69 139.87,-506.93 154.04,-577.47 169.53,-624.67"/>
<polygon fill="blue" stroke="blue" stroke-width="5" points="165.47,-626.32 172.84,-634.37 173.75,-623.49 165.47,-626.32"/>
<text text-anchor="middle" x="299.62" y="-510.69" font-family="Arial" font-size="20.00" fill="blue">start_next: 04/11/17, 18:03:39</text>
<text text-anchor="middle" x="299.62" y="-488.69" font-family="Arial" font-size="20.00" fill="blue">gap: &#45;38sec</text>
<text text-anchor="middle" x="299.62" y="-466.69" font-family="Arial" font-size="20.00" fill="blue">end_prev: 04/11/17, 18:04:17</text>
</g>
<!-- NETWORK DoS
ssdp | ID: 55 -->
<g id="node5" class="node">
<title>NETWORK DoS
ssdp | ID: 55</title>
<g id="a_node5"><a xlink:title="ET DOS Possible SSDP Amplification Scan in Progress">
<polygon fill="none" stroke="black" stroke-width="3" points="860.66,-776.38 782.39,-825.36 625.86,-825.36 547.59,-776.38 625.86,-727.4 782.39,-727.4 860.66,-776.38"/>
<text text-anchor="middle" x="704.12" y="-783.18" font-family="Arial" font-size="24.00">NETWORK DoS</text>
<text text-anchor="middle" x="704.12" y="-757.18" font-family="Arial" font-size="24.00">ssdp | ID: 55</text>
</a>
</g>
</g>
<!-- SERVICE DISCOVERY
microsoft&#45;ds&#45;&gt;NETWORK DoS
ssdp | ID: 55 -->
<g id="edge3" class="edge">
<title>SERVICE DISCOVERY
microsoft&#45;ds&#45;&gt;NETWORK DoS
ssdp | ID: 55</title>
<path fill="none" stroke="blue" stroke-width="5" d="M405.72,-626.8C410.55,-656.79 421.82,-695.94 448.12,-719.39 448.47,-719.7 514.31,-734.1 579.13,-748.21"/>
<polygon fill="blue" stroke="blue" stroke-width="5" points="578.39,-752.53 589.09,-750.38 580.25,-743.98 578.39,-752.53"/>
<text text-anchor="middle" x="579.62" y="-693.96" font-family="Arial" font-size="20.00" fill="blue">start_next: 04/11/17, 14:09:19</text>
<text text-anchor="middle" x="579.62" y="-671.96" font-family="Arial" font-size="20.00" fill="blue">gap: 42sec</text>
<text text-anchor="middle" x="579.62" y="-649.96" font-family="Arial" font-size="20.00" fill="blue">end_prev: 04/11/17, 14:08:36</text>
</g>
<!-- INFO DISCOVERY
xdmcp -->
<g id="node6" class="node">
<title>INFO DISCOVERY
xdmcp</title>
<g id="a_node6"><a xlink:title="GPL WEB_SERVER mod_gzip_status access&#10;GPL RPC xdmcp info query">
<ellipse fill="none" stroke="black" stroke-width="3" cx="733.12" cy="-949.8" rx="156.04" ry="42.35"/>
<text text-anchor="middle" x="733.12" y="-956.6" font-family="Arial" font-size="24.00">INFO DISCOVERY</text>
<text text-anchor="middle" x="733.12" y="-930.6" font-family="Arial" font-size="24.00">xdmcp</text>
</a>
</g>
</g>
<!-- NETWORK DoS
ssdp | ID: 55&#45;&gt;INFO DISCOVERY
xdmcp -->
<g id="edge4" class="edge">
<title>NETWORK DoS
ssdp | ID: 55&#45;&gt;INFO DISCOVERY
xdmcp</title>
<path fill="none" stroke="blue" stroke-width="5" d="M587.04,-801.18C527.39,-813.86 466.43,-827.95 462.12,-833.37 443.87,-856.33 443.33,-876.84 462.12,-899.37 477.63,-917.96 523.26,-929.58 572.77,-936.83"/>
<polygon fill="blue" stroke="blue" stroke-width="5" points="572.2,-941.17 582.71,-938.22 573.41,-932.5 572.2,-941.17"/>
<text text-anchor="middle" x="593.62" y="-883.37" font-family="Arial" font-size="20.00" fill="blue">start_next: 04/11/17, 14:10:03</text>
<text text-anchor="middle" x="593.62" y="-861.37" font-family="Arial" font-size="20.00" fill="blue">gap: 45sec</text>
<text text-anchor="middle" x="593.62" y="-839.37" font-family="Arial" font-size="20.00" fill="blue">end_prev: 04/11/17, 14:09:19</text>
</g>
<!-- NETWORK DoS
ssdp | ID: 55&#45;&gt;INFO DISCOVERY
xdmcp -->
<g id="edge22" class="edge">
<title>NETWORK DoS
ssdp | ID: 55&#45;&gt;INFO DISCOVERY
xdmcp</title>
<path fill="none" stroke="blue" stroke-width="5" d="M720.31,-825.46C720.98,-828.12 721.59,-830.77 722.12,-833.37 726.37,-854.02 728.99,-877.1 730.59,-897.16"/>
<polygon fill="blue" stroke="blue" stroke-width="5" points="726.25,-897.69 731.34,-907.34 734.97,-897.05 726.25,-897.69"/>
<text text-anchor="middle" x="862.62" y="-883.37" font-family="Arial" font-size="20.00" fill="blue">start_next: 04/11/17, 18:59:54</text>
<text text-anchor="middle" x="862.62" y="-861.37" font-family="Arial" font-size="20.00" fill="blue">gap: 45sec</text>
<text text-anchor="middle" x="862.62" y="-839.37" font-family="Arial" font-size="20.00" fill="blue">end_prev: 04/11/17, 18:59:10</text>
</g>
<!-- INFO DISCOVERY
xdmcp&#45;&gt;DATA DELIVERY
vrml&#45;multi&#45;use | ID: 416 -->
<g id="edge26" class="edge">
<title>INFO DISCOVERY
xdmcp&#45;&gt;DATA DELIVERY
vrml&#45;multi&#45;use | ID: 416</title>
<path fill="none" stroke="blue" stroke-width="5" d="M581.13,-959.96C523.75,-966.87 467.97,-978.99 450.12,-1000.22 383.54,-1079.45 384.43,-1153.11 450.12,-1233.08 464.09,-1250.08 501.8,-1262 545.31,-1270.33"/>
<polygon fill="blue" stroke="blue" stroke-width="5" points="544.65,-1274.66 555.28,-1272.16 546.23,-1266.05 544.65,-1274.66"/>
<text text-anchor="middle" x="538.62" y="-1133.65" font-family="Arial" font-size="20.00" fill="blue">start_next: 04/11/17, 21:00:04</text>
<text text-anchor="middle" x="538.62" y="-1111.65" font-family="Arial" font-size="20.00" fill="blue">gap: &#45;289sec</text>
<text text-anchor="middle" x="538.62" y="-1089.65" font-family="Arial" font-size="20.00" fill="blue">end_prev: 04/11/17, 21:04:53</text>
</g>
<!-- SURFING
vrml&#45;multi&#45;use -->
<g id="node7" class="node">
<title>SURFING
vrml&#45;multi&#45;use</title>
<g id="a_node7"><a xlink:title="ET WEB_SERVER WEB&#45;PHP phpinfo access">
<ellipse fill="none" stroke="black" stroke-width="3" cx="920.12" cy="-1116.65" rx="119.5" ry="42.35"/>
<text text-anchor="middle" x="920.12" y="-1123.45" font-family="Arial" font-size="24.00">SURFING</text>
<text text-anchor="middle" x="920.12" y="-1097.45" font-family="Arial" font-size="24.00">vrml&#45;multi&#45;use</text>
</a>
</g>
</g>
<!-- INFO DISCOVERY
xdmcp&#45;&gt;SURFING
vrml&#45;multi&#45;use -->
<g id="edge5" class="edge">
<title>INFO DISCOVERY
xdmcp&#45;&gt;SURFING
vrml&#45;multi&#45;use</title>
<path fill="none" stroke="blue" stroke-width="5" d="M888.44,-954.56C1038.41,-959.84 1246.53,-972.18 1272.12,-1000.22 1291.9,-1021.89 1291.37,-1044.09 1272.12,-1066.22 1243.32,-1099.35 1137.82,-1110.92 1049.77,-1114.67"/>
<polygon fill="blue" stroke="blue" stroke-width="5" points="1049.49,-1110.3 1039.67,-1115.07 1049.83,-1119.04 1049.49,-1110.3"/>
<text text-anchor="middle" x="1417.12" y="-1050.22" font-family="Arial" font-size="20.00" fill="blue">start_next: 04/11/17, 14:11:32</text>
<text text-anchor="middle" x="1417.12" y="-1028.22" font-family="Arial" font-size="20.00" fill="blue">gap: 2sec</text>
<text text-anchor="middle" x="1417.12" y="-1006.22" font-family="Arial" font-size="20.00" fill="blue">end_prev: 04/11/17, 14:11:30</text>
</g>
<!-- INFO DISCOVERY
xdmcp&#45;&gt;SURFING
vrml&#45;multi&#45;use -->
<g id="edge11" class="edge">
<title>INFO DISCOVERY
xdmcp&#45;&gt;SURFING
vrml&#45;multi&#45;use</title>
<path fill="none" stroke="blue" stroke-width="5" d="M582.71,-961.37C529.48,-968.5 478.67,-980.39 462.12,-1000.22 443.33,-1022.75 441.72,-1045.14 462.12,-1066.22 471.56,-1075.97 692.65,-1072.71 706.12,-1074.22 740.29,-1078.07 777.16,-1084.4 810.51,-1090.97"/>
<polygon fill="blue" stroke="blue" stroke-width="5" points="810.07,-1095.34 820.74,-1093.01 811.79,-1086.76 810.07,-1095.34"/>
<text text-anchor="middle" x="593.62" y="-1050.22" font-family="Arial" font-size="20.00" fill="blue">start_next: 04/11/17, 16:34:42</text>
<text text-anchor="middle" x="593.62" y="-1028.22" font-family="Arial" font-size="20.00" fill="blue">gap: 2sec</text>
<text text-anchor="middle" x="593.62" y="-1006.22" font-family="Arial" font-size="20.00" fill="blue">end_prev: 04/11/17, 16:34:40</text>
</g>
<!-- INFO DISCOVERY
xdmcp&#45;&gt;SURFING
vrml&#45;multi&#45;use -->
<g id="edge16" class="edge">
<title>INFO DISCOVERY
xdmcp&#45;&gt;SURFING
vrml&#45;multi&#45;use</title>
<path fill="none" stroke="blue" stroke-width="5" d="M729.53,-992.45C728.01,-1020.78 728.27,-1055.07 737.12,-1066.22 746.54,-1078.09 772.84,-1087.81 802.66,-1095.39"/>
<polygon fill="blue" stroke="blue" stroke-width="5" points="801.7,-1099.66 812.45,-1097.78 803.78,-1091.16 801.7,-1099.66"/>
<text text-anchor="middle" x="868.62" y="-1050.22" font-family="Arial" font-size="20.00" fill="blue">start_next: 04/11/17, 18:07:07</text>
<text text-anchor="middle" x="868.62" y="-1028.22" font-family="Arial" font-size="20.00" fill="blue">gap: 2sec</text>
<text text-anchor="middle" x="868.62" y="-1006.22" font-family="Arial" font-size="20.00" fill="blue">end_prev: 04/11/17, 18:07:05</text>
</g>
<!-- INFO DISCOVERY
xdmcp&#45;&gt;SURFING
vrml&#45;multi&#45;use -->
<g id="edge23" class="edge">
<title>INFO DISCOVERY
xdmcp&#45;&gt;SURFING
vrml&#45;multi&#45;use</title>
<path fill="none" stroke="blue" stroke-width="5" d="M882.56,-962.23C933.36,-969.47 981.34,-981.21 997.12,-1000.22 1006.49,-1011.51 1004.16,-1053.35 997.12,-1066.22 995.82,-1068.6 994.36,-1070.88 992.75,-1073.07"/>
<polygon fill="blue" stroke="blue" stroke-width="5" points="989.1,-1070.6 985.9,-1081.03 995.74,-1076.3 989.1,-1070.6"/>
<text text-anchor="middle" x="1134.62" y="-1050.22" font-family="Arial" font-size="20.00" fill="blue">start_next: 04/11/17, 19:01:18</text>
<text text-anchor="middle" x="1134.62" y="-1028.22" font-family="Arial" font-size="20.00" fill="blue">gap: 2sec</text>
<text text-anchor="middle" x="1134.62" y="-1006.22" font-family="Arial" font-size="20.00" fill="blue">end_prev: 04/11/17, 19:01:16</text>
</g>
<!-- SURFING
vrml&#45;multi&#45;use&#45;&gt;DATA DELIVERY
vrml&#45;multi&#45;use | ID: 416 -->
<g id="edge6" class="edge">
<title>SURFING
vrml&#45;multi&#45;use&#45;&gt;DATA DELIVERY
vrml&#45;multi&#45;use | ID: 416</title>
<path fill="none" stroke="blue" stroke-width="5" d="M985.9,-1152.27C990.3,-1156.71 994.15,-1161.64 997.12,-1167.08 1011.19,-1192.82 1015.59,-1210.28 997.12,-1233.08 984.94,-1248.11 953.12,-1259.28 915.62,-1267.5"/>
<polygon fill="blue" stroke="blue" stroke-width="5" points="914.33,-1263.3 905.44,-1269.64 916.12,-1271.87 914.33,-1263.3"/>
<text text-anchor="middle" x="1140.12" y="-1217.08" font-family="Arial" font-size="20.00" fill="blue">start_next: 04/11/17, 14:11:33</text>
<text text-anchor="middle" x="1140.12" y="-1195.08" font-family="Arial" font-size="20.00" fill="blue">gap: 1sec</text>
<text text-anchor="middle" x="1140.12" y="-1173.08" font-family="Arial" font-size="20.00" fill="blue">end_prev: 04/11/17, 14:11:32</text>
</g>
<!-- SURFING
vrml&#45;multi&#45;use&#45;&gt;DATA DELIVERY
vrml&#45;multi&#45;use | ID: 416 -->
<g id="edge12" class="edge">
<title>SURFING
vrml&#45;multi&#45;use&#45;&gt;DATA DELIVERY
vrml&#45;multi&#45;use | ID: 416</title>
<path fill="none" stroke="blue" stroke-width="5" d="M1039.79,-1118.3C1129.37,-1121.63 1241.35,-1132.82 1271.12,-1167.08 1290.36,-1189.22 1290.76,-1211.29 1271.12,-1233.08 1248.6,-1258.07 1082.69,-1272.62 941,-1280.6"/>
<polygon fill="blue" stroke="blue" stroke-width="5" points="940.58,-1276.24 930.84,-1281.16 941.06,-1284.98 940.58,-1276.24"/>
<text text-anchor="middle" x="1416.62" y="-1217.08" font-family="Arial" font-size="20.00" fill="blue">start_next: 04/11/17, 16:34:46</text>
<text text-anchor="middle" x="1416.62" y="-1195.08" font-family="Arial" font-size="20.00" fill="blue">gap: 3sec</text>
<text text-anchor="middle" x="1416.62" y="-1173.08" font-family="Arial" font-size="20.00" fill="blue">end_prev: 04/11/17, 16:34:43</text>
</g>
<!-- SURFING
vrml&#45;multi&#45;use&#45;&gt;DATA DELIVERY
vrml&#45;multi&#45;use | ID: 416 -->
<g id="edge17" class="edge">
<title>SURFING
vrml&#45;multi&#45;use&#45;&gt;DATA DELIVERY
vrml&#45;multi&#45;use | ID: 416</title>
<path fill="none" stroke="blue" stroke-width="5" d="M820.74,-1140.28C784.81,-1147.56 743.82,-1154.84 706.12,-1159.08 692.65,-1160.59 471.56,-1157.33 462.12,-1167.08 441.72,-1188.15 443.6,-1210.33 462.12,-1233.08 474.98,-1248.86 509.03,-1260.33 548.84,-1268.62"/>
<polygon fill="blue" stroke="blue" stroke-width="5" points="548.13,-1272.94 558.79,-1270.6 549.84,-1264.35 548.13,-1272.94"/>
<text text-anchor="middle" x="593.62" y="-1217.08" font-family="Arial" font-size="20.00" fill="blue">start_next: 04/11/17, 18:07:08</text>
<text text-anchor="middle" x="593.62" y="-1195.08" font-family="Arial" font-size="20.00" fill="blue">gap: 1sec</text>
<text text-anchor="middle" x="593.62" y="-1173.08" font-family="Arial" font-size="20.00" fill="blue">end_prev: 04/11/17, 18:07:07</text>
</g>
<!-- SURFING
vrml&#45;multi&#45;use&#45;&gt;DATA DELIVERY
vrml&#45;multi&#45;use | ID: 416 -->
<g id="edge24" class="edge">
<title>SURFING
vrml&#45;multi&#45;use&#45;&gt;DATA DELIVERY
vrml&#45;multi&#45;use | ID: 416</title>
<path fill="none" stroke="blue" stroke-width="5" d="M811.65,-1134.66C776.48,-1142.54 743.75,-1153.27 733.12,-1167.08 725.36,-1177.16 724.88,-1204.65 726.57,-1230.98"/>
<polygon fill="blue" stroke="blue" stroke-width="5" points="722.2,-1231.33 727.3,-1240.98 730.93,-1230.69 722.2,-1231.33"/>
<text text-anchor="middle" x="864.62" y="-1217.08" font-family="Arial" font-size="20.00" fill="blue">start_next: 04/11/17, 19:01:20</text>
<text text-anchor="middle" x="864.62" y="-1195.08" font-family="Arial" font-size="20.00" fill="blue">gap: 1sec</text>
<text text-anchor="middle" x="864.62" y="-1173.08" font-family="Arial" font-size="20.00" fill="blue">end_prev: 04/11/17, 19:01:18</text>
</g>
<!-- DATA EXFILTRATION
vrml&#45;multi&#45;use | ID: 76 -->
<g id="node8" class="node">
<title>DATA EXFILTRATION
vrml&#45;multi&#45;use | ID: 76</title>
<g id="a_node8"><a xlink:title="ET WEB_SPECIFIC_APPS PHP&#45;CGI query string parameter vulnerability">
<polygon fill="yellow" stroke="black" stroke-width="3" points="1072.77,-48.99 969.45,-97.97 762.8,-97.97 659.48,-48.99 762.8,-0.01 969.45,-0.01 1072.77,-48.99"/>
<text text-anchor="middle" x="866.12" y="-55.79" font-family="Arial" font-size="24.00">DATA EXFILTRATION</text>
<text text-anchor="middle" x="866.12" y="-29.79" font-family="Arial" font-size="24.00">vrml&#45;multi&#45;use | ID: 76</text>
</a>
</g>
</g>
<!-- DATA EXFILTRATION
vrml&#45;multi&#45;use | ID: 76&#45;&gt;VULNERABILTY DISCOVERY
ms&#45;sql&#45;s -->
<g id="edge13" class="edge">
<title>DATA EXFILTRATION
vrml&#45;multi&#45;use | ID: 76&#45;&gt;VULNERABILTY DISCOVERY
ms&#45;sql&#45;s</title>
<path fill="none" stroke="blue" stroke-width="5" d="M700.99,-68.73C544.53,-90.06 325.2,-130.42 268.12,-193.98 230.3,-236.1 228.42,-303.74 232.8,-350.45"/>
<polygon fill="blue" stroke="blue" stroke-width="5" points="228.48,-351.19 233.89,-360.67 237.18,-350.26 228.48,-351.19"/>
<text text-anchor="start" x="268.12" y="-261.41" font-family="Arial" font-size="20.00" fill="blue"> start_next: 04/11/17, 18:03:03</text>
<text text-anchor="start" x="341.62" y="-241.41" font-family="Arial" font-size="20.00" fill="blue">gap: 5294sec</text>
<text text-anchor="start" x="272.12" y="-221.41" font-family="Arial" font-size="20.00" fill="blue">end_prev: 04/11/17, 16:34:50</text>
<text text-anchor="start" x="302.62" y="-201.41" font-family="Arial" font-weight="bold" font-size="20.00" fill="blue">Attacker: 10.0.254.31</text>
</g>
<!-- DATA EXFILTRATION
vrml&#45;multi&#45;use | ID: 76&#45;&gt;INFO DISCOVERY
xdmcp -->
<g id="edge25" class="edge">
<title>DATA EXFILTRATION
vrml&#45;multi&#45;use | ID: 76&#45;&gt;INFO DISCOVERY
xdmcp</title>
<path fill="none" stroke="blue" stroke-width="5" d="M984.09,-91.39C988.95,-95.78 993.35,-100.62 997.12,-105.98 1013.73,-129.53 1005.12,-206.59 1005.12,-235.41 1005.12,-235.41 1005.12,-235.41 1005.12,-777.38 1005.12,-804.58 1013.32,-879.16 995.12,-899.37 979.91,-916.27 937.77,-927.48 891.62,-934.87"/>
<polygon fill="blue" stroke="blue" stroke-width="5" points="890.94,-930.55 881.72,-936.4 892.27,-939.2 890.94,-930.55"/>
<text text-anchor="start" x="1005.12" y="-518.69" font-family="Arial" font-size="20.00" fill="blue"> start_next: 04/11/17, 20:58:58</text>
<text text-anchor="start" x="1078.62" y="-498.69" font-family="Arial" font-size="20.00" fill="blue">gap: 7053sec</text>
<text text-anchor="start" x="1009.12" y="-478.69" font-family="Arial" font-size="20.00" fill="blue">end_prev: 04/11/17, 19:01:25</text>
<text text-anchor="start" x="1039.62" y="-458.69" font-family="Arial" font-weight="bold" font-size="20.00" fill="blue">Attacker: 10.0.254.31</text>
</g>
<!-- VULNERABILTY DISCOVERY
postgresql -->
<g id="node9" class="node">
<title>VULNERABILTY DISCOVERY
postgresql</title>
<g id="a_node9"><a xlink:title="ET POLICY Suspicious inbound to mySQL port 3306&#10;ET POLICY Suspicious inbound to mSQL port 4333&#10;ET POLICY Suspicious inbound to MSSQL port 1433&#10;ET POLICY Suspicious inbound to Oracle SQL port 1521&#10;ET POLICY Suspicious inbound to PostgreSQL port 5432">
<ellipse fill="none" stroke="black" stroke-width="3" cx="1271.12" cy="-236.41" rx="241.25" ry="42.35"/>
<text text-anchor="middle" x="1271.12" y="-243.21" font-family="Arial" font-size="24.00">VULNERABILTY DISCOVERY</text>
<text text-anchor="middle" x="1271.12" y="-217.21" font-family="Arial" font-size="24.00">postgresql</text>
</a>
</g>
</g>
<!-- DATA EXFILTRATION
vrml&#45;multi&#45;use | ID: 76&#45;&gt;VULNERABILTY DISCOVERY
postgresql -->
<g id="edge7" class="edge">
<title>DATA EXFILTRATION
vrml&#45;multi&#45;use | ID: 76&#45;&gt;VULNERABILTY DISCOVERY
postgresql</title>
<path fill="none" stroke="blue" stroke-width="5" d="M980.1,-93.21C990.3,-97.41 1000.43,-101.7 1010.12,-105.98 1070.14,-132.47 1136.35,-165.34 1187.06,-191.33"/>
<polygon fill="blue" stroke="blue" stroke-width="5" points="1185.13,-195.25 1196.02,-195.93 1189.13,-187.47 1185.13,-195.25"/>
<text text-anchor="start" x="1172.12" y="-170.98" font-family="Arial" font-size="20.00" fill="blue"> start_next: 04/11/17, 16:31:19</text>
<text text-anchor="start" x="1245.62" y="-150.98" font-family="Arial" font-size="20.00" fill="blue">gap: 8383sec</text>
<text text-anchor="start" x="1176.62" y="-130.98" font-family="Arial" font-size="20.00" fill="blue">end_prev: 04/11/17, 14:11:36</text>
<text text-anchor="start" x="1206.62" y="-110.98" font-family="Arial" font-weight="bold" font-size="20.00" fill="blue">Attacker: 10.0.254.31</text>
</g>
<!-- SERVICE DISCOVERY
epmap -->
<g id="node13" class="node">
<title>SERVICE DISCOVERY
epmap</title>
<g id="a_node13"><a xlink:title="ET SCAN Behavioral Unusual Port 135 traffic Potential Scan or Infection">
<ellipse fill="none" stroke="black" stroke-width="3" cx="729.12" cy="-236.41" rx="189.51" ry="42.35"/>
<text text-anchor="middle" x="729.12" y="-243.21" font-family="Arial" font-size="24.00">SERVICE DISCOVERY</text>
<text text-anchor="middle" x="729.12" y="-217.21" font-family="Arial" font-size="24.00">epmap</text>
</a>
</g>
</g>
<!-- DATA EXFILTRATION
vrml&#45;multi&#45;use | ID: 76&#45;&gt;SERVICE DISCOVERY
epmap -->
<g id="edge18" class="edge">
<title>DATA EXFILTRATION
vrml&#45;multi&#45;use | ID: 76&#45;&gt;SERVICE DISCOVERY
epmap</title>
<path fill="none" stroke="blue" stroke-width="5" d="M746.05,-90.24C740.82,-94.92 736.1,-100.15 732.12,-105.98 716.86,-128.33 715.29,-158.29 717.91,-183.75"/>
<polygon fill="blue" stroke="blue" stroke-width="5" points="713.61,-184.62 719.21,-193.99 722.29,-183.52 713.61,-184.62"/>
<text text-anchor="start" x="732.12" y="-170.98" font-family="Arial" font-size="20.00" fill="blue"> start_next: 04/11/17, 18:57:18</text>
<text text-anchor="start" x="805.62" y="-150.98" font-family="Arial" font-size="20.00" fill="blue">gap: 3002sec</text>
<text text-anchor="start" x="736.12" y="-130.98" font-family="Arial" font-size="20.00" fill="blue">end_prev: 04/11/17, 18:07:16</text>
<text text-anchor="start" x="766.62" y="-110.98" font-family="Arial" font-weight="bold" font-size="20.00" fill="blue">Attacker: 10.0.254.31</text>
</g>
<!-- SERVICE DISCOVERY
unknown -->
<g id="node10" class="node">
<title>SERVICE DISCOVERY
unknown</title>
<g id="a_node10"><a xlink:title="ET SCAN Behavioral Unusual Port 135 traffic Potential Scan or Infection&#10;ET SCAN Potential VNC Scan 5800&#45;5820&#10;ET SCAN Behavioral Unusual Port 445 traffic Potential Scan or Infection">
<ellipse fill="none" stroke="black" stroke-width="3" cx="1281.12" cy="-403.26" rx="189.51" ry="42.35"/>
<text text-anchor="middle" x="1281.12" y="-410.06" font-family="Arial" font-size="24.00">SERVICE DISCOVERY</text>
<text text-anchor="middle" x="1281.12" y="-384.06" font-family="Arial" font-size="24.00">unknown</text>
</a>
</g>
</g>
<!-- VULNERABILTY DISCOVERY
postgresql&#45;&gt;SERVICE DISCOVERY
unknown -->
<g id="edge8" class="edge">
<title>VULNERABILTY DISCOVERY
postgresql&#45;&gt;SERVICE DISCOVERY
unknown</title>
<path fill="none" stroke="blue" stroke-width="5" d="M1273.65,-279.01C1274.96,-300.68 1276.58,-327.39 1277.98,-350.39"/>
<polygon fill="blue" stroke="blue" stroke-width="5" points="1273.63,-350.96 1278.6,-360.67 1282.36,-350.43 1273.63,-350.96"/>
<text text-anchor="middle" x="1408.62" y="-336.83" font-family="Arial" font-size="20.00" fill="blue">start_next: 04/11/17, 16:31:31</text>
<text text-anchor="middle" x="1408.62" y="-314.83" font-family="Arial" font-size="20.00" fill="blue">gap: &#45;35sec</text>
<text text-anchor="middle" x="1408.62" y="-292.83" font-family="Arial" font-size="20.00" fill="blue">end_prev: 04/11/17, 16:32:06</text>
</g>
<!-- ARBITRARY CODE EXECUTION
ssdp | ID: 355 -->
<g id="node11" class="node">
<title>ARBITRARY CODE EXECUTION
ssdp | ID: 355</title>
<g id="a_node11"><a xlink:title="GPL MISC UPnP malformed advertisement">
<polygon fill="none" stroke="black" stroke-width="3" points="1431.62,-706.96 1056.62,-706.96 1056.62,-646.96 1431.62,-646.96 1431.62,-706.96"/>
<text text-anchor="middle" x="1244.12" y="-683.76" font-family="Arial" font-size="24.00">ARBITRARY CODE EXECUTION</text>
<text text-anchor="middle" x="1244.12" y="-657.76" font-family="Arial" font-size="24.00">ssdp | ID: 355</text>
</a>
</g>
</g>
<!-- SERVICE DISCOVERY
unknown&#45;&gt;ARBITRARY CODE EXECUTION
ssdp | ID: 355 -->
<g id="edge9" class="edge">
<title>SERVICE DISCOVERY
unknown&#45;&gt;ARBITRARY CODE EXECUTION
ssdp | ID: 355</title>
<path fill="none" stroke="blue" stroke-width="5" d="M1280.5,-445.79C1279.71,-471.25 1277.97,-504.46 1274.12,-533.69 1269.49,-568.9 1260.88,-608.39 1254.07,-636.82"/>
<polygon fill="blue" stroke="blue" stroke-width="5" points="1249.77,-636.01 1251.66,-646.76 1258.27,-638.08 1249.77,-636.01"/>
<text text-anchor="middle" x="1411.62" y="-510.69" font-family="Arial" font-size="20.00" fill="blue">start_next: 04/11/17, 16:32:58</text>
<text text-anchor="middle" x="1411.62" y="-488.69" font-family="Arial" font-size="20.00" fill="blue">gap: 52sec</text>
<text text-anchor="middle" x="1411.62" y="-466.69" font-family="Arial" font-size="20.00" fill="blue">end_prev: 04/11/17, 16:32:07</text>
</g>
<!-- ARBITRARY CODE EXECUTION
ssdp | ID: 355&#45;&gt;INFO DISCOVERY
xdmcp -->
<g id="edge10" class="edge">
<title>ARBITRARY CODE EXECUTION
ssdp | ID: 355&#45;&gt;INFO DISCOVERY
xdmcp</title>
<path fill="none" stroke="blue" stroke-width="5" d="M1222.64,-707.28C1185.32,-755.84 1103.5,-852.27 1010.12,-899.37 974.34,-917.42 933.04,-928.98 893.43,-936.35"/>
<polygon fill="blue" stroke="blue" stroke-width="5" points="892.48,-932.07 883.41,-938.14 894.02,-940.69 892.48,-932.07"/>
<text text-anchor="middle" x="1335.62" y="-793.38" font-family="Arial" font-size="20.00" fill="blue">start_next: 04/11/17, 16:33:30</text>
<text text-anchor="middle" x="1335.62" y="-771.38" font-family="Arial" font-size="20.00" fill="blue">gap: 21sec</text>
<text text-anchor="middle" x="1335.62" y="-749.38" font-family="Arial" font-size="20.00" fill="blue">end_prev: 04/11/17, 16:33:08</text>
</g>
<!-- SERVICE DISCOVERY
rpas&#45;c2&#45;&gt;INFO DISCOVERY
xdmcp -->
<g id="edge15" class="edge">
<title>SERVICE DISCOVERY
rpas&#45;c2&#45;&gt;INFO DISCOVERY
xdmcp</title>
<path fill="none" stroke="blue" stroke-width="5" d="M207.29,-719.24C222.58,-751.71 247.7,-796.21 281.12,-825.37 360.89,-894.97 476.38,-925.7 570.64,-939.1"/>
<polygon fill="blue" stroke="blue" stroke-width="5" points="570.07,-943.44 580.57,-940.46 571.25,-934.77 570.07,-943.44"/>
<text text-anchor="middle" x="412.62" y="-793.38" font-family="Arial" font-size="20.00" fill="blue">start_next: 04/11/17, 18:05:40</text>
<text text-anchor="middle" x="412.62" y="-771.38" font-family="Arial" font-size="20.00" fill="blue">gap: 121sec</text>
<text text-anchor="middle" x="412.62" y="-749.38" font-family="Arial" font-size="20.00" fill="blue">end_prev: 04/11/17, 18:03:39</text>
</g>
<!-- VULNERABILTY DISCOVERY
ncube&#45;lm -->
<g id="node14" class="node">
<title>VULNERABILTY DISCOVERY
ncube&#45;lm</title>
<g id="a_node14"><a xlink:title="ET POLICY Suspicious inbound to mySQL port 3306&#10;ET POLICY Suspicious inbound to mSQL port 4333&#10;ET POLICY Suspicious inbound to MSSQL port 1433&#10;ET POLICY Suspicious inbound to Oracle SQL port 1521&#10;ET POLICY Suspicious inbound to PostgreSQL port 5432">
<ellipse fill="none" stroke="black" stroke-width="3" cx="730.12" cy="-403.26" rx="241.25" ry="42.35"/>
<text text-anchor="middle" x="730.12" y="-410.06" font-family="Arial" font-size="24.00">VULNERABILTY DISCOVERY</text>
<text text-anchor="middle" x="730.12" y="-384.06" font-family="Arial" font-size="24.00">ncube&#45;lm</text>
</a>
</g>
</g>
<!-- SERVICE DISCOVERY
epmap&#45;&gt;VULNERABILTY DISCOVERY
ncube&#45;lm -->
<g id="edge19" class="edge">
<title>SERVICE DISCOVERY
epmap&#45;&gt;VULNERABILTY DISCOVERY
ncube&#45;lm</title>
<path fill="none" stroke="blue" stroke-width="5" d="M729.38,-279.01C729.51,-300.68 729.67,-327.39 729.81,-350.39"/>
<polygon fill="blue" stroke="blue" stroke-width="5" points="725.44,-350.7 729.87,-360.67 734.19,-350.65 725.44,-350.7"/>
<text text-anchor="middle" x="861.62" y="-336.83" font-family="Arial" font-size="20.00" fill="blue">start_next: 04/11/17, 18:58:00</text>
<text text-anchor="middle" x="861.62" y="-314.83" font-family="Arial" font-size="20.00" fill="blue">gap: 43sec</text>
<text text-anchor="middle" x="861.62" y="-292.83" font-family="Arial" font-size="20.00" fill="blue">end_prev: 04/11/17, 18:57:18</text>
</g>
<!-- BRUTE FORCE CREDENTIALS
pop3 | ID: 382 -->
<g id="node15" class="node">
<title>BRUTE FORCE CREDENTIALS
pop3 | ID: 382</title>
<g id="a_node15"><a xlink:title="ET SCAN Rapid POP3 Connections &#45; Possible Brute Force Attack">
<polygon fill="none" stroke="black" stroke-width="3" points="961.12,-614.11 599.12,-614.11 599.12,-554.11 961.12,-554.11 961.12,-614.11"/>
<text text-anchor="middle" x="780.12" y="-590.91" font-family="Arial" font-size="24.00">BRUTE FORCE CREDENTIALS</text>
<text text-anchor="middle" x="780.12" y="-564.91" font-family="Arial" font-size="24.00">pop3 | ID: 382</text>
</a>
</g>
</g>
<!-- VULNERABILTY DISCOVERY
ncube&#45;lm&#45;&gt;BRUTE FORCE CREDENTIALS
pop3 | ID: 382 -->
<g id="edge20" class="edge">
<title>VULNERABILTY DISCOVERY
ncube&#45;lm&#45;&gt;BRUTE FORCE CREDENTIALS
pop3 | ID: 382</title>
<path fill="none" stroke="blue" stroke-width="5" d="M724.15,-445.74C722.11,-471.93 722.71,-505.93 734.12,-533.69 735.85,-537.88 738.11,-541.94 740.7,-545.81"/>
<polygon fill="blue" stroke="blue" stroke-width="5" points="737.31,-548.58 746.81,-553.95 744.3,-543.32 737.31,-548.58"/>
<text text-anchor="middle" x="865.62" y="-510.69" font-family="Arial" font-size="20.00" fill="blue">start_next: 04/11/17, 18:58:15</text>
<text text-anchor="middle" x="865.62" y="-488.69" font-family="Arial" font-size="20.00" fill="blue">gap: &#45;17sec</text>
<text text-anchor="middle" x="865.62" y="-466.69" font-family="Arial" font-size="20.00" fill="blue">end_prev: 04/11/17, 18:58:32</text>
</g>
<!-- BRUTE FORCE CREDENTIALS
pop3 | ID: 382&#45;&gt;NETWORK DoS
ssdp | ID: 55 -->
<g id="edge21" class="edge">
<title>BRUTE FORCE CREDENTIALS
pop3 | ID: 382&#45;&gt;NETWORK DoS
ssdp | ID: 55</title>
<path fill="none" stroke="blue" stroke-width="5" d="M750.76,-614.25C745.61,-620.54 740.75,-627.45 737.12,-634.54 724.09,-660 716.12,-690.68 711.29,-716.9"/>
<polygon fill="blue" stroke="blue" stroke-width="5" points="706.93,-716.48 709.53,-727.08 715.55,-717.97 706.93,-716.48"/>
<text text-anchor="middle" x="868.62" y="-693.96" font-family="Arial" font-size="20.00" fill="blue">start_next: 04/11/17, 18:59:10</text>
<text text-anchor="middle" x="868.62" y="-671.96" font-family="Arial" font-size="20.00" fill="blue">gap: 55sec</text>
<text text-anchor="middle" x="868.62" y="-649.96" font-family="Arial" font-size="20.00" fill="blue">end_prev: 04/11/17, 18:58:15</text>
</g>
</g>
</svg>
