<?xml version="1.0" encoding="UTF-8" standalone="no"?>
<!DOCTYPE svg PUBLIC "-//W3C//DTD SVG 1.1//EN"
 "http://www.w3.org/Graphics/SVG/1.1/DTD/svg11.dtd">
<!-- Generated by graphviz version 2.50.0 (0)
 -->
<!-- Title: DATAEXFILTRATIONsmtp Pages: 1 -->
<svg width="1520pt" height="1365pt"
 viewBox="0.00 0.00 1519.50 1365.18" xmlns="http://www.w3.org/2000/svg" xmlns:xlink="http://www.w3.org/1999/xlink">
<g id="graph0" class="graph" transform="scale(1 1) rotate(0) translate(4 1361.18)">
<title>DATAEXFILTRATIONsmtp</title>
<polygon fill="white" stroke="transparent" points="-4,4 -4,-1361.18 1515.5,-1361.18 1515.5,4 -4,4"/>
<!-- Victim: 10.0.0.72
DATA EXFILTRATION
smtp -->
<g id="node1" class="node">
<title>Victim: 10.0.0.72
DATA EXFILTRATION
smtp</title>
<polygon fill="salmon" stroke="black" stroke-width="3" points="1247.71,-1260.16 1247.71,-1314.55 1135.12,-1353.01 975.88,-1353.01 863.29,-1314.55 863.29,-1260.16 975.88,-1221.71 1135.12,-1221.71 1247.71,-1260.16"/>
<polygon fill="none" stroke="black" stroke-width="3" points="1251.71,-1257.31 1251.71,-1317.4 1135.78,-1357 975.22,-1357 859.29,-1317.4 859.29,-1257.31 975.22,-1217.72 1135.78,-1217.72 1251.71,-1257.31"/>
<text text-anchor="middle" x="1055.5" y="-1307.16" font-family="Arial" font-size="24.00">Victim: 10.0.0.72</text>
<text text-anchor="middle" x="1055.5" y="-1281.16" font-family="Arial" font-size="24.00">DATA EXFILTRATION</text>
<text text-anchor="middle" x="1055.5" y="-1255.16" font-family="Arial" font-size="24.00">smtp</text>
</g>
<!-- DATA EXFILTRATION
smtp | ID: 74 -->
<g id="node2" class="node">
<title>DATA EXFILTRATION
smtp | ID: 74</title>
<g id="a_node2"><a xlink:title="ET CURRENT_EVENTS Possible TLS HeartBleed Unencrypted Request Method 3 (Inbound to Common SSL Port)">
<polygon fill="salmon" stroke="black" stroke-width="3" points="1260.38,-1151.55 1157.94,-1200.53 953.06,-1200.53 850.62,-1151.55 953.06,-1102.57 1157.94,-1102.57 1260.38,-1151.55"/>
<text text-anchor="middle" x="1055.5" y="-1158.35" font-family="Arial" font-size="24.00">DATA EXFILTRATION</text>
<text text-anchor="middle" x="1055.5" y="-1132.35" font-family="Arial" font-size="24.00">smtp | ID: 74</text>
</a>
</g>
</g>
<!-- DATA EXFILTRATION
smtp | ID: 74&#45;&gt;Victim: 10.0.0.72
DATA EXFILTRATION
smtp -->
<g id="edge1" class="edge">
<title>DATA EXFILTRATION
smtp | ID: 74&#45;&gt;Victim: 10.0.0.72
DATA EXFILTRATION
smtp</title>
<path fill="none" stroke="black" stroke-width="5" d="M1055.5,-1200.86C1055.5,-1202.96 1055.5,-1205.09 1055.5,-1207.24"/>
<polygon fill="black" stroke="black" stroke-width="5" points="1051.13,-1207.4 1055.5,-1217.4 1059.88,-1207.4 1051.13,-1207.4"/>
</g>
<!-- VULNERABILTY DISCOVERY
postgresql -->
<g id="node3" class="node">
<title>VULNERABILTY DISCOVERY
postgresql</title>
<g id="a_node3"><a xlink:title="ET POLICY Suspicious inbound to Oracle SQL port 1521&#10;ET POLICY Suspicious inbound to PostgreSQL port 5432">
<ellipse fill="yellow" stroke="black" stroke-width="3" cx="459.5" cy="-42.43" rx="241.25" ry="42.35"/>
<text text-anchor="middle" x="459.5" y="-49.23" font-family="Arial" font-size="24.00">VULNERABILTY DISCOVERY</text>
<text text-anchor="middle" x="459.5" y="-23.23" font-family="Arial" font-size="24.00">postgresql</text>
</a>
</g>
</g>
<!-- VULNERABILTY DISCOVERY
ms&#45;sql&#45;s -->
<g id="node4" class="node">
<title>VULNERABILTY DISCOVERY
ms&#45;sql&#45;s</title>
<g id="a_node4"><a xlink:title="ET POLICY Suspicious inbound to mySQL port 3306&#10;ET POLICY Suspicious inbound to mSQL port 4333&#10;ET POLICY Suspicious inbound to MSSQL port 1433&#10;ET POLICY Suspicious inbound to Oracle SQL port 1521&#10;ET CURRENT_EVENTS Malformed HeartBeat Request&#10;ET SCAN Nessus User Agent&#10;ET POLICY Suspicious inbound to PostgreSQL port 5432">
<ellipse fill="none" stroke="black" stroke-width="3" cx="459.5" cy="-223.28" rx="241.25" ry="42.35"/>
<text text-anchor="middle" x="459.5" y="-230.08" font-family="Arial" font-size="24.00">VULNERABILTY DISCOVERY</text>
<text text-anchor="middle" x="459.5" y="-204.08" font-family="Arial" font-size="24.00">ms&#45;sql&#45;s</text>
</a>
</g>
</g>
<!-- VULNERABILTY DISCOVERY
postgresql&#45;&gt;VULNERABILTY DISCOVERY
ms&#45;sql&#45;s -->
<g id="edge2" class="edge">
<title>VULNERABILTY DISCOVERY
postgresql&#45;&gt;VULNERABILTY DISCOVERY
ms&#45;sql&#45;s</title>
<path fill="none" stroke="blue" stroke-width="5" d="M459.5,-84.91C459.5,-110.44 459.5,-143.37 459.5,-170.59"/>
<polygon fill="blue" stroke="blue" stroke-width="5" points="455.13,-170.71 459.5,-180.71 463.88,-170.71 455.13,-170.71"/>
<text text-anchor="start" x="459.5" y="-157.85" font-family="Arial" font-size="20.00" fill="blue"> start_next: 04/11/17, 13:59:23</text>
<text text-anchor="start" x="533" y="-137.85" font-family="Arial" font-size="20.00" fill="blue">gap: 3327sec</text>
<text text-anchor="start" x="463.5" y="-117.85" font-family="Arial" font-size="20.00" fill="blue">end_prev: 04/11/17, 13:03:57</text>
<text text-anchor="start" x="494" y="-97.85" font-family="Arial" font-weight="bold" font-size="20.00" fill="blue">Attacker: 10.0.254.31</text>
</g>
<!-- BRUTE FORCE CREDENTIALS
pop3 | ID: 1743 -->
<g id="node5" class="node">
<title>BRUTE FORCE CREDENTIALS
pop3 | ID: 1743</title>
<g id="a_node5"><a xlink:title="ET SCAN Rapid POP3 Connections &#45; Possible Brute Force Attack&#10;ET SCAN Rapid IMAP Connections &#45; Possible Brute Force Attack">
<polygon fill="none" stroke="black" stroke-width="3" stroke-dasharray="1,5" points="368.5,-421.71 6.5,-421.71 6.5,-361.71 368.5,-361.71 368.5,-421.71"/>
<text text-anchor="middle" x="187.5" y="-398.51" font-family="Arial" font-size="24.00">BRUTE FORCE CREDENTIALS</text>
<text text-anchor="middle" x="187.5" y="-372.51" font-family="Arial" font-size="24.00">pop3 | ID: 1743</text>
</a>
</g>
</g>
<!-- VULNERABILTY DISCOVERY
ms&#45;sql&#45;s&#45;&gt;BRUTE FORCE CREDENTIALS
pop3 | ID: 1743 -->
<g id="edge3" class="edge">
<title>VULNERABILTY DISCOVERY
ms&#45;sql&#45;s&#45;&gt;BRUTE FORCE CREDENTIALS
pop3 | ID: 1743</title>
<path fill="none" stroke="blue" stroke-width="5" d="M254.2,-245.61C225.31,-252.52 201.89,-261.65 191.5,-273.71 173.42,-294.68 173.45,-326.46 177.44,-351.61"/>
<polygon fill="blue" stroke="blue" stroke-width="5" points="173.16,-352.54 179.27,-361.58 181.77,-350.96 173.16,-352.54"/>
<text text-anchor="middle" x="323" y="-330.71" font-family="Arial" font-size="20.00" fill="blue">start_next: 04/11/17, 13:59:51</text>
<text text-anchor="middle" x="323" y="-308.71" font-family="Arial" font-size="20.00" fill="blue">gap: &#45;273sec</text>
<text text-anchor="middle" x="323" y="-286.71" font-family="Arial" font-size="20.00" fill="blue">end_prev: 04/11/17, 14:04:24</text>
</g>
<!-- BRUTE FORCE CREDENTIALS
pop3 | ID: 887 -->
<g id="node11" class="node">
<title>BRUTE FORCE CREDENTIALS
pop3 | ID: 887</title>
<g id="a_node11"><a xlink:title="ET SCAN Rapid POP3 Connections &#45; Possible Brute Force Attack">
<polygon fill="none" stroke="black" stroke-width="3" points="860.5,-421.71 498.5,-421.71 498.5,-361.71 860.5,-361.71 860.5,-421.71"/>
<text text-anchor="middle" x="679.5" y="-398.51" font-family="Arial" font-size="24.00">BRUTE FORCE CREDENTIALS</text>
<text text-anchor="middle" x="679.5" y="-372.51" font-family="Arial" font-size="24.00">pop3 | ID: 887</text>
</a>
</g>
</g>
<!-- VULNERABILTY DISCOVERY
ms&#45;sql&#45;s&#45;&gt;BRUTE FORCE CREDENTIALS
pop3 | ID: 887 -->
<g id="edge10" class="edge">
<title>VULNERABILTY DISCOVERY
ms&#45;sql&#45;s&#45;&gt;BRUTE FORCE CREDENTIALS
pop3 | ID: 887</title>
<path fill="none" stroke="blue" stroke-width="5" d="M513.04,-264.78C549.66,-292.48 597.73,-328.85 632.8,-355.38"/>
<polygon fill="blue" stroke="blue" stroke-width="5" points="630.35,-359.01 640.97,-361.56 635.63,-352.03 630.35,-359.01"/>
<text text-anchor="middle" x="758" y="-330.71" font-family="Arial" font-size="20.00" fill="blue">start_next: 04/11/17, 16:27:53</text>
<text text-anchor="middle" x="758" y="-308.71" font-family="Arial" font-size="20.00" fill="blue">gap: &#45;211sec</text>
<text text-anchor="middle" x="758" y="-286.71" font-family="Arial" font-size="20.00" fill="blue">end_prev: 04/11/17, 16:31:24</text>
</g>
<!-- ARBITRARY CODE EXECUTION
pop3 | ID: 1525 -->
<g id="node6" class="node">
<title>ARBITRARY CODE EXECUTION
pop3 | ID: 1525</title>
<g id="a_node6"><a xlink:title="GPL MISC UPnP malformed advertisement&#10;GPL POP3 POP3 PASS overflow attempt">
<polygon fill="none" stroke="black" stroke-width="3" stroke-dasharray="1,5" points="375,-563.71 0,-563.71 0,-503.71 375,-503.71 375,-563.71"/>
<text text-anchor="middle" x="187.5" y="-540.51" font-family="Arial" font-size="24.00">ARBITRARY CODE EXECUTION</text>
<text text-anchor="middle" x="187.5" y="-514.51" font-family="Arial" font-size="24.00">pop3 | ID: 1525</text>
</a>
</g>
</g>
<!-- BRUTE FORCE CREDENTIALS
pop3 | ID: 1743&#45;&gt;ARBITRARY CODE EXECUTION
pop3 | ID: 1525 -->
<g id="edge4" class="edge">
<title>BRUTE FORCE CREDENTIALS
pop3 | ID: 1743&#45;&gt;ARBITRARY CODE EXECUTION
pop3 | ID: 1525</title>
<path fill="none" stroke="blue" stroke-width="5" d="M187.5,-421.71C187.5,-442.41 187.5,-470.49 187.5,-493.23"/>
<polygon fill="blue" stroke="blue" stroke-width="5" points="183.13,-493.25 187.5,-503.25 191.88,-493.25 183.13,-493.25"/>
<text text-anchor="middle" x="319" y="-479.71" font-family="Arial" font-size="20.00" fill="blue">start_next: 04/11/17, 14:01:09</text>
<text text-anchor="middle" x="319" y="-457.71" font-family="Arial" font-size="20.00" fill="blue">gap: 68sec</text>
<text text-anchor="middle" x="319" y="-435.71" font-family="Arial" font-size="20.00" fill="blue">end_prev: 04/11/17, 14:00:01</text>
</g>
<!-- REMOTE SERVICE EXPLOIT
snmp | ID: 1189 -->
<g id="node7" class="node">
<title>REMOTE SERVICE EXPLOIT
snmp | ID: 1189</title>
<g id="a_node7"><a xlink:title="ET SNMP Samsung Printer SNMP Hardcode RW Community String">
<polygon fill="none" stroke="black" stroke-width="3" stroke-dasharray="1,5" points="356.5,-708.71 18.5,-708.71 18.5,-648.71 356.5,-648.71 356.5,-708.71"/>
<text text-anchor="middle" x="187.5" y="-685.51" font-family="Arial" font-size="24.00">REMOTE SERVICE EXPLOIT</text>
<text text-anchor="middle" x="187.5" y="-659.51" font-family="Arial" font-size="24.00">snmp | ID: 1189</text>
</a>
</g>
</g>
<!-- ARBITRARY CODE EXECUTION
pop3 | ID: 1525&#45;&gt;REMOTE SERVICE EXPLOIT
snmp | ID: 1189 -->
<g id="edge5" class="edge">
<title>ARBITRARY CODE EXECUTION
pop3 | ID: 1525&#45;&gt;REMOTE SERVICE EXPLOIT
snmp | ID: 1189</title>
<path fill="none" stroke="blue" stroke-width="5" d="M187.5,-563.99C187.5,-585.48 187.5,-614.91 187.5,-638.45"/>
<polygon fill="blue" stroke="blue" stroke-width="5" points="183.13,-638.46 187.5,-648.46 191.88,-638.46 183.13,-638.46"/>
<text text-anchor="middle" x="319" y="-621.71" font-family="Arial" font-size="20.00" fill="blue">start_next: 04/11/17, 14:01:35</text>
<text text-anchor="middle" x="319" y="-599.71" font-family="Arial" font-size="20.00" fill="blue">gap: &#45;81sec</text>
<text text-anchor="middle" x="319" y="-577.71" font-family="Arial" font-size="20.00" fill="blue">end_prev: 04/11/17, 14:02:56</text>
</g>
<!-- ACCOUNT MANIPULATION
snmp | ID: 712 -->
<g id="node8" class="node">
<title>ACCOUNT MANIPULATION
snmp | ID: 712</title>
<g id="a_node8"><a xlink:title="GPL SNMP public access udp">
<polygon fill="none" stroke="black" stroke-width="3" stroke-dasharray="1,5" points="347.5,-866.13 27.5,-866.13 27.5,-806.13 347.5,-806.13 347.5,-866.13"/>
<text text-anchor="middle" x="187.5" y="-842.93" font-family="Arial" font-size="24.00">ACCOUNT MANIPULATION</text>
<text text-anchor="middle" x="187.5" y="-816.93" font-family="Arial" font-size="24.00">snmp | ID: 712</text>
</a>
</g>
</g>
<!-- REMOTE SERVICE EXPLOIT
snmp | ID: 1189&#45;&gt;ACCOUNT MANIPULATION
snmp | ID: 712 -->
<g id="edge6" class="edge">
<title>REMOTE SERVICE EXPLOIT
snmp | ID: 1189&#45;&gt;ACCOUNT MANIPULATION
snmp | ID: 712</title>
<path fill="none" stroke="blue" stroke-width="5" d="M187.5,-708.94C187.5,-733.47 187.5,-768.73 187.5,-795.75"/>
<polygon fill="blue" stroke="blue" stroke-width="5" points="183.13,-796.03 187.5,-806.03 191.88,-796.03 183.13,-796.03"/>
<text text-anchor="middle" x="319" y="-769.71" font-family="Arial" font-size="20.00" fill="blue">start_next: 04/11/17, 14:02:21</text>
<text text-anchor="middle" x="319" y="-747.71" font-family="Arial" font-size="20.00" fill="blue">gap: 46sec</text>
<text text-anchor="middle" x="319" y="-725.71" font-family="Arial" font-size="20.00" fill="blue">end_prev: 04/11/17, 14:01:35</text>
</g>
<!-- COMMAND AND CONTROL
smtp | ID: 250 -->
<g id="node9" class="node">
<title>COMMAND AND CONTROL
smtp | ID: 250</title>
<g id="a_node9"><a xlink:title="ET EXPLOIT Possible SpamAssassin Milter Plugin Remote Arbitrary Command Injection Attempt">
<polygon fill="none" stroke="black" stroke-width="3" points="349,-1020.56 26,-1020.56 26,-960.56 349,-960.56 349,-1020.56"/>
<text text-anchor="middle" x="187.5" y="-997.36" font-family="Arial" font-size="24.00">COMMAND AND CONTROL</text>
<text text-anchor="middle" x="187.5" y="-971.36" font-family="Arial" font-size="24.00">smtp | ID: 250</text>
</a>
</g>
</g>
<!-- ACCOUNT MANIPULATION
snmp | ID: 712&#45;&gt;COMMAND AND CONTROL
smtp | ID: 250 -->
<g id="edge7" class="edge">
<title>ACCOUNT MANIPULATION
snmp | ID: 712&#45;&gt;COMMAND AND CONTROL
smtp | ID: 250</title>
<path fill="none" stroke="blue" stroke-width="5" d="M187.5,-866.16C187.5,-890.03 187.5,-924.08 187.5,-950.36"/>
<polygon fill="blue" stroke="blue" stroke-width="5" points="183.13,-950.38 187.5,-960.38 191.88,-950.38 183.13,-950.38"/>
<text text-anchor="middle" x="319" y="-936.56" font-family="Arial" font-size="20.00" fill="blue">start_next: 04/11/17, 14:02:38</text>
<text text-anchor="middle" x="319" y="-914.56" font-family="Arial" font-size="20.00" fill="blue">gap: 7sec</text>
<text text-anchor="middle" x="319" y="-892.56" font-family="Arial" font-size="20.00" fill="blue">end_prev: 04/11/17, 14:02:31</text>
</g>
<!-- DATA EXFILTRATION
http | ID: 26 -->
<g id="node10" class="node">
<title>DATA EXFILTRATION
http | ID: 26</title>
<g id="a_node10"><a xlink:title="ET WEB_SPECIFIC_APPS PHP&#45;CGI query string parameter vulnerability&#10;ET WEB_SERVER Tilde in URI &#45; potential .php~ source disclosure vulnerability&#10;ET CURRENT_EVENTS Possible TLS HeartBleed Unencrypted Request Method 3 (Inbound to Common SSL Port)">
<polygon fill="none" stroke="black" stroke-width="3" points="528.38,-1151.55 425.94,-1200.53 221.06,-1200.53 118.62,-1151.55 221.06,-1102.57 425.94,-1102.57 528.38,-1151.55"/>
<text text-anchor="middle" x="323.5" y="-1158.35" font-family="Arial" font-size="24.00">DATA EXFILTRATION</text>
<text text-anchor="middle" x="323.5" y="-1132.35" font-family="Arial" font-size="24.00">http | ID: 26</text>
</a>
</g>
</g>
<!-- COMMAND AND CONTROL
smtp | ID: 250&#45;&gt;DATA EXFILTRATION
http | ID: 26 -->
<g id="edge8" class="edge">
<title>COMMAND AND CONTROL
smtp | ID: 250&#45;&gt;DATA EXFILTRATION
http | ID: 26</title>
<path fill="none" stroke="blue" stroke-width="5" d="M180.79,-1020.82C177.43,-1043 176.76,-1073.2 191.5,-1094.56 193.48,-1097.43 195.64,-1100.15 197.95,-1102.73"/>
<polygon fill="blue" stroke="blue" stroke-width="5" points="195.14,-1106.11 205.31,-1110.07 201.32,-1099.91 195.14,-1106.11"/>
<text text-anchor="middle" x="323" y="-1078.56" font-family="Arial" font-size="20.00" fill="blue">start_next: 04/11/17, 14:03:22</text>
<text text-anchor="middle" x="323" y="-1056.56" font-family="Arial" font-size="20.00" fill="blue">gap: 44sec</text>
<text text-anchor="middle" x="323" y="-1034.56" font-family="Arial" font-size="20.00" fill="blue">end_prev: 04/11/17, 14:02:38</text>
</g>
<!-- DATA EXFILTRATION
http | ID: 26&#45;&gt;VULNERABILTY DISCOVERY
ms&#45;sql&#45;s -->
<g id="edge9" class="edge">
<title>DATA EXFILTRATION
http | ID: 26&#45;&gt;VULNERABILTY DISCOVERY
ms&#45;sql&#45;s</title>
<path fill="none" stroke="blue" stroke-width="5" d="M438.96,-1108.62C443.61,-1104.37 447.85,-1099.7 451.5,-1094.56 478.1,-1057.13 459.5,-1037.47 459.5,-991.56 459.5,-390.71 459.5,-390.71 459.5,-390.71 459.5,-352.38 459.5,-309.09 459.5,-276.27"/>
<polygon fill="blue" stroke="blue" stroke-width="5" points="463.88,-276 459.5,-266 455.13,-276 463.88,-276"/>
<text text-anchor="middle" x="591" y="-695.71" font-family="Arial" font-size="20.00" fill="blue">start_next: 04/11/17, 16:27:25</text>
<text text-anchor="middle" x="591" y="-673.71" font-family="Arial" font-size="20.00" fill="blue">gap: 8574sec</text>
<text text-anchor="middle" x="591" y="-651.71" font-family="Arial" font-size="20.00" fill="blue">end_prev: 04/11/17, 14:04:31</text>
</g>
<!-- ARBITRARY CODE EXECUTION
ssdp | ID: 355 -->
<g id="node12" class="node">
<title>ARBITRARY CODE EXECUTION
ssdp | ID: 355</title>
<g id="a_node12"><a xlink:title="GPL MISC UPnP malformed advertisement&#10;GPL POP3 POP3 PASS overflow attempt">
<polygon fill="none" stroke="black" stroke-width="3" points="948,-563.71 573,-563.71 573,-503.71 948,-503.71 948,-563.71"/>
<text text-anchor="middle" x="760.5" y="-540.51" font-family="Arial" font-size="24.00">ARBITRARY CODE EXECUTION</text>
<text text-anchor="middle" x="760.5" y="-514.51" font-family="Arial" font-size="24.00">ssdp | ID: 355</text>
</a>
</g>
</g>
<!-- BRUTE FORCE CREDENTIALS
pop3 | ID: 887&#45;&gt;ARBITRARY CODE EXECUTION
ssdp | ID: 355 -->
<g id="edge11" class="edge">
<title>BRUTE FORCE CREDENTIALS
pop3 | ID: 887&#45;&gt;ARBITRARY CODE EXECUTION
ssdp | ID: 355</title>
<path fill="none" stroke="blue" stroke-width="5" d="M696.28,-421.71C708.47,-442.78 725.09,-471.51 738.37,-494.45"/>
<polygon fill="blue" stroke="blue" stroke-width="5" points="734.66,-496.79 743.46,-503.25 742.24,-492.41 734.66,-496.79"/>
<text text-anchor="middle" x="871" y="-479.71" font-family="Arial" font-size="20.00" fill="blue">start_next: 04/11/17, 16:29:10</text>
<text text-anchor="middle" x="871" y="-457.71" font-family="Arial" font-size="20.00" fill="blue">gap: 78sec</text>
<text text-anchor="middle" x="871" y="-435.71" font-family="Arial" font-size="20.00" fill="blue">end_prev: 04/11/17, 16:27:53</text>
</g>
<!-- REMOTE SERVICE EXPLOIT
snmp | ID: 52 -->
<g id="node13" class="node">
<title>REMOTE SERVICE EXPLOIT
snmp | ID: 52</title>
<g id="a_node13"><a xlink:title="ET SNMP Samsung Printer SNMP Hardcode RW Community String">
<polygon fill="none" stroke="black" stroke-width="3" points="1067.5,-708.71 729.5,-708.71 729.5,-648.71 1067.5,-648.71 1067.5,-708.71"/>
<text text-anchor="middle" x="898.5" y="-685.51" font-family="Arial" font-size="24.00">REMOTE SERVICE EXPLOIT</text>
<text text-anchor="middle" x="898.5" y="-659.51" font-family="Arial" font-size="24.00">snmp | ID: 52</text>
</a>
</g>
</g>
<!-- ARBITRARY CODE EXECUTION
ssdp | ID: 355&#45;&gt;REMOTE SERVICE EXPLOIT
snmp | ID: 52 -->
<g id="edge12" class="edge">
<title>ARBITRARY CODE EXECUTION
ssdp | ID: 355&#45;&gt;REMOTE SERVICE EXPLOIT
snmp | ID: 52</title>
<path fill="none" stroke="blue" stroke-width="5" d="M788.76,-563.99C810.34,-586.35 840.21,-617.3 863.33,-641.27"/>
<polygon fill="blue" stroke="blue" stroke-width="5" points="860.19,-644.3 870.28,-648.46 866.48,-638.23 860.19,-644.3"/>
<text text-anchor="middle" x="990" y="-621.71" font-family="Arial" font-size="20.00" fill="blue">start_next: 04/11/17, 16:29:40</text>
<text text-anchor="middle" x="990" y="-599.71" font-family="Arial" font-size="20.00" fill="blue">gap: &#45;75sec</text>
<text text-anchor="middle" x="990" y="-577.71" font-family="Arial" font-size="20.00" fill="blue">end_prev: 04/11/17, 16:30:55</text>
</g>
<!-- INFO DISCOVERY
xdmcp -->
<g id="node14" class="node">
<title>INFO DISCOVERY
xdmcp</title>
<g id="a_node14"><a xlink:title="GPL RPC xdmcp info query">
<ellipse fill="none" stroke="black" stroke-width="3" cx="899.5" cy="-836.13" rx="156.04" ry="42.35"/>
<text text-anchor="middle" x="899.5" y="-842.93" font-family="Arial" font-size="24.00">INFO DISCOVERY</text>
<text text-anchor="middle" x="899.5" y="-816.93" font-family="Arial" font-size="24.00">xdmcp</text>
</a>
</g>
</g>
<!-- REMOTE SERVICE EXPLOIT
snmp | ID: 52&#45;&gt;INFO DISCOVERY
xdmcp -->
<g id="edge13" class="edge">
<title>REMOTE SERVICE EXPLOIT
snmp | ID: 52&#45;&gt;INFO DISCOVERY
xdmcp</title>
<path fill="none" stroke="blue" stroke-width="5" d="M898.69,-708.94C898.82,-729.79 899.01,-758.4 899.17,-783.1"/>
<polygon fill="blue" stroke="blue" stroke-width="5" points="894.79,-783.44 899.23,-793.42 903.54,-783.39 894.79,-783.44"/>
<text text-anchor="middle" x="1031" y="-769.71" font-family="Arial" font-size="20.00" fill="blue">start_next: 04/11/17, 16:29:40</text>
<text text-anchor="middle" x="1031" y="-747.71" font-family="Arial" font-size="20.00" fill="blue">gap: 0sec</text>
<text text-anchor="middle" x="1031" y="-725.71" font-family="Arial" font-size="20.00" fill="blue">end_prev: 04/11/17, 16:29:40</text>
</g>
<!-- ACCOUNT MANIPULATION
snmp | ID: 413 -->
<g id="node15" class="node">
<title>ACCOUNT MANIPULATION
snmp | ID: 413</title>
<g id="a_node15"><a xlink:title="GPL SNMP private access udp&#10;GPL SNMP public access udp">
<polygon fill="none" stroke="black" stroke-width="3" stroke-dasharray="1,5" points="1061.5,-1020.56 741.5,-1020.56 741.5,-960.56 1061.5,-960.56 1061.5,-1020.56"/>
<text text-anchor="middle" x="901.5" y="-997.36" font-family="Arial" font-size="24.00">ACCOUNT MANIPULATION</text>
<text text-anchor="middle" x="901.5" y="-971.36" font-family="Arial" font-size="24.00">snmp | ID: 413</text>
</a>
</g>
</g>
<!-- INFO DISCOVERY
xdmcp&#45;&gt;ACCOUNT MANIPULATION
snmp | ID: 413 -->
<g id="edge14" class="edge">
<title>INFO DISCOVERY
xdmcp&#45;&gt;ACCOUNT MANIPULATION
snmp | ID: 413</title>
<path fill="none" stroke="blue" stroke-width="5" d="M900.05,-878.78C900.34,-901.05 900.7,-928.32 900.98,-950.23"/>
<polygon fill="blue" stroke="blue" stroke-width="5" points="896.61,-950.57 901.12,-960.51 905.36,-950.45 896.61,-950.57"/>
<text text-anchor="middle" x="1033" y="-936.56" font-family="Arial" font-size="20.00" fill="blue">start_next: 04/11/17, 16:30:21</text>
<text text-anchor="middle" x="1033" y="-914.56" font-family="Arial" font-size="20.00" fill="blue">gap: 37sec</text>
<text text-anchor="middle" x="1033" y="-892.56" font-family="Arial" font-size="20.00" fill="blue">end_prev: 04/11/17, 16:29:44</text>
</g>
<!-- ACCOUNT MANIPULATION
snmp | ID: 413&#45;&gt;DATA EXFILTRATION
smtp | ID: 74 -->
<g id="edge15" class="edge">
<title>ACCOUNT MANIPULATION
snmp | ID: 413&#45;&gt;DATA EXFILTRATION
smtp | ID: 74</title>
<path fill="none" stroke="blue" stroke-width="5" d="M909.47,-1020.71C916.83,-1043.12 929.65,-1073.69 949.5,-1094.56 949.74,-1094.81 949.99,-1095.07 950.23,-1095.32"/>
<polygon fill="blue" stroke="blue" stroke-width="5" points="947.42,-1098.69 957.69,-1102.39 953.44,-1092.33 947.42,-1098.69"/>
<text text-anchor="middle" x="1081" y="-1078.56" font-family="Arial" font-size="20.00" fill="blue">start_next: 04/11/17, 16:31:24</text>
<text text-anchor="middle" x="1081" y="-1056.56" font-family="Arial" font-size="20.00" fill="blue">gap: 51sec</text>
<text text-anchor="middle" x="1081" y="-1034.56" font-family="Arial" font-size="20.00" fill="blue">end_prev: 04/11/17, 16:30:33</text>
</g>
<!-- VULNERABILTY DISCOVERY
ncube&#45;lm -->
<g id="node16" class="node">
<title>VULNERABILTY DISCOVERY
ncube&#45;lm</title>
<g id="a_node16"><a xlink:title="ET CURRENT_EVENTS Malformed HeartBeat Request&#10;ET POLICY Suspicious inbound to mySQL port 3306&#10;ET POLICY Suspicious inbound to Oracle SQL port 1521&#10;ET POLICY Suspicious inbound to PostgreSQL port 5432">
<ellipse fill="yellow" stroke="black" stroke-width="3" cx="1243.5" cy="-223.28" rx="241.25" ry="42.35"/>
<text text-anchor="middle" x="1243.5" y="-230.08" font-family="Arial" font-size="24.00">VULNERABILTY DISCOVERY</text>
<text text-anchor="middle" x="1243.5" y="-204.08" font-family="Arial" font-size="24.00">ncube&#45;lm</text>
</a>
</g>
</g>
<!-- BRUTE FORCE CREDENTIALS
pop3 | ID: 1800 -->
<g id="node17" class="node">
<title>BRUTE FORCE CREDENTIALS
pop3 | ID: 1800</title>
<g id="a_node17"><a xlink:title="ET SCAN Rapid POP3 Connections &#45; Possible Brute Force Attack&#10;ET SCAN Rapid IMAP Connections &#45; Possible Brute Force Attack">
<polygon fill="none" stroke="black" stroke-width="3" stroke-dasharray="1,5" points="1424.5,-421.71 1062.5,-421.71 1062.5,-361.71 1424.5,-361.71 1424.5,-421.71"/>
<text text-anchor="middle" x="1243.5" y="-398.51" font-family="Arial" font-size="24.00">BRUTE FORCE CREDENTIALS</text>
<text text-anchor="middle" x="1243.5" y="-372.51" font-family="Arial" font-size="24.00">pop3 | ID: 1800</text>
</a>
</g>
</g>
<!-- VULNERABILTY DISCOVERY
ncube&#45;lm&#45;&gt;BRUTE FORCE CREDENTIALS
pop3 | ID: 1800 -->
<g id="edge16" class="edge">
<title>VULNERABILTY DISCOVERY
ncube&#45;lm&#45;&gt;BRUTE FORCE CREDENTIALS
pop3 | ID: 1800</title>
<path fill="none" stroke="blue" stroke-width="5" d="M1243.5,-265.85C1243.5,-292.08 1243.5,-325.75 1243.5,-351.51"/>
<polygon fill="blue" stroke="blue" stroke-width="5" points="1239.13,-351.67 1243.5,-361.67 1247.88,-351.67 1239.13,-351.67"/>
<text text-anchor="start" x="1243.5" y="-338.71" font-family="Arial" font-size="20.00" fill="blue"> start_next: 04/11/17, 17:58:41</text>
<text text-anchor="start" x="1319.5" y="-318.71" font-family="Arial" font-size="20.00" fill="blue">gap: &#45;221sec</text>
<text text-anchor="start" x="1247.5" y="-298.71" font-family="Arial" font-size="20.00" fill="blue">end_prev: 04/11/17, 18:02:22</text>
<text text-anchor="start" x="1278" y="-278.71" font-family="Arial" font-weight="bold" font-size="20.00" fill="blue">Attacker: 10.0.254.31</text>
</g>
<!-- ARBITRARY CODE EXECUTION
ssdp | ID: 1632 -->
<g id="node18" class="node">
<title>ARBITRARY CODE EXECUTION
ssdp | ID: 1632</title>
<g id="a_node18"><a xlink:title="GPL MISC UPnP malformed advertisement&#10;GPL POP3 POP3 PASS overflow attempt">
<polygon fill="none" stroke="black" stroke-width="3" stroke-dasharray="1,5" points="1431,-563.71 1056,-563.71 1056,-503.71 1431,-503.71 1431,-563.71"/>
<text text-anchor="middle" x="1243.5" y="-540.51" font-family="Arial" font-size="24.00">ARBITRARY CODE EXECUTION</text>
<text text-anchor="middle" x="1243.5" y="-514.51" font-family="Arial" font-size="24.00">ssdp | ID: 1632</text>
</a>
</g>
</g>
<!-- BRUTE FORCE CREDENTIALS
pop3 | ID: 1800&#45;&gt;ARBITRARY CODE EXECUTION
ssdp | ID: 1632 -->
<g id="edge17" class="edge">
<title>BRUTE FORCE CREDENTIALS
pop3 | ID: 1800&#45;&gt;ARBITRARY CODE EXECUTION
ssdp | ID: 1632</title>
<path fill="none" stroke="blue" stroke-width="5" d="M1243.5,-421.71C1243.5,-442.41 1243.5,-470.49 1243.5,-493.23"/>
<polygon fill="blue" stroke="blue" stroke-width="5" points="1239.13,-493.25 1243.5,-503.25 1247.88,-493.25 1239.13,-493.25"/>
<text text-anchor="middle" x="1375" y="-479.71" font-family="Arial" font-size="20.00" fill="blue">start_next: 04/11/17, 18:00:16</text>
<text text-anchor="middle" x="1375" y="-457.71" font-family="Arial" font-size="20.00" fill="blue">gap: &#45;41sec</text>
<text text-anchor="middle" x="1375" y="-435.71" font-family="Arial" font-size="20.00" fill="blue">end_prev: 04/11/17, 18:00:56</text>
</g>
<!-- REMOTE SERVICE EXPLOIT
snmp | ID: 1376 -->
<g id="node19" class="node">
<title>REMOTE SERVICE EXPLOIT
snmp | ID: 1376</title>
<g id="a_node19"><a xlink:title="ET SNMP Samsung Printer SNMP Hardcode RW Community String">
<polygon fill="none" stroke="black" stroke-width="3" stroke-dasharray="1,5" points="1412.5,-708.71 1074.5,-708.71 1074.5,-648.71 1412.5,-648.71 1412.5,-708.71"/>
<text text-anchor="middle" x="1243.5" y="-685.51" font-family="Arial" font-size="24.00">REMOTE SERVICE EXPLOIT</text>
<text text-anchor="middle" x="1243.5" y="-659.51" font-family="Arial" font-size="24.00">snmp | ID: 1376</text>
</a>
</g>
</g>
<!-- ARBITRARY CODE EXECUTION
ssdp | ID: 1632&#45;&gt;REMOTE SERVICE EXPLOIT
snmp | ID: 1376 -->
<g id="edge18" class="edge">
<title>ARBITRARY CODE EXECUTION
ssdp | ID: 1632&#45;&gt;REMOTE SERVICE EXPLOIT
snmp | ID: 1376</title>
<path fill="none" stroke="blue" stroke-width="5" d="M1243.5,-563.99C1243.5,-585.48 1243.5,-614.91 1243.5,-638.45"/>
<polygon fill="blue" stroke="blue" stroke-width="5" points="1239.13,-638.46 1243.5,-648.46 1247.88,-638.46 1239.13,-638.46"/>
<text text-anchor="middle" x="1375" y="-621.71" font-family="Arial" font-size="20.00" fill="blue">start_next: 04/11/17, 18:00:43</text>
<text text-anchor="middle" x="1375" y="-599.71" font-family="Arial" font-size="20.00" fill="blue">gap: &#45;61sec</text>
<text text-anchor="middle" x="1375" y="-577.71" font-family="Arial" font-size="20.00" fill="blue">end_prev: 04/11/17, 18:01:44</text>
</g>
<!-- ACCOUNT MANIPULATION
snmp | ID: 975 -->
<g id="node20" class="node">
<title>ACCOUNT MANIPULATION
snmp | ID: 975</title>
<g id="a_node20"><a xlink:title="GPL SNMP public access udp">
<polygon fill="none" stroke="black" stroke-width="3" stroke-dasharray="1,5" points="1402.5,-866.13 1082.5,-866.13 1082.5,-806.13 1402.5,-806.13 1402.5,-866.13"/>
<text text-anchor="middle" x="1242.5" y="-842.93" font-family="Arial" font-size="24.00">ACCOUNT MANIPULATION</text>
<text text-anchor="middle" x="1242.5" y="-816.93" font-family="Arial" font-size="24.00">snmp | ID: 975</text>
</a>
</g>
</g>
<!-- REMOTE SERVICE EXPLOIT
snmp | ID: 1376&#45;&gt;ACCOUNT MANIPULATION
snmp | ID: 975 -->
<g id="edge19" class="edge">
<title>REMOTE SERVICE EXPLOIT
snmp | ID: 1376&#45;&gt;ACCOUNT MANIPULATION
snmp | ID: 975</title>
<path fill="none" stroke="blue" stroke-width="5" d="M1243.31,-708.94C1243.15,-733.47 1242.93,-768.73 1242.75,-795.75"/>
<polygon fill="blue" stroke="blue" stroke-width="5" points="1238.38,-796 1242.69,-806.03 1247.13,-796.06 1238.38,-796"/>
<text text-anchor="middle" x="1375" y="-769.71" font-family="Arial" font-size="20.00" fill="blue">start_next: 04/11/17, 18:01:25</text>
<text text-anchor="middle" x="1375" y="-747.71" font-family="Arial" font-size="20.00" fill="blue">gap: 42sec</text>
<text text-anchor="middle" x="1375" y="-725.71" font-family="Arial" font-size="20.00" fill="blue">end_prev: 04/11/17, 18:00:43</text>
</g>
<!-- COMMAND AND CONTROL
smtp | ID: 414 -->
<g id="node21" class="node">
<title>COMMAND AND CONTROL
smtp | ID: 414</title>
<g id="a_node21"><a xlink:title="ET EXPLOIT Possible SpamAssassin Milter Plugin Remote Arbitrary Command Injection Attempt">
<polygon fill="none" stroke="black" stroke-width="3" stroke-dasharray="1,5" points="1400,-1020.56 1077,-1020.56 1077,-960.56 1400,-960.56 1400,-1020.56"/>
<text text-anchor="middle" x="1238.5" y="-997.36" font-family="Arial" font-size="24.00">COMMAND AND CONTROL</text>
<text text-anchor="middle" x="1238.5" y="-971.36" font-family="Arial" font-size="24.00">smtp | ID: 414</text>
</a>
</g>
</g>
<!-- ACCOUNT MANIPULATION
snmp | ID: 975&#45;&gt;COMMAND AND CONTROL
smtp | ID: 414 -->
<g id="edge20" class="edge">
<title>ACCOUNT MANIPULATION
snmp | ID: 975&#45;&gt;COMMAND AND CONTROL
smtp | ID: 414</title>
<path fill="none" stroke="blue" stroke-width="5" d="M1241.74,-866.16C1241.11,-890.03 1240.22,-924.08 1239.53,-950.36"/>
<polygon fill="blue" stroke="blue" stroke-width="5" points="1235.15,-950.27 1239.27,-960.38 1243.9,-950.5 1235.15,-950.27"/>
<text text-anchor="middle" x="1373" y="-936.56" font-family="Arial" font-size="20.00" fill="blue">start_next: 04/11/17, 18:01:56</text>
<text text-anchor="middle" x="1373" y="-914.56" font-family="Arial" font-size="20.00" fill="blue">gap: 21sec</text>
<text text-anchor="middle" x="1373" y="-892.56" font-family="Arial" font-size="20.00" fill="blue">end_prev: 04/11/17, 18:01:35</text>
</g>
<!-- COMMAND AND CONTROL
smtp | ID: 414&#45;&gt;DATA EXFILTRATION
smtp | ID: 74 -->
<g id="edge21" class="edge">
<title>COMMAND AND CONTROL
smtp | ID: 414&#45;&gt;DATA EXFILTRATION
smtp | ID: 74</title>
<path fill="none" stroke="blue" stroke-width="5" d="M1237.31,-1020.79C1234.88,-1043.55 1228.08,-1074.54 1209.5,-1094.56 1204.44,-1100.01 1198.82,-1104.92 1192.78,-1109.36"/>
<polygon fill="blue" stroke="blue" stroke-width="5" points="1190.13,-1105.88 1184.33,-1115.13 1195.05,-1113.11 1190.13,-1105.88"/>
<text text-anchor="middle" x="1368" y="-1078.56" font-family="Arial" font-size="20.00" fill="blue">start_next: 04/11/17, 18:02:22</text>
<text text-anchor="middle" x="1368" y="-1056.56" font-family="Arial" font-size="20.00" fill="blue">gap: 26sec</text>
<text text-anchor="middle" x="1368" y="-1034.56" font-family="Arial" font-size="20.00" fill="blue">end_prev: 04/11/17, 18:01:56</text>
</g>
</g>
</svg>
