<?xml version="1.0" encoding="UTF-8" standalone="no"?>
<!DOCTYPE svg PUBLIC "-//W3C//DTD SVG 1.1//EN"
 "http://www.w3.org/Graphics/SVG/1.1/DTD/svg11.dtd">
<!-- Generated by graphviz version 2.50.0 (0)
 -->
<!-- Title: DATADELIVERYhttp Pages: 1 -->
<svg width="2033pt" height="2166pt"
 viewBox="0.00 0.00 2032.50 2166.26" xmlns="http://www.w3.org/2000/svg" xmlns:xlink="http://www.w3.org/1999/xlink">
<g id="graph0" class="graph" transform="scale(1 1) rotate(0) translate(4 2162.26)">
<title>DATADELIVERYhttp</title>
<polygon fill="white" stroke="transparent" points="-4,4 -4,-2162.26 2028.5,-2162.26 2028.5,4 -4,4"/>
<!-- Victim: 10.0.0.110
DATA DELIVERY
http -->
<g id="node1" class="node">
<title>Victim: 10.0.0.110
DATA DELIVERY
http</title>
<polygon fill="salmon" stroke="black" stroke-width="3" points="1747.89,-2061.24 1747.89,-2115.63 1654.53,-2154.09 1522.48,-2154.09 1429.12,-2115.63 1429.12,-2061.24 1522.48,-2022.78 1654.53,-2022.78 1747.89,-2061.24"/>
<polygon fill="none" stroke="black" stroke-width="3" points="1751.9,-2058.57 1751.9,-2118.3 1655.32,-2158.08 1521.69,-2158.08 1425.11,-2118.3 1425.11,-2058.57 1521.69,-2018.79 1655.32,-2018.79 1751.9,-2058.57"/>
<text text-anchor="middle" x="1588.5" y="-2108.24" font-family="Arial" font-size="24.00">Victim: 10.0.0.110</text>
<text text-anchor="middle" x="1588.5" y="-2082.24" font-family="Arial" font-size="24.00">DATA DELIVERY</text>
<text text-anchor="middle" x="1588.5" y="-2056.24" font-family="Arial" font-size="24.00">http</text>
</g>
<!-- DATA DELIVERY
http | ID: 21 -->
<g id="node2" class="node">
<title>DATA DELIVERY
http | ID: 21</title>
<g id="a_node2"><a xlink:title="ET WEB_SERVER PHP Possible php Remote File Inclusion Attempt&#10;ET WEB_SERVER PHP tags in HTTP POST">
<polygon fill="salmon" stroke="black" stroke-width="3" points="1585.6,-1952.62 1504.05,-2001.6 1340.96,-2001.6 1259.41,-1952.62 1340.96,-1903.64 1504.05,-1903.64 1585.6,-1952.62"/>
<text text-anchor="middle" x="1422.5" y="-1959.42" font-family="Arial" font-size="24.00">DATA DELIVERY</text>
<text text-anchor="middle" x="1422.5" y="-1933.42" font-family="Arial" font-size="24.00">http | ID: 21</text>
</a>
</g>
</g>
<!-- DATA DELIVERY
http | ID: 21&#45;&gt;Victim: 10.0.0.110
DATA DELIVERY
http -->
<g id="edge1" class="edge">
<title>DATA DELIVERY
http | ID: 21&#45;&gt;Victim: 10.0.0.110
DATA DELIVERY
http</title>
<path fill="none" stroke="black" stroke-width="5" d="M1482.43,-2001.93C1488.57,-2006.88 1494.89,-2011.98 1501.25,-2017.1"/>
<polygon fill="black" stroke="black" stroke-width="5" points="1498.77,-2020.72 1509.3,-2023.59 1504.26,-2013.91 1498.77,-2020.72"/>
</g>
<!-- DATA DELIVERY
http | ID: 246 -->
<g id="node3" class="node">
<title>DATA DELIVERY
http | ID: 246</title>
<g id="a_node3"><a xlink:title="ET WEB_SERVER PHP Possible php Remote File Inclusion Attempt&#10;ET WEB_SERVER PHP tags in HTTP POST&#10;GPL WEB_SERVER perl post attempt">
<polygon fill="salmon" stroke="black" stroke-width="3" points="1919.6,-1952.62 1838.05,-2001.6 1674.96,-2001.6 1593.41,-1952.62 1674.96,-1903.64 1838.05,-1903.64 1919.6,-1952.62"/>
<text text-anchor="middle" x="1756.5" y="-1959.42" font-family="Arial" font-size="24.00">DATA DELIVERY</text>
<text text-anchor="middle" x="1756.5" y="-1933.42" font-family="Arial" font-size="24.00">http | ID: 246</text>
</a>
</g>
</g>
<!-- DATA DELIVERY
http | ID: 246&#45;&gt;Victim: 10.0.0.110
DATA DELIVERY
http -->
<g id="edge2" class="edge">
<title>DATA DELIVERY
http | ID: 246&#45;&gt;Victim: 10.0.0.110
DATA DELIVERY
http</title>
<path fill="none" stroke="black" stroke-width="5" d="M1695.85,-2001.93C1689.57,-2006.93 1683.11,-2012.08 1676.61,-2017.26"/>
<polygon fill="black" stroke="black" stroke-width="5" points="1673.46,-2014.17 1668.37,-2023.82 1678.92,-2021.02 1673.46,-2014.17"/>
</g>
<!-- VULNERABILTY DISCOVERY
ms&#45;sql&#45;s -->
<g id="node4" class="node">
<title>VULNERABILTY DISCOVERY
ms&#45;sql&#45;s</title>
<g id="a_node4"><a xlink:title="ET POLICY Suspicious inbound to MSSQL port 1433&#10;ET POLICY Suspicious inbound to Oracle SQL port 1521&#10;ET POLICY Suspicious inbound to mSQL port 4333">
<ellipse fill="yellow" stroke="black" stroke-width="3" cx="1089.5" cy="-223.28" rx="241.25" ry="42.35"/>
<text text-anchor="middle" x="1089.5" y="-230.08" font-family="Arial" font-size="24.00">VULNERABILTY DISCOVERY</text>
<text text-anchor="middle" x="1089.5" y="-204.08" font-family="Arial" font-size="24.00">ms&#45;sql&#45;s</text>
</a>
</g>
</g>
<!-- SERVICE DISCOVERY
dsd -->
<g id="node5" class="node">
<title>SERVICE DISCOVERY
dsd</title>
<g id="a_node5"><a xlink:title="ET SCAN Potential VNC Scan 5900&#45;5920">
<ellipse fill="none" stroke="black" stroke-width="3" cx="572.5" cy="-404.13" rx="189.51" ry="42.35"/>
<text text-anchor="middle" x="572.5" y="-410.93" font-family="Arial" font-size="24.00">SERVICE DISCOVERY</text>
<text text-anchor="middle" x="572.5" y="-384.93" font-family="Arial" font-size="24.00">dsd</text>
</a>
</g>
</g>
<!-- VULNERABILTY DISCOVERY
ms&#45;sql&#45;s&#45;&gt;SERVICE DISCOVERY
dsd -->
<g id="edge3" class="edge">
<title>VULNERABILTY DISCOVERY
ms&#45;sql&#45;s&#45;&gt;SERVICE DISCOVERY
dsd</title>
<path fill="none" stroke="blue" stroke-width="5" d="M861.63,-237.18C786.1,-244.57 713.03,-256.03 680.5,-273.71 647.07,-291.88 619.73,-324.99 600.93,-353.17"/>
<polygon fill="blue" stroke="blue" stroke-width="5" points="597.14,-350.96 595.37,-361.73 604.48,-355.73 597.14,-350.96"/>
<text text-anchor="start" x="680.5" y="-338.71" font-family="Arial" font-size="20.00" fill="blue"> start_next: 04/11/17, 13:19:15</text>
<text text-anchor="start" x="754" y="-318.71" font-family="Arial" font-size="20.00" fill="blue">gap: 1347sec</text>
<text text-anchor="start" x="684.5" y="-298.71" font-family="Arial" font-size="20.00" fill="blue">end_prev: 04/11/17, 12:56:48</text>
<text text-anchor="start" x="715" y="-278.71" font-family="Arial" font-weight="bold" font-size="20.00" fill="blue">Attacker: 10.0.254.31</text>
</g>
<!-- BRUTE FORCE CREDENTIALS
pop3 | ID: 382 -->
<g id="node12" class="node">
<title>BRUTE FORCE CREDENTIALS
pop3 | ID: 382</title>
<g id="a_node12"><a xlink:title="ET SCAN Rapid POP3 Connections &#45; Possible Brute Force Attack">
<polygon fill="none" stroke="black" stroke-width="3" points="1618.5,-434.13 1256.5,-434.13 1256.5,-374.13 1618.5,-374.13 1618.5,-434.13"/>
<text text-anchor="middle" x="1437.5" y="-410.93" font-family="Arial" font-size="24.00">BRUTE FORCE CREDENTIALS</text>
<text text-anchor="middle" x="1437.5" y="-384.93" font-family="Arial" font-size="24.00">pop3 | ID: 382</text>
</a>
</g>
</g>
<!-- VULNERABILTY DISCOVERY
ms&#45;sql&#45;s&#45;&gt;BRUTE FORCE CREDENTIALS
pop3 | ID: 382 -->
<g id="edge13" class="edge">
<title>VULNERABILTY DISCOVERY
ms&#45;sql&#45;s&#45;&gt;BRUTE FORCE CREDENTIALS
pop3 | ID: 382</title>
<path fill="none" stroke="blue" stroke-width="5" d="M1201.65,-261.02C1211.53,-265.02 1221.27,-269.27 1230.5,-273.71 1287.21,-300.96 1347.75,-340.12 1388.62,-368.22"/>
<polygon fill="blue" stroke="blue" stroke-width="5" points="1386.32,-371.95 1397.03,-374.04 1391.3,-364.75 1386.32,-371.95"/>
<text text-anchor="middle" x="1498" y="-330.71" font-family="Arial" font-size="20.00" fill="blue">start_next: 04/11/17, 16:29:36</text>
<text text-anchor="middle" x="1498" y="-308.71" font-family="Arial" font-size="20.00" fill="blue">gap: &#45;17sec</text>
<text text-anchor="middle" x="1498" y="-286.71" font-family="Arial" font-size="20.00" fill="blue">end_prev: 04/11/17, 16:29:53</text>
</g>
<!-- VULNERABILTY DISCOVERY
mysql -->
<g id="node20" class="node">
<title>VULNERABILTY DISCOVERY
mysql</title>
<g id="a_node20"><a xlink:title="ET POLICY Suspicious inbound to mySQL port 3306&#10;ET POLICY Suspicious inbound to MSSQL port 1433&#10;ET POLICY Suspicious inbound to Oracle SQL port 1521&#10;ET SCAN NMAP SIP Version Detect OPTIONS Scan&#10;ET POLICY Suspicious inbound to PostgreSQL port 5432">
<ellipse fill="none" stroke="black" stroke-width="3" cx="1174.5" cy="-1418.38" rx="241.25" ry="42.35"/>
<text text-anchor="middle" x="1174.5" y="-1425.18" font-family="Arial" font-size="24.00">VULNERABILTY DISCOVERY</text>
<text text-anchor="middle" x="1174.5" y="-1399.18" font-family="Arial" font-size="24.00">mysql</text>
</a>
</g>
</g>
<!-- VULNERABILTY DISCOVERY
ms&#45;sql&#45;s&#45;&gt;VULNERABILTY DISCOVERY
mysql -->
<g id="edge22" class="edge">
<title>VULNERABILTY DISCOVERY
ms&#45;sql&#45;s&#45;&gt;VULNERABILTY DISCOVERY
mysql</title>
<path fill="none" stroke="purple" stroke-width="5" d="M1144.82,-264.77C1182.47,-297.39 1225.5,-346.96 1225.5,-403.13 1225.5,-403.13 1225.5,-403.13 1225.5,-1252.52 1225.5,-1291.89 1212.07,-1334.28 1198.99,-1366.21"/>
<polygon fill="purple" stroke="purple" stroke-width="5" points="1194.81,-1364.86 1194.95,-1375.77 1202.87,-1368.26 1194.81,-1364.86"/>
<text text-anchor="middle" x="1356.5" y="-841.96" font-family="Arial" font-size="20.00" fill="purple">start_next: 04/11/17, 20:06:11</text>
<text text-anchor="middle" x="1356.5" y="-819.96" font-family="Arial" font-size="20.00" fill="purple">gap: 23170sec</text>
<text text-anchor="middle" x="1356.5" y="-797.96" font-family="Arial" font-size="20.00" fill="purple">end_prev: 04/11/17, 13:40:01</text>
</g>
<!-- VULNERABILTY DISCOVERY
postgresql -->
<g id="node6" class="node">
<title>VULNERABILTY DISCOVERY
postgresql</title>
<g id="a_node6"><a xlink:title="ET POLICY Suspicious inbound to Oracle SQL port 1521&#10;ET POLICY Suspicious inbound to mSQL port 4333&#10;ET POLICY Suspicious inbound to PostgreSQL port 5432">
<ellipse fill="none" stroke="black" stroke-width="3" cx="368.5" cy="-577.55" rx="241.25" ry="42.35"/>
<text text-anchor="middle" x="368.5" y="-584.35" font-family="Arial" font-size="24.00">VULNERABILTY DISCOVERY</text>
<text text-anchor="middle" x="368.5" y="-558.35" font-family="Arial" font-size="24.00">postgresql</text>
</a>
</g>
</g>
<!-- SERVICE DISCOVERY
dsd&#45;&gt;VULNERABILTY DISCOVERY
postgresql -->
<g id="edge4" class="edge">
<title>SERVICE DISCOVERY
dsd&#45;&gt;VULNERABILTY DISCOVERY
postgresql</title>
<path fill="none" stroke="blue" stroke-width="5" d="M524.68,-445.32C494.82,-470.41 456.24,-502.82 424.9,-529.16"/>
<polygon fill="blue" stroke="blue" stroke-width="5" points="421.94,-525.94 417.1,-535.72 427.57,-532.63 421.94,-525.94"/>
<text text-anchor="middle" x="644" y="-504.56" font-family="Arial" font-size="20.00" fill="blue">start_next: 04/11/17, 13:22:46</text>
<text text-anchor="middle" x="644" y="-482.56" font-family="Arial" font-size="20.00" fill="blue">gap: 211sec</text>
<text text-anchor="middle" x="644" y="-460.56" font-family="Arial" font-size="20.00" fill="blue">end_prev: 04/11/17, 13:19:15</text>
</g>
<!-- VULNERABILTY DISCOVERY
ncube&#45;lm -->
<g id="node7" class="node">
<title>VULNERABILTY DISCOVERY
ncube&#45;lm</title>
<g id="a_node7"><a xlink:title="ET POLICY Suspicious inbound to Oracle SQL port 1521">
<ellipse fill="none" stroke="black" stroke-width="3" cx="691.5" cy="-824.96" rx="241.25" ry="42.35"/>
<text text-anchor="middle" x="691.5" y="-831.76" font-family="Arial" font-size="24.00">VULNERABILTY DISCOVERY</text>
<text text-anchor="middle" x="691.5" y="-805.76" font-family="Arial" font-size="24.00">ncube&#45;lm</text>
</a>
</g>
</g>
<!-- VULNERABILTY DISCOVERY
postgresql&#45;&gt;VULNERABILTY DISCOVERY
ncube&#45;lm -->
<g id="edge5" class="edge">
<title>VULNERABILTY DISCOVERY
postgresql&#45;&gt;VULNERABILTY DISCOVERY
ncube&#45;lm</title>
<path fill="none" stroke="blue" stroke-width="5" d="M542.65,-607.03C573.6,-614.75 599.96,-623.96 612.5,-634.54 653.73,-669.31 673.83,-729.19 683.36,-772.32"/>
<polygon fill="blue" stroke="blue" stroke-width="5" points="679.13,-773.46 685.46,-782.35 687.7,-771.67 679.13,-773.46"/>
<text text-anchor="middle" x="791" y="-684.54" font-family="Arial" font-size="20.00" fill="blue">start_next: 04/11/17, 13:30:32</text>
<text text-anchor="middle" x="791" y="-662.54" font-family="Arial" font-size="20.00" fill="blue">gap: 463sec</text>
<text text-anchor="middle" x="791" y="-640.54" font-family="Arial" font-size="20.00" fill="blue">end_prev: 04/11/17, 13:22:49</text>
</g>
<!-- ARBITRARY CODE EXECUTION
ssdp | ID: 355 -->
<g id="node10" class="node">
<title>ARBITRARY CODE EXECUTION
ssdp | ID: 355</title>
<g id="a_node10"><a xlink:title="GPL MISC UPnP malformed advertisement">
<polygon fill="none" stroke="black" stroke-width="3" points="499,-771.54 124,-771.54 124,-711.54 499,-711.54 499,-771.54"/>
<text text-anchor="middle" x="311.5" y="-748.34" font-family="Arial" font-size="24.00">ARBITRARY CODE EXECUTION</text>
<text text-anchor="middle" x="311.5" y="-722.34" font-family="Arial" font-size="24.00">ssdp | ID: 355</text>
</a>
</g>
</g>
<!-- VULNERABILTY DISCOVERY
postgresql&#45;&gt;ARBITRARY CODE EXECUTION
ssdp | ID: 355 -->
<g id="edge9" class="edge">
<title>VULNERABILTY DISCOVERY
postgresql&#45;&gt;ARBITRARY CODE EXECUTION
ssdp | ID: 355</title>
<path fill="none" stroke="blue" stroke-width="5" d="M353.83,-620.26C345.01,-645.31 333.87,-676.97 325.23,-701.52"/>
<polygon fill="blue" stroke="blue" stroke-width="5" points="321.01,-700.34 321.82,-711.23 329.26,-703.25 321.01,-700.34"/>
<text text-anchor="middle" x="480" y="-684.54" font-family="Arial" font-size="20.00" fill="blue">start_next: 04/11/17, 14:01:53</text>
<text text-anchor="middle" x="480" y="-662.54" font-family="Arial" font-size="20.00" fill="blue">gap: 52sec</text>
<text text-anchor="middle" x="480" y="-640.54" font-family="Arial" font-size="20.00" fill="blue">end_prev: 04/11/17, 14:01:01</text>
</g>
<!-- SERVICE DISCOVERY
unknown -->
<g id="node8" class="node">
<title>SERVICE DISCOVERY
unknown</title>
<g id="a_node8"><a xlink:title="ET SCAN Potential VNC Scan 5800&#45;5820&#10;ET SCAN NMAP OS Detection Probe&#10;ET SCAN Potential VNC Scan 5900&#45;5920">
<ellipse fill="none" stroke="black" stroke-width="3" cx="677.5" cy="-1084.67" rx="189.51" ry="42.35"/>
<text text-anchor="middle" x="677.5" y="-1091.47" font-family="Arial" font-size="24.00">SERVICE DISCOVERY</text>
<text text-anchor="middle" x="677.5" y="-1065.47" font-family="Arial" font-size="24.00">unknown</text>
</a>
</g>
</g>
<!-- VULNERABILTY DISCOVERY
ncube&#45;lm&#45;&gt;SERVICE DISCOVERY
unknown -->
<g id="edge6" class="edge">
<title>VULNERABILTY DISCOVERY
ncube&#45;lm&#45;&gt;SERVICE DISCOVERY
unknown</title>
<path fill="none" stroke="blue" stroke-width="5" d="M686.21,-867.47C685.95,-870.15 685.71,-872.81 685.5,-875.39 681.25,-928.71 679.24,-989.89 678.3,-1032.08"/>
<polygon fill="blue" stroke="blue" stroke-width="5" points="673.93,-1032.03 678.09,-1042.12 682.68,-1032.21 673.93,-1032.03"/>
<text text-anchor="middle" x="817" y="-925.39" font-family="Arial" font-size="20.00" fill="blue">start_next: 04/11/17, 13:34:52</text>
<text text-anchor="middle" x="817" y="-903.39" font-family="Arial" font-size="20.00" fill="blue">gap: 256sec</text>
<text text-anchor="middle" x="817" y="-881.39" font-family="Arial" font-size="20.00" fill="blue">end_prev: 04/11/17, 13:30:36</text>
</g>
<!-- SERVICE DISCOVERY
unknown&#45;&gt;VULNERABILTY DISCOVERY
ms&#45;sql&#45;s -->
<g id="edge12" class="edge">
<title>SERVICE DISCOVERY
unknown&#45;&gt;VULNERABILTY DISCOVERY
ms&#45;sql&#45;s</title>
<path fill="none" stroke="blue" stroke-width="5" d="M807.83,-1053.69C879.29,-1028.69 953.5,-984.62 953.5,-909.39 953.5,-403.13 953.5,-403.13 953.5,-403.13 953.5,-350.69 991.01,-304 1026.63,-271.49"/>
<polygon fill="blue" stroke="blue" stroke-width="5" points="1029.62,-274.68 1034.19,-264.77 1023.81,-268.15 1029.62,-274.68"/>
<text text-anchor="middle" x="1085" y="-684.54" font-family="Arial" font-size="20.00" fill="blue">start_next: 04/11/17, 16:29:04</text>
<text text-anchor="middle" x="1085" y="-662.54" font-family="Arial" font-size="20.00" fill="blue">gap: 27sec</text>
<text text-anchor="middle" x="1085" y="-640.54" font-family="Arial" font-size="20.00" fill="blue">end_prev: 04/11/17, 16:28:37</text>
</g>
<!-- SERVICE DISCOVERY
epmap -->
<g id="node9" class="node">
<title>SERVICE DISCOVERY
epmap</title>
<g id="a_node9"><a xlink:title="ET SCAN Behavioral Unusual Port 135 traffic Potential Scan or Infection">
<ellipse fill="none" stroke="black" stroke-width="3" cx="189.5" cy="-1251.52" rx="189.51" ry="42.35"/>
<text text-anchor="middle" x="189.5" y="-1258.32" font-family="Arial" font-size="24.00">SERVICE DISCOVERY</text>
<text text-anchor="middle" x="189.5" y="-1232.32" font-family="Arial" font-size="24.00">epmap</text>
</a>
</g>
</g>
<!-- SERVICE DISCOVERY
unknown&#45;&gt;SERVICE DISCOVERY
epmap -->
<g id="edge7" class="edge">
<title>SERVICE DISCOVERY
unknown&#45;&gt;SERVICE DISCOVERY
epmap</title>
<path fill="none" stroke="blue" stroke-width="5" d="M516.75,-1107.19C480.92,-1114.22 443.49,-1123.35 409.5,-1135.1 357.36,-1153.12 302.41,-1181.94 260.47,-1206.28"/>
<polygon fill="blue" stroke="blue" stroke-width="5" points="258.14,-1202.57 251.72,-1211.4 262.56,-1210.12 258.14,-1202.57"/>
<text text-anchor="middle" x="541" y="-1185.1" font-family="Arial" font-size="20.00" fill="blue">start_next: 04/11/17, 13:59:48</text>
<text text-anchor="middle" x="541" y="-1163.1" font-family="Arial" font-size="20.00" fill="blue">gap: 1484sec</text>
<text text-anchor="middle" x="541" y="-1141.1" font-family="Arial" font-size="20.00" fill="blue">end_prev: 04/11/17, 13:35:04</text>
</g>
<!-- HOST DISCOVERY
http -->
<g id="node22" class="node">
<title>HOST DISCOVERY
http</title>
<g id="a_node22"><a xlink:title="ET SCAN Possible Nmap User&#45;Agent Observed&#10;ET SCAN Nmap Scripting Engine User&#45;Agent Detected (Nmap Scripting Engine)">
<ellipse fill="none" stroke="black" stroke-width="3" cx="671.5" cy="-1251.52" rx="162.77" ry="42.35"/>
<text text-anchor="middle" x="671.5" y="-1258.32" font-family="Arial" font-size="24.00">HOST DISCOVERY</text>
<text text-anchor="middle" x="671.5" y="-1232.32" font-family="Arial" font-size="24.00">http</text>
</a>
</g>
</g>
<!-- SERVICE DISCOVERY
unknown&#45;&gt;HOST DISCOVERY
http -->
<g id="edge27" class="edge">
<title>SERVICE DISCOVERY
unknown&#45;&gt;HOST DISCOVERY
http</title>
<path fill="none" stroke="purple" stroke-width="5" d="M675.99,-1127.27C675.2,-1148.94 674.23,-1175.65 673.39,-1198.66"/>
<polygon fill="purple" stroke="purple" stroke-width="5" points="669.01,-1198.78 673.02,-1208.94 677.75,-1199.1 669.01,-1198.78"/>
<text text-anchor="middle" x="808" y="-1185.1" font-family="Arial" font-size="20.00" fill="purple">start_next: 04/11/17, 20:25:19</text>
<text text-anchor="middle" x="808" y="-1163.1" font-family="Arial" font-size="20.00" fill="purple">gap: 10sec</text>
<text text-anchor="middle" x="808" y="-1141.1" font-family="Arial" font-size="20.00" fill="purple">end_prev: 04/11/17, 20:25:09</text>
</g>
<!-- SERVICE DISCOVERY
epmap&#45;&gt;VULNERABILTY DISCOVERY
postgresql -->
<g id="edge8" class="edge">
<title>SERVICE DISCOVERY
epmap&#45;&gt;VULNERABILTY DISCOVERY
postgresql</title>
<path fill="none" stroke="blue" stroke-width="5" d="M112.92,-1212.56C68.2,-1184.45 20.5,-1141.41 20.5,-1085.67 20.5,-740.54 20.5,-740.54 20.5,-740.54 20.5,-666.64 85.81,-626.36 159.84,-604.45"/>
<polygon fill="blue" stroke="blue" stroke-width="5" points="161.43,-608.55 169.85,-601.61 159.04,-600.13 161.43,-608.55"/>
<text text-anchor="middle" x="152" y="-925.39" font-family="Arial" font-size="20.00" fill="blue">start_next: 04/11/17, 14:00:55</text>
<text text-anchor="middle" x="152" y="-903.39" font-family="Arial" font-size="20.00" fill="blue">gap: 68sec</text>
<text text-anchor="middle" x="152" y="-881.39" font-family="Arial" font-size="20.00" fill="blue">end_prev: 04/11/17, 13:59:48</text>
</g>
<!-- REMOTE SERVICE EXPLOIT
snmp | ID: 52 -->
<g id="node11" class="node">
<title>REMOTE SERVICE EXPLOIT
snmp | ID: 52</title>
<g id="a_node11"><a xlink:title="ET SNMP Samsung Printer SNMP Hardcode RW Community String">
<polygon fill="none" stroke="black" stroke-width="3" points="628.5,-938.39 290.5,-938.39 290.5,-878.39 628.5,-878.39 628.5,-938.39"/>
<text text-anchor="middle" x="459.5" y="-915.19" font-family="Arial" font-size="24.00">REMOTE SERVICE EXPLOIT</text>
<text text-anchor="middle" x="459.5" y="-889.19" font-family="Arial" font-size="24.00">snmp | ID: 52</text>
</a>
</g>
</g>
<!-- ARBITRARY CODE EXECUTION
ssdp | ID: 355&#45;&gt;REMOTE SERVICE EXPLOIT
snmp | ID: 52 -->
<g id="edge10" class="edge">
<title>ARBITRARY CODE EXECUTION
ssdp | ID: 355&#45;&gt;REMOTE SERVICE EXPLOIT
snmp | ID: 52</title>
<path fill="none" stroke="blue" stroke-width="5" d="M193.53,-771.59C189.84,-774.87 186.47,-778.51 183.5,-782.54 161.17,-812.92 157.91,-839.69 183.5,-867.39 191.14,-875.66 273.34,-873.93 284.5,-875.39 288.17,-875.87 291.87,-876.37 295.59,-876.9"/>
<polygon fill="blue" stroke="blue" stroke-width="5" points="295,-881.23 305.52,-878.34 296.25,-872.57 295,-881.23"/>
<text text-anchor="middle" x="315" y="-841.96" font-family="Arial" font-size="20.00" fill="blue">start_next: 04/11/17, 14:02:32</text>
<text text-anchor="middle" x="315" y="-819.96" font-family="Arial" font-size="20.00" fill="blue">gap: 28sec</text>
<text text-anchor="middle" x="315" y="-797.96" font-family="Arial" font-size="20.00" fill="blue">end_prev: 04/11/17, 14:02:03</text>
</g>
<!-- REMOTE SERVICE EXPLOIT
snmp | ID: 52&#45;&gt;SERVICE DISCOVERY
unknown -->
<g id="edge11" class="edge">
<title>REMOTE SERVICE EXPLOIT
snmp | ID: 52&#45;&gt;SERVICE DISCOVERY
unknown</title>
<path fill="none" stroke="blue" stroke-width="5" d="M418.38,-938.63C415.66,-941.97 413.3,-945.56 411.5,-949.39 395.51,-983.54 387.4,-1005.24 411.5,-1034.24 423.74,-1048.96 455.12,-1059.31 492.23,-1066.59"/>
<polygon fill="blue" stroke="blue" stroke-width="5" points="491.68,-1070.94 502.31,-1068.47 493.28,-1062.34 491.68,-1070.94"/>
<text text-anchor="middle" x="543" y="-1008.82" font-family="Arial" font-size="20.00" fill="blue">start_next: 04/11/17, 16:28:37</text>
<text text-anchor="middle" x="543" y="-986.82" font-family="Arial" font-size="20.00" fill="blue">gap: 8765sec</text>
<text text-anchor="middle" x="543" y="-964.82" font-family="Arial" font-size="20.00" fill="blue">end_prev: 04/11/17, 14:02:32</text>
</g>
<!-- NETWORK DoS
ssdp | ID: 55 -->
<g id="node13" class="node">
<title>NETWORK DoS
ssdp | ID: 55</title>
<g id="a_node13"><a xlink:title="ET DOS Possible SSDP Amplification Scan in Progress">
<polygon fill="none" stroke="black" stroke-width="3" points="1614.04,-577.55 1535.77,-626.53 1379.24,-626.53 1300.97,-577.55 1379.24,-528.57 1535.77,-528.57 1614.04,-577.55"/>
<text text-anchor="middle" x="1457.5" y="-584.35" font-family="Arial" font-size="24.00">NETWORK DoS</text>
<text text-anchor="middle" x="1457.5" y="-558.35" font-family="Arial" font-size="24.00">ssdp | ID: 55</text>
</a>
</g>
</g>
<!-- BRUTE FORCE CREDENTIALS
pop3 | ID: 382&#45;&gt;NETWORK DoS
ssdp | ID: 55 -->
<g id="edge14" class="edge">
<title>BRUTE FORCE CREDENTIALS
pop3 | ID: 382&#45;&gt;NETWORK DoS
ssdp | ID: 55</title>
<path fill="none" stroke="blue" stroke-width="5" d="M1440.9,-434.21C1443.58,-457.18 1447.4,-489.97 1450.71,-518.29"/>
<polygon fill="blue" stroke="blue" stroke-width="5" points="1446.39,-519.07 1451.9,-528.5 1455.08,-518.06 1446.39,-519.07"/>
<text text-anchor="middle" x="1582" y="-504.56" font-family="Arial" font-size="20.00" fill="blue">start_next: 04/11/17, 16:30:56</text>
<text text-anchor="middle" x="1582" y="-482.56" font-family="Arial" font-size="20.00" fill="blue">gap: 80sec</text>
<text text-anchor="middle" x="1582" y="-460.56" font-family="Arial" font-size="20.00" fill="blue">end_prev: 04/11/17, 16:29:36</text>
</g>
<!-- SURFING
http -->
<g id="node14" class="node">
<title>SURFING
http</title>
<g id="a_node14"><a xlink:title="ET WEB_SERVER WEB&#45;PHP phpinfo access">
<ellipse fill="none" stroke="black" stroke-width="3" cx="1466.5" cy="-991.82" rx="88.28" ry="42.35"/>
<text text-anchor="middle" x="1466.5" y="-998.62" font-family="Arial" font-size="24.00">SURFING</text>
<text text-anchor="middle" x="1466.5" y="-972.62" font-family="Arial" font-size="24.00">http</text>
</a>
</g>
</g>
<!-- NETWORK DoS
ssdp | ID: 55&#45;&gt;SURFING
http -->
<g id="edge15" class="edge">
<title>NETWORK DoS
ssdp | ID: 55&#45;&gt;SURFING
http</title>
<path fill="none" stroke="blue" stroke-width="5" d="M1468.41,-626.54C1480.1,-683.8 1496.01,-782.49 1488.5,-867.39 1486.39,-891.27 1482.03,-917.45 1477.74,-939.52"/>
<polygon fill="blue" stroke="blue" stroke-width="5" points="1473.44,-938.69 1475.78,-949.36 1482.02,-940.4 1473.44,-938.69"/>
<text text-anchor="middle" x="1621" y="-758.54" font-family="Arial" font-size="20.00" fill="blue">start_next: 04/11/17, 16:33:10</text>
<text text-anchor="middle" x="1621" y="-736.54" font-family="Arial" font-size="20.00" fill="blue">gap: 134sec</text>
<text text-anchor="middle" x="1621" y="-714.54" font-family="Arial" font-size="20.00" fill="blue">end_prev: 04/11/17, 16:30:56</text>
</g>
<!-- DATA EXFILTRATION
http | ID: 228 -->
<g id="node15" class="node">
<title>DATA EXFILTRATION
http | ID: 228</title>
<g id="a_node15"><a xlink:title="ET WEB_SPECIFIC_APPS PHP&#45;CGI query string parameter vulnerability">
<polygon fill="none" stroke="black" stroke-width="3" points="1471.39,-1772.64 1368.95,-1821.62 1164.06,-1821.62 1061.62,-1772.64 1164.06,-1723.67 1368.95,-1723.67 1471.39,-1772.64"/>
<text text-anchor="middle" x="1266.5" y="-1779.44" font-family="Arial" font-size="24.00">DATA EXFILTRATION</text>
<text text-anchor="middle" x="1266.5" y="-1753.44" font-family="Arial" font-size="24.00">http | ID: 228</text>
</a>
</g>
</g>
<!-- SURFING
http&#45;&gt;DATA EXFILTRATION
http | ID: 228 -->
<g id="edge16" class="edge">
<title>SURFING
http&#45;&gt;DATA EXFILTRATION
http | ID: 228</title>
<path fill="none" stroke="blue" stroke-width="5" d="M1455.33,-1034.03C1446.8,-1069.13 1436.5,-1121.04 1436.5,-1167.1 1436.5,-1167.1 1436.5,-1167.1 1436.5,-1600.23 1436.5,-1648.75 1401.74,-1688.44 1363.65,-1717.37"/>
<polygon fill="blue" stroke="blue" stroke-width="5" points="1360.95,-1713.92 1355.49,-1723.37 1366.14,-1720.97 1360.95,-1713.92"/>
<text text-anchor="middle" x="1568" y="-1351.95" font-family="Arial" font-size="20.00" fill="blue">start_next: 04/11/17, 16:33:15</text>
<text text-anchor="middle" x="1568" y="-1329.95" font-family="Arial" font-size="20.00" fill="blue">gap: 5sec</text>
<text text-anchor="middle" x="1568" y="-1307.95" font-family="Arial" font-size="20.00" fill="blue">end_prev: 04/11/17, 16:33:10</text>
</g>
<!-- DATA EXFILTRATION
http | ID: 228&#45;&gt;DATA DELIVERY
http | ID: 21 -->
<g id="edge17" class="edge">
<title>DATA EXFILTRATION
http | ID: 228&#45;&gt;DATA DELIVERY
http | ID: 21</title>
<path fill="none" stroke="blue" stroke-width="5" d="M1186.3,-1822.01C1184.54,-1824.45 1182.93,-1826.99 1181.5,-1829.63 1167.59,-1855.46 1163.26,-1872.67 1181.5,-1895.63 1194.89,-1912.48 1234.7,-1924.72 1278.2,-1933.37"/>
<polygon fill="blue" stroke="blue" stroke-width="5" points="1277.48,-1937.69 1288.13,-1935.27 1279.13,-1929.09 1277.48,-1937.69"/>
<text text-anchor="middle" x="1313" y="-1879.63" font-family="Arial" font-size="20.00" fill="blue">start_next: 04/11/17, 16:33:15</text>
<text text-anchor="middle" x="1313" y="-1857.63" font-family="Arial" font-size="20.00" fill="blue">gap: &#45;2sec</text>
<text text-anchor="middle" x="1313" y="-1835.63" font-family="Arial" font-size="20.00" fill="blue">end_prev: 04/11/17, 16:33:16</text>
</g>
<!-- DATA EXFILTRATION
http | ID: 228&#45;&gt;DATA DELIVERY
http | ID: 21 -->
<g id="edge31" class="edge">
<title>DATA EXFILTRATION
http | ID: 228&#45;&gt;DATA DELIVERY
http | ID: 21</title>
<path fill="none" stroke="purple" stroke-width="5" d="M1410.75,-1801.92C1422.63,-1809.2 1433.23,-1818.3 1441.5,-1829.63 1454.82,-1847.88 1453.96,-1871.77 1448.33,-1893.56"/>
<polygon fill="purple" stroke="purple" stroke-width="5" points="1444.06,-1892.58 1445.44,-1903.41 1452.46,-1895.04 1444.06,-1892.58"/>
<text text-anchor="middle" x="1584" y="-1879.63" font-family="Arial" font-size="20.00" fill="purple">start_next: 04/11/17, 20:25:19</text>
<text text-anchor="middle" x="1584" y="-1857.63" font-family="Arial" font-size="20.00" fill="purple">gap: 0sec</text>
<text text-anchor="middle" x="1584" y="-1835.63" font-family="Arial" font-size="20.00" fill="purple">end_prev: 04/11/17, 20:25:19</text>
</g>
<!-- INFO DISCOVERY
xdmcp -->
<g id="node16" class="node">
<title>INFO DISCOVERY
xdmcp</title>
<g id="a_node16"><a xlink:title="GPL RPC xdmcp info query">
<ellipse fill="yellow" stroke="black" stroke-width="3" cx="1756.5" cy="-1418.38" rx="156.04" ry="42.35"/>
<text text-anchor="middle" x="1756.5" y="-1425.18" font-family="Arial" font-size="24.00">INFO DISCOVERY</text>
<text text-anchor="middle" x="1756.5" y="-1399.18" font-family="Arial" font-size="24.00">xdmcp</text>
</a>
</g>
</g>
<!-- REMOTE SERVICE EXPLOIT
snmp | ID: 365 -->
<g id="node17" class="node">
<title>REMOTE SERVICE EXPLOIT
snmp | ID: 365</title>
<g id="a_node17"><a xlink:title="ET SNMP Samsung Printer SNMP Hardcode RW Community String">
<polygon fill="none" stroke="black" stroke-width="3" points="1925.5,-1629.23 1587.5,-1629.23 1587.5,-1569.23 1925.5,-1569.23 1925.5,-1629.23"/>
<text text-anchor="middle" x="1756.5" y="-1606.03" font-family="Arial" font-size="24.00">REMOTE SERVICE EXPLOIT</text>
<text text-anchor="middle" x="1756.5" y="-1580.03" font-family="Arial" font-size="24.00">snmp | ID: 365</text>
</a>
</g>
</g>
<!-- INFO DISCOVERY
xdmcp&#45;&gt;REMOTE SERVICE EXPLOIT
snmp | ID: 365 -->
<g id="edge18" class="edge">
<title>INFO DISCOVERY
xdmcp&#45;&gt;REMOTE SERVICE EXPLOIT
snmp | ID: 365</title>
<path fill="none" stroke="blue" stroke-width="5" d="M1756.5,-1460.86C1756.5,-1490.36 1756.5,-1529.75 1756.5,-1558.78"/>
<polygon fill="blue" stroke="blue" stroke-width="5" points="1752.13,-1558.97 1756.5,-1568.97 1760.88,-1558.97 1752.13,-1558.97"/>
<text text-anchor="start" x="1756.5" y="-1533.8" font-family="Arial" font-size="20.00" fill="blue"> start_next: 04/11/17, 18:02:52</text>
<text text-anchor="start" x="1847" y="-1513.8" font-family="Arial" font-size="20.00" fill="blue">gap: 3sec</text>
<text text-anchor="start" x="1760.5" y="-1493.8" font-family="Arial" font-size="20.00" fill="blue">end_prev: 04/11/17, 18:02:50</text>
<text text-anchor="start" x="1791" y="-1473.8" font-family="Arial" font-weight="bold" font-size="20.00" fill="blue">Attacker: 10.0.254.31</text>
</g>
<!-- ACCOUNT MANIPULATION
snmp | ID: 53 -->
<g id="node18" class="node">
<title>ACCOUNT MANIPULATION
snmp | ID: 53</title>
<g id="a_node18"><a xlink:title="GPL SNMP private access udp&#10;GPL SNMP public access udp">
<polygon fill="none" stroke="black" stroke-width="3" points="1916.5,-1802.64 1596.5,-1802.64 1596.5,-1742.64 1916.5,-1742.64 1916.5,-1802.64"/>
<text text-anchor="middle" x="1756.5" y="-1779.44" font-family="Arial" font-size="24.00">ACCOUNT MANIPULATION</text>
<text text-anchor="middle" x="1756.5" y="-1753.44" font-family="Arial" font-size="24.00">snmp | ID: 53</text>
</a>
</g>
</g>
<!-- REMOTE SERVICE EXPLOIT
snmp | ID: 365&#45;&gt;ACCOUNT MANIPULATION
snmp | ID: 53 -->
<g id="edge19" class="edge">
<title>REMOTE SERVICE EXPLOIT
snmp | ID: 365&#45;&gt;ACCOUNT MANIPULATION
snmp | ID: 53</title>
<path fill="none" stroke="blue" stroke-width="5" d="M1756.5,-1629.31C1756.5,-1657.63 1756.5,-1700.88 1756.5,-1732.27"/>
<polygon fill="blue" stroke="blue" stroke-width="5" points="1752.13,-1732.42 1756.5,-1742.42 1760.88,-1732.42 1752.13,-1732.42"/>
<text text-anchor="middle" x="1888" y="-1699.65" font-family="Arial" font-size="20.00" fill="blue">start_next: 04/11/17, 18:03:51</text>
<text text-anchor="middle" x="1888" y="-1677.65" font-family="Arial" font-size="20.00" fill="blue">gap: 59sec</text>
<text text-anchor="middle" x="1888" y="-1655.65" font-family="Arial" font-size="20.00" fill="blue">end_prev: 04/11/17, 18:02:52</text>
</g>
<!-- ACCOUNT MANIPULATION
snmp | ID: 53&#45;&gt;DATA DELIVERY
http | ID: 246 -->
<g id="edge20" class="edge">
<title>ACCOUNT MANIPULATION
snmp | ID: 53&#45;&gt;DATA DELIVERY
http | ID: 246</title>
<path fill="none" stroke="blue" stroke-width="5" d="M1756.5,-1803.03C1756.5,-1827.52 1756.5,-1863.14 1756.5,-1893.37"/>
<polygon fill="blue" stroke="blue" stroke-width="5" points="1752.13,-1893.39 1756.5,-1903.39 1760.88,-1893.39 1752.13,-1893.39"/>
<text text-anchor="middle" x="1888" y="-1879.63" font-family="Arial" font-size="20.00" fill="blue">start_next: 04/11/17, 18:04:26</text>
<text text-anchor="middle" x="1888" y="-1857.63" font-family="Arial" font-size="20.00" fill="blue">gap: 24sec</text>
<text text-anchor="middle" x="1888" y="-1835.63" font-family="Arial" font-size="20.00" fill="blue">end_prev: 04/11/17, 18:04:03</text>
</g>
<!-- SERVICE DISCOVERY
ff&#45;ice -->
<g id="node19" class="node">
<title>SERVICE DISCOVERY
ff&#45;ice</title>
<g id="a_node19"><a xlink:title="ET SCAN Potential VNC Scan 5900&#45;5920">
<ellipse fill="yellow" stroke="black" stroke-width="3" cx="1089.5" cy="-42.43" rx="189.51" ry="42.35"/>
<text text-anchor="middle" x="1089.5" y="-49.23" font-family="Arial" font-size="24.00">SERVICE DISCOVERY</text>
<text text-anchor="middle" x="1089.5" y="-23.23" font-family="Arial" font-size="24.00">ff&#45;ice</text>
</a>
</g>
</g>
<!-- SERVICE DISCOVERY
ff&#45;ice&#45;&gt;VULNERABILTY DISCOVERY
ms&#45;sql&#45;s -->
<g id="edge21" class="edge">
<title>SERVICE DISCOVERY
ff&#45;ice&#45;&gt;VULNERABILTY DISCOVERY
ms&#45;sql&#45;s</title>
<path fill="none" stroke="purple" stroke-width="5" d="M1089.5,-84.91C1089.5,-110.44 1089.5,-143.37 1089.5,-170.59"/>
<polygon fill="purple" stroke="purple" stroke-width="5" points="1085.13,-170.71 1089.5,-180.71 1093.88,-170.71 1085.13,-170.71"/>
<text text-anchor="start" x="1089.5" y="-157.85" font-family="Arial" font-size="20.00" fill="purple"> start_next: 04/11/17, 13:40:01</text>
<text text-anchor="start" x="1169" y="-137.85" font-family="Arial" font-size="20.00" fill="purple">gap: 535sec</text>
<text text-anchor="start" x="1093.5" y="-117.85" font-family="Arial" font-size="20.00" fill="purple">end_prev: 04/11/17, 13:31:05</text>
<text text-anchor="start" x="1124" y="-97.85" font-family="Arial" font-weight="bold" font-size="20.00" fill="purple">Attacker: 10.0.254.32</text>
</g>
<!-- VULNERABILTY DISCOVERY
mysql&#45;&gt;SERVICE DISCOVERY
unknown -->
<g id="edge26" class="edge">
<title>VULNERABILTY DISCOVERY
mysql&#45;&gt;SERVICE DISCOVERY
unknown</title>
<path fill="none" stroke="purple" stroke-width="5" d="M1066.23,-1380.44C1025.59,-1361.05 983.1,-1333.01 957.5,-1293.95 918.58,-1234.56 988.69,-1187.25 940.5,-1135.1 927.73,-1121.27 896.71,-1111.25 860.26,-1104"/>
<polygon fill="purple" stroke="purple" stroke-width="5" points="861.01,-1099.69 850.37,-1102.13 859.38,-1108.29 861.01,-1099.69"/>
<text text-anchor="middle" x="1089" y="-1268.52" font-family="Arial" font-size="20.00" fill="purple">start_next: 04/11/17, 20:25:07</text>
<text text-anchor="middle" x="1089" y="-1246.52" font-family="Arial" font-size="20.00" fill="purple">gap: &#45;10sec</text>
<text text-anchor="middle" x="1089" y="-1224.52" font-family="Arial" font-size="20.00" fill="purple">end_prev: 04/11/17, 20:25:17</text>
</g>
<!-- SERVICE DISCOVERY
rfb -->
<g id="node21" class="node">
<title>SERVICE DISCOVERY
rfb</title>
<g id="a_node21"><a xlink:title="ET SCAN Potential VNC Scan 5800&#45;5820&#10;ET SCAN Potential SSH Scan&#10;ET SCAN Potential VNC Scan 5900&#45;5920">
<ellipse fill="none" stroke="black" stroke-width="3" cx="886.5" cy="-1599.23" rx="189.51" ry="42.35"/>
<text text-anchor="middle" x="886.5" y="-1606.03" font-family="Arial" font-size="24.00">SERVICE DISCOVERY</text>
<text text-anchor="middle" x="886.5" y="-1580.03" font-family="Arial" font-size="24.00">rfb</text>
</a>
</g>
</g>
<!-- VULNERABILTY DISCOVERY
mysql&#45;&gt;SERVICE DISCOVERY
rfb -->
<g id="edge23" class="edge">
<title>VULNERABILTY DISCOVERY
mysql&#45;&gt;SERVICE DISCOVERY
rfb</title>
<path fill="none" stroke="purple" stroke-width="5" d="M1110.23,-1459.29C1065.13,-1487.3 1004.79,-1524.77 958.14,-1553.74"/>
<polygon fill="purple" stroke="purple" stroke-width="5" points="955.78,-1550.06 949.59,-1559.05 960.39,-1557.49 955.78,-1550.06"/>
<text text-anchor="middle" x="1221" y="-1525.8" font-family="Arial" font-size="20.00" fill="purple">start_next: 04/11/17, 20:06:13</text>
<text text-anchor="middle" x="1221" y="-1503.8" font-family="Arial" font-size="20.00" fill="purple">gap: &#45;121sec</text>
<text text-anchor="middle" x="1221" y="-1481.8" font-family="Arial" font-size="20.00" fill="purple">end_prev: 04/11/17, 20:08:13</text>
</g>
<!-- SERVICE DISCOVERY
rfb&#45;&gt;HOST DISCOVERY
http -->
<g id="edge24" class="edge">
<title>SERVICE DISCOVERY
rfb&#45;&gt;HOST DISCOVERY
http</title>
<path fill="none" stroke="purple" stroke-width="5" d="M788.11,-1562.96C742.48,-1541.08 692.65,-1507.97 666.5,-1460.8 652.16,-1434.93 658.19,-1357.07 664.41,-1304.23"/>
<polygon fill="purple" stroke="purple" stroke-width="5" points="668.79,-1304.47 665.65,-1294.02 660.1,-1303.42 668.79,-1304.47"/>
<text text-anchor="middle" x="798" y="-1435.38" font-family="Arial" font-size="20.00" fill="purple">start_next: 04/11/17, 20:08:58</text>
<text text-anchor="middle" x="798" y="-1413.38" font-family="Arial" font-size="20.00" fill="purple">gap: 154sec</text>
<text text-anchor="middle" x="798" y="-1391.38" font-family="Arial" font-size="20.00" fill="purple">end_prev: 04/11/17, 20:06:25</text>
</g>
<!-- HOST DISCOVERY
http&#45;&gt;VULNERABILTY DISCOVERY
mysql -->
<g id="edge25" class="edge">
<title>HOST DISCOVERY
http&#45;&gt;VULNERABILTY DISCOVERY
mysql</title>
<path fill="none" stroke="purple" stroke-width="5" d="M670.29,-1294.1C670.44,-1323.02 672.93,-1358.1 683.5,-1367.95 693.43,-1377.19 914.01,-1374.6 927.5,-1375.95 951.76,-1378.37 977.23,-1381.72 1002.23,-1385.47"/>
<polygon fill="purple" stroke="purple" stroke-width="5" points="1001.62,-1389.8 1012.16,-1386.98 1002.94,-1381.15 1001.62,-1389.8"/>
<text text-anchor="middle" x="815" y="-1351.95" font-family="Arial" font-size="20.00" fill="purple">start_next: 04/11/17, 20:25:03</text>
<text text-anchor="middle" x="815" y="-1329.95" font-family="Arial" font-size="20.00" fill="purple">gap: 965sec</text>
<text text-anchor="middle" x="815" y="-1307.95" font-family="Arial" font-size="20.00" fill="purple">end_prev: 04/11/17, 20:08:58</text>
</g>
<!-- PRIVILEGE ESCALATION
http | ID: 1160 -->
<g id="node23" class="node">
<title>PRIVILEGE ESCALATION
http | ID: 1160</title>
<g id="a_node23"><a xlink:title="ET POLICY Http Client Body contains pass= in cleartext">
<polygon fill="none" stroke="black" stroke-width="3" stroke-dasharray="1,5" points="541,-1448.38 242,-1448.38 242,-1388.38 541,-1388.38 541,-1448.38"/>
<text text-anchor="middle" x="391.5" y="-1425.18" font-family="Arial" font-size="24.00">PRIVILEGE ESCALATION</text>
<text text-anchor="middle" x="391.5" y="-1399.18" font-family="Arial" font-size="24.00">http | ID: 1160</text>
</a>
</g>
</g>
<!-- HOST DISCOVERY
http&#45;&gt;PRIVILEGE ESCALATION
http | ID: 1160 -->
<g id="edge28" class="edge">
<title>HOST DISCOVERY
http&#45;&gt;PRIVILEGE ESCALATION
http | ID: 1160</title>
<path fill="none" stroke="purple" stroke-width="5" d="M515.31,-1263.51C462.39,-1270.68 412.36,-1282.5 395.5,-1301.95 377.75,-1322.43 377.63,-1353.47 381.47,-1378.2"/>
<polygon fill="purple" stroke="purple" stroke-width="5" points="377.23,-1379.31 383.32,-1388.37 385.84,-1377.75 377.23,-1379.31"/>
<text text-anchor="middle" x="527" y="-1351.95" font-family="Arial" font-size="20.00" fill="purple">start_next: 04/11/17, 20:25:19</text>
<text text-anchor="middle" x="527" y="-1329.95" font-family="Arial" font-size="20.00" fill="purple">gap: &#45;300sec</text>
<text text-anchor="middle" x="527" y="-1307.95" font-family="Arial" font-size="20.00" fill="purple">end_prev: 04/11/17, 20:30:19</text>
</g>
<!-- PUBLIC APP EXPLOIT
http | ID: 678 -->
<g id="node24" class="node">
<title>PUBLIC APP EXPLOIT
http | ID: 678</title>
<g id="a_node24"><a xlink:title="ET SCAN DEBUG Method Request with Command">
<polygon fill="none" stroke="black" stroke-width="3" points="579,-1629.23 316,-1629.23 316,-1569.23 579,-1569.23 579,-1629.23"/>
<text text-anchor="middle" x="447.5" y="-1606.03" font-family="Arial" font-size="24.00">PUBLIC APP EXPLOIT</text>
<text text-anchor="middle" x="447.5" y="-1580.03" font-family="Arial" font-size="24.00">http | ID: 678</text>
</a>
</g>
</g>
<!-- PRIVILEGE ESCALATION
http | ID: 1160&#45;&gt;PUBLIC APP EXPLOIT
http | ID: 678 -->
<g id="edge29" class="edge">
<title>PRIVILEGE ESCALATION
http | ID: 1160&#45;&gt;PUBLIC APP EXPLOIT
http | ID: 678</title>
<path fill="none" stroke="purple" stroke-width="5" d="M386.3,-1448.54C382.83,-1475.73 381.18,-1516.79 395.5,-1548.8 397.47,-1553.19 400.02,-1557.38 402.94,-1561.33"/>
<polygon fill="purple" stroke="purple" stroke-width="5" points="399.63,-1564.18 409.38,-1569.08 406.36,-1558.59 399.63,-1564.18"/>
<text text-anchor="middle" x="527" y="-1525.8" font-family="Arial" font-size="20.00" fill="purple">start_next: 04/11/17, 20:25:19</text>
<text text-anchor="middle" x="527" y="-1503.8" font-family="Arial" font-size="20.00" fill="purple">gap: 0sec</text>
<text text-anchor="middle" x="527" y="-1481.8" font-family="Arial" font-size="20.00" fill="purple">end_prev: 04/11/17, 20:25:19</text>
</g>
<!-- PUBLIC APP EXPLOIT
http | ID: 678&#45;&gt;DATA EXFILTRATION
http | ID: 228 -->
<g id="edge30" class="edge">
<title>PUBLIC APP EXPLOIT
http | ID: 678&#45;&gt;DATA EXFILTRATION
http | ID: 228</title>
<path fill="none" stroke="purple" stroke-width="5" d="M579.09,-1627.77C725.43,-1658.4 961.44,-1707.79 1115.27,-1739.99"/>
<polygon fill="purple" stroke="purple" stroke-width="5" points="1114.6,-1744.32 1125.29,-1742.09 1116.39,-1735.76 1114.6,-1744.32"/>
<text text-anchor="middle" x="1110" y="-1699.65" font-family="Arial" font-size="20.00" fill="purple">start_next: 04/11/17, 20:25:19</text>
<text text-anchor="middle" x="1110" y="-1677.65" font-family="Arial" font-size="20.00" fill="purple">gap: 0sec</text>
<text text-anchor="middle" x="1110" y="-1655.65" font-family="Arial" font-size="20.00" fill="purple">end_prev: 04/11/17, 20:25:19</text>
</g>
</g>
</svg>
