<?xml version="1.0" encoding="UTF-8" standalone="no"?>
<!DOCTYPE svg PUBLIC "-//W3C//DTD SVG 1.1//EN"
 "http://www.w3.org/Graphics/SVG/1.1/DTD/svg11.dtd">
<!-- Generated by graphviz version 2.50.0 (0)
 -->
<!-- Title: DATADELIVERYremotewarecl Pages: 1 -->
<svg width="1895pt" height="2059pt"
 viewBox="0.00 0.00 1894.71 2058.57" xmlns="http://www.w3.org/2000/svg" xmlns:xlink="http://www.w3.org/1999/xlink">
<g id="graph0" class="graph" transform="scale(1 1) rotate(0) translate(4 2054.57)">
<title>DATADELIVERYremotewarecl</title>
<polygon fill="white" stroke="transparent" points="-4,4 -4,-2054.57 1890.71,-2054.57 1890.71,4 -4,4"/>
<!-- Victim: 10.0.0.153
DATA DELIVERY
remoteware&#45;cl -->
<g id="node1" class="node">
<title>Victim: 10.0.0.153
DATA DELIVERY
remoteware&#45;cl</title>
<polygon fill="salmon" stroke="black" stroke-width="3" points="1194.66,-1953.56 1194.66,-2007.95 1100.37,-2046.4 967.04,-2046.4 872.76,-2007.95 872.76,-1953.56 967.04,-1915.1 1100.37,-1915.1 1194.66,-1953.56"/>
<polygon fill="none" stroke="black" stroke-width="3" points="1198.66,-1950.88 1198.66,-2010.62 1101.16,-2050.39 966.25,-2050.39 868.75,-2010.62 868.75,-1950.88 966.25,-1911.11 1101.16,-1911.11 1198.66,-1950.88"/>
<text text-anchor="middle" x="1033.71" y="-2000.55" font-family="Arial" font-size="24.00">Victim: 10.0.0.153</text>
<text text-anchor="middle" x="1033.71" y="-1974.55" font-family="Arial" font-size="24.00">DATA DELIVERY</text>
<text text-anchor="middle" x="1033.71" y="-1948.55" font-family="Arial" font-size="24.00">remoteware&#45;cl</text>
</g>
<!-- DATA DELIVERY
remoteware&#45;cl | ID: &#45;1 -->
<g id="node2" class="node">
<title>DATA DELIVERY
remoteware&#45;cl | ID: &#45;1</title>
<g id="a_node2"><a xlink:title="ET WEB_SERVER PHP Possible php Remote File Inclusion Attempt&#10;ET WEB_SERVER PHP tags in HTTP POST&#10;GPL WEB_SERVER perl post attempt">
<polygon fill="salmon" stroke="black" stroke-width="3" points="1236.82,-1844.94 1135.27,-1893.92 932.15,-1893.92 830.59,-1844.94 932.15,-1795.96 1135.27,-1795.96 1236.82,-1844.94"/>
<text text-anchor="middle" x="1033.71" y="-1851.74" font-family="Arial" font-size="24.00">DATA DELIVERY</text>
<text text-anchor="middle" x="1033.71" y="-1825.74" font-family="Arial" font-size="24.00">remoteware&#45;cl | ID: &#45;1</text>
</a>
</g>
</g>
<!-- DATA DELIVERY
remoteware&#45;cl | ID: &#45;1&#45;&gt;Victim: 10.0.0.153
DATA DELIVERY
remoteware&#45;cl -->
<g id="edge1" class="edge">
<title>DATA DELIVERY
remoteware&#45;cl | ID: &#45;1&#45;&gt;Victim: 10.0.0.153
DATA DELIVERY
remoteware&#45;cl</title>
<path fill="none" stroke="black" stroke-width="5" d="M1033.71,-1894.25C1033.71,-1896.35 1033.71,-1898.49 1033.71,-1900.64"/>
<polygon fill="black" stroke="black" stroke-width="5" points="1029.33,-1900.79 1033.71,-1910.79 1038.08,-1900.79 1029.33,-1900.79"/>
</g>
<!-- SERVICE DISCOVERY
unknown -->
<g id="node3" class="node">
<title>SERVICE DISCOVERY
unknown</title>
<g id="a_node3"><a xlink:title="ET SCAN Potential VNC Scan 5800&#45;5820&#10;ET SCAN NMAP OS Detection Probe">
<ellipse fill="yellow" stroke="black" stroke-width="3" cx="286.71" cy="-417.26" rx="189.51" ry="42.35"/>
<text text-anchor="middle" x="286.71" y="-424.06" font-family="Arial" font-size="24.00">SERVICE DISCOVERY</text>
<text text-anchor="middle" x="286.71" y="-398.06" font-family="Arial" font-size="24.00">unknown</text>
</a>
</g>
</g>
<!-- VULNERABILTY DISCOVERY
ncube&#45;lm -->
<g id="node4" class="node">
<title>VULNERABILTY DISCOVERY
ncube&#45;lm</title>
<g id="a_node4"><a xlink:title="ET POLICY Suspicious inbound to PostgreSQL port 5432&#10;ET POLICY Suspicious inbound to MSSQL port 1433&#10;ET POLICY Suspicious inbound to Oracle SQL port 1521&#10;ET POLICY Suspicious inbound to mSQL port 4333">
<ellipse fill="none" stroke="black" stroke-width="3" cx="702.71" cy="-236.41" rx="241.25" ry="42.35"/>
<text text-anchor="middle" x="702.71" y="-243.21" font-family="Arial" font-size="24.00">VULNERABILTY DISCOVERY</text>
<text text-anchor="middle" x="702.71" y="-217.21" font-family="Arial" font-size="24.00">ncube&#45;lm</text>
</a>
</g>
</g>
<!-- SERVICE DISCOVERY
unknown&#45;&gt;VULNERABILTY DISCOVERY
ncube&#45;lm -->
<g id="edge2" class="edge">
<title>SERVICE DISCOVERY
unknown&#45;&gt;VULNERABILTY DISCOVERY
ncube&#45;lm</title>
<path fill="none" stroke="blue" stroke-width="5" d="M282.37,-374.79C279.91,-341.85 279.29,-299.31 290.71,-286.83 304.16,-272.14 382.91,-260.91 468.02,-252.9"/>
<polygon fill="blue" stroke="blue" stroke-width="5" points="468.6,-257.24 478.16,-251.97 467.8,-248.53 468.6,-257.24"/>
<text text-anchor="start" x="290.71" y="-351.83" font-family="Arial" font-size="20.00" fill="blue"> start_next: 04/11/17, 13:05:05</text>
<text text-anchor="start" x="370.21" y="-331.83" font-family="Arial" font-size="20.00" fill="blue">gap: 534sec</text>
<text text-anchor="start" x="295.21" y="-311.83" font-family="Arial" font-size="20.00" fill="blue">end_prev: 04/11/17, 12:56:11</text>
<text text-anchor="start" x="325.21" y="-291.83" font-family="Arial" font-weight="bold" font-size="20.00" fill="blue">Attacker: 10.0.254.31</text>
</g>
<!-- SERVICE DISCOVERY
unknown&#45;&gt;VULNERABILTY DISCOVERY
ncube&#45;lm -->
<g id="edge4" class="edge">
<title>SERVICE DISCOVERY
unknown&#45;&gt;VULNERABILTY DISCOVERY
ncube&#45;lm</title>
<path fill="none" stroke="blue" stroke-width="5" d="M459.89,-399.95C502.62,-392.56 540.53,-381.96 555.71,-366.83 581.33,-341.3 547.43,-314.53 570.71,-286.83 572.63,-284.55 574.66,-282.37 576.8,-280.29"/>
<polygon fill="blue" stroke="blue" stroke-width="5" points="579.79,-283.49 584.43,-273.61 574.02,-276.91 579.79,-283.49"/>
<text text-anchor="middle" x="702.21" y="-343.83" font-family="Arial" font-size="20.00" fill="blue">start_next: 04/11/17, 14:00:57</text>
<text text-anchor="middle" x="702.21" y="-321.83" font-family="Arial" font-size="20.00" fill="blue">gap: 1559sec</text>
<text text-anchor="middle" x="702.21" y="-299.83" font-family="Arial" font-size="20.00" fill="blue">end_prev: 04/11/17, 13:34:58</text>
</g>
<!-- VULNERABILTY DISCOVERY
ncube&#45;lm&#45;&gt;SERVICE DISCOVERY
unknown -->
<g id="edge3" class="edge">
<title>VULNERABILTY DISCOVERY
ncube&#45;lm&#45;&gt;SERVICE DISCOVERY
unknown</title>
<path fill="none" stroke="blue" stroke-width="5" d="M461.91,-239C276.96,-242.81 48.09,-254.18 17.71,-286.83 -6.51,-312.86 -5.05,-339.51 17.71,-366.83 30.19,-381.82 62.37,-392.28 100.31,-399.57"/>
<polygon fill="blue" stroke="blue" stroke-width="5" points="99.99,-403.96 110.61,-401.45 101.56,-395.35 99.99,-403.96"/>
<text text-anchor="middle" x="149.21" y="-343.83" font-family="Arial" font-size="20.00" fill="blue">start_next: 04/11/17, 13:34:53</text>
<text text-anchor="middle" x="149.21" y="-321.83" font-family="Arial" font-size="20.00" fill="blue">gap: 1788sec</text>
<text text-anchor="middle" x="149.21" y="-299.83" font-family="Arial" font-size="20.00" fill="blue">end_prev: 04/11/17, 13:05:05</text>
</g>
<!-- ARBITRARY CODE EXECUTION
ssdp | ID: 355 -->
<g id="node5" class="node">
<title>ARBITRARY CODE EXECUTION
ssdp | ID: 355</title>
<g id="a_node5"><a xlink:title="GPL MISC UPnP malformed advertisement">
<polygon fill="none" stroke="black" stroke-width="3" points="1477.21,-601.69 1102.21,-601.69 1102.21,-541.69 1477.21,-541.69 1477.21,-601.69"/>
<text text-anchor="middle" x="1289.71" y="-578.49" font-family="Arial" font-size="24.00">ARBITRARY CODE EXECUTION</text>
<text text-anchor="middle" x="1289.71" y="-552.49" font-family="Arial" font-size="24.00">ssdp | ID: 355</text>
</a>
</g>
</g>
<!-- VULNERABILTY DISCOVERY
ncube&#45;lm&#45;&gt;ARBITRARY CODE EXECUTION
ssdp | ID: 355 -->
<g id="edge5" class="edge">
<title>VULNERABILTY DISCOVERY
ncube&#45;lm&#45;&gt;ARBITRARY CODE EXECUTION
ssdp | ID: 355</title>
<path fill="none" stroke="blue" stroke-width="5" d="M818.68,-273.78C823.13,-277.7 827.19,-282.03 830.71,-286.83 876.24,-348.9 792.37,-400.6 841.71,-459.69 874.76,-499.27 987.84,-527.11 1092.12,-545.01"/>
<polygon fill="blue" stroke="blue" stroke-width="5" points="1091.59,-549.36 1102.18,-546.71 1093.05,-540.73 1091.59,-549.36"/>
<text text-anchor="middle" x="973.21" y="-434.26" font-family="Arial" font-size="20.00" fill="blue">start_next: 04/11/17, 14:04:36</text>
<text text-anchor="middle" x="973.21" y="-412.26" font-family="Arial" font-size="20.00" fill="blue">gap: 81sec</text>
<text text-anchor="middle" x="973.21" y="-390.26" font-family="Arial" font-size="20.00" fill="blue">end_prev: 04/11/17, 14:03:16</text>
</g>
<!-- BRUTE FORCE CREDENTIALS
pop3s | ID: 886 -->
<g id="node12" class="node">
<title>BRUTE FORCE CREDENTIALS
pop3s | ID: 886</title>
<g id="a_node12"><a xlink:title="ET SCAN Rapid POP3S Connections &#45; Possible Brute Force Attack">
<polygon fill="none" stroke="black" stroke-width="3" points="1470.71,-447.26 1108.71,-447.26 1108.71,-387.26 1470.71,-387.26 1470.71,-447.26"/>
<text text-anchor="middle" x="1289.71" y="-424.06" font-family="Arial" font-size="24.00">BRUTE FORCE CREDENTIALS</text>
<text text-anchor="middle" x="1289.71" y="-398.06" font-family="Arial" font-size="24.00">pop3s | ID: 886</text>
</a>
</g>
</g>
<!-- VULNERABILTY DISCOVERY
ncube&#45;lm&#45;&gt;BRUTE FORCE CREDENTIALS
pop3s | ID: 886 -->
<g id="edge13" class="edge">
<title>VULNERABILTY DISCOVERY
ncube&#45;lm&#45;&gt;BRUTE FORCE CREDENTIALS
pop3s | ID: 886</title>
<path fill="none" stroke="blue" stroke-width="5" d="M821.14,-273.49C927.56,-305.92 1082.36,-353.08 1184.5,-384.2"/>
<polygon fill="blue" stroke="blue" stroke-width="5" points="1183.38,-388.43 1194.22,-387.16 1185.93,-380.06 1183.38,-388.43"/>
<text text-anchor="middle" x="1248.21" y="-343.83" font-family="Arial" font-size="20.00" fill="blue">start_next: 04/11/17, 16:30:43</text>
<text text-anchor="middle" x="1248.21" y="-321.83" font-family="Arial" font-size="20.00" fill="blue">gap: &#45;55sec</text>
<text text-anchor="middle" x="1248.21" y="-299.83" font-family="Arial" font-size="20.00" fill="blue">end_prev: 04/11/17, 16:31:38</text>
</g>
<!-- REMOTE SERVICE EXPLOIT
snmp | ID: 52 -->
<g id="node6" class="node">
<title>REMOTE SERVICE EXPLOIT
snmp | ID: 52</title>
<g id="a_node6"><a xlink:title="ET SNMP Samsung Printer SNMP Hardcode RW Community String">
<polygon fill="none" stroke="black" stroke-width="3" points="1293.71,-756.11 955.71,-756.11 955.71,-696.11 1293.71,-696.11 1293.71,-756.11"/>
<text text-anchor="middle" x="1124.71" y="-732.91" font-family="Arial" font-size="24.00">REMOTE SERVICE EXPLOIT</text>
<text text-anchor="middle" x="1124.71" y="-706.91" font-family="Arial" font-size="24.00">snmp | ID: 52</text>
</a>
</g>
</g>
<!-- ARBITRARY CODE EXECUTION
ssdp | ID: 355&#45;&gt;REMOTE SERVICE EXPLOIT
snmp | ID: 52 -->
<g id="edge6" class="edge">
<title>ARBITRARY CODE EXECUTION
ssdp | ID: 355&#45;&gt;REMOTE SERVICE EXPLOIT
snmp | ID: 52</title>
<path fill="none" stroke="blue" stroke-width="5" d="M1102.05,-580.4C1063.91,-585.95 1031.51,-595.02 1018.71,-609.69 999.42,-631.79 1002.95,-650.95 1018.71,-675.69 1021.92,-680.73 1025.8,-685.27 1030.15,-689.35"/>
<polygon fill="blue" stroke="blue" stroke-width="5" points="1027.4,-692.75 1037.88,-695.8 1033,-686.04 1027.4,-692.75"/>
<text text-anchor="middle" x="1150.21" y="-659.69" font-family="Arial" font-size="20.00" fill="blue">start_next: 04/11/17, 14:05:03</text>
<text text-anchor="middle" x="1150.21" y="-637.69" font-family="Arial" font-size="20.00" fill="blue">gap: 19sec</text>
<text text-anchor="middle" x="1150.21" y="-615.69" font-family="Arial" font-size="20.00" fill="blue">end_prev: 04/11/17, 14:04:44</text>
</g>
<!-- ARBITRARY CODE EXECUTION
ssdp | ID: 355&#45;&gt;REMOTE SERVICE EXPLOIT
snmp | ID: 52 -->
<g id="edge15" class="edge">
<title>ARBITRARY CODE EXECUTION
ssdp | ID: 355&#45;&gt;REMOTE SERVICE EXPLOIT
snmp | ID: 52</title>
<path fill="none" stroke="blue" stroke-width="5" d="M1290.05,-601.82C1289.75,-628.25 1287.65,-664.7 1278.71,-675.69 1274.36,-681.03 1269.43,-685.8 1264.08,-690.06"/>
<polygon fill="blue" stroke="blue" stroke-width="5" points="1261.48,-686.54 1255.94,-695.94 1266.6,-693.63 1261.48,-686.54"/>
<text text-anchor="middle" x="1422.21" y="-659.69" font-family="Arial" font-size="20.00" fill="blue">start_next: 04/11/17, 16:33:48</text>
<text text-anchor="middle" x="1422.21" y="-637.69" font-family="Arial" font-size="20.00" fill="blue">gap: 19sec</text>
<text text-anchor="middle" x="1422.21" y="-615.69" font-family="Arial" font-size="20.00" fill="blue">end_prev: 04/11/17, 16:33:29</text>
</g>
<!-- INFO DISCOVERY
xdmcp -->
<g id="node16" class="node">
<title>INFO DISCOVERY
xdmcp</title>
<g id="a_node16"><a xlink:title="GPL RPC xdmcp info query">
<ellipse fill="none" stroke="black" stroke-width="3" cx="1564.71" cy="-726.11" rx="156.04" ry="42.35"/>
<text text-anchor="middle" x="1564.71" y="-732.91" font-family="Arial" font-size="24.00">INFO DISCOVERY</text>
<text text-anchor="middle" x="1564.71" y="-706.91" font-family="Arial" font-size="24.00">xdmcp</text>
</a>
</g>
</g>
<!-- ARBITRARY CODE EXECUTION
ssdp | ID: 355&#45;&gt;INFO DISCOVERY
xdmcp -->
<g id="edge24" class="edge">
<title>ARBITRARY CODE EXECUTION
ssdp | ID: 355&#45;&gt;INFO DISCOVERY
xdmcp</title>
<path fill="none" stroke="blue" stroke-width="5" d="M1477.35,-582.61C1512.04,-588.17 1541.27,-596.68 1553.71,-609.69 1569.64,-626.34 1573.52,-651.17 1572.95,-673.55"/>
<polygon fill="blue" stroke="blue" stroke-width="5" points="1568.57,-673.39 1572.39,-683.62 1577.31,-673.87 1568.57,-673.39"/>
<text text-anchor="middle" x="1705.21" y="-659.69" font-family="Arial" font-size="20.00" fill="blue">start_next: 04/11/17, 18:04:47</text>
<text text-anchor="middle" x="1705.21" y="-637.69" font-family="Arial" font-size="20.00" fill="blue">gap: 17sec</text>
<text text-anchor="middle" x="1705.21" y="-615.69" font-family="Arial" font-size="20.00" fill="blue">end_prev: 04/11/17, 18:04:30</text>
</g>
<!-- VULNERABILTY DISCOVERY
unknown -->
<g id="node7" class="node">
<title>VULNERABILTY DISCOVERY
unknown</title>
<g id="a_node7"><a xlink:title="ET SCAN Nessus User Agent">
<ellipse fill="none" stroke="black" stroke-width="3" cx="1017.71" cy="-960.96" rx="241.25" ry="42.35"/>
<text text-anchor="middle" x="1017.71" y="-967.76" font-family="Arial" font-size="24.00">VULNERABILTY DISCOVERY</text>
<text text-anchor="middle" x="1017.71" y="-941.76" font-family="Arial" font-size="24.00">unknown</text>
</a>
</g>
</g>
<!-- REMOTE SERVICE EXPLOIT
snmp | ID: 52&#45;&gt;VULNERABILTY DISCOVERY
unknown -->
<g id="edge7" class="edge">
<title>REMOTE SERVICE EXPLOIT
snmp | ID: 52&#45;&gt;VULNERABILTY DISCOVERY
unknown</title>
<path fill="none" stroke="blue" stroke-width="5" d="M1041.43,-756.13C1033.71,-761.8 1026.87,-768.54 1021.71,-776.54 996.62,-815.45 998.73,-869.31 1005.24,-908.59"/>
<polygon fill="blue" stroke="blue" stroke-width="5" points="1000.95,-909.43 1007.03,-918.5 1009.56,-907.88 1000.95,-909.43"/>
<text text-anchor="middle" x="1153.21" y="-826.54" font-family="Arial" font-size="20.00" fill="blue">start_next: 04/11/17, 14:12:53</text>
<text text-anchor="middle" x="1153.21" y="-804.54" font-family="Arial" font-size="20.00" fill="blue">gap: 470sec</text>
<text text-anchor="middle" x="1153.21" y="-782.54" font-family="Arial" font-size="20.00" fill="blue">end_prev: 04/11/17, 14:05:03</text>
</g>
<!-- VULNERABILTY DISCOVERY
remoteware&#45;cl -->
<g id="node13" class="node">
<title>VULNERABILTY DISCOVERY
remoteware&#45;cl</title>
<g id="a_node13"><a xlink:title="ET SCAN Nessus User Agent">
<ellipse fill="none" stroke="black" stroke-width="3" cx="1298.71" cy="-1195.82" rx="241.25" ry="42.35"/>
<text text-anchor="middle" x="1298.71" y="-1202.62" font-family="Arial" font-size="24.00">VULNERABILTY DISCOVERY</text>
<text text-anchor="middle" x="1298.71" y="-1176.62" font-family="Arial" font-size="24.00">remoteware&#45;cl</text>
</a>
</g>
</g>
<!-- REMOTE SERVICE EXPLOIT
snmp | ID: 52&#45;&gt;VULNERABILTY DISCOVERY
remoteware&#45;cl -->
<g id="edge16" class="edge">
<title>REMOTE SERVICE EXPLOIT
snmp | ID: 52&#45;&gt;VULNERABILTY DISCOVERY
remoteware&#45;cl</title>
<path fill="none" stroke="blue" stroke-width="5" d="M1260.16,-756.22C1268.32,-761.87 1275.65,-768.58 1281.71,-776.54 1289.34,-786.57 1289.19,-990.79 1289.71,-1003.39 1291.65,-1050.64 1294.21,-1104.43 1296.1,-1142.94"/>
<polygon fill="blue" stroke="blue" stroke-width="5" points="1291.76,-1143.6 1296.62,-1153.37 1300.5,-1143.17 1291.76,-1143.6"/>
<text text-anchor="middle" x="1421.21" y="-977.96" font-family="Arial" font-size="20.00" fill="blue">start_next: 04/11/17, 16:41:27</text>
<text text-anchor="middle" x="1421.21" y="-955.96" font-family="Arial" font-size="20.00" fill="blue">gap: 459sec</text>
<text text-anchor="middle" x="1421.21" y="-933.96" font-family="Arial" font-size="20.00" fill="blue">end_prev: 04/11/17, 16:33:48</text>
</g>
<!-- INFO DISCOVERY
remoteware&#45;cl -->
<g id="node8" class="node">
<title>INFO DISCOVERY
remoteware&#45;cl</title>
<g id="a_node8"><a xlink:title="GPL WEB_SERVER mod_gzip_status access">
<ellipse fill="none" stroke="black" stroke-width="3" cx="1033.71" cy="-1362.67" rx="156.04" ry="42.35"/>
<text text-anchor="middle" x="1033.71" y="-1369.47" font-family="Arial" font-size="24.00">INFO DISCOVERY</text>
<text text-anchor="middle" x="1033.71" y="-1343.47" font-family="Arial" font-size="24.00">remoteware&#45;cl</text>
</a>
</g>
</g>
<!-- VULNERABILTY DISCOVERY
unknown&#45;&gt;INFO DISCOVERY
remoteware&#45;cl -->
<g id="edge8" class="edge">
<title>VULNERABILTY DISCOVERY
unknown&#45;&gt;INFO DISCOVERY
remoteware&#45;cl</title>
<path fill="none" stroke="blue" stroke-width="5" d="M1017.94,-1003.54C1018.53,-1067.34 1020.62,-1193.48 1028.62,-1309.99"/>
<polygon fill="blue" stroke="blue" stroke-width="5" points="1024.26,-1310.49 1029.33,-1320.16 1032.99,-1309.87 1024.26,-1310.49"/>
<text text-anchor="middle" x="1152.21" y="-1129.39" font-family="Arial" font-size="20.00" fill="blue">start_next: 04/11/17, 14:13:01</text>
<text text-anchor="middle" x="1152.21" y="-1107.39" font-family="Arial" font-size="20.00" fill="blue">gap: 8sec</text>
<text text-anchor="middle" x="1152.21" y="-1085.39" font-family="Arial" font-size="20.00" fill="blue">end_prev: 04/11/17, 14:12:53</text>
</g>
<!-- BRUTE FORCE CREDENTIALS
websm | ID: 66 -->
<g id="node9" class="node">
<title>BRUTE FORCE CREDENTIALS
websm | ID: 66</title>
<g id="a_node9"><a xlink:title="GPL POLICY Sun JavaServer default password login attempt">
<polygon fill="none" stroke="black" stroke-width="3" points="1214.71,-1547.1 852.71,-1547.1 852.71,-1487.1 1214.71,-1487.1 1214.71,-1547.1"/>
<text text-anchor="middle" x="1033.71" y="-1523.9" font-family="Arial" font-size="24.00">BRUTE FORCE CREDENTIALS</text>
<text text-anchor="middle" x="1033.71" y="-1497.9" font-family="Arial" font-size="24.00">websm | ID: 66</text>
</a>
</g>
</g>
<!-- INFO DISCOVERY
remoteware&#45;cl&#45;&gt;BRUTE FORCE CREDENTIALS
websm | ID: 66 -->
<g id="edge9" class="edge">
<title>INFO DISCOVERY
remoteware&#45;cl&#45;&gt;BRUTE FORCE CREDENTIALS
websm | ID: 66</title>
<path fill="none" stroke="blue" stroke-width="5" d="M883.29,-1374.24C830.07,-1381.37 779.25,-1393.26 762.71,-1413.1 743.92,-1435.62 743.42,-1457 762.71,-1479.1 775.1,-1493.3 805.88,-1502.25 842.45,-1507.84"/>
<polygon fill="blue" stroke="blue" stroke-width="5" points="841.86,-1512.18 852.38,-1509.26 843.1,-1503.52 841.86,-1512.18"/>
<text text-anchor="middle" x="894.21" y="-1463.1" font-family="Arial" font-size="20.00" fill="blue">start_next: 04/11/17, 14:13:02</text>
<text text-anchor="middle" x="894.21" y="-1441.1" font-family="Arial" font-size="20.00" fill="blue">gap: 1sec</text>
<text text-anchor="middle" x="894.21" y="-1419.1" font-family="Arial" font-size="20.00" fill="blue">end_prev: 04/11/17, 14:13:01</text>
</g>
<!-- INFO DISCOVERY
remoteware&#45;cl&#45;&gt;BRUTE FORCE CREDENTIALS
websm | ID: 66 -->
<g id="edge18" class="edge">
<title>INFO DISCOVERY
remoteware&#45;cl&#45;&gt;BRUTE FORCE CREDENTIALS
websm | ID: 66</title>
<path fill="none" stroke="blue" stroke-width="5" d="M1033.71,-1405.32C1033.71,-1427.59 1033.71,-1454.86 1033.71,-1476.77"/>
<polygon fill="blue" stroke="blue" stroke-width="5" points="1029.33,-1477.04 1033.71,-1487.04 1038.08,-1477.05 1029.33,-1477.04"/>
<text text-anchor="middle" x="1165.21" y="-1463.1" font-family="Arial" font-size="20.00" fill="blue">start_next: 04/11/17, 16:41:46</text>
<text text-anchor="middle" x="1165.21" y="-1441.1" font-family="Arial" font-size="20.00" fill="blue">gap: 1sec</text>
<text text-anchor="middle" x="1165.21" y="-1419.1" font-family="Arial" font-size="20.00" fill="blue">end_prev: 04/11/17, 16:41:45</text>
</g>
<!-- INFO DISCOVERY
remoteware&#45;cl&#45;&gt;BRUTE FORCE CREDENTIALS
websm | ID: 66 -->
<g id="edge29" class="edge">
<title>INFO DISCOVERY
remoteware&#45;cl&#45;&gt;BRUTE FORCE CREDENTIALS
websm | ID: 66</title>
<path fill="none" stroke="blue" stroke-width="5" d="M1183.15,-1375.11C1233.95,-1382.34 1281.92,-1394.08 1297.71,-1413.1 1316.44,-1435.67 1316.96,-1456.96 1297.71,-1479.1 1286.2,-1492.33 1258.38,-1500.97 1224.91,-1506.57"/>
<polygon fill="blue" stroke="blue" stroke-width="5" points="1224.05,-1502.28 1214.84,-1508.15 1225.4,-1510.93 1224.05,-1502.28"/>
<text text-anchor="middle" x="1444.21" y="-1463.1" font-family="Arial" font-size="20.00" fill="blue">start_next: 04/11/17, 18:12:49</text>
<text text-anchor="middle" x="1444.21" y="-1441.1" font-family="Arial" font-size="20.00" fill="blue">gap: 1sec</text>
<text text-anchor="middle" x="1444.21" y="-1419.1" font-family="Arial" font-size="20.00" fill="blue">end_prev: 04/11/17, 18:12:48</text>
</g>
<!-- SURFING
remoteware&#45;cl -->
<g id="node10" class="node">
<title>SURFING
remoteware&#45;cl</title>
<g id="a_node10"><a xlink:title="ET WEB_SERVER WEB&#45;PHP phpinfo access">
<ellipse fill="none" stroke="black" stroke-width="3" cx="1033.71" cy="-1671.52" rx="120.42" ry="42.35"/>
<text text-anchor="middle" x="1033.71" y="-1678.32" font-family="Arial" font-size="24.00">SURFING</text>
<text text-anchor="middle" x="1033.71" y="-1652.32" font-family="Arial" font-size="24.00">remoteware&#45;cl</text>
</a>
</g>
</g>
<!-- BRUTE FORCE CREDENTIALS
websm | ID: 66&#45;&gt;SURFING
remoteware&#45;cl -->
<g id="edge10" class="edge">
<title>BRUTE FORCE CREDENTIALS
websm | ID: 66&#45;&gt;SURFING
remoteware&#45;cl</title>
<path fill="none" stroke="blue" stroke-width="5" d="M852.38,-1524.93C811.53,-1530.38 776.21,-1539.62 762.71,-1555.1 743.42,-1577.2 743.92,-1598.57 762.71,-1621.1 781.53,-1643.67 844.75,-1655.96 905.39,-1662.64"/>
<polygon fill="blue" stroke="blue" stroke-width="5" points="905.08,-1667 915.49,-1663.7 906,-1658.3 905.08,-1667"/>
<text text-anchor="middle" x="894.21" y="-1605.1" font-family="Arial" font-size="20.00" fill="blue">start_next: 04/11/17, 14:14:00</text>
<text text-anchor="middle" x="894.21" y="-1583.1" font-family="Arial" font-size="20.00" fill="blue">gap: 58sec</text>
<text text-anchor="middle" x="894.21" y="-1561.1" font-family="Arial" font-size="20.00" fill="blue">end_prev: 04/11/17, 14:13:02</text>
</g>
<!-- BRUTE FORCE CREDENTIALS
websm | ID: 66&#45;&gt;SURFING
remoteware&#45;cl -->
<g id="edge19" class="edge">
<title>BRUTE FORCE CREDENTIALS
websm | ID: 66&#45;&gt;SURFING
remoteware&#45;cl</title>
<path fill="none" stroke="blue" stroke-width="5" d="M1033.71,-1547.13C1033.71,-1567.38 1033.71,-1594.97 1033.71,-1618.92"/>
<polygon fill="blue" stroke="blue" stroke-width="5" points="1029.33,-1618.93 1033.71,-1628.93 1038.08,-1618.93 1029.33,-1618.93"/>
<text text-anchor="middle" x="1165.21" y="-1605.1" font-family="Arial" font-size="20.00" fill="blue">start_next: 04/11/17, 16:42:43</text>
<text text-anchor="middle" x="1165.21" y="-1583.1" font-family="Arial" font-size="20.00" fill="blue">gap: 57sec</text>
<text text-anchor="middle" x="1165.21" y="-1561.1" font-family="Arial" font-size="20.00" fill="blue">end_prev: 04/11/17, 16:41:46</text>
</g>
<!-- BRUTE FORCE CREDENTIALS
websm | ID: 66&#45;&gt;SURFING
remoteware&#45;cl -->
<g id="edge30" class="edge">
<title>BRUTE FORCE CREDENTIALS
websm | ID: 66&#45;&gt;SURFING
remoteware&#45;cl</title>
<path fill="none" stroke="blue" stroke-width="5" d="M1214.84,-1526.04C1252.73,-1531.56 1285.07,-1540.56 1297.71,-1555.1 1316.96,-1577.23 1316.44,-1598.53 1297.71,-1621.1 1279.72,-1642.76 1219.96,-1654.98 1161.83,-1661.85"/>
<polygon fill="blue" stroke="blue" stroke-width="5" points="1161.21,-1657.52 1151.77,-1662.99 1162.2,-1666.21 1161.21,-1657.52"/>
<text text-anchor="middle" x="1444.21" y="-1605.1" font-family="Arial" font-size="20.00" fill="blue">start_next: 04/11/17, 18:13:47</text>
<text text-anchor="middle" x="1444.21" y="-1583.1" font-family="Arial" font-size="20.00" fill="blue">gap: 59sec</text>
<text text-anchor="middle" x="1444.21" y="-1561.1" font-family="Arial" font-size="20.00" fill="blue">end_prev: 04/11/17, 18:12:49</text>
</g>
<!-- SURFING
remoteware&#45;cl&#45;&gt;DATA DELIVERY
remoteware&#45;cl | ID: &#45;1 -->
<g id="edge11" class="edge">
<title>SURFING
remoteware&#45;cl&#45;&gt;DATA DELIVERY
remoteware&#45;cl | ID: &#45;1</title>
<path fill="none" stroke="blue" stroke-width="5" d="M915.49,-1679.35C851.92,-1685.75 782.58,-1698.12 762.71,-1721.95 743.92,-1744.48 744.18,-1765.21 762.71,-1787.95 776.46,-1804.83 814.45,-1816.78 857.79,-1825.17"/>
<polygon fill="blue" stroke="blue" stroke-width="5" points="857.07,-1829.48 867.7,-1827.01 858.67,-1820.88 857.07,-1829.48"/>
<text text-anchor="middle" x="894.21" y="-1771.95" font-family="Arial" font-size="20.00" fill="blue">start_next: 04/11/17, 14:14:48</text>
<text text-anchor="middle" x="894.21" y="-1749.95" font-family="Arial" font-size="20.00" fill="blue">gap: 7sec</text>
<text text-anchor="middle" x="894.21" y="-1727.95" font-family="Arial" font-size="20.00" fill="blue">end_prev: 04/11/17, 14:14:41</text>
</g>
<!-- SURFING
remoteware&#45;cl&#45;&gt;DATA DELIVERY
remoteware&#45;cl | ID: &#45;1 -->
<g id="edge20" class="edge">
<title>SURFING
remoteware&#45;cl&#45;&gt;DATA DELIVERY
remoteware&#45;cl | ID: &#45;1</title>
<path fill="none" stroke="blue" stroke-width="5" d="M1033.71,-1714.02C1033.71,-1735.51 1033.71,-1762.11 1033.71,-1785.63"/>
<polygon fill="blue" stroke="blue" stroke-width="5" points="1029.33,-1785.84 1033.71,-1795.84 1038.08,-1785.84 1029.33,-1785.84"/>
<text text-anchor="middle" x="1165.21" y="-1771.95" font-family="Arial" font-size="20.00" fill="blue">start_next: 04/11/17, 16:43:31</text>
<text text-anchor="middle" x="1165.21" y="-1749.95" font-family="Arial" font-size="20.00" fill="blue">gap: 7sec</text>
<text text-anchor="middle" x="1165.21" y="-1727.95" font-family="Arial" font-size="20.00" fill="blue">end_prev: 04/11/17, 16:43:24</text>
</g>
<!-- SURFING
remoteware&#45;cl&#45;&gt;DATA DELIVERY
remoteware&#45;cl | ID: &#45;1 -->
<g id="edge31" class="edge">
<title>SURFING
remoteware&#45;cl&#45;&gt;DATA DELIVERY
remoteware&#45;cl | ID: &#45;1</title>
<path fill="none" stroke="blue" stroke-width="5" d="M1151.77,-1680.05C1212.9,-1686.68 1278.68,-1699.03 1297.71,-1721.95 1316.44,-1744.52 1316.17,-1765.16 1297.71,-1787.95 1284.64,-1804.08 1248.96,-1815.76 1207.91,-1824.13"/>
<polygon fill="blue" stroke="blue" stroke-width="5" points="1206.91,-1819.86 1197.94,-1826.08 1208.59,-1828.45 1206.91,-1819.86"/>
<text text-anchor="middle" x="1443.21" y="-1771.95" font-family="Arial" font-size="20.00" fill="blue">start_next: 04/11/17, 18:14:36</text>
<text text-anchor="middle" x="1443.21" y="-1749.95" font-family="Arial" font-size="20.00" fill="blue">gap: 7sec</text>
<text text-anchor="middle" x="1443.21" y="-1727.95" font-family="Arial" font-size="20.00" fill="blue">end_prev: 04/11/17, 18:14:29</text>
</g>
<!-- DATA EXFILTRATION
remoteware&#45;cl | ID: 67 -->
<g id="node11" class="node">
<title>DATA EXFILTRATION
remoteware&#45;cl | ID: 67</title>
<g id="a_node11"><a xlink:title="ET WEB_SPECIFIC_APPS PHP&#45;CGI query string parameter vulnerability">
<polygon fill="yellow" stroke="black" stroke-width="3" points="1153.99,-48.99 1050.35,-97.97 843.07,-97.97 739.43,-48.99 843.07,-0.01 1050.35,-0.01 1153.99,-48.99"/>
<text text-anchor="middle" x="946.71" y="-55.79" font-family="Arial" font-size="24.00">DATA EXFILTRATION</text>
<text text-anchor="middle" x="946.71" y="-29.79" font-family="Arial" font-size="24.00">remoteware&#45;cl | ID: 67</text>
</a>
</g>
</g>
<!-- DATA EXFILTRATION
remoteware&#45;cl | ID: 67&#45;&gt;VULNERABILTY DISCOVERY
ncube&#45;lm -->
<g id="edge12" class="edge">
<title>DATA EXFILTRATION
remoteware&#45;cl | ID: 67&#45;&gt;VULNERABILTY DISCOVERY
ncube&#45;lm</title>
<path fill="none" stroke="blue" stroke-width="5" d="M883.55,-97.98C846.8,-125.91 800.67,-160.97 764.2,-188.68"/>
<polygon fill="blue" stroke="blue" stroke-width="5" points="761.41,-185.3 756.1,-194.83 766.71,-192.27 761.41,-185.3"/>
<text text-anchor="start" x="868.71" y="-170.98" font-family="Arial" font-size="20.00" fill="blue"> start_next: 04/11/17, 16:30:33</text>
<text text-anchor="start" x="942.21" y="-150.98" font-family="Arial" font-size="20.00" fill="blue">gap: 8034sec</text>
<text text-anchor="start" x="872.71" y="-130.98" font-family="Arial" font-size="20.00" fill="blue">end_prev: 04/11/17, 14:16:39</text>
<text text-anchor="start" x="903.21" y="-110.98" font-family="Arial" font-weight="bold" font-size="20.00" fill="blue">Attacker: 10.0.254.31</text>
</g>
<!-- VULNERABILTY DISCOVERY
ms&#45;sql&#45;s -->
<g id="node14" class="node">
<title>VULNERABILTY DISCOVERY
ms&#45;sql&#45;s</title>
<g id="a_node14"><a xlink:title="ET POLICY Suspicious inbound to MSSQL port 1433&#10;ET POLICY Suspicious inbound to Oracle SQL port 1521&#10;ET POLICY Suspicious inbound to mSQL port 4333">
<ellipse fill="none" stroke="black" stroke-width="3" cx="1424.71" cy="-236.41" rx="241.25" ry="42.35"/>
<text text-anchor="middle" x="1424.71" y="-243.21" font-family="Arial" font-size="24.00">VULNERABILTY DISCOVERY</text>
<text text-anchor="middle" x="1424.71" y="-217.21" font-family="Arial" font-size="24.00">ms&#45;sql&#45;s</text>
</a>
</g>
</g>
<!-- DATA EXFILTRATION
remoteware&#45;cl | ID: 67&#45;&gt;VULNERABILTY DISCOVERY
ms&#45;sql&#45;s -->
<g id="edge21" class="edge">
<title>DATA EXFILTRATION
remoteware&#45;cl | ID: 67&#45;&gt;VULNERABILTY DISCOVERY
ms&#45;sql&#45;s</title>
<path fill="none" stroke="blue" stroke-width="5" d="M1076.96,-85.54C1097.44,-91.89 1118.26,-98.78 1137.71,-105.98 1205.81,-131.18 1280.52,-165.08 1336.64,-191.87"/>
<polygon fill="blue" stroke="blue" stroke-width="5" points="1334.93,-195.9 1345.84,-196.27 1338.71,-188 1334.93,-195.9"/>
<text text-anchor="start" x="1323.71" y="-170.98" font-family="Arial" font-size="20.00" fill="blue"> start_next: 04/11/17, 18:01:11</text>
<text text-anchor="start" x="1396.71" y="-150.98" font-family="Arial" font-size="20.00" fill="blue">gap: 4555sec</text>
<text text-anchor="start" x="1327.21" y="-130.98" font-family="Arial" font-size="20.00" fill="blue">end_prev: 04/11/17, 16:45:16</text>
<text text-anchor="start" x="1357.71" y="-110.98" font-family="Arial" font-weight="bold" font-size="20.00" fill="blue">Attacker: 10.0.254.31</text>
</g>
<!-- BRUTE FORCE CREDENTIALS
pop3s | ID: 886&#45;&gt;ARBITRARY CODE EXECUTION
ssdp | ID: 355 -->
<g id="edge14" class="edge">
<title>BRUTE FORCE CREDENTIALS
pop3s | ID: 886&#45;&gt;ARBITRARY CODE EXECUTION
ssdp | ID: 355</title>
<path fill="none" stroke="blue" stroke-width="5" d="M1289.71,-447.29C1289.71,-471.16 1289.71,-505.2 1289.71,-531.49"/>
<polygon fill="blue" stroke="blue" stroke-width="5" points="1285.33,-531.51 1289.71,-541.51 1294.08,-531.51 1285.33,-531.51"/>
<text text-anchor="middle" x="1421.21" y="-517.69" font-family="Arial" font-size="20.00" fill="blue">start_next: 04/11/17, 16:33:22</text>
<text text-anchor="middle" x="1421.21" y="-495.69" font-family="Arial" font-size="20.00" fill="blue">gap: 159sec</text>
<text text-anchor="middle" x="1421.21" y="-473.69" font-family="Arial" font-size="20.00" fill="blue">end_prev: 04/11/17, 16:30:43</text>
</g>
<!-- VULNERABILTY DISCOVERY
remoteware&#45;cl&#45;&gt;INFO DISCOVERY
remoteware&#45;cl -->
<g id="edge17" class="edge">
<title>VULNERABILTY DISCOVERY
remoteware&#45;cl&#45;&gt;INFO DISCOVERY
remoteware&#45;cl</title>
<path fill="none" stroke="blue" stroke-width="5" d="M1096.87,-1219.07C1069.6,-1225.88 1047.58,-1234.74 1037.71,-1246.24 1029.49,-1255.82 1028.39,-1283.85 1029.39,-1309.9"/>
<polygon fill="blue" stroke="blue" stroke-width="5" points="1025.03,-1310.34 1029.88,-1320.12 1033.77,-1309.91 1025.03,-1310.34"/>
<text text-anchor="middle" x="1169.21" y="-1296.24" font-family="Arial" font-size="20.00" fill="blue">start_next: 04/11/17, 16:41:45</text>
<text text-anchor="middle" x="1169.21" y="-1274.24" font-family="Arial" font-size="20.00" fill="blue">gap: &#45;215sec</text>
<text text-anchor="middle" x="1169.21" y="-1252.24" font-family="Arial" font-size="20.00" fill="blue">end_prev: 04/11/17, 16:45:20</text>
</g>
<!-- VULNERABILTY DISCOVERY
remoteware&#45;cl&#45;&gt;INFO DISCOVERY
remoteware&#45;cl -->
<g id="edge28" class="edge">
<title>VULNERABILTY DISCOVERY
remoteware&#45;cl&#45;&gt;INFO DISCOVERY
remoteware&#45;cl</title>
<path fill="none" stroke="blue" stroke-width="5" d="M1310.33,-1238.38C1314.43,-1262.59 1314.5,-1292.19 1297.71,-1312.24 1282.89,-1329.93 1240.08,-1341.33 1193.13,-1348.66"/>
<polygon fill="blue" stroke="blue" stroke-width="5" points="1192.31,-1344.36 1183.06,-1350.16 1193.6,-1353.01 1192.31,-1344.36"/>
<text text-anchor="middle" x="1444.21" y="-1296.24" font-family="Arial" font-size="20.00" fill="blue">start_next: 04/11/17, 18:12:48</text>
<text text-anchor="middle" x="1444.21" y="-1274.24" font-family="Arial" font-size="20.00" fill="blue">gap: &#45;177sec</text>
<text text-anchor="middle" x="1444.21" y="-1252.24" font-family="Arial" font-size="20.00" fill="blue">end_prev: 04/11/17, 18:15:45</text>
</g>
<!-- BRUTE FORCE CREDENTIALS
pop3 | ID: 887 -->
<g id="node15" class="node">
<title>BRUTE FORCE CREDENTIALS
pop3 | ID: 887</title>
<g id="a_node15"><a xlink:title="ET SCAN Rapid POP3 Connections &#45; Possible Brute Force Attack">
<polygon fill="none" stroke="black" stroke-width="3" points="1839.71,-447.26 1477.71,-447.26 1477.71,-387.26 1839.71,-387.26 1839.71,-447.26"/>
<text text-anchor="middle" x="1658.71" y="-424.06" font-family="Arial" font-size="24.00">BRUTE FORCE CREDENTIALS</text>
<text text-anchor="middle" x="1658.71" y="-398.06" font-family="Arial" font-size="24.00">pop3 | ID: 887</text>
</a>
</g>
</g>
<!-- VULNERABILTY DISCOVERY
ms&#45;sql&#45;s&#45;&gt;BRUTE FORCE CREDENTIALS
pop3 | ID: 887 -->
<g id="edge22" class="edge">
<title>VULNERABILTY DISCOVERY
ms&#45;sql&#45;s&#45;&gt;BRUTE FORCE CREDENTIALS
pop3 | ID: 887</title>
<path fill="none" stroke="blue" stroke-width="5" d="M1477.81,-277.99C1518.47,-309.07 1573.98,-351.5 1612.75,-381.13"/>
<polygon fill="blue" stroke="blue" stroke-width="5" points="1610.16,-384.66 1620.76,-387.25 1615.47,-377.71 1610.16,-384.66"/>
<text text-anchor="middle" x="1720.21" y="-343.83" font-family="Arial" font-size="20.00" fill="blue">start_next: 04/11/17, 18:02:34</text>
<text text-anchor="middle" x="1720.21" y="-321.83" font-family="Arial" font-size="20.00" fill="blue">gap: &#45;36sec</text>
<text text-anchor="middle" x="1720.21" y="-299.83" font-family="Arial" font-size="20.00" fill="blue">end_prev: 04/11/17, 18:03:10</text>
</g>
<!-- BRUTE FORCE CREDENTIALS
pop3 | ID: 887&#45;&gt;ARBITRARY CODE EXECUTION
ssdp | ID: 355 -->
<g id="edge23" class="edge">
<title>BRUTE FORCE CREDENTIALS
pop3 | ID: 887&#45;&gt;ARBITRARY CODE EXECUTION
ssdp | ID: 355</title>
<path fill="none" stroke="blue" stroke-width="5" d="M1640.97,-447.26C1622.68,-474.41 1591.55,-513.69 1553.71,-533.69 1540.16,-540.84 1515.97,-546.77 1487.55,-551.63"/>
<polygon fill="blue" stroke="blue" stroke-width="5" points="1486.49,-547.37 1477.32,-553.3 1487.9,-556 1486.49,-547.37"/>
<text text-anchor="middle" x="1755.21" y="-517.69" font-family="Arial" font-size="20.00" fill="blue">start_next: 04/11/17, 18:04:24</text>
<text text-anchor="middle" x="1755.21" y="-495.69" font-family="Arial" font-size="20.00" fill="blue">gap: 111sec</text>
<text text-anchor="middle" x="1755.21" y="-473.69" font-family="Arial" font-size="20.00" fill="blue">end_prev: 04/11/17, 18:02:34</text>
</g>
<!-- REMOTE SERVICE EXPLOIT
snmp | ID: 365 -->
<g id="node17" class="node">
<title>REMOTE SERVICE EXPLOIT
snmp | ID: 365</title>
<g id="a_node17"><a xlink:title="ET SNMP Samsung Printer SNMP Hardcode RW Community String">
<polygon fill="none" stroke="black" stroke-width="3" points="1733.71,-910.54 1395.71,-910.54 1395.71,-850.54 1733.71,-850.54 1733.71,-910.54"/>
<text text-anchor="middle" x="1564.71" y="-887.34" font-family="Arial" font-size="24.00">REMOTE SERVICE EXPLOIT</text>
<text text-anchor="middle" x="1564.71" y="-861.34" font-family="Arial" font-size="24.00">snmp | ID: 365</text>
</a>
</g>
</g>
<!-- INFO DISCOVERY
xdmcp&#45;&gt;REMOTE SERVICE EXPLOIT
snmp | ID: 365 -->
<g id="edge25" class="edge">
<title>INFO DISCOVERY
xdmcp&#45;&gt;REMOTE SERVICE EXPLOIT
snmp | ID: 365</title>
<path fill="none" stroke="blue" stroke-width="5" d="M1564.71,-768.76C1564.71,-791.03 1564.71,-818.3 1564.71,-840.21"/>
<polygon fill="blue" stroke="blue" stroke-width="5" points="1560.33,-840.49 1564.71,-850.49 1569.08,-840.49 1560.33,-840.49"/>
<text text-anchor="middle" x="1696.21" y="-826.54" font-family="Arial" font-size="20.00" fill="blue">start_next: 04/11/17, 18:04:50</text>
<text text-anchor="middle" x="1696.21" y="-804.54" font-family="Arial" font-size="20.00" fill="blue">gap: &#45;1sec</text>
<text text-anchor="middle" x="1696.21" y="-782.54" font-family="Arial" font-size="20.00" fill="blue">end_prev: 04/11/17, 18:04:51</text>
</g>
<!-- ACCOUNT MANIPULATION
snmp | ID: 53 -->
<g id="node18" class="node">
<title>ACCOUNT MANIPULATION
snmp | ID: 53</title>
<g id="a_node18"><a xlink:title="GPL SNMP private access udp&#10;GPL SNMP public access udp">
<polygon fill="none" stroke="black" stroke-width="3" points="1672.71,-1071.39 1352.71,-1071.39 1352.71,-1011.39 1672.71,-1011.39 1672.71,-1071.39"/>
<text text-anchor="middle" x="1512.71" y="-1048.19" font-family="Arial" font-size="24.00">ACCOUNT MANIPULATION</text>
<text text-anchor="middle" x="1512.71" y="-1022.19" font-family="Arial" font-size="24.00">snmp | ID: 53</text>
</a>
</g>
</g>
<!-- REMOTE SERVICE EXPLOIT
snmp | ID: 365&#45;&gt;ACCOUNT MANIPULATION
snmp | ID: 53 -->
<g id="edge26" class="edge">
<title>REMOTE SERVICE EXPLOIT
snmp | ID: 365&#45;&gt;ACCOUNT MANIPULATION
snmp | ID: 53</title>
<path fill="none" stroke="blue" stroke-width="5" d="M1567.85,-910.72C1569.2,-934.36 1568.39,-968.19 1553.22,-1002.18"/>
<polygon fill="blue" stroke="blue" stroke-width="5" points="1549.23,-1000.38 1548.8,-1011.28 1557.1,-1004.2 1549.23,-1000.38"/>
<text text-anchor="middle" x="1700.21" y="-977.96" font-family="Arial" font-size="20.00" fill="blue">start_next: 04/11/17, 18:05:44</text>
<text text-anchor="middle" x="1700.21" y="-955.96" font-family="Arial" font-size="20.00" fill="blue">gap: 54sec</text>
<text text-anchor="middle" x="1700.21" y="-933.96" font-family="Arial" font-size="20.00" fill="blue">end_prev: 04/11/17, 18:04:50</text>
</g>
<!-- ACCOUNT MANIPULATION
snmp | ID: 53&#45;&gt;VULNERABILTY DISCOVERY
remoteware&#45;cl -->
<g id="edge27" class="edge">
<title>ACCOUNT MANIPULATION
snmp | ID: 53&#45;&gt;VULNERABILTY DISCOVERY
remoteware&#45;cl</title>
<path fill="none" stroke="blue" stroke-width="5" d="M1471.95,-1071.42C1441.41,-1093.17 1399.01,-1123.37 1363.8,-1148.46"/>
<polygon fill="blue" stroke="blue" stroke-width="5" points="1361.08,-1145.02 1355.48,-1154.38 1366.16,-1152.14 1361.08,-1145.02"/>
<text text-anchor="middle" x="1587.21" y="-1129.39" font-family="Arial" font-size="20.00" fill="blue">start_next: 04/11/17, 18:12:30</text>
<text text-anchor="middle" x="1587.21" y="-1107.39" font-family="Arial" font-size="20.00" fill="blue">gap: 395sec</text>
<text text-anchor="middle" x="1587.21" y="-1085.39" font-family="Arial" font-size="20.00" fill="blue">end_prev: 04/11/17, 18:05:56</text>
</g>
</g>
</svg>
