<?xml version="1.0" encoding="UTF-8" standalone="no"?>
<!DOCTYPE svg PUBLIC "-//W3C//DTD SVG 1.1//EN"
 "http://www.w3.org/Graphics/SVG/1.1/DTD/svg11.dtd">
<!-- Generated by graphviz version 2.50.0 (0)
 -->
<!-- Title: DATADELIVERYwsman Pages: 1 -->
<svg width="1006pt" height="1539pt"
 viewBox="0.00 0.00 1006.12 1539.16" xmlns="http://www.w3.org/2000/svg" xmlns:xlink="http://www.w3.org/1999/xlink">
<g id="graph0" class="graph" transform="scale(1 1) rotate(0) translate(4 1535.16)">
<title>DATADELIVERYwsman</title>
<polygon fill="white" stroke="transparent" points="-4,4 -4,-1535.16 1002.12,-1535.16 1002.12,4 -4,4"/>
<!-- Victim: 10.0.0.223
DATA DELIVERY
wsman -->
<g id="node1" class="node">
<title>Victim: 10.0.0.223
DATA DELIVERY
wsman</title>
<polygon fill="salmon" stroke="black" stroke-width="3" points="671.07,-1434.14 671.07,-1488.53 576.79,-1526.99 443.46,-1526.99 349.17,-1488.53 349.17,-1434.14 443.46,-1395.69 576.79,-1395.69 671.07,-1434.14"/>
<polygon fill="none" stroke="black" stroke-width="3" points="675.08,-1431.47 675.08,-1491.21 577.58,-1530.98 442.67,-1530.98 345.17,-1491.21 345.17,-1431.47 442.67,-1391.7 577.58,-1391.7 675.08,-1431.47"/>
<text text-anchor="middle" x="510.12" y="-1481.14" font-family="Arial" font-size="24.00">Victim: 10.0.0.223</text>
<text text-anchor="middle" x="510.12" y="-1455.14" font-family="Arial" font-size="24.00">DATA DELIVERY</text>
<text text-anchor="middle" x="510.12" y="-1429.14" font-family="Arial" font-size="24.00">wsman</text>
</g>
<!-- DATA DELIVERY
wsman | ID: 399 -->
<g id="node2" class="node">
<title>DATA DELIVERY
wsman | ID: 399</title>
<g id="a_node2"><a xlink:title="GPL WEB_SERVER perl post attempt">
<polygon fill="salmon" stroke="black" stroke-width="3" points="673.22,-1325.53 591.67,-1374.51 428.57,-1374.51 347.02,-1325.53 428.57,-1276.55 591.67,-1276.55 673.22,-1325.53"/>
<text text-anchor="middle" x="510.12" y="-1332.33" font-family="Arial" font-size="24.00">DATA DELIVERY</text>
<text text-anchor="middle" x="510.12" y="-1306.33" font-family="Arial" font-size="24.00">wsman | ID: 399</text>
</a>
</g>
</g>
<!-- DATA DELIVERY
wsman | ID: 399&#45;&gt;Victim: 10.0.0.223
DATA DELIVERY
wsman -->
<g id="edge1" class="edge">
<title>DATA DELIVERY
wsman | ID: 399&#45;&gt;Victim: 10.0.0.223
DATA DELIVERY
wsman</title>
<path fill="none" stroke="black" stroke-width="5" d="M510.12,-1374.84C510.12,-1376.94 510.12,-1379.07 510.12,-1381.22"/>
<polygon fill="black" stroke="black" stroke-width="5" points="505.75,-1381.38 510.12,-1391.38 514.5,-1381.38 505.75,-1381.38"/>
</g>
<!-- VULNERABILTY DISCOVERY
postgresql -->
<g id="node3" class="node">
<title>VULNERABILTY DISCOVERY
postgresql</title>
<g id="a_node3"><a xlink:title="ET POLICY Suspicious inbound to Oracle SQL port 1521&#10;ET POLICY Suspicious inbound to PostgreSQL port 5432">
<ellipse fill="yellow" stroke="black" stroke-width="3" cx="241.12" cy="-236.41" rx="241.25" ry="42.35"/>
<text text-anchor="middle" x="241.12" y="-243.21" font-family="Arial" font-size="24.00">VULNERABILTY DISCOVERY</text>
<text text-anchor="middle" x="241.12" y="-217.21" font-family="Arial" font-size="24.00">postgresql</text>
</a>
</g>
</g>
<!-- VULNERABILTY DISCOVERY
ms&#45;sql&#45;s -->
<g id="node4" class="node">
<title>VULNERABILTY DISCOVERY
ms&#45;sql&#45;s</title>
<g id="a_node4"><a xlink:title="ET POLICY Suspicious inbound to MSSQL port 1433&#10;ET POLICY Suspicious inbound to Oracle SQL port 1521&#10;ET POLICY Suspicious inbound to mSQL port 4333">
<ellipse fill="none" stroke="black" stroke-width="3" cx="241.12" cy="-417.26" rx="241.25" ry="42.35"/>
<text text-anchor="middle" x="241.12" y="-424.06" font-family="Arial" font-size="24.00">VULNERABILTY DISCOVERY</text>
<text text-anchor="middle" x="241.12" y="-398.06" font-family="Arial" font-size="24.00">ms&#45;sql&#45;s</text>
</a>
</g>
</g>
<!-- VULNERABILTY DISCOVERY
postgresql&#45;&gt;VULNERABILTY DISCOVERY
ms&#45;sql&#45;s -->
<g id="edge2" class="edge">
<title>VULNERABILTY DISCOVERY
postgresql&#45;&gt;VULNERABILTY DISCOVERY
ms&#45;sql&#45;s</title>
<path fill="none" stroke="blue" stroke-width="5" d="M241.12,-278.89C241.12,-304.42 241.12,-337.35 241.12,-364.57"/>
<polygon fill="blue" stroke="blue" stroke-width="5" points="236.75,-364.69 241.12,-374.69 245.5,-364.69 236.75,-364.69"/>
<text text-anchor="start" x="241.12" y="-351.83" font-family="Arial" font-size="20.00" fill="blue"> start_next: 04/11/17, 14:03:01</text>
<text text-anchor="start" x="314.62" y="-331.83" font-family="Arial" font-size="20.00" fill="blue">gap: 3603sec</text>
<text text-anchor="start" x="245.12" y="-311.83" font-family="Arial" font-size="20.00" fill="blue">end_prev: 04/11/17, 13:02:57</text>
<text text-anchor="start" x="275.62" y="-291.83" font-family="Arial" font-weight="bold" font-size="20.00" fill="blue">Attacker: 10.0.254.31</text>
</g>
<!-- SERVICE DISCOVERY
unknown -->
<g id="node5" class="node">
<title>SERVICE DISCOVERY
unknown</title>
<g id="a_node5"><a xlink:title="ET SCAN Potential VNC Scan 5800&#45;5820">
<ellipse fill="none" stroke="black" stroke-width="3" cx="318.12" cy="-584.11" rx="189.51" ry="42.35"/>
<text text-anchor="middle" x="318.12" y="-590.91" font-family="Arial" font-size="24.00">SERVICE DISCOVERY</text>
<text text-anchor="middle" x="318.12" y="-564.91" font-family="Arial" font-size="24.00">unknown</text>
</a>
</g>
</g>
<!-- VULNERABILTY DISCOVERY
ms&#45;sql&#45;s&#45;&gt;SERVICE DISCOVERY
unknown -->
<g id="edge3" class="edge">
<title>VULNERABILTY DISCOVERY
ms&#45;sql&#45;s&#45;&gt;SERVICE DISCOVERY
unknown</title>
<path fill="none" stroke="blue" stroke-width="5" d="M260.55,-459.86C270.85,-481.91 283.59,-509.17 294.46,-532.44"/>
<polygon fill="blue" stroke="blue" stroke-width="5" points="290.64,-534.6 298.83,-541.81 298.56,-530.9 290.64,-534.6"/>
<text text-anchor="middle" x="425.62" y="-517.69" font-family="Arial" font-size="20.00" fill="blue">start_next: 04/11/17, 14:04:31</text>
<text text-anchor="middle" x="425.62" y="-495.69" font-family="Arial" font-size="20.00" fill="blue">gap: 13sec</text>
<text text-anchor="middle" x="425.62" y="-473.69" font-family="Arial" font-size="20.00" fill="blue">end_prev: 04/11/17, 14:04:18</text>
</g>
<!-- ARBITRARY CODE EXECUTION
microsoft&#45;ds | ID: 309 -->
<g id="node6" class="node">
<title>ARBITRARY CODE EXECUTION
microsoft&#45;ds | ID: 309</title>
<g id="a_node6"><a xlink:title="GPL NETBIOS DCERPC Remote Activation bind attempt&#10;ET CURRENT_EVENTS QNAP Shellshock CVE&#45;2014&#45;6271&#10;GPL NETBIOS DCERPC IActivation little endian bind attempt&#10;GPL MISC UPnP malformed advertisement&#10;GPL NETBIOS SMB&#45;DS Session Setup NTMLSSP unicode asn1 overflow attempt">
<polygon fill="none" stroke="black" stroke-width="3" points="697.62,-768.54 322.62,-768.54 322.62,-708.54 697.62,-708.54 697.62,-768.54"/>
<text text-anchor="middle" x="510.12" y="-745.34" font-family="Arial" font-size="24.00">ARBITRARY CODE EXECUTION</text>
<text text-anchor="middle" x="510.12" y="-719.34" font-family="Arial" font-size="24.00">microsoft&#45;ds | ID: 309</text>
</a>
</g>
</g>
<!-- SERVICE DISCOVERY
unknown&#45;&gt;ARBITRARY CODE EXECUTION
microsoft&#45;ds | ID: 309 -->
<g id="edge4" class="edge">
<title>SERVICE DISCOVERY
unknown&#45;&gt;ARBITRARY CODE EXECUTION
microsoft&#45;ds | ID: 309</title>
<path fill="none" stroke="blue" stroke-width="5" d="M343.25,-626.41C359.89,-650.82 383.68,-680.73 411.12,-700.54 412.33,-701.41 413.56,-702.26 414.82,-703.1"/>
<polygon fill="blue" stroke="blue" stroke-width="5" points="412.54,-706.84 423.35,-708.37 417.13,-699.39 412.54,-706.84"/>
<text text-anchor="middle" x="542.62" y="-684.54" font-family="Arial" font-size="20.00" fill="blue">start_next: 04/11/17, 14:04:45</text>
<text text-anchor="middle" x="542.62" y="-662.54" font-family="Arial" font-size="20.00" fill="blue">gap: 14sec</text>
<text text-anchor="middle" x="542.62" y="-640.54" font-family="Arial" font-size="20.00" fill="blue">end_prev: 04/11/17, 14:04:31</text>
</g>
<!-- REMOTE SERVICE EXPLOIT
snmp | ID: 52 -->
<g id="node7" class="node">
<title>REMOTE SERVICE EXPLOIT
snmp | ID: 52</title>
<g id="a_node7"><a xlink:title="ET SNMP Samsung Printer SNMP Hardcode RW Community String">
<polygon fill="none" stroke="black" stroke-width="3" points="679.12,-910.54 341.12,-910.54 341.12,-850.54 679.12,-850.54 679.12,-910.54"/>
<text text-anchor="middle" x="510.12" y="-887.34" font-family="Arial" font-size="24.00">REMOTE SERVICE EXPLOIT</text>
<text text-anchor="middle" x="510.12" y="-861.34" font-family="Arial" font-size="24.00">snmp | ID: 52</text>
</a>
</g>
</g>
<!-- ARBITRARY CODE EXECUTION
microsoft&#45;ds | ID: 309&#45;&gt;REMOTE SERVICE EXPLOIT
snmp | ID: 52 -->
<g id="edge5" class="edge">
<title>ARBITRARY CODE EXECUTION
microsoft&#45;ds | ID: 309&#45;&gt;REMOTE SERVICE EXPLOIT
snmp | ID: 52</title>
<path fill="none" stroke="blue" stroke-width="5" d="M386.82,-768.69C382.56,-771.16 379.23,-773.77 377.12,-776.54 359.38,-799.89 359.38,-819.18 377.12,-842.54 377.58,-843.14 378.1,-843.74 378.68,-844.33"/>
<polygon fill="blue" stroke="blue" stroke-width="5" points="376.18,-847.93 386.82,-850.38 381.4,-840.91 376.18,-847.93"/>
<text text-anchor="middle" x="508.62" y="-826.54" font-family="Arial" font-size="20.00" fill="blue">start_next: 04/11/17, 14:05:21</text>
<text text-anchor="middle" x="508.62" y="-804.54" font-family="Arial" font-size="20.00" fill="blue">gap: &#45;80sec</text>
<text text-anchor="middle" x="508.62" y="-782.54" font-family="Arial" font-size="20.00" fill="blue">end_prev: 04/11/17, 14:06:41</text>
</g>
<!-- ARBITRARY CODE EXECUTION
microsoft&#45;ds | ID: 309&#45;&gt;REMOTE SERVICE EXPLOIT
snmp | ID: 52 -->
<g id="edge13" class="edge">
<title>ARBITRARY CODE EXECUTION
microsoft&#45;ds | ID: 309&#45;&gt;REMOTE SERVICE EXPLOIT
snmp | ID: 52</title>
<path fill="none" stroke="blue" stroke-width="5" d="M630.37,-768.85C632.8,-771.22 635.06,-773.78 637.12,-776.54 654.73,-800 654.73,-819.07 637.12,-842.54 637.06,-842.62 636.99,-842.71 636.93,-842.8"/>
<polygon fill="blue" stroke="blue" stroke-width="5" points="633.7,-839.84 630.37,-850.23 640.27,-845.63 633.7,-839.84"/>
<text text-anchor="middle" x="781.62" y="-826.54" font-family="Arial" font-size="20.00" fill="blue">start_next: 04/11/17, 16:33:47</text>
<text text-anchor="middle" x="781.62" y="-804.54" font-family="Arial" font-size="20.00" fill="blue">gap: &#45;170sec</text>
<text text-anchor="middle" x="781.62" y="-782.54" font-family="Arial" font-size="20.00" fill="blue">end_prev: 04/11/17, 16:36:37</text>
</g>
<!-- COMMAND AND CONTROL
unknown | ID: 308 -->
<g id="node8" class="node">
<title>COMMAND AND CONTROL
unknown | ID: 308</title>
<g id="a_node8"><a xlink:title="ET POLICY RDP connection confirm">
<polygon fill="none" stroke="black" stroke-width="3" points="671.62,-1052.54 348.62,-1052.54 348.62,-992.54 671.62,-992.54 671.62,-1052.54"/>
<text text-anchor="middle" x="510.12" y="-1029.34" font-family="Arial" font-size="24.00">COMMAND AND CONTROL</text>
<text text-anchor="middle" x="510.12" y="-1003.34" font-family="Arial" font-size="24.00">unknown | ID: 308</text>
</a>
</g>
</g>
<!-- REMOTE SERVICE EXPLOIT
snmp | ID: 52&#45;&gt;COMMAND AND CONTROL
unknown | ID: 308 -->
<g id="edge6" class="edge">
<title>REMOTE SERVICE EXPLOIT
snmp | ID: 52&#45;&gt;COMMAND AND CONTROL
unknown | ID: 308</title>
<path fill="none" stroke="blue" stroke-width="5" d="M386.82,-910.69C382.56,-913.16 379.23,-915.77 377.12,-918.54 359.38,-941.89 359.38,-961.18 377.12,-984.54 377.58,-985.14 378.1,-985.74 378.68,-986.33"/>
<polygon fill="blue" stroke="blue" stroke-width="5" points="376.18,-989.93 386.82,-992.38 381.4,-982.91 376.18,-989.93"/>
<text text-anchor="middle" x="508.62" y="-968.54" font-family="Arial" font-size="20.00" fill="blue">start_next: 04/11/17, 14:05:45</text>
<text text-anchor="middle" x="508.62" y="-946.54" font-family="Arial" font-size="20.00" fill="blue">gap: 24sec</text>
<text text-anchor="middle" x="508.62" y="-924.54" font-family="Arial" font-size="20.00" fill="blue">end_prev: 04/11/17, 14:05:21</text>
</g>
<!-- REMOTE SERVICE EXPLOIT
snmp | ID: 52&#45;&gt;COMMAND AND CONTROL
unknown | ID: 308 -->
<g id="edge14" class="edge">
<title>REMOTE SERVICE EXPLOIT
snmp | ID: 52&#45;&gt;COMMAND AND CONTROL
unknown | ID: 308</title>
<path fill="none" stroke="blue" stroke-width="5" d="M630.37,-910.85C632.8,-913.22 635.06,-915.78 637.12,-918.54 654.73,-942 654.73,-961.07 637.12,-984.54 637.06,-984.62 636.99,-984.71 636.93,-984.8"/>
<polygon fill="blue" stroke="blue" stroke-width="5" points="633.7,-981.84 630.37,-992.23 640.27,-987.63 633.7,-981.84"/>
<text text-anchor="middle" x="781.62" y="-968.54" font-family="Arial" font-size="20.00" fill="blue">start_next: 04/11/17, 16:34:13</text>
<text text-anchor="middle" x="781.62" y="-946.54" font-family="Arial" font-size="20.00" fill="blue">gap: 26sec</text>
<text text-anchor="middle" x="781.62" y="-924.54" font-family="Arial" font-size="20.00" fill="blue">end_prev: 04/11/17, 16:33:47</text>
</g>
<!-- ACCOUNT MANIPULATION
snmp | ID: 53 -->
<g id="node9" class="node">
<title>ACCOUNT MANIPULATION
snmp | ID: 53</title>
<g id="a_node9"><a xlink:title="GPL SNMP private access udp&#10;GPL SNMP public access udp">
<polygon fill="none" stroke="black" stroke-width="3" points="670.12,-1194.54 350.12,-1194.54 350.12,-1134.54 670.12,-1134.54 670.12,-1194.54"/>
<text text-anchor="middle" x="510.12" y="-1171.34" font-family="Arial" font-size="24.00">ACCOUNT MANIPULATION</text>
<text text-anchor="middle" x="510.12" y="-1145.34" font-family="Arial" font-size="24.00">snmp | ID: 53</text>
</a>
</g>
</g>
<!-- COMMAND AND CONTROL
unknown | ID: 308&#45;&gt;ACCOUNT MANIPULATION
snmp | ID: 53 -->
<g id="edge7" class="edge">
<title>COMMAND AND CONTROL
unknown | ID: 308&#45;&gt;ACCOUNT MANIPULATION
snmp | ID: 53</title>
<path fill="none" stroke="blue" stroke-width="5" d="M386.82,-1052.69C382.56,-1055.16 379.23,-1057.77 377.12,-1060.54 359.38,-1083.89 359.38,-1103.18 377.12,-1126.54 377.58,-1127.14 378.1,-1127.74 378.68,-1128.33"/>
<polygon fill="blue" stroke="blue" stroke-width="5" points="376.18,-1131.93 386.82,-1134.38 381.4,-1124.91 376.18,-1131.93"/>
<text text-anchor="middle" x="508.62" y="-1110.54" font-family="Arial" font-size="20.00" fill="blue">start_next: 04/11/17, 14:05:50</text>
<text text-anchor="middle" x="508.62" y="-1088.54" font-family="Arial" font-size="20.00" fill="blue">gap: &#45;110sec</text>
<text text-anchor="middle" x="508.62" y="-1066.54" font-family="Arial" font-size="20.00" fill="blue">end_prev: 04/11/17, 14:07:41</text>
</g>
<!-- COMMAND AND CONTROL
unknown | ID: 308&#45;&gt;ACCOUNT MANIPULATION
snmp | ID: 53 -->
<g id="edge15" class="edge">
<title>COMMAND AND CONTROL
unknown | ID: 308&#45;&gt;ACCOUNT MANIPULATION
snmp | ID: 53</title>
<path fill="none" stroke="blue" stroke-width="5" d="M630.37,-1052.85C632.8,-1055.22 635.06,-1057.78 637.12,-1060.54 654.73,-1084 654.73,-1103.07 637.12,-1126.54 637.06,-1126.62 636.99,-1126.71 636.93,-1126.8"/>
<polygon fill="blue" stroke="blue" stroke-width="5" points="633.7,-1123.84 630.37,-1134.23 640.27,-1129.63 633.7,-1123.84"/>
<text text-anchor="middle" x="781.62" y="-1110.54" font-family="Arial" font-size="20.00" fill="blue">start_next: 04/11/17, 16:34:19</text>
<text text-anchor="middle" x="781.62" y="-1088.54" font-family="Arial" font-size="20.00" fill="blue">gap: &#45;105sec</text>
<text text-anchor="middle" x="781.62" y="-1066.54" font-family="Arial" font-size="20.00" fill="blue">end_prev: 04/11/17, 16:36:04</text>
</g>
<!-- ACCOUNT MANIPULATION
snmp | ID: 53&#45;&gt;DATA DELIVERY
wsman | ID: 399 -->
<g id="edge8" class="edge">
<title>ACCOUNT MANIPULATION
snmp | ID: 53&#45;&gt;DATA DELIVERY
wsman | ID: 399</title>
<path fill="none" stroke="blue" stroke-width="5" d="M386.82,-1194.69C382.56,-1197.16 379.23,-1199.77 377.12,-1202.54 359.38,-1225.89 360.9,-1244.1 377.12,-1268.54 381.61,-1275.29 387.08,-1281.23 393.22,-1286.45"/>
<polygon fill="blue" stroke="blue" stroke-width="5" points="390.74,-1290.06 401.33,-1292.69 396.07,-1283.13 390.74,-1290.06"/>
<text text-anchor="middle" x="508.62" y="-1252.54" font-family="Arial" font-size="20.00" fill="blue">start_next: 04/11/17, 14:06:39</text>
<text text-anchor="middle" x="508.62" y="-1230.54" font-family="Arial" font-size="20.00" fill="blue">gap: 41sec</text>
<text text-anchor="middle" x="508.62" y="-1208.54" font-family="Arial" font-size="20.00" fill="blue">end_prev: 04/11/17, 14:05:58</text>
</g>
<!-- ACCOUNT MANIPULATION
snmp | ID: 53&#45;&gt;DATA DELIVERY
wsman | ID: 399 -->
<g id="edge16" class="edge">
<title>ACCOUNT MANIPULATION
snmp | ID: 53&#45;&gt;DATA DELIVERY
wsman | ID: 399</title>
<path fill="none" stroke="blue" stroke-width="5" d="M630.37,-1194.85C632.8,-1197.22 635.06,-1199.78 637.12,-1202.54 654.73,-1226 653.14,-1243.97 637.12,-1268.54 633.32,-1274.37 628.76,-1279.6 623.66,-1284.29"/>
<polygon fill="blue" stroke="blue" stroke-width="5" points="620.74,-1281.02 615.82,-1290.77 626.32,-1287.76 620.74,-1281.02"/>
<text text-anchor="middle" x="780.62" y="-1252.54" font-family="Arial" font-size="20.00" fill="blue">start_next: 04/11/17, 16:35:00</text>
<text text-anchor="middle" x="780.62" y="-1230.54" font-family="Arial" font-size="20.00" fill="blue">gap: 34sec</text>
<text text-anchor="middle" x="780.62" y="-1208.54" font-family="Arial" font-size="20.00" fill="blue">end_prev: 04/11/17, 16:34:27</text>
</g>
<!-- DATA EXFILTRATION
wsman | ID: 63 -->
<g id="node10" class="node">
<title>DATA EXFILTRATION
wsman | ID: 63</title>
<g id="a_node10"><a xlink:title="ET WEB_SPECIFIC_APPS PHP&#45;CGI query string parameter vulnerability">
<polygon fill="yellow" stroke="black" stroke-width="3" points="935,-48.99 832.56,-97.97 627.68,-97.97 525.24,-48.99 627.68,-0.01 832.56,-0.01 935,-48.99"/>
<text text-anchor="middle" x="730.12" y="-55.79" font-family="Arial" font-size="24.00">DATA EXFILTRATION</text>
<text text-anchor="middle" x="730.12" y="-29.79" font-family="Arial" font-size="24.00">wsman | ID: 63</text>
</a>
</g>
</g>
<!-- SERVICE DISCOVERY
rfb -->
<g id="node11" class="node">
<title>SERVICE DISCOVERY
rfb</title>
<g id="a_node11"><a xlink:title="ET SCAN Potential VNC Scan 5800&#45;5820&#10;ET SCAN Potential VNC Scan 5900&#45;5920">
<ellipse fill="none" stroke="black" stroke-width="3" cx="730.12" cy="-236.41" rx="189.51" ry="42.35"/>
<text text-anchor="middle" x="730.12" y="-243.21" font-family="Arial" font-size="24.00">SERVICE DISCOVERY</text>
<text text-anchor="middle" x="730.12" y="-217.21" font-family="Arial" font-size="24.00">rfb</text>
</a>
</g>
</g>
<!-- DATA EXFILTRATION
wsman | ID: 63&#45;&gt;SERVICE DISCOVERY
rfb -->
<g id="edge9" class="edge">
<title>DATA EXFILTRATION
wsman | ID: 63&#45;&gt;SERVICE DISCOVERY
rfb</title>
<path fill="none" stroke="blue" stroke-width="5" d="M730.12,-98.22C730.12,-124.37 730.12,-156.7 730.12,-183.4"/>
<polygon fill="blue" stroke="blue" stroke-width="5" points="725.75,-183.71 730.12,-193.71 734.5,-183.71 725.75,-183.71"/>
<text text-anchor="start" x="730.12" y="-170.98" font-family="Arial" font-size="20.00" fill="blue"> start_next: 04/11/17, 16:22:36</text>
<text text-anchor="start" x="803.62" y="-150.98" font-family="Arial" font-size="20.00" fill="blue">gap: 8154sec</text>
<text text-anchor="start" x="734.12" y="-130.98" font-family="Arial" font-size="20.00" fill="blue">end_prev: 04/11/17, 14:06:42</text>
<text text-anchor="start" x="764.62" y="-110.98" font-family="Arial" font-weight="bold" font-size="20.00" fill="blue">Attacker: 10.0.254.31</text>
</g>
<!-- VULNERABILTY DISCOVERY
ahsp -->
<g id="node12" class="node">
<title>VULNERABILTY DISCOVERY
ahsp</title>
<g id="a_node12"><a xlink:title="ET POLICY Suspicious inbound to mySQL port 3306&#10;ET POLICY Suspicious inbound to mSQL port 4333&#10;ET POLICY Suspicious inbound to MSSQL port 1433&#10;ET POLICY Suspicious inbound to Oracle SQL port 1521&#10;ET POLICY Suspicious inbound to PostgreSQL port 5432">
<ellipse fill="none" stroke="black" stroke-width="3" cx="730.12" cy="-417.26" rx="241.25" ry="42.35"/>
<text text-anchor="middle" x="730.12" y="-424.06" font-family="Arial" font-size="24.00">VULNERABILTY DISCOVERY</text>
<text text-anchor="middle" x="730.12" y="-398.06" font-family="Arial" font-size="24.00">ahsp</text>
</a>
</g>
</g>
<!-- SERVICE DISCOVERY
rfb&#45;&gt;VULNERABILTY DISCOVERY
ahsp -->
<g id="edge10" class="edge">
<title>SERVICE DISCOVERY
rfb&#45;&gt;VULNERABILTY DISCOVERY
ahsp</title>
<path fill="none" stroke="blue" stroke-width="5" d="M730.12,-278.89C730.12,-304.42 730.12,-337.35 730.12,-364.57"/>
<polygon fill="blue" stroke="blue" stroke-width="5" points="725.75,-364.69 730.12,-374.69 734.5,-364.69 725.75,-364.69"/>
<text text-anchor="middle" x="861.62" y="-343.83" font-family="Arial" font-size="20.00" fill="blue">start_next: 04/11/17, 16:27:31</text>
<text text-anchor="middle" x="861.62" y="-321.83" font-family="Arial" font-size="20.00" fill="blue">gap: 290sec</text>
<text text-anchor="middle" x="861.62" y="-299.83" font-family="Arial" font-size="20.00" fill="blue">end_prev: 04/11/17, 16:22:42</text>
</g>
<!-- SERVICE DISCOVERY
microsoft&#45;ds -->
<g id="node13" class="node">
<title>SERVICE DISCOVERY
microsoft&#45;ds</title>
<g id="a_node13"><a xlink:title="ET SCAN Behavioral Unusual Port 445 traffic Potential Scan or Infection&#10;ET SCAN Potential VNC Scan 5900&#45;5920">
<ellipse fill="none" stroke="black" stroke-width="3" cx="717.12" cy="-584.11" rx="189.51" ry="42.35"/>
<text text-anchor="middle" x="717.12" y="-590.91" font-family="Arial" font-size="24.00">SERVICE DISCOVERY</text>
<text text-anchor="middle" x="717.12" y="-564.91" font-family="Arial" font-size="24.00">microsoft&#45;ds</text>
</a>
</g>
</g>
<!-- VULNERABILTY DISCOVERY
ahsp&#45;&gt;SERVICE DISCOVERY
microsoft&#45;ds -->
<g id="edge11" class="edge">
<title>VULNERABILTY DISCOVERY
ahsp&#45;&gt;SERVICE DISCOVERY
microsoft&#45;ds</title>
<path fill="none" stroke="blue" stroke-width="5" d="M726.84,-459.86C725.13,-481.53 723.03,-508.24 721.21,-531.25"/>
<polygon fill="blue" stroke="blue" stroke-width="5" points="716.83,-531.21 720.4,-541.53 725.55,-531.9 716.83,-531.21"/>
<text text-anchor="middle" x="856.62" y="-517.69" font-family="Arial" font-size="20.00" fill="blue">start_next: 04/11/17, 16:31:24</text>
<text text-anchor="middle" x="856.62" y="-495.69" font-family="Arial" font-size="20.00" fill="blue">gap: &#45;294sec</text>
<text text-anchor="middle" x="856.62" y="-473.69" font-family="Arial" font-size="20.00" fill="blue">end_prev: 04/11/17, 16:36:18</text>
</g>
<!-- SERVICE DISCOVERY
microsoft&#45;ds&#45;&gt;ARBITRARY CODE EXECUTION
microsoft&#45;ds | ID: 309 -->
<g id="edge12" class="edge">
<title>SERVICE DISCOVERY
microsoft&#45;ds&#45;&gt;ARBITRARY CODE EXECUTION
microsoft&#45;ds | ID: 309</title>
<path fill="none" stroke="blue" stroke-width="5" d="M710.49,-626.79C704.38,-651.67 692.82,-681.93 671.12,-700.54 669.8,-701.68 668.23,-702.79 666.45,-703.88"/>
<polygon fill="blue" stroke="blue" stroke-width="5" points="664.31,-700.06 657.37,-708.49 668.27,-707.86 664.31,-700.06"/>
<text text-anchor="middle" x="839.62" y="-684.54" font-family="Arial" font-size="20.00" fill="blue">start_next: 04/11/17, 16:33:08</text>
<text text-anchor="middle" x="839.62" y="-662.54" font-family="Arial" font-size="20.00" fill="blue">gap: &#45;164sec</text>
<text text-anchor="middle" x="839.62" y="-640.54" font-family="Arial" font-size="20.00" fill="blue">end_prev: 04/11/17, 16:35:52</text>
</g>
</g>
</svg>
