<?xml version="1.0" encoding="UTF-8" standalone="no"?>
<!DOCTYPE svg PUBLIC "-//W3C//DTD SVG 1.1//EN"
 "http://www.w3.org/Graphics/SVG/1.1/DTD/svg11.dtd">
<!-- Generated by graphviz version 2.50.0 (0)
 -->
<!-- Title: DATADELIVERYwsman Pages: 1 -->
<svg width="1303pt" height="1911pt"
 viewBox="0.00 0.00 1303.12 1910.85" xmlns="http://www.w3.org/2000/svg" xmlns:xlink="http://www.w3.org/1999/xlink">
<g id="graph0" class="graph" transform="scale(1 1) rotate(0) translate(4 1906.85)">
<title>DATADELIVERYwsman</title>
<polygon fill="white" stroke="transparent" points="-4,4 -4,-1906.85 1299.12,-1906.85 1299.12,4 -4,4"/>
<!-- Victim: 10.0.0.222
DATA DELIVERY
wsman -->
<g id="node1" class="node">
<title>Victim: 10.0.0.222
DATA DELIVERY
wsman</title>
<polygon fill="salmon" stroke="black" stroke-width="3" points="830.07,-1805.83 830.07,-1860.22 735.79,-1898.68 602.46,-1898.68 508.17,-1860.22 508.17,-1805.83 602.46,-1767.37 735.79,-1767.37 830.07,-1805.83"/>
<polygon fill="none" stroke="black" stroke-width="3" points="834.08,-1803.15 834.08,-1862.9 736.58,-1902.67 601.67,-1902.67 504.17,-1862.9 504.17,-1803.15 601.67,-1763.38 736.58,-1763.38 834.08,-1803.15"/>
<text text-anchor="middle" x="669.12" y="-1852.82" font-family="Arial" font-size="24.00">Victim: 10.0.0.222</text>
<text text-anchor="middle" x="669.12" y="-1826.82" font-family="Arial" font-size="24.00">DATA DELIVERY</text>
<text text-anchor="middle" x="669.12" y="-1800.82" font-family="Arial" font-size="24.00">wsman</text>
</g>
<!-- DATA DELIVERY
wsman | ID: 399 -->
<g id="node2" class="node">
<title>DATA DELIVERY
wsman | ID: 399</title>
<g id="a_node2"><a xlink:title="GPL WEB_SERVER perl post attempt">
<polygon fill="salmon" stroke="black" stroke-width="3" points="832.22,-1697.21 750.67,-1746.19 587.57,-1746.19 506.02,-1697.21 587.57,-1648.23 750.67,-1648.23 832.22,-1697.21"/>
<text text-anchor="middle" x="669.12" y="-1704.01" font-family="Arial" font-size="24.00">DATA DELIVERY</text>
<text text-anchor="middle" x="669.12" y="-1678.01" font-family="Arial" font-size="24.00">wsman | ID: 399</text>
</a>
</g>
</g>
<!-- DATA DELIVERY
wsman | ID: 399&#45;&gt;Victim: 10.0.0.222
DATA DELIVERY
wsman -->
<g id="edge1" class="edge">
<title>DATA DELIVERY
wsman | ID: 399&#45;&gt;Victim: 10.0.0.222
DATA DELIVERY
wsman</title>
<path fill="none" stroke="black" stroke-width="5" d="M669.12,-1746.52C669.12,-1748.63 669.12,-1750.76 669.12,-1752.91"/>
<polygon fill="black" stroke="black" stroke-width="5" points="664.75,-1753.06 669.12,-1763.06 673.5,-1753.06 664.75,-1753.06"/>
</g>
<!-- VULNERABILTY DISCOVERY
ncube&#45;lm -->
<g id="node3" class="node">
<title>VULNERABILTY DISCOVERY
ncube&#45;lm</title>
<g id="a_node3"><a xlink:title="ET POLICY Suspicious inbound to Oracle SQL port 1521&#10;ET POLICY Suspicious inbound to mSQL port 4333">
<ellipse fill="yellow" stroke="black" stroke-width="3" cx="627.12" cy="-236.41" rx="241.25" ry="42.35"/>
<text text-anchor="middle" x="627.12" y="-243.21" font-family="Arial" font-size="24.00">VULNERABILTY DISCOVERY</text>
<text text-anchor="middle" x="627.12" y="-217.21" font-family="Arial" font-size="24.00">ncube&#45;lm</text>
</a>
</g>
</g>
<!-- SERVICE DISCOVERY
epmap -->
<g id="node4" class="node">
<title>SERVICE DISCOVERY
epmap</title>
<g id="a_node4"><a xlink:title="ET SCAN Behavioral Unusual Port 135 traffic Potential Scan or Infection">
<ellipse fill="none" stroke="black" stroke-width="3" cx="241.12" cy="-417.26" rx="189.51" ry="42.35"/>
<text text-anchor="middle" x="241.12" y="-424.06" font-family="Arial" font-size="24.00">SERVICE DISCOVERY</text>
<text text-anchor="middle" x="241.12" y="-398.06" font-family="Arial" font-size="24.00">epmap</text>
</a>
</g>
</g>
<!-- VULNERABILTY DISCOVERY
ncube&#45;lm&#45;&gt;SERVICE DISCOVERY
epmap -->
<g id="edge2" class="edge">
<title>VULNERABILTY DISCOVERY
ncube&#45;lm&#45;&gt;SERVICE DISCOVERY
epmap</title>
<path fill="none" stroke="blue" stroke-width="5" d="M424.83,-259.55C401.53,-266.43 378.75,-275.33 358.12,-286.83 323.69,-306.03 294.03,-339.17 273.19,-367.1"/>
<polygon fill="blue" stroke="blue" stroke-width="5" points="269.63,-364.54 267.28,-375.2 276.7,-369.7 269.63,-364.54"/>
<text text-anchor="start" x="358.12" y="-351.83" font-family="Arial" font-size="20.00" fill="blue"> start_next: 04/11/17, 13:35:02</text>
<text text-anchor="start" x="432.62" y="-331.83" font-family="Arial" font-size="20.00" fill="blue">gap: 2011sec</text>
<text text-anchor="start" x="362.12" y="-311.83" font-family="Arial" font-size="20.00" fill="blue">end_prev: 04/11/17, 13:01:31</text>
<text text-anchor="start" x="392.62" y="-291.83" font-family="Arial" font-weight="bold" font-size="20.00" fill="blue">Attacker: 10.0.254.31</text>
</g>
<!-- SERVICE DISCOVERY
unknown -->
<g id="node13" class="node">
<title>SERVICE DISCOVERY
unknown</title>
<g id="a_node13"><a xlink:title="ET SCAN Potential VNC Scan 5900&#45;5920">
<ellipse fill="none" stroke="black" stroke-width="3" cx="627.12" cy="-417.26" rx="189.51" ry="42.35"/>
<text text-anchor="middle" x="627.12" y="-424.06" font-family="Arial" font-size="24.00">SERVICE DISCOVERY</text>
<text text-anchor="middle" x="627.12" y="-398.06" font-family="Arial" font-size="24.00">unknown</text>
</a>
</g>
</g>
<!-- VULNERABILTY DISCOVERY
ncube&#45;lm&#45;&gt;SERVICE DISCOVERY
unknown -->
<g id="edge12" class="edge">
<title>VULNERABILTY DISCOVERY
ncube&#45;lm&#45;&gt;SERVICE DISCOVERY
unknown</title>
<path fill="none" stroke="blue" stroke-width="5" d="M627.12,-278.89C627.12,-304.42 627.12,-337.35 627.12,-364.57"/>
<polygon fill="blue" stroke="blue" stroke-width="5" points="622.75,-364.69 627.12,-374.69 631.5,-364.69 622.75,-364.69"/>
<text text-anchor="middle" x="758.62" y="-343.83" font-family="Arial" font-size="20.00" fill="blue">start_next: 04/11/17, 16:32:37</text>
<text text-anchor="middle" x="758.62" y="-321.83" font-family="Arial" font-size="20.00" fill="blue">gap: &#45;22sec</text>
<text text-anchor="middle" x="758.62" y="-299.83" font-family="Arial" font-size="20.00" fill="blue">end_prev: 04/11/17, 16:32:59</text>
</g>
<!-- ACCOUNT MANIPULATION
snmp | ID: 326 -->
<g id="node5" class="node">
<title>ACCOUNT MANIPULATION
snmp | ID: 326</title>
<g id="a_node5"><a xlink:title="GPL SNMP private access udp&#10;GPL SNMP public access udp">
<polygon fill="none" stroke="black" stroke-width="3" stroke-dasharray="1,5" points="401.12,-601.69 81.12,-601.69 81.12,-541.69 401.12,-541.69 401.12,-601.69"/>
<text text-anchor="middle" x="241.12" y="-578.49" font-family="Arial" font-size="24.00">ACCOUNT MANIPULATION</text>
<text text-anchor="middle" x="241.12" y="-552.49" font-family="Arial" font-size="24.00">snmp | ID: 326</text>
</a>
</g>
</g>
<!-- SERVICE DISCOVERY
epmap&#45;&gt;ACCOUNT MANIPULATION
snmp | ID: 326 -->
<g id="edge3" class="edge">
<title>SERVICE DISCOVERY
epmap&#45;&gt;ACCOUNT MANIPULATION
snmp | ID: 326</title>
<path fill="none" stroke="blue" stroke-width="5" d="M241.12,-459.91C241.12,-482.18 241.12,-509.45 241.12,-531.35"/>
<polygon fill="blue" stroke="blue" stroke-width="5" points="236.75,-531.63 241.12,-541.63 245.5,-531.63 236.75,-531.63"/>
<text text-anchor="middle" x="372.12" y="-517.69" font-family="Arial" font-size="20.00" fill="blue">start_next: 04/11/17, 14:02:11</text>
<text text-anchor="middle" x="372.12" y="-495.69" font-family="Arial" font-size="20.00" fill="blue">gap: 1629sec</text>
<text text-anchor="middle" x="372.12" y="-473.69" font-family="Arial" font-size="20.00" fill="blue">end_prev: 04/11/17, 13:35:02</text>
</g>
<!-- ARBITRARY CODE EXECUTION
microsoft&#45;ds | ID: 40 -->
<g id="node6" class="node">
<title>ARBITRARY CODE EXECUTION
microsoft&#45;ds | ID: 40</title>
<g id="a_node6"><a xlink:title="GPL NETBIOS DCERPC Remote Activation bind attempt&#10;GPL NETBIOS SMB&#45;DS Session Setup NTMLSSP unicode asn1 overflow attempt&#10;GPL NETBIOS DCERPC IActivation little endian bind attempt">
<polygon fill="none" stroke="black" stroke-width="3" points="428.62,-743.69 53.62,-743.69 53.62,-683.69 428.62,-683.69 428.62,-743.69"/>
<text text-anchor="middle" x="241.12" y="-720.49" font-family="Arial" font-size="24.00">ARBITRARY CODE EXECUTION</text>
<text text-anchor="middle" x="241.12" y="-694.49" font-family="Arial" font-size="24.00">microsoft&#45;ds | ID: 40</text>
</a>
</g>
</g>
<!-- ACCOUNT MANIPULATION
snmp | ID: 326&#45;&gt;ARBITRARY CODE EXECUTION
microsoft&#45;ds | ID: 40 -->
<g id="edge4" class="edge">
<title>ACCOUNT MANIPULATION
snmp | ID: 326&#45;&gt;ARBITRARY CODE EXECUTION
microsoft&#45;ds | ID: 40</title>
<path fill="none" stroke="blue" stroke-width="5" d="M241.12,-601.69C241.12,-622.39 241.12,-650.47 241.12,-673.21"/>
<polygon fill="blue" stroke="blue" stroke-width="5" points="236.75,-673.23 241.12,-683.23 245.5,-673.23 236.75,-673.23"/>
<text text-anchor="middle" x="372.62" y="-659.69" font-family="Arial" font-size="20.00" fill="blue">start_next: 04/11/17, 14:02:19</text>
<text text-anchor="middle" x="372.62" y="-637.69" font-family="Arial" font-size="20.00" fill="blue">gap: &#45;225sec</text>
<text text-anchor="middle" x="372.62" y="-615.69" font-family="Arial" font-size="20.00" fill="blue">end_prev: 04/11/17, 14:06:04</text>
</g>
<!-- VULNERABILTY DISCOVERY
ms&#45;sql&#45;s -->
<g id="node7" class="node">
<title>VULNERABILTY DISCOVERY
ms&#45;sql&#45;s</title>
<g id="a_node7"><a xlink:title="ET POLICY Suspicious inbound to MSSQL port 1433&#10;ET POLICY Suspicious inbound to mySQL port 3306&#10;ET POLICY Suspicious inbound to mSQL port 4333">
<ellipse fill="none" stroke="black" stroke-width="3" cx="241.12" cy="-868.11" rx="241.25" ry="42.35"/>
<text text-anchor="middle" x="241.12" y="-874.91" font-family="Arial" font-size="24.00">VULNERABILTY DISCOVERY</text>
<text text-anchor="middle" x="241.12" y="-848.91" font-family="Arial" font-size="24.00">ms&#45;sql&#45;s</text>
</a>
</g>
</g>
<!-- ARBITRARY CODE EXECUTION
microsoft&#45;ds | ID: 40&#45;&gt;VULNERABILTY DISCOVERY
ms&#45;sql&#45;s -->
<g id="edge5" class="edge">
<title>ARBITRARY CODE EXECUTION
microsoft&#45;ds | ID: 40&#45;&gt;VULNERABILTY DISCOVERY
ms&#45;sql&#45;s</title>
<path fill="none" stroke="blue" stroke-width="5" d="M241.12,-743.71C241.12,-763.97 241.12,-791.56 241.12,-815.51"/>
<polygon fill="blue" stroke="blue" stroke-width="5" points="236.75,-815.52 241.12,-825.52 245.5,-815.52 236.75,-815.52"/>
<text text-anchor="middle" x="372.62" y="-801.69" font-family="Arial" font-size="20.00" fill="blue">start_next: 04/11/17, 14:03:07</text>
<text text-anchor="middle" x="372.62" y="-779.69" font-family="Arial" font-size="20.00" fill="blue">gap: &#45;220sec</text>
<text text-anchor="middle" x="372.62" y="-757.69" font-family="Arial" font-size="20.00" fill="blue">end_prev: 04/11/17, 14:06:47</text>
</g>
<!-- SERVICE DISCOVERY
microsoft&#45;ds -->
<g id="node8" class="node">
<title>SERVICE DISCOVERY
microsoft&#45;ds</title>
<g id="a_node8"><a xlink:title="ET SCAN Behavioral Unusual Port 445 traffic Potential Scan or Infection">
<ellipse fill="none" stroke="black" stroke-width="3" cx="241.12" cy="-1034.96" rx="189.51" ry="42.35"/>
<text text-anchor="middle" x="241.12" y="-1041.76" font-family="Arial" font-size="24.00">SERVICE DISCOVERY</text>
<text text-anchor="middle" x="241.12" y="-1015.76" font-family="Arial" font-size="24.00">microsoft&#45;ds</text>
</a>
</g>
</g>
<!-- VULNERABILTY DISCOVERY
ms&#45;sql&#45;s&#45;&gt;SERVICE DISCOVERY
microsoft&#45;ds -->
<g id="edge6" class="edge">
<title>VULNERABILTY DISCOVERY
ms&#45;sql&#45;s&#45;&gt;SERVICE DISCOVERY
microsoft&#45;ds</title>
<path fill="none" stroke="blue" stroke-width="5" d="M241.12,-910.71C241.12,-932.38 241.12,-959.09 241.12,-982.1"/>
<polygon fill="blue" stroke="blue" stroke-width="5" points="236.75,-982.38 241.12,-992.38 245.5,-982.38 236.75,-982.38"/>
<text text-anchor="middle" x="372.62" y="-968.54" font-family="Arial" font-size="20.00" fill="blue">start_next: 04/11/17, 14:04:50</text>
<text text-anchor="middle" x="372.62" y="-946.54" font-family="Arial" font-size="20.00" fill="blue">gap: 31sec</text>
<text text-anchor="middle" x="372.62" y="-924.54" font-family="Arial" font-size="20.00" fill="blue">end_prev: 04/11/17, 14:04:19</text>
</g>
<!-- REMOTE SERVICE EXPLOIT
snmp | ID: 299 -->
<g id="node9" class="node">
<title>REMOTE SERVICE EXPLOIT
snmp | ID: 299</title>
<g id="a_node9"><a xlink:title="ET SNMP Samsung Printer SNMP Hardcode RW Community String">
<polygon fill="none" stroke="black" stroke-width="3" points="415.12,-1219.39 77.12,-1219.39 77.12,-1159.39 415.12,-1159.39 415.12,-1219.39"/>
<text text-anchor="middle" x="246.12" y="-1196.19" font-family="Arial" font-size="24.00">REMOTE SERVICE EXPLOIT</text>
<text text-anchor="middle" x="246.12" y="-1170.19" font-family="Arial" font-size="24.00">snmp | ID: 299</text>
</a>
</g>
</g>
<!-- SERVICE DISCOVERY
microsoft&#45;ds&#45;&gt;REMOTE SERVICE EXPLOIT
snmp | ID: 299 -->
<g id="edge7" class="edge">
<title>SERVICE DISCOVERY
microsoft&#45;ds&#45;&gt;REMOTE SERVICE EXPLOIT
snmp | ID: 299</title>
<path fill="none" stroke="blue" stroke-width="5" d="M240.49,-1077.4C240.41,-1097.08 240.64,-1121.15 242.13,-1149.23"/>
<polygon fill="blue" stroke="blue" stroke-width="5" points="237.77,-1149.6 242.71,-1159.33 246.5,-1149.09 237.77,-1149.6"/>
<text text-anchor="middle" x="373.62" y="-1135.39" font-family="Arial" font-size="20.00" fill="blue">start_next: 04/11/17, 14:05:28</text>
<text text-anchor="middle" x="373.62" y="-1113.39" font-family="Arial" font-size="20.00" fill="blue">gap: 38sec</text>
<text text-anchor="middle" x="373.62" y="-1091.39" font-family="Arial" font-size="20.00" fill="blue">end_prev: 04/11/17, 14:04:50</text>
</g>
<!-- NETWORK DoS
ms&#45;wbt&#45;server | ID: 36 -->
<g id="node10" class="node">
<title>NETWORK DoS
ms&#45;wbt&#45;server | ID: 36</title>
<g id="a_node10"><a xlink:title="ET DOS Microsoft Remote Desktop (RDP) Syn then Reset 30 Second DoS Attempt">
<polygon fill="none" stroke="black" stroke-width="3" points="482.4,-1350.38 378.76,-1399.36 171.48,-1399.36 67.84,-1350.38 171.48,-1301.4 378.76,-1301.4 482.4,-1350.38"/>
<text text-anchor="middle" x="275.12" y="-1357.18" font-family="Arial" font-size="24.00">NETWORK DoS</text>
<text text-anchor="middle" x="275.12" y="-1331.18" font-family="Arial" font-size="24.00">ms&#45;wbt&#45;server | ID: 36</text>
</a>
</g>
</g>
<!-- REMOTE SERVICE EXPLOIT
snmp | ID: 299&#45;&gt;NETWORK DoS
ms&#45;wbt&#45;server | ID: 36 -->
<g id="edge8" class="edge">
<title>REMOTE SERVICE EXPLOIT
snmp | ID: 299&#45;&gt;NETWORK DoS
ms&#45;wbt&#45;server | ID: 36</title>
<path fill="none" stroke="blue" stroke-width="5" d="M251.44,-1219.55C255.11,-1239.64 260.1,-1267.02 264.56,-1291.46"/>
<polygon fill="blue" stroke="blue" stroke-width="5" points="260.27,-1292.31 266.37,-1301.37 268.87,-1290.74 260.27,-1292.31"/>
<text text-anchor="middle" x="395.62" y="-1277.39" font-family="Arial" font-size="20.00" fill="blue">start_next: 04/11/17, 14:05:34</text>
<text text-anchor="middle" x="395.62" y="-1255.39" font-family="Arial" font-size="20.00" fill="blue">gap: 6sec</text>
<text text-anchor="middle" x="395.62" y="-1233.39" font-family="Arial" font-size="20.00" fill="blue">end_prev: 04/11/17, 14:05:28</text>
</g>
<!-- INFO DISCOVERY
wsman -->
<g id="node11" class="node">
<title>INFO DISCOVERY
wsman</title>
<g id="a_node11"><a xlink:title="GPL WEB_SERVER mod_gzip_status access">
<ellipse fill="none" stroke="black" stroke-width="3" cx="392.12" cy="-1523.8" rx="156.04" ry="42.35"/>
<text text-anchor="middle" x="392.12" y="-1530.6" font-family="Arial" font-size="24.00">INFO DISCOVERY</text>
<text text-anchor="middle" x="392.12" y="-1504.6" font-family="Arial" font-size="24.00">wsman</text>
</a>
</g>
</g>
<!-- NETWORK DoS
ms&#45;wbt&#45;server | ID: 36&#45;&gt;INFO DISCOVERY
wsman -->
<g id="edge9" class="edge">
<title>NETWORK DoS
ms&#45;wbt&#45;server | ID: 36&#45;&gt;INFO DISCOVERY
wsman</title>
<path fill="none" stroke="blue" stroke-width="5" d="M308.03,-1399.59C323.8,-1422.69 342.66,-1450.33 358.52,-1473.57"/>
<polygon fill="blue" stroke="blue" stroke-width="5" points="354.97,-1476.12 364.22,-1481.91 362.19,-1471.19 354.97,-1476.12"/>
<text text-anchor="middle" x="489.62" y="-1457.37" font-family="Arial" font-size="20.00" fill="blue">start_next: 04/11/17, 14:06:38</text>
<text text-anchor="middle" x="489.62" y="-1435.37" font-family="Arial" font-size="20.00" fill="blue">gap: 19sec</text>
<text text-anchor="middle" x="489.62" y="-1413.37" font-family="Arial" font-size="20.00" fill="blue">end_prev: 04/11/17, 14:06:20</text>
</g>
<!-- INFO DISCOVERY
wsman&#45;&gt;DATA DELIVERY
wsman | ID: 399 -->
<g id="edge10" class="edge">
<title>INFO DISCOVERY
wsman&#45;&gt;DATA DELIVERY
wsman | ID: 399</title>
<path fill="none" stroke="blue" stroke-width="5" d="M384.03,-1566.34C381.79,-1590.69 383.73,-1620.45 401.12,-1640.22 417.97,-1659.38 467.8,-1672.31 519.99,-1680.88"/>
<polygon fill="blue" stroke="blue" stroke-width="5" points="519.55,-1685.24 530.11,-1682.48 520.92,-1676.59 519.55,-1685.24"/>
<text text-anchor="middle" x="532.62" y="-1624.22" font-family="Arial" font-size="20.00" fill="blue">start_next: 04/11/17, 14:06:45</text>
<text text-anchor="middle" x="532.62" y="-1602.22" font-family="Arial" font-size="20.00" fill="blue">gap: 7sec</text>
<text text-anchor="middle" x="532.62" y="-1580.22" font-family="Arial" font-size="20.00" fill="blue">end_prev: 04/11/17, 14:06:38</text>
</g>
<!-- DATA EXFILTRATION
wsman | ID: 63 -->
<g id="node12" class="node">
<title>DATA EXFILTRATION
wsman | ID: 63</title>
<g id="a_node12"><a xlink:title="ET WEB_SPECIFIC_APPS PHP&#45;CGI query string parameter vulnerability">
<polygon fill="yellow" stroke="black" stroke-width="3" points="1034,-48.99 931.56,-97.97 726.68,-97.97 624.24,-48.99 726.68,-0.01 931.56,-0.01 1034,-48.99"/>
<text text-anchor="middle" x="829.12" y="-55.79" font-family="Arial" font-size="24.00">DATA EXFILTRATION</text>
<text text-anchor="middle" x="829.12" y="-29.79" font-family="Arial" font-size="24.00">wsman | ID: 63</text>
</a>
</g>
</g>
<!-- DATA EXFILTRATION
wsman | ID: 63&#45;&gt;VULNERABILTY DISCOVERY
ncube&#45;lm -->
<g id="edge11" class="edge">
<title>DATA EXFILTRATION
wsman | ID: 63&#45;&gt;VULNERABILTY DISCOVERY
ncube&#45;lm</title>
<path fill="none" stroke="blue" stroke-width="5" d="M733.94,-98.15C730.55,-100.68 727.26,-103.29 724.12,-105.98 697.79,-128.56 674.28,-159.48 657.01,-185.44"/>
<polygon fill="blue" stroke="blue" stroke-width="5" points="653.2,-183.27 651.39,-194.04 660.52,-188.06 653.2,-183.27"/>
<text text-anchor="start" x="724.12" y="-170.98" font-family="Arial" font-size="20.00" fill="blue"> start_next: 04/11/17, 16:32:37</text>
<text text-anchor="start" x="797.62" y="-150.98" font-family="Arial" font-size="20.00" fill="blue">gap: 8749sec</text>
<text text-anchor="start" x="728.12" y="-130.98" font-family="Arial" font-size="20.00" fill="blue">end_prev: 04/11/17, 14:06:48</text>
<text text-anchor="start" x="758.62" y="-110.98" font-family="Arial" font-weight="bold" font-size="20.00" fill="blue">Attacker: 10.0.254.31</text>
</g>
<!-- INFO DISCOVERY
xdmcp -->
<g id="node18" class="node">
<title>INFO DISCOVERY
xdmcp</title>
<g id="a_node18"><a xlink:title="GPL WEB_SERVER mod_gzip_status access&#10;GPL RPC xdmcp info query">
<ellipse fill="none" stroke="black" stroke-width="3" cx="1032.12" cy="-236.41" rx="156.04" ry="42.35"/>
<text text-anchor="middle" x="1032.12" y="-243.21" font-family="Arial" font-size="24.00">INFO DISCOVERY</text>
<text text-anchor="middle" x="1032.12" y="-217.21" font-family="Arial" font-size="24.00">xdmcp</text>
</a>
</g>
</g>
<!-- DATA EXFILTRATION
wsman | ID: 63&#45;&gt;INFO DISCOVERY
xdmcp -->
<g id="edge18" class="edge">
<title>DATA EXFILTRATION
wsman | ID: 63&#45;&gt;INFO DISCOVERY
xdmcp</title>
<path fill="none" stroke="blue" stroke-width="5" d="M960.6,-84.16C971.04,-90.28 980.76,-97.49 989.12,-105.98 1009.59,-126.78 1020.32,-157.55 1025.94,-183.87"/>
<polygon fill="blue" stroke="blue" stroke-width="5" points="1021.65,-184.73 1027.86,-193.71 1030.24,-183.06 1021.65,-184.73"/>
<text text-anchor="start" x="1025.12" y="-170.98" font-family="Arial" font-size="20.00" fill="blue"> start_next: 04/11/17, 18:05:15</text>
<text text-anchor="start" x="1098.62" y="-150.98" font-family="Arial" font-size="20.00" fill="blue">gap: 5399sec</text>
<text text-anchor="start" x="1029.12" y="-130.98" font-family="Arial" font-size="20.00" fill="blue">end_prev: 04/11/17, 16:35:16</text>
<text text-anchor="start" x="1059.62" y="-110.98" font-family="Arial" font-weight="bold" font-size="20.00" fill="blue">Attacker: 10.0.254.31</text>
</g>
<!-- BRUTE FORCE CREDENTIALS
pop3s | ID: 354 -->
<g id="node14" class="node">
<title>BRUTE FORCE CREDENTIALS
pop3s | ID: 354</title>
<g id="a_node14"><a xlink:title="ET SCAN Rapid POP3S Connections &#45; Possible Brute Force Attack">
<polygon fill="none" stroke="black" stroke-width="3" points="785.12,-601.69 423.12,-601.69 423.12,-541.69 785.12,-541.69 785.12,-601.69"/>
<text text-anchor="middle" x="604.12" y="-578.49" font-family="Arial" font-size="24.00">BRUTE FORCE CREDENTIALS</text>
<text text-anchor="middle" x="604.12" y="-552.49" font-family="Arial" font-size="24.00">pop3s | ID: 354</text>
</a>
</g>
</g>
<!-- SERVICE DISCOVERY
unknown&#45;&gt;BRUTE FORCE CREDENTIALS
pop3s | ID: 354 -->
<g id="edge13" class="edge">
<title>SERVICE DISCOVERY
unknown&#45;&gt;BRUTE FORCE CREDENTIALS
pop3s | ID: 354</title>
<path fill="none" stroke="blue" stroke-width="5" d="M608.2,-459.69C607.4,-462.36 606.69,-465.04 606.12,-467.69 601.69,-488.44 600.93,-512.09 601.4,-531.48"/>
<polygon fill="blue" stroke="blue" stroke-width="5" points="597.03,-531.65 601.76,-541.49 605.77,-531.34 597.03,-531.65"/>
<text text-anchor="middle" x="737.62" y="-517.69" font-family="Arial" font-size="20.00" fill="blue">start_next: 04/11/17, 16:32:46</text>
<text text-anchor="middle" x="737.62" y="-495.69" font-family="Arial" font-size="20.00" fill="blue">gap: 9sec</text>
<text text-anchor="middle" x="737.62" y="-473.69" font-family="Arial" font-size="20.00" fill="blue">end_prev: 04/11/17, 16:32:37</text>
</g>
<!-- REMOTE SERVICE EXPLOIT
snmp | ID: 52 -->
<g id="node15" class="node">
<title>REMOTE SERVICE EXPLOIT
snmp | ID: 52</title>
<g id="a_node15"><a xlink:title="ET SNMP Samsung Printer SNMP Hardcode RW Community String">
<polygon fill="none" stroke="black" stroke-width="3" points="797.12,-743.69 459.12,-743.69 459.12,-683.69 797.12,-683.69 797.12,-743.69"/>
<text text-anchor="middle" x="628.12" y="-720.49" font-family="Arial" font-size="24.00">REMOTE SERVICE EXPLOIT</text>
<text text-anchor="middle" x="628.12" y="-694.49" font-family="Arial" font-size="24.00">snmp | ID: 52</text>
</a>
</g>
</g>
<!-- BRUTE FORCE CREDENTIALS
pop3s | ID: 354&#45;&gt;REMOTE SERVICE EXPLOIT
snmp | ID: 52 -->
<g id="edge14" class="edge">
<title>BRUTE FORCE CREDENTIALS
pop3s | ID: 354&#45;&gt;REMOTE SERVICE EXPLOIT
snmp | ID: 52</title>
<path fill="none" stroke="blue" stroke-width="5" d="M609.1,-601.69C612.64,-622.39 617.46,-650.47 621.36,-673.21"/>
<polygon fill="blue" stroke="blue" stroke-width="5" points="617.07,-674.12 623.07,-683.23 625.7,-672.64 617.07,-674.12"/>
<text text-anchor="middle" x="753.62" y="-659.69" font-family="Arial" font-size="20.00" fill="blue">start_next: 04/11/17, 16:33:55</text>
<text text-anchor="middle" x="753.62" y="-637.69" font-family="Arial" font-size="20.00" fill="blue">gap: 69sec</text>
<text text-anchor="middle" x="753.62" y="-615.69" font-family="Arial" font-size="20.00" fill="blue">end_prev: 04/11/17, 16:32:46</text>
</g>
<!-- COMMAND AND CONTROL
unknown | ID: 308 -->
<g id="node16" class="node">
<title>COMMAND AND CONTROL
unknown | ID: 308</title>
<g id="a_node16"><a xlink:title="ET POLICY RDP connection confirm">
<polygon fill="none" stroke="black" stroke-width="3" points="821.62,-898.11 498.62,-898.11 498.62,-838.11 821.62,-838.11 821.62,-898.11"/>
<text text-anchor="middle" x="660.12" y="-874.91" font-family="Arial" font-size="24.00">COMMAND AND CONTROL</text>
<text text-anchor="middle" x="660.12" y="-848.91" font-family="Arial" font-size="24.00">unknown | ID: 308</text>
</a>
</g>
</g>
<!-- REMOTE SERVICE EXPLOIT
snmp | ID: 52&#45;&gt;COMMAND AND CONTROL
unknown | ID: 308 -->
<g id="edge15" class="edge">
<title>REMOTE SERVICE EXPLOIT
snmp | ID: 52&#45;&gt;COMMAND AND CONTROL
unknown | ID: 308</title>
<path fill="none" stroke="blue" stroke-width="5" d="M634.22,-743.71C639.23,-767.58 646.38,-801.63 651.89,-827.92"/>
<polygon fill="blue" stroke="blue" stroke-width="5" points="647.66,-829.04 654,-837.93 656.22,-827.25 647.66,-829.04"/>
<text text-anchor="middle" x="780.62" y="-801.69" font-family="Arial" font-size="20.00" fill="blue">start_next: 04/11/17, 16:34:19</text>
<text text-anchor="middle" x="780.62" y="-779.69" font-family="Arial" font-size="20.00" fill="blue">gap: 24sec</text>
<text text-anchor="middle" x="780.62" y="-757.69" font-family="Arial" font-size="20.00" fill="blue">end_prev: 04/11/17, 16:33:55</text>
</g>
<!-- ACCOUNT MANIPULATION
snmp | ID: 53 -->
<g id="node17" class="node">
<title>ACCOUNT MANIPULATION
snmp | ID: 53</title>
<g id="a_node17"><a xlink:title="GPL SNMP public access udp">
<polygon fill="none" stroke="black" stroke-width="3" points="829.12,-1148.39 509.12,-1148.39 509.12,-1088.39 829.12,-1088.39 829.12,-1148.39"/>
<text text-anchor="middle" x="669.12" y="-1125.19" font-family="Arial" font-size="24.00">ACCOUNT MANIPULATION</text>
<text text-anchor="middle" x="669.12" y="-1099.19" font-family="Arial" font-size="24.00">snmp | ID: 53</text>
</a>
</g>
</g>
<!-- COMMAND AND CONTROL
unknown | ID: 308&#45;&gt;ACCOUNT MANIPULATION
snmp | ID: 53 -->
<g id="edge16" class="edge">
<title>COMMAND AND CONTROL
unknown | ID: 308&#45;&gt;ACCOUNT MANIPULATION
snmp | ID: 53</title>
<path fill="none" stroke="blue" stroke-width="5" d="M661.19,-898.57C662.81,-943.3 665.9,-1028.41 667.71,-1078.28"/>
<polygon fill="blue" stroke="blue" stroke-width="5" points="663.34,-1078.52 668.07,-1088.36 672.08,-1078.21 663.34,-1078.52"/>
<text text-anchor="middle" x="796.62" y="-968.54" font-family="Arial" font-size="20.00" fill="blue">start_next: 04/11/17, 16:34:24</text>
<text text-anchor="middle" x="796.62" y="-946.54" font-family="Arial" font-size="20.00" fill="blue">gap: &#45;110sec</text>
<text text-anchor="middle" x="796.62" y="-924.54" font-family="Arial" font-size="20.00" fill="blue">end_prev: 04/11/17, 16:36:14</text>
</g>
<!-- ACCOUNT MANIPULATION
snmp | ID: 53&#45;&gt;DATA DELIVERY
wsman | ID: 399 -->
<g id="edge17" class="edge">
<title>ACCOUNT MANIPULATION
snmp | ID: 53&#45;&gt;DATA DELIVERY
wsman | ID: 399</title>
<path fill="none" stroke="blue" stroke-width="5" d="M669.12,-1148.62C669.12,-1176.94 669.12,-1221.11 669.12,-1259.39 669.12,-1259.39 669.12,-1259.39 669.12,-1524.8 669.12,-1562.39 669.12,-1604.62 669.12,-1637.76"/>
<polygon fill="blue" stroke="blue" stroke-width="5" points="664.75,-1638.19 669.12,-1648.19 673.5,-1638.19 664.75,-1638.19"/>
<text text-anchor="middle" x="800.62" y="-1367.38" font-family="Arial" font-size="20.00" fill="blue">start_next: 04/11/17, 16:35:12</text>
<text text-anchor="middle" x="800.62" y="-1345.38" font-family="Arial" font-size="20.00" fill="blue">gap: 45sec</text>
<text text-anchor="middle" x="800.62" y="-1323.38" font-family="Arial" font-size="20.00" fill="blue">end_prev: 04/11/17, 16:34:28</text>
</g>
<!-- COMMAND AND CONTROL
unknown | ID: 956 -->
<g id="node19" class="node">
<title>COMMAND AND CONTROL
unknown | ID: 956</title>
<g id="a_node19"><a xlink:title="ET POLICY RDP connection confirm">
<polygon fill="none" stroke="black" stroke-width="3" points="1195.62,-530.69 872.62,-530.69 872.62,-470.69 1195.62,-470.69 1195.62,-530.69"/>
<text text-anchor="middle" x="1034.12" y="-507.49" font-family="Arial" font-size="24.00">COMMAND AND CONTROL</text>
<text text-anchor="middle" x="1034.12" y="-481.49" font-family="Arial" font-size="24.00">unknown | ID: 956</text>
</a>
</g>
</g>
<!-- INFO DISCOVERY
xdmcp&#45;&gt;COMMAND AND CONTROL
unknown | ID: 956 -->
<g id="edge19" class="edge">
<title>INFO DISCOVERY
xdmcp&#45;&gt;COMMAND AND CONTROL
unknown | ID: 956</title>
<path fill="none" stroke="blue" stroke-width="5" d="M1032.44,-278.96C1032.82,-328.76 1033.45,-411.55 1033.82,-460.34"/>
<polygon fill="blue" stroke="blue" stroke-width="5" points="1029.45,-460.54 1033.9,-470.5 1038.2,-460.47 1029.45,-460.54"/>
<text text-anchor="middle" x="1163.62" y="-343.83" font-family="Arial" font-size="20.00" fill="blue">start_next: 04/11/17, 18:05:40</text>
<text text-anchor="middle" x="1163.62" y="-321.83" font-family="Arial" font-size="20.00" fill="blue">gap: &#45;54sec</text>
<text text-anchor="middle" x="1163.62" y="-299.83" font-family="Arial" font-size="20.00" fill="blue">end_prev: 04/11/17, 18:06:34</text>
</g>
<!-- COMMAND AND CONTROL
unknown | ID: 956&#45;&gt;DATA DELIVERY
wsman | ID: 399 -->
<g id="edge20" class="edge">
<title>COMMAND AND CONTROL
unknown | ID: 956&#45;&gt;DATA DELIVERY
wsman | ID: 399</title>
<path fill="none" stroke="blue" stroke-width="5" d="M1018.55,-530.81C1005.2,-558.52 988.12,-601.77 988.12,-641.69 988.12,-641.69 988.12,-641.69 988.12,-1524.8 988.12,-1611.37 895.84,-1654.4 810.54,-1675.69"/>
<polygon fill="blue" stroke="blue" stroke-width="5" points="809.41,-1671.46 800.71,-1678.05 811.46,-1679.97 809.41,-1671.46"/>
<text text-anchor="middle" x="1119.62" y="-1051.96" font-family="Arial" font-size="20.00" fill="blue">start_next: 04/11/17, 18:06:36</text>
<text text-anchor="middle" x="1119.62" y="-1029.96" font-family="Arial" font-size="20.00" fill="blue">gap: &#45;36sec</text>
<text text-anchor="middle" x="1119.62" y="-1007.96" font-family="Arial" font-size="20.00" fill="blue">end_prev: 04/11/17, 18:07:13</text>
</g>
</g>
</svg>
