<?xml version="1.0" encoding="UTF-8" standalone="no"?>
<!DOCTYPE svg PUBLIC "-//W3C//DTD SVG 1.1//EN"
 "http://www.w3.org/Graphics/SVG/1.1/DTD/svg11.dtd">
<!-- Generated by graphviz version 2.50.0 (0)
 -->
<!-- Title: DATADELIVERYhttp Pages: 1 -->
<svg width="1158pt" height="1099pt"
 viewBox="0.00 0.00 1157.77 1099.16" xmlns="http://www.w3.org/2000/svg" xmlns:xlink="http://www.w3.org/1999/xlink">
<g id="graph0" class="graph" transform="scale(1 1) rotate(0) translate(4 1095.16)">
<title>DATADELIVERYhttp</title>
<polygon fill="white" stroke="transparent" points="-4,4 -4,-1095.16 1153.77,-1095.16 1153.77,4 -4,4"/>
<!-- Victim: 10.0.0.56
DATA DELIVERY
http -->
<g id="node1" class="node">
<title>Victim: 10.0.0.56
DATA DELIVERY
http</title>
<polygon fill="salmon" stroke="black" stroke-width="3" points="1039.91,-994.14 1039.91,-1048.53 950.2,-1086.99 823.33,-1086.99 733.62,-1048.53 733.62,-994.14 823.33,-955.69 950.2,-955.69 1039.91,-994.14"/>
<polygon fill="none" stroke="black" stroke-width="3" points="1043.91,-991.52 1043.91,-1051.16 951.03,-1090.98 822.51,-1090.98 729.62,-1051.16 729.62,-991.52 822.51,-951.7 951.03,-951.7 1043.91,-991.52"/>
<text text-anchor="middle" x="886.77" y="-1041.14" font-family="Arial" font-size="24.00">Victim: 10.0.0.56</text>
<text text-anchor="middle" x="886.77" y="-1015.14" font-family="Arial" font-size="24.00">DATA DELIVERY</text>
<text text-anchor="middle" x="886.77" y="-989.14" font-family="Arial" font-size="24.00">http</text>
</g>
<!-- DATA DELIVERY
http | ID: 21 -->
<g id="node2" class="node">
<title>DATA DELIVERY
http | ID: 21</title>
<g id="a_node2"><a xlink:title="ET WEB_SERVER PHP tags in HTTP POST">
<polygon fill="salmon" stroke="black" stroke-width="3" points="1049.87,-885.53 968.32,-934.51 805.22,-934.51 723.67,-885.53 805.22,-836.55 968.32,-836.55 1049.87,-885.53"/>
<text text-anchor="middle" x="886.77" y="-892.33" font-family="Arial" font-size="24.00">DATA DELIVERY</text>
<text text-anchor="middle" x="886.77" y="-866.33" font-family="Arial" font-size="24.00">http | ID: 21</text>
</a>
</g>
</g>
<!-- DATA DELIVERY
http | ID: 21&#45;&gt;Victim: 10.0.0.56
DATA DELIVERY
http -->
<g id="edge1" class="edge">
<title>DATA DELIVERY
http | ID: 21&#45;&gt;Victim: 10.0.0.56
DATA DELIVERY
http</title>
<path fill="none" stroke="black" stroke-width="5" d="M886.77,-934.84C886.77,-936.94 886.77,-939.07 886.77,-941.22"/>
<polygon fill="black" stroke="black" stroke-width="5" points="882.39,-941.38 886.77,-951.38 891.14,-941.38 882.39,-941.38"/>
</g>
<!-- SERVICE DISCOVERY
cpdlc -->
<g id="node3" class="node">
<title>SERVICE DISCOVERY
cpdlc</title>
<g id="a_node3"><a xlink:title="ET SCAN Potential VNC Scan 5900&#45;5920">
<ellipse fill="yellow" stroke="black" stroke-width="3" cx="428.77" cy="-42.43" rx="189.51" ry="42.35"/>
<text text-anchor="middle" x="428.77" y="-49.23" font-family="Arial" font-size="24.00">SERVICE DISCOVERY</text>
<text text-anchor="middle" x="428.77" y="-23.23" font-family="Arial" font-size="24.00">cpdlc</text>
</a>
</g>
</g>
<!-- VULNERABILTY DISCOVERY
postgresql -->
<g id="node4" class="node">
<title>VULNERABILTY DISCOVERY
postgresql</title>
<g id="a_node4"><a xlink:title="ET POLICY Suspicious inbound to MSSQL port 1433&#10;ET SCAN Nessus User Agent&#10;ET POLICY Suspicious inbound to Oracle SQL port 1521&#10;ET POLICY Suspicious inbound to PostgreSQL port 5432">
<ellipse fill="none" stroke="black" stroke-width="3" cx="428.77" cy="-223.28" rx="241.25" ry="42.35"/>
<text text-anchor="middle" x="428.77" y="-230.08" font-family="Arial" font-size="24.00">VULNERABILTY DISCOVERY</text>
<text text-anchor="middle" x="428.77" y="-204.08" font-family="Arial" font-size="24.00">postgresql</text>
</a>
</g>
</g>
<!-- SERVICE DISCOVERY
cpdlc&#45;&gt;VULNERABILTY DISCOVERY
postgresql -->
<g id="edge2" class="edge">
<title>SERVICE DISCOVERY
cpdlc&#45;&gt;VULNERABILTY DISCOVERY
postgresql</title>
<path fill="none" stroke="blue" stroke-width="5" d="M428.77,-84.91C428.77,-110.44 428.77,-143.37 428.77,-170.59"/>
<polygon fill="blue" stroke="blue" stroke-width="5" points="424.39,-170.71 428.77,-180.71 433.14,-170.71 424.39,-170.71"/>
<text text-anchor="start" x="428.77" y="-157.85" font-family="Arial" font-size="20.00" fill="blue"> start_next: 04/11/17, 13:59:37</text>
<text text-anchor="start" x="502.27" y="-137.85" font-family="Arial" font-size="20.00" fill="blue">gap: 3920sec</text>
<text text-anchor="start" x="432.77" y="-117.85" font-family="Arial" font-size="20.00" fill="blue">end_prev: 04/11/17, 12:54:17</text>
<text text-anchor="start" x="463.27" y="-97.85" font-family="Arial" font-weight="bold" font-size="20.00" fill="blue">Attacker: 10.0.254.31</text>
</g>
<!-- NETWORK DoS
ssdp | ID: 55 -->
<g id="node5" class="node">
<title>NETWORK DoS
ssdp | ID: 55</title>
<g id="a_node5"><a xlink:title="ET DOS Possible SSDP Amplification Scan in Progress">
<polygon fill="none" stroke="black" stroke-width="3" points="313.3,-396.7 235.03,-445.68 78.5,-445.68 0.23,-396.7 78.5,-347.72 235.03,-347.72 313.3,-396.7"/>
<text text-anchor="middle" x="156.77" y="-403.5" font-family="Arial" font-size="24.00">NETWORK DoS</text>
<text text-anchor="middle" x="156.77" y="-377.5" font-family="Arial" font-size="24.00">ssdp | ID: 55</text>
</a>
</g>
</g>
<!-- VULNERABILTY DISCOVERY
postgresql&#45;&gt;NETWORK DoS
ssdp | ID: 55 -->
<g id="edge3" class="edge">
<title>VULNERABILTY DISCOVERY
postgresql&#45;&gt;NETWORK DoS
ssdp | ID: 55</title>
<path fill="none" stroke="blue" stroke-width="5" d="M223.46,-245.6C194.56,-252.51 171.14,-261.65 160.77,-273.71 145.96,-290.91 142.85,-315.07 144.23,-337.35"/>
<polygon fill="blue" stroke="blue" stroke-width="5" points="139.88,-337.87 145.15,-347.43 148.6,-337.07 139.88,-337.87"/>
<text text-anchor="middle" x="292.27" y="-323.71" font-family="Arial" font-size="20.00" fill="blue">start_next: 04/11/17, 14:01:09</text>
<text text-anchor="middle" x="292.27" y="-301.71" font-family="Arial" font-size="20.00" fill="blue">gap: 67sec</text>
<text text-anchor="middle" x="292.27" y="-279.71" font-family="Arial" font-size="20.00" fill="blue">end_prev: 04/11/17, 14:00:02</text>
</g>
<!-- ARBITRARY CODE EXECUTION
ssdp | ID: 355 -->
<g id="node7" class="node">
<title>ARBITRARY CODE EXECUTION
ssdp | ID: 355</title>
<g id="a_node7"><a xlink:title="GPL MISC UPnP malformed advertisement">
<polygon fill="none" stroke="black" stroke-width="3" points="1074.27,-426.7 699.27,-426.7 699.27,-366.7 1074.27,-366.7 1074.27,-426.7"/>
<text text-anchor="middle" x="886.77" y="-403.5" font-family="Arial" font-size="24.00">ARBITRARY CODE EXECUTION</text>
<text text-anchor="middle" x="886.77" y="-377.5" font-family="Arial" font-size="24.00">ssdp | ID: 355</text>
</a>
</g>
</g>
<!-- VULNERABILTY DISCOVERY
postgresql&#45;&gt;ARBITRARY CODE EXECUTION
ssdp | ID: 355 -->
<g id="edge6" class="edge">
<title>VULNERABILTY DISCOVERY
postgresql&#45;&gt;ARBITRARY CODE EXECUTION
ssdp | ID: 355</title>
<path fill="none" stroke="blue" stroke-width="5" d="M529.28,-261.9C610.08,-292.14 722.45,-334.2 799.51,-363.04"/>
<polygon fill="blue" stroke="blue" stroke-width="5" points="798.3,-367.26 809.2,-366.67 801.37,-359.06 798.3,-367.26"/>
<text text-anchor="middle" x="856.27" y="-323.71" font-family="Arial" font-size="20.00" fill="blue">start_next: 04/11/17, 16:29:37</text>
<text text-anchor="middle" x="856.27" y="-301.71" font-family="Arial" font-size="20.00" fill="blue">gap: &#45;109sec</text>
<text text-anchor="middle" x="856.27" y="-279.71" font-family="Arial" font-size="20.00" fill="blue">end_prev: 04/11/17, 16:31:27</text>
</g>
<!-- SERVICE DISCOVERY
fis -->
<g id="node6" class="node">
<title>SERVICE DISCOVERY
fis</title>
<g id="a_node6"><a xlink:title="ET SCAN Potential VNC Scan 5900&#45;5920">
<ellipse fill="none" stroke="black" stroke-width="3" cx="292.77" cy="-570.11" rx="189.51" ry="42.35"/>
<text text-anchor="middle" x="292.77" y="-576.91" font-family="Arial" font-size="24.00">SERVICE DISCOVERY</text>
<text text-anchor="middle" x="292.77" y="-550.91" font-family="Arial" font-size="24.00">fis</text>
</a>
</g>
</g>
<!-- NETWORK DoS
ssdp | ID: 55&#45;&gt;SERVICE DISCOVERY
fis -->
<g id="edge4" class="edge">
<title>NETWORK DoS
ssdp | ID: 55&#45;&gt;SERVICE DISCOVERY
fis</title>
<path fill="none" stroke="blue" stroke-width="5" d="M146.52,-445.71C144.08,-469.99 145.69,-498.68 160.77,-519.69 163.34,-523.26 166.2,-526.58 169.29,-529.66"/>
<polygon fill="blue" stroke="blue" stroke-width="5" points="166.54,-533.07 176.93,-536.42 172.34,-526.52 166.54,-533.07"/>
<text text-anchor="middle" x="292.27" y="-503.69" font-family="Arial" font-size="20.00" fill="blue">start_next: 04/11/17, 16:27:37</text>
<text text-anchor="middle" x="292.27" y="-481.69" font-family="Arial" font-size="20.00" fill="blue">gap: 8789sec</text>
<text text-anchor="middle" x="292.27" y="-459.69" font-family="Arial" font-size="20.00" fill="blue">end_prev: 04/11/17, 14:01:09</text>
</g>
<!-- SERVICE DISCOVERY
fis&#45;&gt;VULNERABILTY DISCOVERY
postgresql -->
<g id="edge5" class="edge">
<title>SERVICE DISCOVERY
fis&#45;&gt;VULNERABILTY DISCOVERY
postgresql</title>
<path fill="none" stroke="blue" stroke-width="5" d="M405.45,-535.89C411.24,-531.19 416.44,-525.82 420.77,-519.69 434.41,-500.36 432.55,-355.5 430.44,-276.06"/>
<polygon fill="blue" stroke="blue" stroke-width="5" points="434.8,-275.64 430.15,-265.77 426.06,-275.88 434.8,-275.64"/>
<text text-anchor="middle" x="564.27" y="-413.7" font-family="Arial" font-size="20.00" fill="blue">start_next: 04/11/17, 16:27:56</text>
<text text-anchor="middle" x="564.27" y="-391.7" font-family="Arial" font-size="20.00" fill="blue">gap: 19sec</text>
<text text-anchor="middle" x="564.27" y="-369.7" font-family="Arial" font-size="20.00" fill="blue">end_prev: 04/11/17, 16:27:37</text>
</g>
<!-- INFO DISCOVERY
xdmcp -->
<g id="node8" class="node">
<title>INFO DISCOVERY
xdmcp</title>
<g id="a_node8"><a xlink:title="GPL RPC xdmcp info query">
<ellipse fill="none" stroke="black" stroke-width="3" cx="886.77" cy="-570.11" rx="156.04" ry="42.35"/>
<text text-anchor="middle" x="886.77" y="-576.91" font-family="Arial" font-size="24.00">INFO DISCOVERY</text>
<text text-anchor="middle" x="886.77" y="-550.91" font-family="Arial" font-size="24.00">xdmcp</text>
</a>
</g>
</g>
<!-- ARBITRARY CODE EXECUTION
ssdp | ID: 355&#45;&gt;INFO DISCOVERY
xdmcp -->
<g id="edge7" class="edge">
<title>ARBITRARY CODE EXECUTION
ssdp | ID: 355&#45;&gt;INFO DISCOVERY
xdmcp</title>
<path fill="none" stroke="blue" stroke-width="5" d="M886.77,-426.77C886.77,-451.55 886.77,-487.76 886.77,-517.46"/>
<polygon fill="blue" stroke="blue" stroke-width="5" points="882.39,-517.66 886.77,-527.66 891.14,-517.66 882.39,-517.66"/>
<text text-anchor="middle" x="1017.77" y="-503.69" font-family="Arial" font-size="20.00" fill="blue">start_next: 04/11/17, 16:30:11</text>
<text text-anchor="middle" x="1017.77" y="-481.69" font-family="Arial" font-size="20.00" fill="blue">gap: 34sec</text>
<text text-anchor="middle" x="1017.77" y="-459.69" font-family="Arial" font-size="20.00" fill="blue">end_prev: 04/11/17, 16:29:37</text>
</g>
<!-- ACCOUNT MANIPULATION
snmp | ID: 230 -->
<g id="node9" class="node">
<title>ACCOUNT MANIPULATION
snmp | ID: 230</title>
<g id="a_node9"><a xlink:title="GPL SNMP private access udp&#10;GPL SNMP public access udp">
<polygon fill="none" stroke="black" stroke-width="3" points="1046.77,-754.54 726.77,-754.54 726.77,-694.54 1046.77,-694.54 1046.77,-754.54"/>
<text text-anchor="middle" x="886.77" y="-731.34" font-family="Arial" font-size="24.00">ACCOUNT MANIPULATION</text>
<text text-anchor="middle" x="886.77" y="-705.34" font-family="Arial" font-size="24.00">snmp | ID: 230</text>
</a>
</g>
</g>
<!-- INFO DISCOVERY
xdmcp&#45;&gt;ACCOUNT MANIPULATION
snmp | ID: 230 -->
<g id="edge8" class="edge">
<title>INFO DISCOVERY
xdmcp&#45;&gt;ACCOUNT MANIPULATION
snmp | ID: 230</title>
<path fill="none" stroke="blue" stroke-width="5" d="M886.77,-612.76C886.77,-635.03 886.77,-662.3 886.77,-684.21"/>
<polygon fill="blue" stroke="blue" stroke-width="5" points="882.39,-684.49 886.77,-694.49 891.14,-684.49 882.39,-684.49"/>
<text text-anchor="middle" x="1018.27" y="-670.54" font-family="Arial" font-size="20.00" fill="blue">start_next: 04/11/17, 16:31:12</text>
<text text-anchor="middle" x="1018.27" y="-648.54" font-family="Arial" font-size="20.00" fill="blue">gap: 57sec</text>
<text text-anchor="middle" x="1018.27" y="-626.54" font-family="Arial" font-size="20.00" fill="blue">end_prev: 04/11/17, 16:30:15</text>
</g>
<!-- ACCOUNT MANIPULATION
snmp | ID: 230&#45;&gt;DATA DELIVERY
http | ID: 21 -->
<g id="edge9" class="edge">
<title>ACCOUNT MANIPULATION
snmp | ID: 230&#45;&gt;DATA DELIVERY
http | ID: 21</title>
<path fill="none" stroke="blue" stroke-width="5" d="M886.77,-754.7C886.77,-774.7 886.77,-801.93 886.77,-826.28"/>
<polygon fill="blue" stroke="blue" stroke-width="5" points="882.39,-826.51 886.77,-836.51 891.14,-826.51 882.39,-826.51"/>
<text text-anchor="middle" x="1018.27" y="-812.54" font-family="Arial" font-size="20.00" fill="blue">start_next: 04/11/17, 16:31:58</text>
<text text-anchor="middle" x="1018.27" y="-790.54" font-family="Arial" font-size="20.00" fill="blue">gap: 35sec</text>
<text text-anchor="middle" x="1018.27" y="-768.54" font-family="Arial" font-size="20.00" fill="blue">end_prev: 04/11/17, 16:31:23</text>
</g>
</g>
</svg>
