<?xml version="1.0" encoding="UTF-8" standalone="no"?>
<!DOCTYPE svg PUBLIC "-//W3C//DTD SVG 1.1//EN"
 "http://www.w3.org/Graphics/SVG/1.1/DTD/svg11.dtd">
<!-- Generated by graphviz version 2.50.0 (0)
 -->
<!-- Title: DATAEXFILTRATIONwsman Pages: 1 -->
<svg width="1525pt" height="3229pt"
 viewBox="0.00 0.00 1525.12 3228.82" xmlns="http://www.w3.org/2000/svg" xmlns:xlink="http://www.w3.org/1999/xlink">
<g id="graph0" class="graph" transform="scale(1 1) rotate(0) translate(4 3224.82)">
<title>DATAEXFILTRATIONwsman</title>
<polygon fill="white" stroke="transparent" points="-4,4 -4,-3224.82 1521.12,-3224.82 1521.12,4 -4,4"/>
<!-- Victim: 10.0.0.224
DATA EXFILTRATION
wsman -->
<g id="node1" class="node">
<title>Victim: 10.0.0.224
DATA EXFILTRATION
wsman</title>
<polygon fill="salmon" stroke="black" stroke-width="3" points="944.34,-3123.8 944.34,-3178.19 831.74,-3216.65 672.51,-3216.65 559.91,-3178.19 559.91,-3123.8 672.51,-3085.34 831.74,-3085.34 944.34,-3123.8"/>
<polygon fill="none" stroke="black" stroke-width="3" points="948.34,-3120.95 948.34,-3181.04 832.41,-3220.64 671.84,-3220.64 555.91,-3181.04 555.91,-3120.95 671.84,-3081.35 832.41,-3081.35 948.34,-3120.95"/>
<text text-anchor="middle" x="752.12" y="-3170.79" font-family="Arial" font-size="24.00">Victim: 10.0.0.224</text>
<text text-anchor="middle" x="752.12" y="-3144.79" font-family="Arial" font-size="24.00">DATA EXFILTRATION</text>
<text text-anchor="middle" x="752.12" y="-3118.79" font-family="Arial" font-size="24.00">wsman</text>
</g>
<!-- DATA EXFILTRATION
wsman | ID: 63 -->
<g id="node2" class="node">
<title>DATA EXFILTRATION
wsman | ID: 63</title>
<g id="a_node2"><a xlink:title="ET WEB_SPECIFIC_APPS PHP&#45;CGI query string parameter vulnerability">
<polygon fill="salmon" stroke="black" stroke-width="3" points="957,-3015.18 854.56,-3064.16 649.68,-3064.16 547.24,-3015.18 649.68,-2966.2 854.56,-2966.2 957,-3015.18"/>
<text text-anchor="middle" x="752.12" y="-3021.98" font-family="Arial" font-size="24.00">DATA EXFILTRATION</text>
<text text-anchor="middle" x="752.12" y="-2995.98" font-family="Arial" font-size="24.00">wsman | ID: 63</text>
</a>
</g>
</g>
<!-- DATA EXFILTRATION
wsman | ID: 63&#45;&gt;Victim: 10.0.0.224
DATA EXFILTRATION
wsman -->
<g id="edge1" class="edge">
<title>DATA EXFILTRATION
wsman | ID: 63&#45;&gt;Victim: 10.0.0.224
DATA EXFILTRATION
wsman</title>
<path fill="none" stroke="black" stroke-width="5" d="M752.12,-3064.49C752.12,-3066.6 752.12,-3068.73 752.12,-3070.88"/>
<polygon fill="black" stroke="black" stroke-width="5" points="747.75,-3071.03 752.12,-3081.03 756.5,-3071.03 747.75,-3071.03"/>
</g>
<!-- VULNERABILTY DISCOVERY
ncube&#45;lm -->
<g id="node3" class="node">
<title>VULNERABILTY DISCOVERY
ncube&#45;lm</title>
<g id="a_node3"><a xlink:title="ET POLICY Suspicious inbound to PostgreSQL port 5432&#10;ET POLICY Suspicious inbound to MSSQL port 1433&#10;ET POLICY Suspicious inbound to Oracle SQL port 1521&#10;ET POLICY Suspicious inbound to mSQL port 4333">
<ellipse fill="yellow" stroke="black" stroke-width="3" cx="608.12" cy="-1721.23" rx="241.25" ry="42.35"/>
<text text-anchor="middle" x="608.12" y="-1728.03" font-family="Arial" font-size="24.00">VULNERABILTY DISCOVERY</text>
<text text-anchor="middle" x="608.12" y="-1702.03" font-family="Arial" font-size="24.00">ncube&#45;lm</text>
</a>
</g>
</g>
<!-- VULNERABILTY DISCOVERY
ms&#45;sql&#45;s -->
<g id="node4" class="node">
<title>VULNERABILTY DISCOVERY
ms&#45;sql&#45;s</title>
<g id="a_node4"><a xlink:title="ET POLICY Suspicious inbound to MSSQL port 1433&#10;ET POLICY Suspicious inbound to Oracle SQL port 1521&#10;ET POLICY Suspicious inbound to mSQL port 4333">
<ellipse fill="none" stroke="black" stroke-width="3" cx="241.12" cy="-1902.08" rx="241.25" ry="42.35"/>
<text text-anchor="middle" x="241.12" y="-1908.88" font-family="Arial" font-size="24.00">VULNERABILTY DISCOVERY</text>
<text text-anchor="middle" x="241.12" y="-1882.88" font-family="Arial" font-size="24.00">ms&#45;sql&#45;s</text>
</a>
</g>
</g>
<!-- VULNERABILTY DISCOVERY
ncube&#45;lm&#45;&gt;VULNERABILTY DISCOVERY
ms&#45;sql&#45;s -->
<g id="edge2" class="edge">
<title>VULNERABILTY DISCOVERY
ncube&#45;lm&#45;&gt;VULNERABILTY DISCOVERY
ms&#45;sql&#45;s</title>
<path fill="none" stroke="blue" stroke-width="5" d="M413.79,-1746.42C378.38,-1753.31 347.72,-1761.71 332.12,-1771.65 302.47,-1790.56 279.72,-1822.93 264.38,-1850.56"/>
<polygon fill="blue" stroke="blue" stroke-width="5" points="260.33,-1848.85 259.46,-1859.73 268.05,-1852.98 260.33,-1848.85"/>
<text text-anchor="start" x="332.12" y="-1836.65" font-family="Arial" font-size="20.00" fill="blue"> start_next: 04/11/17, 14:02:53</text>
<text text-anchor="start" x="405.62" y="-1816.65" font-family="Arial" font-size="20.00" fill="blue">gap: 3683sec</text>
<text text-anchor="start" x="336.12" y="-1796.65" font-family="Arial" font-size="20.00" fill="blue">end_prev: 04/11/17, 13:01:30</text>
<text text-anchor="start" x="366.62" y="-1776.65" font-family="Arial" font-weight="bold" font-size="20.00" fill="blue">Attacker: 10.0.254.31</text>
</g>
<!-- SERVICE DISCOVERY
unknown -->
<g id="node11" class="node">
<title>SERVICE DISCOVERY
unknown</title>
<g id="a_node11"><a xlink:title="ET SCAN Behavioral Unusual Port 445 traffic Potential Scan or Infection&#10;ET SCAN Potential VNC Scan 5900&#45;5920">
<ellipse fill="none" stroke="black" stroke-width="3" cx="649.12" cy="-1994.93" rx="189.51" ry="42.35"/>
<text text-anchor="middle" x="649.12" y="-2001.73" font-family="Arial" font-size="24.00">SERVICE DISCOVERY</text>
<text text-anchor="middle" x="649.12" y="-1975.73" font-family="Arial" font-size="24.00">unknown</text>
</a>
</g>
</g>
<!-- VULNERABILTY DISCOVERY
ncube&#45;lm&#45;&gt;SERVICE DISCOVERY
unknown -->
<g id="edge10" class="edge">
<title>VULNERABILTY DISCOVERY
ncube&#45;lm&#45;&gt;SERVICE DISCOVERY
unknown</title>
<path fill="none" stroke="blue" stroke-width="5" d="M607.06,-1763.82C606.99,-1789.3 607.94,-1822.5 612.12,-1851.65 616.52,-1882.23 625.03,-1915.7 632.78,-1942.49"/>
<polygon fill="blue" stroke="blue" stroke-width="5" points="628.68,-1944.06 635.7,-1952.41 637.07,-1941.58 628.68,-1944.06"/>
<text text-anchor="start" x="612.12" y="-1836.65" font-family="Arial" font-size="20.00" fill="blue"> start_next: 04/11/17, 16:29:37</text>
<text text-anchor="start" x="688.12" y="-1816.65" font-family="Arial" font-size="20.00" fill="blue">gap: &#45;369sec</text>
<text text-anchor="start" x="616.12" y="-1796.65" font-family="Arial" font-size="20.00" fill="blue">end_prev: 04/11/17, 16:35:46</text>
<text text-anchor="start" x="646.62" y="-1776.65" font-family="Arial" font-weight="bold" font-size="20.00" fill="blue">Attacker: 10.0.254.31</text>
</g>
<!-- ARBITRARY CODE EXECUTION
epmap | ID: 356 -->
<g id="node20" class="node">
<title>ARBITRARY CODE EXECUTION
epmap | ID: 356</title>
<g id="a_node20"><a xlink:title="GPL MISC UPnP malformed advertisement&#10;GPL NETBIOS DCERPC Remote Activation bind attempt&#10;GPL NETBIOS SMB&#45;DS Session Setup NTMLSSP unicode asn1 overflow attempt&#10;GPL NETBIOS DCERPC IActivation little endian bind attempt">
<polygon fill="none" stroke="black" stroke-width="3" points="1072.62,-2201.21 697.62,-2201.21 697.62,-2141.21 1072.62,-2141.21 1072.62,-2201.21"/>
<text text-anchor="middle" x="885.12" y="-2178.01" font-family="Arial" font-size="24.00">ARBITRARY CODE EXECUTION</text>
<text text-anchor="middle" x="885.12" y="-2152.01" font-family="Arial" font-size="24.00">epmap | ID: 356</text>
</a>
</g>
</g>
<!-- VULNERABILTY DISCOVERY
ncube&#45;lm&#45;&gt;ARBITRARY CODE EXECUTION
epmap | ID: 356 -->
<g id="edge25" class="edge">
<title>VULNERABILTY DISCOVERY
ncube&#45;lm&#45;&gt;ARBITRARY CODE EXECUTION
epmap | ID: 356</title>
<path fill="none" stroke="blue" stroke-width="5" d="M814.32,-1743.38C843.31,-1750.31 866.78,-1759.49 877.12,-1771.65 888.63,-1785.18 886.83,-2033.27 885.66,-2131.06"/>
<polygon fill="blue" stroke="blue" stroke-width="5" points="881.29,-2131.08 885.54,-2141.13 890.03,-2131.19 881.29,-2131.08"/>
<text text-anchor="middle" x="1018.62" y="-1919.08" font-family="Arial" font-size="20.00" fill="blue">start_next: 04/11/17, 18:04:47</text>
<text text-anchor="middle" x="1018.62" y="-1897.08" font-family="Arial" font-size="20.00" fill="blue">gap: 64sec</text>
<text text-anchor="middle" x="1018.62" y="-1875.08" font-family="Arial" font-size="20.00" fill="blue">end_prev: 04/11/17, 18:03:44</text>
</g>
<!-- SERVICE DISCOVERY
epmap -->
<g id="node5" class="node">
<title>SERVICE DISCOVERY
epmap</title>
<g id="a_node5"><a xlink:title="ET SCAN Behavioral Unusual Port 135 traffic Potential Scan or Infection&#10;ET SCAN Potential VNC Scan 5900&#45;5920">
<ellipse fill="none" stroke="black" stroke-width="3" cx="232.12" cy="-2087.79" rx="189.51" ry="42.35"/>
<text text-anchor="middle" x="232.12" y="-2094.59" font-family="Arial" font-size="24.00">SERVICE DISCOVERY</text>
<text text-anchor="middle" x="232.12" y="-2068.59" font-family="Arial" font-size="24.00">epmap</text>
</a>
</g>
</g>
<!-- VULNERABILTY DISCOVERY
ms&#45;sql&#45;s&#45;&gt;SERVICE DISCOVERY
epmap -->
<g id="edge3" class="edge">
<title>VULNERABILTY DISCOVERY
ms&#45;sql&#45;s&#45;&gt;SERVICE DISCOVERY
epmap</title>
<path fill="none" stroke="blue" stroke-width="5" d="M197.34,-1944.1C195.72,-1946.82 194.29,-1949.63 193.12,-1952.51 180.05,-1984.72 180.57,-1999.38 193.31,-2036.06"/>
<polygon fill="blue" stroke="blue" stroke-width="5" points="189.33,-2037.93 196.81,-2045.89 197.57,-2035 189.33,-2037.93"/>
<text text-anchor="middle" x="324.62" y="-2011.93" font-family="Arial" font-size="20.00" fill="blue">start_next: 04/11/17, 14:02:55</text>
<text text-anchor="middle" x="324.62" y="-1989.93" font-family="Arial" font-size="20.00" fill="blue">gap: &#45;19sec</text>
<text text-anchor="middle" x="324.62" y="-1967.93" font-family="Arial" font-size="20.00" fill="blue">end_prev: 04/11/17, 14:03:14</text>
</g>
<!-- ARBITRARY CODE EXECUTION
microsoft&#45;ds | ID: 309 -->
<g id="node6" class="node">
<title>ARBITRARY CODE EXECUTION
microsoft&#45;ds | ID: 309</title>
<g id="a_node6"><a xlink:title="GPL NETBIOS DCERPC Remote Activation bind attempt&#10;ET CURRENT_EVENTS QNAP Shellshock CVE&#45;2014&#45;6271&#10;GPL NETBIOS DCERPC IActivation little endian bind attempt&#10;GPL MISC UPnP malformed advertisement&#10;GPL NETBIOS SMB&#45;DS Session Setup NTMLSSP unicode asn1 overflow attempt">
<polygon fill="none" stroke="black" stroke-width="3" points="553.62,-2275.21 178.62,-2275.21 178.62,-2215.21 553.62,-2215.21 553.62,-2275.21"/>
<text text-anchor="middle" x="366.12" y="-2252.01" font-family="Arial" font-size="24.00">ARBITRARY CODE EXECUTION</text>
<text text-anchor="middle" x="366.12" y="-2226.01" font-family="Arial" font-size="24.00">microsoft&#45;ds | ID: 309</text>
</a>
</g>
</g>
<!-- SERVICE DISCOVERY
epmap&#45;&gt;ARBITRARY CODE EXECUTION
microsoft&#45;ds | ID: 309 -->
<g id="edge4" class="edge">
<title>SERVICE DISCOVERY
epmap&#45;&gt;ARBITRARY CODE EXECUTION
microsoft&#45;ds | ID: 309</title>
<path fill="none" stroke="blue" stroke-width="5" d="M265.77,-2129.79C284.23,-2152.03 307.66,-2179.87 329.12,-2204.21 330.1,-2205.32 331.1,-2206.44 332.11,-2207.57"/>
<polygon fill="blue" stroke="blue" stroke-width="5" points="328.94,-2210.59 338.88,-2215.09 335.43,-2204.73 328.94,-2210.59"/>
<text text-anchor="middle" x="460.62" y="-2188.21" font-family="Arial" font-size="20.00" fill="blue">start_next: 04/11/17, 14:04:58</text>
<text text-anchor="middle" x="460.62" y="-2166.21" font-family="Arial" font-size="20.00" fill="blue">gap: 87sec</text>
<text text-anchor="middle" x="460.62" y="-2144.21" font-family="Arial" font-size="20.00" fill="blue">end_prev: 04/11/17, 14:03:30</text>
</g>
<!-- REMOTE SERVICE EXPLOIT
snmp | ID: 52 -->
<g id="node7" class="node">
<title>REMOTE SERVICE EXPLOIT
snmp | ID: 52</title>
<g id="a_node7"><a xlink:title="ET SNMP Samsung Printer SNMP Hardcode RW Community String">
<polygon fill="none" stroke="black" stroke-width="3" points="782.12,-2420.21 444.12,-2420.21 444.12,-2360.21 782.12,-2360.21 782.12,-2420.21"/>
<text text-anchor="middle" x="613.12" y="-2397.01" font-family="Arial" font-size="24.00">REMOTE SERVICE EXPLOIT</text>
<text text-anchor="middle" x="613.12" y="-2371.01" font-family="Arial" font-size="24.00">snmp | ID: 52</text>
</a>
</g>
</g>
<!-- ARBITRARY CODE EXECUTION
microsoft&#45;ds | ID: 309&#45;&gt;REMOTE SERVICE EXPLOIT
snmp | ID: 52 -->
<g id="edge5" class="edge">
<title>ARBITRARY CODE EXECUTION
microsoft&#45;ds | ID: 309&#45;&gt;REMOTE SERVICE EXPLOIT
snmp | ID: 52</title>
<path fill="none" stroke="blue" stroke-width="5" d="M347.11,-2275.66C334.65,-2299.03 323.76,-2331.17 342.12,-2352.21 355.85,-2367.95 392.14,-2377.24 433.85,-2382.65"/>
<polygon fill="blue" stroke="blue" stroke-width="5" points="433.53,-2387.02 443.98,-2383.88 434.58,-2378.33 433.53,-2387.02"/>
<text text-anchor="middle" x="473.62" y="-2336.21" font-family="Arial" font-size="20.00" fill="blue">start_next: 04/11/17, 14:05:32</text>
<text text-anchor="middle" x="473.62" y="-2314.21" font-family="Arial" font-size="20.00" fill="blue">gap: &#45;81sec</text>
<text text-anchor="middle" x="473.62" y="-2292.21" font-family="Arial" font-size="20.00" fill="blue">end_prev: 04/11/17, 14:06:53</text>
</g>
<!-- ARBITRARY CODE EXECUTION
microsoft&#45;ds | ID: 309&#45;&gt;REMOTE SERVICE EXPLOIT
snmp | ID: 52 -->
<g id="edge12" class="edge">
<title>ARBITRARY CODE EXECUTION
microsoft&#45;ds | ID: 309&#45;&gt;REMOTE SERVICE EXPLOIT
snmp | ID: 52</title>
<path fill="none" stroke="blue" stroke-width="5" d="M553.74,-2264.54C575.79,-2269.99 593.51,-2277.06 602.12,-2286.21 610.68,-2295.31 613.19,-2324.85 613.69,-2349.97"/>
<polygon fill="blue" stroke="blue" stroke-width="5" points="609.32,-2350.08 613.8,-2360.04 618.07,-2349.99 609.32,-2350.08"/>
<text text-anchor="middle" x="745.62" y="-2336.21" font-family="Arial" font-size="20.00" fill="blue">start_next: 04/11/17, 16:33:50</text>
<text text-anchor="middle" x="745.62" y="-2314.21" font-family="Arial" font-size="20.00" fill="blue">gap: &#45;184sec</text>
<text text-anchor="middle" x="745.62" y="-2292.21" font-family="Arial" font-size="20.00" fill="blue">end_prev: 04/11/17, 16:36:54</text>
</g>
<!-- COMMAND AND CONTROL
unknown | ID: 308 -->
<g id="node8" class="node">
<title>COMMAND AND CONTROL
unknown | ID: 308</title>
<g id="a_node8"><a xlink:title="ET POLICY RDP connection confirm">
<polygon fill="none" stroke="black" stroke-width="3" points="610.62,-2562.21 287.62,-2562.21 287.62,-2502.21 610.62,-2502.21 610.62,-2562.21"/>
<text text-anchor="middle" x="449.12" y="-2539.01" font-family="Arial" font-size="24.00">COMMAND AND CONTROL</text>
<text text-anchor="middle" x="449.12" y="-2513.01" font-family="Arial" font-size="24.00">unknown | ID: 308</text>
</a>
</g>
</g>
<!-- REMOTE SERVICE EXPLOIT
snmp | ID: 52&#45;&gt;COMMAND AND CONTROL
unknown | ID: 308 -->
<g id="edge6" class="edge">
<title>REMOTE SERVICE EXPLOIT
snmp | ID: 52&#45;&gt;COMMAND AND CONTROL
unknown | ID: 308</title>
<path fill="none" stroke="blue" stroke-width="5" d="M443.88,-2396.7C398.46,-2401.92 357.82,-2411.37 343.12,-2428.21 323.84,-2450.32 326.14,-2470.3 343.12,-2494.21 343.19,-2494.3 343.25,-2494.39 343.31,-2494.48"/>
<polygon fill="blue" stroke="blue" stroke-width="5" points="340.06,-2497.41 349.89,-2502.15 346.7,-2491.71 340.06,-2497.41"/>
<text text-anchor="middle" x="474.62" y="-2478.21" font-family="Arial" font-size="20.00" fill="blue">start_next: 04/11/17, 14:05:59</text>
<text text-anchor="middle" x="474.62" y="-2456.21" font-family="Arial" font-size="20.00" fill="blue">gap: 27sec</text>
<text text-anchor="middle" x="474.62" y="-2434.21" font-family="Arial" font-size="20.00" fill="blue">end_prev: 04/11/17, 14:05:32</text>
</g>
<!-- REMOTE SERVICE EXPLOIT
snmp | ID: 52&#45;&gt;COMMAND AND CONTROL
unknown | ID: 308 -->
<g id="edge13" class="edge">
<title>REMOTE SERVICE EXPLOIT
snmp | ID: 52&#45;&gt;COMMAND AND CONTROL
unknown | ID: 308</title>
<path fill="none" stroke="blue" stroke-width="5" d="M613.94,-2420.23C614.06,-2446.78 612.44,-2483.5 603.12,-2494.21 602.51,-2494.91 601.83,-2495.6 601.08,-2496.28"/>
<polygon fill="blue" stroke="blue" stroke-width="5" points="598.33,-2492.86 592.5,-2502.08 603.23,-2500.1 598.33,-2492.86"/>
<text text-anchor="middle" x="745.12" y="-2478.21" font-family="Arial" font-size="20.00" fill="blue">start_next: 04/11/17, 16:34:11</text>
<text text-anchor="middle" x="745.12" y="-2456.21" font-family="Arial" font-size="20.00" fill="blue">gap: 21sec</text>
<text text-anchor="middle" x="745.12" y="-2434.21" font-family="Arial" font-size="20.00" fill="blue">end_prev: 04/11/17, 16:33:50</text>
</g>
<!-- COMMAND AND CONTROL
unknown | ID: 1365 -->
<g id="node21" class="node">
<title>COMMAND AND CONTROL
unknown | ID: 1365</title>
<g id="a_node21"><a xlink:title="ET POLICY RDP connection confirm">
<polygon fill="none" stroke="black" stroke-width="3" stroke-dasharray="1,5" points="1049.62,-2562.21 726.62,-2562.21 726.62,-2502.21 1049.62,-2502.21 1049.62,-2562.21"/>
<text text-anchor="middle" x="888.12" y="-2539.01" font-family="Arial" font-size="24.00">COMMAND AND CONTROL</text>
<text text-anchor="middle" x="888.12" y="-2513.01" font-family="Arial" font-size="24.00">unknown | ID: 1365</text>
</a>
</g>
</g>
<!-- REMOTE SERVICE EXPLOIT
snmp | ID: 52&#45;&gt;COMMAND AND CONTROL
unknown | ID: 1365 -->
<g id="edge27" class="edge">
<title>REMOTE SERVICE EXPLOIT
snmp | ID: 52&#45;&gt;COMMAND AND CONTROL
unknown | ID: 1365</title>
<path fill="none" stroke="blue" stroke-width="5" d="M782.16,-2398.61C824.68,-2403.98 862.44,-2413.04 877.12,-2428.21 885.81,-2437.19 888.31,-2466.73 888.78,-2491.89"/>
<polygon fill="blue" stroke="blue" stroke-width="5" points="884.4,-2492.01 888.87,-2501.98 893.15,-2491.94 884.4,-2492.01"/>
<text text-anchor="middle" x="1020.62" y="-2478.21" font-family="Arial" font-size="20.00" fill="blue">start_next: 04/11/17, 18:05:45</text>
<text text-anchor="middle" x="1020.62" y="-2456.21" font-family="Arial" font-size="20.00" fill="blue">gap: 22sec</text>
<text text-anchor="middle" x="1020.62" y="-2434.21" font-family="Arial" font-size="20.00" fill="blue">end_prev: 04/11/17, 18:05:23</text>
</g>
<!-- ACCOUNT MANIPULATION
snmp | ID: 53 -->
<g id="node9" class="node">
<title>ACCOUNT MANIPULATION
snmp | ID: 53</title>
<g id="a_node9"><a xlink:title="GPL SNMP private access udp&#10;GPL SNMP public access udp">
<polygon fill="none" stroke="black" stroke-width="3" points="503.12,-2704.21 183.12,-2704.21 183.12,-2644.21 503.12,-2644.21 503.12,-2704.21"/>
<text text-anchor="middle" x="343.12" y="-2681.01" font-family="Arial" font-size="24.00">ACCOUNT MANIPULATION</text>
<text text-anchor="middle" x="343.12" y="-2655.01" font-family="Arial" font-size="24.00">snmp | ID: 53</text>
</a>
</g>
</g>
<!-- COMMAND AND CONTROL
unknown | ID: 308&#45;&gt;ACCOUNT MANIPULATION
snmp | ID: 53 -->
<g id="edge7" class="edge">
<title>COMMAND AND CONTROL
unknown | ID: 308&#45;&gt;ACCOUNT MANIPULATION
snmp | ID: 53</title>
<path fill="none" stroke="blue" stroke-width="5" d="M329.02,-2562.24C324.65,-2564.75 321.24,-2567.4 319.12,-2570.21 303.1,-2591.43 309.28,-2605.3 319.03,-2634.48"/>
<polygon fill="blue" stroke="blue" stroke-width="5" points="314.89,-2635.9 322.15,-2644.06 323.21,-2633.2 314.89,-2635.9"/>
<text text-anchor="middle" x="450.62" y="-2620.21" font-family="Arial" font-size="20.00" fill="blue">start_next: 04/11/17, 14:06:04</text>
<text text-anchor="middle" x="450.62" y="-2598.21" font-family="Arial" font-size="20.00" fill="blue">gap: &#45;109sec</text>
<text text-anchor="middle" x="450.62" y="-2576.21" font-family="Arial" font-size="20.00" fill="blue">end_prev: 04/11/17, 14:07:53</text>
</g>
<!-- COMMAND AND CONTROL
unknown | ID: 308&#45;&gt;ACCOUNT MANIPULATION
snmp | ID: 53 -->
<g id="edge14" class="edge">
<title>COMMAND AND CONTROL
unknown | ID: 308&#45;&gt;ACCOUNT MANIPULATION
snmp | ID: 53</title>
<path fill="none" stroke="blue" stroke-width="5" d="M569.23,-2562.24C573.59,-2564.75 577,-2567.4 579.12,-2570.21 596.8,-2593.62 598.19,-2613.92 579.12,-2636.21 568.82,-2648.26 543.61,-2656.42 513.32,-2661.92"/>
<polygon fill="blue" stroke="blue" stroke-width="5" points="512.44,-2657.64 503.32,-2663.62 513.91,-2666.26 512.44,-2657.64"/>
<text text-anchor="middle" x="724.62" y="-2620.21" font-family="Arial" font-size="20.00" fill="blue">start_next: 04/11/17, 16:34:17</text>
<text text-anchor="middle" x="724.62" y="-2598.21" font-family="Arial" font-size="20.00" fill="blue">gap: &#45;107sec</text>
<text text-anchor="middle" x="724.62" y="-2576.21" font-family="Arial" font-size="20.00" fill="blue">end_prev: 04/11/17, 16:36:04</text>
</g>
<!-- DATA DELIVERY
wsman | ID: 399 -->
<g id="node10" class="node">
<title>DATA DELIVERY
wsman | ID: 399</title>
<g id="a_node10"><a xlink:title="GPL WEB_SERVER perl post attempt">
<polygon fill="none" stroke="black" stroke-width="3" points="513.22,-2835.2 431.67,-2884.18 268.57,-2884.18 187.02,-2835.2 268.57,-2786.22 431.67,-2786.22 513.22,-2835.2"/>
<text text-anchor="middle" x="350.12" y="-2842" font-family="Arial" font-size="24.00">DATA DELIVERY</text>
<text text-anchor="middle" x="350.12" y="-2816" font-family="Arial" font-size="24.00">wsman | ID: 399</text>
</a>
</g>
</g>
<!-- ACCOUNT MANIPULATION
snmp | ID: 53&#45;&gt;DATA DELIVERY
wsman | ID: 399 -->
<g id="edge8" class="edge">
<title>ACCOUNT MANIPULATION
snmp | ID: 53&#45;&gt;DATA DELIVERY
wsman | ID: 399</title>
<path fill="none" stroke="blue" stroke-width="5" d="M334.44,-2704.56C333.91,-2707.13 333.46,-2709.71 333.12,-2712.21 329.64,-2738.45 328.94,-2747.45 333.05,-2776.11"/>
<polygon fill="blue" stroke="blue" stroke-width="5" points="328.74,-2776.91 334.55,-2786.16 337.4,-2775.62 328.74,-2776.91"/>
<text text-anchor="middle" x="464.62" y="-2762.21" font-family="Arial" font-size="20.00" fill="blue">start_next: 04/11/17, 14:06:51</text>
<text text-anchor="middle" x="464.62" y="-2740.21" font-family="Arial" font-size="20.00" fill="blue">gap: 43sec</text>
<text text-anchor="middle" x="464.62" y="-2718.21" font-family="Arial" font-size="20.00" fill="blue">end_prev: 04/11/17, 14:06:08</text>
</g>
<!-- ACCOUNT MANIPULATION
snmp | ID: 53&#45;&gt;DATA DELIVERY
wsman | ID: 399 -->
<g id="edge15" class="edge">
<title>ACCOUNT MANIPULATION
snmp | ID: 53&#45;&gt;DATA DELIVERY
wsman | ID: 399</title>
<path fill="none" stroke="blue" stroke-width="5" d="M503.23,-2682.5C543.94,-2687.86 579.94,-2696.93 593.12,-2712.21 612.29,-2734.42 611.39,-2755.26 593.12,-2778.21 579.56,-2795.26 539.1,-2807.56 495,-2816.2"/>
<polygon fill="blue" stroke="blue" stroke-width="5" points="493.95,-2811.95 484.94,-2818.1 495.58,-2820.55 493.95,-2811.95"/>
<text text-anchor="middle" x="739.62" y="-2762.21" font-family="Arial" font-size="20.00" fill="blue">start_next: 04/11/17, 16:35:02</text>
<text text-anchor="middle" x="739.62" y="-2740.21" font-family="Arial" font-size="20.00" fill="blue">gap: 44sec</text>
<text text-anchor="middle" x="739.62" y="-2718.21" font-family="Arial" font-size="20.00" fill="blue">end_prev: 04/11/17, 16:34:19</text>
</g>
<!-- DATA DELIVERY
wsman | ID: 399&#45;&gt;DATA EXFILTRATION
wsman | ID: 63 -->
<g id="edge9" class="edge">
<title>DATA DELIVERY
wsman | ID: 399&#45;&gt;DATA EXFILTRATION
wsman | ID: 63</title>
<path fill="none" stroke="blue" stroke-width="5" d="M333.2,-2884.25C327.71,-2909.14 326.84,-2938.38 344.12,-2958.19 371.56,-2989.65 458.83,-3004.06 545.65,-3010.43"/>
<polygon fill="blue" stroke="blue" stroke-width="5" points="545.4,-3014.79 555.68,-3011.13 546.01,-3006.07 545.4,-3014.79"/>
<text text-anchor="middle" x="475.62" y="-2942.19" font-family="Arial" font-size="20.00" fill="blue">start_next: 04/11/17, 14:06:54</text>
<text text-anchor="middle" x="475.62" y="-2920.19" font-family="Arial" font-size="20.00" fill="blue">gap: 3sec</text>
<text text-anchor="middle" x="475.62" y="-2898.19" font-family="Arial" font-size="20.00" fill="blue">end_prev: 04/11/17, 14:06:51</text>
</g>
<!-- DATA DELIVERY
wsman | ID: 399&#45;&gt;DATA EXFILTRATION
wsman | ID: 63 -->
<g id="edge16" class="edge">
<title>DATA DELIVERY
wsman | ID: 399&#45;&gt;DATA EXFILTRATION
wsman | ID: 63</title>
<path fill="none" stroke="blue" stroke-width="5" d="M485.32,-2852.19C536.6,-2861.02 586.83,-2873.98 604.12,-2892.19 624.6,-2913.76 596.56,-2934.96 615.12,-2958.19 617.87,-2961.64 620.87,-2964.87 624.07,-2967.91"/>
<polygon fill="blue" stroke="blue" stroke-width="5" points="621.45,-2971.42 631.88,-2974.64 627.16,-2964.8 621.45,-2971.42"/>
<text text-anchor="middle" x="746.62" y="-2942.19" font-family="Arial" font-size="20.00" fill="blue">start_next: 04/11/17, 16:35:06</text>
<text text-anchor="middle" x="746.62" y="-2920.19" font-family="Arial" font-size="20.00" fill="blue">gap: 3sec</text>
<text text-anchor="middle" x="746.62" y="-2898.19" font-family="Arial" font-size="20.00" fill="blue">end_prev: 04/11/17, 16:35:02</text>
</g>
<!-- SERVICE DISCOVERY
unknown&#45;&gt;ARBITRARY CODE EXECUTION
microsoft&#45;ds | ID: 309 -->
<g id="edge11" class="edge">
<title>SERVICE DISCOVERY
unknown&#45;&gt;ARBITRARY CODE EXECUTION
microsoft&#45;ds | ID: 309</title>
<path fill="none" stroke="blue" stroke-width="5" d="M620.82,-2037.09C619.46,-2039.83 618.21,-2042.6 617.12,-2045.36 590.9,-2112.08 639.74,-2153.44 589.12,-2204.21 583.7,-2209.65 574.74,-2214.36 563.45,-2218.44"/>
<polygon fill="blue" stroke="blue" stroke-width="5" points="562.05,-2214.3 553.92,-2221.58 564.79,-2222.61 562.05,-2214.3"/>
<text text-anchor="middle" x="748.62" y="-2104.79" font-family="Arial" font-size="20.00" fill="blue">start_next: 04/11/17, 16:31:23</text>
<text text-anchor="middle" x="748.62" y="-2082.79" font-family="Arial" font-size="20.00" fill="blue">gap: &#45;151sec</text>
<text text-anchor="middle" x="748.62" y="-2060.79" font-family="Arial" font-size="20.00" fill="blue">end_prev: 04/11/17, 16:33:53</text>
</g>
<!-- HOST DISCOVERY
wsman -->
<g id="node12" class="node">
<title>HOST DISCOVERY
wsman</title>
<g id="a_node12"><a xlink:title="ET SCAN Possible Nmap User&#45;Agent Observed&#10;ET SCAN Nmap Scripting Engine User&#45;Agent Detected (Nmap Scripting Engine)">
<ellipse fill="yellow" stroke="black" stroke-width="3" cx="986.12" cy="-42.43" rx="162.77" ry="42.35"/>
<text text-anchor="middle" x="986.12" y="-49.23" font-family="Arial" font-size="24.00">HOST DISCOVERY</text>
<text text-anchor="middle" x="986.12" y="-23.23" font-family="Arial" font-size="24.00">wsman</text>
</a>
</g>
</g>
<!-- SURFING
wsman -->
<g id="node13" class="node">
<title>SURFING
wsman</title>
<g id="a_node13"><a xlink:title="ET WEB_SERVER WEB&#45;PHP phpinfo access">
<ellipse fill="none" stroke="black" stroke-width="3" cx="986.12" cy="-546.13" rx="88.28" ry="42.35"/>
<text text-anchor="middle" x="986.12" y="-552.93" font-family="Arial" font-size="24.00">SURFING</text>
<text text-anchor="middle" x="986.12" y="-526.93" font-family="Arial" font-size="24.00">wsman</text>
</a>
</g>
</g>
<!-- HOST DISCOVERY
wsman&#45;&gt;SURFING
wsman -->
<g id="edge17" class="edge">
<title>HOST DISCOVERY
wsman&#45;&gt;SURFING
wsman</title>
<path fill="none" stroke="blue" stroke-width="5" d="M983.82,-85.08C980.8,-144.63 976.11,-257.54 978.12,-353.71 979.11,-400.97 981.47,-454.76 983.37,-493.26"/>
<polygon fill="blue" stroke="blue" stroke-width="5" points="979.02,-493.93 983.89,-503.7 987.76,-493.49 979.02,-493.93"/>
<text text-anchor="start" x="978.12" y="-338.71" font-family="Arial" font-size="20.00" fill="blue"> start_next: 04/11/17, 16:36:54</text>
<text text-anchor="start" x="1068.62" y="-318.71" font-family="Arial" font-size="20.00" fill="blue">gap: 2sec</text>
<text text-anchor="start" x="982.12" y="-298.71" font-family="Arial" font-size="20.00" fill="blue">end_prev: 04/11/17, 16:36:53</text>
<text text-anchor="start" x="1012.62" y="-278.71" font-family="Arial" font-weight="bold" font-size="20.00" fill="blue">Attacker: 10.0.254.31</text>
</g>
<!-- VULNERABILTY DISCOVERY
wsman -->
<g id="node24" class="node">
<title>VULNERABILTY DISCOVERY
wsman</title>
<g id="a_node24"><a xlink:title="ET SCAN Nikto Web App Scan in Progress">
<ellipse fill="none" stroke="black" stroke-width="3" cx="1244.12" cy="-223.28" rx="241.25" ry="42.35"/>
<text text-anchor="middle" x="1244.12" y="-230.08" font-family="Arial" font-size="24.00">VULNERABILTY DISCOVERY</text>
<text text-anchor="middle" x="1244.12" y="-204.08" font-family="Arial" font-size="24.00">wsman</text>
</a>
</g>
</g>
<!-- HOST DISCOVERY
wsman&#45;&gt;VULNERABILTY DISCOVERY
wsman -->
<g id="edge31" class="edge">
<title>HOST DISCOVERY
wsman&#45;&gt;VULNERABILTY DISCOVERY
wsman</title>
<path fill="none" stroke="purple" stroke-width="5" d="M1042.42,-82.46C1082.32,-110.11 1135.98,-147.31 1177.93,-176.39"/>
<polygon fill="purple" stroke="purple" stroke-width="5" points="1175.45,-179.99 1186.16,-182.09 1180.43,-172.8 1175.45,-179.99"/>
<text text-anchor="start" x="1167.12" y="-157.85" font-family="Arial" font-size="20.00" fill="purple"> start_next: 04/11/17, 14:07:05</text>
<text text-anchor="start" x="1252.12" y="-137.85" font-family="Arial" font-size="20.00" fill="purple">gap: 32sec</text>
<text text-anchor="start" x="1171.12" y="-117.85" font-family="Arial" font-size="20.00" fill="purple">end_prev: 04/11/17, 14:06:33</text>
<text text-anchor="start" x="1201.62" y="-97.85" font-family="Arial" font-weight="bold" font-size="20.00" fill="purple">Attacker: 10.0.254.30</text>
</g>
<!-- HOST DISCOVERY
unknown -->
<g id="node14" class="node">
<title>HOST DISCOVERY
unknown</title>
<g id="a_node14"><a xlink:title="ET SCAN Possible Nmap User&#45;Agent Observed&#10;ET SCAN Nmap Scripting Engine User&#45;Agent Detected (Nmap Scripting Engine)">
<ellipse fill="none" stroke="black" stroke-width="3" cx="775.12" cy="-712.98" rx="162.77" ry="42.35"/>
<text text-anchor="middle" x="775.12" y="-719.78" font-family="Arial" font-size="24.00">HOST DISCOVERY</text>
<text text-anchor="middle" x="775.12" y="-693.78" font-family="Arial" font-size="24.00">unknown</text>
</a>
</g>
</g>
<!-- SURFING
wsman&#45;&gt;HOST DISCOVERY
unknown -->
<g id="edge18" class="edge">
<title>SURFING
wsman&#45;&gt;HOST DISCOVERY
unknown</title>
<path fill="none" stroke="blue" stroke-width="5" d="M915.5,-571.68C900.45,-578.53 885.18,-586.83 872.12,-596.56 847.64,-614.81 825.32,-640.4 808.29,-662.85"/>
<polygon fill="blue" stroke="blue" stroke-width="5" points="804.71,-660.32 802.25,-670.96 811.73,-665.54 804.71,-660.32"/>
<text text-anchor="middle" x="1003.62" y="-646.56" font-family="Arial" font-size="20.00" fill="blue">start_next: 04/11/17, 16:52:22</text>
<text text-anchor="middle" x="1003.62" y="-624.56" font-family="Arial" font-size="20.00" fill="blue">gap: 920sec</text>
<text text-anchor="middle" x="1003.62" y="-602.56" font-family="Arial" font-size="20.00" fill="blue">end_prev: 04/11/17, 16:37:02</text>
</g>
<!-- INFO DISCOVERY
wsman -->
<g id="node26" class="node">
<title>INFO DISCOVERY
wsman</title>
<g id="a_node26"><a xlink:title="GPL WEB_SERVER globals.pl access">
<ellipse fill="none" stroke="black" stroke-width="3" cx="1162.12" cy="-805.84" rx="156.04" ry="42.35"/>
<text text-anchor="middle" x="1162.12" y="-812.64" font-family="Arial" font-size="24.00">INFO DISCOVERY</text>
<text text-anchor="middle" x="1162.12" y="-786.64" font-family="Arial" font-size="24.00">wsman</text>
</a>
</g>
</g>
<!-- SURFING
wsman&#45;&gt;INFO DISCOVERY
wsman -->
<g id="edge34" class="edge">
<title>SURFING
wsman&#45;&gt;INFO DISCOVERY
wsman</title>
<path fill="none" stroke="purple" stroke-width="5" d="M1070.49,-558.93C1093.6,-566.18 1116.55,-577.83 1132.12,-596.56 1168.28,-640.04 1171.68,-707.09 1168.72,-753.31"/>
<polygon fill="purple" stroke="purple" stroke-width="5" points="1164.35,-753.11 1167.95,-763.42 1173.07,-753.78 1164.35,-753.11"/>
<text text-anchor="middle" x="1293.62" y="-646.56" font-family="Arial" font-size="20.00" fill="purple">start_next: 04/11/17, 14:07:10</text>
<text text-anchor="middle" x="1293.62" y="-624.56" font-family="Arial" font-size="20.00" fill="purple">gap: &#45;9sec</text>
<text text-anchor="middle" x="1293.62" y="-602.56" font-family="Arial" font-size="20.00" fill="purple">end_prev: 04/11/17, 14:07:20</text>
</g>
<!-- ARBITRARY CODE EXECUTION
unknown | ID: 47 -->
<g id="node15" class="node">
<title>ARBITRARY CODE EXECUTION
unknown | ID: 47</title>
<g id="a_node15"><a xlink:title="ET CURRENT_EVENTS QNAP Shellshock CVE&#45;2014&#45;6271">
<polygon fill="none" stroke="black" stroke-width="3" points="860.62,-916.26 485.62,-916.26 485.62,-856.26 860.62,-856.26 860.62,-916.26"/>
<text text-anchor="middle" x="673.12" y="-893.06" font-family="Arial" font-size="24.00">ARBITRARY CODE EXECUTION</text>
<text text-anchor="middle" x="673.12" y="-867.06" font-family="Arial" font-size="24.00">unknown | ID: 47</text>
</a>
</g>
</g>
<!-- HOST DISCOVERY
unknown&#45;&gt;ARBITRARY CODE EXECUTION
unknown | ID: 47 -->
<g id="edge19" class="edge">
<title>HOST DISCOVERY
unknown&#45;&gt;ARBITRARY CODE EXECUTION
unknown | ID: 47</title>
<path fill="none" stroke="blue" stroke-width="5" d="M744.83,-754.69C742.86,-757.61 740.94,-760.54 739.12,-763.41 721.93,-790.65 704.67,-822.73 692.11,-847.14"/>
<polygon fill="blue" stroke="blue" stroke-width="5" points="688.19,-845.19 687.54,-856.09 695.98,-849.17 688.19,-845.19"/>
<text text-anchor="middle" x="870.62" y="-822.84" font-family="Arial" font-size="20.00" fill="blue">start_next: 04/11/17, 16:52:23</text>
<text text-anchor="middle" x="870.62" y="-800.84" font-family="Arial" font-size="20.00" fill="blue">gap: 1sec</text>
<text text-anchor="middle" x="870.62" y="-778.84" font-family="Arial" font-size="20.00" fill="blue">end_prev: 04/11/17, 16:52:22</text>
</g>
<!-- SURFING
unknown -->
<g id="node16" class="node">
<title>SURFING
unknown</title>
<g id="a_node16"><a xlink:title="ET WEB_SERVER WEB&#45;PHP phpinfo access">
<ellipse fill="none" stroke="black" stroke-width="3" cx="625.12" cy="-1040.69" rx="88.28" ry="42.35"/>
<text text-anchor="middle" x="625.12" y="-1047.49" font-family="Arial" font-size="24.00">SURFING</text>
<text text-anchor="middle" x="625.12" y="-1021.49" font-family="Arial" font-size="24.00">unknown</text>
</a>
</g>
</g>
<!-- ARBITRARY CODE EXECUTION
unknown | ID: 47&#45;&gt;SURFING
unknown -->
<g id="edge20" class="edge">
<title>ARBITRARY CODE EXECUTION
unknown | ID: 47&#45;&gt;SURFING
unknown</title>
<path fill="none" stroke="blue" stroke-width="5" d="M663.98,-916.29C657.53,-936.79 648.71,-964.8 641.1,-988.95"/>
<polygon fill="blue" stroke="blue" stroke-width="5" points="636.87,-987.83 638.04,-998.68 645.22,-990.45 636.87,-987.83"/>
<text text-anchor="middle" x="792.62" y="-974.26" font-family="Arial" font-size="20.00" fill="blue">start_next: 04/11/17, 16:52:24</text>
<text text-anchor="middle" x="792.62" y="-952.26" font-family="Arial" font-size="20.00" fill="blue">gap: 1sec</text>
<text text-anchor="middle" x="792.62" y="-930.26" font-family="Arial" font-size="20.00" fill="blue">end_prev: 04/11/17, 16:52:23</text>
</g>
<!-- INFO DISCOVERY
unknown -->
<g id="node17" class="node">
<title>INFO DISCOVERY
unknown</title>
<g id="a_node17"><a xlink:title="GPL WEB_SERVER globals.pl access">
<ellipse fill="none" stroke="black" stroke-width="3" cx="613.12" cy="-1207.54" rx="156.04" ry="42.35"/>
<text text-anchor="middle" x="613.12" y="-1214.34" font-family="Arial" font-size="24.00">INFO DISCOVERY</text>
<text text-anchor="middle" x="613.12" y="-1188.34" font-family="Arial" font-size="24.00">unknown</text>
</a>
</g>
</g>
<!-- SURFING
unknown&#45;&gt;INFO DISCOVERY
unknown -->
<g id="edge21" class="edge">
<title>SURFING
unknown&#45;&gt;INFO DISCOVERY
unknown</title>
<path fill="none" stroke="blue" stroke-width="5" d="M622.1,-1083.29C620.52,-1104.96 618.57,-1131.67 616.9,-1154.68"/>
<polygon fill="blue" stroke="blue" stroke-width="5" points="612.51,-1154.67 616.15,-1164.96 621.24,-1155.3 612.51,-1154.67"/>
<text text-anchor="middle" x="753.62" y="-1141.12" font-family="Arial" font-size="20.00" fill="blue">start_next: 04/11/17, 16:52:26</text>
<text text-anchor="middle" x="753.62" y="-1119.12" font-family="Arial" font-size="20.00" fill="blue">gap: &#45;5sec</text>
<text text-anchor="middle" x="753.62" y="-1097.12" font-family="Arial" font-size="20.00" fill="blue">end_prev: 04/11/17, 16:52:31</text>
</g>
<!-- DATA EXFILTRATION
unknown | ID: 57 -->
<g id="node18" class="node">
<title>DATA EXFILTRATION
unknown | ID: 57</title>
<g id="a_node18"><a xlink:title="ET WEB_SPECIFIC_APPS PHP&#45;CGI query string parameter vulnerability">
<polygon fill="none" stroke="black" stroke-width="3" points="815,-1380.96 712.56,-1429.94 507.68,-1429.94 405.24,-1380.96 507.68,-1331.98 712.56,-1331.98 815,-1380.96"/>
<text text-anchor="middle" x="610.12" y="-1387.76" font-family="Arial" font-size="24.00">DATA EXFILTRATION</text>
<text text-anchor="middle" x="610.12" y="-1361.76" font-family="Arial" font-size="24.00">unknown | ID: 57</text>
</a>
</g>
</g>
<!-- INFO DISCOVERY
unknown&#45;&gt;DATA EXFILTRATION
unknown | ID: 57 -->
<g id="edge22" class="edge">
<title>INFO DISCOVERY
unknown&#45;&gt;DATA EXFILTRATION
unknown | ID: 57</title>
<path fill="none" stroke="blue" stroke-width="5" d="M612.4,-1250.04C612.02,-1271.53 611.56,-1298.13 611.14,-1321.65"/>
<polygon fill="blue" stroke="blue" stroke-width="5" points="606.77,-1321.79 610.97,-1331.86 615.51,-1321.94 606.77,-1321.79"/>
<text text-anchor="middle" x="744.62" y="-1307.97" font-family="Arial" font-size="20.00" fill="blue">start_next: 04/11/17, 16:52:26</text>
<text text-anchor="middle" x="744.62" y="-1285.97" font-family="Arial" font-size="20.00" fill="blue">gap: 1sec</text>
<text text-anchor="middle" x="744.62" y="-1263.97" font-family="Arial" font-size="20.00" fill="blue">end_prev: 04/11/17, 16:52:26</text>
</g>
<!-- SERVICE DISCOVERY
microsoft&#45;ds -->
<g id="node19" class="node">
<title>SERVICE DISCOVERY
microsoft&#45;ds</title>
<g id="a_node19"><a xlink:title="ET SCAN Behavioral Unusual Port 445 traffic Potential Scan or Infection">
<ellipse fill="none" stroke="black" stroke-width="3" cx="608.12" cy="-1554.38" rx="189.51" ry="42.35"/>
<text text-anchor="middle" x="608.12" y="-1561.18" font-family="Arial" font-size="24.00">SERVICE DISCOVERY</text>
<text text-anchor="middle" x="608.12" y="-1535.18" font-family="Arial" font-size="24.00">microsoft&#45;ds</text>
</a>
</g>
</g>
<!-- DATA EXFILTRATION
unknown | ID: 57&#45;&gt;SERVICE DISCOVERY
microsoft&#45;ds -->
<g id="edge23" class="edge">
<title>DATA EXFILTRATION
unknown | ID: 57&#45;&gt;SERVICE DISCOVERY
microsoft&#45;ds</title>
<path fill="none" stroke="blue" stroke-width="5" d="M609.56,-1430.16C609.3,-1452.49 608.99,-1479.05 608.73,-1501.78"/>
<polygon fill="blue" stroke="blue" stroke-width="5" points="604.35,-1501.87 608.61,-1511.93 613.1,-1501.98 604.35,-1501.87"/>
<text text-anchor="middle" x="741.62" y="-1487.95" font-family="Arial" font-size="20.00" fill="blue">start_next: 04/11/17, 18:02:08</text>
<text text-anchor="middle" x="741.62" y="-1465.95" font-family="Arial" font-size="20.00" fill="blue">gap: 4178sec</text>
<text text-anchor="middle" x="741.62" y="-1443.95" font-family="Arial" font-size="20.00" fill="blue">end_prev: 04/11/17, 16:52:31</text>
</g>
<!-- SERVICE DISCOVERY
microsoft&#45;ds&#45;&gt;VULNERABILTY DISCOVERY
ncube&#45;lm -->
<g id="edge24" class="edge">
<title>SERVICE DISCOVERY
microsoft&#45;ds&#45;&gt;VULNERABILTY DISCOVERY
ncube&#45;lm</title>
<path fill="none" stroke="blue" stroke-width="5" d="M608.12,-1596.98C608.12,-1618.65 608.12,-1645.36 608.12,-1668.36"/>
<polygon fill="blue" stroke="blue" stroke-width="5" points="603.75,-1668.64 608.12,-1678.64 612.5,-1668.64 603.75,-1668.64"/>
<text text-anchor="middle" x="739.62" y="-1654.8" font-family="Arial" font-size="20.00" fill="blue">start_next: 04/11/17, 18:02:46</text>
<text text-anchor="middle" x="739.62" y="-1632.8" font-family="Arial" font-size="20.00" fill="blue">gap: 38sec</text>
<text text-anchor="middle" x="739.62" y="-1610.8" font-family="Arial" font-size="20.00" fill="blue">end_prev: 04/11/17, 18:02:08</text>
</g>
<!-- ARBITRARY CODE EXECUTION
epmap | ID: 356&#45;&gt;REMOTE SERVICE EXPLOIT
snmp | ID: 52 -->
<g id="edge26" class="edge">
<title>ARBITRARY CODE EXECUTION
epmap | ID: 356&#45;&gt;REMOTE SERVICE EXPLOIT
snmp | ID: 52</title>
<path fill="none" stroke="blue" stroke-width="5" d="M888.14,-2201.5C892.12,-2246.79 896.54,-2330.86 877.12,-2352.21 864.05,-2366.59 831.13,-2375.52 792.8,-2381.02"/>
<polygon fill="blue" stroke="blue" stroke-width="5" points="791.74,-2376.75 782.41,-2382.42 792.9,-2385.43 791.74,-2376.75"/>
<text text-anchor="middle" x="1023.62" y="-2262.21" font-family="Arial" font-size="20.00" fill="blue">start_next: 04/11/17, 18:05:23</text>
<text text-anchor="middle" x="1023.62" y="-2240.21" font-family="Arial" font-size="20.00" fill="blue">gap: 15sec</text>
<text text-anchor="middle" x="1023.62" y="-2218.21" font-family="Arial" font-size="20.00" fill="blue">end_prev: 04/11/17, 18:05:07</text>
</g>
<!-- ACCOUNT MANIPULATION
snmp | ID: 952 -->
<g id="node22" class="node">
<title>ACCOUNT MANIPULATION
snmp | ID: 952</title>
<g id="a_node22"><a xlink:title="GPL SNMP private access udp&#10;GPL SNMP public access udp">
<polygon fill="none" stroke="black" stroke-width="3" stroke-dasharray="1,5" points="1049.12,-2704.21 729.12,-2704.21 729.12,-2644.21 1049.12,-2644.21 1049.12,-2704.21"/>
<text text-anchor="middle" x="889.12" y="-2681.01" font-family="Arial" font-size="24.00">ACCOUNT MANIPULATION</text>
<text text-anchor="middle" x="889.12" y="-2655.01" font-family="Arial" font-size="24.00">snmp | ID: 952</text>
</a>
</g>
</g>
<!-- COMMAND AND CONTROL
unknown | ID: 1365&#45;&gt;ACCOUNT MANIPULATION
snmp | ID: 952 -->
<g id="edge28" class="edge">
<title>COMMAND AND CONTROL
unknown | ID: 1365&#45;&gt;ACCOUNT MANIPULATION
snmp | ID: 952</title>
<path fill="none" stroke="blue" stroke-width="5" d="M888.33,-2562.22C888.48,-2582.92 888.68,-2611 888.84,-2633.74"/>
<polygon fill="blue" stroke="blue" stroke-width="5" points="884.47,-2633.79 888.91,-2643.76 893.22,-2633.73 884.47,-2633.79"/>
<text text-anchor="middle" x="1020.62" y="-2620.21" font-family="Arial" font-size="20.00" fill="blue">start_next: 04/11/17, 18:05:52</text>
<text text-anchor="middle" x="1020.62" y="-2598.21" font-family="Arial" font-size="20.00" fill="blue">gap: &#45;87sec</text>
<text text-anchor="middle" x="1020.62" y="-2576.21" font-family="Arial" font-size="20.00" fill="blue">end_prev: 04/11/17, 18:07:19</text>
</g>
<!-- DATA DELIVERY
unknown | ID: 396 -->
<g id="node23" class="node">
<title>DATA DELIVERY
unknown | ID: 396</title>
<g id="a_node23"><a xlink:title="GPL WEB_SERVER perl post attempt">
<polygon fill="none" stroke="black" stroke-width="3" points="1062.19,-2835.2 976.15,-2884.18 804.09,-2884.18 718.06,-2835.2 804.09,-2786.22 976.15,-2786.22 1062.19,-2835.2"/>
<text text-anchor="middle" x="890.12" y="-2842" font-family="Arial" font-size="24.00">DATA DELIVERY</text>
<text text-anchor="middle" x="890.12" y="-2816" font-family="Arial" font-size="24.00">unknown | ID: 396</text>
</a>
</g>
</g>
<!-- ACCOUNT MANIPULATION
snmp | ID: 952&#45;&gt;DATA DELIVERY
unknown | ID: 396 -->
<g id="edge29" class="edge">
<title>ACCOUNT MANIPULATION
snmp | ID: 952&#45;&gt;DATA DELIVERY
unknown | ID: 396</title>
<path fill="none" stroke="blue" stroke-width="5" d="M889.31,-2704.37C889.43,-2724.38 889.6,-2751.6 889.76,-2775.96"/>
<polygon fill="blue" stroke="blue" stroke-width="5" points="885.38,-2776.22 889.82,-2786.19 894.13,-2776.16 885.38,-2776.22"/>
<text text-anchor="middle" x="1021.62" y="-2762.21" font-family="Arial" font-size="20.00" fill="blue">start_next: 04/11/17, 18:06:44</text>
<text text-anchor="middle" x="1021.62" y="-2740.21" font-family="Arial" font-size="20.00" fill="blue">gap: 50sec</text>
<text text-anchor="middle" x="1021.62" y="-2718.21" font-family="Arial" font-size="20.00" fill="blue">end_prev: 04/11/17, 18:05:54</text>
</g>
<!-- DATA DELIVERY
unknown | ID: 396&#45;&gt;DATA EXFILTRATION
wsman | ID: 63 -->
<g id="edge30" class="edge">
<title>DATA DELIVERY
unknown | ID: 396&#45;&gt;DATA EXFILTRATION
wsman | ID: 63</title>
<path fill="none" stroke="blue" stroke-width="5" d="M890.69,-2884.39C890.1,-2913.25 887.5,-2946.53 879.12,-2958.19 877.56,-2960.38 875.88,-2962.48 874.12,-2964.49"/>
<polygon fill="blue" stroke="blue" stroke-width="5" points="870.75,-2961.68 866.88,-2971.89 877,-2967.8 870.75,-2961.68"/>
<text text-anchor="middle" x="1022.62" y="-2942.19" font-family="Arial" font-size="20.00" fill="blue">start_next: 04/11/17, 18:06:55</text>
<text text-anchor="middle" x="1022.62" y="-2920.19" font-family="Arial" font-size="20.00" fill="blue">gap: 11sec</text>
<text text-anchor="middle" x="1022.62" y="-2898.19" font-family="Arial" font-size="20.00" fill="blue">end_prev: 04/11/17, 18:06:44</text>
</g>
<!-- ARBITRARY CODE EXECUTION
wsman | ID: 59 -->
<g id="node25" class="node">
<title>ARBITRARY CODE EXECUTION
wsman | ID: 59</title>
<g id="a_node25"><a xlink:title="ET CURRENT_EVENTS QNAP Shellshock CVE&#45;2014&#45;6271">
<polygon fill="none" stroke="black" stroke-width="3" points="1404.62,-421.71 1029.62,-421.71 1029.62,-361.71 1404.62,-361.71 1404.62,-421.71"/>
<text text-anchor="middle" x="1217.12" y="-398.51" font-family="Arial" font-size="24.00">ARBITRARY CODE EXECUTION</text>
<text text-anchor="middle" x="1217.12" y="-372.51" font-family="Arial" font-size="24.00">wsman | ID: 59</text>
</a>
</g>
</g>
<!-- VULNERABILTY DISCOVERY
wsman&#45;&gt;ARBITRARY CODE EXECUTION
wsman | ID: 59 -->
<g id="edge32" class="edge">
<title>VULNERABILTY DISCOVERY
wsman&#45;&gt;ARBITRARY CODE EXECUTION
wsman | ID: 59</title>
<path fill="none" stroke="purple" stroke-width="5" d="M1252.45,-265.69C1255.6,-289.36 1256.88,-319.51 1246.86,-351.84"/>
<polygon fill="purple" stroke="purple" stroke-width="5" points="1242.66,-350.59 1243.56,-361.47 1250.94,-353.43 1242.66,-350.59"/>
<text text-anchor="middle" x="1385.62" y="-330.71" font-family="Arial" font-size="20.00" fill="purple">start_next: 04/11/17, 14:07:06</text>
<text text-anchor="middle" x="1385.62" y="-308.71" font-family="Arial" font-size="20.00" fill="purple">gap: 1sec</text>
<text text-anchor="middle" x="1385.62" y="-286.71" font-family="Arial" font-size="20.00" fill="purple">end_prev: 04/11/17, 14:07:05</text>
</g>
<!-- ARBITRARY CODE EXECUTION
wsman | ID: 59&#45;&gt;SURFING
wsman -->
<g id="edge33" class="edge">
<title>ARBITRARY CODE EXECUTION
wsman | ID: 59&#45;&gt;SURFING
wsman</title>
<path fill="none" stroke="purple" stroke-width="5" d="M1173.13,-421.73C1137.03,-445.55 1085.57,-479.51 1045.76,-505.78"/>
<polygon fill="purple" stroke="purple" stroke-width="5" points="1043.14,-502.27 1037.2,-511.43 1047.96,-509.57 1043.14,-502.27"/>
<text text-anchor="middle" x="1286.62" y="-479.71" font-family="Arial" font-size="20.00" fill="purple">start_next: 04/11/17, 14:07:07</text>
<text text-anchor="middle" x="1286.62" y="-457.71" font-family="Arial" font-size="20.00" fill="purple">gap: 1sec</text>
<text text-anchor="middle" x="1286.62" y="-435.71" font-family="Arial" font-size="20.00" fill="purple">end_prev: 04/11/17, 14:07:06</text>
</g>
<!-- INFO DISCOVERY
wsman&#45;&gt;DATA EXFILTRATION
wsman | ID: 63 -->
<g id="edge35" class="edge">
<title>INFO DISCOVERY
wsman&#45;&gt;DATA EXFILTRATION
wsman | ID: 63</title>
<path fill="none" stroke="purple" stroke-width="5" d="M1162.12,-848.38C1162.12,-878.37 1162.12,-919.82 1162.12,-956.26 1162.12,-956.26 1162.12,-956.26 1162.12,-2836.2 1162.12,-2890.54 1191.12,-2918.4 1154.12,-2958.19 1126.29,-2988.13 1041.1,-3002.44 956.27,-3009.12"/>
<polygon fill="purple" stroke="purple" stroke-width="5" points="955.84,-3004.77 946.2,-3009.88 956.5,-3013.49 955.84,-3004.77"/>
<text text-anchor="middle" x="1293.62" y="-1919.08" font-family="Arial" font-size="20.00" fill="purple">start_next: 04/11/17, 14:07:20</text>
<text text-anchor="middle" x="1293.62" y="-1897.08" font-family="Arial" font-size="20.00" fill="purple">gap: 9sec</text>
<text text-anchor="middle" x="1293.62" y="-1875.08" font-family="Arial" font-size="20.00" fill="purple">end_prev: 04/11/17, 14:07:10</text>
</g>
</g>
</svg>
