<?xml version="1.0" encoding="UTF-8" standalone="no"?>
<!DOCTYPE svg PUBLIC "-//W3C//DTD SVG 1.1//EN"
 "http://www.w3.org/Graphics/SVG/1.1/DTD/svg11.dtd">
<!-- Generated by graphviz version 2.50.0 (0)
 -->
<!-- Title: DATAEXFILTRATIONunknown Pages: 1 -->
<svg width="481pt" height="419pt"
 viewBox="0.00 0.00 480.94 418.62" xmlns="http://www.w3.org/2000/svg" xmlns:xlink="http://www.w3.org/1999/xlink">
<g id="graph0" class="graph" transform="scale(1 1) rotate(0) translate(4 414.62)">
<title>DATAEXFILTRATIONunknown</title>
<polygon fill="white" stroke="transparent" points="-4,4 -4,-414.62 476.94,-414.62 476.94,4 -4,4"/>
<!-- Victim: 10.0.254.20
DATA EXFILTRATION
unknown -->
<g id="node1" class="node">
<title>Victim: 10.0.254.20
DATA EXFILTRATION
unknown</title>
<polygon fill="salmon" stroke="black" stroke-width="3" points="397.15,-313.61 397.15,-368 284.56,-406.45 125.32,-406.45 12.73,-368 12.73,-313.61 125.32,-275.15 284.56,-275.15 397.15,-313.61"/>
<polygon fill="none" stroke="black" stroke-width="3" points="401.15,-310.76 401.15,-370.85 285.22,-410.44 124.66,-410.44 8.73,-370.85 8.73,-310.76 124.66,-271.16 285.22,-271.16 401.15,-310.76"/>
<text text-anchor="middle" x="204.94" y="-360.6" font-family="Arial" font-size="24.00">Victim: 10.0.254.20</text>
<text text-anchor="middle" x="204.94" y="-334.6" font-family="Arial" font-size="24.00">DATA EXFILTRATION</text>
<text text-anchor="middle" x="204.94" y="-308.6" font-family="Arial" font-size="24.00">unknown</text>
</g>
<!-- DATA EXFILTRATION
unknown | ID: 389 -->
<g id="node2" class="node">
<title>DATA EXFILTRATION
unknown | ID: 389</title>
<g id="a_node2"><a xlink:title="ET ATTACK_RESPONSE Possible /etc/passwd via HTTP (linux style)">
<polygon fill="salmon" stroke="black" stroke-width="3" points="409.82,-204.99 307.38,-253.97 102.5,-253.97 0.06,-204.99 102.5,-156.01 307.38,-156.01 409.82,-204.99"/>
<text text-anchor="middle" x="204.94" y="-211.79" font-family="Arial" font-size="24.00">DATA EXFILTRATION</text>
<text text-anchor="middle" x="204.94" y="-185.79" font-family="Arial" font-size="24.00">unknown | ID: 389</text>
</a>
</g>
</g>
<!-- DATA EXFILTRATION
unknown | ID: 389&#45;&gt;Victim: 10.0.254.20
DATA EXFILTRATION
unknown -->
<g id="edge1" class="edge">
<title>DATA EXFILTRATION
unknown | ID: 389&#45;&gt;Victim: 10.0.254.20
DATA EXFILTRATION
unknown</title>
<path fill="none" stroke="black" stroke-width="5" d="M204.94,-254.3C204.94,-256.4 204.94,-258.54 204.94,-260.69"/>
<polygon fill="black" stroke="black" stroke-width="5" points="200.57,-260.84 204.94,-270.84 209.32,-260.84 200.57,-260.84"/>
</g>
<!-- USER PRIVILEGE ESCALATION
http | ID: 943 -->
<g id="node3" class="node">
<title>USER PRIVILEGE ESCALATION
http | ID: 943</title>
<g id="a_node3"><a xlink:title="ET POLICY Outgoing Basic Auth Base64 HTTP Password detected unencrypted&#10;ET POLICY Incoming Basic Auth Base64 HTTP Password detected unencrypted">
<polygon fill="yellow" stroke="black" stroke-width="3" stroke-dasharray="1,5" points="390.94,-60 18.94,-60 18.94,0 390.94,0 390.94,-60"/>
<text text-anchor="middle" x="204.94" y="-36.8" font-family="Arial" font-size="24.00">USER PRIVILEGE ESCALATION</text>
<text text-anchor="middle" x="204.94" y="-10.8" font-family="Arial" font-size="24.00">http | ID: 943</text>
</a>
</g>
</g>
<!-- USER PRIVILEGE ESCALATION
http | ID: 943&#45;&gt;DATA EXFILTRATION
unknown | ID: 389 -->
<g id="edge2" class="edge">
<title>USER PRIVILEGE ESCALATION
http | ID: 943&#45;&gt;DATA EXFILTRATION
unknown | ID: 389</title>
<path fill="none" stroke="magenta" stroke-width="5" d="M204.94,-60.35C204.94,-83.61 204.94,-116.86 204.94,-145.52"/>
<polygon fill="magenta" stroke="magenta" stroke-width="5" points="200.57,-145.84 204.94,-155.84 209.32,-145.84 200.57,-145.84"/>
<text text-anchor="start" x="204.94" y="-133" font-family="Arial" font-size="20.00" fill="magenta"> start_next: 04/11/17, 20:00:13</text>
<text text-anchor="start" x="284.44" y="-113" font-family="Arial" font-size="20.00" fill="magenta">gap: 662sec</text>
<text text-anchor="start" x="209.44" y="-93" font-family="Arial" font-size="20.00" fill="magenta">end_prev: 04/11/17, 19:49:11</text>
<text text-anchor="start" x="239.44" y="-73" font-family="Arial" font-weight="bold" font-size="20.00" fill="magenta">Attacker: 10.0.254.30</text>
</g>
</g>
</svg>
