<?xml version="1.0" encoding="UTF-8" standalone="no"?>
<!DOCTYPE svg PUBLIC "-//W3C//DTD SVG 1.1//EN"
 "http://www.w3.org/Graphics/SVG/1.1/DTD/svg11.dtd">
<!-- Generated by graphviz version 2.50.0 (0)
 -->
<!-- Title: NETWORKDOSssdp Pages: 1 -->
<svg width="2035pt" height="1146pt"
 viewBox="0.00 0.00 2034.73 1146.18" xmlns="http://www.w3.org/2000/svg" xmlns:xlink="http://www.w3.org/1999/xlink">
<g id="graph0" class="graph" transform="scale(1 1) rotate(0) translate(4 1142.18)">
<title>NETWORKDOSssdp</title>
<polygon fill="white" stroke="transparent" points="-4,4 -4,-1142.18 2030.73,-1142.18 2030.73,4 -4,4"/>
<!-- Victim: 10.0.0.190
NETWORK DoS
ssdp -->
<g id="node1" class="node">
<title>Victim: 10.0.0.190
NETWORK DoS
ssdp</title>
<polygon fill="salmon" stroke="black" stroke-width="3" points="325.68,-1041.16 325.68,-1095.55 231.39,-1134.01 98.06,-1134.01 3.78,-1095.55 3.78,-1041.16 98.06,-1002.71 231.39,-1002.71 325.68,-1041.16"/>
<polygon fill="none" stroke="black" stroke-width="3" points="329.68,-1038.49 329.68,-1098.23 232.18,-1138 97.27,-1138 -0.23,-1098.23 -0.23,-1038.49 97.27,-998.72 232.18,-998.72 329.68,-1038.49"/>
<text text-anchor="middle" x="164.73" y="-1088.16" font-family="Arial" font-size="24.00">Victim: 10.0.0.190</text>
<text text-anchor="middle" x="164.73" y="-1062.16" font-family="Arial" font-size="24.00">NETWORK DoS</text>
<text text-anchor="middle" x="164.73" y="-1036.16" font-family="Arial" font-size="24.00">ssdp</text>
</g>
<!-- NETWORK DoS
ssdp | ID: 55 -->
<g id="node2" class="node">
<title>NETWORK DoS
ssdp | ID: 55</title>
<g id="a_node2"><a xlink:title="ET DOS Possible SSDP Amplification Scan in Progress">
<polygon fill="salmon" stroke="black" stroke-width="3" points="321.26,-215.84 242.99,-264.82 86.46,-264.82 8.19,-215.84 86.46,-166.86 242.99,-166.86 321.26,-215.84"/>
<text text-anchor="middle" x="164.73" y="-222.64" font-family="Arial" font-size="24.00">NETWORK DoS</text>
<text text-anchor="middle" x="164.73" y="-196.64" font-family="Arial" font-size="24.00">ssdp | ID: 55</text>
</a>
</g>
</g>
<!-- NETWORK DoS
ssdp | ID: 55&#45;&gt;Victim: 10.0.0.190
NETWORK DoS
ssdp -->
<g id="edge1" class="edge">
<title>NETWORK DoS
ssdp | ID: 55&#45;&gt;Victim: 10.0.0.190
NETWORK DoS
ssdp</title>
<path fill="none" stroke="black" stroke-width="5" d="M164.73,-264.86C164.73,-302.3 164.73,-355.58 164.73,-402.26 164.73,-402.26 164.73,-402.26 164.73,-861.11 164.73,-903.18 164.73,-950.09 164.73,-988.52"/>
<polygon fill="black" stroke="black" stroke-width="5" points="160.35,-988.61 164.73,-998.61 169.1,-988.61 160.35,-988.61"/>
</g>
<!-- HOST DISCOVERY
ms&#45;wbt&#45;server -->
<g id="node3" class="node">
<title>HOST DISCOVERY
ms&#45;wbt&#45;server</title>
<g id="a_node3"><a xlink:title="ET SCAN Behavioral Unusually fast Terminal Server Traffic Potential Scan or Infection (Inbound)">
<ellipse fill="yellow" stroke="black" stroke-width="3" cx="1224.73" cy="-1068.36" rx="162.77" ry="42.35"/>
<text text-anchor="middle" x="1224.73" y="-1075.16" font-family="Arial" font-size="24.00">HOST DISCOVERY</text>
<text text-anchor="middle" x="1224.73" y="-1049.16" font-family="Arial" font-size="24.00">ms&#45;wbt&#45;server</text>
</a>
</g>
</g>
<!-- VULNERABILTY DISCOVERY
ms&#45;sql&#45;s -->
<g id="node4" class="node">
<title>VULNERABILTY DISCOVERY
ms&#45;sql&#45;s</title>
<g id="a_node4"><a xlink:title="ET POLICY Suspicious inbound to mySQL port 3306&#10;ET POLICY Suspicious inbound to mSQL port 4333&#10;ET POLICY Suspicious inbound to MSSQL port 1433&#10;ET POLICY Suspicious inbound to Oracle SQL port 1521&#10;ET POLICY Suspicious inbound to PostgreSQL port 5432">
<ellipse fill="none" stroke="black" stroke-width="3" cx="944.73" cy="-860.11" rx="241.25" ry="42.35"/>
<text text-anchor="middle" x="944.73" y="-866.91" font-family="Arial" font-size="24.00">VULNERABILTY DISCOVERY</text>
<text text-anchor="middle" x="944.73" y="-840.91" font-family="Arial" font-size="24.00">ms&#45;sql&#45;s</text>
</a>
</g>
</g>
<!-- HOST DISCOVERY
ms&#45;wbt&#45;server&#45;&gt;VULNERABILTY DISCOVERY
ms&#45;sql&#45;s -->
<g id="edge2" class="edge">
<title>HOST DISCOVERY
ms&#45;wbt&#45;server&#45;&gt;VULNERABILTY DISCOVERY
ms&#45;sql&#45;s</title>
<path fill="none" stroke="blue" stroke-width="5" d="M1088.64,-1045.07C1028.43,-1032.21 967.07,-1013.92 948.73,-990.54 931.82,-968.99 930.1,-938.64 932.94,-912.74"/>
<polygon fill="blue" stroke="blue" stroke-width="5" points="937.3,-913.19 934.29,-902.7 928.62,-912.03 937.3,-913.19"/>
<text text-anchor="start" x="948.73" y="-975.54" font-family="Arial" font-size="20.00" fill="blue"> start_next: 04/11/17, 12:55:47</text>
<text text-anchor="start" x="1028.23" y="-955.54" font-family="Arial" font-size="20.00" fill="blue">gap: 156sec</text>
<text text-anchor="start" x="952.73" y="-935.54" font-family="Arial" font-size="20.00" fill="blue">end_prev: 04/11/17, 12:53:12</text>
<text text-anchor="start" x="983.23" y="-915.54" font-family="Arial" font-weight="bold" font-size="20.00" fill="blue">Attacker: 10.0.254.31</text>
</g>
<!-- SERVICE DISCOVERY
unknown -->
<g id="node6" class="node">
<title>SERVICE DISCOVERY
unknown</title>
<g id="a_node6"><a xlink:title="ET SCAN Potential VNC Scan 5800&#45;5820&#10;ET SCAN Potential VNC Scan 5900&#45;5920&#10;ET SCAN Behavioral Unusual Port 139 traffic Potential Scan or Infection">
<ellipse fill="none" stroke="black" stroke-width="3" cx="626.73" cy="-42.43" rx="189.51" ry="42.35"/>
<text text-anchor="middle" x="626.73" y="-49.23" font-family="Arial" font-size="24.00">SERVICE DISCOVERY</text>
<text text-anchor="middle" x="626.73" y="-23.23" font-family="Arial" font-size="24.00">unknown</text>
</a>
</g>
</g>
<!-- HOST DISCOVERY
ms&#45;wbt&#45;server&#45;&gt;SERVICE DISCOVERY
unknown -->
<g id="edge11" class="edge">
<title>HOST DISCOVERY
ms&#45;wbt&#45;server&#45;&gt;SERVICE DISCOVERY
unknown</title>
<path fill="none" stroke="blue" stroke-width="5" d="M1357.62,-1043.78C1517.22,-1011.59 1763.73,-947.84 1763.73,-861.11 1763.73,-214.84 1763.73,-214.84 1763.73,-214.84 1763.73,-120.65 1145.75,-72.18 820.98,-53.2"/>
<polygon fill="blue" stroke="blue" stroke-width="5" points="821.22,-48.83 810.99,-52.62 820.72,-57.57 821.22,-48.83"/>
<text text-anchor="middle" x="1895.23" y="-577.69" font-family="Arial" font-size="20.00" fill="blue">start_next: 04/11/17, 16:33:42</text>
<text text-anchor="middle" x="1895.23" y="-555.69" font-family="Arial" font-size="20.00" fill="blue">gap: 31sec</text>
<text text-anchor="middle" x="1895.23" y="-533.69" font-family="Arial" font-size="20.00" fill="blue">end_prev: 04/11/17, 16:33:11</text>
</g>
<!-- VULNERABILTY DISCOVERY
ms&#45;sql&#45;s&#45;&gt;HOST DISCOVERY
ms&#45;wbt&#45;server -->
<g id="edge10" class="edge">
<title>VULNERABILTY DISCOVERY
ms&#45;sql&#45;s&#45;&gt;HOST DISCOVERY
ms&#45;wbt&#45;server</title>
<path fill="none" stroke="blue" stroke-width="5" d="M1149.79,-882.53C1179.12,-889.44 1203.01,-898.55 1213.73,-910.54 1238.7,-938.47 1240.05,-981.55 1235.94,-1015.49"/>
<polygon fill="blue" stroke="blue" stroke-width="5" points="1231.56,-1015.2 1234.5,-1025.71 1240.22,-1016.41 1231.56,-1015.2"/>
<text text-anchor="middle" x="1367.73" y="-967.54" font-family="Arial" font-size="20.00" fill="blue">start_next: 04/11/17, 16:33:11</text>
<text text-anchor="middle" x="1367.73" y="-945.54" font-family="Arial" font-size="20.00" fill="blue">gap: &#45;135sec</text>
<text text-anchor="middle" x="1367.73" y="-923.54" font-family="Arial" font-size="20.00" fill="blue">end_prev: 04/11/17, 16:35:26</text>
</g>
<!-- SERVICE DISCOVERY
cm -->
<g id="node5" class="node">
<title>SERVICE DISCOVERY
cm</title>
<g id="a_node5"><a xlink:title="ET SCAN Potential VNC Scan 5900&#45;5920">
<ellipse fill="none" stroke="black" stroke-width="3" cx="634.73" cy="-1068.36" rx="189.51" ry="42.35"/>
<text text-anchor="middle" x="634.73" y="-1075.16" font-family="Arial" font-size="24.00">SERVICE DISCOVERY</text>
<text text-anchor="middle" x="634.73" y="-1049.16" font-family="Arial" font-size="24.00">cm</text>
</a>
</g>
</g>
<!-- VULNERABILTY DISCOVERY
ms&#45;sql&#45;s&#45;&gt;SERVICE DISCOVERY
cm -->
<g id="edge3" class="edge">
<title>VULNERABILTY DISCOVERY
ms&#45;sql&#45;s&#45;&gt;SERVICE DISCOVERY
cm</title>
<path fill="none" stroke="blue" stroke-width="5" d="M738.99,-882.4C706.84,-889.35 680.13,-898.51 667.73,-910.54 640.12,-937.3 632.7,-980.88 631.72,-1015.31"/>
<polygon fill="blue" stroke="blue" stroke-width="5" points="627.35,-1015.62 631.61,-1025.67 636.09,-1015.72 627.35,-1015.62"/>
<text text-anchor="middle" x="799.23" y="-967.54" font-family="Arial" font-size="20.00" fill="blue">start_next: 04/11/17, 12:58:00</text>
<text text-anchor="middle" x="799.23" y="-945.54" font-family="Arial" font-size="20.00" fill="blue">gap: 7sec</text>
<text text-anchor="middle" x="799.23" y="-923.54" font-family="Arial" font-size="20.00" fill="blue">end_prev: 04/11/17, 12:57:53</text>
</g>
<!-- SERVICE DISCOVERY
cm&#45;&gt;SERVICE DISCOVERY
unknown -->
<g id="edge4" class="edge">
<title>SERVICE DISCOVERY
cm&#45;&gt;SERVICE DISCOVERY
unknown</title>
<path fill="none" stroke="blue" stroke-width="5" d="M629.58,-1025.56C624.9,-983.95 618.73,-918.22 618.73,-861.11 618.73,-214.84 618.73,-214.84 618.73,-214.84 618.73,-174.61 620.95,-129.13 623.06,-95.13"/>
<polygon fill="blue" stroke="blue" stroke-width="5" points="627.43,-95.22 623.7,-84.97 618.7,-94.67 627.43,-95.22"/>
<text text-anchor="middle" x="750.23" y="-577.69" font-family="Arial" font-size="20.00" fill="blue">start_next: 04/11/17, 14:02:30</text>
<text text-anchor="middle" x="750.23" y="-555.69" font-family="Arial" font-size="20.00" fill="blue">gap: 3806sec</text>
<text text-anchor="middle" x="750.23" y="-533.69" font-family="Arial" font-size="20.00" fill="blue">end_prev: 04/11/17, 12:59:04</text>
</g>
<!-- SERVICE DISCOVERY
unknown&#45;&gt;NETWORK DoS
ssdp | ID: 55 -->
<g id="edge12" class="edge">
<title>SERVICE DISCOVERY
unknown&#45;&gt;NETWORK DoS
ssdp | ID: 55</title>
<path fill="none" stroke="blue" stroke-width="5" d="M438.52,-47.99C288.74,-53.62 100.27,-66.01 75.73,-92.85 55.93,-114.5 61.54,-133.18 75.73,-158.85 76.03,-159.4 76.34,-159.95 76.66,-160.49"/>
<polygon fill="blue" stroke="blue" stroke-width="5" points="73.16,-163.11 82.45,-168.83 80.35,-158.12 73.16,-163.11"/>
<text text-anchor="middle" x="207.23" y="-142.85" font-family="Arial" font-size="20.00" fill="blue">start_next: 04/11/17, 16:35:58</text>
<text text-anchor="middle" x="207.23" y="-120.85" font-family="Arial" font-size="20.00" fill="blue">gap: 71sec</text>
<text text-anchor="middle" x="207.23" y="-98.85" font-family="Arial" font-size="20.00" fill="blue">end_prev: 04/11/17, 16:34:46</text>
</g>
<!-- SERVICE DISCOVERY
unknown&#45;&gt;NETWORK DoS
ssdp | ID: 55 -->
<g id="edge18" class="edge">
<title>SERVICE DISCOVERY
unknown&#45;&gt;NETWORK DoS
ssdp | ID: 55</title>
<path fill="none" stroke="blue" stroke-width="5" d="M452.35,-59.19C407.34,-66.6 366.97,-77.35 350.73,-92.85 328.97,-113.63 355.99,-136.62 335.73,-158.85 324.21,-171.5 309.79,-181.29 294.25,-188.88"/>
<polygon fill="blue" stroke="blue" stroke-width="5" points="292.27,-184.97 284.98,-193.1 295.89,-192.94 292.27,-184.97"/>
<text text-anchor="middle" x="482.23" y="-142.85" font-family="Arial" font-size="20.00" fill="blue">start_next: 04/11/17, 20:58:03</text>
<text text-anchor="middle" x="482.23" y="-120.85" font-family="Arial" font-size="20.00" fill="blue">gap: 66sec</text>
<text text-anchor="middle" x="482.23" y="-98.85" font-family="Arial" font-size="20.00" fill="blue">end_prev: 04/11/17, 20:56:56</text>
</g>
<!-- BRUTE FORCE CREDENTIALS
pop3s | ID: 34 -->
<g id="node7" class="node">
<title>BRUTE FORCE CREDENTIALS
pop3s | ID: 34</title>
<g id="a_node7"><a xlink:title="ET SCAN Rapid POP3S Connections &#45; Possible Brute Force Attack">
<polygon fill="none" stroke="black" stroke-width="3" points="991.73,-245.84 629.73,-245.84 629.73,-185.84 991.73,-185.84 991.73,-245.84"/>
<text text-anchor="middle" x="810.73" y="-222.64" font-family="Arial" font-size="24.00">BRUTE FORCE CREDENTIALS</text>
<text text-anchor="middle" x="810.73" y="-196.64" font-family="Arial" font-size="24.00">pop3s | ID: 34</text>
</a>
</g>
</g>
<!-- SERVICE DISCOVERY
unknown&#45;&gt;BRUTE FORCE CREDENTIALS
pop3s | ID: 34 -->
<g id="edge5" class="edge">
<title>SERVICE DISCOVERY
unknown&#45;&gt;BRUTE FORCE CREDENTIALS
pop3s | ID: 34</title>
<path fill="none" stroke="blue" stroke-width="5" d="M670.33,-84.05C701.16,-112.77 742.12,-150.93 771.84,-178.61"/>
<polygon fill="blue" stroke="blue" stroke-width="5" points="769.22,-182.15 779.52,-185.77 775.19,-175.75 769.22,-182.15"/>
<text text-anchor="middle" x="877.23" y="-142.85" font-family="Arial" font-size="20.00" fill="blue">start_next: 04/11/17, 14:02:37</text>
<text text-anchor="middle" x="877.23" y="-120.85" font-family="Arial" font-size="20.00" fill="blue">gap: &#45;28sec</text>
<text text-anchor="middle" x="877.23" y="-98.85" font-family="Arial" font-size="20.00" fill="blue">end_prev: 04/11/17, 14:03:05</text>
</g>
<!-- INFO DISCOVERY
xdmcp -->
<g id="node8" class="node">
<title>INFO DISCOVERY
xdmcp</title>
<g id="a_node8"><a xlink:title="GPL RPC xdmcp info query">
<ellipse fill="none" stroke="black" stroke-width="3" cx="828.73" cy="-403.26" rx="156.04" ry="42.35"/>
<text text-anchor="middle" x="828.73" y="-410.06" font-family="Arial" font-size="24.00">INFO DISCOVERY</text>
<text text-anchor="middle" x="828.73" y="-384.06" font-family="Arial" font-size="24.00">xdmcp</text>
</a>
</g>
</g>
<!-- BRUTE FORCE CREDENTIALS
pop3s | ID: 34&#45;&gt;INFO DISCOVERY
xdmcp -->
<g id="edge6" class="edge">
<title>BRUTE FORCE CREDENTIALS
pop3s | ID: 34&#45;&gt;INFO DISCOVERY
xdmcp</title>
<path fill="none" stroke="blue" stroke-width="5" d="M813.58,-246.22C816.29,-274.17 820.43,-316.82 823.7,-350.48"/>
<polygon fill="blue" stroke="blue" stroke-width="5" points="819.36,-351.08 824.68,-360.61 828.07,-350.23 819.36,-351.08"/>
<text text-anchor="middle" x="955.23" y="-329.83" font-family="Arial" font-size="20.00" fill="blue">start_next: 04/11/17, 14:04:32</text>
<text text-anchor="middle" x="955.23" y="-307.83" font-family="Arial" font-size="20.00" fill="blue">gap: 114sec</text>
<text text-anchor="middle" x="955.23" y="-285.83" font-family="Arial" font-size="20.00" fill="blue">end_prev: 04/11/17, 14:02:37</text>
</g>
<!-- ACCOUNT MANIPULATION
snmp | ID: 367 -->
<g id="node9" class="node">
<title>ACCOUNT MANIPULATION
snmp | ID: 367</title>
<g id="a_node9"><a xlink:title="GPL SNMP private access udp&#10;GPL SNMP public access udp">
<polygon fill="none" stroke="black" stroke-width="3" points="1251.73,-590.69 931.73,-590.69 931.73,-530.69 1251.73,-530.69 1251.73,-590.69"/>
<text text-anchor="middle" x="1091.73" y="-567.49" font-family="Arial" font-size="24.00">ACCOUNT MANIPULATION</text>
<text text-anchor="middle" x="1091.73" y="-541.49" font-family="Arial" font-size="24.00">snmp | ID: 367</text>
</a>
</g>
</g>
<!-- INFO DISCOVERY
xdmcp&#45;&gt;ACCOUNT MANIPULATION
snmp | ID: 367 -->
<g id="edge7" class="edge">
<title>INFO DISCOVERY
xdmcp&#45;&gt;ACCOUNT MANIPULATION
snmp | ID: 367</title>
<path fill="none" stroke="blue" stroke-width="5" d="M829.98,-445.76C833.01,-470.72 841.11,-501.15 861.73,-519.69 864.81,-522.46 889.4,-527.54 921.44,-533.17"/>
<polygon fill="blue" stroke="blue" stroke-width="5" points="921,-537.54 931.6,-534.94 922.5,-528.92 921,-537.54"/>
<text text-anchor="middle" x="993.23" y="-503.69" font-family="Arial" font-size="20.00" fill="blue">start_next: 04/11/17, 14:05:28</text>
<text text-anchor="middle" x="993.23" y="-481.69" font-family="Arial" font-size="20.00" fill="blue">gap: 52sec</text>
<text text-anchor="middle" x="993.23" y="-459.69" font-family="Arial" font-size="20.00" fill="blue">end_prev: 04/11/17, 14:04:36</text>
</g>
<!-- ACCOUNT MANIPULATION
snmp | ID: 53 -->
<g id="node10" class="node">
<title>ACCOUNT MANIPULATION
snmp | ID: 53</title>
<g id="a_node10"><a xlink:title="GPL SNMP public access udp">
<polygon fill="none" stroke="black" stroke-width="3" points="1294.73,-735.69 974.73,-735.69 974.73,-675.69 1294.73,-675.69 1294.73,-735.69"/>
<text text-anchor="middle" x="1134.73" y="-712.49" font-family="Arial" font-size="24.00">ACCOUNT MANIPULATION</text>
<text text-anchor="middle" x="1134.73" y="-686.49" font-family="Arial" font-size="24.00">snmp | ID: 53</text>
</a>
</g>
</g>
<!-- ACCOUNT MANIPULATION
snmp | ID: 367&#45;&gt;ACCOUNT MANIPULATION
snmp | ID: 53 -->
<g id="edge8" class="edge">
<title>ACCOUNT MANIPULATION
snmp | ID: 367&#45;&gt;ACCOUNT MANIPULATION
snmp | ID: 53</title>
<path fill="none" stroke="blue" stroke-width="5" d="M931.51,-586.07C895.36,-592.32 866.62,-598.24 863.73,-601.69 844.86,-624.15 844.44,-645.58 863.73,-667.69 878.45,-684.56 919.12,-694.02 964.61,-699.24"/>
<polygon fill="blue" stroke="blue" stroke-width="5" points="964.29,-703.61 974.7,-700.32 965.22,-694.91 964.29,-703.61"/>
<text text-anchor="middle" x="995.23" y="-651.69" font-family="Arial" font-size="20.00" fill="blue">start_next: 04/11/17, 16:29:39</text>
<text text-anchor="middle" x="995.23" y="-629.69" font-family="Arial" font-size="20.00" fill="blue">gap: 8639sec</text>
<text text-anchor="middle" x="995.23" y="-607.69" font-family="Arial" font-size="20.00" fill="blue">end_prev: 04/11/17, 14:05:40</text>
</g>
<!-- ACCOUNT MANIPULATION
snmp | ID: 367&#45;&gt;ACCOUNT MANIPULATION
snmp | ID: 53 -->
<g id="edge15" class="edge">
<title>ACCOUNT MANIPULATION
snmp | ID: 367&#45;&gt;ACCOUNT MANIPULATION
snmp | ID: 53</title>
<path fill="none" stroke="blue" stroke-width="5" d="M1118.15,-591.1C1120.31,-594.51 1122.24,-598.07 1123.73,-601.69 1131.97,-621.7 1134.89,-645.67 1135.68,-665.44"/>
<polygon fill="blue" stroke="blue" stroke-width="5" points="1131.31,-665.75 1135.91,-675.65 1140.05,-665.55 1131.31,-665.75"/>
<text text-anchor="middle" x="1266.23" y="-651.69" font-family="Arial" font-size="20.00" fill="blue">start_next: 04/11/17, 20:55:39</text>
<text text-anchor="middle" x="1266.23" y="-629.69" font-family="Arial" font-size="20.00" fill="blue">gap: 10158sec</text>
<text text-anchor="middle" x="1266.23" y="-607.69" font-family="Arial" font-size="20.00" fill="blue">end_prev: 04/11/17, 18:06:21</text>
</g>
<!-- ACCOUNT MANIPULATION
snmp | ID: 53&#45;&gt;VULNERABILTY DISCOVERY
ms&#45;sql&#45;s -->
<g id="edge9" class="edge">
<title>ACCOUNT MANIPULATION
snmp | ID: 53&#45;&gt;VULNERABILTY DISCOVERY
ms&#45;sql&#45;s</title>
<path fill="none" stroke="blue" stroke-width="5" d="M974.49,-728.88C962.78,-733.02 953.63,-737.92 948.73,-743.69 934.1,-760.9 931.57,-785.31 933.32,-807.26"/>
<polygon fill="blue" stroke="blue" stroke-width="5" points="929,-808 934.45,-817.46 937.7,-807.04 929,-808"/>
<text text-anchor="middle" x="1080.23" y="-793.69" font-family="Arial" font-size="20.00" fill="blue">start_next: 04/11/17, 16:31:57</text>
<text text-anchor="middle" x="1080.23" y="-771.69" font-family="Arial" font-size="20.00" fill="blue">gap: 136sec</text>
<text text-anchor="middle" x="1080.23" y="-749.69" font-family="Arial" font-size="20.00" fill="blue">end_prev: 04/11/17, 16:29:41</text>
</g>
<!-- VULNERABILTY DISCOVERY
mysql -->
<g id="node13" class="node">
<title>VULNERABILTY DISCOVERY
mysql</title>
<g id="a_node13"><a xlink:title="ET POLICY Suspicious inbound to mySQL port 3306&#10;ET POLICY Suspicious inbound to mSQL port 4333&#10;ET POLICY Suspicious inbound to MSSQL port 1433&#10;ET POLICY Suspicious inbound to Oracle SQL port 1521&#10;ET POLICY Suspicious inbound to PostgreSQL port 5432">
<ellipse fill="none" stroke="black" stroke-width="3" cx="1462.73" cy="-860.11" rx="241.25" ry="42.35"/>
<text text-anchor="middle" x="1462.73" y="-866.91" font-family="Arial" font-size="24.00">VULNERABILTY DISCOVERY</text>
<text text-anchor="middle" x="1462.73" y="-840.91" font-family="Arial" font-size="24.00">mysql</text>
</a>
</g>
</g>
<!-- ACCOUNT MANIPULATION
snmp | ID: 53&#45;&gt;VULNERABILTY DISCOVERY
mysql -->
<g id="edge16" class="edge">
<title>ACCOUNT MANIPULATION
snmp | ID: 53&#45;&gt;VULNERABILTY DISCOVERY
mysql</title>
<path fill="none" stroke="blue" stroke-width="5" d="M1201.33,-735.79C1204.02,-738.23 1206.51,-740.86 1208.73,-743.69 1227.3,-767.35 1202.25,-788.62 1223.73,-809.69 1231.92,-817.72 1247.33,-824.56 1266.55,-830.36"/>
<polygon fill="blue" stroke="blue" stroke-width="5" points="1265.46,-834.6 1276.27,-833.13 1267.85,-826.18 1265.46,-834.6"/>
<text text-anchor="middle" x="1355.23" y="-793.69" font-family="Arial" font-size="20.00" fill="blue">start_next: 04/11/17, 20:56:55</text>
<text text-anchor="middle" x="1355.23" y="-771.69" font-family="Arial" font-size="20.00" fill="blue">gap: &#45;211sec</text>
<text text-anchor="middle" x="1355.23" y="-749.69" font-family="Arial" font-size="20.00" fill="blue">end_prev: 04/11/17, 21:00:26</text>
</g>
<!-- VULNERABILTY DISCOVERY
ahsp -->
<g id="node11" class="node">
<title>VULNERABILTY DISCOVERY
ahsp</title>
<g id="a_node11"><a xlink:title="ET POLICY Suspicious inbound to PostgreSQL port 5432&#10;ET POLICY Suspicious inbound to MSSQL port 1433&#10;ET POLICY Suspicious inbound to mySQL port 3306&#10;ET POLICY Suspicious inbound to mSQL port 4333">
<ellipse fill="yellow" stroke="black" stroke-width="3" cx="1239.73" cy="-215.84" rx="241.25" ry="42.35"/>
<text text-anchor="middle" x="1239.73" y="-222.64" font-family="Arial" font-size="24.00">VULNERABILTY DISCOVERY</text>
<text text-anchor="middle" x="1239.73" y="-196.64" font-family="Arial" font-size="24.00">ahsp</text>
</a>
</g>
</g>
<!-- REMOTE SERVICE EXPLOIT
snmp | ID: 906 -->
<g id="node12" class="node">
<title>REMOTE SERVICE EXPLOIT
snmp | ID: 906</title>
<g id="a_node12"><a xlink:title="ET SNMP Samsung Printer SNMP Hardcode RW Community String">
<polygon fill="none" stroke="black" stroke-width="3" points="1347.73,-433.26 1009.73,-433.26 1009.73,-373.26 1347.73,-373.26 1347.73,-433.26"/>
<text text-anchor="middle" x="1178.73" y="-410.06" font-family="Arial" font-size="24.00">REMOTE SERVICE EXPLOIT</text>
<text text-anchor="middle" x="1178.73" y="-384.06" font-family="Arial" font-size="24.00">snmp | ID: 906</text>
</a>
</g>
</g>
<!-- VULNERABILTY DISCOVERY
ahsp&#45;&gt;REMOTE SERVICE EXPLOIT
snmp | ID: 906 -->
<g id="edge13" class="edge">
<title>VULNERABILTY DISCOVERY
ahsp&#45;&gt;REMOTE SERVICE EXPLOIT
snmp | ID: 906</title>
<path fill="none" stroke="blue" stroke-width="5" d="M1223.86,-258.33C1222.08,-263.2 1220.34,-268.12 1218.73,-272.83 1208.42,-302.99 1197.82,-337.49 1190.12,-363.28"/>
<polygon fill="blue" stroke="blue" stroke-width="5" points="1185.87,-362.23 1187.22,-373.06 1194.26,-364.72 1185.87,-362.23"/>
<text text-anchor="start" x="1218.73" y="-337.83" font-family="Arial" font-size="20.00" fill="blue"> start_next: 04/11/17, 18:05:12</text>
<text text-anchor="start" x="1303.73" y="-317.83" font-family="Arial" font-size="20.00" fill="blue">gap: 94sec</text>
<text text-anchor="start" x="1222.73" y="-297.83" font-family="Arial" font-size="20.00" fill="blue">end_prev: 04/11/17, 18:03:38</text>
<text text-anchor="start" x="1253.23" y="-277.83" font-family="Arial" font-weight="bold" font-size="20.00" fill="blue">Attacker: 10.0.254.31</text>
</g>
<!-- REMOTE SERVICE EXPLOIT
snmp | ID: 906&#45;&gt;ACCOUNT MANIPULATION
snmp | ID: 367 -->
<g id="edge14" class="edge">
<title>REMOTE SERVICE EXPLOIT
snmp | ID: 906&#45;&gt;ACCOUNT MANIPULATION
snmp | ID: 367</title>
<path fill="none" stroke="blue" stroke-width="5" d="M1167.95,-433.38C1158.44,-457.42 1143.39,-491.98 1125.73,-519.69 1125.14,-520.61 1124.53,-521.53 1123.91,-522.45"/>
<polygon fill="blue" stroke="blue" stroke-width="5" points="1120.27,-520.02 1117.93,-530.68 1127.35,-525.16 1120.27,-520.02"/>
<text text-anchor="middle" x="1290.23" y="-503.69" font-family="Arial" font-size="20.00" fill="blue">start_next: 04/11/17, 18:06:09</text>
<text text-anchor="middle" x="1290.23" y="-481.69" font-family="Arial" font-size="20.00" fill="blue">gap: 57sec</text>
<text text-anchor="middle" x="1290.23" y="-459.69" font-family="Arial" font-size="20.00" fill="blue">end_prev: 04/11/17, 18:05:12</text>
</g>
<!-- VULNERABILTY DISCOVERY
mysql&#45;&gt;SERVICE DISCOVERY
unknown -->
<g id="edge17" class="edge">
<title>VULNERABILTY DISCOVERY
mysql&#45;&gt;SERVICE DISCOVERY
unknown</title>
<path fill="none" stroke="blue" stroke-width="5" d="M1481.47,-817.64C1482.32,-814.98 1483.09,-812.31 1483.73,-809.69 1494.63,-765.08 1491.73,-752.6 1491.73,-706.69 1491.73,-214.84 1491.73,-214.84 1491.73,-214.84 1491.73,6.13 1228.49,-124.04 1009.73,-92.85 941.54,-83.13 866.41,-73.25 800.88,-64.91"/>
<polygon fill="blue" stroke="blue" stroke-width="5" points="801.34,-60.56 790.87,-63.64 800.24,-69.24 801.34,-60.56"/>
<text text-anchor="middle" x="1623.23" y="-503.69" font-family="Arial" font-size="20.00" fill="blue">start_next: 04/11/17, 20:56:56</text>
<text text-anchor="middle" x="1623.23" y="-481.69" font-family="Arial" font-size="20.00" fill="blue">gap: &#45;288sec</text>
<text text-anchor="middle" x="1623.23" y="-459.69" font-family="Arial" font-size="20.00" fill="blue">end_prev: 04/11/17, 21:01:44</text>
</g>
</g>
</svg>
