<?xml version="1.0" encoding="UTF-8" standalone="no"?>
<!DOCTYPE svg PUBLIC "-//W3C//DTD SVG 1.1//EN"
 "http://www.w3.org/Graphics/SVG/1.1/DTD/svg11.dtd">
<!-- Generated by graphviz version 2.50.0 (0)
 -->
<!-- Title: DATAEXFILTRATIONunknown Pages: 1 -->
<svg width="2184pt" height="1730pt"
 viewBox="0.00 0.00 2183.74 1729.99" xmlns="http://www.w3.org/2000/svg" xmlns:xlink="http://www.w3.org/1999/xlink">
<g id="graph0" class="graph" transform="scale(1 1) rotate(0) translate(4 1725.99)">
<title>DATAEXFILTRATIONunknown</title>
<polygon fill="white" stroke="transparent" points="-4,4 -4,-1725.99 2179.74,-1725.99 2179.74,4 -4,4"/>
<!-- Victim: 10.0.0.22
DATA EXFILTRATION
unknown -->
<g id="node1" class="node">
<title>Victim: 10.0.0.22
DATA EXFILTRATION
unknown</title>
<polygon fill="salmon" stroke="black" stroke-width="3" points="1590.95,-1624.98 1590.95,-1679.37 1478.36,-1717.83 1319.12,-1717.83 1206.53,-1679.37 1206.53,-1624.98 1319.12,-1586.52 1478.36,-1586.52 1590.95,-1624.98"/>
<polygon fill="none" stroke="black" stroke-width="3" points="1594.95,-1622.13 1594.95,-1682.22 1479.02,-1721.82 1318.45,-1721.82 1202.52,-1682.22 1202.52,-1622.13 1318.45,-1582.53 1479.02,-1582.53 1594.95,-1622.13"/>
<text text-anchor="middle" x="1398.74" y="-1671.97" font-family="Arial" font-size="24.00">Victim: 10.0.0.22</text>
<text text-anchor="middle" x="1398.74" y="-1645.97" font-family="Arial" font-size="24.00">DATA EXFILTRATION</text>
<text text-anchor="middle" x="1398.74" y="-1619.97" font-family="Arial" font-size="24.00">unknown</text>
</g>
<!-- DATA EXFILTRATION
unknown | ID: 385 -->
<g id="node2" class="node">
<title>DATA EXFILTRATION
unknown | ID: 385</title>
<g id="a_node2"><a xlink:title="ET WEB_SPECIFIC_APPS PHP&#45;CGI query string parameter vulnerability&#10;ET WEB_SERVER Possible MySQL SQLi Attempt Information Schema Access">
<polygon fill="none" stroke="black" stroke-width="3" stroke-dasharray="1,5" points="1395.62,-1516.36 1293.18,-1565.34 1088.3,-1565.34 985.86,-1516.36 1088.3,-1467.38 1293.18,-1467.38 1395.62,-1516.36"/>
<text text-anchor="middle" x="1190.74" y="-1523.16" font-family="Arial" font-size="24.00">DATA EXFILTRATION</text>
<text text-anchor="middle" x="1190.74" y="-1497.16" font-family="Arial" font-size="24.00">unknown | ID: 385</text>
</a>
</g>
</g>
<!-- DATA EXFILTRATION
unknown | ID: 385&#45;&gt;Victim: 10.0.0.22
DATA EXFILTRATION
unknown -->
<g id="edge1" class="edge">
<title>DATA EXFILTRATION
unknown | ID: 385&#45;&gt;Victim: 10.0.0.22
DATA EXFILTRATION
unknown</title>
<path fill="none" stroke="black" stroke-width="5" d="M1265.54,-1565.48C1274.27,-1571.1 1283.31,-1576.92 1292.37,-1582.74"/>
<polygon fill="black" stroke="black" stroke-width="5" points="1290.28,-1586.6 1301.06,-1588.33 1295.02,-1579.24 1290.28,-1586.6"/>
</g>
<!-- DATA EXFILTRATION
unknown | ID: 57 -->
<g id="node3" class="node">
<title>DATA EXFILTRATION
unknown | ID: 57</title>
<g id="a_node3"><a xlink:title="ET WEB_SPECIFIC_APPS PHP&#45;CGI query string parameter vulnerability&#10;ET WEB_SERVER Possible MySQL SQLi Attempt Information Schema Access">
<polygon fill="salmon" stroke="black" stroke-width="3" points="1812.62,-1516.36 1710.18,-1565.34 1505.3,-1565.34 1402.86,-1516.36 1505.3,-1467.38 1710.18,-1467.38 1812.62,-1516.36"/>
<text text-anchor="middle" x="1607.74" y="-1523.16" font-family="Arial" font-size="24.00">DATA EXFILTRATION</text>
<text text-anchor="middle" x="1607.74" y="-1497.16" font-family="Arial" font-size="24.00">unknown | ID: 57</text>
</a>
</g>
</g>
<!-- DATA EXFILTRATION
unknown | ID: 57&#45;&gt;Victim: 10.0.0.22
DATA EXFILTRATION
unknown -->
<g id="edge2" class="edge">
<title>DATA EXFILTRATION
unknown | ID: 57&#45;&gt;Victim: 10.0.0.22
DATA EXFILTRATION
unknown</title>
<path fill="none" stroke="black" stroke-width="5" d="M1532.58,-1565.48C1523.71,-1571.16 1514.53,-1577.04 1505.33,-1582.92"/>
<polygon fill="black" stroke="black" stroke-width="5" points="1502.95,-1579.26 1496.89,-1588.33 1507.67,-1586.62 1502.95,-1579.26"/>
</g>
<!-- VULNERABILTY DISCOVERY
mysql -->
<g id="node4" class="node">
<title>VULNERABILTY DISCOVERY
mysql</title>
<g id="a_node4"><a xlink:title="ET POLICY Suspicious inbound to mySQL port 3306&#10;ET POLICY Suspicious inbound to MSSQL port 1433&#10;ET POLICY Suspicious inbound to Oracle SQL port 1521&#10;ET SCAN Nessus User Agent&#10;ET POLICY Suspicious inbound to PostgreSQL port 5432">
<ellipse fill="yellow" stroke="black" stroke-width="3" cx="723.74" cy="-403.26" rx="241.25" ry="42.35"/>
<text text-anchor="middle" x="723.74" y="-410.06" font-family="Arial" font-size="24.00">VULNERABILTY DISCOVERY</text>
<text text-anchor="middle" x="723.74" y="-384.06" font-family="Arial" font-size="24.00">mysql</text>
</a>
</g>
</g>
<!-- VULNERABILTY DISCOVERY
mysql&#45;&gt;VULNERABILTY DISCOVERY
mysql -->
<g id="edge14" class="edge">
<title>VULNERABILTY DISCOVERY
mysql&#45;&gt;VULNERABILTY DISCOVERY
mysql</title>
<path fill="none" stroke="blue" stroke-width="5" d="M960.42,-395.07C967.72,-397.29 971.86,-400.02 971.86,-403.26 971.86,-404.68 971.07,-406 969.57,-407.22"/>
<polygon fill="blue" stroke="blue" stroke-width="5" points="967.66,-403.28 960.42,-411.45 971.34,-411.22 967.66,-403.28"/>
<text text-anchor="middle" x="1103.36" y="-420.26" font-family="Arial" font-size="20.00" fill="blue">start_next: 04/11/17, 16:27:53</text>
<text text-anchor="middle" x="1103.36" y="-398.26" font-family="Arial" font-size="20.00" fill="blue">gap: 7602sec</text>
<text text-anchor="middle" x="1103.36" y="-376.26" font-family="Arial" font-size="20.00" fill="blue">end_prev: 04/11/17, 14:21:11</text>
</g>
<!-- SERVICE DISCOVERY
unknown -->
<g id="node5" class="node">
<title>SERVICE DISCOVERY
unknown</title>
<g id="a_node5"><a xlink:title="ET SCAN Potential VNC Scan 5800&#45;5820&#10;ET SCAN NMAP OS Detection Probe">
<ellipse fill="none" stroke="black" stroke-width="3" cx="845.74" cy="-42.43" rx="189.51" ry="42.35"/>
<text text-anchor="middle" x="845.74" y="-49.23" font-family="Arial" font-size="24.00">SERVICE DISCOVERY</text>
<text text-anchor="middle" x="845.74" y="-23.23" font-family="Arial" font-size="24.00">unknown</text>
</a>
</g>
</g>
<!-- VULNERABILTY DISCOVERY
mysql&#45;&gt;SERVICE DISCOVERY
unknown -->
<g id="edge3" class="edge">
<title>VULNERABILTY DISCOVERY
mysql&#45;&gt;SERVICE DISCOVERY
unknown</title>
<path fill="none" stroke="blue" stroke-width="5" d="M721.05,-360.36C717.93,-302.3 714.83,-200.69 728.74,-166.85 740.79,-137.53 763.31,-111.1 785.4,-90.28"/>
<polygon fill="blue" stroke="blue" stroke-width="5" points="788.45,-93.43 792.86,-83.44 782.53,-86.98 788.45,-93.43"/>
<text text-anchor="start" x="728.74" y="-240.84" font-family="Arial" font-size="20.00" fill="blue"> start_next: 04/11/17, 12:58:13</text>
<text text-anchor="start" x="799.24" y="-220.84" font-family="Arial" font-size="20.00" fill="blue">gap: &#45;1680sec</text>
<text text-anchor="start" x="732.74" y="-200.84" font-family="Arial" font-size="20.00" fill="blue">end_prev: 04/11/17, 13:26:12</text>
<text text-anchor="start" x="763.24" y="-180.84" font-family="Arial" font-weight="bold" font-size="20.00" fill="blue">Attacker: 10.0.254.31</text>
</g>
<!-- VULNERABILTY DISCOVERY
mysql&#45;&gt;SERVICE DISCOVERY
unknown -->
<g id="edge6" class="edge">
<title>VULNERABILTY DISCOVERY
mysql&#45;&gt;SERVICE DISCOVERY
unknown</title>
<path fill="none" stroke="blue" stroke-width="5" d="M486.14,-395.88C235.68,-380.62 -105.11,-330.33 31.74,-166.85 108.28,-75.42 430.83,-50.74 646.2,-44.64"/>
<polygon fill="blue" stroke="blue" stroke-width="5" points="646.49,-49.01 656.37,-44.36 646.26,-40.26 646.49,-49.01"/>
<text text-anchor="middle" x="163.24" y="-232.84" font-family="Arial" font-size="20.00" fill="blue">start_next: 04/11/17, 13:34:51</text>
<text text-anchor="middle" x="163.24" y="-210.84" font-family="Arial" font-size="20.00" fill="blue">gap: 1sec</text>
<text text-anchor="middle" x="163.24" y="-188.84" font-family="Arial" font-size="20.00" fill="blue">end_prev: 04/11/17, 13:34:50</text>
</g>
<!-- BRUTE FORCE CREDENTIALS
unknown | ID: 879 -->
<g id="node12" class="node">
<title>BRUTE FORCE CREDENTIALS
unknown | ID: 879</title>
<g id="a_node12"><a xlink:title="ET SCAN Rapid POP3S Connections &#45; Possible Brute Force Attack&#10;ET SCAN Multiple MySQL Login Failures Possible Brute Force Attempt">
<polygon fill="none" stroke="black" stroke-width="3" points="904.74,-600.11 542.74,-600.11 542.74,-540.11 904.74,-540.11 904.74,-600.11"/>
<text text-anchor="middle" x="723.74" y="-576.91" font-family="Arial" font-size="24.00">BRUTE FORCE CREDENTIALS</text>
<text text-anchor="middle" x="723.74" y="-550.91" font-family="Arial" font-size="24.00">unknown | ID: 879</text>
</a>
</g>
</g>
<!-- VULNERABILTY DISCOVERY
mysql&#45;&gt;BRUTE FORCE CREDENTIALS
unknown | ID: 879 -->
<g id="edge15" class="edge">
<title>VULNERABILTY DISCOVERY
mysql&#45;&gt;BRUTE FORCE CREDENTIALS
unknown | ID: 879</title>
<path fill="none" stroke="blue" stroke-width="5" d="M723.74,-445.86C723.74,-471.68 723.74,-504.65 723.74,-529.99"/>
<polygon fill="blue" stroke="blue" stroke-width="5" points="719.36,-530 723.74,-540 728.11,-530 719.36,-530"/>
<text text-anchor="middle" x="855.24" y="-503.69" font-family="Arial" font-size="20.00" fill="blue">start_next: 04/11/17, 16:28:17</text>
<text text-anchor="middle" x="855.24" y="-481.69" font-family="Arial" font-size="20.00" fill="blue">gap: &#45;370sec</text>
<text text-anchor="middle" x="855.24" y="-459.69" font-family="Arial" font-size="20.00" fill="blue">end_prev: 04/11/17, 16:34:28</text>
</g>
<!-- SERVICE DISCOVERY
ff&#45;ice -->
<g id="node6" class="node">
<title>SERVICE DISCOVERY
ff&#45;ice</title>
<g id="a_node6"><a xlink:title="ET SCAN Potential VNC Scan 5900&#45;5920">
<ellipse fill="none" stroke="black" stroke-width="3" cx="487.74" cy="-215.84" rx="189.51" ry="42.35"/>
<text text-anchor="middle" x="487.74" y="-222.64" font-family="Arial" font-size="24.00">SERVICE DISCOVERY</text>
<text text-anchor="middle" x="487.74" y="-196.64" font-family="Arial" font-size="24.00">ff&#45;ice</text>
</a>
</g>
</g>
<!-- SERVICE DISCOVERY
unknown&#45;&gt;SERVICE DISCOVERY
ff&#45;ice -->
<g id="edge4" class="edge">
<title>SERVICE DISCOVERY
unknown&#45;&gt;SERVICE DISCOVERY
ff&#45;ice</title>
<path fill="none" stroke="blue" stroke-width="5" d="M665.52,-55.64C571.19,-63.92 472.25,-76.37 457.74,-92.85 440.48,-112.45 445.92,-140.39 456.61,-164.59"/>
<polygon fill="blue" stroke="blue" stroke-width="5" points="452.68,-166.51 460.93,-173.66 460.58,-162.75 452.68,-166.51"/>
<text text-anchor="middle" x="589.24" y="-142.85" font-family="Arial" font-size="20.00" fill="blue">start_next: 04/11/17, 13:10:51</text>
<text text-anchor="middle" x="589.24" y="-120.85" font-family="Arial" font-size="20.00" fill="blue">gap: 758sec</text>
<text text-anchor="middle" x="589.24" y="-98.85" font-family="Arial" font-size="20.00" fill="blue">end_prev: 04/11/17, 12:58:13</text>
</g>
<!-- VULNERABILTY DISCOVERY
ms&#45;sql&#45;s -->
<g id="node7" class="node">
<title>VULNERABILTY DISCOVERY
ms&#45;sql&#45;s</title>
<g id="a_node7"><a xlink:title="ET POLICY Suspicious inbound to mySQL port 3306&#10;ET POLICY Suspicious inbound to mSQL port 4333&#10;ET POLICY Suspicious inbound to MSSQL port 1433&#10;ET POLICY Suspicious inbound to Oracle SQL port 1521&#10;ET SCAN Nessus User Agent">
<ellipse fill="none" stroke="black" stroke-width="3" cx="1241.74" cy="-215.84" rx="241.25" ry="42.35"/>
<text text-anchor="middle" x="1241.74" y="-222.64" font-family="Arial" font-size="24.00">VULNERABILTY DISCOVERY</text>
<text text-anchor="middle" x="1241.74" y="-196.64" font-family="Arial" font-size="24.00">ms&#45;sql&#45;s</text>
</a>
</g>
</g>
<!-- SERVICE DISCOVERY
unknown&#45;&gt;VULNERABILTY DISCOVERY
ms&#45;sql&#45;s -->
<g id="edge7" class="edge">
<title>SERVICE DISCOVERY
unknown&#45;&gt;VULNERABILTY DISCOVERY
ms&#45;sql&#45;s</title>
<path fill="none" stroke="blue" stroke-width="5" d="M858.02,-84.78C867.93,-110.53 884.61,-141.87 910.74,-158.85 926.46,-169.07 976.18,-164.17 994.74,-166.85 1022.29,-170.83 1051.44,-175.81 1079.67,-181.03"/>
<polygon fill="blue" stroke="blue" stroke-width="5" points="1078.99,-185.35 1089.62,-182.89 1080.59,-176.75 1078.99,-185.35"/>
<text text-anchor="middle" x="1042.24" y="-142.85" font-family="Arial" font-size="20.00" fill="blue">start_next: 04/11/17, 13:59:51</text>
<text text-anchor="middle" x="1042.24" y="-120.85" font-family="Arial" font-size="20.00" fill="blue">gap: 1484sec</text>
<text text-anchor="middle" x="1042.24" y="-98.85" font-family="Arial" font-size="20.00" fill="blue">end_prev: 04/11/17, 13:35:07</text>
</g>
<!-- INFO DISCOVERY
xdmcp -->
<g id="node8" class="node">
<title>INFO DISCOVERY
xdmcp</title>
<g id="a_node8"><a xlink:title="GPL WEB_SERVER mod_gzip_status access&#10;GPL RPC xdmcp info query">
<ellipse fill="none" stroke="black" stroke-width="3" cx="1559.74" cy="-1020.96" rx="156.04" ry="42.35"/>
<text text-anchor="middle" x="1559.74" y="-1027.76" font-family="Arial" font-size="24.00">INFO DISCOVERY</text>
<text text-anchor="middle" x="1559.74" y="-1001.76" font-family="Arial" font-size="24.00">xdmcp</text>
</a>
</g>
</g>
<!-- SERVICE DISCOVERY
unknown&#45;&gt;INFO DISCOVERY
xdmcp -->
<g id="edge9" class="edge">
<title>SERVICE DISCOVERY
unknown&#45;&gt;INFO DISCOVERY
xdmcp</title>
<path fill="none" stroke="blue" stroke-width="5" d="M1031.76,-50.92C1159.66,-57.76 1333.13,-70.36 1484.74,-92.85 1646.44,-116.85 1831.74,-51.37 1831.74,-214.84 1831.74,-214.84 1831.74,-214.84 1831.74,-867.54 1831.74,-913.45 1854.41,-936.37 1823.74,-970.54 1808.32,-987.71 1765.38,-998.99 1718.49,-1006.37"/>
<polygon fill="blue" stroke="blue" stroke-width="5" points="1717.67,-1002.07 1708.43,-1007.88 1718.97,-1010.72 1717.67,-1002.07"/>
<text text-anchor="middle" x="1963.24" y="-587.11" font-family="Arial" font-size="20.00" fill="blue">start_next: 04/11/17, 14:02:12</text>
<text text-anchor="middle" x="1963.24" y="-565.11" font-family="Arial" font-size="20.00" fill="blue">gap: 103sec</text>
<text text-anchor="middle" x="1963.24" y="-543.11" font-family="Arial" font-size="20.00" fill="blue">end_prev: 04/11/17, 14:00:30</text>
</g>
<!-- SERVICE DISCOVERY
ff&#45;ice&#45;&gt;VULNERABILTY DISCOVERY
mysql -->
<g id="edge5" class="edge">
<title>SERVICE DISCOVERY
ff&#45;ice&#45;&gt;VULNERABILTY DISCOVERY
mysql</title>
<path fill="none" stroke="blue" stroke-width="5" d="M462.13,-258.02C447.42,-287.48 435.79,-326.43 457.74,-352.83 466.55,-363.43 485.31,-371.77 508.99,-378.33"/>
<polygon fill="blue" stroke="blue" stroke-width="5" points="507.89,-382.56 518.67,-380.85 510.1,-374.1 507.89,-382.56"/>
<text text-anchor="middle" x="589.24" y="-329.83" font-family="Arial" font-size="20.00" fill="blue">start_next: 04/11/17, 13:34:49</text>
<text text-anchor="middle" x="589.24" y="-307.83" font-family="Arial" font-size="20.00" fill="blue">gap: 1205sec</text>
<text text-anchor="middle" x="589.24" y="-285.83" font-family="Arial" font-size="20.00" fill="blue">end_prev: 04/11/17, 13:14:43</text>
</g>
<!-- VULNERABILTY DISCOVERY
ms&#45;sql&#45;s&#45;&gt;SERVICE DISCOVERY
unknown -->
<g id="edge8" class="edge">
<title>VULNERABILTY DISCOVERY
ms&#45;sql&#45;s&#45;&gt;SERVICE DISCOVERY
unknown</title>
<path fill="none" stroke="blue" stroke-width="5" d="M1228.33,-173.4C1217.28,-146.08 1198.8,-111.94 1170.74,-92.85 1147.1,-76.77 1092.17,-65.71 1034.07,-58.19"/>
<polygon fill="blue" stroke="blue" stroke-width="5" points="1034.43,-53.83 1023.96,-56.93 1033.34,-62.51 1034.43,-53.83"/>
<text text-anchor="middle" x="1352.24" y="-142.85" font-family="Arial" font-size="20.00" fill="blue">start_next: 04/11/17, 14:00:30</text>
<text text-anchor="middle" x="1352.24" y="-120.85" font-family="Arial" font-size="20.00" fill="blue">gap: &#45;680sec</text>
<text text-anchor="middle" x="1352.24" y="-98.85" font-family="Arial" font-size="20.00" fill="blue">end_prev: 04/11/17, 14:11:49</text>
</g>
<!-- ACCOUNT MANIPULATION
snmp | ID: 1357 -->
<g id="node9" class="node">
<title>ACCOUNT MANIPULATION
snmp | ID: 1357</title>
<g id="a_node9"><a xlink:title="GPL SNMP public access udp">
<polygon fill="none" stroke="black" stroke-width="3" stroke-dasharray="1,5" points="1382.74,-1205.39 1062.74,-1205.39 1062.74,-1145.39 1382.74,-1145.39 1382.74,-1205.39"/>
<text text-anchor="middle" x="1222.74" y="-1182.19" font-family="Arial" font-size="24.00">ACCOUNT MANIPULATION</text>
<text text-anchor="middle" x="1222.74" y="-1156.19" font-family="Arial" font-size="24.00">snmp | ID: 1357</text>
</a>
</g>
</g>
<!-- INFO DISCOVERY
xdmcp&#45;&gt;ACCOUNT MANIPULATION
snmp | ID: 1357 -->
<g id="edge10" class="edge">
<title>INFO DISCOVERY
xdmcp&#45;&gt;ACCOUNT MANIPULATION
snmp | ID: 1357</title>
<path fill="none" stroke="blue" stroke-width="5" d="M1417.96,-1038.86C1367.01,-1046.94 1316.89,-1057.84 1295.74,-1071.39 1271.41,-1086.98 1252.77,-1113.82 1240.43,-1136.2"/>
<polygon fill="blue" stroke="blue" stroke-width="5" points="1236.5,-1134.27 1235.68,-1145.16 1244.23,-1138.37 1236.5,-1134.27"/>
<text text-anchor="middle" x="1427.24" y="-1121.39" font-family="Arial" font-size="20.00" fill="blue">start_next: 04/11/17, 14:03:05</text>
<text text-anchor="middle" x="1427.24" y="-1099.39" font-family="Arial" font-size="20.00" fill="blue">gap: 49sec</text>
<text text-anchor="middle" x="1427.24" y="-1077.39" font-family="Arial" font-size="20.00" fill="blue">end_prev: 04/11/17, 14:02:16</text>
</g>
<!-- ACCOUNT MANIPULATION
snmp | ID: 942 -->
<g id="node15" class="node">
<title>ACCOUNT MANIPULATION
snmp | ID: 942</title>
<g id="a_node15"><a xlink:title="GPL SNMP private access udp&#10;GPL SNMP public access udp">
<polygon fill="none" stroke="black" stroke-width="3" stroke-dasharray="1,5" points="2062.74,-1205.39 1742.74,-1205.39 1742.74,-1145.39 2062.74,-1145.39 2062.74,-1205.39"/>
<text text-anchor="middle" x="1902.74" y="-1182.19" font-family="Arial" font-size="24.00">ACCOUNT MANIPULATION</text>
<text text-anchor="middle" x="1902.74" y="-1156.19" font-family="Arial" font-size="24.00">snmp | ID: 942</text>
</a>
</g>
</g>
<!-- INFO DISCOVERY
xdmcp&#45;&gt;ACCOUNT MANIPULATION
snmp | ID: 942 -->
<g id="edge19" class="edge">
<title>INFO DISCOVERY
xdmcp&#45;&gt;ACCOUNT MANIPULATION
snmp | ID: 942</title>
<path fill="none" stroke="blue" stroke-width="5" d="M1700.91,-1039.21C1751.94,-1047.36 1802.28,-1058.21 1823.74,-1071.39 1849.17,-1087.01 1869.43,-1114.03 1883.06,-1136.48"/>
<polygon fill="blue" stroke="blue" stroke-width="5" points="1879.31,-1138.72 1888.14,-1145.14 1886.85,-1134.3 1879.31,-1138.72"/>
<text text-anchor="middle" x="2014.24" y="-1121.39" font-family="Arial" font-size="20.00" fill="blue">start_next: 04/11/17, 16:31:10</text>
<text text-anchor="middle" x="2014.24" y="-1099.39" font-family="Arial" font-size="20.00" fill="blue">gap: &#45;64sec</text>
<text text-anchor="middle" x="2014.24" y="-1077.39" font-family="Arial" font-size="20.00" fill="blue">end_prev: 04/11/17, 16:32:13</text>
</g>
<!-- ACCOUNT MANIPULATION
snmp | ID: 938 -->
<g id="node18" class="node">
<title>ACCOUNT MANIPULATION
snmp | ID: 938</title>
<g id="a_node18"><a xlink:title="GPL SNMP private access udp&#10;GPL SNMP public access udp">
<polygon fill="none" stroke="black" stroke-width="3" stroke-dasharray="1,5" points="1719.74,-1205.39 1399.74,-1205.39 1399.74,-1145.39 1719.74,-1145.39 1719.74,-1205.39"/>
<text text-anchor="middle" x="1559.74" y="-1182.19" font-family="Arial" font-size="24.00">ACCOUNT MANIPULATION</text>
<text text-anchor="middle" x="1559.74" y="-1156.19" font-family="Arial" font-size="24.00">snmp | ID: 938</text>
</a>
</g>
</g>
<!-- INFO DISCOVERY
xdmcp&#45;&gt;ACCOUNT MANIPULATION
snmp | ID: 938 -->
<g id="edge26" class="edge">
<title>INFO DISCOVERY
xdmcp&#45;&gt;ACCOUNT MANIPULATION
snmp | ID: 938</title>
<path fill="none" stroke="blue" stroke-width="5" d="M1559.74,-1063.62C1559.74,-1085.89 1559.74,-1113.15 1559.74,-1135.06"/>
<polygon fill="blue" stroke="blue" stroke-width="5" points="1555.36,-1135.34 1559.74,-1145.34 1564.11,-1135.34 1555.36,-1135.34"/>
<text text-anchor="middle" x="1691.24" y="-1121.39" font-family="Arial" font-size="20.00" fill="blue">start_next: 04/11/17, 18:02:07</text>
<text text-anchor="middle" x="1691.24" y="-1099.39" font-family="Arial" font-size="20.00" fill="blue">gap: &#45;71sec</text>
<text text-anchor="middle" x="1691.24" y="-1077.39" font-family="Arial" font-size="20.00" fill="blue">end_prev: 04/11/17, 18:03:18</text>
</g>
<!-- BRUTE FORCE CREDENTIALS
unknown | ID: 937 -->
<g id="node10" class="node">
<title>BRUTE FORCE CREDENTIALS
unknown | ID: 937</title>
<g id="a_node10"><a xlink:title="ET SCAN Multiple MySQL Login Failures Possible Brute Force Attempt">
<polygon fill="none" stroke="black" stroke-width="3" stroke-dasharray="1,5" points="1371.74,-1366.38 1009.74,-1366.38 1009.74,-1306.38 1371.74,-1306.38 1371.74,-1366.38"/>
<text text-anchor="middle" x="1190.74" y="-1343.18" font-family="Arial" font-size="24.00">BRUTE FORCE CREDENTIALS</text>
<text text-anchor="middle" x="1190.74" y="-1317.18" font-family="Arial" font-size="24.00">unknown | ID: 937</text>
</a>
</g>
</g>
<!-- ACCOUNT MANIPULATION
snmp | ID: 1357&#45;&gt;BRUTE FORCE CREDENTIALS
unknown | ID: 937 -->
<g id="edge11" class="edge">
<title>ACCOUNT MANIPULATION
snmp | ID: 1357&#45;&gt;BRUTE FORCE CREDENTIALS
unknown | ID: 937</title>
<path fill="none" stroke="blue" stroke-width="5" d="M1216.87,-1205.55C1211.74,-1231.02 1204.26,-1268.2 1198.61,-1296.25"/>
<polygon fill="blue" stroke="blue" stroke-width="5" points="1194.31,-1295.47 1196.62,-1306.14 1202.89,-1297.2 1194.31,-1295.47"/>
<text text-anchor="middle" x="1346.24" y="-1263.39" font-family="Arial" font-size="20.00" fill="blue">start_next: 04/11/17, 14:03:10</text>
<text text-anchor="middle" x="1346.24" y="-1241.39" font-family="Arial" font-size="20.00" fill="blue">gap: &#45;5sec</text>
<text text-anchor="middle" x="1346.24" y="-1219.39" font-family="Arial" font-size="20.00" fill="blue">end_prev: 04/11/17, 14:03:15</text>
</g>
<!-- BRUTE FORCE CREDENTIALS
unknown | ID: 937&#45;&gt;DATA EXFILTRATION
unknown | ID: 385 -->
<g id="edge12" class="edge">
<title>BRUTE FORCE CREDENTIALS
unknown | ID: 937&#45;&gt;DATA EXFILTRATION
unknown | ID: 385</title>
<path fill="none" stroke="blue" stroke-width="5" d="M1190.74,-1366.77C1190.74,-1391.25 1190.74,-1426.87 1190.74,-1457.1"/>
<polygon fill="blue" stroke="blue" stroke-width="5" points="1186.36,-1457.12 1190.74,-1467.12 1195.11,-1457.12 1186.36,-1457.12"/>
<text text-anchor="middle" x="1322.24" y="-1443.37" font-family="Arial" font-size="20.00" fill="blue">start_next: 04/11/17, 14:03:50</text>
<text text-anchor="middle" x="1322.24" y="-1421.37" font-family="Arial" font-size="20.00" fill="blue">gap: 12sec</text>
<text text-anchor="middle" x="1322.24" y="-1399.37" font-family="Arial" font-size="20.00" fill="blue">end_prev: 04/11/17, 14:03:38</text>
</g>
<!-- DATA DELIVERY
unknown | ID: 56 -->
<g id="node11" class="node">
<title>DATA DELIVERY
unknown | ID: 56</title>
<g id="a_node11"><a xlink:title="ET WEB_SERVER PHP Possible https Local File Inclusion Attempt&#10;ET WEB_SERVER PHP Possible php Remote File Inclusion Attempt&#10;ET WEB_SERVER PHP tags in HTTP POST">
<polygon fill="yellow" stroke="black" stroke-width="3" points="1815.84,-215.84 1734.29,-264.82 1571.19,-264.82 1489.64,-215.84 1571.19,-166.86 1734.29,-166.86 1815.84,-215.84"/>
<text text-anchor="middle" x="1652.74" y="-222.64" font-family="Arial" font-size="24.00">DATA DELIVERY</text>
<text text-anchor="middle" x="1652.74" y="-196.64" font-family="Arial" font-size="24.00">unknown | ID: 56</text>
</a>
</g>
</g>
<!-- DATA DELIVERY
unknown | ID: 56&#45;&gt;VULNERABILTY DISCOVERY
mysql -->
<g id="edge13" class="edge">
<title>DATA DELIVERY
unknown | ID: 56&#45;&gt;VULNERABILTY DISCOVERY
mysql</title>
<path fill="none" stroke="blue" stroke-width="5" d="M1545.36,-249.43C1525.62,-254.93 1505.13,-260.31 1485.74,-264.83 1292.63,-309.87 1069.06,-348.63 914.25,-373.4"/>
<polygon fill="blue" stroke="blue" stroke-width="5" points="913.34,-369.12 904.16,-375.01 914.72,-377.76 913.34,-369.12"/>
<text text-anchor="start" x="1444.74" y="-337.83" font-family="Arial" font-size="20.00" fill="blue"> start_next: 04/11/17, 14:21:11</text>
<text text-anchor="start" x="1523.74" y="-317.83" font-family="Arial" font-size="20.00" fill="blue">gap: 967sec</text>
<text text-anchor="start" x="1448.24" y="-297.83" font-family="Arial" font-size="20.00" fill="blue">end_prev: 04/11/17, 14:05:04</text>
<text text-anchor="start" x="1478.74" y="-277.83" font-family="Arial" font-weight="bold" font-size="20.00" fill="blue">Attacker: 10.0.254.31</text>
</g>
<!-- ARBITRARY CODE EXECUTION
ssdp | ID: 355 -->
<g id="node13" class="node">
<title>ARBITRARY CODE EXECUTION
ssdp | ID: 355</title>
<g id="a_node13"><a xlink:title="GPL MISC UPnP malformed advertisement">
<polygon fill="none" stroke="black" stroke-width="3" points="1256.24,-754.54 881.24,-754.54 881.24,-694.54 1256.24,-694.54 1256.24,-754.54"/>
<text text-anchor="middle" x="1068.74" y="-731.34" font-family="Arial" font-size="24.00">ARBITRARY CODE EXECUTION</text>
<text text-anchor="middle" x="1068.74" y="-705.34" font-family="Arial" font-size="24.00">ssdp | ID: 355</text>
</a>
</g>
</g>
<!-- BRUTE FORCE CREDENTIALS
unknown | ID: 879&#45;&gt;ARBITRARY CODE EXECUTION
ssdp | ID: 355 -->
<g id="edge16" class="edge">
<title>BRUTE FORCE CREDENTIALS
unknown | ID: 879&#45;&gt;ARBITRARY CODE EXECUTION
ssdp | ID: 355</title>
<path fill="none" stroke="blue" stroke-width="5" d="M741.24,-600.27C759.14,-627.33 789.55,-666.37 826.74,-686.54 836.45,-691.8 852.19,-696.46 871.11,-700.53"/>
<polygon fill="blue" stroke="blue" stroke-width="5" points="870.28,-704.82 880.96,-702.54 872.04,-696.25 870.28,-704.82"/>
<text text-anchor="middle" x="958.24" y="-670.54" font-family="Arial" font-size="20.00" fill="blue">start_next: 04/11/17, 16:29:42</text>
<text text-anchor="middle" x="958.24" y="-648.54" font-family="Arial" font-size="20.00" fill="blue">gap: &#45;120sec</text>
<text text-anchor="middle" x="958.24" y="-626.54" font-family="Arial" font-size="20.00" fill="blue">end_prev: 04/11/17, 16:31:43</text>
</g>
<!-- REMOTE SERVICE EXPLOIT
snmp | ID: 52 -->
<g id="node14" class="node">
<title>REMOTE SERVICE EXPLOIT
snmp | ID: 52</title>
<g id="a_node14"><a xlink:title="ET SNMP Samsung Printer SNMP Hardcode RW Community String">
<polygon fill="none" stroke="black" stroke-width="3" points="1472.74,-896.54 1134.74,-896.54 1134.74,-836.54 1472.74,-836.54 1472.74,-896.54"/>
<text text-anchor="middle" x="1303.74" y="-873.34" font-family="Arial" font-size="24.00">REMOTE SERVICE EXPLOIT</text>
<text text-anchor="middle" x="1303.74" y="-847.34" font-family="Arial" font-size="24.00">snmp | ID: 52</text>
</a>
</g>
</g>
<!-- ARBITRARY CODE EXECUTION
ssdp | ID: 355&#45;&gt;REMOTE SERVICE EXPLOIT
snmp | ID: 52 -->
<g id="edge17" class="edge">
<title>ARBITRARY CODE EXECUTION
ssdp | ID: 355&#45;&gt;REMOTE SERVICE EXPLOIT
snmp | ID: 52</title>
<path fill="none" stroke="blue" stroke-width="5" d="M1039.68,-754.58C1038.13,-757.14 1036.78,-759.8 1035.74,-762.54 1025.29,-789.95 1016.47,-806.42 1035.74,-828.54 1049.1,-843.87 1084.1,-853.07 1124.56,-858.52"/>
<polygon fill="blue" stroke="blue" stroke-width="5" points="1124.2,-862.88 1134.67,-859.79 1125.29,-854.2 1124.2,-862.88"/>
<text text-anchor="middle" x="1167.24" y="-812.54" font-family="Arial" font-size="20.00" fill="blue">start_next: 04/11/17, 16:30:15</text>
<text text-anchor="middle" x="1167.24" y="-790.54" font-family="Arial" font-size="20.00" fill="blue">gap: 22sec</text>
<text text-anchor="middle" x="1167.24" y="-768.54" font-family="Arial" font-size="20.00" fill="blue">end_prev: 04/11/17, 16:29:52</text>
</g>
<!-- ARBITRARY CODE EXECUTION
ssdp | ID: 355&#45;&gt;REMOTE SERVICE EXPLOIT
snmp | ID: 52 -->
<g id="edge24" class="edge">
<title>ARBITRARY CODE EXECUTION
ssdp | ID: 355&#45;&gt;REMOTE SERVICE EXPLOIT
snmp | ID: 52</title>
<path fill="none" stroke="blue" stroke-width="5" d="M1256.57,-743.6C1274.39,-748.48 1288.51,-754.67 1295.74,-762.54 1311.18,-779.33 1313.25,-804.86 1311.43,-826.3"/>
<polygon fill="blue" stroke="blue" stroke-width="5" points="1307.06,-826.01 1310.26,-836.44 1315.75,-827.01 1307.06,-826.01"/>
<text text-anchor="middle" x="1443.24" y="-812.54" font-family="Arial" font-size="20.00" fill="blue">start_next: 04/11/17, 18:01:14</text>
<text text-anchor="middle" x="1443.24" y="-790.54" font-family="Arial" font-size="20.00" fill="blue">gap: 22sec</text>
<text text-anchor="middle" x="1443.24" y="-768.54" font-family="Arial" font-size="20.00" fill="blue">end_prev: 04/11/17, 18:00:53</text>
</g>
<!-- REMOTE SERVICE EXPLOIT
snmp | ID: 52&#45;&gt;INFO DISCOVERY
xdmcp -->
<g id="edge18" class="edge">
<title>REMOTE SERVICE EXPLOIT
snmp | ID: 52&#45;&gt;INFO DISCOVERY
xdmcp</title>
<path fill="none" stroke="blue" stroke-width="5" d="M1472.94,-877.88C1507.3,-883.38 1536.65,-891.77 1548.74,-904.54 1557.47,-913.77 1560.27,-941.96 1560.86,-968.17"/>
<polygon fill="blue" stroke="blue" stroke-width="5" points="1556.49,-968.51 1560.98,-978.46 1565.24,-968.41 1556.49,-968.51"/>
<text text-anchor="middle" x="1692.24" y="-954.54" font-family="Arial" font-size="20.00" fill="blue">start_next: 04/11/17, 16:30:17</text>
<text text-anchor="middle" x="1692.24" y="-932.54" font-family="Arial" font-size="20.00" fill="blue">gap: 3sec</text>
<text text-anchor="middle" x="1692.24" y="-910.54" font-family="Arial" font-size="20.00" fill="blue">end_prev: 04/11/17, 16:30:15</text>
</g>
<!-- REMOTE SERVICE EXPLOIT
snmp | ID: 52&#45;&gt;INFO DISCOVERY
xdmcp -->
<g id="edge25" class="edge">
<title>REMOTE SERVICE EXPLOIT
snmp | ID: 52&#45;&gt;INFO DISCOVERY
xdmcp</title>
<path fill="none" stroke="blue" stroke-width="5" d="M1286.8,-896.97C1276.28,-919.54 1267.71,-950.17 1284.74,-970.54 1300.64,-989.55 1347.66,-1001.26 1398.43,-1008.47"/>
<polygon fill="blue" stroke="blue" stroke-width="5" points="1398.13,-1012.84 1408.62,-1009.85 1399.3,-1004.17 1398.13,-1012.84"/>
<text text-anchor="middle" x="1416.24" y="-954.54" font-family="Arial" font-size="20.00" fill="blue">start_next: 04/11/17, 18:01:15</text>
<text text-anchor="middle" x="1416.24" y="-932.54" font-family="Arial" font-size="20.00" fill="blue">gap: 1sec</text>
<text text-anchor="middle" x="1416.24" y="-910.54" font-family="Arial" font-size="20.00" fill="blue">end_prev: 04/11/17, 18:01:14</text>
</g>
<!-- DATA DELIVERY
unknown | ID: 388 -->
<g id="node16" class="node">
<title>DATA DELIVERY
unknown | ID: 388</title>
<g id="a_node16"><a xlink:title="ET WEB_SERVER PHP Possible https Local File Inclusion Attempt&#10;ET WEB_SERVER PHP Possible php Remote File Inclusion Attempt&#10;ET WEB_SERVER PHP tags in HTTP POST">
<polygon fill="none" stroke="black" stroke-width="3" points="2091.8,-1336.38 2005.77,-1385.36 1833.71,-1385.36 1747.68,-1336.38 1833.71,-1287.4 2005.77,-1287.4 2091.8,-1336.38"/>
<text text-anchor="middle" x="1919.74" y="-1343.18" font-family="Arial" font-size="24.00">DATA DELIVERY</text>
<text text-anchor="middle" x="1919.74" y="-1317.18" font-family="Arial" font-size="24.00">unknown | ID: 388</text>
</a>
</g>
</g>
<!-- ACCOUNT MANIPULATION
snmp | ID: 942&#45;&gt;DATA DELIVERY
unknown | ID: 388 -->
<g id="edge20" class="edge">
<title>ACCOUNT MANIPULATION
snmp | ID: 942&#45;&gt;DATA DELIVERY
unknown | ID: 388</title>
<path fill="none" stroke="blue" stroke-width="5" d="M1905.86,-1205.55C1908,-1225.55 1910.91,-1252.78 1913.51,-1277.13"/>
<polygon fill="blue" stroke="blue" stroke-width="5" points="1909.19,-1277.89 1914.6,-1287.37 1917.89,-1276.96 1909.19,-1277.89"/>
<text text-anchor="middle" x="2044.24" y="-1263.39" font-family="Arial" font-size="20.00" fill="blue">start_next: 04/11/17, 16:32:24</text>
<text text-anchor="middle" x="2044.24" y="-1241.39" font-family="Arial" font-size="20.00" fill="blue">gap: 62sec</text>
<text text-anchor="middle" x="2044.24" y="-1219.39" font-family="Arial" font-size="20.00" fill="blue">end_prev: 04/11/17, 16:31:22</text>
</g>
<!-- DATA DELIVERY
unknown | ID: 388&#45;&gt;DATA EXFILTRATION
unknown | ID: 57 -->
<g id="edge21" class="edge">
<title>DATA DELIVERY
unknown | ID: 388&#45;&gt;DATA EXFILTRATION
unknown | ID: 57</title>
<path fill="none" stroke="blue" stroke-width="5" d="M1905.48,-1385.61C1895.52,-1411.18 1879.64,-1441.02 1855.74,-1459.37 1834.94,-1475.34 1810.44,-1486.91 1785.07,-1495.27"/>
<polygon fill="blue" stroke="blue" stroke-width="5" points="1783.55,-1491.16 1775.31,-1498.32 1786.16,-1499.51 1783.55,-1491.16"/>
<text text-anchor="middle" x="2033.24" y="-1443.37" font-family="Arial" font-size="20.00" fill="blue">start_next: 04/11/17, 16:32:25</text>
<text text-anchor="middle" x="2033.24" y="-1421.37" font-family="Arial" font-size="20.00" fill="blue">gap: &#45;49sec</text>
<text text-anchor="middle" x="2033.24" y="-1399.37" font-family="Arial" font-size="20.00" fill="blue">end_prev: 04/11/17, 16:33:14</text>
</g>
<!-- VULNERABILTY DISCOVERY
unknown -->
<g id="node17" class="node">
<title>VULNERABILTY DISCOVERY
unknown</title>
<g id="a_node17"><a xlink:title="ET POLICY Suspicious inbound to MSSQL port 1433&#10;ET POLICY Suspicious inbound to mySQL port 3306&#10;ET SCAN Nessus User Agent&#10;ET POLICY Suspicious inbound to mSQL port 4333">
<ellipse fill="yellow" stroke="black" stroke-width="3" cx="1152.74" cy="-570.11" rx="241.25" ry="42.35"/>
<text text-anchor="middle" x="1152.74" y="-576.91" font-family="Arial" font-size="24.00">VULNERABILTY DISCOVERY</text>
<text text-anchor="middle" x="1152.74" y="-550.91" font-family="Arial" font-size="24.00">unknown</text>
</a>
</g>
</g>
<!-- VULNERABILTY DISCOVERY
unknown&#45;&gt;ARBITRARY CODE EXECUTION
ssdp | ID: 355 -->
<g id="edge23" class="edge">
<title>VULNERABILTY DISCOVERY
unknown&#45;&gt;ARBITRARY CODE EXECUTION
ssdp | ID: 355</title>
<path fill="none" stroke="blue" stroke-width="5" d="M1130.01,-612.36C1117.45,-635.14 1101.96,-663.25 1089.7,-685.5"/>
<polygon fill="blue" stroke="blue" stroke-width="5" points="1085.83,-683.46 1084.83,-694.33 1093.49,-687.69 1085.83,-683.46"/>
<text text-anchor="middle" x="1254.24" y="-670.54" font-family="Arial" font-size="20.00" fill="blue">start_next: 04/11/17, 18:00:42</text>
<text text-anchor="middle" x="1254.24" y="-648.54" font-family="Arial" font-size="20.00" fill="blue">gap: &#45;628sec</text>
<text text-anchor="middle" x="1254.24" y="-626.54" font-family="Arial" font-size="20.00" fill="blue">end_prev: 04/11/17, 18:11:10</text>
</g>
<!-- VULNERABILTY DISCOVERY
unknown&#45;&gt;VULNERABILTY DISCOVERY
unknown -->
<g id="edge22" class="edge">
<title>VULNERABILTY DISCOVERY
unknown&#45;&gt;VULNERABILTY DISCOVERY
unknown</title>
<path fill="none" stroke="blue" stroke-width="5" d="M1389.42,-561.92C1396.72,-564.14 1400.86,-566.87 1400.86,-570.11 1400.86,-571.53 1400.07,-572.85 1398.57,-574.07"/>
<polygon fill="blue" stroke="blue" stroke-width="5" points="1396.66,-570.13 1389.42,-578.3 1400.34,-578.08 1396.66,-570.13"/>
<text text-anchor="start" x="1400.86" y="-595.11" font-family="Arial" font-size="20.00" fill="blue"> start_next: 04/11/17, 17:59:02</text>
<text text-anchor="start" x="1474.36" y="-575.11" font-family="Arial" font-size="20.00" fill="blue">gap: 4194sec</text>
<text text-anchor="start" x="1404.86" y="-555.11" font-family="Arial" font-size="20.00" fill="blue">end_prev: 04/11/17, 16:49:08</text>
<text text-anchor="start" x="1435.36" y="-535.11" font-family="Arial" font-weight="bold" font-size="20.00" fill="blue">Attacker: 10.0.254.31</text>
</g>
<!-- BRUTE FORCE CREDENTIALS
unknown | ID: 386 -->
<g id="node19" class="node">
<title>BRUTE FORCE CREDENTIALS
unknown | ID: 386</title>
<g id="a_node19"><a xlink:title="ET SCAN Multiple MySQL Login Failures Possible Brute Force Attempt">
<polygon fill="none" stroke="black" stroke-width="3" points="1740.74,-1366.38 1378.74,-1366.38 1378.74,-1306.38 1740.74,-1306.38 1740.74,-1366.38"/>
<text text-anchor="middle" x="1559.74" y="-1343.18" font-family="Arial" font-size="24.00">BRUTE FORCE CREDENTIALS</text>
<text text-anchor="middle" x="1559.74" y="-1317.18" font-family="Arial" font-size="24.00">unknown | ID: 386</text>
</a>
</g>
</g>
<!-- ACCOUNT MANIPULATION
snmp | ID: 938&#45;&gt;BRUTE FORCE CREDENTIALS
unknown | ID: 386 -->
<g id="edge27" class="edge">
<title>ACCOUNT MANIPULATION
snmp | ID: 938&#45;&gt;BRUTE FORCE CREDENTIALS
unknown | ID: 386</title>
<path fill="none" stroke="blue" stroke-width="5" d="M1559.74,-1205.55C1559.74,-1230.91 1559.74,-1267.88 1559.74,-1295.88"/>
<polygon fill="blue" stroke="blue" stroke-width="5" points="1555.36,-1296.14 1559.74,-1306.14 1564.11,-1296.14 1555.36,-1296.14"/>
<text text-anchor="middle" x="1690.74" y="-1263.39" font-family="Arial" font-size="20.00" fill="blue">start_next: 04/11/17, 18:02:11</text>
<text text-anchor="middle" x="1690.74" y="-1241.39" font-family="Arial" font-size="20.00" fill="blue">gap: &#45;7sec</text>
<text text-anchor="middle" x="1690.74" y="-1219.39" font-family="Arial" font-size="20.00" fill="blue">end_prev: 04/11/17, 18:02:18</text>
</g>
<!-- BRUTE FORCE CREDENTIALS
unknown | ID: 386&#45;&gt;DATA EXFILTRATION
unknown | ID: 57 -->
<g id="edge28" class="edge">
<title>BRUTE FORCE CREDENTIALS
unknown | ID: 386&#45;&gt;DATA EXFILTRATION
unknown | ID: 57</title>
<path fill="none" stroke="blue" stroke-width="5" d="M1567.66,-1366.77C1574.27,-1391.25 1583.87,-1426.87 1592.03,-1457.1"/>
<polygon fill="blue" stroke="blue" stroke-width="5" points="1587.9,-1458.61 1594.73,-1467.12 1596.35,-1456.33 1587.9,-1458.61"/>
<text text-anchor="middle" x="1723.24" y="-1443.37" font-family="Arial" font-size="20.00" fill="blue">start_next: 04/11/17, 18:02:53</text>
<text text-anchor="middle" x="1723.24" y="-1421.37" font-family="Arial" font-size="20.00" fill="blue">gap: &#45;3sec</text>
<text text-anchor="middle" x="1723.24" y="-1399.37" font-family="Arial" font-size="20.00" fill="blue">end_prev: 04/11/17, 18:02:56</text>
</g>
</g>
</svg>
