<?xml version="1.0" encoding="UTF-8" standalone="no"?>
<!DOCTYPE svg PUBLIC "-//W3C//DTD SVG 1.1//EN"
 "http://www.w3.org/Graphics/SVG/1.1/DTD/svg11.dtd">
<!-- Generated by graphviz version 2.50.0 (0)
 -->
<!-- Title: DATAEXFILTRATIONwsman Pages: 1 -->
<svg width="1235pt" height="2816pt"
 viewBox="0.00 0.00 1235.12 2816.22" xmlns="http://www.w3.org/2000/svg" xmlns:xlink="http://www.w3.org/1999/xlink">
<g id="graph0" class="graph" transform="scale(1 1) rotate(0) translate(4 2812.22)">
<title>DATAEXFILTRATIONwsman</title>
<polygon fill="white" stroke="transparent" points="-4,4 -4,-2812.22 1231.12,-2812.22 1231.12,4 -4,4"/>
<!-- Victim: 10.0.0.221
DATA EXFILTRATION
wsman -->
<g id="node1" class="node">
<title>Victim: 10.0.0.221
DATA EXFILTRATION
wsman</title>
<polygon fill="salmon" stroke="black" stroke-width="3" points="727.34,-2711.2 727.34,-2765.59 614.74,-2804.05 455.51,-2804.05 342.91,-2765.59 342.91,-2711.2 455.51,-2672.74 614.74,-2672.74 727.34,-2711.2"/>
<polygon fill="none" stroke="black" stroke-width="3" points="731.34,-2708.35 731.34,-2768.44 615.41,-2808.04 454.84,-2808.04 338.91,-2768.44 338.91,-2708.35 454.84,-2668.75 615.41,-2668.75 731.34,-2708.35"/>
<text text-anchor="middle" x="535.12" y="-2758.19" font-family="Arial" font-size="24.00">Victim: 10.0.0.221</text>
<text text-anchor="middle" x="535.12" y="-2732.19" font-family="Arial" font-size="24.00">DATA EXFILTRATION</text>
<text text-anchor="middle" x="535.12" y="-2706.19" font-family="Arial" font-size="24.00">wsman</text>
</g>
<!-- DATA EXFILTRATION
wsman | ID: 63 -->
<g id="node2" class="node">
<title>DATA EXFILTRATION
wsman | ID: 63</title>
<g id="a_node2"><a xlink:title="ET WEB_SPECIFIC_APPS PHP&#45;CGI query string parameter vulnerability">
<polygon fill="salmon" stroke="black" stroke-width="3" points="740,-2602.58 637.56,-2651.56 432.68,-2651.56 330.24,-2602.58 432.68,-2553.6 637.56,-2553.6 740,-2602.58"/>
<text text-anchor="middle" x="535.12" y="-2609.38" font-family="Arial" font-size="24.00">DATA EXFILTRATION</text>
<text text-anchor="middle" x="535.12" y="-2583.38" font-family="Arial" font-size="24.00">wsman | ID: 63</text>
</a>
</g>
</g>
<!-- DATA EXFILTRATION
wsman | ID: 63&#45;&gt;Victim: 10.0.0.221
DATA EXFILTRATION
wsman -->
<g id="edge1" class="edge">
<title>DATA EXFILTRATION
wsman | ID: 63&#45;&gt;Victim: 10.0.0.221
DATA EXFILTRATION
wsman</title>
<path fill="none" stroke="black" stroke-width="5" d="M535.12,-2651.89C535.12,-2654 535.12,-2656.13 535.12,-2658.28"/>
<polygon fill="black" stroke="black" stroke-width="5" points="530.75,-2658.43 535.12,-2668.43 539.5,-2658.43 530.75,-2658.43"/>
</g>
<!-- SERVICE DISCOVERY
epmap -->
<g id="node3" class="node">
<title>SERVICE DISCOVERY
epmap</title>
<g id="a_node3"><a xlink:title="ET SCAN Behavioral Unusual Port 135 traffic Potential Scan or Infection&#10;ET SCAN Behavioral Unusual Port 139 traffic Potential Scan or Infection">
<ellipse fill="yellow" stroke="black" stroke-width="3" cx="241.12" cy="-723.84" rx="189.51" ry="42.35"/>
<text text-anchor="middle" x="241.12" y="-730.64" font-family="Arial" font-size="24.00">SERVICE DISCOVERY</text>
<text text-anchor="middle" x="241.12" y="-704.64" font-family="Arial" font-size="24.00">epmap</text>
</a>
</g>
</g>
<!-- ACCOUNT MANIPULATION
snmp | ID: 326 -->
<g id="node4" class="node">
<title>ACCOUNT MANIPULATION
snmp | ID: 326</title>
<g id="a_node4"><a xlink:title="GPL SNMP private access udp&#10;GPL SNMP public access udp">
<polygon fill="none" stroke="black" stroke-width="3" stroke-dasharray="1,5" points="401.12,-934.69 81.12,-934.69 81.12,-874.69 401.12,-874.69 401.12,-934.69"/>
<text text-anchor="middle" x="241.12" y="-911.49" font-family="Arial" font-size="24.00">ACCOUNT MANIPULATION</text>
<text text-anchor="middle" x="241.12" y="-885.49" font-family="Arial" font-size="24.00">snmp | ID: 326</text>
</a>
</g>
</g>
<!-- SERVICE DISCOVERY
epmap&#45;&gt;ACCOUNT MANIPULATION
snmp | ID: 326 -->
<g id="edge2" class="edge">
<title>SERVICE DISCOVERY
epmap&#45;&gt;ACCOUNT MANIPULATION
snmp | ID: 326</title>
<path fill="none" stroke="blue" stroke-width="5" d="M241.12,-766.32C241.12,-795.82 241.12,-835.21 241.12,-864.24"/>
<polygon fill="blue" stroke="blue" stroke-width="5" points="236.75,-864.43 241.12,-874.43 245.5,-864.43 236.75,-864.43"/>
<text text-anchor="start" x="241.12" y="-839.26" font-family="Arial" font-size="20.00" fill="blue"> start_next: 04/11/17, 14:01:59</text>
<text text-anchor="start" x="315.62" y="-819.26" font-family="Arial" font-size="20.00" fill="blue">gap: 4114sec</text>
<text text-anchor="start" x="245.12" y="-799.26" font-family="Arial" font-size="20.00" fill="blue">end_prev: 04/11/17, 12:53:25</text>
<text text-anchor="start" x="275.62" y="-779.26" font-family="Arial" font-weight="bold" font-size="20.00" fill="blue">Attacker: 10.0.254.31</text>
</g>
<!-- ARBITRARY CODE EXECUTION
microsoft&#45;ds | ID: 40 -->
<g id="node5" class="node">
<title>ARBITRARY CODE EXECUTION
microsoft&#45;ds | ID: 40</title>
<g id="a_node5"><a xlink:title="GPL MISC UPnP malformed advertisement&#10;GPL NETBIOS DCERPC Remote Activation bind attempt&#10;GPL NETBIOS SMB&#45;DS Session Setup NTMLSSP unicode asn1 overflow attempt&#10;GPL NETBIOS DCERPC IActivation little endian bind attempt">
<polygon fill="none" stroke="black" stroke-width="3" points="428.62,-1101.54 53.62,-1101.54 53.62,-1041.54 428.62,-1041.54 428.62,-1101.54"/>
<text text-anchor="middle" x="241.12" y="-1078.34" font-family="Arial" font-size="24.00">ARBITRARY CODE EXECUTION</text>
<text text-anchor="middle" x="241.12" y="-1052.34" font-family="Arial" font-size="24.00">microsoft&#45;ds | ID: 40</text>
</a>
</g>
</g>
<!-- ACCOUNT MANIPULATION
snmp | ID: 326&#45;&gt;ARBITRARY CODE EXECUTION
microsoft&#45;ds | ID: 40 -->
<g id="edge3" class="edge">
<title>ACCOUNT MANIPULATION
snmp | ID: 326&#45;&gt;ARBITRARY CODE EXECUTION
microsoft&#45;ds | ID: 40</title>
<path fill="none" stroke="blue" stroke-width="5" d="M241.12,-934.78C241.12,-961.66 241.12,-1001.78 241.12,-1031.45"/>
<polygon fill="blue" stroke="blue" stroke-width="5" points="236.75,-1031.46 241.12,-1041.46 245.5,-1031.46 236.75,-1031.46"/>
<text text-anchor="middle" x="372.62" y="-1005.12" font-family="Arial" font-size="20.00" fill="blue">start_next: 04/11/17, 14:02:06</text>
<text text-anchor="middle" x="372.62" y="-983.12" font-family="Arial" font-size="20.00" fill="blue">gap: &#45;225sec</text>
<text text-anchor="middle" x="372.62" y="-961.12" font-family="Arial" font-size="20.00" fill="blue">end_prev: 04/11/17, 14:05:51</text>
</g>
<!-- SERVICE DISCOVERY
microsoft&#45;ds -->
<g id="node6" class="node">
<title>SERVICE DISCOVERY
microsoft&#45;ds</title>
<g id="a_node6"><a xlink:title="ET SCAN Behavioral Unusual Port 445 traffic Potential Scan or Infection">
<ellipse fill="none" stroke="black" stroke-width="3" cx="241.12" cy="-1244.96" rx="189.51" ry="42.35"/>
<text text-anchor="middle" x="241.12" y="-1251.76" font-family="Arial" font-size="24.00">SERVICE DISCOVERY</text>
<text text-anchor="middle" x="241.12" y="-1225.76" font-family="Arial" font-size="24.00">microsoft&#45;ds</text>
</a>
</g>
</g>
<!-- ARBITRARY CODE EXECUTION
microsoft&#45;ds | ID: 40&#45;&gt;SERVICE DISCOVERY
microsoft&#45;ds -->
<g id="edge4" class="edge">
<title>ARBITRARY CODE EXECUTION
microsoft&#45;ds | ID: 40&#45;&gt;SERVICE DISCOVERY
microsoft&#45;ds</title>
<path fill="none" stroke="blue" stroke-width="5" d="M241.12,-1101.62C241.12,-1126.4 241.12,-1162.61 241.12,-1192.31"/>
<polygon fill="blue" stroke="blue" stroke-width="5" points="236.75,-1192.51 241.12,-1202.51 245.5,-1192.51 236.75,-1192.51"/>
<text text-anchor="middle" x="372.62" y="-1171.97" font-family="Arial" font-size="20.00" fill="blue">start_next: 04/11/17, 14:02:15</text>
<text text-anchor="middle" x="372.62" y="-1149.97" font-family="Arial" font-size="20.00" fill="blue">gap: &#45;263sec</text>
<text text-anchor="middle" x="372.62" y="-1127.97" font-family="Arial" font-size="20.00" fill="blue">end_prev: 04/11/17, 14:06:37</text>
</g>
<!-- VULNERABILTY DISCOVERY
ahsp -->
<g id="node7" class="node">
<title>VULNERABILTY DISCOVERY
ahsp</title>
<g id="a_node7"><a xlink:title="ET POLICY Suspicious inbound to mySQL port 3306&#10;ET POLICY Suspicious inbound to mSQL port 4333">
<ellipse fill="none" stroke="black" stroke-width="3" cx="241.12" cy="-1418.38" rx="241.25" ry="42.35"/>
<text text-anchor="middle" x="241.12" y="-1425.18" font-family="Arial" font-size="24.00">VULNERABILTY DISCOVERY</text>
<text text-anchor="middle" x="241.12" y="-1399.18" font-family="Arial" font-size="24.00">ahsp</text>
</a>
</g>
</g>
<!-- SERVICE DISCOVERY
microsoft&#45;ds&#45;&gt;VULNERABILTY DISCOVERY
ahsp -->
<g id="edge5" class="edge">
<title>SERVICE DISCOVERY
microsoft&#45;ds&#45;&gt;VULNERABILTY DISCOVERY
ahsp</title>
<path fill="none" stroke="blue" stroke-width="5" d="M241.12,-1287.45C241.12,-1310.97 241.12,-1340.59 241.12,-1365.62"/>
<polygon fill="blue" stroke="blue" stroke-width="5" points="236.75,-1365.67 241.12,-1375.67 245.5,-1365.67 236.75,-1365.67"/>
<text text-anchor="middle" x="372.62" y="-1351.95" font-family="Arial" font-size="20.00" fill="blue">start_next: 04/11/17, 14:03:02</text>
<text text-anchor="middle" x="372.62" y="-1329.95" font-family="Arial" font-size="20.00" fill="blue">gap: &#45;181sec</text>
<text text-anchor="middle" x="372.62" y="-1307.95" font-family="Arial" font-size="20.00" fill="blue">end_prev: 04/11/17, 14:06:04</text>
</g>
<!-- NETWORK DoS
ssdp | ID: 55 -->
<g id="node8" class="node">
<title>NETWORK DoS
ssdp | ID: 55</title>
<g id="a_node8"><a xlink:title="ET DOS Possible SSDP Amplification Scan in Progress&#10;ET DOS Microsoft Remote Desktop (RDP) Syn then Reset 30 Second DoS Attempt">
<polygon fill="none" stroke="black" stroke-width="3" points="421.66,-1591.79 343.39,-1640.77 186.86,-1640.77 108.59,-1591.79 186.86,-1542.81 343.39,-1542.81 421.66,-1591.79"/>
<text text-anchor="middle" x="265.12" y="-1598.59" font-family="Arial" font-size="24.00">NETWORK DoS</text>
<text text-anchor="middle" x="265.12" y="-1572.59" font-family="Arial" font-size="24.00">ssdp | ID: 55</text>
</a>
</g>
</g>
<!-- VULNERABILTY DISCOVERY
ahsp&#45;&gt;NETWORK DoS
ssdp | ID: 55 -->
<g id="edge6" class="edge">
<title>VULNERABILTY DISCOVERY
ahsp&#45;&gt;NETWORK DoS
ssdp | ID: 55</title>
<path fill="none" stroke="blue" stroke-width="5" d="M246.93,-1460.87C249.94,-1482.36 253.67,-1508.96 256.96,-1532.48"/>
<polygon fill="blue" stroke="blue" stroke-width="5" points="252.67,-1533.4 258.39,-1542.7 261.34,-1532.19 252.67,-1533.4"/>
<text text-anchor="middle" x="388.62" y="-1518.8" font-family="Arial" font-size="20.00" fill="blue">start_next: 04/11/17, 14:04:52</text>
<text text-anchor="middle" x="388.62" y="-1496.8" font-family="Arial" font-size="20.00" fill="blue">gap: 32sec</text>
<text text-anchor="middle" x="388.62" y="-1474.8" font-family="Arial" font-size="20.00" fill="blue">end_prev: 04/11/17, 14:04:19</text>
</g>
<!-- INFO DISCOVERY
xdmcp -->
<g id="node9" class="node">
<title>INFO DISCOVERY
xdmcp</title>
<g id="a_node9"><a xlink:title="GPL WEB_SERVER mod_gzip_status access&#10;GPL RPC xdmcp info query">
<ellipse fill="none" stroke="black" stroke-width="3" cx="366.12" cy="-1765.21" rx="156.04" ry="42.35"/>
<text text-anchor="middle" x="366.12" y="-1772.01" font-family="Arial" font-size="24.00">INFO DISCOVERY</text>
<text text-anchor="middle" x="366.12" y="-1746.01" font-family="Arial" font-size="24.00">xdmcp</text>
</a>
</g>
</g>
<!-- NETWORK DoS
ssdp | ID: 55&#45;&gt;INFO DISCOVERY
xdmcp -->
<g id="edge7" class="edge">
<title>NETWORK DoS
ssdp | ID: 55&#45;&gt;INFO DISCOVERY
xdmcp</title>
<path fill="none" stroke="blue" stroke-width="5" d="M293.53,-1641C307.03,-1663.91 323.16,-1691.29 336.78,-1714.41"/>
<polygon fill="blue" stroke="blue" stroke-width="5" points="333.02,-1716.65 341.87,-1723.04 340.56,-1712.2 333.02,-1716.65"/>
<text text-anchor="middle" x="468.62" y="-1698.78" font-family="Arial" font-size="20.00" fill="blue">start_next: 04/11/17, 14:05:16</text>
<text text-anchor="middle" x="468.62" y="-1676.78" font-family="Arial" font-size="20.00" fill="blue">gap: &#45;7sec</text>
<text text-anchor="middle" x="468.62" y="-1654.78" font-family="Arial" font-size="20.00" fill="blue">end_prev: 04/11/17, 14:05:23</text>
</g>
<!-- REMOTE SERVICE EXPLOIT
snmp | ID: 1368 -->
<g id="node10" class="node">
<title>REMOTE SERVICE EXPLOIT
snmp | ID: 1368</title>
<g id="a_node10"><a xlink:title="ET SNMP Samsung Printer SNMP Hardcode RW Community String">
<polygon fill="none" stroke="black" stroke-width="3" stroke-dasharray="1,5" points="493.12,-1949.63 155.12,-1949.63 155.12,-1889.63 493.12,-1889.63 493.12,-1949.63"/>
<text text-anchor="middle" x="324.12" y="-1926.43" font-family="Arial" font-size="24.00">REMOTE SERVICE EXPLOIT</text>
<text text-anchor="middle" x="324.12" y="-1900.43" font-family="Arial" font-size="24.00">snmp | ID: 1368</text>
</a>
</g>
</g>
<!-- INFO DISCOVERY
xdmcp&#45;&gt;REMOTE SERVICE EXPLOIT
snmp | ID: 1368 -->
<g id="edge8" class="edge">
<title>INFO DISCOVERY
xdmcp&#45;&gt;REMOTE SERVICE EXPLOIT
snmp | ID: 1368</title>
<path fill="none" stroke="blue" stroke-width="5" d="M354.65,-1807.86C348.45,-1830.33 340.86,-1857.89 334.8,-1879.9"/>
<polygon fill="blue" stroke="blue" stroke-width="5" points="330.57,-1878.78 332.13,-1889.58 339,-1881.1 330.57,-1878.78"/>
<text text-anchor="middle" x="483.62" y="-1865.63" font-family="Arial" font-size="20.00" fill="blue">start_next: 04/11/17, 14:05:16</text>
<text text-anchor="middle" x="483.62" y="-1843.63" font-family="Arial" font-size="20.00" fill="blue">gap: &#45;77sec</text>
<text text-anchor="middle" x="483.62" y="-1821.63" font-family="Arial" font-size="20.00" fill="blue">end_prev: 04/11/17, 14:06:33</text>
</g>
<!-- REMOTE SERVICE EXPLOIT
snmp | ID: 299 -->
<g id="node25" class="node">
<title>REMOTE SERVICE EXPLOIT
snmp | ID: 299</title>
<g id="a_node25"><a xlink:title="ET SNMP Samsung Printer SNMP Hardcode RW Community String">
<polygon fill="none" stroke="black" stroke-width="3" points="841.12,-1949.63 503.12,-1949.63 503.12,-1889.63 841.12,-1889.63 841.12,-1949.63"/>
<text text-anchor="middle" x="672.12" y="-1926.43" font-family="Arial" font-size="24.00">REMOTE SERVICE EXPLOIT</text>
<text text-anchor="middle" x="672.12" y="-1900.43" font-family="Arial" font-size="24.00">snmp | ID: 299</text>
</a>
</g>
</g>
<!-- INFO DISCOVERY
xdmcp&#45;&gt;REMOTE SERVICE EXPLOIT
snmp | ID: 299 -->
<g id="edge25" class="edge">
<title>INFO DISCOVERY
xdmcp&#45;&gt;REMOTE SERVICE EXPLOIT
snmp | ID: 299</title>
<path fill="none" stroke="blue" stroke-width="5" d="M507.27,-1783.55C553.5,-1791.45 597.72,-1802.1 616.12,-1815.63 637.55,-1831.39 651.69,-1857.89 660.41,-1880.07"/>
<polygon fill="blue" stroke="blue" stroke-width="5" points="656.35,-1881.72 663.92,-1889.58 664.56,-1878.69 656.35,-1881.72"/>
<text text-anchor="middle" x="791.62" y="-1865.63" font-family="Arial" font-size="20.00" fill="blue">start_next: 04/11/17, 18:04:54</text>
<text text-anchor="middle" x="791.62" y="-1843.63" font-family="Arial" font-size="20.00" fill="blue">gap: &#45;49sec</text>
<text text-anchor="middle" x="791.62" y="-1821.63" font-family="Arial" font-size="20.00" fill="blue">end_prev: 04/11/17, 18:05:43</text>
</g>
<!-- COMMAND AND CONTROL
unknown | ID: 956 -->
<g id="node11" class="node">
<title>COMMAND AND CONTROL
unknown | ID: 956</title>
<g id="a_node11"><a xlink:title="ET POLICY RDP connection confirm">
<polygon fill="none" stroke="black" stroke-width="3" points="345.62,-2207.61 22.62,-2207.61 22.62,-2147.61 345.62,-2147.61 345.62,-2207.61"/>
<text text-anchor="middle" x="184.12" y="-2184.41" font-family="Arial" font-size="24.00">COMMAND AND CONTROL</text>
<text text-anchor="middle" x="184.12" y="-2158.41" font-family="Arial" font-size="24.00">unknown | ID: 956</text>
</a>
</g>
</g>
<!-- REMOTE SERVICE EXPLOIT
snmp | ID: 1368&#45;&gt;COMMAND AND CONTROL
unknown | ID: 956 -->
<g id="edge9" class="edge">
<title>REMOTE SERVICE EXPLOIT
snmp | ID: 1368&#45;&gt;COMMAND AND CONTROL
unknown | ID: 956</title>
<path fill="none" stroke="blue" stroke-width="5" d="M271.98,-1949.75C243.03,-1968.95 209.45,-1996.95 192.12,-2031.63 175.75,-2064.41 175.39,-2106.71 178.14,-2137.15"/>
<polygon fill="blue" stroke="blue" stroke-width="5" points="173.82,-2137.9 179.22,-2147.39 182.52,-2136.98 173.82,-2137.9"/>
<text text-anchor="middle" x="390.62" y="-2007.63" font-family="Arial" font-size="20.00" fill="blue">start_next: 04/11/17, 14:05:42</text>
<text text-anchor="middle" x="390.62" y="-1985.63" font-family="Arial" font-size="20.00" fill="blue">gap: 26sec</text>
<text text-anchor="middle" x="390.62" y="-1963.63" font-family="Arial" font-size="20.00" fill="blue">end_prev: 04/11/17, 14:05:16</text>
</g>
<!-- DATA DELIVERY
wsman | ID: 399 -->
<g id="node12" class="node">
<title>DATA DELIVERY
wsman | ID: 399</title>
<g id="a_node12"><a xlink:title="GPL WEB_SERVER perl post attempt">
<polygon fill="none" stroke="black" stroke-width="3" points="557.22,-2422.6 475.67,-2471.58 312.57,-2471.58 231.02,-2422.6 312.57,-2373.62 475.67,-2373.62 557.22,-2422.6"/>
<text text-anchor="middle" x="394.12" y="-2429.4" font-family="Arial" font-size="24.00">DATA DELIVERY</text>
<text text-anchor="middle" x="394.12" y="-2403.4" font-family="Arial" font-size="24.00">wsman | ID: 399</text>
</a>
</g>
</g>
<!-- COMMAND AND CONTROL
unknown | ID: 956&#45;&gt;DATA DELIVERY
wsman | ID: 399 -->
<g id="edge10" class="edge">
<title>COMMAND AND CONTROL
unknown | ID: 956&#45;&gt;DATA DELIVERY
wsman | ID: 399</title>
<path fill="none" stroke="blue" stroke-width="5" d="M190.51,-2207.67C196.86,-2231.85 208.41,-2266.29 227.12,-2291.61 248.59,-2320.66 278.19,-2346.56 306.52,-2367.46"/>
<polygon fill="blue" stroke="blue" stroke-width="5" points="304.2,-2371.18 314.86,-2373.5 309.33,-2364.09 304.2,-2371.18"/>
<text text-anchor="middle" x="358.62" y="-2275.61" font-family="Arial" font-size="20.00" fill="blue">start_next: 04/11/17, 14:06:35</text>
<text text-anchor="middle" x="358.62" y="-2253.61" font-family="Arial" font-size="20.00" fill="blue">gap: &#45;62sec</text>
<text text-anchor="middle" x="358.62" y="-2231.61" font-family="Arial" font-size="20.00" fill="blue">end_prev: 04/11/17, 14:07:37</text>
</g>
<!-- DATA DELIVERY
wsman | ID: 399&#45;&gt;DATA EXFILTRATION
wsman | ID: 63 -->
<g id="edge11" class="edge">
<title>DATA DELIVERY
wsman | ID: 399&#45;&gt;DATA EXFILTRATION
wsman | ID: 63</title>
<path fill="none" stroke="blue" stroke-width="5" d="M533.88,-2436.71C589.78,-2445.11 645,-2458.52 662.12,-2479.59 680.62,-2502.36 678.14,-2521.02 662.12,-2545.59 660.66,-2547.85 659.07,-2550.01 657.39,-2552.08"/>
<polygon fill="blue" stroke="blue" stroke-width="5" points="653.97,-2549.34 650.43,-2559.67 660.42,-2555.26 653.97,-2549.34"/>
<text text-anchor="middle" x="805.62" y="-2529.59" font-family="Arial" font-size="20.00" fill="blue">start_next: 04/11/17, 14:06:38</text>
<text text-anchor="middle" x="805.62" y="-2507.59" font-family="Arial" font-size="20.00" fill="blue">gap: 3sec</text>
<text text-anchor="middle" x="805.62" y="-2485.59" font-family="Arial" font-size="20.00" fill="blue">end_prev: 04/11/17, 14:06:35</text>
</g>
<!-- DATA DELIVERY
wsman | ID: 399&#45;&gt;DATA EXFILTRATION
wsman | ID: 63 -->
<g id="edge14" class="edge">
<title>DATA DELIVERY
wsman | ID: 399&#45;&gt;DATA EXFILTRATION
wsman | ID: 63</title>
<path fill="none" stroke="blue" stroke-width="5" d="M254.52,-2436.83C198.95,-2445.24 144.14,-2458.64 127.12,-2479.59 108.63,-2502.36 107.84,-2523.49 127.12,-2545.59 154.56,-2577.05 241.83,-2591.46 328.65,-2597.83"/>
<polygon fill="blue" stroke="blue" stroke-width="5" points="328.4,-2602.2 338.68,-2598.53 329.01,-2593.47 328.4,-2602.2"/>
<text text-anchor="middle" x="258.62" y="-2529.59" font-family="Arial" font-size="20.00" fill="blue">start_next: 04/11/17, 16:35:20</text>
<text text-anchor="middle" x="258.62" y="-2507.59" font-family="Arial" font-size="20.00" fill="blue">gap: 2sec</text>
<text text-anchor="middle" x="258.62" y="-2485.59" font-family="Arial" font-size="20.00" fill="blue">end_prev: 04/11/17, 16:35:17</text>
</g>
<!-- DATA DELIVERY
wsman | ID: 399&#45;&gt;DATA EXFILTRATION
wsman | ID: 63 -->
<g id="edge29" class="edge">
<title>DATA DELIVERY
wsman | ID: 399&#45;&gt;DATA EXFILTRATION
wsman | ID: 63</title>
<path fill="none" stroke="blue" stroke-width="5" d="M390.49,-2471.73C389.29,-2500.57 389.96,-2533.85 398.12,-2545.59 400.6,-2549.15 403.34,-2552.49 406.31,-2555.61"/>
<polygon fill="blue" stroke="blue" stroke-width="5" points="403.35,-2558.82 413.62,-2562.52 409.36,-2552.47 403.35,-2558.82"/>
<text text-anchor="middle" x="529.62" y="-2529.59" font-family="Arial" font-size="20.00" fill="blue">start_next: 04/11/17, 18:05:49</text>
<text text-anchor="middle" x="529.62" y="-2507.59" font-family="Arial" font-size="20.00" fill="blue">gap: 3sec</text>
<text text-anchor="middle" x="529.62" y="-2485.59" font-family="Arial" font-size="20.00" fill="blue">end_prev: 04/11/17, 18:05:45</text>
</g>
<!-- COMMAND AND CONTROL
unknown | ID: 308 -->
<g id="node13" class="node">
<title>COMMAND AND CONTROL
unknown | ID: 308</title>
<g id="a_node13"><a xlink:title="ET POLICY RDP connection confirm">
<polygon fill="yellow" stroke="black" stroke-width="3" points="518.62,-2110.62 195.62,-2110.62 195.62,-2050.62 518.62,-2050.62 518.62,-2110.62"/>
<text text-anchor="middle" x="357.12" y="-2087.42" font-family="Arial" font-size="24.00">COMMAND AND CONTROL</text>
<text text-anchor="middle" x="357.12" y="-2061.42" font-family="Arial" font-size="24.00">unknown | ID: 308</text>
</a>
</g>
</g>
<!-- ACCOUNT MANIPULATION
snmp | ID: 53 -->
<g id="node14" class="node">
<title>ACCOUNT MANIPULATION
snmp | ID: 53</title>
<g id="a_node14"><a xlink:title="GPL SNMP private access udp&#10;GPL SNMP public access udp">
<polygon fill="none" stroke="black" stroke-width="3" points="814.12,-2288.61 494.12,-2288.61 494.12,-2228.61 814.12,-2228.61 814.12,-2288.61"/>
<text text-anchor="middle" x="654.12" y="-2265.41" font-family="Arial" font-size="24.00">ACCOUNT MANIPULATION</text>
<text text-anchor="middle" x="654.12" y="-2239.41" font-family="Arial" font-size="24.00">snmp | ID: 53</text>
</a>
</g>
</g>
<!-- COMMAND AND CONTROL
unknown | ID: 308&#45;&gt;ACCOUNT MANIPULATION
snmp | ID: 53 -->
<g id="edge12" class="edge">
<title>COMMAND AND CONTROL
unknown | ID: 308&#45;&gt;ACCOUNT MANIPULATION
snmp | ID: 53</title>
<path fill="none" stroke="blue" stroke-width="5" d="M354.92,-2110.74C354.29,-2142.2 358.78,-2191.34 389.12,-2217.61 404.47,-2230.9 460.01,-2222.89 480.12,-2225.61 483.58,-2226.08 487.06,-2226.57 490.58,-2227.08"/>
<polygon fill="blue" stroke="blue" stroke-width="5" points="490.01,-2231.42 500.54,-2228.56 491.29,-2222.76 490.01,-2231.42"/>
<text text-anchor="start" x="389.12" y="-2202.61" font-family="Arial" font-size="20.00" fill="blue"> start_next: 04/11/17, 16:34:29</text>
<text text-anchor="start" x="466.62" y="-2182.61" font-family="Arial" font-size="20.00" fill="blue">gap: &#45;111sec</text>
<text text-anchor="start" x="393.12" y="-2162.61" font-family="Arial" font-size="20.00" fill="blue">end_prev: 04/11/17, 16:36:20</text>
<text text-anchor="start" x="423.62" y="-2142.61" font-family="Arial" font-weight="bold" font-size="20.00" fill="blue">Attacker: 10.0.254.31</text>
</g>
<!-- ACCOUNT MANIPULATION
snmp | ID: 53&#45;&gt;DATA DELIVERY
wsman | ID: 399 -->
<g id="edge13" class="edge">
<title>ACCOUNT MANIPULATION
snmp | ID: 53&#45;&gt;DATA DELIVERY
wsman | ID: 399</title>
<path fill="none" stroke="blue" stroke-width="5" d="M660.53,-2288.79C663.88,-2312.33 664.13,-2344.83 646.12,-2365.61 630.96,-2383.13 586.93,-2395.63 539.84,-2404.31"/>
<polygon fill="blue" stroke="blue" stroke-width="5" points="538.83,-2400.04 529.75,-2406.1 540.36,-2408.66 538.83,-2400.04"/>
<text text-anchor="middle" x="793.62" y="-2349.61" font-family="Arial" font-size="20.00" fill="blue">start_next: 04/11/17, 16:35:17</text>
<text text-anchor="middle" x="793.62" y="-2327.61" font-family="Arial" font-size="20.00" fill="blue">gap: 45sec</text>
<text text-anchor="middle" x="793.62" y="-2305.61" font-family="Arial" font-size="20.00" fill="blue">end_prev: 04/11/17, 16:34:33</text>
</g>
<!-- ACCOUNT MANIPULATION
snmp | ID: 53&#45;&gt;DATA DELIVERY
wsman | ID: 399 -->
<g id="edge28" class="edge">
<title>ACCOUNT MANIPULATION
snmp | ID: 53&#45;&gt;DATA DELIVERY
wsman | ID: 399</title>
<path fill="none" stroke="blue" stroke-width="5" d="M501.02,-2288.65C493.97,-2289.71 486.97,-2290.71 480.12,-2291.61 469.29,-2293.05 389.53,-2291.58 382.12,-2299.61 366.48,-2316.58 366.25,-2341.07 371.17,-2363.66"/>
<polygon fill="blue" stroke="blue" stroke-width="5" points="366.97,-2364.9 373.66,-2373.53 375.46,-2362.76 366.97,-2364.9"/>
<text text-anchor="middle" x="513.62" y="-2349.61" font-family="Arial" font-size="20.00" fill="blue">start_next: 04/11/17, 18:05:45</text>
<text text-anchor="middle" x="513.62" y="-2327.61" font-family="Arial" font-size="20.00" fill="blue">gap: 19sec</text>
<text text-anchor="middle" x="513.62" y="-2305.61" font-family="Arial" font-size="20.00" fill="blue">end_prev: 04/11/17, 18:05:26</text>
</g>
<!-- HOST DISCOVERY
wsman -->
<g id="node15" class="node">
<title>HOST DISCOVERY
wsman</title>
<g id="a_node15"><a xlink:title="ET SCAN Possible Nmap User&#45;Agent Observed&#10;ET SCAN Nmap Scripting Engine User&#45;Agent Detected (Nmap Scripting Engine)">
<ellipse fill="yellow" stroke="black" stroke-width="3" cx="815.12" cy="-42.43" rx="162.77" ry="42.35"/>
<text text-anchor="middle" x="815.12" y="-49.23" font-family="Arial" font-size="24.00">HOST DISCOVERY</text>
<text text-anchor="middle" x="815.12" y="-23.23" font-family="Arial" font-size="24.00">wsman</text>
</a>
</g>
</g>
<!-- SURFING
wsman -->
<g id="node16" class="node">
<title>SURFING
wsman</title>
<g id="a_node16"><a xlink:title="ET WEB_SERVER WEB&#45;PHP phpinfo access">
<ellipse fill="none" stroke="black" stroke-width="3" cx="815.12" cy="-223.28" rx="88.28" ry="42.35"/>
<text text-anchor="middle" x="815.12" y="-230.08" font-family="Arial" font-size="24.00">SURFING</text>
<text text-anchor="middle" x="815.12" y="-204.08" font-family="Arial" font-size="24.00">wsman</text>
</a>
</g>
</g>
<!-- HOST DISCOVERY
wsman&#45;&gt;SURFING
wsman -->
<g id="edge15" class="edge">
<title>HOST DISCOVERY
wsman&#45;&gt;SURFING
wsman</title>
<path fill="none" stroke="blue" stroke-width="5" d="M699.75,-72.46C691.81,-78.1 684.75,-84.83 679.12,-92.85 658.72,-121.97 658.72,-143.73 679.12,-172.85 689.64,-187.87 705.22,-198.34 722.11,-205.64"/>
<polygon fill="blue" stroke="blue" stroke-width="5" points="720.7,-209.79 731.61,-209.38 723.91,-201.64 720.7,-209.79"/>
<text text-anchor="start" x="679.12" y="-157.85" font-family="Arial" font-size="20.00" fill="blue"> start_next: 04/11/17, 16:36:32</text>
<text text-anchor="start" x="769.62" y="-137.85" font-family="Arial" font-size="20.00" fill="blue">gap: 2sec</text>
<text text-anchor="start" x="683.12" y="-117.85" font-family="Arial" font-size="20.00" fill="blue">end_prev: 04/11/17, 16:36:30</text>
<text text-anchor="start" x="713.62" y="-97.85" font-family="Arial" font-weight="bold" font-size="20.00" fill="blue">Attacker: 10.0.254.31</text>
</g>
<!-- HOST DISCOVERY
wsman&#45;&gt;SURFING
wsman -->
<g id="edge30" class="edge">
<title>HOST DISCOVERY
wsman&#45;&gt;SURFING
wsman</title>
<path fill="none" stroke="purple" stroke-width="5" d="M925.49,-73.79C932.66,-79.14 939.03,-85.44 944.12,-92.85 964.27,-122.15 964.27,-143.56 944.12,-172.85 934.84,-186.35 921.32,-196.17 906.49,-203.3"/>
<polygon fill="purple" stroke="purple" stroke-width="5" points="904.52,-199.39 897.12,-207.41 908.03,-207.41 904.52,-199.39"/>
<text text-anchor="start" x="959.12" y="-157.85" font-family="Arial" font-size="20.00" fill="purple"> start_next: 04/11/17, 14:07:12</text>
<text text-anchor="start" x="1044.12" y="-137.85" font-family="Arial" font-size="20.00" fill="purple">gap: 39sec</text>
<text text-anchor="start" x="963.12" y="-117.85" font-family="Arial" font-size="20.00" fill="purple">end_prev: 04/11/17, 14:06:33</text>
<text text-anchor="start" x="993.62" y="-97.85" font-family="Arial" font-weight="bold" font-size="20.00" fill="purple">Attacker: 10.0.254.30</text>
</g>
<!-- SURFING
wsman&#45;&gt;DATA EXFILTRATION
wsman | ID: 63 -->
<g id="edge31" class="edge">
<title>SURFING
wsman&#45;&gt;DATA EXFILTRATION
wsman | ID: 63</title>
<path fill="none" stroke="purple" stroke-width="5" d="M896.4,-240.09C914.43,-247.4 931.6,-258.08 943.12,-273.71 973.66,-315.08 951.12,-337.71 951.12,-389.13 951.12,-389.13 951.12,-389.13 951.12,-2423.6 951.12,-2478.13 976.06,-2506.43 938.12,-2545.59 909.52,-2575.12 823.62,-2589.37 738.44,-2596.14"/>
<polygon fill="purple" stroke="purple" stroke-width="5" points="737.97,-2591.78 728.33,-2596.9 738.63,-2600.51 737.97,-2591.78"/>
<text text-anchor="middle" x="1082.62" y="-1435.38" font-family="Arial" font-size="20.00" fill="purple">start_next: 04/11/17, 14:07:12</text>
<text text-anchor="middle" x="1082.62" y="-1413.38" font-family="Arial" font-size="20.00" fill="purple">gap: 0sec</text>
<text text-anchor="middle" x="1082.62" y="-1391.38" font-family="Arial" font-size="20.00" fill="purple">end_prev: 04/11/17, 14:07:12</text>
</g>
<!-- HOST DISCOVERY
unknown -->
<g id="node17" class="node">
<title>HOST DISCOVERY
unknown</title>
<g id="a_node17"><a xlink:title="ET SCAN Possible Nmap User&#45;Agent Observed&#10;ET SCAN Nmap Scripting Engine User&#45;Agent Detected (Nmap Scripting Engine)">
<ellipse fill="none" stroke="black" stroke-width="3" cx="679.12" cy="-390.13" rx="162.77" ry="42.35"/>
<text text-anchor="middle" x="679.12" y="-396.93" font-family="Arial" font-size="24.00">HOST DISCOVERY</text>
<text text-anchor="middle" x="679.12" y="-370.93" font-family="Arial" font-size="24.00">unknown</text>
</a>
</g>
</g>
<!-- SURFING
wsman&#45;&gt;HOST DISCOVERY
unknown -->
<g id="edge16" class="edge">
<title>SURFING
wsman&#45;&gt;HOST DISCOVERY
unknown</title>
<path fill="none" stroke="blue" stroke-width="5" d="M732.69,-238.64C713.46,-245.96 695.13,-257.02 683.12,-273.71 670.08,-291.83 667.63,-316.03 669.02,-337.59"/>
<polygon fill="blue" stroke="blue" stroke-width="5" points="664.67,-338.04 669.95,-347.6 673.39,-337.24 664.67,-338.04"/>
<text text-anchor="middle" x="814.62" y="-323.71" font-family="Arial" font-size="20.00" fill="blue">start_next: 04/11/17, 16:51:27</text>
<text text-anchor="middle" x="814.62" y="-301.71" font-family="Arial" font-size="20.00" fill="blue">gap: 887sec</text>
<text text-anchor="middle" x="814.62" y="-279.71" font-family="Arial" font-size="20.00" fill="blue">end_prev: 04/11/17, 16:36:40</text>
</g>
<!-- VULNERABILTY DISCOVERY
unknown -->
<g id="node18" class="node">
<title>VULNERABILTY DISCOVERY
unknown</title>
<g id="a_node18"><a xlink:title="ET SCAN Nikto Web App Scan in Progress">
<ellipse fill="none" stroke="black" stroke-width="3" cx="679.12" cy="-556.98" rx="241.25" ry="42.35"/>
<text text-anchor="middle" x="679.12" y="-563.78" font-family="Arial" font-size="24.00">VULNERABILTY DISCOVERY</text>
<text text-anchor="middle" x="679.12" y="-537.78" font-family="Arial" font-size="24.00">unknown</text>
</a>
</g>
</g>
<!-- HOST DISCOVERY
unknown&#45;&gt;VULNERABILTY DISCOVERY
unknown -->
<g id="edge17" class="edge">
<title>HOST DISCOVERY
unknown&#45;&gt;VULNERABILTY DISCOVERY
unknown</title>
<path fill="none" stroke="blue" stroke-width="5" d="M679.12,-432.73C679.12,-454.4 679.12,-481.11 679.12,-504.12"/>
<polygon fill="blue" stroke="blue" stroke-width="5" points="674.75,-504.4 679.12,-514.4 683.5,-504.4 674.75,-504.4"/>
<text text-anchor="middle" x="810.62" y="-490.56" font-family="Arial" font-size="20.00" fill="blue">start_next: 04/11/17, 16:51:28</text>
<text text-anchor="middle" x="810.62" y="-468.56" font-family="Arial" font-size="20.00" fill="blue">gap: 0sec</text>
<text text-anchor="middle" x="810.62" y="-446.56" font-family="Arial" font-size="20.00" fill="blue">end_prev: 04/11/17, 16:51:27</text>
</g>
<!-- ARBITRARY CODE EXECUTION
unknown | ID: 47 -->
<g id="node19" class="node">
<title>ARBITRARY CODE EXECUTION
unknown | ID: 47</title>
<g id="a_node19"><a xlink:title="ET CURRENT_EVENTS QNAP Shellshock CVE&#45;2014&#45;6271">
<polygon fill="none" stroke="black" stroke-width="3" points="866.62,-753.84 491.62,-753.84 491.62,-693.84 866.62,-693.84 866.62,-753.84"/>
<text text-anchor="middle" x="679.12" y="-730.64" font-family="Arial" font-size="24.00">ARBITRARY CODE EXECUTION</text>
<text text-anchor="middle" x="679.12" y="-704.64" font-family="Arial" font-size="24.00">unknown | ID: 47</text>
</a>
</g>
</g>
<!-- VULNERABILTY DISCOVERY
unknown&#45;&gt;ARBITRARY CODE EXECUTION
unknown | ID: 47 -->
<g id="edge18" class="edge">
<title>VULNERABILTY DISCOVERY
unknown&#45;&gt;ARBITRARY CODE EXECUTION
unknown | ID: 47</title>
<path fill="none" stroke="blue" stroke-width="5" d="M679.12,-599.58C679.12,-625.4 679.12,-658.38 679.12,-683.72"/>
<polygon fill="blue" stroke="blue" stroke-width="5" points="674.75,-683.72 679.12,-693.72 683.5,-683.72 674.75,-683.72"/>
<text text-anchor="middle" x="810.62" y="-657.41" font-family="Arial" font-size="20.00" fill="blue">start_next: 04/11/17, 16:51:29</text>
<text text-anchor="middle" x="810.62" y="-635.41" font-family="Arial" font-size="20.00" fill="blue">gap: 1sec</text>
<text text-anchor="middle" x="810.62" y="-613.41" font-family="Arial" font-size="20.00" fill="blue">end_prev: 04/11/17, 16:51:28</text>
</g>
<!-- SURFING
unknown -->
<g id="node20" class="node">
<title>SURFING
unknown</title>
<g id="a_node20"><a xlink:title="ET WEB_SERVER WEB&#45;PHP phpinfo access">
<ellipse fill="none" stroke="black" stroke-width="3" cx="679.12" cy="-904.69" rx="88.28" ry="42.35"/>
<text text-anchor="middle" x="679.12" y="-911.49" font-family="Arial" font-size="24.00">SURFING</text>
<text text-anchor="middle" x="679.12" y="-885.49" font-family="Arial" font-size="24.00">unknown</text>
</a>
</g>
</g>
<!-- ARBITRARY CODE EXECUTION
unknown | ID: 47&#45;&gt;SURFING
unknown -->
<g id="edge19" class="edge">
<title>ARBITRARY CODE EXECUTION
unknown | ID: 47&#45;&gt;SURFING
unknown</title>
<path fill="none" stroke="blue" stroke-width="5" d="M679.12,-753.97C679.12,-780.5 679.12,-820.28 679.12,-852.16"/>
<polygon fill="blue" stroke="blue" stroke-width="5" points="674.75,-852.21 679.12,-862.21 683.5,-852.21 674.75,-852.21"/>
<text text-anchor="middle" x="810.62" y="-831.26" font-family="Arial" font-size="20.00" fill="blue">start_next: 04/11/17, 16:51:29</text>
<text text-anchor="middle" x="810.62" y="-809.26" font-family="Arial" font-size="20.00" fill="blue">gap: 1sec</text>
<text text-anchor="middle" x="810.62" y="-787.26" font-family="Arial" font-size="20.00" fill="blue">end_prev: 04/11/17, 16:51:29</text>
</g>
<!-- INFO DISCOVERY
unknown -->
<g id="node21" class="node">
<title>INFO DISCOVERY
unknown</title>
<g id="a_node21"><a xlink:title="GPL WEB_SERVER globals.pl access">
<ellipse fill="none" stroke="black" stroke-width="3" cx="679.12" cy="-1071.54" rx="156.04" ry="42.35"/>
<text text-anchor="middle" x="679.12" y="-1078.34" font-family="Arial" font-size="24.00">INFO DISCOVERY</text>
<text text-anchor="middle" x="679.12" y="-1052.34" font-family="Arial" font-size="24.00">unknown</text>
</a>
</g>
</g>
<!-- SURFING
unknown&#45;&gt;INFO DISCOVERY
unknown -->
<g id="edge20" class="edge">
<title>SURFING
unknown&#45;&gt;INFO DISCOVERY
unknown</title>
<path fill="none" stroke="blue" stroke-width="5" d="M679.12,-947.29C679.12,-968.96 679.12,-995.67 679.12,-1018.68"/>
<polygon fill="blue" stroke="blue" stroke-width="5" points="674.75,-1018.96 679.12,-1028.96 683.5,-1018.96 674.75,-1018.96"/>
<text text-anchor="middle" x="810.62" y="-1005.12" font-family="Arial" font-size="20.00" fill="blue">start_next: 04/11/17, 16:51:31</text>
<text text-anchor="middle" x="810.62" y="-983.12" font-family="Arial" font-size="20.00" fill="blue">gap: &#45;7sec</text>
<text text-anchor="middle" x="810.62" y="-961.12" font-family="Arial" font-size="20.00" fill="blue">end_prev: 04/11/17, 16:51:38</text>
</g>
<!-- DATA EXFILTRATION
unknown | ID: 57 -->
<g id="node22" class="node">
<title>DATA EXFILTRATION
unknown | ID: 57</title>
<g id="a_node22"><a xlink:title="ET WEB_SPECIFIC_APPS PHP&#45;CGI query string parameter vulnerability">
<polygon fill="none" stroke="black" stroke-width="3" points="884,-1244.96 781.56,-1293.94 576.68,-1293.94 474.24,-1244.96 576.68,-1195.98 781.56,-1195.98 884,-1244.96"/>
<text text-anchor="middle" x="679.12" y="-1251.76" font-family="Arial" font-size="24.00">DATA EXFILTRATION</text>
<text text-anchor="middle" x="679.12" y="-1225.76" font-family="Arial" font-size="24.00">unknown | ID: 57</text>
</a>
</g>
</g>
<!-- INFO DISCOVERY
unknown&#45;&gt;DATA EXFILTRATION
unknown | ID: 57 -->
<g id="edge21" class="edge">
<title>INFO DISCOVERY
unknown&#45;&gt;DATA EXFILTRATION
unknown | ID: 57</title>
<path fill="none" stroke="blue" stroke-width="5" d="M679.12,-1114.04C679.12,-1135.53 679.12,-1162.13 679.12,-1185.65"/>
<polygon fill="blue" stroke="blue" stroke-width="5" points="674.75,-1185.86 679.12,-1195.86 683.5,-1185.86 674.75,-1185.86"/>
<text text-anchor="middle" x="810.62" y="-1171.97" font-family="Arial" font-size="20.00" fill="blue">start_next: 04/11/17, 16:51:32</text>
<text text-anchor="middle" x="810.62" y="-1149.97" font-family="Arial" font-size="20.00" fill="blue">gap: 1sec</text>
<text text-anchor="middle" x="810.62" y="-1127.97" font-family="Arial" font-size="20.00" fill="blue">end_prev: 04/11/17, 16:51:31</text>
</g>
<!-- SERVICE DISCOVERY
unknown -->
<g id="node23" class="node">
<title>SERVICE DISCOVERY
unknown</title>
<g id="a_node23"><a xlink:title="ET SCAN Potential VNC Scan 5800&#45;5820">
<ellipse fill="none" stroke="black" stroke-width="3" cx="679.12" cy="-1418.38" rx="189.51" ry="42.35"/>
<text text-anchor="middle" x="679.12" y="-1425.18" font-family="Arial" font-size="24.00">SERVICE DISCOVERY</text>
<text text-anchor="middle" x="679.12" y="-1399.18" font-family="Arial" font-size="24.00">unknown</text>
</a>
</g>
</g>
<!-- DATA EXFILTRATION
unknown | ID: 57&#45;&gt;SERVICE DISCOVERY
unknown -->
<g id="edge22" class="edge">
<title>DATA EXFILTRATION
unknown | ID: 57&#45;&gt;SERVICE DISCOVERY
unknown</title>
<path fill="none" stroke="blue" stroke-width="5" d="M679.12,-1294.16C679.12,-1316.49 679.12,-1343.05 679.12,-1365.78"/>
<polygon fill="blue" stroke="blue" stroke-width="5" points="674.75,-1365.92 679.12,-1375.93 683.5,-1365.93 674.75,-1365.92"/>
<text text-anchor="middle" x="810.62" y="-1351.95" font-family="Arial" font-size="20.00" fill="blue">start_next: 04/11/17, 18:01:40</text>
<text text-anchor="middle" x="810.62" y="-1329.95" font-family="Arial" font-size="20.00" fill="blue">gap: 4202sec</text>
<text text-anchor="middle" x="810.62" y="-1307.95" font-family="Arial" font-size="20.00" fill="blue">end_prev: 04/11/17, 16:51:38</text>
</g>
<!-- VULNERABILTY DISCOVERY
postgresql -->
<g id="node24" class="node">
<title>VULNERABILTY DISCOVERY
postgresql</title>
<g id="a_node24"><a xlink:title="ET POLICY Suspicious inbound to PostgreSQL port 5432">
<ellipse fill="none" stroke="black" stroke-width="3" cx="674.12" cy="-1591.79" rx="241.25" ry="42.35"/>
<text text-anchor="middle" x="674.12" y="-1598.59" font-family="Arial" font-size="24.00">VULNERABILTY DISCOVERY</text>
<text text-anchor="middle" x="674.12" y="-1572.59" font-family="Arial" font-size="24.00">postgresql</text>
</a>
</g>
</g>
<!-- SERVICE DISCOVERY
unknown&#45;&gt;VULNERABILTY DISCOVERY
postgresql -->
<g id="edge23" class="edge">
<title>SERVICE DISCOVERY
unknown&#45;&gt;VULNERABILTY DISCOVERY
postgresql</title>
<path fill="none" stroke="blue" stroke-width="5" d="M677.91,-1460.87C677.23,-1484.38 676.36,-1514.01 675.63,-1539.03"/>
<polygon fill="blue" stroke="blue" stroke-width="5" points="671.26,-1538.96 675.34,-1549.08 680,-1539.22 671.26,-1538.96"/>
<text text-anchor="middle" x="808.62" y="-1518.8" font-family="Arial" font-size="20.00" fill="blue">start_next: 04/11/17, 18:03:04</text>
<text text-anchor="middle" x="808.62" y="-1496.8" font-family="Arial" font-size="20.00" fill="blue">gap: 85sec</text>
<text text-anchor="middle" x="808.62" y="-1474.8" font-family="Arial" font-size="20.00" fill="blue">end_prev: 04/11/17, 18:01:40</text>
</g>
<!-- VULNERABILTY DISCOVERY
postgresql&#45;&gt;INFO DISCOVERY
xdmcp -->
<g id="edge24" class="edge">
<title>VULNERABILTY DISCOVERY
postgresql&#45;&gt;INFO DISCOVERY
xdmcp</title>
<path fill="none" stroke="blue" stroke-width="5" d="M659.44,-1634.34C647.76,-1661.35 628.76,-1695.08 601.12,-1714.78 585.66,-1725.81 551.44,-1735.25 513.77,-1742.83"/>
<polygon fill="blue" stroke="blue" stroke-width="5" points="512.57,-1738.61 503.6,-1744.82 514.25,-1747.19 512.57,-1738.61"/>
<text text-anchor="middle" x="783.62" y="-1698.78" font-family="Arial" font-size="20.00" fill="blue">start_next: 04/11/17, 18:04:53</text>
<text text-anchor="middle" x="783.62" y="-1676.78" font-family="Arial" font-size="20.00" fill="blue">gap: 108sec</text>
<text text-anchor="middle" x="783.62" y="-1654.78" font-family="Arial" font-size="20.00" fill="blue">end_prev: 04/11/17, 18:03:04</text>
</g>
<!-- NETWORK DoS
ms&#45;wbt&#45;server | ID: 36 -->
<g id="node26" class="node">
<title>NETWORK DoS
ms&#45;wbt&#45;server | ID: 36</title>
<g id="a_node26"><a xlink:title="ET DOS Microsoft Remote Desktop (RDP) Syn then Reset 30 Second DoS Attempt">
<polygon fill="none" stroke="black" stroke-width="3" points="940.4,-2080.62 836.76,-2129.6 629.48,-2129.6 525.84,-2080.62 629.48,-2031.64 836.76,-2031.64 940.4,-2080.62"/>
<text text-anchor="middle" x="733.12" y="-2087.42" font-family="Arial" font-size="24.00">NETWORK DoS</text>
<text text-anchor="middle" x="733.12" y="-2061.42" font-family="Arial" font-size="24.00">ms&#45;wbt&#45;server | ID: 36</text>
</a>
</g>
</g>
<!-- REMOTE SERVICE EXPLOIT
snmp | ID: 299&#45;&gt;NETWORK DoS
ms&#45;wbt&#45;server | ID: 36 -->
<g id="edge26" class="edge">
<title>REMOTE SERVICE EXPLOIT
snmp | ID: 299&#45;&gt;NETWORK DoS
ms&#45;wbt&#45;server | ID: 36</title>
<path fill="none" stroke="blue" stroke-width="5" d="M670.56,-1949.83C670.52,-1968.99 672.33,-1994.45 683.08,-2021.97"/>
<polygon fill="blue" stroke="blue" stroke-width="5" points="679.14,-2023.88 687.08,-2031.37 687.19,-2020.46 679.14,-2023.88"/>
<text text-anchor="middle" x="814.62" y="-2007.63" font-family="Arial" font-size="20.00" fill="blue">start_next: 04/11/17, 18:05:00</text>
<text text-anchor="middle" x="814.62" y="-1985.63" font-family="Arial" font-size="20.00" fill="blue">gap: 6sec</text>
<text text-anchor="middle" x="814.62" y="-1963.63" font-family="Arial" font-size="20.00" fill="blue">end_prev: 04/11/17, 18:04:54</text>
</g>
<!-- NETWORK DoS
ms&#45;wbt&#45;server | ID: 36&#45;&gt;ACCOUNT MANIPULATION
snmp | ID: 53 -->
<g id="edge27" class="edge">
<title>NETWORK DoS
ms&#45;wbt&#45;server | ID: 36&#45;&gt;ACCOUNT MANIPULATION
snmp | ID: 53</title>
<path fill="none" stroke="blue" stroke-width="5" d="M687.72,-2129.74C686.06,-2132.33 684.52,-2134.96 683.12,-2137.61 669.88,-2162.86 662.57,-2194.26 658.6,-2218.61"/>
<polygon fill="blue" stroke="blue" stroke-width="5" points="654.27,-2218.04 657.1,-2228.58 662.92,-2219.34 654.27,-2218.04"/>
<text text-anchor="middle" x="814.62" y="-2194.61" font-family="Arial" font-size="20.00" fill="blue">start_next: 04/11/17, 18:05:21</text>
<text text-anchor="middle" x="814.62" y="-2172.61" font-family="Arial" font-size="20.00" fill="blue">gap: 21sec</text>
<text text-anchor="middle" x="814.62" y="-2150.61" font-family="Arial" font-size="20.00" fill="blue">end_prev: 04/11/17, 18:05:00</text>
</g>
</g>
</svg>
