<?xml version="1.0" encoding="UTF-8" standalone="no"?>
<!DOCTYPE svg PUBLIC "-//W3C//DTD SVG 1.1//EN"
 "http://www.w3.org/Graphics/SVG/1.1/DTD/svg11.dtd">
<!-- Generated by graphviz version 2.50.0 (0)
 -->
<!-- Title: DATAEXFILTRATIONvrmlmultiuse Pages: 1 -->
<svg width="1508pt" height="1504pt"
 viewBox="0.00 0.00 1508.12 1503.70" xmlns="http://www.w3.org/2000/svg" xmlns:xlink="http://www.w3.org/1999/xlink">
<g id="graph0" class="graph" transform="scale(1 1) rotate(0) translate(4 1499.7)">
<title>DATAEXFILTRATIONvrmlmultiuse</title>
<polygon fill="white" stroke="transparent" points="-4,4 -4,-1499.7 1504.12,-1499.7 1504.12,4 -4,4"/>
<!-- Victim: 10.0.99.143
DATA EXFILTRATION
vrml&#45;multi&#45;use -->
<g id="node1" class="node">
<title>Victim: 10.0.99.143
DATA EXFILTRATION
vrml&#45;multi&#45;use</title>
<polygon fill="salmon" stroke="black" stroke-width="3" points="818.34,-1398.68 818.34,-1453.07 705.74,-1491.53 546.51,-1491.53 433.91,-1453.07 433.91,-1398.68 546.51,-1360.22 705.74,-1360.22 818.34,-1398.68"/>
<polygon fill="none" stroke="black" stroke-width="3" points="822.34,-1395.83 822.34,-1455.92 706.41,-1495.52 545.84,-1495.52 429.91,-1455.92 429.91,-1395.83 545.84,-1356.23 706.41,-1356.23 822.34,-1395.83"/>
<text text-anchor="middle" x="626.12" y="-1445.68" font-family="Arial" font-size="24.00">Victim: 10.0.99.143</text>
<text text-anchor="middle" x="626.12" y="-1419.68" font-family="Arial" font-size="24.00">DATA EXFILTRATION</text>
<text text-anchor="middle" x="626.12" y="-1393.68" font-family="Arial" font-size="24.00">vrml&#45;multi&#45;use</text>
</g>
<!-- DATA EXFILTRATION
vrml&#45;multi&#45;use | ID: 76 -->
<g id="node2" class="node">
<title>DATA EXFILTRATION
vrml&#45;multi&#45;use | ID: 76</title>
<g id="a_node2"><a xlink:title="ET WEB_SPECIFIC_APPS PHP&#45;CGI query string parameter vulnerability">
<polygon fill="salmon" stroke="black" stroke-width="3" points="832.77,-1290.07 729.45,-1339.05 522.8,-1339.05 419.48,-1290.07 522.8,-1241.09 729.45,-1241.09 832.77,-1290.07"/>
<text text-anchor="middle" x="626.12" y="-1296.87" font-family="Arial" font-size="24.00">DATA EXFILTRATION</text>
<text text-anchor="middle" x="626.12" y="-1270.87" font-family="Arial" font-size="24.00">vrml&#45;multi&#45;use | ID: 76</text>
</a>
</g>
</g>
<!-- DATA EXFILTRATION
vrml&#45;multi&#45;use | ID: 76&#45;&gt;Victim: 10.0.99.143
DATA EXFILTRATION
vrml&#45;multi&#45;use -->
<g id="edge1" class="edge">
<title>DATA EXFILTRATION
vrml&#45;multi&#45;use | ID: 76&#45;&gt;Victim: 10.0.99.143
DATA EXFILTRATION
vrml&#45;multi&#45;use</title>
<path fill="none" stroke="black" stroke-width="5" d="M626.12,-1339.37C626.12,-1341.48 626.12,-1343.61 626.12,-1345.76"/>
<polygon fill="black" stroke="black" stroke-width="5" points="621.75,-1345.91 626.12,-1355.91 630.5,-1345.91 621.75,-1345.91"/>
</g>
<!-- VULNERABILTY DISCOVERY
ms&#45;sql&#45;s -->
<g id="node3" class="node">
<title>VULNERABILTY DISCOVERY
ms&#45;sql&#45;s</title>
<g id="a_node3"><a xlink:title="ET POLICY Suspicious inbound to mySQL port 3306&#10;ET POLICY Suspicious inbound to mSQL port 4333&#10;ET POLICY Suspicious inbound to MSSQL port 1433&#10;ET POLICY Suspicious inbound to Oracle SQL port 1521&#10;ET POLICY Suspicious inbound to PostgreSQL port 5432">
<ellipse fill="yellow" stroke="black" stroke-width="3" cx="241.12" cy="-223.28" rx="241.25" ry="42.35"/>
<text text-anchor="middle" x="241.12" y="-230.08" font-family="Arial" font-size="24.00">VULNERABILTY DISCOVERY</text>
<text text-anchor="middle" x="241.12" y="-204.08" font-family="Arial" font-size="24.00">ms&#45;sql&#45;s</text>
</a>
</g>
</g>
<!-- SERVICE DISCOVERY
microsoft&#45;ds -->
<g id="node4" class="node">
<title>SERVICE DISCOVERY
microsoft&#45;ds</title>
<g id="a_node4"><a xlink:title="ET SCAN Behavioral Unusual Port 135 traffic Potential Scan or Infection&#10;ET SCAN Potential VNC Scan 5800&#45;5820&#10;ET SCAN Behavioral Unusual Port 445 traffic Potential Scan or Infection">
<ellipse fill="none" stroke="black" stroke-width="3" cx="452.12" cy="-404.13" rx="189.51" ry="42.35"/>
<text text-anchor="middle" x="452.12" y="-410.93" font-family="Arial" font-size="24.00">SERVICE DISCOVERY</text>
<text text-anchor="middle" x="452.12" y="-384.93" font-family="Arial" font-size="24.00">microsoft&#45;ds</text>
</a>
</g>
</g>
<!-- VULNERABILTY DISCOVERY
ms&#45;sql&#45;s&#45;&gt;SERVICE DISCOVERY
microsoft&#45;ds -->
<g id="edge2" class="edge">
<title>VULNERABILTY DISCOVERY
ms&#45;sql&#45;s&#45;&gt;SERVICE DISCOVERY
microsoft&#45;ds</title>
<path fill="none" stroke="blue" stroke-width="5" d="M432.47,-249.12C455.01,-255.58 472.93,-263.65 481.12,-273.71 499.07,-295.72 492.99,-326.57 481.87,-352.63"/>
<polygon fill="blue" stroke="blue" stroke-width="5" points="477.77,-351.07 477.58,-361.99 485.72,-354.72 477.77,-351.07"/>
<text text-anchor="start" x="493.12" y="-338.71" font-family="Arial" font-size="20.00" fill="blue"> start_next: 04/11/17, 14:08:09</text>
<text text-anchor="start" x="574.62" y="-318.71" font-family="Arial" font-size="20.00" fill="blue">gap: &#45;32sec</text>
<text text-anchor="start" x="497.12" y="-298.71" font-family="Arial" font-size="20.00" fill="blue">end_prev: 04/11/17, 14:08:41</text>
<text text-anchor="start" x="527.62" y="-278.71" font-family="Arial" font-weight="bold" font-size="20.00" fill="blue">Attacker: 10.0.254.31</text>
</g>
<!-- SERVICE DISCOVERY
rpas&#45;c2 -->
<g id="node12" class="node">
<title>SERVICE DISCOVERY
rpas&#45;c2</title>
<g id="a_node12"><a xlink:title="ET SCAN Potential VNC Scan 5900&#45;5920">
<ellipse fill="none" stroke="black" stroke-width="3" cx="236.12" cy="-496.98" rx="189.51" ry="42.35"/>
<text text-anchor="middle" x="236.12" y="-503.78" font-family="Arial" font-size="24.00">SERVICE DISCOVERY</text>
<text text-anchor="middle" x="236.12" y="-477.78" font-family="Arial" font-size="24.00">rpas&#45;c2</text>
</a>
</g>
</g>
<!-- VULNERABILTY DISCOVERY
ms&#45;sql&#45;s&#45;&gt;SERVICE DISCOVERY
rpas&#45;c2 -->
<g id="edge14" class="edge">
<title>VULNERABILTY DISCOVERY
ms&#45;sql&#45;s&#45;&gt;SERVICE DISCOVERY
rpas&#45;c2</title>
<path fill="none" stroke="blue" stroke-width="5" d="M214.83,-265.66C213.77,-268.33 212.85,-271.02 212.12,-273.71 196.57,-330.93 208.13,-399.03 219.98,-444.63"/>
<polygon fill="blue" stroke="blue" stroke-width="5" points="215.76,-445.78 222.59,-454.3 224.21,-443.5 215.76,-445.78"/>
<text text-anchor="start" x="212.12" y="-338.71" font-family="Arial" font-size="20.00" fill="blue"> start_next: 04/11/17, 18:03:39</text>
<text text-anchor="start" x="293.62" y="-318.71" font-family="Arial" font-size="20.00" fill="blue">gap: &#45;38sec</text>
<text text-anchor="start" x="216.12" y="-298.71" font-family="Arial" font-size="20.00" fill="blue">end_prev: 04/11/17, 18:04:17</text>
<text text-anchor="start" x="246.62" y="-278.71" font-family="Arial" font-weight="bold" font-size="20.00" fill="blue">Attacker: 10.0.254.31</text>
</g>
<!-- NETWORK DoS
ssdp | ID: 55 -->
<g id="node5" class="node">
<title>NETWORK DoS
ssdp | ID: 55</title>
<g id="a_node5"><a xlink:title="ET DOS Possible SSDP Amplification Scan in Progress">
<polygon fill="none" stroke="black" stroke-width="3" points="897.66,-596.4 819.39,-645.38 662.86,-645.38 584.59,-596.4 662.86,-547.42 819.39,-547.42 897.66,-596.4"/>
<text text-anchor="middle" x="741.12" y="-603.2" font-family="Arial" font-size="24.00">NETWORK DoS</text>
<text text-anchor="middle" x="741.12" y="-577.2" font-family="Arial" font-size="24.00">ssdp | ID: 55</text>
</a>
</g>
</g>
<!-- SERVICE DISCOVERY
microsoft&#45;ds&#45;&gt;NETWORK DoS
ssdp | ID: 55 -->
<g id="edge3" class="edge">
<title>SERVICE DISCOVERY
microsoft&#45;ds&#45;&gt;NETWORK DoS
ssdp | ID: 55</title>
<path fill="none" stroke="blue" stroke-width="5" d="M463.99,-446.56C474.7,-476.62 493.41,-515.97 523.12,-539.41 525.37,-541.18 571.06,-553.02 620.03,-565.36"/>
<polygon fill="blue" stroke="blue" stroke-width="5" points="619.09,-569.63 629.86,-567.83 621.23,-561.15 619.09,-569.63"/>
<text text-anchor="middle" x="654.62" y="-513.98" font-family="Arial" font-size="20.00" fill="blue">start_next: 04/11/17, 14:09:19</text>
<text text-anchor="middle" x="654.62" y="-491.98" font-family="Arial" font-size="20.00" fill="blue">gap: 42sec</text>
<text text-anchor="middle" x="654.62" y="-469.98" font-family="Arial" font-size="20.00" fill="blue">end_prev: 04/11/17, 14:08:36</text>
</g>
<!-- INFO DISCOVERY
xdmcp -->
<g id="node6" class="node">
<title>INFO DISCOVERY
xdmcp</title>
<g id="a_node6"><a xlink:title="GPL WEB_SERVER mod_gzip_status access&#10;GPL RPC xdmcp info query">
<ellipse fill="yellow" stroke="black" stroke-width="3" cx="626.12" cy="-769.82" rx="156.04" ry="42.35"/>
<text text-anchor="middle" x="626.12" y="-776.62" font-family="Arial" font-size="24.00">INFO DISCOVERY</text>
<text text-anchor="middle" x="626.12" y="-750.62" font-family="Arial" font-size="24.00">xdmcp</text>
</a>
</g>
</g>
<!-- NETWORK DoS
ssdp | ID: 55&#45;&gt;INFO DISCOVERY
xdmcp -->
<g id="edge4" class="edge">
<title>NETWORK DoS
ssdp | ID: 55&#45;&gt;INFO DISCOVERY
xdmcp</title>
<path fill="none" stroke="blue" stroke-width="5" d="M632.33,-626.46C604.96,-633.21 575.57,-640 548.12,-645.39 536,-647.77 501.2,-644.05 493.12,-653.39 473.93,-675.58 476.38,-695.31 493.12,-719.39 496.86,-724.77 501.26,-729.56 506.13,-733.83"/>
<polygon fill="blue" stroke="blue" stroke-width="5" points="503.59,-737.4 514.16,-740.12 508.99,-730.51 503.59,-737.4"/>
<text text-anchor="middle" x="624.62" y="-703.39" font-family="Arial" font-size="20.00" fill="blue">start_next: 04/11/17, 14:10:03</text>
<text text-anchor="middle" x="624.62" y="-681.39" font-family="Arial" font-size="20.00" fill="blue">gap: 45sec</text>
<text text-anchor="middle" x="624.62" y="-659.39" font-family="Arial" font-size="20.00" fill="blue">end_prev: 04/11/17, 14:09:19</text>
</g>
<!-- NETWORK DoS
ssdp | ID: 55&#45;&gt;INFO DISCOVERY
xdmcp -->
<g id="edge22" class="edge">
<title>NETWORK DoS
ssdp | ID: 55&#45;&gt;INFO DISCOVERY
xdmcp</title>
<path fill="none" stroke="blue" stroke-width="5" d="M759.74,-645.66C765.77,-669.72 767.66,-698.14 753.12,-719.39 749.87,-724.15 746.08,-728.45 741.89,-732.34"/>
<polygon fill="blue" stroke="blue" stroke-width="5" points="738.88,-729.16 733.95,-738.9 744.45,-735.91 738.88,-729.16"/>
<text text-anchor="middle" x="896.62" y="-703.39" font-family="Arial" font-size="20.00" fill="blue">start_next: 04/11/17, 18:59:54</text>
<text text-anchor="middle" x="896.62" y="-681.39" font-family="Arial" font-size="20.00" fill="blue">gap: 45sec</text>
<text text-anchor="middle" x="896.62" y="-659.39" font-family="Arial" font-size="20.00" fill="blue">end_prev: 04/11/17, 18:59:10</text>
</g>
<!-- SURFING
vrml&#45;multi&#45;use -->
<g id="node7" class="node">
<title>SURFING
vrml&#45;multi&#45;use</title>
<g id="a_node7"><a xlink:title="ET WEB_SERVER WEB&#45;PHP phpinfo access">
<ellipse fill="none" stroke="black" stroke-width="3" cx="488.12" cy="-936.67" rx="119.5" ry="42.35"/>
<text text-anchor="middle" x="488.12" y="-943.47" font-family="Arial" font-size="24.00">SURFING</text>
<text text-anchor="middle" x="488.12" y="-917.47" font-family="Arial" font-size="24.00">vrml&#45;multi&#45;use</text>
</a>
</g>
</g>
<!-- INFO DISCOVERY
xdmcp&#45;&gt;SURFING
vrml&#45;multi&#45;use -->
<g id="edge5" class="edge">
<title>INFO DISCOVERY
xdmcp&#45;&gt;SURFING
vrml&#45;multi&#45;use</title>
<path fill="none" stroke="blue" stroke-width="5" d="M775.56,-782.25C826.36,-789.49 874.34,-801.23 890.12,-820.24 908.86,-842.81 909.56,-864.27 890.12,-886.24 871.97,-906.77 726.87,-920.62 616.15,-928.32"/>
<polygon fill="blue" stroke="blue" stroke-width="5" points="615.57,-923.98 605.89,-929.03 616.16,-932.71 615.57,-923.98"/>
<text text-anchor="middle" x="1036.12" y="-870.24" font-family="Arial" font-size="20.00" fill="blue">start_next: 04/11/17, 14:11:32</text>
<text text-anchor="middle" x="1036.12" y="-848.24" font-family="Arial" font-size="20.00" fill="blue">gap: 2sec</text>
<text text-anchor="middle" x="1036.12" y="-826.24" font-family="Arial" font-size="20.00" fill="blue">end_prev: 04/11/17, 14:11:30</text>
</g>
<!-- INFO DISCOVERY
xdmcp&#45;&gt;SURFING
vrml&#45;multi&#45;use -->
<g id="edge11" class="edge">
<title>INFO DISCOVERY
xdmcp&#45;&gt;SURFING
vrml&#45;multi&#45;use</title>
<path fill="none" stroke="blue" stroke-width="5" d="M470.56,-774.38C318.52,-779.51 106.16,-791.74 80.12,-820.24 60.34,-841.9 60.67,-864.29 80.12,-886.24 98.68,-907.19 247.73,-921.03 360.36,-928.6"/>
<polygon fill="blue" stroke="blue" stroke-width="5" points="360.19,-932.97 370.45,-929.27 360.77,-924.24 360.19,-932.97"/>
<text text-anchor="middle" x="211.62" y="-870.24" font-family="Arial" font-size="20.00" fill="blue">start_next: 04/11/17, 16:34:42</text>
<text text-anchor="middle" x="211.62" y="-848.24" font-family="Arial" font-size="20.00" fill="blue">gap: 2sec</text>
<text text-anchor="middle" x="211.62" y="-826.24" font-family="Arial" font-size="20.00" fill="blue">end_prev: 04/11/17, 16:34:40</text>
</g>
<!-- INFO DISCOVERY
xdmcp&#45;&gt;SURFING
vrml&#45;multi&#45;use -->
<g id="edge16" class="edge">
<title>INFO DISCOVERY
xdmcp&#45;&gt;SURFING
vrml&#45;multi&#45;use</title>
<path fill="none" stroke="blue" stroke-width="5" d="M475.71,-781.39C422.48,-788.52 371.67,-800.41 355.12,-820.24 336.33,-842.77 338.38,-862.16 355.12,-886.24 361.37,-895.23 369.45,-902.58 378.54,-908.6"/>
<polygon fill="blue" stroke="blue" stroke-width="5" points="376.32,-912.37 387.15,-913.76 380.82,-904.86 376.32,-912.37"/>
<text text-anchor="middle" x="486.62" y="-870.24" font-family="Arial" font-size="20.00" fill="blue">start_next: 04/11/17, 18:07:07</text>
<text text-anchor="middle" x="486.62" y="-848.24" font-family="Arial" font-size="20.00" fill="blue">gap: 2sec</text>
<text text-anchor="middle" x="486.62" y="-826.24" font-family="Arial" font-size="20.00" fill="blue">end_prev: 04/11/17, 18:07:05</text>
</g>
<!-- INFO DISCOVERY
xdmcp&#45;&gt;SURFING
vrml&#45;multi&#45;use -->
<g id="edge23" class="edge">
<title>INFO DISCOVERY
xdmcp&#45;&gt;SURFING
vrml&#45;multi&#45;use</title>
<path fill="none" stroke="blue" stroke-width="5" d="M624.28,-812.25C622.57,-842.91 619.6,-880.32 615.12,-886.24 609.19,-894.09 601.84,-900.69 593.68,-906.24"/>
<polygon fill="blue" stroke="blue" stroke-width="5" points="591.13,-902.68 584.92,-911.66 595.73,-910.12 591.13,-902.68"/>
<text text-anchor="middle" x="755.62" y="-870.24" font-family="Arial" font-size="20.00" fill="blue">start_next: 04/11/17, 19:01:18</text>
<text text-anchor="middle" x="755.62" y="-848.24" font-family="Arial" font-size="20.00" fill="blue">gap: 2sec</text>
<text text-anchor="middle" x="755.62" y="-826.24" font-family="Arial" font-size="20.00" fill="blue">end_prev: 04/11/17, 19:01:16</text>
</g>
<!-- DATA DELIVERY
vrml&#45;multi&#45;use | ID: 416 -->
<g id="node8" class="node">
<title>DATA DELIVERY
vrml&#45;multi&#45;use | ID: 416</title>
<g id="a_node8"><a xlink:title="ET WEB_SERVER PHP Possible php Remote File Inclusion Attempt&#10;ET WEB_SERVER PHP tags in HTTP POST&#10;GPL WEB_SERVER perl post attempt">
<polygon fill="none" stroke="black" stroke-width="3" points="843.5,-1110.09 734.81,-1159.07 517.44,-1159.07 408.75,-1110.09 517.44,-1061.11 734.81,-1061.11 843.5,-1110.09"/>
<text text-anchor="middle" x="626.12" y="-1116.89" font-family="Arial" font-size="24.00">DATA DELIVERY</text>
<text text-anchor="middle" x="626.12" y="-1090.89" font-family="Arial" font-size="24.00">vrml&#45;multi&#45;use | ID: 416</text>
</a>
</g>
</g>
<!-- INFO DISCOVERY
xdmcp&#45;&gt;DATA DELIVERY
vrml&#45;multi&#45;use | ID: 416 -->
<g id="edge26" class="edge">
<title>INFO DISCOVERY
xdmcp&#45;&gt;DATA DELIVERY
vrml&#45;multi&#45;use | ID: 416</title>
<path fill="none" stroke="blue" stroke-width="5" d="M781.5,-774.61C931.16,-779.92 1138.6,-792.27 1164.12,-820.24 1233.87,-896.7 1233.41,-976.22 1164.12,-1053.1 1141.6,-1078.09 975.69,-1092.64 834,-1100.62"/>
<polygon fill="blue" stroke="blue" stroke-width="5" points="833.58,-1096.26 823.84,-1101.18 834.06,-1105 833.58,-1096.26"/>
<text text-anchor="start" x="1217.12" y="-961.67" font-family="Arial" font-size="20.00" fill="blue"> start_next: 04/11/17, 21:00:04</text>
<text text-anchor="start" x="1293.12" y="-941.67" font-family="Arial" font-size="20.00" fill="blue">gap: &#45;289sec</text>
<text text-anchor="start" x="1221.12" y="-921.67" font-family="Arial" font-size="20.00" fill="blue">end_prev: 04/11/17, 21:04:53</text>
<text text-anchor="start" x="1251.62" y="-901.67" font-family="Arial" font-weight="bold" font-size="20.00" fill="blue">Attacker: 10.0.254.31</text>
</g>
<!-- SURFING
vrml&#45;multi&#45;use&#45;&gt;DATA DELIVERY
vrml&#45;multi&#45;use | ID: 416 -->
<g id="edge6" class="edge">
<title>SURFING
vrml&#45;multi&#45;use&#45;&gt;DATA DELIVERY
vrml&#45;multi&#45;use | ID: 416</title>
<path fill="none" stroke="blue" stroke-width="5" d="M605.89,-944.32C717.68,-951.86 871.4,-965.93 890.12,-987.1 909.56,-1009.07 908.59,-1030.3 890.12,-1053.1 877.94,-1068.13 846.12,-1079.3 808.62,-1087.52"/>
<polygon fill="blue" stroke="blue" stroke-width="5" points="807.33,-1083.32 798.44,-1089.66 809.12,-1091.89 807.33,-1083.32"/>
<text text-anchor="middle" x="1036.12" y="-1037.1" font-family="Arial" font-size="20.00" fill="blue">start_next: 04/11/17, 14:11:33</text>
<text text-anchor="middle" x="1036.12" y="-1015.1" font-family="Arial" font-size="20.00" fill="blue">gap: 1sec</text>
<text text-anchor="middle" x="1036.12" y="-993.1" font-family="Arial" font-size="20.00" fill="blue">end_prev: 04/11/17, 14:11:32</text>
</g>
<!-- SURFING
vrml&#45;multi&#45;use&#45;&gt;DATA DELIVERY
vrml&#45;multi&#45;use | ID: 416 -->
<g id="edge12" class="edge">
<title>SURFING
vrml&#45;multi&#45;use&#45;&gt;DATA DELIVERY
vrml&#45;multi&#45;use | ID: 416</title>
<path fill="none" stroke="blue" stroke-width="5" d="M370.45,-944.07C256.85,-951.49 99.24,-965.52 80.12,-987.1 60.67,-1009.05 60.47,-1031.32 80.12,-1053.1 103.12,-1078.57 273.1,-1093.1 417.37,-1100.94"/>
<polygon fill="blue" stroke="blue" stroke-width="5" points="417.49,-1105.33 427.71,-1101.49 417.96,-1096.59 417.49,-1105.33"/>
<text text-anchor="middle" x="211.62" y="-1037.1" font-family="Arial" font-size="20.00" fill="blue">start_next: 04/11/17, 16:34:46</text>
<text text-anchor="middle" x="211.62" y="-1015.1" font-family="Arial" font-size="20.00" fill="blue">gap: 3sec</text>
<text text-anchor="middle" x="211.62" y="-993.1" font-family="Arial" font-size="20.00" fill="blue">end_prev: 04/11/17, 16:34:43</text>
</g>
<!-- SURFING
vrml&#45;multi&#45;use&#45;&gt;DATA DELIVERY
vrml&#45;multi&#45;use | ID: 416 -->
<g id="edge17" class="edge">
<title>SURFING
vrml&#45;multi&#45;use&#45;&gt;DATA DELIVERY
vrml&#45;multi&#45;use | ID: 416</title>
<path fill="none" stroke="blue" stroke-width="5" d="M387.15,-959.58C374.57,-966.41 363.28,-975.37 355.12,-987.1 338.38,-1011.18 336.6,-1030.35 355.12,-1053.1 367.98,-1068.88 402.03,-1080.35 441.84,-1088.64"/>
<polygon fill="blue" stroke="blue" stroke-width="5" points="441.13,-1092.96 451.79,-1090.62 442.84,-1084.37 441.13,-1092.96"/>
<text text-anchor="middle" x="486.62" y="-1037.1" font-family="Arial" font-size="20.00" fill="blue">start_next: 04/11/17, 18:07:08</text>
<text text-anchor="middle" x="486.62" y="-1015.1" font-family="Arial" font-size="20.00" fill="blue">gap: 1sec</text>
<text text-anchor="middle" x="486.62" y="-993.1" font-family="Arial" font-size="20.00" fill="blue">end_prev: 04/11/17, 18:07:07</text>
</g>
<!-- SURFING
vrml&#45;multi&#45;use&#45;&gt;DATA DELIVERY
vrml&#45;multi&#45;use | ID: 416 -->
<g id="edge24" class="edge">
<title>SURFING
vrml&#45;multi&#45;use&#45;&gt;DATA DELIVERY
vrml&#45;multi&#45;use | ID: 416</title>
<path fill="none" stroke="blue" stroke-width="5" d="M584.97,-961.65C596.6,-968.19 607.16,-976.51 615.12,-987.1 619.15,-992.46 621.88,-1022.15 623.61,-1050.89"/>
<polygon fill="blue" stroke="blue" stroke-width="5" points="619.25,-1051.24 624.19,-1060.98 627.99,-1050.75 619.25,-1051.24"/>
<text text-anchor="middle" x="755.62" y="-1037.1" font-family="Arial" font-size="20.00" fill="blue">start_next: 04/11/17, 19:01:20</text>
<text text-anchor="middle" x="755.62" y="-1015.1" font-family="Arial" font-size="20.00" fill="blue">gap: 1sec</text>
<text text-anchor="middle" x="755.62" y="-993.1" font-family="Arial" font-size="20.00" fill="blue">end_prev: 04/11/17, 19:01:18</text>
</g>
<!-- DATA DELIVERY
vrml&#45;multi&#45;use | ID: 416&#45;&gt;DATA EXFILTRATION
vrml&#45;multi&#45;use | ID: 76 -->
<g id="edge7" class="edge">
<title>DATA DELIVERY
vrml&#45;multi&#45;use | ID: 416&#45;&gt;DATA EXFILTRATION
vrml&#45;multi&#45;use | ID: 76</title>
<path fill="none" stroke="blue" stroke-width="5" d="M427.7,-1118.72C281.67,-1126.44 104.6,-1141.06 81.12,-1167.08 61.47,-1188.85 61.47,-1211.3 81.12,-1233.08 104.54,-1259.02 280.76,-1273.63 426.58,-1281.37"/>
<polygon fill="blue" stroke="blue" stroke-width="5" points="426.37,-1285.74 436.58,-1281.89 426.82,-1277 426.37,-1285.74"/>
<text text-anchor="middle" x="212.12" y="-1217.08" font-family="Arial" font-size="20.00" fill="blue">start_next: 04/11/17, 14:11:35</text>
<text text-anchor="middle" x="212.12" y="-1195.08" font-family="Arial" font-size="20.00" fill="blue">gap: &#45;1sec</text>
<text text-anchor="middle" x="212.12" y="-1173.08" font-family="Arial" font-size="20.00" fill="blue">end_prev: 04/11/17, 14:11:36</text>
</g>
<!-- DATA DELIVERY
vrml&#45;multi&#45;use | ID: 416&#45;&gt;DATA EXFILTRATION
vrml&#45;multi&#45;use | ID: 76 -->
<g id="edge13" class="edge">
<title>DATA DELIVERY
vrml&#45;multi&#45;use | ID: 416&#45;&gt;DATA EXFILTRATION
vrml&#45;multi&#45;use | ID: 76</title>
<path fill="none" stroke="blue" stroke-width="5" d="M451.79,-1129.55C407.79,-1137.96 369.04,-1149.99 355.12,-1167.08 336.6,-1189.82 336.6,-1210.33 355.12,-1233.08 368.63,-1249.66 405.54,-1261.49 447.94,-1269.85"/>
<polygon fill="blue" stroke="blue" stroke-width="5" points="447.3,-1274.18 457.94,-1271.74 448.92,-1265.59 447.3,-1274.18"/>
<text text-anchor="middle" x="486.62" y="-1217.08" font-family="Arial" font-size="20.00" fill="blue">start_next: 04/11/17, 16:34:48</text>
<text text-anchor="middle" x="486.62" y="-1195.08" font-family="Arial" font-size="20.00" fill="blue">gap: &#45;1sec</text>
<text text-anchor="middle" x="486.62" y="-1173.08" font-family="Arial" font-size="20.00" fill="blue">end_prev: 04/11/17, 16:34:49</text>
</g>
<!-- DATA DELIVERY
vrml&#45;multi&#45;use | ID: 416&#45;&gt;DATA EXFILTRATION
vrml&#45;multi&#45;use | ID: 76 -->
<g id="edge18" class="edge">
<title>DATA DELIVERY
vrml&#45;multi&#45;use | ID: 416&#45;&gt;DATA EXFILTRATION
vrml&#45;multi&#45;use | ID: 76</title>
<path fill="none" stroke="blue" stroke-width="5" d="M626.12,-1159.25C626.12,-1181.31 626.12,-1207.65 626.12,-1230.81"/>
<polygon fill="blue" stroke="blue" stroke-width="5" points="621.75,-1230.86 626.12,-1240.86 630.5,-1230.86 621.75,-1230.86"/>
<text text-anchor="middle" x="757.62" y="-1217.08" font-family="Arial" font-size="20.00" fill="blue">start_next: 04/11/17, 18:07:15</text>
<text text-anchor="middle" x="757.62" y="-1195.08" font-family="Arial" font-size="20.00" fill="blue">gap: &#45;1sec</text>
<text text-anchor="middle" x="757.62" y="-1173.08" font-family="Arial" font-size="20.00" fill="blue">end_prev: 04/11/17, 18:07:16</text>
</g>
<!-- DATA DELIVERY
vrml&#45;multi&#45;use | ID: 416&#45;&gt;DATA EXFILTRATION
vrml&#45;multi&#45;use | ID: 76 -->
<g id="edge25" class="edge">
<title>DATA DELIVERY
vrml&#45;multi&#45;use | ID: 416&#45;&gt;DATA EXFILTRATION
vrml&#45;multi&#45;use | ID: 76</title>
<path fill="none" stroke="blue" stroke-width="5" d="M798.44,-1130.52C840.28,-1138.91 876.85,-1150.69 890.12,-1167.08 908.59,-1189.87 908.59,-1210.28 890.12,-1233.08 877.28,-1248.93 842.64,-1260.47 802.5,-1268.81"/>
<polygon fill="blue" stroke="blue" stroke-width="5" points="801.43,-1264.56 792.47,-1270.8 803.14,-1273.14 801.43,-1264.56"/>
<text text-anchor="middle" x="1035.62" y="-1217.08" font-family="Arial" font-size="20.00" fill="blue">start_next: 04/11/17, 19:01:24</text>
<text text-anchor="middle" x="1035.62" y="-1195.08" font-family="Arial" font-size="20.00" fill="blue">gap: &#45;1sec</text>
<text text-anchor="middle" x="1035.62" y="-1173.08" font-family="Arial" font-size="20.00" fill="blue">end_prev: 04/11/17, 19:01:25</text>
</g>
<!-- DATA DELIVERY
vrml&#45;multi&#45;use | ID: 416&#45;&gt;DATA EXFILTRATION
vrml&#45;multi&#45;use | ID: 76 -->
<g id="edge27" class="edge">
<title>DATA DELIVERY
vrml&#45;multi&#45;use | ID: 416&#45;&gt;DATA EXFILTRATION
vrml&#45;multi&#45;use | ID: 76</title>
<path fill="none" stroke="blue" stroke-width="5" d="M824.2,-1118.97C968.28,-1126.8 1142.01,-1141.44 1165.12,-1167.08 1184.76,-1188.86 1184.76,-1211.29 1165.12,-1233.08 1142.09,-1258.62 969.48,-1273.25 825.71,-1281.1"/>
<polygon fill="blue" stroke="blue" stroke-width="5" points="825.16,-1276.75 815.41,-1281.66 825.63,-1285.49 825.16,-1276.75"/>
<text text-anchor="middle" x="1311.62" y="-1217.08" font-family="Arial" font-size="20.00" fill="blue">start_next: 04/11/17, 21:00:21</text>
<text text-anchor="middle" x="1311.62" y="-1195.08" font-family="Arial" font-size="20.00" fill="blue">gap: &#45;292sec</text>
<text text-anchor="middle" x="1311.62" y="-1173.08" font-family="Arial" font-size="20.00" fill="blue">end_prev: 04/11/17, 21:05:13</text>
</g>
<!-- VULNERABILTY DISCOVERY
postgresql -->
<g id="node9" class="node">
<title>VULNERABILTY DISCOVERY
postgresql</title>
<g id="a_node9"><a xlink:title="ET POLICY Suspicious inbound to mySQL port 3306&#10;ET POLICY Suspicious inbound to mSQL port 4333&#10;ET POLICY Suspicious inbound to MSSQL port 1433&#10;ET POLICY Suspicious inbound to Oracle SQL port 1521&#10;ET POLICY Suspicious inbound to PostgreSQL port 5432">
<ellipse fill="yellow" stroke="black" stroke-width="3" cx="1233.12" cy="-223.28" rx="241.25" ry="42.35"/>
<text text-anchor="middle" x="1233.12" y="-230.08" font-family="Arial" font-size="24.00">VULNERABILTY DISCOVERY</text>
<text text-anchor="middle" x="1233.12" y="-204.08" font-family="Arial" font-size="24.00">postgresql</text>
</a>
</g>
</g>
<!-- SERVICE DISCOVERY
unknown -->
<g id="node10" class="node">
<title>SERVICE DISCOVERY
unknown</title>
<g id="a_node10"><a xlink:title="ET SCAN Behavioral Unusual Port 135 traffic Potential Scan or Infection&#10;ET SCAN Potential VNC Scan 5800&#45;5820&#10;ET SCAN Behavioral Unusual Port 445 traffic Potential Scan or Infection">
<ellipse fill="none" stroke="black" stroke-width="3" cx="1229.12" cy="-404.13" rx="189.51" ry="42.35"/>
<text text-anchor="middle" x="1229.12" y="-410.93" font-family="Arial" font-size="24.00">SERVICE DISCOVERY</text>
<text text-anchor="middle" x="1229.12" y="-384.93" font-family="Arial" font-size="24.00">unknown</text>
</a>
</g>
</g>
<!-- VULNERABILTY DISCOVERY
postgresql&#45;&gt;SERVICE DISCOVERY
unknown -->
<g id="edge8" class="edge">
<title>VULNERABILTY DISCOVERY
postgresql&#45;&gt;SERVICE DISCOVERY
unknown</title>
<path fill="none" stroke="blue" stroke-width="5" d="M1232.2,-265.76C1231.62,-291.29 1230.89,-324.22 1230.28,-351.44"/>
<polygon fill="blue" stroke="blue" stroke-width="5" points="1225.9,-351.47 1230.05,-361.57 1234.65,-351.67 1225.9,-351.47"/>
<text text-anchor="start" x="1232.12" y="-338.71" font-family="Arial" font-size="20.00" fill="blue"> start_next: 04/11/17, 16:31:31</text>
<text text-anchor="start" x="1313.62" y="-318.71" font-family="Arial" font-size="20.00" fill="blue">gap: &#45;35sec</text>
<text text-anchor="start" x="1236.12" y="-298.71" font-family="Arial" font-size="20.00" fill="blue">end_prev: 04/11/17, 16:32:06</text>
<text text-anchor="start" x="1266.62" y="-278.71" font-family="Arial" font-weight="bold" font-size="20.00" fill="blue">Attacker: 10.0.254.31</text>
</g>
<!-- ARBITRARY CODE EXECUTION
ssdp | ID: 355 -->
<g id="node11" class="node">
<title>ARBITRARY CODE EXECUTION
ssdp | ID: 355</title>
<g id="a_node11"><a xlink:title="GPL MISC UPnP malformed advertisement">
<polygon fill="none" stroke="black" stroke-width="3" points="1294.62,-626.4 919.62,-626.4 919.62,-566.4 1294.62,-566.4 1294.62,-626.4"/>
<text text-anchor="middle" x="1107.12" y="-603.2" font-family="Arial" font-size="24.00">ARBITRARY CODE EXECUTION</text>
<text text-anchor="middle" x="1107.12" y="-577.2" font-family="Arial" font-size="24.00">ssdp | ID: 355</text>
</a>
</g>
</g>
<!-- SERVICE DISCOVERY
unknown&#45;&gt;ARBITRARY CODE EXECUTION
ssdp | ID: 355 -->
<g id="edge9" class="edge">
<title>SERVICE DISCOVERY
unknown&#45;&gt;ARBITRARY CODE EXECUTION
ssdp | ID: 355</title>
<path fill="none" stroke="blue" stroke-width="5" d="M1202.65,-446.42C1181.45,-479.49 1151.95,-525.5 1131.36,-557.61"/>
<polygon fill="blue" stroke="blue" stroke-width="5" points="1127.52,-555.49 1125.8,-566.27 1134.88,-560.22 1127.52,-555.49"/>
<text text-anchor="middle" x="1328.62" y="-513.98" font-family="Arial" font-size="20.00" fill="blue">start_next: 04/11/17, 16:32:58</text>
<text text-anchor="middle" x="1328.62" y="-491.98" font-family="Arial" font-size="20.00" fill="blue">gap: 52sec</text>
<text text-anchor="middle" x="1328.62" y="-469.98" font-family="Arial" font-size="20.00" fill="blue">end_prev: 04/11/17, 16:32:07</text>
</g>
<!-- ARBITRARY CODE EXECUTION
ssdp | ID: 355&#45;&gt;INFO DISCOVERY
xdmcp -->
<g id="edge10" class="edge">
<title>ARBITRARY CODE EXECUTION
ssdp | ID: 355&#45;&gt;INFO DISCOVERY
xdmcp</title>
<path fill="none" stroke="blue" stroke-width="5" d="M1097.02,-626.42C1085.39,-655.14 1063.37,-697.82 1029.12,-719.39 989.81,-744.15 884.13,-756.51 790.85,-762.69"/>
<polygon fill="blue" stroke="blue" stroke-width="5" points="790.41,-758.33 780.71,-763.34 790.97,-767.06 790.41,-758.33"/>
<text text-anchor="middle" x="1215.62" y="-703.39" font-family="Arial" font-size="20.00" fill="blue">start_next: 04/11/17, 16:33:30</text>
<text text-anchor="middle" x="1215.62" y="-681.39" font-family="Arial" font-size="20.00" fill="blue">gap: 21sec</text>
<text text-anchor="middle" x="1215.62" y="-659.39" font-family="Arial" font-size="20.00" fill="blue">end_prev: 04/11/17, 16:33:08</text>
</g>
<!-- SERVICE DISCOVERY
rpas&#45;c2&#45;&gt;INFO DISCOVERY
xdmcp -->
<g id="edge15" class="edge">
<title>SERVICE DISCOVERY
rpas&#45;c2&#45;&gt;INFO DISCOVERY
xdmcp</title>
<path fill="none" stroke="blue" stroke-width="5" d="M250.88,-539.49C264.19,-571.88 286.54,-616.14 318.12,-645.39 367.47,-691.09 435.87,-720.77 495.68,-739.55"/>
<polygon fill="blue" stroke="blue" stroke-width="5" points="494.74,-743.84 505.58,-742.58 497.3,-735.47 494.74,-743.84"/>
<text text-anchor="middle" x="449.62" y="-613.4" font-family="Arial" font-size="20.00" fill="blue">start_next: 04/11/17, 18:05:40</text>
<text text-anchor="middle" x="449.62" y="-591.4" font-family="Arial" font-size="20.00" fill="blue">gap: 121sec</text>
<text text-anchor="middle" x="449.62" y="-569.4" font-family="Arial" font-size="20.00" fill="blue">end_prev: 04/11/17, 18:03:39</text>
</g>
<!-- SERVICE DISCOVERY
epmap -->
<g id="node13" class="node">
<title>SERVICE DISCOVERY
epmap</title>
<g id="a_node13"><a xlink:title="ET SCAN Behavioral Unusual Port 135 traffic Potential Scan or Infection">
<ellipse fill="yellow" stroke="black" stroke-width="3" cx="744.12" cy="-42.43" rx="189.51" ry="42.35"/>
<text text-anchor="middle" x="744.12" y="-49.23" font-family="Arial" font-size="24.00">SERVICE DISCOVERY</text>
<text text-anchor="middle" x="744.12" y="-23.23" font-family="Arial" font-size="24.00">epmap</text>
</a>
</g>
</g>
<!-- VULNERABILTY DISCOVERY
ncube&#45;lm -->
<g id="node14" class="node">
<title>VULNERABILTY DISCOVERY
ncube&#45;lm</title>
<g id="a_node14"><a xlink:title="ET POLICY Suspicious inbound to mySQL port 3306&#10;ET POLICY Suspicious inbound to mSQL port 4333&#10;ET POLICY Suspicious inbound to MSSQL port 1433&#10;ET POLICY Suspicious inbound to Oracle SQL port 1521&#10;ET POLICY Suspicious inbound to PostgreSQL port 5432">
<ellipse fill="none" stroke="black" stroke-width="3" cx="744.12" cy="-223.28" rx="241.25" ry="42.35"/>
<text text-anchor="middle" x="744.12" y="-230.08" font-family="Arial" font-size="24.00">VULNERABILTY DISCOVERY</text>
<text text-anchor="middle" x="744.12" y="-204.08" font-family="Arial" font-size="24.00">ncube&#45;lm</text>
</a>
</g>
</g>
<!-- SERVICE DISCOVERY
epmap&#45;&gt;VULNERABILTY DISCOVERY
ncube&#45;lm -->
<g id="edge19" class="edge">
<title>SERVICE DISCOVERY
epmap&#45;&gt;VULNERABILTY DISCOVERY
ncube&#45;lm</title>
<path fill="none" stroke="blue" stroke-width="5" d="M744.12,-84.91C744.12,-110.44 744.12,-143.37 744.12,-170.59"/>
<polygon fill="blue" stroke="blue" stroke-width="5" points="739.75,-170.71 744.12,-180.71 748.5,-170.71 739.75,-170.71"/>
<text text-anchor="start" x="744.12" y="-157.85" font-family="Arial" font-size="20.00" fill="blue"> start_next: 04/11/17, 18:58:00</text>
<text text-anchor="start" x="829.12" y="-137.85" font-family="Arial" font-size="20.00" fill="blue">gap: 43sec</text>
<text text-anchor="start" x="748.12" y="-117.85" font-family="Arial" font-size="20.00" fill="blue">end_prev: 04/11/17, 18:57:18</text>
<text text-anchor="start" x="778.62" y="-97.85" font-family="Arial" font-weight="bold" font-size="20.00" fill="blue">Attacker: 10.0.254.31</text>
</g>
<!-- BRUTE FORCE CREDENTIALS
pop3 | ID: 382 -->
<g id="node15" class="node">
<title>BRUTE FORCE CREDENTIALS
pop3 | ID: 382</title>
<g id="a_node15"><a xlink:title="ET SCAN Rapid POP3 Connections &#45; Possible Brute Force Attack">
<polygon fill="none" stroke="black" stroke-width="3" points="1011.12,-434.13 649.12,-434.13 649.12,-374.13 1011.12,-374.13 1011.12,-434.13"/>
<text text-anchor="middle" x="830.12" y="-410.93" font-family="Arial" font-size="24.00">BRUTE FORCE CREDENTIALS</text>
<text text-anchor="middle" x="830.12" y="-384.93" font-family="Arial" font-size="24.00">pop3 | ID: 382</text>
</a>
</g>
</g>
<!-- VULNERABILTY DISCOVERY
ncube&#45;lm&#45;&gt;BRUTE FORCE CREDENTIALS
pop3 | ID: 382 -->
<g id="edge20" class="edge">
<title>VULNERABILTY DISCOVERY
ncube&#45;lm&#45;&gt;BRUTE FORCE CREDENTIALS
pop3 | ID: 382</title>
<path fill="none" stroke="blue" stroke-width="5" d="M764.07,-265.76C778.44,-295.65 797.69,-335.69 811.7,-364.82"/>
<polygon fill="blue" stroke="blue" stroke-width="5" points="807.78,-366.76 816.05,-373.87 815.66,-362.97 807.78,-366.76"/>
<text text-anchor="middle" x="936.62" y="-330.71" font-family="Arial" font-size="20.00" fill="blue">start_next: 04/11/17, 18:58:15</text>
<text text-anchor="middle" x="936.62" y="-308.71" font-family="Arial" font-size="20.00" fill="blue">gap: &#45;17sec</text>
<text text-anchor="middle" x="936.62" y="-286.71" font-family="Arial" font-size="20.00" fill="blue">end_prev: 04/11/17, 18:58:32</text>
</g>
<!-- BRUTE FORCE CREDENTIALS
pop3 | ID: 382&#45;&gt;NETWORK DoS
ssdp | ID: 55 -->
<g id="edge21" class="edge">
<title>BRUTE FORCE CREDENTIALS
pop3 | ID: 382&#45;&gt;NETWORK DoS
ssdp | ID: 55</title>
<path fill="none" stroke="blue" stroke-width="5" d="M824.18,-434.17C818.13,-460.28 807.29,-499.45 787.16,-538.48"/>
<polygon fill="blue" stroke="blue" stroke-width="5" points="783.28,-536.45 782.43,-547.33 791,-540.57 783.28,-536.45"/>
<text text-anchor="middle" x="950.62" y="-513.98" font-family="Arial" font-size="20.00" fill="blue">start_next: 04/11/17, 18:59:10</text>
<text text-anchor="middle" x="950.62" y="-491.98" font-family="Arial" font-size="20.00" fill="blue">gap: 55sec</text>
<text text-anchor="middle" x="950.62" y="-469.98" font-family="Arial" font-size="20.00" fill="blue">end_prev: 04/11/17, 18:58:15</text>
</g>
</g>
</svg>
