<?xml version="1.0" encoding="UTF-8" standalone="no"?>
<!DOCTYPE svg PUBLIC "-//W3C//DTD SVG 1.1//EN"
 "http://www.w3.org/Graphics/SVG/1.1/DTD/svg11.dtd">
<!-- Generated by graphviz version 2.50.0 (0)
 -->
<!-- Title: NETWORKDOSmswbtserver Pages: 1 -->
<svg width="1674pt" height="3081pt"
 viewBox="0.00 0.00 1674.12 3081.09" xmlns="http://www.w3.org/2000/svg" xmlns:xlink="http://www.w3.org/1999/xlink">
<g id="graph0" class="graph" transform="scale(1 1) rotate(0) translate(4 3077.09)">
<title>NETWORKDOSmswbtserver</title>
<polygon fill="white" stroke="transparent" points="-4,4 -4,-3077.09 1670.12,-3077.09 1670.12,4 -4,4"/>
<!-- Victim: 10.0.0.223
NETWORK DoS
ms&#45;wbt&#45;server -->
<g id="node1" class="node">
<title>Victim: 10.0.0.223
NETWORK DoS
ms&#45;wbt&#45;server</title>
<polygon fill="salmon" stroke="black" stroke-width="3" points="677.07,-2976.07 677.07,-3030.46 582.79,-3068.92 449.46,-3068.92 355.17,-3030.46 355.17,-2976.07 449.46,-2937.61 582.79,-2937.61 677.07,-2976.07"/>
<polygon fill="none" stroke="black" stroke-width="3" points="681.08,-2973.4 681.08,-3033.14 583.58,-3072.91 448.67,-3072.91 351.17,-3033.14 351.17,-2973.4 448.67,-2933.62 583.58,-2933.62 681.08,-2973.4"/>
<text text-anchor="middle" x="516.12" y="-3023.07" font-family="Arial" font-size="24.00">Victim: 10.0.0.223</text>
<text text-anchor="middle" x="516.12" y="-2997.07" font-family="Arial" font-size="24.00">NETWORK DoS</text>
<text text-anchor="middle" x="516.12" y="-2971.07" font-family="Arial" font-size="24.00">ms&#45;wbt&#45;server</text>
</g>
<!-- NETWORK DoS
ms&#45;wbt&#45;server | ID: 36 -->
<g id="node2" class="node">
<title>NETWORK DoS
ms&#45;wbt&#45;server | ID: 36</title>
<g id="a_node2"><a xlink:title="ET DOS Microsoft Remote Desktop (RDP) Syn then Reset 30 Second DoS Attempt">
<polygon fill="salmon" stroke="black" stroke-width="3" points="723.4,-2867.46 619.76,-2916.44 412.48,-2916.44 308.84,-2867.46 412.48,-2818.48 619.76,-2818.48 723.4,-2867.46"/>
<text text-anchor="middle" x="516.12" y="-2874.26" font-family="Arial" font-size="24.00">NETWORK DoS</text>
<text text-anchor="middle" x="516.12" y="-2848.26" font-family="Arial" font-size="24.00">ms&#45;wbt&#45;server | ID: 36</text>
</a>
</g>
</g>
<!-- NETWORK DoS
ms&#45;wbt&#45;server | ID: 36&#45;&gt;Victim: 10.0.0.223
NETWORK DoS
ms&#45;wbt&#45;server -->
<g id="edge1" class="edge">
<title>NETWORK DoS
ms&#45;wbt&#45;server | ID: 36&#45;&gt;Victim: 10.0.0.223
NETWORK DoS
ms&#45;wbt&#45;server</title>
<path fill="none" stroke="black" stroke-width="5" d="M516.12,-2916.77C516.12,-2918.87 516.12,-2921 516.12,-2923.15"/>
<polygon fill="black" stroke="black" stroke-width="5" points="511.75,-2923.3 516.12,-2933.3 520.5,-2923.3 511.75,-2923.3"/>
</g>
<!-- HOST DISCOVERY
ms&#45;wbt&#45;server -->
<g id="node3" class="node">
<title>HOST DISCOVERY
ms&#45;wbt&#45;server</title>
<g id="a_node3"><a xlink:title="ET SCAN Behavioral Unusually fast Terminal Server Traffic Potential Scan or Infection (Inbound)">
<ellipse fill="yellow" stroke="black" stroke-width="3" cx="239.12" cy="-2166.36" rx="162.77" ry="42.35"/>
<text text-anchor="middle" x="239.12" y="-2173.16" font-family="Arial" font-size="24.00">HOST DISCOVERY</text>
<text text-anchor="middle" x="239.12" y="-2147.16" font-family="Arial" font-size="24.00">ms&#45;wbt&#45;server</text>
</a>
</g>
</g>
<!-- VULNERABILTY DISCOVERY
ncube&#45;lm -->
<g id="node4" class="node">
<title>VULNERABILTY DISCOVERY
ncube&#45;lm</title>
<g id="a_node4"><a xlink:title="ET POLICY Suspicious inbound to Oracle SQL port 1521&#10;ET POLICY Suspicious inbound to PostgreSQL port 5432">
<ellipse fill="none" stroke="black" stroke-width="3" cx="241.12" cy="-2347.21" rx="241.25" ry="42.35"/>
<text text-anchor="middle" x="241.12" y="-2354.01" font-family="Arial" font-size="24.00">VULNERABILTY DISCOVERY</text>
<text text-anchor="middle" x="241.12" y="-2328.01" font-family="Arial" font-size="24.00">ncube&#45;lm</text>
</a>
</g>
</g>
<!-- HOST DISCOVERY
ms&#45;wbt&#45;server&#45;&gt;VULNERABILTY DISCOVERY
ncube&#45;lm -->
<g id="edge2" class="edge">
<title>HOST DISCOVERY
ms&#45;wbt&#45;server&#45;&gt;VULNERABILTY DISCOVERY
ncube&#45;lm</title>
<path fill="none" stroke="darkgreen" stroke-width="5" d="M239.59,-2208.84C239.87,-2234.37 240.24,-2267.3 240.55,-2294.52"/>
<polygon fill="darkgreen" stroke="darkgreen" stroke-width="5" points="236.17,-2294.69 240.66,-2304.64 244.92,-2294.59 236.17,-2294.69"/>
<text text-anchor="start" x="241.12" y="-2281.78" font-family="Arial" font-size="20.00" fill="darkgreen"> start_next: 04/11/17, 13:32:40</text>
<text text-anchor="start" x="320.62" y="-2261.78" font-family="Arial" font-size="20.00" fill="darkgreen">gap: 215sec</text>
<text text-anchor="start" x="245.12" y="-2241.78" font-family="Arial" font-size="20.00" fill="darkgreen">end_prev: 04/11/17, 13:29:05</text>
<text text-anchor="start" x="275.62" y="-2221.78" font-family="Arial" font-weight="bold" font-size="20.00" fill="darkgreen">Attacker: 10.0.254.35</text>
</g>
<!-- SERVICE DISCOVERY
cm -->
<g id="node5" class="node">
<title>SERVICE DISCOVERY
cm</title>
<g id="a_node5"><a xlink:title="ET SCAN Potential VNC Scan 5900&#45;5920">
<ellipse fill="none" stroke="black" stroke-width="3" cx="243.12" cy="-2514.06" rx="189.51" ry="42.35"/>
<text text-anchor="middle" x="243.12" y="-2520.86" font-family="Arial" font-size="24.00">SERVICE DISCOVERY</text>
<text text-anchor="middle" x="243.12" y="-2494.86" font-family="Arial" font-size="24.00">cm</text>
</a>
</g>
</g>
<!-- VULNERABILTY DISCOVERY
ncube&#45;lm&#45;&gt;SERVICE DISCOVERY
cm -->
<g id="edge3" class="edge">
<title>VULNERABILTY DISCOVERY
ncube&#45;lm&#45;&gt;SERVICE DISCOVERY
cm</title>
<path fill="none" stroke="darkgreen" stroke-width="5" d="M241.63,-2389.81C241.89,-2411.48 242.22,-2438.19 242.49,-2461.2"/>
<polygon fill="darkgreen" stroke="darkgreen" stroke-width="5" points="238.12,-2461.53 242.62,-2471.47 246.87,-2461.42 238.12,-2461.53"/>
<text text-anchor="middle" x="374.62" y="-2447.63" font-family="Arial" font-size="20.00" fill="darkgreen">start_next: 04/11/17, 13:38:04</text>
<text text-anchor="middle" x="374.62" y="-2425.63" font-family="Arial" font-size="20.00" fill="darkgreen">gap: 256sec</text>
<text text-anchor="middle" x="374.62" y="-2403.63" font-family="Arial" font-size="20.00" fill="darkgreen">end_prev: 04/11/17, 13:33:48</text>
</g>
<!-- COMMAND AND CONTROL
unknown | ID: 39 -->
<g id="node6" class="node">
<title>COMMAND AND CONTROL
unknown | ID: 39</title>
<g id="a_node6"><a xlink:title="ET POLICY RDP connection confirm">
<polygon fill="none" stroke="black" stroke-width="3" points="405.62,-2717.48 82.62,-2717.48 82.62,-2657.48 405.62,-2657.48 405.62,-2717.48"/>
<text text-anchor="middle" x="244.12" y="-2694.28" font-family="Arial" font-size="24.00">COMMAND AND CONTROL</text>
<text text-anchor="middle" x="244.12" y="-2668.28" font-family="Arial" font-size="24.00">unknown | ID: 39</text>
</a>
</g>
</g>
<!-- SERVICE DISCOVERY
cm&#45;&gt;COMMAND AND CONTROL
unknown | ID: 39 -->
<g id="edge4" class="edge">
<title>SERVICE DISCOVERY
cm&#45;&gt;COMMAND AND CONTROL
unknown | ID: 39</title>
<path fill="none" stroke="darkgreen" stroke-width="5" d="M243.37,-2556.56C243.53,-2584.11 243.74,-2620.06 243.89,-2647.16"/>
<polygon fill="darkgreen" stroke="darkgreen" stroke-width="5" points="239.52,-2647.46 243.95,-2657.44 248.27,-2647.41 239.52,-2647.46"/>
<text text-anchor="middle" x="375.62" y="-2614.49" font-family="Arial" font-size="20.00" fill="darkgreen">start_next: 04/11/17, 13:39:05</text>
<text text-anchor="middle" x="375.62" y="-2592.49" font-family="Arial" font-size="20.00" fill="darkgreen">gap: 60sec</text>
<text text-anchor="middle" x="375.62" y="-2570.49" font-family="Arial" font-size="20.00" fill="darkgreen">end_prev: 04/11/17, 13:38:04</text>
</g>
<!-- COMMAND AND CONTROL
unknown | ID: 39&#45;&gt;NETWORK DoS
ms&#45;wbt&#45;server | ID: 36 -->
<g id="edge5" class="edge">
<title>COMMAND AND CONTROL
unknown | ID: 39&#45;&gt;NETWORK DoS
ms&#45;wbt&#45;server | ID: 36</title>
<path fill="none" stroke="darkgreen" stroke-width="5" d="M235.85,-2717.67C230.07,-2744.88 226.72,-2785 248.12,-2810.47 261.61,-2826.51 297.6,-2838.15 338.99,-2846.51"/>
<polygon fill="darkgreen" stroke="darkgreen" stroke-width="5" points="338.39,-2850.85 349.04,-2848.45 340.06,-2842.26 338.39,-2850.85"/>
<text text-anchor="middle" x="379.62" y="-2794.47" font-family="Arial" font-size="20.00" fill="darkgreen">start_next: 04/11/17, 13:42:17</text>
<text text-anchor="middle" x="379.62" y="-2772.47" font-family="Arial" font-size="20.00" fill="darkgreen">gap: 192sec</text>
<text text-anchor="middle" x="379.62" y="-2750.47" font-family="Arial" font-size="20.00" fill="darkgreen">end_prev: 04/11/17, 13:39:05</text>
</g>
<!-- VULNERABILTY DISCOVERY
postgresql -->
<g id="node7" class="node">
<title>VULNERABILTY DISCOVERY
postgresql</title>
<g id="a_node7"><a xlink:title="ET POLICY Suspicious inbound to MSSQL port 1433&#10;ET POLICY Suspicious inbound to mySQL port 3306&#10;ET POLICY Suspicious inbound to Oracle SQL port 1521&#10;ET POLICY Suspicious inbound to PostgreSQL port 5432">
<ellipse fill="yellow" stroke="black" stroke-width="3" cx="524.12" cy="-223.28" rx="241.25" ry="42.35"/>
<text text-anchor="middle" x="524.12" y="-230.08" font-family="Arial" font-size="24.00">VULNERABILTY DISCOVERY</text>
<text text-anchor="middle" x="524.12" y="-204.08" font-family="Arial" font-size="24.00">postgresql</text>
</a>
</g>
</g>
<!-- VULNERABILTY DISCOVERY
postgresql&#45;&gt;NETWORK DoS
ms&#45;wbt&#45;server | ID: 36 -->
<g id="edge33" class="edge">
<title>VULNERABILTY DISCOVERY
postgresql&#45;&gt;NETWORK DoS
ms&#45;wbt&#45;server | ID: 36</title>
<path fill="none" stroke="purple" stroke-width="5" d="M521.21,-265.82C518.93,-302.05 516.12,-356.04 516.12,-403.13 516.12,-403.13 516.12,-403.13 516.12,-2688.48 516.12,-2728.24 516.12,-2773 516.12,-2807.69"/>
<polygon fill="purple" stroke="purple" stroke-width="5" points="511.75,-2808.11 516.12,-2818.11 520.5,-2808.11 511.75,-2808.11"/>
<text text-anchor="middle" x="647.62" y="-1509.38" font-family="Arial" font-size="20.00" fill="purple">start_next: 04/11/17, 15:47:15</text>
<text text-anchor="middle" x="647.62" y="-1487.38" font-family="Arial" font-size="20.00" fill="purple">gap: 0sec</text>
<text text-anchor="middle" x="647.62" y="-1465.38" font-family="Arial" font-size="20.00" fill="purple">end_prev: 04/11/17, 15:47:16</text>
</g>
<!-- VULNERABILTY DISCOVERY
postgresql&#45;&gt;VULNERABILTY DISCOVERY
postgresql -->
<g id="edge32" class="edge">
<title>VULNERABILTY DISCOVERY
postgresql&#45;&gt;VULNERABILTY DISCOVERY
postgresql</title>
<path fill="none" stroke="purple" stroke-width="5" d="M759.14,-213.76C767.47,-216.28 772.25,-219.46 772.25,-223.28 772.25,-225.31 770.9,-227.16 768.39,-228.82"/>
<polygon fill="purple" stroke="purple" stroke-width="5" points="766.59,-224.83 759.14,-232.8 770.05,-232.87 766.59,-224.83"/>
<text text-anchor="middle" x="903.75" y="-240.28" font-family="Arial" font-size="20.00" fill="purple">start_next: 04/11/17, 15:47:14</text>
<text text-anchor="middle" x="903.75" y="-218.28" font-family="Arial" font-size="20.00" fill="purple">gap: 9435sec</text>
<text text-anchor="middle" x="903.75" y="-196.28" font-family="Arial" font-size="20.00" fill="purple">end_prev: 04/11/17, 13:09:59</text>
</g>
<!-- VULNERABILTY DISCOVERY
ms&#45;sql&#45;s -->
<g id="node8" class="node">
<title>VULNERABILTY DISCOVERY
ms&#45;sql&#45;s</title>
<g id="a_node8"><a xlink:title="ET POLICY Suspicious inbound to MSSQL port 1433&#10;ET POLICY Suspicious inbound to Oracle SQL port 1521&#10;ET POLICY Suspicious inbound to mSQL port 4333">
<ellipse fill="none" stroke="black" stroke-width="3" cx="777.12" cy="-404.13" rx="241.25" ry="42.35"/>
<text text-anchor="middle" x="777.12" y="-410.93" font-family="Arial" font-size="24.00">VULNERABILTY DISCOVERY</text>
<text text-anchor="middle" x="777.12" y="-384.93" font-family="Arial" font-size="24.00">ms&#45;sql&#45;s</text>
</a>
</g>
</g>
<!-- VULNERABILTY DISCOVERY
postgresql&#45;&gt;VULNERABILTY DISCOVERY
ms&#45;sql&#45;s -->
<g id="edge6" class="edge">
<title>VULNERABILTY DISCOVERY
postgresql&#45;&gt;VULNERABILTY DISCOVERY
ms&#45;sql&#45;s</title>
<path fill="none" stroke="blue" stroke-width="5" d="M581.22,-264.64C619.94,-292.01 671.23,-328.27 711.62,-356.82"/>
<polygon fill="blue" stroke="blue" stroke-width="5" points="709.11,-360.41 719.8,-362.61 714.16,-353.26 709.11,-360.41"/>
<text text-anchor="start" x="702.12" y="-338.71" font-family="Arial" font-size="20.00" fill="blue"> start_next: 04/11/17, 14:03:01</text>
<text text-anchor="start" x="775.62" y="-318.71" font-family="Arial" font-size="20.00" fill="blue">gap: 3603sec</text>
<text text-anchor="start" x="706.12" y="-298.71" font-family="Arial" font-size="20.00" fill="blue">end_prev: 04/11/17, 13:02:57</text>
<text text-anchor="start" x="736.62" y="-278.71" font-family="Arial" font-weight="bold" font-size="20.00" fill="blue">Attacker: 10.0.254.31</text>
</g>
<!-- SERVICE DISCOVERY
unknown -->
<g id="node9" class="node">
<title>SERVICE DISCOVERY
unknown</title>
<g id="a_node9"><a xlink:title="ET SCAN Potential VNC Scan 5800&#45;5820">
<ellipse fill="none" stroke="black" stroke-width="3" cx="801.12" cy="-570.98" rx="189.51" ry="42.35"/>
<text text-anchor="middle" x="801.12" y="-577.78" font-family="Arial" font-size="24.00">SERVICE DISCOVERY</text>
<text text-anchor="middle" x="801.12" y="-551.78" font-family="Arial" font-size="24.00">unknown</text>
</a>
</g>
</g>
<!-- VULNERABILTY DISCOVERY
ms&#45;sql&#45;s&#45;&gt;SERVICE DISCOVERY
unknown -->
<g id="edge7" class="edge">
<title>VULNERABILTY DISCOVERY
ms&#45;sql&#45;s&#45;&gt;SERVICE DISCOVERY
unknown</title>
<path fill="none" stroke="blue" stroke-width="5" d="M783.18,-446.73C786.35,-468.5 790.26,-495.35 793.62,-518.43"/>
<polygon fill="blue" stroke="blue" stroke-width="5" points="789.3,-519.13 795.07,-528.4 797.96,-517.87 789.3,-519.13"/>
<text text-anchor="middle" x="924.62" y="-504.56" font-family="Arial" font-size="20.00" fill="blue">start_next: 04/11/17, 14:04:31</text>
<text text-anchor="middle" x="924.62" y="-482.56" font-family="Arial" font-size="20.00" fill="blue">gap: 13sec</text>
<text text-anchor="middle" x="924.62" y="-460.56" font-family="Arial" font-size="20.00" fill="blue">end_prev: 04/11/17, 14:04:18</text>
</g>
<!-- ARBITRARY CODE EXECUTION
microsoft&#45;ds | ID: 309 -->
<g id="node10" class="node">
<title>ARBITRARY CODE EXECUTION
microsoft&#45;ds | ID: 309</title>
<g id="a_node10"><a xlink:title="GPL NETBIOS DCERPC Remote Activation bind attempt&#10;ET CURRENT_EVENTS QNAP Shellshock CVE&#45;2014&#45;6271&#10;GPL NETBIOS DCERPC IActivation little endian bind attempt&#10;GPL MISC UPnP malformed advertisement&#10;GPL NETBIOS SMB&#45;DS Session Setup NTMLSSP unicode asn1 overflow attempt">
<polygon fill="none" stroke="black" stroke-width="3" points="992.62,-755.41 617.62,-755.41 617.62,-695.41 992.62,-695.41 992.62,-755.41"/>
<text text-anchor="middle" x="805.12" y="-732.21" font-family="Arial" font-size="24.00">ARBITRARY CODE EXECUTION</text>
<text text-anchor="middle" x="805.12" y="-706.21" font-family="Arial" font-size="24.00">microsoft&#45;ds | ID: 309</text>
</a>
</g>
</g>
<!-- SERVICE DISCOVERY
unknown&#45;&gt;ARBITRARY CODE EXECUTION
microsoft&#45;ds | ID: 309 -->
<g id="edge8" class="edge">
<title>SERVICE DISCOVERY
unknown&#45;&gt;ARBITRARY CODE EXECUTION
microsoft&#45;ds | ID: 309</title>
<path fill="none" stroke="blue" stroke-width="5" d="M802.22,-613.64C802.8,-635.91 803.52,-663.17 804.09,-685.08"/>
<polygon fill="blue" stroke="blue" stroke-width="5" points="799.73,-685.48 804.36,-695.36 808.47,-685.25 799.73,-685.48"/>
<text text-anchor="middle" x="934.62" y="-671.41" font-family="Arial" font-size="20.00" fill="blue">start_next: 04/11/17, 14:04:45</text>
<text text-anchor="middle" x="934.62" y="-649.41" font-family="Arial" font-size="20.00" fill="blue">gap: 14sec</text>
<text text-anchor="middle" x="934.62" y="-627.41" font-family="Arial" font-size="20.00" fill="blue">end_prev: 04/11/17, 14:04:31</text>
</g>
<!-- REMOTE SERVICE EXPLOIT
snmp | ID: 52 -->
<g id="node11" class="node">
<title>REMOTE SERVICE EXPLOIT
snmp | ID: 52</title>
<g id="a_node11"><a xlink:title="ET SNMP Samsung Printer SNMP Hardcode RW Community String">
<polygon fill="none" stroke="black" stroke-width="3" points="1194.12,-897.41 856.12,-897.41 856.12,-837.41 1194.12,-837.41 1194.12,-897.41"/>
<text text-anchor="middle" x="1025.12" y="-874.21" font-family="Arial" font-size="24.00">REMOTE SERVICE EXPLOIT</text>
<text text-anchor="middle" x="1025.12" y="-848.21" font-family="Arial" font-size="24.00">snmp | ID: 52</text>
</a>
</g>
</g>
<!-- ARBITRARY CODE EXECUTION
microsoft&#45;ds | ID: 309&#45;&gt;REMOTE SERVICE EXPLOIT
snmp | ID: 52 -->
<g id="edge9" class="edge">
<title>ARBITRARY CODE EXECUTION
microsoft&#45;ds | ID: 309&#45;&gt;REMOTE SERVICE EXPLOIT
snmp | ID: 52</title>
<path fill="none" stroke="blue" stroke-width="5" d="M992.72,-735.16C1028.23,-740.75 1058.08,-749.57 1070.12,-763.41 1087.57,-783.47 1083.69,-799.59 1069.95,-828"/>
<polygon fill="blue" stroke="blue" stroke-width="5" points="1065.9,-826.33 1065.38,-837.23 1073.74,-830.21 1065.9,-826.33"/>
<text text-anchor="middle" x="1213.62" y="-813.41" font-family="Arial" font-size="20.00" fill="blue">start_next: 04/11/17, 14:05:21</text>
<text text-anchor="middle" x="1213.62" y="-791.41" font-family="Arial" font-size="20.00" fill="blue">gap: &#45;80sec</text>
<text text-anchor="middle" x="1213.62" y="-769.41" font-family="Arial" font-size="20.00" fill="blue">end_prev: 04/11/17, 14:06:41</text>
</g>
<!-- ARBITRARY CODE EXECUTION
microsoft&#45;ds | ID: 309&#45;&gt;REMOTE SERVICE EXPLOIT
snmp | ID: 52 -->
<g id="edge18" class="edge">
<title>ARBITRARY CODE EXECUTION
microsoft&#45;ds | ID: 309&#45;&gt;REMOTE SERVICE EXPLOIT
snmp | ID: 52</title>
<path fill="none" stroke="blue" stroke-width="5" d="M801.42,-755.41C798.72,-781.95 796.95,-818.67 806.12,-829.41 813.16,-837.65 827.66,-844.06 846.01,-849.04"/>
<polygon fill="blue" stroke="blue" stroke-width="5" points="845.18,-853.34 855.94,-851.51 847.29,-844.85 845.18,-853.34"/>
<text text-anchor="middle" x="937.62" y="-813.41" font-family="Arial" font-size="20.00" fill="blue">start_next: 04/11/17, 16:33:47</text>
<text text-anchor="middle" x="937.62" y="-791.41" font-family="Arial" font-size="20.00" fill="blue">gap: &#45;170sec</text>
<text text-anchor="middle" x="937.62" y="-769.41" font-family="Arial" font-size="20.00" fill="blue">end_prev: 04/11/17, 16:36:37</text>
</g>
<!-- COMMAND AND CONTROL
unknown | ID: 308 -->
<g id="node12" class="node">
<title>COMMAND AND CONTROL
unknown | ID: 308</title>
<g id="a_node12"><a xlink:title="ET POLICY RDP connection confirm">
<polygon fill="none" stroke="black" stroke-width="3" points="1183.62,-1039.41 860.62,-1039.41 860.62,-979.41 1183.62,-979.41 1183.62,-1039.41"/>
<text text-anchor="middle" x="1022.12" y="-1016.21" font-family="Arial" font-size="24.00">COMMAND AND CONTROL</text>
<text text-anchor="middle" x="1022.12" y="-990.21" font-family="Arial" font-size="24.00">unknown | ID: 308</text>
</a>
</g>
</g>
<!-- REMOTE SERVICE EXPLOIT
snmp | ID: 52&#45;&gt;COMMAND AND CONTROL
unknown | ID: 308 -->
<g id="edge10" class="edge">
<title>REMOTE SERVICE EXPLOIT
snmp | ID: 52&#45;&gt;COMMAND AND CONTROL
unknown | ID: 308</title>
<path fill="none" stroke="blue" stroke-width="5" d="M901.82,-897.57C897.56,-900.03 894.23,-902.64 892.12,-905.41 874.38,-928.77 874.45,-948 892.12,-971.41 892.59,-972.03 893.11,-972.63 893.7,-973.23"/>
<polygon fill="blue" stroke="blue" stroke-width="5" points="891.38,-976.96 902.02,-979.38 896.58,-969.92 891.38,-976.96"/>
<text text-anchor="middle" x="1023.62" y="-955.41" font-family="Arial" font-size="20.00" fill="blue">start_next: 04/11/17, 14:05:45</text>
<text text-anchor="middle" x="1023.62" y="-933.41" font-family="Arial" font-size="20.00" fill="blue">gap: 24sec</text>
<text text-anchor="middle" x="1023.62" y="-911.41" font-family="Arial" font-size="20.00" fill="blue">end_prev: 04/11/17, 14:05:21</text>
</g>
<!-- REMOTE SERVICE EXPLOIT
snmp | ID: 52&#45;&gt;COMMAND AND CONTROL
unknown | ID: 308 -->
<g id="edge19" class="edge">
<title>REMOTE SERVICE EXPLOIT
snmp | ID: 52&#45;&gt;COMMAND AND CONTROL
unknown | ID: 308</title>
<path fill="none" stroke="blue" stroke-width="5" d="M1145.37,-897.72C1147.8,-900.1 1150.06,-902.66 1152.12,-905.41 1169.73,-928.88 1169.8,-948 1152.12,-971.41 1151.66,-972.03 1151.13,-972.63 1150.55,-973.23"/>
<polygon fill="blue" stroke="blue" stroke-width="5" points="1147.67,-969.92 1142.23,-979.38 1152.87,-976.96 1147.67,-969.92"/>
<text text-anchor="middle" x="1296.62" y="-955.41" font-family="Arial" font-size="20.00" fill="blue">start_next: 04/11/17, 16:34:13</text>
<text text-anchor="middle" x="1296.62" y="-933.41" font-family="Arial" font-size="20.00" fill="blue">gap: 26sec</text>
<text text-anchor="middle" x="1296.62" y="-911.41" font-family="Arial" font-size="20.00" fill="blue">end_prev: 04/11/17, 16:33:47</text>
</g>
<!-- ACCOUNT MANIPULATION
snmp | ID: 53 -->
<g id="node13" class="node">
<title>ACCOUNT MANIPULATION
snmp | ID: 53</title>
<g id="a_node13"><a xlink:title="GPL SNMP private access udp&#10;GPL SNMP public access udp">
<polygon fill="none" stroke="black" stroke-width="3" points="1284.12,-1181.41 964.12,-1181.41 964.12,-1121.41 1284.12,-1121.41 1284.12,-1181.41"/>
<text text-anchor="middle" x="1124.12" y="-1158.21" font-family="Arial" font-size="24.00">ACCOUNT MANIPULATION</text>
<text text-anchor="middle" x="1124.12" y="-1132.21" font-family="Arial" font-size="24.00">snmp | ID: 53</text>
</a>
</g>
</g>
<!-- COMMAND AND CONTROL
unknown | ID: 308&#45;&gt;ACCOUNT MANIPULATION
snmp | ID: 53 -->
<g id="edge11" class="edge">
<title>COMMAND AND CONTROL
unknown | ID: 308&#45;&gt;ACCOUNT MANIPULATION
snmp | ID: 53</title>
<path fill="none" stroke="blue" stroke-width="5" d="M897.89,-1039.53C893.6,-1042 890.24,-1044.63 888.12,-1047.41 870.36,-1070.75 869.06,-1091.12 888.12,-1113.41 898.43,-1125.46 923.64,-1133.61 953.93,-1139.12"/>
<polygon fill="blue" stroke="blue" stroke-width="5" points="953.34,-1143.46 963.93,-1140.82 954.8,-1134.83 953.34,-1143.46"/>
<text text-anchor="middle" x="1019.62" y="-1097.41" font-family="Arial" font-size="20.00" fill="blue">start_next: 04/11/17, 14:05:50</text>
<text text-anchor="middle" x="1019.62" y="-1075.41" font-family="Arial" font-size="20.00" fill="blue">gap: &#45;110sec</text>
<text text-anchor="middle" x="1019.62" y="-1053.41" font-family="Arial" font-size="20.00" fill="blue">end_prev: 04/11/17, 14:07:41</text>
</g>
<!-- COMMAND AND CONTROL
unknown | ID: 308&#45;&gt;ACCOUNT MANIPULATION
snmp | ID: 53 -->
<g id="edge20" class="edge">
<title>COMMAND AND CONTROL
unknown | ID: 308&#45;&gt;ACCOUNT MANIPULATION
snmp | ID: 53</title>
<path fill="none" stroke="blue" stroke-width="5" d="M1141.43,-1039.77C1143.83,-1042.13 1146.07,-1044.67 1148.12,-1047.41 1164.05,-1068.69 1157.95,-1082.51 1148.22,-1111.68"/>
<polygon fill="blue" stroke="blue" stroke-width="5" points="1144.03,-1110.39 1145.1,-1121.26 1152.36,-1113.1 1144.03,-1110.39"/>
<text text-anchor="middle" x="1289.62" y="-1097.41" font-family="Arial" font-size="20.00" fill="blue">start_next: 04/11/17, 16:34:19</text>
<text text-anchor="middle" x="1289.62" y="-1075.41" font-family="Arial" font-size="20.00" fill="blue">gap: &#45;105sec</text>
<text text-anchor="middle" x="1289.62" y="-1053.41" font-family="Arial" font-size="20.00" fill="blue">end_prev: 04/11/17, 16:36:04</text>
</g>
<!-- DATA DELIVERY
wsman | ID: 399 -->
<g id="node14" class="node">
<title>DATA DELIVERY
wsman | ID: 399</title>
<g id="a_node14"><a xlink:title="GPL WEB_SERVER perl post attempt">
<polygon fill="none" stroke="black" stroke-width="3" points="1516.22,-1312.4 1434.67,-1361.38 1271.57,-1361.38 1190.02,-1312.4 1271.57,-1263.42 1434.67,-1263.42 1516.22,-1312.4"/>
<text text-anchor="middle" x="1353.12" y="-1319.2" font-family="Arial" font-size="24.00">DATA DELIVERY</text>
<text text-anchor="middle" x="1353.12" y="-1293.2" font-family="Arial" font-size="24.00">wsman | ID: 399</text>
</a>
</g>
</g>
<!-- ACCOUNT MANIPULATION
snmp | ID: 53&#45;&gt;DATA DELIVERY
wsman | ID: 399 -->
<g id="edge12" class="edge">
<title>ACCOUNT MANIPULATION
snmp | ID: 53&#45;&gt;DATA DELIVERY
wsman | ID: 399</title>
<path fill="none" stroke="blue" stroke-width="5" d="M1112.37,-1181.75C1105.45,-1204.27 1100.9,-1234.88 1117.12,-1255.41 1130.02,-1271.73 1168.12,-1283.79 1210.04,-1292.45"/>
<polygon fill="blue" stroke="blue" stroke-width="5" points="1209.24,-1296.75 1219.9,-1294.42 1210.95,-1288.17 1209.24,-1296.75"/>
<text text-anchor="middle" x="1248.62" y="-1239.41" font-family="Arial" font-size="20.00" fill="blue">start_next: 04/11/17, 14:06:39</text>
<text text-anchor="middle" x="1248.62" y="-1217.41" font-family="Arial" font-size="20.00" fill="blue">gap: 41sec</text>
<text text-anchor="middle" x="1248.62" y="-1195.41" font-family="Arial" font-size="20.00" fill="blue">end_prev: 04/11/17, 14:05:58</text>
</g>
<!-- ACCOUNT MANIPULATION
snmp | ID: 53&#45;&gt;DATA DELIVERY
wsman | ID: 399 -->
<g id="edge21" class="edge">
<title>ACCOUNT MANIPULATION
snmp | ID: 53&#45;&gt;DATA DELIVERY
wsman | ID: 399</title>
<path fill="none" stroke="blue" stroke-width="5" d="M1284.12,-1159.23C1326.15,-1164.54 1363.55,-1173.71 1377.12,-1189.41 1392.38,-1207.06 1390.48,-1231.54 1383.19,-1253.95"/>
<polygon fill="blue" stroke="blue" stroke-width="5" points="1379.06,-1252.51 1379.77,-1263.4 1387.28,-1255.48 1379.06,-1252.51"/>
<text text-anchor="middle" x="1519.62" y="-1239.41" font-family="Arial" font-size="20.00" fill="blue">start_next: 04/11/17, 16:35:00</text>
<text text-anchor="middle" x="1519.62" y="-1217.41" font-family="Arial" font-size="20.00" fill="blue">gap: 34sec</text>
<text text-anchor="middle" x="1519.62" y="-1195.41" font-family="Arial" font-size="20.00" fill="blue">end_prev: 04/11/17, 16:34:27</text>
</g>
<!-- DATA EXFILTRATION
wsman | ID: 63 -->
<g id="node15" class="node">
<title>DATA EXFILTRATION
wsman | ID: 63</title>
<g id="a_node15"><a xlink:title="ET WEB_SPECIFIC_APPS PHP&#45;CGI query string parameter vulnerability">
<polygon fill="none" stroke="black" stroke-width="3" points="1543,-1492.38 1440.56,-1541.36 1235.68,-1541.36 1133.24,-1492.38 1235.68,-1443.4 1440.56,-1443.4 1543,-1492.38"/>
<text text-anchor="middle" x="1338.12" y="-1499.18" font-family="Arial" font-size="24.00">DATA EXFILTRATION</text>
<text text-anchor="middle" x="1338.12" y="-1473.18" font-family="Arial" font-size="24.00">wsman | ID: 63</text>
</a>
</g>
</g>
<!-- DATA DELIVERY
wsman | ID: 399&#45;&gt;DATA EXFILTRATION
wsman | ID: 63 -->
<g id="edge13" class="edge">
<title>DATA DELIVERY
wsman | ID: 399&#45;&gt;DATA EXFILTRATION
wsman | ID: 63</title>
<path fill="none" stroke="blue" stroke-width="5" d="M1224.04,-1333.04C1184.47,-1341.87 1148.16,-1353.86 1136.12,-1369.39 1118.16,-1392.58 1118.37,-1412.04 1136.12,-1435.39 1143.57,-1445.18 1161.17,-1453.7 1183.03,-1460.95"/>
<polygon fill="blue" stroke="blue" stroke-width="5" points="1181.8,-1465.14 1192.65,-1463.97 1184.42,-1456.8 1181.8,-1465.14"/>
<text text-anchor="middle" x="1267.62" y="-1419.39" font-family="Arial" font-size="20.00" fill="blue">start_next: 04/11/17, 14:06:42</text>
<text text-anchor="middle" x="1267.62" y="-1397.39" font-family="Arial" font-size="20.00" fill="blue">gap: 3sec</text>
<text text-anchor="middle" x="1267.62" y="-1375.39" font-family="Arial" font-size="20.00" fill="blue">end_prev: 04/11/17, 14:06:39</text>
</g>
<!-- DATA DELIVERY
wsman | ID: 399&#45;&gt;DATA EXFILTRATION
wsman | ID: 63 -->
<g id="edge22" class="edge">
<title>DATA DELIVERY
wsman | ID: 399&#45;&gt;DATA EXFILTRATION
wsman | ID: 63</title>
<path fill="none" stroke="blue" stroke-width="5" d="M1392.89,-1361.48C1394.13,-1364.08 1395.22,-1366.72 1396.12,-1369.39 1404.67,-1394.56 1407.14,-1406.14 1396.01,-1434.07"/>
<polygon fill="blue" stroke="blue" stroke-width="5" points="1391.98,-1432.38 1392.11,-1443.3 1400.04,-1435.79 1391.98,-1432.38"/>
<text text-anchor="middle" x="1534.62" y="-1419.39" font-family="Arial" font-size="20.00" fill="blue">start_next: 04/11/17, 16:35:04</text>
<text text-anchor="middle" x="1534.62" y="-1397.39" font-family="Arial" font-size="20.00" fill="blue">gap: 3sec</text>
<text text-anchor="middle" x="1534.62" y="-1375.39" font-family="Arial" font-size="20.00" fill="blue">end_prev: 04/11/17, 16:35:00</text>
</g>
<!-- SERVICE DISCOVERY
rfb -->
<g id="node16" class="node">
<title>SERVICE DISCOVERY
rfb</title>
<g id="a_node16"><a xlink:title="ET SCAN Potential VNC Scan 5800&#45;5820&#10;ET SCAN Potential VNC Scan 5900&#45;5920">
<ellipse fill="none" stroke="black" stroke-width="3" cx="1037.12" cy="-1665.8" rx="189.51" ry="42.35"/>
<text text-anchor="middle" x="1037.12" y="-1672.6" font-family="Arial" font-size="24.00">SERVICE DISCOVERY</text>
<text text-anchor="middle" x="1037.12" y="-1646.6" font-family="Arial" font-size="24.00">rfb</text>
</a>
</g>
</g>
<!-- DATA EXFILTRATION
wsman | ID: 63&#45;&gt;SERVICE DISCOVERY
rfb -->
<g id="edge14" class="edge">
<title>DATA EXFILTRATION
wsman | ID: 63&#45;&gt;SERVICE DISCOVERY
rfb</title>
<path fill="none" stroke="blue" stroke-width="5" d="M1171.6,-1510.73C1143.75,-1519.25 1116.63,-1531.58 1094.12,-1549.37 1073.72,-1565.5 1060.09,-1590.82 1051.29,-1613.64"/>
<polygon fill="blue" stroke="blue" stroke-width="5" points="1047.1,-1612.34 1047.8,-1623.23 1055.33,-1615.32 1047.1,-1612.34"/>
<text text-anchor="middle" x="1225.62" y="-1599.37" font-family="Arial" font-size="20.00" fill="blue">start_next: 04/11/17, 16:22:36</text>
<text text-anchor="middle" x="1225.62" y="-1577.37" font-family="Arial" font-size="20.00" fill="blue">gap: 8154sec</text>
<text text-anchor="middle" x="1225.62" y="-1555.37" font-family="Arial" font-size="20.00" fill="blue">end_prev: 04/11/17, 14:06:42</text>
</g>
<!-- HOST DISCOVERY
wsman -->
<g id="node19" class="node">
<title>HOST DISCOVERY
wsman</title>
<g id="a_node19"><a xlink:title="ET SCAN Possible Nmap User&#45;Agent Observed&#10;ET SCAN Nmap Scripting Engine User&#45;Agent Detected (Nmap Scripting Engine)">
<ellipse fill="none" stroke="black" stroke-width="3" cx="1396.12" cy="-1665.8" rx="162.77" ry="42.35"/>
<text text-anchor="middle" x="1396.12" y="-1672.6" font-family="Arial" font-size="24.00">HOST DISCOVERY</text>
<text text-anchor="middle" x="1396.12" y="-1646.6" font-family="Arial" font-size="24.00">wsman</text>
</a>
</g>
</g>
<!-- DATA EXFILTRATION
wsman | ID: 63&#45;&gt;HOST DISCOVERY
wsman -->
<g id="edge23" class="edge">
<title>DATA EXFILTRATION
wsman | ID: 63&#45;&gt;HOST DISCOVERY
wsman</title>
<path fill="none" stroke="blue" stroke-width="5" d="M1354.43,-1541.59C1362.06,-1564.11 1371.14,-1590.95 1378.87,-1613.81"/>
<polygon fill="blue" stroke="blue" stroke-width="5" points="1374.75,-1615.28 1382.1,-1623.35 1383.04,-1612.47 1374.75,-1615.28"/>
<text text-anchor="middle" x="1509.62" y="-1599.37" font-family="Arial" font-size="20.00" fill="blue">start_next: 04/11/17, 16:36:36</text>
<text text-anchor="middle" x="1509.62" y="-1577.37" font-family="Arial" font-size="20.00" fill="blue">gap: &#45;10sec</text>
<text text-anchor="middle" x="1509.62" y="-1555.37" font-family="Arial" font-size="20.00" fill="blue">end_prev: 04/11/17, 16:36:46</text>
</g>
<!-- VULNERABILTY DISCOVERY
ahsp -->
<g id="node17" class="node">
<title>VULNERABILTY DISCOVERY
ahsp</title>
<g id="a_node17"><a xlink:title="ET POLICY Suspicious inbound to mySQL port 3306&#10;ET POLICY Suspicious inbound to mSQL port 4333&#10;ET POLICY Suspicious inbound to MSSQL port 1433&#10;ET POLICY Suspicious inbound to Oracle SQL port 1521&#10;ET POLICY Suspicious inbound to PostgreSQL port 5432">
<ellipse fill="none" stroke="black" stroke-width="3" cx="1042.12" cy="-1832.65" rx="241.25" ry="42.35"/>
<text text-anchor="middle" x="1042.12" y="-1839.45" font-family="Arial" font-size="24.00">VULNERABILTY DISCOVERY</text>
<text text-anchor="middle" x="1042.12" y="-1813.45" font-family="Arial" font-size="24.00">ahsp</text>
</a>
</g>
</g>
<!-- SERVICE DISCOVERY
rfb&#45;&gt;VULNERABILTY DISCOVERY
ahsp -->
<g id="edge15" class="edge">
<title>SERVICE DISCOVERY
rfb&#45;&gt;VULNERABILTY DISCOVERY
ahsp</title>
<path fill="none" stroke="blue" stroke-width="5" d="M1038.39,-1708.4C1039.04,-1730.07 1039.85,-1756.78 1040.55,-1779.78"/>
<polygon fill="blue" stroke="blue" stroke-width="5" points="1036.19,-1780.2 1040.86,-1790.06 1044.93,-1779.94 1036.19,-1780.2"/>
<text text-anchor="middle" x="1171.62" y="-1766.22" font-family="Arial" font-size="20.00" fill="blue">start_next: 04/11/17, 16:27:31</text>
<text text-anchor="middle" x="1171.62" y="-1744.22" font-family="Arial" font-size="20.00" fill="blue">gap: 290sec</text>
<text text-anchor="middle" x="1171.62" y="-1722.22" font-family="Arial" font-size="20.00" fill="blue">end_prev: 04/11/17, 16:22:42</text>
</g>
<!-- SERVICE DISCOVERY
microsoft&#45;ds -->
<g id="node18" class="node">
<title>SERVICE DISCOVERY
microsoft&#45;ds</title>
<g id="a_node18"><a xlink:title="ET SCAN Behavioral Unusual Port 445 traffic Potential Scan or Infection&#10;ET SCAN Potential VNC Scan 5900&#45;5920">
<ellipse fill="none" stroke="black" stroke-width="3" cx="868.12" cy="-1999.5" rx="189.51" ry="42.35"/>
<text text-anchor="middle" x="868.12" y="-2006.3" font-family="Arial" font-size="24.00">SERVICE DISCOVERY</text>
<text text-anchor="middle" x="868.12" y="-1980.3" font-family="Arial" font-size="24.00">microsoft&#45;ds</text>
</a>
</g>
</g>
<!-- VULNERABILTY DISCOVERY
ahsp&#45;&gt;SERVICE DISCOVERY
microsoft&#45;ds -->
<g id="edge16" class="edge">
<title>VULNERABILTY DISCOVERY
ahsp&#45;&gt;SERVICE DISCOVERY
microsoft&#45;ds</title>
<path fill="none" stroke="blue" stroke-width="5" d="M999.11,-1874.4C974.66,-1897.57 943.91,-1926.7 918.35,-1950.92"/>
<polygon fill="blue" stroke="blue" stroke-width="5" points="915.19,-1947.88 910.94,-1957.94 921.21,-1954.23 915.19,-1947.88"/>
<text text-anchor="middle" x="1116.62" y="-1933.08" font-family="Arial" font-size="20.00" fill="blue">start_next: 04/11/17, 16:31:24</text>
<text text-anchor="middle" x="1116.62" y="-1911.08" font-family="Arial" font-size="20.00" fill="blue">gap: &#45;294sec</text>
<text text-anchor="middle" x="1116.62" y="-1889.08" font-family="Arial" font-size="20.00" fill="blue">end_prev: 04/11/17, 16:36:18</text>
</g>
<!-- SERVICE DISCOVERY
microsoft&#45;ds&#45;&gt;ARBITRARY CODE EXECUTION
microsoft&#45;ds | ID: 309 -->
<g id="edge17" class="edge">
<title>SERVICE DISCOVERY
microsoft&#45;ds&#45;&gt;ARBITRARY CODE EXECUTION
microsoft&#45;ds | ID: 309</title>
<path fill="none" stroke="blue" stroke-width="5" d="M836.4,-1957.63C814.8,-1925.7 790.12,-1879.24 790.12,-1833.65 790.12,-866.41 790.12,-866.41 790.12,-866.41 790.12,-823.54 791.82,-810.61 797.94,-765.57"/>
<polygon fill="blue" stroke="blue" stroke-width="5" points="802.31,-765.95 799.32,-755.45 793.64,-764.77 802.31,-765.95"/>
<text text-anchor="middle" x="921.62" y="-1329.4" font-family="Arial" font-size="20.00" fill="blue">start_next: 04/11/17, 16:33:08</text>
<text text-anchor="middle" x="921.62" y="-1307.4" font-family="Arial" font-size="20.00" fill="blue">gap: &#45;164sec</text>
<text text-anchor="middle" x="921.62" y="-1285.4" font-family="Arial" font-size="20.00" fill="blue">end_prev: 04/11/17, 16:35:52</text>
</g>
<!-- SURFING
wsman -->
<g id="node20" class="node">
<title>SURFING
wsman</title>
<g id="a_node20"><a xlink:title="ET WEB_SERVER WEB&#45;PHP phpinfo access">
<ellipse fill="none" stroke="black" stroke-width="3" cx="1390.12" cy="-1832.65" rx="88.28" ry="42.35"/>
<text text-anchor="middle" x="1390.12" y="-1839.45" font-family="Arial" font-size="24.00">SURFING</text>
<text text-anchor="middle" x="1390.12" y="-1813.45" font-family="Arial" font-size="24.00">wsman</text>
</a>
</g>
</g>
<!-- HOST DISCOVERY
wsman&#45;&gt;SURFING
wsman -->
<g id="edge24" class="edge">
<title>HOST DISCOVERY
wsman&#45;&gt;SURFING
wsman</title>
<path fill="none" stroke="blue" stroke-width="5" d="M1394.61,-1708.4C1393.82,-1730.07 1392.85,-1756.78 1392.01,-1779.78"/>
<polygon fill="blue" stroke="blue" stroke-width="5" points="1387.63,-1779.91 1391.64,-1790.06 1396.37,-1780.23 1387.63,-1779.91"/>
<text text-anchor="middle" x="1525.62" y="-1766.22" font-family="Arial" font-size="20.00" fill="blue">start_next: 04/11/17, 16:36:38</text>
<text text-anchor="middle" x="1525.62" y="-1744.22" font-family="Arial" font-size="20.00" fill="blue">gap: 2sec</text>
<text text-anchor="middle" x="1525.62" y="-1722.22" font-family="Arial" font-size="20.00" fill="blue">end_prev: 04/11/17, 16:36:36</text>
</g>
<!-- HOST DISCOVERY
unknown -->
<g id="node21" class="node">
<title>HOST DISCOVERY
unknown</title>
<g id="a_node21"><a xlink:title="ET SCAN Possible Nmap User&#45;Agent Observed&#10;ET SCAN Nmap Scripting Engine User&#45;Agent Detected (Nmap Scripting Engine)">
<ellipse fill="none" stroke="black" stroke-width="3" cx="1311.12" cy="-1999.5" rx="162.77" ry="42.35"/>
<text text-anchor="middle" x="1311.12" y="-2006.3" font-family="Arial" font-size="24.00">HOST DISCOVERY</text>
<text text-anchor="middle" x="1311.12" y="-1980.3" font-family="Arial" font-size="24.00">unknown</text>
</a>
</g>
</g>
<!-- SURFING
wsman&#45;&gt;HOST DISCOVERY
unknown -->
<g id="edge25" class="edge">
<title>SURFING
wsman&#45;&gt;HOST DISCOVERY
unknown</title>
<path fill="none" stroke="blue" stroke-width="5" d="M1370.6,-1874.4C1359.91,-1896.71 1346.57,-1924.54 1335.23,-1948.19"/>
<polygon fill="blue" stroke="blue" stroke-width="5" points="1331.21,-1946.45 1330.84,-1957.36 1339.1,-1950.24 1331.21,-1946.45"/>
<text text-anchor="middle" x="1495.62" y="-1933.08" font-family="Arial" font-size="20.00" fill="blue">start_next: 04/11/17, 16:51:38</text>
<text text-anchor="middle" x="1495.62" y="-1911.08" font-family="Arial" font-size="20.00" fill="blue">gap: 892sec</text>
<text text-anchor="middle" x="1495.62" y="-1889.08" font-family="Arial" font-size="20.00" fill="blue">end_prev: 04/11/17, 16:36:46</text>
</g>
<!-- ARBITRARY CODE EXECUTION
unknown | ID: 47 -->
<g id="node22" class="node">
<title>ARBITRARY CODE EXECUTION
unknown | ID: 47</title>
<g id="a_node22"><a xlink:title="ET CURRENT_EVENTS QNAP Shellshock CVE&#45;2014&#45;6271">
<polygon fill="none" stroke="black" stroke-width="3" points="1477.62,-2196.36 1102.62,-2196.36 1102.62,-2136.36 1477.62,-2136.36 1477.62,-2196.36"/>
<text text-anchor="middle" x="1290.12" y="-2173.16" font-family="Arial" font-size="24.00">ARBITRARY CODE EXECUTION</text>
<text text-anchor="middle" x="1290.12" y="-2147.16" font-family="Arial" font-size="24.00">unknown | ID: 47</text>
</a>
</g>
</g>
<!-- HOST DISCOVERY
unknown&#45;&gt;ARBITRARY CODE EXECUTION
unknown | ID: 47 -->
<g id="edge26" class="edge">
<title>HOST DISCOVERY
unknown&#45;&gt;ARBITRARY CODE EXECUTION
unknown | ID: 47</title>
<path fill="none" stroke="blue" stroke-width="5" d="M1305.82,-2042.1C1302.54,-2067.92 1298.33,-2100.89 1295.11,-2126.24"/>
<polygon fill="blue" stroke="blue" stroke-width="5" points="1290.76,-2125.77 1293.83,-2136.24 1299.44,-2126.87 1290.76,-2125.77"/>
<text text-anchor="middle" x="1435.62" y="-2099.93" font-family="Arial" font-size="20.00" fill="blue">start_next: 04/11/17, 16:51:39</text>
<text text-anchor="middle" x="1435.62" y="-2077.93" font-family="Arial" font-size="20.00" fill="blue">gap: 1sec</text>
<text text-anchor="middle" x="1435.62" y="-2055.93" font-family="Arial" font-size="20.00" fill="blue">end_prev: 04/11/17, 16:51:38</text>
</g>
<!-- SURFING
unknown -->
<g id="node23" class="node">
<title>SURFING
unknown</title>
<g id="a_node23"><a xlink:title="ET WEB_SERVER WEB&#45;PHP phpinfo access">
<ellipse fill="none" stroke="black" stroke-width="3" cx="1136.12" cy="-2347.21" rx="88.28" ry="42.35"/>
<text text-anchor="middle" x="1136.12" y="-2354.01" font-family="Arial" font-size="24.00">SURFING</text>
<text text-anchor="middle" x="1136.12" y="-2328.01" font-family="Arial" font-size="24.00">unknown</text>
</a>
</g>
</g>
<!-- ARBITRARY CODE EXECUTION
unknown | ID: 47&#45;&gt;SURFING
unknown -->
<g id="edge27" class="edge">
<title>ARBITRARY CODE EXECUTION
unknown | ID: 47&#45;&gt;SURFING
unknown</title>
<path fill="none" stroke="blue" stroke-width="5" d="M1265.04,-2196.49C1240.89,-2224.53 1204,-2267.38 1175.86,-2300.06"/>
<polygon fill="blue" stroke="blue" stroke-width="5" points="1172.48,-2297.28 1169.27,-2307.71 1179.11,-2302.99 1172.48,-2297.28"/>
<text text-anchor="middle" x="1375.62" y="-2273.78" font-family="Arial" font-size="20.00" fill="blue">start_next: 04/11/17, 16:51:40</text>
<text text-anchor="middle" x="1375.62" y="-2251.78" font-family="Arial" font-size="20.00" fill="blue">gap: 1sec</text>
<text text-anchor="middle" x="1375.62" y="-2229.78" font-family="Arial" font-size="20.00" fill="blue">end_prev: 04/11/17, 16:51:39</text>
</g>
<!-- INFO DISCOVERY
unknown -->
<g id="node24" class="node">
<title>INFO DISCOVERY
unknown</title>
<g id="a_node24"><a xlink:title="GPL WEB_SERVER globals.pl access">
<ellipse fill="none" stroke="black" stroke-width="3" cx="842.12" cy="-2514.06" rx="156.04" ry="42.35"/>
<text text-anchor="middle" x="842.12" y="-2520.86" font-family="Arial" font-size="24.00">INFO DISCOVERY</text>
<text text-anchor="middle" x="842.12" y="-2494.86" font-family="Arial" font-size="24.00">unknown</text>
</a>
</g>
</g>
<!-- SURFING
unknown&#45;&gt;INFO DISCOVERY
unknown -->
<g id="edge28" class="edge">
<title>SURFING
unknown&#45;&gt;INFO DISCOVERY
unknown</title>
<path fill="none" stroke="blue" stroke-width="5" d="M1079.44,-2379.99C1033.47,-2405.77 968.28,-2442.32 917.85,-2470.6"/>
<polygon fill="blue" stroke="blue" stroke-width="5" points="915.51,-2466.89 908.93,-2475.6 919.79,-2474.53 915.51,-2466.89"/>
<text text-anchor="middle" x="1171.62" y="-2447.63" font-family="Arial" font-size="20.00" fill="blue">start_next: 04/11/17, 16:51:42</text>
<text text-anchor="middle" x="1171.62" y="-2425.63" font-family="Arial" font-size="20.00" fill="blue">gap: &#45;5sec</text>
<text text-anchor="middle" x="1171.62" y="-2403.63" font-family="Arial" font-size="20.00" fill="blue">end_prev: 04/11/17, 16:51:47</text>
</g>
<!-- DATA EXFILTRATION
unknown | ID: 301 -->
<g id="node25" class="node">
<title>DATA EXFILTRATION
unknown | ID: 301</title>
<g id="a_node25"><a xlink:title="ET WEB_SPECIFIC_APPS PHP&#45;CGI query string parameter vulnerability">
<polygon fill="none" stroke="black" stroke-width="3" points="973,-2687.48 870.56,-2736.46 665.68,-2736.46 563.24,-2687.48 665.68,-2638.5 870.56,-2638.5 973,-2687.48"/>
<text text-anchor="middle" x="768.12" y="-2694.28" font-family="Arial" font-size="24.00">DATA EXFILTRATION</text>
<text text-anchor="middle" x="768.12" y="-2668.28" font-family="Arial" font-size="24.00">unknown | ID: 301</text>
</a>
</g>
</g>
<!-- INFO DISCOVERY
unknown&#45;&gt;DATA EXFILTRATION
unknown | ID: 301 -->
<g id="edge29" class="edge">
<title>INFO DISCOVERY
unknown&#45;&gt;DATA EXFILTRATION
unknown | ID: 301</title>
<path fill="none" stroke="blue" stroke-width="5" d="M824.21,-2556.56C814.81,-2578.34 803.14,-2605.36 792.89,-2629.12"/>
<polygon fill="blue" stroke="blue" stroke-width="5" points="788.83,-2627.47 788.89,-2638.38 796.87,-2630.94 788.83,-2627.47"/>
<text text-anchor="middle" x="951.62" y="-2614.49" font-family="Arial" font-size="20.00" fill="blue">start_next: 04/11/17, 16:51:43</text>
<text text-anchor="middle" x="951.62" y="-2592.49" font-family="Arial" font-size="20.00" fill="blue">gap: 1sec</text>
<text text-anchor="middle" x="951.62" y="-2570.49" font-family="Arial" font-size="20.00" fill="blue">end_prev: 04/11/17, 16:51:42</text>
</g>
<!-- DATA EXFILTRATION
unknown | ID: 301&#45;&gt;NETWORK DoS
ms&#45;wbt&#45;server | ID: 36 -->
<g id="edge30" class="edge">
<title>DATA EXFILTRATION
unknown | ID: 301&#45;&gt;NETWORK DoS
ms&#45;wbt&#45;server | ID: 36</title>
<path fill="none" stroke="blue" stroke-width="5" d="M699.93,-2736.64C666.87,-2759.99 627.04,-2788.12 592.92,-2812.22"/>
<polygon fill="blue" stroke="blue" stroke-width="5" points="590.02,-2808.91 584.37,-2818.25 595.06,-2816.06 590.02,-2808.91"/>
<text text-anchor="middle" x="817.62" y="-2794.47" font-family="Arial" font-size="20.00" fill="blue">start_next: 04/11/17, 18:01:49</text>
<text text-anchor="middle" x="817.62" y="-2772.47" font-family="Arial" font-size="20.00" fill="blue">gap: 4202sec</text>
<text text-anchor="middle" x="817.62" y="-2750.47" font-family="Arial" font-size="20.00" fill="blue">end_prev: 04/11/17, 16:51:47</text>
</g>
<!-- SERVICE DISCOVERY
dsd -->
<g id="node26" class="node">
<title>SERVICE DISCOVERY
dsd</title>
<g id="a_node26"><a xlink:title="ET SCAN Potential VNC Scan 5900&#45;5920">
<ellipse fill="yellow" stroke="black" stroke-width="3" cx="524.12" cy="-42.43" rx="189.51" ry="42.35"/>
<text text-anchor="middle" x="524.12" y="-49.23" font-family="Arial" font-size="24.00">SERVICE DISCOVERY</text>
<text text-anchor="middle" x="524.12" y="-23.23" font-family="Arial" font-size="24.00">dsd</text>
</a>
</g>
</g>
<!-- SERVICE DISCOVERY
dsd&#45;&gt;VULNERABILTY DISCOVERY
postgresql -->
<g id="edge31" class="edge">
<title>SERVICE DISCOVERY
dsd&#45;&gt;VULNERABILTY DISCOVERY
postgresql</title>
<path fill="none" stroke="purple" stroke-width="5" d="M524.12,-84.91C524.12,-110.44 524.12,-143.37 524.12,-170.59"/>
<polygon fill="purple" stroke="purple" stroke-width="5" points="519.75,-170.71 524.12,-180.71 528.5,-170.71 519.75,-170.71"/>
<text text-anchor="start" x="524.12" y="-157.85" font-family="Arial" font-size="20.00" fill="purple"> start_next: 04/11/17, 13:09:59</text>
<text text-anchor="start" x="603.62" y="-137.85" font-family="Arial" font-size="20.00" fill="purple">gap: 310sec</text>
<text text-anchor="start" x="528.12" y="-117.85" font-family="Arial" font-size="20.00" fill="purple">end_prev: 04/11/17, 13:04:49</text>
<text text-anchor="start" x="558.62" y="-97.85" font-family="Arial" font-weight="bold" font-size="20.00" fill="purple">Attacker: 10.0.254.33</text>
</g>
</g>
</svg>
