<?xml version="1.0" encoding="UTF-8" standalone="no"?>
<!DOCTYPE svg PUBLIC "-//W3C//DTD SVG 1.1//EN"
 "http://www.w3.org/Graphics/SVG/1.1/DTD/svg11.dtd">
<!-- Generated by graphviz version 2.50.0 (0)
 -->
<!-- Title: DATAEXFILTRATIONhttpalt Pages: 1 -->
<svg width="2253pt" height="1619pt"
 viewBox="0.00 0.00 2252.50 1619.45" xmlns="http://www.w3.org/2000/svg" xmlns:xlink="http://www.w3.org/1999/xlink">
<g id="graph0" class="graph" transform="scale(1 1) rotate(0) translate(4 1615.45)">
<title>DATAEXFILTRATIONhttpalt</title>
<polygon fill="white" stroke="transparent" points="-4,4 -4,-1615.45 2248.5,-1615.45 2248.5,4 -4,4"/>
<!-- Victim: 10.0.0.27
DATA EXFILTRATION
http&#45;alt -->
<g id="node1" class="node">
<title>Victim: 10.0.0.27
DATA EXFILTRATION
http&#45;alt</title>
<polygon fill="salmon" stroke="black" stroke-width="3" points="818.72,-1514.43 818.72,-1568.82 706.12,-1607.28 546.89,-1607.28 434.29,-1568.82 434.29,-1514.43 546.89,-1475.97 706.12,-1475.97 818.72,-1514.43"/>
<polygon fill="none" stroke="black" stroke-width="3" points="822.72,-1511.58 822.72,-1571.67 706.79,-1611.27 546.22,-1611.27 430.29,-1571.67 430.29,-1511.58 546.22,-1471.98 706.79,-1471.98 822.72,-1511.58"/>
<text text-anchor="middle" x="626.5" y="-1561.42" font-family="Arial" font-size="24.00">Victim: 10.0.0.27</text>
<text text-anchor="middle" x="626.5" y="-1535.42" font-family="Arial" font-size="24.00">DATA EXFILTRATION</text>
<text text-anchor="middle" x="626.5" y="-1509.42" font-family="Arial" font-size="24.00">http&#45;alt</text>
</g>
<!-- DATA EXFILTRATION
http&#45;alt | ID: 25 -->
<g id="node2" class="node">
<title>DATA EXFILTRATION
http&#45;alt | ID: 25</title>
<g id="a_node2"><a xlink:title="ET WEB_SPECIFIC_APPS PHP&#45;CGI query string parameter vulnerability">
<polygon fill="salmon" stroke="black" stroke-width="3" points="831.39,-1405.81 728.95,-1454.79 524.06,-1454.79 421.62,-1405.81 524.06,-1356.83 728.95,-1356.83 831.39,-1405.81"/>
<text text-anchor="middle" x="626.5" y="-1412.61" font-family="Arial" font-size="24.00">DATA EXFILTRATION</text>
<text text-anchor="middle" x="626.5" y="-1386.61" font-family="Arial" font-size="24.00">http&#45;alt | ID: 25</text>
</a>
</g>
</g>
<!-- DATA EXFILTRATION
http&#45;alt | ID: 25&#45;&gt;Victim: 10.0.0.27
DATA EXFILTRATION
http&#45;alt -->
<g id="edge1" class="edge">
<title>DATA EXFILTRATION
http&#45;alt | ID: 25&#45;&gt;Victim: 10.0.0.27
DATA EXFILTRATION
http&#45;alt</title>
<path fill="none" stroke="black" stroke-width="5" d="M626.5,-1455.12C626.5,-1457.23 626.5,-1459.36 626.5,-1461.51"/>
<polygon fill="black" stroke="black" stroke-width="5" points="622.13,-1461.66 626.5,-1471.66 630.88,-1461.66 622.13,-1461.66"/>
</g>
<!-- SURFING
http -->
<g id="node3" class="node">
<title>SURFING
http</title>
<g id="a_node3"><a xlink:title="ET WEB_SERVER WEB&#45;PHP phpinfo access">
<ellipse fill="yellow" stroke="black" stroke-width="3" cx="1414.5" cy="-884.69" rx="88.28" ry="42.35"/>
<text text-anchor="middle" x="1414.5" y="-891.49" font-family="Arial" font-size="24.00">SURFING</text>
<text text-anchor="middle" x="1414.5" y="-865.49" font-family="Arial" font-size="24.00">http</text>
</a>
</g>
</g>
<!-- INFO DISCOVERY
http -->
<g id="node4" class="node">
<title>INFO DISCOVERY
http</title>
<g id="a_node4"><a xlink:title="GPL WEB_SERVER globals.pl access">
<ellipse fill="none" stroke="black" stroke-width="3" cx="1312.5" cy="-1065.54" rx="156.04" ry="42.35"/>
<text text-anchor="middle" x="1312.5" y="-1072.34" font-family="Arial" font-size="24.00">INFO DISCOVERY</text>
<text text-anchor="middle" x="1312.5" y="-1046.34" font-family="Arial" font-size="24.00">http</text>
</a>
</g>
</g>
<!-- SURFING
http&#45;&gt;INFO DISCOVERY
http -->
<g id="edge2" class="edge">
<title>SURFING
http&#45;&gt;INFO DISCOVERY
http</title>
<path fill="none" stroke="purple" stroke-width="5" d="M1326.62,-889.49C1255.1,-894.64 1162.25,-906.74 1138.5,-935.12 1115.69,-962.38 1117.07,-986.75 1138.5,-1015.12 1144.71,-1023.33 1159.15,-1030.58 1177.21,-1036.82"/>
<polygon fill="purple" stroke="purple" stroke-width="5" points="1176.09,-1041.06 1186.95,-1039.99 1178.79,-1032.74 1176.09,-1041.06"/>
<text text-anchor="start" x="1138.5" y="-1000.12" font-family="Arial" font-size="20.00" fill="purple"> start_next: 04/11/17, 14:00:02</text>
<text text-anchor="start" x="1220" y="-980.12" font-family="Arial" font-size="20.00" fill="purple">gap: &#45;42sec</text>
<text text-anchor="start" x="1142.5" y="-960.12" font-family="Arial" font-size="20.00" fill="purple">end_prev: 04/11/17, 14:00:44</text>
<text text-anchor="start" x="1173" y="-940.12" font-family="Arial" font-weight="bold" font-size="20.00" fill="purple">Attacker: 10.0.254.30</text>
</g>
<!-- SURFING
http&#45;&gt;INFO DISCOVERY
http -->
<g id="edge17" class="edge">
<title>SURFING
http&#45;&gt;INFO DISCOVERY
http</title>
<path fill="none" stroke="tomato" stroke-width="5" d="M1415.16,-927.25C1414.92,-959.52 1412.7,-1001.05 1403.5,-1015.12 1402.08,-1017.29 1400.53,-1019.37 1398.88,-1021.37"/>
<polygon fill="tomato" stroke="tomato" stroke-width="5" points="1395.66,-1018.4 1391.97,-1028.67 1402.02,-1024.42 1395.66,-1018.4"/>
<text text-anchor="middle" x="1547" y="-992.12" font-family="Arial" font-size="20.00" fill="tomato">start_next: 04/11/17, 13:49:16</text>
<text text-anchor="middle" x="1547" y="-970.12" font-family="Arial" font-size="20.00" fill="tomato">gap: &#45;5sec</text>
<text text-anchor="middle" x="1547" y="-948.12" font-family="Arial" font-size="20.00" fill="tomato">end_prev: 04/11/17, 13:49:21</text>
</g>
<!-- HOST DISCOVERY
http&#45;alt -->
<g id="node5" class="node">
<title>HOST DISCOVERY
http&#45;alt</title>
<g id="a_node5"><a xlink:title="ET SCAN Behavioral Unusually fast Terminal Server Traffic Potential Scan or Infection (Inbound)&#10;ET SCAN Possible Nmap User&#45;Agent Observed&#10;ET SCAN Nmap Scripting Engine User&#45;Agent Detected (Nmap Scripting Engine)">
<ellipse fill="none" stroke="black" stroke-width="3" cx="1140.5" cy="-1232.4" rx="162.77" ry="42.35"/>
<text text-anchor="middle" x="1140.5" y="-1239.2" font-family="Arial" font-size="24.00">HOST DISCOVERY</text>
<text text-anchor="middle" x="1140.5" y="-1213.2" font-family="Arial" font-size="24.00">http&#45;alt</text>
</a>
</g>
</g>
<!-- INFO DISCOVERY
http&#45;&gt;HOST DISCOVERY
http&#45;alt -->
<g id="edge3" class="edge">
<title>INFO DISCOVERY
http&#45;&gt;HOST DISCOVERY
http&#45;alt</title>
<path fill="none" stroke="purple" stroke-width="5" d="M1178.92,-1087.93C1165.66,-1094.94 1153.73,-1104.08 1144.5,-1115.97 1130.71,-1133.75 1128.25,-1158.13 1129.82,-1179.89"/>
<polygon fill="purple" stroke="purple" stroke-width="5" points="1125.49,-1180.5 1130.85,-1190.01 1134.19,-1179.61 1125.49,-1180.5"/>
<text text-anchor="middle" x="1276" y="-1165.97" font-family="Arial" font-size="20.00" fill="purple">start_next: 04/11/17, 14:00:02</text>
<text text-anchor="middle" x="1276" y="-1143.97" font-family="Arial" font-size="20.00" fill="purple">gap: &#45;40sec</text>
<text text-anchor="middle" x="1276" y="-1121.97" font-family="Arial" font-size="20.00" fill="purple">end_prev: 04/11/17, 14:00:42</text>
</g>
<!-- DATA EXFILTRATION
http | ID: 26 -->
<g id="node6" class="node">
<title>DATA EXFILTRATION
http | ID: 26</title>
<g id="a_node6"><a xlink:title="ET WEB_SPECIFIC_APPS PHP&#45;CGI query string parameter vulnerability">
<polygon fill="none" stroke="black" stroke-width="3" points="1754.39,-1405.81 1651.95,-1454.79 1447.06,-1454.79 1344.62,-1405.81 1447.06,-1356.83 1651.95,-1356.83 1754.39,-1405.81"/>
<text text-anchor="middle" x="1549.5" y="-1412.61" font-family="Arial" font-size="24.00">DATA EXFILTRATION</text>
<text text-anchor="middle" x="1549.5" y="-1386.61" font-family="Arial" font-size="24.00">http | ID: 26</text>
</a>
</g>
</g>
<!-- INFO DISCOVERY
http&#45;&gt;DATA EXFILTRATION
http | ID: 26 -->
<g id="edge18" class="edge">
<title>INFO DISCOVERY
http&#45;&gt;DATA EXFILTRATION
http | ID: 26</title>
<path fill="none" stroke="tomato" stroke-width="5" d="M1392.82,-1102.35C1397.24,-1106.45 1401.21,-1110.97 1404.5,-1115.97 1443.51,-1175.14 1388.41,-1210.66 1418.5,-1274.82 1431.83,-1303.23 1454.13,-1328.92 1476.59,-1349.83"/>
<polygon fill="tomato" stroke="tomato" stroke-width="5" points="1473.85,-1353.25 1484.2,-1356.73 1479.73,-1346.77 1473.85,-1353.25"/>
<text text-anchor="middle" x="1550" y="-1249.4" font-family="Arial" font-size="20.00" fill="tomato">start_next: 04/11/17, 13:49:17</text>
<text text-anchor="middle" x="1550" y="-1227.4" font-family="Arial" font-size="20.00" fill="tomato">gap: 1sec</text>
<text text-anchor="middle" x="1550" y="-1205.4" font-family="Arial" font-size="20.00" fill="tomato">end_prev: 04/11/17, 13:49:16</text>
</g>
<!-- HOST DISCOVERY
http&#45;alt&#45;&gt;DATA EXFILTRATION
http | ID: 26 -->
<g id="edge4" class="edge">
<title>HOST DISCOVERY
http&#45;alt&#45;&gt;DATA EXFILTRATION
http | ID: 26</title>
<path fill="none" stroke="purple" stroke-width="5" d="M1129.89,-1274.85C1126.27,-1299.32 1126.84,-1329.25 1144.5,-1348.82 1172.18,-1379.49 1258.4,-1393.85 1344.22,-1400.38"/>
<polygon fill="purple" stroke="purple" stroke-width="5" points="1344.12,-1404.76 1354.41,-1401.12 1344.75,-1396.04 1344.12,-1404.76"/>
<text text-anchor="middle" x="1276" y="-1332.82" font-family="Arial" font-size="20.00" fill="purple">start_next: 04/11/17, 14:00:03</text>
<text text-anchor="middle" x="1276" y="-1310.82" font-family="Arial" font-size="20.00" fill="purple">gap: &#45;173sec</text>
<text text-anchor="middle" x="1276" y="-1288.82" font-family="Arial" font-size="20.00" fill="purple">end_prev: 04/11/17, 14:02:55</text>
</g>
<!-- VULNERABILTY DISCOVERY
ncube&#45;lm -->
<g id="node7" class="node">
<title>VULNERABILTY DISCOVERY
ncube&#45;lm</title>
<g id="a_node7"><a xlink:title="ET POLICY Suspicious inbound to Oracle SQL port 1521&#10;ET POLICY Suspicious inbound to mSQL port 4333">
<ellipse fill="none" stroke="black" stroke-width="3" cx="855.5" cy="-223.28" rx="241.25" ry="42.35"/>
<text text-anchor="middle" x="855.5" y="-230.08" font-family="Arial" font-size="24.00">VULNERABILTY DISCOVERY</text>
<text text-anchor="middle" x="855.5" y="-204.08" font-family="Arial" font-size="24.00">ncube&#45;lm</text>
</a>
</g>
</g>
<!-- DATA EXFILTRATION
http | ID: 26&#45;&gt;VULNERABILTY DISCOVERY
ncube&#45;lm -->
<g id="edge5" class="edge">
<title>DATA EXFILTRATION
http | ID: 26&#45;&gt;VULNERABILTY DISCOVERY
ncube&#45;lm</title>
<path fill="none" stroke="purple" stroke-width="5" d="M1688.94,-1374.31C1808.13,-1344.08 1960.5,-1293.65 1960.5,-1233.4 1960.5,-389.13 1960.5,-389.13 1960.5,-389.13 1960.5,-370.29 1965.42,-360.41 1951.5,-347.71 1852.11,-257 1484.24,-288.61 1350.5,-273.71 1260.61,-263.68 1161.43,-253.59 1075.6,-245.16"/>
<polygon fill="purple" stroke="purple" stroke-width="5" points="1075.84,-240.79 1065.46,-244.17 1074.99,-249.5 1075.84,-240.79"/>
<text text-anchor="middle" x="2092" y="-818.26" font-family="Arial" font-size="20.00" fill="purple">start_next: 04/11/17, 14:01:07</text>
<text text-anchor="middle" x="2092" y="-796.26" font-family="Arial" font-size="20.00" fill="purple">gap: 23sec</text>
<text text-anchor="middle" x="2092" y="-774.26" font-family="Arial" font-size="20.00" fill="purple">end_prev: 04/11/17, 14:00:44</text>
</g>
<!-- SERVICE DISCOVERY
unknown -->
<g id="node15" class="node">
<title>SERVICE DISCOVERY
unknown</title>
<g id="a_node15"><a xlink:title="ET SCAN Potential VNC Scan 5800&#45;5820&#10;ET SCAN NMAP OS Detection Probe&#10;ET SCAN Potential VNC Scan 5900&#45;5920">
<ellipse fill="none" stroke="black" stroke-width="3" cx="1196.5" cy="-390.13" rx="189.51" ry="42.35"/>
<text text-anchor="middle" x="1196.5" y="-396.93" font-family="Arial" font-size="24.00">SERVICE DISCOVERY</text>
<text text-anchor="middle" x="1196.5" y="-370.93" font-family="Arial" font-size="24.00">unknown</text>
</a>
</g>
</g>
<!-- DATA EXFILTRATION
http | ID: 26&#45;&gt;SERVICE DISCOVERY
unknown -->
<g id="edge19" class="edge">
<title>DATA EXFILTRATION
http | ID: 26&#45;&gt;SERVICE DISCOVERY
unknown</title>
<path fill="none" stroke="tomato" stroke-width="5" d="M1611.24,-1356.67C1635.81,-1334.35 1662.09,-1305.88 1678.5,-1274.82 1687.27,-1258.24 1686.5,-1252.15 1686.5,-1233.4 1686.5,-574.84 1686.5,-574.84 1686.5,-574.84 1686.5,-515.05 1719.87,-483.73 1678.5,-440.56 1658.19,-419.36 1516.71,-406.59 1392.25,-399.35"/>
<polygon fill="tomato" stroke="tomato" stroke-width="5" points="1392.41,-394.98 1382.18,-398.77 1391.91,-403.71 1392.41,-394.98"/>
<text text-anchor="middle" x="1818" y="-901.69" font-family="Arial" font-size="20.00" fill="tomato">start_next: 04/11/17, 15:31:52</text>
<text text-anchor="middle" x="1818" y="-879.69" font-family="Arial" font-size="20.00" fill="tomato">gap: 6151sec</text>
<text text-anchor="middle" x="1818" y="-857.69" font-family="Arial" font-size="20.00" fill="tomato">end_prev: 04/11/17, 13:49:21</text>
</g>
<!-- SERVICE DISCOVERY
agma -->
<g id="node8" class="node">
<title>SERVICE DISCOVERY
agma</title>
<g id="a_node8"><a xlink:title="ET SCAN Potential VNC Scan 5900&#45;5920">
<ellipse fill="none" stroke="black" stroke-width="3" cx="189.5" cy="-482.98" rx="189.51" ry="42.35"/>
<text text-anchor="middle" x="189.5" y="-489.78" font-family="Arial" font-size="24.00">SERVICE DISCOVERY</text>
<text text-anchor="middle" x="189.5" y="-463.78" font-family="Arial" font-size="24.00">agma</text>
</a>
</g>
</g>
<!-- VULNERABILTY DISCOVERY
ncube&#45;lm&#45;&gt;SERVICE DISCOVERY
agma -->
<g id="edge6" class="edge">
<title>VULNERABILTY DISCOVERY
ncube&#45;lm&#45;&gt;SERVICE DISCOVERY
agma</title>
<path fill="none" stroke="purple" stroke-width="5" d="M639.04,-242.07C567.97,-250 498.91,-260.55 466.5,-273.71 375.64,-310.58 288.2,-384.93 236.65,-434.08"/>
<polygon fill="purple" stroke="purple" stroke-width="5" points="233.48,-431.06 229.31,-441.14 239.55,-437.36 233.48,-431.06"/>
<text text-anchor="middle" x="598" y="-323.71" font-family="Arial" font-size="20.00" fill="purple">start_next: 04/11/17, 14:02:41</text>
<text text-anchor="middle" x="598" y="-301.71" font-family="Arial" font-size="20.00" fill="purple">gap: 41sec</text>
<text text-anchor="middle" x="598" y="-279.71" font-family="Arial" font-size="20.00" fill="purple">end_prev: 04/11/17, 14:02:00</text>
</g>
<!-- VULNERABILTY DISCOVERY
ncube&#45;lm&#45;&gt;SERVICE DISCOVERY
unknown -->
<g id="edge23" class="edge">
<title>VULNERABILTY DISCOVERY
ncube&#45;lm&#45;&gt;SERVICE DISCOVERY
unknown</title>
<path fill="none" stroke="tomato" stroke-width="5" d="M936.32,-263.35C988.35,-288.5 1055.97,-321.19 1109.23,-346.94"/>
<polygon fill="tomato" stroke="tomato" stroke-width="5" points="1107.42,-350.92 1118.33,-351.34 1111.23,-343.05 1107.42,-350.92"/>
<text text-anchor="middle" x="1218" y="-323.71" font-family="Arial" font-size="20.00" fill="tomato">start_next: 04/11/17, 16:45:45</text>
<text text-anchor="middle" x="1218" y="-301.71" font-family="Arial" font-size="20.00" fill="tomato">gap: 353sec</text>
<text text-anchor="middle" x="1218" y="-279.71" font-family="Arial" font-size="20.00" fill="tomato">end_prev: 04/11/17, 16:39:53</text>
</g>
<!-- ARBITRARY CODE EXECUTION
http&#45;alt | ID: 23 -->
<g id="node9" class="node">
<title>ARBITRARY CODE EXECUTION
http&#45;alt | ID: 23</title>
<g id="a_node9"><a xlink:title="ET CURRENT_EVENTS QNAP Shellshock CVE&#45;2014&#45;6271">
<polygon fill="none" stroke="black" stroke-width="3" points="692,-760.26 317,-760.26 317,-700.26 692,-700.26 692,-760.26"/>
<text text-anchor="middle" x="504.5" y="-737.06" font-family="Arial" font-size="24.00">ARBITRARY CODE EXECUTION</text>
<text text-anchor="middle" x="504.5" y="-711.06" font-family="Arial" font-size="24.00">http&#45;alt | ID: 23</text>
</a>
</g>
</g>
<!-- SERVICE DISCOVERY
agma&#45;&gt;ARBITRARY CODE EXECUTION
http&#45;alt | ID: 23 -->
<g id="edge7" class="edge">
<title>SERVICE DISCOVERY
agma&#45;&gt;ARBITRARY CODE EXECUTION
http&#45;alt | ID: 23</title>
<path fill="none" stroke="purple" stroke-width="5" d="M113,-521.91C109.77,-525.44 106.89,-529.27 104.5,-533.41 85.7,-566.1 81.68,-588.24 104.5,-618.26 130.91,-653 221.83,-679.71 310.32,-698.21"/>
<polygon fill="purple" stroke="purple" stroke-width="5" points="309.58,-702.53 320.26,-700.26 311.34,-693.96 309.58,-702.53"/>
<text text-anchor="middle" x="236" y="-592.84" font-family="Arial" font-size="20.00" fill="purple">start_next: 04/11/17, 14:07:58</text>
<text text-anchor="middle" x="236" y="-570.84" font-family="Arial" font-size="20.00" fill="purple">gap: 317sec</text>
<text text-anchor="middle" x="236" y="-548.84" font-family="Arial" font-size="20.00" fill="purple">end_prev: 04/11/17, 14:02:41</text>
</g>
<!-- SURFING
http&#45;alt -->
<g id="node10" class="node">
<title>SURFING
http&#45;alt</title>
<g id="a_node10"><a xlink:title="ET WEB_SERVER WEB&#45;PHP phpinfo access">
<ellipse fill="none" stroke="black" stroke-width="3" cx="504.5" cy="-884.69" rx="88.28" ry="42.35"/>
<text text-anchor="middle" x="504.5" y="-891.49" font-family="Arial" font-size="24.00">SURFING</text>
<text text-anchor="middle" x="504.5" y="-865.49" font-family="Arial" font-size="24.00">http&#45;alt</text>
</a>
</g>
</g>
<!-- ARBITRARY CODE EXECUTION
http&#45;alt | ID: 23&#45;&gt;SURFING
http&#45;alt -->
<g id="edge8" class="edge">
<title>ARBITRARY CODE EXECUTION
http&#45;alt | ID: 23&#45;&gt;SURFING
http&#45;alt</title>
<path fill="none" stroke="purple" stroke-width="5" d="M624.75,-760.57C627.18,-762.95 629.44,-765.51 631.5,-768.26 649.11,-791.73 648.06,-810.05 631.5,-834.26 622.63,-847.24 609.81,-856.81 595.68,-863.87"/>
<polygon fill="purple" stroke="purple" stroke-width="5" points="593.54,-860.04 586.24,-868.15 597.16,-868 593.54,-860.04"/>
<text text-anchor="middle" x="776" y="-818.26" font-family="Arial" font-size="20.00" fill="purple">start_next: 04/11/17, 14:08:00</text>
<text text-anchor="middle" x="776" y="-796.26" font-family="Arial" font-size="20.00" fill="purple">gap: &#45;1sec</text>
<text text-anchor="middle" x="776" y="-774.26" font-family="Arial" font-size="20.00" fill="purple">end_prev: 04/11/17, 14:08:01</text>
</g>
<!-- ARBITRARY CODE EXECUTION
http&#45;alt | ID: 23&#45;&gt;SURFING
http&#45;alt -->
<g id="edge27" class="edge">
<title>ARBITRARY CODE EXECUTION
http&#45;alt | ID: 23&#45;&gt;SURFING
http&#45;alt</title>
<path fill="none" stroke="tomato" stroke-width="5" d="M377.05,-760.52C372.88,-762.94 369.6,-765.53 367.5,-768.26 349.67,-791.55 350.65,-810.26 367.5,-834.26 378.17,-849.45 393.99,-860 411.12,-867.31"/>
<polygon fill="tomato" stroke="tomato" stroke-width="5" points="409.84,-871.5 420.75,-871.05 413.01,-863.35 409.84,-871.5"/>
<text text-anchor="middle" x="499" y="-818.26" font-family="Arial" font-size="20.00" fill="tomato">start_next: 04/11/17, 19:18:44</text>
<text text-anchor="middle" x="499" y="-796.26" font-family="Arial" font-size="20.00" fill="tomato">gap: 1sec</text>
<text text-anchor="middle" x="499" y="-774.26" font-family="Arial" font-size="20.00" fill="tomato">end_prev: 04/11/17, 19:18:43</text>
</g>
<!-- VULNERABILTY DISCOVERY
radan&#45;http -->
<g id="node11" class="node">
<title>VULNERABILTY DISCOVERY
radan&#45;http</title>
<g id="a_node11"><a xlink:title="ET SCAN Nikto Web App Scan in Progress">
<ellipse fill="none" stroke="black" stroke-width="3" cx="834.5" cy="-1065.54" rx="241.25" ry="42.35"/>
<text text-anchor="middle" x="834.5" y="-1072.34" font-family="Arial" font-size="24.00">VULNERABILTY DISCOVERY</text>
<text text-anchor="middle" x="834.5" y="-1046.34" font-family="Arial" font-size="24.00">radan&#45;http</text>
</a>
</g>
</g>
<!-- SURFING
http&#45;alt&#45;&gt;VULNERABILTY DISCOVERY
radan&#45;http -->
<g id="edge9" class="edge">
<title>SURFING
http&#45;alt&#45;&gt;VULNERABILTY DISCOVERY
radan&#45;http</title>
<path fill="none" stroke="purple" stroke-width="5" d="M562.36,-917.05C615.11,-945.64 693.59,-988.17 752.74,-1020.23"/>
<polygon fill="purple" stroke="purple" stroke-width="5" points="750.82,-1024.16 761.69,-1025.08 754.99,-1016.47 750.82,-1024.16"/>
<text text-anchor="middle" x="869" y="-992.12" font-family="Arial" font-size="20.00" fill="purple">start_next: 04/11/17, 14:08:04</text>
<text text-anchor="middle" x="869" y="-970.12" font-family="Arial" font-size="20.00" fill="purple">gap: &#45;18sec</text>
<text text-anchor="middle" x="869" y="-948.12" font-family="Arial" font-size="20.00" fill="purple">end_prev: 04/11/17, 14:08:21</text>
</g>
<!-- INFO DISCOVERY
http&#45;alt -->
<g id="node12" class="node">
<title>INFO DISCOVERY
http&#45;alt</title>
<g id="a_node12"><a xlink:title="GPL WEB_SERVER globals.pl access">
<ellipse fill="none" stroke="black" stroke-width="3" cx="600.5" cy="-1232.4" rx="156.04" ry="42.35"/>
<text text-anchor="middle" x="600.5" y="-1239.2" font-family="Arial" font-size="24.00">INFO DISCOVERY</text>
<text text-anchor="middle" x="600.5" y="-1213.2" font-family="Arial" font-size="24.00">http&#45;alt</text>
</a>
</g>
</g>
<!-- SURFING
http&#45;alt&#45;&gt;INFO DISCOVERY
http&#45;alt -->
<g id="edge28" class="edge">
<title>SURFING
http&#45;alt&#45;&gt;INFO DISCOVERY
http&#45;alt</title>
<path fill="none" stroke="tomato" stroke-width="5" d="M441.94,-915.05C400.85,-938.08 350.43,-974.41 326.5,-1023.12 309.88,-1056.96 306.03,-1076.3 326.5,-1107.97 357.63,-1156.13 412.54,-1185.69 465.06,-1203.74"/>
<polygon fill="tomato" stroke="tomato" stroke-width="5" points="463.97,-1207.98 474.84,-1206.98 466.72,-1199.68 463.97,-1207.98"/>
<text text-anchor="middle" x="458" y="-1082.54" font-family="Arial" font-size="20.00" fill="tomato">start_next: 04/11/17, 19:18:46</text>
<text text-anchor="middle" x="458" y="-1060.54" font-family="Arial" font-size="20.00" fill="tomato">gap: &#45;1sec</text>
<text text-anchor="middle" x="458" y="-1038.54" font-family="Arial" font-size="20.00" fill="tomato">end_prev: 04/11/17, 19:18:47</text>
</g>
<!-- VULNERABILTY DISCOVERY
radan&#45;http&#45;&gt;INFO DISCOVERY
http&#45;alt -->
<g id="edge10" class="edge">
<title>VULNERABILTY DISCOVERY
radan&#45;http&#45;&gt;INFO DISCOVERY
http&#45;alt</title>
<path fill="none" stroke="purple" stroke-width="5" d="M777.26,-1106.87C742.94,-1131.05 699.24,-1161.84 663.88,-1186.75"/>
<polygon fill="purple" stroke="purple" stroke-width="5" points="661.2,-1183.28 655.55,-1192.62 666.24,-1190.44 661.2,-1183.28"/>
<text text-anchor="middle" x="891" y="-1165.97" font-family="Arial" font-size="20.00" fill="purple">start_next: 04/11/17, 14:08:05</text>
<text text-anchor="middle" x="891" y="-1143.97" font-family="Arial" font-size="20.00" fill="purple">gap: 1sec</text>
<text text-anchor="middle" x="891" y="-1121.97" font-family="Arial" font-size="20.00" fill="purple">end_prev: 04/11/17, 14:08:04</text>
</g>
<!-- INFO DISCOVERY
http&#45;alt&#45;&gt;DATA EXFILTRATION
http&#45;alt | ID: 25 -->
<g id="edge11" class="edge">
<title>INFO DISCOVERY
http&#45;alt&#45;&gt;DATA EXFILTRATION
http&#45;alt | ID: 25</title>
<path fill="none" stroke="purple" stroke-width="5" d="M725.11,-1258.19C735.71,-1264.64 745.17,-1272.72 752.5,-1282.82 769.74,-1306.56 768.49,-1324.23 752.5,-1348.82 751.08,-1351.02 749.54,-1353.13 747.91,-1355.16"/>
<polygon fill="purple" stroke="purple" stroke-width="5" points="744.66,-1352.23 741.17,-1362.58 751.13,-1358.12 744.66,-1352.23"/>
<text text-anchor="middle" x="897" y="-1332.82" font-family="Arial" font-size="20.00" fill="purple">start_next: 04/11/17, 14:08:07</text>
<text text-anchor="middle" x="897" y="-1310.82" font-family="Arial" font-size="20.00" fill="purple">gap: &#45;1sec</text>
<text text-anchor="middle" x="897" y="-1288.82" font-family="Arial" font-size="20.00" fill="purple">end_prev: 04/11/17, 14:08:08</text>
</g>
<!-- INFO DISCOVERY
http&#45;alt&#45;&gt;DATA EXFILTRATION
http&#45;alt | ID: 25 -->
<g id="edge29" class="edge">
<title>INFO DISCOVERY
http&#45;alt&#45;&gt;DATA EXFILTRATION
http&#45;alt | ID: 25</title>
<path fill="none" stroke="tomato" stroke-width="5" d="M503.78,-1265.96C497.9,-1270.83 492.68,-1276.41 488.5,-1282.82 472.49,-1307.4 472.12,-1324.49 488.5,-1348.82 490.98,-1352.5 493.75,-1355.94 496.75,-1359.15"/>
<polygon fill="tomato" stroke="tomato" stroke-width="5" points="493.92,-1362.49 504.17,-1366.24 499.96,-1356.17 493.92,-1362.49"/>
<text text-anchor="middle" x="620" y="-1332.82" font-family="Arial" font-size="20.00" fill="tomato">start_next: 04/11/17, 19:18:47</text>
<text text-anchor="middle" x="620" y="-1310.82" font-family="Arial" font-size="20.00" fill="tomato">gap: 1sec</text>
<text text-anchor="middle" x="620" y="-1288.82" font-family="Arial" font-size="20.00" fill="tomato">end_prev: 04/11/17, 19:18:46</text>
</g>
<!-- HOST DISCOVERY
http -->
<g id="node13" class="node">
<title>HOST DISCOVERY
http</title>
<g id="a_node13"><a xlink:title="ET SCAN Possible Nmap User&#45;Agent Observed&#10;ET SCAN Nmap Scripting Engine User&#45;Agent Detected (Nmap Scripting Engine)">
<ellipse fill="yellow" stroke="black" stroke-width="3" cx="1976.5" cy="-42.43" rx="162.77" ry="42.35"/>
<text text-anchor="middle" x="1976.5" y="-49.23" font-family="Arial" font-size="24.00">HOST DISCOVERY</text>
<text text-anchor="middle" x="1976.5" y="-23.23" font-family="Arial" font-size="24.00">http</text>
</a>
</g>
</g>
<!-- VULNERABILTY DISCOVERY
mysql -->
<g id="node14" class="node">
<title>VULNERABILTY DISCOVERY
mysql</title>
<g id="a_node14"><a xlink:title="ET POLICY Suspicious inbound to MSSQL port 1433&#10;ET POLICY Suspicious inbound to mySQL port 3306&#10;ET POLICY Suspicious inbound to PostgreSQL port 5432">
<ellipse fill="none" stroke="black" stroke-width="3" cx="1976.5" cy="-223.28" rx="241.25" ry="42.35"/>
<text text-anchor="middle" x="1976.5" y="-230.08" font-family="Arial" font-size="24.00">VULNERABILTY DISCOVERY</text>
<text text-anchor="middle" x="1976.5" y="-204.08" font-family="Arial" font-size="24.00">mysql</text>
</a>
</g>
</g>
<!-- HOST DISCOVERY
http&#45;&gt;VULNERABILTY DISCOVERY
mysql -->
<g id="edge12" class="edge">
<title>HOST DISCOVERY
http&#45;&gt;VULNERABILTY DISCOVERY
mysql</title>
<path fill="none" stroke="tomato" stroke-width="5" d="M1976.5,-84.91C1976.5,-110.44 1976.5,-143.37 1976.5,-170.59"/>
<polygon fill="tomato" stroke="tomato" stroke-width="5" points="1972.13,-170.71 1976.5,-180.71 1980.88,-170.71 1972.13,-170.71"/>
<text text-anchor="start" x="1976.5" y="-157.85" font-family="Arial" font-size="20.00" fill="tomato"> start_next: 04/11/17, 13:41:40</text>
<text text-anchor="start" x="2067" y="-137.85" font-family="Arial" font-size="20.00" fill="tomato">gap: 6sec</text>
<text text-anchor="start" x="1980.5" y="-117.85" font-family="Arial" font-size="20.00" fill="tomato">end_prev: 04/11/17, 13:41:34</text>
<text text-anchor="start" x="2011" y="-97.85" font-family="Arial" font-weight="bold" font-size="20.00" fill="tomato">Attacker: 10.0.254.33</text>
</g>
<!-- VULNERABILTY DISCOVERY
mysql&#45;&gt;SERVICE DISCOVERY
unknown -->
<g id="edge13" class="edge">
<title>VULNERABILTY DISCOVERY
mysql&#45;&gt;SERVICE DISCOVERY
unknown</title>
<path fill="none" stroke="tomato" stroke-width="5" d="M1824.72,-256.36C1685.15,-285.86 1479.58,-329.3 1342.02,-358.38"/>
<polygon fill="tomato" stroke="tomato" stroke-width="5" points="1341.12,-354.1 1332.24,-360.44 1342.93,-362.66 1341.12,-354.1"/>
<text text-anchor="middle" x="1856" y="-323.71" font-family="Arial" font-size="20.00" fill="tomato">start_next: 04/11/17, 13:48:19</text>
<text text-anchor="middle" x="1856" y="-301.71" font-family="Arial" font-size="20.00" fill="tomato">gap: 398sec</text>
<text text-anchor="middle" x="1856" y="-279.71" font-family="Arial" font-size="20.00" fill="tomato">end_prev: 04/11/17, 13:41:40</text>
</g>
<!-- SERVICE DISCOVERY
unknown&#45;&gt;SERVICE DISCOVERY
unknown -->
<g id="edge20" class="edge">
<title>SERVICE DISCOVERY
unknown&#45;&gt;SERVICE DISCOVERY
unknown</title>
<path fill="none" stroke="tomato" stroke-width="5" d="M1385.39,-386.33C1385.55,-386.36 1385.7,-386.4 1385.84,-386.43"/>
<polygon fill="tomato" stroke="tomato" stroke-width="5" points="1381.63,-383.69 1385.39,-393.93 1390.36,-384.21 1381.63,-383.69"/>
<text text-anchor="middle" x="1524.51" y="-407.13" font-family="Arial" font-size="20.00" fill="tomato">start_next: 04/11/17, 15:54:16</text>
<text text-anchor="middle" x="1524.51" y="-385.13" font-family="Arial" font-size="20.00" fill="tomato">gap: 1344sec</text>
<text text-anchor="middle" x="1524.51" y="-363.13" font-family="Arial" font-size="20.00" fill="tomato">end_prev: 04/11/17, 15:31:52</text>
</g>
<!-- SERVICE DISCOVERY
unknown&#45;&gt;SERVICE DISCOVERY
unknown -->
<g id="edge24" class="edge">
<title>SERVICE DISCOVERY
unknown&#45;&gt;SERVICE DISCOVERY
unknown</title>
<path fill="none" stroke="tomato" stroke-width="5" d="M1374.79,-375.64C1505.39,-372.59 1656.01,-377.42 1656.01,-390.13 1656.01,-402.51 1513.23,-407.41 1385.16,-404.84"/>
<polygon fill="tomato" stroke="tomato" stroke-width="5" points="1384.88,-400.46 1374.79,-404.62 1384.69,-409.21 1384.88,-400.46"/>
<text text-anchor="middle" x="1787.51" y="-407.13" font-family="Arial" font-size="20.00" fill="tomato">start_next: 04/11/17, 18:10:20</text>
<text text-anchor="middle" x="1787.51" y="-385.13" font-family="Arial" font-size="20.00" fill="tomato">gap: 5075sec</text>
<text text-anchor="middle" x="1787.51" y="-363.13" font-family="Arial" font-size="20.00" fill="tomato">end_prev: 04/11/17, 16:45:45</text>
</g>
<!-- VULNERABILTY DISCOVERY
http -->
<g id="node16" class="node">
<title>VULNERABILTY DISCOVERY
http</title>
<g id="a_node16"><a xlink:title="ET SCAN Nikto Web App Scan in Progress">
<ellipse fill="none" stroke="black" stroke-width="3" cx="1434.5" cy="-575.84" rx="241.25" ry="42.35"/>
<text text-anchor="middle" x="1434.5" y="-582.64" font-family="Arial" font-size="24.00">VULNERABILTY DISCOVERY</text>
<text text-anchor="middle" x="1434.5" y="-556.64" font-family="Arial" font-size="24.00">http</text>
</a>
</g>
</g>
<!-- SERVICE DISCOVERY
unknown&#45;&gt;VULNERABILTY DISCOVERY
http -->
<g id="edge14" class="edge">
<title>SERVICE DISCOVERY
unknown&#45;&gt;VULNERABILTY DISCOVERY
http</title>
<path fill="none" stroke="tomato" stroke-width="5" d="M1340.28,-418.01C1353.01,-424.07 1365.02,-431.49 1375.5,-440.56 1388.91,-452.16 1405.19,-490.87 1417.25,-523.77"/>
<polygon fill="tomato" stroke="tomato" stroke-width="5" points="1413.18,-525.38 1420.69,-533.31 1421.41,-522.42 1413.18,-525.38"/>
<text text-anchor="middle" x="1549" y="-499.98" font-family="Arial" font-size="20.00" fill="tomato">start_next: 04/11/17, 13:49:13</text>
<text text-anchor="middle" x="1549" y="-477.98" font-family="Arial" font-size="20.00" fill="tomato">gap: 32sec</text>
<text text-anchor="middle" x="1549" y="-455.98" font-family="Arial" font-size="20.00" fill="tomato">end_prev: 04/11/17, 13:48:41</text>
</g>
<!-- VULNERABILTY DISCOVERY
ahsp -->
<g id="node18" class="node">
<title>VULNERABILTY DISCOVERY
ahsp</title>
<g id="a_node18"><a xlink:title="ET POLICY Suspicious inbound to mSQL port 4333">
<ellipse fill="none" stroke="black" stroke-width="3" cx="612.5" cy="-575.84" rx="241.25" ry="42.35"/>
<text text-anchor="middle" x="612.5" y="-582.64" font-family="Arial" font-size="24.00">VULNERABILTY DISCOVERY</text>
<text text-anchor="middle" x="612.5" y="-556.64" font-family="Arial" font-size="24.00">ahsp</text>
</a>
</g>
</g>
<!-- SERVICE DISCOVERY
unknown&#45;&gt;VULNERABILTY DISCOVERY
ahsp -->
<g id="edge21" class="edge">
<title>SERVICE DISCOVERY
unknown&#45;&gt;VULNERABILTY DISCOVERY
ahsp</title>
<path fill="none" stroke="tomato" stroke-width="5" d="M1067.89,-421.31C1044.89,-425.77 1021.07,-429.79 998.5,-432.56 975.33,-435.4 808.5,-428.5 788.5,-440.56 751.21,-463.05 772.56,-497.05 739.5,-525.41 736.77,-527.75 733.92,-529.99 730.96,-532.13"/>
<polygon fill="tomato" stroke="tomato" stroke-width="5" points="728.25,-528.69 722.39,-537.9 733.13,-535.95 728.25,-528.69"/>
<text text-anchor="middle" x="920" y="-499.98" font-family="Arial" font-size="20.00" fill="tomato">start_next: 04/11/17, 16:04:30</text>
<text text-anchor="middle" x="920" y="-477.98" font-family="Arial" font-size="20.00" fill="tomato">gap: 614sec</text>
<text text-anchor="middle" x="920" y="-455.98" font-family="Arial" font-size="20.00" fill="tomato">end_prev: 04/11/17, 15:54:16</text>
</g>
<!-- HOST DISCOVERY
radan&#45;http -->
<g id="node19" class="node">
<title>HOST DISCOVERY
radan&#45;http</title>
<g id="a_node19"><a xlink:title="ET SCAN Possible Nmap User&#45;Agent Observed&#10;ET SCAN Nmap Scripting Engine User&#45;Agent Detected (Nmap Scripting Engine)">
<ellipse fill="none" stroke="black" stroke-width="3" cx="1023.5" cy="-575.84" rx="162.77" ry="42.35"/>
<text text-anchor="middle" x="1023.5" y="-582.64" font-family="Arial" font-size="24.00">HOST DISCOVERY</text>
<text text-anchor="middle" x="1023.5" y="-556.64" font-family="Arial" font-size="24.00">radan&#45;http</text>
</a>
</g>
</g>
<!-- SERVICE DISCOVERY
unknown&#45;&gt;HOST DISCOVERY
radan&#45;http -->
<g id="edge25" class="edge">
<title>SERVICE DISCOVERY
unknown&#45;&gt;HOST DISCOVERY
radan&#45;http</title>
<path fill="none" stroke="tomato" stroke-width="5" d="M1128.17,-429.79C1123.72,-433.22 1119.45,-436.82 1115.5,-440.56 1089.81,-464.93 1067.22,-497.63 1050.86,-524.65"/>
<polygon fill="tomato" stroke="tomato" stroke-width="5" points="1046.9,-522.75 1045.55,-533.58 1054.42,-527.22 1046.9,-522.75"/>
<text text-anchor="middle" x="1247" y="-499.98" font-family="Arial" font-size="20.00" fill="tomato">start_next: 04/11/17, 19:18:00</text>
<text text-anchor="middle" x="1247" y="-477.98" font-family="Arial" font-size="20.00" fill="tomato">gap: 4056sec</text>
<text text-anchor="middle" x="1247" y="-455.98" font-family="Arial" font-size="20.00" fill="tomato">end_prev: 04/11/17, 18:10:24</text>
</g>
<!-- ARBITRARY CODE EXECUTION
http | ID: 32 -->
<g id="node17" class="node">
<title>ARBITRARY CODE EXECUTION
http | ID: 32</title>
<g id="a_node17"><a xlink:title="ET CURRENT_EVENTS QNAP Shellshock CVE&#45;2014&#45;6271">
<polygon fill="none" stroke="black" stroke-width="3" points="1602,-760.26 1227,-760.26 1227,-700.26 1602,-700.26 1602,-760.26"/>
<text text-anchor="middle" x="1414.5" y="-737.06" font-family="Arial" font-size="24.00">ARBITRARY CODE EXECUTION</text>
<text text-anchor="middle" x="1414.5" y="-711.06" font-family="Arial" font-size="24.00">http | ID: 32</text>
</a>
</g>
</g>
<!-- VULNERABILTY DISCOVERY
http&#45;&gt;ARBITRARY CODE EXECUTION
http | ID: 32 -->
<g id="edge15" class="edge">
<title>VULNERABILTY DISCOVERY
http&#45;&gt;ARBITRARY CODE EXECUTION
http | ID: 32</title>
<path fill="none" stroke="tomato" stroke-width="5" d="M1420.15,-618.43C1419.52,-621.06 1418.96,-623.69 1418.5,-626.26 1414.8,-647.08 1413.67,-670.61 1413.52,-689.93"/>
<polygon fill="tomato" stroke="tomato" stroke-width="5" points="1409.14,-690.18 1413.52,-700.18 1417.89,-690.18 1409.14,-690.18"/>
<text text-anchor="middle" x="1550" y="-676.26" font-family="Arial" font-size="20.00" fill="tomato">start_next: 04/11/17, 13:49:14</text>
<text text-anchor="middle" x="1550" y="-654.26" font-family="Arial" font-size="20.00" fill="tomato">gap: 1sec</text>
<text text-anchor="middle" x="1550" y="-632.26" font-family="Arial" font-size="20.00" fill="tomato">end_prev: 04/11/17, 13:49:13</text>
</g>
<!-- ARBITRARY CODE EXECUTION
http | ID: 32&#45;&gt;SURFING
http -->
<g id="edge16" class="edge">
<title>ARBITRARY CODE EXECUTION
http | ID: 32&#45;&gt;SURFING
http</title>
<path fill="none" stroke="tomato" stroke-width="5" d="M1414.5,-760.29C1414.5,-780.55 1414.5,-808.13 1414.5,-832.09"/>
<polygon fill="tomato" stroke="tomato" stroke-width="5" points="1410.13,-832.1 1414.5,-842.1 1418.88,-832.1 1410.13,-832.1"/>
<text text-anchor="middle" x="1546" y="-818.26" font-family="Arial" font-size="20.00" fill="tomato">start_next: 04/11/17, 13:49:15</text>
<text text-anchor="middle" x="1546" y="-796.26" font-family="Arial" font-size="20.00" fill="tomato">gap: 1sec</text>
<text text-anchor="middle" x="1546" y="-774.26" font-family="Arial" font-size="20.00" fill="tomato">end_prev: 04/11/17, 13:49:14</text>
</g>
<!-- VULNERABILTY DISCOVERY
ahsp&#45;&gt;VULNERABILTY DISCOVERY
ncube&#45;lm -->
<g id="edge22" class="edge">
<title>VULNERABILTY DISCOVERY
ahsp&#45;&gt;VULNERABILTY DISCOVERY
ncube&#45;lm</title>
<path fill="none" stroke="tomato" stroke-width="5" d="M632.18,-533.27C655.25,-486.31 696.01,-408.53 740.5,-347.71 759.85,-321.27 784.24,-294.37 805.58,-272.46"/>
<polygon fill="tomato" stroke="tomato" stroke-width="5" points="808.8,-275.43 812.69,-265.23 802.56,-269.29 808.8,-275.43"/>
<text text-anchor="middle" x="872" y="-407.13" font-family="Arial" font-size="20.00" fill="tomato">start_next: 04/11/17, 16:39:53</text>
<text text-anchor="middle" x="872" y="-385.13" font-family="Arial" font-size="20.00" fill="tomato">gap: 2123sec</text>
<text text-anchor="middle" x="872" y="-363.13" font-family="Arial" font-size="20.00" fill="tomato">end_prev: 04/11/17, 16:04:30</text>
</g>
<!-- HOST DISCOVERY
radan&#45;http&#45;&gt;ARBITRARY CODE EXECUTION
http&#45;alt | ID: 23 -->
<g id="edge26" class="edge">
<title>HOST DISCOVERY
radan&#45;http&#45;&gt;ARBITRARY CODE EXECUTION
http&#45;alt | ID: 23</title>
<path fill="none" stroke="tomato" stroke-width="5" d="M917.22,-608.05C828.52,-634.1 702.61,-671.08 613.23,-697.33"/>
<polygon fill="tomato" stroke="tomato" stroke-width="5" points="611.97,-693.14 603.61,-700.16 614.44,-701.54 611.97,-693.14"/>
<text text-anchor="middle" x="973" y="-676.26" font-family="Arial" font-size="20.00" fill="tomato">start_next: 04/11/17, 19:18:43</text>
<text text-anchor="middle" x="973" y="-654.26" font-family="Arial" font-size="20.00" fill="tomato">gap: 43sec</text>
<text text-anchor="middle" x="973" y="-632.26" font-family="Arial" font-size="20.00" fill="tomato">end_prev: 04/11/17, 19:18:00</text>
</g>
</g>
</svg>
