<?xml version="1.0" encoding="UTF-8" standalone="no"?>
<!DOCTYPE svg PUBLIC "-//W3C//DTD SVG 1.1//EN"
 "http://www.w3.org/Graphics/SVG/1.1/DTD/svg11.dtd">
<!-- Generated by graphviz version 2.50.0 (0)
 -->
<!-- Title: NETWORKDOSssdp Pages: 1 -->
<svg width="1017pt" height="777pt"
 viewBox="0.00 0.00 1017.12 777.18" xmlns="http://www.w3.org/2000/svg" xmlns:xlink="http://www.w3.org/1999/xlink">
<g id="graph0" class="graph" transform="scale(1 1) rotate(0) translate(4 773.18)">
<title>NETWORKDOSssdp</title>
<polygon fill="white" stroke="transparent" points="-4,4 -4,-773.18 1013.12,-773.18 1013.12,4 -4,4"/>
<!-- Victim: 10.0.99.22
NETWORK DoS
ssdp -->
<g id="node1" class="node">
<title>Victim: 10.0.99.22
NETWORK DoS
ssdp</title>
<polygon fill="salmon" stroke="black" stroke-width="3" points="898.07,-672.16 898.07,-726.55 803.79,-765.01 670.46,-765.01 576.17,-726.55 576.17,-672.16 670.46,-633.71 803.79,-633.71 898.07,-672.16"/>
<polygon fill="none" stroke="black" stroke-width="3" points="902.08,-669.49 902.08,-729.23 804.58,-769 669.67,-769 572.17,-729.23 572.17,-669.49 669.67,-629.72 804.58,-629.72 902.08,-669.49"/>
<text text-anchor="middle" x="737.12" y="-719.16" font-family="Arial" font-size="24.00">Victim: 10.0.99.22</text>
<text text-anchor="middle" x="737.12" y="-693.16" font-family="Arial" font-size="24.00">NETWORK DoS</text>
<text text-anchor="middle" x="737.12" y="-667.16" font-family="Arial" font-size="24.00">ssdp</text>
</g>
<!-- NETWORK DoS
ssdp | ID: 55 -->
<g id="node2" class="node">
<title>NETWORK DoS
ssdp | ID: 55</title>
<g id="a_node2"><a xlink:title="ET DOS Possible SSDP Amplification Scan in Progress">
<polygon fill="salmon" stroke="black" stroke-width="3" points="893.66,-563.55 815.39,-612.53 658.86,-612.53 580.59,-563.55 658.86,-514.57 815.39,-514.57 893.66,-563.55"/>
<text text-anchor="middle" x="737.12" y="-570.35" font-family="Arial" font-size="24.00">NETWORK DoS</text>
<text text-anchor="middle" x="737.12" y="-544.35" font-family="Arial" font-size="24.00">ssdp | ID: 55</text>
</a>
</g>
</g>
<!-- NETWORK DoS
ssdp | ID: 55&#45;&gt;Victim: 10.0.99.22
NETWORK DoS
ssdp -->
<g id="edge1" class="edge">
<title>NETWORK DoS
ssdp | ID: 55&#45;&gt;Victim: 10.0.99.22
NETWORK DoS
ssdp</title>
<path fill="none" stroke="black" stroke-width="5" d="M737.12,-612.86C737.12,-614.96 737.12,-617.09 737.12,-619.24"/>
<polygon fill="black" stroke="black" stroke-width="5" points="732.75,-619.4 737.12,-629.4 741.5,-619.4 732.75,-619.4"/>
</g>
<!-- INFO DISCOVERY
xdmcp -->
<g id="node3" class="node">
<title>INFO DISCOVERY
xdmcp</title>
<g id="a_node3"><a xlink:title="GPL RPC xdmcp info query">
<ellipse fill="yellow" stroke="black" stroke-width="3" cx="462.12" cy="-42.43" rx="156.04" ry="42.35"/>
<text text-anchor="middle" x="462.12" y="-49.23" font-family="Arial" font-size="24.00">INFO DISCOVERY</text>
<text text-anchor="middle" x="462.12" y="-23.23" font-family="Arial" font-size="24.00">xdmcp</text>
</a>
</g>
</g>
<!-- VULNERABILTY DISCOVERY
postgresql -->
<g id="node4" class="node">
<title>VULNERABILTY DISCOVERY
postgresql</title>
<g id="a_node4"><a xlink:title="ET POLICY Suspicious inbound to MSSQL port 1433&#10;ET POLICY Suspicious inbound to PostgreSQL port 5432">
<ellipse fill="none" stroke="black" stroke-width="3" cx="241.12" cy="-223.28" rx="241.25" ry="42.35"/>
<text text-anchor="middle" x="241.12" y="-230.08" font-family="Arial" font-size="24.00">VULNERABILTY DISCOVERY</text>
<text text-anchor="middle" x="241.12" y="-204.08" font-family="Arial" font-size="24.00">postgresql</text>
</a>
</g>
</g>
<!-- INFO DISCOVERY
xdmcp&#45;&gt;VULNERABILTY DISCOVERY
postgresql -->
<g id="edge2" class="edge">
<title>INFO DISCOVERY
xdmcp&#45;&gt;VULNERABILTY DISCOVERY
postgresql</title>
<path fill="none" stroke="blue" stroke-width="5" d="M310.84,-53.43C255.95,-60.47 203.19,-72.46 186.12,-92.85 163.31,-120.12 171.65,-140.38 186.12,-172.85 186.17,-172.95 186.21,-173.04 186.25,-173.14"/>
<polygon fill="blue" stroke="blue" stroke-width="5" points="182.31,-175.06 191,-181.66 189.95,-170.8 182.31,-175.06"/>
<text text-anchor="start" x="186.12" y="-157.85" font-family="Arial" font-size="20.00" fill="blue"> start_next: 04/11/17, 17:59:58</text>
<text text-anchor="start" x="259.62" y="-137.85" font-family="Arial" font-size="20.00" fill="blue">gap: 5247sec</text>
<text text-anchor="start" x="190.12" y="-117.85" font-family="Arial" font-size="20.00" fill="blue">end_prev: 04/11/17, 16:32:31</text>
<text text-anchor="start" x="220.62" y="-97.85" font-family="Arial" font-weight="bold" font-size="20.00" fill="blue">Attacker: 10.0.254.31</text>
</g>
<!-- SERVICE DISCOVERY
epmap -->
<g id="node5" class="node">
<title>SERVICE DISCOVERY
epmap</title>
<g id="a_node5"><a xlink:title="ET SCAN Behavioral Unusual Port 135 traffic Potential Scan or Infection&#10;ET SCAN Potential VNC Scan 5800&#45;5820&#10;ET SCAN Potential VNC Scan 5900&#45;5920">
<ellipse fill="none" stroke="black" stroke-width="3" cx="737.12" cy="-223.28" rx="189.51" ry="42.35"/>
<text text-anchor="middle" x="737.12" y="-230.08" font-family="Arial" font-size="24.00">SERVICE DISCOVERY</text>
<text text-anchor="middle" x="737.12" y="-204.08" font-family="Arial" font-size="24.00">epmap</text>
</a>
</g>
</g>
<!-- INFO DISCOVERY
xdmcp&#45;&gt;SERVICE DISCOVERY
epmap -->
<g id="edge4" class="edge">
<title>INFO DISCOVERY
xdmcp&#45;&gt;SERVICE DISCOVERY
epmap</title>
<path fill="none" stroke="blue" stroke-width="5" d="M610.75,-55.57C661.43,-62.9 709.55,-74.52 726.12,-92.85 744.75,-113.45 748,-144.18 746.36,-170.53"/>
<polygon fill="blue" stroke="blue" stroke-width="5" points="741.98,-170.42 745.47,-180.76 750.7,-171.18 741.98,-170.42"/>
<text text-anchor="middle" x="877.62" y="-149.85" font-family="Arial" font-size="20.00" fill="blue">start_next: 04/11/17, 18:56:14</text>
<text text-anchor="middle" x="877.62" y="-127.85" font-family="Arial" font-size="20.00" fill="blue">gap: 3136sec</text>
<text text-anchor="middle" x="877.62" y="-105.85" font-family="Arial" font-size="20.00" fill="blue">end_prev: 04/11/17, 18:03:58</text>
</g>
<!-- VULNERABILTY DISCOVERY
postgresql&#45;&gt;INFO DISCOVERY
xdmcp -->
<g id="edge3" class="edge">
<title>VULNERABILTY DISCOVERY
postgresql&#45;&gt;INFO DISCOVERY
xdmcp</title>
<path fill="none" stroke="blue" stroke-width="5" d="M412.82,-193.45C430.37,-187.62 444.27,-180.79 451.12,-172.85 461.05,-161.35 463.58,-126.09 463.74,-95.28"/>
<polygon fill="blue" stroke="blue" stroke-width="5" points="468.11,-95.02 463.71,-85.04 459.36,-95.05 468.11,-95.02"/>
<text text-anchor="middle" x="595.62" y="-149.85" font-family="Arial" font-size="20.00" fill="blue">start_next: 04/11/17, 18:03:54</text>
<text text-anchor="middle" x="595.62" y="-127.85" font-family="Arial" font-size="20.00" fill="blue">gap: 84sec</text>
<text text-anchor="middle" x="595.62" y="-105.85" font-family="Arial" font-size="20.00" fill="blue">end_prev: 04/11/17, 18:02:30</text>
</g>
<!-- VULNERABILTY DISCOVERY
mysql -->
<g id="node6" class="node">
<title>VULNERABILTY DISCOVERY
mysql</title>
<g id="a_node6"><a xlink:title="ET POLICY Suspicious inbound to mySQL port 3306&#10;ET POLICY Suspicious inbound to mSQL port 4333&#10;ET POLICY Suspicious inbound to MSSQL port 1433&#10;ET POLICY Suspicious inbound to Oracle SQL port 1521&#10;ET POLICY Suspicious inbound to PostgreSQL port 5432">
<ellipse fill="none" stroke="black" stroke-width="3" cx="737.12" cy="-390.13" rx="241.25" ry="42.35"/>
<text text-anchor="middle" x="737.12" y="-396.93" font-family="Arial" font-size="24.00">VULNERABILTY DISCOVERY</text>
<text text-anchor="middle" x="737.12" y="-370.93" font-family="Arial" font-size="24.00">mysql</text>
</a>
</g>
</g>
<!-- SERVICE DISCOVERY
epmap&#45;&gt;VULNERABILTY DISCOVERY
mysql -->
<g id="edge5" class="edge">
<title>SERVICE DISCOVERY
epmap&#45;&gt;VULNERABILTY DISCOVERY
mysql</title>
<path fill="none" stroke="blue" stroke-width="5" d="M737.12,-265.88C737.12,-287.55 737.12,-314.26 737.12,-337.27"/>
<polygon fill="blue" stroke="blue" stroke-width="5" points="732.75,-337.55 737.12,-347.55 741.5,-337.55 732.75,-337.55"/>
<text text-anchor="middle" x="868.62" y="-323.71" font-family="Arial" font-size="20.00" fill="blue">start_next: 04/11/17, 18:57:43</text>
<text text-anchor="middle" x="868.62" y="-301.71" font-family="Arial" font-size="20.00" fill="blue">gap: &#45;134sec</text>
<text text-anchor="middle" x="868.62" y="-279.71" font-family="Arial" font-size="20.00" fill="blue">end_prev: 04/11/17, 18:59:57</text>
</g>
<!-- VULNERABILTY DISCOVERY
mysql&#45;&gt;NETWORK DoS
ssdp | ID: 55 -->
<g id="edge6" class="edge">
<title>VULNERABILTY DISCOVERY
mysql&#45;&gt;NETWORK DoS
ssdp | ID: 55</title>
<path fill="none" stroke="blue" stroke-width="5" d="M737.12,-432.63C737.12,-454.12 737.12,-480.72 737.12,-504.24"/>
<polygon fill="blue" stroke="blue" stroke-width="5" points="732.75,-504.45 737.12,-514.45 741.5,-504.45 732.75,-504.45"/>
<text text-anchor="middle" x="868.62" y="-490.56" font-family="Arial" font-size="20.00" fill="blue">start_next: 04/11/17, 19:00:36</text>
<text text-anchor="middle" x="868.62" y="-468.56" font-family="Arial" font-size="20.00" fill="blue">gap: 33sec</text>
<text text-anchor="middle" x="868.62" y="-446.56" font-family="Arial" font-size="20.00" fill="blue">end_prev: 04/11/17, 19:00:03</text>
</g>
</g>
</svg>
