<?xml version="1.0" encoding="UTF-8" standalone="no"?>
<!DOCTYPE svg PUBLIC "-//W3C//DTD SVG 1.1//EN"
 "http://www.w3.org/Graphics/SVG/1.1/DTD/svg11.dtd">
<!-- Generated by graphviz version 2.50.0 (0)
 -->
<!-- Title: NETWORKDOSssdp Pages: 1 -->
<svg width="841pt" height="791pt"
 viewBox="0.00 0.00 840.50 791.18" xmlns="http://www.w3.org/2000/svg" xmlns:xlink="http://www.w3.org/1999/xlink">
<g id="graph0" class="graph" transform="scale(1 1) rotate(0) translate(4 787.18)">
<title>NETWORKDOSssdp</title>
<polygon fill="white" stroke="transparent" points="-4,4 -4,-787.18 836.5,-787.18 836.5,4 -4,4"/>
<!-- Victim: 10.0.0.125
NETWORK DoS
ssdp -->
<g id="node1" class="node">
<title>Victim: 10.0.0.125
NETWORK DoS
ssdp</title>
<polygon fill="salmon" stroke="black" stroke-width="3" points="539.45,-686.16 539.45,-740.55 445.17,-779.01 311.84,-779.01 217.56,-740.55 217.56,-686.16 311.84,-647.71 445.17,-647.71 539.45,-686.16"/>
<polygon fill="none" stroke="black" stroke-width="3" points="543.46,-683.49 543.46,-743.23 445.96,-783 311.05,-783 213.55,-743.23 213.55,-683.49 311.05,-643.72 445.96,-643.72 543.46,-683.49"/>
<text text-anchor="middle" x="378.5" y="-733.16" font-family="Arial" font-size="24.00">Victim: 10.0.0.125</text>
<text text-anchor="middle" x="378.5" y="-707.16" font-family="Arial" font-size="24.00">NETWORK DoS</text>
<text text-anchor="middle" x="378.5" y="-681.16" font-family="Arial" font-size="24.00">ssdp</text>
</g>
<!-- NETWORK DoS
ssdp | ID: 55 -->
<g id="node2" class="node">
<title>NETWORK DoS
ssdp | ID: 55</title>
<g id="a_node2"><a xlink:title="ET DOS Possible SSDP Amplification Scan in Progress">
<polygon fill="salmon" stroke="black" stroke-width="3" points="535.04,-577.55 456.77,-626.53 300.24,-626.53 221.97,-577.55 300.24,-528.57 456.77,-528.57 535.04,-577.55"/>
<text text-anchor="middle" x="378.5" y="-584.35" font-family="Arial" font-size="24.00">NETWORK DoS</text>
<text text-anchor="middle" x="378.5" y="-558.35" font-family="Arial" font-size="24.00">ssdp | ID: 55</text>
</a>
</g>
</g>
<!-- NETWORK DoS
ssdp | ID: 55&#45;&gt;Victim: 10.0.0.125
NETWORK DoS
ssdp -->
<g id="edge1" class="edge">
<title>NETWORK DoS
ssdp | ID: 55&#45;&gt;Victim: 10.0.0.125
NETWORK DoS
ssdp</title>
<path fill="none" stroke="black" stroke-width="5" d="M378.5,-626.86C378.5,-628.96 378.5,-631.09 378.5,-633.24"/>
<polygon fill="black" stroke="black" stroke-width="5" points="374.13,-633.4 378.5,-643.4 382.88,-633.4 374.13,-633.4"/>
</g>
<!-- VULNERABILTY DISCOVERY
ms&#45;sql&#45;s -->
<g id="node3" class="node">
<title>VULNERABILTY DISCOVERY
ms&#45;sql&#45;s</title>
<g id="a_node3"><a xlink:title="ET POLICY Suspicious inbound to MSSQL port 1433">
<ellipse fill="yellow" stroke="black" stroke-width="3" cx="377.5" cy="-42.43" rx="241.25" ry="42.35"/>
<text text-anchor="middle" x="377.5" y="-49.23" font-family="Arial" font-size="24.00">VULNERABILTY DISCOVERY</text>
<text text-anchor="middle" x="377.5" y="-23.23" font-family="Arial" font-size="24.00">ms&#45;sql&#45;s</text>
</a>
</g>
</g>
<!-- VULNERABILTY DISCOVERY
ncube&#45;lm -->
<g id="node4" class="node">
<title>VULNERABILTY DISCOVERY
ncube&#45;lm</title>
<g id="a_node4"><a xlink:title="ET POLICY Suspicious inbound to mySQL port 3306&#10;ET POLICY Suspicious inbound to mSQL port 4333&#10;ET POLICY Suspicious inbound to MSSQL port 1433&#10;ET POLICY Suspicious inbound to Oracle SQL port 1521&#10;ET POLICY Suspicious inbound to PostgreSQL port 5432">
<ellipse fill="yellow" stroke="black" stroke-width="3" cx="377.5" cy="-223.28" rx="241.25" ry="42.35"/>
<text text-anchor="middle" x="377.5" y="-230.08" font-family="Arial" font-size="24.00">VULNERABILTY DISCOVERY</text>
<text text-anchor="middle" x="377.5" y="-204.08" font-family="Arial" font-size="24.00">ncube&#45;lm</text>
</a>
</g>
</g>
<!-- VULNERABILTY DISCOVERY
ms&#45;sql&#45;s&#45;&gt;VULNERABILTY DISCOVERY
ncube&#45;lm -->
<g id="edge2" class="edge">
<title>VULNERABILTY DISCOVERY
ms&#45;sql&#45;s&#45;&gt;VULNERABILTY DISCOVERY
ncube&#45;lm</title>
<path fill="none" stroke="blue" stroke-width="5" d="M377.5,-84.91C377.5,-110.44 377.5,-143.37 377.5,-170.59"/>
<polygon fill="blue" stroke="blue" stroke-width="5" points="373.13,-170.71 377.5,-180.71 381.88,-170.71 373.13,-170.71"/>
<text text-anchor="start" x="377.5" y="-157.85" font-family="Arial" font-size="20.00" fill="blue"> start_next: 04/11/17, 14:02:15</text>
<text text-anchor="start" x="451" y="-137.85" font-family="Arial" font-size="20.00" fill="blue">gap: 3803sec</text>
<text text-anchor="start" x="381.5" y="-117.85" font-family="Arial" font-size="20.00" fill="blue">end_prev: 04/11/17, 12:58:52</text>
<text text-anchor="start" x="412" y="-97.85" font-family="Arial" font-weight="bold" font-size="20.00" fill="blue">Attacker: 10.0.254.31</text>
</g>
<!-- SERVICE DISCOVERY
unknown -->
<g id="node5" class="node">
<title>SERVICE DISCOVERY
unknown</title>
<g id="a_node5"><a xlink:title="ET SCAN Potential VNC Scan 5800&#45;5820&#10;ET SCAN Potential VNC Scan 5900&#45;5920">
<ellipse fill="none" stroke="black" stroke-width="3" cx="189.5" cy="-404.13" rx="189.51" ry="42.35"/>
<text text-anchor="middle" x="189.5" y="-410.93" font-family="Arial" font-size="24.00">SERVICE DISCOVERY</text>
<text text-anchor="middle" x="189.5" y="-384.93" font-family="Arial" font-size="24.00">unknown</text>
</a>
</g>
</g>
<!-- VULNERABILTY DISCOVERY
ncube&#45;lm&#45;&gt;SERVICE DISCOVERY
unknown -->
<g id="edge3" class="edge">
<title>VULNERABILTY DISCOVERY
ncube&#45;lm&#45;&gt;SERVICE DISCOVERY
unknown</title>
<path fill="none" stroke="blue" stroke-width="5" d="M285.08,-262.52C279.94,-265.99 275.03,-269.72 270.5,-273.71 245.86,-295.41 226.1,-326.42 212.27,-352.65"/>
<polygon fill="blue" stroke="blue" stroke-width="5" points="208.29,-350.81 207.62,-361.7 216.08,-354.8 208.29,-350.81"/>
<text text-anchor="middle" x="402" y="-330.71" font-family="Arial" font-size="20.00" fill="blue">start_next: 04/11/17, 14:05:35</text>
<text text-anchor="middle" x="402" y="-308.71" font-family="Arial" font-size="20.00" fill="blue">gap: &#45;3sec</text>
<text text-anchor="middle" x="402" y="-286.71" font-family="Arial" font-size="20.00" fill="blue">end_prev: 04/11/17, 14:05:38</text>
</g>
<!-- BRUTE FORCE CREDENTIALS
pop3 | ID: 382 -->
<g id="node6" class="node">
<title>BRUTE FORCE CREDENTIALS
pop3 | ID: 382</title>
<g id="a_node6"><a xlink:title="ET SCAN Rapid POP3 Connections &#45; Possible Brute Force Attack">
<polygon fill="none" stroke="black" stroke-width="3" points="748.5,-434.13 386.5,-434.13 386.5,-374.13 748.5,-374.13 748.5,-434.13"/>
<text text-anchor="middle" x="567.5" y="-410.93" font-family="Arial" font-size="24.00">BRUTE FORCE CREDENTIALS</text>
<text text-anchor="middle" x="567.5" y="-384.93" font-family="Arial" font-size="24.00">pop3 | ID: 382</text>
</a>
</g>
</g>
<!-- VULNERABILTY DISCOVERY
ncube&#45;lm&#45;&gt;BRUTE FORCE CREDENTIALS
pop3 | ID: 382 -->
<g id="edge5" class="edge">
<title>VULNERABILTY DISCOVERY
ncube&#45;lm&#45;&gt;BRUTE FORCE CREDENTIALS
pop3 | ID: 382</title>
<path fill="none" stroke="blue" stroke-width="5" d="M512.49,-258.69C519,-263.1 525.07,-268.09 530.5,-273.71 553.79,-297.8 562.6,-335.51 565.84,-364.02"/>
<polygon fill="blue" stroke="blue" stroke-width="5" points="561.5,-364.53 566.8,-374.07 570.21,-363.7 561.5,-364.53"/>
<text text-anchor="start" x="564.5" y="-338.71" font-family="Arial" font-size="20.00" fill="blue"> start_next: 04/11/17, 16:31:25</text>
<text text-anchor="start" x="655" y="-318.71" font-family="Arial" font-size="20.00" fill="blue">gap: 7sec</text>
<text text-anchor="start" x="568.5" y="-298.71" font-family="Arial" font-size="20.00" fill="blue">end_prev: 04/11/17, 16:31:18</text>
<text text-anchor="start" x="599" y="-278.71" font-family="Arial" font-weight="bold" font-size="20.00" fill="blue">Attacker: 10.0.254.31</text>
</g>
<!-- SERVICE DISCOVERY
unknown&#45;&gt;NETWORK DoS
ssdp | ID: 55 -->
<g id="edge4" class="edge">
<title>SERVICE DISCOVERY
unknown&#45;&gt;NETWORK DoS
ssdp | ID: 55</title>
<path fill="none" stroke="blue" stroke-width="5" d="M212.22,-446.5C226.82,-470.33 247.52,-499.63 271.5,-520.56 274.75,-523.39 278.16,-526.13 281.69,-528.77"/>
<polygon fill="blue" stroke="blue" stroke-width="5" points="279.44,-532.53 290.13,-534.75 284.5,-525.39 279.44,-532.53"/>
<text text-anchor="middle" x="402.5" y="-504.56" font-family="Arial" font-size="20.00" fill="blue">start_next: 04/11/17, 14:06:11</text>
<text text-anchor="middle" x="402.5" y="-482.56" font-family="Arial" font-size="20.00" fill="blue">gap: 33sec</text>
<text text-anchor="middle" x="402.5" y="-460.56" font-family="Arial" font-size="20.00" fill="blue">end_prev: 04/11/17, 14:05:38</text>
</g>
<!-- BRUTE FORCE CREDENTIALS
pop3 | ID: 382&#45;&gt;NETWORK DoS
ssdp | ID: 55 -->
<g id="edge6" class="edge">
<title>BRUTE FORCE CREDENTIALS
pop3 | ID: 382&#45;&gt;NETWORK DoS
ssdp | ID: 55</title>
<path fill="none" stroke="blue" stroke-width="5" d="M565.24,-434.36C561.76,-460.14 552.93,-497.16 530.5,-520.56 521.43,-530.02 510.63,-537.9 499.02,-544.45"/>
<polygon fill="blue" stroke="blue" stroke-width="5" points="496.8,-540.67 490,-549.2 500.88,-548.41 496.8,-540.67"/>
<text text-anchor="middle" x="693" y="-504.56" font-family="Arial" font-size="20.00" fill="blue">start_next: 04/11/17, 16:31:57</text>
<text text-anchor="middle" x="693" y="-482.56" font-family="Arial" font-size="20.00" fill="blue">gap: 32sec</text>
<text text-anchor="middle" x="693" y="-460.56" font-family="Arial" font-size="20.00" fill="blue">end_prev: 04/11/17, 16:31:25</text>
</g>
</g>
</svg>
