<?xml version="1.0" encoding="UTF-8" standalone="no"?>
<!DOCTYPE svg PUBLIC "-//W3C//DTD SVG 1.1//EN"
 "http://www.w3.org/Graphics/SVG/1.1/DTD/svg11.dtd">
<!-- Generated by graphviz version 2.50.0 (0)
 -->
<!-- Title: DATADELIVERYhttp Pages: 1 -->
<svg width="1746pt" height="2141pt"
 viewBox="0.00 0.00 1746.12 2140.53" xmlns="http://www.w3.org/2000/svg" xmlns:xlink="http://www.w3.org/1999/xlink">
<g id="graph0" class="graph" transform="scale(1 1) rotate(0) translate(4 2136.53)">
<title>DATADELIVERYhttp</title>
<polygon fill="white" stroke="transparent" points="-4,4 -4,-2136.53 1742.12,-2136.53 1742.12,4 -4,4"/>
<!-- Victim: 10.0.0.202
DATA DELIVERY
http -->
<g id="node1" class="node">
<title>Victim: 10.0.0.202
DATA DELIVERY
http</title>
<polygon fill="salmon" stroke="black" stroke-width="3" points="576.07,-2035.51 576.07,-2089.9 481.79,-2128.36 348.46,-2128.36 254.17,-2089.9 254.17,-2035.51 348.46,-1997.06 481.79,-1997.06 576.07,-2035.51"/>
<polygon fill="none" stroke="black" stroke-width="3" points="580.08,-2032.84 580.08,-2092.58 482.58,-2132.35 347.67,-2132.35 250.17,-2092.58 250.17,-2032.84 347.67,-1993.07 482.58,-1993.07 580.08,-2032.84"/>
<text text-anchor="middle" x="415.12" y="-2082.51" font-family="Arial" font-size="24.00">Victim: 10.0.0.202</text>
<text text-anchor="middle" x="415.12" y="-2056.51" font-family="Arial" font-size="24.00">DATA DELIVERY</text>
<text text-anchor="middle" x="415.12" y="-2030.51" font-family="Arial" font-size="24.00">http</text>
</g>
<!-- DATA DELIVERY
http | ID: 21 -->
<g id="node2" class="node">
<title>DATA DELIVERY
http | ID: 21</title>
<g id="a_node2"><a xlink:title="ET WEB_SERVER PHP Possible php Remote File Inclusion Attempt&#10;ET WEB_SERVER PHP tags in HTTP POST">
<polygon fill="salmon" stroke="black" stroke-width="3" points="412.22,-1926.9 330.67,-1975.88 167.57,-1975.88 86.02,-1926.9 167.57,-1877.92 330.67,-1877.92 412.22,-1926.9"/>
<text text-anchor="middle" x="249.12" y="-1933.7" font-family="Arial" font-size="24.00">DATA DELIVERY</text>
<text text-anchor="middle" x="249.12" y="-1907.7" font-family="Arial" font-size="24.00">http | ID: 21</text>
</a>
</g>
</g>
<!-- DATA DELIVERY
http | ID: 21&#45;&gt;Victim: 10.0.0.202
DATA DELIVERY
http -->
<g id="edge1" class="edge">
<title>DATA DELIVERY
http | ID: 21&#45;&gt;Victim: 10.0.0.202
DATA DELIVERY
http</title>
<path fill="none" stroke="black" stroke-width="5" d="M309.05,-1976.21C315.13,-1981.1 321.38,-1986.14 327.66,-1991.21"/>
<polygon fill="black" stroke="black" stroke-width="5" points="325.1,-1994.76 335.63,-1997.63 330.59,-1987.95 325.1,-1994.76"/>
</g>
<!-- DATA DELIVERY
http | ID: 246 -->
<g id="node3" class="node">
<title>DATA DELIVERY
http | ID: 246</title>
<g id="a_node3"><a xlink:title="ET WEB_SERVER PHP Possible php Remote File Inclusion Attempt&#10;ET WEB_SERVER PHP tags in HTTP POST&#10;GPL WEB_SERVER perl post attempt">
<polygon fill="salmon" stroke="black" stroke-width="3" points="746.22,-1926.9 664.67,-1975.88 501.57,-1975.88 420.02,-1926.9 501.57,-1877.92 664.67,-1877.92 746.22,-1926.9"/>
<text text-anchor="middle" x="583.12" y="-1933.7" font-family="Arial" font-size="24.00">DATA DELIVERY</text>
<text text-anchor="middle" x="583.12" y="-1907.7" font-family="Arial" font-size="24.00">http | ID: 246</text>
</a>
</g>
</g>
<!-- DATA DELIVERY
http | ID: 246&#45;&gt;Victim: 10.0.0.202
DATA DELIVERY
http -->
<g id="edge2" class="edge">
<title>DATA DELIVERY
http | ID: 246&#45;&gt;Victim: 10.0.0.202
DATA DELIVERY
http</title>
<path fill="none" stroke="black" stroke-width="5" d="M522.47,-1976.21C516.19,-1981.21 509.73,-1986.36 503.23,-1991.54"/>
<polygon fill="black" stroke="black" stroke-width="5" points="500.08,-1988.45 494.99,-1998.1 505.54,-1995.29 500.08,-1988.45"/>
</g>
<!-- VULNERABILTY DISCOVERY
ms&#45;sql&#45;s -->
<g id="node4" class="node">
<title>VULNERABILTY DISCOVERY
ms&#45;sql&#45;s</title>
<g id="a_node4"><a xlink:title="ET POLICY Suspicious inbound to MSSQL port 1433">
<ellipse fill="yellow" stroke="black" stroke-width="3" cx="241.12" cy="-916.94" rx="241.25" ry="42.35"/>
<text text-anchor="middle" x="241.12" y="-923.74" font-family="Arial" font-size="24.00">VULNERABILTY DISCOVERY</text>
<text text-anchor="middle" x="241.12" y="-897.74" font-family="Arial" font-size="24.00">ms&#45;sql&#45;s</text>
</a>
</g>
</g>
<!-- VULNERABILTY DISCOVERY
ncube&#45;lm -->
<g id="node5" class="node">
<title>VULNERABILTY DISCOVERY
ncube&#45;lm</title>
<g id="a_node5"><a xlink:title="ET POLICY Suspicious inbound to Oracle SQL port 1521">
<ellipse fill="none" stroke="black" stroke-width="3" cx="242.12" cy="-1097.8" rx="241.25" ry="42.35"/>
<text text-anchor="middle" x="242.12" y="-1104.6" font-family="Arial" font-size="24.00">VULNERABILTY DISCOVERY</text>
<text text-anchor="middle" x="242.12" y="-1078.6" font-family="Arial" font-size="24.00">ncube&#45;lm</text>
</a>
</g>
</g>
<!-- VULNERABILTY DISCOVERY
ms&#45;sql&#45;s&#45;&gt;VULNERABILTY DISCOVERY
ncube&#45;lm -->
<g id="edge3" class="edge">
<title>VULNERABILTY DISCOVERY
ms&#45;sql&#45;s&#45;&gt;VULNERABILTY DISCOVERY
ncube&#45;lm</title>
<path fill="none" stroke="blue" stroke-width="5" d="M241.36,-959.43C241.5,-984.96 241.68,-1017.89 241.83,-1045.11"/>
<polygon fill="blue" stroke="blue" stroke-width="5" points="237.46,-1045.26 241.89,-1055.23 246.21,-1045.21 237.46,-1045.26"/>
<text text-anchor="start" x="242.12" y="-1032.37" font-family="Arial" font-size="20.00" fill="blue"> start_next: 04/11/17, 13:08:38</text>
<text text-anchor="start" x="322.12" y="-1012.37" font-family="Arial" font-size="20.00" fill="blue">gap: 711sec</text>
<text text-anchor="start" x="246.12" y="-992.37" font-family="Arial" font-size="20.00" fill="blue">end_prev: 04/11/17, 12:56:47</text>
<text text-anchor="start" x="276.62" y="-972.37" font-family="Arial" font-weight="bold" font-size="20.00" fill="blue">Attacker: 10.0.254.31</text>
</g>
<!-- ACCOUNT MANIPULATION
snmp | ID: 53 -->
<g id="node6" class="node">
<title>ACCOUNT MANIPULATION
snmp | ID: 53</title>
<g id="a_node6"><a xlink:title="GPL SNMP private access udp&#10;GPL SNMP public access udp">
<polygon fill="none" stroke="black" stroke-width="3" points="405.12,-1282.22 85.12,-1282.22 85.12,-1222.22 405.12,-1222.22 405.12,-1282.22"/>
<text text-anchor="middle" x="245.12" y="-1259.02" font-family="Arial" font-size="24.00">ACCOUNT MANIPULATION</text>
<text text-anchor="middle" x="245.12" y="-1233.02" font-family="Arial" font-size="24.00">snmp | ID: 53</text>
</a>
</g>
</g>
<!-- VULNERABILTY DISCOVERY
ncube&#45;lm&#45;&gt;ACCOUNT MANIPULATION
snmp | ID: 53 -->
<g id="edge4" class="edge">
<title>VULNERABILTY DISCOVERY
ncube&#45;lm&#45;&gt;ACCOUNT MANIPULATION
snmp | ID: 53</title>
<path fill="none" stroke="blue" stroke-width="5" d="M242.94,-1140.45C243.38,-1162.72 243.92,-1189.98 244.35,-1211.89"/>
<polygon fill="blue" stroke="blue" stroke-width="5" points="239.98,-1212.26 244.55,-1222.17 248.73,-1212.09 239.98,-1212.26"/>
<text text-anchor="middle" x="376.62" y="-1198.22" font-family="Arial" font-size="20.00" fill="blue">start_next: 04/11/17, 14:01:27</text>
<text text-anchor="middle" x="376.62" y="-1176.22" font-family="Arial" font-size="20.00" fill="blue">gap: 3169sec</text>
<text text-anchor="middle" x="376.62" y="-1154.22" font-family="Arial" font-size="20.00" fill="blue">end_prev: 04/11/17, 13:08:38</text>
</g>
<!-- SERVICE DISCOVERY
ssh -->
<g id="node7" class="node">
<title>SERVICE DISCOVERY
ssh</title>
<g id="a_node7"><a xlink:title="ET SCAN Potential SSH Scan">
<ellipse fill="none" stroke="black" stroke-width="3" cx="249.12" cy="-1406.65" rx="189.51" ry="42.35"/>
<text text-anchor="middle" x="249.12" y="-1413.45" font-family="Arial" font-size="24.00">SERVICE DISCOVERY</text>
<text text-anchor="middle" x="249.12" y="-1387.45" font-family="Arial" font-size="24.00">ssh</text>
</a>
</g>
</g>
<!-- ACCOUNT MANIPULATION
snmp | ID: 53&#45;&gt;SERVICE DISCOVERY
ssh -->
<g id="edge5" class="edge">
<title>ACCOUNT MANIPULATION
snmp | ID: 53&#45;&gt;SERVICE DISCOVERY
ssh</title>
<path fill="none" stroke="blue" stroke-width="5" d="M245.89,-1282.25C246.42,-1302.51 247.14,-1330.09 247.77,-1354.05"/>
<polygon fill="blue" stroke="blue" stroke-width="5" points="243.4,-1354.18 248.03,-1364.06 252.14,-1353.95 243.4,-1354.18"/>
<text text-anchor="middle" x="379.62" y="-1340.22" font-family="Arial" font-size="20.00" fill="blue">start_next: 04/11/17, 14:06:20</text>
<text text-anchor="middle" x="379.62" y="-1318.22" font-family="Arial" font-size="20.00" fill="blue">gap: 13sec</text>
<text text-anchor="middle" x="379.62" y="-1296.22" font-family="Arial" font-size="20.00" fill="blue">end_prev: 04/11/17, 14:06:08</text>
</g>
<!-- SURFING
http -->
<g id="node8" class="node">
<title>SURFING
http</title>
<g id="a_node8"><a xlink:title="ET WEB_SERVER WEB&#45;PHP phpinfo access">
<ellipse fill="none" stroke="black" stroke-width="3" cx="521.12" cy="-1573.5" rx="88.28" ry="42.35"/>
<text text-anchor="middle" x="521.12" y="-1580.3" font-family="Arial" font-size="24.00">SURFING</text>
<text text-anchor="middle" x="521.12" y="-1554.3" font-family="Arial" font-size="24.00">http</text>
</a>
</g>
</g>
<!-- SERVICE DISCOVERY
ssh&#45;&gt;SURFING
http -->
<g id="edge6" class="edge">
<title>SERVICE DISCOVERY
ssh&#45;&gt;SURFING
http</title>
<path fill="none" stroke="blue" stroke-width="5" d="M238.78,-1449.11C235.33,-1473.42 235.97,-1503.18 253.12,-1523.08 275.16,-1548.64 355.88,-1561.06 423.02,-1567.05"/>
<polygon fill="blue" stroke="blue" stroke-width="5" points="422.91,-1571.43 433.25,-1567.92 423.66,-1562.71 422.91,-1571.43"/>
<text text-anchor="middle" x="384.62" y="-1507.08" font-family="Arial" font-size="20.00" fill="blue">start_next: 04/11/17, 14:10:34</text>
<text text-anchor="middle" x="384.62" y="-1485.08" font-family="Arial" font-size="20.00" fill="blue">gap: 253sec</text>
<text text-anchor="middle" x="384.62" y="-1463.08" font-family="Arial" font-size="20.00" fill="blue">end_prev: 04/11/17, 14:06:20</text>
</g>
<!-- SURFING
http&#45;&gt;DATA DELIVERY
http | ID: 246 -->
<g id="edge7" class="edge">
<title>SURFING
http&#45;&gt;DATA DELIVERY
http | ID: 246</title>
<path fill="none" stroke="blue" stroke-width="5" d="M603.81,-1588.84C665.45,-1604.33 745.53,-1635.72 785.12,-1697.93 808.5,-1734.67 805.98,-1757.68 785.12,-1795.91 764.37,-1833.95 727.17,-1862.53 690.31,-1883.06"/>
<polygon fill="blue" stroke="blue" stroke-width="5" points="688.18,-1879.24 681.46,-1887.84 692.34,-1886.93 688.18,-1879.24"/>
<text text-anchor="middle" x="933.62" y="-1763.92" font-family="Arial" font-size="20.00" fill="blue">start_next: 04/11/17, 14:10:37</text>
<text text-anchor="middle" x="933.62" y="-1741.92" font-family="Arial" font-size="20.00" fill="blue">gap: 1sec</text>
<text text-anchor="middle" x="933.62" y="-1719.92" font-family="Arial" font-size="20.00" fill="blue">end_prev: 04/11/17, 14:10:36</text>
</g>
<!-- SURFING
http&#45;&gt;DATA DELIVERY
http | ID: 246 -->
<g id="edge17" class="edge">
<title>SURFING
http&#45;&gt;DATA DELIVERY
http | ID: 246</title>
<path fill="none" stroke="blue" stroke-width="5" d="M518.94,-1616.19C516.46,-1670.64 513.66,-1762.92 521.12,-1795.91 526.8,-1820.99 537.92,-1846.89 549.19,-1868.91"/>
<polygon fill="blue" stroke="blue" stroke-width="5" points="545.33,-1870.96 553.85,-1877.78 553.07,-1866.89 545.33,-1870.96"/>
<text text-anchor="middle" x="652.62" y="-1763.92" font-family="Arial" font-size="20.00" fill="blue">start_next: 04/11/17, 16:39:15</text>
<text text-anchor="middle" x="652.62" y="-1741.92" font-family="Arial" font-size="20.00" fill="blue">gap: 1sec</text>
<text text-anchor="middle" x="652.62" y="-1719.92" font-family="Arial" font-size="20.00" fill="blue">end_prev: 04/11/17, 16:39:14</text>
</g>
<!-- DATA EXFILTRATION
http | ID: 228 -->
<g id="node21" class="node">
<title>DATA EXFILTRATION
http | ID: 228</title>
<g id="a_node21"><a xlink:title="ET WEB_SPECIFIC_APPS PHP&#45;CGI query string parameter vulnerability">
<polygon fill="none" stroke="black" stroke-width="3" points="454,-1746.92 351.56,-1795.9 146.68,-1795.9 44.24,-1746.92 146.68,-1697.94 351.56,-1697.94 454,-1746.92"/>
<text text-anchor="middle" x="249.12" y="-1753.72" font-family="Arial" font-size="24.00">DATA EXFILTRATION</text>
<text text-anchor="middle" x="249.12" y="-1727.72" font-family="Arial" font-size="24.00">http | ID: 228</text>
</a>
</g>
</g>
<!-- SURFING
http&#45;&gt;DATA EXFILTRATION
http | ID: 228 -->
<g id="edge26" class="edge">
<title>SURFING
http&#45;&gt;DATA EXFILTRATION
http | ID: 228</title>
<path fill="none" stroke="blue" stroke-width="5" d="M433.24,-1579.07C364.3,-1584.69 276.27,-1597.03 253.12,-1623.93 238.32,-1641.13 235.2,-1665.29 236.58,-1687.57"/>
<polygon fill="blue" stroke="blue" stroke-width="5" points="232.24,-1688.09 237.51,-1697.65 240.95,-1687.29 232.24,-1688.09"/>
<text text-anchor="middle" x="384.62" y="-1673.93" font-family="Arial" font-size="20.00" fill="blue">start_next: 04/11/17, 18:10:49</text>
<text text-anchor="middle" x="384.62" y="-1651.93" font-family="Arial" font-size="20.00" fill="blue">gap: 12sec</text>
<text text-anchor="middle" x="384.62" y="-1629.93" font-family="Arial" font-size="20.00" fill="blue">end_prev: 04/11/17, 18:10:37</text>
</g>
<!-- DATA EXFILTRATION
http | ID: 26 -->
<g id="node9" class="node">
<title>DATA EXFILTRATION
http | ID: 26</title>
<g id="a_node9"><a xlink:title="ET WEB_SPECIFIC_APPS PHP&#45;CGI query string parameter vulnerability">
<polygon fill="yellow" stroke="black" stroke-width="3" points="1086,-48.99 983.56,-97.97 778.68,-97.97 676.24,-48.99 778.68,-0.01 983.56,-0.01 1086,-48.99"/>
<text text-anchor="middle" x="881.12" y="-55.79" font-family="Arial" font-size="24.00">DATA EXFILTRATION</text>
<text text-anchor="middle" x="881.12" y="-29.79" font-family="Arial" font-size="24.00">http | ID: 26</text>
</a>
</g>
</g>
<!-- VULNERABILTY DISCOVERY
http -->
<g id="node10" class="node">
<title>VULNERABILTY DISCOVERY
http</title>
<g id="a_node10"><a xlink:title="ET SCAN Nessus User Agent">
<ellipse fill="none" stroke="black" stroke-width="3" cx="861.12" cy="-403.26" rx="241.25" ry="42.35"/>
<text text-anchor="middle" x="861.12" y="-410.06" font-family="Arial" font-size="24.00">VULNERABILTY DISCOVERY</text>
<text text-anchor="middle" x="861.12" y="-384.06" font-family="Arial" font-size="24.00">http</text>
</a>
</g>
</g>
<!-- DATA EXFILTRATION
http | ID: 26&#45;&gt;VULNERABILTY DISCOVERY
http -->
<g id="edge8" class="edge">
<title>DATA EXFILTRATION
http | ID: 26&#45;&gt;VULNERABILTY DISCOVERY
http</title>
<path fill="none" stroke="blue" stroke-width="5" d="M878.38,-98.23C874.63,-164.37 867.91,-282.7 864.06,-350.59"/>
<polygon fill="blue" stroke="blue" stroke-width="5" points="859.69,-350.4 863.49,-360.63 868.42,-350.89 859.69,-350.4"/>
<text text-anchor="start" x="873.12" y="-261.41" font-family="Arial" font-size="20.00" fill="blue"> start_next: 04/11/17, 14:18:12</text>
<text text-anchor="start" x="958.12" y="-241.41" font-family="Arial" font-size="20.00" fill="blue">gap: 35sec</text>
<text text-anchor="start" x="877.12" y="-221.41" font-family="Arial" font-size="20.00" fill="blue">end_prev: 04/11/17, 14:17:37</text>
<text text-anchor="start" x="907.62" y="-201.41" font-family="Arial" font-weight="bold" font-size="20.00" fill="blue">Attacker: 10.0.254.31</text>
</g>
<!-- SERVICE DISCOVERY
ipsma -->
<g id="node17" class="node">
<title>SERVICE DISCOVERY
ipsma</title>
<g id="a_node17"><a xlink:title="ET SCAN Potential VNC Scan 5900&#45;5920">
<ellipse fill="none" stroke="black" stroke-width="3" cx="1344.12" cy="-236.41" rx="189.51" ry="42.35"/>
<text text-anchor="middle" x="1344.12" y="-243.21" font-family="Arial" font-size="24.00">SERVICE DISCOVERY</text>
<text text-anchor="middle" x="1344.12" y="-217.21" font-family="Arial" font-size="24.00">ipsma</text>
</a>
</g>
</g>
<!-- DATA EXFILTRATION
http | ID: 26&#45;&gt;SERVICE DISCOVERY
ipsma -->
<g id="edge18" class="edge">
<title>DATA EXFILTRATION
http | ID: 26&#45;&gt;SERVICE DISCOVERY
ipsma</title>
<path fill="none" stroke="blue" stroke-width="5" d="M991.73,-94.28C1068.43,-125 1169.75,-165.57 1244.05,-195.33"/>
<polygon fill="blue" stroke="blue" stroke-width="5" points="1242.52,-199.43 1253.43,-199.09 1245.77,-191.31 1242.52,-199.43"/>
<text text-anchor="start" x="1219.12" y="-170.98" font-family="Arial" font-size="20.00" fill="blue"> start_next: 04/11/17, 18:02:40</text>
<text text-anchor="start" x="1292.62" y="-150.98" font-family="Arial" font-size="20.00" fill="blue">gap: 4592sec</text>
<text text-anchor="start" x="1223.12" y="-130.98" font-family="Arial" font-size="20.00" fill="blue">end_prev: 04/11/17, 16:46:08</text>
<text text-anchor="start" x="1253.62" y="-110.98" font-family="Arial" font-weight="bold" font-size="20.00" fill="blue">Attacker: 10.0.254.31</text>
</g>
<!-- VULNERABILTY DISCOVERY
http&#45;&gt;SURFING
http -->
<g id="edge16" class="edge">
<title>VULNERABILTY DISCOVERY
http&#45;&gt;SURFING
http</title>
<path fill="none" stroke="blue" stroke-width="5" d="M669.76,-429.26C592.45,-451.15 521.12,-492.2 521.12,-569.11 521.12,-569.11 521.12,-569.11 521.12,-1407.65 521.12,-1445.48 521.12,-1488.2 521.12,-1520.67"/>
<polygon fill="blue" stroke="blue" stroke-width="5" points="516.75,-1520.83 521.12,-1530.83 525.5,-1520.83 516.75,-1520.83"/>
<text text-anchor="middle" x="652.62" y="-1024.37" font-family="Arial" font-size="20.00" fill="blue">start_next: 04/11/17, 16:39:14</text>
<text text-anchor="middle" x="652.62" y="-1002.37" font-family="Arial" font-size="20.00" fill="blue">gap: 11sec</text>
<text text-anchor="middle" x="652.62" y="-980.37" font-family="Arial" font-size="20.00" fill="blue">end_prev: 04/11/17, 16:39:03</text>
</g>
<!-- VULNERABILTY DISCOVERY
ahsp -->
<g id="node11" class="node">
<title>VULNERABILTY DISCOVERY
ahsp</title>
<g id="a_node11"><a xlink:title="ET POLICY Suspicious inbound to PostgreSQL port 5432&#10;ET POLICY Suspicious inbound to Oracle SQL port 1521&#10;ET POLICY Suspicious inbound to mSQL port 4333">
<ellipse fill="none" stroke="black" stroke-width="3" cx="1045.12" cy="-570.11" rx="241.25" ry="42.35"/>
<text text-anchor="middle" x="1045.12" y="-576.91" font-family="Arial" font-size="24.00">VULNERABILTY DISCOVERY</text>
<text text-anchor="middle" x="1045.12" y="-550.91" font-family="Arial" font-size="24.00">ahsp</text>
</a>
</g>
</g>
<!-- VULNERABILTY DISCOVERY
http&#45;&gt;VULNERABILTY DISCOVERY
ahsp -->
<g id="edge9" class="edge">
<title>VULNERABILTY DISCOVERY
http&#45;&gt;VULNERABILTY DISCOVERY
ahsp</title>
<path fill="none" stroke="blue" stroke-width="5" d="M906.61,-445.01C932.48,-468.19 965.02,-497.34 992.06,-521.57"/>
<polygon fill="blue" stroke="blue" stroke-width="5" points="989.16,-524.84 999.53,-528.26 995,-518.33 989.16,-524.84"/>
<text text-anchor="middle" x="1116.62" y="-503.69" font-family="Arial" font-size="20.00" fill="blue">start_next: 04/11/17, 16:31:18</text>
<text text-anchor="middle" x="1116.62" y="-481.69" font-family="Arial" font-size="20.00" fill="blue">gap: 7194sec</text>
<text text-anchor="middle" x="1116.62" y="-459.69" font-family="Arial" font-size="20.00" fill="blue">end_prev: 04/11/17, 14:31:25</text>
</g>
<!-- NETWORK DoS
ssdp | ID: 55 -->
<g id="node12" class="node">
<title>NETWORK DoS
ssdp | ID: 55</title>
<g id="a_node12"><a xlink:title="ET DOS Possible SSDP Amplification Scan in Progress">
<polygon fill="none" stroke="black" stroke-width="3" points="1236.66,-743.53 1158.39,-792.51 1001.86,-792.51 923.59,-743.53 1001.86,-694.55 1158.39,-694.55 1236.66,-743.53"/>
<text text-anchor="middle" x="1080.12" y="-750.33" font-family="Arial" font-size="24.00">NETWORK DoS</text>
<text text-anchor="middle" x="1080.12" y="-724.33" font-family="Arial" font-size="24.00">ssdp | ID: 55</text>
</a>
</g>
</g>
<!-- VULNERABILTY DISCOVERY
ahsp&#45;&gt;NETWORK DoS
ssdp | ID: 55 -->
<g id="edge10" class="edge">
<title>VULNERABILTY DISCOVERY
ahsp&#45;&gt;NETWORK DoS
ssdp | ID: 55</title>
<path fill="none" stroke="blue" stroke-width="5" d="M1053.6,-612.61C1058,-634.19 1063.46,-660.94 1068.28,-684.54"/>
<polygon fill="blue" stroke="blue" stroke-width="5" points="1064.02,-685.51 1070.3,-694.43 1072.59,-683.76 1064.02,-685.51"/>
<text text-anchor="middle" x="1198.62" y="-670.54" font-family="Arial" font-size="20.00" fill="blue">start_next: 04/11/17, 16:32:58</text>
<text text-anchor="middle" x="1198.62" y="-648.54" font-family="Arial" font-size="20.00" fill="blue">gap: 40sec</text>
<text text-anchor="middle" x="1198.62" y="-626.54" font-family="Arial" font-size="20.00" fill="blue">end_prev: 04/11/17, 16:32:18</text>
</g>
<!-- INFO DISCOVERY
xdmcp -->
<g id="node13" class="node">
<title>INFO DISCOVERY
xdmcp</title>
<g id="a_node13"><a xlink:title="GPL WEB_SERVER mod_gzip_status access&#10;GPL RPC xdmcp info query">
<ellipse fill="none" stroke="black" stroke-width="3" cx="1315.12" cy="-916.94" rx="156.04" ry="42.35"/>
<text text-anchor="middle" x="1315.12" y="-923.74" font-family="Arial" font-size="24.00">INFO DISCOVERY</text>
<text text-anchor="middle" x="1315.12" y="-897.74" font-family="Arial" font-size="24.00">xdmcp</text>
</a>
</g>
</g>
<!-- NETWORK DoS
ssdp | ID: 55&#45;&gt;INFO DISCOVERY
xdmcp -->
<g id="edge11" class="edge">
<title>NETWORK DoS
ssdp | ID: 55&#45;&gt;INFO DISCOVERY
xdmcp</title>
<path fill="none" stroke="blue" stroke-width="5" d="M1079.18,-792.79C1081.27,-817.9 1088.18,-847.27 1107.12,-866.52 1117.59,-877.15 1142.01,-885.98 1170.57,-893.09"/>
<polygon fill="blue" stroke="blue" stroke-width="5" points="1169.66,-897.37 1180.41,-895.44 1171.69,-888.86 1169.66,-897.37"/>
<text text-anchor="middle" x="1238.62" y="-850.52" font-family="Arial" font-size="20.00" fill="blue">start_next: 04/11/17, 16:33:42</text>
<text text-anchor="middle" x="1238.62" y="-828.52" font-family="Arial" font-size="20.00" fill="blue">gap: 45sec</text>
<text text-anchor="middle" x="1238.62" y="-806.52" font-family="Arial" font-size="20.00" fill="blue">end_prev: 04/11/17, 16:32:58</text>
</g>
<!-- REMOTE SERVICE EXPLOIT
snmp | ID: 874 -->
<g id="node14" class="node">
<title>REMOTE SERVICE EXPLOIT
snmp | ID: 874</title>
<g id="a_node14"><a xlink:title="ET SNMP Samsung Printer SNMP Hardcode RW Community String">
<polygon fill="none" stroke="black" stroke-width="3" stroke-dasharray="1,5" points="1619.12,-1127.8 1281.12,-1127.8 1281.12,-1067.8 1619.12,-1067.8 1619.12,-1127.8"/>
<text text-anchor="middle" x="1450.12" y="-1104.6" font-family="Arial" font-size="24.00">REMOTE SERVICE EXPLOIT</text>
<text text-anchor="middle" x="1450.12" y="-1078.6" font-family="Arial" font-size="24.00">snmp | ID: 874</text>
</a>
</g>
</g>
<!-- INFO DISCOVERY
xdmcp&#45;&gt;REMOTE SERVICE EXPLOIT
snmp | ID: 874 -->
<g id="edge12" class="edge">
<title>INFO DISCOVERY
xdmcp&#45;&gt;REMOTE SERVICE EXPLOIT
snmp | ID: 874</title>
<path fill="none" stroke="blue" stroke-width="5" d="M1346.1,-958.98C1368.91,-989.2 1399.69,-1029.98 1421.84,-1059.33"/>
<polygon fill="blue" stroke="blue" stroke-width="5" points="1418.62,-1062.32 1428.13,-1067.66 1425.6,-1057.05 1418.62,-1062.32"/>
<text text-anchor="middle" x="1541.62" y="-1024.37" font-family="Arial" font-size="20.00" fill="blue">start_next: 04/11/17, 16:33:45</text>
<text text-anchor="middle" x="1541.62" y="-1002.37" font-family="Arial" font-size="20.00" fill="blue">gap: &#45;321sec</text>
<text text-anchor="middle" x="1541.62" y="-980.37" font-family="Arial" font-size="20.00" fill="blue">end_prev: 04/11/17, 16:39:06</text>
</g>
<!-- ACCOUNT MANIPULATION
snmp | ID: 351 -->
<g id="node15" class="node">
<title>ACCOUNT MANIPULATION
snmp | ID: 351</title>
<g id="a_node15"><a xlink:title="GPL SNMP private access udp&#10;GPL SNMP public access udp">
<polygon fill="none" stroke="black" stroke-width="3" stroke-dasharray="1,5" points="1184.12,-1282.22 864.12,-1282.22 864.12,-1222.22 1184.12,-1222.22 1184.12,-1282.22"/>
<text text-anchor="middle" x="1024.12" y="-1259.02" font-family="Arial" font-size="24.00">ACCOUNT MANIPULATION</text>
<text text-anchor="middle" x="1024.12" y="-1233.02" font-family="Arial" font-size="24.00">snmp | ID: 351</text>
</a>
</g>
</g>
<!-- INFO DISCOVERY
xdmcp&#45;&gt;ACCOUNT MANIPULATION
snmp | ID: 351 -->
<g id="edge23" class="edge">
<title>INFO DISCOVERY
xdmcp&#45;&gt;ACCOUNT MANIPULATION
snmp | ID: 351</title>
<path fill="none" stroke="blue" stroke-width="5" d="M1189.08,-942.08C1125.37,-961.34 1053.57,-995.47 1015.12,-1055.37 984.83,-1102.57 997.26,-1170.16 1009.97,-1212.33"/>
<polygon fill="blue" stroke="blue" stroke-width="5" points="1005.83,-1213.74 1013.01,-1221.96 1014.17,-1211.1 1005.83,-1213.74"/>
<text text-anchor="middle" x="1146.62" y="-1114.8" font-family="Arial" font-size="20.00" fill="blue">start_next: 04/11/17, 18:06:06</text>
<text text-anchor="middle" x="1146.62" y="-1092.8" font-family="Arial" font-size="20.00" fill="blue">gap: &#45;263sec</text>
<text text-anchor="middle" x="1146.62" y="-1070.8" font-family="Arial" font-size="20.00" fill="blue">end_prev: 04/11/17, 18:10:29</text>
</g>
<!-- REMOTE SERVICE EXPLOIT
snmp | ID: 874&#45;&gt;ACCOUNT MANIPULATION
snmp | ID: 351 -->
<g id="edge13" class="edge">
<title>REMOTE SERVICE EXPLOIT
snmp | ID: 874&#45;&gt;ACCOUNT MANIPULATION
snmp | ID: 351</title>
<path fill="none" stroke="blue" stroke-width="5" d="M1368.99,-1127.83C1296.42,-1153.79 1190.16,-1191.81 1114.81,-1218.78"/>
<polygon fill="blue" stroke="blue" stroke-width="5" points="1113.25,-1214.68 1105.31,-1222.17 1116.2,-1222.92 1113.25,-1214.68"/>
<text text-anchor="middle" x="1431.62" y="-1198.22" font-family="Arial" font-size="20.00" fill="blue">start_next: 04/11/17, 16:34:48</text>
<text text-anchor="middle" x="1431.62" y="-1176.22" font-family="Arial" font-size="20.00" fill="blue">gap: 63sec</text>
<text text-anchor="middle" x="1431.62" y="-1154.22" font-family="Arial" font-size="20.00" fill="blue">end_prev: 04/11/17, 16:33:45</text>
</g>
<!-- USER PRIVILEGE ESCALATION
http | ID: 49 -->
<g id="node16" class="node">
<title>USER PRIVILEGE ESCALATION
http | ID: 49</title>
<g id="a_node16"><a xlink:title="ET POLICY Outgoing Basic Auth Base64 HTTP Password detected unencrypted&#10;ET POLICY Incoming Basic Auth Base64 HTTP Password detected unencrypted">
<polygon fill="none" stroke="black" stroke-width="3" points="987.12,-1436.65 615.12,-1436.65 615.12,-1376.65 987.12,-1376.65 987.12,-1436.65"/>
<text text-anchor="middle" x="801.12" y="-1413.45" font-family="Arial" font-size="24.00">USER PRIVILEGE ESCALATION</text>
<text text-anchor="middle" x="801.12" y="-1387.45" font-family="Arial" font-size="24.00">http | ID: 49</text>
</a>
</g>
</g>
<!-- ACCOUNT MANIPULATION
snmp | ID: 351&#45;&gt;USER PRIVILEGE ESCALATION
http | ID: 49 -->
<g id="edge14" class="edge">
<title>ACCOUNT MANIPULATION
snmp | ID: 351&#45;&gt;USER PRIVILEGE ESCALATION
http | ID: 49</title>
<path fill="none" stroke="blue" stroke-width="5" d="M1068.13,-1282.38C1070.05,-1284.84 1071.75,-1287.46 1073.12,-1290.22 1086.2,-1316.48 1091.92,-1333.7 1073.12,-1356.22 1061.35,-1370.33 1032.3,-1380.42 997.35,-1387.63"/>
<polygon fill="blue" stroke="blue" stroke-width="5" points="996.32,-1383.37 987.35,-1389.59 998,-1391.96 996.32,-1383.37"/>
<text text-anchor="middle" x="1216.62" y="-1340.22" font-family="Arial" font-size="20.00" fill="blue">start_next: 04/11/17, 16:39:00</text>
<text text-anchor="middle" x="1216.62" y="-1318.22" font-family="Arial" font-size="20.00" fill="blue">gap: 240sec</text>
<text text-anchor="middle" x="1216.62" y="-1296.22" font-family="Arial" font-size="20.00" fill="blue">end_prev: 04/11/17, 16:35:00</text>
</g>
<!-- ACCOUNT MANIPULATION
snmp | ID: 351&#45;&gt;USER PRIVILEGE ESCALATION
http | ID: 49 -->
<g id="edge24" class="edge">
<title>ACCOUNT MANIPULATION
snmp | ID: 351&#45;&gt;USER PRIVILEGE ESCALATION
http | ID: 49</title>
<path fill="none" stroke="blue" stroke-width="5" d="M863.95,-1267.58C838.83,-1272.91 818.17,-1280.21 809.12,-1290.22 799.29,-1301.11 798.07,-1337.15 798.84,-1366.09"/>
<polygon fill="blue" stroke="blue" stroke-width="5" points="794.48,-1366.54 799.2,-1376.38 803.22,-1366.23 794.48,-1366.54"/>
<text text-anchor="middle" x="940.62" y="-1340.22" font-family="Arial" font-size="20.00" fill="blue">start_next: 04/11/17, 18:10:23</text>
<text text-anchor="middle" x="940.62" y="-1318.22" font-family="Arial" font-size="20.00" fill="blue">gap: 227sec</text>
<text text-anchor="middle" x="940.62" y="-1296.22" font-family="Arial" font-size="20.00" fill="blue">end_prev: 04/11/17, 18:06:37</text>
</g>
<!-- USER PRIVILEGE ESCALATION
http | ID: 49&#45;&gt;SURFING
http -->
<g id="edge25" class="edge">
<title>USER PRIVILEGE ESCALATION
http | ID: 49&#45;&gt;SURFING
http</title>
<path fill="none" stroke="blue" stroke-width="5" d="M751.71,-1436.74C705.35,-1464.04 635.77,-1505 585.18,-1534.79"/>
<polygon fill="blue" stroke="blue" stroke-width="5" points="582.67,-1531.19 576.28,-1540.03 587.11,-1538.73 582.67,-1531.19"/>
<text text-anchor="middle" x="842.62" y="-1507.08" font-family="Arial" font-size="20.00" fill="blue">start_next: 04/11/17, 18:10:35</text>
<text text-anchor="middle" x="842.62" y="-1485.08" font-family="Arial" font-size="20.00" fill="blue">gap: &#45;3sec</text>
<text text-anchor="middle" x="842.62" y="-1463.08" font-family="Arial" font-size="20.00" fill="blue">end_prev: 04/11/17, 18:10:38</text>
</g>
<!-- USER PRIVILEGE ESCALATION
http | ID: 49&#45;&gt;VULNERABILTY DISCOVERY
http -->
<g id="edge15" class="edge">
<title>USER PRIVILEGE ESCALATION
http | ID: 49&#45;&gt;VULNERABILTY DISCOVERY
http</title>
<path fill="none" stroke="blue" stroke-width="5" d="M798.68,-1376.45C796.33,-1345.79 793.12,-1296.15 793.12,-1253.22 793.12,-569.11 793.12,-569.11 793.12,-569.11 793.12,-528.54 810.95,-486.3 828.34,-454.73"/>
<polygon fill="blue" stroke="blue" stroke-width="5" points="832.33,-456.57 833.47,-445.71 824.72,-452.25 832.33,-456.57"/>
<text text-anchor="middle" x="924.62" y="-933.94" font-family="Arial" font-size="20.00" fill="blue">start_next: 04/11/17, 16:39:03</text>
<text text-anchor="middle" x="924.62" y="-911.94" font-family="Arial" font-size="20.00" fill="blue">gap: &#45;12sec</text>
<text text-anchor="middle" x="924.62" y="-889.94" font-family="Arial" font-size="20.00" fill="blue">end_prev: 04/11/17, 16:39:15</text>
</g>
<!-- VULNERABILTY DISCOVERY
postgresql -->
<g id="node18" class="node">
<title>VULNERABILTY DISCOVERY
postgresql</title>
<g id="a_node18"><a xlink:title="ET POLICY Suspicious inbound to PostgreSQL port 5432">
<ellipse fill="none" stroke="black" stroke-width="3" cx="1384.12" cy="-403.26" rx="241.25" ry="42.35"/>
<text text-anchor="middle" x="1384.12" y="-410.06" font-family="Arial" font-size="24.00">VULNERABILTY DISCOVERY</text>
<text text-anchor="middle" x="1384.12" y="-384.06" font-family="Arial" font-size="24.00">postgresql</text>
</a>
</g>
</g>
<!-- SERVICE DISCOVERY
ipsma&#45;&gt;VULNERABILTY DISCOVERY
postgresql -->
<g id="edge19" class="edge">
<title>SERVICE DISCOVERY
ipsma&#45;&gt;VULNERABILTY DISCOVERY
postgresql</title>
<path fill="none" stroke="blue" stroke-width="5" d="M1354.22,-279.01C1359.5,-300.77 1366.01,-327.63 1371.61,-350.7"/>
<polygon fill="blue" stroke="blue" stroke-width="5" points="1367.42,-351.99 1374.03,-360.67 1375.93,-349.92 1367.42,-351.99"/>
<text text-anchor="middle" x="1502.62" y="-336.83" font-family="Arial" font-size="20.00" fill="blue">start_next: 04/11/17, 18:03:02</text>
<text text-anchor="middle" x="1502.62" y="-314.83" font-family="Arial" font-size="20.00" fill="blue">gap: 22sec</text>
<text text-anchor="middle" x="1502.62" y="-292.83" font-family="Arial" font-size="20.00" fill="blue">end_prev: 04/11/17, 18:02:40</text>
</g>
<!-- ARBITRARY CODE EXECUTION
ssdp | ID: 355 -->
<g id="node19" class="node">
<title>ARBITRARY CODE EXECUTION
ssdp | ID: 355</title>
<g id="a_node19"><a xlink:title="GPL MISC UPnP malformed advertisement">
<polygon fill="none" stroke="black" stroke-width="3" points="1668.62,-600.11 1293.62,-600.11 1293.62,-540.11 1668.62,-540.11 1668.62,-600.11"/>
<text text-anchor="middle" x="1481.12" y="-576.91" font-family="Arial" font-size="24.00">ARBITRARY CODE EXECUTION</text>
<text text-anchor="middle" x="1481.12" y="-550.91" font-family="Arial" font-size="24.00">ssdp | ID: 355</text>
</a>
</g>
</g>
<!-- VULNERABILTY DISCOVERY
postgresql&#45;&gt;ARBITRARY CODE EXECUTION
ssdp | ID: 355 -->
<g id="edge20" class="edge">
<title>VULNERABILTY DISCOVERY
postgresql&#45;&gt;ARBITRARY CODE EXECUTION
ssdp | ID: 355</title>
<path fill="none" stroke="blue" stroke-width="5" d="M1408.6,-445.86C1424.06,-472.14 1443.89,-505.82 1458.9,-531.34"/>
<polygon fill="blue" stroke="blue" stroke-width="5" points="1455.15,-533.6 1463.99,-540 1462.69,-529.16 1455.15,-533.6"/>
<text text-anchor="middle" x="1580.62" y="-503.69" font-family="Arial" font-size="20.00" fill="blue">start_next: 04/11/17, 18:04:28</text>
<text text-anchor="middle" x="1580.62" y="-481.69" font-family="Arial" font-size="20.00" fill="blue">gap: 87sec</text>
<text text-anchor="middle" x="1580.62" y="-459.69" font-family="Arial" font-size="20.00" fill="blue">end_prev: 04/11/17, 18:03:02</text>
</g>
<!-- REMOTE SERVICE EXPLOIT
snmp | ID: 52 -->
<g id="node20" class="node">
<title>REMOTE SERVICE EXPLOIT
snmp | ID: 52</title>
<g id="a_node20"><a xlink:title="ET SNMP Samsung Printer SNMP Hardcode RW Community String">
<polygon fill="none" stroke="black" stroke-width="3" points="1633.12,-773.53 1295.12,-773.53 1295.12,-713.53 1633.12,-713.53 1633.12,-773.53"/>
<text text-anchor="middle" x="1464.12" y="-750.33" font-family="Arial" font-size="24.00">REMOTE SERVICE EXPLOIT</text>
<text text-anchor="middle" x="1464.12" y="-724.33" font-family="Arial" font-size="24.00">snmp | ID: 52</text>
</a>
</g>
</g>
<!-- ARBITRARY CODE EXECUTION
ssdp | ID: 355&#45;&gt;REMOTE SERVICE EXPLOIT
snmp | ID: 52 -->
<g id="edge21" class="edge">
<title>ARBITRARY CODE EXECUTION
ssdp | ID: 355&#45;&gt;REMOTE SERVICE EXPLOIT
snmp | ID: 52</title>
<path fill="none" stroke="blue" stroke-width="5" d="M1478.24,-600.19C1475.43,-628.51 1471.14,-671.76 1468.03,-703.15"/>
<polygon fill="blue" stroke="blue" stroke-width="5" points="1463.65,-702.92 1467.02,-713.31 1472.36,-703.79 1463.65,-702.92"/>
<text text-anchor="middle" x="1606.62" y="-670.54" font-family="Arial" font-size="20.00" fill="blue">start_next: 04/11/17, 18:05:01</text>
<text text-anchor="middle" x="1606.62" y="-648.54" font-family="Arial" font-size="20.00" fill="blue">gap: 22sec</text>
<text text-anchor="middle" x="1606.62" y="-626.54" font-family="Arial" font-size="20.00" fill="blue">end_prev: 04/11/17, 18:04:38</text>
</g>
<!-- REMOTE SERVICE EXPLOIT
snmp | ID: 52&#45;&gt;INFO DISCOVERY
xdmcp -->
<g id="edge22" class="edge">
<title>REMOTE SERVICE EXPLOIT
snmp | ID: 52&#45;&gt;INFO DISCOVERY
xdmcp</title>
<path fill="none" stroke="blue" stroke-width="5" d="M1444.2,-773.9C1426.32,-799.44 1398.7,-836.89 1371.12,-866.52 1370.37,-867.32 1369.61,-868.13 1368.84,-868.94"/>
<polygon fill="blue" stroke="blue" stroke-width="5" points="1365.59,-866 1361.65,-876.18 1371.8,-872.17 1365.59,-866"/>
<text text-anchor="middle" x="1554.62" y="-850.52" font-family="Arial" font-size="20.00" fill="blue">start_next: 04/11/17, 18:05:03</text>
<text text-anchor="middle" x="1554.62" y="-828.52" font-family="Arial" font-size="20.00" fill="blue">gap: 3sec</text>
<text text-anchor="middle" x="1554.62" y="-806.52" font-family="Arial" font-size="20.00" fill="blue">end_prev: 04/11/17, 18:05:01</text>
</g>
<!-- DATA EXFILTRATION
http | ID: 228&#45;&gt;DATA DELIVERY
http | ID: 21 -->
<g id="edge27" class="edge">
<title>DATA EXFILTRATION
http | ID: 228&#45;&gt;DATA DELIVERY
http | ID: 21</title>
<path fill="none" stroke="blue" stroke-width="5" d="M249.12,-1796.08C249.12,-1818.14 249.12,-1844.48 249.12,-1867.64"/>
<polygon fill="blue" stroke="blue" stroke-width="5" points="244.75,-1867.7 249.12,-1877.7 253.5,-1867.7 244.75,-1867.7"/>
<text text-anchor="middle" x="380.62" y="-1853.91" font-family="Arial" font-size="20.00" fill="blue">start_next: 04/11/17, 18:10:49</text>
<text text-anchor="middle" x="380.62" y="-1831.91" font-family="Arial" font-size="20.00" fill="blue">gap: &#45;398sec</text>
<text text-anchor="middle" x="380.62" y="-1809.91" font-family="Arial" font-size="20.00" fill="blue">end_prev: 04/11/17, 18:17:27</text>
</g>
</g>
</svg>
