<?xml version="1.0" encoding="UTF-8" standalone="no"?>
<!DOCTYPE svg PUBLIC "-//W3C//DTD SVG 1.1//EN"
 "http://www.w3.org/Graphics/SVG/1.1/DTD/svg11.dtd">
<!-- Generated by graphviz version 2.50.0 (0)
 -->
<!-- Title: DATAEXFILTRATIONmicrosoftds Pages: 1 -->
<svg width="1417pt" height="561pt"
 viewBox="0.00 0.00 1417.13 560.62" xmlns="http://www.w3.org/2000/svg" xmlns:xlink="http://www.w3.org/1999/xlink">
<g id="graph0" class="graph" transform="scale(1 1) rotate(0) translate(4 556.62)">
<title>DATAEXFILTRATIONmicrosoftds</title>
<polygon fill="white" stroke="transparent" points="-4,4 -4,-556.62 1413.13,-556.62 1413.13,4 -4,4"/>
<!-- Victim: 10.0.254.21
DATA EXFILTRATION
microsoft&#45;ds -->
<g id="node1" class="node">
<title>Victim: 10.0.254.21
DATA EXFILTRATION
microsoft&#45;ds</title>
<polygon fill="salmon" stroke="black" stroke-width="3" points="766.34,-455.61 766.34,-510 653.75,-548.45 494.51,-548.45 381.92,-510 381.92,-455.61 494.51,-417.15 653.75,-417.15 766.34,-455.61"/>
<polygon fill="none" stroke="black" stroke-width="3" points="770.34,-452.76 770.34,-512.85 654.41,-552.44 493.85,-552.44 377.91,-512.85 377.91,-452.76 493.85,-413.16 654.41,-413.16 770.34,-452.76"/>
<text text-anchor="middle" x="574.13" y="-502.6" font-family="Arial" font-size="24.00">Victim: 10.0.254.21</text>
<text text-anchor="middle" x="574.13" y="-476.6" font-family="Arial" font-size="24.00">DATA EXFILTRATION</text>
<text text-anchor="middle" x="574.13" y="-450.6" font-family="Arial" font-size="24.00">microsoft&#45;ds</text>
</g>
<!-- DATA EXFILTRATION
microsoft&#45;ds | ID: 37 -->
<g id="node2" class="node">
<title>DATA EXFILTRATION
microsoft&#45;ds | ID: 37</title>
<g id="a_node2"><a xlink:title="GPL NETBIOS SMB&#45;DS IPC$ unicode share access">
<polygon fill="salmon" stroke="black" stroke-width="3" points="779.01,-346.99 676.57,-395.97 471.69,-395.97 369.25,-346.99 471.69,-298.01 676.57,-298.01 779.01,-346.99"/>
<text text-anchor="middle" x="574.13" y="-353.79" font-family="Arial" font-size="24.00">DATA EXFILTRATION</text>
<text text-anchor="middle" x="574.13" y="-327.79" font-family="Arial" font-size="24.00">microsoft&#45;ds | ID: 37</text>
</a>
</g>
</g>
<!-- DATA EXFILTRATION
microsoft&#45;ds | ID: 37&#45;&gt;Victim: 10.0.254.21
DATA EXFILTRATION
microsoft&#45;ds -->
<g id="edge1" class="edge">
<title>DATA EXFILTRATION
microsoft&#45;ds | ID: 37&#45;&gt;Victim: 10.0.254.21
DATA EXFILTRATION
microsoft&#45;ds</title>
<path fill="none" stroke="black" stroke-width="5" d="M574.13,-396.3C574.13,-398.4 574.13,-400.54 574.13,-402.69"/>
<polygon fill="black" stroke="black" stroke-width="5" points="569.75,-402.84 574.13,-412.84 578.5,-402.84 569.75,-402.84"/>
</g>
<!-- ARBITRARY CODE EXECUTION
microsoft&#45;ds | ID: &#45;1 -->
<g id="node3" class="node">
<title>ARBITRARY CODE EXECUTION
microsoft&#45;ds | ID: &#45;1</title>
<g id="a_node3"><a xlink:title="GPL NETBIOS SMB&#45;DS Session Setup NTMLSSP unicode asn1 overflow attempt">
<polygon fill="yellow" stroke="black" stroke-width="3" points="621.63,-60 246.63,-60 246.63,0 621.63,0 621.63,-60"/>
<text text-anchor="middle" x="434.13" y="-36.8" font-family="Arial" font-size="24.00">ARBITRARY CODE EXECUTION</text>
<text text-anchor="middle" x="434.13" y="-10.8" font-family="Arial" font-size="24.00">microsoft&#45;ds | ID: &#45;1</text>
</a>
</g>
</g>
<!-- ARBITRARY CODE EXECUTION
microsoft&#45;ds | ID: 309 -->
<g id="node4" class="node">
<title>ARBITRARY CODE EXECUTION
microsoft&#45;ds | ID: 309</title>
<g id="a_node4"><a xlink:title="GPL NETBIOS SMB&#45;DS Session Setup NTMLSSP unicode asn1 overflow attempt">
<polygon fill="none" stroke="black" stroke-width="3" points="761.63,-216 386.63,-216 386.63,-156 761.63,-156 761.63,-216"/>
<text text-anchor="middle" x="574.13" y="-192.8" font-family="Arial" font-size="24.00">ARBITRARY CODE EXECUTION</text>
<text text-anchor="middle" x="574.13" y="-166.8" font-family="Arial" font-size="24.00">microsoft&#45;ds | ID: 309</text>
</a>
</g>
</g>
<!-- ARBITRARY CODE EXECUTION
microsoft&#45;ds | ID: &#45;1&#45;&gt;ARBITRARY CODE EXECUTION
microsoft&#45;ds | ID: 309 -->
<g id="edge2" class="edge">
<title>ARBITRARY CODE EXECUTION
microsoft&#45;ds | ID: &#45;1&#45;&gt;ARBITRARY CODE EXECUTION
microsoft&#45;ds | ID: 309</title>
<path fill="none" stroke="tomato" stroke-width="5" d="M246.37,-36.25C143.75,-41.11 34.24,-50.4 18.13,-68 -5.87,-94.23 -6.16,-122.04 18.13,-148 42.72,-174.28 226.64,-182.51 376.32,-184.79"/>
<polygon fill="tomato" stroke="tomato" stroke-width="5" points="376.52,-189.17 386.58,-184.94 376.65,-180.42 376.52,-189.17"/>
<text text-anchor="start" x="18.13" y="-133" font-family="Arial" font-size="20.00" fill="tomato"> start_next: 04/11/17, 17:01:42</text>
<text text-anchor="start" x="91.63" y="-113" font-family="Arial" font-size="20.00" fill="tomato">gap: 3657sec</text>
<text text-anchor="start" x="22.13" y="-93" font-family="Arial" font-size="20.00" fill="tomato">end_prev: 04/11/17, 16:00:45</text>
<text text-anchor="start" x="52.63" y="-73" font-family="Arial" font-weight="bold" font-size="20.00" fill="tomato">Attacker: 10.0.254.31</text>
</g>
<!-- ARBITRARY CODE EXECUTION
microsoft&#45;ds | ID: &#45;1&#45;&gt;ARBITRARY CODE EXECUTION
microsoft&#45;ds | ID: 309 -->
<g id="edge4" class="edge">
<title>ARBITRARY CODE EXECUTION
microsoft&#45;ds | ID: &#45;1&#45;&gt;ARBITRARY CODE EXECUTION
microsoft&#45;ds | ID: 309</title>
<path fill="none" stroke="tomato" stroke-width="5" d="M308.05,-60.03C303.69,-62.53 300.28,-65.18 298.13,-68 287.33,-82.12 286.42,-134.62 298.13,-148 310.42,-162.05 340.42,-170.99 376.32,-176.63"/>
<polygon fill="tomato" stroke="tomato" stroke-width="5" points="376.07,-181.01 386.6,-178.13 377.34,-172.35 376.07,-181.01"/>
<text text-anchor="start" x="298.13" y="-133" font-family="Arial" font-size="20.00" fill="tomato"> start_next: 04/11/17, 18:10:42</text>
<text text-anchor="start" x="377.63" y="-113" font-family="Arial" font-size="20.00" fill="tomato">gap: 846sec</text>
<text text-anchor="start" x="302.13" y="-93" font-family="Arial" font-size="20.00" fill="tomato">end_prev: 04/11/17, 17:56:36</text>
<text text-anchor="start" x="332.63" y="-73" font-family="Arial" font-weight="bold" font-size="20.00" fill="tomato">Attacker: 10.0.254.31</text>
</g>
<!-- ARBITRARY CODE EXECUTION
microsoft&#45;ds | ID: &#45;1&#45;&gt;ARBITRARY CODE EXECUTION
microsoft&#45;ds | ID: 309 -->
<g id="edge6" class="edge">
<title>ARBITRARY CODE EXECUTION
microsoft&#45;ds | ID: &#45;1&#45;&gt;ARBITRARY CODE EXECUTION
microsoft&#45;ds | ID: 309</title>
<path fill="none" stroke="tomato" stroke-width="5" d="M555.4,-60.02C558.16,-62.48 560.75,-65.13 563.13,-68 572.67,-79.5 574.89,-116.16 575.05,-145.41"/>
<polygon fill="tomato" stroke="tomato" stroke-width="5" points="570.67,-145.78 575.02,-155.79 579.42,-145.8 570.67,-145.78"/>
<text text-anchor="start" x="575.13" y="-133" font-family="Arial" font-size="20.00" fill="tomato"> start_next: 04/11/17, 19:08:19</text>
<text text-anchor="start" x="648.63" y="-113" font-family="Arial" font-size="20.00" fill="tomato">gap: 2887sec</text>
<text text-anchor="start" x="579.63" y="-93" font-family="Arial" font-size="20.00" fill="tomato">end_prev: 04/11/17, 18:20:11</text>
<text text-anchor="start" x="609.63" y="-73" font-family="Arial" font-weight="bold" font-size="20.00" fill="tomato">Attacker: 10.0.254.31</text>
</g>
<!-- ARBITRARY CODE EXECUTION
microsoft&#45;ds | ID: &#45;1&#45;&gt;ARBITRARY CODE EXECUTION
microsoft&#45;ds | ID: 309 -->
<g id="edge8" class="edge">
<title>ARBITRARY CODE EXECUTION
microsoft&#45;ds | ID: &#45;1&#45;&gt;ARBITRARY CODE EXECUTION
microsoft&#45;ds | ID: 309</title>
<path fill="none" stroke="tomato" stroke-width="5" d="M621.9,-36.61C721.87,-41.58 827.47,-50.86 843.13,-68 855.12,-81.12 854.81,-134.6 843.13,-148 831.71,-161.1 804.56,-169.72 771.68,-175.36"/>
<polygon fill="tomato" stroke="tomato" stroke-width="5" points="770.97,-171.04 761.79,-176.94 772.36,-179.68 770.97,-171.04"/>
<text text-anchor="start" x="851.13" y="-133" font-family="Arial" font-size="20.00" fill="tomato"> start_next: 04/11/17, 21:12:29</text>
<text text-anchor="start" x="924.63" y="-113" font-family="Arial" font-size="20.00" fill="tomato">gap: 1628sec</text>
<text text-anchor="start" x="855.13" y="-93" font-family="Arial" font-size="20.00" fill="tomato">end_prev: 04/11/17, 20:45:21</text>
<text text-anchor="start" x="885.63" y="-73" font-family="Arial" font-weight="bold" font-size="20.00" fill="tomato">Attacker: 10.0.254.31</text>
</g>
<!-- ARBITRARY CODE EXECUTION
microsoft&#45;ds | ID: 309&#45;&gt;DATA EXFILTRATION
microsoft&#45;ds | ID: 37 -->
<g id="edge3" class="edge">
<title>ARBITRARY CODE EXECUTION
microsoft&#45;ds | ID: 309&#45;&gt;DATA EXFILTRATION
microsoft&#45;ds | ID: 37</title>
<path fill="none" stroke="tomato" stroke-width="5" d="M386.28,-187.34C238.18,-189.63 52.62,-197.8 28.13,-224 8.1,-245.43 8.47,-268.23 28.13,-290 51.69,-316.1 229.61,-330.72 376.04,-338.42"/>
<polygon fill="tomato" stroke="tomato" stroke-width="5" points="375.87,-342.79 386.08,-338.94 376.32,-334.05 375.87,-342.79"/>
<text text-anchor="middle" x="159.63" y="-274" font-family="Arial" font-size="20.00" fill="tomato">start_next: 04/11/17, 17:03:44</text>
<text text-anchor="middle" x="159.63" y="-252" font-family="Arial" font-size="20.00" fill="tomato">gap: 122sec</text>
<text text-anchor="middle" x="159.63" y="-230" font-family="Arial" font-size="20.00" fill="tomato">end_prev: 04/11/17, 17:01:42</text>
</g>
<!-- ARBITRARY CODE EXECUTION
microsoft&#45;ds | ID: 309&#45;&gt;DATA EXFILTRATION
microsoft&#45;ds | ID: 37 -->
<g id="edge5" class="edge">
<title>ARBITRARY CODE EXECUTION
microsoft&#45;ds | ID: 309&#45;&gt;DATA EXFILTRATION
microsoft&#45;ds | ID: 37</title>
<path fill="none" stroke="tomato" stroke-width="5" d="M386.47,-194.71C348.34,-200.26 315.93,-209.33 303.13,-224 283.84,-246.1 284.6,-267.26 303.13,-290 316.75,-306.72 354.13,-318.59 396.94,-326.97"/>
<polygon fill="tomato" stroke="tomato" stroke-width="5" points="396.4,-331.32 407.03,-328.87 398.01,-322.72 396.4,-331.32"/>
<text text-anchor="middle" x="434.63" y="-274" font-family="Arial" font-size="20.00" fill="tomato">start_next: 04/11/17, 18:10:42</text>
<text text-anchor="middle" x="434.63" y="-252" font-family="Arial" font-size="20.00" fill="tomato">gap: &#45;34sec</text>
<text text-anchor="middle" x="434.63" y="-230" font-family="Arial" font-size="20.00" fill="tomato">end_prev: 04/11/17, 18:11:15</text>
</g>
<!-- ARBITRARY CODE EXECUTION
microsoft&#45;ds | ID: 309&#45;&gt;DATA EXFILTRATION
microsoft&#45;ds | ID: 37 -->
<g id="edge7" class="edge">
<title>ARBITRARY CODE EXECUTION
microsoft&#45;ds | ID: 309&#45;&gt;DATA EXFILTRATION
microsoft&#45;ds | ID: 37</title>
<path fill="none" stroke="tomato" stroke-width="5" d="M574.13,-216.16C574.13,-236.16 574.13,-263.39 574.13,-287.74"/>
<polygon fill="tomato" stroke="tomato" stroke-width="5" points="569.75,-287.97 574.13,-297.97 578.5,-287.97 569.75,-287.97"/>
<text text-anchor="middle" x="705.63" y="-274" font-family="Arial" font-size="20.00" fill="tomato">start_next: 04/11/17, 19:08:19</text>
<text text-anchor="middle" x="705.63" y="-252" font-family="Arial" font-size="20.00" fill="tomato">gap: 0sec</text>
<text text-anchor="middle" x="705.63" y="-230" font-family="Arial" font-size="20.00" fill="tomato">end_prev: 04/11/17, 19:08:19</text>
</g>
<!-- ARBITRARY CODE EXECUTION
microsoft&#45;ds | ID: 309&#45;&gt;DATA EXFILTRATION
microsoft&#45;ds | ID: 37 -->
<g id="edge9" class="edge">
<title>ARBITRARY CODE EXECUTION
microsoft&#45;ds | ID: 309&#45;&gt;DATA EXFILTRATION
microsoft&#45;ds | ID: 37</title>
<path fill="none" stroke="tomato" stroke-width="5" d="M761.69,-195.93C796.78,-201.51 826.21,-210.29 838.13,-224 857.38,-246.13 856.59,-267.21 838.13,-290 825.16,-306.01 789.94,-317.63 749.29,-325.98"/>
<polygon fill="tomato" stroke="tomato" stroke-width="5" points="748.39,-321.7 739.42,-327.93 750.08,-330.28 748.39,-321.7"/>
<text text-anchor="middle" x="983.63" y="-274" font-family="Arial" font-size="20.00" fill="tomato">start_next: 04/11/17, 21:12:29</text>
<text text-anchor="middle" x="983.63" y="-252" font-family="Arial" font-size="20.00" fill="tomato">gap: 0sec</text>
<text text-anchor="middle" x="983.63" y="-230" font-family="Arial" font-size="20.00" fill="tomato">end_prev: 04/11/17, 21:12:29</text>
</g>
<!-- ARBITRARY CODE EXECUTION
microsoft&#45;ds | ID: 309&#45;&gt;DATA EXFILTRATION
microsoft&#45;ds | ID: 37 -->
<g id="edge11" class="edge">
<title>ARBITRARY CODE EXECUTION
microsoft&#45;ds | ID: 309&#45;&gt;DATA EXFILTRATION
microsoft&#45;ds | ID: 37</title>
<path fill="none" stroke="tomato" stroke-width="5" d="M761.76,-187.54C907.6,-189.98 1089.08,-198.25 1113.13,-224 1133.15,-245.44 1132.77,-268.21 1113.13,-290 1090.02,-315.63 916.33,-330.28 772.27,-338.11"/>
<polygon fill="tomato" stroke="tomato" stroke-width="5" points="771.71,-333.75 761.95,-338.66 772.17,-342.49 771.71,-333.75"/>
<text text-anchor="middle" x="1258.63" y="-274" font-family="Arial" font-size="20.00" fill="tomato">start_next: 04/11/17, 22:27:22</text>
<text text-anchor="middle" x="1258.63" y="-252" font-family="Arial" font-size="20.00" fill="tomato">gap: 0sec</text>
<text text-anchor="middle" x="1258.63" y="-230" font-family="Arial" font-size="20.00" fill="tomato">end_prev: 04/11/17, 22:27:22</text>
</g>
<!-- COMMAND AND CONTROL
appiq&#45;mgmt | ID: &#45;1 -->
<g id="node5" class="node">
<title>COMMAND AND CONTROL
appiq&#45;mgmt | ID: &#45;1</title>
<g id="a_node5"><a xlink:title="ET POLICY Executable and linking format (ELF) file download">
<polygon fill="yellow" stroke="black" stroke-width="3" points="1295.63,-60 972.63,-60 972.63,0 1295.63,0 1295.63,-60"/>
<text text-anchor="middle" x="1134.13" y="-36.8" font-family="Arial" font-size="24.00">COMMAND AND CONTROL</text>
<text text-anchor="middle" x="1134.13" y="-10.8" font-family="Arial" font-size="24.00">appiq&#45;mgmt | ID: &#45;1</text>
</a>
</g>
</g>
<!-- COMMAND AND CONTROL
appiq&#45;mgmt | ID: &#45;1&#45;&gt;ARBITRARY CODE EXECUTION
microsoft&#45;ds | ID: 309 -->
<g id="edge10" class="edge">
<title>COMMAND AND CONTROL
appiq&#45;mgmt | ID: &#45;1&#45;&gt;ARBITRARY CODE EXECUTION
microsoft&#45;ds | ID: 309</title>
<path fill="none" stroke="tomato" stroke-width="5" d="M1139.91,-60.04C1143.41,-86.89 1143.42,-125.88 1120.13,-148 1094.78,-172.08 918.02,-180.7 772.38,-183.68"/>
<polygon fill="tomato" stroke="tomato" stroke-width="5" points="771.86,-179.31 761.95,-183.88 772.03,-188.06 771.86,-179.31"/>
<text text-anchor="start" x="1141.13" y="-133" font-family="Arial" font-size="20.00" fill="tomato"> start_next: 04/11/17, 22:15:16</text>
<text text-anchor="start" x="1220.63" y="-113" font-family="Arial" font-size="20.00" fill="tomato">gap: 454sec</text>
<text text-anchor="start" x="1145.13" y="-93" font-family="Arial" font-size="20.00" fill="tomato">end_prev: 04/11/17, 22:07:42</text>
<text text-anchor="start" x="1175.63" y="-73" font-family="Arial" font-weight="bold" font-size="20.00" fill="tomato">Attacker: 10.0.254.31</text>
</g>
</g>
</svg>
