<?xml version="1.0" encoding="UTF-8" standalone="no"?>
<!DOCTYPE svg PUBLIC "-//W3C//DTD SVG 1.1//EN"
 "http://www.w3.org/Graphics/SVG/1.1/DTD/svg11.dtd">
<!-- Generated by graphviz version 2.50.0 (0)
 -->
<!-- Title: DATADELIVERYdistinct Pages: 1 -->
<svg width="1398pt" height="1124pt"
 viewBox="0.00 0.00 1397.94 1124.01" xmlns="http://www.w3.org/2000/svg" xmlns:xlink="http://www.w3.org/1999/xlink">
<g id="graph0" class="graph" transform="scale(1 1) rotate(0) translate(4 1120.01)">
<title>DATADELIVERYdistinct</title>
<polygon fill="white" stroke="transparent" points="-4,4 -4,-1120.01 1393.94,-1120.01 1393.94,4 -4,4"/>
<!-- Victim: 10.0.0.162
DATA DELIVERY
distinct -->
<g id="node1" class="node">
<title>Victim: 10.0.0.162
DATA DELIVERY
distinct</title>
<polygon fill="salmon" stroke="black" stroke-width="3" points="539.89,-1019 539.89,-1073.39 445.61,-1111.85 312.27,-1111.85 217.99,-1073.39 217.99,-1019 312.27,-980.54 445.61,-980.54 539.89,-1019"/>
<polygon fill="none" stroke="black" stroke-width="3" points="543.9,-1016.32 543.9,-1076.06 446.4,-1115.84 311.49,-1115.84 213.99,-1076.06 213.99,-1016.32 311.49,-976.55 446.4,-976.55 543.9,-1016.32"/>
<text text-anchor="middle" x="378.94" y="-1065.99" font-family="Arial" font-size="24.00">Victim: 10.0.0.162</text>
<text text-anchor="middle" x="378.94" y="-1039.99" font-family="Arial" font-size="24.00">DATA DELIVERY</text>
<text text-anchor="middle" x="378.94" y="-1013.99" font-family="Arial" font-size="24.00">distinct</text>
</g>
<!-- DATA DELIVERY
distinct | ID: 70 -->
<g id="node2" class="node">
<title>DATA DELIVERY
distinct | ID: 70</title>
<g id="a_node2"><a xlink:title="ET WEB_SERVER PHP Possible php Remote File Inclusion Attempt&#10;ET WEB_SERVER PHP tags in HTTP POST">
<polygon fill="salmon" stroke="black" stroke-width="3" points="376.04,-910.38 294.49,-959.36 131.39,-959.36 49.84,-910.38 131.39,-861.4 294.49,-861.4 376.04,-910.38"/>
<text text-anchor="middle" x="212.94" y="-917.18" font-family="Arial" font-size="24.00">DATA DELIVERY</text>
<text text-anchor="middle" x="212.94" y="-891.18" font-family="Arial" font-size="24.00">distinct | ID: 70</text>
</a>
</g>
</g>
<!-- DATA DELIVERY
distinct | ID: 70&#45;&gt;Victim: 10.0.0.162
DATA DELIVERY
distinct -->
<g id="edge1" class="edge">
<title>DATA DELIVERY
distinct | ID: 70&#45;&gt;Victim: 10.0.0.162
DATA DELIVERY
distinct</title>
<path fill="none" stroke="black" stroke-width="5" d="M272.87,-959.69C278.94,-964.58 285.19,-969.62 291.48,-974.69"/>
<polygon fill="black" stroke="black" stroke-width="5" points="288.92,-978.25 299.45,-981.12 294.41,-971.43 288.92,-978.25"/>
</g>
<!-- DATA DELIVERY
distinct | ID: 410 -->
<g id="node3" class="node">
<title>DATA DELIVERY
distinct | ID: 410</title>
<g id="a_node3"><a xlink:title="ET WEB_SERVER PHP Possible php Remote File Inclusion Attempt&#10;ET WEB_SERVER PHP tags in HTTP POST&#10;GPL WEB_SERVER perl post attempt">
<polygon fill="none" stroke="black" stroke-width="3" stroke-dasharray="1,5" points="711.04,-910.38 629.49,-959.36 466.39,-959.36 384.84,-910.38 466.39,-861.4 629.49,-861.4 711.04,-910.38"/>
<text text-anchor="middle" x="547.94" y="-917.18" font-family="Arial" font-size="24.00">DATA DELIVERY</text>
<text text-anchor="middle" x="547.94" y="-891.18" font-family="Arial" font-size="24.00">distinct | ID: 410</text>
</a>
</g>
</g>
<!-- DATA DELIVERY
distinct | ID: 410&#45;&gt;Victim: 10.0.0.162
DATA DELIVERY
distinct -->
<g id="edge2" class="edge">
<title>DATA DELIVERY
distinct | ID: 410&#45;&gt;Victim: 10.0.0.162
DATA DELIVERY
distinct</title>
<path fill="none" stroke="black" stroke-width="5" d="M486.93,-959.69C480.47,-964.8 473.82,-970.07 467.13,-975.36"/>
<polygon fill="black" stroke="black" stroke-width="5" points="464.4,-971.94 459.28,-981.58 469.84,-978.8 464.4,-971.94"/>
</g>
<!-- VULNERABILTY DISCOVERY
ms&#45;sql&#45;s -->
<g id="node4" class="node">
<title>VULNERABILTY DISCOVERY
ms&#45;sql&#45;s</title>
<g id="a_node4"><a xlink:title="ET POLICY Suspicious inbound to MSSQL port 1433&#10;ET POLICY Suspicious inbound to mSQL port 4333&#10;ET POLICY Suspicious inbound to Oracle SQL port 1521&#10;ET POLICY Suspicious inbound to PostgreSQL port 5432">
<ellipse fill="yellow" stroke="black" stroke-width="3" cx="849.94" cy="-42.43" rx="241.25" ry="42.35"/>
<text text-anchor="middle" x="849.94" y="-49.23" font-family="Arial" font-size="24.00">VULNERABILTY DISCOVERY</text>
<text text-anchor="middle" x="849.94" y="-23.23" font-family="Arial" font-size="24.00">ms&#45;sql&#45;s</text>
</a>
</g>
</g>
<!-- SERVICE DISCOVERY
unknown -->
<g id="node5" class="node">
<title>SERVICE DISCOVERY
unknown</title>
<g id="a_node5"><a xlink:title="ET SCAN Potential VNC Scan 5800&#45;5820">
<ellipse fill="none" stroke="black" stroke-width="3" cx="849.94" cy="-223.28" rx="189.51" ry="42.35"/>
<text text-anchor="middle" x="849.94" y="-230.08" font-family="Arial" font-size="24.00">SERVICE DISCOVERY</text>
<text text-anchor="middle" x="849.94" y="-204.08" font-family="Arial" font-size="24.00">unknown</text>
</a>
</g>
</g>
<!-- VULNERABILTY DISCOVERY
ms&#45;sql&#45;s&#45;&gt;SERVICE DISCOVERY
unknown -->
<g id="edge3" class="edge">
<title>VULNERABILTY DISCOVERY
ms&#45;sql&#45;s&#45;&gt;SERVICE DISCOVERY
unknown</title>
<path fill="none" stroke="blue" stroke-width="5" d="M849.94,-84.91C849.94,-110.44 849.94,-143.37 849.94,-170.59"/>
<polygon fill="blue" stroke="blue" stroke-width="5" points="845.57,-170.71 849.94,-180.71 854.32,-170.71 845.57,-170.71"/>
<text text-anchor="start" x="849.94" y="-157.85" font-family="Arial" font-size="20.00" fill="blue"> start_next: 04/11/17, 12:59:22</text>
<text text-anchor="start" x="925.94" y="-137.85" font-family="Arial" font-size="20.00" fill="blue">gap: &#45;366sec</text>
<text text-anchor="start" x="853.94" y="-117.85" font-family="Arial" font-size="20.00" fill="blue">end_prev: 04/11/17, 13:05:28</text>
<text text-anchor="start" x="884.44" y="-97.85" font-family="Arial" font-weight="bold" font-size="20.00" fill="blue">Attacker: 10.0.254.31</text>
</g>
<!-- ARBITRARY CODE EXECUTION
ssdp | ID: 355 -->
<g id="node9" class="node">
<title>ARBITRARY CODE EXECUTION
ssdp | ID: 355</title>
<g id="a_node9"><a xlink:title="GPL MISC UPnP malformed advertisement">
<polygon fill="none" stroke="black" stroke-width="3" points="512.44,-253.28 137.44,-253.28 137.44,-193.28 512.44,-193.28 512.44,-253.28"/>
<text text-anchor="middle" x="324.94" y="-230.08" font-family="Arial" font-size="24.00">ARBITRARY CODE EXECUTION</text>
<text text-anchor="middle" x="324.94" y="-204.08" font-family="Arial" font-size="24.00">ssdp | ID: 355</text>
</a>
</g>
</g>
<!-- VULNERABILTY DISCOVERY
ms&#45;sql&#45;s&#45;&gt;ARBITRARY CODE EXECUTION
ssdp | ID: 355 -->
<g id="edge8" class="edge">
<title>VULNERABILTY DISCOVERY
ms&#45;sql&#45;s&#45;&gt;ARBITRARY CODE EXECUTION
ssdp | ID: 355</title>
<path fill="none" stroke="blue" stroke-width="5" d="M651.77,-66.65C622.24,-73.41 597.74,-82 585.94,-92.85 558.8,-117.82 590.84,-147.63 563.94,-172.85 555.78,-180.51 540.8,-187.11 522.18,-192.76"/>
<polygon fill="blue" stroke="blue" stroke-width="5" points="520.86,-188.59 512.45,-195.55 523.27,-197 520.86,-188.59"/>
<text text-anchor="middle" x="717.44" y="-149.85" font-family="Arial" font-size="20.00" fill="blue">start_next: 04/11/17, 14:02:54</text>
<text text-anchor="middle" x="717.44" y="-127.85" font-family="Arial" font-size="20.00" fill="blue">gap: 103sec</text>
<text text-anchor="middle" x="717.44" y="-105.85" font-family="Arial" font-size="20.00" fill="blue">end_prev: 04/11/17, 14:01:11</text>
</g>
<!-- BRUTE FORCE CREDENTIALS
pop3 | ID: 363 -->
<g id="node6" class="node">
<title>BRUTE FORCE CREDENTIALS
pop3 | ID: 363</title>
<g id="a_node6"><a xlink:title="ET SCAN Rapid POP3 Connections &#45; Possible Brute Force Attack">
<polygon fill="none" stroke="black" stroke-width="3" points="1031.94,-410.71 669.94,-410.71 669.94,-350.71 1031.94,-350.71 1031.94,-410.71"/>
<text text-anchor="middle" x="850.94" y="-387.51" font-family="Arial" font-size="24.00">BRUTE FORCE CREDENTIALS</text>
<text text-anchor="middle" x="850.94" y="-361.51" font-family="Arial" font-size="24.00">pop3 | ID: 363</text>
</a>
</g>
</g>
<!-- SERVICE DISCOVERY
unknown&#45;&gt;BRUTE FORCE CREDENTIALS
pop3 | ID: 363 -->
<g id="edge4" class="edge">
<title>SERVICE DISCOVERY
unknown&#45;&gt;BRUTE FORCE CREDENTIALS
pop3 | ID: 363</title>
<path fill="none" stroke="blue" stroke-width="5" d="M850.21,-265.93C850.36,-288.91 850.54,-317.29 850.68,-339.96"/>
<polygon fill="blue" stroke="blue" stroke-width="5" points="846.31,-340.28 850.75,-350.25 855.06,-340.23 846.31,-340.28"/>
<text text-anchor="middle" x="982.44" y="-323.71" font-family="Arial" font-size="20.00" fill="blue">start_next: 04/11/17, 13:01:54</text>
<text text-anchor="middle" x="982.44" y="-301.71" font-family="Arial" font-size="20.00" fill="blue">gap: 152sec</text>
<text text-anchor="middle" x="982.44" y="-279.71" font-family="Arial" font-size="20.00" fill="blue">end_prev: 04/11/17, 12:59:22</text>
</g>
<!-- ACCOUNT MANIPULATION
snmp | ID: 53 -->
<g id="node7" class="node">
<title>ACCOUNT MANIPULATION
snmp | ID: 53</title>
<g id="a_node7"><a xlink:title="GPL SNMP private access udp&#10;GPL SNMP public access udp">
<polygon fill="none" stroke="black" stroke-width="3" points="1011.94,-568.13 691.94,-568.13 691.94,-508.13 1011.94,-508.13 1011.94,-568.13"/>
<text text-anchor="middle" x="851.94" y="-544.93" font-family="Arial" font-size="24.00">ACCOUNT MANIPULATION</text>
<text text-anchor="middle" x="851.94" y="-518.93" font-family="Arial" font-size="24.00">snmp | ID: 53</text>
</a>
</g>
</g>
<!-- BRUTE FORCE CREDENTIALS
pop3 | ID: 363&#45;&gt;ACCOUNT MANIPULATION
snmp | ID: 53 -->
<g id="edge5" class="edge">
<title>BRUTE FORCE CREDENTIALS
pop3 | ID: 363&#45;&gt;ACCOUNT MANIPULATION
snmp | ID: 53</title>
<path fill="none" stroke="blue" stroke-width="5" d="M851.13,-410.94C851.29,-435.47 851.51,-470.73 851.69,-497.75"/>
<polygon fill="blue" stroke="blue" stroke-width="5" points="847.31,-498.06 851.75,-508.03 856.06,-498 847.31,-498.06"/>
<text text-anchor="middle" x="983.44" y="-471.71" font-family="Arial" font-size="20.00" fill="blue">start_next: 04/11/17, 13:59:55</text>
<text text-anchor="middle" x="983.44" y="-449.71" font-family="Arial" font-size="20.00" fill="blue">gap: 3481sec</text>
<text text-anchor="middle" x="983.44" y="-427.71" font-family="Arial" font-size="20.00" fill="blue">end_prev: 04/11/17, 13:01:54</text>
</g>
<!-- SERVICE DISCOVERY
ssh -->
<g id="node8" class="node">
<title>SERVICE DISCOVERY
ssh</title>
<g id="a_node8"><a xlink:title="ET SCAN Potential SSH Scan">
<ellipse fill="none" stroke="black" stroke-width="3" cx="1049.94" cy="-730.4" rx="189.51" ry="42.35"/>
<text text-anchor="middle" x="1049.94" y="-737.2" font-family="Arial" font-size="24.00">SERVICE DISCOVERY</text>
<text text-anchor="middle" x="1049.94" y="-711.2" font-family="Arial" font-size="24.00">ssh</text>
</a>
</g>
</g>
<!-- ACCOUNT MANIPULATION
snmp | ID: 53&#45;&gt;SERVICE DISCOVERY
ssh -->
<g id="edge6" class="edge">
<title>ACCOUNT MANIPULATION
snmp | ID: 53&#45;&gt;SERVICE DISCOVERY
ssh</title>
<path fill="none" stroke="blue" stroke-width="5" d="M844.59,-568.15C838.92,-597.85 835.49,-643.74 858.94,-673.41 866.14,-682.52 882.72,-690.71 903.27,-697.83"/>
<polygon fill="blue" stroke="blue" stroke-width="5" points="902.1,-702.05 912.97,-701.02 904.84,-693.74 902.1,-702.05"/>
<text text-anchor="middle" x="990.44" y="-647.98" font-family="Arial" font-size="20.00" fill="blue">start_next: 04/11/17, 14:00:17</text>
<text text-anchor="middle" x="990.44" y="-625.98" font-family="Arial" font-size="20.00" fill="blue">gap: &#45;285sec</text>
<text text-anchor="middle" x="990.44" y="-603.98" font-family="Arial" font-size="20.00" fill="blue">end_prev: 04/11/17, 14:05:03</text>
</g>
<!-- SERVICE DISCOVERY
ssh&#45;&gt;VULNERABILTY DISCOVERY
ms&#45;sql&#45;s -->
<g id="edge7" class="edge">
<title>SERVICE DISCOVERY
ssh&#45;&gt;VULNERABILTY DISCOVERY
ms&#45;sql&#45;s</title>
<path fill="none" stroke="blue" stroke-width="5" d="M1107.46,-689.88C1111.95,-684.81 1115.91,-679.31 1118.94,-673.41 1146.25,-620.23 1126.94,-598.92 1126.94,-539.13 1126.94,-222.28 1126.94,-222.28 1126.94,-222.28 1126.94,-164.65 1157.18,-135.98 1118.94,-92.85 1109.48,-82.18 1089.64,-73.8 1064.82,-67.21"/>
<polygon fill="blue" stroke="blue" stroke-width="5" points="1065.84,-62.96 1055.08,-64.78 1063.72,-71.45 1065.84,-62.96"/>
<text text-anchor="middle" x="1258.44" y="-397.71" font-family="Arial" font-size="20.00" fill="blue">start_next: 04/11/17, 14:01:07</text>
<text text-anchor="middle" x="1258.44" y="-375.71" font-family="Arial" font-size="20.00" fill="blue">gap: 49sec</text>
<text text-anchor="middle" x="1258.44" y="-353.71" font-family="Arial" font-size="20.00" fill="blue">end_prev: 04/11/17, 14:00:17</text>
</g>
<!-- REMOTE SERVICE EXPLOIT
snmp | ID: 52 -->
<g id="node10" class="node">
<title>REMOTE SERVICE EXPLOIT
snmp | ID: 52</title>
<g id="a_node10"><a xlink:title="ET SNMP Samsung Printer SNMP Hardcode RW Community String">
<polygon fill="none" stroke="black" stroke-width="3" points="454.94,-410.71 116.94,-410.71 116.94,-350.71 454.94,-350.71 454.94,-410.71"/>
<text text-anchor="middle" x="285.94" y="-387.51" font-family="Arial" font-size="24.00">REMOTE SERVICE EXPLOIT</text>
<text text-anchor="middle" x="285.94" y="-361.51" font-family="Arial" font-size="24.00">snmp | ID: 52</text>
</a>
</g>
</g>
<!-- ARBITRARY CODE EXECUTION
ssdp | ID: 355&#45;&gt;REMOTE SERVICE EXPLOIT
snmp | ID: 52 -->
<g id="edge9" class="edge">
<title>ARBITRARY CODE EXECUTION
ssdp | ID: 355&#45;&gt;REMOTE SERVICE EXPLOIT
snmp | ID: 52</title>
<path fill="none" stroke="blue" stroke-width="5" d="M263.29,-253.45C256.36,-259.2 250.25,-265.92 245.94,-273.71 231.73,-299.37 234.72,-312.61 245.94,-339.71 246.24,-340.42 246.55,-341.13 246.89,-341.83"/>
<polygon fill="blue" stroke="blue" stroke-width="5" points="243.23,-344.24 252.13,-350.57 250.74,-339.74 243.23,-344.24"/>
<text text-anchor="middle" x="377.44" y="-323.71" font-family="Arial" font-size="20.00" fill="blue">start_next: 04/11/17, 14:03:24</text>
<text text-anchor="middle" x="377.44" y="-301.71" font-family="Arial" font-size="20.00" fill="blue">gap: 19sec</text>
<text text-anchor="middle" x="377.44" y="-279.71" font-family="Arial" font-size="20.00" fill="blue">end_prev: 04/11/17, 14:03:05</text>
</g>
<!-- ARBITRARY CODE EXECUTION
ssdp | ID: 355&#45;&gt;REMOTE SERVICE EXPLOIT
snmp | ID: 52 -->
<g id="edge14" class="edge">
<title>ARBITRARY CODE EXECUTION
ssdp | ID: 355&#45;&gt;REMOTE SERVICE EXPLOIT
snmp | ID: 52</title>
<path fill="none" stroke="blue" stroke-width="5" d="M470.76,-253.32C487.13,-259.21 500.06,-266 505.94,-273.71 523.74,-297.02 524.74,-317.18 505.94,-339.71 498.81,-348.25 483.85,-354.97 464.91,-360.26"/>
<polygon fill="blue" stroke="blue" stroke-width="5" points="463.58,-356.08 454.99,-362.82 465.77,-364.55 463.58,-356.08"/>
<text text-anchor="middle" x="651.44" y="-323.71" font-family="Arial" font-size="20.00" fill="blue">start_next: 04/11/17, 16:31:55</text>
<text text-anchor="middle" x="651.44" y="-301.71" font-family="Arial" font-size="20.00" fill="blue">gap: 17sec</text>
<text text-anchor="middle" x="651.44" y="-279.71" font-family="Arial" font-size="20.00" fill="blue">end_prev: 04/11/17, 16:31:38</text>
</g>
<!-- INFO DISCOVERY
xdmcp -->
<g id="node11" class="node">
<title>INFO DISCOVERY
xdmcp</title>
<g id="a_node11"><a xlink:title="GPL WEB_SERVER mod_gzip_status access&#10;GPL RPC xdmcp info query">
<ellipse fill="none" stroke="black" stroke-width="3" cx="223.94" cy="-538.13" rx="156.04" ry="42.35"/>
<text text-anchor="middle" x="223.94" y="-544.93" font-family="Arial" font-size="24.00">INFO DISCOVERY</text>
<text text-anchor="middle" x="223.94" y="-518.93" font-family="Arial" font-size="24.00">xdmcp</text>
</a>
</g>
</g>
<!-- REMOTE SERVICE EXPLOIT
snmp | ID: 52&#45;&gt;INFO DISCOVERY
xdmcp -->
<g id="edge10" class="edge">
<title>REMOTE SERVICE EXPLOIT
snmp | ID: 52&#45;&gt;INFO DISCOVERY
xdmcp</title>
<path fill="none" stroke="blue" stroke-width="5" d="M274.28,-410.94C265.82,-432.15 254.16,-461.38 244.19,-486.37"/>
<polygon fill="blue" stroke="blue" stroke-width="5" points="240.11,-484.8 240.46,-495.71 248.23,-488.04 240.11,-484.8"/>
<text text-anchor="middle" x="401.44" y="-471.71" font-family="Arial" font-size="20.00" fill="blue">start_next: 04/11/17, 14:03:24</text>
<text text-anchor="middle" x="401.44" y="-449.71" font-family="Arial" font-size="20.00" fill="blue">gap: 0sec</text>
<text text-anchor="middle" x="401.44" y="-427.71" font-family="Arial" font-size="20.00" fill="blue">end_prev: 04/11/17, 14:03:24</text>
</g>
<!-- SURFING
distinct -->
<g id="node14" class="node">
<title>SURFING
distinct</title>
<g id="a_node14"><a xlink:title="ET WEB_SERVER WEB&#45;PHP phpinfo access">
<ellipse fill="none" stroke="black" stroke-width="3" cx="559.94" cy="-630.98" rx="88.28" ry="42.35"/>
<text text-anchor="middle" x="559.94" y="-637.78" font-family="Arial" font-size="24.00">SURFING</text>
<text text-anchor="middle" x="559.94" y="-611.78" font-family="Arial" font-size="24.00">distinct</text>
</a>
</g>
</g>
<!-- REMOTE SERVICE EXPLOIT
snmp | ID: 52&#45;&gt;SURFING
distinct -->
<g id="edge15" class="edge">
<title>REMOTE SERVICE EXPLOIT
snmp | ID: 52&#45;&gt;SURFING
distinct</title>
<path fill="none" stroke="blue" stroke-width="5" d="M455.1,-393.92C490.7,-399.84 521.34,-408.64 533.94,-421.71 573.54,-462.75 574.44,-531.46 569.16,-578.66"/>
<polygon fill="blue" stroke="blue" stroke-width="5" points="564.8,-578.22 567.91,-588.69 573.48,-579.31 564.8,-578.22"/>
<text text-anchor="middle" x="697.44" y="-471.71" font-family="Arial" font-size="20.00" fill="blue">start_next: 04/11/17, 16:33:21</text>
<text text-anchor="middle" x="697.44" y="-449.71" font-family="Arial" font-size="20.00" fill="blue">gap: 86sec</text>
<text text-anchor="middle" x="697.44" y="-427.71" font-family="Arial" font-size="20.00" fill="blue">end_prev: 04/11/17, 16:31:55</text>
</g>
<!-- DATA EXFILTRATION
distinct | ID: 409 -->
<g id="node12" class="node">
<title>DATA EXFILTRATION
distinct | ID: 409</title>
<g id="a_node12"><a xlink:title="ET WEB_SPECIFIC_APPS PHP&#45;CGI query string parameter vulnerability">
<polygon fill="none" stroke="black" stroke-width="3" stroke-dasharray="1,5" points="409.82,-730.4 307.38,-779.38 102.5,-779.38 0.06,-730.4 102.5,-681.42 307.38,-681.42 409.82,-730.4"/>
<text text-anchor="middle" x="204.94" y="-737.2" font-family="Arial" font-size="24.00">DATA EXFILTRATION</text>
<text text-anchor="middle" x="204.94" y="-711.2" font-family="Arial" font-size="24.00">distinct | ID: 409</text>
</a>
</g>
</g>
<!-- INFO DISCOVERY
xdmcp&#45;&gt;DATA EXFILTRATION
distinct | ID: 409 -->
<g id="edge11" class="edge">
<title>INFO DISCOVERY
xdmcp&#45;&gt;DATA EXFILTRATION
distinct | ID: 409</title>
<path fill="none" stroke="blue" stroke-width="5" d="M206.84,-580.34C206.09,-583.09 205.44,-585.85 204.94,-588.56 199.96,-615.39 199.32,-645.6 200.19,-671.14"/>
<polygon fill="blue" stroke="blue" stroke-width="5" points="195.83,-671.61 200.62,-681.41 204.57,-671.24 195.83,-671.61"/>
<text text-anchor="middle" x="336.44" y="-647.98" font-family="Arial" font-size="20.00" fill="blue">start_next: 04/11/17, 14:05:13</text>
<text text-anchor="middle" x="336.44" y="-625.98" font-family="Arial" font-size="20.00" fill="blue">gap: 26sec</text>
<text text-anchor="middle" x="336.44" y="-603.98" font-family="Arial" font-size="20.00" fill="blue">end_prev: 04/11/17, 14:04:47</text>
</g>
<!-- DATA EXFILTRATION
distinct | ID: 409&#45;&gt;DATA DELIVERY
distinct | ID: 70 -->
<g id="edge12" class="edge">
<title>DATA EXFILTRATION
distinct | ID: 409&#45;&gt;DATA DELIVERY
distinct | ID: 70</title>
<path fill="none" stroke="blue" stroke-width="5" d="M207.11,-779.56C208.1,-801.63 209.28,-827.96 210.32,-851.13"/>
<polygon fill="blue" stroke="blue" stroke-width="5" points="205.95,-851.38 210.77,-861.18 214.7,-850.99 205.95,-851.38"/>
<text text-anchor="middle" x="342.44" y="-837.39" font-family="Arial" font-size="20.00" fill="blue">start_next: 04/11/17, 14:05:20</text>
<text text-anchor="middle" x="342.44" y="-815.39" font-family="Arial" font-size="20.00" fill="blue">gap: 0sec</text>
<text text-anchor="middle" x="342.44" y="-793.39" font-family="Arial" font-size="20.00" fill="blue">end_prev: 04/11/17, 14:05:20</text>
</g>
<!-- VULNERABILTY DISCOVERY
ahsp -->
<g id="node13" class="node">
<title>VULNERABILTY DISCOVERY
ahsp</title>
<g id="a_node13"><a xlink:title="ET POLICY Suspicious inbound to mSQL port 4333">
<ellipse fill="yellow" stroke="black" stroke-width="3" cx="294.94" cy="-42.43" rx="241.25" ry="42.35"/>
<text text-anchor="middle" x="294.94" y="-49.23" font-family="Arial" font-size="24.00">VULNERABILTY DISCOVERY</text>
<text text-anchor="middle" x="294.94" y="-23.23" font-family="Arial" font-size="24.00">ahsp</text>
</a>
</g>
</g>
<!-- VULNERABILTY DISCOVERY
ahsp&#45;&gt;ARBITRARY CODE EXECUTION
ssdp | ID: 355 -->
<g id="edge13" class="edge">
<title>VULNERABILTY DISCOVERY
ahsp&#45;&gt;ARBITRARY CODE EXECUTION
ssdp | ID: 355</title>
<path fill="none" stroke="blue" stroke-width="5" d="M291.53,-84.91C290.55,-110.64 291.38,-144.16 298.94,-172.85 299.9,-176.49 301.16,-180.16 302.62,-183.77"/>
<polygon fill="blue" stroke="blue" stroke-width="5" points="298.74,-185.8 306.84,-193.11 306.71,-182.2 298.74,-185.8"/>
<text text-anchor="start" x="298.94" y="-157.85" font-family="Arial" font-size="20.00" fill="blue"> start_next: 04/11/17, 16:31:28</text>
<text text-anchor="start" x="378.44" y="-137.85" font-family="Arial" font-size="20.00" fill="blue">gap: 125sec</text>
<text text-anchor="start" x="302.94" y="-117.85" font-family="Arial" font-size="20.00" fill="blue">end_prev: 04/11/17, 16:29:22</text>
<text text-anchor="start" x="333.44" y="-97.85" font-family="Arial" font-weight="bold" font-size="20.00" fill="blue">Attacker: 10.0.254.31</text>
</g>
<!-- SURFING
distinct&#45;&gt;DATA DELIVERY
distinct | ID: 410 -->
<g id="edge16" class="edge">
<title>SURFING
distinct&#45;&gt;DATA DELIVERY
distinct | ID: 410</title>
<path fill="none" stroke="blue" stroke-width="5" d="M558.14,-673.51C556.11,-720.56 552.78,-797.57 550.48,-850.73"/>
<polygon fill="blue" stroke="blue" stroke-width="5" points="546.09,-850.85 550.03,-861.03 554.84,-851.23 546.09,-850.85"/>
<text text-anchor="middle" x="689.44" y="-747.4" font-family="Arial" font-size="20.00" fill="blue">start_next: 04/11/17, 16:33:26</text>
<text text-anchor="middle" x="689.44" y="-725.4" font-family="Arial" font-size="20.00" fill="blue">gap: 2sec</text>
<text text-anchor="middle" x="689.44" y="-703.4" font-family="Arial" font-size="20.00" fill="blue">end_prev: 04/11/17, 16:33:24</text>
</g>
</g>
</svg>
