<?xml version="1.0" encoding="UTF-8" standalone="no"?>
<!DOCTYPE svg PUBLIC "-//W3C//DTD SVG 1.1//EN"
 "http://www.w3.org/Graphics/SVG/1.1/DTD/svg11.dtd">
<!-- Generated by graphviz version 2.50.0 (0)
 -->
<!-- Title: DATADELIVERYhttp Pages: 1 -->
<svg width="1181pt" height="1589pt"
 viewBox="0.00 0.00 1181.12 1588.87" xmlns="http://www.w3.org/2000/svg" xmlns:xlink="http://www.w3.org/1999/xlink">
<g id="graph0" class="graph" transform="scale(1 1) rotate(0) translate(4 1584.87)">
<title>DATADELIVERYhttp</title>
<polygon fill="white" stroke="transparent" points="-4,4 -4,-1584.87 1177.12,-1584.87 1177.12,4 -4,4"/>
<!-- Victim: 10.0.0.150
DATA DELIVERY
http -->
<g id="node1" class="node">
<title>Victim: 10.0.0.150
DATA DELIVERY
http</title>
<polygon fill="salmon" stroke="black" stroke-width="3" points="844.07,-1483.85 844.07,-1538.24 749.79,-1576.7 616.46,-1576.7 522.17,-1538.24 522.17,-1483.85 616.46,-1445.39 749.79,-1445.39 844.07,-1483.85"/>
<polygon fill="none" stroke="black" stroke-width="3" points="848.08,-1481.17 848.08,-1540.92 750.58,-1580.69 615.67,-1580.69 518.17,-1540.92 518.17,-1481.17 615.67,-1441.4 750.58,-1441.4 848.08,-1481.17"/>
<text text-anchor="middle" x="683.12" y="-1530.84" font-family="Arial" font-size="24.00">Victim: 10.0.0.150</text>
<text text-anchor="middle" x="683.12" y="-1504.84" font-family="Arial" font-size="24.00">DATA DELIVERY</text>
<text text-anchor="middle" x="683.12" y="-1478.84" font-family="Arial" font-size="24.00">http</text>
</g>
<!-- DATA DELIVERY
http | ID: 21 -->
<g id="node2" class="node">
<title>DATA DELIVERY
http | ID: 21</title>
<g id="a_node2"><a xlink:title="ET WEB_SERVER PHP Possible php Remote File Inclusion Attempt&#10;ET WEB_SERVER PHP tags in HTTP POST">
<polygon fill="salmon" stroke="black" stroke-width="3" points="1049.22,-1375.23 967.67,-1424.21 804.57,-1424.21 723.02,-1375.23 804.57,-1326.25 967.67,-1326.25 1049.22,-1375.23"/>
<text text-anchor="middle" x="886.12" y="-1382.03" font-family="Arial" font-size="24.00">DATA DELIVERY</text>
<text text-anchor="middle" x="886.12" y="-1356.03" font-family="Arial" font-size="24.00">http | ID: 21</text>
</a>
</g>
</g>
<!-- DATA DELIVERY
http | ID: 21&#45;&gt;Victim: 10.0.0.150
DATA DELIVERY
http -->
<g id="edge1" class="edge">
<title>DATA DELIVERY
http | ID: 21&#45;&gt;Victim: 10.0.0.150
DATA DELIVERY
http</title>
<path fill="none" stroke="black" stroke-width="5" d="M813.12,-1424.35C802.99,-1431.03 792.44,-1437.99 781.93,-1444.91"/>
<polygon fill="black" stroke="black" stroke-width="5" points="779.46,-1441.3 773.52,-1450.46 784.28,-1448.61 779.46,-1441.3"/>
</g>
<!-- DATA DELIVERY
http | ID: 246 -->
<g id="node3" class="node">
<title>DATA DELIVERY
http | ID: 246</title>
<g id="a_node3"><a xlink:title="ET WEB_SERVER PHP Possible php Remote File Inclusion Attempt&#10;ET WEB_SERVER PHP tags in HTTP POST&#10;GPL WEB_SERVER perl post attempt">
<polygon fill="salmon" stroke="black" stroke-width="3" points="680.22,-1375.23 598.67,-1424.21 435.57,-1424.21 354.02,-1375.23 435.57,-1326.25 598.67,-1326.25 680.22,-1375.23"/>
<text text-anchor="middle" x="517.12" y="-1382.03" font-family="Arial" font-size="24.00">DATA DELIVERY</text>
<text text-anchor="middle" x="517.12" y="-1356.03" font-family="Arial" font-size="24.00">http | ID: 246</text>
</a>
</g>
</g>
<!-- DATA DELIVERY
http | ID: 246&#45;&gt;Victim: 10.0.0.150
DATA DELIVERY
http -->
<g id="edge2" class="edge">
<title>DATA DELIVERY
http | ID: 246&#45;&gt;Victim: 10.0.0.150
DATA DELIVERY
http</title>
<path fill="none" stroke="black" stroke-width="5" d="M577.05,-1424.54C583.13,-1429.44 589.38,-1434.48 595.66,-1439.54"/>
<polygon fill="black" stroke="black" stroke-width="5" points="593.1,-1443.1 603.63,-1445.97 598.59,-1436.29 593.1,-1443.1"/>
</g>
<!-- SERVICE DISCOVERY
dsd -->
<g id="node4" class="node">
<title>SERVICE DISCOVERY
dsd</title>
<g id="a_node4"><a xlink:title="ET SCAN Potential VNC Scan 5900&#45;5920">
<ellipse fill="yellow" stroke="black" stroke-width="3" cx="241.12" cy="-42.43" rx="189.51" ry="42.35"/>
<text text-anchor="middle" x="241.12" y="-49.23" font-family="Arial" font-size="24.00">SERVICE DISCOVERY</text>
<text text-anchor="middle" x="241.12" y="-23.23" font-family="Arial" font-size="24.00">dsd</text>
</a>
</g>
</g>
<!-- VULNERABILTY DISCOVERY
postgresql -->
<g id="node5" class="node">
<title>VULNERABILTY DISCOVERY
postgresql</title>
<g id="a_node5"><a xlink:title="ET POLICY Suspicious inbound to Oracle SQL port 1521&#10;ET POLICY Suspicious inbound to PostgreSQL port 5432">
<ellipse fill="none" stroke="black" stroke-width="3" cx="241.12" cy="-223.28" rx="241.25" ry="42.35"/>
<text text-anchor="middle" x="241.12" y="-230.08" font-family="Arial" font-size="24.00">VULNERABILTY DISCOVERY</text>
<text text-anchor="middle" x="241.12" y="-204.08" font-family="Arial" font-size="24.00">postgresql</text>
</a>
</g>
</g>
<!-- SERVICE DISCOVERY
dsd&#45;&gt;VULNERABILTY DISCOVERY
postgresql -->
<g id="edge3" class="edge">
<title>SERVICE DISCOVERY
dsd&#45;&gt;VULNERABILTY DISCOVERY
postgresql</title>
<path fill="none" stroke="blue" stroke-width="5" d="M241.12,-84.91C241.12,-110.44 241.12,-143.37 241.12,-170.59"/>
<polygon fill="blue" stroke="blue" stroke-width="5" points="236.75,-170.71 241.12,-180.71 245.5,-170.71 236.75,-170.71"/>
<text text-anchor="start" x="241.12" y="-157.85" font-family="Arial" font-size="20.00" fill="blue"> start_next: 04/11/17, 13:15:49</text>
<text text-anchor="start" x="320.62" y="-137.85" font-family="Arial" font-size="20.00" fill="blue">gap: 135sec</text>
<text text-anchor="start" x="245.12" y="-117.85" font-family="Arial" font-size="20.00" fill="blue">end_prev: 04/11/17, 13:13:34</text>
<text text-anchor="start" x="275.62" y="-97.85" font-family="Arial" font-weight="bold" font-size="20.00" fill="blue">Attacker: 10.0.254.31</text>
</g>
<!-- VULNERABILTY DISCOVERY
mysql -->
<g id="node6" class="node">
<title>VULNERABILTY DISCOVERY
mysql</title>
<g id="a_node6"><a xlink:title="ET POLICY Suspicious inbound to MSSQL port 1433&#10;ET POLICY Suspicious inbound to mySQL port 3306">
<ellipse fill="none" stroke="black" stroke-width="3" cx="241.12" cy="-390.13" rx="241.25" ry="42.35"/>
<text text-anchor="middle" x="241.12" y="-396.93" font-family="Arial" font-size="24.00">VULNERABILTY DISCOVERY</text>
<text text-anchor="middle" x="241.12" y="-370.93" font-family="Arial" font-size="24.00">mysql</text>
</a>
</g>
</g>
<!-- VULNERABILTY DISCOVERY
postgresql&#45;&gt;VULNERABILTY DISCOVERY
mysql -->
<g id="edge4" class="edge">
<title>VULNERABILTY DISCOVERY
postgresql&#45;&gt;VULNERABILTY DISCOVERY
mysql</title>
<path fill="none" stroke="blue" stroke-width="5" d="M241.12,-265.88C241.12,-287.55 241.12,-314.26 241.12,-337.27"/>
<polygon fill="blue" stroke="blue" stroke-width="5" points="236.75,-337.55 241.12,-347.55 245.5,-337.55 236.75,-337.55"/>
<text text-anchor="middle" x="372.62" y="-323.71" font-family="Arial" font-size="20.00" fill="blue">start_next: 04/11/17, 14:01:49</text>
<text text-anchor="middle" x="372.62" y="-301.71" font-family="Arial" font-size="20.00" fill="blue">gap: 2461sec</text>
<text text-anchor="middle" x="372.62" y="-279.71" font-family="Arial" font-size="20.00" fill="blue">end_prev: 04/11/17, 13:20:48</text>
</g>
<!-- BRUTE FORCE CREDENTIALS
pop3 | ID: 887 -->
<g id="node7" class="node">
<title>BRUTE FORCE CREDENTIALS
pop3 | ID: 887</title>
<g id="a_node7"><a xlink:title="ET SCAN Rapid POP3 Connections &#45; Possible Brute Force Attack">
<polygon fill="none" stroke="black" stroke-width="3" points="422.12,-586.98 60.12,-586.98 60.12,-526.98 422.12,-526.98 422.12,-586.98"/>
<text text-anchor="middle" x="241.12" y="-563.78" font-family="Arial" font-size="24.00">BRUTE FORCE CREDENTIALS</text>
<text text-anchor="middle" x="241.12" y="-537.78" font-family="Arial" font-size="24.00">pop3 | ID: 887</text>
</a>
</g>
</g>
<!-- VULNERABILTY DISCOVERY
mysql&#45;&gt;BRUTE FORCE CREDENTIALS
pop3 | ID: 887 -->
<g id="edge5" class="edge">
<title>VULNERABILTY DISCOVERY
mysql&#45;&gt;BRUTE FORCE CREDENTIALS
pop3 | ID: 887</title>
<path fill="none" stroke="blue" stroke-width="5" d="M241.12,-432.73C241.12,-458.55 241.12,-491.52 241.12,-516.87"/>
<polygon fill="blue" stroke="blue" stroke-width="5" points="236.75,-516.87 241.12,-526.87 245.5,-516.87 236.75,-516.87"/>
<text text-anchor="middle" x="372.62" y="-490.56" font-family="Arial" font-size="20.00" fill="blue">start_next: 04/11/17, 14:01:59</text>
<text text-anchor="middle" x="372.62" y="-468.56" font-family="Arial" font-size="20.00" fill="blue">gap: &#45;17sec</text>
<text text-anchor="middle" x="372.62" y="-446.56" font-family="Arial" font-size="20.00" fill="blue">end_prev: 04/11/17, 14:02:16</text>
</g>
<!-- ARBITRARY CODE EXECUTION
ssdp | ID: 355 -->
<g id="node8" class="node">
<title>ARBITRARY CODE EXECUTION
ssdp | ID: 355</title>
<g id="a_node8"><a xlink:title="GPL MISC UPnP malformed advertisement">
<polygon fill="none" stroke="black" stroke-width="3" points="642.62,-755.41 267.62,-755.41 267.62,-695.41 642.62,-695.41 642.62,-755.41"/>
<text text-anchor="middle" x="455.12" y="-732.21" font-family="Arial" font-size="24.00">ARBITRARY CODE EXECUTION</text>
<text text-anchor="middle" x="455.12" y="-706.21" font-family="Arial" font-size="24.00">ssdp | ID: 355</text>
</a>
</g>
</g>
<!-- BRUTE FORCE CREDENTIALS
pop3 | ID: 887&#45;&gt;ARBITRARY CODE EXECUTION
ssdp | ID: 355 -->
<g id="edge6" class="edge">
<title>BRUTE FORCE CREDENTIALS
pop3 | ID: 887&#45;&gt;ARBITRARY CODE EXECUTION
ssdp | ID: 355</title>
<path fill="none" stroke="blue" stroke-width="5" d="M274.53,-587.04C305.98,-613.97 354.74,-654.7 399.12,-687.41 400.01,-688.07 400.92,-688.73 401.83,-689.39"/>
<polygon fill="blue" stroke="blue" stroke-width="5" points="399.52,-693.12 410.21,-695.33 404.58,-685.98 399.52,-693.12"/>
<text text-anchor="middle" x="530.62" y="-664.41" font-family="Arial" font-size="20.00" fill="blue">start_next: 04/11/17, 14:03:24</text>
<text text-anchor="middle" x="530.62" y="-642.41" font-family="Arial" font-size="20.00" fill="blue">gap: 85sec</text>
<text text-anchor="middle" x="530.62" y="-620.41" font-family="Arial" font-size="20.00" fill="blue">end_prev: 04/11/17, 14:01:59</text>
</g>
<!-- REMOTE SERVICE EXPLOIT
snmp | ID: 52 -->
<g id="node9" class="node">
<title>REMOTE SERVICE EXPLOIT
snmp | ID: 52</title>
<g id="a_node9"><a xlink:title="ET SNMP Samsung Printer SNMP Hardcode RW Community String">
<polygon fill="none" stroke="black" stroke-width="3" points="624.12,-897.41 286.12,-897.41 286.12,-837.41 624.12,-837.41 624.12,-897.41"/>
<text text-anchor="middle" x="455.12" y="-874.21" font-family="Arial" font-size="24.00">REMOTE SERVICE EXPLOIT</text>
<text text-anchor="middle" x="455.12" y="-848.21" font-family="Arial" font-size="24.00">snmp | ID: 52</text>
</a>
</g>
</g>
<!-- ARBITRARY CODE EXECUTION
ssdp | ID: 355&#45;&gt;REMOTE SERVICE EXPLOIT
snmp | ID: 52 -->
<g id="edge7" class="edge">
<title>ARBITRARY CODE EXECUTION
ssdp | ID: 355&#45;&gt;REMOTE SERVICE EXPLOIT
snmp | ID: 52</title>
<path fill="none" stroke="blue" stroke-width="5" d="M331.82,-755.57C327.56,-758.03 324.23,-760.64 322.12,-763.41 304.38,-786.77 304.38,-806.05 322.12,-829.41 322.58,-830.02 323.1,-830.61 323.68,-831.21"/>
<polygon fill="blue" stroke="blue" stroke-width="5" points="321.18,-834.8 331.82,-837.26 326.4,-827.78 321.18,-834.8"/>
<text text-anchor="middle" x="453.62" y="-813.41" font-family="Arial" font-size="20.00" fill="blue">start_next: 04/11/17, 14:03:51</text>
<text text-anchor="middle" x="453.62" y="-791.41" font-family="Arial" font-size="20.00" fill="blue">gap: 22sec</text>
<text text-anchor="middle" x="453.62" y="-769.41" font-family="Arial" font-size="20.00" fill="blue">end_prev: 04/11/17, 14:03:29</text>
</g>
<!-- ARBITRARY CODE EXECUTION
ssdp | ID: 355&#45;&gt;REMOTE SERVICE EXPLOIT
snmp | ID: 52 -->
<g id="edge12" class="edge">
<title>ARBITRARY CODE EXECUTION
ssdp | ID: 355&#45;&gt;REMOTE SERVICE EXPLOIT
snmp | ID: 52</title>
<path fill="none" stroke="blue" stroke-width="5" d="M575.37,-755.72C577.8,-758.1 580.06,-760.66 582.12,-763.41 599.73,-786.88 599.73,-805.95 582.12,-829.41 582.06,-829.5 581.99,-829.58 581.93,-829.67"/>
<polygon fill="blue" stroke="blue" stroke-width="5" points="578.7,-826.71 575.37,-837.1 585.27,-832.5 578.7,-826.71"/>
<text text-anchor="middle" x="726.62" y="-813.41" font-family="Arial" font-size="20.00" fill="blue">start_next: 04/11/17, 16:32:25</text>
<text text-anchor="middle" x="726.62" y="-791.41" font-family="Arial" font-size="20.00" fill="blue">gap: 22sec</text>
<text text-anchor="middle" x="726.62" y="-769.41" font-family="Arial" font-size="20.00" fill="blue">end_prev: 04/11/17, 16:32:03</text>
</g>
<!-- SURFING
http -->
<g id="node10" class="node">
<title>SURFING
http</title>
<g id="a_node10"><a xlink:title="ET WEB_SERVER WEB&#45;PHP phpinfo access">
<ellipse fill="none" stroke="black" stroke-width="3" cx="455.12" cy="-1021.84" rx="88.28" ry="42.35"/>
<text text-anchor="middle" x="455.12" y="-1028.64" font-family="Arial" font-size="24.00">SURFING</text>
<text text-anchor="middle" x="455.12" y="-1002.64" font-family="Arial" font-size="24.00">http</text>
</a>
</g>
</g>
<!-- REMOTE SERVICE EXPLOIT
snmp | ID: 52&#45;&gt;SURFING
http -->
<g id="edge8" class="edge">
<title>REMOTE SERVICE EXPLOIT
snmp | ID: 52&#45;&gt;SURFING
http</title>
<path fill="none" stroke="blue" stroke-width="5" d="M331.82,-897.57C327.56,-900.03 324.23,-902.64 322.12,-905.41 304.38,-928.77 305.38,-947.33 322.12,-971.41 332.06,-985.7 346.63,-995.86 362.53,-1003.09"/>
<polygon fill="blue" stroke="blue" stroke-width="5" points="361.11,-1007.24 372.03,-1007.02 364.46,-999.16 361.11,-1007.24"/>
<text text-anchor="middle" x="453.62" y="-955.41" font-family="Arial" font-size="20.00" fill="blue">start_next: 04/11/17, 14:06:06</text>
<text text-anchor="middle" x="453.62" y="-933.41" font-family="Arial" font-size="20.00" fill="blue">gap: 135sec</text>
<text text-anchor="middle" x="453.62" y="-911.41" font-family="Arial" font-size="20.00" fill="blue">end_prev: 04/11/17, 14:03:51</text>
</g>
<!-- REMOTE SERVICE EXPLOIT
snmp | ID: 52&#45;&gt;SURFING
http -->
<g id="edge13" class="edge">
<title>REMOTE SERVICE EXPLOIT
snmp | ID: 52&#45;&gt;SURFING
http</title>
<path fill="none" stroke="blue" stroke-width="5" d="M575.37,-897.72C577.8,-900.1 580.06,-902.66 582.12,-905.41 599.73,-928.88 598.68,-947.2 582.12,-971.41 573.25,-984.39 560.43,-993.96 546.3,-1001.02"/>
<polygon fill="blue" stroke="blue" stroke-width="5" points="544.16,-997.18 536.86,-1005.3 547.77,-1005.15 544.16,-997.18"/>
<text text-anchor="middle" x="725.62" y="-955.41" font-family="Arial" font-size="20.00" fill="blue">start_next: 04/11/17, 16:34:38</text>
<text text-anchor="middle" x="725.62" y="-933.41" font-family="Arial" font-size="20.00" fill="blue">gap: 133sec</text>
<text text-anchor="middle" x="725.62" y="-911.41" font-family="Arial" font-size="20.00" fill="blue">end_prev: 04/11/17, 16:32:25</text>
</g>
<!-- SURFING
http&#45;&gt;DATA DELIVERY
http | ID: 246 -->
<g id="edge14" class="edge">
<title>SURFING
http&#45;&gt;DATA DELIVERY
http | ID: 246</title>
<path fill="none" stroke="blue" stroke-width="5" d="M448.26,-1064.31C442.22,-1109.31 436.45,-1182.93 451.12,-1244.24 457.16,-1269.45 468.92,-1295.28 480.87,-1317.22"/>
<polygon fill="blue" stroke="blue" stroke-width="5" points="477.1,-1319.45 485.8,-1326.05 484.74,-1315.18 477.1,-1319.45"/>
<text text-anchor="middle" x="582.62" y="-1212.25" font-family="Arial" font-size="20.00" fill="blue">start_next: 04/11/17, 16:34:39</text>
<text text-anchor="middle" x="582.62" y="-1190.25" font-family="Arial" font-size="20.00" fill="blue">gap: 0sec</text>
<text text-anchor="middle" x="582.62" y="-1168.25" font-family="Arial" font-size="20.00" fill="blue">end_prev: 04/11/17, 16:34:39</text>
</g>
<!-- DATA EXFILTRATION
http | ID: 228 -->
<g id="node11" class="node">
<title>DATA EXFILTRATION
http | ID: 228</title>
<g id="a_node11"><a xlink:title="ET WEB_SPECIFIC_APPS PHP&#45;CGI query string parameter vulnerability">
<polygon fill="none" stroke="black" stroke-width="3" points="1127,-1195.25 1024.56,-1244.23 819.68,-1244.23 717.24,-1195.25 819.68,-1146.27 1024.56,-1146.27 1127,-1195.25"/>
<text text-anchor="middle" x="922.12" y="-1202.05" font-family="Arial" font-size="24.00">DATA EXFILTRATION</text>
<text text-anchor="middle" x="922.12" y="-1176.05" font-family="Arial" font-size="24.00">http | ID: 228</text>
</a>
</g>
</g>
<!-- SURFING
http&#45;&gt;DATA EXFILTRATION
http | ID: 228 -->
<g id="edge9" class="edge">
<title>SURFING
http&#45;&gt;DATA EXFILTRATION
http | ID: 228</title>
<path fill="none" stroke="blue" stroke-width="5" d="M524.53,-1048.32C596.36,-1074.68 710.08,-1116.42 797.54,-1148.52"/>
<polygon fill="blue" stroke="blue" stroke-width="5" points="796.09,-1152.65 806.99,-1151.99 799.11,-1144.44 796.09,-1152.65"/>
<text text-anchor="middle" x="888.62" y="-1122.26" font-family="Arial" font-size="20.00" fill="blue">start_next: 04/11/17, 14:06:10</text>
<text text-anchor="middle" x="888.62" y="-1100.26" font-family="Arial" font-size="20.00" fill="blue">gap: 4sec</text>
<text text-anchor="middle" x="888.62" y="-1078.26" font-family="Arial" font-size="20.00" fill="blue">end_prev: 04/11/17, 14:06:06</text>
</g>
<!-- DATA EXFILTRATION
http | ID: 228&#45;&gt;DATA DELIVERY
http | ID: 21 -->
<g id="edge10" class="edge">
<title>DATA EXFILTRATION
http | ID: 228&#45;&gt;DATA DELIVERY
http | ID: 21</title>
<path fill="none" stroke="blue" stroke-width="5" d="M912.38,-1244.42C907.92,-1266.48 902.59,-1292.81 897.91,-1315.98"/>
<polygon fill="blue" stroke="blue" stroke-width="5" points="893.57,-1315.36 895.87,-1326.03 902.14,-1317.1 893.57,-1315.36"/>
<text text-anchor="middle" x="1041.62" y="-1302.24" font-family="Arial" font-size="20.00" fill="blue">start_next: 04/11/17, 14:06:10</text>
<text text-anchor="middle" x="1041.62" y="-1280.24" font-family="Arial" font-size="20.00" fill="blue">gap: &#45;1sec</text>
<text text-anchor="middle" x="1041.62" y="-1258.24" font-family="Arial" font-size="20.00" fill="blue">end_prev: 04/11/17, 14:06:11</text>
</g>
<!-- VULNERABILTY DISCOVERY
ahsp -->
<g id="node12" class="node">
<title>VULNERABILTY DISCOVERY
ahsp</title>
<g id="a_node12"><a xlink:title="ET POLICY Suspicious inbound to mySQL port 3306&#10;ET POLICY Suspicious inbound to mSQL port 4333">
<ellipse fill="yellow" stroke="black" stroke-width="3" cx="670.12" cy="-556.98" rx="241.25" ry="42.35"/>
<text text-anchor="middle" x="670.12" y="-563.78" font-family="Arial" font-size="24.00">VULNERABILTY DISCOVERY</text>
<text text-anchor="middle" x="670.12" y="-537.78" font-family="Arial" font-size="24.00">ahsp</text>
</a>
</g>
</g>
<!-- VULNERABILTY DISCOVERY
ahsp&#45;&gt;ARBITRARY CODE EXECUTION
ssdp | ID: 355 -->
<g id="edge11" class="edge">
<title>VULNERABILTY DISCOVERY
ahsp&#45;&gt;ARBITRARY CODE EXECUTION
ssdp | ID: 355</title>
<path fill="none" stroke="blue" stroke-width="5" d="M678.51,-599.54C681.66,-627.8 680.29,-664.14 659.12,-687.41 657.19,-689.53 654.71,-691.53 651.76,-693.42"/>
<polygon fill="blue" stroke="blue" stroke-width="5" points="649.65,-689.59 642.88,-698.16 653.76,-697.31 649.65,-689.59"/>
<text text-anchor="start" x="679.12" y="-672.41" font-family="Arial" font-size="20.00" fill="blue"> start_next: 04/11/17, 16:31:52</text>
<text text-anchor="start" x="764.12" y="-652.41" font-family="Arial" font-size="20.00" fill="blue">gap: 51sec</text>
<text text-anchor="start" x="683.12" y="-632.41" font-family="Arial" font-size="20.00" fill="blue">end_prev: 04/11/17, 16:31:02</text>
<text text-anchor="start" x="713.62" y="-612.41" font-family="Arial" font-weight="bold" font-size="20.00" fill="blue">Attacker: 10.0.254.31</text>
</g>
</g>
</svg>
