<?xml version="1.0" encoding="UTF-8" standalone="no"?>
<!DOCTYPE svg PUBLIC "-//W3C//DTD SVG 1.1//EN"
 "http://www.w3.org/Graphics/SVG/1.1/DTD/svg11.dtd">
<!-- Generated by graphviz version 2.50.0 (0)
 -->
<!-- Title: NETWORKDOSssdp Pages: 1 -->
<svg width="517pt" height="610pt"
 viewBox="0.00 0.00 517.12 610.33" xmlns="http://www.w3.org/2000/svg" xmlns:xlink="http://www.w3.org/1999/xlink">
<g id="graph0" class="graph" transform="scale(1 1) rotate(0) translate(4 606.33)">
<title>NETWORKDOSssdp</title>
<polygon fill="white" stroke="transparent" points="-4,4 -4,-606.33 513.12,-606.33 513.12,4 -4,4"/>
<!-- Victim: 10.0.0.56
NETWORK DoS
ssdp -->
<g id="node1" class="node">
<title>Victim: 10.0.0.56
NETWORK DoS
ssdp</title>
<polygon fill="salmon" stroke="black" stroke-width="3" points="391.68,-505.31 391.68,-559.7 303.49,-598.16 178.76,-598.16 90.56,-559.7 90.56,-505.31 178.76,-466.85 303.49,-466.85 391.68,-505.31"/>
<polygon fill="none" stroke="black" stroke-width="3" points="395.68,-502.7 395.68,-562.31 304.32,-602.15 177.93,-602.15 86.57,-562.31 86.57,-502.7 177.93,-462.86 304.32,-462.86 395.68,-502.7"/>
<text text-anchor="middle" x="241.12" y="-552.31" font-family="Arial" font-size="24.00">Victim: 10.0.0.56</text>
<text text-anchor="middle" x="241.12" y="-526.31" font-family="Arial" font-size="24.00">NETWORK DoS</text>
<text text-anchor="middle" x="241.12" y="-500.31" font-family="Arial" font-size="24.00">ssdp</text>
</g>
<!-- NETWORK DoS
ssdp | ID: 55 -->
<g id="node2" class="node">
<title>NETWORK DoS
ssdp | ID: 55</title>
<g id="a_node2"><a xlink:title="ET DOS Possible SSDP Amplification Scan in Progress">
<polygon fill="salmon" stroke="black" stroke-width="3" points="397.66,-396.7 319.39,-445.68 162.86,-445.68 84.59,-396.7 162.86,-347.72 319.39,-347.72 397.66,-396.7"/>
<text text-anchor="middle" x="241.12" y="-403.5" font-family="Arial" font-size="24.00">NETWORK DoS</text>
<text text-anchor="middle" x="241.12" y="-377.5" font-family="Arial" font-size="24.00">ssdp | ID: 55</text>
</a>
</g>
</g>
<!-- NETWORK DoS
ssdp | ID: 55&#45;&gt;Victim: 10.0.0.56
NETWORK DoS
ssdp -->
<g id="edge1" class="edge">
<title>NETWORK DoS
ssdp | ID: 55&#45;&gt;Victim: 10.0.0.56
NETWORK DoS
ssdp</title>
<path fill="none" stroke="black" stroke-width="5" d="M241.12,-446C241.12,-448.11 241.12,-450.24 241.12,-452.39"/>
<polygon fill="black" stroke="black" stroke-width="5" points="236.75,-452.54 241.12,-462.54 245.5,-452.54 236.75,-452.54"/>
</g>
<!-- SERVICE DISCOVERY
cpdlc -->
<g id="node3" class="node">
<title>SERVICE DISCOVERY
cpdlc</title>
<g id="a_node3"><a xlink:title="ET SCAN Potential VNC Scan 5900&#45;5920">
<ellipse fill="yellow" stroke="black" stroke-width="3" cx="241.12" cy="-42.43" rx="189.51" ry="42.35"/>
<text text-anchor="middle" x="241.12" y="-49.23" font-family="Arial" font-size="24.00">SERVICE DISCOVERY</text>
<text text-anchor="middle" x="241.12" y="-23.23" font-family="Arial" font-size="24.00">cpdlc</text>
</a>
</g>
</g>
<!-- VULNERABILTY DISCOVERY
postgresql -->
<g id="node4" class="node">
<title>VULNERABILTY DISCOVERY
postgresql</title>
<g id="a_node4"><a xlink:title="ET POLICY Suspicious inbound to MSSQL port 1433&#10;ET POLICY Suspicious inbound to Oracle SQL port 1521&#10;ET POLICY Suspicious inbound to PostgreSQL port 5432">
<ellipse fill="none" stroke="black" stroke-width="3" cx="241.12" cy="-223.28" rx="241.25" ry="42.35"/>
<text text-anchor="middle" x="241.12" y="-230.08" font-family="Arial" font-size="24.00">VULNERABILTY DISCOVERY</text>
<text text-anchor="middle" x="241.12" y="-204.08" font-family="Arial" font-size="24.00">postgresql</text>
</a>
</g>
</g>
<!-- SERVICE DISCOVERY
cpdlc&#45;&gt;VULNERABILTY DISCOVERY
postgresql -->
<g id="edge2" class="edge">
<title>SERVICE DISCOVERY
cpdlc&#45;&gt;VULNERABILTY DISCOVERY
postgresql</title>
<path fill="none" stroke="blue" stroke-width="5" d="M241.12,-84.91C241.12,-110.44 241.12,-143.37 241.12,-170.59"/>
<polygon fill="blue" stroke="blue" stroke-width="5" points="236.75,-170.71 241.12,-180.71 245.5,-170.71 236.75,-170.71"/>
<text text-anchor="start" x="241.12" y="-157.85" font-family="Arial" font-size="20.00" fill="blue"> start_next: 04/11/17, 13:59:37</text>
<text text-anchor="start" x="314.62" y="-137.85" font-family="Arial" font-size="20.00" fill="blue">gap: 3920sec</text>
<text text-anchor="start" x="245.12" y="-117.85" font-family="Arial" font-size="20.00" fill="blue">end_prev: 04/11/17, 12:54:17</text>
<text text-anchor="start" x="275.62" y="-97.85" font-family="Arial" font-weight="bold" font-size="20.00" fill="blue">Attacker: 10.0.254.31</text>
</g>
<!-- VULNERABILTY DISCOVERY
postgresql&#45;&gt;NETWORK DoS
ssdp | ID: 55 -->
<g id="edge3" class="edge">
<title>VULNERABILTY DISCOVERY
postgresql&#45;&gt;NETWORK DoS
ssdp | ID: 55</title>
<path fill="none" stroke="blue" stroke-width="5" d="M241.12,-265.77C241.12,-287.27 241.12,-313.86 241.12,-337.39"/>
<polygon fill="blue" stroke="blue" stroke-width="5" points="236.75,-337.6 241.12,-347.6 245.5,-337.6 236.75,-337.6"/>
<text text-anchor="middle" x="372.62" y="-323.71" font-family="Arial" font-size="20.00" fill="blue">start_next: 04/11/17, 14:01:09</text>
<text text-anchor="middle" x="372.62" y="-301.71" font-family="Arial" font-size="20.00" fill="blue">gap: 67sec</text>
<text text-anchor="middle" x="372.62" y="-279.71" font-family="Arial" font-size="20.00" fill="blue">end_prev: 04/11/17, 14:00:02</text>
</g>
</g>
</svg>
