<?xml version="1.0" encoding="UTF-8" standalone="no"?>
<!DOCTYPE svg PUBLIC "-//W3C//DTD SVG 1.1//EN"
 "http://www.w3.org/Graphics/SVG/1.1/DTD/svg11.dtd">
<!-- Generated by graphviz version 2.50.0 (0)
 -->
<!-- Title: DATAEXFILTRATIONmicrosoftds Pages: 1 -->
<svg width="517pt" height="1074pt"
 viewBox="0.00 0.00 517.12 1074.31" xmlns="http://www.w3.org/2000/svg" xmlns:xlink="http://www.w3.org/1999/xlink">
<g id="graph0" class="graph" transform="scale(1 1) rotate(0) translate(4 1070.31)">
<title>DATAEXFILTRATIONmicrosoftds</title>
<polygon fill="white" stroke="transparent" points="-4,4 -4,-1070.31 513.12,-1070.31 513.12,4 -4,4"/>
<!-- Victim: 10.0.0.222
DATA EXFILTRATION
microsoft&#45;ds -->
<g id="node1" class="node">
<title>Victim: 10.0.0.222
DATA EXFILTRATION
microsoft&#45;ds</title>
<polygon fill="salmon" stroke="black" stroke-width="3" points="433.34,-969.29 433.34,-1023.68 320.74,-1062.14 161.51,-1062.14 48.91,-1023.68 48.91,-969.29 161.51,-930.83 320.74,-930.83 433.34,-969.29"/>
<polygon fill="none" stroke="black" stroke-width="3" points="437.34,-966.44 437.34,-1026.53 321.41,-1066.13 160.84,-1066.13 44.91,-1026.53 44.91,-966.44 160.84,-926.84 321.41,-926.84 437.34,-966.44"/>
<text text-anchor="middle" x="241.12" y="-1016.29" font-family="Arial" font-size="24.00">Victim: 10.0.0.222</text>
<text text-anchor="middle" x="241.12" y="-990.29" font-family="Arial" font-size="24.00">DATA EXFILTRATION</text>
<text text-anchor="middle" x="241.12" y="-964.29" font-family="Arial" font-size="24.00">microsoft&#45;ds</text>
</g>
<!-- DATA EXFILTRATION
microsoft&#45;ds | ID: 37 -->
<g id="node2" class="node">
<title>DATA EXFILTRATION
microsoft&#45;ds | ID: 37</title>
<g id="a_node2"><a xlink:title="GPL NETBIOS SMB&#45;DS IPC$ share access&#10;GPL NETBIOS SMB&#45;DS ADMIN$ share access">
<polygon fill="salmon" stroke="black" stroke-width="3" points="446,-860.68 343.56,-909.65 138.68,-909.65 36.24,-860.68 138.68,-811.7 343.56,-811.7 446,-860.68"/>
<text text-anchor="middle" x="241.12" y="-867.48" font-family="Arial" font-size="24.00">DATA EXFILTRATION</text>
<text text-anchor="middle" x="241.12" y="-841.48" font-family="Arial" font-size="24.00">microsoft&#45;ds | ID: 37</text>
</a>
</g>
</g>
<!-- DATA EXFILTRATION
microsoft&#45;ds | ID: 37&#45;&gt;Victim: 10.0.0.222
DATA EXFILTRATION
microsoft&#45;ds -->
<g id="edge1" class="edge">
<title>DATA EXFILTRATION
microsoft&#45;ds | ID: 37&#45;&gt;Victim: 10.0.0.222
DATA EXFILTRATION
microsoft&#45;ds</title>
<path fill="none" stroke="black" stroke-width="5" d="M241.12,-909.98C241.12,-912.09 241.12,-914.22 241.12,-916.37"/>
<polygon fill="black" stroke="black" stroke-width="5" points="236.75,-916.52 241.12,-926.52 245.5,-916.52 236.75,-916.52"/>
</g>
<!-- VULNERABILTY DISCOVERY
ncube&#45;lm -->
<g id="node3" class="node">
<title>VULNERABILTY DISCOVERY
ncube&#45;lm</title>
<g id="a_node3"><a xlink:title="ET POLICY Suspicious inbound to Oracle SQL port 1521&#10;ET POLICY Suspicious inbound to PostgreSQL port 5432">
<ellipse fill="yellow" stroke="black" stroke-width="3" cx="241.12" cy="-42.43" rx="241.25" ry="42.35"/>
<text text-anchor="middle" x="241.12" y="-49.23" font-family="Arial" font-size="24.00">VULNERABILTY DISCOVERY</text>
<text text-anchor="middle" x="241.12" y="-23.23" font-family="Arial" font-size="24.00">ncube&#45;lm</text>
</a>
</g>
</g>
<!-- SERVICE DISCOVERY
unknown -->
<g id="node4" class="node">
<title>SERVICE DISCOVERY
unknown</title>
<g id="a_node4"><a xlink:title="ET SCAN Potential VNC Scan 5900&#45;5920">
<ellipse fill="none" stroke="black" stroke-width="3" cx="241.12" cy="-223.28" rx="189.51" ry="42.35"/>
<text text-anchor="middle" x="241.12" y="-230.08" font-family="Arial" font-size="24.00">SERVICE DISCOVERY</text>
<text text-anchor="middle" x="241.12" y="-204.08" font-family="Arial" font-size="24.00">unknown</text>
</a>
</g>
</g>
<!-- VULNERABILTY DISCOVERY
ncube&#45;lm&#45;&gt;SERVICE DISCOVERY
unknown -->
<g id="edge2" class="edge">
<title>VULNERABILTY DISCOVERY
ncube&#45;lm&#45;&gt;SERVICE DISCOVERY
unknown</title>
<path fill="none" stroke="darkgreen" stroke-width="5" d="M241.12,-84.91C241.12,-110.44 241.12,-143.37 241.12,-170.59"/>
<polygon fill="darkgreen" stroke="darkgreen" stroke-width="5" points="236.75,-170.71 241.12,-180.71 245.5,-170.71 236.75,-170.71"/>
<text text-anchor="start" x="241.12" y="-157.85" font-family="Arial" font-size="20.00" fill="darkgreen"> start_next: 04/11/17, 13:37:04</text>
<text text-anchor="start" x="320.62" y="-137.85" font-family="Arial" font-size="20.00" fill="darkgreen">gap: 203sec</text>
<text text-anchor="start" x="245.12" y="-117.85" font-family="Arial" font-size="20.00" fill="darkgreen">end_prev: 04/11/17, 13:33:40</text>
<text text-anchor="start" x="275.62" y="-97.85" font-family="Arial" font-weight="bold" font-size="20.00" fill="darkgreen">Attacker: 10.0.254.35</text>
</g>
<!-- COMMAND AND CONTROL
unknown | ID: 39 -->
<g id="node5" class="node">
<title>COMMAND AND CONTROL
unknown | ID: 39</title>
<g id="a_node5"><a xlink:title="ET POLICY RDP connection confirm">
<polygon fill="none" stroke="black" stroke-width="3" points="402.62,-407.71 79.62,-407.71 79.62,-347.71 402.62,-347.71 402.62,-407.71"/>
<text text-anchor="middle" x="241.12" y="-384.51" font-family="Arial" font-size="24.00">COMMAND AND CONTROL</text>
<text text-anchor="middle" x="241.12" y="-358.51" font-family="Arial" font-size="24.00">unknown | ID: 39</text>
</a>
</g>
</g>
<!-- SERVICE DISCOVERY
unknown&#45;&gt;COMMAND AND CONTROL
unknown | ID: 39 -->
<g id="edge3" class="edge">
<title>SERVICE DISCOVERY
unknown&#45;&gt;COMMAND AND CONTROL
unknown | ID: 39</title>
<path fill="none" stroke="darkgreen" stroke-width="5" d="M241.12,-265.93C241.12,-288.2 241.12,-315.47 241.12,-337.38"/>
<polygon fill="darkgreen" stroke="darkgreen" stroke-width="5" points="236.75,-337.65 241.12,-347.65 245.5,-337.65 236.75,-337.65"/>
<text text-anchor="middle" x="372.62" y="-323.71" font-family="Arial" font-size="20.00" fill="darkgreen">start_next: 04/11/17, 13:39:05</text>
<text text-anchor="middle" x="372.62" y="-301.71" font-family="Arial" font-size="20.00" fill="darkgreen">gap: 121sec</text>
<text text-anchor="middle" x="372.62" y="-279.71" font-family="Arial" font-size="20.00" fill="darkgreen">end_prev: 04/11/17, 13:37:04</text>
</g>
<!-- NETWORK DoS
ms&#45;wbt&#45;server | ID: 36 -->
<g id="node6" class="node">
<title>NETWORK DoS
ms&#45;wbt&#45;server | ID: 36</title>
<g id="a_node6"><a xlink:title="ET DOS Microsoft Remote Desktop (RDP) Syn then Reset 30 Second DoS Attempt">
<polygon fill="none" stroke="black" stroke-width="3" points="448.4,-538.7 344.76,-587.68 137.48,-587.68 33.84,-538.7 137.48,-489.72 344.76,-489.72 448.4,-538.7"/>
<text text-anchor="middle" x="241.12" y="-545.5" font-family="Arial" font-size="24.00">NETWORK DoS</text>
<text text-anchor="middle" x="241.12" y="-519.5" font-family="Arial" font-size="24.00">ms&#45;wbt&#45;server | ID: 36</text>
</a>
</g>
</g>
<!-- COMMAND AND CONTROL
unknown | ID: 39&#45;&gt;NETWORK DoS
ms&#45;wbt&#45;server | ID: 36 -->
<g id="edge4" class="edge">
<title>COMMAND AND CONTROL
unknown | ID: 39&#45;&gt;NETWORK DoS
ms&#45;wbt&#45;server | ID: 36</title>
<path fill="none" stroke="darkgreen" stroke-width="5" d="M241.12,-407.87C241.12,-427.87 241.12,-455.09 241.12,-479.45"/>
<polygon fill="darkgreen" stroke="darkgreen" stroke-width="5" points="236.75,-479.68 241.12,-489.68 245.5,-479.68 236.75,-479.68"/>
<text text-anchor="middle" x="372.62" y="-465.71" font-family="Arial" font-size="20.00" fill="darkgreen">start_next: 04/11/17, 13:42:15</text>
<text text-anchor="middle" x="372.62" y="-443.71" font-family="Arial" font-size="20.00" fill="darkgreen">gap: 190sec</text>
<text text-anchor="middle" x="372.62" y="-421.71" font-family="Arial" font-size="20.00" fill="darkgreen">end_prev: 04/11/17, 13:39:05</text>
</g>
<!-- COMMAND AND CONTROL
unknown | ID: 308 -->
<g id="node7" class="node">
<title>COMMAND AND CONTROL
unknown | ID: 308</title>
<g id="a_node7"><a xlink:title="ET POLICY RDP connection confirm">
<polygon fill="none" stroke="black" stroke-width="3" points="402.62,-729.69 79.62,-729.69 79.62,-669.69 402.62,-669.69 402.62,-729.69"/>
<text text-anchor="middle" x="241.12" y="-706.49" font-family="Arial" font-size="24.00">COMMAND AND CONTROL</text>
<text text-anchor="middle" x="241.12" y="-680.49" font-family="Arial" font-size="24.00">unknown | ID: 308</text>
</a>
</g>
</g>
<!-- NETWORK DoS
ms&#45;wbt&#45;server | ID: 36&#45;&gt;COMMAND AND CONTROL
unknown | ID: 308 -->
<g id="edge5" class="edge">
<title>NETWORK DoS
ms&#45;wbt&#45;server | ID: 36&#45;&gt;COMMAND AND CONTROL
unknown | ID: 308</title>
<path fill="none" stroke="darkgreen" stroke-width="5" d="M241.12,-587.83C241.12,-610.76 241.12,-637.85 241.12,-659.5"/>
<polygon fill="darkgreen" stroke="darkgreen" stroke-width="5" points="236.75,-659.65 241.12,-669.65 245.5,-659.65 236.75,-659.65"/>
<text text-anchor="middle" x="372.62" y="-645.69" font-family="Arial" font-size="20.00" fill="darkgreen">start_next: 04/11/17, 13:54:51</text>
<text text-anchor="middle" x="372.62" y="-623.69" font-family="Arial" font-size="20.00" fill="darkgreen">gap: 756sec</text>
<text text-anchor="middle" x="372.62" y="-601.69" font-family="Arial" font-size="20.00" fill="darkgreen">end_prev: 04/11/17, 13:42:15</text>
</g>
<!-- COMMAND AND CONTROL
unknown | ID: 308&#45;&gt;DATA EXFILTRATION
microsoft&#45;ds | ID: 37 -->
<g id="edge6" class="edge">
<title>COMMAND AND CONTROL
unknown | ID: 308&#45;&gt;DATA EXFILTRATION
microsoft&#45;ds | ID: 37</title>
<path fill="none" stroke="darkgreen" stroke-width="5" d="M241.12,-729.85C241.12,-749.85 241.12,-777.07 241.12,-801.43"/>
<polygon fill="darkgreen" stroke="darkgreen" stroke-width="5" points="236.75,-801.66 241.12,-811.66 245.5,-801.66 236.75,-801.66"/>
<text text-anchor="middle" x="372.12" y="-787.69" font-family="Arial" font-size="20.00" fill="darkgreen">start_next: 04/11/17, 15:11:14</text>
<text text-anchor="middle" x="372.12" y="-765.69" font-family="Arial" font-size="20.00" fill="darkgreen">gap: 4583sec</text>
<text text-anchor="middle" x="372.12" y="-743.69" font-family="Arial" font-size="20.00" fill="darkgreen">end_prev: 04/11/17, 13:54:51</text>
</g>
</g>
</svg>
