<?xml version="1.0" encoding="UTF-8" standalone="no"?>
<!DOCTYPE svg PUBLIC "-//W3C//DTD SVG 1.1//EN"
 "http://www.w3.org/Graphics/SVG/1.1/DTD/svg11.dtd">
<!-- Generated by graphviz version 2.50.0 (0)
 -->
<!-- Title: DATAEXFILTRATIONwsman Pages: 1 -->
<svg width="1972pt" height="2950pt"
 viewBox="0.00 0.00 1971.94 2949.94" xmlns="http://www.w3.org/2000/svg" xmlns:xlink="http://www.w3.org/1999/xlink">
<g id="graph0" class="graph" transform="scale(1 1) rotate(0) translate(4 2945.94)">
<title>DATAEXFILTRATIONwsman</title>
<polygon fill="white" stroke="transparent" points="-4,4 -4,-2945.94 1967.94,-2945.94 1967.94,4 -4,4"/>
<!-- Victim: 10.0.0.101
DATA EXFILTRATION
wsman -->
<g id="node1" class="node">
<title>Victim: 10.0.0.101
DATA EXFILTRATION
wsman</title>
<polygon fill="salmon" stroke="black" stroke-width="3" points="397.15,-2844.93 397.15,-2899.32 284.56,-2937.77 125.32,-2937.77 12.73,-2899.32 12.73,-2844.93 125.32,-2806.47 284.56,-2806.47 397.15,-2844.93"/>
<polygon fill="none" stroke="black" stroke-width="3" points="401.15,-2842.08 401.15,-2902.17 285.22,-2941.76 124.66,-2941.76 8.73,-2902.17 8.73,-2842.08 124.66,-2802.48 285.22,-2802.48 401.15,-2842.08"/>
<text text-anchor="middle" x="204.94" y="-2891.92" font-family="Arial" font-size="24.00">Victim: 10.0.0.101</text>
<text text-anchor="middle" x="204.94" y="-2865.92" font-family="Arial" font-size="24.00">DATA EXFILTRATION</text>
<text text-anchor="middle" x="204.94" y="-2839.92" font-family="Arial" font-size="24.00">wsman</text>
</g>
<!-- DATA EXFILTRATION
wsman | ID: 63 -->
<g id="node2" class="node">
<title>DATA EXFILTRATION
wsman | ID: 63</title>
<g id="a_node2"><a xlink:title="ET WEB_SPECIFIC_APPS PHP&#45;CGI query string parameter vulnerability">
<polygon fill="salmon" stroke="black" stroke-width="3" points="409.82,-2736.31 307.38,-2785.29 102.5,-2785.29 0.06,-2736.31 102.5,-2687.33 307.38,-2687.33 409.82,-2736.31"/>
<text text-anchor="middle" x="204.94" y="-2743.11" font-family="Arial" font-size="24.00">DATA EXFILTRATION</text>
<text text-anchor="middle" x="204.94" y="-2717.11" font-family="Arial" font-size="24.00">wsman | ID: 63</text>
</a>
</g>
</g>
<!-- DATA EXFILTRATION
wsman | ID: 63&#45;&gt;Victim: 10.0.0.101
DATA EXFILTRATION
wsman -->
<g id="edge1" class="edge">
<title>DATA EXFILTRATION
wsman | ID: 63&#45;&gt;Victim: 10.0.0.101
DATA EXFILTRATION
wsman</title>
<path fill="none" stroke="black" stroke-width="5" d="M204.94,-2785.62C204.94,-2787.72 204.94,-2789.86 204.94,-2792.01"/>
<polygon fill="black" stroke="black" stroke-width="5" points="200.57,-2792.16 204.94,-2802.16 209.32,-2792.16 200.57,-2792.16"/>
</g>
<!-- SURFING
http -->
<g id="node3" class="node">
<title>SURFING
http</title>
<g id="a_node3"><a xlink:title="ET WEB_SERVER WEB&#45;PHP phpinfo access">
<ellipse fill="yellow" stroke="black" stroke-width="3" cx="1305.94" cy="-1232.36" rx="88.28" ry="42.35"/>
<text text-anchor="middle" x="1305.94" y="-1239.16" font-family="Arial" font-size="24.00">SURFING</text>
<text text-anchor="middle" x="1305.94" y="-1213.16" font-family="Arial" font-size="24.00">http</text>
</a>
</g>
</g>
<!-- INFO DISCOVERY
http -->
<g id="node4" class="node">
<title>INFO DISCOVERY
http</title>
<g id="a_node4"><a xlink:title="GPL WEB_SERVER globals.pl access">
<ellipse fill="none" stroke="black" stroke-width="3" cx="1061.94" cy="-1419.78" rx="156.04" ry="42.35"/>
<text text-anchor="middle" x="1061.94" y="-1426.58" font-family="Arial" font-size="24.00">INFO DISCOVERY</text>
<text text-anchor="middle" x="1061.94" y="-1400.58" font-family="Arial" font-size="24.00">http</text>
</a>
</g>
</g>
<!-- SURFING
http&#45;&gt;INFO DISCOVERY
http -->
<g id="edge2" class="edge">
<title>SURFING
http&#45;&gt;INFO DISCOVERY
http</title>
<path fill="none" stroke="purple" stroke-width="5" d="M1220.65,-1243.5C1162.71,-1252.26 1093.22,-1267.06 1073.94,-1289.35 1063.99,-1300.85 1061.19,-1336.11 1060.77,-1366.93"/>
<polygon fill="purple" stroke="purple" stroke-width="5" points="1056.4,-1367.14 1060.71,-1377.17 1065.15,-1367.19 1056.4,-1367.14"/>
<text text-anchor="start" x="1073.94" y="-1354.35" font-family="Arial" font-size="20.00" fill="purple"> start_next: 04/11/17, 13:40:23</text>
<text text-anchor="start" x="1160.94" y="-1334.35" font-family="Arial" font-size="20.00" fill="purple">gap: &#45;8sec</text>
<text text-anchor="start" x="1077.94" y="-1314.35" font-family="Arial" font-size="20.00" fill="purple">end_prev: 04/11/17, 13:40:31</text>
<text text-anchor="start" x="1108.44" y="-1294.35" font-family="Arial" font-weight="bold" font-size="20.00" fill="purple">Attacker: 10.0.254.30</text>
</g>
<!-- SURFING
http&#45;&gt;INFO DISCOVERY
http -->
<g id="edge16" class="edge">
<title>SURFING
http&#45;&gt;INFO DISCOVERY
http</title>
<path fill="none" stroke="purple" stroke-width="5" d="M1332.62,-1272.89C1335.21,-1278.24 1337.43,-1283.8 1338.94,-1289.35 1343.62,-1306.5 1350.35,-1355.72 1338.94,-1369.35 1336.5,-1372.26 1271.06,-1384.01 1204.4,-1395.32"/>
<polygon fill="purple" stroke="purple" stroke-width="5" points="1203.27,-1391.08 1194.14,-1397.06 1204.73,-1399.7 1203.27,-1391.08"/>
<text text-anchor="middle" x="1476.44" y="-1346.35" font-family="Arial" font-size="20.00" fill="purple">start_next: 04/11/17, 15:54:18</text>
<text text-anchor="middle" x="1476.44" y="-1324.35" font-family="Arial" font-size="20.00" fill="purple">gap: &#45;8sec</text>
<text text-anchor="middle" x="1476.44" y="-1302.35" font-family="Arial" font-size="20.00" fill="purple">end_prev: 04/11/17, 15:54:26</text>
</g>
<!-- DATA EXFILTRATION
http | ID: 26 -->
<g id="node5" class="node">
<title>DATA EXFILTRATION
http | ID: 26</title>
<g id="a_node5"><a xlink:title="ET WEB_SPECIFIC_APPS PHP&#45;CGI query string parameter vulnerability">
<polygon fill="none" stroke="black" stroke-width="3" points="1119.82,-48.99 1017.38,-97.97 812.5,-97.97 710.06,-48.99 812.5,-0.01 1017.38,-0.01 1119.82,-48.99"/>
<text text-anchor="middle" x="914.94" y="-55.79" font-family="Arial" font-size="24.00">DATA EXFILTRATION</text>
<text text-anchor="middle" x="914.94" y="-29.79" font-family="Arial" font-size="24.00">http | ID: 26</text>
</a>
</g>
</g>
<!-- INFO DISCOVERY
http&#45;&gt;DATA EXFILTRATION
http | ID: 26 -->
<g id="edge3" class="edge">
<title>INFO DISCOVERY
http&#45;&gt;DATA EXFILTRATION
http | ID: 26</title>
<path fill="none" stroke="purple" stroke-width="5" d="M944.37,-1391.63C865.87,-1365.73 776.94,-1317.77 776.94,-1233.36 776.94,-221.41 776.94,-221.41 776.94,-221.41 776.94,-175.78 806.97,-135.42 839.02,-105.34"/>
<polygon fill="purple" stroke="purple" stroke-width="5" points="842.3,-108.27 846.75,-98.31 836.41,-101.8 842.3,-108.27"/>
<text text-anchor="middle" x="908.44" y="-767.09" font-family="Arial" font-size="20.00" fill="purple">start_next: 04/11/17, 13:40:24</text>
<text text-anchor="middle" x="908.44" y="-745.09" font-family="Arial" font-size="20.00" fill="purple">gap: 1sec</text>
<text text-anchor="middle" x="908.44" y="-723.09" font-family="Arial" font-size="20.00" fill="purple">end_prev: 04/11/17, 13:40:23</text>
</g>
<!-- INFO DISCOVERY
http&#45;&gt;DATA EXFILTRATION
http | ID: 26 -->
<g id="edge17" class="edge">
<title>INFO DISCOVERY
http&#45;&gt;DATA EXFILTRATION
http | ID: 26</title>
<path fill="none" stroke="purple" stroke-width="5" d="M1059.12,-1377.19C1056.82,-1339.63 1053.94,-1282.82 1053.94,-1233.36 1053.94,-221.41 1053.94,-221.41 1053.94,-221.41 1053.94,-175.65 1023.69,-135.28 991.41,-105.23"/>
<polygon fill="purple" stroke="purple" stroke-width="5" points="993.98,-101.65 983.63,-98.2 988.12,-108.15 993.98,-101.65"/>
<text text-anchor="middle" x="1185.44" y="-767.09" font-family="Arial" font-size="20.00" fill="purple">start_next: 04/11/17, 15:54:19</text>
<text text-anchor="middle" x="1185.44" y="-745.09" font-family="Arial" font-size="20.00" fill="purple">gap: 1sec</text>
<text text-anchor="middle" x="1185.44" y="-723.09" font-family="Arial" font-size="20.00" fill="purple">end_prev: 04/11/17, 15:54:18</text>
</g>
<!-- VULNERABILTY DISCOVERY
ncube&#45;lm -->
<g id="node6" class="node">
<title>VULNERABILTY DISCOVERY
ncube&#45;lm</title>
<g id="a_node6"><a xlink:title="ET POLICY Suspicious inbound to Oracle SQL port 1521&#10;ET POLICY Suspicious inbound to mSQL port 4333">
<ellipse fill="none" stroke="black" stroke-width="3" cx="510.94" cy="-1753.48" rx="241.25" ry="42.35"/>
<text text-anchor="middle" x="510.94" y="-1760.28" font-family="Arial" font-size="24.00">VULNERABILTY DISCOVERY</text>
<text text-anchor="middle" x="510.94" y="-1734.28" font-family="Arial" font-size="24.00">ncube&#45;lm</text>
</a>
</g>
</g>
<!-- DATA EXFILTRATION
http | ID: 26&#45;&gt;VULNERABILTY DISCOVERY
ncube&#45;lm -->
<g id="edge4" class="edge">
<title>DATA EXFILTRATION
http | ID: 26&#45;&gt;VULNERABILTY DISCOVERY
ncube&#45;lm</title>
<path fill="none" stroke="purple" stroke-width="5" d="M775.46,-80.36C655.93,-110.54 502.94,-160.98 502.94,-221.41 502.94,-221.41 502.94,-221.41 502.94,-1587.63 502.94,-1625.51 505.07,-1668.22 507.14,-1700.68"/>
<polygon fill="purple" stroke="purple" stroke-width="5" points="502.78,-1701.15 507.8,-1710.84 511.51,-1700.58 502.78,-1701.15"/>
<text text-anchor="middle" x="634.44" y="-933.94" font-family="Arial" font-size="20.00" fill="purple">start_next: 04/11/17, 14:03:26</text>
<text text-anchor="middle" x="634.44" y="-911.94" font-family="Arial" font-size="20.00" fill="purple">gap: 1375sec</text>
<text text-anchor="middle" x="634.44" y="-889.94" font-family="Arial" font-size="20.00" fill="purple">end_prev: 04/11/17, 13:40:31</text>
</g>
<!-- VULNERABILTY DISCOVERY
mysql -->
<g id="node17" class="node">
<title>VULNERABILTY DISCOVERY
mysql</title>
<g id="a_node17"><a xlink:title="ET POLICY Suspicious inbound to MSSQL port 1433&#10;ET POLICY Suspicious inbound to mySQL port 3306&#10;ET POLICY Suspicious inbound to Oracle SQL port 1521&#10;ET POLICY Suspicious inbound to PostgreSQL port 5432">
<ellipse fill="none" stroke="black" stroke-width="3" cx="1614.94" cy="-222.41" rx="241.25" ry="42.35"/>
<text text-anchor="middle" x="1614.94" y="-229.21" font-family="Arial" font-size="24.00">VULNERABILTY DISCOVERY</text>
<text text-anchor="middle" x="1614.94" y="-203.21" font-family="Arial" font-size="24.00">mysql</text>
</a>
</g>
</g>
<!-- DATA EXFILTRATION
http | ID: 26&#45;&gt;VULNERABILTY DISCOVERY
mysql -->
<g id="edge18" class="edge">
<title>DATA EXFILTRATION
http | ID: 26&#45;&gt;VULNERABILTY DISCOVERY
mysql</title>
<path fill="none" stroke="purple" stroke-width="5" d="M1049.08,-82.84C1168.61,-112.11 1343.25,-154.87 1466.84,-185.14"/>
<polygon fill="purple" stroke="purple" stroke-width="5" points="1466.02,-189.44 1476.77,-187.57 1468.1,-180.94 1466.02,-189.44"/>
<text text-anchor="middle" x="1539.44" y="-155.98" font-family="Arial" font-size="20.00" fill="purple">start_next: 04/11/17, 16:39:57</text>
<text text-anchor="middle" x="1539.44" y="-133.98" font-family="Arial" font-size="20.00" fill="purple">gap: 2731sec</text>
<text text-anchor="middle" x="1539.44" y="-111.98" font-family="Arial" font-size="20.00" fill="purple">end_prev: 04/11/17, 15:54:26</text>
</g>
<!-- HOST DISCOVERY
wsman -->
<g id="node7" class="node">
<title>HOST DISCOVERY
wsman</title>
<g id="a_node7"><a xlink:title="ET SCAN Possible Nmap User&#45;Agent Observed&#10;ET SCAN Nmap Scripting Engine User&#45;Agent Detected (Nmap Scripting Engine)">
<ellipse fill="none" stroke="black" stroke-width="3" cx="510.94" cy="-1920.33" rx="162.77" ry="42.35"/>
<text text-anchor="middle" x="510.94" y="-1927.13" font-family="Arial" font-size="24.00">HOST DISCOVERY</text>
<text text-anchor="middle" x="510.94" y="-1901.13" font-family="Arial" font-size="24.00">wsman</text>
</a>
</g>
</g>
<!-- VULNERABILTY DISCOVERY
ncube&#45;lm&#45;&gt;HOST DISCOVERY
wsman -->
<g id="edge5" class="edge">
<title>VULNERABILTY DISCOVERY
ncube&#45;lm&#45;&gt;HOST DISCOVERY
wsman</title>
<path fill="none" stroke="purple" stroke-width="5" d="M390.08,-1790.24C385.55,-1794.31 381.46,-1798.85 377.94,-1803.91 361.2,-1827.99 361.2,-1845.82 377.94,-1869.91 381.41,-1874.9 385.44,-1879.38 389.9,-1883.42"/>
<polygon fill="purple" stroke="purple" stroke-width="5" points="387.26,-1886.9 397.78,-1889.79 392.76,-1880.1 387.26,-1886.9"/>
<text text-anchor="middle" x="509.44" y="-1853.91" font-family="Arial" font-size="20.00" fill="purple">start_next: 04/11/17, 14:06:33</text>
<text text-anchor="middle" x="509.44" y="-1831.91" font-family="Arial" font-size="20.00" fill="purple">gap: 131sec</text>
<text text-anchor="middle" x="509.44" y="-1809.91" font-family="Arial" font-size="20.00" fill="purple">end_prev: 04/11/17, 14:04:22</text>
</g>
<!-- VULNERABILTY DISCOVERY
ncube&#45;lm&#45;&gt;HOST DISCOVERY
wsman -->
<g id="edge28" class="edge">
<title>VULNERABILTY DISCOVERY
ncube&#45;lm&#45;&gt;HOST DISCOVERY
wsman</title>
<path fill="none" stroke="purple" stroke-width="5" d="M626.65,-1790.9C630.86,-1794.8 634.67,-1799.12 637.94,-1803.91 654.5,-1828.12 654.5,-1845.7 637.94,-1869.91 634.93,-1874.31 631.46,-1878.32 627.65,-1881.98"/>
<polygon fill="purple" stroke="purple" stroke-width="5" points="624.68,-1878.76 619.9,-1888.57 630.35,-1885.42 624.68,-1878.76"/>
<text text-anchor="middle" x="782.44" y="-1853.91" font-family="Arial" font-size="20.00" fill="purple">start_next: 04/11/17, 17:35:44</text>
<text text-anchor="middle" x="782.44" y="-1831.91" font-family="Arial" font-size="20.00" fill="purple">gap: 21sec</text>
<text text-anchor="middle" x="782.44" y="-1809.91" font-family="Arial" font-size="20.00" fill="purple">end_prev: 04/11/17, 17:35:22</text>
</g>
<!-- ARBITRARY CODE EXECUTION
wsman | ID: 59 -->
<g id="node8" class="node">
<title>ARBITRARY CODE EXECUTION
wsman | ID: 59</title>
<g id="a_node8"><a xlink:title="ET CURRENT_EVENTS QNAP Shellshock CVE&#45;2014&#45;6271">
<polygon fill="none" stroke="black" stroke-width="3" points="443.44,-2175.76 68.44,-2175.76 68.44,-2115.76 443.44,-2115.76 443.44,-2175.76"/>
<text text-anchor="middle" x="255.94" y="-2152.56" font-family="Arial" font-size="24.00">ARBITRARY CODE EXECUTION</text>
<text text-anchor="middle" x="255.94" y="-2126.56" font-family="Arial" font-size="24.00">wsman | ID: 59</text>
</a>
</g>
</g>
<!-- HOST DISCOVERY
wsman&#45;&gt;ARBITRARY CODE EXECUTION
wsman | ID: 59 -->
<g id="edge6" class="edge">
<title>HOST DISCOVERY
wsman&#45;&gt;ARBITRARY CODE EXECUTION
wsman | ID: 59</title>
<path fill="none" stroke="purple" stroke-width="5" d="M403.81,-1952.31C393.21,-1957.59 383.03,-1963.7 373.94,-1970.76 327.31,-2006.99 292.49,-2066.93 273.18,-2106.13"/>
<polygon fill="purple" stroke="purple" stroke-width="5" points="269,-2104.72 268.6,-2115.62 276.88,-2108.51 269,-2104.72"/>
<text text-anchor="middle" x="505.44" y="-2020.76" font-family="Arial" font-size="20.00" fill="purple">start_next: 04/11/17, 14:07:41</text>
<text text-anchor="middle" x="505.44" y="-1998.76" font-family="Arial" font-size="20.00" fill="purple">gap: 68sec</text>
<text text-anchor="middle" x="505.44" y="-1976.76" font-family="Arial" font-size="20.00" fill="purple">end_prev: 04/11/17, 14:06:33</text>
</g>
<!-- BRUTE FORCE CREDENTIALS
unknown | ID: 1 -->
<g id="node25" class="node">
<title>BRUTE FORCE CREDENTIALS
unknown | ID: 1</title>
<g id="a_node25"><a xlink:title="ET SCAN Potential FTP Brute&#45;Force attempt response">
<polygon fill="none" stroke="black" stroke-width="3" points="851.94,-2104.76 489.94,-2104.76 489.94,-2044.76 851.94,-2044.76 851.94,-2104.76"/>
<text text-anchor="middle" x="670.94" y="-2081.56" font-family="Arial" font-size="24.00">BRUTE FORCE CREDENTIALS</text>
<text text-anchor="middle" x="670.94" y="-2055.56" font-family="Arial" font-size="24.00">unknown | ID: 1</text>
</a>
</g>
</g>
<!-- HOST DISCOVERY
wsman&#45;&gt;BRUTE FORCE CREDENTIALS
unknown | ID: 1 -->
<g id="edge29" class="edge">
<title>HOST DISCOVERY
wsman&#45;&gt;BRUTE FORCE CREDENTIALS
unknown | ID: 1</title>
<path fill="none" stroke="purple" stroke-width="5" d="M615.76,-1952.8C623.9,-1957.92 631.46,-1963.87 637.94,-1970.76 654.19,-1988.04 662.44,-2013.35 666.63,-2034.55"/>
<polygon fill="purple" stroke="purple" stroke-width="5" points="662.35,-2035.48 668.37,-2044.58 670.97,-2033.98 662.35,-2035.48"/>
<text text-anchor="middle" x="797.94" y="-2020.76" font-family="Arial" font-size="20.00" fill="purple">start_next: 04/11/17, 17:38:11</text>
<text text-anchor="middle" x="797.94" y="-1998.76" font-family="Arial" font-size="20.00" fill="purple">gap: 148sec</text>
<text text-anchor="middle" x="797.94" y="-1976.76" font-family="Arial" font-size="20.00" fill="purple">end_prev: 04/11/17, 17:35:44</text>
</g>
<!-- SURFING
wsman -->
<g id="node9" class="node">
<title>SURFING
wsman</title>
<g id="a_node9"><a xlink:title="ET WEB_SERVER WEB&#45;PHP phpinfo access">
<ellipse fill="none" stroke="black" stroke-width="3" cx="204.94" cy="-2396.04" rx="88.28" ry="42.35"/>
<text text-anchor="middle" x="204.94" y="-2402.84" font-family="Arial" font-size="24.00">SURFING</text>
<text text-anchor="middle" x="204.94" y="-2376.84" font-family="Arial" font-size="24.00">wsman</text>
</a>
</g>
</g>
<!-- ARBITRARY CODE EXECUTION
wsman | ID: 59&#45;&gt;SURFING
wsman -->
<g id="edge7" class="edge">
<title>ARBITRARY CODE EXECUTION
wsman | ID: 59&#45;&gt;SURFING
wsman</title>
<path fill="none" stroke="purple" stroke-width="5" d="M207.55,-2175.87C204.57,-2179.2 201.96,-2182.83 199.94,-2186.76 174.84,-2235.54 181.24,-2299.64 190.62,-2343.78"/>
<polygon fill="purple" stroke="purple" stroke-width="5" points="186.39,-2344.91 192.86,-2353.71 194.93,-2342.99 186.39,-2344.91"/>
<text text-anchor="middle" x="331.44" y="-2246.19" font-family="Arial" font-size="20.00" fill="purple">start_next: 04/11/17, 14:07:42</text>
<text text-anchor="middle" x="331.44" y="-2224.19" font-family="Arial" font-size="20.00" fill="purple">gap: 1sec</text>
<text text-anchor="middle" x="331.44" y="-2202.19" font-family="Arial" font-size="20.00" fill="purple">end_prev: 04/11/17, 14:07:41</text>
</g>
<!-- INFO DISCOVERY
wsman -->
<g id="node10" class="node">
<title>INFO DISCOVERY
wsman</title>
<g id="a_node10"><a xlink:title="GPL WEB_SERVER globals.pl access">
<ellipse fill="none" stroke="black" stroke-width="3" cx="204.94" cy="-2562.89" rx="156.04" ry="42.35"/>
<text text-anchor="middle" x="204.94" y="-2569.69" font-family="Arial" font-size="24.00">INFO DISCOVERY</text>
<text text-anchor="middle" x="204.94" y="-2543.69" font-family="Arial" font-size="24.00">wsman</text>
</a>
</g>
</g>
<!-- SURFING
wsman&#45;&gt;INFO DISCOVERY
wsman -->
<g id="edge8" class="edge">
<title>SURFING
wsman&#45;&gt;INFO DISCOVERY
wsman</title>
<path fill="none" stroke="purple" stroke-width="5" d="M121.84,-2410.86C102.35,-2418.18 83.82,-2429.38 71.94,-2446.47 55.2,-2470.55 55.2,-2488.38 71.94,-2512.47 75.68,-2517.84 80.07,-2522.63 84.95,-2526.91"/>
<polygon fill="purple" stroke="purple" stroke-width="5" points="82.41,-2530.48 92.98,-2533.2 87.81,-2523.59 82.41,-2530.48"/>
<text text-anchor="middle" x="203.44" y="-2496.47" font-family="Arial" font-size="20.00" fill="purple">start_next: 04/11/17, 14:07:45</text>
<text text-anchor="middle" x="203.44" y="-2474.47" font-family="Arial" font-size="20.00" fill="purple">gap: &#45;9sec</text>
<text text-anchor="middle" x="203.44" y="-2452.47" font-family="Arial" font-size="20.00" fill="purple">end_prev: 04/11/17, 14:07:55</text>
</g>
<!-- SURFING
wsman&#45;&gt;INFO DISCOVERY
wsman -->
<g id="edge32" class="edge">
<title>SURFING
wsman&#45;&gt;INFO DISCOVERY
wsman</title>
<path fill="none" stroke="purple" stroke-width="5" d="M286.68,-2412.58C304.44,-2419.89 321.12,-2430.65 331.94,-2446.47 348.5,-2470.68 348.5,-2488.25 331.94,-2512.47 328.69,-2517.23 324.9,-2521.53 320.71,-2525.42"/>
<polygon fill="purple" stroke="purple" stroke-width="5" points="317.69,-2522.24 312.77,-2531.98 323.26,-2528.98 317.69,-2522.24"/>
<text text-anchor="middle" x="476.44" y="-2496.47" font-family="Arial" font-size="20.00" fill="purple">start_next: 04/11/17, 17:57:47</text>
<text text-anchor="middle" x="476.44" y="-2474.47" font-family="Arial" font-size="20.00" fill="purple">gap: &#45;9sec</text>
<text text-anchor="middle" x="476.44" y="-2452.47" font-family="Arial" font-size="20.00" fill="purple">end_prev: 04/11/17, 17:57:56</text>
</g>
<!-- INFO DISCOVERY
wsman&#45;&gt;DATA EXFILTRATION
wsman | ID: 63 -->
<g id="edge9" class="edge">
<title>INFO DISCOVERY
wsman&#45;&gt;DATA EXFILTRATION
wsman | ID: 63</title>
<path fill="none" stroke="purple" stroke-width="5" d="M92.98,-2592.59C84.86,-2598.29 77.64,-2605.13 71.94,-2613.32 55.2,-2637.4 55.71,-2654.88 71.94,-2679.32 73.88,-2682.24 76.01,-2685.01 78.29,-2687.64"/>
<polygon fill="purple" stroke="purple" stroke-width="5" points="75.47,-2691.01 85.6,-2695.09 81.72,-2684.89 75.47,-2691.01"/>
<text text-anchor="middle" x="203.44" y="-2663.32" font-family="Arial" font-size="20.00" fill="purple">start_next: 04/11/17, 14:07:47</text>
<text text-anchor="middle" x="203.44" y="-2641.32" font-family="Arial" font-size="20.00" fill="purple">gap: 1sec</text>
<text text-anchor="middle" x="203.44" y="-2619.32" font-family="Arial" font-size="20.00" fill="purple">end_prev: 04/11/17, 14:07:45</text>
</g>
<!-- INFO DISCOVERY
wsman&#45;&gt;DATA EXFILTRATION
wsman | ID: 63 -->
<g id="edge33" class="edge">
<title>INFO DISCOVERY
wsman&#45;&gt;DATA EXFILTRATION
wsman | ID: 63</title>
<path fill="none" stroke="purple" stroke-width="5" d="M312.77,-2593.81C320.16,-2599.26 326.73,-2605.7 331.94,-2613.32 348.5,-2637.53 347.96,-2654.75 331.94,-2679.32 330.47,-2681.57 328.89,-2683.73 327.21,-2685.81"/>
<polygon fill="purple" stroke="purple" stroke-width="5" points="323.79,-2683.07 320.25,-2693.39 330.23,-2688.98 323.79,-2683.07"/>
<text text-anchor="middle" x="476.44" y="-2663.32" font-family="Arial" font-size="20.00" fill="purple">start_next: 04/11/17, 17:57:48</text>
<text text-anchor="middle" x="476.44" y="-2641.32" font-family="Arial" font-size="20.00" fill="purple">gap: 1sec</text>
<text text-anchor="middle" x="476.44" y="-2619.32" font-family="Arial" font-size="20.00" fill="purple">end_prev: 04/11/17, 17:57:47</text>
</g>
<!-- SURFING
unknown -->
<g id="node11" class="node">
<title>SURFING
unknown</title>
<g id="a_node11"><a xlink:title="ET WEB_SERVER WEB&#45;PHP phpinfo access">
<ellipse fill="yellow" stroke="black" stroke-width="3" cx="1269.94" cy="-222.41" rx="88.28" ry="42.35"/>
<text text-anchor="middle" x="1269.94" y="-229.21" font-family="Arial" font-size="24.00">SURFING</text>
<text text-anchor="middle" x="1269.94" y="-203.21" font-family="Arial" font-size="24.00">unknown</text>
</a>
</g>
</g>
<!-- INFO DISCOVERY
unknown -->
<g id="node12" class="node">
<title>INFO DISCOVERY
unknown</title>
<g id="a_node12"><a xlink:title="GPL WEB_SERVER globals.pl access">
<ellipse fill="none" stroke="black" stroke-width="3" cx="1269.94" cy="-403.26" rx="156.04" ry="42.35"/>
<text text-anchor="middle" x="1269.94" y="-410.06" font-family="Arial" font-size="24.00">INFO DISCOVERY</text>
<text text-anchor="middle" x="1269.94" y="-384.06" font-family="Arial" font-size="24.00">unknown</text>
</a>
</g>
</g>
<!-- SURFING
unknown&#45;&gt;INFO DISCOVERY
unknown -->
<g id="edge10" class="edge">
<title>SURFING
unknown&#45;&gt;INFO DISCOVERY
unknown</title>
<path fill="none" stroke="purple" stroke-width="5" d="M1269.94,-264.89C1269.94,-290.42 1269.94,-323.35 1269.94,-350.57"/>
<polygon fill="purple" stroke="purple" stroke-width="5" points="1265.57,-350.69 1269.94,-360.69 1274.32,-350.69 1265.57,-350.69"/>
<text text-anchor="start" x="1269.94" y="-337.83" font-family="Arial" font-size="20.00" fill="purple"> start_next: 04/11/17, 14:16:08</text>
<text text-anchor="start" x="1351.44" y="-317.83" font-family="Arial" font-size="20.00" fill="purple">gap: &#45;10sec</text>
<text text-anchor="start" x="1273.94" y="-297.83" font-family="Arial" font-size="20.00" fill="purple">end_prev: 04/11/17, 14:16:18</text>
<text text-anchor="start" x="1304.44" y="-277.83" font-family="Arial" font-weight="bold" font-size="20.00" fill="purple">Attacker: 10.0.254.30</text>
</g>
<!-- DATA EXFILTRATION
unknown | ID: 57 -->
<g id="node13" class="node">
<title>DATA EXFILTRATION
unknown | ID: 57</title>
<g id="a_node13"><a xlink:title="ET WEB_SPECIFIC_APPS PHP&#45;CGI query string parameter vulnerability">
<polygon fill="none" stroke="black" stroke-width="3" points="1474.82,-576.68 1372.38,-625.65 1167.5,-625.65 1065.06,-576.68 1167.5,-527.7 1372.38,-527.7 1474.82,-576.68"/>
<text text-anchor="middle" x="1269.94" y="-583.48" font-family="Arial" font-size="24.00">DATA EXFILTRATION</text>
<text text-anchor="middle" x="1269.94" y="-557.48" font-family="Arial" font-size="24.00">unknown | ID: 57</text>
</a>
</g>
</g>
<!-- INFO DISCOVERY
unknown&#45;&gt;DATA EXFILTRATION
unknown | ID: 57 -->
<g id="edge11" class="edge">
<title>INFO DISCOVERY
unknown&#45;&gt;DATA EXFILTRATION
unknown | ID: 57</title>
<path fill="none" stroke="purple" stroke-width="5" d="M1269.94,-445.75C1269.94,-467.25 1269.94,-493.84 1269.94,-517.37"/>
<polygon fill="purple" stroke="purple" stroke-width="5" points="1265.57,-517.58 1269.94,-527.58 1274.32,-517.58 1265.57,-517.58"/>
<text text-anchor="middle" x="1401.44" y="-503.69" font-family="Arial" font-size="20.00" fill="purple">start_next: 04/11/17, 14:16:10</text>
<text text-anchor="middle" x="1401.44" y="-481.69" font-family="Arial" font-size="20.00" fill="purple">gap: 1sec</text>
<text text-anchor="middle" x="1401.44" y="-459.69" font-family="Arial" font-size="20.00" fill="purple">end_prev: 04/11/17, 14:16:08</text>
</g>
<!-- HOST DISCOVERY
http -->
<g id="node14" class="node">
<title>HOST DISCOVERY
http</title>
<g id="a_node14"><a xlink:title="ET SCAN Possible Nmap User&#45;Agent Observed&#10;ET SCAN Nmap Scripting Engine User&#45;Agent Detected (Nmap Scripting Engine)">
<ellipse fill="none" stroke="black" stroke-width="3" cx="1585.94" cy="-750.09" rx="162.77" ry="42.35"/>
<text text-anchor="middle" x="1585.94" y="-756.89" font-family="Arial" font-size="24.00">HOST DISCOVERY</text>
<text text-anchor="middle" x="1585.94" y="-730.89" font-family="Arial" font-size="24.00">http</text>
</a>
</g>
</g>
<!-- DATA EXFILTRATION
unknown | ID: 57&#45;&gt;HOST DISCOVERY
http -->
<g id="edge12" class="edge">
<title>DATA EXFILTRATION
unknown | ID: 57&#45;&gt;HOST DISCOVERY
http</title>
<path fill="none" stroke="purple" stroke-width="5" d="M1285.51,-625.88C1296.25,-651.61 1313.15,-681.61 1337.94,-699.66 1354.25,-711.54 1390.82,-721.27 1431,-728.85"/>
<polygon fill="purple" stroke="purple" stroke-width="5" points="1430.38,-733.18 1441.01,-730.68 1431.96,-724.57 1430.38,-733.18"/>
<text text-anchor="middle" x="1469.44" y="-683.66" font-family="Arial" font-size="20.00" fill="purple">start_next: 04/11/17, 15:53:10</text>
<text text-anchor="middle" x="1469.44" y="-661.66" font-family="Arial" font-size="20.00" fill="purple">gap: 5812sec</text>
<text text-anchor="middle" x="1469.44" y="-639.66" font-family="Arial" font-size="20.00" fill="purple">end_prev: 04/11/17, 14:16:18</text>
</g>
<!-- VULNERABILTY DISCOVERY
http -->
<g id="node15" class="node">
<title>VULNERABILTY DISCOVERY
http</title>
<g id="a_node15"><a xlink:title="ET SCAN Nikto Web App Scan in Progress">
<ellipse fill="none" stroke="black" stroke-width="3" cx="1305.94" cy="-916.94" rx="241.25" ry="42.35"/>
<text text-anchor="middle" x="1305.94" y="-923.74" font-family="Arial" font-size="24.00">VULNERABILTY DISCOVERY</text>
<text text-anchor="middle" x="1305.94" y="-897.74" font-family="Arial" font-size="24.00">http</text>
</a>
</g>
</g>
<!-- HOST DISCOVERY
http&#45;&gt;VULNERABILTY DISCOVERY
http -->
<g id="edge13" class="edge">
<title>HOST DISCOVERY
http&#45;&gt;VULNERABILTY DISCOVERY
http</title>
<path fill="none" stroke="purple" stroke-width="5" d="M1446.23,-771.86C1409.65,-779.49 1376.4,-789.11 1361.94,-800.52 1341.59,-816.58 1328.17,-841.89 1319.59,-864.72"/>
<polygon fill="purple" stroke="purple" stroke-width="5" points="1315.4,-863.43 1316.2,-874.32 1323.65,-866.35 1315.4,-863.43"/>
<text text-anchor="middle" x="1493.44" y="-850.52" font-family="Arial" font-size="20.00" fill="purple">start_next: 04/11/17, 15:54:12</text>
<text text-anchor="middle" x="1493.44" y="-828.52" font-family="Arial" font-size="20.00" fill="purple">gap: 62sec</text>
<text text-anchor="middle" x="1493.44" y="-806.52" font-family="Arial" font-size="20.00" fill="purple">end_prev: 04/11/17, 15:53:10</text>
</g>
<!-- INFO DISCOVERY
xdmcp -->
<g id="node20" class="node">
<title>INFO DISCOVERY
xdmcp</title>
<g id="a_node20"><a xlink:title="GPL DNS named version attempt&#10;GPL RPC xdmcp info query">
<ellipse fill="none" stroke="black" stroke-width="3" cx="1709.94" cy="-916.94" rx="156.04" ry="42.35"/>
<text text-anchor="middle" x="1709.94" y="-923.74" font-family="Arial" font-size="24.00">INFO DISCOVERY</text>
<text text-anchor="middle" x="1709.94" y="-897.74" font-family="Arial" font-size="24.00">xdmcp</text>
</a>
</g>
</g>
<!-- HOST DISCOVERY
http&#45;&gt;INFO DISCOVERY
xdmcp -->
<g id="edge22" class="edge">
<title>HOST DISCOVERY
http&#45;&gt;INFO DISCOVERY
xdmcp</title>
<path fill="none" stroke="purple" stroke-width="5" d="M1616.59,-791.84C1633.66,-814.53 1655.02,-842.93 1673,-866.84"/>
<polygon fill="purple" stroke="purple" stroke-width="5" points="1669.7,-869.73 1679.21,-875.09 1676.7,-864.47 1669.7,-869.73"/>
<text text-anchor="middle" x="1800.44" y="-850.52" font-family="Arial" font-size="20.00" fill="purple">start_next: 04/11/17, 16:43:55</text>
<text text-anchor="middle" x="1800.44" y="-828.52" font-family="Arial" font-size="20.00" fill="purple">gap: 214sec</text>
<text text-anchor="middle" x="1800.44" y="-806.52" font-family="Arial" font-size="20.00" fill="purple">end_prev: 04/11/17, 16:40:22</text>
</g>
<!-- ARBITRARY CODE EXECUTION
http | ID: 32 -->
<g id="node16" class="node">
<title>ARBITRARY CODE EXECUTION
http | ID: 32</title>
<g id="a_node16"><a xlink:title="ET CURRENT_EVENTS QNAP Shellshock CVE&#45;2014&#45;6271">
<polygon fill="none" stroke="black" stroke-width="3" points="1493.44,-1101.37 1118.44,-1101.37 1118.44,-1041.37 1493.44,-1041.37 1493.44,-1101.37"/>
<text text-anchor="middle" x="1305.94" y="-1078.17" font-family="Arial" font-size="24.00">ARBITRARY CODE EXECUTION</text>
<text text-anchor="middle" x="1305.94" y="-1052.17" font-family="Arial" font-size="24.00">http | ID: 32</text>
</a>
</g>
</g>
<!-- VULNERABILTY DISCOVERY
http&#45;&gt;ARBITRARY CODE EXECUTION
http | ID: 32 -->
<g id="edge14" class="edge">
<title>VULNERABILTY DISCOVERY
http&#45;&gt;ARBITRARY CODE EXECUTION
http | ID: 32</title>
<path fill="none" stroke="purple" stroke-width="5" d="M1305.94,-959.6C1305.94,-981.87 1305.94,-1009.13 1305.94,-1031.04"/>
<polygon fill="purple" stroke="purple" stroke-width="5" points="1301.57,-1031.32 1305.94,-1041.32 1310.32,-1031.32 1301.57,-1031.32"/>
<text text-anchor="middle" x="1437.44" y="-1017.37" font-family="Arial" font-size="20.00" fill="purple">start_next: 04/11/17, 15:54:13</text>
<text text-anchor="middle" x="1437.44" y="-995.37" font-family="Arial" font-size="20.00" fill="purple">gap: 1sec</text>
<text text-anchor="middle" x="1437.44" y="-973.37" font-family="Arial" font-size="20.00" fill="purple">end_prev: 04/11/17, 15:54:12</text>
</g>
<!-- ARBITRARY CODE EXECUTION
http | ID: 32&#45;&gt;SURFING
http -->
<g id="edge15" class="edge">
<title>ARBITRARY CODE EXECUTION
http | ID: 32&#45;&gt;SURFING
http</title>
<path fill="none" stroke="purple" stroke-width="5" d="M1305.94,-1101.53C1305.94,-1123.37 1305.94,-1153.83 1305.94,-1179.75"/>
<polygon fill="purple" stroke="purple" stroke-width="5" points="1301.57,-1179.81 1305.94,-1189.81 1310.32,-1179.81 1301.57,-1179.81"/>
<text text-anchor="middle" x="1437.44" y="-1159.37" font-family="Arial" font-size="20.00" fill="purple">start_next: 04/11/17, 15:54:15</text>
<text text-anchor="middle" x="1437.44" y="-1137.37" font-family="Arial" font-size="20.00" fill="purple">gap: 1sec</text>
<text text-anchor="middle" x="1437.44" y="-1115.37" font-family="Arial" font-size="20.00" fill="purple">end_prev: 04/11/17, 15:54:13</text>
</g>
<!-- SERVICE DISCOVERY
ff&#45;ice -->
<g id="node18" class="node">
<title>SERVICE DISCOVERY
ff&#45;ice</title>
<g id="a_node18"><a xlink:title="ET SCAN Potential VNC Scan 5800&#45;5820&#10;ET SCAN Potential VNC Scan 5900&#45;5920">
<ellipse fill="none" stroke="black" stroke-width="3" cx="1632.94" cy="-403.26" rx="189.51" ry="42.35"/>
<text text-anchor="middle" x="1632.94" y="-410.06" font-family="Arial" font-size="24.00">SERVICE DISCOVERY</text>
<text text-anchor="middle" x="1632.94" y="-384.06" font-family="Arial" font-size="24.00">ff&#45;ice</text>
</a>
</g>
</g>
<!-- VULNERABILTY DISCOVERY
mysql&#45;&gt;SERVICE DISCOVERY
ff&#45;ice -->
<g id="edge19" class="edge">
<title>VULNERABILTY DISCOVERY
mysql&#45;&gt;SERVICE DISCOVERY
ff&#45;ice</title>
<path fill="none" stroke="purple" stroke-width="5" d="M1619.12,-264.89C1621.68,-290.42 1625,-323.35 1627.74,-350.57"/>
<polygon fill="purple" stroke="purple" stroke-width="5" points="1623.4,-351.18 1628.76,-360.69 1632.11,-350.3 1623.4,-351.18"/>
<text text-anchor="middle" x="1758.44" y="-329.83" font-family="Arial" font-size="20.00" fill="purple">start_next: 04/11/17, 16:39:58</text>
<text text-anchor="middle" x="1758.44" y="-307.83" font-family="Arial" font-size="20.00" fill="purple">gap: &#45;461sec</text>
<text text-anchor="middle" x="1758.44" y="-285.83" font-family="Arial" font-size="20.00" fill="purple">end_prev: 04/11/17, 16:47:39</text>
</g>
<!-- COMMAND AND CONTROL
unknown | ID: 39 -->
<g id="node19" class="node">
<title>COMMAND AND CONTROL
unknown | ID: 39</title>
<g id="a_node19"><a xlink:title="ET POLICY RDP connection confirm">
<polygon fill="none" stroke="black" stroke-width="3" points="1804.44,-606.68 1481.44,-606.68 1481.44,-546.68 1804.44,-546.68 1804.44,-606.68"/>
<text text-anchor="middle" x="1642.94" y="-583.48" font-family="Arial" font-size="24.00">COMMAND AND CONTROL</text>
<text text-anchor="middle" x="1642.94" y="-557.48" font-family="Arial" font-size="24.00">unknown | ID: 39</text>
</a>
</g>
</g>
<!-- SERVICE DISCOVERY
ff&#45;ice&#45;&gt;COMMAND AND CONTROL
unknown | ID: 39 -->
<g id="edge20" class="edge">
<title>SERVICE DISCOVERY
ff&#45;ice&#45;&gt;COMMAND AND CONTROL
unknown | ID: 39</title>
<path fill="none" stroke="purple" stroke-width="5" d="M1635.36,-445.75C1636.97,-473.31 1639.07,-509.26 1640.65,-536.35"/>
<polygon fill="purple" stroke="purple" stroke-width="5" points="1636.3,-536.91 1641.25,-546.64 1645.03,-536.4 1636.3,-536.91"/>
<text text-anchor="middle" x="1770.44" y="-503.69" font-family="Arial" font-size="20.00" fill="purple">start_next: 04/11/17, 16:40:20</text>
<text text-anchor="middle" x="1770.44" y="-481.69" font-family="Arial" font-size="20.00" fill="purple">gap: &#45;121sec</text>
<text text-anchor="middle" x="1770.44" y="-459.69" font-family="Arial" font-size="20.00" fill="purple">end_prev: 04/11/17, 16:42:21</text>
</g>
<!-- COMMAND AND CONTROL
unknown | ID: 39&#45;&gt;HOST DISCOVERY
http -->
<g id="edge21" class="edge">
<title>COMMAND AND CONTROL
unknown | ID: 39&#45;&gt;HOST DISCOVERY
http</title>
<path fill="none" stroke="purple" stroke-width="5" d="M1633.27,-606.75C1625,-631.64 1612.89,-668.06 1602.99,-697.83"/>
<polygon fill="purple" stroke="purple" stroke-width="5" points="1598.73,-696.77 1599.72,-707.64 1607.03,-699.53 1598.73,-696.77"/>
<text text-anchor="middle" x="1753.44" y="-683.66" font-family="Arial" font-size="20.00" fill="purple">start_next: 04/11/17, 16:40:20</text>
<text text-anchor="middle" x="1753.44" y="-661.66" font-family="Arial" font-size="20.00" fill="purple">gap: 0sec</text>
<text text-anchor="middle" x="1753.44" y="-639.66" font-family="Arial" font-size="20.00" fill="purple">end_prev: 04/11/17, 16:40:20</text>
</g>
<!-- ACCOUNT MANIPULATION
snmp | ID: 300 -->
<g id="node21" class="node">
<title>ACCOUNT MANIPULATION
snmp | ID: 300</title>
<g id="a_node21"><a xlink:title="GPL SNMP public access udp">
<polygon fill="none" stroke="black" stroke-width="3" points="1844.94,-1101.37 1524.94,-1101.37 1524.94,-1041.37 1844.94,-1041.37 1844.94,-1101.37"/>
<text text-anchor="middle" x="1684.94" y="-1078.17" font-family="Arial" font-size="24.00">ACCOUNT MANIPULATION</text>
<text text-anchor="middle" x="1684.94" y="-1052.17" font-family="Arial" font-size="24.00">snmp | ID: 300</text>
</a>
</g>
</g>
<!-- INFO DISCOVERY
xdmcp&#45;&gt;ACCOUNT MANIPULATION
snmp | ID: 300 -->
<g id="edge23" class="edge">
<title>INFO DISCOVERY
xdmcp&#45;&gt;ACCOUNT MANIPULATION
snmp | ID: 300</title>
<path fill="none" stroke="purple" stroke-width="5" d="M1703.11,-959.6C1699.44,-981.97 1694.94,-1009.38 1691.34,-1031.34"/>
<polygon fill="purple" stroke="purple" stroke-width="5" points="1687.01,-1030.74 1689.71,-1041.32 1695.64,-1032.16 1687.01,-1030.74"/>
<text text-anchor="middle" x="1832.44" y="-1017.37" font-family="Arial" font-size="20.00" fill="purple">start_next: 04/11/17, 16:45:52</text>
<text text-anchor="middle" x="1832.44" y="-995.37" font-family="Arial" font-size="20.00" fill="purple">gap: 0sec</text>
<text text-anchor="middle" x="1832.44" y="-973.37" font-family="Arial" font-size="20.00" fill="purple">end_prev: 04/11/17, 16:45:52</text>
</g>
<!-- NETWORK DoS
ms&#45;wbt&#45;server | ID: 36 -->
<g id="node22" class="node">
<title>NETWORK DoS
ms&#45;wbt&#45;server | ID: 36</title>
<g id="a_node22"><a xlink:title="ET DOS Microsoft Remote Desktop (RDP) Syn then Reset 30 Second DoS Attempt">
<polygon fill="none" stroke="black" stroke-width="3" points="1869.22,-1232.36 1765.58,-1281.34 1558.3,-1281.34 1454.66,-1232.36 1558.3,-1183.38 1765.58,-1183.38 1869.22,-1232.36"/>
<text text-anchor="middle" x="1661.94" y="-1239.16" font-family="Arial" font-size="24.00">NETWORK DoS</text>
<text text-anchor="middle" x="1661.94" y="-1213.16" font-family="Arial" font-size="24.00">ms&#45;wbt&#45;server | ID: 36</text>
</a>
</g>
</g>
<!-- ACCOUNT MANIPULATION
snmp | ID: 300&#45;&gt;NETWORK DoS
ms&#45;wbt&#45;server | ID: 36 -->
<g id="edge24" class="edge">
<title>ACCOUNT MANIPULATION
snmp | ID: 300&#45;&gt;NETWORK DoS
ms&#45;wbt&#45;server | ID: 36</title>
<path fill="none" stroke="purple" stroke-width="5" d="M1680.72,-1101.53C1677.82,-1121.62 1673.85,-1149 1670.32,-1173.44"/>
<polygon fill="purple" stroke="purple" stroke-width="5" points="1665.99,-1172.82 1668.89,-1183.34 1674.65,-1174.07 1665.99,-1172.82"/>
<text text-anchor="middle" x="1810.44" y="-1159.37" font-family="Arial" font-size="20.00" fill="purple">start_next: 04/11/17, 16:47:39</text>
<text text-anchor="middle" x="1810.44" y="-1137.37" font-family="Arial" font-size="20.00" fill="purple">gap: 107sec</text>
<text text-anchor="middle" x="1810.44" y="-1115.37" font-family="Arial" font-size="20.00" fill="purple">end_prev: 04/11/17, 16:45:52</text>
</g>
<!-- VULNERABILTY DISCOVERY
ahsp -->
<g id="node23" class="node">
<title>VULNERABILTY DISCOVERY
ahsp</title>
<g id="a_node23"><a xlink:title="ET POLICY Suspicious inbound to mSQL port 4333">
<ellipse fill="none" stroke="black" stroke-width="3" cx="1555.94" cy="-1419.78" rx="241.25" ry="42.35"/>
<text text-anchor="middle" x="1555.94" y="-1426.58" font-family="Arial" font-size="24.00">VULNERABILTY DISCOVERY</text>
<text text-anchor="middle" x="1555.94" y="-1400.58" font-family="Arial" font-size="24.00">ahsp</text>
</a>
</g>
</g>
<!-- NETWORK DoS
ms&#45;wbt&#45;server | ID: 36&#45;&gt;VULNERABILTY DISCOVERY
ahsp -->
<g id="edge25" class="edge">
<title>NETWORK DoS
ms&#45;wbt&#45;server | ID: 36&#45;&gt;VULNERABILTY DISCOVERY
ahsp</title>
<path fill="none" stroke="purple" stroke-width="5" d="M1651.56,-1281.55C1644.09,-1308.94 1632.09,-1342.94 1613.94,-1369.35 1613.74,-1369.64 1613.55,-1369.92 1613.34,-1370.21"/>
<polygon fill="purple" stroke="purple" stroke-width="5" points="1609.76,-1367.69 1607.02,-1378.26 1616.64,-1373.1 1609.76,-1367.69"/>
<text text-anchor="middle" x="1779.44" y="-1346.35" font-family="Arial" font-size="20.00" fill="purple">start_next: 04/11/17, 16:54:44</text>
<text text-anchor="middle" x="1779.44" y="-1324.35" font-family="Arial" font-size="20.00" fill="purple">gap: 425sec</text>
<text text-anchor="middle" x="1779.44" y="-1302.35" font-family="Arial" font-size="20.00" fill="purple">end_prev: 04/11/17, 16:47:39</text>
</g>
<!-- SERVICE DISCOVERY
unknown -->
<g id="node24" class="node">
<title>SERVICE DISCOVERY
unknown</title>
<g id="a_node24"><a xlink:title="ET SCAN Potential VNC Scan 5800&#45;5820&#10;ET SCAN Potential VNC Scan 5900&#45;5920">
<ellipse fill="none" stroke="black" stroke-width="3" cx="1133.94" cy="-1586.63" rx="189.51" ry="42.35"/>
<text text-anchor="middle" x="1133.94" y="-1593.43" font-family="Arial" font-size="24.00">SERVICE DISCOVERY</text>
<text text-anchor="middle" x="1133.94" y="-1567.43" font-family="Arial" font-size="24.00">unknown</text>
</a>
</g>
</g>
<!-- VULNERABILTY DISCOVERY
ahsp&#45;&gt;SERVICE DISCOVERY
unknown -->
<g id="edge26" class="edge">
<title>VULNERABILTY DISCOVERY
ahsp&#45;&gt;SERVICE DISCOVERY
unknown</title>
<path fill="none" stroke="purple" stroke-width="5" d="M1458.86,-1458.7C1392.15,-1484.76 1303.74,-1519.3 1235.99,-1545.77"/>
<polygon fill="purple" stroke="purple" stroke-width="5" points="1234.29,-1541.73 1226.57,-1549.44 1237.47,-1549.88 1234.29,-1541.73"/>
<text text-anchor="middle" x="1550.44" y="-1520.2" font-family="Arial" font-size="20.00" fill="purple">start_next: 04/11/17, 17:31:35</text>
<text text-anchor="middle" x="1550.44" y="-1498.2" font-family="Arial" font-size="20.00" fill="purple">gap: 2211sec</text>
<text text-anchor="middle" x="1550.44" y="-1476.2" font-family="Arial" font-size="20.00" fill="purple">end_prev: 04/11/17, 16:54:44</text>
</g>
<!-- SERVICE DISCOVERY
unknown&#45;&gt;VULNERABILTY DISCOVERY
ncube&#45;lm -->
<g id="edge27" class="edge">
<title>SERVICE DISCOVERY
unknown&#45;&gt;VULNERABILTY DISCOVERY
ncube&#45;lm</title>
<path fill="none" stroke="purple" stroke-width="5" d="M1013.45,-1619.51C909.93,-1646.91 760.56,-1686.43 651.59,-1715.26"/>
<polygon fill="purple" stroke="purple" stroke-width="5" points="650.38,-1711.06 641.84,-1717.85 652.62,-1719.52 650.38,-1711.06"/>
<text text-anchor="middle" x="1064.44" y="-1687.06" font-family="Arial" font-size="20.00" fill="purple">start_next: 04/11/17, 17:34:18</text>
<text text-anchor="middle" x="1064.44" y="-1665.06" font-family="Arial" font-size="20.00" fill="purple">gap: &#45;75sec</text>
<text text-anchor="middle" x="1064.44" y="-1643.06" font-family="Arial" font-size="20.00" fill="purple">end_prev: 04/11/17, 17:35:33</text>
</g>
<!-- VULNERABILTY DISCOVERY
wsman -->
<g id="node26" class="node">
<title>VULNERABILTY DISCOVERY
wsman</title>
<g id="a_node26"><a xlink:title="ET SCAN Nikto Web App Scan in Progress">
<ellipse fill="none" stroke="black" stroke-width="3" cx="707.94" cy="-2229.19" rx="241.25" ry="42.35"/>
<text text-anchor="middle" x="707.94" y="-2235.99" font-family="Arial" font-size="24.00">VULNERABILTY DISCOVERY</text>
<text text-anchor="middle" x="707.94" y="-2209.99" font-family="Arial" font-size="24.00">wsman</text>
</a>
</g>
</g>
<!-- BRUTE FORCE CREDENTIALS
unknown | ID: 1&#45;&gt;VULNERABILTY DISCOVERY
wsman -->
<g id="edge30" class="edge">
<title>BRUTE FORCE CREDENTIALS
unknown | ID: 1&#45;&gt;VULNERABILTY DISCOVERY
wsman</title>
<path fill="none" stroke="purple" stroke-width="5" d="M677.99,-2104.79C682.9,-2125.05 689.6,-2152.63 695.41,-2176.59"/>
<polygon fill="purple" stroke="purple" stroke-width="5" points="691.23,-2177.91 697.84,-2186.6 699.74,-2175.85 691.23,-2177.91"/>
<text text-anchor="middle" x="826.44" y="-2162.76" font-family="Arial" font-size="20.00" fill="purple">start_next: 04/11/17, 17:57:42</text>
<text text-anchor="middle" x="826.44" y="-2140.76" font-family="Arial" font-size="20.00" fill="purple">gap: 1171sec</text>
<text text-anchor="middle" x="826.44" y="-2118.76" font-family="Arial" font-size="20.00" fill="purple">end_prev: 04/11/17, 17:38:11</text>
</g>
<!-- VULNERABILTY DISCOVERY
wsman&#45;&gt;SURFING
wsman -->
<g id="edge31" class="edge">
<title>VULNERABILTY DISCOVERY
wsman&#45;&gt;SURFING
wsman</title>
<path fill="none" stroke="purple" stroke-width="5" d="M596,-2266.88C502.34,-2297.57 370.9,-2340.65 286.82,-2368.2"/>
<polygon fill="purple" stroke="purple" stroke-width="5" points="285.46,-2364.05 277.32,-2371.32 288.18,-2372.36 285.46,-2364.05"/>
<text text-anchor="middle" x="677.44" y="-2329.61" font-family="Arial" font-size="20.00" fill="purple">start_next: 04/11/17, 17:57:44</text>
<text text-anchor="middle" x="677.44" y="-2307.61" font-family="Arial" font-size="20.00" fill="purple">gap: 1sec</text>
<text text-anchor="middle" x="677.44" y="-2285.61" font-family="Arial" font-size="20.00" fill="purple">end_prev: 04/11/17, 17:57:42</text>
</g>
</g>
</svg>
