<?xml version="1.0" encoding="UTF-8" standalone="no"?>
<!DOCTYPE svg PUBLIC "-//W3C//DTD SVG 1.1//EN"
 "http://www.w3.org/Graphics/SVG/1.1/DTD/svg11.dtd">
<!-- Generated by graphviz version 2.50.0 (0)
 -->
<!-- Title: DATAEXFILTRATIONunknown Pages: 1 -->
<svg width="1612pt" height="2577pt"
 viewBox="0.00 0.00 1612.12 2577.38" xmlns="http://www.w3.org/2000/svg" xmlns:xlink="http://www.w3.org/1999/xlink">
<g id="graph0" class="graph" transform="scale(1 1) rotate(0) translate(4 2573.38)">
<title>DATAEXFILTRATIONunknown</title>
<polygon fill="white" stroke="transparent" points="-4,4 -4,-2573.38 1608.12,-2573.38 1608.12,4 -4,4"/>
<!-- Victim: 10.0.0.221
DATA EXFILTRATION
unknown -->
<g id="node1" class="node">
<title>Victim: 10.0.0.221
DATA EXFILTRATION
unknown</title>
<polygon fill="salmon" stroke="black" stroke-width="3" points="1533.34,-2472.37 1533.34,-2526.76 1420.74,-2565.22 1261.51,-2565.22 1148.91,-2526.76 1148.91,-2472.37 1261.51,-2433.91 1420.74,-2433.91 1533.34,-2472.37"/>
<polygon fill="none" stroke="black" stroke-width="3" points="1537.34,-2469.52 1537.34,-2529.61 1421.41,-2569.21 1260.84,-2569.21 1144.91,-2529.61 1144.91,-2469.52 1260.84,-2429.92 1421.41,-2429.92 1537.34,-2469.52"/>
<text text-anchor="middle" x="1341.12" y="-2519.36" font-family="Arial" font-size="24.00">Victim: 10.0.0.221</text>
<text text-anchor="middle" x="1341.12" y="-2493.36" font-family="Arial" font-size="24.00">DATA EXFILTRATION</text>
<text text-anchor="middle" x="1341.12" y="-2467.36" font-family="Arial" font-size="24.00">unknown</text>
</g>
<!-- DATA EXFILTRATION
unknown | ID: 57 -->
<g id="node2" class="node">
<title>DATA EXFILTRATION
unknown | ID: 57</title>
<g id="a_node2"><a xlink:title="ET WEB_SPECIFIC_APPS PHP&#45;CGI query string parameter vulnerability">
<polygon fill="salmon" stroke="black" stroke-width="3" points="1546,-2363.75 1443.56,-2412.73 1238.68,-2412.73 1136.24,-2363.75 1238.68,-2314.77 1443.56,-2314.77 1546,-2363.75"/>
<text text-anchor="middle" x="1341.12" y="-2370.55" font-family="Arial" font-size="24.00">DATA EXFILTRATION</text>
<text text-anchor="middle" x="1341.12" y="-2344.55" font-family="Arial" font-size="24.00">unknown | ID: 57</text>
</a>
</g>
</g>
<!-- DATA EXFILTRATION
unknown | ID: 57&#45;&gt;Victim: 10.0.0.221
DATA EXFILTRATION
unknown -->
<g id="edge1" class="edge">
<title>DATA EXFILTRATION
unknown | ID: 57&#45;&gt;Victim: 10.0.0.221
DATA EXFILTRATION
unknown</title>
<path fill="none" stroke="black" stroke-width="5" d="M1341.12,-2413.06C1341.12,-2415.17 1341.12,-2417.3 1341.12,-2419.45"/>
<polygon fill="black" stroke="black" stroke-width="5" points="1336.75,-2419.6 1341.12,-2429.6 1345.5,-2419.6 1336.75,-2419.6"/>
</g>
<!-- SERVICE DISCOVERY
epmap -->
<g id="node3" class="node">
<title>SERVICE DISCOVERY
epmap</title>
<g id="a_node3"><a xlink:title="ET SCAN Behavioral Unusual Port 135 traffic Potential Scan or Infection&#10;ET SCAN Behavioral Unusual Port 139 traffic Potential Scan or Infection">
<ellipse fill="yellow" stroke="black" stroke-width="3" cx="241.12" cy="-42.43" rx="189.51" ry="42.35"/>
<text text-anchor="middle" x="241.12" y="-49.23" font-family="Arial" font-size="24.00">SERVICE DISCOVERY</text>
<text text-anchor="middle" x="241.12" y="-23.23" font-family="Arial" font-size="24.00">epmap</text>
</a>
</g>
</g>
<!-- ACCOUNT MANIPULATION
snmp | ID: 326 -->
<g id="node4" class="node">
<title>ACCOUNT MANIPULATION
snmp | ID: 326</title>
<g id="a_node4"><a xlink:title="GPL SNMP private access udp&#10;GPL SNMP public access udp">
<polygon fill="none" stroke="black" stroke-width="3" stroke-dasharray="1,5" points="401.12,-240.85 81.12,-240.85 81.12,-180.85 401.12,-180.85 401.12,-240.85"/>
<text text-anchor="middle" x="241.12" y="-217.65" font-family="Arial" font-size="24.00">ACCOUNT MANIPULATION</text>
<text text-anchor="middle" x="241.12" y="-191.65" font-family="Arial" font-size="24.00">snmp | ID: 326</text>
</a>
</g>
</g>
<!-- SERVICE DISCOVERY
epmap&#45;&gt;ACCOUNT MANIPULATION
snmp | ID: 326 -->
<g id="edge2" class="edge">
<title>SERVICE DISCOVERY
epmap&#45;&gt;ACCOUNT MANIPULATION
snmp | ID: 326</title>
<path fill="none" stroke="blue" stroke-width="5" d="M241.12,-84.99C241.12,-111.23 241.12,-144.9 241.12,-170.66"/>
<polygon fill="blue" stroke="blue" stroke-width="5" points="236.75,-170.82 241.12,-180.82 245.5,-170.82 236.75,-170.82"/>
<text text-anchor="start" x="241.12" y="-157.85" font-family="Arial" font-size="20.00" fill="blue"> start_next: 04/11/17, 14:01:59</text>
<text text-anchor="start" x="315.62" y="-137.85" font-family="Arial" font-size="20.00" fill="blue">gap: 4114sec</text>
<text text-anchor="start" x="245.12" y="-117.85" font-family="Arial" font-size="20.00" fill="blue">end_prev: 04/11/17, 12:53:25</text>
<text text-anchor="start" x="275.62" y="-97.85" font-family="Arial" font-weight="bold" font-size="20.00" fill="blue">Attacker: 10.0.254.31</text>
</g>
<!-- ARBITRARY CODE EXECUTION
microsoft&#45;ds | ID: 40 -->
<g id="node5" class="node">
<title>ARBITRARY CODE EXECUTION
microsoft&#45;ds | ID: 40</title>
<g id="a_node5"><a xlink:title="GPL MISC UPnP malformed advertisement&#10;GPL NETBIOS DCERPC Remote Activation bind attempt&#10;GPL NETBIOS SMB&#45;DS Session Setup NTMLSSP unicode asn1 overflow attempt&#10;GPL NETBIOS DCERPC IActivation little endian bind attempt">
<polygon fill="none" stroke="black" stroke-width="3" points="428.62,-382.85 53.62,-382.85 53.62,-322.85 428.62,-322.85 428.62,-382.85"/>
<text text-anchor="middle" x="241.12" y="-359.65" font-family="Arial" font-size="24.00">ARBITRARY CODE EXECUTION</text>
<text text-anchor="middle" x="241.12" y="-333.65" font-family="Arial" font-size="24.00">microsoft&#45;ds | ID: 40</text>
</a>
</g>
</g>
<!-- ACCOUNT MANIPULATION
snmp | ID: 326&#45;&gt;ARBITRARY CODE EXECUTION
microsoft&#45;ds | ID: 40 -->
<g id="edge3" class="edge">
<title>ACCOUNT MANIPULATION
snmp | ID: 326&#45;&gt;ARBITRARY CODE EXECUTION
microsoft&#45;ds | ID: 40</title>
<path fill="none" stroke="blue" stroke-width="5" d="M241.12,-240.86C241.12,-261.56 241.12,-289.64 241.12,-312.38"/>
<polygon fill="blue" stroke="blue" stroke-width="5" points="236.75,-312.4 241.12,-322.4 245.5,-312.4 236.75,-312.4"/>
<text text-anchor="middle" x="372.62" y="-298.85" font-family="Arial" font-size="20.00" fill="blue">start_next: 04/11/17, 14:02:06</text>
<text text-anchor="middle" x="372.62" y="-276.85" font-family="Arial" font-size="20.00" fill="blue">gap: &#45;225sec</text>
<text text-anchor="middle" x="372.62" y="-254.85" font-family="Arial" font-size="20.00" fill="blue">end_prev: 04/11/17, 14:05:51</text>
</g>
<!-- SERVICE DISCOVERY
microsoft&#45;ds -->
<g id="node6" class="node">
<title>SERVICE DISCOVERY
microsoft&#45;ds</title>
<g id="a_node6"><a xlink:title="ET SCAN Behavioral Unusual Port 445 traffic Potential Scan or Infection">
<ellipse fill="none" stroke="black" stroke-width="3" cx="241.12" cy="-507.28" rx="189.51" ry="42.35"/>
<text text-anchor="middle" x="241.12" y="-514.08" font-family="Arial" font-size="24.00">SERVICE DISCOVERY</text>
<text text-anchor="middle" x="241.12" y="-488.08" font-family="Arial" font-size="24.00">microsoft&#45;ds</text>
</a>
</g>
</g>
<!-- ARBITRARY CODE EXECUTION
microsoft&#45;ds | ID: 40&#45;&gt;SERVICE DISCOVERY
microsoft&#45;ds -->
<g id="edge4" class="edge">
<title>ARBITRARY CODE EXECUTION
microsoft&#45;ds | ID: 40&#45;&gt;SERVICE DISCOVERY
microsoft&#45;ds</title>
<path fill="none" stroke="blue" stroke-width="5" d="M241.12,-382.88C241.12,-403.14 241.12,-430.72 241.12,-454.68"/>
<polygon fill="blue" stroke="blue" stroke-width="5" points="236.75,-454.69 241.12,-464.69 245.5,-454.69 236.75,-454.69"/>
<text text-anchor="middle" x="372.62" y="-440.85" font-family="Arial" font-size="20.00" fill="blue">start_next: 04/11/17, 14:02:15</text>
<text text-anchor="middle" x="372.62" y="-418.85" font-family="Arial" font-size="20.00" fill="blue">gap: &#45;263sec</text>
<text text-anchor="middle" x="372.62" y="-396.85" font-family="Arial" font-size="20.00" fill="blue">end_prev: 04/11/17, 14:06:37</text>
</g>
<!-- VULNERABILTY DISCOVERY
ahsp -->
<g id="node7" class="node">
<title>VULNERABILTY DISCOVERY
ahsp</title>
<g id="a_node7"><a xlink:title="ET POLICY Suspicious inbound to mySQL port 3306&#10;ET POLICY Suspicious inbound to mSQL port 4333">
<ellipse fill="none" stroke="black" stroke-width="3" cx="241.12" cy="-674.13" rx="241.25" ry="42.35"/>
<text text-anchor="middle" x="241.12" y="-680.93" font-family="Arial" font-size="24.00">VULNERABILTY DISCOVERY</text>
<text text-anchor="middle" x="241.12" y="-654.93" font-family="Arial" font-size="24.00">ahsp</text>
</a>
</g>
</g>
<!-- SERVICE DISCOVERY
microsoft&#45;ds&#45;&gt;VULNERABILTY DISCOVERY
ahsp -->
<g id="edge5" class="edge">
<title>SERVICE DISCOVERY
microsoft&#45;ds&#45;&gt;VULNERABILTY DISCOVERY
ahsp</title>
<path fill="none" stroke="blue" stroke-width="5" d="M241.12,-549.88C241.12,-571.55 241.12,-598.26 241.12,-621.27"/>
<polygon fill="blue" stroke="blue" stroke-width="5" points="236.75,-621.55 241.12,-631.55 245.5,-621.55 236.75,-621.55"/>
<text text-anchor="middle" x="372.62" y="-607.71" font-family="Arial" font-size="20.00" fill="blue">start_next: 04/11/17, 14:03:02</text>
<text text-anchor="middle" x="372.62" y="-585.71" font-family="Arial" font-size="20.00" fill="blue">gap: &#45;181sec</text>
<text text-anchor="middle" x="372.62" y="-563.71" font-family="Arial" font-size="20.00" fill="blue">end_prev: 04/11/17, 14:06:04</text>
</g>
<!-- NETWORK DoS
ssdp | ID: 55 -->
<g id="node8" class="node">
<title>NETWORK DoS
ssdp | ID: 55</title>
<g id="a_node8"><a xlink:title="ET DOS Possible SSDP Amplification Scan in Progress&#10;ET DOS Microsoft Remote Desktop (RDP) Syn then Reset 30 Second DoS Attempt">
<polygon fill="none" stroke="black" stroke-width="3" points="397.66,-847.55 319.39,-896.53 162.86,-896.53 84.59,-847.55 162.86,-798.57 319.39,-798.57 397.66,-847.55"/>
<text text-anchor="middle" x="241.12" y="-854.35" font-family="Arial" font-size="24.00">NETWORK DoS</text>
<text text-anchor="middle" x="241.12" y="-828.35" font-family="Arial" font-size="24.00">ssdp | ID: 55</text>
</a>
</g>
</g>
<!-- VULNERABILTY DISCOVERY
ahsp&#45;&gt;NETWORK DoS
ssdp | ID: 55 -->
<g id="edge6" class="edge">
<title>VULNERABILTY DISCOVERY
ahsp&#45;&gt;NETWORK DoS
ssdp | ID: 55</title>
<path fill="none" stroke="blue" stroke-width="5" d="M241.12,-716.63C241.12,-738.12 241.12,-764.72 241.12,-788.24"/>
<polygon fill="blue" stroke="blue" stroke-width="5" points="236.75,-788.45 241.12,-798.45 245.5,-788.45 236.75,-788.45"/>
<text text-anchor="middle" x="372.62" y="-774.56" font-family="Arial" font-size="20.00" fill="blue">start_next: 04/11/17, 14:04:52</text>
<text text-anchor="middle" x="372.62" y="-752.56" font-family="Arial" font-size="20.00" fill="blue">gap: 32sec</text>
<text text-anchor="middle" x="372.62" y="-730.56" font-family="Arial" font-size="20.00" fill="blue">end_prev: 04/11/17, 14:04:19</text>
</g>
<!-- INFO DISCOVERY
xdmcp -->
<g id="node9" class="node">
<title>INFO DISCOVERY
xdmcp</title>
<g id="a_node9"><a xlink:title="GPL WEB_SERVER mod_gzip_status access&#10;GPL RPC xdmcp info query">
<ellipse fill="none" stroke="black" stroke-width="3" cx="241.12" cy="-1027.53" rx="156.04" ry="42.35"/>
<text text-anchor="middle" x="241.12" y="-1034.33" font-family="Arial" font-size="24.00">INFO DISCOVERY</text>
<text text-anchor="middle" x="241.12" y="-1008.33" font-family="Arial" font-size="24.00">xdmcp</text>
</a>
</g>
</g>
<!-- NETWORK DoS
ssdp | ID: 55&#45;&gt;INFO DISCOVERY
xdmcp -->
<g id="edge7" class="edge">
<title>NETWORK DoS
ssdp | ID: 55&#45;&gt;INFO DISCOVERY
xdmcp</title>
<path fill="none" stroke="blue" stroke-width="5" d="M241.12,-896.71C241.12,-920.85 241.12,-950.11 241.12,-974.74"/>
<polygon fill="blue" stroke="blue" stroke-width="5" points="236.75,-974.98 241.12,-984.98 245.5,-974.98 236.75,-974.98"/>
<text text-anchor="middle" x="372.62" y="-954.54" font-family="Arial" font-size="20.00" fill="blue">start_next: 04/11/17, 14:05:16</text>
<text text-anchor="middle" x="372.62" y="-932.54" font-family="Arial" font-size="20.00" fill="blue">gap: &#45;7sec</text>
<text text-anchor="middle" x="372.62" y="-910.54" font-family="Arial" font-size="20.00" fill="blue">end_prev: 04/11/17, 14:05:23</text>
</g>
<!-- REMOTE SERVICE EXPLOIT
snmp | ID: 1368 -->
<g id="node10" class="node">
<title>REMOTE SERVICE EXPLOIT
snmp | ID: 1368</title>
<g id="a_node10"><a xlink:title="ET SNMP Samsung Printer SNMP Hardcode RW Community String">
<polygon fill="none" stroke="black" stroke-width="3" stroke-dasharray="1,5" points="410.12,-1230.94 72.12,-1230.94 72.12,-1170.94 410.12,-1170.94 410.12,-1230.94"/>
<text text-anchor="middle" x="241.12" y="-1207.74" font-family="Arial" font-size="24.00">REMOTE SERVICE EXPLOIT</text>
<text text-anchor="middle" x="241.12" y="-1181.74" font-family="Arial" font-size="24.00">snmp | ID: 1368</text>
</a>
</g>
</g>
<!-- INFO DISCOVERY
xdmcp&#45;&gt;REMOTE SERVICE EXPLOIT
snmp | ID: 1368 -->
<g id="edge8" class="edge">
<title>INFO DISCOVERY
xdmcp&#45;&gt;REMOTE SERVICE EXPLOIT
snmp | ID: 1368</title>
<path fill="none" stroke="blue" stroke-width="5" d="M241.12,-1070.02C241.12,-1097.58 241.12,-1133.53 241.12,-1160.62"/>
<polygon fill="blue" stroke="blue" stroke-width="5" points="236.75,-1160.9 241.12,-1170.91 245.5,-1160.91 236.75,-1160.9"/>
<text text-anchor="middle" x="372.62" y="-1134.52" font-family="Arial" font-size="20.00" fill="blue">start_next: 04/11/17, 14:05:16</text>
<text text-anchor="middle" x="372.62" y="-1112.52" font-family="Arial" font-size="20.00" fill="blue">gap: &#45;77sec</text>
<text text-anchor="middle" x="372.62" y="-1090.52" font-family="Arial" font-size="20.00" fill="blue">end_prev: 04/11/17, 14:06:33</text>
</g>
<!-- COMMAND AND CONTROL
unknown | ID: 956 -->
<g id="node11" class="node">
<title>COMMAND AND CONTROL
unknown | ID: 956</title>
<g id="a_node11"><a xlink:title="ET POLICY RDP connection confirm">
<polygon fill="none" stroke="black" stroke-width="3" points="403.62,-1397.8 80.62,-1397.8 80.62,-1337.8 403.62,-1337.8 403.62,-1397.8"/>
<text text-anchor="middle" x="242.12" y="-1374.6" font-family="Arial" font-size="24.00">COMMAND AND CONTROL</text>
<text text-anchor="middle" x="242.12" y="-1348.6" font-family="Arial" font-size="24.00">unknown | ID: 956</text>
</a>
</g>
</g>
<!-- REMOTE SERVICE EXPLOIT
snmp | ID: 1368&#45;&gt;COMMAND AND CONTROL
unknown | ID: 956 -->
<g id="edge9" class="edge">
<title>REMOTE SERVICE EXPLOIT
snmp | ID: 1368&#45;&gt;COMMAND AND CONTROL
unknown | ID: 956</title>
<path fill="none" stroke="blue" stroke-width="5" d="M241.3,-1231.04C241.46,-1257.91 241.71,-1298.04 241.89,-1327.7"/>
<polygon fill="blue" stroke="blue" stroke-width="5" points="237.51,-1327.74 241.95,-1337.72 246.26,-1327.69 237.51,-1327.74"/>
<text text-anchor="middle" x="373.62" y="-1301.37" font-family="Arial" font-size="20.00" fill="blue">start_next: 04/11/17, 14:05:42</text>
<text text-anchor="middle" x="373.62" y="-1279.37" font-family="Arial" font-size="20.00" fill="blue">gap: 26sec</text>
<text text-anchor="middle" x="373.62" y="-1257.37" font-family="Arial" font-size="20.00" fill="blue">end_prev: 04/11/17, 14:05:16</text>
</g>
<!-- DATA DELIVERY
wsman | ID: 399 -->
<g id="node12" class="node">
<title>DATA DELIVERY
wsman | ID: 399</title>
<g id="a_node12"><a xlink:title="GPL WEB_SERVER perl post attempt">
<polygon fill="none" stroke="black" stroke-width="3" points="817.22,-1541.21 735.67,-1590.19 572.57,-1590.19 491.02,-1541.21 572.57,-1492.23 735.67,-1492.23 817.22,-1541.21"/>
<text text-anchor="middle" x="654.12" y="-1548.01" font-family="Arial" font-size="24.00">DATA DELIVERY</text>
<text text-anchor="middle" x="654.12" y="-1522.01" font-family="Arial" font-size="24.00">wsman | ID: 399</text>
</a>
</g>
</g>
<!-- COMMAND AND CONTROL
unknown | ID: 956&#45;&gt;DATA DELIVERY
wsman | ID: 399 -->
<g id="edge10" class="edge">
<title>COMMAND AND CONTROL
unknown | ID: 956&#45;&gt;DATA DELIVERY
wsman | ID: 399</title>
<path fill="none" stroke="blue" stroke-width="5" d="M234.36,-1397.82C229.32,-1423.83 227.09,-1461.31 248.12,-1484.22 280.14,-1519.09 388.53,-1532.83 485.27,-1538"/>
<polygon fill="blue" stroke="blue" stroke-width="5" points="485.28,-1542.38 495.49,-1538.52 485.72,-1533.64 485.28,-1542.38"/>
<text text-anchor="middle" x="379.62" y="-1468.22" font-family="Arial" font-size="20.00" fill="blue">start_next: 04/11/17, 14:06:35</text>
<text text-anchor="middle" x="379.62" y="-1446.22" font-family="Arial" font-size="20.00" fill="blue">gap: &#45;62sec</text>
<text text-anchor="middle" x="379.62" y="-1424.22" font-family="Arial" font-size="20.00" fill="blue">end_prev: 04/11/17, 14:07:37</text>
</g>
<!-- DATA EXFILTRATION
wsman | ID: 63 -->
<g id="node13" class="node">
<title>DATA EXFILTRATION
wsman | ID: 63</title>
<g id="a_node13"><a xlink:title="ET WEB_SPECIFIC_APPS PHP&#45;CGI query string parameter vulnerability">
<polygon fill="none" stroke="black" stroke-width="3" points="1043,-1027.53 940.56,-1076.51 735.68,-1076.51 633.24,-1027.53 735.68,-978.55 940.56,-978.55 1043,-1027.53"/>
<text text-anchor="middle" x="838.12" y="-1034.33" font-family="Arial" font-size="24.00">DATA EXFILTRATION</text>
<text text-anchor="middle" x="838.12" y="-1008.33" font-family="Arial" font-size="24.00">wsman | ID: 63</text>
</a>
</g>
</g>
<!-- DATA DELIVERY
wsman | ID: 399&#45;&gt;DATA EXFILTRATION
wsman | ID: 63 -->
<g id="edge11" class="edge">
<title>DATA DELIVERY
wsman | ID: 399&#45;&gt;DATA EXFILTRATION
wsman | ID: 63</title>
<path fill="none" stroke="blue" stroke-width="5" d="M603.75,-1492.04C549.64,-1434.17 476.87,-1334.49 520.12,-1251.37 561.83,-1171.22 647.02,-1113.92 718.73,-1077.51"/>
<polygon fill="blue" stroke="blue" stroke-width="5" points="720.87,-1081.33 727.86,-1072.95 716.96,-1073.5 720.87,-1081.33"/>
<text text-anchor="middle" x="651.62" y="-1301.37" font-family="Arial" font-size="20.00" fill="blue">start_next: 04/11/17, 14:06:38</text>
<text text-anchor="middle" x="651.62" y="-1279.37" font-family="Arial" font-size="20.00" fill="blue">gap: 3sec</text>
<text text-anchor="middle" x="651.62" y="-1257.37" font-family="Arial" font-size="20.00" fill="blue">end_prev: 04/11/17, 14:06:35</text>
</g>
<!-- DATA DELIVERY
wsman | ID: 399&#45;&gt;DATA EXFILTRATION
wsman | ID: 63 -->
<g id="edge15" class="edge">
<title>DATA DELIVERY
wsman | ID: 399&#45;&gt;DATA EXFILTRATION
wsman | ID: 63</title>
<path fill="none" stroke="blue" stroke-width="5" d="M687.89,-1492.15C716.88,-1448.56 757.45,-1381.48 780.12,-1317.37 790.04,-1289.33 785.61,-1280.59 791.12,-1251.37 801.72,-1195.2 815.34,-1131.41 825.18,-1086.51"/>
<polygon fill="blue" stroke="blue" stroke-width="5" points="829.48,-1087.37 827.35,-1076.66 820.93,-1085.49 829.48,-1087.37"/>
<text text-anchor="middle" x="922.62" y="-1301.37" font-family="Arial" font-size="20.00" fill="blue">start_next: 04/11/17, 16:35:20</text>
<text text-anchor="middle" x="922.62" y="-1279.37" font-family="Arial" font-size="20.00" fill="blue">gap: 2sec</text>
<text text-anchor="middle" x="922.62" y="-1257.37" font-family="Arial" font-size="20.00" fill="blue">end_prev: 04/11/17, 16:35:17</text>
</g>
<!-- COMMAND AND CONTROL
unknown | ID: 308 -->
<g id="node14" class="node">
<title>COMMAND AND CONTROL
unknown | ID: 308</title>
<g id="a_node14"><a xlink:title="ET POLICY RDP connection confirm">
<polygon fill="none" stroke="black" stroke-width="3" points="1148.62,-1230.94 825.62,-1230.94 825.62,-1170.94 1148.62,-1170.94 1148.62,-1230.94"/>
<text text-anchor="middle" x="987.12" y="-1207.74" font-family="Arial" font-size="24.00">COMMAND AND CONTROL</text>
<text text-anchor="middle" x="987.12" y="-1181.74" font-family="Arial" font-size="24.00">unknown | ID: 308</text>
</a>
</g>
</g>
<!-- DATA EXFILTRATION
wsman | ID: 63&#45;&gt;COMMAND AND CONTROL
unknown | ID: 308 -->
<g id="edge12" class="edge">
<title>DATA EXFILTRATION
wsman | ID: 63&#45;&gt;COMMAND AND CONTROL
unknown | ID: 308</title>
<path fill="none" stroke="blue" stroke-width="5" d="M880.02,-1076.73C903.89,-1104.19 933.33,-1138.05 955.29,-1163.32"/>
<polygon fill="blue" stroke="blue" stroke-width="5" points="951.99,-1166.2 961.85,-1170.87 958.6,-1160.46 951.99,-1166.2"/>
<text text-anchor="middle" x="1074.62" y="-1134.52" font-family="Arial" font-size="20.00" fill="blue">start_next: 04/11/17, 16:34:25</text>
<text text-anchor="middle" x="1074.62" y="-1112.52" font-family="Arial" font-size="20.00" fill="blue">gap: 8866sec</text>
<text text-anchor="middle" x="1074.62" y="-1090.52" font-family="Arial" font-size="20.00" fill="blue">end_prev: 04/11/17, 14:06:38</text>
</g>
<!-- HOST DISCOVERY
wsman -->
<g id="node16" class="node">
<title>HOST DISCOVERY
wsman</title>
<g id="a_node16"><a xlink:title="ET SCAN Possible Nmap User&#45;Agent Observed&#10;ET SCAN Nmap Scripting Engine User&#45;Agent Detected (Nmap Scripting Engine)">
<ellipse fill="none" stroke="black" stroke-width="3" cx="1329.12" cy="-1200.94" rx="162.77" ry="42.35"/>
<text text-anchor="middle" x="1329.12" y="-1207.74" font-family="Arial" font-size="24.00">HOST DISCOVERY</text>
<text text-anchor="middle" x="1329.12" y="-1181.74" font-family="Arial" font-size="24.00">wsman</text>
</a>
</g>
</g>
<!-- DATA EXFILTRATION
wsman | ID: 63&#45;&gt;HOST DISCOVERY
wsman -->
<g id="edge16" class="edge">
<title>DATA EXFILTRATION
wsman | ID: 63&#45;&gt;HOST DISCOVERY
wsman</title>
<path fill="none" stroke="blue" stroke-width="5" d="M1007.86,-1044.41C1087.18,-1053.82 1171.82,-1067.28 1207.12,-1084.52 1239.28,-1100.22 1268.64,-1127.39 1290.5,-1151.43"/>
<polygon fill="blue" stroke="blue" stroke-width="5" points="1287.41,-1154.54 1297.32,-1159.1 1293.95,-1148.72 1287.41,-1154.54"/>
<text text-anchor="middle" x="1418.62" y="-1134.52" font-family="Arial" font-size="20.00" fill="blue">start_next: 04/11/17, 16:36:30</text>
<text text-anchor="middle" x="1418.62" y="-1112.52" font-family="Arial" font-size="20.00" fill="blue">gap: &#45;10sec</text>
<text text-anchor="middle" x="1418.62" y="-1090.52" font-family="Arial" font-size="20.00" fill="blue">end_prev: 04/11/17, 16:36:40</text>
</g>
<!-- ACCOUNT MANIPULATION
snmp | ID: 53 -->
<g id="node15" class="node">
<title>ACCOUNT MANIPULATION
snmp | ID: 53</title>
<g id="a_node15"><a xlink:title="GPL SNMP private access udp&#10;GPL SNMP public access udp">
<polygon fill="none" stroke="black" stroke-width="3" points="1226.12,-1397.8 906.12,-1397.8 906.12,-1337.8 1226.12,-1337.8 1226.12,-1397.8"/>
<text text-anchor="middle" x="1066.12" y="-1374.6" font-family="Arial" font-size="24.00">ACCOUNT MANIPULATION</text>
<text text-anchor="middle" x="1066.12" y="-1348.6" font-family="Arial" font-size="24.00">snmp | ID: 53</text>
</a>
</g>
</g>
<!-- COMMAND AND CONTROL
unknown | ID: 308&#45;&gt;ACCOUNT MANIPULATION
snmp | ID: 53 -->
<g id="edge13" class="edge">
<title>COMMAND AND CONTROL
unknown | ID: 308&#45;&gt;ACCOUNT MANIPULATION
snmp | ID: 53</title>
<path fill="none" stroke="blue" stroke-width="5" d="M1038.03,-1231.12C1044.74,-1237.01 1050.78,-1243.77 1055.12,-1251.37 1062.34,-1264.02 1064.92,-1299.26 1065.79,-1327.5"/>
<polygon fill="blue" stroke="blue" stroke-width="5" points="1061.42,-1327.65 1066.04,-1337.54 1070.16,-1327.43 1061.42,-1327.65"/>
<text text-anchor="middle" x="1196.62" y="-1301.37" font-family="Arial" font-size="20.00" fill="blue">start_next: 04/11/17, 16:34:29</text>
<text text-anchor="middle" x="1196.62" y="-1279.37" font-family="Arial" font-size="20.00" fill="blue">gap: &#45;111sec</text>
<text text-anchor="middle" x="1196.62" y="-1257.37" font-family="Arial" font-size="20.00" fill="blue">end_prev: 04/11/17, 16:36:20</text>
</g>
<!-- ACCOUNT MANIPULATION
snmp | ID: 53&#45;&gt;DATA DELIVERY
wsman | ID: 399 -->
<g id="edge14" class="edge">
<title>ACCOUNT MANIPULATION
snmp | ID: 53&#45;&gt;DATA DELIVERY
wsman | ID: 399</title>
<path fill="none" stroke="blue" stroke-width="5" d="M999.49,-1397.91C944.98,-1421.57 865.79,-1455.6 796.12,-1484.22 784.91,-1488.83 773.16,-1493.58 761.43,-1498.28"/>
<polygon fill="blue" stroke="blue" stroke-width="5" points="759.71,-1494.25 752.05,-1502.02 762.95,-1502.38 759.71,-1494.25"/>
<text text-anchor="middle" x="1082.62" y="-1468.22" font-family="Arial" font-size="20.00" fill="blue">start_next: 04/11/17, 16:35:17</text>
<text text-anchor="middle" x="1082.62" y="-1446.22" font-family="Arial" font-size="20.00" fill="blue">gap: 45sec</text>
<text text-anchor="middle" x="1082.62" y="-1424.22" font-family="Arial" font-size="20.00" fill="blue">end_prev: 04/11/17, 16:34:33</text>
</g>
<!-- SURFING
wsman -->
<g id="node17" class="node">
<title>SURFING
wsman</title>
<g id="a_node17"><a xlink:title="ET WEB_SERVER WEB&#45;PHP phpinfo access">
<ellipse fill="none" stroke="black" stroke-width="3" cx="1341.12" cy="-1367.8" rx="88.28" ry="42.35"/>
<text text-anchor="middle" x="1341.12" y="-1374.6" font-family="Arial" font-size="24.00">SURFING</text>
<text text-anchor="middle" x="1341.12" y="-1348.6" font-family="Arial" font-size="24.00">wsman</text>
</a>
</g>
</g>
<!-- HOST DISCOVERY
wsman&#45;&gt;SURFING
wsman -->
<g id="edge17" class="edge">
<title>HOST DISCOVERY
wsman&#45;&gt;SURFING
wsman</title>
<path fill="none" stroke="blue" stroke-width="5" d="M1332.15,-1243.54C1333.73,-1265.21 1335.67,-1291.92 1337.35,-1314.93"/>
<polygon fill="blue" stroke="blue" stroke-width="5" points="1333.01,-1315.55 1338.1,-1325.21 1341.73,-1314.92 1333.01,-1315.55"/>
<text text-anchor="middle" x="1468.62" y="-1301.37" font-family="Arial" font-size="20.00" fill="blue">start_next: 04/11/17, 16:36:32</text>
<text text-anchor="middle" x="1468.62" y="-1279.37" font-family="Arial" font-size="20.00" fill="blue">gap: 2sec</text>
<text text-anchor="middle" x="1468.62" y="-1257.37" font-family="Arial" font-size="20.00" fill="blue">end_prev: 04/11/17, 16:36:30</text>
</g>
<!-- HOST DISCOVERY
unknown -->
<g id="node18" class="node">
<title>HOST DISCOVERY
unknown</title>
<g id="a_node18"><a xlink:title="ET SCAN Possible Nmap User&#45;Agent Observed&#10;ET SCAN Nmap Scripting Engine User&#45;Agent Detected (Nmap Scripting Engine)">
<ellipse fill="none" stroke="black" stroke-width="3" cx="1341.12" cy="-1541.21" rx="162.77" ry="42.35"/>
<text text-anchor="middle" x="1341.12" y="-1548.01" font-family="Arial" font-size="24.00">HOST DISCOVERY</text>
<text text-anchor="middle" x="1341.12" y="-1522.01" font-family="Arial" font-size="24.00">unknown</text>
</a>
</g>
</g>
<!-- SURFING
wsman&#45;&gt;HOST DISCOVERY
unknown -->
<g id="edge18" class="edge">
<title>SURFING
wsman&#45;&gt;HOST DISCOVERY
unknown</title>
<path fill="none" stroke="blue" stroke-width="5" d="M1341.12,-1410.29C1341.12,-1433.81 1341.12,-1463.43 1341.12,-1488.45"/>
<polygon fill="blue" stroke="blue" stroke-width="5" points="1336.75,-1488.51 1341.12,-1498.51 1345.5,-1488.51 1336.75,-1488.51"/>
<text text-anchor="middle" x="1472.62" y="-1468.22" font-family="Arial" font-size="20.00" fill="blue">start_next: 04/11/17, 16:51:27</text>
<text text-anchor="middle" x="1472.62" y="-1446.22" font-family="Arial" font-size="20.00" fill="blue">gap: 887sec</text>
<text text-anchor="middle" x="1472.62" y="-1424.22" font-family="Arial" font-size="20.00" fill="blue">end_prev: 04/11/17, 16:36:40</text>
</g>
<!-- VULNERABILTY DISCOVERY
unknown -->
<g id="node19" class="node">
<title>VULNERABILTY DISCOVERY
unknown</title>
<g id="a_node19"><a xlink:title="ET SCAN Nikto Web App Scan in Progress">
<ellipse fill="none" stroke="black" stroke-width="3" cx="1341.12" cy="-1714.63" rx="241.25" ry="42.35"/>
<text text-anchor="middle" x="1341.12" y="-1721.43" font-family="Arial" font-size="24.00">VULNERABILTY DISCOVERY</text>
<text text-anchor="middle" x="1341.12" y="-1695.43" font-family="Arial" font-size="24.00">unknown</text>
</a>
</g>
</g>
<!-- HOST DISCOVERY
unknown&#45;&gt;VULNERABILTY DISCOVERY
unknown -->
<g id="edge19" class="edge">
<title>HOST DISCOVERY
unknown&#45;&gt;VULNERABILTY DISCOVERY
unknown</title>
<path fill="none" stroke="blue" stroke-width="5" d="M1341.12,-1583.71C1341.12,-1607.22 1341.12,-1636.85 1341.12,-1661.87"/>
<polygon fill="blue" stroke="blue" stroke-width="5" points="1336.75,-1661.92 1341.12,-1671.92 1345.5,-1661.92 1336.75,-1661.92"/>
<text text-anchor="middle" x="1472.62" y="-1648.2" font-family="Arial" font-size="20.00" fill="blue">start_next: 04/11/17, 16:51:28</text>
<text text-anchor="middle" x="1472.62" y="-1626.2" font-family="Arial" font-size="20.00" fill="blue">gap: 0sec</text>
<text text-anchor="middle" x="1472.62" y="-1604.2" font-family="Arial" font-size="20.00" fill="blue">end_prev: 04/11/17, 16:51:27</text>
</g>
<!-- ARBITRARY CODE EXECUTION
unknown | ID: 47 -->
<g id="node20" class="node">
<title>ARBITRARY CODE EXECUTION
unknown | ID: 47</title>
<g id="a_node20"><a xlink:title="ET CURRENT_EVENTS QNAP Shellshock CVE&#45;2014&#45;6271">
<polygon fill="none" stroke="black" stroke-width="3" points="1528.62,-1899.06 1153.62,-1899.06 1153.62,-1839.06 1528.62,-1839.06 1528.62,-1899.06"/>
<text text-anchor="middle" x="1341.12" y="-1875.86" font-family="Arial" font-size="24.00">ARBITRARY CODE EXECUTION</text>
<text text-anchor="middle" x="1341.12" y="-1849.86" font-family="Arial" font-size="24.00">unknown | ID: 47</text>
</a>
</g>
</g>
<!-- VULNERABILTY DISCOVERY
unknown&#45;&gt;ARBITRARY CODE EXECUTION
unknown | ID: 47 -->
<g id="edge20" class="edge">
<title>VULNERABILTY DISCOVERY
unknown&#45;&gt;ARBITRARY CODE EXECUTION
unknown | ID: 47</title>
<path fill="none" stroke="blue" stroke-width="5" d="M1341.12,-1757.28C1341.12,-1779.55 1341.12,-1806.82 1341.12,-1828.73"/>
<polygon fill="blue" stroke="blue" stroke-width="5" points="1336.75,-1829 1341.12,-1839 1345.5,-1829 1336.75,-1829"/>
<text text-anchor="middle" x="1472.62" y="-1815.06" font-family="Arial" font-size="20.00" fill="blue">start_next: 04/11/17, 16:51:29</text>
<text text-anchor="middle" x="1472.62" y="-1793.06" font-family="Arial" font-size="20.00" fill="blue">gap: 1sec</text>
<text text-anchor="middle" x="1472.62" y="-1771.06" font-family="Arial" font-size="20.00" fill="blue">end_prev: 04/11/17, 16:51:28</text>
</g>
<!-- SURFING
unknown -->
<g id="node21" class="node">
<title>SURFING
unknown</title>
<g id="a_node21"><a xlink:title="ET WEB_SERVER WEB&#45;PHP phpinfo access">
<ellipse fill="none" stroke="black" stroke-width="3" cx="1341.12" cy="-2023.48" rx="88.28" ry="42.35"/>
<text text-anchor="middle" x="1341.12" y="-2030.28" font-family="Arial" font-size="24.00">SURFING</text>
<text text-anchor="middle" x="1341.12" y="-2004.28" font-family="Arial" font-size="24.00">unknown</text>
</a>
</g>
</g>
<!-- ARBITRARY CODE EXECUTION
unknown | ID: 47&#45;&gt;SURFING
unknown -->
<g id="edge21" class="edge">
<title>ARBITRARY CODE EXECUTION
unknown | ID: 47&#45;&gt;SURFING
unknown</title>
<path fill="none" stroke="blue" stroke-width="5" d="M1341.12,-1899.08C1341.12,-1919.34 1341.12,-1946.93 1341.12,-1970.88"/>
<polygon fill="blue" stroke="blue" stroke-width="5" points="1336.75,-1970.89 1341.12,-1980.89 1345.5,-1970.89 1336.75,-1970.89"/>
<text text-anchor="middle" x="1472.62" y="-1957.06" font-family="Arial" font-size="20.00" fill="blue">start_next: 04/11/17, 16:51:29</text>
<text text-anchor="middle" x="1472.62" y="-1935.06" font-family="Arial" font-size="20.00" fill="blue">gap: 1sec</text>
<text text-anchor="middle" x="1472.62" y="-1913.06" font-family="Arial" font-size="20.00" fill="blue">end_prev: 04/11/17, 16:51:29</text>
</g>
<!-- INFO DISCOVERY
unknown -->
<g id="node22" class="node">
<title>INFO DISCOVERY
unknown</title>
<g id="a_node22"><a xlink:title="GPL WEB_SERVER globals.pl access">
<ellipse fill="none" stroke="black" stroke-width="3" cx="1341.12" cy="-2190.33" rx="156.04" ry="42.35"/>
<text text-anchor="middle" x="1341.12" y="-2197.13" font-family="Arial" font-size="24.00">INFO DISCOVERY</text>
<text text-anchor="middle" x="1341.12" y="-2171.13" font-family="Arial" font-size="24.00">unknown</text>
</a>
</g>
</g>
<!-- SURFING
unknown&#45;&gt;INFO DISCOVERY
unknown -->
<g id="edge22" class="edge">
<title>SURFING
unknown&#45;&gt;INFO DISCOVERY
unknown</title>
<path fill="none" stroke="blue" stroke-width="5" d="M1341.12,-2066.08C1341.12,-2087.75 1341.12,-2114.46 1341.12,-2137.47"/>
<polygon fill="blue" stroke="blue" stroke-width="5" points="1336.75,-2137.75 1341.12,-2147.75 1345.5,-2137.75 1336.75,-2137.75"/>
<text text-anchor="middle" x="1472.62" y="-2123.91" font-family="Arial" font-size="20.00" fill="blue">start_next: 04/11/17, 16:51:31</text>
<text text-anchor="middle" x="1472.62" y="-2101.91" font-family="Arial" font-size="20.00" fill="blue">gap: &#45;7sec</text>
<text text-anchor="middle" x="1472.62" y="-2079.91" font-family="Arial" font-size="20.00" fill="blue">end_prev: 04/11/17, 16:51:38</text>
</g>
<!-- INFO DISCOVERY
unknown&#45;&gt;DATA EXFILTRATION
unknown | ID: 57 -->
<g id="edge23" class="edge">
<title>INFO DISCOVERY
unknown&#45;&gt;DATA EXFILTRATION
unknown | ID: 57</title>
<path fill="none" stroke="blue" stroke-width="5" d="M1341.12,-2232.83C1341.12,-2254.32 1341.12,-2280.92 1341.12,-2304.44"/>
<polygon fill="blue" stroke="blue" stroke-width="5" points="1336.75,-2304.66 1341.12,-2314.66 1345.5,-2304.66 1336.75,-2304.66"/>
<text text-anchor="middle" x="1472.62" y="-2290.76" font-family="Arial" font-size="20.00" fill="blue">start_next: 04/11/17, 16:51:32</text>
<text text-anchor="middle" x="1472.62" y="-2268.76" font-family="Arial" font-size="20.00" fill="blue">gap: 1sec</text>
<text text-anchor="middle" x="1472.62" y="-2246.76" font-family="Arial" font-size="20.00" fill="blue">end_prev: 04/11/17, 16:51:31</text>
</g>
</g>
</svg>
