<?xml version="1.0" encoding="UTF-8" standalone="no"?>
<!DOCTYPE svg PUBLIC "-//W3C//DTD SVG 1.1//EN"
 "http://www.w3.org/Graphics/SVG/1.1/DTD/svg11.dtd">
<!-- Generated by graphviz version 2.50.0 (0)
 -->
<!-- Title: DATADELIVERYunknown Pages: 1 -->
<svg width="448pt" height="419pt"
 viewBox="0.00 0.00 448.28 418.62" xmlns="http://www.w3.org/2000/svg" xmlns:xlink="http://www.w3.org/1999/xlink">
<g id="graph0" class="graph" transform="scale(1 1) rotate(0) translate(4 414.62)">
<title>DATADELIVERYunknown</title>
<polygon fill="white" stroke="transparent" points="-4,4 -4,-414.62 444.28,-414.62 444.28,4 -4,4"/>
<!-- Victim: 10.0.99.21
DATA DELIVERY
unknown -->
<g id="node1" class="node">
<title>Victim: 10.0.99.21
DATA DELIVERY
unknown</title>
<polygon fill="salmon" stroke="black" stroke-width="3" points="333.23,-313.61 333.23,-368 238.95,-406.45 105.61,-406.45 11.33,-368 11.33,-313.61 105.61,-275.15 238.95,-275.15 333.23,-313.61"/>
<polygon fill="none" stroke="black" stroke-width="3" points="337.24,-310.93 337.24,-370.67 239.74,-410.44 104.83,-410.44 7.33,-370.67 7.33,-310.93 104.83,-271.16 239.74,-271.16 337.24,-310.93"/>
<text text-anchor="middle" x="172.28" y="-360.6" font-family="Arial" font-size="24.00">Victim: 10.0.99.21</text>
<text text-anchor="middle" x="172.28" y="-334.6" font-family="Arial" font-size="24.00">DATA DELIVERY</text>
<text text-anchor="middle" x="172.28" y="-308.6" font-family="Arial" font-size="24.00">unknown</text>
</g>
<!-- DATA DELIVERY
unknown | ID: 136 -->
<g id="node2" class="node">
<title>DATA DELIVERY
unknown | ID: 136</title>
<g id="a_node2"><a xlink:title="ET POLICY PE EXE or DLL Windows file download HTTP">
<polygon fill="salmon" stroke="black" stroke-width="3" points="344.34,-204.99 258.31,-253.97 86.25,-253.97 0.22,-204.99 86.25,-156.01 258.31,-156.01 344.34,-204.99"/>
<text text-anchor="middle" x="172.28" y="-211.79" font-family="Arial" font-size="24.00">DATA DELIVERY</text>
<text text-anchor="middle" x="172.28" y="-185.79" font-family="Arial" font-size="24.00">unknown | ID: 136</text>
</a>
</g>
</g>
<!-- DATA DELIVERY
unknown | ID: 136&#45;&gt;Victim: 10.0.99.21
DATA DELIVERY
unknown -->
<g id="edge1" class="edge">
<title>DATA DELIVERY
unknown | ID: 136&#45;&gt;Victim: 10.0.99.21
DATA DELIVERY
unknown</title>
<path fill="none" stroke="black" stroke-width="5" d="M172.28,-254.3C172.28,-256.4 172.28,-258.54 172.28,-260.69"/>
<polygon fill="black" stroke="black" stroke-width="5" points="167.91,-260.84 172.28,-270.84 176.66,-260.84 167.91,-260.84"/>
</g>
<!-- COMMAND AND CONTROL
unknown | ID: 541 -->
<g id="node3" class="node">
<title>COMMAND AND CONTROL
unknown | ID: 541</title>
<g id="a_node3"><a xlink:title="ET INFO Possible Windows executable sent when remote host claims to send a Text File">
<polygon fill="yellow" stroke="black" stroke-width="3" stroke-dasharray="1,5" points="333.78,-60 10.78,-60 10.78,0 333.78,0 333.78,-60"/>
<text text-anchor="middle" x="172.28" y="-36.8" font-family="Arial" font-size="24.00">COMMAND AND CONTROL</text>
<text text-anchor="middle" x="172.28" y="-10.8" font-family="Arial" font-size="24.00">unknown | ID: 541</text>
</a>
</g>
</g>
<!-- COMMAND AND CONTROL
unknown | ID: 541&#45;&gt;DATA DELIVERY
unknown | ID: 136 -->
<g id="edge2" class="edge">
<title>COMMAND AND CONTROL
unknown | ID: 541&#45;&gt;DATA DELIVERY
unknown | ID: 136</title>
<path fill="none" stroke="turquoise" stroke-width="5" d="M172.28,-60.35C172.28,-83.61 172.28,-116.86 172.28,-145.52"/>
<polygon fill="turquoise" stroke="turquoise" stroke-width="5" points="167.91,-145.84 172.28,-155.84 176.66,-145.84 167.91,-145.84"/>
<text text-anchor="start" x="172.28" y="-133" font-family="Arial" font-size="20.00" fill="turquoise"> start_next: 04/11/17, 18:57:06</text>
<text text-anchor="start" x="253.78" y="-113" font-family="Arial" font-size="20.00" fill="turquoise">gap: &#45;65sec</text>
<text text-anchor="start" x="176.78" y="-93" font-family="Arial" font-size="20.00" fill="turquoise">end_prev: 04/11/17, 18:58:11</text>
<text text-anchor="start" x="206.78" y="-73" font-family="Arial" font-weight="bold" font-size="20.00" fill="turquoise">Attacker: 10.0.254.31</text>
</g>
</g>
</svg>
