<?xml version="1.0" encoding="UTF-8" standalone="no"?>
<!DOCTYPE svg PUBLIC "-//W3C//DTD SVG 1.1//EN"
 "http://www.w3.org/Graphics/SVG/1.1/DTD/svg11.dtd">
<!-- Generated by graphviz version 2.50.0 (0)
 -->
<!-- Title: DATAEXFILTRATIONdistinct Pages: 1 -->
<svg width="1451pt" height="1318pt"
 viewBox="0.00 0.00 1450.94 1317.99" xmlns="http://www.w3.org/2000/svg" xmlns:xlink="http://www.w3.org/1999/xlink">
<g id="graph0" class="graph" transform="scale(1 1) rotate(0) translate(4 1313.99)">
<title>DATAEXFILTRATIONdistinct</title>
<polygon fill="white" stroke="transparent" points="-4,4 -4,-1313.99 1446.94,-1313.99 1446.94,4 -4,4"/>
<!-- Victim: 10.0.0.162
DATA EXFILTRATION
distinct -->
<g id="node1" class="node">
<title>Victim: 10.0.0.162
DATA EXFILTRATION
distinct</title>
<polygon fill="salmon" stroke="black" stroke-width="3" points="605.15,-1212.98 605.15,-1267.37 492.56,-1305.83 333.32,-1305.83 220.73,-1267.37 220.73,-1212.98 333.32,-1174.52 492.56,-1174.52 605.15,-1212.98"/>
<polygon fill="none" stroke="black" stroke-width="3" points="609.15,-1210.13 609.15,-1270.22 493.22,-1309.82 332.66,-1309.82 216.73,-1270.22 216.73,-1210.13 332.66,-1170.53 493.22,-1170.53 609.15,-1210.13"/>
<text text-anchor="middle" x="412.94" y="-1259.97" font-family="Arial" font-size="24.00">Victim: 10.0.0.162</text>
<text text-anchor="middle" x="412.94" y="-1233.97" font-family="Arial" font-size="24.00">DATA EXFILTRATION</text>
<text text-anchor="middle" x="412.94" y="-1207.97" font-family="Arial" font-size="24.00">distinct</text>
</g>
<!-- DATA EXFILTRATION
distinct | ID: 409 -->
<g id="node2" class="node">
<title>DATA EXFILTRATION
distinct | ID: 409</title>
<g id="a_node2"><a xlink:title="ET WEB_SPECIFIC_APPS PHP&#45;CGI query string parameter vulnerability">
<polygon fill="none" stroke="black" stroke-width="3" stroke-dasharray="1,5" points="409.82,-1104.36 307.38,-1153.34 102.5,-1153.34 0.06,-1104.36 102.5,-1055.38 307.38,-1055.38 409.82,-1104.36"/>
<text text-anchor="middle" x="204.94" y="-1111.16" font-family="Arial" font-size="24.00">DATA EXFILTRATION</text>
<text text-anchor="middle" x="204.94" y="-1085.16" font-family="Arial" font-size="24.00">distinct | ID: 409</text>
</a>
</g>
</g>
<!-- DATA EXFILTRATION
distinct | ID: 409&#45;&gt;Victim: 10.0.0.162
DATA EXFILTRATION
distinct -->
<g id="edge1" class="edge">
<title>DATA EXFILTRATION
distinct | ID: 409&#45;&gt;Victim: 10.0.0.162
DATA EXFILTRATION
distinct</title>
<path fill="none" stroke="black" stroke-width="5" d="M279.74,-1153.48C288.48,-1159.1 297.51,-1164.92 306.58,-1170.74"/>
<polygon fill="black" stroke="black" stroke-width="5" points="304.48,-1174.6 315.26,-1176.33 309.22,-1167.24 304.48,-1174.6"/>
</g>
<!-- DATA EXFILTRATION
distinct | ID: 71 -->
<g id="node3" class="node">
<title>DATA EXFILTRATION
distinct | ID: 71</title>
<g id="a_node3"><a xlink:title="ET WEB_SPECIFIC_APPS PHP&#45;CGI query string parameter vulnerability">
<polygon fill="salmon" stroke="black" stroke-width="3" points="830.82,-1104.36 728.38,-1153.34 523.5,-1153.34 421.06,-1104.36 523.5,-1055.38 728.38,-1055.38 830.82,-1104.36"/>
<text text-anchor="middle" x="625.94" y="-1111.16" font-family="Arial" font-size="24.00">DATA EXFILTRATION</text>
<text text-anchor="middle" x="625.94" y="-1085.16" font-family="Arial" font-size="24.00">distinct | ID: 71</text>
</a>
</g>
</g>
<!-- DATA EXFILTRATION
distinct | ID: 71&#45;&gt;Victim: 10.0.0.162
DATA EXFILTRATION
distinct -->
<g id="edge2" class="edge">
<title>DATA EXFILTRATION
distinct | ID: 71&#45;&gt;Victim: 10.0.0.162
DATA EXFILTRATION
distinct</title>
<path fill="none" stroke="black" stroke-width="5" d="M549.34,-1153.48C540.03,-1159.33 530.38,-1165.39 520.71,-1171.47"/>
<polygon fill="black" stroke="black" stroke-width="5" points="518.37,-1167.77 512.23,-1176.8 523.02,-1175.18 518.37,-1167.77"/>
</g>
<!-- VULNERABILTY DISCOVERY
ms&#45;sql&#45;s -->
<g id="node4" class="node">
<title>VULNERABILTY DISCOVERY
ms&#45;sql&#45;s</title>
<g id="a_node4"><a xlink:title="ET POLICY Suspicious inbound to MSSQL port 1433&#10;ET POLICY Suspicious inbound to mSQL port 4333&#10;ET POLICY Suspicious inbound to Oracle SQL port 1521&#10;ET POLICY Suspicious inbound to PostgreSQL port 5432">
<ellipse fill="yellow" stroke="black" stroke-width="3" cx="902.94" cy="-236.41" rx="241.25" ry="42.35"/>
<text text-anchor="middle" x="902.94" y="-243.21" font-family="Arial" font-size="24.00">VULNERABILTY DISCOVERY</text>
<text text-anchor="middle" x="902.94" y="-217.21" font-family="Arial" font-size="24.00">ms&#45;sql&#45;s</text>
</a>
</g>
</g>
<!-- SERVICE DISCOVERY
unknown -->
<g id="node5" class="node">
<title>SERVICE DISCOVERY
unknown</title>
<g id="a_node5"><a xlink:title="ET SCAN Potential VNC Scan 5800&#45;5820">
<ellipse fill="none" stroke="black" stroke-width="3" cx="903.94" cy="-417.26" rx="189.51" ry="42.35"/>
<text text-anchor="middle" x="903.94" y="-424.06" font-family="Arial" font-size="24.00">SERVICE DISCOVERY</text>
<text text-anchor="middle" x="903.94" y="-398.06" font-family="Arial" font-size="24.00">unknown</text>
</a>
</g>
</g>
<!-- VULNERABILTY DISCOVERY
ms&#45;sql&#45;s&#45;&gt;SERVICE DISCOVERY
unknown -->
<g id="edge3" class="edge">
<title>VULNERABILTY DISCOVERY
ms&#45;sql&#45;s&#45;&gt;SERVICE DISCOVERY
unknown</title>
<path fill="none" stroke="blue" stroke-width="5" d="M903.17,-278.89C903.32,-304.42 903.5,-337.35 903.65,-364.57"/>
<polygon fill="blue" stroke="blue" stroke-width="5" points="899.28,-364.72 903.71,-374.69 908.03,-364.67 899.28,-364.72"/>
<text text-anchor="start" x="903.94" y="-351.83" font-family="Arial" font-size="20.00" fill="blue"> start_next: 04/11/17, 12:59:22</text>
<text text-anchor="start" x="979.94" y="-331.83" font-family="Arial" font-size="20.00" fill="blue">gap: &#45;366sec</text>
<text text-anchor="start" x="907.94" y="-311.83" font-family="Arial" font-size="20.00" fill="blue">end_prev: 04/11/17, 13:05:28</text>
<text text-anchor="start" x="938.44" y="-291.83" font-family="Arial" font-weight="bold" font-size="20.00" fill="blue">Attacker: 10.0.254.31</text>
</g>
<!-- ARBITRARY CODE EXECUTION
ssdp | ID: 355 -->
<g id="node9" class="node">
<title>ARBITRARY CODE EXECUTION
ssdp | ID: 355</title>
<g id="a_node9"><a xlink:title="GPL MISC UPnP malformed advertisement">
<polygon fill="none" stroke="black" stroke-width="3" points="561.44,-447.26 186.44,-447.26 186.44,-387.26 561.44,-387.26 561.44,-447.26"/>
<text text-anchor="middle" x="373.94" y="-424.06" font-family="Arial" font-size="24.00">ARBITRARY CODE EXECUTION</text>
<text text-anchor="middle" x="373.94" y="-398.06" font-family="Arial" font-size="24.00">ssdp | ID: 355</text>
</a>
</g>
</g>
<!-- VULNERABILTY DISCOVERY
ms&#45;sql&#45;s&#45;&gt;ARBITRARY CODE EXECUTION
ssdp | ID: 355 -->
<g id="edge8" class="edge">
<title>VULNERABILTY DISCOVERY
ms&#45;sql&#45;s&#45;&gt;ARBITRARY CODE EXECUTION
ssdp | ID: 355</title>
<path fill="none" stroke="blue" stroke-width="5" d="M705.62,-260.8C676.19,-267.54 651.75,-276.08 639.94,-286.83 612.58,-311.73 644.12,-341.73 616.94,-366.83 608.17,-374.93 591.79,-381.84 571.52,-387.7"/>
<polygon fill="blue" stroke="blue" stroke-width="5" points="570.1,-383.55 561.61,-390.4 572.4,-391.99 570.1,-383.55"/>
<text text-anchor="middle" x="771.44" y="-343.83" font-family="Arial" font-size="20.00" fill="blue">start_next: 04/11/17, 14:02:54</text>
<text text-anchor="middle" x="771.44" y="-321.83" font-family="Arial" font-size="20.00" fill="blue">gap: 103sec</text>
<text text-anchor="middle" x="771.44" y="-299.83" font-family="Arial" font-size="20.00" fill="blue">end_prev: 04/11/17, 14:01:11</text>
</g>
<!-- BRUTE FORCE CREDENTIALS
pop3 | ID: 363 -->
<g id="node6" class="node">
<title>BRUTE FORCE CREDENTIALS
pop3 | ID: 363</title>
<g id="a_node6"><a xlink:title="ET SCAN Rapid POP3 Connections &#45; Possible Brute Force Attack">
<polygon fill="none" stroke="black" stroke-width="3" points="1086.94,-604.69 724.94,-604.69 724.94,-544.69 1086.94,-544.69 1086.94,-604.69"/>
<text text-anchor="middle" x="905.94" y="-581.49" font-family="Arial" font-size="24.00">BRUTE FORCE CREDENTIALS</text>
<text text-anchor="middle" x="905.94" y="-555.49" font-family="Arial" font-size="24.00">pop3 | ID: 363</text>
</a>
</g>
</g>
<!-- SERVICE DISCOVERY
unknown&#45;&gt;BRUTE FORCE CREDENTIALS
pop3 | ID: 363 -->
<g id="edge4" class="edge">
<title>SERVICE DISCOVERY
unknown&#45;&gt;BRUTE FORCE CREDENTIALS
pop3 | ID: 363</title>
<path fill="none" stroke="blue" stroke-width="5" d="M904.48,-459.91C904.77,-482.89 905.14,-511.27 905.43,-533.94"/>
<polygon fill="blue" stroke="blue" stroke-width="5" points="901.06,-534.29 905.56,-544.23 909.81,-534.18 901.06,-534.29"/>
<text text-anchor="middle" x="1037.44" y="-517.69" font-family="Arial" font-size="20.00" fill="blue">start_next: 04/11/17, 13:01:54</text>
<text text-anchor="middle" x="1037.44" y="-495.69" font-family="Arial" font-size="20.00" fill="blue">gap: 152sec</text>
<text text-anchor="middle" x="1037.44" y="-473.69" font-family="Arial" font-size="20.00" fill="blue">end_prev: 04/11/17, 12:59:22</text>
</g>
<!-- ACCOUNT MANIPULATION
snmp | ID: 53 -->
<g id="node7" class="node">
<title>ACCOUNT MANIPULATION
snmp | ID: 53</title>
<g id="a_node7"><a xlink:title="GPL SNMP private access udp&#10;GPL SNMP public access udp">
<polygon fill="none" stroke="black" stroke-width="3" points="1067.94,-762.11 747.94,-762.11 747.94,-702.11 1067.94,-702.11 1067.94,-762.11"/>
<text text-anchor="middle" x="907.94" y="-738.91" font-family="Arial" font-size="24.00">ACCOUNT MANIPULATION</text>
<text text-anchor="middle" x="907.94" y="-712.91" font-family="Arial" font-size="24.00">snmp | ID: 53</text>
</a>
</g>
</g>
<!-- BRUTE FORCE CREDENTIALS
pop3 | ID: 363&#45;&gt;ACCOUNT MANIPULATION
snmp | ID: 53 -->
<g id="edge5" class="edge">
<title>BRUTE FORCE CREDENTIALS
pop3 | ID: 363&#45;&gt;ACCOUNT MANIPULATION
snmp | ID: 53</title>
<path fill="none" stroke="blue" stroke-width="5" d="M906.32,-604.92C906.63,-629.45 907.09,-664.71 907.43,-691.73"/>
<polygon fill="blue" stroke="blue" stroke-width="5" points="903.06,-692.07 907.57,-702.01 911.81,-691.95 903.06,-692.07"/>
<text text-anchor="middle" x="1039.44" y="-665.69" font-family="Arial" font-size="20.00" fill="blue">start_next: 04/11/17, 13:59:55</text>
<text text-anchor="middle" x="1039.44" y="-643.69" font-family="Arial" font-size="20.00" fill="blue">gap: 3481sec</text>
<text text-anchor="middle" x="1039.44" y="-621.69" font-family="Arial" font-size="20.00" fill="blue">end_prev: 04/11/17, 13:01:54</text>
</g>
<!-- SERVICE DISCOVERY
ssh -->
<g id="node8" class="node">
<title>SERVICE DISCOVERY
ssh</title>
<g id="a_node8"><a xlink:title="ET SCAN Potential SSH Scan">
<ellipse fill="none" stroke="black" stroke-width="3" cx="1084.94" cy="-924.38" rx="189.51" ry="42.35"/>
<text text-anchor="middle" x="1084.94" y="-931.18" font-family="Arial" font-size="24.00">SERVICE DISCOVERY</text>
<text text-anchor="middle" x="1084.94" y="-905.18" font-family="Arial" font-size="24.00">ssh</text>
</a>
</g>
</g>
<!-- ACCOUNT MANIPULATION
snmp | ID: 53&#45;&gt;SERVICE DISCOVERY
ssh -->
<g id="edge6" class="edge">
<title>ACCOUNT MANIPULATION
snmp | ID: 53&#45;&gt;SERVICE DISCOVERY
ssh</title>
<path fill="none" stroke="blue" stroke-width="5" d="M899.93,-762.18C893.66,-791.71 889.33,-837.26 911.94,-867.39 918.61,-876.28 926.73,-883.79 935.75,-890.12"/>
<polygon fill="blue" stroke="blue" stroke-width="5" points="933.51,-893.88 944.29,-895.61 938.24,-886.52 933.51,-893.88"/>
<text text-anchor="middle" x="1043.44" y="-841.96" font-family="Arial" font-size="20.00" fill="blue">start_next: 04/11/17, 14:00:17</text>
<text text-anchor="middle" x="1043.44" y="-819.96" font-family="Arial" font-size="20.00" fill="blue">gap: &#45;285sec</text>
<text text-anchor="middle" x="1043.44" y="-797.96" font-family="Arial" font-size="20.00" fill="blue">end_prev: 04/11/17, 14:05:03</text>
</g>
<!-- SERVICE DISCOVERY
ssh&#45;&gt;VULNERABILTY DISCOVERY
ms&#45;sql&#45;s -->
<g id="edge7" class="edge">
<title>SERVICE DISCOVERY
ssh&#45;&gt;VULNERABILTY DISCOVERY
ms&#45;sql&#45;s</title>
<path fill="none" stroke="blue" stroke-width="5" d="M1157.7,-885.07C1163.23,-879.78 1168.13,-873.9 1171.94,-867.39 1202.12,-815.78 1179.94,-792.9 1179.94,-733.11 1179.94,-416.26 1179.94,-416.26 1179.94,-416.26 1179.94,-358.63 1210.18,-329.95 1171.94,-286.83 1162.48,-276.16 1142.64,-267.78 1117.82,-261.19"/>
<polygon fill="blue" stroke="blue" stroke-width="5" points="1118.84,-256.94 1108.08,-258.76 1116.72,-265.43 1118.84,-256.94"/>
<text text-anchor="middle" x="1311.44" y="-591.69" font-family="Arial" font-size="20.00" fill="blue">start_next: 04/11/17, 14:01:07</text>
<text text-anchor="middle" x="1311.44" y="-569.69" font-family="Arial" font-size="20.00" fill="blue">gap: 49sec</text>
<text text-anchor="middle" x="1311.44" y="-547.69" font-family="Arial" font-size="20.00" fill="blue">end_prev: 04/11/17, 14:00:17</text>
</g>
<!-- REMOTE SERVICE EXPLOIT
snmp | ID: 52 -->
<g id="node10" class="node">
<title>REMOTE SERVICE EXPLOIT
snmp | ID: 52</title>
<g id="a_node10"><a xlink:title="ET SNMP Samsung Printer SNMP Hardcode RW Community String">
<polygon fill="none" stroke="black" stroke-width="3" points="504.94,-604.69 166.94,-604.69 166.94,-544.69 504.94,-544.69 504.94,-604.69"/>
<text text-anchor="middle" x="335.94" y="-581.49" font-family="Arial" font-size="24.00">REMOTE SERVICE EXPLOIT</text>
<text text-anchor="middle" x="335.94" y="-555.49" font-family="Arial" font-size="24.00">snmp | ID: 52</text>
</a>
</g>
</g>
<!-- ARBITRARY CODE EXECUTION
ssdp | ID: 355&#45;&gt;REMOTE SERVICE EXPLOIT
snmp | ID: 52 -->
<g id="edge9" class="edge">
<title>ARBITRARY CODE EXECUTION
ssdp | ID: 355&#45;&gt;REMOTE SERVICE EXPLOIT
snmp | ID: 52</title>
<path fill="none" stroke="blue" stroke-width="5" d="M314.96,-447.44C308.14,-453.21 302.14,-459.94 297.94,-467.69 283.95,-493.47 287.06,-506.44 297.94,-533.69 298.17,-534.27 298.42,-534.85 298.68,-535.43"/>
<polygon fill="blue" stroke="blue" stroke-width="5" points="295.04,-537.88 303.8,-544.39 302.64,-533.54 295.04,-537.88"/>
<text text-anchor="middle" x="429.44" y="-517.69" font-family="Arial" font-size="20.00" fill="blue">start_next: 04/11/17, 14:03:24</text>
<text text-anchor="middle" x="429.44" y="-495.69" font-family="Arial" font-size="20.00" fill="blue">gap: 19sec</text>
<text text-anchor="middle" x="429.44" y="-473.69" font-family="Arial" font-size="20.00" fill="blue">end_prev: 04/11/17, 14:03:05</text>
</g>
<!-- ARBITRARY CODE EXECUTION
ssdp | ID: 355&#45;&gt;REMOTE SERVICE EXPLOIT
snmp | ID: 52 -->
<g id="edge14" class="edge">
<title>ARBITRARY CODE EXECUTION
ssdp | ID: 355&#45;&gt;REMOTE SERVICE EXPLOIT
snmp | ID: 52</title>
<path fill="none" stroke="blue" stroke-width="5" d="M522.58,-447.26C539.03,-453.14 552,-459.94 557.94,-467.69 575.79,-490.96 576.75,-511.18 557.94,-533.69 550.54,-542.54 534.79,-549.43 514.92,-554.8"/>
<polygon fill="blue" stroke="blue" stroke-width="5" points="513.82,-550.57 505.19,-557.24 515.95,-559.06 513.82,-550.57"/>
<text text-anchor="middle" x="703.44" y="-517.69" font-family="Arial" font-size="20.00" fill="blue">start_next: 04/11/17, 16:31:55</text>
<text text-anchor="middle" x="703.44" y="-495.69" font-family="Arial" font-size="20.00" fill="blue">gap: 17sec</text>
<text text-anchor="middle" x="703.44" y="-473.69" font-family="Arial" font-size="20.00" fill="blue">end_prev: 04/11/17, 16:31:38</text>
</g>
<!-- INFO DISCOVERY
xdmcp -->
<g id="node11" class="node">
<title>INFO DISCOVERY
xdmcp</title>
<g id="a_node11"><a xlink:title="GPL WEB_SERVER mod_gzip_status access&#10;GPL RPC xdmcp info query">
<ellipse fill="none" stroke="black" stroke-width="3" cx="235.94" cy="-824.96" rx="156.04" ry="42.35"/>
<text text-anchor="middle" x="235.94" y="-831.76" font-family="Arial" font-size="24.00">INFO DISCOVERY</text>
<text text-anchor="middle" x="235.94" y="-805.76" font-family="Arial" font-size="24.00">xdmcp</text>
</a>
</g>
</g>
<!-- REMOTE SERVICE EXPLOIT
snmp | ID: 52&#45;&gt;INFO DISCOVERY
xdmcp -->
<g id="edge10" class="edge">
<title>REMOTE SERVICE EXPLOIT
snmp | ID: 52&#45;&gt;INFO DISCOVERY
xdmcp</title>
<path fill="none" stroke="blue" stroke-width="5" d="M320.16,-604.76C318.33,-608.4 316.55,-612.11 314.94,-615.69 291.23,-668.36 268.29,-730.47 253.3,-773.07"/>
<polygon fill="blue" stroke="blue" stroke-width="5" points="249.12,-771.78 249.94,-782.66 257.38,-774.67 249.12,-771.78"/>
<text text-anchor="middle" x="446.44" y="-665.69" font-family="Arial" font-size="20.00" fill="blue">start_next: 04/11/17, 14:03:24</text>
<text text-anchor="middle" x="446.44" y="-643.69" font-family="Arial" font-size="20.00" fill="blue">gap: 0sec</text>
<text text-anchor="middle" x="446.44" y="-621.69" font-family="Arial" font-size="20.00" fill="blue">end_prev: 04/11/17, 14:03:24</text>
</g>
<!-- SURFING
distinct -->
<g id="node14" class="node">
<title>SURFING
distinct</title>
<g id="a_node14"><a xlink:title="ET WEB_SERVER WEB&#45;PHP phpinfo access">
<ellipse fill="none" stroke="black" stroke-width="3" cx="619.94" cy="-732.11" rx="88.28" ry="42.35"/>
<text text-anchor="middle" x="619.94" y="-738.91" font-family="Arial" font-size="24.00">SURFING</text>
<text text-anchor="middle" x="619.94" y="-712.91" font-family="Arial" font-size="24.00">distinct</text>
</a>
</g>
</g>
<!-- REMOTE SERVICE EXPLOIT
snmp | ID: 52&#45;&gt;SURFING
distinct -->
<g id="edge15" class="edge">
<title>REMOTE SERVICE EXPLOIT
snmp | ID: 52&#45;&gt;SURFING
distinct</title>
<path fill="none" stroke="blue" stroke-width="5" d="M505.22,-591.07C537.88,-596.9 565.98,-604.85 578.94,-615.69 597.91,-631.55 608.11,-656.82 613.59,-679.67"/>
<polygon fill="blue" stroke="blue" stroke-width="5" points="609.35,-680.76 615.72,-689.62 617.9,-678.93 609.35,-680.76"/>
<text text-anchor="middle" x="745.44" y="-665.69" font-family="Arial" font-size="20.00" fill="blue">start_next: 04/11/17, 16:33:21</text>
<text text-anchor="middle" x="745.44" y="-643.69" font-family="Arial" font-size="20.00" fill="blue">gap: 86sec</text>
<text text-anchor="middle" x="745.44" y="-621.69" font-family="Arial" font-size="20.00" fill="blue">end_prev: 04/11/17, 16:31:55</text>
</g>
<!-- INFO DISCOVERY
xdmcp&#45;&gt;DATA EXFILTRATION
distinct | ID: 409 -->
<g id="edge11" class="edge">
<title>INFO DISCOVERY
xdmcp&#45;&gt;DATA EXFILTRATION
distinct | ID: 409</title>
<path fill="none" stroke="blue" stroke-width="5" d="M203.47,-866.73C202.09,-869.57 200.89,-872.46 199.94,-875.39 181.84,-930.98 186.29,-998.29 193.29,-1045.3"/>
<polygon fill="blue" stroke="blue" stroke-width="5" points="188.99,-1046.11 194.86,-1055.31 197.63,-1044.75 188.99,-1046.11"/>
<text text-anchor="middle" x="331.44" y="-941.38" font-family="Arial" font-size="20.00" fill="blue">start_next: 04/11/17, 14:05:13</text>
<text text-anchor="middle" x="331.44" y="-919.38" font-family="Arial" font-size="20.00" fill="blue">gap: 26sec</text>
<text text-anchor="middle" x="331.44" y="-897.38" font-family="Arial" font-size="20.00" fill="blue">end_prev: 04/11/17, 14:04:47</text>
</g>
<!-- DATA DELIVERY
distinct | ID: 70 -->
<g id="node12" class="node">
<title>DATA DELIVERY
distinct | ID: 70</title>
<g id="a_node12"><a xlink:title="ET WEB_SERVER PHP Possible php Remote File Inclusion Attempt&#10;ET WEB_SERVER PHP tags in HTTP POST">
<polygon fill="yellow" stroke="black" stroke-width="3" points="516.04,-48.99 434.49,-97.97 271.39,-97.97 189.84,-48.99 271.39,-0.01 434.49,-0.01 516.04,-48.99"/>
<text text-anchor="middle" x="352.94" y="-55.79" font-family="Arial" font-size="24.00">DATA DELIVERY</text>
<text text-anchor="middle" x="352.94" y="-29.79" font-family="Arial" font-size="24.00">distinct | ID: 70</text>
</a>
</g>
</g>
<!-- VULNERABILTY DISCOVERY
ahsp -->
<g id="node13" class="node">
<title>VULNERABILTY DISCOVERY
ahsp</title>
<g id="a_node13"><a xlink:title="ET POLICY Suspicious inbound to mSQL port 4333">
<ellipse fill="none" stroke="black" stroke-width="3" cx="352.94" cy="-236.41" rx="241.25" ry="42.35"/>
<text text-anchor="middle" x="352.94" y="-243.21" font-family="Arial" font-size="24.00">VULNERABILTY DISCOVERY</text>
<text text-anchor="middle" x="352.94" y="-217.21" font-family="Arial" font-size="24.00">ahsp</text>
</a>
</g>
</g>
<!-- DATA DELIVERY
distinct | ID: 70&#45;&gt;VULNERABILTY DISCOVERY
ahsp -->
<g id="edge12" class="edge">
<title>DATA DELIVERY
distinct | ID: 70&#45;&gt;VULNERABILTY DISCOVERY
ahsp</title>
<path fill="none" stroke="blue" stroke-width="5" d="M352.94,-98.22C352.94,-124.37 352.94,-156.7 352.94,-183.4"/>
<polygon fill="blue" stroke="blue" stroke-width="5" points="348.57,-183.71 352.94,-193.71 357.32,-183.71 348.57,-183.71"/>
<text text-anchor="start" x="352.94" y="-170.98" font-family="Arial" font-size="20.00" fill="blue"> start_next: 04/11/17, 16:29:22</text>
<text text-anchor="start" x="426.44" y="-150.98" font-family="Arial" font-size="20.00" fill="blue">gap: 8642sec</text>
<text text-anchor="start" x="356.94" y="-130.98" font-family="Arial" font-size="20.00" fill="blue">end_prev: 04/11/17, 14:05:20</text>
<text text-anchor="start" x="387.44" y="-110.98" font-family="Arial" font-weight="bold" font-size="20.00" fill="blue">Attacker: 10.0.254.31</text>
</g>
<!-- VULNERABILTY DISCOVERY
ahsp&#45;&gt;ARBITRARY CODE EXECUTION
ssdp | ID: 355 -->
<g id="edge13" class="edge">
<title>VULNERABILTY DISCOVERY
ahsp&#45;&gt;ARBITRARY CODE EXECUTION
ssdp | ID: 355</title>
<path fill="none" stroke="blue" stroke-width="5" d="M351.08,-278.83C350.71,-304.4 351.62,-337.75 356.94,-366.83 357.57,-370.28 358.4,-373.82 359.35,-377.34"/>
<polygon fill="blue" stroke="blue" stroke-width="5" points="355.23,-378.8 362.3,-387.11 363.6,-376.28 355.23,-378.8"/>
<text text-anchor="middle" x="488.44" y="-343.83" font-family="Arial" font-size="20.00" fill="blue">start_next: 04/11/17, 16:31:28</text>
<text text-anchor="middle" x="488.44" y="-321.83" font-family="Arial" font-size="20.00" fill="blue">gap: 125sec</text>
<text text-anchor="middle" x="488.44" y="-299.83" font-family="Arial" font-size="20.00" fill="blue">end_prev: 04/11/17, 16:29:22</text>
</g>
<!-- DATA DELIVERY
distinct | ID: 410 -->
<g id="node15" class="node">
<title>DATA DELIVERY
distinct | ID: 410</title>
<g id="a_node15"><a xlink:title="ET WEB_SERVER PHP Possible php Remote File Inclusion Attempt&#10;ET WEB_SERVER PHP tags in HTTP POST&#10;GPL WEB_SERVER perl post attempt">
<polygon fill="none" stroke="black" stroke-width="3" stroke-dasharray="1,5" points="793.04,-924.38 711.49,-973.36 548.39,-973.36 466.84,-924.38 548.39,-875.4 711.49,-875.4 793.04,-924.38"/>
<text text-anchor="middle" x="629.94" y="-931.18" font-family="Arial" font-size="24.00">DATA DELIVERY</text>
<text text-anchor="middle" x="629.94" y="-905.18" font-family="Arial" font-size="24.00">distinct | ID: 410</text>
</a>
</g>
</g>
<!-- SURFING
distinct&#45;&gt;DATA DELIVERY
distinct | ID: 410 -->
<g id="edge16" class="edge">
<title>SURFING
distinct&#45;&gt;DATA DELIVERY
distinct | ID: 410</title>
<path fill="none" stroke="blue" stroke-width="5" d="M622.14,-774.87C623.53,-801.39 625.35,-836.09 626.89,-865.28"/>
<polygon fill="blue" stroke="blue" stroke-width="5" points="622.52,-865.59 627.42,-875.35 631.26,-865.13 622.52,-865.59"/>
<text text-anchor="middle" x="759.44" y="-841.96" font-family="Arial" font-size="20.00" fill="blue">start_next: 04/11/17, 16:33:26</text>
<text text-anchor="middle" x="759.44" y="-819.96" font-family="Arial" font-size="20.00" fill="blue">gap: 2sec</text>
<text text-anchor="middle" x="759.44" y="-797.96" font-family="Arial" font-size="20.00" fill="blue">end_prev: 04/11/17, 16:33:24</text>
</g>
<!-- DATA DELIVERY
distinct | ID: 410&#45;&gt;DATA EXFILTRATION
distinct | ID: 71 -->
<g id="edge17" class="edge">
<title>DATA DELIVERY
distinct | ID: 410&#45;&gt;DATA EXFILTRATION
distinct | ID: 71</title>
<path fill="none" stroke="blue" stroke-width="5" d="M628.86,-973.54C628.36,-995.61 627.77,-1021.94 627.25,-1045.11"/>
<polygon fill="blue" stroke="blue" stroke-width="5" points="622.87,-1045.06 627.02,-1055.16 631.62,-1045.26 622.87,-1045.06"/>
<text text-anchor="middle" x="760.44" y="-1031.37" font-family="Arial" font-size="20.00" fill="blue">start_next: 04/11/17, 16:33:32</text>
<text text-anchor="middle" x="760.44" y="-1009.37" font-family="Arial" font-size="20.00" fill="blue">gap: &#45;2sec</text>
<text text-anchor="middle" x="760.44" y="-987.37" font-family="Arial" font-size="20.00" fill="blue">end_prev: 04/11/17, 16:33:35</text>
</g>
</g>
</svg>
