<?xml version="1.0" encoding="UTF-8" standalone="no"?>
<!DOCTYPE svg PUBLIC "-//W3C//DTD SVG 1.1//EN"
 "http://www.w3.org/Graphics/SVG/1.1/DTD/svg11.dtd">
<!-- Generated by graphviz version 2.50.0 (0)
 -->
<!-- Title: DATADELIVERYhttp Pages: 1 -->
<svg width="2189pt" height="1657pt"
 viewBox="0.00 0.00 2188.50 1656.55" xmlns="http://www.w3.org/2000/svg" xmlns:xlink="http://www.w3.org/1999/xlink">
<g id="graph0" class="graph" transform="scale(1 1) rotate(0) translate(4 1652.55)">
<title>DATADELIVERYhttp</title>
<polygon fill="white" stroke="transparent" points="-4,4 -4,-1652.55 2184.5,-1652.55 2184.5,4 -4,4"/>
<!-- Victim: 10.0.0.72
DATA DELIVERY
http -->
<g id="node1" class="node">
<title>Victim: 10.0.0.72
DATA DELIVERY
http</title>
<polygon fill="salmon" stroke="black" stroke-width="3" points="1379.65,-1551.54 1379.65,-1605.92 1289.94,-1644.38 1163.07,-1644.38 1073.36,-1605.92 1073.36,-1551.54 1163.07,-1513.08 1289.94,-1513.08 1379.65,-1551.54"/>
<polygon fill="none" stroke="black" stroke-width="3" points="1383.65,-1548.91 1383.65,-1608.55 1290.76,-1648.37 1162.25,-1648.37 1069.36,-1608.55 1069.36,-1548.91 1162.25,-1509.09 1290.76,-1509.09 1383.65,-1548.91"/>
<text text-anchor="middle" x="1226.5" y="-1598.53" font-family="Arial" font-size="24.00">Victim: 10.0.0.72</text>
<text text-anchor="middle" x="1226.5" y="-1572.53" font-family="Arial" font-size="24.00">DATA DELIVERY</text>
<text text-anchor="middle" x="1226.5" y="-1546.53" font-family="Arial" font-size="24.00">http</text>
</g>
<!-- DATA DELIVERY
http | ID: 21 -->
<g id="node2" class="node">
<title>DATA DELIVERY
http | ID: 21</title>
<g id="a_node2"><a xlink:title="ET WEB_SERVER PHP tags in HTTP POST">
<polygon fill="salmon" stroke="black" stroke-width="3" points="1514.6,-1442.92 1433.05,-1491.9 1269.96,-1491.9 1188.41,-1442.92 1269.96,-1393.94 1433.05,-1393.94 1514.6,-1442.92"/>
<text text-anchor="middle" x="1351.5" y="-1449.72" font-family="Arial" font-size="24.00">DATA DELIVERY</text>
<text text-anchor="middle" x="1351.5" y="-1423.72" font-family="Arial" font-size="24.00">http | ID: 21</text>
</a>
</g>
</g>
<!-- DATA DELIVERY
http | ID: 21&#45;&gt;Victim: 10.0.0.72
DATA DELIVERY
http -->
<g id="edge1" class="edge">
<title>DATA DELIVERY
http | ID: 21&#45;&gt;Victim: 10.0.0.72
DATA DELIVERY
http</title>
<path fill="none" stroke="black" stroke-width="5" d="M1306.38,-1492.23C1303.62,-1495.18 1300.82,-1498.18 1297.99,-1501.2"/>
<polygon fill="black" stroke="black" stroke-width="5" points="1294.56,-1498.47 1290.93,-1508.77 1300.95,-1504.45 1294.56,-1498.47"/>
</g>
<!-- DATA DELIVERY
http | ID: 352 -->
<g id="node3" class="node">
<title>DATA DELIVERY
http | ID: 352</title>
<g id="a_node3"><a xlink:title="ET WEB_SERVER PHP Possible php Remote File Inclusion Attempt&#10;ET WEB_SERVER PHP tags in HTTP POST&#10;GPL WEB_SERVER perl post attempt&#10;ET WEB_SERVER PHP Possible file Remote File Inclusion Attempt">
<polygon fill="none" stroke="black" stroke-width="3" stroke-dasharray="1,5" points="1179.6,-1442.92 1098.05,-1491.9 934.96,-1491.9 853.41,-1442.92 934.96,-1393.94 1098.05,-1393.94 1179.6,-1442.92"/>
<text text-anchor="middle" x="1016.5" y="-1449.72" font-family="Arial" font-size="24.00">DATA DELIVERY</text>
<text text-anchor="middle" x="1016.5" y="-1423.72" font-family="Arial" font-size="24.00">http | ID: 352</text>
</a>
</g>
</g>
<!-- DATA DELIVERY
http | ID: 352&#45;&gt;Victim: 10.0.0.72
DATA DELIVERY
http -->
<g id="edge2" class="edge">
<title>DATA DELIVERY
http | ID: 352&#45;&gt;Victim: 10.0.0.72
DATA DELIVERY
http</title>
<path fill="none" stroke="black" stroke-width="5" d="M1092.02,-1492.04C1103.47,-1499.33 1115.43,-1506.95 1127.29,-1514.51"/>
<polygon fill="black" stroke="black" stroke-width="5" points="1125.11,-1518.31 1135.9,-1520 1129.82,-1510.93 1125.11,-1518.31"/>
</g>
<!-- VULNERABILTY DISCOVERY
ms&#45;sql&#45;s -->
<g id="node4" class="node">
<title>VULNERABILTY DISCOVERY
ms&#45;sql&#45;s</title>
<g id="a_node4"><a xlink:title="ET POLICY Suspicious inbound to MSSQL port 1433">
<ellipse fill="yellow" stroke="black" stroke-width="3" cx="474.5" cy="-723.84" rx="241.25" ry="42.35"/>
<text text-anchor="middle" x="474.5" y="-730.64" font-family="Arial" font-size="24.00">VULNERABILTY DISCOVERY</text>
<text text-anchor="middle" x="474.5" y="-704.64" font-family="Arial" font-size="24.00">ms&#45;sql&#45;s</text>
</a>
</g>
</g>
<!-- SERVICE DISCOVERY
unknown -->
<g id="node5" class="node">
<title>SERVICE DISCOVERY
unknown</title>
<g id="a_node5"><a xlink:title="ET SCAN Potential VNC Scan 5800&#45;5820&#10;ET SCAN Behavioral Unusual Port 445 traffic Potential Scan or Infection&#10;ET SCAN Potential VNC Scan 5900&#45;5920">
<ellipse fill="none" stroke="black" stroke-width="3" cx="189.5" cy="-922.67" rx="189.51" ry="42.35"/>
<text text-anchor="middle" x="189.5" y="-929.47" font-family="Arial" font-size="24.00">SERVICE DISCOVERY</text>
<text text-anchor="middle" x="189.5" y="-903.47" font-family="Arial" font-size="24.00">unknown</text>
</a>
</g>
</g>
<!-- VULNERABILTY DISCOVERY
ms&#45;sql&#45;s&#45;&gt;SERVICE DISCOVERY
unknown -->
<g id="edge3" class="edge">
<title>VULNERABILTY DISCOVERY
ms&#45;sql&#45;s&#45;&gt;SERVICE DISCOVERY
unknown</title>
<path fill="none" stroke="darkgreen" stroke-width="5" d="M268.34,-746C238.21,-752.94 213.58,-762.12 202.5,-774.26 190,-787.97 187.47,-833.13 187.64,-869.88"/>
<polygon fill="darkgreen" stroke="darkgreen" stroke-width="5" points="183.26,-870.05 187.75,-880 192.01,-869.95 183.26,-870.05"/>
<text text-anchor="start" x="202.5" y="-848.25" font-family="Arial" font-size="20.00" fill="darkgreen"> start_next: 04/11/17, 13:33:43</text>
<text text-anchor="start" x="287.5" y="-828.25" font-family="Arial" font-size="20.00" fill="darkgreen">gap: 82sec</text>
<text text-anchor="start" x="206.5" y="-808.25" font-family="Arial" font-size="20.00" fill="darkgreen">end_prev: 04/11/17, 13:32:21</text>
<text text-anchor="start" x="237" y="-788.25" font-family="Arial" font-weight="bold" font-size="20.00" fill="darkgreen">Attacker: 10.0.254.35</text>
</g>
<!-- SERVICE DISCOVERY
ag&#45;swim -->
<g id="node8" class="node">
<title>SERVICE DISCOVERY
ag&#45;swim</title>
<g id="a_node8"><a xlink:title="ET SCAN Potential VNC Scan 5900&#45;5920">
<ellipse fill="none" stroke="black" stroke-width="3" cx="608.5" cy="-922.67" rx="189.51" ry="42.35"/>
<text text-anchor="middle" x="608.5" y="-929.47" font-family="Arial" font-size="24.00">SERVICE DISCOVERY</text>
<text text-anchor="middle" x="608.5" y="-903.47" font-family="Arial" font-size="24.00">ag&#45;swim</text>
</a>
</g>
</g>
<!-- VULNERABILTY DISCOVERY
ms&#45;sql&#45;s&#45;&gt;SERVICE DISCOVERY
ag&#45;swim -->
<g id="edge7" class="edge">
<title>VULNERABILTY DISCOVERY
ms&#45;sql&#45;s&#45;&gt;SERVICE DISCOVERY
ag&#45;swim</title>
<path fill="none" stroke="darkgreen" stroke-width="5" d="M471.57,-766.6C469.79,-804.17 469.76,-855.92 481.5,-872.24 483.82,-875.46 486.37,-878.46 489.12,-881.27"/>
<polygon fill="darkgreen" stroke="darkgreen" stroke-width="5" points="486.49,-884.79 496.84,-888.26 492.36,-878.31 486.49,-884.79"/>
<text text-anchor="middle" x="613" y="-840.25" font-family="Arial" font-size="20.00" fill="darkgreen">start_next: 04/11/17, 13:52:28</text>
<text text-anchor="middle" x="613" y="-818.25" font-family="Arial" font-size="20.00" fill="darkgreen">gap: 138sec</text>
<text text-anchor="middle" x="613" y="-796.25" font-family="Arial" font-size="20.00" fill="darkgreen">end_prev: 04/11/17, 13:50:10</text>
</g>
<!-- HOST DISCOVERY
http -->
<g id="node6" class="node">
<title>HOST DISCOVERY
http</title>
<g id="a_node6"><a xlink:title="ET SCAN Possible Nmap User&#45;Agent Observed&#10;ET SCAN Nmap Scripting Engine User&#45;Agent Detected (Nmap Scripting Engine)">
<ellipse fill="none" stroke="black" stroke-width="3" cx="901.5" cy="-390.13" rx="162.77" ry="42.35"/>
<text text-anchor="middle" x="901.5" y="-396.93" font-family="Arial" font-size="24.00">HOST DISCOVERY</text>
<text text-anchor="middle" x="901.5" y="-370.93" font-family="Arial" font-size="24.00">http</text>
</a>
</g>
</g>
<!-- SERVICE DISCOVERY
unknown&#45;&gt;HOST DISCOVERY
http -->
<g id="edge4" class="edge">
<title>SERVICE DISCOVERY
unknown&#45;&gt;HOST DISCOVERY
http</title>
<path fill="none" stroke="darkgreen" stroke-width="5" d="M188.05,-880.01C187.38,-850.46 187.17,-809.89 189.5,-774.26 197.54,-651.93 185.13,-589.05 282.5,-514.56 351.53,-461.75 379.3,-462.08 463.5,-440.56 550.51,-418.32 649.79,-406.08 731.81,-399.35"/>
<polygon fill="darkgreen" stroke="darkgreen" stroke-width="5" points="732.36,-403.7 741.98,-398.54 731.66,-394.98 732.36,-403.7"/>
<text text-anchor="middle" x="340" y="-657.41" font-family="Arial" font-size="20.00" fill="darkgreen">start_next: 04/11/17, 13:40:15</text>
<text text-anchor="middle" x="340" y="-635.41" font-family="Arial" font-size="20.00" fill="darkgreen">gap: 312sec</text>
<text text-anchor="middle" x="340" y="-613.41" font-family="Arial" font-size="20.00" fill="darkgreen">end_prev: 04/11/17, 13:35:03</text>
</g>
<!-- SERVICE DISCOVERY
rfb -->
<g id="node7" class="node">
<title>SERVICE DISCOVERY
rfb</title>
<g id="a_node7"><a xlink:title="ET SCAN Potential VNC Scan 5900&#45;5920">
<ellipse fill="none" stroke="black" stroke-width="3" cx="475.5" cy="-556.98" rx="189.51" ry="42.35"/>
<text text-anchor="middle" x="475.5" y="-563.78" font-family="Arial" font-size="24.00">SERVICE DISCOVERY</text>
<text text-anchor="middle" x="475.5" y="-537.78" font-family="Arial" font-size="24.00">rfb</text>
</a>
</g>
</g>
<!-- HOST DISCOVERY
http&#45;&gt;SERVICE DISCOVERY
rfb -->
<g id="edge5" class="edge">
<title>HOST DISCOVERY
http&#45;&gt;SERVICE DISCOVERY
rfb</title>
<path fill="none" stroke="darkgreen" stroke-width="5" d="M743.07,-400.02C631.8,-407.88 499.68,-421.15 481.5,-440.56 465.8,-457.32 462.94,-482.17 464.58,-504.52"/>
<polygon fill="darkgreen" stroke="darkgreen" stroke-width="5" points="460.24,-505.08 465.62,-514.58 468.94,-504.19 460.24,-505.08"/>
<text text-anchor="middle" x="613" y="-490.56" font-family="Arial" font-size="20.00" fill="darkgreen">start_next: 04/11/17, 13:44:14</text>
<text text-anchor="middle" x="613" y="-468.56" font-family="Arial" font-size="20.00" fill="darkgreen">gap: 238sec</text>
<text text-anchor="middle" x="613" y="-446.56" font-family="Arial" font-size="20.00" fill="darkgreen">end_prev: 04/11/17, 13:40:15</text>
</g>
<!-- VULNERABILTY DISCOVERY
http -->
<g id="node9" class="node">
<title>VULNERABILTY DISCOVERY
http</title>
<g id="a_node9"><a xlink:title="ET POLICY Suspicious inbound to mySQL port 3306&#10;ET POLICY Suspicious inbound to mSQL port 4333&#10;ET POLICY Suspicious inbound to MSSQL port 1433&#10;ET POLICY Suspicious inbound to Oracle SQL port 1521&#10;ET CURRENT_EVENTS Malformed HeartBeat Request&#10;ET POLICY Suspicious inbound to PostgreSQL port 5432&#10;ET SCAN Nikto Web App Scan in Progress&#10;ET SCAN OpenVAS User&#45;Agent Inbound">
<ellipse fill="none" stroke="black" stroke-width="3" cx="1574.5" cy="-556.98" rx="241.25" ry="42.35"/>
<text text-anchor="middle" x="1574.5" y="-563.78" font-family="Arial" font-size="24.00">VULNERABILTY DISCOVERY</text>
<text text-anchor="middle" x="1574.5" y="-537.78" font-family="Arial" font-size="24.00">http</text>
</a>
</g>
</g>
<!-- HOST DISCOVERY
http&#45;&gt;VULNERABILTY DISCOVERY
http -->
<g id="edge9" class="edge">
<title>HOST DISCOVERY
http&#45;&gt;VULNERABILTY DISCOVERY
http</title>
<path fill="none" stroke="darkgreen" stroke-width="5" d="M1063.49,-394.39C1199.43,-399.19 1381.78,-411.09 1448.5,-440.56 1482.07,-455.38 1512.62,-482.83 1535.23,-507.24"/>
<polygon fill="darkgreen" stroke="darkgreen" stroke-width="5" points="1532.03,-510.23 1541.99,-514.71 1538.52,-504.36 1532.03,-510.23"/>
<text text-anchor="middle" x="1664" y="-490.56" font-family="Arial" font-size="20.00" fill="darkgreen">start_next: 04/11/17, 22:04:25</text>
<text text-anchor="middle" x="1664" y="-468.56" font-family="Arial" font-size="20.00" fill="darkgreen">gap: 29303sec</text>
<text text-anchor="middle" x="1664" y="-446.56" font-family="Arial" font-size="20.00" fill="darkgreen">end_prev: 04/11/17, 13:56:02</text>
</g>
<!-- SURFING
http -->
<g id="node12" class="node">
<title>SURFING
http</title>
<g id="a_node12"><a xlink:title="ET WEB_SERVER WEB&#45;PHP phpinfo access">
<ellipse fill="none" stroke="black" stroke-width="3" cx="916.5" cy="-556.98" rx="88.28" ry="42.35"/>
<text text-anchor="middle" x="916.5" y="-563.78" font-family="Arial" font-size="24.00">SURFING</text>
<text text-anchor="middle" x="916.5" y="-537.78" font-family="Arial" font-size="24.00">http</text>
</a>
</g>
</g>
<!-- HOST DISCOVERY
http&#45;&gt;SURFING
http -->
<g id="edge13" class="edge">
<title>HOST DISCOVERY
http&#45;&gt;SURFING
http</title>
<path fill="none" stroke="darkgreen" stroke-width="5" d="M901.1,-432.68C901.32,-452.39 902.19,-476.46 905.45,-504.48"/>
<polygon fill="darkgreen" stroke="darkgreen" stroke-width="5" points="901.12,-505.17 906.7,-514.55 909.81,-504.09 901.12,-505.17"/>
<text text-anchor="middle" x="1037" y="-490.56" font-family="Arial" font-size="20.00" fill="darkgreen">start_next: 04/11/17, 22:10:16</text>
<text text-anchor="middle" x="1037" y="-468.56" font-family="Arial" font-size="20.00" fill="darkgreen">gap: 9sec</text>
<text text-anchor="middle" x="1037" y="-446.56" font-family="Arial" font-size="20.00" fill="darkgreen">end_prev: 04/11/17, 22:10:07</text>
</g>
<!-- PRIVILEGE ESCALATION
http | ID: 677 -->
<g id="node19" class="node">
<title>PRIVILEGE ESCALATION
http | ID: 677</title>
<g id="a_node19"><a xlink:title="ET POLICY Http Client Body contains pass= in cleartext">
<polygon fill="none" stroke="black" stroke-width="3" points="1326,-586.98 1027,-586.98 1027,-526.98 1326,-526.98 1326,-586.98"/>
<text text-anchor="middle" x="1176.5" y="-563.78" font-family="Arial" font-size="24.00">PRIVILEGE ESCALATION</text>
<text text-anchor="middle" x="1176.5" y="-537.78" font-family="Arial" font-size="24.00">http | ID: 677</text>
</a>
</g>
</g>
<!-- HOST DISCOVERY
http&#45;&gt;PRIVILEGE ESCALATION
http | ID: 677 -->
<g id="edge21" class="edge">
<title>HOST DISCOVERY
http&#45;&gt;PRIVILEGE ESCALATION
http | ID: 677</title>
<path fill="none" stroke="tomato" stroke-width="5" d="M1055.4,-404.16C1104.07,-411.53 1149.42,-422.96 1165.5,-440.56 1183.86,-460.65 1185.9,-491.71 1183.73,-516.55"/>
<polygon fill="tomato" stroke="tomato" stroke-width="5" points="1179.35,-516.34 1182.58,-526.77 1188.05,-517.32 1179.35,-516.34"/>
<text text-anchor="middle" x="1316" y="-490.56" font-family="Arial" font-size="20.00" fill="tomato">start_next: 04/11/17, 19:14:51</text>
<text text-anchor="middle" x="1316" y="-468.56" font-family="Arial" font-size="20.00" fill="tomato">gap: &#45;300sec</text>
<text text-anchor="middle" x="1316" y="-446.56" font-family="Arial" font-size="20.00" fill="tomato">end_prev: 04/11/17, 19:19:51</text>
</g>
<!-- SERVICE DISCOVERY
rfb&#45;&gt;VULNERABILTY DISCOVERY
ms&#45;sql&#45;s -->
<g id="edge6" class="edge">
<title>SERVICE DISCOVERY
rfb&#45;&gt;VULNERABILTY DISCOVERY
ms&#45;sql&#45;s</title>
<path fill="none" stroke="darkgreen" stroke-width="5" d="M475.25,-599.58C475.12,-621.26 474.96,-647.96 474.82,-670.97"/>
<polygon fill="darkgreen" stroke="darkgreen" stroke-width="5" points="470.44,-671.23 474.76,-681.25 479.19,-671.28 470.44,-671.23"/>
<text text-anchor="middle" x="607" y="-657.41" font-family="Arial" font-size="20.00" fill="darkgreen">start_next: 04/11/17, 13:50:10</text>
<text text-anchor="middle" x="607" y="-635.41" font-family="Arial" font-size="20.00" fill="darkgreen">gap: 356sec</text>
<text text-anchor="middle" x="607" y="-613.41" font-family="Arial" font-size="20.00" fill="darkgreen">end_prev: 04/11/17, 13:44:14</text>
</g>
<!-- SERVICE DISCOVERY
ag&#45;swim&#45;&gt;HOST DISCOVERY
http -->
<g id="edge8" class="edge">
<title>SERVICE DISCOVERY
ag&#45;swim&#45;&gt;HOST DISCOVERY
http</title>
<path fill="none" stroke="darkgreen" stroke-width="5" d="M725.23,-889.08C731.38,-884.22 736.91,-878.65 741.5,-872.24 810.17,-776.58 712.31,-719.14 749.5,-607.41 771.09,-542.57 818.99,-479.99 855.29,-438.97"/>
<polygon fill="darkgreen" stroke="darkgreen" stroke-width="5" points="858.74,-441.68 862.15,-431.32 852.22,-435.84 858.74,-441.68"/>
<text text-anchor="middle" x="881" y="-657.41" font-family="Arial" font-size="20.00" fill="darkgreen">start_next: 04/11/17, 13:56:02</text>
<text text-anchor="middle" x="881" y="-635.41" font-family="Arial" font-size="20.00" fill="darkgreen">gap: 214sec</text>
<text text-anchor="middle" x="881" y="-613.41" font-family="Arial" font-size="20.00" fill="darkgreen">end_prev: 04/11/17, 13:52:28</text>
</g>
<!-- SERVICE DISCOVERY
icmpd -->
<g id="node10" class="node">
<title>SERVICE DISCOVERY
icmpd</title>
<g id="a_node10"><a xlink:title="ET SCAN Potential VNC Scan 5800&#45;5820&#10;ET SCAN Potential SSH Scan&#10;ET SCAN NMAP OS Detection Probe">
<ellipse fill="none" stroke="black" stroke-width="3" cx="1575.5" cy="-723.84" rx="189.51" ry="42.35"/>
<text text-anchor="middle" x="1575.5" y="-730.64" font-family="Arial" font-size="24.00">SERVICE DISCOVERY</text>
<text text-anchor="middle" x="1575.5" y="-704.64" font-family="Arial" font-size="24.00">icmpd</text>
</a>
</g>
</g>
<!-- VULNERABILTY DISCOVERY
http&#45;&gt;SERVICE DISCOVERY
icmpd -->
<g id="edge10" class="edge">
<title>VULNERABILTY DISCOVERY
http&#45;&gt;SERVICE DISCOVERY
icmpd</title>
<path fill="none" stroke="darkgreen" stroke-width="5" d="M1574.76,-599.58C1574.89,-621.26 1575.05,-647.96 1575.19,-670.97"/>
<polygon fill="darkgreen" stroke="darkgreen" stroke-width="5" points="1570.82,-671.28 1575.25,-681.25 1579.57,-671.23 1570.82,-671.28"/>
<text text-anchor="middle" x="1707" y="-657.41" font-family="Arial" font-size="20.00" fill="darkgreen">start_next: 04/11/17, 22:05:56</text>
<text text-anchor="middle" x="1707" y="-635.41" font-family="Arial" font-size="20.00" fill="darkgreen">gap: &#45;326sec</text>
<text text-anchor="middle" x="1707" y="-613.41" font-family="Arial" font-size="20.00" fill="darkgreen">end_prev: 04/11/17, 22:11:22</text>
</g>
<!-- BRUTE FORCE CREDENTIALS
pop3 | ID: 46 -->
<g id="node11" class="node">
<title>BRUTE FORCE CREDENTIALS
pop3 | ID: 46</title>
<g id="a_node11"><a xlink:title="ET SCAN Rapid POP3 Connections &#45; Possible Brute Force Attack">
<polygon fill="none" stroke="black" stroke-width="3" points="1893.5,-952.67 1531.5,-952.67 1531.5,-892.67 1893.5,-892.67 1893.5,-952.67"/>
<text text-anchor="middle" x="1712.5" y="-929.47" font-family="Arial" font-size="24.00">BRUTE FORCE CREDENTIALS</text>
<text text-anchor="middle" x="1712.5" y="-903.47" font-family="Arial" font-size="24.00">pop3 | ID: 46</text>
</a>
</g>
</g>
<!-- SERVICE DISCOVERY
icmpd&#45;&gt;BRUTE FORCE CREDENTIALS
pop3 | ID: 46 -->
<g id="edge11" class="edge">
<title>SERVICE DISCOVERY
icmpd&#45;&gt;BRUTE FORCE CREDENTIALS
pop3 | ID: 46</title>
<path fill="none" stroke="darkgreen" stroke-width="5" d="M1565.75,-766.3C1560.74,-798.24 1559.61,-841.93 1581.5,-872.24 1585.29,-877.48 1589.7,-882.16 1594.56,-886.35"/>
<polygon fill="darkgreen" stroke="darkgreen" stroke-width="5" points="1591.97,-889.88 1602.55,-892.53 1597.32,-882.95 1591.97,-889.88"/>
<text text-anchor="middle" x="1713" y="-840.25" font-family="Arial" font-size="20.00" fill="darkgreen">start_next: 04/11/17, 22:05:58</text>
<text text-anchor="middle" x="1713" y="-818.25" font-family="Arial" font-size="20.00" fill="darkgreen">gap: &#45;247sec</text>
<text text-anchor="middle" x="1713" y="-796.25" font-family="Arial" font-size="20.00" fill="darkgreen">end_prev: 04/11/17, 22:10:06</text>
</g>
<!-- BRUTE FORCE CREDENTIALS
pop3 | ID: 46&#45;&gt;HOST DISCOVERY
http -->
<g id="edge12" class="edge">
<title>BRUTE FORCE CREDENTIALS
pop3 | ID: 46&#45;&gt;HOST DISCOVERY
http</title>
<path fill="none" stroke="darkgreen" stroke-width="5" d="M1821.14,-892.58C1829.01,-886.95 1836,-880.25 1841.5,-872.24 1950.81,-713.3 1948.62,-559.18 1796.5,-440.56 1741.13,-397.38 1318.91,-390.52 1074.68,-390.23"/>
<polygon fill="darkgreen" stroke="darkgreen" stroke-width="5" points="1074.64,-385.85 1064.63,-390.22 1074.63,-394.6 1074.64,-385.85"/>
<text text-anchor="middle" x="2049" y="-657.41" font-family="Arial" font-size="20.00" fill="darkgreen">start_next: 04/11/17, 22:10:07</text>
<text text-anchor="middle" x="2049" y="-635.41" font-family="Arial" font-size="20.00" fill="darkgreen">gap: 249sec</text>
<text text-anchor="middle" x="2049" y="-613.41" font-family="Arial" font-size="20.00" fill="darkgreen">end_prev: 04/11/17, 22:05:58</text>
</g>
<!-- USER PRIVILEGE ESCALATION
http | ID: 274 -->
<g id="node13" class="node">
<title>USER PRIVILEGE ESCALATION
http | ID: 274</title>
<g id="a_node13"><a xlink:title="ET POLICY Outgoing Basic Auth Base64 HTTP Password detected unencrypted&#10;ET POLICY Incoming Basic Auth Base64 HTTP Password detected unencrypted">
<polygon fill="none" stroke="black" stroke-width="3" points="1171.5,-753.84 799.5,-753.84 799.5,-693.84 1171.5,-693.84 1171.5,-753.84"/>
<text text-anchor="middle" x="985.5" y="-730.64" font-family="Arial" font-size="24.00">USER PRIVILEGE ESCALATION</text>
<text text-anchor="middle" x="985.5" y="-704.64" font-family="Arial" font-size="24.00">http | ID: 274</text>
</a>
</g>
</g>
<!-- SURFING
http&#45;&gt;USER PRIVILEGE ESCALATION
http | ID: 274 -->
<g id="edge14" class="edge">
<title>SURFING
http&#45;&gt;USER PRIVILEGE ESCALATION
http | ID: 274</title>
<path fill="none" stroke="darkgreen" stroke-width="5" d="M987.68,-582.28C997.96,-588.85 1007.18,-597.1 1013.5,-607.41 1028.83,-632.42 1020.98,-645.05 1013.5,-673.41 1012.54,-677.06 1011.24,-680.72 1009.73,-684.31"/>
<polygon fill="darkgreen" stroke="darkgreen" stroke-width="5" points="1005.66,-682.67 1005.3,-693.58 1013.56,-686.44 1005.66,-682.67"/>
<text text-anchor="middle" x="1154" y="-657.41" font-family="Arial" font-size="20.00" fill="darkgreen">start_next: 04/11/17, 22:10:23</text>
<text text-anchor="middle" x="1154" y="-635.41" font-family="Arial" font-size="20.00" fill="darkgreen">gap: &#45;52sec</text>
<text text-anchor="middle" x="1154" y="-613.41" font-family="Arial" font-size="20.00" fill="darkgreen">end_prev: 04/11/17, 22:11:15</text>
</g>
<!-- ARBITRARY CODE EXECUTION
http | ID: 32 -->
<g id="node14" class="node">
<title>ARBITRARY CODE EXECUTION
http | ID: 32</title>
<g id="a_node14"><a xlink:title="ET CURRENT_EVENTS QNAP Shellshock CVE&#45;2014&#45;6271">
<polygon fill="none" stroke="black" stroke-width="3" points="1197,-952.67 822,-952.67 822,-892.67 1197,-892.67 1197,-952.67"/>
<text text-anchor="middle" x="1009.5" y="-929.47" font-family="Arial" font-size="24.00">ARBITRARY CODE EXECUTION</text>
<text text-anchor="middle" x="1009.5" y="-903.47" font-family="Arial" font-size="24.00">http | ID: 32</text>
</a>
</g>
</g>
<!-- USER PRIVILEGE ESCALATION
http | ID: 274&#45;&gt;ARBITRARY CODE EXECUTION
http | ID: 32 -->
<g id="edge15" class="edge">
<title>USER PRIVILEGE ESCALATION
http | ID: 274&#45;&gt;ARBITRARY CODE EXECUTION
http | ID: 32</title>
<path fill="none" stroke="darkgreen" stroke-width="5" d="M899.97,-753.89C892.33,-759.54 885.58,-766.27 880.5,-774.26 857.17,-811.03 855.83,-836.36 880.5,-872.24 884.03,-877.37 888.17,-881.97 892.75,-886.09"/>
<polygon fill="darkgreen" stroke="darkgreen" stroke-width="5" points="890.33,-889.75 900.87,-892.58 895.79,-882.91 890.33,-889.75"/>
<text text-anchor="middle" x="1012" y="-840.25" font-family="Arial" font-size="20.00" fill="darkgreen">start_next: 04/11/17, 22:10:26</text>
<text text-anchor="middle" x="1012" y="-818.25" font-family="Arial" font-size="20.00" fill="darkgreen">gap: &#45;18sec</text>
<text text-anchor="middle" x="1012" y="-796.25" font-family="Arial" font-size="20.00" fill="darkgreen">end_prev: 04/11/17, 22:10:45</text>
</g>
<!-- INFO DISCOVERY
http -->
<g id="node15" class="node">
<title>INFO DISCOVERY
http</title>
<g id="a_node15"><a xlink:title="GPL WEB_SERVER globals.pl access">
<ellipse fill="none" stroke="black" stroke-width="3" cx="1009.5" cy="-1089.52" rx="156.04" ry="42.35"/>
<text text-anchor="middle" x="1009.5" y="-1096.32" font-family="Arial" font-size="24.00">INFO DISCOVERY</text>
<text text-anchor="middle" x="1009.5" y="-1070.32" font-family="Arial" font-size="24.00">http</text>
</a>
</g>
</g>
<!-- ARBITRARY CODE EXECUTION
http | ID: 32&#45;&gt;INFO DISCOVERY
http -->
<g id="edge16" class="edge">
<title>ARBITRARY CODE EXECUTION
http | ID: 32&#45;&gt;INFO DISCOVERY
http</title>
<path fill="none" stroke="darkgreen" stroke-width="5" d="M1009.5,-952.76C1009.5,-975.96 1009.5,-1009.03 1009.5,-1036.72"/>
<polygon fill="darkgreen" stroke="darkgreen" stroke-width="5" points="1005.13,-1037.04 1009.5,-1047.04 1013.88,-1037.04 1005.13,-1037.04"/>
<text text-anchor="middle" x="1141" y="-1023.1" font-family="Arial" font-size="20.00" fill="darkgreen">start_next: 04/11/17, 22:10:29</text>
<text text-anchor="middle" x="1141" y="-1001.1" font-family="Arial" font-size="20.00" fill="darkgreen">gap: &#45;46sec</text>
<text text-anchor="middle" x="1141" y="-979.1" font-family="Arial" font-size="20.00" fill="darkgreen">end_prev: 04/11/17, 22:11:15</text>
</g>
<!-- DATA EXFILTRATION
http | ID: 876 -->
<g id="node16" class="node">
<title>DATA EXFILTRATION
http | ID: 876</title>
<g id="a_node16"><a xlink:title="ET WEB_SPECIFIC_APPS PHP&#45;CGI query string parameter vulnerability&#10;ET WEB_SERVER DD&#45;WRT Information Disclosure Attempt&#10;ET CURRENT_EVENTS Possible TLS HeartBleed Unencrypted Request Method 3 (Inbound to Common SSL Port)&#10;ET INFO WinHttp AutoProxy Request wpad.dat Possible BadTunnel">
<polygon fill="none" stroke="black" stroke-width="3" stroke-dasharray="1,5" points="1215.39,-1262.94 1112.95,-1311.92 908.06,-1311.92 805.62,-1262.94 908.06,-1213.96 1112.95,-1213.96 1215.39,-1262.94"/>
<text text-anchor="middle" x="1010.5" y="-1269.74" font-family="Arial" font-size="24.00">DATA EXFILTRATION</text>
<text text-anchor="middle" x="1010.5" y="-1243.74" font-family="Arial" font-size="24.00">http | ID: 876</text>
</a>
</g>
</g>
<!-- INFO DISCOVERY
http&#45;&gt;DATA EXFILTRATION
http | ID: 876 -->
<g id="edge17" class="edge">
<title>INFO DISCOVERY
http&#45;&gt;DATA EXFILTRATION
http | ID: 876</title>
<path fill="none" stroke="darkgreen" stroke-width="5" d="M1009.75,-1132.02C1009.87,-1153.51 1010.03,-1180.11 1010.16,-1203.63"/>
<polygon fill="darkgreen" stroke="darkgreen" stroke-width="5" points="1005.79,-1203.87 1010.22,-1213.84 1014.54,-1203.82 1005.79,-1203.87"/>
<text text-anchor="middle" x="1142" y="-1189.95" font-family="Arial" font-size="20.00" fill="darkgreen">start_next: 04/11/17, 22:10:29</text>
<text text-anchor="middle" x="1142" y="-1167.95" font-family="Arial" font-size="20.00" fill="darkgreen">gap: 1sec</text>
<text text-anchor="middle" x="1142" y="-1145.95" font-family="Arial" font-size="20.00" fill="darkgreen">end_prev: 04/11/17, 22:10:29</text>
</g>
<!-- DATA EXFILTRATION
http | ID: 876&#45;&gt;DATA DELIVERY
http | ID: 352 -->
<g id="edge18" class="edge">
<title>DATA EXFILTRATION
http | ID: 876&#45;&gt;DATA DELIVERY
http | ID: 352</title>
<path fill="none" stroke="darkgreen" stroke-width="5" d="M1012.13,-1312.1C1012.87,-1334.16 1013.76,-1360.5 1014.54,-1383.66"/>
<polygon fill="darkgreen" stroke="darkgreen" stroke-width="5" points="1010.17,-1383.87 1014.88,-1393.72 1018.92,-1383.57 1010.17,-1383.87"/>
<text text-anchor="middle" x="1147" y="-1369.93" font-family="Arial" font-size="20.00" fill="darkgreen">start_next: 04/11/17, 22:10:48</text>
<text text-anchor="middle" x="1147" y="-1347.93" font-family="Arial" font-size="20.00" fill="darkgreen">gap: &#45;45sec</text>
<text text-anchor="middle" x="1147" y="-1325.93" font-family="Arial" font-size="20.00" fill="darkgreen">end_prev: 04/11/17, 22:11:33</text>
</g>
<!-- VULNERABILTY DISCOVERY
submission -->
<g id="node17" class="node">
<title>VULNERABILTY DISCOVERY
submission</title>
<g id="a_node17"><a xlink:title="ET POLICY Suspicious inbound to mySQL port 3306&#10;ET POLICY Suspicious inbound to MSSQL port 1433&#10;ET SCAN Nmap NSE Heartbleed Request&#10;ET POLICY Suspicious inbound to Oracle SQL port 1521&#10;ET CURRENT_EVENTS Malformed HeartBeat Request&#10;ET POLICY Suspicious inbound to PostgreSQL port 5432">
<ellipse fill="yellow" stroke="black" stroke-width="3" cx="901.5" cy="-42.43" rx="241.25" ry="42.35"/>
<text text-anchor="middle" x="901.5" y="-49.23" font-family="Arial" font-size="24.00">VULNERABILTY DISCOVERY</text>
<text text-anchor="middle" x="901.5" y="-23.23" font-family="Arial" font-size="24.00">submission</text>
</a>
</g>
</g>
<!-- SERVICE DISCOVERY
ssh -->
<g id="node18" class="node">
<title>SERVICE DISCOVERY
ssh</title>
<g id="a_node18"><a xlink:title="ET SCAN Potential SSH Scan&#10;ET SCAN Potential VNC Scan 5900&#45;5920">
<ellipse fill="none" stroke="black" stroke-width="3" cx="901.5" cy="-223.28" rx="189.51" ry="42.35"/>
<text text-anchor="middle" x="901.5" y="-230.08" font-family="Arial" font-size="24.00">SERVICE DISCOVERY</text>
<text text-anchor="middle" x="901.5" y="-204.08" font-family="Arial" font-size="24.00">ssh</text>
</a>
</g>
</g>
<!-- VULNERABILTY DISCOVERY
submission&#45;&gt;SERVICE DISCOVERY
ssh -->
<g id="edge19" class="edge">
<title>VULNERABILTY DISCOVERY
submission&#45;&gt;SERVICE DISCOVERY
ssh</title>
<path fill="none" stroke="tomato" stroke-width="5" d="M901.5,-84.91C901.5,-110.44 901.5,-143.37 901.5,-170.59"/>
<polygon fill="tomato" stroke="tomato" stroke-width="5" points="897.13,-170.71 901.5,-180.71 905.88,-170.71 897.13,-170.71"/>
<text text-anchor="start" x="901.5" y="-157.85" font-family="Arial" font-size="20.00" fill="tomato"> start_next: 04/11/17, 19:13:10</text>
<text text-anchor="start" x="978" y="-137.85" font-family="Arial" font-size="20.00" fill="tomato">gap: &#45;119sec</text>
<text text-anchor="start" x="905.5" y="-117.85" font-family="Arial" font-size="20.00" fill="tomato">end_prev: 04/11/17, 19:15:09</text>
<text text-anchor="start" x="936" y="-97.85" font-family="Arial" font-weight="bold" font-size="20.00" fill="tomato">Attacker: 10.0.254.30</text>
</g>
<!-- SERVICE DISCOVERY
ssh&#45;&gt;HOST DISCOVERY
http -->
<g id="edge20" class="edge">
<title>SERVICE DISCOVERY
ssh&#45;&gt;HOST DISCOVERY
http</title>
<path fill="none" stroke="tomato" stroke-width="5" d="M901.5,-265.88C901.5,-287.55 901.5,-314.26 901.5,-337.27"/>
<polygon fill="tomato" stroke="tomato" stroke-width="5" points="897.13,-337.55 901.5,-347.55 905.88,-337.55 897.13,-337.55"/>
<text text-anchor="middle" x="1033" y="-323.71" font-family="Arial" font-size="20.00" fill="tomato">start_next: 04/11/17, 19:14:51</text>
<text text-anchor="middle" x="1033" y="-301.71" font-family="Arial" font-size="20.00" fill="tomato">gap: 28sec</text>
<text text-anchor="middle" x="1033" y="-279.71" font-family="Arial" font-size="20.00" fill="tomato">end_prev: 04/11/17, 19:14:23</text>
</g>
<!-- DATA EXFILTRATION
http | ID: 228 -->
<g id="node20" class="node">
<title>DATA EXFILTRATION
http | ID: 228</title>
<g id="a_node20"><a xlink:title="ET WEB_SPECIFIC_APPS PHP&#45;CGI query string parameter vulnerability&#10;ET WEB_SERVER DD&#45;WRT Information Disclosure Attempt&#10;ET CURRENT_EVENTS Possible TLS HeartBleed Unencrypted Request Method 3 (Inbound to Common SSL Port)">
<polygon fill="none" stroke="black" stroke-width="3" points="1556.39,-823.25 1453.95,-872.23 1249.06,-872.23 1146.62,-823.25 1249.06,-774.27 1453.95,-774.27 1556.39,-823.25"/>
<text text-anchor="middle" x="1351.5" y="-830.05" font-family="Arial" font-size="24.00">DATA EXFILTRATION</text>
<text text-anchor="middle" x="1351.5" y="-804.05" font-family="Arial" font-size="24.00">http | ID: 228</text>
</a>
</g>
</g>
<!-- PRIVILEGE ESCALATION
http | ID: 677&#45;&gt;DATA EXFILTRATION
http | ID: 228 -->
<g id="edge22" class="edge">
<title>PRIVILEGE ESCALATION
http | ID: 677&#45;&gt;DATA EXFILTRATION
http | ID: 228</title>
<path fill="none" stroke="tomato" stroke-width="5" d="M1261.86,-587.05C1271.02,-592.74 1279.52,-599.47 1286.5,-607.41 1297.08,-619.45 1320.9,-704.71 1336.58,-764.13"/>
<polygon fill="tomato" stroke="tomato" stroke-width="5" points="1332.44,-765.6 1339.21,-774.17 1340.91,-763.38 1332.44,-765.6"/>
<text text-anchor="middle" x="1442" y="-657.41" font-family="Arial" font-size="20.00" fill="tomato">start_next: 04/11/17, 19:14:51</text>
<text text-anchor="middle" x="1442" y="-635.41" font-family="Arial" font-size="20.00" fill="tomato">gap: 0sec</text>
<text text-anchor="middle" x="1442" y="-613.41" font-family="Arial" font-size="20.00" fill="tomato">end_prev: 04/11/17, 19:14:51</text>
</g>
<!-- DATA EXFILTRATION
http | ID: 228&#45;&gt;DATA DELIVERY
http | ID: 21 -->
<g id="edge23" class="edge">
<title>DATA EXFILTRATION
http | ID: 228&#45;&gt;DATA DELIVERY
http | ID: 21</title>
<path fill="none" stroke="tomato" stroke-width="5" d="M1351.5,-872.61C1351.5,-909.03 1351.5,-960.2 1351.5,-1005.1 1351.5,-1005.1 1351.5,-1005.1 1351.5,-1263.94 1351.5,-1303.7 1351.5,-1348.46 1351.5,-1383.15"/>
<polygon fill="tomato" stroke="tomato" stroke-width="5" points="1347.13,-1383.57 1351.5,-1393.57 1355.88,-1383.57 1347.13,-1383.57"/>
<text text-anchor="middle" x="1483" y="-1106.52" font-family="Arial" font-size="20.00" fill="tomato">start_next: 04/11/17, 19:14:51</text>
<text text-anchor="middle" x="1483" y="-1084.52" font-family="Arial" font-size="20.00" fill="tomato">gap: &#45;4sec</text>
<text text-anchor="middle" x="1483" y="-1062.52" font-family="Arial" font-size="20.00" fill="tomato">end_prev: 04/11/17, 19:14:55</text>
</g>
</g>
</svg>
