<?xml version="1.0" encoding="UTF-8" standalone="no"?>
<!DOCTYPE svg PUBLIC "-//W3C//DTD SVG 1.1//EN"
 "http://www.w3.org/Graphics/SVG/1.1/DTD/svg11.dtd">
<!-- Generated by graphviz version 2.50.0 (0)
 -->
<!-- Title: DATAEXFILTRATIONunknown Pages: 1 -->
<svg width="2032pt" height="1799pt"
 viewBox="0.00 0.00 2032.00 1798.55" xmlns="http://www.w3.org/2000/svg" xmlns:xlink="http://www.w3.org/1999/xlink">
<g id="graph0" class="graph" transform="scale(1 1) rotate(0) translate(4 1794.55)">
<title>DATAEXFILTRATIONunknown</title>
<polygon fill="white" stroke="transparent" points="-4,4 -4,-1794.55 2028,-1794.55 2028,4 -4,4"/>
<!-- Victim: 10.0.0.224
DATA EXFILTRATION
unknown -->
<g id="node1" class="node">
<title>Victim: 10.0.0.224
DATA EXFILTRATION
unknown</title>
<polygon fill="salmon" stroke="black" stroke-width="3" points="548.21,-1693.54 548.21,-1747.92 435.62,-1786.38 276.38,-1786.38 163.79,-1747.92 163.79,-1693.54 276.38,-1655.08 435.62,-1655.08 548.21,-1693.54"/>
<polygon fill="none" stroke="black" stroke-width="3" points="552.21,-1690.68 552.21,-1750.78 436.28,-1790.37 275.72,-1790.37 159.79,-1750.78 159.79,-1690.68 275.72,-1651.09 436.28,-1651.09 552.21,-1690.68"/>
<text text-anchor="middle" x="356" y="-1740.53" font-family="Arial" font-size="24.00">Victim: 10.0.0.224</text>
<text text-anchor="middle" x="356" y="-1714.53" font-family="Arial" font-size="24.00">DATA EXFILTRATION</text>
<text text-anchor="middle" x="356" y="-1688.53" font-family="Arial" font-size="24.00">unknown</text>
</g>
<!-- DATA EXFILTRATION
unknown | ID: 57 -->
<g id="node2" class="node">
<title>DATA EXFILTRATION
unknown | ID: 57</title>
<g id="a_node2"><a xlink:title="ET WEB_SPECIFIC_APPS PHP&#45;CGI query string parameter vulnerability">
<polygon fill="salmon" stroke="black" stroke-width="3" points="560.88,-1584.92 458.44,-1633.9 253.56,-1633.9 151.12,-1584.92 253.56,-1535.94 458.44,-1535.94 560.88,-1584.92"/>
<text text-anchor="middle" x="356" y="-1591.72" font-family="Arial" font-size="24.00">DATA EXFILTRATION</text>
<text text-anchor="middle" x="356" y="-1565.72" font-family="Arial" font-size="24.00">unknown | ID: 57</text>
</a>
</g>
</g>
<!-- DATA EXFILTRATION
unknown | ID: 57&#45;&gt;Victim: 10.0.0.224
DATA EXFILTRATION
unknown -->
<g id="edge1" class="edge">
<title>DATA EXFILTRATION
unknown | ID: 57&#45;&gt;Victim: 10.0.0.224
DATA EXFILTRATION
unknown</title>
<path fill="none" stroke="black" stroke-width="5" d="M356,-1634.23C356,-1636.33 356,-1638.47 356,-1640.61"/>
<polygon fill="black" stroke="black" stroke-width="5" points="351.63,-1640.77 356,-1650.77 360.38,-1640.77 351.63,-1640.77"/>
</g>
<!-- VULNERABILTY DISCOVERY
ncube&#45;lm -->
<g id="node3" class="node">
<title>VULNERABILTY DISCOVERY
ncube&#45;lm</title>
<g id="a_node3"><a xlink:title="ET POLICY Suspicious inbound to PostgreSQL port 5432&#10;ET POLICY Suspicious inbound to MSSQL port 1433&#10;ET POLICY Suspicious inbound to Oracle SQL port 1521&#10;ET POLICY Suspicious inbound to mSQL port 4333">
<ellipse fill="yellow" stroke="black" stroke-width="3" cx="1361" cy="-222.41" rx="241.25" ry="42.35"/>
<text text-anchor="middle" x="1361" y="-229.21" font-family="Arial" font-size="24.00">VULNERABILTY DISCOVERY</text>
<text text-anchor="middle" x="1361" y="-203.21" font-family="Arial" font-size="24.00">ncube&#45;lm</text>
</a>
</g>
</g>
<!-- VULNERABILTY DISCOVERY
ms&#45;sql&#45;s -->
<g id="node4" class="node">
<title>VULNERABILTY DISCOVERY
ms&#45;sql&#45;s</title>
<g id="a_node4"><a xlink:title="ET POLICY Suspicious inbound to MSSQL port 1433&#10;ET POLICY Suspicious inbound to Oracle SQL port 1521&#10;ET POLICY Suspicious inbound to mSQL port 4333">
<ellipse fill="none" stroke="black" stroke-width="3" cx="1725" cy="-403.26" rx="241.25" ry="42.35"/>
<text text-anchor="middle" x="1725" y="-410.06" font-family="Arial" font-size="24.00">VULNERABILTY DISCOVERY</text>
<text text-anchor="middle" x="1725" y="-384.06" font-family="Arial" font-size="24.00">ms&#45;sql&#45;s</text>
</a>
</g>
</g>
<!-- VULNERABILTY DISCOVERY
ncube&#45;lm&#45;&gt;VULNERABILTY DISCOVERY
ms&#45;sql&#45;s -->
<g id="edge2" class="edge">
<title>VULNERABILTY DISCOVERY
ncube&#45;lm&#45;&gt;VULNERABILTY DISCOVERY
ms&#45;sql&#45;s</title>
<path fill="none" stroke="blue" stroke-width="5" d="M1544.97,-249.97C1563.8,-256.08 1582.17,-263.6 1599,-272.83 1634.53,-292.33 1666.3,-325.13 1689.05,-352.83"/>
<polygon fill="blue" stroke="blue" stroke-width="5" points="1685.84,-355.82 1695.52,-360.86 1692.66,-350.33 1685.84,-355.82"/>
<text text-anchor="start" x="1688" y="-337.83" font-family="Arial" font-size="20.00" fill="blue"> start_next: 04/11/17, 14:02:53</text>
<text text-anchor="start" x="1761.5" y="-317.83" font-family="Arial" font-size="20.00" fill="blue">gap: 3683sec</text>
<text text-anchor="start" x="1692" y="-297.83" font-family="Arial" font-size="20.00" fill="blue">end_prev: 04/11/17, 13:01:30</text>
<text text-anchor="start" x="1722.5" y="-277.83" font-family="Arial" font-weight="bold" font-size="20.00" fill="blue">Attacker: 10.0.254.31</text>
</g>
<!-- SERVICE DISCOVERY
unknown -->
<g id="node12" class="node">
<title>SERVICE DISCOVERY
unknown</title>
<g id="a_node12"><a xlink:title="ET SCAN Behavioral Unusual Port 445 traffic Potential Scan or Infection&#10;ET SCAN Potential VNC Scan 5900&#45;5920">
<ellipse fill="none" stroke="black" stroke-width="3" cx="1329" cy="-496.11" rx="189.51" ry="42.35"/>
<text text-anchor="middle" x="1329" y="-502.91" font-family="Arial" font-size="24.00">SERVICE DISCOVERY</text>
<text text-anchor="middle" x="1329" y="-476.91" font-family="Arial" font-size="24.00">unknown</text>
</a>
</g>
</g>
<!-- VULNERABILTY DISCOVERY
ncube&#45;lm&#45;&gt;SERVICE DISCOVERY
unknown -->
<g id="edge11" class="edge">
<title>VULNERABILTY DISCOVERY
ncube&#45;lm&#45;&gt;SERVICE DISCOVERY
unknown</title>
<path fill="none" stroke="blue" stroke-width="5" d="M1337.6,-264.66C1336.59,-267.37 1335.71,-270.11 1335,-272.83 1320.15,-329.66 1320.83,-397.45 1323.83,-443.11"/>
<polygon fill="blue" stroke="blue" stroke-width="5" points="1319.48,-443.69 1324.57,-453.36 1328.21,-443.07 1319.48,-443.69"/>
<text text-anchor="middle" x="1466.5" y="-329.83" font-family="Arial" font-size="20.00" fill="blue">start_next: 04/11/17, 16:29:37</text>
<text text-anchor="middle" x="1466.5" y="-307.83" font-family="Arial" font-size="20.00" fill="blue">gap: &#45;369sec</text>
<text text-anchor="middle" x="1466.5" y="-285.83" font-family="Arial" font-size="20.00" fill="blue">end_prev: 04/11/17, 16:35:46</text>
</g>
<!-- SERVICE DISCOVERY
epmap -->
<g id="node5" class="node">
<title>SERVICE DISCOVERY
epmap</title>
<g id="a_node5"><a xlink:title="ET SCAN Behavioral Unusual Port 135 traffic Potential Scan or Infection&#10;ET SCAN Potential VNC Scan 5900&#45;5920">
<ellipse fill="none" stroke="black" stroke-width="3" cx="1777" cy="-588.96" rx="189.51" ry="42.35"/>
<text text-anchor="middle" x="1777" y="-595.76" font-family="Arial" font-size="24.00">SERVICE DISCOVERY</text>
<text text-anchor="middle" x="1777" y="-569.76" font-family="Arial" font-size="24.00">epmap</text>
</a>
</g>
</g>
<!-- VULNERABILTY DISCOVERY
ms&#45;sql&#45;s&#45;&gt;SERVICE DISCOVERY
epmap -->
<g id="edge3" class="edge">
<title>VULNERABILTY DISCOVERY
ms&#45;sql&#45;s&#45;&gt;SERVICE DISCOVERY
epmap</title>
<path fill="none" stroke="blue" stroke-width="5" d="M1736.8,-445.94C1744.41,-472.84 1754.37,-508.01 1762.47,-536.62"/>
<polygon fill="blue" stroke="blue" stroke-width="5" points="1758.31,-538.01 1765.25,-546.44 1766.73,-535.63 1758.31,-538.01"/>
<text text-anchor="middle" x="1892.5" y="-513.11" font-family="Arial" font-size="20.00" fill="blue">start_next: 04/11/17, 14:02:55</text>
<text text-anchor="middle" x="1892.5" y="-491.11" font-family="Arial" font-size="20.00" fill="blue">gap: &#45;19sec</text>
<text text-anchor="middle" x="1892.5" y="-469.11" font-family="Arial" font-size="20.00" fill="blue">end_prev: 04/11/17, 14:03:14</text>
</g>
<!-- ARBITRARY CODE EXECUTION
microsoft&#45;ds | ID: 309 -->
<g id="node6" class="node">
<title>ARBITRARY CODE EXECUTION
microsoft&#45;ds | ID: 309</title>
<g id="a_node6"><a xlink:title="GPL NETBIOS DCERPC Remote Activation bind attempt&#10;ET CURRENT_EVENTS QNAP Shellshock CVE&#45;2014&#45;6271&#10;GPL NETBIOS DCERPC IActivation little endian bind attempt&#10;GPL MISC UPnP malformed advertisement&#10;GPL NETBIOS SMB&#45;DS Session Setup NTMLSSP unicode asn1 overflow attempt">
<polygon fill="none" stroke="black" stroke-width="3" points="1808.5,-785.82 1433.5,-785.82 1433.5,-725.82 1808.5,-725.82 1808.5,-785.82"/>
<text text-anchor="middle" x="1621" y="-762.62" font-family="Arial" font-size="24.00">ARBITRARY CODE EXECUTION</text>
<text text-anchor="middle" x="1621" y="-736.62" font-family="Arial" font-size="24.00">microsoft&#45;ds | ID: 309</text>
</a>
</g>
</g>
<!-- SERVICE DISCOVERY
epmap&#45;&gt;ARBITRARY CODE EXECUTION
microsoft&#45;ds | ID: 309 -->
<g id="edge4" class="edge">
<title>SERVICE DISCOVERY
epmap&#45;&gt;ARBITRARY CODE EXECUTION
microsoft&#45;ds | ID: 309</title>
<path fill="none" stroke="blue" stroke-width="5" d="M1738.44,-630.71C1713.06,-657.53 1680.13,-692.33 1655.6,-718.25"/>
<polygon fill="blue" stroke="blue" stroke-width="5" points="1652.29,-715.38 1648.6,-725.65 1658.65,-721.4 1652.29,-715.38"/>
<text text-anchor="middle" x="1857.5" y="-689.39" font-family="Arial" font-size="20.00" fill="blue">start_next: 04/11/17, 14:04:58</text>
<text text-anchor="middle" x="1857.5" y="-667.39" font-family="Arial" font-size="20.00" fill="blue">gap: 87sec</text>
<text text-anchor="middle" x="1857.5" y="-645.39" font-family="Arial" font-size="20.00" fill="blue">end_prev: 04/11/17, 14:03:30</text>
</g>
<!-- REMOTE SERVICE EXPLOIT
snmp | ID: 52 -->
<g id="node7" class="node">
<title>REMOTE SERVICE EXPLOIT
snmp | ID: 52</title>
<g id="a_node7"><a xlink:title="ET SNMP Samsung Printer SNMP Hardcode RW Community String">
<polygon fill="none" stroke="black" stroke-width="3" points="1581,-952.67 1243,-952.67 1243,-892.67 1581,-892.67 1581,-952.67"/>
<text text-anchor="middle" x="1412" y="-929.47" font-family="Arial" font-size="24.00">REMOTE SERVICE EXPLOIT</text>
<text text-anchor="middle" x="1412" y="-903.47" font-family="Arial" font-size="24.00">snmp | ID: 52</text>
</a>
</g>
</g>
<!-- ARBITRARY CODE EXECUTION
microsoft&#45;ds | ID: 309&#45;&gt;REMOTE SERVICE EXPLOIT
snmp | ID: 52 -->
<g id="edge5" class="edge">
<title>ARBITRARY CODE EXECUTION
microsoft&#45;ds | ID: 309&#45;&gt;REMOTE SERVICE EXPLOIT
snmp | ID: 52</title>
<path fill="none" stroke="blue" stroke-width="5" d="M1433.45,-781.15C1410.06,-787.7 1391.39,-795.93 1383,-806.24 1365.31,-827.99 1374.51,-859.1 1387.07,-883.55"/>
<polygon fill="blue" stroke="blue" stroke-width="5" points="1383.37,-885.89 1392,-892.56 1391.04,-881.69 1383.37,-885.89"/>
<text text-anchor="middle" x="1514.5" y="-856.24" font-family="Arial" font-size="20.00" fill="blue">start_next: 04/11/17, 14:05:32</text>
<text text-anchor="middle" x="1514.5" y="-834.24" font-family="Arial" font-size="20.00" fill="blue">gap: &#45;81sec</text>
<text text-anchor="middle" x="1514.5" y="-812.24" font-family="Arial" font-size="20.00" fill="blue">end_prev: 04/11/17, 14:06:53</text>
</g>
<!-- ARBITRARY CODE EXECUTION
microsoft&#45;ds | ID: 309&#45;&gt;REMOTE SERVICE EXPLOIT
snmp | ID: 52 -->
<g id="edge13" class="edge">
<title>ARBITRARY CODE EXECUTION
microsoft&#45;ds | ID: 309&#45;&gt;REMOTE SERVICE EXPLOIT
snmp | ID: 52</title>
<path fill="none" stroke="blue" stroke-width="5" d="M1638.35,-786.05C1650.93,-811.48 1662.63,-847.97 1643,-872.24 1634.52,-882.73 1615.15,-891.09 1591.05,-897.73"/>
<polygon fill="blue" stroke="blue" stroke-width="5" points="1589.79,-893.53 1581.21,-900.28 1591.99,-902 1589.79,-893.53"/>
<text text-anchor="middle" x="1784.5" y="-856.24" font-family="Arial" font-size="20.00" fill="blue">start_next: 04/11/17, 16:33:50</text>
<text text-anchor="middle" x="1784.5" y="-834.24" font-family="Arial" font-size="20.00" fill="blue">gap: &#45;184sec</text>
<text text-anchor="middle" x="1784.5" y="-812.24" font-family="Arial" font-size="20.00" fill="blue">end_prev: 04/11/17, 16:36:54</text>
</g>
<!-- COMMAND AND CONTROL
unknown | ID: 308 -->
<g id="node8" class="node">
<title>COMMAND AND CONTROL
unknown | ID: 308</title>
<g id="a_node8"><a xlink:title="ET POLICY RDP connection confirm">
<polygon fill="none" stroke="black" stroke-width="3" points="1502.5,-1107.1 1179.5,-1107.1 1179.5,-1047.1 1502.5,-1047.1 1502.5,-1107.1"/>
<text text-anchor="middle" x="1341" y="-1083.9" font-family="Arial" font-size="24.00">COMMAND AND CONTROL</text>
<text text-anchor="middle" x="1341" y="-1057.9" font-family="Arial" font-size="24.00">unknown | ID: 308</text>
</a>
</g>
</g>
<!-- REMOTE SERVICE EXPLOIT
snmp | ID: 52&#45;&gt;COMMAND AND CONTROL
unknown | ID: 308 -->
<g id="edge6" class="edge">
<title>REMOTE SERVICE EXPLOIT
snmp | ID: 52&#45;&gt;COMMAND AND CONTROL
unknown | ID: 308</title>
<path fill="none" stroke="blue" stroke-width="5" d="M1242.84,-952.6C1226.24,-958.39 1213.23,-965.19 1207,-973.1 1188.85,-996.14 1189.23,-1015.76 1207,-1039.1 1207.46,-1039.71 1207.99,-1040.31 1208.57,-1040.9"/>
<polygon fill="blue" stroke="blue" stroke-width="5" points="1206.13,-1044.54 1216.77,-1046.98 1211.34,-1037.51 1206.13,-1044.54"/>
<text text-anchor="middle" x="1338.5" y="-1023.1" font-family="Arial" font-size="20.00" fill="blue">start_next: 04/11/17, 14:05:59</text>
<text text-anchor="middle" x="1338.5" y="-1001.1" font-family="Arial" font-size="20.00" fill="blue">gap: 27sec</text>
<text text-anchor="middle" x="1338.5" y="-979.1" font-family="Arial" font-size="20.00" fill="blue">end_prev: 04/11/17, 14:05:32</text>
</g>
<!-- REMOTE SERVICE EXPLOIT
snmp | ID: 52&#45;&gt;COMMAND AND CONTROL
unknown | ID: 308 -->
<g id="edge14" class="edge">
<title>REMOTE SERVICE EXPLOIT
snmp | ID: 52&#45;&gt;COMMAND AND CONTROL
unknown | ID: 308</title>
<path fill="none" stroke="blue" stroke-width="5" d="M1452.76,-952.71C1458.54,-958.75 1463.65,-965.59 1467,-973.1 1478.94,-999.89 1484.58,-1015.61 1467,-1039.1 1466.94,-1039.18 1466.87,-1039.27 1466.81,-1039.35"/>
<polygon fill="blue" stroke="blue" stroke-width="5" points="1463.63,-1036.34 1460.3,-1046.74 1470.2,-1042.13 1463.63,-1036.34"/>
<text text-anchor="middle" x="1609" y="-1023.1" font-family="Arial" font-size="20.00" fill="blue">start_next: 04/11/17, 16:34:11</text>
<text text-anchor="middle" x="1609" y="-1001.1" font-family="Arial" font-size="20.00" fill="blue">gap: 21sec</text>
<text text-anchor="middle" x="1609" y="-979.1" font-family="Arial" font-size="20.00" fill="blue">end_prev: 04/11/17, 16:33:50</text>
</g>
<!-- ACCOUNT MANIPULATION
snmp | ID: 53 -->
<g id="node9" class="node">
<title>ACCOUNT MANIPULATION
snmp | ID: 53</title>
<g id="a_node9"><a xlink:title="GPL SNMP private access udp&#10;GPL SNMP public access udp">
<polygon fill="none" stroke="black" stroke-width="3" points="1500,-1261.52 1180,-1261.52 1180,-1201.52 1500,-1201.52 1500,-1261.52"/>
<text text-anchor="middle" x="1340" y="-1238.32" font-family="Arial" font-size="24.00">ACCOUNT MANIPULATION</text>
<text text-anchor="middle" x="1340" y="-1212.32" font-family="Arial" font-size="24.00">snmp | ID: 53</text>
</a>
</g>
</g>
<!-- COMMAND AND CONTROL
unknown | ID: 308&#45;&gt;ACCOUNT MANIPULATION
snmp | ID: 53 -->
<g id="edge7" class="edge">
<title>COMMAND AND CONTROL
unknown | ID: 308&#45;&gt;ACCOUNT MANIPULATION
snmp | ID: 53</title>
<path fill="none" stroke="blue" stroke-width="5" d="M1215.85,-1107.17C1211.52,-1109.65 1208.14,-1112.29 1206,-1115.1 1188.21,-1138.42 1189.23,-1157.03 1206,-1181.1 1209.68,-1186.37 1213.98,-1191.08 1218.75,-1195.29"/>
<polygon fill="blue" stroke="blue" stroke-width="5" points="1216.05,-1198.73 1226.6,-1201.5 1221.47,-1191.87 1216.05,-1198.73"/>
<text text-anchor="middle" x="1337.5" y="-1165.1" font-family="Arial" font-size="20.00" fill="blue">start_next: 04/11/17, 14:06:04</text>
<text text-anchor="middle" x="1337.5" y="-1143.1" font-family="Arial" font-size="20.00" fill="blue">gap: &#45;109sec</text>
<text text-anchor="middle" x="1337.5" y="-1121.1" font-family="Arial" font-size="20.00" fill="blue">end_prev: 04/11/17, 14:07:53</text>
</g>
<!-- COMMAND AND CONTROL
unknown | ID: 308&#45;&gt;ACCOUNT MANIPULATION
snmp | ID: 53 -->
<g id="edge15" class="edge">
<title>COMMAND AND CONTROL
unknown | ID: 308&#45;&gt;ACCOUNT MANIPULATION
snmp | ID: 53</title>
<path fill="none" stroke="blue" stroke-width="5" d="M1459.36,-1107.5C1461.75,-1109.85 1463.97,-1112.38 1466,-1115.1 1483.55,-1138.6 1482.53,-1156.86 1466,-1181.1 1462.52,-1186.2 1458.43,-1190.77 1453.89,-1194.87"/>
<polygon fill="blue" stroke="blue" stroke-width="5" points="1450.9,-1191.66 1445.85,-1201.34 1456.39,-1198.48 1450.9,-1191.66"/>
<text text-anchor="middle" x="1609.5" y="-1165.1" font-family="Arial" font-size="20.00" fill="blue">start_next: 04/11/17, 16:34:17</text>
<text text-anchor="middle" x="1609.5" y="-1143.1" font-family="Arial" font-size="20.00" fill="blue">gap: &#45;107sec</text>
<text text-anchor="middle" x="1609.5" y="-1121.1" font-family="Arial" font-size="20.00" fill="blue">end_prev: 04/11/17, 16:36:04</text>
</g>
<!-- DATA DELIVERY
wsman | ID: 399 -->
<g id="node10" class="node">
<title>DATA DELIVERY
wsman | ID: 399</title>
<g id="a_node10"><a xlink:title="GPL WEB_SERVER perl post attempt">
<polygon fill="none" stroke="black" stroke-width="3" points="1280.1,-1404.94 1198.55,-1453.92 1035.45,-1453.92 953.9,-1404.94 1035.45,-1355.96 1198.55,-1355.96 1280.1,-1404.94"/>
<text text-anchor="middle" x="1117" y="-1411.74" font-family="Arial" font-size="24.00">DATA DELIVERY</text>
<text text-anchor="middle" x="1117" y="-1385.74" font-family="Arial" font-size="24.00">wsman | ID: 399</text>
</a>
</g>
</g>
<!-- ACCOUNT MANIPULATION
snmp | ID: 53&#45;&gt;DATA DELIVERY
wsman | ID: 399 -->
<g id="edge8" class="edge">
<title>ACCOUNT MANIPULATION
snmp | ID: 53&#45;&gt;DATA DELIVERY
wsman | ID: 399</title>
<path fill="none" stroke="blue" stroke-width="5" d="M1179.9,-1257.63C1156.54,-1264.21 1137.49,-1272.26 1129,-1281.95 1120.54,-1291.6 1117.39,-1319.23 1116.42,-1345.76"/>
<polygon fill="blue" stroke="blue" stroke-width="5" points="1112.05,-1345.72 1116.15,-1355.83 1120.8,-1345.95 1112.05,-1345.72"/>
<text text-anchor="middle" x="1260.5" y="-1331.95" font-family="Arial" font-size="20.00" fill="blue">start_next: 04/11/17, 14:06:51</text>
<text text-anchor="middle" x="1260.5" y="-1309.95" font-family="Arial" font-size="20.00" fill="blue">gap: 43sec</text>
<text text-anchor="middle" x="1260.5" y="-1287.95" font-family="Arial" font-size="20.00" fill="blue">end_prev: 04/11/17, 14:06:08</text>
</g>
<!-- ACCOUNT MANIPULATION
snmp | ID: 53&#45;&gt;DATA DELIVERY
wsman | ID: 399 -->
<g id="edge16" class="edge">
<title>ACCOUNT MANIPULATION
snmp | ID: 53&#45;&gt;DATA DELIVERY
wsman | ID: 399</title>
<path fill="none" stroke="blue" stroke-width="5" d="M1375.89,-1261.6C1381.24,-1267.72 1385.96,-1274.57 1389,-1281.95 1400.17,-1309.07 1407.53,-1325.21 1389,-1347.95 1372.51,-1368.18 1321.32,-1381.31 1267.73,-1389.73"/>
<polygon fill="blue" stroke="blue" stroke-width="5" points="1266.94,-1385.43 1257.71,-1391.25 1268.25,-1394.08 1266.94,-1385.43"/>
<text text-anchor="middle" x="1531.5" y="-1331.95" font-family="Arial" font-size="20.00" fill="blue">start_next: 04/11/17, 16:35:02</text>
<text text-anchor="middle" x="1531.5" y="-1309.95" font-family="Arial" font-size="20.00" fill="blue">gap: 44sec</text>
<text text-anchor="middle" x="1531.5" y="-1287.95" font-family="Arial" font-size="20.00" fill="blue">end_prev: 04/11/17, 16:34:19</text>
</g>
<!-- DATA EXFILTRATION
wsman | ID: 63 -->
<g id="node11" class="node">
<title>DATA EXFILTRATION
wsman | ID: 63</title>
<g id="a_node11"><a xlink:title="ET WEB_SPECIFIC_APPS PHP&#45;CGI query string parameter vulnerability">
<polygon fill="none" stroke="black" stroke-width="3" points="1031.88,-48.99 929.44,-97.97 724.56,-97.97 622.12,-48.99 724.56,-0.01 929.44,-0.01 1031.88,-48.99"/>
<text text-anchor="middle" x="827" y="-55.79" font-family="Arial" font-size="24.00">DATA EXFILTRATION</text>
<text text-anchor="middle" x="827" y="-29.79" font-family="Arial" font-size="24.00">wsman | ID: 63</text>
</a>
</g>
</g>
<!-- DATA DELIVERY
wsman | ID: 399&#45;&gt;DATA EXFILTRATION
wsman | ID: 63 -->
<g id="edge9" class="edge">
<title>DATA DELIVERY
wsman | ID: 399&#45;&gt;DATA EXFILTRATION
wsman | ID: 63</title>
<path fill="none" stroke="blue" stroke-width="5" d="M985.82,-1385.65C898.22,-1365.19 799,-1322.21 799,-1232.52 799,-838.24 799,-838.24 799,-838.24 799,-704.93 806.15,-671.76 811,-538.54 816.65,-383.18 822.41,-200 825.23,-108.37"/>
<polygon fill="blue" stroke="blue" stroke-width="5" points="829.6,-108.32 825.54,-98.19 820.86,-108.05 829.6,-108.32"/>
<text text-anchor="middle" x="932.5" y="-772.82" font-family="Arial" font-size="20.00" fill="blue">start_next: 04/11/17, 14:06:54</text>
<text text-anchor="middle" x="932.5" y="-750.82" font-family="Arial" font-size="20.00" fill="blue">gap: 3sec</text>
<text text-anchor="middle" x="932.5" y="-728.82" font-family="Arial" font-size="20.00" fill="blue">end_prev: 04/11/17, 14:06:51</text>
</g>
<!-- DATA DELIVERY
wsman | ID: 399&#45;&gt;DATA EXFILTRATION
wsman | ID: 63 -->
<g id="edge17" class="edge">
<title>DATA DELIVERY
wsman | ID: 399&#45;&gt;DATA EXFILTRATION
wsman | ID: 63</title>
<path fill="none" stroke="blue" stroke-width="5" d="M1113.56,-1355.94C1111.39,-1321.59 1109,-1274.23 1109,-1232.52 1109,-221.41 1109,-221.41 1109,-221.41 1109,-150.95 1043.94,-108.63 976.31,-83.67"/>
<polygon fill="blue" stroke="blue" stroke-width="5" points="977.65,-79.51 966.76,-80.27 974.71,-87.75 977.65,-79.51"/>
<text text-anchor="middle" x="1240.5" y="-772.82" font-family="Arial" font-size="20.00" fill="blue">start_next: 04/11/17, 16:35:06</text>
<text text-anchor="middle" x="1240.5" y="-750.82" font-family="Arial" font-size="20.00" fill="blue">gap: 3sec</text>
<text text-anchor="middle" x="1240.5" y="-728.82" font-family="Arial" font-size="20.00" fill="blue">end_prev: 04/11/17, 16:35:02</text>
</g>
<!-- DATA EXFILTRATION
wsman | ID: 63&#45;&gt;VULNERABILTY DISCOVERY
ncube&#45;lm -->
<g id="edge10" class="edge">
<title>DATA EXFILTRATION
wsman | ID: 63&#45;&gt;VULNERABILTY DISCOVERY
ncube&#45;lm</title>
<path fill="none" stroke="blue" stroke-width="5" d="M981.81,-73.02C1025.14,-81.39 1071.89,-92.26 1114,-105.98 1171.18,-124.61 1232.45,-153.18 1279.66,-177.23"/>
<polygon fill="blue" stroke="blue" stroke-width="5" points="1277.71,-181.15 1288.61,-181.83 1281.71,-173.37 1277.71,-181.15"/>
<text text-anchor="middle" x="1400.5" y="-155.98" font-family="Arial" font-size="20.00" fill="blue">start_next: 04/11/17, 16:25:53</text>
<text text-anchor="middle" x="1400.5" y="-133.98" font-family="Arial" font-size="20.00" fill="blue">gap: 8339sec</text>
<text text-anchor="middle" x="1400.5" y="-111.98" font-family="Arial" font-size="20.00" fill="blue">end_prev: 04/11/17, 14:06:54</text>
</g>
<!-- HOST DISCOVERY
wsman -->
<g id="node13" class="node">
<title>HOST DISCOVERY
wsman</title>
<g id="a_node13"><a xlink:title="ET SCAN Possible Nmap User&#45;Agent Observed&#10;ET SCAN Nmap Scripting Engine User&#45;Agent Detected (Nmap Scripting Engine)">
<ellipse fill="yellow" stroke="black" stroke-width="3" cx="547" cy="-222.41" rx="162.77" ry="42.35"/>
<text text-anchor="middle" x="547" y="-229.21" font-family="Arial" font-size="24.00">HOST DISCOVERY</text>
<text text-anchor="middle" x="547" y="-203.21" font-family="Arial" font-size="24.00">wsman</text>
</a>
</g>
</g>
<!-- DATA EXFILTRATION
wsman | ID: 63&#45;&gt;HOST DISCOVERY
wsman -->
<g id="edge18" class="edge">
<title>DATA EXFILTRATION
wsman | ID: 63&#45;&gt;HOST DISCOVERY
wsman</title>
<path fill="none" stroke="blue" stroke-width="5" d="M659.07,-66.75C610.56,-75.21 566.48,-87.7 551,-105.98 536.35,-123.28 533.86,-147.83 535.65,-169.83"/>
<polygon fill="blue" stroke="blue" stroke-width="5" points="531.33,-170.61 536.79,-180.06 540.03,-169.64 531.33,-170.61"/>
<text text-anchor="middle" x="682.5" y="-155.98" font-family="Arial" font-size="20.00" fill="blue">start_next: 04/11/17, 16:36:53</text>
<text text-anchor="middle" x="682.5" y="-133.98" font-family="Arial" font-size="20.00" fill="blue">gap: &#45;9sec</text>
<text text-anchor="middle" x="682.5" y="-111.98" font-family="Arial" font-size="20.00" fill="blue">end_prev: 04/11/17, 16:37:02</text>
</g>
<!-- SURFING
unknown -->
<g id="node17" class="node">
<title>SURFING
unknown</title>
<g id="a_node17"><a xlink:title="ET WEB_SERVER WEB&#45;PHP phpinfo access">
<ellipse fill="none" stroke="black" stroke-width="3" cx="218" cy="-1231.52" rx="88.28" ry="42.35"/>
<text text-anchor="middle" x="218" y="-1238.32" font-family="Arial" font-size="24.00">SURFING</text>
<text text-anchor="middle" x="218" y="-1212.32" font-family="Arial" font-size="24.00">unknown</text>
</a>
</g>
</g>
<!-- DATA EXFILTRATION
wsman | ID: 63&#45;&gt;SURFING
unknown -->
<g id="edge30" class="edge">
<title>DATA EXFILTRATION
wsman | ID: 63&#45;&gt;SURFING
unknown</title>
<path fill="none" stroke="purple" stroke-width="5" d="M628.65,-52.16C383.98,-60.33 0,-93.52 0,-221.41 0,-221.41 0,-221.41 0,-1078.1 0,-1145.28 70.39,-1185.32 131.17,-1207.38"/>
<polygon fill="purple" stroke="purple" stroke-width="5" points="129.95,-1211.59 140.83,-1210.77 132.85,-1203.33 129.95,-1211.59"/>
<text text-anchor="middle" x="131.5" y="-689.39" font-family="Arial" font-size="20.00" fill="purple">start_next: 04/11/17, 14:15:48</text>
<text text-anchor="middle" x="131.5" y="-667.39" font-family="Arial" font-size="20.00" fill="purple">gap: 509sec</text>
<text text-anchor="middle" x="131.5" y="-645.39" font-family="Arial" font-size="20.00" fill="purple">end_prev: 04/11/17, 14:07:20</text>
</g>
<!-- SERVICE DISCOVERY
unknown&#45;&gt;ARBITRARY CODE EXECUTION
microsoft&#45;ds | ID: 309 -->
<g id="edge12" class="edge">
<title>SERVICE DISCOVERY
unknown&#45;&gt;ARBITRARY CODE EXECUTION
microsoft&#45;ds | ID: 309</title>
<path fill="none" stroke="blue" stroke-width="5" d="M1314.27,-538.41C1306.87,-566.88 1302.87,-604.32 1321,-631.39 1350.67,-675.68 1399.41,-704.09 1449.06,-722.31"/>
<polygon fill="blue" stroke="blue" stroke-width="5" points="1447.78,-726.5 1458.67,-725.71 1450.7,-718.25 1447.78,-726.5"/>
<text text-anchor="middle" x="1452.5" y="-605.96" font-family="Arial" font-size="20.00" fill="blue">start_next: 04/11/17, 16:31:23</text>
<text text-anchor="middle" x="1452.5" y="-583.96" font-family="Arial" font-size="20.00" fill="blue">gap: &#45;151sec</text>
<text text-anchor="middle" x="1452.5" y="-561.96" font-family="Arial" font-size="20.00" fill="blue">end_prev: 04/11/17, 16:33:53</text>
</g>
<!-- SURFING
wsman -->
<g id="node14" class="node">
<title>SURFING
wsman</title>
<g id="a_node14"><a xlink:title="ET WEB_SERVER WEB&#45;PHP phpinfo access">
<ellipse fill="none" stroke="black" stroke-width="3" cx="397" cy="-755.82" rx="88.28" ry="42.35"/>
<text text-anchor="middle" x="397" y="-762.62" font-family="Arial" font-size="24.00">SURFING</text>
<text text-anchor="middle" x="397" y="-736.62" font-family="Arial" font-size="24.00">wsman</text>
</a>
</g>
</g>
<!-- HOST DISCOVERY
wsman&#45;&gt;SURFING
wsman -->
<g id="edge19" class="edge">
<title>HOST DISCOVERY
wsman&#45;&gt;SURFING
wsman</title>
<path fill="none" stroke="blue" stroke-width="5" d="M547.6,-265.2C549.05,-379.12 551.78,-687.72 539,-705.39 527.29,-721.58 509.88,-732.51 491.23,-739.88"/>
<polygon fill="blue" stroke="blue" stroke-width="5" points="489.62,-735.81 481.69,-743.31 492.58,-744.04 489.62,-735.81"/>
<text text-anchor="middle" x="679.5" y="-513.11" font-family="Arial" font-size="20.00" fill="blue">start_next: 04/11/17, 16:36:54</text>
<text text-anchor="middle" x="679.5" y="-491.11" font-family="Arial" font-size="20.00" fill="blue">gap: 2sec</text>
<text text-anchor="middle" x="679.5" y="-469.11" font-family="Arial" font-size="20.00" fill="blue">end_prev: 04/11/17, 16:36:53</text>
</g>
<!-- VULNERABILTY DISCOVERY
wsman -->
<g id="node19" class="node">
<title>VULNERABILTY DISCOVERY
wsman</title>
<g id="a_node19"><a xlink:title="ET SCAN Nikto Web App Scan in Progress">
<ellipse fill="none" stroke="black" stroke-width="3" cx="270" cy="-403.26" rx="241.25" ry="42.35"/>
<text text-anchor="middle" x="270" y="-410.06" font-family="Arial" font-size="24.00">VULNERABILTY DISCOVERY</text>
<text text-anchor="middle" x="270" y="-384.06" font-family="Arial" font-size="24.00">wsman</text>
</a>
</g>
</g>
<!-- HOST DISCOVERY
wsman&#45;&gt;VULNERABILTY DISCOVERY
wsman -->
<g id="edge25" class="edge">
<title>HOST DISCOVERY
wsman&#45;&gt;VULNERABILTY DISCOVERY
wsman</title>
<path fill="none" stroke="purple" stroke-width="5" d="M391.34,-234.71C339.4,-241.92 290.51,-253.68 274,-272.83 255.99,-293.73 254.33,-324.33 257.48,-350.53"/>
<polygon fill="purple" stroke="purple" stroke-width="5" points="253.19,-351.44 258.96,-360.7 261.85,-350.17 253.19,-351.44"/>
<text text-anchor="start" x="274" y="-337.83" font-family="Arial" font-size="20.00" fill="purple"> start_next: 04/11/17, 14:07:05</text>
<text text-anchor="start" x="359" y="-317.83" font-family="Arial" font-size="20.00" fill="purple">gap: 32sec</text>
<text text-anchor="start" x="278" y="-297.83" font-family="Arial" font-size="20.00" fill="purple">end_prev: 04/11/17, 14:06:33</text>
<text text-anchor="start" x="308.5" y="-277.83" font-family="Arial" font-weight="bold" font-size="20.00" fill="purple">Attacker: 10.0.254.30</text>
</g>
<!-- HOST DISCOVERY
unknown -->
<g id="node15" class="node">
<title>HOST DISCOVERY
unknown</title>
<g id="a_node15"><a xlink:title="ET SCAN Possible Nmap User&#45;Agent Observed&#10;ET SCAN Nmap Scripting Engine User&#45;Agent Detected (Nmap Scripting Engine)">
<ellipse fill="none" stroke="black" stroke-width="3" cx="242" cy="-922.67" rx="162.77" ry="42.35"/>
<text text-anchor="middle" x="242" y="-929.47" font-family="Arial" font-size="24.00">HOST DISCOVERY</text>
<text text-anchor="middle" x="242" y="-903.47" font-family="Arial" font-size="24.00">unknown</text>
</a>
</g>
</g>
<!-- SURFING
wsman&#45;&gt;HOST DISCOVERY
unknown -->
<g id="edge20" class="edge">
<title>SURFING
wsman&#45;&gt;HOST DISCOVERY
unknown</title>
<path fill="none" stroke="blue" stroke-width="5" d="M311.39,-766.9C287.23,-774.05 263.36,-786.08 248,-806.24 234.4,-824.09 231.54,-848.36 232.62,-870.04"/>
<polygon fill="blue" stroke="blue" stroke-width="5" points="228.27,-870.48 233.41,-880.11 236.99,-869.8 228.27,-870.48"/>
<text text-anchor="middle" x="379.5" y="-856.24" font-family="Arial" font-size="20.00" fill="blue">start_next: 04/11/17, 16:52:22</text>
<text text-anchor="middle" x="379.5" y="-834.24" font-family="Arial" font-size="20.00" fill="blue">gap: 920sec</text>
<text text-anchor="middle" x="379.5" y="-812.24" font-family="Arial" font-size="20.00" fill="blue">end_prev: 04/11/17, 16:37:02</text>
</g>
<!-- INFO DISCOVERY
wsman -->
<g id="node21" class="node">
<title>INFO DISCOVERY
wsman</title>
<g id="a_node21"><a xlink:title="GPL WEB_SERVER globals.pl access">
<ellipse fill="none" stroke="black" stroke-width="3" cx="597" cy="-922.67" rx="156.04" ry="42.35"/>
<text text-anchor="middle" x="597" y="-929.47" font-family="Arial" font-size="24.00">INFO DISCOVERY</text>
<text text-anchor="middle" x="597" y="-903.47" font-family="Arial" font-size="24.00">wsman</text>
</a>
</g>
</g>
<!-- SURFING
wsman&#45;&gt;INFO DISCOVERY
wsman -->
<g id="edge28" class="edge">
<title>SURFING
wsman&#45;&gt;INFO DISCOVERY
wsman</title>
<path fill="none" stroke="purple" stroke-width="5" d="M470.66,-779.39C484.44,-786.26 497.72,-795.06 508,-806.24 529.03,-829.11 512.66,-847.17 531,-872.24 531.76,-873.28 532.55,-874.31 533.36,-875.33"/>
<polygon fill="purple" stroke="purple" stroke-width="5" points="530.14,-878.28 540.05,-882.86 536.68,-872.48 530.14,-878.28"/>
<text text-anchor="middle" x="662.5" y="-856.24" font-family="Arial" font-size="20.00" fill="purple">start_next: 04/11/17, 14:07:10</text>
<text text-anchor="middle" x="662.5" y="-834.24" font-family="Arial" font-size="20.00" fill="purple">gap: &#45;9sec</text>
<text text-anchor="middle" x="662.5" y="-812.24" font-family="Arial" font-size="20.00" fill="purple">end_prev: 04/11/17, 14:07:20</text>
</g>
<!-- ARBITRARY CODE EXECUTION
unknown | ID: 47 -->
<g id="node16" class="node">
<title>ARBITRARY CODE EXECUTION
unknown | ID: 47</title>
<g id="a_node16"><a xlink:title="ET CURRENT_EVENTS QNAP Shellshock CVE&#45;2014&#45;6271">
<polygon fill="none" stroke="black" stroke-width="3" points="426.5,-1107.1 51.5,-1107.1 51.5,-1047.1 426.5,-1047.1 426.5,-1107.1"/>
<text text-anchor="middle" x="239" y="-1083.9" font-family="Arial" font-size="24.00">ARBITRARY CODE EXECUTION</text>
<text text-anchor="middle" x="239" y="-1057.9" font-family="Arial" font-size="24.00">unknown | ID: 47</text>
</a>
</g>
</g>
<!-- HOST DISCOVERY
unknown&#45;&gt;ARBITRARY CODE EXECUTION
unknown | ID: 47 -->
<g id="edge21" class="edge">
<title>HOST DISCOVERY
unknown&#45;&gt;ARBITRARY CODE EXECUTION
unknown | ID: 47</title>
<path fill="none" stroke="blue" stroke-width="5" d="M241.18,-965.32C240.74,-987.59 240.21,-1014.86 239.77,-1036.77"/>
<polygon fill="blue" stroke="blue" stroke-width="5" points="235.39,-1036.96 239.57,-1047.04 244.14,-1037.13 235.39,-1036.96"/>
<text text-anchor="middle" x="372.5" y="-1023.1" font-family="Arial" font-size="20.00" fill="blue">start_next: 04/11/17, 16:52:23</text>
<text text-anchor="middle" x="372.5" y="-1001.1" font-family="Arial" font-size="20.00" fill="blue">gap: 1sec</text>
<text text-anchor="middle" x="372.5" y="-979.1" font-family="Arial" font-size="20.00" fill="blue">end_prev: 04/11/17, 16:52:22</text>
</g>
<!-- ARBITRARY CODE EXECUTION
unknown | ID: 47&#45;&gt;SURFING
unknown -->
<g id="edge22" class="edge">
<title>ARBITRARY CODE EXECUTION
unknown | ID: 47&#45;&gt;SURFING
unknown</title>
<path fill="none" stroke="blue" stroke-width="5" d="M235,-1107.13C232.21,-1127.38 228.41,-1154.97 225.11,-1178.92"/>
<polygon fill="blue" stroke="blue" stroke-width="5" points="220.76,-1178.43 223.73,-1188.93 229.43,-1179.62 220.76,-1178.43"/>
<text text-anchor="middle" x="365.5" y="-1165.1" font-family="Arial" font-size="20.00" fill="blue">start_next: 04/11/17, 16:52:24</text>
<text text-anchor="middle" x="365.5" y="-1143.1" font-family="Arial" font-size="20.00" fill="blue">gap: 1sec</text>
<text text-anchor="middle" x="365.5" y="-1121.1" font-family="Arial" font-size="20.00" fill="blue">end_prev: 04/11/17, 16:52:23</text>
</g>
<!-- INFO DISCOVERY
unknown -->
<g id="node18" class="node">
<title>INFO DISCOVERY
unknown</title>
<g id="a_node18"><a xlink:title="GPL WEB_SERVER globals.pl access">
<ellipse fill="none" stroke="black" stroke-width="3" cx="356" cy="-1404.94" rx="156.04" ry="42.35"/>
<text text-anchor="middle" x="356" y="-1411.74" font-family="Arial" font-size="24.00">INFO DISCOVERY</text>
<text text-anchor="middle" x="356" y="-1385.74" font-family="Arial" font-size="24.00">unknown</text>
</a>
</g>
</g>
<!-- SURFING
unknown&#45;&gt;INFO DISCOVERY
unknown -->
<g id="edge23" class="edge">
<title>SURFING
unknown&#45;&gt;INFO DISCOVERY
unknown</title>
<path fill="none" stroke="blue" stroke-width="5" d="M209.12,-1273.85C206.39,-1297.53 207.29,-1326.67 222,-1347.95 227.26,-1355.56 233.78,-1362.15 241.07,-1367.84"/>
<polygon fill="blue" stroke="blue" stroke-width="5" points="238.58,-1371.44 249.26,-1373.67 243.65,-1364.31 238.58,-1371.44"/>
<text text-anchor="middle" x="353.5" y="-1331.95" font-family="Arial" font-size="20.00" fill="blue">start_next: 04/11/17, 16:52:26</text>
<text text-anchor="middle" x="353.5" y="-1309.95" font-family="Arial" font-size="20.00" fill="blue">gap: &#45;5sec</text>
<text text-anchor="middle" x="353.5" y="-1287.95" font-family="Arial" font-size="20.00" fill="blue">end_prev: 04/11/17, 16:52:31</text>
</g>
<!-- SURFING
unknown&#45;&gt;INFO DISCOVERY
unknown -->
<g id="edge31" class="edge">
<title>SURFING
unknown&#45;&gt;INFO DISCOVERY
unknown</title>
<path fill="none" stroke="purple" stroke-width="5" d="M305.84,-1237.17C373.73,-1242.82 459.77,-1255.18 482,-1281.95 500.74,-1304.52 497.98,-1323.35 482,-1347.95 477.51,-1354.86 471.94,-1360.93 465.67,-1366.26"/>
<polygon fill="purple" stroke="purple" stroke-width="5" points="462.66,-1363.05 457.38,-1372.61 467.98,-1370 462.66,-1363.05"/>
<text text-anchor="middle" x="626.5" y="-1331.95" font-family="Arial" font-size="20.00" fill="purple">start_next: 04/11/17, 14:15:52</text>
<text text-anchor="middle" x="626.5" y="-1309.95" font-family="Arial" font-size="20.00" fill="purple">gap: &#45;9sec</text>
<text text-anchor="middle" x="626.5" y="-1287.95" font-family="Arial" font-size="20.00" fill="purple">end_prev: 04/11/17, 14:16:01</text>
</g>
<!-- INFO DISCOVERY
unknown&#45;&gt;DATA EXFILTRATION
unknown | ID: 57 -->
<g id="edge24" class="edge">
<title>INFO DISCOVERY
unknown&#45;&gt;DATA EXFILTRATION
unknown | ID: 57</title>
<path fill="none" stroke="blue" stroke-width="5" d="M249.7,-1436.08C239.23,-1443 229.93,-1451.49 223,-1461.93 206.77,-1486.37 206.77,-1503.49 223,-1527.93 224.94,-1530.85 227.07,-1533.62 229.35,-1536.25"/>
<polygon fill="blue" stroke="blue" stroke-width="5" points="226.53,-1539.62 236.66,-1543.7 232.78,-1533.49 226.53,-1539.62"/>
<text text-anchor="middle" x="354.5" y="-1511.93" font-family="Arial" font-size="20.00" fill="blue">start_next: 04/11/17, 16:52:26</text>
<text text-anchor="middle" x="354.5" y="-1489.93" font-family="Arial" font-size="20.00" fill="blue">gap: 1sec</text>
<text text-anchor="middle" x="354.5" y="-1467.93" font-family="Arial" font-size="20.00" fill="blue">end_prev: 04/11/17, 16:52:26</text>
</g>
<!-- INFO DISCOVERY
unknown&#45;&gt;DATA EXFILTRATION
unknown | ID: 57 -->
<g id="edge32" class="edge">
<title>INFO DISCOVERY
unknown&#45;&gt;DATA EXFILTRATION
unknown | ID: 57</title>
<path fill="none" stroke="purple" stroke-width="5" d="M458.17,-1437.16C467.92,-1443.88 476.55,-1452.04 483,-1461.93 499.02,-1486.5 499.02,-1503.36 483,-1527.93 481.53,-1530.18 479.95,-1532.34 478.27,-1534.42"/>
<polygon fill="purple" stroke="purple" stroke-width="5" points="474.85,-1531.68 471.31,-1542 481.29,-1537.59 474.85,-1531.68"/>
<text text-anchor="middle" x="626.5" y="-1511.93" font-family="Arial" font-size="20.00" fill="purple">start_next: 04/11/17, 14:16:01</text>
<text text-anchor="middle" x="626.5" y="-1489.93" font-family="Arial" font-size="20.00" fill="purple">gap: 9sec</text>
<text text-anchor="middle" x="626.5" y="-1467.93" font-family="Arial" font-size="20.00" fill="purple">end_prev: 04/11/17, 14:15:52</text>
</g>
<!-- ARBITRARY CODE EXECUTION
wsman | ID: 59 -->
<g id="node20" class="node">
<title>ARBITRARY CODE EXECUTION
wsman | ID: 59</title>
<g id="a_node20"><a xlink:title="ET CURRENT_EVENTS QNAP Shellshock CVE&#45;2014&#45;6271">
<polygon fill="none" stroke="black" stroke-width="3" points="460.5,-618.96 85.5,-618.96 85.5,-558.96 460.5,-558.96 460.5,-618.96"/>
<text text-anchor="middle" x="273" y="-595.76" font-family="Arial" font-size="24.00">ARBITRARY CODE EXECUTION</text>
<text text-anchor="middle" x="273" y="-569.76" font-family="Arial" font-size="24.00">wsman | ID: 59</text>
</a>
</g>
</g>
<!-- VULNERABILTY DISCOVERY
wsman&#45;&gt;ARBITRARY CODE EXECUTION
wsman | ID: 59 -->
<g id="edge26" class="edge">
<title>VULNERABILTY DISCOVERY
wsman&#45;&gt;ARBITRARY CODE EXECUTION
wsman | ID: 59</title>
<path fill="none" stroke="purple" stroke-width="5" d="M270.68,-445.94C271.18,-476.72 271.86,-518.34 272.36,-548.56"/>
<polygon fill="purple" stroke="purple" stroke-width="5" points="267.98,-548.81 272.52,-558.74 276.73,-548.67 267.98,-548.81"/>
<text text-anchor="middle" x="403.5" y="-513.11" font-family="Arial" font-size="20.00" fill="purple">start_next: 04/11/17, 14:07:06</text>
<text text-anchor="middle" x="403.5" y="-491.11" font-family="Arial" font-size="20.00" fill="purple">gap: 1sec</text>
<text text-anchor="middle" x="403.5" y="-469.11" font-family="Arial" font-size="20.00" fill="purple">end_prev: 04/11/17, 14:07:05</text>
</g>
<!-- ARBITRARY CODE EXECUTION
wsman | ID: 59&#45;&gt;SURFING
wsman -->
<g id="edge27" class="edge">
<title>ARBITRARY CODE EXECUTION
wsman | ID: 59&#45;&gt;SURFING
wsman</title>
<path fill="none" stroke="purple" stroke-width="5" d="M266.48,-619.28C262.63,-644.43 261.45,-680.44 279,-705.39 286.74,-716.39 297.42,-724.96 309.22,-731.62"/>
<polygon fill="purple" stroke="purple" stroke-width="5" points="307.54,-735.67 318.43,-736.35 311.53,-727.89 307.54,-735.67"/>
<text text-anchor="middle" x="410.5" y="-689.39" font-family="Arial" font-size="20.00" fill="purple">start_next: 04/11/17, 14:07:07</text>
<text text-anchor="middle" x="410.5" y="-667.39" font-family="Arial" font-size="20.00" fill="purple">gap: 1sec</text>
<text text-anchor="middle" x="410.5" y="-645.39" font-family="Arial" font-size="20.00" fill="purple">end_prev: 04/11/17, 14:07:06</text>
</g>
<!-- INFO DISCOVERY
wsman&#45;&gt;DATA EXFILTRATION
wsman | ID: 63 -->
<g id="edge29" class="edge">
<title>INFO DISCOVERY
wsman&#45;&gt;DATA EXFILTRATION
wsman | ID: 63</title>
<path fill="none" stroke="purple" stroke-width="5" d="M736.96,-903.61C859.33,-884.6 1023.49,-850.14 1063,-798.24 1154.98,-677.42 909.25,-674.19 841,-538.54 822.15,-501.07 824.07,-230.01 825.92,-108.57"/>
<polygon fill="purple" stroke="purple" stroke-width="5" points="830.29,-108.41 826.08,-98.34 821.54,-108.27 830.29,-108.41"/>
<text text-anchor="middle" x="972.5" y="-513.11" font-family="Arial" font-size="20.00" fill="purple">start_next: 04/11/17, 14:07:20</text>
<text text-anchor="middle" x="972.5" y="-491.11" font-family="Arial" font-size="20.00" fill="purple">gap: 9sec</text>
<text text-anchor="middle" x="972.5" y="-469.11" font-family="Arial" font-size="20.00" fill="purple">end_prev: 04/11/17, 14:07:10</text>
</g>
</g>
</svg>
