<?xml version="1.0" encoding="UTF-8" standalone="no"?>
<!DOCTYPE svg PUBLIC "-//W3C//DTD SVG 1.1//EN"
 "http://www.w3.org/Graphics/SVG/1.1/DTD/svg11.dtd">
<!-- Generated by graphviz version 2.50.0 (0)
 -->
<!-- Title: DATADELIVERYwsman Pages: 1 -->
<svg width="934pt" height="1558pt"
 viewBox="0.00 0.00 934.12 1558.01" xmlns="http://www.w3.org/2000/svg" xmlns:xlink="http://www.w3.org/1999/xlink">
<g id="graph0" class="graph" transform="scale(1 1) rotate(0) translate(4 1554.01)">
<title>DATADELIVERYwsman</title>
<polygon fill="white" stroke="transparent" points="-4,4 -4,-1554.01 930.12,-1554.01 930.12,4 -4,4"/>
<!-- Victim: 10.0.0.224
DATA DELIVERY
wsman -->
<g id="node1" class="node">
<title>Victim: 10.0.0.224
DATA DELIVERY
wsman</title>
<polygon fill="salmon" stroke="black" stroke-width="3" points="633.07,-1453 633.07,-1507.39 538.79,-1545.85 405.46,-1545.85 311.17,-1507.39 311.17,-1453 405.46,-1414.54 538.79,-1414.54 633.07,-1453"/>
<polygon fill="none" stroke="black" stroke-width="3" points="637.08,-1450.32 637.08,-1510.06 539.58,-1549.84 404.67,-1549.84 307.17,-1510.06 307.17,-1450.32 404.67,-1410.55 539.58,-1410.55 637.08,-1450.32"/>
<text text-anchor="middle" x="472.12" y="-1499.99" font-family="Arial" font-size="24.00">Victim: 10.0.0.224</text>
<text text-anchor="middle" x="472.12" y="-1473.99" font-family="Arial" font-size="24.00">DATA DELIVERY</text>
<text text-anchor="middle" x="472.12" y="-1447.99" font-family="Arial" font-size="24.00">wsman</text>
</g>
<!-- DATA DELIVERY
wsman | ID: 399 -->
<g id="node2" class="node">
<title>DATA DELIVERY
wsman | ID: 399</title>
<g id="a_node2"><a xlink:title="GPL WEB_SERVER perl post attempt">
<polygon fill="salmon" stroke="black" stroke-width="3" points="635.22,-1344.38 553.67,-1393.36 390.57,-1393.36 309.02,-1344.38 390.57,-1295.4 553.67,-1295.4 635.22,-1344.38"/>
<text text-anchor="middle" x="472.12" y="-1351.18" font-family="Arial" font-size="24.00">DATA DELIVERY</text>
<text text-anchor="middle" x="472.12" y="-1325.18" font-family="Arial" font-size="24.00">wsman | ID: 399</text>
</a>
</g>
</g>
<!-- DATA DELIVERY
wsman | ID: 399&#45;&gt;Victim: 10.0.0.224
DATA DELIVERY
wsman -->
<g id="edge1" class="edge">
<title>DATA DELIVERY
wsman | ID: 399&#45;&gt;Victim: 10.0.0.224
DATA DELIVERY
wsman</title>
<path fill="none" stroke="black" stroke-width="5" d="M472.12,-1393.69C472.12,-1395.8 472.12,-1397.93 472.12,-1400.08"/>
<polygon fill="black" stroke="black" stroke-width="5" points="467.75,-1400.23 472.12,-1410.23 476.5,-1400.23 467.75,-1400.23"/>
</g>
<!-- VULNERABILTY DISCOVERY
ncube&#45;lm -->
<g id="node3" class="node">
<title>VULNERABILTY DISCOVERY
ncube&#45;lm</title>
<g id="a_node3"><a xlink:title="ET POLICY Suspicious inbound to PostgreSQL port 5432&#10;ET POLICY Suspicious inbound to MSSQL port 1433&#10;ET POLICY Suspicious inbound to Oracle SQL port 1521&#10;ET POLICY Suspicious inbound to mSQL port 4333">
<ellipse fill="yellow" stroke="black" stroke-width="3" cx="470.12" cy="-236.41" rx="241.25" ry="42.35"/>
<text text-anchor="middle" x="470.12" y="-243.21" font-family="Arial" font-size="24.00">VULNERABILTY DISCOVERY</text>
<text text-anchor="middle" x="470.12" y="-217.21" font-family="Arial" font-size="24.00">ncube&#45;lm</text>
</a>
</g>
</g>
<!-- VULNERABILTY DISCOVERY
ms&#45;sql&#45;s -->
<g id="node4" class="node">
<title>VULNERABILTY DISCOVERY
ms&#45;sql&#45;s</title>
<g id="a_node4"><a xlink:title="ET POLICY Suspicious inbound to MSSQL port 1433&#10;ET POLICY Suspicious inbound to Oracle SQL port 1521&#10;ET POLICY Suspicious inbound to mSQL port 4333">
<ellipse fill="none" stroke="black" stroke-width="3" cx="241.12" cy="-417.26" rx="241.25" ry="42.35"/>
<text text-anchor="middle" x="241.12" y="-424.06" font-family="Arial" font-size="24.00">VULNERABILTY DISCOVERY</text>
<text text-anchor="middle" x="241.12" y="-398.06" font-family="Arial" font-size="24.00">ms&#45;sql&#45;s</text>
</a>
</g>
</g>
<!-- VULNERABILTY DISCOVERY
ncube&#45;lm&#45;&gt;VULNERABILTY DISCOVERY
ms&#45;sql&#45;s -->
<g id="edge2" class="edge">
<title>VULNERABILTY DISCOVERY
ncube&#45;lm&#45;&gt;VULNERABILTY DISCOVERY
ms&#45;sql&#45;s</title>
<path fill="none" stroke="blue" stroke-width="5" d="M373.86,-275.41C367.69,-278.98 361.71,-282.78 356.12,-286.83 325.57,-308.96 297.33,-340.5 276.48,-366.91"/>
<polygon fill="blue" stroke="blue" stroke-width="5" points="272.93,-364.34 270.25,-374.92 279.84,-369.71 272.93,-364.34"/>
<text text-anchor="start" x="356.12" y="-351.83" font-family="Arial" font-size="20.00" fill="blue"> start_next: 04/11/17, 14:02:53</text>
<text text-anchor="start" x="429.62" y="-331.83" font-family="Arial" font-size="20.00" fill="blue">gap: 3683sec</text>
<text text-anchor="start" x="360.12" y="-311.83" font-family="Arial" font-size="20.00" fill="blue">end_prev: 04/11/17, 13:01:30</text>
<text text-anchor="start" x="390.62" y="-291.83" font-family="Arial" font-weight="bold" font-size="20.00" fill="blue">Attacker: 10.0.254.31</text>
</g>
<!-- SERVICE DISCOVERY
unknown -->
<g id="node11" class="node">
<title>SERVICE DISCOVERY
unknown</title>
<g id="a_node11"><a xlink:title="ET SCAN Behavioral Unusual Port 445 traffic Potential Scan or Infection&#10;ET SCAN Potential VNC Scan 5900&#45;5920">
<ellipse fill="none" stroke="black" stroke-width="3" cx="655.12" cy="-510.11" rx="189.51" ry="42.35"/>
<text text-anchor="middle" x="655.12" y="-516.91" font-family="Arial" font-size="24.00">SERVICE DISCOVERY</text>
<text text-anchor="middle" x="655.12" y="-490.91" font-family="Arial" font-size="24.00">unknown</text>
</a>
</g>
</g>
<!-- VULNERABILTY DISCOVERY
ncube&#45;lm&#45;&gt;SERVICE DISCOVERY
unknown -->
<g id="edge10" class="edge">
<title>VULNERABILTY DISCOVERY
ncube&#45;lm&#45;&gt;SERVICE DISCOVERY
unknown</title>
<path fill="none" stroke="blue" stroke-width="5" d="M604.88,-271.66C610.83,-276.12 616.31,-281.15 621.12,-286.83 661.07,-333.96 664.62,-407.76 661.51,-457.24"/>
<polygon fill="blue" stroke="blue" stroke-width="5" points="657.13,-457.12 660.76,-467.42 665.86,-457.77 657.13,-457.12"/>
<text text-anchor="middle" x="788.62" y="-343.83" font-family="Arial" font-size="20.00" fill="blue">start_next: 04/11/17, 16:29:37</text>
<text text-anchor="middle" x="788.62" y="-321.83" font-family="Arial" font-size="20.00" fill="blue">gap: &#45;369sec</text>
<text text-anchor="middle" x="788.62" y="-299.83" font-family="Arial" font-size="20.00" fill="blue">end_prev: 04/11/17, 16:35:46</text>
</g>
<!-- SERVICE DISCOVERY
epmap -->
<g id="node5" class="node">
<title>SERVICE DISCOVERY
epmap</title>
<g id="a_node5"><a xlink:title="ET SCAN Behavioral Unusual Port 135 traffic Potential Scan or Infection&#10;ET SCAN Potential VNC Scan 5900&#45;5920">
<ellipse fill="none" stroke="black" stroke-width="3" cx="290.12" cy="-602.96" rx="189.51" ry="42.35"/>
<text text-anchor="middle" x="290.12" y="-609.76" font-family="Arial" font-size="24.00">SERVICE DISCOVERY</text>
<text text-anchor="middle" x="290.12" y="-583.76" font-family="Arial" font-size="24.00">epmap</text>
</a>
</g>
</g>
<!-- VULNERABILTY DISCOVERY
ms&#45;sql&#45;s&#45;&gt;SERVICE DISCOVERY
epmap -->
<g id="edge3" class="edge">
<title>VULNERABILTY DISCOVERY
ms&#45;sql&#45;s&#45;&gt;SERVICE DISCOVERY
epmap</title>
<path fill="none" stroke="blue" stroke-width="5" d="M202.94,-459.3C201.47,-462.03 200.17,-464.83 199.12,-467.69 186.11,-503.08 179.84,-520.13 199.12,-552.54 199.93,-553.89 200.78,-555.21 201.69,-556.49"/>
<polygon fill="blue" stroke="blue" stroke-width="5" points="198.54,-559.55 208.28,-564.48 205.29,-553.98 198.54,-559.55"/>
<text text-anchor="middle" x="330.62" y="-527.11" font-family="Arial" font-size="20.00" fill="blue">start_next: 04/11/17, 14:02:55</text>
<text text-anchor="middle" x="330.62" y="-505.11" font-family="Arial" font-size="20.00" fill="blue">gap: &#45;19sec</text>
<text text-anchor="middle" x="330.62" y="-483.11" font-family="Arial" font-size="20.00" fill="blue">end_prev: 04/11/17, 14:03:14</text>
</g>
<!-- ARBITRARY CODE EXECUTION
microsoft&#45;ds | ID: 309 -->
<g id="node6" class="node">
<title>ARBITRARY CODE EXECUTION
microsoft&#45;ds | ID: 309</title>
<g id="a_node6"><a xlink:title="GPL NETBIOS DCERPC Remote Activation bind attempt&#10;ET CURRENT_EVENTS QNAP Shellshock CVE&#45;2014&#45;6271&#10;GPL NETBIOS DCERPC IActivation little endian bind attempt&#10;GPL MISC UPnP malformed advertisement&#10;GPL NETBIOS SMB&#45;DS Session Setup NTMLSSP unicode asn1 overflow attempt">
<polygon fill="none" stroke="black" stroke-width="3" points="659.62,-787.39 284.62,-787.39 284.62,-727.39 659.62,-727.39 659.62,-787.39"/>
<text text-anchor="middle" x="472.12" y="-764.19" font-family="Arial" font-size="24.00">ARBITRARY CODE EXECUTION</text>
<text text-anchor="middle" x="472.12" y="-738.19" font-family="Arial" font-size="24.00">microsoft&#45;ds | ID: 309</text>
</a>
</g>
</g>
<!-- SERVICE DISCOVERY
epmap&#45;&gt;ARBITRARY CODE EXECUTION
microsoft&#45;ds | ID: 309 -->
<g id="edge4" class="edge">
<title>SERVICE DISCOVERY
epmap&#45;&gt;ARBITRARY CODE EXECUTION
microsoft&#45;ds | ID: 309</title>
<path fill="none" stroke="blue" stroke-width="5" d="M307.61,-645.34C319.89,-669.94 338.53,-700.03 363.12,-719.39 364.14,-720.19 365.17,-720.97 366.22,-721.74"/>
<polygon fill="blue" stroke="blue" stroke-width="5" points="363.83,-725.4 374.58,-727.3 368.68,-718.12 363.83,-725.4"/>
<text text-anchor="middle" x="494.62" y="-703.39" font-family="Arial" font-size="20.00" fill="blue">start_next: 04/11/17, 14:04:58</text>
<text text-anchor="middle" x="494.62" y="-681.39" font-family="Arial" font-size="20.00" fill="blue">gap: 87sec</text>
<text text-anchor="middle" x="494.62" y="-659.39" font-family="Arial" font-size="20.00" fill="blue">end_prev: 04/11/17, 14:03:30</text>
</g>
<!-- REMOTE SERVICE EXPLOIT
snmp | ID: 52 -->
<g id="node7" class="node">
<title>REMOTE SERVICE EXPLOIT
snmp | ID: 52</title>
<g id="a_node7"><a xlink:title="ET SNMP Samsung Printer SNMP Hardcode RW Community String">
<polygon fill="none" stroke="black" stroke-width="3" points="641.12,-929.39 303.12,-929.39 303.12,-869.39 641.12,-869.39 641.12,-929.39"/>
<text text-anchor="middle" x="472.12" y="-906.19" font-family="Arial" font-size="24.00">REMOTE SERVICE EXPLOIT</text>
<text text-anchor="middle" x="472.12" y="-880.19" font-family="Arial" font-size="24.00">snmp | ID: 52</text>
</a>
</g>
</g>
<!-- ARBITRARY CODE EXECUTION
microsoft&#45;ds | ID: 309&#45;&gt;REMOTE SERVICE EXPLOIT
snmp | ID: 52 -->
<g id="edge5" class="edge">
<title>ARBITRARY CODE EXECUTION
microsoft&#45;ds | ID: 309&#45;&gt;REMOTE SERVICE EXPLOIT
snmp | ID: 52</title>
<path fill="none" stroke="blue" stroke-width="5" d="M348.82,-787.55C344.56,-790.01 341.23,-792.62 339.12,-795.39 321.38,-818.75 321.38,-838.03 339.12,-861.39 339.58,-862 340.1,-862.59 340.68,-863.18"/>
<polygon fill="blue" stroke="blue" stroke-width="5" points="338.18,-866.78 348.82,-869.23 343.4,-859.76 338.18,-866.78"/>
<text text-anchor="middle" x="470.62" y="-845.39" font-family="Arial" font-size="20.00" fill="blue">start_next: 04/11/17, 14:05:32</text>
<text text-anchor="middle" x="470.62" y="-823.39" font-family="Arial" font-size="20.00" fill="blue">gap: &#45;81sec</text>
<text text-anchor="middle" x="470.62" y="-801.39" font-family="Arial" font-size="20.00" fill="blue">end_prev: 04/11/17, 14:06:53</text>
</g>
<!-- ARBITRARY CODE EXECUTION
microsoft&#45;ds | ID: 309&#45;&gt;REMOTE SERVICE EXPLOIT
snmp | ID: 52 -->
<g id="edge12" class="edge">
<title>ARBITRARY CODE EXECUTION
microsoft&#45;ds | ID: 309&#45;&gt;REMOTE SERVICE EXPLOIT
snmp | ID: 52</title>
<path fill="none" stroke="blue" stroke-width="5" d="M592.37,-787.7C594.8,-790.08 597.06,-792.64 599.12,-795.39 616.73,-818.85 616.73,-837.93 599.12,-861.39 599.06,-861.48 598.99,-861.56 598.93,-861.65"/>
<polygon fill="blue" stroke="blue" stroke-width="5" points="595.7,-858.69 592.37,-869.08 602.27,-864.48 595.7,-858.69"/>
<text text-anchor="middle" x="744.62" y="-845.39" font-family="Arial" font-size="20.00" fill="blue">start_next: 04/11/17, 16:33:50</text>
<text text-anchor="middle" x="744.62" y="-823.39" font-family="Arial" font-size="20.00" fill="blue">gap: &#45;184sec</text>
<text text-anchor="middle" x="744.62" y="-801.39" font-family="Arial" font-size="20.00" fill="blue">end_prev: 04/11/17, 16:36:54</text>
</g>
<!-- COMMAND AND CONTROL
unknown | ID: 308 -->
<g id="node8" class="node">
<title>COMMAND AND CONTROL
unknown | ID: 308</title>
<g id="a_node8"><a xlink:title="ET POLICY RDP connection confirm">
<polygon fill="none" stroke="black" stroke-width="3" points="633.62,-1071.39 310.62,-1071.39 310.62,-1011.39 633.62,-1011.39 633.62,-1071.39"/>
<text text-anchor="middle" x="472.12" y="-1048.19" font-family="Arial" font-size="24.00">COMMAND AND CONTROL</text>
<text text-anchor="middle" x="472.12" y="-1022.19" font-family="Arial" font-size="24.00">unknown | ID: 308</text>
</a>
</g>
</g>
<!-- REMOTE SERVICE EXPLOIT
snmp | ID: 52&#45;&gt;COMMAND AND CONTROL
unknown | ID: 308 -->
<g id="edge6" class="edge">
<title>REMOTE SERVICE EXPLOIT
snmp | ID: 52&#45;&gt;COMMAND AND CONTROL
unknown | ID: 308</title>
<path fill="none" stroke="blue" stroke-width="5" d="M348.82,-929.55C344.56,-932.01 341.23,-934.62 339.12,-937.39 321.38,-960.75 321.38,-980.03 339.12,-1003.39 339.58,-1004 340.1,-1004.59 340.68,-1005.18"/>
<polygon fill="blue" stroke="blue" stroke-width="5" points="338.18,-1008.78 348.82,-1011.23 343.4,-1001.76 338.18,-1008.78"/>
<text text-anchor="middle" x="470.62" y="-987.39" font-family="Arial" font-size="20.00" fill="blue">start_next: 04/11/17, 14:05:59</text>
<text text-anchor="middle" x="470.62" y="-965.39" font-family="Arial" font-size="20.00" fill="blue">gap: 27sec</text>
<text text-anchor="middle" x="470.62" y="-943.39" font-family="Arial" font-size="20.00" fill="blue">end_prev: 04/11/17, 14:05:32</text>
</g>
<!-- REMOTE SERVICE EXPLOIT
snmp | ID: 52&#45;&gt;COMMAND AND CONTROL
unknown | ID: 308 -->
<g id="edge13" class="edge">
<title>REMOTE SERVICE EXPLOIT
snmp | ID: 52&#45;&gt;COMMAND AND CONTROL
unknown | ID: 308</title>
<path fill="none" stroke="blue" stroke-width="5" d="M592.37,-929.7C594.8,-932.08 597.06,-934.64 599.12,-937.39 616.73,-960.85 616.73,-979.93 599.12,-1003.39 599.06,-1003.48 598.99,-1003.56 598.93,-1003.65"/>
<polygon fill="blue" stroke="blue" stroke-width="5" points="595.7,-1000.69 592.37,-1011.08 602.27,-1006.48 595.7,-1000.69"/>
<text text-anchor="middle" x="744.12" y="-987.39" font-family="Arial" font-size="20.00" fill="blue">start_next: 04/11/17, 16:34:11</text>
<text text-anchor="middle" x="744.12" y="-965.39" font-family="Arial" font-size="20.00" fill="blue">gap: 21sec</text>
<text text-anchor="middle" x="744.12" y="-943.39" font-family="Arial" font-size="20.00" fill="blue">end_prev: 04/11/17, 16:33:50</text>
</g>
<!-- ACCOUNT MANIPULATION
snmp | ID: 53 -->
<g id="node9" class="node">
<title>ACCOUNT MANIPULATION
snmp | ID: 53</title>
<g id="a_node9"><a xlink:title="GPL SNMP private access udp&#10;GPL SNMP public access udp">
<polygon fill="none" stroke="black" stroke-width="3" points="632.12,-1213.39 312.12,-1213.39 312.12,-1153.39 632.12,-1153.39 632.12,-1213.39"/>
<text text-anchor="middle" x="472.12" y="-1190.19" font-family="Arial" font-size="24.00">ACCOUNT MANIPULATION</text>
<text text-anchor="middle" x="472.12" y="-1164.19" font-family="Arial" font-size="24.00">snmp | ID: 53</text>
</a>
</g>
</g>
<!-- COMMAND AND CONTROL
unknown | ID: 308&#45;&gt;ACCOUNT MANIPULATION
snmp | ID: 53 -->
<g id="edge7" class="edge">
<title>COMMAND AND CONTROL
unknown | ID: 308&#45;&gt;ACCOUNT MANIPULATION
snmp | ID: 53</title>
<path fill="none" stroke="blue" stroke-width="5" d="M348.82,-1071.55C344.56,-1074.01 341.23,-1076.62 339.12,-1079.39 321.38,-1102.75 321.38,-1122.03 339.12,-1145.39 339.58,-1146 340.1,-1146.59 340.68,-1147.18"/>
<polygon fill="blue" stroke="blue" stroke-width="5" points="338.18,-1150.78 348.82,-1153.23 343.4,-1143.76 338.18,-1150.78"/>
<text text-anchor="middle" x="470.62" y="-1129.39" font-family="Arial" font-size="20.00" fill="blue">start_next: 04/11/17, 14:06:04</text>
<text text-anchor="middle" x="470.62" y="-1107.39" font-family="Arial" font-size="20.00" fill="blue">gap: &#45;109sec</text>
<text text-anchor="middle" x="470.62" y="-1085.39" font-family="Arial" font-size="20.00" fill="blue">end_prev: 04/11/17, 14:07:53</text>
</g>
<!-- COMMAND AND CONTROL
unknown | ID: 308&#45;&gt;ACCOUNT MANIPULATION
snmp | ID: 53 -->
<g id="edge14" class="edge">
<title>COMMAND AND CONTROL
unknown | ID: 308&#45;&gt;ACCOUNT MANIPULATION
snmp | ID: 53</title>
<path fill="none" stroke="blue" stroke-width="5" d="M592.37,-1071.7C594.8,-1074.08 597.06,-1076.64 599.12,-1079.39 616.73,-1102.85 616.73,-1121.93 599.12,-1145.39 599.06,-1145.48 598.99,-1145.56 598.93,-1145.65"/>
<polygon fill="blue" stroke="blue" stroke-width="5" points="595.7,-1142.69 592.37,-1153.08 602.27,-1148.48 595.7,-1142.69"/>
<text text-anchor="middle" x="744.62" y="-1129.39" font-family="Arial" font-size="20.00" fill="blue">start_next: 04/11/17, 16:34:17</text>
<text text-anchor="middle" x="744.62" y="-1107.39" font-family="Arial" font-size="20.00" fill="blue">gap: &#45;107sec</text>
<text text-anchor="middle" x="744.62" y="-1085.39" font-family="Arial" font-size="20.00" fill="blue">end_prev: 04/11/17, 16:36:04</text>
</g>
<!-- ACCOUNT MANIPULATION
snmp | ID: 53&#45;&gt;DATA DELIVERY
wsman | ID: 399 -->
<g id="edge8" class="edge">
<title>ACCOUNT MANIPULATION
snmp | ID: 53&#45;&gt;DATA DELIVERY
wsman | ID: 399</title>
<path fill="none" stroke="blue" stroke-width="5" d="M348.82,-1213.55C344.56,-1216.01 341.23,-1218.62 339.12,-1221.39 321.38,-1244.75 322.9,-1262.95 339.12,-1287.39 343.61,-1294.14 349.08,-1300.08 355.22,-1305.3"/>
<polygon fill="blue" stroke="blue" stroke-width="5" points="352.74,-1308.91 363.33,-1311.55 358.07,-1301.98 352.74,-1308.91"/>
<text text-anchor="middle" x="470.62" y="-1271.39" font-family="Arial" font-size="20.00" fill="blue">start_next: 04/11/17, 14:06:51</text>
<text text-anchor="middle" x="470.62" y="-1249.39" font-family="Arial" font-size="20.00" fill="blue">gap: 43sec</text>
<text text-anchor="middle" x="470.62" y="-1227.39" font-family="Arial" font-size="20.00" fill="blue">end_prev: 04/11/17, 14:06:08</text>
</g>
<!-- ACCOUNT MANIPULATION
snmp | ID: 53&#45;&gt;DATA DELIVERY
wsman | ID: 399 -->
<g id="edge15" class="edge">
<title>ACCOUNT MANIPULATION
snmp | ID: 53&#45;&gt;DATA DELIVERY
wsman | ID: 399</title>
<path fill="none" stroke="blue" stroke-width="5" d="M592.37,-1213.7C594.8,-1216.08 597.06,-1218.64 599.12,-1221.39 616.73,-1244.85 615.14,-1262.82 599.12,-1287.39 595.32,-1293.22 590.76,-1298.45 585.66,-1303.14"/>
<polygon fill="blue" stroke="blue" stroke-width="5" points="582.74,-1299.88 577.82,-1309.62 588.32,-1306.62 582.74,-1299.88"/>
<text text-anchor="middle" x="743.62" y="-1271.39" font-family="Arial" font-size="20.00" fill="blue">start_next: 04/11/17, 16:35:02</text>
<text text-anchor="middle" x="743.62" y="-1249.39" font-family="Arial" font-size="20.00" fill="blue">gap: 44sec</text>
<text text-anchor="middle" x="743.62" y="-1227.39" font-family="Arial" font-size="20.00" fill="blue">end_prev: 04/11/17, 16:34:19</text>
</g>
<!-- DATA EXFILTRATION
wsman | ID: 63 -->
<g id="node10" class="node">
<title>DATA EXFILTRATION
wsman | ID: 63</title>
<g id="a_node10"><a xlink:title="ET WEB_SPECIFIC_APPS PHP&#45;CGI query string parameter vulnerability">
<polygon fill="yellow" stroke="black" stroke-width="3" points="675,-48.99 572.56,-97.97 367.68,-97.97 265.24,-48.99 367.68,-0.01 572.56,-0.01 675,-48.99"/>
<text text-anchor="middle" x="470.12" y="-55.79" font-family="Arial" font-size="24.00">DATA EXFILTRATION</text>
<text text-anchor="middle" x="470.12" y="-29.79" font-family="Arial" font-size="24.00">wsman | ID: 63</text>
</a>
</g>
</g>
<!-- DATA EXFILTRATION
wsman | ID: 63&#45;&gt;VULNERABILTY DISCOVERY
ncube&#45;lm -->
<g id="edge9" class="edge">
<title>DATA EXFILTRATION
wsman | ID: 63&#45;&gt;VULNERABILTY DISCOVERY
ncube&#45;lm</title>
<path fill="none" stroke="blue" stroke-width="5" d="M470.12,-98.22C470.12,-124.37 470.12,-156.7 470.12,-183.4"/>
<polygon fill="blue" stroke="blue" stroke-width="5" points="465.75,-183.71 470.12,-193.71 474.5,-183.71 465.75,-183.71"/>
<text text-anchor="start" x="470.12" y="-170.98" font-family="Arial" font-size="20.00" fill="blue"> start_next: 04/11/17, 16:25:53</text>
<text text-anchor="start" x="543.62" y="-150.98" font-family="Arial" font-size="20.00" fill="blue">gap: 8339sec</text>
<text text-anchor="start" x="474.12" y="-130.98" font-family="Arial" font-size="20.00" fill="blue">end_prev: 04/11/17, 14:06:54</text>
<text text-anchor="start" x="504.62" y="-110.98" font-family="Arial" font-weight="bold" font-size="20.00" fill="blue">Attacker: 10.0.254.31</text>
</g>
<!-- SERVICE DISCOVERY
unknown&#45;&gt;ARBITRARY CODE EXECUTION
microsoft&#45;ds | ID: 309 -->
<g id="edge11" class="edge">
<title>SERVICE DISCOVERY
unknown&#45;&gt;ARBITRARY CODE EXECUTION
microsoft&#45;ds | ID: 309</title>
<path fill="none" stroke="blue" stroke-width="5" d="M661.17,-552.79C665.43,-599.43 664.39,-674.33 623.12,-719.39 622.31,-720.28 621.37,-721.15 620.32,-722"/>
<polygon fill="blue" stroke="blue" stroke-width="5" points="617.9,-718.35 611.77,-727.38 622.56,-725.76 617.9,-718.35"/>
<text text-anchor="middle" x="794.62" y="-619.96" font-family="Arial" font-size="20.00" fill="blue">start_next: 04/11/17, 16:31:23</text>
<text text-anchor="middle" x="794.62" y="-597.96" font-family="Arial" font-size="20.00" fill="blue">gap: &#45;151sec</text>
<text text-anchor="middle" x="794.62" y="-575.96" font-family="Arial" font-size="20.00" fill="blue">end_prev: 04/11/17, 16:33:53</text>
</g>
</g>
</svg>
