<?xml version="1.0" encoding="UTF-8" standalone="no"?>
<!DOCTYPE svg PUBLIC "-//W3C//DTD SVG 1.1//EN"
 "http://www.w3.org/Graphics/SVG/1.1/DTD/svg11.dtd">
<!-- Generated by graphviz version 2.50.0 (0)
 -->
<!-- Title: DATADELIVERYwsman Pages: 1 -->
<svg width="1156pt" height="2802pt"
 viewBox="0.00 0.00 1155.50 2802.22" xmlns="http://www.w3.org/2000/svg" xmlns:xlink="http://www.w3.org/1999/xlink">
<g id="graph0" class="graph" transform="scale(1 1) rotate(0) translate(4 2798.22)">
<title>DATADELIVERYwsman</title>
<polygon fill="white" stroke="transparent" points="-4,4 -4,-2798.22 1151.5,-2798.22 1151.5,4 -4,4"/>
<!-- Victim: 10.0.0.221
DATA DELIVERY
wsman -->
<g id="node1" class="node">
<title>Victim: 10.0.0.221
DATA DELIVERY
wsman</title>
<polygon fill="salmon" stroke="black" stroke-width="3" points="613.45,-2697.2 613.45,-2751.59 519.17,-2790.05 385.83,-2790.05 291.55,-2751.59 291.55,-2697.2 385.83,-2658.74 519.17,-2658.74 613.45,-2697.2"/>
<polygon fill="none" stroke="black" stroke-width="3" points="617.45,-2694.52 617.45,-2754.27 519.96,-2794.04 385.04,-2794.04 287.55,-2754.27 287.55,-2694.52 385.04,-2654.75 519.96,-2654.75 617.45,-2694.52"/>
<text text-anchor="middle" x="452.5" y="-2744.19" font-family="Arial" font-size="24.00">Victim: 10.0.0.221</text>
<text text-anchor="middle" x="452.5" y="-2718.19" font-family="Arial" font-size="24.00">DATA DELIVERY</text>
<text text-anchor="middle" x="452.5" y="-2692.19" font-family="Arial" font-size="24.00">wsman</text>
</g>
<!-- DATA DELIVERY
wsman | ID: 399 -->
<g id="node2" class="node">
<title>DATA DELIVERY
wsman | ID: 399</title>
<g id="a_node2"><a xlink:title="GPL WEB_SERVER perl post attempt">
<polygon fill="salmon" stroke="black" stroke-width="3" points="615.6,-2588.58 534.05,-2637.56 370.95,-2637.56 289.4,-2588.58 370.95,-2539.6 534.05,-2539.6 615.6,-2588.58"/>
<text text-anchor="middle" x="452.5" y="-2595.38" font-family="Arial" font-size="24.00">DATA DELIVERY</text>
<text text-anchor="middle" x="452.5" y="-2569.38" font-family="Arial" font-size="24.00">wsman | ID: 399</text>
</a>
</g>
</g>
<!-- DATA DELIVERY
wsman | ID: 399&#45;&gt;Victim: 10.0.0.221
DATA DELIVERY
wsman -->
<g id="edge1" class="edge">
<title>DATA DELIVERY
wsman | ID: 399&#45;&gt;Victim: 10.0.0.221
DATA DELIVERY
wsman</title>
<path fill="none" stroke="black" stroke-width="5" d="M452.5,-2637.89C452.5,-2640 452.5,-2642.13 452.5,-2644.28"/>
<polygon fill="black" stroke="black" stroke-width="5" points="448.13,-2644.43 452.5,-2654.43 456.88,-2644.43 448.13,-2644.43"/>
</g>
<!-- SERVICE DISCOVERY
epmap -->
<g id="node3" class="node">
<title>SERVICE DISCOVERY
epmap</title>
<g id="a_node3"><a xlink:title="ET SCAN Behavioral Unusual Port 135 traffic Potential Scan or Infection&#10;ET SCAN Behavioral Unusual Port 139 traffic Potential Scan or Infection">
<ellipse fill="yellow" stroke="black" stroke-width="3" cx="879.5" cy="-903.82" rx="189.51" ry="42.35"/>
<text text-anchor="middle" x="879.5" y="-910.62" font-family="Arial" font-size="24.00">SERVICE DISCOVERY</text>
<text text-anchor="middle" x="879.5" y="-884.62" font-family="Arial" font-size="24.00">epmap</text>
</a>
</g>
</g>
<!-- ACCOUNT MANIPULATION
snmp | ID: 326 -->
<g id="node4" class="node">
<title>ACCOUNT MANIPULATION
snmp | ID: 326</title>
<g id="a_node4"><a xlink:title="GPL SNMP private access udp&#10;GPL SNMP public access udp">
<polygon fill="none" stroke="black" stroke-width="3" stroke-dasharray="1,5" points="1039.5,-1114.67 719.5,-1114.67 719.5,-1054.67 1039.5,-1054.67 1039.5,-1114.67"/>
<text text-anchor="middle" x="879.5" y="-1091.47" font-family="Arial" font-size="24.00">ACCOUNT MANIPULATION</text>
<text text-anchor="middle" x="879.5" y="-1065.47" font-family="Arial" font-size="24.00">snmp | ID: 326</text>
</a>
</g>
</g>
<!-- SERVICE DISCOVERY
epmap&#45;&gt;ACCOUNT MANIPULATION
snmp | ID: 326 -->
<g id="edge2" class="edge">
<title>SERVICE DISCOVERY
epmap&#45;&gt;ACCOUNT MANIPULATION
snmp | ID: 326</title>
<path fill="none" stroke="blue" stroke-width="5" d="M879.5,-946.3C879.5,-975.8 879.5,-1015.19 879.5,-1044.22"/>
<polygon fill="blue" stroke="blue" stroke-width="5" points="875.13,-1044.41 879.5,-1054.41 883.88,-1044.41 875.13,-1044.41"/>
<text text-anchor="start" x="879.5" y="-1019.24" font-family="Arial" font-size="20.00" fill="blue"> start_next: 04/11/17, 14:01:59</text>
<text text-anchor="start" x="954" y="-999.24" font-family="Arial" font-size="20.00" fill="blue">gap: 4114sec</text>
<text text-anchor="start" x="883.5" y="-979.24" font-family="Arial" font-size="20.00" fill="blue">end_prev: 04/11/17, 12:53:25</text>
<text text-anchor="start" x="914" y="-959.24" font-family="Arial" font-weight="bold" font-size="20.00" fill="blue">Attacker: 10.0.254.31</text>
</g>
<!-- ARBITRARY CODE EXECUTION
microsoft&#45;ds | ID: 40 -->
<g id="node5" class="node">
<title>ARBITRARY CODE EXECUTION
microsoft&#45;ds | ID: 40</title>
<g id="a_node5"><a xlink:title="GPL MISC UPnP malformed advertisement&#10;GPL NETBIOS DCERPC Remote Activation bind attempt&#10;GPL NETBIOS SMB&#45;DS Session Setup NTMLSSP unicode asn1 overflow attempt&#10;GPL NETBIOS DCERPC IActivation little endian bind attempt">
<polygon fill="none" stroke="black" stroke-width="3" points="1067,-1281.52 692,-1281.52 692,-1221.52 1067,-1221.52 1067,-1281.52"/>
<text text-anchor="middle" x="879.5" y="-1258.32" font-family="Arial" font-size="24.00">ARBITRARY CODE EXECUTION</text>
<text text-anchor="middle" x="879.5" y="-1232.32" font-family="Arial" font-size="24.00">microsoft&#45;ds | ID: 40</text>
</a>
</g>
</g>
<!-- ACCOUNT MANIPULATION
snmp | ID: 326&#45;&gt;ARBITRARY CODE EXECUTION
microsoft&#45;ds | ID: 40 -->
<g id="edge3" class="edge">
<title>ACCOUNT MANIPULATION
snmp | ID: 326&#45;&gt;ARBITRARY CODE EXECUTION
microsoft&#45;ds | ID: 40</title>
<path fill="none" stroke="blue" stroke-width="5" d="M879.5,-1114.76C879.5,-1141.64 879.5,-1181.76 879.5,-1211.43"/>
<polygon fill="blue" stroke="blue" stroke-width="5" points="875.13,-1211.44 879.5,-1221.44 883.88,-1211.44 875.13,-1211.44"/>
<text text-anchor="middle" x="1011" y="-1185.1" font-family="Arial" font-size="20.00" fill="blue">start_next: 04/11/17, 14:02:06</text>
<text text-anchor="middle" x="1011" y="-1163.1" font-family="Arial" font-size="20.00" fill="blue">gap: &#45;225sec</text>
<text text-anchor="middle" x="1011" y="-1141.1" font-family="Arial" font-size="20.00" fill="blue">end_prev: 04/11/17, 14:05:51</text>
</g>
<!-- SERVICE DISCOVERY
microsoft&#45;ds -->
<g id="node6" class="node">
<title>SERVICE DISCOVERY
microsoft&#45;ds</title>
<g id="a_node6"><a xlink:title="ET SCAN Behavioral Unusual Port 445 traffic Potential Scan or Infection">
<ellipse fill="none" stroke="black" stroke-width="3" cx="879.5" cy="-1424.94" rx="189.51" ry="42.35"/>
<text text-anchor="middle" x="879.5" y="-1431.74" font-family="Arial" font-size="24.00">SERVICE DISCOVERY</text>
<text text-anchor="middle" x="879.5" y="-1405.74" font-family="Arial" font-size="24.00">microsoft&#45;ds</text>
</a>
</g>
</g>
<!-- ARBITRARY CODE EXECUTION
microsoft&#45;ds | ID: 40&#45;&gt;SERVICE DISCOVERY
microsoft&#45;ds -->
<g id="edge4" class="edge">
<title>ARBITRARY CODE EXECUTION
microsoft&#45;ds | ID: 40&#45;&gt;SERVICE DISCOVERY
microsoft&#45;ds</title>
<path fill="none" stroke="blue" stroke-width="5" d="M879.5,-1281.6C879.5,-1306.38 879.5,-1342.59 879.5,-1372.29"/>
<polygon fill="blue" stroke="blue" stroke-width="5" points="875.13,-1372.49 879.5,-1382.49 883.88,-1372.49 875.13,-1372.49"/>
<text text-anchor="middle" x="1011" y="-1351.95" font-family="Arial" font-size="20.00" fill="blue">start_next: 04/11/17, 14:02:15</text>
<text text-anchor="middle" x="1011" y="-1329.95" font-family="Arial" font-size="20.00" fill="blue">gap: &#45;263sec</text>
<text text-anchor="middle" x="1011" y="-1307.95" font-family="Arial" font-size="20.00" fill="blue">end_prev: 04/11/17, 14:06:37</text>
</g>
<!-- VULNERABILTY DISCOVERY
ahsp -->
<g id="node7" class="node">
<title>VULNERABILTY DISCOVERY
ahsp</title>
<g id="a_node7"><a xlink:title="ET POLICY Suspicious inbound to mySQL port 3306&#10;ET POLICY Suspicious inbound to mSQL port 4333">
<ellipse fill="none" stroke="black" stroke-width="3" cx="879.5" cy="-1598.36" rx="241.25" ry="42.35"/>
<text text-anchor="middle" x="879.5" y="-1605.16" font-family="Arial" font-size="24.00">VULNERABILTY DISCOVERY</text>
<text text-anchor="middle" x="879.5" y="-1579.16" font-family="Arial" font-size="24.00">ahsp</text>
</a>
</g>
</g>
<!-- SERVICE DISCOVERY
microsoft&#45;ds&#45;&gt;VULNERABILTY DISCOVERY
ahsp -->
<g id="edge5" class="edge">
<title>SERVICE DISCOVERY
microsoft&#45;ds&#45;&gt;VULNERABILTY DISCOVERY
ahsp</title>
<path fill="none" stroke="blue" stroke-width="5" d="M879.5,-1467.43C879.5,-1490.95 879.5,-1520.57 879.5,-1545.6"/>
<polygon fill="blue" stroke="blue" stroke-width="5" points="875.13,-1545.65 879.5,-1555.65 883.88,-1545.65 875.13,-1545.65"/>
<text text-anchor="middle" x="1011" y="-1531.93" font-family="Arial" font-size="20.00" fill="blue">start_next: 04/11/17, 14:03:02</text>
<text text-anchor="middle" x="1011" y="-1509.93" font-family="Arial" font-size="20.00" fill="blue">gap: &#45;181sec</text>
<text text-anchor="middle" x="1011" y="-1487.93" font-family="Arial" font-size="20.00" fill="blue">end_prev: 04/11/17, 14:06:04</text>
</g>
<!-- NETWORK DoS
ssdp | ID: 55 -->
<g id="node8" class="node">
<title>NETWORK DoS
ssdp | ID: 55</title>
<g id="a_node8"><a xlink:title="ET DOS Possible SSDP Amplification Scan in Progress&#10;ET DOS Microsoft Remote Desktop (RDP) Syn then Reset 30 Second DoS Attempt">
<polygon fill="none" stroke="black" stroke-width="3" points="1026.04,-1771.77 947.77,-1820.75 791.23,-1820.75 712.96,-1771.77 791.23,-1722.79 947.77,-1722.79 1026.04,-1771.77"/>
<text text-anchor="middle" x="869.5" y="-1778.57" font-family="Arial" font-size="24.00">NETWORK DoS</text>
<text text-anchor="middle" x="869.5" y="-1752.57" font-family="Arial" font-size="24.00">ssdp | ID: 55</text>
</a>
</g>
</g>
<!-- VULNERABILTY DISCOVERY
ahsp&#45;&gt;NETWORK DoS
ssdp | ID: 55 -->
<g id="edge6" class="edge">
<title>VULNERABILTY DISCOVERY
ahsp&#45;&gt;NETWORK DoS
ssdp | ID: 55</title>
<path fill="none" stroke="blue" stroke-width="5" d="M877.08,-1640.85C875.83,-1662.34 874.27,-1688.94 872.9,-1712.46"/>
<polygon fill="blue" stroke="blue" stroke-width="5" points="868.52,-1712.44 872.31,-1722.68 877.26,-1712.95 868.52,-1712.44"/>
<text text-anchor="middle" x="1009" y="-1698.78" font-family="Arial" font-size="20.00" fill="blue">start_next: 04/11/17, 14:04:52</text>
<text text-anchor="middle" x="1009" y="-1676.78" font-family="Arial" font-size="20.00" fill="blue">gap: 32sec</text>
<text text-anchor="middle" x="1009" y="-1654.78" font-family="Arial" font-size="20.00" fill="blue">end_prev: 04/11/17, 14:04:19</text>
</g>
<!-- INFO DISCOVERY
xdmcp -->
<g id="node9" class="node">
<title>INFO DISCOVERY
xdmcp</title>
<g id="a_node9"><a xlink:title="GPL WEB_SERVER mod_gzip_status access&#10;GPL RPC xdmcp info query">
<ellipse fill="none" stroke="black" stroke-width="3" cx="595.5" cy="-1945.19" rx="156.04" ry="42.35"/>
<text text-anchor="middle" x="595.5" y="-1951.99" font-family="Arial" font-size="24.00">INFO DISCOVERY</text>
<text text-anchor="middle" x="595.5" y="-1925.99" font-family="Arial" font-size="24.00">xdmcp</text>
</a>
</g>
</g>
<!-- NETWORK DoS
ssdp | ID: 55&#45;&gt;INFO DISCOVERY
xdmcp -->
<g id="edge7" class="edge">
<title>NETWORK DoS
ssdp | ID: 55&#45;&gt;INFO DISCOVERY
xdmcp</title>
<path fill="none" stroke="blue" stroke-width="5" d="M859.73,-1820.86C852.12,-1846.39 838.93,-1876.23 816.5,-1894.76 803.47,-1905.53 774.24,-1914.64 741.18,-1921.99"/>
<polygon fill="blue" stroke="blue" stroke-width="5" points="740.15,-1917.74 731.29,-1924.12 741.99,-1926.3 740.15,-1917.74"/>
<text text-anchor="middle" x="989" y="-1878.76" font-family="Arial" font-size="20.00" fill="blue">start_next: 04/11/17, 14:05:16</text>
<text text-anchor="middle" x="989" y="-1856.76" font-family="Arial" font-size="20.00" fill="blue">gap: &#45;7sec</text>
<text text-anchor="middle" x="989" y="-1834.76" font-family="Arial" font-size="20.00" fill="blue">end_prev: 04/11/17, 14:05:23</text>
</g>
<!-- REMOTE SERVICE EXPLOIT
snmp | ID: 1368 -->
<g id="node10" class="node">
<title>REMOTE SERVICE EXPLOIT
snmp | ID: 1368</title>
<g id="a_node10"><a xlink:title="ET SNMP Samsung Printer SNMP Hardcode RW Community String">
<polygon fill="none" stroke="black" stroke-width="3" stroke-dasharray="1,5" points="893.5,-2129.61 555.5,-2129.61 555.5,-2069.61 893.5,-2069.61 893.5,-2129.61"/>
<text text-anchor="middle" x="724.5" y="-2106.41" font-family="Arial" font-size="24.00">REMOTE SERVICE EXPLOIT</text>
<text text-anchor="middle" x="724.5" y="-2080.41" font-family="Arial" font-size="24.00">snmp | ID: 1368</text>
</a>
</g>
</g>
<!-- INFO DISCOVERY
xdmcp&#45;&gt;REMOTE SERVICE EXPLOIT
snmp | ID: 1368 -->
<g id="edge8" class="edge">
<title>INFO DISCOVERY
xdmcp&#45;&gt;REMOTE SERVICE EXPLOIT
snmp | ID: 1368</title>
<path fill="none" stroke="blue" stroke-width="5" d="M650.05,-1985.19C653.73,-1988.56 657.26,-1992.05 660.5,-1995.61 678.27,-2015.15 694,-2040.27 705.41,-2060.81"/>
<polygon fill="blue" stroke="blue" stroke-width="5" points="701.57,-2062.9 710.19,-2069.6 709.25,-2058.72 701.57,-2062.9"/>
<text text-anchor="middle" x="837" y="-2045.61" font-family="Arial" font-size="20.00" fill="blue">start_next: 04/11/17, 14:05:16</text>
<text text-anchor="middle" x="837" y="-2023.61" font-family="Arial" font-size="20.00" fill="blue">gap: &#45;77sec</text>
<text text-anchor="middle" x="837" y="-2001.61" font-family="Arial" font-size="20.00" fill="blue">end_prev: 04/11/17, 14:06:33</text>
</g>
<!-- REMOTE SERVICE EXPLOIT
snmp | ID: 299 -->
<g id="node25" class="node">
<title>REMOTE SERVICE EXPLOIT
snmp | ID: 299</title>
<g id="a_node25"><a xlink:title="ET SNMP Samsung Printer SNMP Hardcode RW Community String">
<polygon fill="none" stroke="black" stroke-width="3" points="548.5,-2129.61 210.5,-2129.61 210.5,-2069.61 548.5,-2069.61 548.5,-2129.61"/>
<text text-anchor="middle" x="379.5" y="-2106.41" font-family="Arial" font-size="24.00">REMOTE SERVICE EXPLOIT</text>
<text text-anchor="middle" x="379.5" y="-2080.41" font-family="Arial" font-size="24.00">snmp | ID: 299</text>
</a>
</g>
</g>
<!-- INFO DISCOVERY
xdmcp&#45;&gt;REMOTE SERVICE EXPLOIT
snmp | ID: 299 -->
<g id="edge25" class="edge">
<title>INFO DISCOVERY
xdmcp&#45;&gt;REMOTE SERVICE EXPLOIT
snmp | ID: 299</title>
<path fill="none" stroke="blue" stroke-width="5" d="M462.78,-1967.68C432.9,-1975.04 406.91,-1984.33 396.5,-1995.61 380.86,-2012.55 376.57,-2038.08 376.2,-2059.49"/>
<polygon fill="blue" stroke="blue" stroke-width="5" points="371.83,-2059.66 376.31,-2069.61 380.58,-2059.56 371.83,-2059.66"/>
<text text-anchor="middle" x="528" y="-2045.61" font-family="Arial" font-size="20.00" fill="blue">start_next: 04/11/17, 18:04:54</text>
<text text-anchor="middle" x="528" y="-2023.61" font-family="Arial" font-size="20.00" fill="blue">gap: &#45;49sec</text>
<text text-anchor="middle" x="528" y="-2001.61" font-family="Arial" font-size="20.00" fill="blue">end_prev: 04/11/17, 18:05:43</text>
</g>
<!-- COMMAND AND CONTROL
unknown | ID: 956 -->
<g id="node11" class="node">
<title>COMMAND AND CONTROL
unknown | ID: 956</title>
<g id="a_node11"><a xlink:title="ET POLICY RDP connection confirm">
<polygon fill="none" stroke="black" stroke-width="3" points="886,-2380.59 563,-2380.59 563,-2320.59 886,-2320.59 886,-2380.59"/>
<text text-anchor="middle" x="724.5" y="-2357.39" font-family="Arial" font-size="24.00">COMMAND AND CONTROL</text>
<text text-anchor="middle" x="724.5" y="-2331.39" font-family="Arial" font-size="24.00">unknown | ID: 956</text>
</a>
</g>
</g>
<!-- REMOTE SERVICE EXPLOIT
snmp | ID: 1368&#45;&gt;COMMAND AND CONTROL
unknown | ID: 956 -->
<g id="edge9" class="edge">
<title>REMOTE SERVICE EXPLOIT
snmp | ID: 1368&#45;&gt;COMMAND AND CONTROL
unknown | ID: 956</title>
<path fill="none" stroke="blue" stroke-width="5" d="M724.5,-2129.66C724.5,-2174.33 724.5,-2259.98 724.5,-2310.19"/>
<polygon fill="blue" stroke="blue" stroke-width="5" points="720.13,-2310.35 724.5,-2320.35 728.88,-2310.35 720.13,-2310.35"/>
<text text-anchor="middle" x="856" y="-2187.61" font-family="Arial" font-size="20.00" fill="blue">start_next: 04/11/17, 14:05:42</text>
<text text-anchor="middle" x="856" y="-2165.61" font-family="Arial" font-size="20.00" fill="blue">gap: 26sec</text>
<text text-anchor="middle" x="856" y="-2143.61" font-family="Arial" font-size="20.00" fill="blue">end_prev: 04/11/17, 14:05:16</text>
</g>
<!-- COMMAND AND CONTROL
unknown | ID: 956&#45;&gt;DATA DELIVERY
wsman | ID: 399 -->
<g id="edge10" class="edge">
<title>COMMAND AND CONTROL
unknown | ID: 956&#45;&gt;DATA DELIVERY
wsman | ID: 399</title>
<path fill="none" stroke="blue" stroke-width="5" d="M732.99,-2380.7C742.48,-2419.87 752.2,-2489.48 716.5,-2531.59 700.35,-2550.65 651.85,-2563.54 600.76,-2572.1"/>
<polygon fill="blue" stroke="blue" stroke-width="5" points="600.03,-2567.79 590.85,-2573.71 601.42,-2576.43 600.03,-2567.79"/>
<text text-anchor="middle" x="874" y="-2441.59" font-family="Arial" font-size="20.00" fill="blue">start_next: 04/11/17, 14:06:35</text>
<text text-anchor="middle" x="874" y="-2419.59" font-family="Arial" font-size="20.00" fill="blue">gap: &#45;62sec</text>
<text text-anchor="middle" x="874" y="-2397.59" font-family="Arial" font-size="20.00" fill="blue">end_prev: 04/11/17, 14:07:37</text>
</g>
<!-- DATA EXFILTRATION
wsman | ID: 63 -->
<g id="node12" class="node">
<title>DATA EXFILTRATION
wsman | ID: 63</title>
<g id="a_node12"><a xlink:title="ET WEB_SPECIFIC_APPS PHP&#45;CGI query string parameter vulnerability">
<polygon fill="yellow" stroke="black" stroke-width="3" points="506.38,-48.99 403.94,-97.97 199.06,-97.97 96.62,-48.99 199.06,-0.01 403.94,-0.01 506.38,-48.99"/>
<text text-anchor="middle" x="301.5" y="-55.79" font-family="Arial" font-size="24.00">DATA EXFILTRATION</text>
<text text-anchor="middle" x="301.5" y="-29.79" font-family="Arial" font-size="24.00">wsman | ID: 63</text>
</a>
</g>
</g>
<!-- COMMAND AND CONTROL
unknown | ID: 308 -->
<g id="node13" class="node">
<title>COMMAND AND CONTROL
unknown | ID: 308</title>
<g id="a_node13"><a xlink:title="ET POLICY RDP connection confirm">
<polygon fill="none" stroke="black" stroke-width="3" points="323,-349.83 0,-349.83 0,-289.83 323,-289.83 323,-349.83"/>
<text text-anchor="middle" x="161.5" y="-326.63" font-family="Arial" font-size="24.00">COMMAND AND CONTROL</text>
<text text-anchor="middle" x="161.5" y="-300.63" font-family="Arial" font-size="24.00">unknown | ID: 308</text>
</a>
</g>
</g>
<!-- DATA EXFILTRATION
wsman | ID: 63&#45;&gt;COMMAND AND CONTROL
unknown | ID: 308 -->
<g id="edge11" class="edge">
<title>DATA EXFILTRATION
wsman | ID: 63&#45;&gt;COMMAND AND CONTROL
unknown | ID: 308</title>
<path fill="none" stroke="blue" stroke-width="5" d="M177.71,-88.14C171.55,-93.35 166.05,-99.26 161.5,-105.98 126.44,-157.75 137.73,-234.07 149.41,-279.87"/>
<polygon fill="blue" stroke="blue" stroke-width="5" points="145.23,-281.19 152.05,-289.72 153.69,-278.93 145.23,-281.19"/>
<text text-anchor="start" x="161.5" y="-170.98" font-family="Arial" font-size="20.00" fill="blue"> start_next: 04/11/17, 16:34:25</text>
<text text-anchor="start" x="235" y="-150.98" font-family="Arial" font-size="20.00" fill="blue">gap: 8866sec</text>
<text text-anchor="start" x="165.5" y="-130.98" font-family="Arial" font-size="20.00" fill="blue">end_prev: 04/11/17, 14:06:38</text>
<text text-anchor="start" x="196" y="-110.98" font-family="Arial" font-weight="bold" font-size="20.00" fill="blue">Attacker: 10.0.254.31</text>
</g>
<!-- HOST DISCOVERY
wsman -->
<g id="node15" class="node">
<title>HOST DISCOVERY
wsman</title>
<g id="a_node15"><a xlink:title="ET SCAN Possible Nmap User&#45;Agent Observed&#10;ET SCAN Nmap Scripting Engine User&#45;Agent Detected (Nmap Scripting Engine)">
<ellipse fill="none" stroke="black" stroke-width="3" cx="441.5" cy="-236.41" rx="162.77" ry="42.35"/>
<text text-anchor="middle" x="441.5" y="-243.21" font-family="Arial" font-size="24.00">HOST DISCOVERY</text>
<text text-anchor="middle" x="441.5" y="-217.21" font-family="Arial" font-size="24.00">wsman</text>
</a>
</g>
</g>
<!-- DATA EXFILTRATION
wsman | ID: 63&#45;&gt;HOST DISCOVERY
wsman -->
<g id="edge14" class="edge">
<title>DATA EXFILTRATION
wsman | ID: 63&#45;&gt;HOST DISCOVERY
wsman</title>
<path fill="none" stroke="blue" stroke-width="5" d="M417.54,-91.64C422.35,-95.96 426.72,-100.73 430.5,-105.98 446.34,-128.03 449.72,-157.97 448.85,-183.5"/>
<polygon fill="blue" stroke="blue" stroke-width="5" points="444.46,-183.54 448.27,-193.77 453.2,-184.03 444.46,-183.54"/>
<text text-anchor="start" x="449.5" y="-170.98" font-family="Arial" font-size="20.00" fill="blue"> start_next: 04/11/17, 16:36:30</text>
<text text-anchor="start" x="531" y="-150.98" font-family="Arial" font-size="20.00" fill="blue">gap: &#45;10sec</text>
<text text-anchor="start" x="453.5" y="-130.98" font-family="Arial" font-size="20.00" fill="blue">end_prev: 04/11/17, 16:36:40</text>
<text text-anchor="start" x="484" y="-110.98" font-family="Arial" font-weight="bold" font-size="20.00" fill="blue">Attacker: 10.0.254.31</text>
</g>
<!-- ACCOUNT MANIPULATION
snmp | ID: 53 -->
<g id="node14" class="node">
<title>ACCOUNT MANIPULATION
snmp | ID: 53</title>
<g id="a_node14"><a xlink:title="GPL SNMP private access udp&#10;GPL SNMP public access udp">
<polygon fill="none" stroke="black" stroke-width="3" points="366.5,-2454.59 46.5,-2454.59 46.5,-2394.59 366.5,-2394.59 366.5,-2454.59"/>
<text text-anchor="middle" x="206.5" y="-2431.39" font-family="Arial" font-size="24.00">ACCOUNT MANIPULATION</text>
<text text-anchor="middle" x="206.5" y="-2405.39" font-family="Arial" font-size="24.00">snmp | ID: 53</text>
</a>
</g>
</g>
<!-- COMMAND AND CONTROL
unknown | ID: 308&#45;&gt;ACCOUNT MANIPULATION
snmp | ID: 53 -->
<g id="edge12" class="edge">
<title>COMMAND AND CONTROL
unknown | ID: 308&#45;&gt;ACCOUNT MANIPULATION
snmp | ID: 53</title>
<path fill="none" stroke="blue" stroke-width="5" d="M161.5,-350.02C161.5,-382.96 161.5,-438.18 161.5,-485.69 161.5,-485.69 161.5,-485.69 161.5,-2261.6 161.5,-2304.98 176.67,-2352.59 189.39,-2384.9"/>
<polygon fill="blue" stroke="blue" stroke-width="5" points="185.43,-2386.79 193.24,-2394.41 193.55,-2383.5 185.43,-2386.79"/>
<text text-anchor="middle" x="293" y="-1351.95" font-family="Arial" font-size="20.00" fill="blue">start_next: 04/11/17, 16:34:29</text>
<text text-anchor="middle" x="293" y="-1329.95" font-family="Arial" font-size="20.00" fill="blue">gap: &#45;111sec</text>
<text text-anchor="middle" x="293" y="-1307.95" font-family="Arial" font-size="20.00" fill="blue">end_prev: 04/11/17, 16:36:20</text>
</g>
<!-- ACCOUNT MANIPULATION
snmp | ID: 53&#45;&gt;DATA DELIVERY
wsman | ID: 399 -->
<g id="edge13" class="edge">
<title>ACCOUNT MANIPULATION
snmp | ID: 53&#45;&gt;DATA DELIVERY
wsman | ID: 399</title>
<path fill="none" stroke="blue" stroke-width="5" d="M366.53,-2438.27C400.52,-2444.19 429.74,-2452.87 441.5,-2465.59 450.2,-2475.01 453.15,-2502.62 453.83,-2529.2"/>
<polygon fill="blue" stroke="blue" stroke-width="5" points="449.45,-2529.37 453.98,-2539.3 458.2,-2529.23 449.45,-2529.37"/>
<text text-anchor="middle" x="586" y="-2515.59" font-family="Arial" font-size="20.00" fill="blue">start_next: 04/11/17, 16:35:17</text>
<text text-anchor="middle" x="586" y="-2493.59" font-family="Arial" font-size="20.00" fill="blue">gap: 45sec</text>
<text text-anchor="middle" x="586" y="-2471.59" font-family="Arial" font-size="20.00" fill="blue">end_prev: 04/11/17, 16:34:33</text>
</g>
<!-- ACCOUNT MANIPULATION
snmp | ID: 53&#45;&gt;DATA DELIVERY
wsman | ID: 399 -->
<g id="edge28" class="edge">
<title>ACCOUNT MANIPULATION
snmp | ID: 53&#45;&gt;DATA DELIVERY
wsman | ID: 399</title>
<path fill="none" stroke="blue" stroke-width="5" d="M182.43,-2454.61C180.43,-2458.14 178.72,-2461.84 177.5,-2465.59 168.45,-2493.5 158.94,-2508.88 177.5,-2531.59 194.29,-2552.15 246.62,-2565.35 301.18,-2573.74"/>
<polygon fill="blue" stroke="blue" stroke-width="5" points="300.85,-2578.11 311.38,-2575.25 302.13,-2569.45 300.85,-2578.11"/>
<text text-anchor="middle" x="309" y="-2515.59" font-family="Arial" font-size="20.00" fill="blue">start_next: 04/11/17, 18:05:45</text>
<text text-anchor="middle" x="309" y="-2493.59" font-family="Arial" font-size="20.00" fill="blue">gap: 19sec</text>
<text text-anchor="middle" x="309" y="-2471.59" font-family="Arial" font-size="20.00" fill="blue">end_prev: 04/11/17, 18:05:26</text>
</g>
<!-- SURFING
wsman -->
<g id="node16" class="node">
<title>SURFING
wsman</title>
<g id="a_node16"><a xlink:title="ET WEB_SERVER WEB&#45;PHP phpinfo access">
<ellipse fill="none" stroke="black" stroke-width="3" cx="441.5" cy="-403.26" rx="88.28" ry="42.35"/>
<text text-anchor="middle" x="441.5" y="-410.06" font-family="Arial" font-size="24.00">SURFING</text>
<text text-anchor="middle" x="441.5" y="-384.06" font-family="Arial" font-size="24.00">wsman</text>
</a>
</g>
</g>
<!-- HOST DISCOVERY
wsman&#45;&gt;SURFING
wsman -->
<g id="edge15" class="edge">
<title>HOST DISCOVERY
wsman&#45;&gt;SURFING
wsman</title>
<path fill="none" stroke="blue" stroke-width="5" d="M441.5,-279.01C441.5,-300.68 441.5,-327.39 441.5,-350.39"/>
<polygon fill="blue" stroke="blue" stroke-width="5" points="437.13,-350.67 441.5,-360.67 445.88,-350.67 437.13,-350.67"/>
<text text-anchor="middle" x="573" y="-336.83" font-family="Arial" font-size="20.00" fill="blue">start_next: 04/11/17, 16:36:32</text>
<text text-anchor="middle" x="573" y="-314.83" font-family="Arial" font-size="20.00" fill="blue">gap: 2sec</text>
<text text-anchor="middle" x="573" y="-292.83" font-family="Arial" font-size="20.00" fill="blue">end_prev: 04/11/17, 16:36:30</text>
</g>
<!-- HOST DISCOVERY
unknown -->
<g id="node17" class="node">
<title>HOST DISCOVERY
unknown</title>
<g id="a_node17"><a xlink:title="ET SCAN Possible Nmap User&#45;Agent Observed&#10;ET SCAN Nmap Scripting Engine User&#45;Agent Detected (Nmap Scripting Engine)">
<ellipse fill="none" stroke="black" stroke-width="3" cx="441.5" cy="-570.11" rx="162.77" ry="42.35"/>
<text text-anchor="middle" x="441.5" y="-576.91" font-family="Arial" font-size="24.00">HOST DISCOVERY</text>
<text text-anchor="middle" x="441.5" y="-550.91" font-family="Arial" font-size="24.00">unknown</text>
</a>
</g>
</g>
<!-- SURFING
wsman&#45;&gt;HOST DISCOVERY
unknown -->
<g id="edge16" class="edge">
<title>SURFING
wsman&#45;&gt;HOST DISCOVERY
unknown</title>
<path fill="none" stroke="blue" stroke-width="5" d="M441.5,-445.86C441.5,-467.53 441.5,-494.24 441.5,-517.25"/>
<polygon fill="blue" stroke="blue" stroke-width="5" points="437.13,-517.53 441.5,-527.53 445.88,-517.53 437.13,-517.53"/>
<text text-anchor="middle" x="573" y="-503.69" font-family="Arial" font-size="20.00" fill="blue">start_next: 04/11/17, 16:51:27</text>
<text text-anchor="middle" x="573" y="-481.69" font-family="Arial" font-size="20.00" fill="blue">gap: 887sec</text>
<text text-anchor="middle" x="573" y="-459.69" font-family="Arial" font-size="20.00" fill="blue">end_prev: 04/11/17, 16:36:40</text>
</g>
<!-- VULNERABILTY DISCOVERY
unknown -->
<g id="node18" class="node">
<title>VULNERABILTY DISCOVERY
unknown</title>
<g id="a_node18"><a xlink:title="ET SCAN Nikto Web App Scan in Progress">
<ellipse fill="none" stroke="black" stroke-width="3" cx="441.5" cy="-736.96" rx="241.25" ry="42.35"/>
<text text-anchor="middle" x="441.5" y="-743.76" font-family="Arial" font-size="24.00">VULNERABILTY DISCOVERY</text>
<text text-anchor="middle" x="441.5" y="-717.76" font-family="Arial" font-size="24.00">unknown</text>
</a>
</g>
</g>
<!-- HOST DISCOVERY
unknown&#45;&gt;VULNERABILTY DISCOVERY
unknown -->
<g id="edge17" class="edge">
<title>HOST DISCOVERY
unknown&#45;&gt;VULNERABILTY DISCOVERY
unknown</title>
<path fill="none" stroke="blue" stroke-width="5" d="M441.5,-612.71C441.5,-634.38 441.5,-661.09 441.5,-684.1"/>
<polygon fill="blue" stroke="blue" stroke-width="5" points="437.13,-684.38 441.5,-694.38 445.88,-684.38 437.13,-684.38"/>
<text text-anchor="middle" x="573" y="-670.54" font-family="Arial" font-size="20.00" fill="blue">start_next: 04/11/17, 16:51:28</text>
<text text-anchor="middle" x="573" y="-648.54" font-family="Arial" font-size="20.00" fill="blue">gap: 0sec</text>
<text text-anchor="middle" x="573" y="-626.54" font-family="Arial" font-size="20.00" fill="blue">end_prev: 04/11/17, 16:51:27</text>
</g>
<!-- ARBITRARY CODE EXECUTION
unknown | ID: 47 -->
<g id="node19" class="node">
<title>ARBITRARY CODE EXECUTION
unknown | ID: 47</title>
<g id="a_node19"><a xlink:title="ET CURRENT_EVENTS QNAP Shellshock CVE&#45;2014&#45;6271">
<polygon fill="none" stroke="black" stroke-width="3" points="629,-933.82 254,-933.82 254,-873.82 629,-873.82 629,-933.82"/>
<text text-anchor="middle" x="441.5" y="-910.62" font-family="Arial" font-size="24.00">ARBITRARY CODE EXECUTION</text>
<text text-anchor="middle" x="441.5" y="-884.62" font-family="Arial" font-size="24.00">unknown | ID: 47</text>
</a>
</g>
</g>
<!-- VULNERABILTY DISCOVERY
unknown&#45;&gt;ARBITRARY CODE EXECUTION
unknown | ID: 47 -->
<g id="edge18" class="edge">
<title>VULNERABILTY DISCOVERY
unknown&#45;&gt;ARBITRARY CODE EXECUTION
unknown | ID: 47</title>
<path fill="none" stroke="blue" stroke-width="5" d="M441.5,-779.56C441.5,-805.38 441.5,-838.36 441.5,-863.7"/>
<polygon fill="blue" stroke="blue" stroke-width="5" points="437.13,-863.7 441.5,-873.7 445.88,-863.7 437.13,-863.7"/>
<text text-anchor="middle" x="573" y="-837.39" font-family="Arial" font-size="20.00" fill="blue">start_next: 04/11/17, 16:51:29</text>
<text text-anchor="middle" x="573" y="-815.39" font-family="Arial" font-size="20.00" fill="blue">gap: 1sec</text>
<text text-anchor="middle" x="573" y="-793.39" font-family="Arial" font-size="20.00" fill="blue">end_prev: 04/11/17, 16:51:28</text>
</g>
<!-- SURFING
unknown -->
<g id="node20" class="node">
<title>SURFING
unknown</title>
<g id="a_node20"><a xlink:title="ET WEB_SERVER WEB&#45;PHP phpinfo access">
<ellipse fill="none" stroke="black" stroke-width="3" cx="441.5" cy="-1084.67" rx="88.28" ry="42.35"/>
<text text-anchor="middle" x="441.5" y="-1091.47" font-family="Arial" font-size="24.00">SURFING</text>
<text text-anchor="middle" x="441.5" y="-1065.47" font-family="Arial" font-size="24.00">unknown</text>
</a>
</g>
</g>
<!-- ARBITRARY CODE EXECUTION
unknown | ID: 47&#45;&gt;SURFING
unknown -->
<g id="edge19" class="edge">
<title>ARBITRARY CODE EXECUTION
unknown | ID: 47&#45;&gt;SURFING
unknown</title>
<path fill="none" stroke="blue" stroke-width="5" d="M441.5,-933.95C441.5,-960.48 441.5,-1000.26 441.5,-1032.14"/>
<polygon fill="blue" stroke="blue" stroke-width="5" points="437.13,-1032.19 441.5,-1042.19 445.88,-1032.19 437.13,-1032.19"/>
<text text-anchor="middle" x="573" y="-1011.24" font-family="Arial" font-size="20.00" fill="blue">start_next: 04/11/17, 16:51:29</text>
<text text-anchor="middle" x="573" y="-989.24" font-family="Arial" font-size="20.00" fill="blue">gap: 1sec</text>
<text text-anchor="middle" x="573" y="-967.24" font-family="Arial" font-size="20.00" fill="blue">end_prev: 04/11/17, 16:51:29</text>
</g>
<!-- INFO DISCOVERY
unknown -->
<g id="node21" class="node">
<title>INFO DISCOVERY
unknown</title>
<g id="a_node21"><a xlink:title="GPL WEB_SERVER globals.pl access">
<ellipse fill="none" stroke="black" stroke-width="3" cx="441.5" cy="-1251.52" rx="156.04" ry="42.35"/>
<text text-anchor="middle" x="441.5" y="-1258.32" font-family="Arial" font-size="24.00">INFO DISCOVERY</text>
<text text-anchor="middle" x="441.5" y="-1232.32" font-family="Arial" font-size="24.00">unknown</text>
</a>
</g>
</g>
<!-- SURFING
unknown&#45;&gt;INFO DISCOVERY
unknown -->
<g id="edge20" class="edge">
<title>SURFING
unknown&#45;&gt;INFO DISCOVERY
unknown</title>
<path fill="none" stroke="blue" stroke-width="5" d="M441.5,-1127.27C441.5,-1148.94 441.5,-1175.65 441.5,-1198.66"/>
<polygon fill="blue" stroke="blue" stroke-width="5" points="437.13,-1198.94 441.5,-1208.94 445.88,-1198.94 437.13,-1198.94"/>
<text text-anchor="middle" x="573" y="-1185.1" font-family="Arial" font-size="20.00" fill="blue">start_next: 04/11/17, 16:51:31</text>
<text text-anchor="middle" x="573" y="-1163.1" font-family="Arial" font-size="20.00" fill="blue">gap: &#45;7sec</text>
<text text-anchor="middle" x="573" y="-1141.1" font-family="Arial" font-size="20.00" fill="blue">end_prev: 04/11/17, 16:51:38</text>
</g>
<!-- DATA EXFILTRATION
unknown | ID: 57 -->
<g id="node22" class="node">
<title>DATA EXFILTRATION
unknown | ID: 57</title>
<g id="a_node22"><a xlink:title="ET WEB_SPECIFIC_APPS PHP&#45;CGI query string parameter vulnerability">
<polygon fill="none" stroke="black" stroke-width="3" points="646.38,-1424.94 543.94,-1473.92 339.06,-1473.92 236.62,-1424.94 339.06,-1375.96 543.94,-1375.96 646.38,-1424.94"/>
<text text-anchor="middle" x="441.5" y="-1431.74" font-family="Arial" font-size="24.00">DATA EXFILTRATION</text>
<text text-anchor="middle" x="441.5" y="-1405.74" font-family="Arial" font-size="24.00">unknown | ID: 57</text>
</a>
</g>
</g>
<!-- INFO DISCOVERY
unknown&#45;&gt;DATA EXFILTRATION
unknown | ID: 57 -->
<g id="edge21" class="edge">
<title>INFO DISCOVERY
unknown&#45;&gt;DATA EXFILTRATION
unknown | ID: 57</title>
<path fill="none" stroke="blue" stroke-width="5" d="M441.5,-1294.02C441.5,-1315.51 441.5,-1342.11 441.5,-1365.63"/>
<polygon fill="blue" stroke="blue" stroke-width="5" points="437.13,-1365.84 441.5,-1375.84 445.88,-1365.84 437.13,-1365.84"/>
<text text-anchor="middle" x="573" y="-1351.95" font-family="Arial" font-size="20.00" fill="blue">start_next: 04/11/17, 16:51:32</text>
<text text-anchor="middle" x="573" y="-1329.95" font-family="Arial" font-size="20.00" fill="blue">gap: 1sec</text>
<text text-anchor="middle" x="573" y="-1307.95" font-family="Arial" font-size="20.00" fill="blue">end_prev: 04/11/17, 16:51:31</text>
</g>
<!-- SERVICE DISCOVERY
unknown -->
<g id="node23" class="node">
<title>SERVICE DISCOVERY
unknown</title>
<g id="a_node23"><a xlink:title="ET SCAN Potential VNC Scan 5800&#45;5820">
<ellipse fill="none" stroke="black" stroke-width="3" cx="441.5" cy="-1598.36" rx="189.51" ry="42.35"/>
<text text-anchor="middle" x="441.5" y="-1605.16" font-family="Arial" font-size="24.00">SERVICE DISCOVERY</text>
<text text-anchor="middle" x="441.5" y="-1579.16" font-family="Arial" font-size="24.00">unknown</text>
</a>
</g>
</g>
<!-- DATA EXFILTRATION
unknown | ID: 57&#45;&gt;SERVICE DISCOVERY
unknown -->
<g id="edge22" class="edge">
<title>DATA EXFILTRATION
unknown | ID: 57&#45;&gt;SERVICE DISCOVERY
unknown</title>
<path fill="none" stroke="blue" stroke-width="5" d="M441.5,-1474.14C441.5,-1496.47 441.5,-1523.03 441.5,-1545.76"/>
<polygon fill="blue" stroke="blue" stroke-width="5" points="437.13,-1545.9 441.5,-1555.9 445.88,-1545.9 437.13,-1545.9"/>
<text text-anchor="middle" x="573" y="-1531.93" font-family="Arial" font-size="20.00" fill="blue">start_next: 04/11/17, 18:01:40</text>
<text text-anchor="middle" x="573" y="-1509.93" font-family="Arial" font-size="20.00" fill="blue">gap: 4202sec</text>
<text text-anchor="middle" x="573" y="-1487.93" font-family="Arial" font-size="20.00" fill="blue">end_prev: 04/11/17, 16:51:38</text>
</g>
<!-- VULNERABILTY DISCOVERY
postgresql -->
<g id="node24" class="node">
<title>VULNERABILTY DISCOVERY
postgresql</title>
<g id="a_node24"><a xlink:title="ET POLICY Suspicious inbound to PostgreSQL port 5432">
<ellipse fill="none" stroke="black" stroke-width="3" cx="448.5" cy="-1771.77" rx="241.25" ry="42.35"/>
<text text-anchor="middle" x="448.5" y="-1778.57" font-family="Arial" font-size="24.00">VULNERABILTY DISCOVERY</text>
<text text-anchor="middle" x="448.5" y="-1752.57" font-family="Arial" font-size="24.00">postgresql</text>
</a>
</g>
</g>
<!-- SERVICE DISCOVERY
unknown&#45;&gt;VULNERABILTY DISCOVERY
postgresql -->
<g id="edge23" class="edge">
<title>SERVICE DISCOVERY
unknown&#45;&gt;VULNERABILTY DISCOVERY
postgresql</title>
<path fill="none" stroke="blue" stroke-width="5" d="M443.19,-1640.85C444.15,-1664.36 445.36,-1693.99 446.39,-1719.01"/>
<polygon fill="blue" stroke="blue" stroke-width="5" points="442.02,-1719.25 446.8,-1729.06 450.76,-1718.89 442.02,-1719.25"/>
<text text-anchor="middle" x="578" y="-1698.78" font-family="Arial" font-size="20.00" fill="blue">start_next: 04/11/17, 18:03:04</text>
<text text-anchor="middle" x="578" y="-1676.78" font-family="Arial" font-size="20.00" fill="blue">gap: 85sec</text>
<text text-anchor="middle" x="578" y="-1654.78" font-family="Arial" font-size="20.00" fill="blue">end_prev: 04/11/17, 18:01:40</text>
</g>
<!-- VULNERABILTY DISCOVERY
postgresql&#45;&gt;INFO DISCOVERY
xdmcp -->
<g id="edge24" class="edge">
<title>VULNERABILTY DISCOVERY
postgresql&#45;&gt;INFO DISCOVERY
xdmcp</title>
<path fill="none" stroke="blue" stroke-width="5" d="M483.71,-1813.83C504.88,-1838.51 531.93,-1870.05 554.11,-1895.93"/>
<polygon fill="blue" stroke="blue" stroke-width="5" points="551,-1899.02 560.83,-1903.76 557.64,-1893.32 551,-1899.02"/>
<text text-anchor="middle" x="684" y="-1878.76" font-family="Arial" font-size="20.00" fill="blue">start_next: 04/11/17, 18:04:53</text>
<text text-anchor="middle" x="684" y="-1856.76" font-family="Arial" font-size="20.00" fill="blue">gap: 108sec</text>
<text text-anchor="middle" x="684" y="-1834.76" font-family="Arial" font-size="20.00" fill="blue">end_prev: 04/11/17, 18:03:04</text>
</g>
<!-- NETWORK DoS
ms&#45;wbt&#45;server | ID: 36 -->
<g id="node26" class="node">
<title>NETWORK DoS
ms&#45;wbt&#45;server | ID: 36</title>
<g id="a_node26"><a xlink:title="ET DOS Microsoft Remote Desktop (RDP) Syn then Reset 30 Second DoS Attempt">
<polygon fill="none" stroke="black" stroke-width="3" points="586.78,-2260.6 483.14,-2309.58 275.86,-2309.58 172.22,-2260.6 275.86,-2211.62 483.14,-2211.62 586.78,-2260.6"/>
<text text-anchor="middle" x="379.5" y="-2267.4" font-family="Arial" font-size="24.00">NETWORK DoS</text>
<text text-anchor="middle" x="379.5" y="-2241.4" font-family="Arial" font-size="24.00">ms&#45;wbt&#45;server | ID: 36</text>
</a>
</g>
</g>
<!-- REMOTE SERVICE EXPLOIT
snmp | ID: 299&#45;&gt;NETWORK DoS
ms&#45;wbt&#45;server | ID: 36 -->
<g id="edge26" class="edge">
<title>REMOTE SERVICE EXPLOIT
snmp | ID: 299&#45;&gt;NETWORK DoS
ms&#45;wbt&#45;server | ID: 36</title>
<path fill="none" stroke="blue" stroke-width="5" d="M379.5,-2129.78C379.5,-2149.78 379.5,-2177 379.5,-2201.36"/>
<polygon fill="blue" stroke="blue" stroke-width="5" points="375.13,-2201.59 379.5,-2211.59 383.88,-2201.59 375.13,-2201.59"/>
<text text-anchor="middle" x="511" y="-2187.61" font-family="Arial" font-size="20.00" fill="blue">start_next: 04/11/17, 18:05:00</text>
<text text-anchor="middle" x="511" y="-2165.61" font-family="Arial" font-size="20.00" fill="blue">gap: 6sec</text>
<text text-anchor="middle" x="511" y="-2143.61" font-family="Arial" font-size="20.00" fill="blue">end_prev: 04/11/17, 18:04:54</text>
</g>
<!-- NETWORK DoS
ms&#45;wbt&#45;server | ID: 36&#45;&gt;ACCOUNT MANIPULATION
snmp | ID: 53 -->
<g id="edge27" class="edge">
<title>NETWORK DoS
ms&#45;wbt&#45;server | ID: 36&#45;&gt;ACCOUNT MANIPULATION
snmp | ID: 53</title>
<path fill="none" stroke="blue" stroke-width="5" d="M305.79,-2309.69C302.59,-2312.29 299.48,-2314.93 296.5,-2317.59 273.37,-2338.3 250.77,-2364.94 234.01,-2386.34"/>
<polygon fill="blue" stroke="blue" stroke-width="5" points="230.54,-2383.67 227.88,-2394.26 237.46,-2389.03 230.54,-2383.67"/>
<text text-anchor="middle" x="428" y="-2367.59" font-family="Arial" font-size="20.00" fill="blue">start_next: 04/11/17, 18:05:21</text>
<text text-anchor="middle" x="428" y="-2345.59" font-family="Arial" font-size="20.00" fill="blue">gap: 21sec</text>
<text text-anchor="middle" x="428" y="-2323.59" font-family="Arial" font-size="20.00" fill="blue">end_prev: 04/11/17, 18:05:00</text>
</g>
</g>
</svg>
