<?xml version="1.0" encoding="UTF-8" standalone="no"?>
<!DOCTYPE svg PUBLIC "-//W3C//DTD SVG 1.1//EN"
 "http://www.w3.org/Graphics/SVG/1.1/DTD/svg11.dtd">
<!-- Generated by graphviz version 2.50.0 (0)
 -->
<!-- Title: DATAEXFILTRATIONmicrosoftds Pages: 1 -->
<svg width="1075pt" height="818pt"
 viewBox="0.00 0.00 1075.00 818.31" xmlns="http://www.w3.org/2000/svg" xmlns:xlink="http://www.w3.org/1999/xlink">
<g id="graph0" class="graph" transform="scale(1 1) rotate(0) translate(4 814.31)">
<title>DATAEXFILTRATIONmicrosoftds</title>
<polygon fill="white" stroke="transparent" points="-4,4 -4,-814.31 1071,-814.31 1071,4 -4,4"/>
<!-- Victim: 10.0.0.221
DATA EXFILTRATION
microsoft&#45;ds -->
<g id="node1" class="node">
<title>Victim: 10.0.0.221
DATA EXFILTRATION
microsoft&#45;ds</title>
<polygon fill="salmon" stroke="black" stroke-width="3" points="707.21,-713.29 707.21,-767.68 594.62,-806.14 435.38,-806.14 322.79,-767.68 322.79,-713.29 435.38,-674.83 594.62,-674.83 707.21,-713.29"/>
<polygon fill="none" stroke="black" stroke-width="3" points="711.21,-710.44 711.21,-770.53 595.28,-810.13 434.72,-810.13 318.79,-770.53 318.79,-710.44 434.72,-670.84 595.28,-670.84 711.21,-710.44"/>
<text text-anchor="middle" x="515" y="-760.29" font-family="Arial" font-size="24.00">Victim: 10.0.0.221</text>
<text text-anchor="middle" x="515" y="-734.29" font-family="Arial" font-size="24.00">DATA EXFILTRATION</text>
<text text-anchor="middle" x="515" y="-708.29" font-family="Arial" font-size="24.00">microsoft&#45;ds</text>
</g>
<!-- DATA EXFILTRATION
microsoft&#45;ds | ID: 37 -->
<g id="node2" class="node">
<title>DATA EXFILTRATION
microsoft&#45;ds | ID: 37</title>
<g id="a_node2"><a xlink:title="GPL NETBIOS SMB&#45;DS IPC$ share access&#10;GPL NETBIOS SMB&#45;DS ADMIN$ share access">
<polygon fill="salmon" stroke="black" stroke-width="3" points="719.88,-604.68 617.44,-653.65 412.56,-653.65 310.12,-604.68 412.56,-555.7 617.44,-555.7 719.88,-604.68"/>
<text text-anchor="middle" x="515" y="-611.48" font-family="Arial" font-size="24.00">DATA EXFILTRATION</text>
<text text-anchor="middle" x="515" y="-585.48" font-family="Arial" font-size="24.00">microsoft&#45;ds | ID: 37</text>
</a>
</g>
</g>
<!-- DATA EXFILTRATION
microsoft&#45;ds | ID: 37&#45;&gt;Victim: 10.0.0.221
DATA EXFILTRATION
microsoft&#45;ds -->
<g id="edge1" class="edge">
<title>DATA EXFILTRATION
microsoft&#45;ds | ID: 37&#45;&gt;Victim: 10.0.0.221
DATA EXFILTRATION
microsoft&#45;ds</title>
<path fill="none" stroke="black" stroke-width="5" d="M515,-653.98C515,-656.09 515,-658.22 515,-660.37"/>
<polygon fill="black" stroke="black" stroke-width="5" points="510.63,-660.52 515,-670.52 519.38,-660.52 510.63,-660.52"/>
</g>
<!-- BRUTE FORCE CREDENTIALS
pop3s | ID: &#45;1 -->
<g id="node3" class="node">
<title>BRUTE FORCE CREDENTIALS
pop3s | ID: &#45;1</title>
<g id="a_node3"><a xlink:title="ET SCAN Rapid POP3S Connections &#45; Possible Brute Force Attack">
<polygon fill="yellow" stroke="black" stroke-width="3" points="362,-253.28 0,-253.28 0,-193.28 362,-193.28 362,-253.28"/>
<text text-anchor="middle" x="181" y="-230.08" font-family="Arial" font-size="24.00">BRUTE FORCE CREDENTIALS</text>
<text text-anchor="middle" x="181" y="-204.08" font-family="Arial" font-size="24.00">pop3s | ID: &#45;1</text>
</a>
</g>
</g>
<!-- COMMAND AND CONTROL
unknown | ID: 308 -->
<g id="node4" class="node">
<title>COMMAND AND CONTROL
unknown | ID: 308</title>
<g id="a_node4"><a xlink:title="ET POLICY RDP connection confirm">
<polygon fill="none" stroke="black" stroke-width="3" points="482.5,-440.7 159.5,-440.7 159.5,-380.7 482.5,-380.7 482.5,-440.7"/>
<text text-anchor="middle" x="321" y="-417.5" font-family="Arial" font-size="24.00">COMMAND AND CONTROL</text>
<text text-anchor="middle" x="321" y="-391.5" font-family="Arial" font-size="24.00">unknown | ID: 308</text>
</a>
</g>
</g>
<!-- BRUTE FORCE CREDENTIALS
pop3s | ID: &#45;1&#45;&gt;COMMAND AND CONTROL
unknown | ID: 308 -->
<g id="edge2" class="edge">
<title>BRUTE FORCE CREDENTIALS
pop3s | ID: &#45;1&#45;&gt;COMMAND AND CONTROL
unknown | ID: 308</title>
<path fill="none" stroke="darkgreen" stroke-width="5" d="M187.5,-253.42C194.94,-281.55 209.39,-324.12 234,-353.71 240.37,-361.37 248.07,-368.34 256.23,-374.56"/>
<polygon fill="darkgreen" stroke="darkgreen" stroke-width="5" points="253.82,-378.23 264.49,-380.53 258.95,-371.13 253.82,-378.23"/>
<text text-anchor="start" x="234" y="-338.71" font-family="Arial" font-size="20.00" fill="darkgreen"> start_next: 04/11/17, 13:54:51</text>
<text text-anchor="start" x="313.5" y="-318.71" font-family="Arial" font-size="20.00" fill="darkgreen">gap: 634sec</text>
<text text-anchor="start" x="238" y="-298.71" font-family="Arial" font-size="20.00" fill="darkgreen">end_prev: 04/11/17, 13:44:18</text>
<text text-anchor="start" x="268.5" y="-278.71" font-family="Arial" font-weight="bold" font-size="20.00" fill="darkgreen">Attacker: 10.0.254.35</text>
</g>
<!-- COMMAND AND CONTROL
unknown | ID: 308&#45;&gt;DATA EXFILTRATION
microsoft&#45;ds | ID: 37 -->
<g id="edge3" class="edge">
<title>COMMAND AND CONTROL
unknown | ID: 308&#45;&gt;DATA EXFILTRATION
microsoft&#45;ds | ID: 37</title>
<path fill="none" stroke="darkgreen" stroke-width="5" d="M266.83,-440.77C257.62,-448.26 249.33,-457.23 244,-467.69 227.86,-499.37 221.55,-520.12 244,-547.69 257.62,-564.4 295,-576.28 337.81,-584.66"/>
<polygon fill="darkgreen" stroke="darkgreen" stroke-width="5" points="337.27,-589.01 347.9,-586.55 338.88,-580.41 337.27,-589.01"/>
<text text-anchor="middle" x="375.5" y="-524.69" font-family="Arial" font-size="20.00" fill="darkgreen">start_next: 04/11/17, 15:09:51</text>
<text text-anchor="middle" x="375.5" y="-502.69" font-family="Arial" font-size="20.00" fill="darkgreen">gap: 4500sec</text>
<text text-anchor="middle" x="375.5" y="-480.69" font-family="Arial" font-size="20.00" fill="darkgreen">end_prev: 04/11/17, 13:54:51</text>
</g>
<!-- COMMAND AND CONTROL
unknown | ID: 308&#45;&gt;DATA EXFILTRATION
microsoft&#45;ds | ID: 37 -->
<g id="edge7" class="edge">
<title>COMMAND AND CONTROL
unknown | ID: 308&#45;&gt;DATA EXFILTRATION
microsoft&#45;ds | ID: 37</title>
<path fill="none" stroke="turquoise" stroke-width="5" d="M472.51,-440.86C484.45,-448 495.25,-456.81 504,-467.69 513.61,-479.64 516.31,-514.29 516.64,-545.62"/>
<polygon fill="turquoise" stroke="turquoise" stroke-width="5" points="512.26,-545.66 516.66,-555.64 521.01,-545.63 512.26,-545.66"/>
<text text-anchor="middle" x="647" y="-524.69" font-family="Arial" font-size="20.00" fill="turquoise">start_next: 04/11/17, 17:45:11</text>
<text text-anchor="middle" x="647" y="-502.69" font-family="Arial" font-size="20.00" fill="turquoise">gap: 16556sec</text>
<text text-anchor="middle" x="647" y="-480.69" font-family="Arial" font-size="20.00" fill="turquoise">end_prev: 04/11/17, 13:09:15</text>
</g>
<!-- NETWORK DoS
ms&#45;wbt&#45;server | ID: 307 -->
<g id="node5" class="node">
<title>NETWORK DoS
ms&#45;wbt&#45;server | ID: 307</title>
<g id="a_node5"><a xlink:title="ET DOS Microsoft Remote Desktop (RDP) Syn then Reset 30 Second DoS Attempt">
<polygon fill="yellow" stroke="black" stroke-width="3" points="1007.64,-410.7 898.32,-459.68 679.68,-459.68 570.36,-410.7 679.68,-361.72 898.32,-361.72 1007.64,-410.7"/>
<text text-anchor="middle" x="789" y="-417.5" font-family="Arial" font-size="24.00">NETWORK DoS</text>
<text text-anchor="middle" x="789" y="-391.5" font-family="Arial" font-size="24.00">ms&#45;wbt&#45;server | ID: 307</text>
</a>
</g>
</g>
<!-- NETWORK DoS
ms&#45;wbt&#45;server | ID: 307&#45;&gt;DATA EXFILTRATION
microsoft&#45;ds | ID: 37 -->
<g id="edge4" class="edge">
<title>NETWORK DoS
ms&#45;wbt&#45;server | ID: 307&#45;&gt;DATA EXFILTRATION
microsoft&#45;ds | ID: 37</title>
<path fill="none" stroke="turquoise" stroke-width="5" d="M798.28,-459.97C800.92,-488.78 798.64,-524.2 778,-547.69 764.45,-563.11 729.17,-574.54 688.69,-582.91"/>
<polygon fill="turquoise" stroke="turquoise" stroke-width="5" points="687.82,-578.62 678.86,-584.86 689.52,-587.2 687.82,-578.62"/>
<text text-anchor="start" x="799" y="-532.69" font-family="Arial" font-size="20.00" fill="turquoise"> start_next: 04/11/17, 16:30:04</text>
<text text-anchor="start" x="872.5" y="-512.69" font-family="Arial" font-size="20.00" fill="turquoise">gap: 2441sec</text>
<text text-anchor="start" x="803" y="-492.69" font-family="Arial" font-size="20.00" fill="turquoise">end_prev: 04/11/17, 15:49:23</text>
<text text-anchor="start" x="833.5" y="-472.69" font-family="Arial" font-weight="bold" font-size="20.00" fill="turquoise">Attacker: 10.0.254.31</text>
</g>
<!-- VULNERABILTY DISCOVERY
postgresql -->
<g id="node6" class="node">
<title>VULNERABILTY DISCOVERY
postgresql</title>
<g id="a_node6"><a xlink:title="ET POLICY Suspicious inbound to MSSQL port 1433&#10;ET POLICY Suspicious inbound to mySQL port 3306&#10;ET POLICY Suspicious inbound to Oracle SQL port 1521&#10;ET POLICY Suspicious inbound to PostgreSQL port 5432">
<ellipse fill="yellow" stroke="black" stroke-width="3" cx="559" cy="-42.43" rx="241.25" ry="42.35"/>
<text text-anchor="middle" x="559" y="-49.23" font-family="Arial" font-size="24.00">VULNERABILTY DISCOVERY</text>
<text text-anchor="middle" x="559" y="-23.23" font-family="Arial" font-size="24.00">postgresql</text>
</a>
</g>
</g>
<!-- SERVICE DISCOVERY
unknown -->
<g id="node7" class="node">
<title>SERVICE DISCOVERY
unknown</title>
<g id="a_node7"><a xlink:title="ET SCAN Potential VNC Scan 5800&#45;5820&#10;ET SCAN Potential VNC Scan 5900&#45;5920">
<ellipse fill="none" stroke="black" stroke-width="3" cx="559" cy="-223.28" rx="189.51" ry="42.35"/>
<text text-anchor="middle" x="559" y="-230.08" font-family="Arial" font-size="24.00">SERVICE DISCOVERY</text>
<text text-anchor="middle" x="559" y="-204.08" font-family="Arial" font-size="24.00">unknown</text>
</a>
</g>
</g>
<!-- VULNERABILTY DISCOVERY
postgresql&#45;&gt;SERVICE DISCOVERY
unknown -->
<g id="edge5" class="edge">
<title>VULNERABILTY DISCOVERY
postgresql&#45;&gt;SERVICE DISCOVERY
unknown</title>
<path fill="none" stroke="turquoise" stroke-width="5" d="M559,-84.91C559,-110.44 559,-143.37 559,-170.59"/>
<polygon fill="turquoise" stroke="turquoise" stroke-width="5" points="554.63,-170.71 559,-180.71 563.38,-170.71 554.63,-170.71"/>
<text text-anchor="start" x="559" y="-157.85" font-family="Arial" font-size="20.00" fill="turquoise"> start_next: 04/11/17, 13:08:01</text>
<text text-anchor="start" x="640.5" y="-137.85" font-family="Arial" font-size="20.00" fill="turquoise">gap: &#45;27sec</text>
<text text-anchor="start" x="563" y="-117.85" font-family="Arial" font-size="20.00" fill="turquoise">end_prev: 04/11/17, 13:08:29</text>
<text text-anchor="start" x="593.5" y="-97.85" font-family="Arial" font-weight="bold" font-size="20.00" fill="turquoise">Attacker: 10.0.254.34</text>
</g>
<!-- SERVICE DISCOVERY
unknown&#45;&gt;COMMAND AND CONTROL
unknown | ID: 308 -->
<g id="edge6" class="edge">
<title>SERVICE DISCOVERY
unknown&#45;&gt;COMMAND AND CONTROL
unknown | ID: 308</title>
<path fill="none" stroke="turquoise" stroke-width="5" d="M549.25,-265.82C540.55,-294.26 525.05,-330.82 499,-353.71 489.01,-362.48 477.65,-369.88 465.61,-376.12"/>
<polygon fill="turquoise" stroke="turquoise" stroke-width="5" points="463.36,-372.35 456.29,-380.67 467.2,-380.22 463.36,-372.35"/>
<text text-anchor="middle" x="676.5" y="-330.71" font-family="Arial" font-size="20.00" fill="turquoise">start_next: 04/11/17, 13:09:15</text>
<text text-anchor="middle" x="676.5" y="-308.71" font-family="Arial" font-size="20.00" fill="turquoise">gap: 73sec</text>
<text text-anchor="middle" x="676.5" y="-286.71" font-family="Arial" font-size="20.00" fill="turquoise">end_prev: 04/11/17, 13:08:01</text>
</g>
</g>
</svg>
