<?xml version="1.0" encoding="UTF-8" standalone="no"?>
<!DOCTYPE svg PUBLIC "-//W3C//DTD SVG 1.1//EN"
 "http://www.w3.org/Graphics/SVG/1.1/DTD/svg11.dtd">
<!-- Generated by graphviz version 2.50.0 (0)
 -->
<!-- Title: DATAEXFILTRATIONhttp Pages: 1 -->
<svg width="2817pt" height="1292pt"
 viewBox="0.00 0.00 2817.00 1291.74" xmlns="http://www.w3.org/2000/svg" xmlns:xlink="http://www.w3.org/1999/xlink">
<g id="graph0" class="graph" transform="scale(1 1) rotate(0) translate(4 1287.74)">
<title>DATAEXFILTRATIONhttp</title>
<polygon fill="white" stroke="transparent" points="-4,4 -4,-1287.74 2813,-1287.74 2813,4 -4,4"/>
<!-- Victim: 10.0.0.56
DATA EXFILTRATION
http -->
<g id="node1" class="node">
<title>Victim: 10.0.0.56
DATA EXFILTRATION
http</title>
<polygon fill="salmon" stroke="black" stroke-width="3" points="2189.21,-1186.72 2189.21,-1241.11 2076.62,-1279.57 1917.38,-1279.57 1804.79,-1241.11 1804.79,-1186.72 1917.38,-1148.26 2076.62,-1148.26 2189.21,-1186.72"/>
<polygon fill="none" stroke="black" stroke-width="3" points="2193.21,-1183.87 2193.21,-1243.96 2077.28,-1283.56 1916.72,-1283.56 1800.79,-1243.96 1800.79,-1183.87 1916.72,-1144.27 2077.28,-1144.27 2193.21,-1183.87"/>
<text text-anchor="middle" x="1997" y="-1233.72" font-family="Arial" font-size="24.00">Victim: 10.0.0.56</text>
<text text-anchor="middle" x="1997" y="-1207.72" font-family="Arial" font-size="24.00">DATA EXFILTRATION</text>
<text text-anchor="middle" x="1997" y="-1181.72" font-family="Arial" font-size="24.00">http</text>
</g>
<!-- DATA EXFILTRATION
http | ID: 26 -->
<g id="node2" class="node">
<title>DATA EXFILTRATION
http | ID: 26</title>
<g id="a_node2"><a xlink:title="ET WEB_SPECIFIC_APPS PHP&#45;CGI query string parameter vulnerability">
<polygon fill="salmon" stroke="black" stroke-width="3" points="2201.88,-1078.11 2099.44,-1127.09 1894.56,-1127.09 1792.12,-1078.11 1894.56,-1029.13 2099.44,-1029.13 2201.88,-1078.11"/>
<text text-anchor="middle" x="1997" y="-1084.91" font-family="Arial" font-size="24.00">DATA EXFILTRATION</text>
<text text-anchor="middle" x="1997" y="-1058.91" font-family="Arial" font-size="24.00">http | ID: 26</text>
</a>
</g>
</g>
<!-- DATA EXFILTRATION
http | ID: 26&#45;&gt;Victim: 10.0.0.56
DATA EXFILTRATION
http -->
<g id="edge1" class="edge">
<title>DATA EXFILTRATION
http | ID: 26&#45;&gt;Victim: 10.0.0.56
DATA EXFILTRATION
http</title>
<path fill="none" stroke="black" stroke-width="5" d="M1997,-1127.42C1997,-1129.52 1997,-1131.65 1997,-1133.8"/>
<polygon fill="black" stroke="black" stroke-width="5" points="1992.63,-1133.95 1997,-1143.95 2001.38,-1133.95 1992.63,-1133.95"/>
</g>
<!-- HOST DISCOVERY
http -->
<g id="node3" class="node">
<title>HOST DISCOVERY
http</title>
<g id="a_node3"><a xlink:title="ET SCAN Possible Nmap User&#45;Agent Observed&#10;ET SCAN Nmap Scripting Engine User&#45;Agent Detected (Nmap Scripting Engine)">
<ellipse fill="yellow" stroke="black" stroke-width="3" cx="1156" cy="-570.98" rx="162.77" ry="42.35"/>
<text text-anchor="middle" x="1156" y="-577.78" font-family="Arial" font-size="24.00">HOST DISCOVERY</text>
<text text-anchor="middle" x="1156" y="-551.78" font-family="Arial" font-size="24.00">http</text>
</a>
</g>
</g>
<!-- HOST DISCOVERY
http&#45;&gt;HOST DISCOVERY
http -->
<g id="edge13" class="edge">
<title>HOST DISCOVERY
http&#45;&gt;HOST DISCOVERY
http</title>
<path fill="none" stroke="purple" stroke-width="5" d="M1314.83,-561.62C1321.66,-564.02 1325.63,-567.14 1325.63,-570.98 1325.63,-572.55 1324.98,-573.99 1323.74,-575.31"/>
<polygon fill="purple" stroke="purple" stroke-width="5" points="1321.38,-571.62 1314.83,-580.35 1325.68,-579.24 1321.38,-571.62"/>
<text text-anchor="middle" x="1457.13" y="-587.98" font-family="Arial" font-size="20.00" fill="purple">start_next: 04/11/17, 20:40:36</text>
<text text-anchor="middle" x="1457.13" y="-565.98" font-family="Arial" font-size="20.00" fill="purple">gap: 1888sec</text>
<text text-anchor="middle" x="1457.13" y="-543.98" font-family="Arial" font-size="20.00" fill="purple">end_prev: 04/11/17, 20:09:08</text>
</g>
<!-- VULNERABILTY DISCOVERY
mysql -->
<g id="node4" class="node">
<title>VULNERABILTY DISCOVERY
mysql</title>
<g id="a_node4"><a xlink:title="ET POLICY Suspicious inbound to MSSQL port 1433&#10;ET POLICY Suspicious inbound to mySQL port 3306&#10;ET POLICY Suspicious inbound to Oracle SQL port 1521&#10;ET POLICY Suspicious inbound to PostgreSQL port 5432">
<ellipse fill="none" stroke="black" stroke-width="3" cx="1293" cy="-223.28" rx="241.25" ry="42.35"/>
<text text-anchor="middle" x="1293" y="-230.08" font-family="Arial" font-size="24.00">VULNERABILTY DISCOVERY</text>
<text text-anchor="middle" x="1293" y="-204.08" font-family="Arial" font-size="24.00">mysql</text>
</a>
</g>
</g>
<!-- HOST DISCOVERY
http&#45;&gt;VULNERABILTY DISCOVERY
mysql -->
<g id="edge2" class="edge">
<title>HOST DISCOVERY
http&#45;&gt;VULNERABILTY DISCOVERY
mysql</title>
<path fill="none" stroke="purple" stroke-width="5" d="M1002.05,-557.01C841.93,-539.86 607.23,-503.19 554,-432.56 542.65,-417.5 541.81,-362.1 554,-347.71 616.61,-273.77 856.56,-244.09 1046.28,-232.19"/>
<polygon fill="purple" stroke="purple" stroke-width="5" points="1046.7,-236.55 1056.42,-231.57 1046.17,-227.82 1046.7,-236.55"/>
<text text-anchor="start" x="554" y="-415.13" font-family="Arial" font-size="20.00" fill="purple"> start_next: 04/11/17, 13:39:59</text>
<text text-anchor="start" x="644.5" y="-395.13" font-family="Arial" font-size="20.00" fill="purple">gap: 4sec</text>
<text text-anchor="start" x="558" y="-375.13" font-family="Arial" font-size="20.00" fill="purple">end_prev: 04/11/17, 13:39:56</text>
<text text-anchor="start" x="588.5" y="-355.13" font-family="Arial" font-weight="bold" font-size="20.00" fill="purple">Attacker: 10.0.254.30</text>
</g>
<!-- SURFING
http -->
<g id="node5" class="node">
<title>SURFING
http</title>
<g id="a_node5"><a xlink:title="ET WEB_SERVER WEB&#45;PHP phpinfo access">
<ellipse fill="yellow" stroke="black" stroke-width="3" cx="1706" cy="-42.43" rx="88.28" ry="42.35"/>
<text text-anchor="middle" x="1706" y="-49.23" font-family="Arial" font-size="24.00">SURFING</text>
<text text-anchor="middle" x="1706" y="-23.23" font-family="Arial" font-size="24.00">http</text>
</a>
</g>
</g>
<!-- HOST DISCOVERY
http&#45;&gt;SURFING
http -->
<g id="edge21" class="edge">
<title>HOST DISCOVERY
http&#45;&gt;SURFING
http</title>
<path fill="none" stroke="turquoise" stroke-width="5" d="M1317.7,-565.99C1467.96,-560.58 1672.34,-548.19 1698,-520.56 1712.28,-505.18 1708.97,-215.32 1706.96,-95.05"/>
<polygon fill="turquoise" stroke="turquoise" stroke-width="5" points="1711.34,-94.9 1706.79,-84.98 1702.59,-95.05 1711.34,-94.9"/>
<text text-anchor="middle" x="1840.5" y="-323.71" font-family="Arial" font-size="20.00" fill="turquoise">start_next: 04/11/17, 12:56:12</text>
<text text-anchor="middle" x="1840.5" y="-301.71" font-family="Arial" font-size="20.00" fill="turquoise">gap: 14sec</text>
<text text-anchor="middle" x="1840.5" y="-279.71" font-family="Arial" font-size="20.00" fill="turquoise">end_prev: 04/11/17, 12:55:58</text>
</g>
<!-- INFO DISCOVERY
http -->
<g id="node6" class="node">
<title>INFO DISCOVERY
http</title>
<g id="a_node6"><a xlink:title="GPL WEB_SERVER globals.pl access">
<ellipse fill="none" stroke="black" stroke-width="3" cx="1722" cy="-904.69" rx="156.04" ry="42.35"/>
<text text-anchor="middle" x="1722" y="-911.49" font-family="Arial" font-size="24.00">INFO DISCOVERY</text>
<text text-anchor="middle" x="1722" y="-885.49" font-family="Arial" font-size="24.00">http</text>
</a>
</g>
</g>
<!-- HOST DISCOVERY
http&#45;&gt;INFO DISCOVERY
http -->
<g id="edge17" class="edge">
<title>HOST DISCOVERY
http&#45;&gt;INFO DISCOVERY
http</title>
<path fill="none" stroke="tomato" stroke-width="5" d="M1309.01,-585.55C1358.06,-592.99 1404.08,-604.33 1421,-621.41 1471.44,-672.35 1405.03,-723.64 1449,-780.26 1484.52,-826 1540.77,-855.29 1593,-873.8"/>
<polygon fill="tomato" stroke="tomato" stroke-width="5" points="1591.83,-878.02 1602.7,-877.13 1594.67,-869.75 1591.83,-878.02"/>
<text text-anchor="start" x="1449" y="-762.84" font-family="Arial" font-size="20.00" fill="tomato"> start_next: 04/11/17, 13:41:40</text>
<text text-anchor="start" x="1539.5" y="-742.84" font-family="Arial" font-size="20.00" fill="tomato">gap: 5sec</text>
<text text-anchor="start" x="1453" y="-722.84" font-family="Arial" font-size="20.00" fill="tomato">end_prev: 04/11/17, 13:41:34</text>
<text text-anchor="start" x="1483.5" y="-702.84" font-family="Arial" font-weight="bold" font-size="20.00" fill="tomato">Attacker: 10.0.254.33</text>
</g>
<!-- VULNERABILTY DISCOVERY
http -->
<g id="node8" class="node">
<title>VULNERABILTY DISCOVERY
http</title>
<g id="a_node8"><a xlink:title="ET SCAN Nikto Web App Scan in Progress">
<ellipse fill="none" stroke="black" stroke-width="3" cx="1158" cy="-737.84" rx="241.25" ry="42.35"/>
<text text-anchor="middle" x="1158" y="-744.64" font-family="Arial" font-size="24.00">VULNERABILTY DISCOVERY</text>
<text text-anchor="middle" x="1158" y="-718.64" font-family="Arial" font-size="24.00">http</text>
</a>
</g>
</g>
<!-- HOST DISCOVERY
http&#45;&gt;VULNERABILTY DISCOVERY
http -->
<g id="edge7" class="edge">
<title>HOST DISCOVERY
http&#45;&gt;VULNERABILTY DISCOVERY
http</title>
<path fill="none" stroke="purple" stroke-width="5" d="M1156.5,-613.58C1156.77,-635.26 1157.09,-661.96 1157.37,-684.97"/>
<polygon fill="purple" stroke="purple" stroke-width="5" points="1153,-685.31 1157.5,-695.25 1161.75,-685.2 1153,-685.31"/>
<text text-anchor="middle" x="1289" y="-671.41" font-family="Arial" font-size="20.00" fill="purple">start_next: 04/11/17, 15:53:11</text>
<text text-anchor="middle" x="1289" y="-649.41" font-family="Arial" font-size="20.00" fill="purple">gap: 1sec</text>
<text text-anchor="middle" x="1289" y="-627.41" font-family="Arial" font-size="20.00" fill="purple">end_prev: 04/11/17, 15:53:10</text>
</g>
<!-- HOST DISCOVERY
http&#45;&gt;VULNERABILTY DISCOVERY
http -->
<g id="edge14" class="edge">
<title>HOST DISCOVERY
http&#45;&gt;VULNERABILTY DISCOVERY
http</title>
<path fill="none" stroke="purple" stroke-width="5" d="M1001.41,-584.33C952.95,-591.62 908.13,-603.18 893,-621.41 874.27,-643.99 874.26,-664.85 893,-687.41 901.71,-697.89 920.16,-706.16 943.48,-712.68"/>
<polygon fill="purple" stroke="purple" stroke-width="5" points="942.6,-716.98 953.38,-715.28 944.82,-708.51 942.6,-716.98"/>
<text text-anchor="middle" x="1024.5" y="-671.41" font-family="Arial" font-size="20.00" fill="purple">start_next: 04/11/17, 20:40:37</text>
<text text-anchor="middle" x="1024.5" y="-649.41" font-family="Arial" font-size="20.00" fill="purple">gap: 1sec</text>
<text text-anchor="middle" x="1024.5" y="-627.41" font-family="Arial" font-size="20.00" fill="purple">end_prev: 04/11/17, 20:40:36</text>
</g>
<!-- VULNERABILTY DISCOVERY
mysql&#45;&gt;SURFING
http -->
<g id="edge3" class="edge">
<title>VULNERABILTY DISCOVERY
mysql&#45;&gt;SURFING
http</title>
<path fill="none" stroke="purple" stroke-width="5" d="M1410.39,-186.01C1415.35,-182.07 1419.94,-177.7 1424,-172.85 1447.24,-145.13 1413.39,-118.4 1439,-92.85 1462.69,-69.22 1542.21,-56.6 1608.36,-50.04"/>
<polygon fill="purple" stroke="purple" stroke-width="5" points="1608.89,-54.39 1618.43,-49.08 1608.06,-45.68 1608.89,-54.39"/>
<text text-anchor="middle" x="1570" y="-149.85" font-family="Arial" font-size="20.00" fill="purple">start_next: 04/11/17, 13:40:11</text>
<text text-anchor="middle" x="1570" y="-127.85" font-family="Arial" font-size="20.00" fill="purple">gap: 12sec</text>
<text text-anchor="middle" x="1570" y="-105.85" font-family="Arial" font-size="20.00" fill="purple">end_prev: 04/11/17, 13:39:59</text>
</g>
<!-- SERVICE DISCOVERY
unknown -->
<g id="node9" class="node">
<title>SERVICE DISCOVERY
unknown</title>
<g id="a_node9"><a xlink:title="ET SCAN Potential VNC Scan 5800&#45;5820&#10;ET SCAN NMAP OS Detection Probe&#10;ET SCAN Potential VNC Scan 5900&#45;5920">
<ellipse fill="yellow" stroke="black" stroke-width="3" cx="1505" cy="-390.13" rx="189.51" ry="42.35"/>
<text text-anchor="middle" x="1505" y="-396.93" font-family="Arial" font-size="24.00">SERVICE DISCOVERY</text>
<text text-anchor="middle" x="1505" y="-370.93" font-family="Arial" font-size="24.00">unknown</text>
</a>
</g>
</g>
<!-- VULNERABILTY DISCOVERY
mysql&#45;&gt;SERVICE DISCOVERY
unknown -->
<g id="edge11" class="edge">
<title>VULNERABILTY DISCOVERY
mysql&#45;&gt;SERVICE DISCOVERY
unknown</title>
<path fill="none" stroke="purple" stroke-width="5" d="M1341.31,-264.9C1368.48,-287.41 1403.23,-315.62 1435,-339.71 1436.6,-340.92 1438.23,-342.14 1439.87,-343.37"/>
<polygon fill="purple" stroke="purple" stroke-width="5" points="1437.58,-347.11 1448.22,-349.53 1442.77,-340.07 1437.58,-347.11"/>
<text text-anchor="middle" x="1566.5" y="-323.71" font-family="Arial" font-size="20.00" fill="purple">start_next: 04/11/17, 20:08:42</text>
<text text-anchor="middle" x="1566.5" y="-301.71" font-family="Arial" font-size="20.00" fill="purple">gap: &#45;7sec</text>
<text text-anchor="middle" x="1566.5" y="-279.71" font-family="Arial" font-size="20.00" fill="purple">end_prev: 04/11/17, 20:08:50</text>
</g>
<!-- SURFING
http&#45;&gt;DATA EXFILTRATION
http | ID: 26 -->
<g id="edge16" class="edge">
<title>SURFING
http&#45;&gt;DATA EXFILTRATION
http | ID: 26</title>
<path fill="none" stroke="purple" stroke-width="5" d="M1617.65,-44.87C1333.65,-49.76 455.29,-66.82 330,-92.85 175.75,-124.9 0,-64.74 0,-222.28 0,-222.28 0,-222.28 0,-905.69 0,-995.22 1291.01,-1051.6 1796.99,-1070.25"/>
<polygon fill="purple" stroke="purple" stroke-width="5" points="1797.17,-1074.64 1807.33,-1070.63 1797.49,-1065.89 1797.17,-1074.64"/>
<text text-anchor="middle" x="131.5" y="-587.98" font-family="Arial" font-size="20.00" fill="purple">start_next: 04/11/17, 20:40:42</text>
<text text-anchor="middle" x="131.5" y="-565.98" font-family="Arial" font-size="20.00" fill="purple">gap: &#45;6sec</text>
<text text-anchor="middle" x="131.5" y="-543.98" font-family="Arial" font-size="20.00" fill="purple">end_prev: 04/11/17, 20:40:48</text>
</g>
<!-- SURFING
http&#45;&gt;DATA EXFILTRATION
http | ID: 26 -->
<g id="edge19" class="edge">
<title>SURFING
http&#45;&gt;DATA EXFILTRATION
http | ID: 26</title>
<path fill="none" stroke="tomato" stroke-width="5" d="M1791.81,-52.65C1949.42,-71.98 2269,-123.38 2269,-222.28 2269,-222.28 2269,-222.28 2269,-905.69 2269,-957.11 2294.73,-982.3 2261,-1021.12 2247.45,-1036.71 2211.91,-1048.2 2171.14,-1056.57"/>
<polygon fill="tomato" stroke="tomato" stroke-width="5" points="2170.2,-1052.3 2161.24,-1058.52 2171.9,-1060.88 2170.2,-1052.3"/>
<text text-anchor="middle" x="2400.5" y="-587.98" font-family="Arial" font-size="20.00" fill="tomato">start_next: 04/11/17, 13:41:40</text>
<text text-anchor="middle" x="2400.5" y="-565.98" font-family="Arial" font-size="20.00" fill="tomato">gap: 0sec</text>
<text text-anchor="middle" x="2400.5" y="-543.98" font-family="Arial" font-size="20.00" fill="tomato">end_prev: 04/11/17, 13:41:41</text>
</g>
<!-- SURFING
http&#45;&gt;DATA EXFILTRATION
http | ID: 26 -->
<g id="edge22" class="edge">
<title>SURFING
http&#45;&gt;DATA EXFILTRATION
http | ID: 26</title>
<path fill="none" stroke="turquoise" stroke-width="5" d="M1794.7,-43.72C2010.63,-46.84 2546,-69.92 2546,-222.28 2546,-222.28 2546,-222.28 2546,-905.69 2546,-985.64 2331.15,-1032.65 2170.26,-1056.64"/>
<polygon fill="turquoise" stroke="turquoise" stroke-width="5" points="2169.49,-1052.33 2160.23,-1058.11 2170.76,-1060.98 2169.49,-1052.33"/>
<text text-anchor="middle" x="2677.5" y="-587.98" font-family="Arial" font-size="20.00" fill="turquoise">start_next: 04/11/17, 12:56:12</text>
<text text-anchor="middle" x="2677.5" y="-565.98" font-family="Arial" font-size="20.00" fill="turquoise">gap: 0sec</text>
<text text-anchor="middle" x="2677.5" y="-543.98" font-family="Arial" font-size="20.00" fill="turquoise">end_prev: 04/11/17, 12:56:12</text>
</g>
<!-- SURFING
http&#45;&gt;VULNERABILTY DISCOVERY
mysql -->
<g id="edge10" class="edge">
<title>SURFING
http&#45;&gt;VULNERABILTY DISCOVERY
mysql</title>
<path fill="none" stroke="purple" stroke-width="5" d="M1617.65,-44.96C1469.85,-48.44 1185.54,-59.45 1155,-92.85 1131.01,-119.09 1134.53,-143.78 1155,-172.85 1156.72,-175.29 1158.57,-177.61 1160.53,-179.82"/>
<polygon fill="purple" stroke="purple" stroke-width="5" points="1157.46,-182.93 1167.64,-186.88 1163.63,-176.73 1157.46,-182.93"/>
<text text-anchor="start" x="1155" y="-157.85" font-family="Arial" font-size="20.00" fill="purple"> start_next: 04/11/17, 20:08:40</text>
<text text-anchor="start" x="1223" y="-137.85" font-family="Arial" font-size="20.00" fill="purple">gap: 15318sec</text>
<text text-anchor="start" x="1159" y="-117.85" font-family="Arial" font-size="20.00" fill="purple">end_prev: 04/11/17, 15:53:22</text>
<text text-anchor="start" x="1189.5" y="-97.85" font-family="Arial" font-weight="bold" font-size="20.00" fill="purple">Attacker: 10.0.254.30</text>
</g>
<!-- SURFING
http&#45;&gt;INFO DISCOVERY
http -->
<g id="edge4" class="edge">
<title>SURFING
http&#45;&gt;INFO DISCOVERY
http</title>
<path fill="none" stroke="purple" stroke-width="5" d="M1764.58,-74.21C1828.72,-111.63 1928.02,-181.38 1970,-273.71 1982.14,-300.41 1986.31,-315.32 1970,-339.71 1904.77,-437.25 1791.65,-343.3 1726,-440.56 1714.67,-457.34 1718.69,-734.42 1720.92,-851.8"/>
<polygon fill="purple" stroke="purple" stroke-width="5" points="1716.55,-852.07 1721.12,-861.98 1725.3,-851.9 1716.55,-852.07"/>
<text text-anchor="middle" x="1857.5" y="-497.56" font-family="Arial" font-size="20.00" fill="purple">start_next: 04/11/17, 13:40:13</text>
<text text-anchor="middle" x="1857.5" y="-475.56" font-family="Arial" font-size="20.00" fill="purple">gap: &#45;1sec</text>
<text text-anchor="middle" x="1857.5" y="-453.56" font-family="Arial" font-size="20.00" fill="purple">end_prev: 04/11/17, 13:40:14</text>
</g>
<!-- INFO DISCOVERY
http&#45;&gt;DATA EXFILTRATION
http | ID: 26 -->
<g id="edge5" class="edge">
<title>INFO DISCOVERY
http&#45;&gt;DATA EXFILTRATION
http | ID: 26</title>
<path fill="none" stroke="purple" stroke-width="5" d="M1870.57,-917.88C1921.26,-925.21 1969.38,-936.83 1986,-955.12 1994.63,-964.6 1997.57,-992.22 1998.26,-1018.79"/>
<polygon fill="purple" stroke="purple" stroke-width="5" points="1993.89,-1018.95 1998.43,-1028.88 2002.64,-1018.81 1993.89,-1018.95"/>
<text text-anchor="middle" x="2130.5" y="-1005.12" font-family="Arial" font-size="20.00" fill="purple">start_next: 04/11/17, 13:40:14</text>
<text text-anchor="middle" x="2130.5" y="-983.12" font-family="Arial" font-size="20.00" fill="purple">gap: 1sec</text>
<text text-anchor="middle" x="2130.5" y="-961.12" font-family="Arial" font-size="20.00" fill="purple">end_prev: 04/11/17, 13:40:13</text>
</g>
<!-- INFO DISCOVERY
http&#45;&gt;DATA EXFILTRATION
http | ID: 26 -->
<g id="edge9" class="edge">
<title>INFO DISCOVERY
http&#45;&gt;DATA EXFILTRATION
http | ID: 26</title>
<path fill="none" stroke="purple" stroke-width="5" d="M1710.07,-947.11C1705.78,-971.27 1705.46,-1000.86 1722,-1021.12 1735.97,-1038.22 1774.52,-1050.23 1818.5,-1058.61"/>
<polygon fill="purple" stroke="purple" stroke-width="5" points="1817.94,-1062.95 1828.57,-1060.45 1819.52,-1054.35 1817.94,-1062.95"/>
<text text-anchor="middle" x="1853.5" y="-1005.12" font-family="Arial" font-size="20.00" fill="purple">start_next: 04/11/17, 15:53:16</text>
<text text-anchor="middle" x="1853.5" y="-983.12" font-family="Arial" font-size="20.00" fill="purple">gap: 1sec</text>
<text text-anchor="middle" x="1853.5" y="-961.12" font-family="Arial" font-size="20.00" fill="purple">end_prev: 04/11/17, 15:53:15</text>
</g>
<!-- INFO DISCOVERY
http&#45;&gt;SURFING
http -->
<g id="edge18" class="edge">
<title>INFO DISCOVERY
http&#45;&gt;SURFING
http</title>
<path fill="none" stroke="tomato" stroke-width="5" d="M1846.63,-878.88C1919.39,-856.34 1997,-814.54 1997,-738.84 1997,-222.28 1997,-222.28 1997,-222.28 1997,-127.49 1883.56,-81.35 1798.33,-60.05"/>
<polygon fill="tomato" stroke="tomato" stroke-width="5" points="1799.36,-55.8 1788.61,-57.7 1797.3,-64.31 1799.36,-55.8"/>
<text text-anchor="middle" x="2128.5" y="-497.56" font-family="Arial" font-size="20.00" fill="tomato">start_next: 04/11/17, 13:41:40</text>
<text text-anchor="middle" x="2128.5" y="-475.56" font-family="Arial" font-size="20.00" fill="tomato">gap: 1sec</text>
<text text-anchor="middle" x="2128.5" y="-453.56" font-family="Arial" font-size="20.00" fill="tomato">end_prev: 04/11/17, 13:41:40</text>
</g>
<!-- VULNERABILTY DISCOVERY
ahsp -->
<g id="node7" class="node">
<title>VULNERABILTY DISCOVERY
ahsp</title>
<g id="a_node7"><a xlink:title="ET POLICY Suspicious inbound to mSQL port 4333">
<ellipse fill="yellow" stroke="black" stroke-width="3" cx="1067" cy="-390.13" rx="241.25" ry="42.35"/>
<text text-anchor="middle" x="1067" y="-396.93" font-family="Arial" font-size="24.00">VULNERABILTY DISCOVERY</text>
<text text-anchor="middle" x="1067" y="-370.93" font-family="Arial" font-size="24.00">ahsp</text>
</a>
</g>
</g>
<!-- VULNERABILTY DISCOVERY
ahsp&#45;&gt;HOST DISCOVERY
http -->
<g id="edge6" class="edge">
<title>VULNERABILTY DISCOVERY
ahsp&#45;&gt;HOST DISCOVERY
http</title>
<path fill="none" stroke="purple" stroke-width="5" d="M908.09,-422.13C894.18,-427.51 883.34,-433.65 878,-440.56 856.27,-468.7 855.16,-493.31 878,-520.56 893.68,-539.27 939.25,-550.91 989.07,-558.14"/>
<polygon fill="purple" stroke="purple" stroke-width="5" points="988.58,-562.48 999.08,-559.52 989.78,-553.82 988.58,-562.48"/>
<text text-anchor="start" x="878" y="-505.56" font-family="Arial" font-size="20.00" fill="purple"> start_next: 04/11/17, 15:53:10</text>
<text text-anchor="start" x="951.5" y="-485.56" font-family="Arial" font-size="20.00" fill="purple">gap: 6669sec</text>
<text text-anchor="start" x="882" y="-465.56" font-family="Arial" font-size="20.00" fill="purple">end_prev: 04/11/17, 14:02:01</text>
<text text-anchor="start" x="912.5" y="-445.56" font-family="Arial" font-weight="bold" font-size="20.00" fill="purple">Attacker: 10.0.254.30</text>
</g>
<!-- VULNERABILTY DISCOVERY
http&#45;&gt;SURFING
http -->
<g id="edge15" class="edge">
<title>VULNERABILTY DISCOVERY
http&#45;&gt;SURFING
http</title>
<path fill="none" stroke="purple" stroke-width="5" d="M944.85,-717.92C683.27,-691.76 274,-639.97 274,-571.98 274,-222.28 274,-222.28 274,-222.28 274,-87.63 1283.84,-53 1607.47,-45.36"/>
<polygon fill="purple" stroke="purple" stroke-width="5" points="1607.88,-49.73 1617.77,-45.12 1607.67,-40.98 1607.88,-49.73"/>
<text text-anchor="middle" x="405.5" y="-407.13" font-family="Arial" font-size="20.00" fill="purple">start_next: 04/11/17, 20:40:42</text>
<text text-anchor="middle" x="405.5" y="-385.13" font-family="Arial" font-size="20.00" fill="purple">gap: 5sec</text>
<text text-anchor="middle" x="405.5" y="-363.13" font-family="Arial" font-size="20.00" fill="purple">end_prev: 04/11/17, 20:40:37</text>
</g>
<!-- VULNERABILTY DISCOVERY
http&#45;&gt;INFO DISCOVERY
http -->
<g id="edge8" class="edge">
<title>VULNERABILTY DISCOVERY
http&#45;&gt;INFO DISCOVERY
http</title>
<path fill="none" stroke="purple" stroke-width="5" d="M1149.19,-780.29C1146.52,-805.07 1148.27,-835.33 1167,-854.26 1194.12,-881.69 1402.89,-894.13 1556.43,-899.61"/>
<polygon fill="purple" stroke="purple" stroke-width="5" points="1556.31,-903.98 1566.46,-899.96 1556.62,-895.24 1556.31,-903.98"/>
<text text-anchor="middle" x="1298.5" y="-838.26" font-family="Arial" font-size="20.00" fill="purple">start_next: 04/11/17, 15:53:15</text>
<text text-anchor="middle" x="1298.5" y="-816.26" font-family="Arial" font-size="20.00" fill="purple">gap: 4sec</text>
<text text-anchor="middle" x="1298.5" y="-794.26" font-family="Arial" font-size="20.00" fill="purple">end_prev: 04/11/17, 15:53:11</text>
</g>
<!-- SERVICE DISCOVERY
unknown&#45;&gt;HOST DISCOVERY
http -->
<g id="edge12" class="edge">
<title>SERVICE DISCOVERY
unknown&#45;&gt;HOST DISCOVERY
http</title>
<path fill="none" stroke="purple" stroke-width="5" d="M1445.64,-430.42C1442.81,-433.63 1440.23,-437.01 1438,-440.56 1418.78,-471.2 1448.61,-495.01 1423,-520.56 1406.95,-536.57 1365.26,-547.53 1319.47,-554.97"/>
<polygon fill="purple" stroke="purple" stroke-width="5" points="1318.54,-550.69 1309.34,-556.55 1319.89,-559.33 1318.54,-550.69"/>
<text text-anchor="middle" x="1569.5" y="-497.56" font-family="Arial" font-size="20.00" fill="purple">start_next: 04/11/17, 20:09:08</text>
<text text-anchor="middle" x="1569.5" y="-475.56" font-family="Arial" font-size="20.00" fill="purple">gap: 1sec</text>
<text text-anchor="middle" x="1569.5" y="-453.56" font-family="Arial" font-size="20.00" fill="purple">end_prev: 04/11/17, 20:09:07</text>
</g>
<!-- SERVICE DISCOVERY
unknown&#45;&gt;HOST DISCOVERY
http -->
<g id="edge20" class="edge">
<title>SERVICE DISCOVERY
unknown&#45;&gt;HOST DISCOVERY
http</title>
<path fill="none" stroke="turquoise" stroke-width="5" d="M1376.88,-421.5C1355.01,-425.82 1332.43,-429.74 1311,-432.56 1293.68,-434.83 1166.03,-427.9 1154,-440.56 1143.53,-451.57 1144.68,-487.06 1148.09,-518.09"/>
<polygon fill="turquoise" stroke="turquoise" stroke-width="5" points="1143.8,-518.99 1149.33,-528.4 1152.48,-517.96 1143.8,-518.99"/>
<text text-anchor="start" x="1154" y="-505.56" font-family="Arial" font-size="20.00" fill="turquoise"> start_next: 04/11/17, 12:55:58</text>
<text text-anchor="start" x="1233.5" y="-485.56" font-family="Arial" font-size="20.00" fill="turquoise">gap: 144sec</text>
<text text-anchor="start" x="1158" y="-465.56" font-family="Arial" font-size="20.00" fill="turquoise">end_prev: 04/11/17, 12:53:34</text>
<text text-anchor="start" x="1188.5" y="-445.56" font-family="Arial" font-weight="bold" font-size="20.00" fill="turquoise">Attacker: 10.0.254.30</text>
</g>
</g>
</svg>
