<?xml version="1.0" encoding="UTF-8" standalone="no"?>
<!DOCTYPE svg PUBLIC "-//W3C//DTD SVG 1.1//EN"
 "http://www.w3.org/Graphics/SVG/1.1/DTD/svg11.dtd">
<!-- Generated by graphviz version 2.50.0 (0)
 -->
<!-- Title: NETWORKDOSssdp Pages: 1 -->
<svg width="1556pt" height="1100pt"
 viewBox="0.00 0.00 1556.25 1100.03" xmlns="http://www.w3.org/2000/svg" xmlns:xlink="http://www.w3.org/1999/xlink">
<g id="graph0" class="graph" transform="scale(1 1) rotate(0) translate(4 1096.03)">
<title>NETWORKDOSssdp</title>
<polygon fill="white" stroke="transparent" points="-4,4 -4,-1096.03 1552.25,-1096.03 1552.25,4 -4,4"/>
<!-- Victim: 10.0.99.16
NETWORK DoS
ssdp -->
<g id="node1" class="node">
<title>Victim: 10.0.99.16
NETWORK DoS
ssdp</title>
<polygon fill="salmon" stroke="black" stroke-width="3" points="622.07,-995.02 622.07,-1049.41 527.79,-1087.87 394.46,-1087.87 300.17,-1049.41 300.17,-995.02 394.46,-956.56 527.79,-956.56 622.07,-995.02"/>
<polygon fill="none" stroke="black" stroke-width="3" points="626.08,-992.34 626.08,-1052.08 528.58,-1091.86 393.67,-1091.86 296.17,-1052.08 296.17,-992.34 393.67,-952.57 528.58,-952.57 626.08,-992.34"/>
<text text-anchor="middle" x="461.12" y="-1042.01" font-family="Arial" font-size="24.00">Victim: 10.0.99.16</text>
<text text-anchor="middle" x="461.12" y="-1016.01" font-family="Arial" font-size="24.00">NETWORK DoS</text>
<text text-anchor="middle" x="461.12" y="-990.01" font-family="Arial" font-size="24.00">ssdp</text>
</g>
<!-- NETWORK DoS
ssdp | ID: 55 -->
<g id="node2" class="node">
<title>NETWORK DoS
ssdp | ID: 55</title>
<g id="a_node2"><a xlink:title="ET DOS Possible SSDP Amplification Scan in Progress">
<polygon fill="salmon" stroke="black" stroke-width="3" points="617.66,-886.4 539.39,-935.38 382.86,-935.38 304.59,-886.4 382.86,-837.42 539.39,-837.42 617.66,-886.4"/>
<text text-anchor="middle" x="461.12" y="-893.2" font-family="Arial" font-size="24.00">NETWORK DoS</text>
<text text-anchor="middle" x="461.12" y="-867.2" font-family="Arial" font-size="24.00">ssdp | ID: 55</text>
</a>
</g>
</g>
<!-- NETWORK DoS
ssdp | ID: 55&#45;&gt;Victim: 10.0.99.16
NETWORK DoS
ssdp -->
<g id="edge1" class="edge">
<title>NETWORK DoS
ssdp | ID: 55&#45;&gt;Victim: 10.0.99.16
NETWORK DoS
ssdp</title>
<path fill="none" stroke="black" stroke-width="5" d="M461.12,-935.71C461.12,-937.82 461.12,-939.95 461.12,-942.1"/>
<polygon fill="black" stroke="black" stroke-width="5" points="456.75,-942.25 461.12,-952.25 465.5,-942.25 456.75,-942.25"/>
</g>
<!-- SERVICE DISCOVERY
unknown -->
<g id="node3" class="node">
<title>SERVICE DISCOVERY
unknown</title>
<g id="a_node3"><a xlink:title="ET SCAN Potential VNC Scan 5800&#45;5820&#10;ET SCAN Potential SSH Scan&#10;ET SCAN Potential VNC Scan 5900&#45;5920">
<ellipse fill="yellow" stroke="black" stroke-width="3" cx="562.12" cy="-42.43" rx="189.51" ry="42.35"/>
<text text-anchor="middle" x="562.12" y="-49.23" font-family="Arial" font-size="24.00">SERVICE DISCOVERY</text>
<text text-anchor="middle" x="562.12" y="-23.23" font-family="Arial" font-size="24.00">unknown</text>
</a>
</g>
</g>
<!-- VULNERABILTY DISCOVERY
ms&#45;sql&#45;s -->
<g id="node4" class="node">
<title>VULNERABILTY DISCOVERY
ms&#45;sql&#45;s</title>
<g id="a_node4"><a xlink:title="ET POLICY Suspicious inbound to mySQL port 3306&#10;ET POLICY Suspicious inbound to mSQL port 4333&#10;ET POLICY Suspicious inbound to MSSQL port 1433&#10;ET POLICY Suspicious inbound to Oracle SQL port 1521&#10;ET POLICY Suspicious inbound to PostgreSQL port 5432">
<ellipse fill="none" stroke="black" stroke-width="3" cx="241.12" cy="-712.98" rx="241.25" ry="42.35"/>
<text text-anchor="middle" x="241.12" y="-719.78" font-family="Arial" font-size="24.00">VULNERABILTY DISCOVERY</text>
<text text-anchor="middle" x="241.12" y="-693.78" font-family="Arial" font-size="24.00">ms&#45;sql&#45;s</text>
</a>
</g>
</g>
<!-- SERVICE DISCOVERY
unknown&#45;&gt;VULNERABILTY DISCOVERY
ms&#45;sql&#45;s -->
<g id="edge2" class="edge">
<title>SERVICE DISCOVERY
unknown&#45;&gt;VULNERABILTY DISCOVERY
ms&#45;sql&#45;s</title>
<path fill="none" stroke="blue" stroke-width="5" d="M401.75,-65.08C266.96,-87.92 96.12,-129.88 96.12,-195.85 96.12,-195.85 96.12,-195.85 96.12,-533.13 96.12,-586.5 135.56,-632.84 173.3,-664.98"/>
<polygon fill="blue" stroke="blue" stroke-width="5" points="170.82,-668.61 181.31,-671.62 176.4,-661.87 170.82,-668.61"/>
<text text-anchor="start" x="96.12" y="-376.28" font-family="Arial" font-size="20.00" fill="blue"> start_next: 04/11/17, 14:07:00</text>
<text text-anchor="start" x="177.62" y="-356.28" font-family="Arial" font-size="20.00" fill="blue">gap: &#45;93sec</text>
<text text-anchor="start" x="100.12" y="-336.28" font-family="Arial" font-size="20.00" fill="blue">end_prev: 04/11/17, 14:08:33</text>
<text text-anchor="start" x="130.62" y="-316.28" font-family="Arial" font-weight="bold" font-size="20.00" fill="blue">Attacker: 10.0.254.31</text>
</g>
<!-- ARBITRARY CODE EXECUTION
ssdp | ID: 355 -->
<g id="node7" class="node">
<title>ARBITRARY CODE EXECUTION
ssdp | ID: 355</title>
<g id="a_node7"><a xlink:title="GPL MISC UPnP malformed advertisement">
<polygon fill="none" stroke="black" stroke-width="3" points="749.62,-226.85 374.62,-226.85 374.62,-166.85 749.62,-166.85 749.62,-226.85"/>
<text text-anchor="middle" x="562.12" y="-203.65" font-family="Arial" font-size="24.00">ARBITRARY CODE EXECUTION</text>
<text text-anchor="middle" x="562.12" y="-177.65" font-family="Arial" font-size="24.00">ssdp | ID: 355</text>
</a>
</g>
</g>
<!-- SERVICE DISCOVERY
unknown&#45;&gt;ARBITRARY CODE EXECUTION
ssdp | ID: 355 -->
<g id="edge6" class="edge">
<title>SERVICE DISCOVERY
unknown&#45;&gt;ARBITRARY CODE EXECUTION
ssdp | ID: 355</title>
<path fill="none" stroke="blue" stroke-width="5" d="M562.12,-85.08C562.12,-107.35 562.12,-134.61 562.12,-156.52"/>
<polygon fill="blue" stroke="blue" stroke-width="5" points="557.75,-156.8 562.12,-166.8 566.5,-156.8 557.75,-156.8"/>
<text text-anchor="middle" x="693.62" y="-142.85" font-family="Arial" font-size="20.00" fill="blue">start_next: 04/11/17, 16:28:56</text>
<text text-anchor="middle" x="693.62" y="-120.85" font-family="Arial" font-size="20.00" fill="blue">gap: 85sec</text>
<text text-anchor="middle" x="693.62" y="-98.85" font-family="Arial" font-size="20.00" fill="blue">end_prev: 04/11/17, 16:27:31</text>
</g>
<!-- VULNERABILTY DISCOVERY
ms&#45;sql&#45;s&#45;&gt;NETWORK DoS
ssdp | ID: 55 -->
<g id="edge3" class="edge">
<title>VULNERABILTY DISCOVERY
ms&#45;sql&#45;s&#45;&gt;NETWORK DoS
ssdp | ID: 55</title>
<path fill="none" stroke="blue" stroke-width="5" d="M412.44,-743.06C429.68,-748.84 443.35,-755.59 450.12,-763.41 458.52,-773.1 461.45,-800.73 462.2,-827.25"/>
<polygon fill="blue" stroke="blue" stroke-width="5" points="457.82,-827.4 462.38,-837.32 466.57,-827.24 457.82,-827.4"/>
<text text-anchor="middle" x="593.12" y="-813.41" font-family="Arial" font-size="20.00" fill="blue">start_next: 04/11/17, 14:08:11</text>
<text text-anchor="middle" x="593.12" y="-791.41" font-family="Arial" font-size="20.00" fill="blue">gap: 33sec</text>
<text text-anchor="middle" x="593.12" y="-769.41" font-family="Arial" font-size="20.00" fill="blue">end_prev: 04/11/17, 14:07:37</text>
</g>
<!-- VULNERABILTY DISCOVERY
ms&#45;sql&#45;s&#45;&gt;NETWORK DoS
ssdp | ID: 55 -->
<g id="edge15" class="edge">
<title>VULNERABILTY DISCOVERY
ms&#45;sql&#45;s&#45;&gt;NETWORK DoS
ssdp | ID: 55</title>
<path fill="none" stroke="blue" stroke-width="5" d="M191,-754.6C189.13,-757.42 187.48,-760.36 186.12,-763.41 174.18,-790.2 167.57,-806.69 186.12,-829.41 203.39,-850.55 258.2,-863.91 314.4,-872.25"/>
<polygon fill="blue" stroke="blue" stroke-width="5" points="314.01,-876.61 324.53,-873.7 315.25,-867.95 314.01,-876.61"/>
<text text-anchor="middle" x="317.62" y="-813.41" font-family="Arial" font-size="20.00" fill="blue">start_next: 04/11/17, 21:05:24</text>
<text text-anchor="middle" x="317.62" y="-791.41" font-family="Arial" font-size="20.00" fill="blue">gap: 33sec</text>
<text text-anchor="middle" x="317.62" y="-769.41" font-family="Arial" font-size="20.00" fill="blue">end_prev: 04/11/17, 21:04:51</text>
</g>
<!-- INFO DISCOVERY
xdmcp -->
<g id="node5" class="node">
<title>INFO DISCOVERY
xdmcp</title>
<g id="a_node5"><a xlink:title="GPL RPC xdmcp info query">
<ellipse fill="yellow" stroke="black" stroke-width="3" cx="837.12" cy="-351.28" rx="156.04" ry="42.35"/>
<text text-anchor="middle" x="837.12" y="-358.08" font-family="Arial" font-size="24.00">INFO DISCOVERY</text>
<text text-anchor="middle" x="837.12" y="-332.08" font-family="Arial" font-size="24.00">xdmcp</text>
</a>
</g>
</g>
<!-- VULNERABILTY DISCOVERY
postgresql -->
<g id="node6" class="node">
<title>VULNERABILTY DISCOVERY
postgresql</title>
<g id="a_node6"><a xlink:title="ET POLICY Suspicious inbound to mySQL port 3306&#10;ET POLICY Suspicious inbound to mSQL port 4333&#10;ET POLICY Suspicious inbound to MSSQL port 1433&#10;ET POLICY Suspicious inbound to Oracle SQL port 1521&#10;ET POLICY Suspicious inbound to PostgreSQL port 5432">
<ellipse fill="none" stroke="black" stroke-width="3" cx="1307.12" cy="-532.13" rx="241.25" ry="42.35"/>
<text text-anchor="middle" x="1307.12" y="-538.93" font-family="Arial" font-size="24.00">VULNERABILTY DISCOVERY</text>
<text text-anchor="middle" x="1307.12" y="-512.93" font-family="Arial" font-size="24.00">postgresql</text>
</a>
</g>
</g>
<!-- INFO DISCOVERY
xdmcp&#45;&gt;VULNERABILTY DISCOVERY
postgresql -->
<g id="edge4" class="edge">
<title>INFO DISCOVERY
xdmcp&#45;&gt;VULNERABILTY DISCOVERY
postgresql</title>
<path fill="none" stroke="blue" stroke-width="5" d="M973.9,-371.93C1007.97,-379.44 1038.21,-389.27 1050.12,-401.71 1075.15,-427.83 1039.75,-455.92 1065.12,-481.71 1073.3,-490.01 1088.91,-497.02 1108.43,-502.91"/>
<polygon fill="blue" stroke="blue" stroke-width="5" points="1107.5,-507.19 1118.32,-505.71 1109.89,-498.77 1107.5,-507.19"/>
<text text-anchor="start" x="1065.12" y="-466.71" font-family="Arial" font-size="20.00" fill="blue"> start_next: 04/11/17, 16:27:25</text>
<text text-anchor="start" x="1138.62" y="-446.71" font-family="Arial" font-size="20.00" fill="blue">gap: 8308sec</text>
<text text-anchor="start" x="1069.12" y="-426.71" font-family="Arial" font-size="20.00" fill="blue">end_prev: 04/11/17, 14:08:57</text>
<text text-anchor="start" x="1099.62" y="-406.71" font-family="Arial" font-weight="bold" font-size="20.00" fill="blue">Attacker: 10.0.254.31</text>
</g>
<!-- VULNERABILTY DISCOVERY
ncube&#45;lm -->
<g id="node8" class="node">
<title>VULNERABILTY DISCOVERY
ncube&#45;lm</title>
<g id="a_node8"><a xlink:title="ET POLICY Suspicious inbound to mySQL port 3306&#10;ET POLICY Suspicious inbound to mSQL port 4333&#10;ET POLICY Suspicious inbound to MSSQL port 1433&#10;ET POLICY Suspicious inbound to Oracle SQL port 1521&#10;ET POLICY Suspicious inbound to PostgreSQL port 5432">
<ellipse fill="none" stroke="black" stroke-width="3" cx="735.12" cy="-532.13" rx="241.25" ry="42.35"/>
<text text-anchor="middle" x="735.12" y="-538.93" font-family="Arial" font-size="24.00">VULNERABILTY DISCOVERY</text>
<text text-anchor="middle" x="735.12" y="-512.93" font-family="Arial" font-size="24.00">ncube&#45;lm</text>
</a>
</g>
</g>
<!-- INFO DISCOVERY
xdmcp&#45;&gt;VULNERABILTY DISCOVERY
ncube&#45;lm -->
<g id="edge8" class="edge">
<title>INFO DISCOVERY
xdmcp&#45;&gt;VULNERABILTY DISCOVERY
ncube&#45;lm</title>
<path fill="none" stroke="blue" stroke-width="5" d="M731.44,-382.54C712.8,-386.95 693.49,-390.93 675.12,-393.71 657.52,-396.37 527.39,-388.81 515.12,-401.71 490.62,-427.47 492.91,-453.94 515.12,-481.71 520.84,-488.85 531.81,-495.04 545.92,-500.37"/>
<polygon fill="blue" stroke="blue" stroke-width="5" points="544.74,-504.59 555.62,-503.76 547.62,-496.33 544.74,-504.59"/>
<text text-anchor="middle" x="646.62" y="-458.71" font-family="Arial" font-size="20.00" fill="blue">start_next: 04/11/17, 17:58:27</text>
<text text-anchor="middle" x="646.62" y="-436.71" font-family="Arial" font-size="20.00" fill="blue">gap: 5334sec</text>
<text text-anchor="middle" x="646.62" y="-414.71" font-family="Arial" font-size="20.00" fill="blue">end_prev: 04/11/17, 16:29:33</text>
</g>
<!-- INFO DISCOVERY
xdmcp&#45;&gt;VULNERABILTY DISCOVERY
ncube&#45;lm -->
<g id="edge11" class="edge">
<title>INFO DISCOVERY
xdmcp&#45;&gt;VULNERABILTY DISCOVERY
ncube&#45;lm</title>
<path fill="none" stroke="blue" stroke-width="5" d="M795.69,-392.43C793.63,-395.44 791.74,-398.54 790.12,-401.71 774.94,-431.4 787.9,-446.42 774.67,-480.84"/>
<polygon fill="blue" stroke="blue" stroke-width="5" points="770.65,-479.11 770.71,-490.03 778.68,-482.58 770.65,-479.11"/>
<text text-anchor="middle" x="921.62" y="-458.71" font-family="Arial" font-size="20.00" fill="blue">start_next: 04/11/17, 18:56:43</text>
<text text-anchor="middle" x="921.62" y="-436.71" font-family="Arial" font-size="20.00" fill="blue">gap: 3367sec</text>
<text text-anchor="middle" x="921.62" y="-414.71" font-family="Arial" font-size="20.00" fill="blue">end_prev: 04/11/17, 18:00:36</text>
</g>
<!-- VULNERABILTY DISCOVERY
postgresql&#45;&gt;SERVICE DISCOVERY
unknown -->
<g id="edge5" class="edge">
<title>VULNERABILTY DISCOVERY
postgresql&#45;&gt;SERVICE DISCOVERY
unknown</title>
<path fill="none" stroke="blue" stroke-width="5" d="M1327.91,-489.79C1328.78,-487.09 1329.53,-484.39 1330.12,-481.71 1337.81,-446.99 1345.97,-433.53 1330.12,-401.71 1275.26,-291.54 1213.67,-299.8 1109.12,-234.85 989.59,-160.6 959.48,-137.8 826.12,-92.85 795.89,-82.66 762.96,-74.39 730.93,-67.74"/>
<polygon fill="blue" stroke="blue" stroke-width="5" points="731.7,-63.43 721.02,-65.72 729.95,-72 731.7,-63.43"/>
<text text-anchor="middle" x="1367.62" y="-284.85" font-family="Arial" font-size="20.00" fill="blue">start_next: 04/11/17, 16:27:31</text>
<text text-anchor="middle" x="1367.62" y="-262.85" font-family="Arial" font-size="20.00" fill="blue">gap: &#45;28sec</text>
<text text-anchor="middle" x="1367.62" y="-240.85" font-family="Arial" font-size="20.00" fill="blue">end_prev: 04/11/17, 16:27:59</text>
</g>
<!-- ARBITRARY CODE EXECUTION
ssdp | ID: 355&#45;&gt;INFO DISCOVERY
xdmcp -->
<g id="edge7" class="edge">
<title>ARBITRARY CODE EXECUTION
ssdp | ID: 355&#45;&gt;INFO DISCOVERY
xdmcp</title>
<path fill="none" stroke="blue" stroke-width="5" d="M553.83,-227.21C549.26,-250.36 547.72,-281.81 566.12,-300.85 574.56,-309.59 663.14,-306.9 675.12,-308.85 689.93,-311.27 705.36,-314.4 720.56,-317.85"/>
<polygon fill="blue" stroke="blue" stroke-width="5" points="719.77,-322.16 730.51,-320.17 721.76,-313.64 719.77,-322.16"/>
<text text-anchor="middle" x="697.62" y="-284.85" font-family="Arial" font-size="20.00" fill="blue">start_next: 04/11/17, 16:29:29</text>
<text text-anchor="middle" x="697.62" y="-262.85" font-family="Arial" font-size="20.00" fill="blue">gap: 23sec</text>
<text text-anchor="middle" x="697.62" y="-240.85" font-family="Arial" font-size="20.00" fill="blue">end_prev: 04/11/17, 16:29:07</text>
</g>
<!-- ARBITRARY CODE EXECUTION
ssdp | ID: 355&#45;&gt;INFO DISCOVERY
xdmcp -->
<g id="edge10" class="edge">
<title>ARBITRARY CODE EXECUTION
ssdp | ID: 355&#45;&gt;INFO DISCOVERY
xdmcp</title>
<path fill="none" stroke="blue" stroke-width="5" d="M749.77,-207.78C784.45,-213.34 813.69,-221.85 826.12,-234.85 842.05,-251.5 845.94,-276.34 845.36,-298.72"/>
<polygon fill="blue" stroke="blue" stroke-width="5" points="840.99,-298.56 844.81,-308.78 849.72,-299.04 840.99,-298.56"/>
<text text-anchor="middle" x="976.62" y="-284.85" font-family="Arial" font-size="20.00" fill="blue">start_next: 04/11/17, 18:00:34</text>
<text text-anchor="middle" x="976.62" y="-262.85" font-family="Arial" font-size="20.00" fill="blue">gap: 27sec</text>
<text text-anchor="middle" x="976.62" y="-240.85" font-family="Arial" font-size="20.00" fill="blue">end_prev: 04/11/17, 18:00:07</text>
</g>
<!-- VULNERABILTY DISCOVERY
ncube&#45;lm&#45;&gt;ARBITRARY CODE EXECUTION
ssdp | ID: 355 -->
<g id="edge9" class="edge">
<title>VULNERABILTY DISCOVERY
ncube&#45;lm&#45;&gt;ARBITRARY CODE EXECUTION
ssdp | ID: 355</title>
<path fill="none" stroke="blue" stroke-width="5" d="M549.86,-504.9C531.11,-498.72 512.83,-491.1 496.12,-481.71 449.53,-455.5 433.71,-443.45 414.12,-393.71 400.31,-358.61 397.26,-342.58 414.12,-308.85 430.53,-276.04 461.76,-250.41 491.32,-232.09"/>
<polygon fill="blue" stroke="blue" stroke-width="5" points="493.68,-235.77 500.01,-226.87 489.18,-228.27 493.68,-235.77"/>
<text text-anchor="middle" x="545.62" y="-368.28" font-family="Arial" font-size="20.00" fill="blue">start_next: 04/11/17, 17:59:57</text>
<text text-anchor="middle" x="545.62" y="-346.28" font-family="Arial" font-size="20.00" fill="blue">gap: 56sec</text>
<text text-anchor="middle" x="545.62" y="-324.28" font-family="Arial" font-size="20.00" fill="blue">end_prev: 04/11/17, 17:59:02</text>
</g>
<!-- SERVICE DISCOVERY
netbios&#45;ssn -->
<g id="node9" class="node">
<title>SERVICE DISCOVERY
netbios&#45;ssn</title>
<g id="a_node9"><a xlink:title="ET SCAN Behavioral Unusual Port 445 traffic Potential Scan or Infection&#10;ET SCAN Behavioral Unusual Port 139 traffic Potential Scan or Infection">
<ellipse fill="none" stroke="black" stroke-width="3" cx="735.12" cy="-712.98" rx="189.51" ry="42.35"/>
<text text-anchor="middle" x="735.12" y="-719.78" font-family="Arial" font-size="24.00">SERVICE DISCOVERY</text>
<text text-anchor="middle" x="735.12" y="-693.78" font-family="Arial" font-size="24.00">netbios&#45;ssn</text>
</a>
</g>
</g>
<!-- VULNERABILTY DISCOVERY
ncube&#45;lm&#45;&gt;SERVICE DISCOVERY
netbios&#45;ssn -->
<g id="edge12" class="edge">
<title>VULNERABILTY DISCOVERY
ncube&#45;lm&#45;&gt;SERVICE DISCOVERY
netbios&#45;ssn</title>
<path fill="none" stroke="blue" stroke-width="5" d="M735.12,-574.61C735.12,-600.14 735.12,-633.07 735.12,-660.29"/>
<polygon fill="blue" stroke="blue" stroke-width="5" points="730.75,-660.42 735.12,-670.42 739.5,-660.42 730.75,-660.42"/>
<text text-anchor="middle" x="866.62" y="-639.56" font-family="Arial" font-size="20.00" fill="blue">start_next: 04/11/17, 18:57:15</text>
<text text-anchor="middle" x="866.62" y="-617.56" font-family="Arial" font-size="20.00" fill="blue">gap: 5sec</text>
<text text-anchor="middle" x="866.62" y="-595.56" font-family="Arial" font-size="20.00" fill="blue">end_prev: 04/11/17, 18:57:10</text>
</g>
<!-- SERVICE DISCOVERY
netbios&#45;ssn&#45;&gt;NETWORK DoS
ssdp | ID: 55 -->
<g id="edge13" class="edge">
<title>SERVICE DISCOVERY
netbios&#45;ssn&#45;&gt;NETWORK DoS
ssdp | ID: 55</title>
<path fill="none" stroke="blue" stroke-width="5" d="M742.37,-755.59C744.14,-779.96 741.67,-809.73 724.12,-829.41 707.16,-848.44 656.81,-861.42 604.64,-870.06"/>
<polygon fill="blue" stroke="blue" stroke-width="5" points="603.72,-865.77 594.54,-871.67 605.1,-874.41 603.72,-865.77"/>
<text text-anchor="middle" x="873.62" y="-813.41" font-family="Arial" font-size="20.00" fill="blue">start_next: 04/11/17, 18:57:50</text>
<text text-anchor="middle" x="873.62" y="-791.41" font-family="Arial" font-size="20.00" fill="blue">gap: 34sec</text>
<text text-anchor="middle" x="873.62" y="-769.41" font-family="Arial" font-size="20.00" fill="blue">end_prev: 04/11/17, 18:57:16</text>
</g>
<!-- SERVICE DISCOVERY
ssh -->
<g id="node10" class="node">
<title>SERVICE DISCOVERY
ssh</title>
<g id="a_node10"><a xlink:title="ET SCAN Potential VNC Scan 5800&#45;5820&#10;ET SCAN Potential SSH Scan&#10;ET SCAN Potential VNC Scan 5900&#45;5920">
<ellipse fill="yellow" stroke="black" stroke-width="3" cx="297.12" cy="-532.13" rx="189.51" ry="42.35"/>
<text text-anchor="middle" x="297.12" y="-538.93" font-family="Arial" font-size="24.00">SERVICE DISCOVERY</text>
<text text-anchor="middle" x="297.12" y="-512.93" font-family="Arial" font-size="24.00">ssh</text>
</a>
</g>
</g>
<!-- SERVICE DISCOVERY
ssh&#45;&gt;VULNERABILTY DISCOVERY
ms&#45;sql&#45;s -->
<g id="edge14" class="edge">
<title>SERVICE DISCOVERY
ssh&#45;&gt;VULNERABILTY DISCOVERY
ms&#45;sql&#45;s</title>
<path fill="none" stroke="blue" stroke-width="5" d="M284.14,-574.61C276.11,-600.26 265.74,-633.36 257.2,-660.65"/>
<polygon fill="blue" stroke="blue" stroke-width="5" points="252.95,-659.57 254.14,-670.42 261.3,-662.18 252.95,-659.57"/>
<text text-anchor="start" x="280.12" y="-647.56" font-family="Arial" font-size="20.00" fill="blue"> start_next: 04/11/17, 21:04:17</text>
<text text-anchor="start" x="356.12" y="-627.56" font-family="Arial" font-size="20.00" fill="blue">gap: &#45;165sec</text>
<text text-anchor="start" x="284.12" y="-607.56" font-family="Arial" font-size="20.00" fill="blue">end_prev: 04/11/17, 21:07:02</text>
<text text-anchor="start" x="314.62" y="-587.56" font-family="Arial" font-weight="bold" font-size="20.00" fill="blue">Attacker: 10.0.254.31</text>
</g>
</g>
</svg>
