<?xml version="1.0" encoding="UTF-8" standalone="no"?>
<!DOCTYPE svg PUBLIC "-//W3C//DTD SVG 1.1//EN"
 "http://www.w3.org/Graphics/SVG/1.1/DTD/svg11.dtd">
<!-- Generated by graphviz version 2.50.0 (0)
 -->
<!-- Title: NETWORKDOShttp Pages: 1 -->
<svg width="1840pt" height="1471pt"
 viewBox="0.00 0.00 1839.50 1470.85" xmlns="http://www.w3.org/2000/svg" xmlns:xlink="http://www.w3.org/1999/xlink">
<g id="graph0" class="graph" transform="scale(1 1) rotate(0) translate(4 1466.85)">
<title>NETWORKDOShttp</title>
<polygon fill="white" stroke="transparent" points="-4,4 -4,-1466.85 1835.5,-1466.85 1835.5,4 -4,4"/>
<!-- Victim: 10.0.0.72
NETWORK DoS
http -->
<g id="node1" class="node">
<title>Victim: 10.0.0.72
NETWORK DoS
http</title>
<polygon fill="salmon" stroke="black" stroke-width="3" points="1175.07,-1365.83 1175.07,-1420.22 1086.87,-1458.68 962.14,-1458.68 873.94,-1420.22 873.94,-1365.83 962.14,-1327.37 1086.87,-1327.37 1175.07,-1365.83"/>
<polygon fill="none" stroke="black" stroke-width="3" points="1179.06,-1363.22 1179.06,-1422.83 1087.7,-1462.67 961.31,-1462.67 869.95,-1422.83 869.95,-1363.22 961.31,-1323.38 1087.7,-1323.38 1179.06,-1363.22"/>
<text text-anchor="middle" x="1024.5" y="-1412.82" font-family="Arial" font-size="24.00">Victim: 10.0.0.72</text>
<text text-anchor="middle" x="1024.5" y="-1386.82" font-family="Arial" font-size="24.00">NETWORK DoS</text>
<text text-anchor="middle" x="1024.5" y="-1360.82" font-family="Arial" font-size="24.00">http</text>
</g>
<!-- NETWORK DoS
http | ID: 50 -->
<g id="node2" class="node">
<title>NETWORK DoS
http | ID: 50</title>
<g id="a_node2"><a xlink:title="ET SCAN Apache mod_deflate DoS via many multiple byte Range values">
<polygon fill="salmon" stroke="black" stroke-width="3" points="1181.04,-1257.21 1102.77,-1306.19 946.24,-1306.19 867.97,-1257.21 946.24,-1208.23 1102.77,-1208.23 1181.04,-1257.21"/>
<text text-anchor="middle" x="1024.5" y="-1264.01" font-family="Arial" font-size="24.00">NETWORK DoS</text>
<text text-anchor="middle" x="1024.5" y="-1238.01" font-family="Arial" font-size="24.00">http | ID: 50</text>
</a>
</g>
</g>
<!-- NETWORK DoS
http | ID: 50&#45;&gt;Victim: 10.0.0.72
NETWORK DoS
http -->
<g id="edge1" class="edge">
<title>NETWORK DoS
http | ID: 50&#45;&gt;Victim: 10.0.0.72
NETWORK DoS
http</title>
<path fill="none" stroke="black" stroke-width="5" d="M1024.5,-1306.52C1024.5,-1308.63 1024.5,-1310.76 1024.5,-1312.91"/>
<polygon fill="black" stroke="black" stroke-width="5" points="1020.13,-1313.06 1024.5,-1323.06 1028.88,-1313.06 1020.13,-1313.06"/>
</g>
<!-- VULNERABILTY DISCOVERY
ms&#45;sql&#45;s -->
<g id="node3" class="node">
<title>VULNERABILTY DISCOVERY
ms&#45;sql&#45;s</title>
<g id="a_node3"><a xlink:title="ET POLICY Suspicious inbound to MSSQL port 1433">
<ellipse fill="yellow" stroke="black" stroke-width="3" cx="474.5" cy="-376.13" rx="241.25" ry="42.35"/>
<text text-anchor="middle" x="474.5" y="-382.93" font-family="Arial" font-size="24.00">VULNERABILTY DISCOVERY</text>
<text text-anchor="middle" x="474.5" y="-356.93" font-family="Arial" font-size="24.00">ms&#45;sql&#45;s</text>
</a>
</g>
</g>
<!-- SERVICE DISCOVERY
unknown -->
<g id="node4" class="node">
<title>SERVICE DISCOVERY
unknown</title>
<g id="a_node4"><a xlink:title="ET SCAN Potential VNC Scan 5800&#45;5820&#10;ET SCAN Behavioral Unusual Port 445 traffic Potential Scan or Infection&#10;ET SCAN Potential VNC Scan 5900&#45;5920">
<ellipse fill="none" stroke="black" stroke-width="3" cx="189.5" cy="-556.98" rx="189.51" ry="42.35"/>
<text text-anchor="middle" x="189.5" y="-563.78" font-family="Arial" font-size="24.00">SERVICE DISCOVERY</text>
<text text-anchor="middle" x="189.5" y="-537.78" font-family="Arial" font-size="24.00">unknown</text>
</a>
</g>
</g>
<!-- VULNERABILTY DISCOVERY
ms&#45;sql&#45;s&#45;&gt;SERVICE DISCOVERY
unknown -->
<g id="edge2" class="edge">
<title>VULNERABILTY DISCOVERY
ms&#45;sql&#45;s&#45;&gt;SERVICE DISCOVERY
unknown</title>
<path fill="none" stroke="darkgreen" stroke-width="5" d="M269.28,-398.53C239.25,-405.45 214.66,-414.56 203.5,-426.56 193.1,-437.75 189.78,-473.22 188.96,-504.21"/>
<polygon fill="darkgreen" stroke="darkgreen" stroke-width="5" points="184.59,-504.43 188.78,-514.5 193.33,-504.59 184.59,-504.43"/>
<text text-anchor="start" x="203.5" y="-491.56" font-family="Arial" font-size="20.00" fill="darkgreen"> start_next: 04/11/17, 13:33:43</text>
<text text-anchor="start" x="288.5" y="-471.56" font-family="Arial" font-size="20.00" fill="darkgreen">gap: 82sec</text>
<text text-anchor="start" x="207.5" y="-451.56" font-family="Arial" font-size="20.00" fill="darkgreen">end_prev: 04/11/17, 13:32:21</text>
<text text-anchor="start" x="238" y="-431.56" font-family="Arial" font-weight="bold" font-size="20.00" fill="darkgreen">Attacker: 10.0.254.35</text>
</g>
<!-- SERVICE DISCOVERY
ag&#45;swim -->
<g id="node7" class="node">
<title>SERVICE DISCOVERY
ag&#45;swim</title>
<g id="a_node7"><a xlink:title="ET SCAN Potential VNC Scan 5900&#45;5920">
<ellipse fill="none" stroke="black" stroke-width="3" cx="608.5" cy="-556.98" rx="189.51" ry="42.35"/>
<text text-anchor="middle" x="608.5" y="-563.78" font-family="Arial" font-size="24.00">SERVICE DISCOVERY</text>
<text text-anchor="middle" x="608.5" y="-537.78" font-family="Arial" font-size="24.00">ag&#45;swim</text>
</a>
</g>
</g>
<!-- VULNERABILTY DISCOVERY
ms&#45;sql&#45;s&#45;&gt;SERVICE DISCOVERY
ag&#45;swim -->
<g id="edge6" class="edge">
<title>VULNERABILTY DISCOVERY
ms&#45;sql&#45;s&#45;&gt;SERVICE DISCOVERY
ag&#45;swim</title>
<path fill="none" stroke="darkgreen" stroke-width="5" d="M472.01,-418.62C470.91,-451.08 471.64,-492.94 481.5,-506.56 483.83,-509.77 486.39,-512.76 489.15,-515.57"/>
<polygon fill="darkgreen" stroke="darkgreen" stroke-width="5" points="486.53,-519.1 496.89,-522.54 492.39,-512.6 486.53,-519.1"/>
<text text-anchor="middle" x="613" y="-483.56" font-family="Arial" font-size="20.00" fill="darkgreen">start_next: 04/11/17, 13:52:28</text>
<text text-anchor="middle" x="613" y="-461.56" font-family="Arial" font-size="20.00" fill="darkgreen">gap: 138sec</text>
<text text-anchor="middle" x="613" y="-439.56" font-family="Arial" font-size="20.00" fill="darkgreen">end_prev: 04/11/17, 13:50:10</text>
</g>
<!-- HOST DISCOVERY
http -->
<g id="node5" class="node">
<title>HOST DISCOVERY
http</title>
<g id="a_node5"><a xlink:title="ET SCAN Possible Nmap User&#45;Agent Observed&#10;ET SCAN Nmap Scripting Engine User&#45;Agent Detected (Nmap Scripting Engine)">
<ellipse fill="none" stroke="black" stroke-width="3" cx="886.5" cy="-42.43" rx="162.77" ry="42.35"/>
<text text-anchor="middle" x="886.5" y="-49.23" font-family="Arial" font-size="24.00">HOST DISCOVERY</text>
<text text-anchor="middle" x="886.5" y="-23.23" font-family="Arial" font-size="24.00">http</text>
</a>
</g>
</g>
<!-- SERVICE DISCOVERY
unknown&#45;&gt;HOST DISCOVERY
http -->
<g id="edge3" class="edge">
<title>SERVICE DISCOVERY
unknown&#45;&gt;HOST DISCOVERY
http</title>
<path fill="none" stroke="darkgreen" stroke-width="5" d="M188.13,-514.56C187.62,-489.13 187.58,-455.93 189.5,-426.56 197.54,-304.22 185.13,-241.35 282.5,-166.85 351.53,-114.05 379.35,-114.54 463.5,-92.85 545.64,-71.69 639.12,-59.56 717.27,-52.63"/>
<polygon fill="darkgreen" stroke="darkgreen" stroke-width="5" points="718.11,-56.95 727.7,-51.73 717.36,-48.23 718.11,-56.95"/>
<text text-anchor="middle" x="340" y="-309.71" font-family="Arial" font-size="20.00" fill="darkgreen">start_next: 04/11/17, 13:40:15</text>
<text text-anchor="middle" x="340" y="-287.71" font-family="Arial" font-size="20.00" fill="darkgreen">gap: 312sec</text>
<text text-anchor="middle" x="340" y="-265.71" font-family="Arial" font-size="20.00" fill="darkgreen">end_prev: 04/11/17, 13:35:03</text>
</g>
<!-- SERVICE DISCOVERY
rfb -->
<g id="node6" class="node">
<title>SERVICE DISCOVERY
rfb</title>
<g id="a_node6"><a xlink:title="ET SCAN Potential VNC Scan 5900&#45;5920">
<ellipse fill="none" stroke="black" stroke-width="3" cx="475.5" cy="-209.28" rx="189.51" ry="42.35"/>
<text text-anchor="middle" x="475.5" y="-216.08" font-family="Arial" font-size="24.00">SERVICE DISCOVERY</text>
<text text-anchor="middle" x="475.5" y="-190.08" font-family="Arial" font-size="24.00">rfb</text>
</a>
</g>
</g>
<!-- HOST DISCOVERY
http&#45;&gt;SERVICE DISCOVERY
rfb -->
<g id="edge4" class="edge">
<title>HOST DISCOVERY
http&#45;&gt;SERVICE DISCOVERY
rfb</title>
<path fill="none" stroke="darkgreen" stroke-width="5" d="M728.98,-53.03C622.69,-61.13 498.75,-74.37 481.5,-92.85 465.84,-109.65 462.98,-134.5 464.61,-156.85"/>
<polygon fill="darkgreen" stroke="darkgreen" stroke-width="5" points="460.27,-157.4 465.65,-166.9 468.97,-156.51 460.27,-157.4"/>
<text text-anchor="middle" x="613" y="-142.85" font-family="Arial" font-size="20.00" fill="darkgreen">start_next: 04/11/17, 13:44:14</text>
<text text-anchor="middle" x="613" y="-120.85" font-family="Arial" font-size="20.00" fill="darkgreen">gap: 238sec</text>
<text text-anchor="middle" x="613" y="-98.85" font-family="Arial" font-size="20.00" fill="darkgreen">end_prev: 04/11/17, 13:40:15</text>
</g>
<!-- VULNERABILTY DISCOVERY
http -->
<g id="node8" class="node">
<title>VULNERABILTY DISCOVERY
http</title>
<g id="a_node8"><a xlink:title="ET POLICY Suspicious inbound to mySQL port 3306&#10;ET POLICY Suspicious inbound to mSQL port 4333&#10;ET POLICY Suspicious inbound to MSSQL port 1433&#10;ET POLICY Suspicious inbound to Oracle SQL port 1521&#10;ET CURRENT_EVENTS Malformed HeartBeat Request&#10;ET POLICY Suspicious inbound to PostgreSQL port 5432&#10;ET SCAN Nikto Web App Scan in Progress&#10;ET SCAN OpenVAS User&#45;Agent Inbound">
<ellipse fill="none" stroke="black" stroke-width="3" cx="1562.5" cy="-209.28" rx="241.25" ry="42.35"/>
<text text-anchor="middle" x="1562.5" y="-216.08" font-family="Arial" font-size="24.00">VULNERABILTY DISCOVERY</text>
<text text-anchor="middle" x="1562.5" y="-190.08" font-family="Arial" font-size="24.00">http</text>
</a>
</g>
</g>
<!-- HOST DISCOVERY
http&#45;&gt;VULNERABILTY DISCOVERY
http -->
<g id="edge8" class="edge">
<title>HOST DISCOVERY
http&#45;&gt;VULNERABILTY DISCOVERY
http</title>
<path fill="none" stroke="darkgreen" stroke-width="5" d="M1045.99,-50.91C1124.87,-57.47 1220.85,-69.77 1304.5,-92.85 1365.96,-109.81 1431.48,-139.28 1481.12,-164.2"/>
<polygon fill="darkgreen" stroke="darkgreen" stroke-width="5" points="1479.3,-168.18 1490.2,-168.79 1483.25,-160.37 1479.3,-168.18"/>
<text text-anchor="middle" x="1598" y="-142.85" font-family="Arial" font-size="20.00" fill="darkgreen">start_next: 04/11/17, 22:04:25</text>
<text text-anchor="middle" x="1598" y="-120.85" font-family="Arial" font-size="20.00" fill="darkgreen">gap: 29303sec</text>
<text text-anchor="middle" x="1598" y="-98.85" font-family="Arial" font-size="20.00" fill="darkgreen">end_prev: 04/11/17, 13:56:02</text>
</g>
<!-- SURFING
http -->
<g id="node11" class="node">
<title>SURFING
http</title>
<g id="a_node11"><a xlink:title="ET WEB_SERVER WEB&#45;PHP phpinfo access">
<ellipse fill="none" stroke="black" stroke-width="3" cx="955.5" cy="-209.28" rx="88.28" ry="42.35"/>
<text text-anchor="middle" x="955.5" y="-216.08" font-family="Arial" font-size="24.00">SURFING</text>
<text text-anchor="middle" x="955.5" y="-190.08" font-family="Arial" font-size="24.00">http</text>
</a>
</g>
</g>
<!-- HOST DISCOVERY
http&#45;&gt;SURFING
http -->
<g id="edge12" class="edge">
<title>HOST DISCOVERY
http&#45;&gt;SURFING
http</title>
<path fill="none" stroke="darkgreen" stroke-width="5" d="M903.92,-85.03C913.21,-107.24 924.73,-134.75 934.52,-158.14"/>
<polygon fill="darkgreen" stroke="darkgreen" stroke-width="5" points="930.56,-160.01 938.46,-167.55 938.63,-156.64 930.56,-160.01"/>
<text text-anchor="middle" x="1065" y="-142.85" font-family="Arial" font-size="20.00" fill="darkgreen">start_next: 04/11/17, 22:10:16</text>
<text text-anchor="middle" x="1065" y="-120.85" font-family="Arial" font-size="20.00" fill="darkgreen">gap: 9sec</text>
<text text-anchor="middle" x="1065" y="-98.85" font-family="Arial" font-size="20.00" fill="darkgreen">end_prev: 04/11/17, 22:10:07</text>
</g>
<!-- SERVICE DISCOVERY
rfb&#45;&gt;VULNERABILTY DISCOVERY
ms&#45;sql&#45;s -->
<g id="edge5" class="edge">
<title>SERVICE DISCOVERY
rfb&#45;&gt;VULNERABILTY DISCOVERY
ms&#45;sql&#45;s</title>
<path fill="none" stroke="darkgreen" stroke-width="5" d="M475.25,-251.88C475.12,-273.55 474.96,-300.26 474.82,-323.27"/>
<polygon fill="darkgreen" stroke="darkgreen" stroke-width="5" points="470.44,-323.52 474.76,-333.55 479.19,-323.57 470.44,-323.52"/>
<text text-anchor="middle" x="607" y="-309.71" font-family="Arial" font-size="20.00" fill="darkgreen">start_next: 04/11/17, 13:50:10</text>
<text text-anchor="middle" x="607" y="-287.71" font-family="Arial" font-size="20.00" fill="darkgreen">gap: 356sec</text>
<text text-anchor="middle" x="607" y="-265.71" font-family="Arial" font-size="20.00" fill="darkgreen">end_prev: 04/11/17, 13:44:14</text>
</g>
<!-- SERVICE DISCOVERY
ag&#45;swim&#45;&gt;HOST DISCOVERY
http -->
<g id="edge7" class="edge">
<title>SERVICE DISCOVERY
ag&#45;swim&#45;&gt;HOST DISCOVERY
http</title>
<path fill="none" stroke="darkgreen" stroke-width="5" d="M725.22,-523.38C731.37,-518.53 736.9,-512.96 741.5,-506.56 805.61,-417.46 717.22,-364.62 749.5,-259.71 768.99,-196.38 812.23,-133.47 844.96,-91.97"/>
<polygon fill="darkgreen" stroke="darkgreen" stroke-width="5" points="848.53,-94.5 851.36,-83.96 841.7,-89.04 848.53,-94.5"/>
<text text-anchor="middle" x="881" y="-309.71" font-family="Arial" font-size="20.00" fill="darkgreen">start_next: 04/11/17, 13:56:02</text>
<text text-anchor="middle" x="881" y="-287.71" font-family="Arial" font-size="20.00" fill="darkgreen">gap: 214sec</text>
<text text-anchor="middle" x="881" y="-265.71" font-family="Arial" font-size="20.00" fill="darkgreen">end_prev: 04/11/17, 13:52:28</text>
</g>
<!-- SERVICE DISCOVERY
icmpd -->
<g id="node9" class="node">
<title>SERVICE DISCOVERY
icmpd</title>
<g id="a_node9"><a xlink:title="ET SCAN Potential VNC Scan 5800&#45;5820&#10;ET SCAN Potential SSH Scan&#10;ET SCAN NMAP OS Detection Probe">
<ellipse fill="none" stroke="black" stroke-width="3" cx="1537.5" cy="-376.13" rx="189.51" ry="42.35"/>
<text text-anchor="middle" x="1537.5" y="-382.93" font-family="Arial" font-size="24.00">SERVICE DISCOVERY</text>
<text text-anchor="middle" x="1537.5" y="-356.93" font-family="Arial" font-size="24.00">icmpd</text>
</a>
</g>
</g>
<!-- VULNERABILTY DISCOVERY
http&#45;&gt;SERVICE DISCOVERY
icmpd -->
<g id="edge9" class="edge">
<title>VULNERABILTY DISCOVERY
http&#45;&gt;SERVICE DISCOVERY
icmpd</title>
<path fill="none" stroke="darkgreen" stroke-width="5" d="M1567.8,-251.72C1569.24,-271.62 1569.42,-295.89 1563.39,-323.86"/>
<polygon fill="darkgreen" stroke="darkgreen" stroke-width="5" points="1559.06,-323.16 1560.99,-333.9 1567.57,-325.19 1559.06,-323.16"/>
<text text-anchor="middle" x="1700" y="-309.71" font-family="Arial" font-size="20.00" fill="darkgreen">start_next: 04/11/17, 22:05:56</text>
<text text-anchor="middle" x="1700" y="-287.71" font-family="Arial" font-size="20.00" fill="darkgreen">gap: &#45;326sec</text>
<text text-anchor="middle" x="1700" y="-265.71" font-family="Arial" font-size="20.00" fill="darkgreen">end_prev: 04/11/17, 22:11:22</text>
</g>
<!-- BRUTE FORCE CREDENTIALS
pop3 | ID: 46 -->
<g id="node10" class="node">
<title>BRUTE FORCE CREDENTIALS
pop3 | ID: 46</title>
<g id="a_node10"><a xlink:title="ET SCAN Rapid POP3 Connections &#45; Possible Brute Force Attack">
<polygon fill="none" stroke="black" stroke-width="3" points="1649.5,-586.98 1287.5,-586.98 1287.5,-526.98 1649.5,-526.98 1649.5,-586.98"/>
<text text-anchor="middle" x="1468.5" y="-563.78" font-family="Arial" font-size="24.00">BRUTE FORCE CREDENTIALS</text>
<text text-anchor="middle" x="1468.5" y="-537.78" font-family="Arial" font-size="24.00">pop3 | ID: 46</text>
</a>
</g>
</g>
<!-- SERVICE DISCOVERY
icmpd&#45;&gt;BRUTE FORCE CREDENTIALS
pop3 | ID: 46 -->
<g id="edge10" class="edge">
<title>SERVICE DISCOVERY
icmpd&#45;&gt;BRUTE FORCE CREDENTIALS
pop3 | ID: 46</title>
<path fill="none" stroke="darkgreen" stroke-width="5" d="M1521.5,-418.61C1510.02,-448.37 1494.66,-488.19 1483.43,-517.3"/>
<polygon fill="darkgreen" stroke="darkgreen" stroke-width="5" points="1479.31,-515.82 1479.79,-526.73 1487.47,-518.97 1479.31,-515.82"/>
<text text-anchor="middle" x="1648" y="-483.56" font-family="Arial" font-size="20.00" fill="darkgreen">start_next: 04/11/17, 22:05:58</text>
<text text-anchor="middle" x="1648" y="-461.56" font-family="Arial" font-size="20.00" fill="darkgreen">gap: &#45;247sec</text>
<text text-anchor="middle" x="1648" y="-439.56" font-family="Arial" font-size="20.00" fill="darkgreen">end_prev: 04/11/17, 22:10:06</text>
</g>
<!-- BRUTE FORCE CREDENTIALS
pop3 | ID: 46&#45;&gt;HOST DISCOVERY
http -->
<g id="edge11" class="edge">
<title>BRUTE FORCE CREDENTIALS
pop3 | ID: 46&#45;&gt;HOST DISCOVERY
http</title>
<path fill="none" stroke="darkgreen" stroke-width="5" d="M1437.78,-526.95C1410.9,-500.46 1371.97,-459.34 1344.5,-418.56 1318.89,-380.52 1313.42,-369.4 1299.5,-325.71 1290.48,-297.37 1298.2,-287.82 1288.5,-259.71 1260.96,-179.86 1266.52,-141.56 1197.5,-92.85 1173.12,-75.65 1112.98,-64.13 1052,-56.57"/>
<polygon fill="darkgreen" stroke="darkgreen" stroke-width="5" points="1052.27,-52.2 1041.82,-55.35 1051.23,-60.88 1052.27,-52.2"/>
<text text-anchor="middle" x="1431" y="-309.71" font-family="Arial" font-size="20.00" fill="darkgreen">start_next: 04/11/17, 22:10:07</text>
<text text-anchor="middle" x="1431" y="-287.71" font-family="Arial" font-size="20.00" fill="darkgreen">gap: 249sec</text>
<text text-anchor="middle" x="1431" y="-265.71" font-family="Arial" font-size="20.00" fill="darkgreen">end_prev: 04/11/17, 22:05:58</text>
</g>
<!-- USER PRIVILEGE ESCALATION
http | ID: 274 -->
<g id="node12" class="node">
<title>USER PRIVILEGE ESCALATION
http | ID: 274</title>
<g id="a_node12"><a xlink:title="ET POLICY Outgoing Basic Auth Base64 HTTP Password detected unencrypted&#10;ET POLICY Incoming Basic Auth Base64 HTTP Password detected unencrypted">
<polygon fill="none" stroke="black" stroke-width="3" points="1210.5,-406.13 838.5,-406.13 838.5,-346.13 1210.5,-346.13 1210.5,-406.13"/>
<text text-anchor="middle" x="1024.5" y="-382.93" font-family="Arial" font-size="24.00">USER PRIVILEGE ESCALATION</text>
<text text-anchor="middle" x="1024.5" y="-356.93" font-family="Arial" font-size="24.00">http | ID: 274</text>
</a>
</g>
</g>
<!-- SURFING
http&#45;&gt;USER PRIVILEGE ESCALATION
http | ID: 274 -->
<g id="edge13" class="edge">
<title>SURFING
http&#45;&gt;USER PRIVILEGE ESCALATION
http | ID: 274</title>
<path fill="none" stroke="darkgreen" stroke-width="5" d="M1003.42,-245.2C1007.34,-249.69 1010.82,-254.54 1013.5,-259.71 1025.6,-282.93 1028.24,-312.36 1027.92,-335.68"/>
<polygon fill="darkgreen" stroke="darkgreen" stroke-width="5" points="1023.53,-335.79 1027.58,-345.93 1032.28,-336.08 1023.53,-335.79"/>
<text text-anchor="middle" x="1160" y="-309.71" font-family="Arial" font-size="20.00" fill="darkgreen">start_next: 04/11/17, 22:10:23</text>
<text text-anchor="middle" x="1160" y="-287.71" font-family="Arial" font-size="20.00" fill="darkgreen">gap: &#45;52sec</text>
<text text-anchor="middle" x="1160" y="-265.71" font-family="Arial" font-size="20.00" fill="darkgreen">end_prev: 04/11/17, 22:11:15</text>
</g>
<!-- ARBITRARY CODE EXECUTION
http | ID: 32 -->
<g id="node13" class="node">
<title>ARBITRARY CODE EXECUTION
http | ID: 32</title>
<g id="a_node13"><a xlink:title="ET CURRENT_EVENTS QNAP Shellshock CVE&#45;2014&#45;6271">
<polygon fill="none" stroke="black" stroke-width="3" points="1212,-586.98 837,-586.98 837,-526.98 1212,-526.98 1212,-586.98"/>
<text text-anchor="middle" x="1024.5" y="-563.78" font-family="Arial" font-size="24.00">ARBITRARY CODE EXECUTION</text>
<text text-anchor="middle" x="1024.5" y="-537.78" font-family="Arial" font-size="24.00">http | ID: 32</text>
</a>
</g>
</g>
<!-- USER PRIVILEGE ESCALATION
http | ID: 274&#45;&gt;ARBITRARY CODE EXECUTION
http | ID: 32 -->
<g id="edge14" class="edge">
<title>USER PRIVILEGE ESCALATION
http | ID: 274&#45;&gt;ARBITRARY CODE EXECUTION
http | ID: 32</title>
<path fill="none" stroke="darkgreen" stroke-width="5" d="M1024.5,-406.27C1024.5,-436.28 1024.5,-483.24 1024.5,-516.56"/>
<polygon fill="darkgreen" stroke="darkgreen" stroke-width="5" points="1020.13,-516.86 1024.5,-526.86 1028.88,-516.86 1020.13,-516.86"/>
<text text-anchor="middle" x="1156" y="-483.56" font-family="Arial" font-size="20.00" fill="darkgreen">start_next: 04/11/17, 22:10:26</text>
<text text-anchor="middle" x="1156" y="-461.56" font-family="Arial" font-size="20.00" fill="darkgreen">gap: &#45;18sec</text>
<text text-anchor="middle" x="1156" y="-439.56" font-family="Arial" font-size="20.00" fill="darkgreen">end_prev: 04/11/17, 22:10:45</text>
</g>
<!-- INFO DISCOVERY
http -->
<g id="node14" class="node">
<title>INFO DISCOVERY
http</title>
<g id="a_node14"><a xlink:title="GPL WEB_SERVER globals.pl access">
<ellipse fill="none" stroke="black" stroke-width="3" cx="1024.5" cy="-723.84" rx="156.04" ry="42.35"/>
<text text-anchor="middle" x="1024.5" y="-730.64" font-family="Arial" font-size="24.00">INFO DISCOVERY</text>
<text text-anchor="middle" x="1024.5" y="-704.64" font-family="Arial" font-size="24.00">http</text>
</a>
</g>
</g>
<!-- ARBITRARY CODE EXECUTION
http | ID: 32&#45;&gt;INFO DISCOVERY
http -->
<g id="edge15" class="edge">
<title>ARBITRARY CODE EXECUTION
http | ID: 32&#45;&gt;INFO DISCOVERY
http</title>
<path fill="none" stroke="darkgreen" stroke-width="5" d="M1024.5,-587.08C1024.5,-610.27 1024.5,-643.34 1024.5,-671.04"/>
<polygon fill="darkgreen" stroke="darkgreen" stroke-width="5" points="1020.13,-671.36 1024.5,-681.36 1028.88,-671.36 1020.13,-671.36"/>
<text text-anchor="middle" x="1156" y="-657.41" font-family="Arial" font-size="20.00" fill="darkgreen">start_next: 04/11/17, 22:10:29</text>
<text text-anchor="middle" x="1156" y="-635.41" font-family="Arial" font-size="20.00" fill="darkgreen">gap: &#45;46sec</text>
<text text-anchor="middle" x="1156" y="-613.41" font-family="Arial" font-size="20.00" fill="darkgreen">end_prev: 04/11/17, 22:11:15</text>
</g>
<!-- DATA EXFILTRATION
http | ID: 876 -->
<g id="node15" class="node">
<title>DATA EXFILTRATION
http | ID: 876</title>
<g id="a_node15"><a xlink:title="ET WEB_SPECIFIC_APPS PHP&#45;CGI query string parameter vulnerability&#10;ET WEB_SERVER DD&#45;WRT Information Disclosure Attempt&#10;ET CURRENT_EVENTS Possible TLS HeartBleed Unencrypted Request Method 3 (Inbound to Common SSL Port)&#10;ET INFO WinHttp AutoProxy Request wpad.dat Possible BadTunnel">
<polygon fill="none" stroke="black" stroke-width="3" stroke-dasharray="1,5" points="1229.39,-897.25 1126.95,-946.23 922.06,-946.23 819.62,-897.25 922.06,-848.27 1126.95,-848.27 1229.39,-897.25"/>
<text text-anchor="middle" x="1024.5" y="-904.05" font-family="Arial" font-size="24.00">DATA EXFILTRATION</text>
<text text-anchor="middle" x="1024.5" y="-878.05" font-family="Arial" font-size="24.00">http | ID: 876</text>
</a>
</g>
</g>
<!-- INFO DISCOVERY
http&#45;&gt;DATA EXFILTRATION
http | ID: 876 -->
<g id="edge16" class="edge">
<title>INFO DISCOVERY
http&#45;&gt;DATA EXFILTRATION
http | ID: 876</title>
<path fill="none" stroke="darkgreen" stroke-width="5" d="M1024.5,-766.33C1024.5,-787.82 1024.5,-814.42 1024.5,-837.95"/>
<polygon fill="darkgreen" stroke="darkgreen" stroke-width="5" points="1020.13,-838.16 1024.5,-848.16 1028.88,-838.16 1020.13,-838.16"/>
<text text-anchor="middle" x="1156" y="-824.26" font-family="Arial" font-size="20.00" fill="darkgreen">start_next: 04/11/17, 22:10:29</text>
<text text-anchor="middle" x="1156" y="-802.26" font-family="Arial" font-size="20.00" fill="darkgreen">gap: 1sec</text>
<text text-anchor="middle" x="1156" y="-780.26" font-family="Arial" font-size="20.00" fill="darkgreen">end_prev: 04/11/17, 22:10:29</text>
</g>
<!-- DATA DELIVERY
http | ID: 352 -->
<g id="node16" class="node">
<title>DATA DELIVERY
http | ID: 352</title>
<g id="a_node16"><a xlink:title="ET WEB_SERVER PHP Possible php Remote File Inclusion Attempt&#10;ET WEB_SERVER PHP tags in HTTP POST&#10;GPL WEB_SERVER perl post attempt&#10;ET WEB_SERVER PHP Possible file Remote File Inclusion Attempt">
<polygon fill="none" stroke="black" stroke-width="3" stroke-dasharray="1,5" points="1187.6,-1077.23 1106.05,-1126.21 942.96,-1126.21 861.41,-1077.23 942.96,-1028.25 1106.05,-1028.25 1187.6,-1077.23"/>
<text text-anchor="middle" x="1024.5" y="-1084.03" font-family="Arial" font-size="24.00">DATA DELIVERY</text>
<text text-anchor="middle" x="1024.5" y="-1058.03" font-family="Arial" font-size="24.00">http | ID: 352</text>
</a>
</g>
</g>
<!-- DATA EXFILTRATION
http | ID: 876&#45;&gt;DATA DELIVERY
http | ID: 352 -->
<g id="edge17" class="edge">
<title>DATA EXFILTRATION
http | ID: 876&#45;&gt;DATA DELIVERY
http | ID: 352</title>
<path fill="none" stroke="darkgreen" stroke-width="5" d="M1024.5,-946.42C1024.5,-968.48 1024.5,-994.81 1024.5,-1017.98"/>
<polygon fill="darkgreen" stroke="darkgreen" stroke-width="5" points="1020.13,-1018.03 1024.5,-1028.03 1028.88,-1018.03 1020.13,-1018.03"/>
<text text-anchor="middle" x="1156" y="-1004.24" font-family="Arial" font-size="20.00" fill="darkgreen">start_next: 04/11/17, 22:10:48</text>
<text text-anchor="middle" x="1156" y="-982.24" font-family="Arial" font-size="20.00" fill="darkgreen">gap: &#45;45sec</text>
<text text-anchor="middle" x="1156" y="-960.24" font-family="Arial" font-size="20.00" fill="darkgreen">end_prev: 04/11/17, 22:11:33</text>
</g>
<!-- DATA DELIVERY
http | ID: 352&#45;&gt;NETWORK DoS
http | ID: 50 -->
<g id="edge18" class="edge">
<title>DATA DELIVERY
http | ID: 352&#45;&gt;NETWORK DoS
http | ID: 50</title>
<path fill="none" stroke="darkgreen" stroke-width="5" d="M1024.5,-1126.4C1024.5,-1148.46 1024.5,-1174.79 1024.5,-1197.96"/>
<polygon fill="darkgreen" stroke="darkgreen" stroke-width="5" points="1020.13,-1198.01 1024.5,-1208.01 1028.88,-1198.01 1020.13,-1198.01"/>
<text text-anchor="middle" x="1155.5" y="-1184.22" font-family="Arial" font-size="20.00" fill="darkgreen">start_next: 04/11/17, 22:11:13</text>
<text text-anchor="middle" x="1155.5" y="-1162.22" font-family="Arial" font-size="20.00" fill="darkgreen">gap: &#45;7sec</text>
<text text-anchor="middle" x="1155.5" y="-1140.22" font-family="Arial" font-size="20.00" fill="darkgreen">end_prev: 04/11/17, 22:11:20</text>
</g>
</g>
</svg>
