<?xml version="1.0" encoding="UTF-8" standalone="no"?>
<!DOCTYPE svg PUBLIC "-//W3C//DTD SVG 1.1//EN"
 "http://www.w3.org/Graphics/SVG/1.1/DTD/svg11.dtd">
<!-- Generated by graphviz version 2.50.0 (0)
 -->
<!-- Title: DATAEXFILTRATIONhttp Pages: 1 -->
<svg width="2953pt" height="1416pt"
 viewBox="0.00 0.00 2953.30 1415.85" xmlns="http://www.w3.org/2000/svg" xmlns:xlink="http://www.w3.org/1999/xlink">
<g id="graph0" class="graph" transform="scale(1 1) rotate(0) translate(4 1411.85)">
<title>DATAEXFILTRATIONhttp</title>
<polygon fill="white" stroke="transparent" points="-4,4 -4,-1411.85 2949.3,-1411.85 2949.3,4 -4,4"/>
<!-- Victim: 10.0.0.150
DATA EXFILTRATION
http -->
<g id="node1" class="node">
<title>Victim: 10.0.0.150
DATA EXFILTRATION
http</title>
<polygon fill="salmon" stroke="black" stroke-width="3" points="1061.51,-1310.83 1061.51,-1365.22 948.92,-1403.68 789.68,-1403.68 677.09,-1365.22 677.09,-1310.83 789.68,-1272.37 948.92,-1272.37 1061.51,-1310.83"/>
<polygon fill="none" stroke="black" stroke-width="3" points="1065.51,-1307.98 1065.51,-1368.07 949.58,-1407.67 789.02,-1407.67 673.09,-1368.07 673.09,-1307.98 789.02,-1268.38 949.58,-1268.38 1065.51,-1307.98"/>
<text text-anchor="middle" x="869.3" y="-1357.82" font-family="Arial" font-size="24.00">Victim: 10.0.0.150</text>
<text text-anchor="middle" x="869.3" y="-1331.82" font-family="Arial" font-size="24.00">DATA EXFILTRATION</text>
<text text-anchor="middle" x="869.3" y="-1305.82" font-family="Arial" font-size="24.00">http</text>
</g>
<!-- DATA EXFILTRATION
http | ID: 228 -->
<g id="node2" class="node">
<title>DATA EXFILTRATION
http | ID: 228</title>
<g id="a_node2"><a xlink:title="ET WEB_SPECIFIC_APPS PHP&#45;CGI query string parameter vulnerability">
<polygon fill="salmon" stroke="black" stroke-width="3" points="1347.18,-1137.21 1244.74,-1186.19 1039.86,-1186.19 937.42,-1137.21 1039.86,-1088.23 1244.74,-1088.23 1347.18,-1137.21"/>
<text text-anchor="middle" x="1142.3" y="-1144.01" font-family="Arial" font-size="24.00">DATA EXFILTRATION</text>
<text text-anchor="middle" x="1142.3" y="-1118.01" font-family="Arial" font-size="24.00">http | ID: 228</text>
</a>
</g>
</g>
<!-- DATA EXFILTRATION
http | ID: 228&#45;&gt;Victim: 10.0.0.150
DATA EXFILTRATION
http -->
<g id="edge1" class="edge">
<title>DATA EXFILTRATION
http | ID: 228&#45;&gt;Victim: 10.0.0.150
DATA EXFILTRATION
http</title>
<path fill="none" stroke="black" stroke-width="5" d="M1076.21,-1186.34C1043.57,-1210.11 1003.53,-1239.27 967.4,-1265.58"/>
<polygon fill="black" stroke="black" stroke-width="5" points="964.78,-1262.08 959.27,-1271.5 969.93,-1269.15 964.78,-1262.08"/>
</g>
<!-- DATA EXFILTRATION
http | ID: 26 -->
<g id="node3" class="node">
<title>DATA EXFILTRATION
http | ID: 26</title>
<g id="a_node3"><a xlink:title="ET WEB_SPECIFIC_APPS PHP&#45;CGI query string parameter vulnerability">
<polygon fill="salmon" stroke="black" stroke-width="3" points="796.18,-1137.21 693.74,-1186.19 488.86,-1186.19 386.42,-1137.21 488.86,-1088.23 693.74,-1088.23 796.18,-1137.21"/>
<text text-anchor="middle" x="591.3" y="-1144.01" font-family="Arial" font-size="24.00">DATA EXFILTRATION</text>
<text text-anchor="middle" x="591.3" y="-1118.01" font-family="Arial" font-size="24.00">http | ID: 26</text>
</a>
</g>
</g>
<!-- DATA EXFILTRATION
http | ID: 26&#45;&gt;Victim: 10.0.0.150
DATA EXFILTRATION
http -->
<g id="edge2" class="edge">
<title>DATA EXFILTRATION
http | ID: 26&#45;&gt;Victim: 10.0.0.150
DATA EXFILTRATION
http</title>
<path fill="none" stroke="black" stroke-width="5" d="M658.6,-1186.34C691.99,-1210.22 732.98,-1239.53 769.9,-1265.94"/>
<polygon fill="black" stroke="black" stroke-width="5" points="767.52,-1269.62 778.2,-1271.88 772.61,-1262.5 767.52,-1269.62"/>
</g>
<!-- SERVICE DISCOVERY
dsd -->
<g id="node4" class="node">
<title>SERVICE DISCOVERY
dsd</title>
<g id="a_node4"><a xlink:title="ET SCAN Potential VNC Scan 5900&#45;5920">
<ellipse fill="yellow" stroke="black" stroke-width="3" cx="1843.3" cy="-390.13" rx="189.51" ry="42.35"/>
<text text-anchor="middle" x="1843.3" y="-396.93" font-family="Arial" font-size="24.00">SERVICE DISCOVERY</text>
<text text-anchor="middle" x="1843.3" y="-370.93" font-family="Arial" font-size="24.00">dsd</text>
</a>
</g>
</g>
<!-- VULNERABILTY DISCOVERY
postgresql -->
<g id="node5" class="node">
<title>VULNERABILTY DISCOVERY
postgresql</title>
<g id="a_node5"><a xlink:title="ET POLICY Suspicious inbound to Oracle SQL port 1521&#10;ET POLICY Suspicious inbound to PostgreSQL port 5432">
<ellipse fill="none" stroke="black" stroke-width="3" cx="1843.3" cy="-570.98" rx="241.25" ry="42.35"/>
<text text-anchor="middle" x="1843.3" y="-577.78" font-family="Arial" font-size="24.00">VULNERABILTY DISCOVERY</text>
<text text-anchor="middle" x="1843.3" y="-551.78" font-family="Arial" font-size="24.00">postgresql</text>
</a>
</g>
</g>
<!-- SERVICE DISCOVERY
dsd&#45;&gt;VULNERABILTY DISCOVERY
postgresql -->
<g id="edge3" class="edge">
<title>SERVICE DISCOVERY
dsd&#45;&gt;VULNERABILTY DISCOVERY
postgresql</title>
<path fill="none" stroke="blue" stroke-width="5" d="M1843.3,-432.61C1843.3,-458.14 1843.3,-491.07 1843.3,-518.29"/>
<polygon fill="blue" stroke="blue" stroke-width="5" points="1838.92,-518.42 1843.3,-528.42 1847.67,-518.42 1838.92,-518.42"/>
<text text-anchor="start" x="1843.3" y="-505.56" font-family="Arial" font-size="20.00" fill="blue"> start_next: 04/11/17, 13:15:49</text>
<text text-anchor="start" x="1922.8" y="-485.56" font-family="Arial" font-size="20.00" fill="blue">gap: 135sec</text>
<text text-anchor="start" x="1847.3" y="-465.56" font-family="Arial" font-size="20.00" fill="blue">end_prev: 04/11/17, 13:13:34</text>
<text text-anchor="start" x="1877.8" y="-445.56" font-family="Arial" font-weight="bold" font-size="20.00" fill="blue">Attacker: 10.0.254.31</text>
</g>
<!-- VULNERABILTY DISCOVERY
mysql -->
<g id="node6" class="node">
<title>VULNERABILTY DISCOVERY
mysql</title>
<g id="a_node6"><a xlink:title="ET POLICY Suspicious inbound to MSSQL port 1433&#10;ET POLICY Suspicious inbound to mySQL port 3306">
<ellipse fill="none" stroke="black" stroke-width="3" cx="1821.3" cy="-758.4" rx="241.25" ry="42.35"/>
<text text-anchor="middle" x="1821.3" y="-765.2" font-family="Arial" font-size="24.00">VULNERABILTY DISCOVERY</text>
<text text-anchor="middle" x="1821.3" y="-739.2" font-family="Arial" font-size="24.00">mysql</text>
</a>
</g>
</g>
<!-- VULNERABILTY DISCOVERY
postgresql&#45;&gt;VULNERABILTY DISCOVERY
mysql -->
<g id="edge4" class="edge">
<title>VULNERABILTY DISCOVERY
postgresql&#45;&gt;VULNERABILTY DISCOVERY
mysql</title>
<path fill="none" stroke="blue" stroke-width="5" d="M1840.93,-613.5C1839.19,-638.95 1836.4,-672.16 1832.3,-701.41 1832.09,-702.88 1831.87,-704.37 1831.64,-705.88"/>
<polygon fill="blue" stroke="blue" stroke-width="5" points="1827.3,-705.32 1829.98,-715.9 1835.93,-706.76 1827.3,-705.32"/>
<text text-anchor="middle" x="1972.8" y="-678.41" font-family="Arial" font-size="20.00" fill="blue">start_next: 04/11/17, 14:01:49</text>
<text text-anchor="middle" x="1972.8" y="-656.41" font-family="Arial" font-size="20.00" fill="blue">gap: 2461sec</text>
<text text-anchor="middle" x="1972.8" y="-634.41" font-family="Arial" font-size="20.00" fill="blue">end_prev: 04/11/17, 13:20:48</text>
</g>
<!-- BRUTE FORCE CREDENTIALS
pop3 | ID: 887 -->
<g id="node7" class="node">
<title>BRUTE FORCE CREDENTIALS
pop3 | ID: 887</title>
<g id="a_node7"><a xlink:title="ET SCAN Rapid POP3 Connections &#45; Possible Brute Force Attack">
<polygon fill="none" stroke="black" stroke-width="3" points="2179.3,-993.8 1817.3,-993.8 1817.3,-933.8 2179.3,-933.8 2179.3,-993.8"/>
<text text-anchor="middle" x="1998.3" y="-970.6" font-family="Arial" font-size="24.00">BRUTE FORCE CREDENTIALS</text>
<text text-anchor="middle" x="1998.3" y="-944.6" font-family="Arial" font-size="24.00">pop3 | ID: 887</text>
</a>
</g>
</g>
<!-- VULNERABILTY DISCOVERY
mysql&#45;&gt;BRUTE FORCE CREDENTIALS
pop3 | ID: 887 -->
<g id="edge5" class="edge">
<title>VULNERABILTY DISCOVERY
mysql&#45;&gt;BRUTE FORCE CREDENTIALS
pop3 | ID: 887</title>
<path fill="none" stroke="blue" stroke-width="5" d="M1857.12,-800.56C1889.05,-837.25 1935.36,-890.48 1966.13,-925.83"/>
<polygon fill="blue" stroke="blue" stroke-width="5" points="1962.97,-928.86 1972.83,-933.53 1969.57,-923.12 1962.97,-928.86"/>
<text text-anchor="middle" x="2082.8" y="-881.38" font-family="Arial" font-size="20.00" fill="blue">start_next: 04/11/17, 14:01:59</text>
<text text-anchor="middle" x="2082.8" y="-859.38" font-family="Arial" font-size="20.00" fill="blue">gap: &#45;17sec</text>
<text text-anchor="middle" x="2082.8" y="-837.38" font-family="Arial" font-size="20.00" fill="blue">end_prev: 04/11/17, 14:02:16</text>
</g>
<!-- INFO DISCOVERY
http -->
<g id="node14" class="node">
<title>INFO DISCOVERY
http</title>
<g id="a_node14"><a xlink:title="GPL WEB_SERVER globals.pl access">
<ellipse fill="none" stroke="black" stroke-width="3" cx="724.3" cy="-963.8" rx="156.04" ry="42.35"/>
<text text-anchor="middle" x="724.3" y="-970.6" font-family="Arial" font-size="24.00">INFO DISCOVERY</text>
<text text-anchor="middle" x="724.3" y="-944.6" font-family="Arial" font-size="24.00">http</text>
</a>
</g>
</g>
<!-- VULNERABILTY DISCOVERY
mysql&#45;&gt;INFO DISCOVERY
http -->
<g id="edge17" class="edge">
<title>VULNERABILTY DISCOVERY
mysql&#45;&gt;INFO DISCOVERY
http</title>
<path fill="none" stroke="purple" stroke-width="5" d="M1613.9,-780.05C1509.44,-789.75 1380.76,-800.64 1265.3,-807.39 1250.82,-808.24 1015.16,-805.77 1004.3,-815.39 971.32,-844.6 1019.94,-881.72 989.3,-913.37 973.15,-930.05 929.73,-941.22 882.6,-948.65"/>
<polygon fill="purple" stroke="purple" stroke-width="5" points="881.73,-944.36 872.49,-950.18 883.04,-953.01 881.73,-944.36"/>
<text text-anchor="middle" x="1135.8" y="-881.38" font-family="Arial" font-size="20.00" fill="purple">start_next: 04/11/17, 13:40:01</text>
<text text-anchor="middle" x="1135.8" y="-859.38" font-family="Arial" font-size="20.00" fill="purple">gap: 1sec</text>
<text text-anchor="middle" x="1135.8" y="-837.38" font-family="Arial" font-size="20.00" fill="purple">end_prev: 04/11/17, 13:40:00</text>
</g>
<!-- ARBITRARY CODE EXECUTION
ssdp | ID: 355 -->
<g id="node8" class="node">
<title>ARBITRARY CODE EXECUTION
ssdp | ID: 355</title>
<g id="a_node8"><a xlink:title="GPL MISC UPnP malformed advertisement">
<polygon fill="none" stroke="black" stroke-width="3" points="2391.8,-1167.21 2016.8,-1167.21 2016.8,-1107.21 2391.8,-1107.21 2391.8,-1167.21"/>
<text text-anchor="middle" x="2204.3" y="-1144.01" font-family="Arial" font-size="24.00">ARBITRARY CODE EXECUTION</text>
<text text-anchor="middle" x="2204.3" y="-1118.01" font-family="Arial" font-size="24.00">ssdp | ID: 355</text>
</a>
</g>
</g>
<!-- BRUTE FORCE CREDENTIALS
pop3 | ID: 887&#45;&gt;ARBITRARY CODE EXECUTION
ssdp | ID: 355 -->
<g id="edge6" class="edge">
<title>BRUTE FORCE CREDENTIALS
pop3 | ID: 887&#45;&gt;ARBITRARY CODE EXECUTION
ssdp | ID: 355</title>
<path fill="none" stroke="blue" stroke-width="5" d="M2010.56,-993.93C2022.68,-1019.65 2043.43,-1056.63 2071.3,-1080.22 2081.35,-1088.74 2092.89,-1096.12 2104.88,-1102.47"/>
<polygon fill="blue" stroke="blue" stroke-width="5" points="2103.21,-1106.53 2114.11,-1107.13 2107.15,-1098.72 2103.21,-1106.53"/>
<text text-anchor="middle" x="2202.8" y="-1064.22" font-family="Arial" font-size="20.00" fill="blue">start_next: 04/11/17, 14:03:24</text>
<text text-anchor="middle" x="2202.8" y="-1042.22" font-family="Arial" font-size="20.00" fill="blue">gap: 85sec</text>
<text text-anchor="middle" x="2202.8" y="-1020.22" font-family="Arial" font-size="20.00" fill="blue">end_prev: 04/11/17, 14:01:59</text>
</g>
<!-- REMOTE SERVICE EXPLOIT
snmp | ID: 52 -->
<g id="node9" class="node">
<title>REMOTE SERVICE EXPLOIT
snmp | ID: 52</title>
<g id="a_node9"><a xlink:title="ET SNMP Samsung Printer SNMP Hardcode RW Community String">
<polygon fill="none" stroke="black" stroke-width="3" points="2373.3,-1368.02 2035.3,-1368.02 2035.3,-1308.02 2373.3,-1308.02 2373.3,-1368.02"/>
<text text-anchor="middle" x="2204.3" y="-1344.82" font-family="Arial" font-size="24.00">REMOTE SERVICE EXPLOIT</text>
<text text-anchor="middle" x="2204.3" y="-1318.82" font-family="Arial" font-size="24.00">snmp | ID: 52</text>
</a>
</g>
</g>
<!-- ARBITRARY CODE EXECUTION
ssdp | ID: 355&#45;&gt;REMOTE SERVICE EXPLOIT
snmp | ID: 52 -->
<g id="edge7" class="edge">
<title>ARBITRARY CODE EXECUTION
ssdp | ID: 355&#45;&gt;REMOTE SERVICE EXPLOIT
snmp | ID: 52</title>
<path fill="none" stroke="blue" stroke-width="5" d="M2303.15,-1167.22C2314.25,-1174.35 2324.13,-1183.2 2331.3,-1194.2 2347.32,-1218.77 2345.71,-1234.65 2331.3,-1260.2 2321.49,-1277.6 2305.99,-1291.5 2289.13,-1302.43"/>
<polygon fill="blue" stroke="blue" stroke-width="5" points="2286.46,-1298.93 2280.21,-1307.88 2291.03,-1306.4 2286.46,-1298.93"/>
<text text-anchor="middle" x="2473.8" y="-1244.2" font-family="Arial" font-size="20.00" fill="blue">start_next: 04/11/17, 14:03:51</text>
<text text-anchor="middle" x="2473.8" y="-1222.2" font-family="Arial" font-size="20.00" fill="blue">gap: 22sec</text>
<text text-anchor="middle" x="2473.8" y="-1200.2" font-family="Arial" font-size="20.00" fill="blue">end_prev: 04/11/17, 14:03:29</text>
</g>
<!-- ARBITRARY CODE EXECUTION
ssdp | ID: 355&#45;&gt;REMOTE SERVICE EXPLOIT
snmp | ID: 52 -->
<g id="edge12" class="edge">
<title>ARBITRARY CODE EXECUTION
ssdp | ID: 355&#45;&gt;REMOTE SERVICE EXPLOIT
snmp | ID: 52</title>
<path fill="none" stroke="blue" stroke-width="5" d="M2095.83,-1167.29C2084.63,-1174.39 2074.68,-1183.22 2067.3,-1194.2 2050.94,-1218.55 2052.47,-1234.89 2067.3,-1260.2 2077.72,-1278 2093.94,-1291.98 2111.63,-1302.86"/>
<polygon fill="blue" stroke="blue" stroke-width="5" points="2109.56,-1306.71 2120.41,-1307.95 2113.95,-1299.15 2109.56,-1306.71"/>
<text text-anchor="middle" x="2198.8" y="-1244.2" font-family="Arial" font-size="20.00" fill="blue">start_next: 04/11/17, 16:32:25</text>
<text text-anchor="middle" x="2198.8" y="-1222.2" font-family="Arial" font-size="20.00" fill="blue">gap: 22sec</text>
<text text-anchor="middle" x="2198.8" y="-1200.2" font-family="Arial" font-size="20.00" fill="blue">end_prev: 04/11/17, 16:32:03</text>
</g>
<!-- SURFING
http -->
<g id="node10" class="node">
<title>SURFING
http</title>
<g id="a_node10"><a xlink:title="ET WEB_SERVER WEB&#45;PHP phpinfo access">
<ellipse fill="yellow" stroke="black" stroke-width="3" cx="1138.3" cy="-570.98" rx="88.28" ry="42.35"/>
<text text-anchor="middle" x="1138.3" y="-577.78" font-family="Arial" font-size="24.00">SURFING</text>
<text text-anchor="middle" x="1138.3" y="-551.78" font-family="Arial" font-size="24.00">http</text>
</a>
</g>
</g>
<!-- REMOTE SERVICE EXPLOIT
snmp | ID: 52&#45;&gt;SURFING
http -->
<g id="edge8" class="edge">
<title>REMOTE SERVICE EXPLOIT
snmp | ID: 52&#45;&gt;SURFING
http</title>
<path fill="none" stroke="blue" stroke-width="5" d="M2035.11,-1319.52C1840.44,-1294.58 1547.3,-1240.1 1547.3,-1138.21 1547.3,-757.4 1547.3,-757.4 1547.3,-757.4 1547.3,-621.47 1357.59,-584.69 1236.58,-575.06"/>
<polygon fill="blue" stroke="blue" stroke-width="5" points="1236.84,-570.69 1226.54,-574.31 1236.19,-579.41 1236.84,-570.69"/>
<text text-anchor="middle" x="1678.8" y="-980.8" font-family="Arial" font-size="20.00" fill="blue">start_next: 04/11/17, 14:06:06</text>
<text text-anchor="middle" x="1678.8" y="-958.8" font-family="Arial" font-size="20.00" fill="blue">gap: 135sec</text>
<text text-anchor="middle" x="1678.8" y="-936.8" font-family="Arial" font-size="20.00" fill="blue">end_prev: 04/11/17, 14:03:51</text>
</g>
<!-- REMOTE SERVICE EXPLOIT
snmp | ID: 52&#45;&gt;SURFING
http -->
<g id="edge13" class="edge">
<title>REMOTE SERVICE EXPLOIT
snmp | ID: 52&#45;&gt;SURFING
http</title>
<path fill="none" stroke="blue" stroke-width="5" d="M2373.44,-1318.43C2465.54,-1305.66 2568.29,-1286.28 2606.3,-1260.2 2658.98,-1224.07 2682.3,-1202.09 2682.3,-1138.21 2682.3,-757.4 2682.3,-757.4 2682.3,-757.4 2682.3,-704.06 2623.27,-725.11 2572.3,-709.41 2370.45,-647.23 2315.43,-642.71 2105.3,-621.41 1993.19,-610.05 1710.82,-619.36 1598.3,-613.41 1472.18,-606.75 1327.11,-592.6 1234.16,-582.7"/>
<polygon fill="blue" stroke="blue" stroke-width="5" points="1234.62,-578.35 1224.22,-581.64 1233.69,-587.05 1234.62,-578.35"/>
<text text-anchor="middle" x="2813.8" y="-980.8" font-family="Arial" font-size="20.00" fill="blue">start_next: 04/11/17, 16:34:38</text>
<text text-anchor="middle" x="2813.8" y="-958.8" font-family="Arial" font-size="20.00" fill="blue">gap: 133sec</text>
<text text-anchor="middle" x="2813.8" y="-936.8" font-family="Arial" font-size="20.00" fill="blue">end_prev: 04/11/17, 16:32:25</text>
</g>
<!-- SURFING
http&#45;&gt;DATA EXFILTRATION
http | ID: 228 -->
<g id="edge9" class="edge">
<title>SURFING
http&#45;&gt;DATA EXFILTRATION
http | ID: 228</title>
<path fill="none" stroke="blue" stroke-width="5" d="M1185.96,-606.99C1215.54,-631.83 1250.92,-668.03 1267.3,-709.41 1274.88,-728.57 1278.5,-1062.93 1267.3,-1080.22 1266.01,-1082.21 1264.64,-1084.13 1263.18,-1085.98"/>
<polygon fill="blue" stroke="blue" stroke-width="5" points="1259.72,-1083.29 1256.31,-1093.66 1266.24,-1089.12 1259.72,-1083.29"/>
<text text-anchor="middle" x="1406.8" y="-881.38" font-family="Arial" font-size="20.00" fill="blue">start_next: 04/11/17, 14:06:10</text>
<text text-anchor="middle" x="1406.8" y="-859.38" font-family="Arial" font-size="20.00" fill="blue">gap: 4sec</text>
<text text-anchor="middle" x="1406.8" y="-837.38" font-family="Arial" font-size="20.00" fill="blue">end_prev: 04/11/17, 14:06:06</text>
</g>
<!-- SURFING
http&#45;&gt;VULNERABILTY DISCOVERY
mysql -->
<g id="edge16" class="edge">
<title>SURFING
http&#45;&gt;VULNERABILTY DISCOVERY
mysql</title>
<path fill="none" stroke="purple" stroke-width="5" d="M1226.2,-576.82C1340.82,-583.97 1529.48,-599 1552.3,-621.41 1577.9,-646.56 1538.92,-675.07 1563.3,-701.41 1573.64,-712.58 1595.98,-721.72 1623.4,-729.14"/>
<polygon fill="purple" stroke="purple" stroke-width="5" points="1622.52,-733.43 1633.3,-731.69 1624.71,-724.96 1622.52,-733.43"/>
<text text-anchor="start" x="1563.3" y="-686.41" font-family="Arial" font-size="20.00" fill="purple"> start_next: 04/11/17, 13:40:00</text>
<text text-anchor="start" x="1650.3" y="-666.41" font-family="Arial" font-size="20.00" fill="purple">gap: &#45;8sec</text>
<text text-anchor="start" x="1567.3" y="-646.41" font-family="Arial" font-size="20.00" fill="purple">end_prev: 04/11/17, 13:40:08</text>
<text text-anchor="start" x="1597.8" y="-626.41" font-family="Arial" font-weight="bold" font-size="20.00" fill="purple">Attacker: 10.0.254.30</text>
</g>
<!-- DATA DELIVERY
http | ID: 246 -->
<g id="node13" class="node">
<title>DATA DELIVERY
http | ID: 246</title>
<g id="a_node13"><a xlink:title="ET WEB_SERVER PHP Possible php Remote File Inclusion Attempt&#10;ET WEB_SERVER PHP tags in HTTP POST&#10;GPL WEB_SERVER perl post attempt">
<polygon fill="none" stroke="black" stroke-width="3" points="326.4,-864.38 244.85,-913.36 81.75,-913.36 0.2,-864.38 81.75,-815.4 244.85,-815.4 326.4,-864.38"/>
<text text-anchor="middle" x="163.3" y="-871.18" font-family="Arial" font-size="24.00">DATA DELIVERY</text>
<text text-anchor="middle" x="163.3" y="-845.18" font-family="Arial" font-size="24.00">http | ID: 246</text>
</a>
</g>
</g>
<!-- SURFING
http&#45;&gt;DATA DELIVERY
http | ID: 246 -->
<g id="edge14" class="edge">
<title>SURFING
http&#45;&gt;DATA DELIVERY
http | ID: 246</title>
<path fill="none" stroke="blue" stroke-width="5" d="M1049.68,-573.29C816.34,-577.15 200.78,-590.25 170.3,-621.41 123.82,-668.93 132.1,-750.09 145.22,-805.18"/>
<polygon fill="blue" stroke="blue" stroke-width="5" points="141.04,-806.51 147.71,-815.15 149.53,-804.39 141.04,-806.51"/>
<text text-anchor="middle" x="301.8" y="-678.41" font-family="Arial" font-size="20.00" fill="blue">start_next: 04/11/17, 16:34:39</text>
<text text-anchor="middle" x="301.8" y="-656.41" font-family="Arial" font-size="20.00" fill="blue">gap: 0sec</text>
<text text-anchor="middle" x="301.8" y="-634.41" font-family="Arial" font-size="20.00" fill="blue">end_prev: 04/11/17, 16:34:39</text>
</g>
<!-- SURFING
http&#45;&gt;INFO DISCOVERY
http -->
<g id="edge22" class="edge">
<title>SURFING
http&#45;&gt;INFO DISCOVERY
http</title>
<path fill="none" stroke="brown" stroke-width="5" d="M1092.8,-607.73C1063.81,-633.01 1027.94,-669.43 1007.3,-709.41 986.95,-748.83 1013.9,-771.16 988.3,-807.39 949.41,-862.42 884.35,-901.05 828.55,-926.03"/>
<polygon fill="brown" stroke="brown" stroke-width="5" points="826.73,-922.05 819.33,-930.07 830.24,-930.06 826.73,-922.05"/>
<text text-anchor="middle" x="1138.8" y="-775.4" font-family="Arial" font-size="20.00" fill="brown">start_next: 04/11/17, 17:25:09</text>
<text text-anchor="middle" x="1138.8" y="-753.4" font-family="Arial" font-size="20.00" fill="brown">gap: &#45;5sec</text>
<text text-anchor="middle" x="1138.8" y="-731.4" font-family="Arial" font-size="20.00" fill="brown">end_prev: 04/11/17, 17:25:14</text>
</g>
<!-- SURFING
http&#45;&gt;INFO DISCOVERY
http -->
<g id="edge24" class="edge">
<title>SURFING
http&#45;&gt;INFO DISCOVERY
http</title>
<path fill="none" stroke="tomato" stroke-width="5" d="M1050.2,-575.21C879.58,-583.58 514.61,-612.66 444.3,-709.41 418.7,-744.64 422.21,-769.86 444.3,-807.39 479.5,-867.19 546.95,-905.63 606.82,-929.31"/>
<polygon fill="tomato" stroke="tomato" stroke-width="5" points="605.45,-933.47 616.36,-932.98 608.6,-925.31 605.45,-933.47"/>
<text text-anchor="start" x="444.3" y="-783.4" font-family="Arial" font-size="20.00" fill="tomato"> start_next: 04/11/17, 13:41:39</text>
<text text-anchor="start" x="531.3" y="-763.4" font-family="Arial" font-size="20.00" fill="tomato">gap: &#45;5sec</text>
<text text-anchor="start" x="448.3" y="-743.4" font-family="Arial" font-size="20.00" fill="tomato">end_prev: 04/11/17, 13:41:44</text>
<text text-anchor="start" x="478.8" y="-723.4" font-family="Arial" font-weight="bold" font-size="20.00" fill="tomato">Attacker: 10.0.254.33</text>
</g>
<!-- SURFING
http&#45;&gt;INFO DISCOVERY
http -->
<g id="edge26" class="edge">
<title>SURFING
http&#45;&gt;INFO DISCOVERY
http</title>
<path fill="none" stroke="turquoise" stroke-width="5" d="M1049.87,-572.74C951.12,-578.92 795.33,-605.76 720.3,-709.41 708.83,-725.26 715.23,-841.41 720.2,-910.83"/>
<polygon fill="turquoise" stroke="turquoise" stroke-width="5" points="715.86,-911.47 720.96,-921.13 724.59,-910.84 715.86,-911.47"/>
<text text-anchor="start" x="720.3" y="-783.4" font-family="Arial" font-size="20.00" fill="turquoise"> start_next: 04/11/17, 12:56:11</text>
<text text-anchor="start" x="806.8" y="-763.4" font-family="Arial" font-size="20.00" fill="turquoise">gap: &#45;1sec</text>
<text text-anchor="start" x="723.8" y="-743.4" font-family="Arial" font-size="20.00" fill="turquoise">end_prev: 04/11/17, 12:56:12</text>
<text text-anchor="start" x="754.3" y="-723.4" font-family="Arial" font-weight="bold" font-size="20.00" fill="turquoise">Attacker: 10.0.254.30</text>
</g>
<!-- DATA DELIVERY
http | ID: 21 -->
<g id="node11" class="node">
<title>DATA DELIVERY
http | ID: 21</title>
<g id="a_node11"><a xlink:title="ET WEB_SERVER PHP Possible php Remote File Inclusion Attempt&#10;ET WEB_SERVER PHP tags in HTTP POST">
<polygon fill="yellow" stroke="black" stroke-width="3" points="2568.4,-758.4 2486.85,-807.38 2323.75,-807.38 2242.2,-758.4 2323.75,-709.42 2486.85,-709.42 2568.4,-758.4"/>
<text text-anchor="middle" x="2405.3" y="-765.2" font-family="Arial" font-size="24.00">DATA DELIVERY</text>
<text text-anchor="middle" x="2405.3" y="-739.2" font-family="Arial" font-size="24.00">http | ID: 21</text>
</a>
</g>
</g>
<!-- VULNERABILTY DISCOVERY
ahsp -->
<g id="node12" class="node">
<title>VULNERABILTY DISCOVERY
ahsp</title>
<g id="a_node12"><a xlink:title="ET POLICY Suspicious inbound to mySQL port 3306&#10;ET POLICY Suspicious inbound to mSQL port 4333">
<ellipse fill="none" stroke="black" stroke-width="3" cx="2427.3" cy="-963.8" rx="241.25" ry="42.35"/>
<text text-anchor="middle" x="2427.3" y="-970.6" font-family="Arial" font-size="24.00">VULNERABILTY DISCOVERY</text>
<text text-anchor="middle" x="2427.3" y="-944.6" font-family="Arial" font-size="24.00">ahsp</text>
</a>
</g>
</g>
<!-- DATA DELIVERY
http | ID: 21&#45;&gt;VULNERABILTY DISCOVERY
ahsp -->
<g id="edge10" class="edge">
<title>DATA DELIVERY
http | ID: 21&#45;&gt;VULNERABILTY DISCOVERY
ahsp</title>
<path fill="none" stroke="blue" stroke-width="5" d="M2402.59,-807.68C2401.9,-835.85 2402.55,-872.21 2409.26,-911.28"/>
<polygon fill="blue" stroke="blue" stroke-width="5" points="2404.99,-912.23 2411.11,-921.27 2413.59,-910.64 2404.99,-912.23"/>
<text text-anchor="start" x="2409.3" y="-889.38" font-family="Arial" font-size="20.00" fill="blue"> start_next: 04/11/17, 16:30:20</text>
<text text-anchor="start" x="2482.8" y="-869.38" font-family="Arial" font-size="20.00" fill="blue">gap: 8649sec</text>
<text text-anchor="start" x="2413.8" y="-849.38" font-family="Arial" font-size="20.00" fill="blue">end_prev: 04/11/17, 14:06:11</text>
<text text-anchor="start" x="2443.8" y="-829.38" font-family="Arial" font-weight="bold" font-size="20.00" fill="blue">Attacker: 10.0.254.31</text>
</g>
<!-- VULNERABILTY DISCOVERY
ahsp&#45;&gt;ARBITRARY CODE EXECUTION
ssdp | ID: 355 -->
<g id="edge11" class="edge">
<title>VULNERABILTY DISCOVERY
ahsp&#45;&gt;ARBITRARY CODE EXECUTION
ssdp | ID: 355</title>
<path fill="none" stroke="blue" stroke-width="5" d="M2400.29,-1006.05C2382.87,-1030.15 2358.46,-1059.74 2331.3,-1080.22 2320.04,-1088.71 2307.3,-1096.24 2294.34,-1102.81"/>
<polygon fill="blue" stroke="blue" stroke-width="5" points="2292.41,-1098.89 2285.34,-1107.21 2296.25,-1106.75 2292.41,-1098.89"/>
<text text-anchor="middle" x="2523.8" y="-1064.22" font-family="Arial" font-size="20.00" fill="blue">start_next: 04/11/17, 16:31:52</text>
<text text-anchor="middle" x="2523.8" y="-1042.22" font-family="Arial" font-size="20.00" fill="blue">gap: 51sec</text>
<text text-anchor="middle" x="2523.8" y="-1020.22" font-family="Arial" font-size="20.00" fill="blue">end_prev: 04/11/17, 16:31:02</text>
</g>
<!-- DATA DELIVERY
http | ID: 246&#45;&gt;DATA EXFILTRATION
http | ID: 26 -->
<g id="edge15" class="edge">
<title>DATA DELIVERY
http | ID: 246&#45;&gt;DATA EXFILTRATION
http | ID: 26</title>
<path fill="none" stroke="blue" stroke-width="5" d="M149.46,-913.39C138.71,-961.85 131.65,-1035.7 172.3,-1080.22 188.75,-1098.24 301.14,-1112.64 405.37,-1122.33"/>
<polygon fill="blue" stroke="blue" stroke-width="5" points="405.07,-1126.7 415.43,-1123.25 405.87,-1117.98 405.07,-1126.7"/>
<text text-anchor="middle" x="278.8" y="-980.8" font-family="Arial" font-size="20.00" fill="blue">start_next: 04/11/17, 16:34:43</text>
<text text-anchor="middle" x="278.8" y="-958.8" font-family="Arial" font-size="20.00" fill="blue">gap: &#45;2sec</text>
<text text-anchor="middle" x="278.8" y="-936.8" font-family="Arial" font-size="20.00" fill="blue">end_prev: 04/11/17, 16:34:45</text>
</g>
<!-- INFO DISCOVERY
http&#45;&gt;DATA EXFILTRATION
http | ID: 26 -->
<g id="edge18" class="edge">
<title>INFO DISCOVERY
http&#45;&gt;DATA EXFILTRATION
http | ID: 26</title>
<path fill="none" stroke="purple" stroke-width="5" d="M574.27,-975.88C522.49,-983.07 473.39,-994.88 457.3,-1014.22 438.54,-1036.77 441.04,-1055.81 457.3,-1080.22 459.42,-1083.4 461.75,-1086.4 464.27,-1089.23"/>
<polygon fill="purple" stroke="purple" stroke-width="5" points="461.19,-1092.33 471.35,-1096.32 467.38,-1086.15 461.19,-1092.33"/>
<text text-anchor="middle" x="588.8" y="-1064.22" font-family="Arial" font-size="20.00" fill="purple">start_next: 04/11/17, 13:40:02</text>
<text text-anchor="middle" x="588.8" y="-1042.22" font-family="Arial" font-size="20.00" fill="purple">gap: 1sec</text>
<text text-anchor="middle" x="588.8" y="-1020.22" font-family="Arial" font-size="20.00" fill="purple">end_prev: 04/11/17, 13:40:01</text>
</g>
<!-- INFO DISCOVERY
http&#45;&gt;DATA EXFILTRATION
http | ID: 26 -->
<g id="edge23" class="edge">
<title>INFO DISCOVERY
http&#45;&gt;DATA EXFILTRATION
http | ID: 26</title>
<path fill="none" stroke="brown" stroke-width="5" d="M726.21,-1006.41C726.68,-1034.52 725.4,-1068.55 717.3,-1080.22 715.81,-1082.37 714.21,-1084.44 712.53,-1086.43"/>
<polygon fill="brown" stroke="brown" stroke-width="5" points="709.31,-1083.47 705.6,-1093.73 715.65,-1089.49 709.31,-1083.47"/>
<text text-anchor="middle" x="857.8" y="-1064.22" font-family="Arial" font-size="20.00" fill="brown">start_next: 04/11/17, 17:25:10</text>
<text text-anchor="middle" x="857.8" y="-1042.22" font-family="Arial" font-size="20.00" fill="brown">gap: 1sec</text>
<text text-anchor="middle" x="857.8" y="-1020.22" font-family="Arial" font-size="20.00" fill="brown">end_prev: 04/11/17, 17:25:09</text>
</g>
<!-- INFO DISCOVERY
http&#45;&gt;DATA EXFILTRATION
http | ID: 26 -->
<g id="edge25" class="edge">
<title>INFO DISCOVERY
http&#45;&gt;DATA EXFILTRATION
http | ID: 26</title>
<path fill="none" stroke="tomato" stroke-width="5" d="M874.14,-976C925.59,-983.2 974.31,-994.99 990.3,-1014.22 1009.05,-1036.78 1009.55,-1058.09 990.3,-1080.22 990.17,-1080.37 867.73,-1097.54 758.53,-1112.82"/>
<polygon fill="tomato" stroke="tomato" stroke-width="5" points="757.65,-1108.53 748.35,-1114.25 758.86,-1117.19 757.65,-1108.53"/>
<text text-anchor="middle" x="1136.8" y="-1064.22" font-family="Arial" font-size="20.00" fill="tomato">start_next: 04/11/17, 13:41:40</text>
<text text-anchor="middle" x="1136.8" y="-1042.22" font-family="Arial" font-size="20.00" fill="tomato">gap: 1sec</text>
<text text-anchor="middle" x="1136.8" y="-1020.22" font-family="Arial" font-size="20.00" fill="tomato">end_prev: 04/11/17, 13:41:39</text>
</g>
<!-- INFO DISCOVERY
http&#45;&gt;DATA EXFILTRATION
http | ID: 26 -->
<g id="edge27" class="edge">
<title>INFO DISCOVERY
http&#45;&gt;DATA EXFILTRATION
http | ID: 26</title>
<path fill="none" stroke="turquoise" stroke-width="5" d="M591.5,-986.32C540.04,-993.85 480.55,-1001.58 426.3,-1006.22 412.68,-1007.39 189.81,-1004.4 180.3,-1014.22 170.1,-1024.76 170.65,-1069.17 180.3,-1080.22 195.9,-1098.09 304.28,-1112.4 405.82,-1122.07"/>
<polygon fill="turquoise" stroke="turquoise" stroke-width="5" points="405.58,-1126.44 415.94,-1123.02 406.4,-1117.73 405.58,-1126.44"/>
<text text-anchor="middle" x="311.8" y="-1064.22" font-family="Arial" font-size="20.00" fill="turquoise">start_next: 04/11/17, 12:56:12</text>
<text text-anchor="middle" x="311.8" y="-1042.22" font-family="Arial" font-size="20.00" fill="turquoise">gap: 1sec</text>
<text text-anchor="middle" x="311.8" y="-1020.22" font-family="Arial" font-size="20.00" fill="turquoise">end_prev: 04/11/17, 12:56:11</text>
</g>
<!-- SERVICE DISCOVERY
rfb -->
<g id="node15" class="node">
<title>SERVICE DISCOVERY
rfb</title>
<g id="a_node15"><a xlink:title="ET SCAN Potential VNC Scan 5800&#45;5820&#10;ET SCAN Potential SSH Scan&#10;ET SCAN Potential VNC Scan 5900&#45;5920">
<ellipse fill="yellow" stroke="black" stroke-width="3" cx="1138.3" cy="-42.43" rx="189.51" ry="42.35"/>
<text text-anchor="middle" x="1138.3" y="-49.23" font-family="Arial" font-size="24.00">SERVICE DISCOVERY</text>
<text text-anchor="middle" x="1138.3" y="-23.23" font-family="Arial" font-size="24.00">rfb</text>
</a>
</g>
</g>
<!-- VULNERABILTY DISCOVERY
http -->
<g id="node16" class="node">
<title>VULNERABILTY DISCOVERY
http</title>
<g id="a_node16"><a xlink:title="ET SCAN Nikto Web App Scan in Progress">
<ellipse fill="none" stroke="black" stroke-width="3" cx="1138.3" cy="-223.28" rx="241.25" ry="42.35"/>
<text text-anchor="middle" x="1138.3" y="-230.08" font-family="Arial" font-size="24.00">VULNERABILTY DISCOVERY</text>
<text text-anchor="middle" x="1138.3" y="-204.08" font-family="Arial" font-size="24.00">http</text>
</a>
</g>
</g>
<!-- SERVICE DISCOVERY
rfb&#45;&gt;VULNERABILTY DISCOVERY
http -->
<g id="edge19" class="edge">
<title>SERVICE DISCOVERY
rfb&#45;&gt;VULNERABILTY DISCOVERY
http</title>
<path fill="none" stroke="brown" stroke-width="5" d="M1138.3,-84.91C1138.3,-110.44 1138.3,-143.37 1138.3,-170.59"/>
<polygon fill="brown" stroke="brown" stroke-width="5" points="1133.92,-170.71 1138.3,-180.71 1142.67,-170.71 1133.92,-170.71"/>
<text text-anchor="start" x="1138.3" y="-157.85" font-family="Arial" font-size="20.00" fill="brown"> start_next: 04/11/17, 17:25:06</text>
<text text-anchor="start" x="1211.8" y="-137.85" font-family="Arial" font-size="20.00" fill="brown">gap: 4675sec</text>
<text text-anchor="start" x="1142.8" y="-117.85" font-family="Arial" font-size="20.00" fill="brown">end_prev: 04/11/17, 16:07:11</text>
<text text-anchor="start" x="1172.8" y="-97.85" font-family="Arial" font-weight="bold" font-size="20.00" fill="brown">Attacker: 10.0.254.32</text>
</g>
<!-- ARBITRARY CODE EXECUTION
http | ID: 32 -->
<g id="node17" class="node">
<title>ARBITRARY CODE EXECUTION
http | ID: 32</title>
<g id="a_node17"><a xlink:title="ET CURRENT_EVENTS QNAP Shellshock CVE&#45;2014&#45;6271">
<polygon fill="none" stroke="black" stroke-width="3" points="1325.8,-420.13 950.8,-420.13 950.8,-360.13 1325.8,-360.13 1325.8,-420.13"/>
<text text-anchor="middle" x="1138.3" y="-396.93" font-family="Arial" font-size="24.00">ARBITRARY CODE EXECUTION</text>
<text text-anchor="middle" x="1138.3" y="-370.93" font-family="Arial" font-size="24.00">http | ID: 32</text>
</a>
</g>
</g>
<!-- VULNERABILTY DISCOVERY
http&#45;&gt;ARBITRARY CODE EXECUTION
http | ID: 32 -->
<g id="edge20" class="edge">
<title>VULNERABILTY DISCOVERY
http&#45;&gt;ARBITRARY CODE EXECUTION
http | ID: 32</title>
<path fill="none" stroke="brown" stroke-width="5" d="M1138.3,-265.88C1138.3,-291.7 1138.3,-324.67 1138.3,-350.01"/>
<polygon fill="brown" stroke="brown" stroke-width="5" points="1133.92,-350.02 1138.3,-360.02 1142.67,-350.02 1133.92,-350.02"/>
<text text-anchor="middle" x="1269.8" y="-323.71" font-family="Arial" font-size="20.00" fill="brown">start_next: 04/11/17, 17:25:06</text>
<text text-anchor="middle" x="1269.8" y="-301.71" font-family="Arial" font-size="20.00" fill="brown">gap: 1sec</text>
<text text-anchor="middle" x="1269.8" y="-279.71" font-family="Arial" font-size="20.00" fill="brown">end_prev: 04/11/17, 17:25:06</text>
</g>
<!-- ARBITRARY CODE EXECUTION
http | ID: 32&#45;&gt;SURFING
http -->
<g id="edge21" class="edge">
<title>ARBITRARY CODE EXECUTION
http | ID: 32&#45;&gt;SURFING
http</title>
<path fill="none" stroke="brown" stroke-width="5" d="M1138.3,-420.27C1138.3,-446.79 1138.3,-486.57 1138.3,-518.46"/>
<polygon fill="brown" stroke="brown" stroke-width="5" points="1133.92,-518.51 1138.3,-528.51 1142.67,-518.51 1133.92,-518.51"/>
<text text-anchor="middle" x="1269.8" y="-497.56" font-family="Arial" font-size="20.00" fill="brown">start_next: 04/11/17, 17:25:07</text>
<text text-anchor="middle" x="1269.8" y="-475.56" font-family="Arial" font-size="20.00" fill="brown">gap: 1sec</text>
<text text-anchor="middle" x="1269.8" y="-453.56" font-family="Arial" font-size="20.00" fill="brown">end_prev: 04/11/17, 17:25:06</text>
</g>
</g>
</svg>
