<?xml version="1.0" encoding="UTF-8" standalone="no"?>
<!DOCTYPE svg PUBLIC "-//W3C//DTD SVG 1.1//EN"
 "http://www.w3.org/Graphics/SVG/1.1/DTD/svg11.dtd">
<!-- Generated by graphviz version 2.50.0 (0)
 -->
<!-- Title: DATADELIVERYunknown Pages: 1 -->
<svg width="771pt" height="1203pt"
 viewBox="0.00 0.00 771.25 1203.18" xmlns="http://www.w3.org/2000/svg" xmlns:xlink="http://www.w3.org/1999/xlink">
<g id="graph0" class="graph" transform="scale(1 1) rotate(0) translate(4 1199.18)">
<title>DATADELIVERYunknown</title>
<polygon fill="white" stroke="transparent" points="-4,4 -4,-1199.18 767.25,-1199.18 767.25,4 -4,4"/>
<!-- Victim: 10.0.0.77
DATA DELIVERY
unknown -->
<g id="node1" class="node">
<title>Victim: 10.0.0.77
DATA DELIVERY
unknown</title>
<polygon fill="salmon" stroke="black" stroke-width="3" points="394.27,-1098.16 394.27,-1152.55 304.56,-1191.01 177.69,-1191.01 87.98,-1152.55 87.98,-1098.16 177.69,-1059.71 304.56,-1059.71 394.27,-1098.16"/>
<polygon fill="none" stroke="black" stroke-width="3" points="398.27,-1095.54 398.27,-1155.18 305.38,-1195 176.86,-1195 83.98,-1155.18 83.98,-1095.54 176.86,-1055.72 305.38,-1055.72 398.27,-1095.54"/>
<text text-anchor="middle" x="241.12" y="-1145.16" font-family="Arial" font-size="24.00">Victim: 10.0.0.77</text>
<text text-anchor="middle" x="241.12" y="-1119.16" font-family="Arial" font-size="24.00">DATA DELIVERY</text>
<text text-anchor="middle" x="241.12" y="-1093.16" font-family="Arial" font-size="24.00">unknown</text>
</g>
<!-- DATA DELIVERY
unknown | ID: 388 -->
<g id="node2" class="node">
<title>DATA DELIVERY
unknown | ID: 388</title>
<g id="a_node2"><a xlink:title="ET WEB_SERVER PHP Possible php Remote File Inclusion Attempt&#10;ET WEB_SERVER PHP tags in HTTP POST&#10;GPL WEB_SERVER perl post attempt">
<polygon fill="salmon" stroke="black" stroke-width="3" points="413.19,-989.55 327.15,-1038.53 155.09,-1038.53 69.06,-989.55 155.09,-940.57 327.15,-940.57 413.19,-989.55"/>
<text text-anchor="middle" x="241.12" y="-996.35" font-family="Arial" font-size="24.00">DATA DELIVERY</text>
<text text-anchor="middle" x="241.12" y="-970.35" font-family="Arial" font-size="24.00">unknown | ID: 388</text>
</a>
</g>
</g>
<!-- DATA DELIVERY
unknown | ID: 388&#45;&gt;Victim: 10.0.0.77
DATA DELIVERY
unknown -->
<g id="edge1" class="edge">
<title>DATA DELIVERY
unknown | ID: 388&#45;&gt;Victim: 10.0.0.77
DATA DELIVERY
unknown</title>
<path fill="none" stroke="black" stroke-width="5" d="M241.12,-1038.86C241.12,-1040.96 241.12,-1043.09 241.12,-1045.24"/>
<polygon fill="black" stroke="black" stroke-width="5" points="236.75,-1045.4 241.12,-1055.4 245.5,-1045.4 236.75,-1045.4"/>
</g>
<!-- SERVICE DISCOVERY
ff&#45;ice -->
<g id="node3" class="node">
<title>SERVICE DISCOVERY
ff&#45;ice</title>
<g id="a_node3"><a xlink:title="ET SCAN Potential VNC Scan 5900&#45;5920">
<ellipse fill="yellow" stroke="black" stroke-width="3" cx="241.12" cy="-42.43" rx="189.51" ry="42.35"/>
<text text-anchor="middle" x="241.12" y="-49.23" font-family="Arial" font-size="24.00">SERVICE DISCOVERY</text>
<text text-anchor="middle" x="241.12" y="-23.23" font-family="Arial" font-size="24.00">ff&#45;ice</text>
</a>
</g>
</g>
<!-- VULNERABILTY DISCOVERY
postgresql -->
<g id="node4" class="node">
<title>VULNERABILTY DISCOVERY
postgresql</title>
<g id="a_node4"><a xlink:title="ET POLICY Suspicious inbound to mSQL port 4333&#10;ET POLICY Suspicious inbound to Oracle SQL port 1521&#10;ET POLICY Suspicious inbound to PostgreSQL port 5432">
<ellipse fill="none" stroke="black" stroke-width="3" cx="241.12" cy="-223.28" rx="241.25" ry="42.35"/>
<text text-anchor="middle" x="241.12" y="-230.08" font-family="Arial" font-size="24.00">VULNERABILTY DISCOVERY</text>
<text text-anchor="middle" x="241.12" y="-204.08" font-family="Arial" font-size="24.00">postgresql</text>
</a>
</g>
</g>
<!-- SERVICE DISCOVERY
ff&#45;ice&#45;&gt;VULNERABILTY DISCOVERY
postgresql -->
<g id="edge2" class="edge">
<title>SERVICE DISCOVERY
ff&#45;ice&#45;&gt;VULNERABILTY DISCOVERY
postgresql</title>
<path fill="none" stroke="blue" stroke-width="5" d="M241.12,-84.91C241.12,-110.44 241.12,-143.37 241.12,-170.59"/>
<polygon fill="blue" stroke="blue" stroke-width="5" points="236.75,-170.71 241.12,-180.71 245.5,-170.71 236.75,-170.71"/>
<text text-anchor="start" x="241.12" y="-157.85" font-family="Arial" font-size="20.00" fill="blue"> start_next: 04/11/17, 13:03:10</text>
<text text-anchor="start" x="326.12" y="-137.85" font-family="Arial" font-size="20.00" fill="blue">gap: 63sec</text>
<text text-anchor="start" x="245.12" y="-117.85" font-family="Arial" font-size="20.00" fill="blue">end_prev: 04/11/17, 13:02:07</text>
<text text-anchor="start" x="275.62" y="-97.85" font-family="Arial" font-weight="bold" font-size="20.00" fill="blue">Attacker: 10.0.254.31</text>
</g>
<!-- VULNERABILTY DISCOVERY
postgresql&#45;&gt;VULNERABILTY DISCOVERY
postgresql -->
<g id="edge3" class="edge">
<title>VULNERABILTY DISCOVERY
postgresql&#45;&gt;VULNERABILTY DISCOVERY
postgresql</title>
<path fill="none" stroke="blue" stroke-width="5" d="M477.81,-215.09C485.11,-217.31 489.25,-220.04 489.25,-223.28 489.25,-224.7 488.45,-226.02 486.95,-227.24"/>
<polygon fill="blue" stroke="blue" stroke-width="5" points="485.05,-223.3 477.81,-231.47 488.72,-231.24 485.05,-223.3"/>
<text text-anchor="middle" x="620.75" y="-240.28" font-family="Arial" font-size="20.00" fill="blue">start_next: 04/11/17, 13:59:59</text>
<text text-anchor="middle" x="620.75" y="-218.28" font-family="Arial" font-size="20.00" fill="blue">gap: 3353sec</text>
<text text-anchor="middle" x="620.75" y="-196.28" font-family="Arial" font-size="20.00" fill="blue">end_prev: 04/11/17, 13:04:06</text>
</g>
<!-- BRUTE FORCE CREDENTIALS
pop3s | ID: 886 -->
<g id="node5" class="node">
<title>BRUTE FORCE CREDENTIALS
pop3s | ID: 886</title>
<g id="a_node5"><a xlink:title="ET SCAN Rapid POP3S Connections &#45; Possible Brute Force Attack">
<polygon fill="none" stroke="black" stroke-width="3" points="422.12,-407.71 60.12,-407.71 60.12,-347.71 422.12,-347.71 422.12,-407.71"/>
<text text-anchor="middle" x="241.12" y="-384.51" font-family="Arial" font-size="24.00">BRUTE FORCE CREDENTIALS</text>
<text text-anchor="middle" x="241.12" y="-358.51" font-family="Arial" font-size="24.00">pop3s | ID: 886</text>
</a>
</g>
</g>
<!-- VULNERABILTY DISCOVERY
postgresql&#45;&gt;BRUTE FORCE CREDENTIALS
pop3s | ID: 886 -->
<g id="edge4" class="edge">
<title>VULNERABILTY DISCOVERY
postgresql&#45;&gt;BRUTE FORCE CREDENTIALS
pop3s | ID: 886</title>
<path fill="none" stroke="blue" stroke-width="5" d="M241.12,-265.93C241.12,-288.2 241.12,-315.47 241.12,-337.38"/>
<polygon fill="blue" stroke="blue" stroke-width="5" points="236.75,-337.65 241.12,-347.65 245.5,-337.65 236.75,-337.65"/>
<text text-anchor="middle" x="372.62" y="-323.71" font-family="Arial" font-size="20.00" fill="blue">start_next: 04/11/17, 14:00:31</text>
<text text-anchor="middle" x="372.62" y="-301.71" font-family="Arial" font-size="20.00" fill="blue">gap: 31sec</text>
<text text-anchor="middle" x="372.62" y="-279.71" font-family="Arial" font-size="20.00" fill="blue">end_prev: 04/11/17, 14:00:01</text>
</g>
<!-- ARBITRARY CODE EXECUTION
ssdp | ID: 355 -->
<g id="node6" class="node">
<title>ARBITRARY CODE EXECUTION
ssdp | ID: 355</title>
<g id="a_node6"><a xlink:title="GPL MISC UPnP malformed advertisement">
<polygon fill="none" stroke="black" stroke-width="3" points="428.62,-549.71 53.62,-549.71 53.62,-489.71 428.62,-489.71 428.62,-549.71"/>
<text text-anchor="middle" x="241.12" y="-526.51" font-family="Arial" font-size="24.00">ARBITRARY CODE EXECUTION</text>
<text text-anchor="middle" x="241.12" y="-500.51" font-family="Arial" font-size="24.00">ssdp | ID: 355</text>
</a>
</g>
</g>
<!-- BRUTE FORCE CREDENTIALS
pop3s | ID: 886&#45;&gt;ARBITRARY CODE EXECUTION
ssdp | ID: 355 -->
<g id="edge5" class="edge">
<title>BRUTE FORCE CREDENTIALS
pop3s | ID: 886&#45;&gt;ARBITRARY CODE EXECUTION
ssdp | ID: 355</title>
<path fill="none" stroke="blue" stroke-width="5" d="M241.12,-407.71C241.12,-428.41 241.12,-456.49 241.12,-479.23"/>
<polygon fill="blue" stroke="blue" stroke-width="5" points="236.75,-479.25 241.12,-489.25 245.5,-479.25 236.75,-479.25"/>
<text text-anchor="middle" x="372.62" y="-465.71" font-family="Arial" font-size="20.00" fill="blue">start_next: 04/11/17, 14:01:34</text>
<text text-anchor="middle" x="372.62" y="-443.71" font-family="Arial" font-size="20.00" fill="blue">gap: 63sec</text>
<text text-anchor="middle" x="372.62" y="-421.71" font-family="Arial" font-size="20.00" fill="blue">end_prev: 04/11/17, 14:00:31</text>
</g>
<!-- REMOTE SERVICE EXPLOIT
snmp | ID: 52 -->
<g id="node7" class="node">
<title>REMOTE SERVICE EXPLOIT
snmp | ID: 52</title>
<g id="a_node7"><a xlink:title="ET SNMP Samsung Printer SNMP Hardcode RW Community String">
<polygon fill="none" stroke="black" stroke-width="3" points="410.12,-691.71 72.12,-691.71 72.12,-631.71 410.12,-631.71 410.12,-691.71"/>
<text text-anchor="middle" x="241.12" y="-668.51" font-family="Arial" font-size="24.00">REMOTE SERVICE EXPLOIT</text>
<text text-anchor="middle" x="241.12" y="-642.51" font-family="Arial" font-size="24.00">snmp | ID: 52</text>
</a>
</g>
</g>
<!-- ARBITRARY CODE EXECUTION
ssdp | ID: 355&#45;&gt;REMOTE SERVICE EXPLOIT
snmp | ID: 52 -->
<g id="edge6" class="edge">
<title>ARBITRARY CODE EXECUTION
ssdp | ID: 355&#45;&gt;REMOTE SERVICE EXPLOIT
snmp | ID: 52</title>
<path fill="none" stroke="blue" stroke-width="5" d="M241.12,-549.71C241.12,-570.41 241.12,-598.49 241.12,-621.23"/>
<polygon fill="blue" stroke="blue" stroke-width="5" points="236.75,-621.25 241.12,-631.25 245.5,-621.25 236.75,-621.25"/>
<text text-anchor="middle" x="372.62" y="-607.71" font-family="Arial" font-size="20.00" fill="blue">start_next: 04/11/17, 14:02:06</text>
<text text-anchor="middle" x="372.62" y="-585.71" font-family="Arial" font-size="20.00" fill="blue">gap: 21sec</text>
<text text-anchor="middle" x="372.62" y="-563.71" font-family="Arial" font-size="20.00" fill="blue">end_prev: 04/11/17, 14:01:44</text>
</g>
<!-- SURFING
unknown -->
<g id="node8" class="node">
<title>SURFING
unknown</title>
<g id="a_node8"><a xlink:title="ET WEB_SERVER WEB&#45;PHP phpinfo access">
<ellipse fill="none" stroke="black" stroke-width="3" cx="241.12" cy="-816.13" rx="88.28" ry="42.35"/>
<text text-anchor="middle" x="241.12" y="-822.93" font-family="Arial" font-size="24.00">SURFING</text>
<text text-anchor="middle" x="241.12" y="-796.93" font-family="Arial" font-size="24.00">unknown</text>
</a>
</g>
</g>
<!-- REMOTE SERVICE EXPLOIT
snmp | ID: 52&#45;&gt;SURFING
unknown -->
<g id="edge7" class="edge">
<title>REMOTE SERVICE EXPLOIT
snmp | ID: 52&#45;&gt;SURFING
unknown</title>
<path fill="none" stroke="blue" stroke-width="5" d="M241.12,-691.73C241.12,-711.99 241.12,-739.58 241.12,-763.53"/>
<polygon fill="blue" stroke="blue" stroke-width="5" points="236.75,-763.54 241.12,-773.54 245.5,-763.54 236.75,-763.54"/>
<text text-anchor="middle" x="372.62" y="-749.71" font-family="Arial" font-size="20.00" fill="blue">start_next: 04/11/17, 14:04:16</text>
<text text-anchor="middle" x="372.62" y="-727.71" font-family="Arial" font-size="20.00" fill="blue">gap: 130sec</text>
<text text-anchor="middle" x="372.62" y="-705.71" font-family="Arial" font-size="20.00" fill="blue">end_prev: 04/11/17, 14:02:06</text>
</g>
<!-- SURFING
unknown&#45;&gt;DATA DELIVERY
unknown | ID: 388 -->
<g id="edge8" class="edge">
<title>SURFING
unknown&#45;&gt;DATA DELIVERY
unknown | ID: 388</title>
<path fill="none" stroke="blue" stroke-width="5" d="M241.12,-858.63C241.12,-880.12 241.12,-906.72 241.12,-930.24"/>
<polygon fill="blue" stroke="blue" stroke-width="5" points="236.75,-930.45 241.12,-940.45 245.5,-930.45 236.75,-930.45"/>
<text text-anchor="middle" x="372.62" y="-916.56" font-family="Arial" font-size="20.00" fill="blue">start_next: 04/11/17, 14:04:17</text>
<text text-anchor="middle" x="372.62" y="-894.56" font-family="Arial" font-size="20.00" fill="blue">gap: 2sec</text>
<text text-anchor="middle" x="372.62" y="-872.56" font-family="Arial" font-size="20.00" fill="blue">end_prev: 04/11/17, 14:04:16</text>
</g>
</g>
</svg>
