<?xml version="1.0" encoding="UTF-8" standalone="no"?>
<!DOCTYPE svg PUBLIC "-//W3C//DTD SVG 1.1//EN"
 "http://www.w3.org/Graphics/SVG/1.1/DTD/svg11.dtd">
<!-- Generated by graphviz version 2.50.0 (0)
 -->
<!-- Title: DATAMANIPULATIONdomain Pages: 1 -->
<svg width="517pt" height="894pt"
 viewBox="0.00 0.00 517.12 894.33" xmlns="http://www.w3.org/2000/svg" xmlns:xlink="http://www.w3.org/1999/xlink">
<g id="graph0" class="graph" transform="scale(1 1) rotate(0) translate(4 890.33)">
<title>DATAMANIPULATIONdomain</title>
<polygon fill="white" stroke="transparent" points="-4,4 -4,-890.33 513.12,-890.33 513.12,4 -4,4"/>
<!-- Victim: 10.0.0.2
DATA MANIPULATION
domain -->
<g id="node1" class="node">
<title>Victim: 10.0.0.2
DATA MANIPULATION
domain</title>
<polygon fill="salmon" stroke="black" stroke-width="3" points="440.65,-789.31 440.65,-843.7 323.77,-882.16 158.48,-882.16 41.6,-843.7 41.6,-789.31 158.48,-750.85 323.77,-750.85 440.65,-789.31"/>
<polygon fill="none" stroke="black" stroke-width="3" points="444.65,-786.43 444.65,-846.59 324.41,-886.15 157.84,-886.15 37.6,-846.59 37.6,-786.43 157.84,-746.86 324.41,-746.86 444.65,-786.43"/>
<text text-anchor="middle" x="241.12" y="-836.31" font-family="Arial" font-size="24.00">Victim: 10.0.0.2</text>
<text text-anchor="middle" x="241.12" y="-810.31" font-family="Arial" font-size="24.00">DATA MANIPULATION</text>
<text text-anchor="middle" x="241.12" y="-784.31" font-family="Arial" font-size="24.00">domain</text>
</g>
<!-- DATA MANIPULATION
domain | ID: 75 -->
<g id="node2" class="node">
<title>DATA MANIPULATION
domain | ID: 75</title>
<g id="a_node2"><a xlink:title="ET POLICY DNS Update From External net">
<polygon fill="salmon" stroke="black" stroke-width="3" points="454.33,-680.7 347.73,-729.68 134.52,-729.68 27.91,-680.7 134.52,-631.72 347.73,-631.72 454.33,-680.7"/>
<text text-anchor="middle" x="241.12" y="-687.5" font-family="Arial" font-size="24.00">DATA MANIPULATION</text>
<text text-anchor="middle" x="241.12" y="-661.5" font-family="Arial" font-size="24.00">domain | ID: 75</text>
</a>
</g>
</g>
<!-- DATA MANIPULATION
domain | ID: 75&#45;&gt;Victim: 10.0.0.2
DATA MANIPULATION
domain -->
<g id="edge1" class="edge">
<title>DATA MANIPULATION
domain | ID: 75&#45;&gt;Victim: 10.0.0.2
DATA MANIPULATION
domain</title>
<path fill="none" stroke="black" stroke-width="5" d="M241.12,-730C241.12,-732.11 241.12,-734.24 241.12,-736.39"/>
<polygon fill="black" stroke="black" stroke-width="5" points="236.75,-736.54 241.12,-746.54 245.5,-736.54 236.75,-736.54"/>
</g>
<!-- SERVICE DISCOVERY
ssh -->
<g id="node3" class="node">
<title>SERVICE DISCOVERY
ssh</title>
<g id="a_node3"><a xlink:title="ET SCAN Potential SSH Scan&#10;ET SCAN Potential VNC Scan 5900&#45;5920">
<ellipse fill="yellow" stroke="black" stroke-width="3" cx="241.12" cy="-42.43" rx="189.51" ry="42.35"/>
<text text-anchor="middle" x="241.12" y="-49.23" font-family="Arial" font-size="24.00">SERVICE DISCOVERY</text>
<text text-anchor="middle" x="241.12" y="-23.23" font-family="Arial" font-size="24.00">ssh</text>
</a>
</g>
</g>
<!-- VULNERABILTY DISCOVERY
ncube&#45;lm -->
<g id="node4" class="node">
<title>VULNERABILTY DISCOVERY
ncube&#45;lm</title>
<g id="a_node4"><a xlink:title="ET POLICY Suspicious inbound to PostgreSQL port 5432&#10;ET POLICY Suspicious inbound to MSSQL port 1433&#10;ET POLICY Suspicious inbound to Oracle SQL port 1521&#10;ET POLICY Suspicious inbound to mSQL port 4333">
<ellipse fill="none" stroke="black" stroke-width="3" cx="241.12" cy="-223.28" rx="241.25" ry="42.35"/>
<text text-anchor="middle" x="241.12" y="-230.08" font-family="Arial" font-size="24.00">VULNERABILTY DISCOVERY</text>
<text text-anchor="middle" x="241.12" y="-204.08" font-family="Arial" font-size="24.00">ncube&#45;lm</text>
</a>
</g>
</g>
<!-- SERVICE DISCOVERY
ssh&#45;&gt;VULNERABILTY DISCOVERY
ncube&#45;lm -->
<g id="edge2" class="edge">
<title>SERVICE DISCOVERY
ssh&#45;&gt;VULNERABILTY DISCOVERY
ncube&#45;lm</title>
<path fill="none" stroke="blue" stroke-width="5" d="M241.12,-84.91C241.12,-110.44 241.12,-143.37 241.12,-170.59"/>
<polygon fill="blue" stroke="blue" stroke-width="5" points="236.75,-170.71 241.12,-180.71 245.5,-170.71 236.75,-170.71"/>
<text text-anchor="start" x="241.12" y="-157.85" font-family="Arial" font-size="20.00" fill="blue"> start_next: 04/11/17, 13:59:31</text>
<text text-anchor="start" x="331.62" y="-137.85" font-family="Arial" font-size="20.00" fill="blue">gap: 2sec</text>
<text text-anchor="start" x="245.12" y="-117.85" font-family="Arial" font-size="20.00" fill="blue">end_prev: 04/11/17, 13:59:29</text>
<text text-anchor="start" x="275.62" y="-97.85" font-family="Arial" font-weight="bold" font-size="20.00" fill="blue">Attacker: 10.0.254.31</text>
</g>
<!-- ARBITRARY CODE EXECUTION
ssdp | ID: 976 -->
<g id="node5" class="node">
<title>ARBITRARY CODE EXECUTION
ssdp | ID: 976</title>
<g id="a_node5"><a xlink:title="GPL MISC UPnP malformed advertisement">
<polygon fill="none" stroke="black" stroke-width="3" stroke-dasharray="1,5" points="428.62,-407.71 53.62,-407.71 53.62,-347.71 428.62,-347.71 428.62,-407.71"/>
<text text-anchor="middle" x="241.12" y="-384.51" font-family="Arial" font-size="24.00">ARBITRARY CODE EXECUTION</text>
<text text-anchor="middle" x="241.12" y="-358.51" font-family="Arial" font-size="24.00">ssdp | ID: 976</text>
</a>
</g>
</g>
<!-- VULNERABILTY DISCOVERY
ncube&#45;lm&#45;&gt;ARBITRARY CODE EXECUTION
ssdp | ID: 976 -->
<g id="edge3" class="edge">
<title>VULNERABILTY DISCOVERY
ncube&#45;lm&#45;&gt;ARBITRARY CODE EXECUTION
ssdp | ID: 976</title>
<path fill="none" stroke="blue" stroke-width="5" d="M241.12,-265.93C241.12,-288.2 241.12,-315.47 241.12,-337.38"/>
<polygon fill="blue" stroke="blue" stroke-width="5" points="236.75,-337.65 241.12,-347.65 245.5,-337.65 236.75,-337.65"/>
<text text-anchor="middle" x="372.62" y="-323.71" font-family="Arial" font-size="20.00" fill="blue">start_next: 04/11/17, 14:00:53</text>
<text text-anchor="middle" x="372.62" y="-301.71" font-family="Arial" font-size="20.00" fill="blue">gap: 49sec</text>
<text text-anchor="middle" x="372.62" y="-279.71" font-family="Arial" font-size="20.00" fill="blue">end_prev: 04/11/17, 14:00:04</text>
</g>
<!-- REMOTE SERVICE EXPLOIT
snmp | ID: 415 -->
<g id="node6" class="node">
<title>REMOTE SERVICE EXPLOIT
snmp | ID: 415</title>
<g id="a_node6"><a xlink:title="ET SNMP Samsung Printer SNMP Hardcode RW Community String">
<polygon fill="none" stroke="black" stroke-width="3" stroke-dasharray="1,5" points="410.12,-549.71 72.12,-549.71 72.12,-489.71 410.12,-489.71 410.12,-549.71"/>
<text text-anchor="middle" x="241.12" y="-526.51" font-family="Arial" font-size="24.00">REMOTE SERVICE EXPLOIT</text>
<text text-anchor="middle" x="241.12" y="-500.51" font-family="Arial" font-size="24.00">snmp | ID: 415</text>
</a>
</g>
</g>
<!-- ARBITRARY CODE EXECUTION
ssdp | ID: 976&#45;&gt;REMOTE SERVICE EXPLOIT
snmp | ID: 415 -->
<g id="edge4" class="edge">
<title>ARBITRARY CODE EXECUTION
ssdp | ID: 976&#45;&gt;REMOTE SERVICE EXPLOIT
snmp | ID: 415</title>
<path fill="none" stroke="blue" stroke-width="5" d="M241.12,-407.71C241.12,-428.41 241.12,-456.49 241.12,-479.23"/>
<polygon fill="blue" stroke="blue" stroke-width="5" points="236.75,-479.25 241.12,-489.25 245.5,-479.25 236.75,-479.25"/>
<text text-anchor="middle" x="372.62" y="-465.71" font-family="Arial" font-size="20.00" fill="blue">start_next: 04/11/17, 14:01:26</text>
<text text-anchor="middle" x="372.62" y="-443.71" font-family="Arial" font-size="20.00" fill="blue">gap: 22sec</text>
<text text-anchor="middle" x="372.62" y="-421.71" font-family="Arial" font-size="20.00" fill="blue">end_prev: 04/11/17, 14:01:04</text>
</g>
<!-- REMOTE SERVICE EXPLOIT
snmp | ID: 415&#45;&gt;DATA MANIPULATION
domain | ID: 75 -->
<g id="edge5" class="edge">
<title>REMOTE SERVICE EXPLOIT
snmp | ID: 415&#45;&gt;DATA MANIPULATION
domain | ID: 75</title>
<path fill="none" stroke="blue" stroke-width="5" d="M241.12,-549.87C241.12,-569.87 241.12,-597.09 241.12,-621.45"/>
<polygon fill="blue" stroke="blue" stroke-width="5" points="236.75,-621.68 241.12,-631.68 245.5,-621.68 236.75,-621.68"/>
<text text-anchor="middle" x="372.62" y="-607.71" font-family="Arial" font-size="20.00" fill="blue">start_next: 04/11/17, 14:01:35</text>
<text text-anchor="middle" x="372.62" y="-585.71" font-family="Arial" font-size="20.00" fill="blue">gap: 9sec</text>
<text text-anchor="middle" x="372.62" y="-563.71" font-family="Arial" font-size="20.00" fill="blue">end_prev: 04/11/17, 14:01:26</text>
</g>
</g>
</svg>
