<?xml version="1.0" encoding="UTF-8" standalone="no"?>
<!DOCTYPE svg PUBLIC "-//W3C//DTD SVG 1.1//EN"
 "http://www.w3.org/Graphics/SVG/1.1/DTD/svg11.dtd">
<!-- Generated by graphviz version 2.50.0 (0)
 -->
<!-- Title: DATADELIVERYunknown Pages: 1 -->
<svg width="1874pt" height="2828pt"
 viewBox="0.00 0.00 1874.28 2828.09" xmlns="http://www.w3.org/2000/svg" xmlns:xlink="http://www.w3.org/1999/xlink">
<g id="graph0" class="graph" transform="scale(1 1) rotate(0) translate(4 2824.09)">
<title>DATADELIVERYunknown</title>
<polygon fill="white" stroke="transparent" points="-4,4 -4,-2824.09 1870.28,-2824.09 1870.28,4 -4,4"/>
<!-- Victim: 10.0.0.224
DATA DELIVERY
unknown -->
<g id="node1" class="node">
<title>Victim: 10.0.0.224
DATA DELIVERY
unknown</title>
<polygon fill="salmon" stroke="black" stroke-width="3" points="333.23,-2723.07 333.23,-2777.46 238.95,-2815.92 105.61,-2815.92 11.33,-2777.46 11.33,-2723.07 105.61,-2684.61 238.95,-2684.61 333.23,-2723.07"/>
<polygon fill="none" stroke="black" stroke-width="3" points="337.24,-2720.4 337.24,-2780.14 239.74,-2819.91 104.83,-2819.91 7.33,-2780.14 7.33,-2720.4 104.83,-2680.62 239.74,-2680.62 337.24,-2720.4"/>
<text text-anchor="middle" x="172.28" y="-2770.07" font-family="Arial" font-size="24.00">Victim: 10.0.0.224</text>
<text text-anchor="middle" x="172.28" y="-2744.07" font-family="Arial" font-size="24.00">DATA DELIVERY</text>
<text text-anchor="middle" x="172.28" y="-2718.07" font-family="Arial" font-size="24.00">unknown</text>
</g>
<!-- DATA DELIVERY
unknown | ID: 396 -->
<g id="node2" class="node">
<title>DATA DELIVERY
unknown | ID: 396</title>
<g id="a_node2"><a xlink:title="GPL WEB_SERVER perl post attempt">
<polygon fill="salmon" stroke="black" stroke-width="3" points="344.34,-580.97 258.31,-629.95 86.25,-629.95 0.22,-580.97 86.25,-531.99 258.31,-531.99 344.34,-580.97"/>
<text text-anchor="middle" x="172.28" y="-587.77" font-family="Arial" font-size="24.00">DATA DELIVERY</text>
<text text-anchor="middle" x="172.28" y="-561.77" font-family="Arial" font-size="24.00">unknown | ID: 396</text>
</a>
</g>
</g>
<!-- DATA DELIVERY
unknown | ID: 396&#45;&gt;Victim: 10.0.0.224
DATA DELIVERY
unknown -->
<g id="edge1" class="edge">
<title>DATA DELIVERY
unknown | ID: 396&#45;&gt;Victim: 10.0.0.224
DATA DELIVERY
unknown</title>
<path fill="none" stroke="black" stroke-width="5" d="M172.28,-630.2C172.28,-669.44 172.28,-726.27 172.28,-775.94 172.28,-775.94 172.28,-775.94 172.28,-2557.02 172.28,-2594.23 172.28,-2635.5 172.28,-2670.23"/>
<polygon fill="black" stroke="black" stroke-width="5" points="167.91,-2670.31 172.28,-2680.31 176.66,-2670.31 167.91,-2670.31"/>
</g>
<!-- VULNERABILTY DISCOVERY
ncube&#45;lm -->
<g id="node3" class="node">
<title>VULNERABILTY DISCOVERY
ncube&#45;lm</title>
<g id="a_node3"><a xlink:title="ET POLICY Suspicious inbound to PostgreSQL port 5432&#10;ET POLICY Suspicious inbound to MSSQL port 1433&#10;ET POLICY Suspicious inbound to Oracle SQL port 1521&#10;ET POLICY Suspicious inbound to mSQL port 4333">
<ellipse fill="yellow" stroke="black" stroke-width="3" cx="1051.28" cy="-2189.46" rx="241.25" ry="42.35"/>
<text text-anchor="middle" x="1051.28" y="-2196.26" font-family="Arial" font-size="24.00">VULNERABILTY DISCOVERY</text>
<text text-anchor="middle" x="1051.28" y="-2170.26" font-family="Arial" font-size="24.00">ncube&#45;lm</text>
</a>
</g>
</g>
<!-- VULNERABILTY DISCOVERY
ms&#45;sql&#45;s -->
<g id="node4" class="node">
<title>VULNERABILTY DISCOVERY
ms&#45;sql&#45;s</title>
<g id="a_node4"><a xlink:title="ET POLICY Suspicious inbound to MSSQL port 1433&#10;ET POLICY Suspicious inbound to Oracle SQL port 1521&#10;ET POLICY Suspicious inbound to mSQL port 4333">
<ellipse fill="none" stroke="black" stroke-width="3" cx="1079.28" cy="-2370.31" rx="241.25" ry="42.35"/>
<text text-anchor="middle" x="1079.28" y="-2377.11" font-family="Arial" font-size="24.00">VULNERABILTY DISCOVERY</text>
<text text-anchor="middle" x="1079.28" y="-2351.11" font-family="Arial" font-size="24.00">ms&#45;sql&#45;s</text>
</a>
</g>
</g>
<!-- VULNERABILTY DISCOVERY
ncube&#45;lm&#45;&gt;VULNERABILTY DISCOVERY
ms&#45;sql&#45;s -->
<g id="edge2" class="edge">
<title>VULNERABILTY DISCOVERY
ncube&#45;lm&#45;&gt;VULNERABILTY DISCOVERY
ms&#45;sql&#45;s</title>
<path fill="none" stroke="blue" stroke-width="5" d="M1048.18,-2232.15C1047.42,-2255.51 1048.07,-2285.25 1055.34,-2318.15"/>
<polygon fill="blue" stroke="blue" stroke-width="5" points="1051.11,-2319.28 1057.7,-2327.98 1059.62,-2317.24 1051.11,-2319.28"/>
<text text-anchor="start" x="1055.28" y="-2304.89" font-family="Arial" font-size="20.00" fill="blue"> start_next: 04/11/17, 14:02:53</text>
<text text-anchor="start" x="1128.78" y="-2284.89" font-family="Arial" font-size="20.00" fill="blue">gap: 3683sec</text>
<text text-anchor="start" x="1059.28" y="-2264.89" font-family="Arial" font-size="20.00" fill="blue">end_prev: 04/11/17, 13:01:30</text>
<text text-anchor="start" x="1089.78" y="-2244.89" font-family="Arial" font-weight="bold" font-size="20.00" fill="blue">Attacker: 10.0.254.31</text>
</g>
<!-- SERVICE DISCOVERY
unknown -->
<g id="node12" class="node">
<title>SERVICE DISCOVERY
unknown</title>
<g id="a_node12"><a xlink:title="ET SCAN Behavioral Unusual Port 445 traffic Potential Scan or Infection&#10;ET SCAN Potential VNC Scan 5900&#45;5920">
<ellipse fill="none" stroke="black" stroke-width="3" cx="1368.28" cy="-2463.17" rx="189.51" ry="42.35"/>
<text text-anchor="middle" x="1368.28" y="-2469.97" font-family="Arial" font-size="24.00">SERVICE DISCOVERY</text>
<text text-anchor="middle" x="1368.28" y="-2443.97" font-family="Arial" font-size="24.00">unknown</text>
</a>
</g>
</g>
<!-- VULNERABILTY DISCOVERY
ncube&#45;lm&#45;&gt;SERVICE DISCOVERY
unknown -->
<g id="edge11" class="edge">
<title>VULNERABILTY DISCOVERY
ncube&#45;lm&#45;&gt;SERVICE DISCOVERY
unknown</title>
<path fill="none" stroke="blue" stroke-width="5" d="M1253.61,-2212.54C1283.79,-2219.41 1308.68,-2228.33 1320.28,-2239.89 1345.91,-2265.42 1327.86,-2284.48 1335.28,-2319.89 1341.6,-2350.04 1349.35,-2383.61 1355.76,-2410.57"/>
<polygon fill="blue" stroke="blue" stroke-width="5" points="1351.56,-2411.85 1358.14,-2420.56 1360.07,-2409.82 1351.56,-2411.85"/>
<text text-anchor="middle" x="1466.78" y="-2296.89" font-family="Arial" font-size="20.00" fill="blue">start_next: 04/11/17, 16:29:37</text>
<text text-anchor="middle" x="1466.78" y="-2274.89" font-family="Arial" font-size="20.00" fill="blue">gap: &#45;369sec</text>
<text text-anchor="middle" x="1466.78" y="-2252.89" font-family="Arial" font-size="20.00" fill="blue">end_prev: 04/11/17, 16:35:46</text>
</g>
<!-- ARBITRARY CODE EXECUTION
epmap | ID: 356 -->
<g id="node21" class="node">
<title>ARBITRARY CODE EXECUTION
epmap | ID: 356</title>
<g id="a_node21"><a xlink:title="GPL MISC UPnP malformed advertisement&#10;GPL NETBIOS DCERPC Remote Activation bind attempt&#10;GPL NETBIOS SMB&#45;DS Session Setup NTMLSSP unicode asn1 overflow attempt&#10;GPL NETBIOS DCERPC IActivation little endian bind attempt">
<polygon fill="none" stroke="black" stroke-width="3" points="830.78,-2400.31 455.78,-2400.31 455.78,-2340.31 830.78,-2340.31 830.78,-2400.31"/>
<text text-anchor="middle" x="643.28" y="-2377.11" font-family="Arial" font-size="24.00">ARBITRARY CODE EXECUTION</text>
<text text-anchor="middle" x="643.28" y="-2351.11" font-family="Arial" font-size="24.00">epmap | ID: 356</text>
</a>
</g>
</g>
<!-- VULNERABILTY DISCOVERY
ncube&#45;lm&#45;&gt;ARBITRARY CODE EXECUTION
epmap | ID: 356 -->
<g id="edge27" class="edge">
<title>VULNERABILTY DISCOVERY
ncube&#45;lm&#45;&gt;ARBITRARY CODE EXECUTION
epmap | ID: 356</title>
<path fill="none" stroke="blue" stroke-width="5" d="M861.85,-2215.83C828.3,-2222.61 799.29,-2230.66 784.28,-2239.89 746.19,-2263.3 756.41,-2289.86 723.28,-2319.89 717.58,-2325.05 711.27,-2329.99 704.77,-2334.61"/>
<polygon fill="blue" stroke="blue" stroke-width="5" points="702.25,-2331.03 696.46,-2340.29 707.18,-2338.26 702.25,-2331.03"/>
<text text-anchor="middle" x="915.78" y="-2296.89" font-family="Arial" font-size="20.00" fill="blue">start_next: 04/11/17, 18:04:47</text>
<text text-anchor="middle" x="915.78" y="-2274.89" font-family="Arial" font-size="20.00" fill="blue">gap: 64sec</text>
<text text-anchor="middle" x="915.78" y="-2252.89" font-family="Arial" font-size="20.00" fill="blue">end_prev: 04/11/17, 18:03:44</text>
</g>
<!-- SERVICE DISCOVERY
epmap -->
<g id="node5" class="node">
<title>SERVICE DISCOVERY
epmap</title>
<g id="a_node5"><a xlink:title="ET SCAN Behavioral Unusual Port 135 traffic Potential Scan or Infection&#10;ET SCAN Potential VNC Scan 5900&#45;5920">
<ellipse fill="none" stroke="black" stroke-width="3" cx="942.28" cy="-2556.02" rx="189.51" ry="42.35"/>
<text text-anchor="middle" x="942.28" y="-2562.82" font-family="Arial" font-size="24.00">SERVICE DISCOVERY</text>
<text text-anchor="middle" x="942.28" y="-2536.82" font-family="Arial" font-size="24.00">epmap</text>
</a>
</g>
</g>
<!-- VULNERABILTY DISCOVERY
ms&#45;sql&#45;s&#45;&gt;SERVICE DISCOVERY
epmap -->
<g id="edge3" class="edge">
<title>VULNERABILTY DISCOVERY
ms&#45;sql&#45;s&#45;&gt;SERVICE DISCOVERY
epmap</title>
<path fill="none" stroke="blue" stroke-width="5" d="M936.29,-2404.67C925.21,-2409.56 916.62,-2414.93 912.28,-2420.74 891.48,-2448.59 900.4,-2466.34 912.16,-2503.96"/>
<polygon fill="blue" stroke="blue" stroke-width="5" points="908.11,-2505.67 915.2,-2513.97 916.48,-2503.13 908.11,-2505.67"/>
<text text-anchor="middle" x="1043.78" y="-2480.17" font-family="Arial" font-size="20.00" fill="blue">start_next: 04/11/17, 14:02:55</text>
<text text-anchor="middle" x="1043.78" y="-2458.17" font-family="Arial" font-size="20.00" fill="blue">gap: &#45;19sec</text>
<text text-anchor="middle" x="1043.78" y="-2436.17" font-family="Arial" font-size="20.00" fill="blue">end_prev: 04/11/17, 14:03:14</text>
</g>
<!-- ARBITRARY CODE EXECUTION
microsoft&#45;ds | ID: 309 -->
<g id="node6" class="node">
<title>ARBITRARY CODE EXECUTION
microsoft&#45;ds | ID: 309</title>
<g id="a_node6"><a xlink:title="GPL NETBIOS DCERPC Remote Activation bind attempt&#10;ET CURRENT_EVENTS QNAP Shellshock CVE&#45;2014&#45;6271&#10;GPL NETBIOS DCERPC IActivation little endian bind attempt&#10;GPL MISC UPnP malformed advertisement&#10;GPL NETBIOS SMB&#45;DS Session Setup NTMLSSP unicode asn1 overflow attempt">
<polygon fill="none" stroke="black" stroke-width="3" points="1325.78,-2780.27 950.78,-2780.27 950.78,-2720.27 1325.78,-2720.27 1325.78,-2780.27"/>
<text text-anchor="middle" x="1138.28" y="-2757.07" font-family="Arial" font-size="24.00">ARBITRARY CODE EXECUTION</text>
<text text-anchor="middle" x="1138.28" y="-2731.07" font-family="Arial" font-size="24.00">microsoft&#45;ds | ID: 309</text>
</a>
</g>
</g>
<!-- SERVICE DISCOVERY
epmap&#45;&gt;ARBITRARY CODE EXECUTION
microsoft&#45;ds | ID: 309 -->
<g id="edge4" class="edge">
<title>SERVICE DISCOVERY
epmap&#45;&gt;ARBITRARY CODE EXECUTION
microsoft&#45;ds | ID: 309</title>
<path fill="none" stroke="blue" stroke-width="5" d="M970.35,-2598C987.2,-2621.14 1009.86,-2649.86 1033.28,-2672.45 1048.86,-2687.47 1067.48,-2702.01 1084.69,-2714.33"/>
<polygon fill="blue" stroke="blue" stroke-width="5" points="1082.32,-2718 1093.01,-2720.18 1087.35,-2710.85 1082.32,-2718"/>
<text text-anchor="middle" x="1164.78" y="-2656.45" font-family="Arial" font-size="20.00" fill="blue">start_next: 04/11/17, 14:04:58</text>
<text text-anchor="middle" x="1164.78" y="-2634.45" font-family="Arial" font-size="20.00" fill="blue">gap: 87sec</text>
<text text-anchor="middle" x="1164.78" y="-2612.45" font-family="Arial" font-size="20.00" fill="blue">end_prev: 04/11/17, 14:03:30</text>
</g>
<!-- REMOTE SERVICE EXPLOIT
snmp | ID: 52 -->
<g id="node7" class="node">
<title>REMOTE SERVICE EXPLOIT
snmp | ID: 52</title>
<g id="a_node7"><a xlink:title="ET SNMP Samsung Printer SNMP Hardcode RW Community String">
<polygon fill="none" stroke="black" stroke-width="3" points="895.28,-60 557.28,-60 557.28,0 895.28,0 895.28,-60"/>
<text text-anchor="middle" x="726.28" y="-36.8" font-family="Arial" font-size="24.00">REMOTE SERVICE EXPLOIT</text>
<text text-anchor="middle" x="726.28" y="-10.8" font-family="Arial" font-size="24.00">snmp | ID: 52</text>
</a>
</g>
</g>
<!-- ARBITRARY CODE EXECUTION
microsoft&#45;ds | ID: 309&#45;&gt;REMOTE SERVICE EXPLOIT
snmp | ID: 52 -->
<g id="edge5" class="edge">
<title>ARBITRARY CODE EXECUTION
microsoft&#45;ds | ID: 309&#45;&gt;REMOTE SERVICE EXPLOIT
snmp | ID: 52</title>
<path fill="none" stroke="blue" stroke-width="5" d="M950.47,-2734.16C744.94,-2712.31 444.28,-2662.35 444.28,-2557.02 444.28,-171 444.28,-171 444.28,-171 444.28,-113.77 491.44,-79.94 547.2,-59.94"/>
<polygon fill="blue" stroke="blue" stroke-width="5" points="548.9,-63.98 556.95,-56.6 546.07,-55.7 548.9,-63.98"/>
<text text-anchor="middle" x="575.78" y="-1368.5" font-family="Arial" font-size="20.00" fill="blue">start_next: 04/11/17, 14:05:32</text>
<text text-anchor="middle" x="575.78" y="-1346.5" font-family="Arial" font-size="20.00" fill="blue">gap: &#45;81sec</text>
<text text-anchor="middle" x="575.78" y="-1324.5" font-family="Arial" font-size="20.00" fill="blue">end_prev: 04/11/17, 14:06:53</text>
</g>
<!-- ARBITRARY CODE EXECUTION
microsoft&#45;ds | ID: 309&#45;&gt;REMOTE SERVICE EXPLOIT
snmp | ID: 52 -->
<g id="edge13" class="edge">
<title>ARBITRARY CODE EXECUTION
microsoft&#45;ds | ID: 309&#45;&gt;REMOTE SERVICE EXPLOIT
snmp | ID: 52</title>
<path fill="none" stroke="blue" stroke-width="5" d="M1326.07,-2731.75C1419.92,-2713.21 1527.62,-2675.38 1595.28,-2598.45 1607.67,-2584.37 1603.28,-2575.77 1603.28,-2557.02 1603.28,-171 1603.28,-171 1603.28,-171 1603.28,-17.78 1424.88,-96.25 1274.28,-68 1152.62,-45.18 1013.43,-35.99 905.78,-32.47"/>
<polygon fill="blue" stroke="blue" stroke-width="5" points="905.59,-28.09 895.46,-32.15 905.32,-36.84 905.59,-28.09"/>
<text text-anchor="middle" x="1734.78" y="-1368.5" font-family="Arial" font-size="20.00" fill="blue">start_next: 04/11/17, 16:33:50</text>
<text text-anchor="middle" x="1734.78" y="-1346.5" font-family="Arial" font-size="20.00" fill="blue">gap: &#45;184sec</text>
<text text-anchor="middle" x="1734.78" y="-1324.5" font-family="Arial" font-size="20.00" fill="blue">end_prev: 04/11/17, 16:36:54</text>
</g>
<!-- COMMAND AND CONTROL
unknown | ID: 308 -->
<g id="node8" class="node">
<title>COMMAND AND CONTROL
unknown | ID: 308</title>
<g id="a_node8"><a xlink:title="ET POLICY RDP connection confirm">
<polygon fill="none" stroke="black" stroke-width="3" points="1109.78,-202 786.78,-202 786.78,-142 1109.78,-142 1109.78,-202"/>
<text text-anchor="middle" x="948.28" y="-178.8" font-family="Arial" font-size="24.00">COMMAND AND CONTROL</text>
<text text-anchor="middle" x="948.28" y="-152.8" font-family="Arial" font-size="24.00">unknown | ID: 308</text>
</a>
</g>
</g>
<!-- REMOTE SERVICE EXPLOIT
snmp | ID: 52&#45;&gt;COMMAND AND CONTROL
unknown | ID: 308 -->
<g id="edge6" class="edge">
<title>REMOTE SERVICE EXPLOIT
snmp | ID: 52&#45;&gt;COMMAND AND CONTROL
unknown | ID: 308</title>
<path fill="none" stroke="blue" stroke-width="5" d="M725.92,-60.18C726.24,-86.84 728.52,-123.65 738.28,-134 745.33,-141.47 759.18,-147.44 776.56,-152.21"/>
<polygon fill="blue" stroke="blue" stroke-width="5" points="775.79,-156.53 786.56,-154.74 777.94,-148.04 775.79,-156.53"/>
<text text-anchor="middle" x="869.78" y="-118" font-family="Arial" font-size="20.00" fill="blue">start_next: 04/11/17, 14:05:59</text>
<text text-anchor="middle" x="869.78" y="-96" font-family="Arial" font-size="20.00" fill="blue">gap: 27sec</text>
<text text-anchor="middle" x="869.78" y="-74" font-family="Arial" font-size="20.00" fill="blue">end_prev: 04/11/17, 14:05:32</text>
</g>
<!-- REMOTE SERVICE EXPLOIT
snmp | ID: 52&#45;&gt;COMMAND AND CONTROL
unknown | ID: 308 -->
<g id="edge14" class="edge">
<title>REMOTE SERVICE EXPLOIT
snmp | ID: 52&#45;&gt;COMMAND AND CONTROL
unknown | ID: 308</title>
<path fill="none" stroke="blue" stroke-width="5" d="M895.31,-36.18C941.66,-41.36 983.31,-50.86 998.28,-68 1015.77,-88.02 1012.4,-104.45 997.99,-132.74"/>
<polygon fill="blue" stroke="blue" stroke-width="5" points="993.95,-131.03 993.18,-141.91 1001.7,-135.09 993.95,-131.03"/>
<text text-anchor="middle" x="1142.28" y="-118" font-family="Arial" font-size="20.00" fill="blue">start_next: 04/11/17, 16:34:11</text>
<text text-anchor="middle" x="1142.28" y="-96" font-family="Arial" font-size="20.00" fill="blue">gap: 21sec</text>
<text text-anchor="middle" x="1142.28" y="-74" font-family="Arial" font-size="20.00" fill="blue">end_prev: 04/11/17, 16:33:50</text>
</g>
<!-- COMMAND AND CONTROL
unknown | ID: 1365 -->
<g id="node22" class="node">
<title>COMMAND AND CONTROL
unknown | ID: 1365</title>
<g id="a_node22"><a xlink:title="ET POLICY RDP connection confirm">
<polygon fill="none" stroke="black" stroke-width="3" stroke-dasharray="1,5" points="333.78,-202 10.78,-202 10.78,-142 333.78,-142 333.78,-202"/>
<text text-anchor="middle" x="172.28" y="-178.8" font-family="Arial" font-size="24.00">COMMAND AND CONTROL</text>
<text text-anchor="middle" x="172.28" y="-152.8" font-family="Arial" font-size="24.00">unknown | ID: 1365</text>
</a>
</g>
</g>
<!-- REMOTE SERVICE EXPLOIT
snmp | ID: 52&#45;&gt;COMMAND AND CONTROL
unknown | ID: 1365 -->
<g id="edge29" class="edge">
<title>REMOTE SERVICE EXPLOIT
snmp | ID: 52&#45;&gt;COMMAND AND CONTROL
unknown | ID: 1365</title>
<path fill="none" stroke="blue" stroke-width="5" d="M557.05,-31.21C405.32,-33.18 202.59,-40.94 176.28,-68 160.34,-84.4 159.32,-110.08 162.29,-131.7"/>
<polygon fill="blue" stroke="blue" stroke-width="5" points="157.98,-132.48 163.96,-141.61 166.61,-131.02 157.98,-132.48"/>
<text text-anchor="middle" x="307.78" y="-118" font-family="Arial" font-size="20.00" fill="blue">start_next: 04/11/17, 18:05:45</text>
<text text-anchor="middle" x="307.78" y="-96" font-family="Arial" font-size="20.00" fill="blue">gap: 22sec</text>
<text text-anchor="middle" x="307.78" y="-74" font-family="Arial" font-size="20.00" fill="blue">end_prev: 04/11/17, 18:05:23</text>
</g>
<!-- ACCOUNT MANIPULATION
snmp | ID: 53 -->
<g id="node9" class="node">
<title>ACCOUNT MANIPULATION
snmp | ID: 53</title>
<g id="a_node9"><a xlink:title="GPL SNMP private access udp&#10;GPL SNMP public access udp">
<polygon fill="none" stroke="black" stroke-width="3" points="1216.28,-344 896.28,-344 896.28,-284 1216.28,-284 1216.28,-344"/>
<text text-anchor="middle" x="1056.28" y="-320.8" font-family="Arial" font-size="24.00">ACCOUNT MANIPULATION</text>
<text text-anchor="middle" x="1056.28" y="-294.8" font-family="Arial" font-size="24.00">snmp | ID: 53</text>
</a>
</g>
</g>
<!-- COMMAND AND CONTROL
unknown | ID: 308&#45;&gt;ACCOUNT MANIPULATION
snmp | ID: 53 -->
<g id="edge7" class="edge">
<title>COMMAND AND CONTROL
unknown | ID: 308&#45;&gt;ACCOUNT MANIPULATION
snmp | ID: 53</title>
<path fill="none" stroke="blue" stroke-width="5" d="M940.94,-202.02C937.07,-224.37 935.88,-254.9 951.28,-276 951.34,-276.09 951.41,-276.18 951.47,-276.26"/>
<polygon fill="blue" stroke="blue" stroke-width="5" points="948.2,-279.17 958.08,-283.81 954.79,-273.4 948.2,-279.17"/>
<text text-anchor="middle" x="1082.78" y="-260" font-family="Arial" font-size="20.00" fill="blue">start_next: 04/11/17, 14:06:04</text>
<text text-anchor="middle" x="1082.78" y="-238" font-family="Arial" font-size="20.00" fill="blue">gap: &#45;109sec</text>
<text text-anchor="middle" x="1082.78" y="-216" font-family="Arial" font-size="20.00" fill="blue">end_prev: 04/11/17, 14:07:53</text>
</g>
<!-- COMMAND AND CONTROL
unknown | ID: 308&#45;&gt;ACCOUNT MANIPULATION
snmp | ID: 53 -->
<g id="edge15" class="edge">
<title>COMMAND AND CONTROL
unknown | ID: 308&#45;&gt;ACCOUNT MANIPULATION
snmp | ID: 53</title>
<path fill="none" stroke="blue" stroke-width="5" d="M1109.99,-178.6C1155.51,-183.77 1196.65,-193.16 1211.28,-210 1230.52,-232.14 1229.46,-252.98 1211.28,-276 1210.79,-276.62 1210.25,-277.23 1209.66,-277.83"/>
<polygon fill="blue" stroke="blue" stroke-width="5" points="1206.87,-274.45 1201.41,-283.9 1212.06,-281.49 1206.87,-274.45"/>
<text text-anchor="middle" x="1357.78" y="-260" font-family="Arial" font-size="20.00" fill="blue">start_next: 04/11/17, 16:34:17</text>
<text text-anchor="middle" x="1357.78" y="-238" font-family="Arial" font-size="20.00" fill="blue">gap: &#45;107sec</text>
<text text-anchor="middle" x="1357.78" y="-216" font-family="Arial" font-size="20.00" fill="blue">end_prev: 04/11/17, 16:36:04</text>
</g>
<!-- DATA DELIVERY
wsman | ID: 399 -->
<g id="node10" class="node">
<title>DATA DELIVERY
wsman | ID: 399</title>
<g id="a_node10"><a xlink:title="GPL WEB_SERVER perl post attempt">
<polygon fill="none" stroke="black" stroke-width="3" points="1327.38,-474.99 1245.83,-523.97 1082.73,-523.97 1001.18,-474.99 1082.73,-426.01 1245.83,-426.01 1327.38,-474.99"/>
<text text-anchor="middle" x="1164.28" y="-481.79" font-family="Arial" font-size="24.00">DATA DELIVERY</text>
<text text-anchor="middle" x="1164.28" y="-455.79" font-family="Arial" font-size="24.00">wsman | ID: 399</text>
</a>
</g>
</g>
<!-- ACCOUNT MANIPULATION
snmp | ID: 53&#45;&gt;DATA DELIVERY
wsman | ID: 399 -->
<g id="edge8" class="edge">
<title>ACCOUNT MANIPULATION
snmp | ID: 53&#45;&gt;DATA DELIVERY
wsman | ID: 399</title>
<path fill="none" stroke="blue" stroke-width="5" d="M1008.5,-344.14C1006.5,-346.59 1004.73,-349.21 1003.28,-352 989.72,-378.01 986.28,-394.09 1003.28,-418 1011.14,-429.05 1021.34,-437.94 1032.8,-445.09"/>
<polygon fill="blue" stroke="blue" stroke-width="5" points="1030.93,-449.06 1041.78,-450.22 1035.27,-441.46 1030.93,-449.06"/>
<text text-anchor="middle" x="1134.78" y="-402" font-family="Arial" font-size="20.00" fill="blue">start_next: 04/11/17, 14:06:51</text>
<text text-anchor="middle" x="1134.78" y="-380" font-family="Arial" font-size="20.00" fill="blue">gap: 43sec</text>
<text text-anchor="middle" x="1134.78" y="-358" font-family="Arial" font-size="20.00" fill="blue">end_prev: 04/11/17, 14:06:08</text>
</g>
<!-- ACCOUNT MANIPULATION
snmp | ID: 53&#45;&gt;DATA DELIVERY
wsman | ID: 399 -->
<g id="edge16" class="edge">
<title>ACCOUNT MANIPULATION
snmp | ID: 53&#45;&gt;DATA DELIVERY
wsman | ID: 399</title>
<path fill="none" stroke="blue" stroke-width="5" d="M1216.32,-330.62C1238.04,-335.83 1255.55,-342.76 1263.28,-352 1282.11,-374.49 1278.06,-392.66 1263.28,-418 1262.39,-419.52 1261.44,-421.01 1260.44,-422.46"/>
<polygon fill="blue" stroke="blue" stroke-width="5" points="1256.96,-419.8 1254.16,-430.35 1263.81,-425.25 1256.96,-419.8"/>
<text text-anchor="middle" x="1407.78" y="-402" font-family="Arial" font-size="20.00" fill="blue">start_next: 04/11/17, 16:35:02</text>
<text text-anchor="middle" x="1407.78" y="-380" font-family="Arial" font-size="20.00" fill="blue">gap: 44sec</text>
<text text-anchor="middle" x="1407.78" y="-358" font-family="Arial" font-size="20.00" fill="blue">end_prev: 04/11/17, 16:34:19</text>
</g>
<!-- DATA EXFILTRATION
wsman | ID: 63 -->
<g id="node11" class="node">
<title>DATA EXFILTRATION
wsman | ID: 63</title>
<g id="a_node11"><a xlink:title="ET WEB_SPECIFIC_APPS PHP&#45;CGI query string parameter vulnerability">
<polygon fill="none" stroke="black" stroke-width="3" points="1287.16,-686.95 1184.72,-735.93 979.84,-735.93 877.4,-686.95 979.84,-637.97 1184.72,-637.97 1287.16,-686.95"/>
<text text-anchor="middle" x="1082.28" y="-693.75" font-family="Arial" font-size="24.00">DATA EXFILTRATION</text>
<text text-anchor="middle" x="1082.28" y="-667.75" font-family="Arial" font-size="24.00">wsman | ID: 63</text>
</a>
</g>
</g>
<!-- DATA DELIVERY
wsman | ID: 399&#45;&gt;DATA EXFILTRATION
wsman | ID: 63 -->
<g id="edge9" class="edge">
<title>DATA DELIVERY
wsman | ID: 399&#45;&gt;DATA EXFILTRATION
wsman | ID: 63</title>
<path fill="none" stroke="blue" stroke-width="5" d="M1035.19,-495.63C995.63,-504.46 959.31,-516.45 947.28,-531.98 920.61,-566.4 923.1,-593.75 947.28,-629.96 949.45,-633.21 951.85,-636.27 954.44,-639.16"/>
<polygon fill="blue" stroke="blue" stroke-width="5" points="951.55,-642.45 961.73,-646.39 957.71,-636.24 951.55,-642.45"/>
<text text-anchor="middle" x="1078.78" y="-597.97" font-family="Arial" font-size="20.00" fill="blue">start_next: 04/11/17, 14:06:54</text>
<text text-anchor="middle" x="1078.78" y="-575.97" font-family="Arial" font-size="20.00" fill="blue">gap: 3sec</text>
<text text-anchor="middle" x="1078.78" y="-553.97" font-family="Arial" font-size="20.00" fill="blue">end_prev: 04/11/17, 14:06:51</text>
</g>
<!-- DATA DELIVERY
wsman | ID: 399&#45;&gt;DATA EXFILTRATION
wsman | ID: 63 -->
<g id="edge17" class="edge">
<title>DATA DELIVERY
wsman | ID: 399&#45;&gt;DATA EXFILTRATION
wsman | ID: 63</title>
<path fill="none" stroke="blue" stroke-width="5" d="M1204.05,-524.07C1205.28,-526.67 1206.37,-529.31 1207.28,-531.98 1221.29,-573.21 1230.96,-593.41 1207.28,-629.96 1205.99,-631.95 1204.62,-633.86 1203.16,-635.71"/>
<polygon fill="blue" stroke="blue" stroke-width="5" points="1199.7,-633.02 1196.29,-643.39 1206.22,-638.85 1199.7,-633.02"/>
<text text-anchor="middle" x="1353.78" y="-597.97" font-family="Arial" font-size="20.00" fill="blue">start_next: 04/11/17, 16:35:06</text>
<text text-anchor="middle" x="1353.78" y="-575.97" font-family="Arial" font-size="20.00" fill="blue">gap: 3sec</text>
<text text-anchor="middle" x="1353.78" y="-553.97" font-family="Arial" font-size="20.00" fill="blue">end_prev: 04/11/17, 16:35:02</text>
</g>
<!-- DATA EXFILTRATION
wsman | ID: 63&#45;&gt;VULNERABILTY DISCOVERY
ncube&#45;lm -->
<g id="edge10" class="edge">
<title>DATA EXFILTRATION
wsman | ID: 63&#45;&gt;VULNERABILTY DISCOVERY
ncube&#45;lm</title>
<path fill="none" stroke="blue" stroke-width="5" d="M1055.61,-736.26C1039.59,-769.78 1022.28,-816.01 1022.28,-859.37 1022.28,-859.37 1022.28,-859.37 1022.28,-2023.61 1022.28,-2061.89 1029.96,-2104.43 1037.42,-2136.71"/>
<polygon fill="blue" stroke="blue" stroke-width="5" points="1033.25,-2138.09 1039.82,-2146.81 1041.76,-2136.07 1033.25,-2138.09"/>
<text text-anchor="middle" x="1153.78" y="-1442.5" font-family="Arial" font-size="20.00" fill="blue">start_next: 04/11/17, 16:25:53</text>
<text text-anchor="middle" x="1153.78" y="-1420.5" font-family="Arial" font-size="20.00" fill="blue">gap: 8339sec</text>
<text text-anchor="middle" x="1153.78" y="-1398.5" font-family="Arial" font-size="20.00" fill="blue">end_prev: 04/11/17, 14:06:54</text>
</g>
<!-- HOST DISCOVERY
wsman -->
<g id="node13" class="node">
<title>HOST DISCOVERY
wsman</title>
<g id="a_node13"><a xlink:title="ET SCAN Possible Nmap User&#45;Agent Observed&#10;ET SCAN Nmap Scripting Engine User&#45;Agent Detected (Nmap Scripting Engine)">
<ellipse fill="none" stroke="black" stroke-width="3" cx="1246.28" cy="-860.37" rx="162.77" ry="42.35"/>
<text text-anchor="middle" x="1246.28" y="-867.17" font-family="Arial" font-size="24.00">HOST DISCOVERY</text>
<text text-anchor="middle" x="1246.28" y="-841.17" font-family="Arial" font-size="24.00">wsman</text>
</a>
</g>
</g>
<!-- DATA EXFILTRATION
wsman | ID: 63&#45;&gt;HOST DISCOVERY
wsman -->
<g id="edge18" class="edge">
<title>DATA EXFILTRATION
wsman | ID: 63&#45;&gt;HOST DISCOVERY
wsman</title>
<path fill="none" stroke="blue" stroke-width="5" d="M1128.4,-736.15C1150.97,-759.74 1178.06,-788.05 1200.57,-811.59"/>
<polygon fill="blue" stroke="blue" stroke-width="5" points="1197.63,-814.85 1207.71,-819.05 1203.96,-808.8 1197.63,-814.85"/>
<text text-anchor="middle" x="1329.78" y="-793.94" font-family="Arial" font-size="20.00" fill="blue">start_next: 04/11/17, 16:36:53</text>
<text text-anchor="middle" x="1329.78" y="-771.94" font-family="Arial" font-size="20.00" fill="blue">gap: &#45;9sec</text>
<text text-anchor="middle" x="1329.78" y="-749.94" font-family="Arial" font-size="20.00" fill="blue">end_prev: 04/11/17, 16:37:02</text>
</g>
<!-- SERVICE DISCOVERY
unknown&#45;&gt;ARBITRARY CODE EXECUTION
microsoft&#45;ds | ID: 309 -->
<g id="edge12" class="edge">
<title>SERVICE DISCOVERY
unknown&#45;&gt;ARBITRARY CODE EXECUTION
microsoft&#45;ds | ID: 309</title>
<path fill="none" stroke="blue" stroke-width="5" d="M1339.51,-2505.12C1337.98,-2507.93 1336.55,-2510.77 1335.28,-2513.59 1305.26,-2580.17 1339.46,-2615.87 1293.28,-2672.45 1278.64,-2690.38 1258.76,-2704.48 1238.13,-2715.43"/>
<polygon fill="blue" stroke="blue" stroke-width="5" points="1235.88,-2711.67 1228.93,-2720.09 1239.83,-2719.47 1235.88,-2711.67"/>
<text text-anchor="middle" x="1466.78" y="-2573.02" font-family="Arial" font-size="20.00" fill="blue">start_next: 04/11/17, 16:31:23</text>
<text text-anchor="middle" x="1466.78" y="-2551.02" font-family="Arial" font-size="20.00" fill="blue">gap: &#45;151sec</text>
<text text-anchor="middle" x="1466.78" y="-2529.02" font-family="Arial" font-size="20.00" fill="blue">end_prev: 04/11/17, 16:33:53</text>
</g>
<!-- SURFING
wsman -->
<g id="node14" class="node">
<title>SURFING
wsman</title>
<g id="a_node14"><a xlink:title="ET WEB_SERVER WEB&#45;PHP phpinfo access">
<ellipse fill="none" stroke="black" stroke-width="3" cx="1260.28" cy="-1027.22" rx="88.28" ry="42.35"/>
<text text-anchor="middle" x="1260.28" y="-1034.02" font-family="Arial" font-size="24.00">SURFING</text>
<text text-anchor="middle" x="1260.28" y="-1008.02" font-family="Arial" font-size="24.00">wsman</text>
</a>
</g>
</g>
<!-- HOST DISCOVERY
wsman&#45;&gt;SURFING
wsman -->
<g id="edge19" class="edge">
<title>HOST DISCOVERY
wsman&#45;&gt;SURFING
wsman</title>
<path fill="none" stroke="blue" stroke-width="5" d="M1249.81,-902.96C1251.66,-924.73 1253.94,-951.59 1255.9,-974.66"/>
<polygon fill="blue" stroke="blue" stroke-width="5" points="1251.54,-975.04 1256.75,-984.63 1260.26,-974.3 1251.54,-975.04"/>
<text text-anchor="middle" x="1387.78" y="-960.79" font-family="Arial" font-size="20.00" fill="blue">start_next: 04/11/17, 16:36:54</text>
<text text-anchor="middle" x="1387.78" y="-938.79" font-family="Arial" font-size="20.00" fill="blue">gap: 2sec</text>
<text text-anchor="middle" x="1387.78" y="-916.79" font-family="Arial" font-size="20.00" fill="blue">end_prev: 04/11/17, 16:36:53</text>
</g>
<!-- HOST DISCOVERY
unknown -->
<g id="node15" class="node">
<title>HOST DISCOVERY
unknown</title>
<g id="a_node15"><a xlink:title="ET SCAN Possible Nmap User&#45;Agent Observed&#10;ET SCAN Nmap Scripting Engine User&#45;Agent Detected (Nmap Scripting Engine)">
<ellipse fill="none" stroke="black" stroke-width="3" cx="1288.28" cy="-1194.07" rx="162.77" ry="42.35"/>
<text text-anchor="middle" x="1288.28" y="-1200.87" font-family="Arial" font-size="24.00">HOST DISCOVERY</text>
<text text-anchor="middle" x="1288.28" y="-1174.87" font-family="Arial" font-size="24.00">unknown</text>
</a>
</g>
</g>
<!-- SURFING
wsman&#45;&gt;HOST DISCOVERY
unknown -->
<g id="edge20" class="edge">
<title>SURFING
wsman&#45;&gt;HOST DISCOVERY
unknown</title>
<path fill="none" stroke="blue" stroke-width="5" d="M1267.35,-1069.82C1271.04,-1091.59 1275.6,-1118.44 1279.52,-1141.52"/>
<polygon fill="blue" stroke="blue" stroke-width="5" points="1275.23,-1142.36 1281.22,-1151.48 1283.86,-1140.89 1275.23,-1142.36"/>
<text text-anchor="middle" x="1410.78" y="-1127.64" font-family="Arial" font-size="20.00" fill="blue">start_next: 04/11/17, 16:52:22</text>
<text text-anchor="middle" x="1410.78" y="-1105.64" font-family="Arial" font-size="20.00" fill="blue">gap: 920sec</text>
<text text-anchor="middle" x="1410.78" y="-1083.64" font-family="Arial" font-size="20.00" fill="blue">end_prev: 04/11/17, 16:37:02</text>
</g>
<!-- ARBITRARY CODE EXECUTION
unknown | ID: 47 -->
<g id="node16" class="node">
<title>ARBITRARY CODE EXECUTION
unknown | ID: 47</title>
<g id="a_node16"><a xlink:title="ET CURRENT_EVENTS QNAP Shellshock CVE&#45;2014&#45;6271">
<polygon fill="none" stroke="black" stroke-width="3" points="1483.78,-1381.5 1108.78,-1381.5 1108.78,-1321.5 1483.78,-1321.5 1483.78,-1381.5"/>
<text text-anchor="middle" x="1296.28" y="-1358.3" font-family="Arial" font-size="24.00">ARBITRARY CODE EXECUTION</text>
<text text-anchor="middle" x="1296.28" y="-1332.3" font-family="Arial" font-size="24.00">unknown | ID: 47</text>
</a>
</g>
</g>
<!-- HOST DISCOVERY
unknown&#45;&gt;ARBITRARY CODE EXECUTION
unknown | ID: 47 -->
<g id="edge21" class="edge">
<title>HOST DISCOVERY
unknown&#45;&gt;ARBITRARY CODE EXECUTION
unknown | ID: 47</title>
<path fill="none" stroke="blue" stroke-width="5" d="M1290.42,-1236.72C1291.61,-1259.8 1293.08,-1288.34 1294.25,-1311.06"/>
<polygon fill="blue" stroke="blue" stroke-width="5" points="1289.88,-1311.28 1294.76,-1321.05 1298.62,-1310.83 1289.88,-1311.28"/>
<text text-anchor="middle" x="1425.78" y="-1294.5" font-family="Arial" font-size="20.00" fill="blue">start_next: 04/11/17, 16:52:23</text>
<text text-anchor="middle" x="1425.78" y="-1272.5" font-family="Arial" font-size="20.00" fill="blue">gap: 1sec</text>
<text text-anchor="middle" x="1425.78" y="-1250.5" font-family="Arial" font-size="20.00" fill="blue">end_prev: 04/11/17, 16:52:22</text>
</g>
<!-- SURFING
unknown -->
<g id="node17" class="node">
<title>SURFING
unknown</title>
<g id="a_node17"><a xlink:title="ET WEB_SERVER WEB&#45;PHP phpinfo access">
<ellipse fill="none" stroke="black" stroke-width="3" cx="1288.28" cy="-1508.92" rx="88.28" ry="42.35"/>
<text text-anchor="middle" x="1288.28" y="-1515.72" font-family="Arial" font-size="24.00">SURFING</text>
<text text-anchor="middle" x="1288.28" y="-1489.72" font-family="Arial" font-size="24.00">unknown</text>
</a>
</g>
</g>
<!-- ARBITRARY CODE EXECUTION
unknown | ID: 47&#45;&gt;SURFING
unknown -->
<g id="edge22" class="edge">
<title>ARBITRARY CODE EXECUTION
unknown | ID: 47&#45;&gt;SURFING
unknown</title>
<path fill="none" stroke="blue" stroke-width="5" d="M1294.78,-1381.73C1293.69,-1402.75 1292.21,-1431.66 1290.93,-1456.5"/>
<polygon fill="blue" stroke="blue" stroke-width="5" points="1286.56,-1456.29 1290.41,-1466.5 1295.3,-1456.74 1286.56,-1456.29"/>
<text text-anchor="middle" x="1425.78" y="-1442.5" font-family="Arial" font-size="20.00" fill="blue">start_next: 04/11/17, 16:52:24</text>
<text text-anchor="middle" x="1425.78" y="-1420.5" font-family="Arial" font-size="20.00" fill="blue">gap: 1sec</text>
<text text-anchor="middle" x="1425.78" y="-1398.5" font-family="Arial" font-size="20.00" fill="blue">end_prev: 04/11/17, 16:52:23</text>
</g>
<!-- INFO DISCOVERY
unknown -->
<g id="node18" class="node">
<title>INFO DISCOVERY
unknown</title>
<g id="a_node18"><a xlink:title="GPL WEB_SERVER globals.pl access">
<ellipse fill="none" stroke="black" stroke-width="3" cx="1281.28" cy="-1675.78" rx="156.04" ry="42.35"/>
<text text-anchor="middle" x="1281.28" y="-1682.58" font-family="Arial" font-size="24.00">INFO DISCOVERY</text>
<text text-anchor="middle" x="1281.28" y="-1656.58" font-family="Arial" font-size="24.00">unknown</text>
</a>
</g>
</g>
<!-- SURFING
unknown&#45;&gt;INFO DISCOVERY
unknown -->
<g id="edge23" class="edge">
<title>SURFING
unknown&#45;&gt;INFO DISCOVERY
unknown</title>
<path fill="none" stroke="blue" stroke-width="5" d="M1286.51,-1551.52C1285.59,-1573.19 1284.46,-1599.9 1283.48,-1622.91"/>
<polygon fill="blue" stroke="blue" stroke-width="5" points="1279.1,-1623.01 1283.05,-1633.19 1287.84,-1623.39 1279.1,-1623.01"/>
<text text-anchor="middle" x="1417.78" y="-1609.35" font-family="Arial" font-size="20.00" fill="blue">start_next: 04/11/17, 16:52:26</text>
<text text-anchor="middle" x="1417.78" y="-1587.35" font-family="Arial" font-size="20.00" fill="blue">gap: &#45;5sec</text>
<text text-anchor="middle" x="1417.78" y="-1565.35" font-family="Arial" font-size="20.00" fill="blue">end_prev: 04/11/17, 16:52:31</text>
</g>
<!-- DATA EXFILTRATION
unknown | ID: 57 -->
<g id="node19" class="node">
<title>DATA EXFILTRATION
unknown | ID: 57</title>
<g id="a_node19"><a xlink:title="ET WEB_SPECIFIC_APPS PHP&#45;CGI query string parameter vulnerability">
<polygon fill="none" stroke="black" stroke-width="3" points="1484.16,-1849.19 1381.72,-1898.17 1176.84,-1898.17 1074.4,-1849.19 1176.84,-1800.21 1381.72,-1800.21 1484.16,-1849.19"/>
<text text-anchor="middle" x="1279.28" y="-1855.99" font-family="Arial" font-size="24.00">DATA EXFILTRATION</text>
<text text-anchor="middle" x="1279.28" y="-1829.99" font-family="Arial" font-size="24.00">unknown | ID: 57</text>
</a>
</g>
</g>
<!-- INFO DISCOVERY
unknown&#45;&gt;DATA EXFILTRATION
unknown | ID: 57 -->
<g id="edge24" class="edge">
<title>INFO DISCOVERY
unknown&#45;&gt;DATA EXFILTRATION
unknown | ID: 57</title>
<path fill="none" stroke="blue" stroke-width="5" d="M1280.8,-1718.27C1280.55,-1739.76 1280.24,-1766.36 1279.96,-1789.88"/>
<polygon fill="blue" stroke="blue" stroke-width="5" points="1275.58,-1790.05 1279.84,-1800.1 1284.33,-1790.15 1275.58,-1790.05"/>
<text text-anchor="middle" x="1412.78" y="-1776.2" font-family="Arial" font-size="20.00" fill="blue">start_next: 04/11/17, 16:52:26</text>
<text text-anchor="middle" x="1412.78" y="-1754.2" font-family="Arial" font-size="20.00" fill="blue">gap: 1sec</text>
<text text-anchor="middle" x="1412.78" y="-1732.2" font-family="Arial" font-size="20.00" fill="blue">end_prev: 04/11/17, 16:52:26</text>
</g>
<!-- SERVICE DISCOVERY
microsoft&#45;ds -->
<g id="node20" class="node">
<title>SERVICE DISCOVERY
microsoft&#45;ds</title>
<g id="a_node20"><a xlink:title="ET SCAN Behavioral Unusual Port 445 traffic Potential Scan or Infection">
<ellipse fill="none" stroke="black" stroke-width="3" cx="1260.28" cy="-2022.61" rx="189.51" ry="42.35"/>
<text text-anchor="middle" x="1260.28" y="-2029.41" font-family="Arial" font-size="24.00">SERVICE DISCOVERY</text>
<text text-anchor="middle" x="1260.28" y="-2003.41" font-family="Arial" font-size="24.00">microsoft&#45;ds</text>
</a>
</g>
</g>
<!-- DATA EXFILTRATION
unknown | ID: 57&#45;&gt;SERVICE DISCOVERY
microsoft&#45;ds -->
<g id="edge25" class="edge">
<title>DATA EXFILTRATION
unknown | ID: 57&#45;&gt;SERVICE DISCOVERY
microsoft&#45;ds</title>
<path fill="none" stroke="blue" stroke-width="5" d="M1273.94,-1898.4C1271.46,-1920.72 1268.52,-1947.28 1266,-1970.01"/>
<polygon fill="blue" stroke="blue" stroke-width="5" points="1261.63,-1969.74 1264.88,-1980.16 1270.33,-1970.7 1261.63,-1969.74"/>
<text text-anchor="middle" x="1404.78" y="-1956.18" font-family="Arial" font-size="20.00" fill="blue">start_next: 04/11/17, 18:02:08</text>
<text text-anchor="middle" x="1404.78" y="-1934.18" font-family="Arial" font-size="20.00" fill="blue">gap: 4178sec</text>
<text text-anchor="middle" x="1404.78" y="-1912.18" font-family="Arial" font-size="20.00" fill="blue">end_prev: 04/11/17, 16:52:31</text>
</g>
<!-- SERVICE DISCOVERY
microsoft&#45;ds&#45;&gt;VULNERABILTY DISCOVERY
ncube&#45;lm -->
<g id="edge26" class="edge">
<title>SERVICE DISCOVERY
microsoft&#45;ds&#45;&gt;VULNERABILTY DISCOVERY
ncube&#45;lm</title>
<path fill="none" stroke="blue" stroke-width="5" d="M1209.69,-2063.52C1179.97,-2086.96 1142.23,-2116.72 1111.05,-2141.32"/>
<polygon fill="blue" stroke="blue" stroke-width="5" points="1108,-2138.15 1102.86,-2147.78 1113.42,-2145.02 1108,-2138.15"/>
<text text-anchor="middle" x="1324.78" y="-2123.04" font-family="Arial" font-size="20.00" fill="blue">start_next: 04/11/17, 18:02:46</text>
<text text-anchor="middle" x="1324.78" y="-2101.04" font-family="Arial" font-size="20.00" fill="blue">gap: 38sec</text>
<text text-anchor="middle" x="1324.78" y="-2079.04" font-family="Arial" font-size="20.00" fill="blue">end_prev: 04/11/17, 18:02:08</text>
</g>
<!-- ARBITRARY CODE EXECUTION
epmap | ID: 356&#45;&gt;REMOTE SERVICE EXPLOIT
snmp | ID: 52 -->
<g id="edge28" class="edge">
<title>ARBITRARY CODE EXECUTION
epmap | ID: 356&#45;&gt;REMOTE SERVICE EXPLOIT
snmp | ID: 52</title>
<path fill="none" stroke="blue" stroke-width="5" d="M663.97,-2340.19C686.17,-2306.02 718.28,-2246.86 718.28,-2190.46 718.28,-171 718.28,-171 718.28,-171 718.28,-137 720.66,-98.43 722.83,-70.4"/>
<polygon fill="blue" stroke="blue" stroke-width="5" points="727.21,-70.52 723.64,-60.2 718.48,-69.82 727.21,-70.52"/>
<text text-anchor="middle" x="849.78" y="-1211.07" font-family="Arial" font-size="20.00" fill="blue">start_next: 04/11/17, 18:05:23</text>
<text text-anchor="middle" x="849.78" y="-1189.07" font-family="Arial" font-size="20.00" fill="blue">gap: 15sec</text>
<text text-anchor="middle" x="849.78" y="-1167.07" font-family="Arial" font-size="20.00" fill="blue">end_prev: 04/11/17, 18:05:07</text>
</g>
<!-- ACCOUNT MANIPULATION
snmp | ID: 952 -->
<g id="node23" class="node">
<title>ACCOUNT MANIPULATION
snmp | ID: 952</title>
<g id="a_node23"><a xlink:title="GPL SNMP private access udp&#10;GPL SNMP public access udp">
<polygon fill="none" stroke="black" stroke-width="3" stroke-dasharray="1,5" points="332.28,-344 12.28,-344 12.28,-284 332.28,-284 332.28,-344"/>
<text text-anchor="middle" x="172.28" y="-320.8" font-family="Arial" font-size="24.00">ACCOUNT MANIPULATION</text>
<text text-anchor="middle" x="172.28" y="-294.8" font-family="Arial" font-size="24.00">snmp | ID: 952</text>
</a>
</g>
</g>
<!-- COMMAND AND CONTROL
unknown | ID: 1365&#45;&gt;ACCOUNT MANIPULATION
snmp | ID: 952 -->
<g id="edge30" class="edge">
<title>COMMAND AND CONTROL
unknown | ID: 1365&#45;&gt;ACCOUNT MANIPULATION
snmp | ID: 952</title>
<path fill="none" stroke="blue" stroke-width="5" d="M172.28,-202.01C172.28,-222.71 172.28,-250.79 172.28,-273.52"/>
<polygon fill="blue" stroke="blue" stroke-width="5" points="167.91,-273.55 172.28,-283.55 176.66,-273.55 167.91,-273.55"/>
<text text-anchor="middle" x="303.78" y="-260" font-family="Arial" font-size="20.00" fill="blue">start_next: 04/11/17, 18:05:52</text>
<text text-anchor="middle" x="303.78" y="-238" font-family="Arial" font-size="20.00" fill="blue">gap: &#45;87sec</text>
<text text-anchor="middle" x="303.78" y="-216" font-family="Arial" font-size="20.00" fill="blue">end_prev: 04/11/17, 18:07:19</text>
</g>
<!-- ACCOUNT MANIPULATION
snmp | ID: 952&#45;&gt;DATA DELIVERY
unknown | ID: 396 -->
<g id="edge31" class="edge">
<title>ACCOUNT MANIPULATION
snmp | ID: 952&#45;&gt;DATA DELIVERY
unknown | ID: 396</title>
<path fill="none" stroke="blue" stroke-width="5" d="M172.28,-344.11C172.28,-386.55 172.28,-466.31 172.28,-521.24"/>
<polygon fill="blue" stroke="blue" stroke-width="5" points="167.91,-521.53 172.28,-531.53 176.66,-521.53 167.91,-521.53"/>
<text text-anchor="middle" x="303.78" y="-402" font-family="Arial" font-size="20.00" fill="blue">start_next: 04/11/17, 18:06:44</text>
<text text-anchor="middle" x="303.78" y="-380" font-family="Arial" font-size="20.00" fill="blue">gap: 50sec</text>
<text text-anchor="middle" x="303.78" y="-358" font-family="Arial" font-size="20.00" fill="blue">end_prev: 04/11/17, 18:05:54</text>
</g>
</g>
</svg>
