<?xml version="1.0" encoding="UTF-8" standalone="no"?>
<!DOCTYPE svg PUBLIC "-//W3C//DTD SVG 1.1//EN"
 "http://www.w3.org/Graphics/SVG/1.1/DTD/svg11.dtd">
<!-- Generated by graphviz version 2.50.0 (0)
 -->
<!-- Title: NETWORKDOSssdp Pages: 1 -->
<svg width="1435pt" height="1640pt"
 viewBox="0.00 0.00 1435.00 1639.87" xmlns="http://www.w3.org/2000/svg" xmlns:xlink="http://www.w3.org/1999/xlink">
<g id="graph0" class="graph" transform="scale(1 1) rotate(0) translate(4 1635.87)">
<title>NETWORKDOSssdp</title>
<polygon fill="white" stroke="transparent" points="-4,4 -4,-1635.87 1431,-1635.87 1431,4 -4,4"/>
<!-- Victim: 10.0.0.71
NETWORK DoS
ssdp -->
<g id="node1" class="node">
<title>Victim: 10.0.0.71
NETWORK DoS
ssdp</title>
<polygon fill="salmon" stroke="black" stroke-width="3" points="1313.56,-1534.85 1313.56,-1589.24 1225.36,-1627.7 1100.64,-1627.7 1012.44,-1589.24 1012.44,-1534.85 1100.64,-1496.39 1225.36,-1496.39 1313.56,-1534.85"/>
<polygon fill="none" stroke="black" stroke-width="3" points="1317.55,-1532.24 1317.55,-1591.85 1226.2,-1631.69 1099.8,-1631.69 1008.45,-1591.85 1008.45,-1532.24 1099.8,-1492.4 1226.2,-1492.4 1317.55,-1532.24"/>
<text text-anchor="middle" x="1163" y="-1581.84" font-family="Arial" font-size="24.00">Victim: 10.0.0.71</text>
<text text-anchor="middle" x="1163" y="-1555.84" font-family="Arial" font-size="24.00">NETWORK DoS</text>
<text text-anchor="middle" x="1163" y="-1529.84" font-family="Arial" font-size="24.00">ssdp</text>
</g>
<!-- NETWORK DoS
ssdp | ID: 55 -->
<g id="node2" class="node">
<title>NETWORK DoS
ssdp | ID: 55</title>
<g id="a_node2"><a xlink:title="ET DOS Possible SSDP Amplification Scan in Progress">
<polygon fill="salmon" stroke="black" stroke-width="3" points="1319.54,-804.4 1241.27,-853.38 1084.73,-853.38 1006.46,-804.4 1084.73,-755.42 1241.27,-755.42 1319.54,-804.4"/>
<text text-anchor="middle" x="1163" y="-811.2" font-family="Arial" font-size="24.00">NETWORK DoS</text>
<text text-anchor="middle" x="1163" y="-785.2" font-family="Arial" font-size="24.00">ssdp | ID: 55</text>
</a>
</g>
</g>
<!-- NETWORK DoS
ssdp | ID: 55&#45;&gt;Victim: 10.0.0.71
NETWORK DoS
ssdp -->
<g id="edge1" class="edge">
<title>NETWORK DoS
ssdp | ID: 55&#45;&gt;Victim: 10.0.0.71
NETWORK DoS
ssdp</title>
<path fill="none" stroke="black" stroke-width="5" d="M1163,-853.76C1163,-890.18 1163,-941.35 1163,-986.24 1163,-986.24 1163,-986.24 1163,-1362.23 1163,-1401.67 1163,-1445.51 1163,-1481.96"/>
<polygon fill="black" stroke="black" stroke-width="5" points="1158.63,-1482.04 1163,-1492.04 1167.38,-1482.04 1158.63,-1482.04"/>
</g>
<!-- VULNERABILTY DISCOVERY
ms&#45;sql&#45;s -->
<g id="node3" class="node">
<title>VULNERABILTY DISCOVERY
ms&#45;sql&#45;s</title>
<g id="a_node3"><a xlink:title="ET POLICY Suspicious inbound to MSSQL port 1433">
<ellipse fill="yellow" stroke="black" stroke-width="3" cx="838" cy="-42.43" rx="241.25" ry="42.35"/>
<text text-anchor="middle" x="838" y="-49.23" font-family="Arial" font-size="24.00">VULNERABILTY DISCOVERY</text>
<text text-anchor="middle" x="838" y="-23.23" font-family="Arial" font-size="24.00">ms&#45;sql&#45;s</text>
</a>
</g>
</g>
<!-- SERVICE DISCOVERY
dsd -->
<g id="node4" class="node">
<title>SERVICE DISCOVERY
dsd</title>
<g id="a_node4"><a xlink:title="ET SCAN Potential VNC Scan 5900&#45;5920">
<ellipse fill="none" stroke="black" stroke-width="3" cx="838" cy="-223.28" rx="189.51" ry="42.35"/>
<text text-anchor="middle" x="838" y="-230.08" font-family="Arial" font-size="24.00">SERVICE DISCOVERY</text>
<text text-anchor="middle" x="838" y="-204.08" font-family="Arial" font-size="24.00">dsd</text>
</a>
</g>
</g>
<!-- VULNERABILTY DISCOVERY
ms&#45;sql&#45;s&#45;&gt;SERVICE DISCOVERY
dsd -->
<g id="edge2" class="edge">
<title>VULNERABILTY DISCOVERY
ms&#45;sql&#45;s&#45;&gt;SERVICE DISCOVERY
dsd</title>
<path fill="none" stroke="blue" stroke-width="5" d="M838,-84.91C838,-110.44 838,-143.37 838,-170.59"/>
<polygon fill="blue" stroke="blue" stroke-width="5" points="833.63,-170.71 838,-180.71 842.38,-170.71 833.63,-170.71"/>
<text text-anchor="start" x="838" y="-157.85" font-family="Arial" font-size="20.00" fill="blue"> start_next: 04/11/17, 13:00:02</text>
<text text-anchor="start" x="917.5" y="-137.85" font-family="Arial" font-size="20.00" fill="blue">gap: 239sec</text>
<text text-anchor="start" x="842" y="-117.85" font-family="Arial" font-size="20.00" fill="blue">end_prev: 04/11/17, 12:56:02</text>
<text text-anchor="start" x="872.5" y="-97.85" font-family="Arial" font-weight="bold" font-size="20.00" fill="blue">Attacker: 10.0.254.31</text>
</g>
<!-- VULNERABILTY DISCOVERY
http -->
<g id="node5" class="node">
<title>VULNERABILTY DISCOVERY
http</title>
<g id="a_node5"><a xlink:title="ET POLICY Suspicious inbound to mySQL port 3306&#10;ET POLICY Suspicious inbound to mSQL port 4333&#10;ET POLICY Suspicious inbound to MSSQL port 1433&#10;ET POLICY Suspicious inbound to Oracle SQL port 1521&#10;ET SCAN Nessus User Agent">
<ellipse fill="none" stroke="black" stroke-width="3" cx="838" cy="-390.13" rx="241.25" ry="42.35"/>
<text text-anchor="middle" x="838" y="-396.93" font-family="Arial" font-size="24.00">VULNERABILTY DISCOVERY</text>
<text text-anchor="middle" x="838" y="-370.93" font-family="Arial" font-size="24.00">http</text>
</a>
</g>
</g>
<!-- SERVICE DISCOVERY
dsd&#45;&gt;VULNERABILTY DISCOVERY
http -->
<g id="edge3" class="edge">
<title>SERVICE DISCOVERY
dsd&#45;&gt;VULNERABILTY DISCOVERY
http</title>
<path fill="none" stroke="blue" stroke-width="5" d="M838,-265.88C838,-287.55 838,-314.26 838,-337.27"/>
<polygon fill="blue" stroke="blue" stroke-width="5" points="833.63,-337.55 838,-347.55 842.38,-337.55 833.63,-337.55"/>
<text text-anchor="middle" x="969.5" y="-323.71" font-family="Arial" font-size="20.00" fill="blue">start_next: 04/11/17, 13:59:50</text>
<text text-anchor="middle" x="969.5" y="-301.71" font-family="Arial" font-size="20.00" fill="blue">gap: 3588sec</text>
<text text-anchor="middle" x="969.5" y="-279.71" font-family="Arial" font-size="20.00" fill="blue">end_prev: 04/11/17, 13:00:02</text>
</g>
<!-- ARBITRARY CODE EXECUTION
ssdp | ID: 355 -->
<g id="node6" class="node">
<title>ARBITRARY CODE EXECUTION
ssdp | ID: 355</title>
<g id="a_node6"><a xlink:title="GPL MISC UPnP malformed advertisement">
<polygon fill="none" stroke="black" stroke-width="3" points="802.5,-586.98 427.5,-586.98 427.5,-526.98 802.5,-526.98 802.5,-586.98"/>
<text text-anchor="middle" x="615" y="-563.78" font-family="Arial" font-size="24.00">ARBITRARY CODE EXECUTION</text>
<text text-anchor="middle" x="615" y="-537.78" font-family="Arial" font-size="24.00">ssdp | ID: 355</text>
</a>
</g>
</g>
<!-- VULNERABILTY DISCOVERY
http&#45;&gt;ARBITRARY CODE EXECUTION
ssdp | ID: 355 -->
<g id="edge4" class="edge">
<title>VULNERABILTY DISCOVERY
http&#45;&gt;ARBITRARY CODE EXECUTION
ssdp | ID: 355</title>
<path fill="none" stroke="blue" stroke-width="5" d="M845.11,-432.62C846.83,-456.95 844.36,-486.7 827,-506.56 821.5,-512.85 811.56,-518.45 798.89,-523.4"/>
<polygon fill="blue" stroke="blue" stroke-width="5" points="797.12,-519.39 789.2,-526.89 800.09,-527.62 797.12,-519.39"/>
<text text-anchor="middle" x="976.5" y="-490.56" font-family="Arial" font-size="20.00" fill="blue">start_next: 04/11/17, 14:01:40</text>
<text text-anchor="middle" x="976.5" y="-468.56" font-family="Arial" font-size="20.00" fill="blue">gap: &#45;585sec</text>
<text text-anchor="middle" x="976.5" y="-446.56" font-family="Arial" font-size="20.00" fill="blue">end_prev: 04/11/17, 14:11:25</text>
</g>
<!-- INFO DISCOVERY
xdmcp -->
<g id="node7" class="node">
<title>INFO DISCOVERY
xdmcp</title>
<g id="a_node7"><a xlink:title="GPL RPC xdmcp info query">
<ellipse fill="none" stroke="black" stroke-width="3" cx="596" cy="-903.82" rx="156.04" ry="42.35"/>
<text text-anchor="middle" x="596" y="-910.62" font-family="Arial" font-size="24.00">INFO DISCOVERY</text>
<text text-anchor="middle" x="596" y="-884.62" font-family="Arial" font-size="24.00">xdmcp</text>
</a>
</g>
</g>
<!-- ARBITRARY CODE EXECUTION
ssdp | ID: 355&#45;&gt;INFO DISCOVERY
xdmcp -->
<g id="edge5" class="edge">
<title>ARBITRARY CODE EXECUTION
ssdp | ID: 355&#45;&gt;INFO DISCOVERY
xdmcp</title>
<path fill="none" stroke="blue" stroke-width="5" d="M593.7,-587.16C577.6,-611.13 556.82,-646.67 548,-681.41 533.22,-739.6 553.13,-807.11 571.62,-852.14"/>
<polygon fill="blue" stroke="blue" stroke-width="5" points="567.61,-853.89 575.53,-861.4 575.67,-850.49 567.61,-853.89"/>
<text text-anchor="middle" x="679.5" y="-731.41" font-family="Arial" font-size="20.00" fill="blue">start_next: 04/11/17, 14:02:15</text>
<text text-anchor="middle" x="679.5" y="-709.41" font-family="Arial" font-size="20.00" fill="blue">gap: 25sec</text>
<text text-anchor="middle" x="679.5" y="-687.41" font-family="Arial" font-size="20.00" fill="blue">end_prev: 04/11/17, 14:01:50</text>
</g>
<!-- REMOTE SERVICE EXPLOIT
snmp | ID: 52 -->
<g id="node13" class="node">
<title>REMOTE SERVICE EXPLOIT
snmp | ID: 52</title>
<g id="a_node13"><a xlink:title="ET SNMP Samsung Printer SNMP Hardcode RW Community String">
<polygon fill="none" stroke="black" stroke-width="3" points="1152,-744.41 814,-744.41 814,-684.41 1152,-684.41 1152,-744.41"/>
<text text-anchor="middle" x="983" y="-721.21" font-family="Arial" font-size="24.00">REMOTE SERVICE EXPLOIT</text>
<text text-anchor="middle" x="983" y="-695.21" font-family="Arial" font-size="24.00">snmp | ID: 52</text>
</a>
</g>
</g>
<!-- ARBITRARY CODE EXECUTION
ssdp | ID: 355&#45;&gt;REMOTE SERVICE EXPLOIT
snmp | ID: 52 -->
<g id="edge12" class="edge">
<title>ARBITRARY CODE EXECUTION
ssdp | ID: 355&#45;&gt;REMOTE SERVICE EXPLOIT
snmp | ID: 52</title>
<path fill="none" stroke="blue" stroke-width="5" d="M683.79,-587.04C746.54,-613.54 839.22,-652.68 904.77,-680.37"/>
<polygon fill="blue" stroke="blue" stroke-width="5" points="903.33,-684.51 914.24,-684.37 906.73,-676.45 903.33,-684.51"/>
<text text-anchor="middle" x="1015.5" y="-657.41" font-family="Arial" font-size="20.00" fill="blue">start_next: 04/11/17, 16:30:27</text>
<text text-anchor="middle" x="1015.5" y="-635.41" font-family="Arial" font-size="20.00" fill="blue">gap: 26sec</text>
<text text-anchor="middle" x="1015.5" y="-613.41" font-family="Arial" font-size="20.00" fill="blue">end_prev: 04/11/17, 16:30:00</text>
</g>
<!-- ACCOUNT MANIPULATION
snmp | ID: 1155 -->
<g id="node8" class="node">
<title>ACCOUNT MANIPULATION
snmp | ID: 1155</title>
<g id="a_node8"><a xlink:title="GPL SNMP private access udp&#10;GPL SNMP public access udp">
<polygon fill="none" stroke="black" stroke-width="3" stroke-dasharray="1,5" points="972,-1088.24 652,-1088.24 652,-1028.24 972,-1028.24 972,-1088.24"/>
<text text-anchor="middle" x="812" y="-1065.04" font-family="Arial" font-size="24.00">ACCOUNT MANIPULATION</text>
<text text-anchor="middle" x="812" y="-1039.04" font-family="Arial" font-size="24.00">snmp | ID: 1155</text>
</a>
</g>
</g>
<!-- INFO DISCOVERY
xdmcp&#45;&gt;ACCOUNT MANIPULATION
snmp | ID: 1155 -->
<g id="edge6" class="edge">
<title>INFO DISCOVERY
xdmcp&#45;&gt;ACCOUNT MANIPULATION
snmp | ID: 1155</title>
<path fill="none" stroke="blue" stroke-width="5" d="M723.16,-928.76C738.33,-935.31 752.75,-943.64 765,-954.24 784.07,-970.76 795.83,-996.6 802.82,-1018.27"/>
<polygon fill="blue" stroke="blue" stroke-width="5" points="798.64,-1019.56 805.71,-1027.88 807.02,-1017.05 798.64,-1019.56"/>
<text text-anchor="middle" x="933.5" y="-1004.24" font-family="Arial" font-size="20.00" fill="blue">start_next: 04/11/17, 14:03:06</text>
<text text-anchor="middle" x="933.5" y="-982.24" font-family="Arial" font-size="20.00" fill="blue">gap: 48sec</text>
<text text-anchor="middle" x="933.5" y="-960.24" font-family="Arial" font-size="20.00" fill="blue">end_prev: 04/11/17, 14:02:19</text>
</g>
<!-- BRUTE FORCE CREDENTIALS
unknown | ID: 358 -->
<g id="node14" class="node">
<title>BRUTE FORCE CREDENTIALS
unknown | ID: 358</title>
<g id="a_node14"><a xlink:title="ET SCAN Multiple MySQL Login Failures Possible Brute Force Attempt">
<polygon fill="none" stroke="black" stroke-width="3" points="645,-1088.24 283,-1088.24 283,-1028.24 645,-1028.24 645,-1088.24"/>
<text text-anchor="middle" x="464" y="-1065.04" font-family="Arial" font-size="24.00">BRUTE FORCE CREDENTIALS</text>
<text text-anchor="middle" x="464" y="-1039.04" font-family="Arial" font-size="24.00">unknown | ID: 358</text>
</a>
</g>
</g>
<!-- INFO DISCOVERY
xdmcp&#45;&gt;BRUTE FORCE CREDENTIALS
unknown | ID: 358 -->
<g id="edge14" class="edge">
<title>INFO DISCOVERY
xdmcp&#45;&gt;BRUTE FORCE CREDENTIALS
unknown | ID: 358</title>
<path fill="none" stroke="blue" stroke-width="5" d="M519.41,-940.86C514.19,-944.95 509.3,-949.4 505,-954.24 488.97,-972.3 478.8,-997.4 472.6,-1018.3"/>
<polygon fill="blue" stroke="blue" stroke-width="5" points="468.32,-1017.37 469.87,-1028.17 476.75,-1019.7 468.32,-1017.37"/>
<text text-anchor="middle" x="636.5" y="-1004.24" font-family="Arial" font-size="20.00" fill="blue">start_next: 04/11/17, 16:31:18</text>
<text text-anchor="middle" x="636.5" y="-982.24" font-family="Arial" font-size="20.00" fill="blue">gap: 48sec</text>
<text text-anchor="middle" x="636.5" y="-960.24" font-family="Arial" font-size="20.00" fill="blue">end_prev: 04/11/17, 16:30:31</text>
</g>
<!-- BRUTE FORCE CREDENTIALS
unknown | ID: 672 -->
<g id="node9" class="node">
<title>BRUTE FORCE CREDENTIALS
unknown | ID: 672</title>
<g id="a_node9"><a xlink:title="ET SCAN Multiple MySQL Login Failures Possible Brute Force Attempt">
<polygon fill="none" stroke="black" stroke-width="3" points="918,-1230.24 556,-1230.24 556,-1170.24 918,-1170.24 918,-1230.24"/>
<text text-anchor="middle" x="737" y="-1207.04" font-family="Arial" font-size="24.00">BRUTE FORCE CREDENTIALS</text>
<text text-anchor="middle" x="737" y="-1181.04" font-family="Arial" font-size="24.00">unknown | ID: 672</text>
</a>
</g>
</g>
<!-- ACCOUNT MANIPULATION
snmp | ID: 1155&#45;&gt;BRUTE FORCE CREDENTIALS
unknown | ID: 672 -->
<g id="edge7" class="edge">
<title>ACCOUNT MANIPULATION
snmp | ID: 1155&#45;&gt;BRUTE FORCE CREDENTIALS
unknown | ID: 672</title>
<path fill="none" stroke="blue" stroke-width="5" d="M796.46,-1088.25C785.22,-1109.23 769.92,-1137.79 757.66,-1160.68"/>
<polygon fill="blue" stroke="blue" stroke-width="5" points="753.64,-1158.91 752.78,-1169.79 761.36,-1163.04 753.64,-1158.91"/>
<text text-anchor="middle" x="922.5" y="-1146.24" font-family="Arial" font-size="20.00" fill="blue">start_next: 04/11/17, 14:03:10</text>
<text text-anchor="middle" x="922.5" y="-1124.24" font-family="Arial" font-size="20.00" fill="blue">gap: &#45;8sec</text>
<text text-anchor="middle" x="922.5" y="-1102.24" font-family="Arial" font-size="20.00" fill="blue">end_prev: 04/11/17, 14:03:18</text>
</g>
<!-- DATA EXFILTRATION
http | ID: 228 -->
<g id="node10" class="node">
<title>DATA EXFILTRATION
http | ID: 228</title>
<g id="a_node10"><a xlink:title="ET WEB_SPECIFIC_APPS PHP&#45;CGI query string parameter vulnerability&#10;ET WEB_SERVER Tilde in URI &#45; potential .php~ source disclosure vulnerability">
<polygon fill="none" stroke="black" stroke-width="3" points="676.88,-1361.23 574.44,-1410.21 369.56,-1410.21 267.12,-1361.23 369.56,-1312.25 574.44,-1312.25 676.88,-1361.23"/>
<text text-anchor="middle" x="472" y="-1368.03" font-family="Arial" font-size="24.00">DATA EXFILTRATION</text>
<text text-anchor="middle" x="472" y="-1342.03" font-family="Arial" font-size="24.00">http | ID: 228</text>
</a>
</g>
</g>
<!-- BRUTE FORCE CREDENTIALS
unknown | ID: 672&#45;&gt;DATA EXFILTRATION
http | ID: 228 -->
<g id="edge8" class="edge">
<title>BRUTE FORCE CREDENTIALS
unknown | ID: 672&#45;&gt;DATA EXFILTRATION
http | ID: 228</title>
<path fill="none" stroke="blue" stroke-width="5" d="M688.39,-1230.4C652.75,-1251.79 603.34,-1281.43 560.73,-1307"/>
<polygon fill="blue" stroke="blue" stroke-width="5" points="558.36,-1303.32 552.03,-1312.22 562.86,-1310.82 558.36,-1303.32"/>
<text text-anchor="middle" x="804.5" y="-1288.24" font-family="Arial" font-size="20.00" fill="blue">start_next: 04/11/17, 14:04:26</text>
<text text-anchor="middle" x="804.5" y="-1266.24" font-family="Arial" font-size="20.00" fill="blue">gap: 49sec</text>
<text text-anchor="middle" x="804.5" y="-1244.24" font-family="Arial" font-size="20.00" fill="blue">end_prev: 04/11/17, 14:03:37</text>
</g>
<!-- DATA DELIVERY
http | ID: 21 -->
<g id="node11" class="node">
<title>DATA DELIVERY
http | ID: 21</title>
<g id="a_node11"><a xlink:title="ET WEB_SERVER PHP tags in HTTP POST">
<polygon fill="none" stroke="black" stroke-width="3" points="481.1,-1562.04 399.55,-1611.02 236.45,-1611.02 154.9,-1562.04 236.45,-1513.07 399.55,-1513.07 481.1,-1562.04"/>
<text text-anchor="middle" x="318" y="-1568.84" font-family="Arial" font-size="24.00">DATA DELIVERY</text>
<text text-anchor="middle" x="318" y="-1542.84" font-family="Arial" font-size="24.00">http | ID: 21</text>
</a>
</g>
</g>
<!-- DATA EXFILTRATION
http | ID: 228&#45;&gt;DATA DELIVERY
http | ID: 21 -->
<g id="edge9" class="edge">
<title>DATA EXFILTRATION
http | ID: 228&#45;&gt;DATA DELIVERY
http | ID: 21</title>
<path fill="none" stroke="blue" stroke-width="5" d="M434.72,-1410.36C412.67,-1438.83 384.64,-1475.02 361.57,-1504.8"/>
<polygon fill="blue" stroke="blue" stroke-width="5" points="357.87,-1502.43 355.2,-1513.02 364.78,-1507.79 357.87,-1502.43"/>
<text text-anchor="middle" x="558.5" y="-1468.22" font-family="Arial" font-size="20.00" fill="blue">start_next: 04/11/17, 14:04:29</text>
<text text-anchor="middle" x="558.5" y="-1446.22" font-family="Arial" font-size="20.00" fill="blue">gap: &#45;34sec</text>
<text text-anchor="middle" x="558.5" y="-1424.22" font-family="Arial" font-size="20.00" fill="blue">end_prev: 04/11/17, 14:05:03</text>
</g>
<!-- VULNERABILTY DISCOVERY
mysql -->
<g id="node12" class="node">
<title>VULNERABILTY DISCOVERY
mysql</title>
<g id="a_node12"><a xlink:title="ET POLICY Suspicious inbound to mySQL port 3306&#10;ET POLICY Suspicious inbound to mSQL port 4333&#10;ET POLICY Suspicious inbound to MSSQL port 1433&#10;ET POLICY Suspicious inbound to Oracle SQL port 1521&#10;ET SCAN Nessus User Agent&#10;ET POLICY Suspicious inbound to PostgreSQL port 5432">
<ellipse fill="none" stroke="black" stroke-width="3" cx="280" cy="-390.13" rx="241.25" ry="42.35"/>
<text text-anchor="middle" x="280" y="-396.93" font-family="Arial" font-size="24.00">VULNERABILTY DISCOVERY</text>
<text text-anchor="middle" x="280" y="-370.93" font-family="Arial" font-size="24.00">mysql</text>
</a>
</g>
</g>
<!-- DATA DELIVERY
http | ID: 21&#45;&gt;VULNERABILTY DISCOVERY
mysql -->
<g id="edge10" class="edge">
<title>DATA DELIVERY
http | ID: 21&#45;&gt;VULNERABILTY DISCOVERY
mysql</title>
<path fill="none" stroke="blue" stroke-width="5" d="M196.87,-1536.46C107,-1510.33 0,-1458.92 0,-1362.23 0,-555.98 0,-555.98 0,-555.98 0,-490.93 56.83,-451.03 119.28,-426.83"/>
<polygon fill="blue" stroke="blue" stroke-width="5" points="121.1,-430.82 128.94,-423.22 118.04,-422.62 121.1,-430.82"/>
<text text-anchor="middle" x="131.5" y="-1004.24" font-family="Arial" font-size="20.00" fill="blue">start_next: 04/11/17, 16:27:57</text>
<text text-anchor="middle" x="131.5" y="-982.24" font-family="Arial" font-size="20.00" fill="blue">gap: 8560sec</text>
<text text-anchor="middle" x="131.5" y="-960.24" font-family="Arial" font-size="20.00" fill="blue">end_prev: 04/11/17, 14:05:17</text>
</g>
<!-- VULNERABILTY DISCOVERY
mysql&#45;&gt;ARBITRARY CODE EXECUTION
ssdp | ID: 355 -->
<g id="edge11" class="edge">
<title>VULNERABILTY DISCOVERY
mysql&#45;&gt;ARBITRARY CODE EXECUTION
ssdp | ID: 355</title>
<path fill="none" stroke="blue" stroke-width="5" d="M279.14,-432.65C279.48,-461.34 282.06,-496.13 292,-506.56 310.87,-526.37 361.38,-538.26 417.01,-545.4"/>
<polygon fill="blue" stroke="blue" stroke-width="5" points="416.62,-549.76 427.07,-546.64 417.68,-541.08 416.62,-549.76"/>
<text text-anchor="middle" x="423.5" y="-490.56" font-family="Arial" font-size="20.00" fill="blue">start_next: 04/11/17, 16:29:55</text>
<text text-anchor="middle" x="423.5" y="-468.56" font-family="Arial" font-size="20.00" fill="blue">gap: &#45;66sec</text>
<text text-anchor="middle" x="423.5" y="-446.56" font-family="Arial" font-size="20.00" fill="blue">end_prev: 04/11/17, 16:31:01</text>
</g>
<!-- SERVICE DISCOVERY
unknown -->
<g id="node16" class="node">
<title>SERVICE DISCOVERY
unknown</title>
<g id="a_node16"><a xlink:title="ET SCAN Potential VNC Scan 5800&#45;5820">
<ellipse fill="none" stroke="black" stroke-width="3" cx="1108" cy="-556.98" rx="189.51" ry="42.35"/>
<text text-anchor="middle" x="1108" y="-563.78" font-family="Arial" font-size="24.00">SERVICE DISCOVERY</text>
<text text-anchor="middle" x="1108" y="-537.78" font-family="Arial" font-size="24.00">unknown</text>
</a>
</g>
</g>
<!-- VULNERABILTY DISCOVERY
mysql&#45;&gt;SERVICE DISCOVERY
unknown -->
<g id="edge17" class="edge">
<title>VULNERABILTY DISCOVERY
mysql&#45;&gt;SERVICE DISCOVERY
unknown</title>
<path fill="none" stroke="blue" stroke-width="5" d="M484.43,-412.77C515.08,-419.67 540.34,-428.72 552,-440.56 572.87,-461.74 540.63,-486.97 563,-506.56 573.16,-515.46 792.54,-513.42 806,-514.56 851.23,-518.39 900.04,-524.31 944.97,-530.48"/>
<polygon fill="blue" stroke="blue" stroke-width="5" points="944.59,-534.84 955.09,-531.88 945.79,-526.18 944.59,-534.84"/>
<text text-anchor="middle" x="694.5" y="-490.56" font-family="Arial" font-size="20.00" fill="blue">start_next: 04/11/17, 18:00:38</text>
<text text-anchor="middle" x="694.5" y="-468.56" font-family="Arial" font-size="20.00" fill="blue">gap: &#45;666sec</text>
<text text-anchor="middle" x="694.5" y="-446.56" font-family="Arial" font-size="20.00" fill="blue">end_prev: 04/11/17, 18:11:44</text>
</g>
<!-- REMOTE SERVICE EXPLOIT
snmp | ID: 52&#45;&gt;INFO DISCOVERY
xdmcp -->
<g id="edge13" class="edge">
<title>REMOTE SERVICE EXPLOIT
snmp | ID: 52&#45;&gt;INFO DISCOVERY
xdmcp</title>
<path fill="none" stroke="blue" stroke-width="5" d="M827.08,-744.44C820.64,-745.48 814.26,-746.47 808,-747.41 777.91,-751.93 767.31,-741.98 740,-755.41 694.87,-777.61 655.88,-819.88 629.89,-853.49"/>
<polygon fill="blue" stroke="blue" stroke-width="5" points="626.13,-851.21 623.57,-861.82 633.1,-856.5 626.13,-851.21"/>
<text text-anchor="middle" x="871.5" y="-821.4" font-family="Arial" font-size="20.00" fill="blue">start_next: 04/11/17, 16:30:27</text>
<text text-anchor="middle" x="871.5" y="-799.4" font-family="Arial" font-size="20.00" fill="blue">gap: 0sec</text>
<text text-anchor="middle" x="871.5" y="-777.4" font-family="Arial" font-size="20.00" fill="blue">end_prev: 04/11/17, 16:30:27</text>
</g>
<!-- ACCOUNT MANIPULATION
snmp | ID: 53 -->
<g id="node15" class="node">
<title>ACCOUNT MANIPULATION
snmp | ID: 53</title>
<g id="a_node15"><a xlink:title="GPL SNMP private access udp&#10;GPL SNMP public access udp">
<polygon fill="none" stroke="black" stroke-width="3" points="505,-1230.24 185,-1230.24 185,-1170.24 505,-1170.24 505,-1230.24"/>
<text text-anchor="middle" x="345" y="-1207.04" font-family="Arial" font-size="24.00">ACCOUNT MANIPULATION</text>
<text text-anchor="middle" x="345" y="-1181.04" font-family="Arial" font-size="24.00">snmp | ID: 53</text>
</a>
</g>
</g>
<!-- BRUTE FORCE CREDENTIALS
unknown | ID: 358&#45;&gt;ACCOUNT MANIPULATION
snmp | ID: 53 -->
<g id="edge15" class="edge">
<title>BRUTE FORCE CREDENTIALS
unknown | ID: 358&#45;&gt;ACCOUNT MANIPULATION
snmp | ID: 53</title>
<path fill="none" stroke="blue" stroke-width="5" d="M439.34,-1088.25C421.2,-1109.6 396.37,-1138.81 376.74,-1161.9"/>
<polygon fill="blue" stroke="blue" stroke-width="5" points="373.18,-1159.34 370.03,-1169.79 379.84,-1165.01 373.18,-1159.34"/>
<text text-anchor="middle" x="564.5" y="-1146.24" font-family="Arial" font-size="20.00" fill="blue">start_next: 04/11/17, 16:31:19</text>
<text text-anchor="middle" x="564.5" y="-1124.24" font-family="Arial" font-size="20.00" fill="blue">gap: &#45;32sec</text>
<text text-anchor="middle" x="564.5" y="-1102.24" font-family="Arial" font-size="20.00" fill="blue">end_prev: 04/11/17, 16:31:50</text>
</g>
<!-- ACCOUNT MANIPULATION
snmp | ID: 53&#45;&gt;VULNERABILTY DISCOVERY
mysql -->
<g id="edge16" class="edge">
<title>ACCOUNT MANIPULATION
snmp | ID: 53&#45;&gt;VULNERABILTY DISCOVERY
mysql</title>
<path fill="none" stroke="blue" stroke-width="5" d="M319.26,-1170.12C298.25,-1143.27 272,-1101.32 272,-1059.24 272,-555.98 272,-555.98 272,-555.98 272,-518.11 274.13,-475.39 276.2,-442.93"/>
<polygon fill="blue" stroke="blue" stroke-width="5" points="280.57,-443.04 276.86,-432.77 271.84,-442.47 280.57,-443.04"/>
<text text-anchor="middle" x="403.5" y="-821.4" font-family="Arial" font-size="20.00" fill="blue">start_next: 04/11/17, 17:58:59</text>
<text text-anchor="middle" x="403.5" y="-799.4" font-family="Arial" font-size="20.00" fill="blue">gap: 5253sec</text>
<text text-anchor="middle" x="403.5" y="-777.4" font-family="Arial" font-size="20.00" fill="blue">end_prev: 04/11/17, 16:31:27</text>
</g>
<!-- SERVICE DISCOVERY
unknown&#45;&gt;NETWORK DoS
ssdp | ID: 55 -->
<g id="edge18" class="edge">
<title>SERVICE DISCOVERY
unknown&#45;&gt;NETWORK DoS
ssdp | ID: 55</title>
<path fill="none" stroke="blue" stroke-width="5" d="M1143.72,-598.66C1145.34,-601.52 1146.79,-604.45 1148,-607.41 1165.85,-651.16 1168.78,-704.91 1167.71,-745.05"/>
<polygon fill="blue" stroke="blue" stroke-width="5" points="1163.33,-745.06 1167.34,-755.21 1172.07,-745.37 1163.33,-745.06"/>
<text text-anchor="middle" x="1295.5" y="-657.41" font-family="Arial" font-size="20.00" fill="blue">start_next: 04/11/17, 18:01:21</text>
<text text-anchor="middle" x="1295.5" y="-635.41" font-family="Arial" font-size="20.00" fill="blue">gap: 42sec</text>
<text text-anchor="middle" x="1295.5" y="-613.41" font-family="Arial" font-size="20.00" fill="blue">end_prev: 04/11/17, 18:00:38</text>
</g>
</g>
</svg>
