<?xml version="1.0" encoding="UTF-8" standalone="no"?>
<!DOCTYPE svg PUBLIC "-//W3C//DTD SVG 1.1//EN"
 "http://www.w3.org/Graphics/SVG/1.1/DTD/svg11.dtd">
<!-- Generated by graphviz version 2.50.0 (0)
 -->
<!-- Title: DATADELIVERYunknown Pages: 1 -->
<svg width="1765pt" height="1826pt"
 viewBox="0.00 0.00 1765.32 1826.01" xmlns="http://www.w3.org/2000/svg" xmlns:xlink="http://www.w3.org/1999/xlink">
<g id="graph0" class="graph" transform="scale(1 1) rotate(0) translate(4 1822.01)">
<title>DATADELIVERYunknown</title>
<polygon fill="white" stroke="transparent" points="-4,4 -4,-1822.01 1761.32,-1822.01 1761.32,4 -4,4"/>
<!-- Victim: 10.0.0.22
DATA DELIVERY
unknown -->
<g id="node1" class="node">
<title>Victim: 10.0.0.22
DATA DELIVERY
unknown</title>
<polygon fill="salmon" stroke="black" stroke-width="3" points="1473.46,-1721 1473.46,-1775.39 1383.75,-1813.85 1256.88,-1813.85 1167.17,-1775.39 1167.17,-1721 1256.88,-1682.54 1383.75,-1682.54 1473.46,-1721"/>
<polygon fill="none" stroke="black" stroke-width="3" points="1477.47,-1718.37 1477.47,-1778.01 1384.58,-1817.84 1256.06,-1817.84 1163.17,-1778.01 1163.17,-1718.37 1256.06,-1678.55 1384.58,-1678.55 1477.47,-1718.37"/>
<text text-anchor="middle" x="1320.32" y="-1767.99" font-family="Arial" font-size="24.00">Victim: 10.0.0.22</text>
<text text-anchor="middle" x="1320.32" y="-1741.99" font-family="Arial" font-size="24.00">DATA DELIVERY</text>
<text text-anchor="middle" x="1320.32" y="-1715.99" font-family="Arial" font-size="24.00">unknown</text>
</g>
<!-- DATA DELIVERY
unknown | ID: 388 -->
<g id="node2" class="node">
<title>DATA DELIVERY
unknown | ID: 388</title>
<g id="a_node2"><a xlink:title="ET WEB_SERVER PHP Possible https Local File Inclusion Attempt&#10;ET WEB_SERVER PHP Possible php Remote File Inclusion Attempt&#10;ET WEB_SERVER PHP tags in HTTP POST">
<polygon fill="salmon" stroke="black" stroke-width="3" points="1665.38,-1612.38 1579.35,-1661.36 1407.29,-1661.36 1321.26,-1612.38 1407.29,-1563.4 1579.35,-1563.4 1665.38,-1612.38"/>
<text text-anchor="middle" x="1493.32" y="-1619.18" font-family="Arial" font-size="24.00">DATA DELIVERY</text>
<text text-anchor="middle" x="1493.32" y="-1593.18" font-family="Arial" font-size="24.00">unknown | ID: 388</text>
</a>
</g>
</g>
<!-- DATA DELIVERY
unknown | ID: 388&#45;&gt;Victim: 10.0.0.22
DATA DELIVERY
unknown -->
<g id="edge1" class="edge">
<title>DATA DELIVERY
unknown | ID: 388&#45;&gt;Victim: 10.0.0.22
DATA DELIVERY
unknown</title>
<path fill="none" stroke="black" stroke-width="5" d="M1430.86,-1661.69C1423.61,-1667.3 1416.12,-1673.09 1408.61,-1678.9"/>
<polygon fill="black" stroke="black" stroke-width="5" points="1405.69,-1675.63 1400.46,-1685.21 1411.04,-1682.55 1405.69,-1675.63"/>
</g>
<!-- DATA DELIVERY
unknown | ID: 56 -->
<g id="node3" class="node">
<title>DATA DELIVERY
unknown | ID: 56</title>
<g id="a_node3"><a xlink:title="ET WEB_SERVER PHP Possible https Local File Inclusion Attempt&#10;ET WEB_SERVER PHP Possible php Remote File Inclusion Attempt&#10;ET WEB_SERVER PHP tags in HTTP POST">
<polygon fill="salmon" stroke="black" stroke-width="3" points="1312.42,-1612.38 1230.87,-1661.36 1067.77,-1661.36 986.22,-1612.38 1067.77,-1563.4 1230.87,-1563.4 1312.42,-1612.38"/>
<text text-anchor="middle" x="1149.32" y="-1619.18" font-family="Arial" font-size="24.00">DATA DELIVERY</text>
<text text-anchor="middle" x="1149.32" y="-1593.18" font-family="Arial" font-size="24.00">unknown | ID: 56</text>
</a>
</g>
</g>
<!-- DATA DELIVERY
unknown | ID: 56&#45;&gt;Victim: 10.0.0.22
DATA DELIVERY
unknown -->
<g id="edge2" class="edge">
<title>DATA DELIVERY
unknown | ID: 56&#45;&gt;Victim: 10.0.0.22
DATA DELIVERY
unknown</title>
<path fill="none" stroke="black" stroke-width="5" d="M1211.05,-1661.69C1218.15,-1667.24 1225.48,-1672.98 1232.84,-1678.73"/>
<polygon fill="black" stroke="black" stroke-width="5" points="1230.24,-1682.26 1240.81,-1684.97 1235.63,-1675.37 1230.24,-1682.26"/>
</g>
<!-- VULNERABILTY DISCOVERY
mysql -->
<g id="node4" class="node">
<title>VULNERABILTY DISCOVERY
mysql</title>
<g id="a_node4"><a xlink:title="ET POLICY Suspicious inbound to mySQL port 3306&#10;ET POLICY Suspicious inbound to MSSQL port 1433&#10;ET POLICY Suspicious inbound to Oracle SQL port 1521&#10;ET SCAN Nessus User Agent&#10;ET POLICY Suspicious inbound to PostgreSQL port 5432">
<ellipse fill="yellow" stroke="black" stroke-width="3" cx="409.32" cy="-376.13" rx="241.25" ry="42.35"/>
<text text-anchor="middle" x="409.32" y="-382.93" font-family="Arial" font-size="24.00">VULNERABILTY DISCOVERY</text>
<text text-anchor="middle" x="409.32" y="-356.93" font-family="Arial" font-size="24.00">mysql</text>
</a>
</g>
</g>
<!-- VULNERABILTY DISCOVERY
mysql&#45;&gt;VULNERABILTY DISCOVERY
mysql -->
<g id="edge14" class="edge">
<title>VULNERABILTY DISCOVERY
mysql&#45;&gt;VULNERABILTY DISCOVERY
mysql</title>
<path fill="none" stroke="blue" stroke-width="5" d="M646.01,-367.94C653.3,-370.16 657.44,-372.89 657.44,-376.13 657.44,-377.55 656.65,-378.87 655.15,-380.09"/>
<polygon fill="blue" stroke="blue" stroke-width="5" points="653.24,-376.15 646.01,-384.32 656.92,-384.1 653.24,-376.15"/>
<text text-anchor="start" x="657.44" y="-401.13" font-family="Arial" font-size="20.00" fill="blue"> start_next: 04/11/17, 16:27:53</text>
<text text-anchor="start" x="730.94" y="-381.13" font-family="Arial" font-size="20.00" fill="blue">gap: 7602sec</text>
<text text-anchor="start" x="661.94" y="-361.13" font-family="Arial" font-size="20.00" fill="blue">end_prev: 04/11/17, 14:21:11</text>
<text text-anchor="start" x="691.94" y="-341.13" font-family="Arial" font-weight="bold" font-size="20.00" fill="blue">Attacker: 10.0.254.31</text>
</g>
<!-- SERVICE DISCOVERY
unknown -->
<g id="node5" class="node">
<title>SERVICE DISCOVERY
unknown</title>
<g id="a_node5"><a xlink:title="ET SCAN Potential VNC Scan 5800&#45;5820&#10;ET SCAN NMAP OS Detection Probe">
<ellipse fill="none" stroke="black" stroke-width="3" cx="769.32" cy="-42.43" rx="189.51" ry="42.35"/>
<text text-anchor="middle" x="769.32" y="-49.23" font-family="Arial" font-size="24.00">SERVICE DISCOVERY</text>
<text text-anchor="middle" x="769.32" y="-23.23" font-family="Arial" font-size="24.00">unknown</text>
</a>
</g>
</g>
<!-- VULNERABILTY DISCOVERY
mysql&#45;&gt;SERVICE DISCOVERY
unknown -->
<g id="edge3" class="edge">
<title>VULNERABILTY DISCOVERY
mysql&#45;&gt;SERVICE DISCOVERY
unknown</title>
<path fill="none" stroke="blue" stroke-width="5" d="M236.02,-346.61C100.77,-316.6 -53.15,-260.46 18.32,-166.85 83.72,-81.2 370.69,-54.59 570.31,-46.55"/>
<polygon fill="blue" stroke="blue" stroke-width="5" points="570.53,-50.92 580.35,-46.16 570.18,-42.18 570.53,-50.92"/>
<text text-anchor="start" x="18.32" y="-234.28" font-family="Arial" font-size="20.00" fill="blue"> start_next: 04/11/17, 12:58:13</text>
<text text-anchor="start" x="88.82" y="-214.28" font-family="Arial" font-size="20.00" fill="blue">gap: &#45;1680sec</text>
<text text-anchor="start" x="22.32" y="-194.28" font-family="Arial" font-size="20.00" fill="blue">end_prev: 04/11/17, 13:26:12</text>
<text text-anchor="start" x="52.82" y="-174.28" font-family="Arial" font-weight="bold" font-size="20.00" fill="blue">Attacker: 10.0.254.31</text>
</g>
<!-- VULNERABILTY DISCOVERY
mysql&#45;&gt;SERVICE DISCOVERY
unknown -->
<g id="edge6" class="edge">
<title>VULNERABILTY DISCOVERY
mysql&#45;&gt;SERVICE DISCOVERY
unknown</title>
<path fill="none" stroke="blue" stroke-width="5" d="M360.71,-334.38C314.37,-290.57 257.27,-220.05 298.32,-166.85 335.33,-118.89 478.57,-85.94 597.47,-66.23"/>
<polygon fill="blue" stroke="blue" stroke-width="5" points="598.27,-70.53 607.44,-64.6 596.86,-61.9 598.27,-70.53"/>
<text text-anchor="middle" x="429.82" y="-226.28" font-family="Arial" font-size="20.00" fill="blue">start_next: 04/11/17, 13:34:51</text>
<text text-anchor="middle" x="429.82" y="-204.28" font-family="Arial" font-size="20.00" fill="blue">gap: 1sec</text>
<text text-anchor="middle" x="429.82" y="-182.28" font-family="Arial" font-size="20.00" fill="blue">end_prev: 04/11/17, 13:34:50</text>
</g>
<!-- BRUTE FORCE CREDENTIALS
unknown | ID: 879 -->
<g id="node12" class="node">
<title>BRUTE FORCE CREDENTIALS
unknown | ID: 879</title>
<g id="a_node12"><a xlink:title="ET SCAN Rapid POP3S Connections &#45; Possible Brute Force Attack&#10;ET SCAN Multiple MySQL Login Failures Possible Brute Force Attempt">
<polygon fill="none" stroke="black" stroke-width="3" points="1363.32,-563.56 1001.32,-563.56 1001.32,-503.56 1363.32,-503.56 1363.32,-563.56"/>
<text text-anchor="middle" x="1182.32" y="-540.36" font-family="Arial" font-size="24.00">BRUTE FORCE CREDENTIALS</text>
<text text-anchor="middle" x="1182.32" y="-514.36" font-family="Arial" font-size="24.00">unknown | ID: 879</text>
</a>
</g>
</g>
<!-- VULNERABILTY DISCOVERY
mysql&#45;&gt;BRUTE FORCE CREDENTIALS
unknown | ID: 879 -->
<g id="edge15" class="edge">
<title>VULNERABILTY DISCOVERY
mysql&#45;&gt;BRUTE FORCE CREDENTIALS
unknown | ID: 879</title>
<path fill="none" stroke="blue" stroke-width="5" d="M565.28,-408.49C700.06,-435.59 893.77,-474.54 1028.05,-501.54"/>
<polygon fill="blue" stroke="blue" stroke-width="5" points="1027.35,-505.86 1038.02,-503.54 1029.08,-497.28 1027.35,-505.86"/>
<text text-anchor="middle" x="1105.82" y="-476.56" font-family="Arial" font-size="20.00" fill="blue">start_next: 04/11/17, 16:28:17</text>
<text text-anchor="middle" x="1105.82" y="-454.56" font-family="Arial" font-size="20.00" fill="blue">gap: &#45;370sec</text>
<text text-anchor="middle" x="1105.82" y="-432.56" font-family="Arial" font-size="20.00" fill="blue">end_prev: 04/11/17, 16:34:28</text>
</g>
<!-- SERVICE DISCOVERY
ff&#45;ice -->
<g id="node6" class="node">
<title>SERVICE DISCOVERY
ff&#45;ice</title>
<g id="a_node6"><a xlink:title="ET SCAN Potential VNC Scan 5900&#45;5920">
<ellipse fill="none" stroke="black" stroke-width="3" cx="754.32" cy="-209.28" rx="189.51" ry="42.35"/>
<text text-anchor="middle" x="754.32" y="-216.08" font-family="Arial" font-size="24.00">SERVICE DISCOVERY</text>
<text text-anchor="middle" x="754.32" y="-190.08" font-family="Arial" font-size="24.00">ff&#45;ice</text>
</a>
</g>
</g>
<!-- SERVICE DISCOVERY
unknown&#45;&gt;SERVICE DISCOVERY
ff&#45;ice -->
<g id="edge4" class="edge">
<title>SERVICE DISCOVERY
unknown&#45;&gt;SERVICE DISCOVERY
ff&#45;ice</title>
<path fill="none" stroke="blue" stroke-width="5" d="M652.37,-75.86C646.27,-80.75 640.82,-86.38 636.32,-92.85 619.58,-116.94 620.07,-134.43 636.32,-158.85 638.05,-161.45 639.95,-163.92 641.98,-166.25"/>
<polygon fill="blue" stroke="blue" stroke-width="5" points="639.27,-169.72 649.43,-173.7 645.45,-163.54 639.27,-169.72"/>
<text text-anchor="middle" x="767.82" y="-142.85" font-family="Arial" font-size="20.00" fill="blue">start_next: 04/11/17, 13:10:51</text>
<text text-anchor="middle" x="767.82" y="-120.85" font-family="Arial" font-size="20.00" fill="blue">gap: 758sec</text>
<text text-anchor="middle" x="767.82" y="-98.85" font-family="Arial" font-size="20.00" fill="blue">end_prev: 04/11/17, 12:58:13</text>
</g>
<!-- VULNERABILTY DISCOVERY
ms&#45;sql&#45;s -->
<g id="node7" class="node">
<title>VULNERABILTY DISCOVERY
ms&#45;sql&#45;s</title>
<g id="a_node7"><a xlink:title="ET POLICY Suspicious inbound to mySQL port 3306&#10;ET POLICY Suspicious inbound to mSQL port 4333&#10;ET POLICY Suspicious inbound to MSSQL port 1433&#10;ET POLICY Suspicious inbound to Oracle SQL port 1521&#10;ET SCAN Nessus User Agent">
<ellipse fill="none" stroke="black" stroke-width="3" cx="1192.32" cy="-209.28" rx="241.25" ry="42.35"/>
<text text-anchor="middle" x="1192.32" y="-216.08" font-family="Arial" font-size="24.00">VULNERABILTY DISCOVERY</text>
<text text-anchor="middle" x="1192.32" y="-190.08" font-family="Arial" font-size="24.00">ms&#45;sql&#45;s</text>
</a>
</g>
</g>
<!-- SERVICE DISCOVERY
unknown&#45;&gt;VULNERABILTY DISCOVERY
ms&#45;sql&#45;s -->
<g id="edge7" class="edge">
<title>SERVICE DISCOVERY
unknown&#45;&gt;VULNERABILTY DISCOVERY
ms&#45;sql&#45;s</title>
<path fill="none" stroke="blue" stroke-width="5" d="M878.93,-77.14C885.33,-81.73 891.22,-86.94 896.32,-92.85 915.96,-115.63 889.53,-138.11 911.32,-158.85 912.47,-159.95 957.64,-168.07 1011.44,-177.43"/>
<polygon fill="blue" stroke="blue" stroke-width="5" points="1010.97,-181.78 1021.57,-179.19 1012.47,-173.16 1010.97,-181.78"/>
<text text-anchor="middle" x="1042.82" y="-142.85" font-family="Arial" font-size="20.00" fill="blue">start_next: 04/11/17, 13:59:51</text>
<text text-anchor="middle" x="1042.82" y="-120.85" font-family="Arial" font-size="20.00" fill="blue">gap: 1484sec</text>
<text text-anchor="middle" x="1042.82" y="-98.85" font-family="Arial" font-size="20.00" fill="blue">end_prev: 04/11/17, 13:35:07</text>
</g>
<!-- INFO DISCOVERY
xdmcp -->
<g id="node8" class="node">
<title>INFO DISCOVERY
xdmcp</title>
<g id="a_node8"><a xlink:title="GPL WEB_SERVER mod_gzip_status access&#10;GPL RPC xdmcp info query">
<ellipse fill="none" stroke="black" stroke-width="3" cx="1318.32" cy="-974.98" rx="156.04" ry="42.35"/>
<text text-anchor="middle" x="1318.32" y="-981.78" font-family="Arial" font-size="24.00">INFO DISCOVERY</text>
<text text-anchor="middle" x="1318.32" y="-955.78" font-family="Arial" font-size="24.00">xdmcp</text>
</a>
</g>
</g>
<!-- SERVICE DISCOVERY
unknown&#45;&gt;INFO DISCOVERY
xdmcp -->
<g id="edge9" class="edge">
<title>SERVICE DISCOVERY
unknown&#45;&gt;INFO DISCOVERY
xdmcp</title>
<path fill="none" stroke="blue" stroke-width="5" d="M958.59,-44.78C1146.82,-48.08 1412.4,-58.81 1446.32,-92.85 1482.61,-129.28 1454.32,-156.86 1454.32,-208.28 1454.32,-208.28 1454.32,-208.28 1454.32,-821.56 1454.32,-867.47 1473.74,-887.73 1446.32,-924.56 1442.67,-929.45 1438.48,-933.87 1433.87,-937.84"/>
<polygon fill="blue" stroke="blue" stroke-width="5" points="1430.99,-934.54 1425.77,-944.13 1436.35,-941.45 1430.99,-934.54"/>
<text text-anchor="middle" x="1585.82" y="-550.56" font-family="Arial" font-size="20.00" fill="blue">start_next: 04/11/17, 14:02:12</text>
<text text-anchor="middle" x="1585.82" y="-528.56" font-family="Arial" font-size="20.00" fill="blue">gap: 103sec</text>
<text text-anchor="middle" x="1585.82" y="-506.56" font-family="Arial" font-size="20.00" fill="blue">end_prev: 04/11/17, 14:00:30</text>
</g>
<!-- SERVICE DISCOVERY
ff&#45;ice&#45;&gt;VULNERABILTY DISCOVERY
mysql -->
<g id="edge5" class="edge">
<title>SERVICE DISCOVERY
ff&#45;ice&#45;&gt;VULNERABILTY DISCOVERY
mysql</title>
<path fill="none" stroke="blue" stroke-width="5" d="M675.6,-247.89C623.43,-272.82 554.82,-305.61 500.31,-331.65"/>
<polygon fill="blue" stroke="blue" stroke-width="5" points="498.13,-327.84 491,-336.1 501.91,-335.74 498.13,-327.84"/>
<text text-anchor="middle" x="774.82" y="-309.71" font-family="Arial" font-size="20.00" fill="blue">start_next: 04/11/17, 13:34:49</text>
<text text-anchor="middle" x="774.82" y="-287.71" font-family="Arial" font-size="20.00" fill="blue">gap: 1205sec</text>
<text text-anchor="middle" x="774.82" y="-265.71" font-family="Arial" font-size="20.00" fill="blue">end_prev: 04/11/17, 13:14:43</text>
</g>
<!-- VULNERABILTY DISCOVERY
ms&#45;sql&#45;s&#45;&gt;SERVICE DISCOVERY
unknown -->
<g id="edge8" class="edge">
<title>VULNERABILTY DISCOVERY
ms&#45;sql&#45;s&#45;&gt;SERVICE DISCOVERY
unknown</title>
<path fill="none" stroke="blue" stroke-width="5" d="M1187.19,-166.74C1182.96,-135.8 1176.8,-98.03 1171.32,-92.85 1155.04,-77.48 1055.45,-65.17 959.48,-56.68"/>
<polygon fill="blue" stroke="blue" stroke-width="5" points="959.65,-52.3 949.31,-55.79 958.89,-61.02 959.65,-52.3"/>
<text text-anchor="middle" x="1316.82" y="-142.85" font-family="Arial" font-size="20.00" fill="blue">start_next: 04/11/17, 14:00:30</text>
<text text-anchor="middle" x="1316.82" y="-120.85" font-family="Arial" font-size="20.00" fill="blue">gap: &#45;680sec</text>
<text text-anchor="middle" x="1316.82" y="-98.85" font-family="Arial" font-size="20.00" fill="blue">end_prev: 04/11/17, 14:11:49</text>
</g>
<!-- ACCOUNT MANIPULATION
snmp | ID: 1357 -->
<g id="node9" class="node">
<title>ACCOUNT MANIPULATION
snmp | ID: 1357</title>
<g id="a_node9"><a xlink:title="GPL SNMP public access udp">
<polygon fill="none" stroke="black" stroke-width="3" stroke-dasharray="1,5" points="1265.32,-1159.41 945.32,-1159.41 945.32,-1099.41 1265.32,-1099.41 1265.32,-1159.41"/>
<text text-anchor="middle" x="1105.32" y="-1136.21" font-family="Arial" font-size="24.00">ACCOUNT MANIPULATION</text>
<text text-anchor="middle" x="1105.32" y="-1110.21" font-family="Arial" font-size="24.00">snmp | ID: 1357</text>
</a>
</g>
</g>
<!-- INFO DISCOVERY
xdmcp&#45;&gt;ACCOUNT MANIPULATION
snmp | ID: 1357 -->
<g id="edge10" class="edge">
<title>INFO DISCOVERY
xdmcp&#45;&gt;ACCOUNT MANIPULATION
snmp | ID: 1357</title>
<path fill="none" stroke="blue" stroke-width="5" d="M1229.9,-1010.08C1220.98,-1014.75 1212.29,-1019.87 1204.32,-1025.41 1177.95,-1043.73 1152.93,-1069.86 1134.64,-1091.22"/>
<polygon fill="blue" stroke="blue" stroke-width="5" points="1131.06,-1088.68 1127.97,-1099.15 1137.76,-1094.31 1131.06,-1088.68"/>
<text text-anchor="middle" x="1335.82" y="-1075.41" font-family="Arial" font-size="20.00" fill="blue">start_next: 04/11/17, 14:03:05</text>
<text text-anchor="middle" x="1335.82" y="-1053.41" font-family="Arial" font-size="20.00" fill="blue">gap: 49sec</text>
<text text-anchor="middle" x="1335.82" y="-1031.41" font-family="Arial" font-size="20.00" fill="blue">end_prev: 04/11/17, 14:02:16</text>
</g>
<!-- ACCOUNT MANIPULATION
snmp | ID: 942 -->
<g id="node15" class="node">
<title>ACCOUNT MANIPULATION
snmp | ID: 942</title>
<g id="a_node15"><a xlink:title="GPL SNMP private access udp&#10;GPL SNMP public access udp">
<polygon fill="none" stroke="black" stroke-width="3" stroke-dasharray="1,5" points="1655.32,-1230.41 1335.32,-1230.41 1335.32,-1170.41 1655.32,-1170.41 1655.32,-1230.41"/>
<text text-anchor="middle" x="1495.32" y="-1207.21" font-family="Arial" font-size="24.00">ACCOUNT MANIPULATION</text>
<text text-anchor="middle" x="1495.32" y="-1181.21" font-family="Arial" font-size="24.00">snmp | ID: 942</text>
</a>
</g>
</g>
<!-- INFO DISCOVERY
xdmcp&#45;&gt;ACCOUNT MANIPULATION
snmp | ID: 942 -->
<g id="edge19" class="edge">
<title>INFO DISCOVERY
xdmcp&#45;&gt;ACCOUNT MANIPULATION
snmp | ID: 942</title>
<path fill="none" stroke="blue" stroke-width="5" d="M1436.72,-1002.96C1447.08,-1009 1456.55,-1016.38 1464.32,-1025.41 1496.33,-1062.62 1500.44,-1121.27 1499.02,-1160.03"/>
<polygon fill="blue" stroke="blue" stroke-width="5" points="1494.63,-1160.19 1498.49,-1170.4 1503.37,-1160.64 1494.63,-1160.19"/>
<text text-anchor="middle" x="1624.82" y="-1075.41" font-family="Arial" font-size="20.00" fill="blue">start_next: 04/11/17, 16:31:10</text>
<text text-anchor="middle" x="1624.82" y="-1053.41" font-family="Arial" font-size="20.00" fill="blue">gap: &#45;64sec</text>
<text text-anchor="middle" x="1624.82" y="-1031.41" font-family="Arial" font-size="20.00" fill="blue">end_prev: 04/11/17, 16:32:13</text>
</g>
<!-- BRUTE FORCE CREDENTIALS
unknown | ID: 937 -->
<g id="node10" class="node">
<title>BRUTE FORCE CREDENTIALS
unknown | ID: 937</title>
<g id="a_node10"><a xlink:title="ET SCAN Multiple MySQL Login Failures Possible Brute Force Attempt">
<polygon fill="none" stroke="black" stroke-width="3" stroke-dasharray="1,5" points="1290.32,-1301.41 928.32,-1301.41 928.32,-1241.41 1290.32,-1241.41 1290.32,-1301.41"/>
<text text-anchor="middle" x="1109.32" y="-1278.21" font-family="Arial" font-size="24.00">BRUTE FORCE CREDENTIALS</text>
<text text-anchor="middle" x="1109.32" y="-1252.21" font-family="Arial" font-size="24.00">unknown | ID: 937</text>
</a>
</g>
</g>
<!-- ACCOUNT MANIPULATION
snmp | ID: 1357&#45;&gt;BRUTE FORCE CREDENTIALS
unknown | ID: 937 -->
<g id="edge11" class="edge">
<title>ACCOUNT MANIPULATION
snmp | ID: 1357&#45;&gt;BRUTE FORCE CREDENTIALS
unknown | ID: 937</title>
<path fill="none" stroke="blue" stroke-width="5" d="M1073.35,-1159.72C1071.77,-1162.18 1070.4,-1164.75 1069.32,-1167.41 1059.31,-1192.04 1057.79,-1204.16 1069.69,-1232.15"/>
<polygon fill="blue" stroke="blue" stroke-width="5" points="1065.74,-1234.03 1073.82,-1241.37 1073.73,-1230.46 1065.74,-1234.03"/>
<text text-anchor="middle" x="1200.82" y="-1217.41" font-family="Arial" font-size="20.00" fill="blue">start_next: 04/11/17, 14:03:10</text>
<text text-anchor="middle" x="1200.82" y="-1195.41" font-family="Arial" font-size="20.00" fill="blue">gap: &#45;5sec</text>
<text text-anchor="middle" x="1200.82" y="-1173.41" font-family="Arial" font-size="20.00" fill="blue">end_prev: 04/11/17, 14:03:15</text>
</g>
<!-- DATA EXFILTRATION
unknown | ID: 385 -->
<g id="node11" class="node">
<title>DATA EXFILTRATION
unknown | ID: 385</title>
<g id="a_node11"><a xlink:title="ET WEB_SPECIFIC_APPS PHP&#45;CGI query string parameter vulnerability&#10;ET WEB_SERVER Possible MySQL SQLi Attempt Information Schema Access">
<polygon fill="none" stroke="black" stroke-width="3" stroke-dasharray="1,5" points="1346.2,-1432.4 1243.76,-1481.38 1038.88,-1481.38 936.44,-1432.4 1038.88,-1383.42 1243.76,-1383.42 1346.2,-1432.4"/>
<text text-anchor="middle" x="1141.32" y="-1439.2" font-family="Arial" font-size="24.00">DATA EXFILTRATION</text>
<text text-anchor="middle" x="1141.32" y="-1413.2" font-family="Arial" font-size="24.00">unknown | ID: 385</text>
</a>
</g>
</g>
<!-- BRUTE FORCE CREDENTIALS
unknown | ID: 937&#45;&gt;DATA EXFILTRATION
unknown | ID: 385 -->
<g id="edge12" class="edge">
<title>BRUTE FORCE CREDENTIALS
unknown | ID: 937&#45;&gt;DATA EXFILTRATION
unknown | ID: 385</title>
<path fill="none" stroke="blue" stroke-width="5" d="M1115.19,-1301.57C1119.23,-1321.66 1124.74,-1349.04 1129.66,-1373.48"/>
<polygon fill="blue" stroke="blue" stroke-width="5" points="1125.39,-1374.45 1131.66,-1383.39 1133.97,-1372.72 1125.39,-1374.45"/>
<text text-anchor="middle" x="1259.82" y="-1359.41" font-family="Arial" font-size="20.00" fill="blue">start_next: 04/11/17, 14:03:50</text>
<text text-anchor="middle" x="1259.82" y="-1337.41" font-family="Arial" font-size="20.00" fill="blue">gap: 12sec</text>
<text text-anchor="middle" x="1259.82" y="-1315.41" font-family="Arial" font-size="20.00" fill="blue">end_prev: 04/11/17, 14:03:38</text>
</g>
<!-- DATA EXFILTRATION
unknown | ID: 385&#45;&gt;DATA DELIVERY
unknown | ID: 56 -->
<g id="edge13" class="edge">
<title>DATA EXFILTRATION
unknown | ID: 385&#45;&gt;DATA DELIVERY
unknown | ID: 56</title>
<path fill="none" stroke="blue" stroke-width="5" d="M1143.48,-1481.56C1144.48,-1503.63 1145.66,-1529.96 1146.7,-1553.13"/>
<polygon fill="blue" stroke="blue" stroke-width="5" points="1142.33,-1553.38 1147.15,-1563.18 1151.07,-1552.99 1142.33,-1553.38"/>
<text text-anchor="middle" x="1277.82" y="-1539.39" font-family="Arial" font-size="20.00" fill="blue">start_next: 04/11/17, 14:04:25</text>
<text text-anchor="middle" x="1277.82" y="-1517.39" font-family="Arial" font-size="20.00" fill="blue">gap: &#45;94sec</text>
<text text-anchor="middle" x="1277.82" y="-1495.39" font-family="Arial" font-size="20.00" fill="blue">end_prev: 04/11/17, 14:05:58</text>
</g>
<!-- ARBITRARY CODE EXECUTION
ssdp | ID: 355 -->
<g id="node13" class="node">
<title>ARBITRARY CODE EXECUTION
ssdp | ID: 355</title>
<g id="a_node13"><a xlink:title="GPL MISC UPnP malformed advertisement">
<polygon fill="none" stroke="black" stroke-width="3" points="1369.82,-708.56 994.82,-708.56 994.82,-648.56 1369.82,-648.56 1369.82,-708.56"/>
<text text-anchor="middle" x="1182.32" y="-685.36" font-family="Arial" font-size="24.00">ARBITRARY CODE EXECUTION</text>
<text text-anchor="middle" x="1182.32" y="-659.36" font-family="Arial" font-size="24.00">ssdp | ID: 355</text>
</a>
</g>
</g>
<!-- BRUTE FORCE CREDENTIALS
unknown | ID: 879&#45;&gt;ARBITRARY CODE EXECUTION
ssdp | ID: 355 -->
<g id="edge16" class="edge">
<title>BRUTE FORCE CREDENTIALS
unknown | ID: 879&#45;&gt;ARBITRARY CODE EXECUTION
ssdp | ID: 355</title>
<path fill="none" stroke="blue" stroke-width="5" d="M1182.32,-563.84C1182.32,-585.34 1182.32,-614.77 1182.32,-638.3"/>
<polygon fill="blue" stroke="blue" stroke-width="5" points="1177.94,-638.31 1182.32,-648.31 1186.69,-638.31 1177.94,-638.31"/>
<text text-anchor="middle" x="1313.82" y="-624.56" font-family="Arial" font-size="20.00" fill="blue">start_next: 04/11/17, 16:29:42</text>
<text text-anchor="middle" x="1313.82" y="-602.56" font-family="Arial" font-size="20.00" fill="blue">gap: &#45;120sec</text>
<text text-anchor="middle" x="1313.82" y="-580.56" font-family="Arial" font-size="20.00" fill="blue">end_prev: 04/11/17, 16:31:43</text>
</g>
<!-- REMOTE SERVICE EXPLOIT
snmp | ID: 52 -->
<g id="node14" class="node">
<title>REMOTE SERVICE EXPLOIT
snmp | ID: 52</title>
<g id="a_node14"><a xlink:title="ET SNMP Samsung Printer SNMP Hardcode RW Community String">
<polygon fill="none" stroke="black" stroke-width="3" points="1351.32,-850.56 1013.32,-850.56 1013.32,-790.56 1351.32,-790.56 1351.32,-850.56"/>
<text text-anchor="middle" x="1182.32" y="-827.36" font-family="Arial" font-size="24.00">REMOTE SERVICE EXPLOIT</text>
<text text-anchor="middle" x="1182.32" y="-801.36" font-family="Arial" font-size="24.00">snmp | ID: 52</text>
</a>
</g>
</g>
<!-- ARBITRARY CODE EXECUTION
ssdp | ID: 355&#45;&gt;REMOTE SERVICE EXPLOIT
snmp | ID: 52 -->
<g id="edge17" class="edge">
<title>ARBITRARY CODE EXECUTION
ssdp | ID: 355&#45;&gt;REMOTE SERVICE EXPLOIT
snmp | ID: 52</title>
<path fill="none" stroke="blue" stroke-width="5" d="M1182.32,-708.57C1182.32,-729.26 1182.32,-757.34 1182.32,-780.08"/>
<polygon fill="blue" stroke="blue" stroke-width="5" points="1177.94,-780.11 1182.32,-790.11 1186.69,-780.11 1177.94,-780.11"/>
<text text-anchor="middle" x="1313.82" y="-766.56" font-family="Arial" font-size="20.00" fill="blue">start_next: 04/11/17, 16:30:15</text>
<text text-anchor="middle" x="1313.82" y="-744.56" font-family="Arial" font-size="20.00" fill="blue">gap: 22sec</text>
<text text-anchor="middle" x="1313.82" y="-722.56" font-family="Arial" font-size="20.00" fill="blue">end_prev: 04/11/17, 16:29:52</text>
</g>
<!-- REMOTE SERVICE EXPLOIT
snmp | ID: 52&#45;&gt;INFO DISCOVERY
xdmcp -->
<g id="edge18" class="edge">
<title>REMOTE SERVICE EXPLOIT
snmp | ID: 52&#45;&gt;INFO DISCOVERY
xdmcp</title>
<path fill="none" stroke="blue" stroke-width="5" d="M1175.35,-851C1171.86,-873.27 1171.12,-903.53 1186.32,-924.56 1190.13,-929.83 1194.57,-934.54 1199.47,-938.75"/>
<polygon fill="blue" stroke="blue" stroke-width="5" points="1196.93,-942.32 1207.52,-944.96 1202.27,-935.39 1196.93,-942.32"/>
<text text-anchor="middle" x="1317.82" y="-908.56" font-family="Arial" font-size="20.00" fill="blue">start_next: 04/11/17, 16:30:17</text>
<text text-anchor="middle" x="1317.82" y="-886.56" font-family="Arial" font-size="20.00" fill="blue">gap: 3sec</text>
<text text-anchor="middle" x="1317.82" y="-864.56" font-family="Arial" font-size="20.00" fill="blue">end_prev: 04/11/17, 16:30:15</text>
</g>
<!-- ACCOUNT MANIPULATION
snmp | ID: 942&#45;&gt;DATA DELIVERY
unknown | ID: 388 -->
<g id="edge20" class="edge">
<title>ACCOUNT MANIPULATION
snmp | ID: 942&#45;&gt;DATA DELIVERY
unknown | ID: 388</title>
<path fill="none" stroke="blue" stroke-width="5" d="M1495.18,-1230.57C1494.85,-1297.7 1494.04,-1464.23 1493.6,-1553.18"/>
<polygon fill="blue" stroke="blue" stroke-width="5" points="1489.23,-1553.35 1493.55,-1563.37 1497.98,-1553.4 1489.23,-1553.35"/>
<text text-anchor="middle" x="1625.82" y="-1359.41" font-family="Arial" font-size="20.00" fill="blue">start_next: 04/11/17, 16:32:24</text>
<text text-anchor="middle" x="1625.82" y="-1337.41" font-family="Arial" font-size="20.00" fill="blue">gap: 62sec</text>
<text text-anchor="middle" x="1625.82" y="-1315.41" font-family="Arial" font-size="20.00" fill="blue">end_prev: 04/11/17, 16:31:22</text>
</g>
</g>
</svg>
