<?xml version="1.0" encoding="UTF-8" standalone="no"?>
<!DOCTYPE svg PUBLIC "-//W3C//DTD SVG 1.1//EN"
 "http://www.w3.org/Graphics/SVG/1.1/DTD/svg11.dtd">
<!-- Generated by graphviz version 2.50.0 (0)
 -->
<!-- Title: DATADELIVERYhttp Pages: 1 -->
<svg width="2488pt" height="1472pt"
 viewBox="0.00 0.00 2488.00 1471.72" xmlns="http://www.w3.org/2000/svg" xmlns:xlink="http://www.w3.org/1999/xlink">
<g id="graph0" class="graph" transform="scale(1 1) rotate(0) translate(4 1467.72)">
<title>DATADELIVERYhttp</title>
<polygon fill="white" stroke="transparent" points="-4,4 -4,-1467.72 2484,-1467.72 2484,4 -4,4"/>
<!-- Victim: 10.0.0.47
DATA DELIVERY
http -->
<g id="node1" class="node">
<title>Victim: 10.0.0.47
DATA DELIVERY
http</title>
<polygon fill="salmon" stroke="black" stroke-width="3" points="1932.14,-1366.7 1932.14,-1421.09 1842.43,-1459.55 1715.57,-1459.55 1625.86,-1421.09 1625.86,-1366.7 1715.57,-1328.24 1842.43,-1328.24 1932.14,-1366.7"/>
<polygon fill="none" stroke="black" stroke-width="3" points="1936.15,-1364.08 1936.15,-1423.72 1843.26,-1463.54 1714.74,-1463.54 1621.85,-1423.72 1621.85,-1364.08 1714.74,-1324.25 1843.26,-1324.25 1936.15,-1364.08"/>
<text text-anchor="middle" x="1779" y="-1413.7" font-family="Arial" font-size="24.00">Victim: 10.0.0.47</text>
<text text-anchor="middle" x="1779" y="-1387.7" font-family="Arial" font-size="24.00">DATA DELIVERY</text>
<text text-anchor="middle" x="1779" y="-1361.7" font-family="Arial" font-size="24.00">http</text>
</g>
<!-- DATA DELIVERY
http | ID: 21 -->
<g id="node2" class="node">
<title>DATA DELIVERY
http | ID: 21</title>
<g id="a_node2"><a xlink:title="ET WEB_SERVER PHP tags in HTTP POST">
<polygon fill="salmon" stroke="black" stroke-width="3" points="1942.1,-1258.09 1860.55,-1307.07 1697.45,-1307.07 1615.9,-1258.09 1697.45,-1209.11 1860.55,-1209.11 1942.1,-1258.09"/>
<text text-anchor="middle" x="1779" y="-1264.89" font-family="Arial" font-size="24.00">DATA DELIVERY</text>
<text text-anchor="middle" x="1779" y="-1238.89" font-family="Arial" font-size="24.00">http | ID: 21</text>
</a>
</g>
</g>
<!-- DATA DELIVERY
http | ID: 21&#45;&gt;Victim: 10.0.0.47
DATA DELIVERY
http -->
<g id="edge1" class="edge">
<title>DATA DELIVERY
http | ID: 21&#45;&gt;Victim: 10.0.0.47
DATA DELIVERY
http</title>
<path fill="none" stroke="black" stroke-width="5" d="M1779,-1307.4C1779,-1309.5 1779,-1311.63 1779,-1313.78"/>
<polygon fill="black" stroke="black" stroke-width="5" points="1774.63,-1313.93 1779,-1323.93 1783.38,-1313.93 1774.63,-1313.93"/>
</g>
<!-- SERVICE DISCOVERY
dsd -->
<g id="node3" class="node">
<title>SERVICE DISCOVERY
dsd</title>
<g id="a_node3"><a xlink:title="ET SCAN Potential VNC Scan 5900&#45;5920">
<ellipse fill="yellow" stroke="black" stroke-width="3" cx="710" cy="-209.28" rx="189.51" ry="42.35"/>
<text text-anchor="middle" x="710" y="-216.08" font-family="Arial" font-size="24.00">SERVICE DISCOVERY</text>
<text text-anchor="middle" x="710" y="-190.08" font-family="Arial" font-size="24.00">dsd</text>
</a>
</g>
</g>
<!-- VULNERABILTY DISCOVERY
postgresql -->
<g id="node4" class="node">
<title>VULNERABILTY DISCOVERY
postgresql</title>
<g id="a_node4"><a xlink:title="ET POLICY Suspicious inbound to Oracle SQL port 1521&#10;ET POLICY Suspicious inbound to PostgreSQL port 5432">
<ellipse fill="none" stroke="black" stroke-width="3" cx="712" cy="-390.13" rx="241.25" ry="42.35"/>
<text text-anchor="middle" x="712" y="-396.93" font-family="Arial" font-size="24.00">VULNERABILTY DISCOVERY</text>
<text text-anchor="middle" x="712" y="-370.93" font-family="Arial" font-size="24.00">postgresql</text>
</a>
</g>
</g>
<!-- SERVICE DISCOVERY
dsd&#45;&gt;VULNERABILTY DISCOVERY
postgresql -->
<g id="edge2" class="edge">
<title>SERVICE DISCOVERY
dsd&#45;&gt;VULNERABILTY DISCOVERY
postgresql</title>
<path fill="none" stroke="blue" stroke-width="5" d="M710.46,-251.76C710.75,-277.29 711.12,-310.22 711.42,-337.44"/>
<polygon fill="blue" stroke="blue" stroke-width="5" points="707.05,-337.62 711.54,-347.57 715.8,-337.52 707.05,-337.62"/>
<text text-anchor="start" x="711" y="-324.71" font-family="Arial" font-size="20.00" fill="blue"> start_next: 04/11/17, 13:06:01</text>
<text text-anchor="start" x="790.5" y="-304.71" font-family="Arial" font-size="20.00" fill="blue">gap: 101sec</text>
<text text-anchor="start" x="715" y="-284.71" font-family="Arial" font-size="20.00" fill="blue">end_prev: 04/11/17, 13:04:20</text>
<text text-anchor="start" x="745.5" y="-264.71" font-family="Arial" font-weight="bold" font-size="20.00" fill="blue">Attacker: 10.0.254.31</text>
</g>
<!-- VULNERABILTY DISCOVERY
mysql -->
<g id="node5" class="node">
<title>VULNERABILTY DISCOVERY
mysql</title>
<g id="a_node5"><a xlink:title="ET POLICY Suspicious inbound to MSSQL port 1433&#10;ET POLICY Suspicious inbound to mySQL port 3306&#10;ET POLICY Suspicious inbound to Oracle SQL port 1521&#10;ET POLICY Suspicious inbound to PostgreSQL port 5432">
<ellipse fill="yellow" stroke="black" stroke-width="3" cx="987" cy="-556.98" rx="241.25" ry="42.35"/>
<text text-anchor="middle" x="987" y="-563.78" font-family="Arial" font-size="24.00">VULNERABILTY DISCOVERY</text>
<text text-anchor="middle" x="987" y="-537.78" font-family="Arial" font-size="24.00">mysql</text>
</a>
</g>
</g>
<!-- VULNERABILTY DISCOVERY
postgresql&#45;&gt;VULNERABILTY DISCOVERY
mysql -->
<g id="edge3" class="edge">
<title>VULNERABILTY DISCOVERY
postgresql&#45;&gt;VULNERABILTY DISCOVERY
mysql</title>
<path fill="none" stroke="blue" stroke-width="5" d="M702.91,-432.73C700.15,-457.1 701.57,-486.86 719,-506.56 728.34,-517.11 747.86,-525.43 772.3,-531.99"/>
<polygon fill="blue" stroke="blue" stroke-width="5" points="771.52,-536.3 782.28,-534.5 773.66,-527.82 771.52,-536.3"/>
<text text-anchor="middle" x="850.5" y="-490.56" font-family="Arial" font-size="20.00" fill="blue">start_next: 04/11/17, 13:59:48</text>
<text text-anchor="middle" x="850.5" y="-468.56" font-family="Arial" font-size="20.00" fill="blue">gap: 3001sec</text>
<text text-anchor="middle" x="850.5" y="-446.56" font-family="Arial" font-size="20.00" fill="blue">end_prev: 04/11/17, 13:09:46</text>
</g>
<!-- ARBITRARY CODE EXECUTION
ssdp | ID: 355 -->
<g id="node6" class="node">
<title>ARBITRARY CODE EXECUTION
ssdp | ID: 355</title>
<g id="a_node6"><a xlink:title="GPL MISC UPnP malformed advertisement">
<polygon fill="none" stroke="black" stroke-width="3" points="661.5,-767.84 286.5,-767.84 286.5,-707.84 661.5,-707.84 661.5,-767.84"/>
<text text-anchor="middle" x="474" y="-744.64" font-family="Arial" font-size="24.00">ARBITRARY CODE EXECUTION</text>
<text text-anchor="middle" x="474" y="-718.64" font-family="Arial" font-size="24.00">ssdp | ID: 355</text>
</a>
</g>
</g>
<!-- VULNERABILTY DISCOVERY
mysql&#45;&gt;ARBITRARY CODE EXECUTION
ssdp | ID: 355 -->
<g id="edge4" class="edge">
<title>VULNERABILTY DISCOVERY
mysql&#45;&gt;ARBITRARY CODE EXECUTION
ssdp | ID: 355</title>
<path fill="none" stroke="blue" stroke-width="5" d="M746.09,-559.61C561.49,-563.45 333.31,-574.83 303,-607.41 278.78,-633.44 281.63,-658.99 303,-687.41 307.55,-693.46 316.63,-699.01 328.33,-704.02"/>
<polygon fill="blue" stroke="blue" stroke-width="5" points="326.85,-708.14 337.75,-707.75 330.06,-700 326.85,-708.14"/>
<text text-anchor="middle" x="434.5" y="-664.41" font-family="Arial" font-size="20.00" fill="blue">start_next: 04/11/17, 14:01:21</text>
<text text-anchor="middle" x="434.5" y="-642.41" font-family="Arial" font-size="20.00" fill="blue">gap: &#45;91sec</text>
<text text-anchor="middle" x="434.5" y="-620.41" font-family="Arial" font-size="20.00" fill="blue">end_prev: 04/11/17, 14:02:53</text>
</g>
<!-- VULNERABILTY DISCOVERY
mysql&#45;&gt;ARBITRARY CODE EXECUTION
ssdp | ID: 355 -->
<g id="edge14" class="edge">
<title>VULNERABILTY DISCOVERY
mysql&#45;&gt;ARBITRARY CODE EXECUTION
ssdp | ID: 355</title>
<path fill="none" stroke="blue" stroke-width="5" d="M764.12,-573.24C675.06,-581.47 589.91,-592.94 575,-607.41 549.21,-632.46 583.49,-657.87 563,-687.41 559.52,-692.44 555.35,-697 550.74,-701.15"/>
<polygon fill="blue" stroke="blue" stroke-width="5" points="547.64,-698.03 542.63,-707.73 553.15,-704.83 547.64,-698.03"/>
<text text-anchor="middle" x="706.5" y="-664.41" font-family="Arial" font-size="20.00" fill="blue">start_next: 04/11/17, 18:00:32</text>
<text text-anchor="middle" x="706.5" y="-642.41" font-family="Arial" font-size="20.00" fill="blue">gap: &#45;448sec</text>
<text text-anchor="middle" x="706.5" y="-620.41" font-family="Arial" font-size="20.00" fill="blue">end_prev: 04/11/17, 18:08:01</text>
</g>
<!-- ARBITRARY CODE EXECUTION
ssdp | ID: 902 -->
<g id="node11" class="node">
<title>ARBITRARY CODE EXECUTION
ssdp | ID: 902</title>
<g id="a_node11"><a xlink:title="GPL MISC UPnP malformed advertisement">
<polygon fill="none" stroke="black" stroke-width="3" points="1919.5,-767.84 1544.5,-767.84 1544.5,-707.84 1919.5,-707.84 1919.5,-767.84"/>
<text text-anchor="middle" x="1732" y="-744.64" font-family="Arial" font-size="24.00">ARBITRARY CODE EXECUTION</text>
<text text-anchor="middle" x="1732" y="-718.64" font-family="Arial" font-size="24.00">ssdp | ID: 902</text>
</a>
</g>
</g>
<!-- VULNERABILTY DISCOVERY
mysql&#45;&gt;ARBITRARY CODE EXECUTION
ssdp | ID: 902 -->
<g id="edge10" class="edge">
<title>VULNERABILTY DISCOVERY
mysql&#45;&gt;ARBITRARY CODE EXECUTION
ssdp | ID: 902</title>
<path fill="none" stroke="blue" stroke-width="5" d="M1226.8,-561.8C1407.84,-566.94 1630.66,-579.03 1664,-607.41 1691.83,-631.1 1665.25,-655.47 1683,-687.41 1685.37,-691.68 1688.21,-695.82 1691.31,-699.79"/>
<polygon fill="blue" stroke="blue" stroke-width="5" points="1688.18,-702.86 1697.99,-707.64 1694.85,-697.19 1688.18,-702.86"/>
<text text-anchor="middle" x="1814.5" y="-664.41" font-family="Arial" font-size="20.00" fill="blue">start_next: 04/11/17, 16:29:38</text>
<text text-anchor="middle" x="1814.5" y="-642.41" font-family="Arial" font-size="20.00" fill="blue">gap: 64sec</text>
<text text-anchor="middle" x="1814.5" y="-620.41" font-family="Arial" font-size="20.00" fill="blue">end_prev: 04/11/17, 16:28:34</text>
</g>
<!-- VULNERABILTY DISCOVERY
ms&#45;sql&#45;s -->
<g id="node17" class="node">
<title>VULNERABILTY DISCOVERY
ms&#45;sql&#45;s</title>
<g id="a_node17"><a xlink:title="ET POLICY Suspicious inbound to MSSQL port 1433">
<ellipse fill="none" stroke="black" stroke-width="3" cx="1296" cy="-737.84" rx="241.25" ry="42.35"/>
<text text-anchor="middle" x="1296" y="-744.64" font-family="Arial" font-size="24.00">VULNERABILTY DISCOVERY</text>
<text text-anchor="middle" x="1296" y="-718.64" font-family="Arial" font-size="24.00">ms&#45;sql&#45;s</text>
</a>
</g>
</g>
<!-- VULNERABILTY DISCOVERY
mysql&#45;&gt;VULNERABILTY DISCOVERY
ms&#45;sql&#45;s -->
<g id="edge22" class="edge">
<title>VULNERABILTY DISCOVERY
mysql&#45;&gt;VULNERABILTY DISCOVERY
ms&#45;sql&#45;s</title>
<path fill="none" stroke="purple" stroke-width="5" d="M1099.93,-594.59C1104.7,-598.44 1109.11,-602.7 1113,-607.41 1136.06,-635.28 1103.74,-660.58 1128,-687.41 1131.54,-691.33 1135.37,-694.94 1139.44,-698.27"/>
<polygon fill="purple" stroke="purple" stroke-width="5" points="1136.92,-701.85 1147.55,-704.34 1142.17,-694.85 1136.92,-701.85"/>
<text text-anchor="start" x="1128" y="-672.41" font-family="Arial" font-size="20.00" fill="purple"> start_next: 04/11/17, 13:49:58</text>
<text text-anchor="start" x="1207.5" y="-652.41" font-family="Arial" font-size="20.00" fill="purple">gap: 558sec</text>
<text text-anchor="start" x="1132" y="-632.41" font-family="Arial" font-size="20.00" fill="purple">end_prev: 04/11/17, 13:40:40</text>
<text text-anchor="start" x="1162.5" y="-612.41" font-family="Arial" font-weight="bold" font-size="20.00" fill="purple">Attacker: 10.0.254.32</text>
</g>
<!-- SERVICE DISCOVERY
cpdlc -->
<g id="node18" class="node">
<title>SERVICE DISCOVERY
cpdlc</title>
<g id="a_node18"><a xlink:title="ET SCAN Potential VNC Scan 5800&#45;5820&#10;ET SCAN Potential VNC Scan 5900&#45;5920">
<ellipse fill="none" stroke="black" stroke-width="3" cx="858" cy="-737.84" rx="189.51" ry="42.35"/>
<text text-anchor="middle" x="858" y="-744.64" font-family="Arial" font-size="24.00">SERVICE DISCOVERY</text>
<text text-anchor="middle" x="858" y="-718.64" font-family="Arial" font-size="24.00">cpdlc</text>
</a>
</g>
</g>
<!-- VULNERABILTY DISCOVERY
mysql&#45;&gt;SERVICE DISCOVERY
cpdlc -->
<g id="edge24" class="edge">
<title>VULNERABILTY DISCOVERY
mysql&#45;&gt;SERVICE DISCOVERY
cpdlc</title>
<path fill="none" stroke="purple" stroke-width="5" d="M865.24,-593.67C860.67,-597.76 856.54,-602.33 853,-607.41 837.45,-629.72 837.71,-659.84 842.31,-685.41"/>
<polygon fill="purple" stroke="purple" stroke-width="5" points="838.05,-686.41 844.34,-695.32 846.62,-684.65 838.05,-686.41"/>
<text text-anchor="middle" x="984.5" y="-664.41" font-family="Arial" font-size="20.00" fill="purple">start_next: 04/11/17, 14:08:28</text>
<text text-anchor="middle" x="984.5" y="-642.41" font-family="Arial" font-size="20.00" fill="purple">gap: &#45;298sec</text>
<text text-anchor="middle" x="984.5" y="-620.41" font-family="Arial" font-size="20.00" fill="purple">end_prev: 04/11/17, 14:13:26</text>
</g>
<!-- REMOTE SERVICE EXPLOIT
snmp | ID: 52 -->
<g id="node7" class="node">
<title>REMOTE SERVICE EXPLOIT
snmp | ID: 52</title>
<g id="a_node7"><a xlink:title="ET SNMP Samsung Printer SNMP Hardcode RW Community String">
<polygon fill="none" stroke="black" stroke-width="3" points="452,-934.69 114,-934.69 114,-874.69 452,-874.69 452,-934.69"/>
<text text-anchor="middle" x="283" y="-911.49" font-family="Arial" font-size="24.00">REMOTE SERVICE EXPLOIT</text>
<text text-anchor="middle" x="283" y="-885.49" font-family="Arial" font-size="24.00">snmp | ID: 52</text>
</a>
</g>
</g>
<!-- ARBITRARY CODE EXECUTION
ssdp | ID: 355&#45;&gt;REMOTE SERVICE EXPLOIT
snmp | ID: 52 -->
<g id="edge5" class="edge">
<title>ARBITRARY CODE EXECUTION
ssdp | ID: 355&#45;&gt;REMOTE SERVICE EXPLOIT
snmp | ID: 52</title>
<path fill="none" stroke="blue" stroke-width="5" d="M332.12,-767.97C315.06,-773.91 301.41,-780.7 295,-788.26 285.49,-799.49 282.93,-835.48 282.48,-864.33"/>
<polygon fill="blue" stroke="blue" stroke-width="5" points="278.1,-864.54 282.4,-874.57 286.85,-864.6 278.1,-864.54"/>
<text text-anchor="middle" x="426.5" y="-838.26" font-family="Arial" font-size="20.00" fill="blue">start_next: 04/11/17, 14:01:55</text>
<text text-anchor="middle" x="426.5" y="-816.26" font-family="Arial" font-size="20.00" fill="blue">gap: 28sec</text>
<text text-anchor="middle" x="426.5" y="-794.26" font-family="Arial" font-size="20.00" fill="blue">end_prev: 04/11/17, 14:01:26</text>
</g>
<!-- ARBITRARY CODE EXECUTION
ssdp | ID: 355&#45;&gt;REMOTE SERVICE EXPLOIT
snmp | ID: 52 -->
<g id="edge15" class="edge">
<title>ARBITRARY CODE EXECUTION
ssdp | ID: 355&#45;&gt;REMOTE SERVICE EXPLOIT
snmp | ID: 52</title>
<path fill="none" stroke="blue" stroke-width="5" d="M537.58,-768.1C544.52,-773.82 550.65,-780.51 555,-788.26 569.36,-813.84 573.8,-831.74 555,-854.26 541.34,-870.63 504.41,-881.59 462,-888.92"/>
<polygon fill="blue" stroke="blue" stroke-width="5" points="461.16,-884.63 452,-890.57 462.58,-893.26 461.16,-884.63"/>
<text text-anchor="middle" x="698.5" y="-838.26" font-family="Arial" font-size="20.00" fill="blue">start_next: 04/11/17, 18:01:05</text>
<text text-anchor="middle" x="698.5" y="-816.26" font-family="Arial" font-size="20.00" fill="blue">gap: 27sec</text>
<text text-anchor="middle" x="698.5" y="-794.26" font-family="Arial" font-size="20.00" fill="blue">end_prev: 04/11/17, 18:00:37</text>
</g>
<!-- INFO DISCOVERY
xdmcp -->
<g id="node8" class="node">
<title>INFO DISCOVERY
xdmcp</title>
<g id="a_node8"><a xlink:title="GPL WEB_SERVER mod_gzip_status access&#10;GPL RPC xdmcp info query">
<ellipse fill="none" stroke="black" stroke-width="3" cx="283" cy="-42.43" rx="156.04" ry="42.35"/>
<text text-anchor="middle" x="283" y="-49.23" font-family="Arial" font-size="24.00">INFO DISCOVERY</text>
<text text-anchor="middle" x="283" y="-23.23" font-family="Arial" font-size="24.00">xdmcp</text>
</a>
</g>
</g>
<!-- REMOTE SERVICE EXPLOIT
snmp | ID: 52&#45;&gt;INFO DISCOVERY
xdmcp -->
<g id="edge6" class="edge">
<title>REMOTE SERVICE EXPLOIT
snmp | ID: 52&#45;&gt;INFO DISCOVERY
xdmcp</title>
<path fill="none" stroke="blue" stroke-width="5" d="M137.77,-874.62C68.28,-851.37 0,-810.34 0,-738.84 0,-208.28 0,-208.28 0,-208.28 0,-134.14 73.42,-92.75 145.47,-69.99"/>
<polygon fill="blue" stroke="blue" stroke-width="5" points="146.87,-74.14 155.16,-67.04 144.32,-65.77 146.87,-74.14"/>
<text text-anchor="middle" x="131.5" y="-490.56" font-family="Arial" font-size="20.00" fill="blue">start_next: 04/11/17, 14:01:55</text>
<text text-anchor="middle" x="131.5" y="-468.56" font-family="Arial" font-size="20.00" fill="blue">gap: 0sec</text>
<text text-anchor="middle" x="131.5" y="-446.56" font-family="Arial" font-size="20.00" fill="blue">end_prev: 04/11/17, 14:01:55</text>
</g>
<!-- REMOTE SERVICE EXPLOIT
snmp | ID: 52&#45;&gt;INFO DISCOVERY
xdmcp -->
<g id="edge16" class="edge">
<title>REMOTE SERVICE EXPLOIT
snmp | ID: 52&#45;&gt;INFO DISCOVERY
xdmcp</title>
<path fill="none" stroke="blue" stroke-width="5" d="M280.73,-874.53C278.36,-841.6 275,-786.4 275,-738.84 275,-208.28 275,-208.28 275,-208.28 275,-170.4 277.13,-127.68 279.2,-95.23"/>
<polygon fill="blue" stroke="blue" stroke-width="5" points="283.57,-95.33 279.86,-85.07 274.84,-94.76 283.57,-95.33"/>
<text text-anchor="middle" x="406.5" y="-490.56" font-family="Arial" font-size="20.00" fill="blue">start_next: 04/11/17, 18:01:07</text>
<text text-anchor="middle" x="406.5" y="-468.56" font-family="Arial" font-size="20.00" fill="blue">gap: 3sec</text>
<text text-anchor="middle" x="406.5" y="-446.56" font-family="Arial" font-size="20.00" fill="blue">end_prev: 04/11/17, 18:01:05</text>
</g>
<!-- ACCOUNT MANIPULATION
snmp | ID: 53 -->
<g id="node9" class="node">
<title>ACCOUNT MANIPULATION
snmp | ID: 53</title>
<g id="a_node9"><a xlink:title="GPL SNMP private access udp&#10;GPL SNMP public access udp">
<polygon fill="none" stroke="black" stroke-width="3" points="1320,-239.28 1000,-239.28 1000,-179.28 1320,-179.28 1320,-239.28"/>
<text text-anchor="middle" x="1160" y="-216.08" font-family="Arial" font-size="24.00">ACCOUNT MANIPULATION</text>
<text text-anchor="middle" x="1160" y="-190.08" font-family="Arial" font-size="24.00">snmp | ID: 53</text>
</a>
</g>
</g>
<!-- INFO DISCOVERY
xdmcp&#45;&gt;ACCOUNT MANIPULATION
snmp | ID: 53 -->
<g id="edge7" class="edge">
<title>INFO DISCOVERY
xdmcp&#45;&gt;ACCOUNT MANIPULATION
snmp | ID: 53</title>
<path fill="none" stroke="blue" stroke-width="5" d="M410.05,-67.31C564.58,-96.36 825.75,-145.45 995.51,-177.36"/>
<polygon fill="blue" stroke="blue" stroke-width="5" points="994.9,-181.7 1005.54,-179.24 996.52,-173.1 994.9,-181.7"/>
<text text-anchor="middle" x="1007.5" y="-142.85" font-family="Arial" font-size="20.00" fill="blue">start_next: 04/11/17, 14:02:45</text>
<text text-anchor="middle" x="1007.5" y="-120.85" font-family="Arial" font-size="20.00" fill="blue">gap: 46sec</text>
<text text-anchor="middle" x="1007.5" y="-98.85" font-family="Arial" font-size="20.00" fill="blue">end_prev: 04/11/17, 14:01:59</text>
</g>
<!-- ACCOUNT MANIPULATION
snmp | ID: 1505 -->
<g id="node13" class="node">
<title>ACCOUNT MANIPULATION
snmp | ID: 1505</title>
<g id="a_node13"><a xlink:title="GPL SNMP private access udp&#10;GPL SNMP public access udp">
<polygon fill="none" stroke="black" stroke-width="3" stroke-dasharray="1,5" points="1999,-239.28 1679,-239.28 1679,-179.28 1999,-179.28 1999,-239.28"/>
<text text-anchor="middle" x="1839" y="-216.08" font-family="Arial" font-size="24.00">ACCOUNT MANIPULATION</text>
<text text-anchor="middle" x="1839" y="-190.08" font-family="Arial" font-size="24.00">snmp | ID: 1505</text>
</a>
</g>
</g>
<!-- INFO DISCOVERY
xdmcp&#45;&gt;ACCOUNT MANIPULATION
snmp | ID: 1505 -->
<g id="edge17" class="edge">
<title>INFO DISCOVERY
xdmcp&#45;&gt;ACCOUNT MANIPULATION
snmp | ID: 1505</title>
<path fill="none" stroke="blue" stroke-width="5" d="M438.23,-47.43C610.23,-53.02 895.6,-65.7 1140,-92.85 1326.98,-113.62 1540.06,-150.78 1681.3,-177.33"/>
<polygon fill="blue" stroke="blue" stroke-width="5" points="1680.7,-181.67 1691.34,-179.22 1682.32,-173.07 1680.7,-181.67"/>
<text text-anchor="middle" x="1704.5" y="-142.85" font-family="Arial" font-size="20.00" fill="blue">start_next: 04/11/17, 18:02:05</text>
<text text-anchor="middle" x="1704.5" y="-120.85" font-family="Arial" font-size="20.00" fill="blue">gap: &#45;49sec</text>
<text text-anchor="middle" x="1704.5" y="-98.85" font-family="Arial" font-size="20.00" fill="blue">end_prev: 04/11/17, 18:02:54</text>
</g>
<!-- ACCOUNT MANIPULATION
snmp | ID: 53&#45;&gt;VULNERABILTY DISCOVERY
mysql -->
<g id="edge13" class="edge">
<title>ACCOUNT MANIPULATION
snmp | ID: 53&#45;&gt;VULNERABILTY DISCOVERY
mysql</title>
<path fill="none" stroke="blue" stroke-width="5" d="M1102.89,-239.3C1063.61,-262.69 1014.45,-299.61 991,-347.71 978.07,-374.22 980,-451.51 983.09,-504.1"/>
<polygon fill="blue" stroke="blue" stroke-width="5" points="978.74,-504.56 983.72,-514.27 987.47,-504.02 978.74,-504.56"/>
<text text-anchor="middle" x="1122.5" y="-407.13" font-family="Arial" font-size="20.00" fill="blue">start_next: 04/11/17, 17:58:55</text>
<text text-anchor="middle" x="1122.5" y="-385.13" font-family="Arial" font-size="20.00" fill="blue">gap: 5264sec</text>
<text text-anchor="middle" x="1122.5" y="-363.13" font-family="Arial" font-size="20.00" fill="blue">end_prev: 04/11/17, 16:31:11</text>
</g>
<!-- BRUTE FORCE CREDENTIALS
unknown | ID: 1 -->
<g id="node10" class="node">
<title>BRUTE FORCE CREDENTIALS
unknown | ID: 1</title>
<g id="a_node10"><a xlink:title="ET SCAN Multiple MySQL Login Failures Possible Brute Force Attempt">
<polygon fill="none" stroke="black" stroke-width="3" points="1619,-420.13 1257,-420.13 1257,-360.13 1619,-360.13 1619,-420.13"/>
<text text-anchor="middle" x="1438" y="-396.93" font-family="Arial" font-size="24.00">BRUTE FORCE CREDENTIALS</text>
<text text-anchor="middle" x="1438" y="-370.93" font-family="Arial" font-size="24.00">unknown | ID: 1</text>
</a>
</g>
</g>
<!-- ACCOUNT MANIPULATION
snmp | ID: 53&#45;&gt;BRUTE FORCE CREDENTIALS
unknown | ID: 1 -->
<g id="edge8" class="edge">
<title>ACCOUNT MANIPULATION
snmp | ID: 53&#45;&gt;BRUTE FORCE CREDENTIALS
unknown | ID: 1</title>
<path fill="none" stroke="blue" stroke-width="5" d="M1205.28,-239.41C1254.25,-270.92 1332.27,-321.11 1384.3,-354.58"/>
<polygon fill="blue" stroke="blue" stroke-width="5" points="1381.96,-358.28 1392.74,-360.01 1386.69,-350.92 1381.96,-358.28"/>
<text text-anchor="middle" x="1486.5" y="-316.71" font-family="Arial" font-size="20.00" fill="blue">start_next: 04/11/17, 14:03:19</text>
<text text-anchor="middle" x="1486.5" y="-294.71" font-family="Arial" font-size="20.00" fill="blue">gap: 23sec</text>
<text text-anchor="middle" x="1486.5" y="-272.71" font-family="Arial" font-size="20.00" fill="blue">end_prev: 04/11/17, 14:02:57</text>
</g>
<!-- BRUTE FORCE CREDENTIALS
unknown | ID: 1&#45;&gt;VULNERABILTY DISCOVERY
mysql -->
<g id="edge9" class="edge">
<title>BRUTE FORCE CREDENTIALS
unknown | ID: 1&#45;&gt;VULNERABILTY DISCOVERY
mysql</title>
<path fill="none" stroke="blue" stroke-width="5" d="M1358.41,-420.22C1286.48,-446.52 1179.84,-485.5 1099.26,-514.95"/>
<polygon fill="blue" stroke="blue" stroke-width="5" points="1097.46,-510.95 1089.57,-518.49 1100.46,-519.17 1097.46,-510.95"/>
<text text-anchor="middle" x="1423.5" y="-490.56" font-family="Arial" font-size="20.00" fill="blue">start_next: 04/11/17, 16:27:54</text>
<text text-anchor="middle" x="1423.5" y="-468.56" font-family="Arial" font-size="20.00" fill="blue">gap: 8664sec</text>
<text text-anchor="middle" x="1423.5" y="-446.56" font-family="Arial" font-size="20.00" fill="blue">end_prev: 04/11/17, 14:03:30</text>
</g>
<!-- REMOTE SERVICE EXPLOIT
snmp | ID: 365 -->
<g id="node12" class="node">
<title>REMOTE SERVICE EXPLOIT
snmp | ID: 365</title>
<g id="a_node12"><a xlink:title="ET SNMP Samsung Printer SNMP Hardcode RW Community String">
<polygon fill="none" stroke="black" stroke-width="3" points="1966,-934.69 1628,-934.69 1628,-874.69 1966,-874.69 1966,-934.69"/>
<text text-anchor="middle" x="1797" y="-911.49" font-family="Arial" font-size="24.00">REMOTE SERVICE EXPLOIT</text>
<text text-anchor="middle" x="1797" y="-885.49" font-family="Arial" font-size="24.00">snmp | ID: 365</text>
</a>
</g>
</g>
<!-- ARBITRARY CODE EXECUTION
ssdp | ID: 902&#45;&gt;REMOTE SERVICE EXPLOIT
snmp | ID: 365 -->
<g id="edge11" class="edge">
<title>ARBITRARY CODE EXECUTION
ssdp | ID: 902&#45;&gt;REMOTE SERVICE EXPLOIT
snmp | ID: 365</title>
<path fill="none" stroke="blue" stroke-width="5" d="M1696.11,-767.92C1690.76,-774.03 1686.04,-780.89 1683,-788.26 1671.83,-815.39 1666.9,-829.74 1683,-854.26 1686.37,-859.41 1690.41,-864.01 1694.92,-868.15"/>
<polygon fill="blue" stroke="blue" stroke-width="5" points="1692.4,-871.74 1702.92,-874.66 1697.93,-864.95 1692.4,-871.74"/>
<text text-anchor="middle" x="1814.5" y="-838.26" font-family="Arial" font-size="20.00" fill="blue">start_next: 04/11/17, 16:30:10</text>
<text text-anchor="middle" x="1814.5" y="-816.26" font-family="Arial" font-size="20.00" fill="blue">gap: 22sec</text>
<text text-anchor="middle" x="1814.5" y="-794.26" font-family="Arial" font-size="20.00" fill="blue">end_prev: 04/11/17, 16:29:49</text>
</g>
<!-- REMOTE SERVICE EXPLOIT
snmp | ID: 365&#45;&gt;ACCOUNT MANIPULATION
snmp | ID: 53 -->
<g id="edge12" class="edge">
<title>REMOTE SERVICE EXPLOIT
snmp | ID: 365&#45;&gt;ACCOUNT MANIPULATION
snmp | ID: 53</title>
<path fill="none" stroke="blue" stroke-width="5" d="M1921.13,-874.5C1929.41,-868.89 1936.87,-862.21 1943,-854.26 1974.4,-813.54 1951,-790.26 1951,-738.84 1951,-389.13 1951,-389.13 1951,-389.13 1951,-230.76 1772.85,-297.27 1619,-259.71 1524.91,-236.73 1417.37,-224.43 1330.05,-217.85"/>
<polygon fill="blue" stroke="blue" stroke-width="5" points="1330.34,-213.49 1320.05,-217.12 1329.7,-222.21 1330.34,-213.49"/>
<text text-anchor="middle" x="2082.5" y="-573.98" font-family="Arial" font-size="20.00" fill="blue">start_next: 04/11/17, 16:31:01</text>
<text text-anchor="middle" x="2082.5" y="-551.98" font-family="Arial" font-size="20.00" fill="blue">gap: 50sec</text>
<text text-anchor="middle" x="2082.5" y="-529.98" font-family="Arial" font-size="20.00" fill="blue">end_prev: 04/11/17, 16:30:10</text>
</g>
<!-- BRUTE FORCE CREDENTIALS
unknown | ID: 1157 -->
<g id="node14" class="node">
<title>BRUTE FORCE CREDENTIALS
unknown | ID: 1157</title>
<g id="a_node14"><a xlink:title="ET SCAN Multiple MySQL Login Failures Possible Brute Force Attempt">
<polygon fill="none" stroke="black" stroke-width="3" stroke-dasharray="1,5" points="2365,-420.13 2003,-420.13 2003,-360.13 2365,-360.13 2365,-420.13"/>
<text text-anchor="middle" x="2184" y="-396.93" font-family="Arial" font-size="24.00">BRUTE FORCE CREDENTIALS</text>
<text text-anchor="middle" x="2184" y="-370.93" font-family="Arial" font-size="24.00">unknown | ID: 1157</text>
</a>
</g>
</g>
<!-- ACCOUNT MANIPULATION
snmp | ID: 1505&#45;&gt;BRUTE FORCE CREDENTIALS
unknown | ID: 1157 -->
<g id="edge18" class="edge">
<title>ACCOUNT MANIPULATION
snmp | ID: 1505&#45;&gt;BRUTE FORCE CREDENTIALS
unknown | ID: 1157</title>
<path fill="none" stroke="blue" stroke-width="5" d="M1911.37,-239.3C1926.27,-245.7 1941.76,-252.69 1956,-259.71 2015.9,-289.23 2082.03,-327.43 2127.57,-354.66"/>
<polygon fill="blue" stroke="blue" stroke-width="5" points="2125.57,-358.56 2136.4,-359.95 2130.07,-351.05 2125.57,-358.56"/>
<text text-anchor="middle" x="2229.5" y="-316.71" font-family="Arial" font-size="20.00" fill="blue">start_next: 04/11/17, 18:02:18</text>
<text text-anchor="middle" x="2229.5" y="-294.71" font-family="Arial" font-size="20.00" fill="blue">gap: 5sec</text>
<text text-anchor="middle" x="2229.5" y="-272.71" font-family="Arial" font-size="20.00" fill="blue">end_prev: 04/11/17, 18:02:14</text>
</g>
<!-- USER PRIVILEGE ESCALATION
http | ID: 675 -->
<g id="node15" class="node">
<title>USER PRIVILEGE ESCALATION
http | ID: 675</title>
<g id="a_node15"><a xlink:title="ET POLICY Incoming Basic Auth Base64 HTTP Password detected unencrypted">
<polygon fill="none" stroke="black" stroke-width="3" points="2372,-677.41 2000,-677.41 2000,-617.41 2372,-617.41 2372,-677.41"/>
<text text-anchor="middle" x="2186" y="-654.21" font-family="Arial" font-size="24.00">USER PRIVILEGE ESCALATION</text>
<text text-anchor="middle" x="2186" y="-628.21" font-family="Arial" font-size="24.00">http | ID: 675</text>
</a>
</g>
</g>
<!-- BRUTE FORCE CREDENTIALS
unknown | ID: 1157&#45;&gt;USER PRIVILEGE ESCALATION
http | ID: 675 -->
<g id="edge19" class="edge">
<title>BRUTE FORCE CREDENTIALS
unknown | ID: 1157&#45;&gt;USER PRIVILEGE ESCALATION
http | ID: 675</title>
<path fill="none" stroke="blue" stroke-width="5" d="M2195.95,-420.26C2210.96,-461 2232.71,-536.98 2215,-599.41 2214.16,-602.36 2213.08,-605.31 2211.83,-608.2"/>
<polygon fill="blue" stroke="blue" stroke-width="5" points="2207.88,-606.33 2207.36,-617.23 2215.72,-610.22 2207.88,-606.33"/>
<text text-anchor="middle" x="2348.5" y="-490.56" font-family="Arial" font-size="20.00" fill="blue">start_next: 04/11/17, 18:02:48</text>
<text text-anchor="middle" x="2348.5" y="-468.56" font-family="Arial" font-size="20.00" fill="blue">gap: &#45;4sec</text>
<text text-anchor="middle" x="2348.5" y="-446.56" font-family="Arial" font-size="20.00" fill="blue">end_prev: 04/11/17, 18:02:52</text>
</g>
<!-- DATA EXFILTRATION
http | ID: 228 -->
<g id="node16" class="node">
<title>DATA EXFILTRATION
http | ID: 228</title>
<g id="a_node16"><a xlink:title="ET WEB_SPECIFIC_APPS PHP&#45;CGI query string parameter vulnerability&#10;ET WEB_SERVER DD&#45;WRT Information Disclosure Attempt">
<polygon fill="none" stroke="black" stroke-width="3" points="1983.88,-1078.11 1881.44,-1127.09 1676.56,-1127.09 1574.12,-1078.11 1676.56,-1029.13 1881.44,-1029.13 1983.88,-1078.11"/>
<text text-anchor="middle" x="1779" y="-1084.91" font-family="Arial" font-size="24.00">DATA EXFILTRATION</text>
<text text-anchor="middle" x="1779" y="-1058.91" font-family="Arial" font-size="24.00">http | ID: 228</text>
</a>
</g>
</g>
<!-- USER PRIVILEGE ESCALATION
http | ID: 675&#45;&gt;DATA EXFILTRATION
http | ID: 228 -->
<g id="edge20" class="edge">
<title>USER PRIVILEGE ESCALATION
http | ID: 675&#45;&gt;DATA EXFILTRATION
http | ID: 228</title>
<path fill="none" stroke="blue" stroke-width="5" d="M2169.54,-677.7C2136.77,-734.32 2058.8,-860.81 1970,-947.12 1940.69,-975.6 1904.45,-1002 1871.45,-1023.47"/>
<polygon fill="blue" stroke="blue" stroke-width="5" points="1868.73,-1020.02 1862.68,-1029.1 1873.46,-1027.38 1868.73,-1020.02"/>
<text text-anchor="middle" x="2230.5" y="-838.26" font-family="Arial" font-size="20.00" fill="blue">start_next: 04/11/17, 18:03:16</text>
<text text-anchor="middle" x="2230.5" y="-816.26" font-family="Arial" font-size="20.00" fill="blue">gap: 29sec</text>
<text text-anchor="middle" x="2230.5" y="-794.26" font-family="Arial" font-size="20.00" fill="blue">end_prev: 04/11/17, 18:02:48</text>
</g>
<!-- DATA EXFILTRATION
http | ID: 228&#45;&gt;DATA DELIVERY
http | ID: 21 -->
<g id="edge21" class="edge">
<title>DATA EXFILTRATION
http | ID: 228&#45;&gt;DATA DELIVERY
http | ID: 21</title>
<path fill="none" stroke="blue" stroke-width="5" d="M1659.66,-1119.33C1654.5,-1124.02 1649.88,-1129.25 1646,-1135.1 1629.77,-1159.53 1629.77,-1176.66 1646,-1201.1 1650.48,-1207.85 1655.96,-1213.79 1662.1,-1219.01"/>
<polygon fill="blue" stroke="blue" stroke-width="5" points="1659.62,-1222.62 1670.21,-1225.25 1664.95,-1215.69 1659.62,-1222.62"/>
<text text-anchor="middle" x="1777.5" y="-1185.1" font-family="Arial" font-size="20.00" fill="blue">start_next: 04/11/17, 18:03:16</text>
<text text-anchor="middle" x="1777.5" y="-1163.1" font-family="Arial" font-size="20.00" fill="blue">gap: 0sec</text>
<text text-anchor="middle" x="1777.5" y="-1141.1" font-family="Arial" font-size="20.00" fill="blue">end_prev: 04/11/17, 18:03:16</text>
</g>
<!-- DATA EXFILTRATION
http | ID: 228&#45;&gt;DATA DELIVERY
http | ID: 21 -->
<g id="edge27" class="edge">
<title>DATA EXFILTRATION
http | ID: 228&#45;&gt;DATA DELIVERY
http | ID: 21</title>
<path fill="none" stroke="purple" stroke-width="5" d="M1894.31,-1121.02C1898.7,-1125.27 1902.64,-1129.95 1906,-1135.1 1922.02,-1159.67 1922.02,-1176.52 1906,-1201.1 1902.2,-1206.93 1897.64,-1212.16 1892.54,-1216.84"/>
<polygon fill="purple" stroke="purple" stroke-width="5" points="1889.61,-1213.58 1884.7,-1223.33 1895.19,-1220.32 1889.61,-1213.58"/>
<text text-anchor="middle" x="2049.5" y="-1185.1" font-family="Arial" font-size="20.00" fill="purple">start_next: 04/11/17, 14:08:41</text>
<text text-anchor="middle" x="2049.5" y="-1163.1" font-family="Arial" font-size="20.00" fill="purple">gap: &#45;3sec</text>
<text text-anchor="middle" x="2049.5" y="-1141.1" font-family="Arial" font-size="20.00" fill="purple">end_prev: 04/11/17, 14:08:44</text>
</g>
<!-- VULNERABILTY DISCOVERY
ms&#45;sql&#45;s&#45;&gt;VULNERABILTY DISCOVERY
mysql -->
<g id="edge23" class="edge">
<title>VULNERABILTY DISCOVERY
ms&#45;sql&#45;s&#45;&gt;VULNERABILTY DISCOVERY
mysql</title>
<path fill="none" stroke="purple" stroke-width="5" d="M1384.76,-698.16C1387.85,-694.86 1390.63,-691.28 1393,-687.41 1402.29,-672.25 1404.79,-620.72 1393,-607.41 1380.12,-592.87 1304.07,-581.73 1221.21,-573.74"/>
<polygon fill="purple" stroke="purple" stroke-width="5" points="1221.44,-569.37 1211.07,-572.78 1220.62,-578.08 1221.44,-569.37"/>
<text text-anchor="middle" x="1531.5" y="-664.41" font-family="Arial" font-size="20.00" fill="purple">start_next: 04/11/17, 14:08:26</text>
<text text-anchor="middle" x="1531.5" y="-642.41" font-family="Arial" font-size="20.00" fill="purple">gap: 1105sec</text>
<text text-anchor="middle" x="1531.5" y="-620.41" font-family="Arial" font-size="20.00" fill="purple">end_prev: 04/11/17, 13:50:01</text>
</g>
<!-- HOST DISCOVERY
http -->
<g id="node19" class="node">
<title>HOST DISCOVERY
http</title>
<g id="a_node19"><a xlink:title="ET SCAN Possible Nmap User&#45;Agent Observed&#10;ET SCAN Nmap Scripting Engine User&#45;Agent Detected (Nmap Scripting Engine)">
<ellipse fill="none" stroke="black" stroke-width="3" cx="1217" cy="-904.69" rx="162.77" ry="42.35"/>
<text text-anchor="middle" x="1217" y="-911.49" font-family="Arial" font-size="24.00">HOST DISCOVERY</text>
<text text-anchor="middle" x="1217" y="-885.49" font-family="Arial" font-size="24.00">http</text>
</a>
</g>
</g>
<!-- SERVICE DISCOVERY
cpdlc&#45;&gt;HOST DISCOVERY
http -->
<g id="edge25" class="edge">
<title>SERVICE DISCOVERY
cpdlc&#45;&gt;HOST DISCOVERY
http</title>
<path fill="none" stroke="purple" stroke-width="5" d="M939.46,-776.25C995.92,-802.17 1071.04,-836.67 1128.89,-863.23"/>
<polygon fill="purple" stroke="purple" stroke-width="5" points="1127.11,-867.23 1138.02,-867.42 1130.76,-859.27 1127.11,-867.23"/>
<text text-anchor="middle" x="1231.5" y="-838.26" font-family="Arial" font-size="20.00" fill="purple">start_next: 04/11/17, 14:08:41</text>
<text text-anchor="middle" x="1231.5" y="-816.26" font-family="Arial" font-size="20.00" fill="purple">gap: 7sec</text>
<text text-anchor="middle" x="1231.5" y="-794.26" font-family="Arial" font-size="20.00" fill="purple">end_prev: 04/11/17, 14:08:34</text>
</g>
<!-- HOST DISCOVERY
http&#45;&gt;DATA EXFILTRATION
http | ID: 228 -->
<g id="edge26" class="edge">
<title>HOST DISCOVERY
http&#45;&gt;DATA EXFILTRATION
http | ID: 228</title>
<path fill="none" stroke="purple" stroke-width="5" d="M1321.06,-937.43C1412.49,-965.32 1546.06,-1006.06 1645.37,-1036.35"/>
<polygon fill="purple" stroke="purple" stroke-width="5" points="1644.34,-1040.61 1655.18,-1039.34 1646.89,-1032.24 1644.34,-1040.61"/>
<text text-anchor="middle" x="1712.5" y="-1005.12" font-family="Arial" font-size="20.00" fill="purple">start_next: 04/11/17, 14:08:41</text>
<text text-anchor="middle" x="1712.5" y="-983.12" font-family="Arial" font-size="20.00" fill="purple">gap: &#45;300sec</text>
<text text-anchor="middle" x="1712.5" y="-961.12" font-family="Arial" font-size="20.00" fill="purple">end_prev: 04/11/17, 14:13:41</text>
</g>
</g>
</svg>
