<?xml version="1.0" encoding="UTF-8" standalone="no"?>
<!DOCTYPE svg PUBLIC "-//W3C//DTD SVG 1.1//EN"
 "http://www.w3.org/Graphics/SVG/1.1/DTD/svg11.dtd">
<!-- Generated by graphviz version 2.50.0 (0)
 -->
<!-- Title: NETWORKDOSssdp Pages: 1 -->
<svg width="859pt" height="1622pt"
 viewBox="0.00 0.00 859.00 1621.99" xmlns="http://www.w3.org/2000/svg" xmlns:xlink="http://www.w3.org/1999/xlink">
<g id="graph0" class="graph" transform="scale(1 1) rotate(0) translate(4 1617.99)">
<title>NETWORKDOSssdp</title>
<polygon fill="white" stroke="transparent" points="-4,4 -4,-1617.99 855,-1617.99 855,4 -4,4"/>
<!-- Victim: 10.0.0.27
NETWORK DoS
ssdp -->
<g id="node1" class="node">
<title>Victim: 10.0.0.27
NETWORK DoS
ssdp</title>
<polygon fill="salmon" stroke="black" stroke-width="3" points="457.56,-1516.98 457.56,-1571.37 369.36,-1609.83 244.64,-1609.83 156.44,-1571.37 156.44,-1516.98 244.64,-1478.52 369.36,-1478.52 457.56,-1516.98"/>
<polygon fill="none" stroke="black" stroke-width="3" points="461.55,-1514.37 461.55,-1573.98 370.2,-1613.82 243.8,-1613.82 152.45,-1573.98 152.45,-1514.37 243.8,-1474.53 370.2,-1474.53 461.55,-1514.37"/>
<text text-anchor="middle" x="307" y="-1563.97" font-family="Arial" font-size="24.00">Victim: 10.0.0.27</text>
<text text-anchor="middle" x="307" y="-1537.97" font-family="Arial" font-size="24.00">NETWORK DoS</text>
<text text-anchor="middle" x="307" y="-1511.97" font-family="Arial" font-size="24.00">ssdp</text>
</g>
<!-- NETWORK DoS
ssdp | ID: 55 -->
<g id="node2" class="node">
<title>NETWORK DoS
ssdp | ID: 55</title>
<g id="a_node2"><a xlink:title="ET DOS Possible SSDP Amplification Scan in Progress">
<polygon fill="salmon" stroke="black" stroke-width="3" points="463.54,-1408.36 385.27,-1457.34 228.73,-1457.34 150.46,-1408.36 228.73,-1359.38 385.27,-1359.38 463.54,-1408.36"/>
<text text-anchor="middle" x="307" y="-1415.16" font-family="Arial" font-size="24.00">NETWORK DoS</text>
<text text-anchor="middle" x="307" y="-1389.16" font-family="Arial" font-size="24.00">ssdp | ID: 55</text>
</a>
</g>
</g>
<!-- NETWORK DoS
ssdp | ID: 55&#45;&gt;Victim: 10.0.0.27
NETWORK DoS
ssdp -->
<g id="edge1" class="edge">
<title>NETWORK DoS
ssdp | ID: 55&#45;&gt;Victim: 10.0.0.27
NETWORK DoS
ssdp</title>
<path fill="none" stroke="black" stroke-width="5" d="M307,-1457.67C307,-1459.77 307,-1461.91 307,-1464.06"/>
<polygon fill="black" stroke="black" stroke-width="5" points="302.63,-1464.21 307,-1474.21 311.38,-1464.21 302.63,-1464.21"/>
</g>
<!-- SERVICE DISCOVERY
unknown -->
<g id="node3" class="node">
<title>SERVICE DISCOVERY
unknown</title>
<g id="a_node3"><a xlink:title="ET SCAN Potential VNC Scan 5800&#45;5820&#10;ET SCAN Potential SSH Scan&#10;ET SCAN Potential VNC Scan 5900&#45;5920">
<ellipse fill="yellow" stroke="black" stroke-width="3" cx="307" cy="-1054.09" rx="189.51" ry="42.35"/>
<text text-anchor="middle" x="307" y="-1060.89" font-family="Arial" font-size="24.00">SERVICE DISCOVERY</text>
<text text-anchor="middle" x="307" y="-1034.89" font-family="Arial" font-size="24.00">unknown</text>
</a>
</g>
</g>
<!-- VULNERABILTY DISCOVERY
ms&#45;sql&#45;s -->
<g id="node4" class="node">
<title>VULNERABILTY DISCOVERY
ms&#45;sql&#45;s</title>
<g id="a_node4"><a xlink:title="ET POLICY Suspicious inbound to mySQL port 3306&#10;ET POLICY Suspicious inbound to mSQL port 4333&#10;ET POLICY Suspicious inbound to MSSQL port 1433&#10;ET POLICY Suspicious inbound to Oracle SQL port 1521&#10;ET SCAN Nessus User Agent&#10;ET POLICY Suspicious inbound to PostgreSQL port 5432">
<ellipse fill="none" stroke="black" stroke-width="3" cx="307" cy="-1234.94" rx="241.25" ry="42.35"/>
<text text-anchor="middle" x="307" y="-1241.74" font-family="Arial" font-size="24.00">VULNERABILTY DISCOVERY</text>
<text text-anchor="middle" x="307" y="-1215.74" font-family="Arial" font-size="24.00">ms&#45;sql&#45;s</text>
</a>
</g>
</g>
<!-- SERVICE DISCOVERY
unknown&#45;&gt;VULNERABILTY DISCOVERY
ms&#45;sql&#45;s -->
<g id="edge2" class="edge">
<title>SERVICE DISCOVERY
unknown&#45;&gt;VULNERABILTY DISCOVERY
ms&#45;sql&#45;s</title>
<path fill="none" stroke="blue" stroke-width="5" d="M129.28,-1068.93C84.63,-1076.25 45.29,-1087.44 31,-1104.52 8.18,-1131.79 8.18,-1157.25 31,-1184.52 40.56,-1195.95 61.34,-1204.74 87.42,-1211.5"/>
<polygon fill="blue" stroke="blue" stroke-width="5" points="86.51,-1215.78 97.26,-1213.89 88.58,-1207.27 86.51,-1215.78"/>
<text text-anchor="start" x="31" y="-1169.52" font-family="Arial" font-size="20.00" fill="blue"> start_next: 04/11/17, 13:58:44</text>
<text text-anchor="start" x="107" y="-1149.52" font-family="Arial" font-size="20.00" fill="blue">gap: &#45;213sec</text>
<text text-anchor="start" x="35" y="-1129.52" font-family="Arial" font-size="20.00" fill="blue">end_prev: 04/11/17, 14:02:17</text>
<text text-anchor="start" x="65.5" y="-1109.52" font-family="Arial" font-weight="bold" font-size="20.00" fill="blue">Attacker: 10.0.254.31</text>
</g>
<!-- SERVICE DISCOVERY
unknown&#45;&gt;VULNERABILTY DISCOVERY
ms&#45;sql&#45;s -->
<g id="edge10" class="edge">
<title>SERVICE DISCOVERY
unknown&#45;&gt;VULNERABILTY DISCOVERY
ms&#45;sql&#45;s</title>
<path fill="none" stroke="blue" stroke-width="5" d="M307,-1096.57C307,-1122.1 307,-1155.03 307,-1182.25"/>
<polygon fill="blue" stroke="blue" stroke-width="5" points="302.63,-1182.38 307,-1192.38 311.38,-1182.38 302.63,-1182.38"/>
<text text-anchor="middle" x="438.5" y="-1161.52" font-family="Arial" font-size="20.00" fill="blue">start_next: 04/11/17, 16:26:51</text>
<text text-anchor="middle" x="438.5" y="-1139.52" font-family="Arial" font-size="20.00" fill="blue">gap: 10sec</text>
<text text-anchor="middle" x="438.5" y="-1117.52" font-family="Arial" font-size="20.00" fill="blue">end_prev: 04/11/17, 16:26:41</text>
</g>
<!-- SERVICE DISCOVERY
unknown&#45;&gt;VULNERABILTY DISCOVERY
ms&#45;sql&#45;s -->
<g id="edge16" class="edge">
<title>SERVICE DISCOVERY
unknown&#45;&gt;VULNERABILTY DISCOVERY
ms&#45;sql&#45;s</title>
<path fill="none" stroke="blue" stroke-width="5" d="M481.93,-1070.62C522.6,-1077.96 557.89,-1088.73 571,-1104.52 593.71,-1131.87 593.71,-1157.16 571,-1184.52 562.36,-1194.92 544.08,-1203.15 520.98,-1209.65"/>
<polygon fill="blue" stroke="blue" stroke-width="5" points="519.72,-1205.46 511.16,-1212.24 521.95,-1213.92 519.72,-1205.46"/>
<text text-anchor="middle" x="719.5" y="-1161.52" font-family="Arial" font-size="20.00" fill="blue">start_next: 04/11/17, 17:57:53</text>
<text text-anchor="middle" x="719.5" y="-1139.52" font-family="Arial" font-size="20.00" fill="blue">gap: 9sec</text>
<text text-anchor="middle" x="719.5" y="-1117.52" font-family="Arial" font-size="20.00" fill="blue">end_prev: 04/11/17, 17:57:44</text>
</g>
<!-- VULNERABILTY DISCOVERY
ms&#45;sql&#45;s&#45;&gt;NETWORK DoS
ssdp | ID: 55 -->
<g id="edge3" class="edge">
<title>VULNERABILTY DISCOVERY
ms&#45;sql&#45;s&#45;&gt;NETWORK DoS
ssdp | ID: 55</title>
<path fill="none" stroke="blue" stroke-width="5" d="M99.73,-1256.64C70.24,-1263.61 46.38,-1272.93 36,-1285.37 17.21,-1307.9 17.48,-1328.63 36,-1351.37 52.89,-1372.1 106.33,-1385.39 161.34,-1393.79"/>
<polygon fill="blue" stroke="blue" stroke-width="5" points="160.73,-1398.12 171.26,-1395.25 162,-1389.47 160.73,-1398.12"/>
<text text-anchor="middle" x="167.5" y="-1335.37" font-family="Arial" font-size="20.00" fill="blue">start_next: 04/11/17, 14:00:01</text>
<text text-anchor="middle" x="167.5" y="-1313.37" font-family="Arial" font-size="20.00" fill="blue">gap: &#45;323sec</text>
<text text-anchor="middle" x="167.5" y="-1291.37" font-family="Arial" font-size="20.00" fill="blue">end_prev: 04/11/17, 14:05:24</text>
</g>
<!-- VULNERABILTY DISCOVERY
ms&#45;sql&#45;s&#45;&gt;NETWORK DoS
ssdp | ID: 55 -->
<g id="edge11" class="edge">
<title>VULNERABILTY DISCOVERY
ms&#45;sql&#45;s&#45;&gt;NETWORK DoS
ssdp | ID: 55</title>
<path fill="none" stroke="blue" stroke-width="5" d="M307,-1277.44C307,-1298.93 307,-1325.53 307,-1349.05"/>
<polygon fill="blue" stroke="blue" stroke-width="5" points="302.63,-1349.27 307,-1359.27 311.38,-1349.27 302.63,-1349.27"/>
<text text-anchor="middle" x="438.5" y="-1335.37" font-family="Arial" font-size="20.00" fill="blue">start_next: 04/11/17, 16:27:51</text>
<text text-anchor="middle" x="438.5" y="-1313.37" font-family="Arial" font-size="20.00" fill="blue">gap: &#45;139sec</text>
<text text-anchor="middle" x="438.5" y="-1291.37" font-family="Arial" font-size="20.00" fill="blue">end_prev: 04/11/17, 16:30:09</text>
</g>
<!-- VULNERABILTY DISCOVERY
ms&#45;sql&#45;s&#45;&gt;NETWORK DoS
ssdp | ID: 55 -->
<g id="edge17" class="edge">
<title>VULNERABILTY DISCOVERY
ms&#45;sql&#45;s&#45;&gt;NETWORK DoS
ssdp | ID: 55</title>
<path fill="none" stroke="blue" stroke-width="5" d="M511.16,-1257.64C538.86,-1264.51 561.17,-1273.53 571,-1285.37 589.74,-1307.94 589.47,-1328.58 571,-1351.37 554.86,-1371.29 504.27,-1384.41 451.63,-1392.91"/>
<polygon fill="blue" stroke="blue" stroke-width="5" points="450.65,-1388.63 441.44,-1394.49 451.99,-1397.28 450.65,-1388.63"/>
<text text-anchor="middle" x="715.5" y="-1335.37" font-family="Arial" font-size="20.00" fill="blue">start_next: 04/11/17, 17:58:52</text>
<text text-anchor="middle" x="715.5" y="-1313.37" font-family="Arial" font-size="20.00" fill="blue">gap: &#45;132sec</text>
<text text-anchor="middle" x="715.5" y="-1291.37" font-family="Arial" font-size="20.00" fill="blue">end_prev: 04/11/17, 18:01:04</text>
</g>
<!-- INFO DISCOVERY
xdmcp -->
<g id="node5" class="node">
<title>INFO DISCOVERY
xdmcp</title>
<g id="a_node5"><a xlink:title="GPL WEB_SERVER mod_gzip_status access&#10;GPL RPC xdmcp info query">
<ellipse fill="yellow" stroke="black" stroke-width="3" cx="305" cy="-42.43" rx="156.04" ry="42.35"/>
<text text-anchor="middle" x="305" y="-49.23" font-family="Arial" font-size="24.00">INFO DISCOVERY</text>
<text text-anchor="middle" x="305" y="-23.23" font-family="Arial" font-size="24.00">xdmcp</text>
</a>
</g>
</g>
<!-- REMOTE SERVICE EXPLOIT
snmp | ID: 365 -->
<g id="node6" class="node">
<title>REMOTE SERVICE EXPLOIT
snmp | ID: 365</title>
<g id="a_node6"><a xlink:title="ET SNMP Samsung Printer SNMP Hardcode RW Community String">
<polygon fill="none" stroke="black" stroke-width="3" points="338,-250.85 0,-250.85 0,-190.85 338,-190.85 338,-250.85"/>
<text text-anchor="middle" x="169" y="-227.65" font-family="Arial" font-size="24.00">REMOTE SERVICE EXPLOIT</text>
<text text-anchor="middle" x="169" y="-201.65" font-family="Arial" font-size="24.00">snmp | ID: 365</text>
</a>
</g>
</g>
<!-- INFO DISCOVERY
xdmcp&#45;&gt;REMOTE SERVICE EXPLOIT
snmp | ID: 365 -->
<g id="edge4" class="edge">
<title>INFO DISCOVERY
xdmcp&#45;&gt;REMOTE SERVICE EXPLOIT
snmp | ID: 365</title>
<path fill="none" stroke="blue" stroke-width="5" d="M192.35,-72.12C184.13,-77.82 176.81,-84.66 171,-92.85 153.14,-118.06 154.23,-153.71 158.87,-180.83"/>
<polygon fill="blue" stroke="blue" stroke-width="5" points="154.6,-181.78 160.8,-190.77 163.19,-180.12 154.6,-181.78"/>
<text text-anchor="start" x="171" y="-157.85" font-family="Arial" font-size="20.00" fill="blue"> start_next: 04/11/17, 14:00:46</text>
<text text-anchor="start" x="247" y="-137.85" font-family="Arial" font-size="20.00" fill="blue">gap: &#45;231sec</text>
<text text-anchor="start" x="175" y="-117.85" font-family="Arial" font-size="20.00" fill="blue">end_prev: 04/11/17, 14:04:37</text>
<text text-anchor="start" x="205.5" y="-97.85" font-family="Arial" font-weight="bold" font-size="20.00" fill="blue">Attacker: 10.0.254.31</text>
</g>
<!-- ACCOUNT MANIPULATION
snmp | ID: 53 -->
<g id="node7" class="node">
<title>ACCOUNT MANIPULATION
snmp | ID: 53</title>
<g id="a_node7"><a xlink:title="GPL SNMP private access udp&#10;GPL SNMP public access udp">
<polygon fill="none" stroke="black" stroke-width="3" points="467,-402.85 147,-402.85 147,-342.85 467,-342.85 467,-402.85"/>
<text text-anchor="middle" x="307" y="-379.65" font-family="Arial" font-size="24.00">ACCOUNT MANIPULATION</text>
<text text-anchor="middle" x="307" y="-353.65" font-family="Arial" font-size="24.00">snmp | ID: 53</text>
</a>
</g>
</g>
<!-- INFO DISCOVERY
xdmcp&#45;&gt;ACCOUNT MANIPULATION
snmp | ID: 53 -->
<g id="edge12" class="edge">
<title>INFO DISCOVERY
xdmcp&#45;&gt;ACCOUNT MANIPULATION
snmp | ID: 53</title>
<path fill="none" stroke="blue" stroke-width="5" d="M415.59,-72.53C423.47,-78.15 430.47,-84.86 436,-92.85 497.17,-181.32 500.73,-248.95 436,-334.85 435.54,-335.46 435.02,-336.07 434.44,-336.66"/>
<polygon fill="blue" stroke="blue" stroke-width="5" points="431.61,-333.31 426.18,-342.78 436.82,-340.34 431.61,-333.31"/>
<text text-anchor="start" x="483" y="-245.85" font-family="Arial" font-size="20.00" fill="blue"> start_next: 04/11/17, 16:29:32</text>
<text text-anchor="start" x="559" y="-225.85" font-family="Arial" font-size="20.00" fill="blue">gap: &#45;197sec</text>
<text text-anchor="start" x="487" y="-205.85" font-family="Arial" font-size="20.00" fill="blue">end_prev: 04/11/17, 16:32:48</text>
<text text-anchor="start" x="517.5" y="-185.85" font-family="Arial" font-weight="bold" font-size="20.00" fill="blue">Attacker: 10.0.254.31</text>
</g>
<!-- REMOTE SERVICE EXPLOIT
snmp | ID: 365&#45;&gt;ACCOUNT MANIPULATION
snmp | ID: 53 -->
<g id="edge5" class="edge">
<title>REMOTE SERVICE EXPLOIT
snmp | ID: 365&#45;&gt;ACCOUNT MANIPULATION
snmp | ID: 53</title>
<path fill="none" stroke="blue" stroke-width="5" d="M162.24,-251.13C158.29,-276.12 157.24,-311.6 176,-334.85 176.14,-335.03 176.29,-335.21 176.43,-335.38"/>
<polygon fill="blue" stroke="blue" stroke-width="5" points="173.41,-338.56 183.47,-342.79 179.76,-332.53 173.41,-338.56"/>
<text text-anchor="middle" x="307.5" y="-318.85" font-family="Arial" font-size="20.00" fill="blue">start_next: 04/11/17, 14:01:36</text>
<text text-anchor="middle" x="307.5" y="-296.85" font-family="Arial" font-size="20.00" fill="blue">gap: 50sec</text>
<text text-anchor="middle" x="307.5" y="-274.85" font-family="Arial" font-size="20.00" fill="blue">end_prev: 04/11/17, 14:00:46</text>
</g>
<!-- SURFING
http -->
<g id="node8" class="node">
<title>SURFING
http</title>
<g id="a_node8"><a xlink:title="ET WEB_SERVER WEB&#45;PHP phpinfo access">
<ellipse fill="none" stroke="black" stroke-width="3" cx="171" cy="-527.28" rx="88.28" ry="42.35"/>
<text text-anchor="middle" x="171" y="-534.08" font-family="Arial" font-size="24.00">SURFING</text>
<text text-anchor="middle" x="171" y="-508.08" font-family="Arial" font-size="24.00">http</text>
</a>
</g>
</g>
<!-- ACCOUNT MANIPULATION
snmp | ID: 53&#45;&gt;SURFING
http -->
<g id="edge6" class="edge">
<title>ACCOUNT MANIPULATION
snmp | ID: 53&#45;&gt;SURFING
http</title>
<path fill="none" stroke="blue" stroke-width="5" d="M185.17,-402.88C180.71,-405.39 177.21,-408.05 175,-410.85 161.04,-428.61 158.59,-453.1 160.23,-474.95"/>
<polygon fill="blue" stroke="blue" stroke-width="5" points="155.9,-475.6 161.28,-485.09 164.6,-474.69 155.9,-475.6"/>
<text text-anchor="middle" x="306.5" y="-460.85" font-family="Arial" font-size="20.00" fill="blue">start_next: 04/11/17, 14:04:44</text>
<text text-anchor="middle" x="306.5" y="-438.85" font-family="Arial" font-size="20.00" fill="blue">gap: 158sec</text>
<text text-anchor="middle" x="306.5" y="-416.85" font-family="Arial" font-size="20.00" fill="blue">end_prev: 04/11/17, 14:02:06</text>
</g>
<!-- DATA DELIVERY
http | ID: 246 -->
<g id="node9" class="node">
<title>DATA DELIVERY
http | ID: 246</title>
<g id="a_node9"><a xlink:title="ET WEB_SERVER PHP tags in HTTP POST&#10;GPL WEB_SERVER perl post attempt">
<polygon fill="none" stroke="black" stroke-width="3" points="470.1,-700.7 388.55,-749.68 225.45,-749.68 143.9,-700.7 225.45,-651.72 388.55,-651.72 470.1,-700.7"/>
<text text-anchor="middle" x="307" y="-707.5" font-family="Arial" font-size="24.00">DATA DELIVERY</text>
<text text-anchor="middle" x="307" y="-681.5" font-family="Arial" font-size="24.00">http | ID: 246</text>
</a>
</g>
</g>
<!-- ACCOUNT MANIPULATION
snmp | ID: 53&#45;&gt;DATA DELIVERY
http | ID: 246 -->
<g id="edge13" class="edge">
<title>ACCOUNT MANIPULATION
snmp | ID: 53&#45;&gt;DATA DELIVERY
http | ID: 246</title>
<path fill="none" stroke="blue" stroke-width="5" d="M428.19,-403.11C430.63,-405.5 432.91,-408.08 435,-410.85 497.19,-493.57 491.65,-557.1 435,-643.71 431.12,-649.64 426.46,-654.95 421.24,-659.69"/>
<polygon fill="blue" stroke="blue" stroke-width="5" points="418.19,-656.54 413.23,-666.26 423.74,-663.3 418.19,-656.54"/>
<text text-anchor="middle" x="610.5" y="-544.28" font-family="Arial" font-size="20.00" fill="blue">start_next: 04/11/17, 16:33:00</text>
<text text-anchor="middle" x="610.5" y="-522.28" font-family="Arial" font-size="20.00" fill="blue">gap: 179sec</text>
<text text-anchor="middle" x="610.5" y="-500.28" font-family="Arial" font-size="20.00" fill="blue">end_prev: 04/11/17, 16:30:00</text>
</g>
<!-- SURFING
http&#45;&gt;DATA DELIVERY
http | ID: 246 -->
<g id="edge7" class="edge">
<title>SURFING
http&#45;&gt;DATA DELIVERY
http | ID: 246</title>
<path fill="none" stroke="blue" stroke-width="5" d="M162.16,-569.58C159.45,-593.25 160.35,-622.39 175,-643.71 179.51,-650.27 184.96,-656.07 191.03,-661.19"/>
<polygon fill="blue" stroke="blue" stroke-width="5" points="188.44,-664.71 199.04,-667.32 193.76,-657.76 188.44,-664.71"/>
<text text-anchor="middle" x="306.5" y="-627.71" font-family="Arial" font-size="20.00" fill="blue">start_next: 04/11/17, 14:04:47</text>
<text text-anchor="middle" x="306.5" y="-605.71" font-family="Arial" font-size="20.00" fill="blue">gap: 1sec</text>
<text text-anchor="middle" x="306.5" y="-583.71" font-family="Arial" font-size="20.00" fill="blue">end_prev: 04/11/17, 14:04:46</text>
</g>
<!-- DATA EXFILTRATION
http | ID: 26 -->
<g id="node10" class="node">
<title>DATA EXFILTRATION
http | ID: 26</title>
<g id="a_node10"><a xlink:title="ET WEB_SPECIFIC_APPS PHP&#45;CGI query string parameter vulnerability">
<polygon fill="none" stroke="black" stroke-width="3" points="511.88,-880.68 409.44,-929.65 204.56,-929.65 102.12,-880.68 204.56,-831.7 409.44,-831.7 511.88,-880.68"/>
<text text-anchor="middle" x="307" y="-887.48" font-family="Arial" font-size="24.00">DATA EXFILTRATION</text>
<text text-anchor="middle" x="307" y="-861.48" font-family="Arial" font-size="24.00">http | ID: 26</text>
</a>
</g>
</g>
<!-- DATA DELIVERY
http | ID: 246&#45;&gt;DATA EXFILTRATION
http | ID: 26 -->
<g id="edge8" class="edge">
<title>DATA DELIVERY
http | ID: 246&#45;&gt;DATA EXFILTRATION
http | ID: 26</title>
<path fill="none" stroke="blue" stroke-width="5" d="M198.21,-733.53C188.75,-740.13 180.37,-748.08 174,-757.69 157.77,-782.12 157.77,-799.25 174,-823.69 175.94,-826.61 178.07,-829.38 180.35,-832"/>
<polygon fill="blue" stroke="blue" stroke-width="5" points="177.53,-835.38 187.66,-839.45 183.78,-829.25 177.53,-835.38"/>
<text text-anchor="middle" x="305.5" y="-807.69" font-family="Arial" font-size="20.00" fill="blue">start_next: 04/11/17, 14:04:51</text>
<text text-anchor="middle" x="305.5" y="-785.69" font-family="Arial" font-size="20.00" fill="blue">gap: &#45;4sec</text>
<text text-anchor="middle" x="305.5" y="-763.69" font-family="Arial" font-size="20.00" fill="blue">end_prev: 04/11/17, 14:04:56</text>
</g>
<!-- DATA DELIVERY
http | ID: 246&#45;&gt;DATA EXFILTRATION
http | ID: 26 -->
<g id="edge14" class="edge">
<title>DATA DELIVERY
http | ID: 246&#45;&gt;DATA EXFILTRATION
http | ID: 26</title>
<path fill="none" stroke="blue" stroke-width="5" d="M412.7,-735.45C421,-741.66 428.34,-749.01 434,-757.69 450.02,-782.26 450.02,-799.11 434,-823.69 432.53,-825.94 430.95,-828.1 429.27,-830.17"/>
<polygon fill="blue" stroke="blue" stroke-width="5" points="425.85,-827.43 422.31,-837.76 432.29,-833.35 425.85,-827.43"/>
<text text-anchor="middle" x="577.5" y="-807.69" font-family="Arial" font-size="20.00" fill="blue">start_next: 04/11/17, 16:33:04</text>
<text text-anchor="middle" x="577.5" y="-785.69" font-family="Arial" font-size="20.00" fill="blue">gap: 0sec</text>
<text text-anchor="middle" x="577.5" y="-763.69" font-family="Arial" font-size="20.00" fill="blue">end_prev: 04/11/17, 16:33:04</text>
</g>
<!-- DATA EXFILTRATION
http | ID: 26&#45;&gt;SERVICE DISCOVERY
unknown -->
<g id="edge9" class="edge">
<title>DATA EXFILTRATION
http | ID: 26&#45;&gt;SERVICE DISCOVERY
unknown</title>
<path fill="none" stroke="blue" stroke-width="5" d="M187.66,-921.9C182.5,-926.59 177.88,-931.82 174,-937.66 157.77,-962.1 157.26,-979.58 174,-1003.66 176.53,-1007.31 179.36,-1010.68 182.44,-1013.8"/>
<polygon fill="blue" stroke="blue" stroke-width="5" points="179.69,-1017.21 190.05,-1020.65 185.55,-1010.71 179.69,-1017.21"/>
<text text-anchor="middle" x="305.5" y="-987.66" font-family="Arial" font-size="20.00" fill="blue">start_next: 04/11/17, 16:26:40</text>
<text text-anchor="middle" x="305.5" y="-965.66" font-family="Arial" font-size="20.00" fill="blue">gap: 8500sec</text>
<text text-anchor="middle" x="305.5" y="-943.66" font-family="Arial" font-size="20.00" fill="blue">end_prev: 04/11/17, 14:05:00</text>
</g>
<!-- DATA EXFILTRATION
http | ID: 26&#45;&gt;SERVICE DISCOVERY
unknown -->
<g id="edge15" class="edge">
<title>DATA EXFILTRATION
http | ID: 26&#45;&gt;SERVICE DISCOVERY
unknown</title>
<path fill="none" stroke="blue" stroke-width="5" d="M422.31,-923.59C426.7,-927.84 430.64,-932.52 434,-937.66 450.02,-962.24 450.56,-979.45 434,-1003.66 431.8,-1006.88 429.36,-1009.89 426.71,-1012.7"/>
<polygon fill="blue" stroke="blue" stroke-width="5" points="423.56,-1009.66 419.27,-1019.69 429.55,-1016.03 423.56,-1009.66"/>
<text text-anchor="middle" x="577.5" y="-987.66" font-family="Arial" font-size="20.00" fill="blue">start_next: 04/11/17, 17:57:43</text>
<text text-anchor="middle" x="577.5" y="-965.66" font-family="Arial" font-size="20.00" fill="blue">gap: 5073sec</text>
<text text-anchor="middle" x="577.5" y="-943.66" font-family="Arial" font-size="20.00" fill="blue">end_prev: 04/11/17, 16:33:11</text>
</g>
</g>
</svg>
