<?xml version="1.0" encoding="UTF-8" standalone="no"?>
<!DOCTYPE svg PUBLIC "-//W3C//DTD SVG 1.1//EN"
 "http://www.w3.org/Graphics/SVG/1.1/DTD/svg11.dtd">
<!-- Generated by graphviz version 2.50.0 (0)
 -->
<!-- Title: NETWORKDOSssdp Pages: 1 -->
<svg width="1560pt" height="1813pt"
 viewBox="0.00 0.00 1560.44 1812.55" xmlns="http://www.w3.org/2000/svg" xmlns:xlink="http://www.w3.org/1999/xlink">
<g id="graph0" class="graph" transform="scale(1 1) rotate(0) translate(4 1808.55)">
<title>NETWORKDOSssdp</title>
<polygon fill="white" stroke="transparent" points="-4,4 -4,-1808.55 1556.44,-1808.55 1556.44,4 -4,4"/>
<!-- Victim: 10.0.99.143
NETWORK DoS
ssdp -->
<g id="node1" class="node">
<title>Victim: 10.0.99.143
NETWORK DoS
ssdp</title>
<polygon fill="salmon" stroke="black" stroke-width="3" points="346.83,-1707.54 346.83,-1761.92 246.43,-1800.38 104.45,-1800.38 4.06,-1761.92 4.06,-1707.54 104.45,-1669.08 246.43,-1669.08 346.83,-1707.54"/>
<polygon fill="none" stroke="black" stroke-width="3" points="350.83,-1704.79 350.83,-1764.67 247.17,-1804.37 103.71,-1804.37 0.06,-1764.67 0.06,-1704.79 103.71,-1665.09 247.17,-1665.09 350.83,-1704.79"/>
<text text-anchor="middle" x="175.44" y="-1754.53" font-family="Arial" font-size="24.00">Victim: 10.0.99.143</text>
<text text-anchor="middle" x="175.44" y="-1728.53" font-family="Arial" font-size="24.00">NETWORK DoS</text>
<text text-anchor="middle" x="175.44" y="-1702.53" font-family="Arial" font-size="24.00">ssdp</text>
</g>
<!-- NETWORK DoS
ssdp | ID: 55 -->
<g id="node2" class="node">
<title>NETWORK DoS
ssdp | ID: 55</title>
<g id="a_node2"><a xlink:title="ET DOS Possible SSDP Amplification Scan in Progress">
<polygon fill="salmon" stroke="black" stroke-width="3" points="331.98,-1598.92 253.71,-1647.9 97.17,-1647.9 18.91,-1598.92 97.17,-1549.94 253.71,-1549.94 331.98,-1598.92"/>
<text text-anchor="middle" x="175.44" y="-1605.72" font-family="Arial" font-size="24.00">NETWORK DoS</text>
<text text-anchor="middle" x="175.44" y="-1579.72" font-family="Arial" font-size="24.00">ssdp | ID: 55</text>
</a>
</g>
</g>
<!-- NETWORK DoS
ssdp | ID: 55&#45;&gt;Victim: 10.0.99.143
NETWORK DoS
ssdp -->
<g id="edge1" class="edge">
<title>NETWORK DoS
ssdp | ID: 55&#45;&gt;Victim: 10.0.99.143
NETWORK DoS
ssdp</title>
<path fill="none" stroke="black" stroke-width="5" d="M175.44,-1648.23C175.44,-1650.33 175.44,-1652.47 175.44,-1654.61"/>
<polygon fill="black" stroke="black" stroke-width="5" points="171.07,-1654.77 175.44,-1664.77 179.82,-1654.77 171.07,-1654.77"/>
</g>
<!-- VULNERABILTY DISCOVERY
ms&#45;sql&#45;s -->
<g id="node3" class="node">
<title>VULNERABILTY DISCOVERY
ms&#45;sql&#45;s</title>
<g id="a_node3"><a xlink:title="ET POLICY Suspicious inbound to mySQL port 3306&#10;ET POLICY Suspicious inbound to mSQL port 4333&#10;ET POLICY Suspicious inbound to MSSQL port 1433&#10;ET POLICY Suspicious inbound to Oracle SQL port 1521&#10;ET POLICY Suspicious inbound to PostgreSQL port 5432">
<ellipse fill="yellow" stroke="black" stroke-width="3" cx="597.44" cy="-42.43" rx="241.25" ry="42.35"/>
<text text-anchor="middle" x="597.44" y="-49.23" font-family="Arial" font-size="24.00">VULNERABILTY DISCOVERY</text>
<text text-anchor="middle" x="597.44" y="-23.23" font-family="Arial" font-size="24.00">ms&#45;sql&#45;s</text>
</a>
</g>
</g>
<!-- SERVICE DISCOVERY
microsoft&#45;ds -->
<g id="node4" class="node">
<title>SERVICE DISCOVERY
microsoft&#45;ds</title>
<g id="a_node4"><a xlink:title="ET SCAN Behavioral Unusual Port 135 traffic Potential Scan or Infection&#10;ET SCAN Potential VNC Scan 5800&#45;5820&#10;ET SCAN Behavioral Unusual Port 445 traffic Potential Scan or Infection">
<ellipse fill="none" stroke="black" stroke-width="3" cx="308.44" cy="-316.13" rx="189.51" ry="42.35"/>
<text text-anchor="middle" x="308.44" y="-322.93" font-family="Arial" font-size="24.00">SERVICE DISCOVERY</text>
<text text-anchor="middle" x="308.44" y="-296.93" font-family="Arial" font-size="24.00">microsoft&#45;ds</text>
</a>
</g>
</g>
<!-- VULNERABILTY DISCOVERY
ms&#45;sql&#45;s&#45;&gt;SERVICE DISCOVERY
microsoft&#45;ds -->
<g id="edge2" class="edge">
<title>VULNERABILTY DISCOVERY
ms&#45;sql&#45;s&#45;&gt;SERVICE DISCOVERY
microsoft&#45;ds</title>
<path fill="none" stroke="blue" stroke-width="5" d="M392.9,-64.94C363.4,-71.85 339.32,-80.92 328.44,-92.85 286.8,-138.52 289.28,-213.57 297.07,-263.67"/>
<polygon fill="blue" stroke="blue" stroke-width="5" points="292.78,-264.51 298.75,-273.65 301.41,-263.06 292.78,-264.51"/>
<text text-anchor="start" x="328.44" y="-157.85" font-family="Arial" font-size="20.00" fill="blue"> start_next: 04/11/17, 14:08:09</text>
<text text-anchor="start" x="409.94" y="-137.85" font-family="Arial" font-size="20.00" fill="blue">gap: &#45;32sec</text>
<text text-anchor="start" x="332.44" y="-117.85" font-family="Arial" font-size="20.00" fill="blue">end_prev: 04/11/17, 14:08:41</text>
<text text-anchor="start" x="362.94" y="-97.85" font-family="Arial" font-weight="bold" font-size="20.00" fill="blue">Attacker: 10.0.254.31</text>
</g>
<!-- SERVICE DISCOVERY
rpas&#45;c2 -->
<g id="node12" class="node">
<title>SERVICE DISCOVERY
rpas&#45;c2</title>
<g id="a_node12"><a xlink:title="ET SCAN Potential VNC Scan 5900&#45;5920">
<ellipse fill="none" stroke="black" stroke-width="3" cx="597.44" cy="-223.28" rx="189.51" ry="42.35"/>
<text text-anchor="middle" x="597.44" y="-230.08" font-family="Arial" font-size="24.00">SERVICE DISCOVERY</text>
<text text-anchor="middle" x="597.44" y="-204.08" font-family="Arial" font-size="24.00">rpas&#45;c2</text>
</a>
</g>
</g>
<!-- VULNERABILTY DISCOVERY
ms&#45;sql&#45;s&#45;&gt;SERVICE DISCOVERY
rpas&#45;c2 -->
<g id="edge15" class="edge">
<title>VULNERABILTY DISCOVERY
ms&#45;sql&#45;s&#45;&gt;SERVICE DISCOVERY
rpas&#45;c2</title>
<path fill="none" stroke="blue" stroke-width="5" d="M597.44,-84.91C597.44,-110.44 597.44,-143.37 597.44,-170.59"/>
<polygon fill="blue" stroke="blue" stroke-width="5" points="593.07,-170.71 597.44,-180.71 601.82,-170.71 593.07,-170.71"/>
<text text-anchor="middle" x="728.94" y="-149.85" font-family="Arial" font-size="20.00" fill="blue">start_next: 04/11/17, 18:03:39</text>
<text text-anchor="middle" x="728.94" y="-127.85" font-family="Arial" font-size="20.00" fill="blue">gap: &#45;38sec</text>
<text text-anchor="middle" x="728.94" y="-105.85" font-family="Arial" font-size="20.00" fill="blue">end_prev: 04/11/17, 18:04:17</text>
</g>
<!-- SERVICE DISCOVERY
microsoft&#45;ds&#45;&gt;NETWORK DoS
ssdp | ID: 55 -->
<g id="edge3" class="edge">
<title>SERVICE DISCOVERY
microsoft&#45;ds&#45;&gt;NETWORK DoS
ssdp | ID: 55</title>
<path fill="none" stroke="blue" stroke-width="5" d="M252.31,-356.87C212.99,-389.77 167.44,-440.4 167.44,-498.41 167.44,-498.41 167.44,-498.41 167.44,-1438.93 167.44,-1472.18 169.21,-1509.29 171.08,-1539.3"/>
<polygon fill="blue" stroke="blue" stroke-width="5" points="166.74,-1539.9 171.75,-1549.59 175.47,-1539.33 166.74,-1539.9"/>
<text text-anchor="middle" x="298.94" y="-960.23" font-family="Arial" font-size="20.00" fill="blue">start_next: 04/11/17, 14:09:19</text>
<text text-anchor="middle" x="298.94" y="-938.23" font-family="Arial" font-size="20.00" fill="blue">gap: 42sec</text>
<text text-anchor="middle" x="298.94" y="-916.23" font-family="Arial" font-size="20.00" fill="blue">end_prev: 04/11/17, 14:08:36</text>
</g>
<!-- INFO DISCOVERY
xdmcp -->
<g id="node5" class="node">
<title>INFO DISCOVERY
xdmcp</title>
<g id="a_node5"><a xlink:title="GPL WEB_SERVER mod_gzip_status access&#10;GPL RPC xdmcp info query">
<ellipse fill="yellow" stroke="black" stroke-width="3" cx="597.44" cy="-408.98" rx="156.04" ry="42.35"/>
<text text-anchor="middle" x="597.44" y="-415.78" font-family="Arial" font-size="24.00">INFO DISCOVERY</text>
<text text-anchor="middle" x="597.44" y="-389.78" font-family="Arial" font-size="24.00">xdmcp</text>
</a>
</g>
</g>
<!-- SURFING
vrml&#45;multi&#45;use -->
<g id="node6" class="node">
<title>SURFING
vrml&#45;multi&#45;use</title>
<g id="a_node6"><a xlink:title="ET WEB_SERVER WEB&#45;PHP phpinfo access">
<ellipse fill="none" stroke="black" stroke-width="3" cx="736.44" cy="-589.84" rx="119.5" ry="42.35"/>
<text text-anchor="middle" x="736.44" y="-596.64" font-family="Arial" font-size="24.00">SURFING</text>
<text text-anchor="middle" x="736.44" y="-570.64" font-family="Arial" font-size="24.00">vrml&#45;multi&#45;use</text>
</a>
</g>
</g>
<!-- INFO DISCOVERY
xdmcp&#45;&gt;SURFING
vrml&#45;multi&#45;use -->
<g id="edge4" class="edge">
<title>INFO DISCOVERY
xdmcp&#45;&gt;SURFING
vrml&#45;multi&#45;use</title>
<path fill="none" stroke="blue" stroke-width="5" d="M704.23,-440.23C711.9,-445.61 718.82,-451.95 724.44,-459.41 733.57,-471.51 736.42,-506.54 737.07,-537.11"/>
<polygon fill="blue" stroke="blue" stroke-width="5" points="732.7,-537.33 737.21,-547.27 741.45,-537.21 732.7,-537.33"/>
<text text-anchor="start" x="736.44" y="-524.41" font-family="Arial" font-size="20.00" fill="blue"> start_next: 04/11/17, 14:11:32</text>
<text text-anchor="start" x="826.44" y="-504.41" font-family="Arial" font-size="20.00" fill="blue">gap: 2sec</text>
<text text-anchor="start" x="740.44" y="-484.41" font-family="Arial" font-size="20.00" fill="blue">end_prev: 04/11/17, 14:11:30</text>
<text text-anchor="start" x="770.44" y="-464.41" font-family="Arial" font-weight="bold" font-size="20.00" fill="blue">Attacker: 10.0.254.31</text>
</g>
<!-- INFO DISCOVERY
xdmcp&#45;&gt;SURFING
vrml&#45;multi&#45;use -->
<g id="edge11" class="edge">
<title>INFO DISCOVERY
xdmcp&#45;&gt;SURFING
vrml&#45;multi&#45;use</title>
<path fill="none" stroke="blue" stroke-width="5" d="M749.5,-418.85C857.51,-426.75 986.32,-440.08 1003.44,-459.41 1015.23,-472.72 1014.81,-525.74 1003.44,-539.41 985.06,-561.51 923.61,-573.77 864.29,-580.55"/>
<polygon fill="blue" stroke="blue" stroke-width="5" points="863.49,-576.24 854.02,-581.67 864.44,-584.93 863.49,-576.24"/>
<text text-anchor="middle" x="1142.94" y="-516.41" font-family="Arial" font-size="20.00" fill="blue">start_next: 04/11/17, 16:34:42</text>
<text text-anchor="middle" x="1142.94" y="-494.41" font-family="Arial" font-size="20.00" fill="blue">gap: 2sec</text>
<text text-anchor="middle" x="1142.94" y="-472.41" font-family="Arial" font-size="20.00" fill="blue">end_prev: 04/11/17, 16:34:40</text>
</g>
<!-- INFO DISCOVERY
xdmcp&#45;&gt;SURFING
vrml&#45;multi&#45;use -->
<g id="edge17" class="edge">
<title>INFO DISCOVERY
xdmcp&#45;&gt;SURFING
vrml&#45;multi&#45;use</title>
<path fill="none" stroke="blue" stroke-width="5" d="M482.78,-437.85C474.15,-443.72 466.47,-450.82 460.44,-459.41 450.22,-473.96 449.03,-525.78 460.44,-539.41 479.94,-562.71 546.04,-575.04 608.66,-581.56"/>
<polygon fill="blue" stroke="blue" stroke-width="5" points="608.29,-585.92 618.68,-582.55 609.16,-577.21 608.29,-585.92"/>
<text text-anchor="middle" x="591.94" y="-516.41" font-family="Arial" font-size="20.00" fill="blue">start_next: 04/11/17, 18:07:07</text>
<text text-anchor="middle" x="591.94" y="-494.41" font-family="Arial" font-size="20.00" fill="blue">gap: 2sec</text>
<text text-anchor="middle" x="591.94" y="-472.41" font-family="Arial" font-size="20.00" fill="blue">end_prev: 04/11/17, 18:07:05</text>
</g>
<!-- DATA DELIVERY
vrml&#45;multi&#45;use | ID: 416 -->
<g id="node7" class="node">
<title>DATA DELIVERY
vrml&#45;multi&#45;use | ID: 416</title>
<g id="a_node7"><a xlink:title="ET WEB_SERVER PHP Possible php Remote File Inclusion Attempt&#10;ET WEB_SERVER PHP tags in HTTP POST&#10;GPL WEB_SERVER perl post attempt">
<polygon fill="none" stroke="black" stroke-width="3" points="956.82,-763.25 848.13,-812.23 630.75,-812.23 522.07,-763.25 630.75,-714.27 848.13,-714.27 956.82,-763.25"/>
<text text-anchor="middle" x="739.44" y="-770.05" font-family="Arial" font-size="24.00">DATA DELIVERY</text>
<text text-anchor="middle" x="739.44" y="-744.05" font-family="Arial" font-size="24.00">vrml&#45;multi&#45;use | ID: 416</text>
</a>
</g>
</g>
<!-- SURFING
vrml&#45;multi&#45;use&#45;&gt;DATA DELIVERY
vrml&#45;multi&#45;use | ID: 416 -->
<g id="edge5" class="edge">
<title>SURFING
vrml&#45;multi&#45;use&#45;&gt;DATA DELIVERY
vrml&#45;multi&#45;use | ID: 416</title>
<path fill="none" stroke="blue" stroke-width="5" d="M618.86,-598C556.53,-604.52 488.89,-616.89 469.44,-640.26 450.68,-662.81 450.93,-683.51 469.44,-706.26 482.21,-721.96 515.99,-733.39 555.51,-741.67"/>
<polygon fill="blue" stroke="blue" stroke-width="5" points="554.72,-745.97 565.39,-743.65 556.45,-737.39 554.72,-745.97"/>
<text text-anchor="middle" x="600.44" y="-690.26" font-family="Arial" font-size="20.00" fill="blue">start_next: 04/11/17, 14:11:33</text>
<text text-anchor="middle" x="600.44" y="-668.26" font-family="Arial" font-size="20.00" fill="blue">gap: 1sec</text>
<text text-anchor="middle" x="600.44" y="-646.26" font-family="Arial" font-size="20.00" fill="blue">end_prev: 04/11/17, 14:11:32</text>
</g>
<!-- SURFING
vrml&#45;multi&#45;use&#45;&gt;DATA DELIVERY
vrml&#45;multi&#45;use | ID: 416 -->
<g id="edge12" class="edge">
<title>SURFING
vrml&#45;multi&#45;use&#45;&gt;DATA DELIVERY
vrml&#45;multi&#45;use | ID: 416</title>
<path fill="none" stroke="blue" stroke-width="5" d="M737.17,-632.33C737.54,-653.82 738.01,-680.42 738.42,-703.95"/>
<polygon fill="blue" stroke="blue" stroke-width="5" points="734.05,-704.24 738.6,-714.16 742.8,-704.08 734.05,-704.24"/>
<text text-anchor="middle" x="868.94" y="-690.26" font-family="Arial" font-size="20.00" fill="blue">start_next: 04/11/17, 16:34:46</text>
<text text-anchor="middle" x="868.94" y="-668.26" font-family="Arial" font-size="20.00" fill="blue">gap: 3sec</text>
<text text-anchor="middle" x="868.94" y="-646.26" font-family="Arial" font-size="20.00" fill="blue">end_prev: 04/11/17, 16:34:43</text>
</g>
<!-- SURFING
vrml&#45;multi&#45;use&#45;&gt;DATA DELIVERY
vrml&#45;multi&#45;use | ID: 416 -->
<g id="edge18" class="edge">
<title>SURFING
vrml&#45;multi&#45;use&#45;&gt;DATA DELIVERY
vrml&#45;multi&#45;use | ID: 416</title>
<path fill="none" stroke="blue" stroke-width="5" d="M853.87,-598.19C915.53,-604.77 982.23,-617.13 1001.44,-640.26 1020.19,-662.83 1019.89,-683.46 1001.44,-706.26 989.43,-721.12 958.14,-732.21 921.18,-740.41"/>
<polygon fill="blue" stroke="blue" stroke-width="5" points="920.02,-736.19 911.15,-742.55 921.84,-744.75 920.02,-736.19"/>
<text text-anchor="middle" x="1145.94" y="-690.26" font-family="Arial" font-size="20.00" fill="blue">start_next: 04/11/17, 18:07:08</text>
<text text-anchor="middle" x="1145.94" y="-668.26" font-family="Arial" font-size="20.00" fill="blue">gap: 1sec</text>
<text text-anchor="middle" x="1145.94" y="-646.26" font-family="Arial" font-size="20.00" fill="blue">end_prev: 04/11/17, 18:07:07</text>
</g>
<!-- DATA EXFILTRATION
vrml&#45;multi&#45;use | ID: 76 -->
<g id="node8" class="node">
<title>DATA EXFILTRATION
vrml&#45;multi&#45;use | ID: 76</title>
<g id="a_node8"><a xlink:title="ET WEB_SPECIFIC_APPS PHP&#45;CGI query string parameter vulnerability">
<polygon fill="none" stroke="black" stroke-width="3" points="1197.09,-943.23 1093.77,-992.21 887.12,-992.21 783.79,-943.23 887.12,-894.25 1093.77,-894.25 1197.09,-943.23"/>
<text text-anchor="middle" x="990.44" y="-950.03" font-family="Arial" font-size="24.00">DATA EXFILTRATION</text>
<text text-anchor="middle" x="990.44" y="-924.03" font-family="Arial" font-size="24.00">vrml&#45;multi&#45;use | ID: 76</text>
</a>
</g>
</g>
<!-- DATA DELIVERY
vrml&#45;multi&#45;use | ID: 416&#45;&gt;DATA EXFILTRATION
vrml&#45;multi&#45;use | ID: 76 -->
<g id="edge6" class="edge">
<title>DATA DELIVERY
vrml&#45;multi&#45;use | ID: 416&#45;&gt;DATA EXFILTRATION
vrml&#45;multi&#45;use | ID: 76</title>
<path fill="none" stroke="blue" stroke-width="5" d="M565.96,-783.13C522.89,-791.53 485.08,-803.46 471.44,-820.24 452.94,-843.01 451.05,-865.15 471.44,-886.24 480.6,-895.72 695.34,-892.91 708.44,-894.24 749.86,-898.45 794.4,-905.05 835.57,-912.02"/>
<polygon fill="blue" stroke="blue" stroke-width="5" points="835.08,-916.37 845.68,-913.75 836.56,-907.75 835.08,-916.37"/>
<text text-anchor="middle" x="602.44" y="-870.24" font-family="Arial" font-size="20.00" fill="blue">start_next: 04/11/17, 14:11:35</text>
<text text-anchor="middle" x="602.44" y="-848.24" font-family="Arial" font-size="20.00" fill="blue">gap: &#45;1sec</text>
<text text-anchor="middle" x="602.44" y="-826.24" font-family="Arial" font-size="20.00" fill="blue">end_prev: 04/11/17, 14:11:36</text>
</g>
<!-- DATA DELIVERY
vrml&#45;multi&#45;use | ID: 416&#45;&gt;DATA EXFILTRATION
vrml&#45;multi&#45;use | ID: 76 -->
<g id="edge13" class="edge">
<title>DATA DELIVERY
vrml&#45;multi&#45;use | ID: 416&#45;&gt;DATA EXFILTRATION
vrml&#45;multi&#45;use | ID: 76</title>
<path fill="none" stroke="blue" stroke-width="5" d="M736.06,-812.25C735.06,-841.46 736.18,-875.19 745.44,-886.24 756.94,-899.96 786.23,-910.63 820.72,-918.81"/>
<polygon fill="blue" stroke="blue" stroke-width="5" points="819.86,-923.1 830.58,-921.05 821.8,-914.57 819.86,-923.1"/>
<text text-anchor="middle" x="876.94" y="-870.24" font-family="Arial" font-size="20.00" fill="blue">start_next: 04/11/17, 16:34:48</text>
<text text-anchor="middle" x="876.94" y="-848.24" font-family="Arial" font-size="20.00" fill="blue">gap: &#45;1sec</text>
<text text-anchor="middle" x="876.94" y="-826.24" font-family="Arial" font-size="20.00" fill="blue">end_prev: 04/11/17, 16:34:49</text>
</g>
<!-- DATA DELIVERY
vrml&#45;multi&#45;use | ID: 416&#45;&gt;DATA EXFILTRATION
vrml&#45;multi&#45;use | ID: 76 -->
<g id="edge19" class="edge">
<title>DATA DELIVERY
vrml&#45;multi&#45;use | ID: 416&#45;&gt;DATA EXFILTRATION
vrml&#45;multi&#45;use | ID: 76</title>
<path fill="none" stroke="blue" stroke-width="5" d="M912.35,-783.41C954.8,-791.81 991.99,-803.66 1005.44,-820.24 1019.85,-838 1019.57,-862.26 1014.37,-884.47"/>
<polygon fill="blue" stroke="blue" stroke-width="5" points="1010.13,-883.38 1011.77,-894.17 1018.59,-885.64 1010.13,-883.38"/>
<text text-anchor="middle" x="1148.94" y="-870.24" font-family="Arial" font-size="20.00" fill="blue">start_next: 04/11/17, 18:07:15</text>
<text text-anchor="middle" x="1148.94" y="-848.24" font-family="Arial" font-size="20.00" fill="blue">gap: &#45;1sec</text>
<text text-anchor="middle" x="1148.94" y="-826.24" font-family="Arial" font-size="20.00" fill="blue">end_prev: 04/11/17, 18:07:16</text>
</g>
<!-- DATA EXFILTRATION
vrml&#45;multi&#45;use | ID: 76&#45;&gt;VULNERABILTY DISCOVERY
ms&#45;sql&#45;s -->
<g id="edge14" class="edge">
<title>DATA EXFILTRATION
vrml&#45;multi&#45;use | ID: 76&#45;&gt;VULNERABILTY DISCOVERY
ms&#45;sql&#45;s</title>
<path fill="none" stroke="blue" stroke-width="5" d="M1162.78,-926.87C1215.57,-918.48 1264.29,-905.67 1281.44,-886.24 1317.4,-845.51 1289.44,-818.59 1289.44,-764.25 1289.44,-222.28 1289.44,-222.28 1289.44,-222.28 1289.44,-125.34 1031.69,-80.11 830.81,-59.58"/>
<polygon fill="blue" stroke="blue" stroke-width="5" points="831.07,-55.21 820.68,-58.56 830.19,-63.91 831.07,-55.21"/>
<text text-anchor="middle" x="1420.94" y="-516.41" font-family="Arial" font-size="20.00" fill="blue">start_next: 04/11/17, 18:03:03</text>
<text text-anchor="middle" x="1420.94" y="-494.41" font-family="Arial" font-size="20.00" fill="blue">gap: 5294sec</text>
<text text-anchor="middle" x="1420.94" y="-472.41" font-family="Arial" font-size="20.00" fill="blue">end_prev: 04/11/17, 16:34:50</text>
</g>
<!-- VULNERABILTY DISCOVERY
postgresql -->
<g id="node9" class="node">
<title>VULNERABILTY DISCOVERY
postgresql</title>
<g id="a_node9"><a xlink:title="ET POLICY Suspicious inbound to mySQL port 3306&#10;ET POLICY Suspicious inbound to mSQL port 4333&#10;ET POLICY Suspicious inbound to MSSQL port 1433&#10;ET POLICY Suspicious inbound to Oracle SQL port 1521&#10;ET POLICY Suspicious inbound to PostgreSQL port 5432">
<ellipse fill="none" stroke="black" stroke-width="3" cx="696.44" cy="-1116.65" rx="241.25" ry="42.35"/>
<text text-anchor="middle" x="696.44" y="-1123.45" font-family="Arial" font-size="24.00">VULNERABILTY DISCOVERY</text>
<text text-anchor="middle" x="696.44" y="-1097.45" font-family="Arial" font-size="24.00">postgresql</text>
</a>
</g>
</g>
<!-- DATA EXFILTRATION
vrml&#45;multi&#45;use | ID: 76&#45;&gt;VULNERABILTY DISCOVERY
postgresql -->
<g id="edge7" class="edge">
<title>DATA EXFILTRATION
vrml&#45;multi&#45;use | ID: 76&#45;&gt;VULNERABILTY DISCOVERY
postgresql</title>
<path fill="none" stroke="blue" stroke-width="5" d="M838.85,-969.41C816.75,-977.09 795.17,-987.13 776.44,-1000.22 752.98,-1016.63 734.21,-1042.27 720.77,-1065.22"/>
<polygon fill="blue" stroke="blue" stroke-width="5" points="716.81,-1063.33 715.7,-1074.19 724.43,-1067.64 716.81,-1063.33"/>
<text text-anchor="middle" x="907.94" y="-1050.22" font-family="Arial" font-size="20.00" fill="blue">start_next: 04/11/17, 16:31:19</text>
<text text-anchor="middle" x="907.94" y="-1028.22" font-family="Arial" font-size="20.00" fill="blue">gap: 8383sec</text>
<text text-anchor="middle" x="907.94" y="-1006.22" font-family="Arial" font-size="20.00" fill="blue">end_prev: 04/11/17, 14:11:36</text>
</g>
<!-- SERVICE DISCOVERY
epmap -->
<g id="node13" class="node">
<title>SERVICE DISCOVERY
epmap</title>
<g id="a_node13"><a xlink:title="ET SCAN Behavioral Unusual Port 135 traffic Potential Scan or Infection">
<ellipse fill="none" stroke="black" stroke-width="3" cx="1134.44" cy="-1116.65" rx="189.51" ry="42.35"/>
<text text-anchor="middle" x="1134.44" y="-1123.45" font-family="Arial" font-size="24.00">SERVICE DISCOVERY</text>
<text text-anchor="middle" x="1134.44" y="-1097.45" font-family="Arial" font-size="24.00">epmap</text>
</a>
</g>
</g>
<!-- DATA EXFILTRATION
vrml&#45;multi&#45;use | ID: 76&#45;&gt;SERVICE DISCOVERY
epmap -->
<g id="edge20" class="edge">
<title>DATA EXFILTRATION
vrml&#45;multi&#45;use | ID: 76&#45;&gt;SERVICE DISCOVERY
epmap</title>
<path fill="none" stroke="blue" stroke-width="5" d="M1030.94,-992.44C1050.52,-1015.75 1073.97,-1043.67 1093.6,-1067.03"/>
<polygon fill="blue" stroke="blue" stroke-width="5" points="1090.32,-1069.92 1100.1,-1074.77 1097.02,-1064.3 1090.32,-1069.92"/>
<text text-anchor="middle" x="1222.94" y="-1050.22" font-family="Arial" font-size="20.00" fill="blue">start_next: 04/11/17, 18:57:18</text>
<text text-anchor="middle" x="1222.94" y="-1028.22" font-family="Arial" font-size="20.00" fill="blue">gap: 3002sec</text>
<text text-anchor="middle" x="1222.94" y="-1006.22" font-family="Arial" font-size="20.00" fill="blue">end_prev: 04/11/17, 18:07:16</text>
</g>
<!-- SERVICE DISCOVERY
unknown -->
<g id="node10" class="node">
<title>SERVICE DISCOVERY
unknown</title>
<g id="a_node10"><a xlink:title="ET SCAN Behavioral Unusual Port 135 traffic Potential Scan or Infection&#10;ET SCAN Potential VNC Scan 5800&#45;5820&#10;ET SCAN Behavioral Unusual Port 445 traffic Potential Scan or Infection">
<ellipse fill="none" stroke="black" stroke-width="3" cx="670.44" cy="-1283.5" rx="189.51" ry="42.35"/>
<text text-anchor="middle" x="670.44" y="-1290.3" font-family="Arial" font-size="24.00">SERVICE DISCOVERY</text>
<text text-anchor="middle" x="670.44" y="-1264.3" font-family="Arial" font-size="24.00">unknown</text>
</a>
</g>
</g>
<!-- VULNERABILTY DISCOVERY
postgresql&#45;&gt;SERVICE DISCOVERY
unknown -->
<g id="edge8" class="edge">
<title>VULNERABILTY DISCOVERY
postgresql&#45;&gt;SERVICE DISCOVERY
unknown</title>
<path fill="none" stroke="blue" stroke-width="5" d="M689.88,-1159.25C686.45,-1181.02 682.21,-1207.87 678.57,-1230.95"/>
<polygon fill="blue" stroke="blue" stroke-width="5" points="674.24,-1230.36 677,-1240.92 682.88,-1231.72 674.24,-1230.36"/>
<text text-anchor="middle" x="818.94" y="-1217.08" font-family="Arial" font-size="20.00" fill="blue">start_next: 04/11/17, 16:31:31</text>
<text text-anchor="middle" x="818.94" y="-1195.08" font-family="Arial" font-size="20.00" fill="blue">gap: &#45;35sec</text>
<text text-anchor="middle" x="818.94" y="-1173.08" font-family="Arial" font-size="20.00" fill="blue">end_prev: 04/11/17, 16:32:06</text>
</g>
<!-- ARBITRARY CODE EXECUTION
ssdp | ID: 355 -->
<g id="node11" class="node">
<title>ARBITRARY CODE EXECUTION
ssdp | ID: 355</title>
<g id="a_node11"><a xlink:title="GPL MISC UPnP malformed advertisement">
<polygon fill="none" stroke="black" stroke-width="3" points="673.94,-1467.93 298.94,-1467.93 298.94,-1407.93 673.94,-1407.93 673.94,-1467.93"/>
<text text-anchor="middle" x="486.44" y="-1444.73" font-family="Arial" font-size="24.00">ARBITRARY CODE EXECUTION</text>
<text text-anchor="middle" x="486.44" y="-1418.73" font-family="Arial" font-size="24.00">ssdp | ID: 355</text>
</a>
</g>
</g>
<!-- SERVICE DISCOVERY
unknown&#45;&gt;ARBITRARY CODE EXECUTION
ssdp | ID: 355 -->
<g id="edge9" class="edge">
<title>SERVICE DISCOVERY
unknown&#45;&gt;ARBITRARY CODE EXECUTION
ssdp | ID: 355</title>
<path fill="none" stroke="blue" stroke-width="5" d="M622.1,-1324.55C593.41,-1348.31 557.36,-1378.18 529.63,-1401.15"/>
<polygon fill="blue" stroke="blue" stroke-width="5" points="526.58,-1397.99 521.67,-1407.74 532.17,-1404.73 526.58,-1397.99"/>
<text text-anchor="middle" x="736.94" y="-1383.93" font-family="Arial" font-size="20.00" fill="blue">start_next: 04/11/17, 16:32:58</text>
<text text-anchor="middle" x="736.94" y="-1361.93" font-family="Arial" font-size="20.00" fill="blue">gap: 52sec</text>
<text text-anchor="middle" x="736.94" y="-1339.93" font-family="Arial" font-size="20.00" fill="blue">end_prev: 04/11/17, 16:32:07</text>
</g>
<!-- ARBITRARY CODE EXECUTION
ssdp | ID: 355&#45;&gt;INFO DISCOVERY
xdmcp -->
<g id="edge10" class="edge">
<title>ARBITRARY CODE EXECUTION
ssdp | ID: 355&#45;&gt;INFO DISCOVERY
xdmcp</title>
<path fill="none" stroke="blue" stroke-width="5" d="M473.38,-1407.79C461.05,-1377.59 444.44,-1328.7 444.44,-1284.5 444.44,-588.84 444.44,-588.84 444.44,-588.84 444.44,-531.21 417.47,-505.22 452.44,-459.41 457.38,-452.95 463.2,-447.32 469.64,-442.42"/>
<polygon fill="blue" stroke="blue" stroke-width="5" points="472.33,-445.88 478.09,-436.61 467.37,-438.67 472.33,-445.88"/>
<text text-anchor="middle" x="575.94" y="-960.23" font-family="Arial" font-size="20.00" fill="blue">start_next: 04/11/17, 16:33:30</text>
<text text-anchor="middle" x="575.94" y="-938.23" font-family="Arial" font-size="20.00" fill="blue">gap: 21sec</text>
<text text-anchor="middle" x="575.94" y="-916.23" font-family="Arial" font-size="20.00" fill="blue">end_prev: 04/11/17, 16:33:08</text>
</g>
<!-- SERVICE DISCOVERY
rpas&#45;c2&#45;&gt;INFO DISCOVERY
xdmcp -->
<g id="edge16" class="edge">
<title>SERVICE DISCOVERY
rpas&#45;c2&#45;&gt;INFO DISCOVERY
xdmcp</title>
<path fill="none" stroke="blue" stroke-width="5" d="M597.44,-265.96C597.44,-292.74 597.44,-327.72 597.44,-356.27"/>
<polygon fill="blue" stroke="blue" stroke-width="5" points="593.07,-356.46 597.44,-366.46 601.82,-356.46 593.07,-356.46"/>
<text text-anchor="middle" x="728.94" y="-333.13" font-family="Arial" font-size="20.00" fill="blue">start_next: 04/11/17, 18:05:40</text>
<text text-anchor="middle" x="728.94" y="-311.13" font-family="Arial" font-size="20.00" fill="blue">gap: 121sec</text>
<text text-anchor="middle" x="728.94" y="-289.13" font-family="Arial" font-size="20.00" fill="blue">end_prev: 04/11/17, 18:03:39</text>
</g>
<!-- VULNERABILTY DISCOVERY
ncube&#45;lm -->
<g id="node14" class="node">
<title>VULNERABILTY DISCOVERY
ncube&#45;lm</title>
<g id="a_node14"><a xlink:title="ET POLICY Suspicious inbound to mySQL port 3306&#10;ET POLICY Suspicious inbound to mSQL port 4333&#10;ET POLICY Suspicious inbound to MSSQL port 1433&#10;ET POLICY Suspicious inbound to Oracle SQL port 1521&#10;ET POLICY Suspicious inbound to PostgreSQL port 5432">
<ellipse fill="none" stroke="black" stroke-width="3" cx="1121.44" cy="-1283.5" rx="241.25" ry="42.35"/>
<text text-anchor="middle" x="1121.44" y="-1290.3" font-family="Arial" font-size="24.00">VULNERABILTY DISCOVERY</text>
<text text-anchor="middle" x="1121.44" y="-1264.3" font-family="Arial" font-size="24.00">ncube&#45;lm</text>
</a>
</g>
</g>
<!-- SERVICE DISCOVERY
epmap&#45;&gt;VULNERABILTY DISCOVERY
ncube&#45;lm -->
<g id="edge21" class="edge">
<title>SERVICE DISCOVERY
epmap&#45;&gt;VULNERABILTY DISCOVERY
ncube&#45;lm</title>
<path fill="none" stroke="blue" stroke-width="5" d="M1131.16,-1159.25C1129.45,-1180.92 1127.35,-1207.63 1125.53,-1230.64"/>
<polygon fill="blue" stroke="blue" stroke-width="5" points="1121.15,-1230.6 1124.72,-1240.92 1129.87,-1231.29 1121.15,-1230.6"/>
<text text-anchor="middle" x="1260.94" y="-1217.08" font-family="Arial" font-size="20.00" fill="blue">start_next: 04/11/17, 18:58:00</text>
<text text-anchor="middle" x="1260.94" y="-1195.08" font-family="Arial" font-size="20.00" fill="blue">gap: 43sec</text>
<text text-anchor="middle" x="1260.94" y="-1173.08" font-family="Arial" font-size="20.00" fill="blue">end_prev: 04/11/17, 18:57:18</text>
</g>
<!-- BRUTE FORCE CREDENTIALS
pop3 | ID: 382 -->
<g id="node15" class="node">
<title>BRUTE FORCE CREDENTIALS
pop3 | ID: 382</title>
<g id="a_node15"><a xlink:title="ET SCAN Rapid POP3 Connections &#45; Possible Brute Force Attack">
<polygon fill="none" stroke="black" stroke-width="3" points="1126.44,-1467.93 764.44,-1467.93 764.44,-1407.93 1126.44,-1407.93 1126.44,-1467.93"/>
<text text-anchor="middle" x="945.44" y="-1444.73" font-family="Arial" font-size="24.00">BRUTE FORCE CREDENTIALS</text>
<text text-anchor="middle" x="945.44" y="-1418.73" font-family="Arial" font-size="24.00">pop3 | ID: 382</text>
</a>
</g>
</g>
<!-- VULNERABILTY DISCOVERY
ncube&#45;lm&#45;&gt;BRUTE FORCE CREDENTIALS
pop3 | ID: 382 -->
<g id="edge22" class="edge">
<title>VULNERABILTY DISCOVERY
ncube&#45;lm&#45;&gt;BRUTE FORCE CREDENTIALS
pop3 | ID: 382</title>
<path fill="none" stroke="blue" stroke-width="5" d="M1074.28,-1325.35C1047.06,-1348.93 1013.14,-1378.3 986.93,-1400.99"/>
<polygon fill="blue" stroke="blue" stroke-width="5" points="983.76,-1397.95 979.07,-1407.81 989.49,-1404.57 983.76,-1397.95"/>
<text text-anchor="middle" x="1190.94" y="-1383.93" font-family="Arial" font-size="20.00" fill="blue">start_next: 04/11/17, 18:58:15</text>
<text text-anchor="middle" x="1190.94" y="-1361.93" font-family="Arial" font-size="20.00" fill="blue">gap: &#45;17sec</text>
<text text-anchor="middle" x="1190.94" y="-1339.93" font-family="Arial" font-size="20.00" fill="blue">end_prev: 04/11/17, 18:58:32</text>
</g>
<!-- BRUTE FORCE CREDENTIALS
pop3 | ID: 382&#45;&gt;NETWORK DoS
ssdp | ID: 55 -->
<g id="edge23" class="edge">
<title>BRUTE FORCE CREDENTIALS
pop3 | ID: 382&#45;&gt;NETWORK DoS
ssdp | ID: 55</title>
<path fill="none" stroke="blue" stroke-width="5" d="M804.66,-1468C660.99,-1497.66 440.05,-1543.28 301.83,-1571.82"/>
<polygon fill="blue" stroke="blue" stroke-width="5" points="300.93,-1567.54 292.02,-1573.85 302.7,-1576.11 300.93,-1567.54"/>
<text text-anchor="middle" x="889.94" y="-1525.93" font-family="Arial" font-size="20.00" fill="blue">start_next: 04/11/17, 18:59:10</text>
<text text-anchor="middle" x="889.94" y="-1503.93" font-family="Arial" font-size="20.00" fill="blue">gap: 55sec</text>
<text text-anchor="middle" x="889.94" y="-1481.93" font-family="Arial" font-size="20.00" fill="blue">end_prev: 04/11/17, 18:58:15</text>
</g>
</g>
</svg>
