<?xml version="1.0" encoding="UTF-8" standalone="no"?>
<!DOCTYPE svg PUBLIC "-//W3C//DTD SVG 1.1//EN"
 "http://www.w3.org/Graphics/SVG/1.1/DTD/svg11.dtd">
<!-- Generated by graphviz version 2.50.0 (0)
 -->
<!-- Title: DATADELIVERYhttp Pages: 1 -->
<svg width="2071pt" height="989pt"
 viewBox="0.00 0.00 2071.27 989.14" xmlns="http://www.w3.org/2000/svg" xmlns:xlink="http://www.w3.org/1999/xlink">
<g id="graph0" class="graph" transform="scale(1 1) rotate(0) translate(4 985.14)">
<title>DATADELIVERYhttp</title>
<polygon fill="white" stroke="transparent" points="-4,4 -4,-985.14 2067.27,-985.14 2067.27,4 -4,4"/>
<!-- Victim: 10.0.99.225
DATA DELIVERY
http -->
<g id="node1" class="node">
<title>Victim: 10.0.99.225
DATA DELIVERY
http</title>
<polygon fill="salmon" stroke="black" stroke-width="3" points="764.66,-884.12 764.66,-938.51 664.26,-976.97 522.28,-976.97 421.88,-938.51 421.88,-884.12 522.28,-845.67 664.26,-845.67 764.66,-884.12"/>
<polygon fill="none" stroke="black" stroke-width="3" points="768.65,-881.38 768.65,-941.26 665,-980.96 521.54,-980.96 417.89,-941.26 417.89,-881.38 521.54,-841.68 665,-841.68 768.65,-881.38"/>
<text text-anchor="middle" x="593.27" y="-931.12" font-family="Arial" font-size="24.00">Victim: 10.0.99.225</text>
<text text-anchor="middle" x="593.27" y="-905.12" font-family="Arial" font-size="24.00">DATA DELIVERY</text>
<text text-anchor="middle" x="593.27" y="-879.12" font-family="Arial" font-size="24.00">http</text>
</g>
<!-- DATA DELIVERY
http | ID: 21 -->
<g id="node2" class="node">
<title>DATA DELIVERY
http | ID: 21</title>
<g id="a_node2"><a xlink:title="GPL WEB_SERVER perl post attempt">
<polygon fill="salmon" stroke="black" stroke-width="3" points="590.37,-775.51 508.82,-824.49 345.72,-824.49 264.17,-775.51 345.72,-726.53 508.82,-726.53 590.37,-775.51"/>
<text text-anchor="middle" x="427.27" y="-782.31" font-family="Arial" font-size="24.00">DATA DELIVERY</text>
<text text-anchor="middle" x="427.27" y="-756.31" font-family="Arial" font-size="24.00">http | ID: 21</text>
</a>
</g>
</g>
<!-- DATA DELIVERY
http | ID: 21&#45;&gt;Victim: 10.0.99.225
DATA DELIVERY
http -->
<g id="edge1" class="edge">
<title>DATA DELIVERY
http | ID: 21&#45;&gt;Victim: 10.0.99.225
DATA DELIVERY
http</title>
<path fill="none" stroke="black" stroke-width="5" d="M487.2,-824.82C492.82,-829.35 498.59,-834 504.4,-838.68"/>
<polygon fill="black" stroke="black" stroke-width="5" points="501.81,-842.21 512.34,-845.08 507.3,-835.4 501.81,-842.21"/>
</g>
<!-- DATA DELIVERY
http | ID: 246 -->
<g id="node3" class="node">
<title>DATA DELIVERY
http | ID: 246</title>
<g id="a_node3"><a xlink:title="GPL WEB_SERVER perl post attempt">
<polygon fill="salmon" stroke="black" stroke-width="3" points="924.37,-775.51 842.82,-824.49 679.72,-824.49 598.17,-775.51 679.72,-726.53 842.82,-726.53 924.37,-775.51"/>
<text text-anchor="middle" x="761.27" y="-782.31" font-family="Arial" font-size="24.00">DATA DELIVERY</text>
<text text-anchor="middle" x="761.27" y="-756.31" font-family="Arial" font-size="24.00">http | ID: 246</text>
</a>
</g>
</g>
<!-- DATA DELIVERY
http | ID: 246&#45;&gt;Victim: 10.0.99.225
DATA DELIVERY
http -->
<g id="edge2" class="edge">
<title>DATA DELIVERY
http | ID: 246&#45;&gt;Victim: 10.0.99.225
DATA DELIVERY
http</title>
<path fill="none" stroke="black" stroke-width="5" d="M700.62,-824.82C694.87,-829.4 688.96,-834.1 683.01,-838.84"/>
<polygon fill="black" stroke="black" stroke-width="5" points="679.98,-835.66 674.89,-845.31 685.43,-842.5 679.98,-835.66"/>
</g>
<!-- VULNERABILTY DISCOVERY
ms&#45;sql&#45;s -->
<g id="node4" class="node">
<title>VULNERABILTY DISCOVERY
ms&#45;sql&#45;s</title>
<g id="a_node4"><a xlink:title="ET POLICY Suspicious inbound to mySQL port 3306&#10;ET POLICY Suspicious inbound to mSQL port 4333&#10;ET POLICY Suspicious inbound to MSSQL port 1433&#10;ET POLICY Suspicious inbound to Oracle SQL port 1521&#10;ET POLICY Suspicious inbound to PostgreSQL port 5432">
<ellipse fill="yellow" stroke="black" stroke-width="3" cx="419.27" cy="-236.41" rx="241.25" ry="42.35"/>
<text text-anchor="middle" x="419.27" y="-243.21" font-family="Arial" font-size="24.00">VULNERABILTY DISCOVERY</text>
<text text-anchor="middle" x="419.27" y="-217.21" font-family="Arial" font-size="24.00">ms&#45;sql&#45;s</text>
</a>
</g>
</g>
<!-- SERVICE DISCOVERY
unknown -->
<g id="node5" class="node">
<title>SERVICE DISCOVERY
unknown</title>
<g id="a_node5"><a xlink:title="ET SCAN Potential VNC Scan 5800&#45;5820&#10;ET SCAN Potential SSH Scan&#10;ET SCAN Potential VNC Scan 5900&#45;5920">
<ellipse fill="none" stroke="black" stroke-width="3" cx="563.27" cy="-422.11" rx="189.51" ry="42.35"/>
<text text-anchor="middle" x="563.27" y="-428.91" font-family="Arial" font-size="24.00">SERVICE DISCOVERY</text>
<text text-anchor="middle" x="563.27" y="-402.91" font-family="Arial" font-size="24.00">unknown</text>
</a>
</g>
</g>
<!-- VULNERABILTY DISCOVERY
ms&#45;sql&#45;s&#45;&gt;SERVICE DISCOVERY
unknown -->
<g id="edge3" class="edge">
<title>VULNERABILTY DISCOVERY
ms&#45;sql&#45;s&#45;&gt;SERVICE DISCOVERY
unknown</title>
<path fill="none" stroke="blue" stroke-width="5" d="M409.13,-278.89C404.63,-307.63 404.02,-345.31 423.27,-371.69 426.25,-375.76 429.59,-379.51 433.22,-382.95"/>
<polygon fill="blue" stroke="blue" stroke-width="5" points="430.61,-386.46 441.07,-389.58 436.26,-379.78 430.61,-386.46"/>
<text text-anchor="start" x="423.27" y="-354.26" font-family="Arial" font-size="20.00" fill="blue"> start_next: 04/11/17, 14:08:51</text>
<text text-anchor="start" x="504.77" y="-334.26" font-family="Arial" font-size="20.00" fill="blue">gap: &#45;31sec</text>
<text text-anchor="start" x="427.27" y="-314.26" font-family="Arial" font-size="20.00" fill="blue">end_prev: 04/11/17, 14:09:22</text>
<text text-anchor="start" x="457.77" y="-294.26" font-family="Arial" font-weight="bold" font-size="20.00" fill="blue">Attacker: 10.0.254.31</text>
</g>
<!-- ARBITRARY CODE EXECUTION
ssdp | ID: 355 -->
<g id="node6" class="node">
<title>ARBITRARY CODE EXECUTION
ssdp | ID: 355</title>
<g id="a_node6"><a xlink:title="GPL MISC UPnP malformed advertisement">
<polygon fill="none" stroke="black" stroke-width="3" points="1298.77,-625.53 923.77,-625.53 923.77,-565.53 1298.77,-565.53 1298.77,-625.53"/>
<text text-anchor="middle" x="1111.27" y="-602.33" font-family="Arial" font-size="24.00">ARBITRARY CODE EXECUTION</text>
<text text-anchor="middle" x="1111.27" y="-576.33" font-family="Arial" font-size="24.00">ssdp | ID: 355</text>
</a>
</g>
</g>
<!-- SERVICE DISCOVERY
unknown&#45;&gt;ARBITRARY CODE EXECUTION
ssdp | ID: 355 -->
<g id="edge4" class="edge">
<title>SERVICE DISCOVERY
unknown&#45;&gt;ARBITRARY CODE EXECUTION
ssdp | ID: 355</title>
<path fill="none" stroke="blue" stroke-width="5" d="M673.73,-456.75C680.19,-461.36 686.13,-466.59 691.27,-472.54 710.94,-495.29 684.1,-518.2 706.27,-538.54 737.31,-567.01 826.6,-581.12 913.48,-588.06"/>
<polygon fill="blue" stroke="blue" stroke-width="5" points="913.2,-592.43 923.51,-588.83 913.87,-583.7 913.2,-592.43"/>
<text text-anchor="middle" x="837.77" y="-522.54" font-family="Arial" font-size="20.00" fill="blue">start_next: 04/11/17, 14:10:13</text>
<text text-anchor="middle" x="837.77" y="-500.54" font-family="Arial" font-size="20.00" fill="blue">gap: &#45;44sec</text>
<text text-anchor="middle" x="837.77" y="-478.54" font-family="Arial" font-size="20.00" fill="blue">end_prev: 04/11/17, 14:10:57</text>
</g>
<!-- NETWORK DoS
ssdp | ID: 231 -->
<g id="node12" class="node">
<title>NETWORK DoS
ssdp | ID: 231</title>
<g id="a_node12"><a xlink:title="ET DOS Possible SSDP Amplification Scan in Progress">
<polygon fill="none" stroke="black" stroke-width="3" points="583.81,-595.53 505.54,-644.51 349,-644.51 270.74,-595.53 349,-546.55 505.54,-546.55 583.81,-595.53"/>
<text text-anchor="middle" x="427.27" y="-602.33" font-family="Arial" font-size="24.00">NETWORK DoS</text>
<text text-anchor="middle" x="427.27" y="-576.33" font-family="Arial" font-size="24.00">ssdp | ID: 231</text>
</a>
</g>
</g>
<!-- SERVICE DISCOVERY
unknown&#45;&gt;NETWORK DoS
ssdp | ID: 231 -->
<g id="edge14" class="edge">
<title>SERVICE DISCOVERY
unknown&#45;&gt;NETWORK DoS
ssdp | ID: 231</title>
<path fill="none" stroke="blue" stroke-width="5" d="M447.43,-455.8C441.32,-460.63 435.84,-466.18 431.27,-472.54 423.91,-482.8 422.53,-509.94 423.17,-536.03"/>
<polygon fill="blue" stroke="blue" stroke-width="5" points="418.8,-536.47 423.52,-546.32 427.55,-536.18 418.8,-536.47"/>
<text text-anchor="middle" x="562.77" y="-522.54" font-family="Arial" font-size="20.00" fill="blue">start_next: 04/11/17, 21:02:41</text>
<text text-anchor="middle" x="562.77" y="-500.54" font-family="Arial" font-size="20.00" fill="blue">gap: 23sec</text>
<text text-anchor="middle" x="562.77" y="-478.54" font-family="Arial" font-size="20.00" fill="blue">end_prev: 04/11/17, 21:02:18</text>
</g>
<!-- INFO DISCOVERY
xdmcp -->
<g id="node7" class="node">
<title>INFO DISCOVERY
xdmcp</title>
<g id="a_node7"><a xlink:title="GPL WEB_SERVER mod_gzip_status access&#10;GPL RPC xdmcp info query">
<ellipse fill="none" stroke="black" stroke-width="3" cx="1109.27" cy="-236.41" rx="156.04" ry="42.35"/>
<text text-anchor="middle" x="1109.27" y="-243.21" font-family="Arial" font-size="24.00">INFO DISCOVERY</text>
<text text-anchor="middle" x="1109.27" y="-217.21" font-family="Arial" font-size="24.00">xdmcp</text>
</a>
</g>
</g>
<!-- ARBITRARY CODE EXECUTION
ssdp | ID: 355&#45;&gt;INFO DISCOVERY
xdmcp -->
<g id="edge5" class="edge">
<title>ARBITRARY CODE EXECUTION
ssdp | ID: 355&#45;&gt;INFO DISCOVERY
xdmcp</title>
<path fill="none" stroke="blue" stroke-width="5" d="M1152.42,-565.35C1181.68,-541.9 1218.63,-506.09 1235.27,-464.54 1249.29,-429.53 1248.64,-414.95 1235.27,-379.69 1221.21,-342.6 1192.58,-308.97 1166.15,-283.73"/>
<polygon fill="blue" stroke="blue" stroke-width="5" points="1169.07,-280.47 1158.77,-276.84 1163.1,-286.87 1169.07,-280.47"/>
<text text-anchor="middle" x="1376.77" y="-439.11" font-family="Arial" font-size="20.00" fill="blue">start_next: 04/11/17, 14:10:45</text>
<text text-anchor="middle" x="1376.77" y="-417.11" font-family="Arial" font-size="20.00" fill="blue">gap: 21sec</text>
<text text-anchor="middle" x="1376.77" y="-395.11" font-family="Arial" font-size="20.00" fill="blue">end_prev: 04/11/17, 14:10:23</text>
</g>
<!-- ARBITRARY CODE EXECUTION
ssdp | ID: 355&#45;&gt;INFO DISCOVERY
xdmcp -->
<g id="edge12" class="edge">
<title>ARBITRARY CODE EXECUTION
ssdp | ID: 355&#45;&gt;INFO DISCOVERY
xdmcp</title>
<path fill="none" stroke="blue" stroke-width="5" d="M1063.22,-565.35C1030.54,-542.48 989.96,-507.4 971.27,-464.54 956.2,-429.97 957.11,-414.64 971.27,-379.69 986.75,-341.48 1017.97,-307.88 1046.79,-282.93"/>
<polygon fill="blue" stroke="blue" stroke-width="5" points="1049.64,-286.25 1054.45,-276.46 1043.99,-279.57 1049.64,-286.25"/>
<text text-anchor="middle" x="1102.77" y="-439.11" font-family="Arial" font-size="20.00" fill="blue">start_next: 04/11/17, 20:58:50</text>
<text text-anchor="middle" x="1102.77" y="-417.11" font-family="Arial" font-size="20.00" fill="blue">gap: 6963sec</text>
<text text-anchor="middle" x="1102.77" y="-395.11" font-family="Arial" font-size="20.00" fill="blue">end_prev: 04/11/17, 19:02:47</text>
</g>
<!-- INFO DISCOVERY
xdmcp&#45;&gt;DATA DELIVERY
http | ID: 246 -->
<g id="edge6" class="edge">
<title>INFO DISCOVERY
xdmcp&#45;&gt;DATA DELIVERY
http | ID: 246</title>
<path fill="none" stroke="blue" stroke-width="5" d="M1258.66,-248.95C1347.19,-264.38 1452.8,-299.67 1509.27,-379.69 1531.01,-410.5 1524.91,-430.22 1509.27,-464.54 1409.78,-682.89 1110.41,-747.86 921.94,-766.92"/>
<polygon fill="blue" stroke="blue" stroke-width="5" points="921.46,-762.58 911.93,-767.9 922.31,-771.28 921.46,-762.58"/>
<text text-anchor="middle" x="1632.77" y="-522.54" font-family="Arial" font-size="20.00" fill="blue">start_next: 04/11/17, 14:12:05</text>
<text text-anchor="middle" x="1632.77" y="-500.54" font-family="Arial" font-size="20.00" fill="blue">gap: 2sec</text>
<text text-anchor="middle" x="1632.77" y="-478.54" font-family="Arial" font-size="20.00" fill="blue">end_prev: 04/11/17, 14:12:04</text>
</g>
<!-- INFO DISCOVERY
xdmcp&#45;&gt;SERVICE DISCOVERY
unknown -->
<g id="edge13" class="edge">
<title>INFO DISCOVERY
xdmcp&#45;&gt;SERVICE DISCOVERY
unknown</title>
<path fill="none" stroke="blue" stroke-width="5" d="M957.84,-247.17C850.39,-255.55 722,-269.08 703.27,-286.83 675.47,-313.17 712.49,-342.02 688.27,-371.69 685.65,-374.9 682.79,-377.9 679.73,-380.71"/>
<polygon fill="blue" stroke="blue" stroke-width="5" points="676.68,-377.56 671.77,-387.31 682.26,-384.3 676.68,-377.56"/>
<text text-anchor="middle" x="834.77" y="-346.26" font-family="Arial" font-size="20.00" fill="blue">start_next: 04/11/17, 21:01:21</text>
<text text-anchor="middle" x="834.77" y="-324.26" font-family="Arial" font-size="20.00" fill="blue">gap: &#45;184sec</text>
<text text-anchor="middle" x="834.77" y="-302.26" font-family="Arial" font-size="20.00" fill="blue">end_prev: 04/11/17, 21:04:25</text>
</g>
<!-- DATA EXFILTRATION
http | ID: 26 -->
<g id="node8" class="node">
<title>DATA EXFILTRATION
http | ID: 26</title>
<g id="a_node8"><a xlink:title="ET WEB_SPECIFIC_APPS PHP&#45;CGI query string parameter vulnerability">
<polygon fill="yellow" stroke="black" stroke-width="3" points="510.15,-48.99 407.71,-97.97 202.83,-97.97 100.39,-48.99 202.83,-0.01 407.71,-0.01 510.15,-48.99"/>
<text text-anchor="middle" x="305.27" y="-55.79" font-family="Arial" font-size="24.00">DATA EXFILTRATION</text>
<text text-anchor="middle" x="305.27" y="-29.79" font-family="Arial" font-size="24.00">http | ID: 26</text>
</a>
</g>
</g>
<!-- INFO DISCOVERY
http -->
<g id="node9" class="node">
<title>INFO DISCOVERY
http</title>
<g id="a_node9"><a xlink:title="GPL WEB_SERVER mod_gzip_status access">
<ellipse fill="none" stroke="black" stroke-width="3" cx="156.27" cy="-329.26" rx="156.04" ry="42.35"/>
<text text-anchor="middle" x="156.27" y="-336.06" font-family="Arial" font-size="24.00">INFO DISCOVERY</text>
<text text-anchor="middle" x="156.27" y="-310.06" font-family="Arial" font-size="24.00">http</text>
</a>
</g>
</g>
<!-- DATA EXFILTRATION
http | ID: 26&#45;&gt;INFO DISCOVERY
http -->
<g id="edge7" class="edge">
<title>DATA EXFILTRATION
http | ID: 26&#45;&gt;INFO DISCOVERY
http</title>
<path fill="none" stroke="blue" stroke-width="5" d="M247.46,-98.24C220.74,-123.84 191.24,-157.52 174.27,-193.98 162.31,-219.67 157.62,-250.93 156.01,-276.82"/>
<polygon fill="blue" stroke="blue" stroke-width="5" points="151.64,-276.62 155.52,-286.82 160.38,-277.05 151.64,-276.62"/>
<text text-anchor="start" x="239.27" y="-170.98" font-family="Arial" font-size="20.00" fill="blue"> start_next: 04/11/17, 18:04:44</text>
<text text-anchor="start" x="307.27" y="-150.98" font-family="Arial" font-size="20.00" fill="blue">gap: 13956sec</text>
<text text-anchor="start" x="243.27" y="-130.98" font-family="Arial" font-size="20.00" fill="blue">end_prev: 04/11/17, 14:12:08</text>
<text text-anchor="start" x="273.77" y="-110.98" font-family="Arial" font-weight="bold" font-size="20.00" fill="blue">Attacker: 10.0.254.31</text>
</g>
<!-- SERVICE DISCOVERY
ssh -->
<g id="node10" class="node">
<title>SERVICE DISCOVERY
ssh</title>
<g id="a_node10"><a xlink:title="ET SCAN Potential VNC Scan 5800&#45;5820&#10;ET SCAN Potential SSH Scan&#10;ET SCAN Potential VNC Scan 5900&#45;5920">
<ellipse fill="none" stroke="black" stroke-width="3" cx="1565.27" cy="-236.41" rx="189.51" ry="42.35"/>
<text text-anchor="middle" x="1565.27" y="-243.21" font-family="Arial" font-size="24.00">SERVICE DISCOVERY</text>
<text text-anchor="middle" x="1565.27" y="-217.21" font-family="Arial" font-size="24.00">ssh</text>
</a>
</g>
</g>
<!-- DATA EXFILTRATION
http | ID: 26&#45;&gt;SERVICE DISCOVERY
ssh -->
<g id="edge9" class="edge">
<title>DATA EXFILTRATION
http | ID: 26&#45;&gt;SERVICE DISCOVERY
ssh</title>
<path fill="none" stroke="blue" stroke-width="5" d="M460.4,-72.82C698.83,-107.9 1153.43,-174.8 1398.62,-210.88"/>
<polygon fill="blue" stroke="blue" stroke-width="5" points="1398.16,-215.24 1408.7,-212.37 1399.44,-206.58 1398.16,-215.24"/>
<text text-anchor="start" x="1227.27" y="-170.98" font-family="Arial" font-size="20.00" fill="blue"> start_next: 04/11/17, 18:56:34</text>
<text text-anchor="start" x="1300.77" y="-150.98" font-family="Arial" font-size="20.00" fill="blue">gap: 3104sec</text>
<text text-anchor="start" x="1231.27" y="-130.98" font-family="Arial" font-size="20.00" fill="blue">end_prev: 04/11/17, 18:04:50</text>
<text text-anchor="start" x="1261.77" y="-110.98" font-family="Arial" font-weight="bold" font-size="20.00" fill="blue">Attacker: 10.0.254.31</text>
</g>
<!-- INFO DISCOVERY
http&#45;&gt;DATA DELIVERY
http | ID: 246 -->
<g id="edge8" class="edge">
<title>INFO DISCOVERY
http&#45;&gt;DATA DELIVERY
http | ID: 246</title>
<path fill="none" stroke="blue" stroke-width="5" d="M147.62,-371.7C140.57,-415.16 135.14,-484.52 158.27,-538.54 184.86,-600.65 211.64,-606.17 267.27,-644.52 331.45,-688.75 350.59,-699.87 426.27,-718.52 498.85,-736.4 520.52,-714.34 594.27,-726.52 611.31,-729.33 629.09,-733.29 646.41,-737.74"/>
<polygon fill="blue" stroke="blue" stroke-width="5" points="645.77,-742.09 656.55,-740.41 648,-733.63 645.77,-742.09"/>
<text text-anchor="middle" x="289.77" y="-522.54" font-family="Arial" font-size="20.00" fill="blue">start_next: 04/11/17, 18:04:46</text>
<text text-anchor="middle" x="289.77" y="-500.54" font-family="Arial" font-size="20.00" fill="blue">gap: 2sec</text>
<text text-anchor="middle" x="289.77" y="-478.54" font-family="Arial" font-size="20.00" fill="blue">end_prev: 04/11/17, 18:04:44</text>
</g>
<!-- VULNERABILTY DISCOVERY
postgresql -->
<g id="node11" class="node">
<title>VULNERABILTY DISCOVERY
postgresql</title>
<g id="a_node11"><a xlink:title="ET POLICY Suspicious inbound to mySQL port 3306&#10;ET POLICY Suspicious inbound to mSQL port 4333&#10;ET POLICY Suspicious inbound to MSSQL port 1433&#10;ET POLICY Suspicious inbound to Oracle SQL port 1521&#10;ET SCAN Nessus User Agent&#10;ET POLICY Suspicious inbound to PostgreSQL port 5432">
<ellipse fill="none" stroke="black" stroke-width="3" cx="1786.27" cy="-422.11" rx="241.25" ry="42.35"/>
<text text-anchor="middle" x="1786.27" y="-428.91" font-family="Arial" font-size="24.00">VULNERABILTY DISCOVERY</text>
<text text-anchor="middle" x="1786.27" y="-402.91" font-family="Arial" font-size="24.00">postgresql</text>
</a>
</g>
</g>
<!-- SERVICE DISCOVERY
ssh&#45;&gt;VULNERABILTY DISCOVERY
postgresql -->
<g id="edge10" class="edge">
<title>SERVICE DISCOVERY
ssh&#45;&gt;VULNERABILTY DISCOVERY
postgresql</title>
<path fill="none" stroke="blue" stroke-width="5" d="M1613.5,-277.49C1647.62,-305.86 1693.51,-344 1729.42,-373.85"/>
<polygon fill="blue" stroke="blue" stroke-width="5" points="1726.9,-377.45 1737.38,-380.47 1732.49,-370.72 1726.9,-377.45"/>
<text text-anchor="middle" x="1851.77" y="-346.26" font-family="Arial" font-size="20.00" fill="blue">start_next: 04/11/17, 18:56:44</text>
<text text-anchor="middle" x="1851.77" y="-324.26" font-family="Arial" font-size="20.00" fill="blue">gap: &#45;454sec</text>
<text text-anchor="middle" x="1851.77" y="-302.26" font-family="Arial" font-size="20.00" fill="blue">end_prev: 04/11/17, 19:04:18</text>
</g>
<!-- VULNERABILTY DISCOVERY
postgresql&#45;&gt;ARBITRARY CODE EXECUTION
ssdp | ID: 355 -->
<g id="edge11" class="edge">
<title>VULNERABILTY DISCOVERY
postgresql&#45;&gt;ARBITRARY CODE EXECUTION
ssdp | ID: 355</title>
<path fill="none" stroke="blue" stroke-width="5" d="M1798.93,-464.7C1803.63,-489.22 1804.12,-519.15 1786.27,-538.54 1754.27,-573.31 1496.31,-586.49 1308.78,-591.48"/>
<polygon fill="blue" stroke="blue" stroke-width="5" points="1308.67,-587.11 1298.78,-591.74 1308.89,-595.86 1308.67,-587.11"/>
<text text-anchor="middle" x="1932.27" y="-522.54" font-family="Arial" font-size="20.00" fill="blue">start_next: 04/11/17, 18:58:11</text>
<text text-anchor="middle" x="1932.27" y="-500.54" font-family="Arial" font-size="20.00" fill="blue">gap: &#45;226sec</text>
<text text-anchor="middle" x="1932.27" y="-478.54" font-family="Arial" font-size="20.00" fill="blue">end_prev: 04/11/17, 19:01:57</text>
</g>
<!-- NETWORK DoS
ssdp | ID: 231&#45;&gt;DATA DELIVERY
http | ID: 21 -->
<g id="edge15" class="edge">
<title>NETWORK DoS
ssdp | ID: 231&#45;&gt;DATA DELIVERY
http | ID: 21</title>
<path fill="none" stroke="blue" stroke-width="5" d="M427.27,-644.69C427.27,-666.75 427.27,-693.09 427.27,-716.25"/>
<polygon fill="blue" stroke="blue" stroke-width="5" points="422.9,-716.31 427.27,-726.31 431.65,-716.31 422.9,-716.31"/>
<text text-anchor="middle" x="558.77" y="-702.52" font-family="Arial" font-size="20.00" fill="blue">start_next: 04/11/17, 21:04:28</text>
<text text-anchor="middle" x="558.77" y="-680.52" font-family="Arial" font-size="20.00" fill="blue">gap: 108sec</text>
<text text-anchor="middle" x="558.77" y="-658.52" font-family="Arial" font-size="20.00" fill="blue">end_prev: 04/11/17, 21:02:41</text>
</g>
</g>
</svg>
