<?xml version="1.0" encoding="UTF-8" standalone="no"?>
<!DOCTYPE svg PUBLIC "-//W3C//DTD SVG 1.1//EN"
 "http://www.w3.org/Graphics/SVG/1.1/DTD/svg11.dtd">
<!-- Generated by graphviz version 2.50.0 (0)
 -->
<!-- Title: DATAEXFILTRATIONunknown Pages: 1 -->
<svg width="480pt" height="1124pt"
 viewBox="0.00 0.00 479.94 1124.01" xmlns="http://www.w3.org/2000/svg" xmlns:xlink="http://www.w3.org/1999/xlink">
<g id="graph0" class="graph" transform="scale(1 1) rotate(0) translate(4 1120.01)">
<title>DATAEXFILTRATIONunknown</title>
<polygon fill="white" stroke="transparent" points="-4,4 -4,-1120.01 475.94,-1120.01 475.94,4 -4,4"/>
<!-- Victim: 10.0.0.222
DATA EXFILTRATION
unknown -->
<g id="node1" class="node">
<title>Victim: 10.0.0.222
DATA EXFILTRATION
unknown</title>
<polygon fill="salmon" stroke="black" stroke-width="3" points="397.15,-1019 397.15,-1073.39 284.56,-1111.85 125.32,-1111.85 12.73,-1073.39 12.73,-1019 125.32,-980.54 284.56,-980.54 397.15,-1019"/>
<polygon fill="none" stroke="black" stroke-width="3" points="401.15,-1016.15 401.15,-1076.24 285.22,-1115.84 124.66,-1115.84 8.73,-1076.24 8.73,-1016.15 124.66,-976.55 285.22,-976.55 401.15,-1016.15"/>
<text text-anchor="middle" x="204.94" y="-1065.99" font-family="Arial" font-size="24.00">Victim: 10.0.0.222</text>
<text text-anchor="middle" x="204.94" y="-1039.99" font-family="Arial" font-size="24.00">DATA EXFILTRATION</text>
<text text-anchor="middle" x="204.94" y="-1013.99" font-family="Arial" font-size="24.00">unknown</text>
</g>
<!-- DATA EXFILTRATION
unknown | ID: 57 -->
<g id="node2" class="node">
<title>DATA EXFILTRATION
unknown | ID: 57</title>
<g id="a_node2"><a xlink:title="ET WEB_SPECIFIC_APPS PHP&#45;CGI query string parameter vulnerability">
<polygon fill="salmon" stroke="black" stroke-width="3" points="409.82,-910.38 307.38,-959.36 102.5,-959.36 0.06,-910.38 102.5,-861.4 307.38,-861.4 409.82,-910.38"/>
<text text-anchor="middle" x="204.94" y="-917.18" font-family="Arial" font-size="24.00">DATA EXFILTRATION</text>
<text text-anchor="middle" x="204.94" y="-891.18" font-family="Arial" font-size="24.00">unknown | ID: 57</text>
</a>
</g>
</g>
<!-- DATA EXFILTRATION
unknown | ID: 57&#45;&gt;Victim: 10.0.0.222
DATA EXFILTRATION
unknown -->
<g id="edge1" class="edge">
<title>DATA EXFILTRATION
unknown | ID: 57&#45;&gt;Victim: 10.0.0.222
DATA EXFILTRATION
unknown</title>
<path fill="none" stroke="black" stroke-width="5" d="M204.94,-959.69C204.94,-961.8 204.94,-963.93 204.94,-966.08"/>
<polygon fill="black" stroke="black" stroke-width="5" points="200.57,-966.23 204.94,-976.23 209.32,-966.23 200.57,-966.23"/>
</g>
<!-- HOST DISCOVERY
wsman -->
<g id="node3" class="node">
<title>HOST DISCOVERY
wsman</title>
<g id="a_node3"><a xlink:title="ET SCAN Possible Nmap User&#45;Agent Observed&#10;ET SCAN Nmap Scripting Engine User&#45;Agent Detected (Nmap Scripting Engine)">
<ellipse fill="yellow" stroke="black" stroke-width="3" cx="204.94" cy="-42.43" rx="162.77" ry="42.35"/>
<text text-anchor="middle" x="204.94" y="-49.23" font-family="Arial" font-size="24.00">HOST DISCOVERY</text>
<text text-anchor="middle" x="204.94" y="-23.23" font-family="Arial" font-size="24.00">wsman</text>
</a>
</g>
</g>
<!-- SURFING
wsman -->
<g id="node4" class="node">
<title>SURFING
wsman</title>
<g id="a_node4"><a xlink:title="ET WEB_SERVER WEB&#45;PHP phpinfo access">
<ellipse fill="none" stroke="black" stroke-width="3" cx="204.94" cy="-223.28" rx="88.28" ry="42.35"/>
<text text-anchor="middle" x="204.94" y="-230.08" font-family="Arial" font-size="24.00">SURFING</text>
<text text-anchor="middle" x="204.94" y="-204.08" font-family="Arial" font-size="24.00">wsman</text>
</a>
</g>
</g>
<!-- HOST DISCOVERY
wsman&#45;&gt;SURFING
wsman -->
<g id="edge2" class="edge">
<title>HOST DISCOVERY
wsman&#45;&gt;SURFING
wsman</title>
<path fill="none" stroke="purple" stroke-width="5" d="M204.94,-84.91C204.94,-110.44 204.94,-143.37 204.94,-170.59"/>
<polygon fill="purple" stroke="purple" stroke-width="5" points="200.57,-170.71 204.94,-180.71 209.32,-170.71 200.57,-170.71"/>
<text text-anchor="start" x="204.94" y="-157.85" font-family="Arial" font-size="20.00" fill="purple"> start_next: 04/11/17, 14:07:11</text>
<text text-anchor="start" x="289.44" y="-137.85" font-family="Arial" font-size="20.00" fill="purple">gap: 38sec</text>
<text text-anchor="start" x="208.44" y="-117.85" font-family="Arial" font-size="20.00" fill="purple">end_prev: 04/11/17, 14:06:33</text>
<text text-anchor="start" x="238.94" y="-97.85" font-family="Arial" font-weight="bold" font-size="20.00" fill="purple">Attacker: 10.0.254.30</text>
</g>
<!-- DATA EXFILTRATION
wsman | ID: 63 -->
<g id="node5" class="node">
<title>DATA EXFILTRATION
wsman | ID: 63</title>
<g id="a_node5"><a xlink:title="ET WEB_SPECIFIC_APPS PHP&#45;CGI query string parameter vulnerability">
<polygon fill="none" stroke="black" stroke-width="3" points="409.82,-396.7 307.38,-445.68 102.5,-445.68 0.06,-396.7 102.5,-347.72 307.38,-347.72 409.82,-396.7"/>
<text text-anchor="middle" x="204.94" y="-403.5" font-family="Arial" font-size="24.00">DATA EXFILTRATION</text>
<text text-anchor="middle" x="204.94" y="-377.5" font-family="Arial" font-size="24.00">wsman | ID: 63</text>
</a>
</g>
</g>
<!-- SURFING
wsman&#45;&gt;DATA EXFILTRATION
wsman | ID: 63 -->
<g id="edge3" class="edge">
<title>SURFING
wsman&#45;&gt;DATA EXFILTRATION
wsman | ID: 63</title>
<path fill="none" stroke="purple" stroke-width="5" d="M204.94,-265.77C204.94,-287.27 204.94,-313.86 204.94,-337.39"/>
<polygon fill="purple" stroke="purple" stroke-width="5" points="200.57,-337.6 204.94,-347.6 209.32,-337.6 200.57,-337.6"/>
<text text-anchor="middle" x="336.44" y="-323.71" font-family="Arial" font-size="20.00" fill="purple">start_next: 04/11/17, 14:07:12</text>
<text text-anchor="middle" x="336.44" y="-301.71" font-family="Arial" font-size="20.00" fill="purple">gap: &#45;8sec</text>
<text text-anchor="middle" x="336.44" y="-279.71" font-family="Arial" font-size="20.00" fill="purple">end_prev: 04/11/17, 14:07:19</text>
</g>
<!-- HOST DISCOVERY
unknown -->
<g id="node6" class="node">
<title>HOST DISCOVERY
unknown</title>
<g id="a_node6"><a xlink:title="ET SCAN Possible Nmap User&#45;Agent Observed&#10;ET SCAN Nmap Scripting Engine User&#45;Agent Detected (Nmap Scripting Engine)">
<ellipse fill="none" stroke="black" stroke-width="3" cx="204.94" cy="-570.11" rx="162.77" ry="42.35"/>
<text text-anchor="middle" x="204.94" y="-576.91" font-family="Arial" font-size="24.00">HOST DISCOVERY</text>
<text text-anchor="middle" x="204.94" y="-550.91" font-family="Arial" font-size="24.00">unknown</text>
</a>
</g>
</g>
<!-- DATA EXFILTRATION
wsman | ID: 63&#45;&gt;HOST DISCOVERY
unknown -->
<g id="edge4" class="edge">
<title>DATA EXFILTRATION
wsman | ID: 63&#45;&gt;HOST DISCOVERY
unknown</title>
<path fill="none" stroke="purple" stroke-width="5" d="M204.94,-445.9C204.94,-468.23 204.94,-494.78 204.94,-517.52"/>
<polygon fill="purple" stroke="purple" stroke-width="5" points="200.57,-517.66 204.94,-527.66 209.32,-517.66 200.57,-517.66"/>
<text text-anchor="middle" x="336.44" y="-503.69" font-family="Arial" font-size="20.00" fill="purple">start_next: 04/11/17, 14:15:45</text>
<text text-anchor="middle" x="336.44" y="-481.69" font-family="Arial" font-size="20.00" fill="purple">gap: 506sec</text>
<text text-anchor="middle" x="336.44" y="-459.69" font-family="Arial" font-size="20.00" fill="purple">end_prev: 04/11/17, 14:07:19</text>
</g>
<!-- SURFING
unknown -->
<g id="node7" class="node">
<title>SURFING
unknown</title>
<g id="a_node7"><a xlink:title="ET WEB_SERVER WEB&#45;PHP phpinfo access">
<ellipse fill="none" stroke="black" stroke-width="3" cx="204.94" cy="-736.96" rx="88.28" ry="42.35"/>
<text text-anchor="middle" x="204.94" y="-743.76" font-family="Arial" font-size="24.00">SURFING</text>
<text text-anchor="middle" x="204.94" y="-717.76" font-family="Arial" font-size="24.00">unknown</text>
</a>
</g>
</g>
<!-- HOST DISCOVERY
unknown&#45;&gt;SURFING
unknown -->
<g id="edge5" class="edge">
<title>HOST DISCOVERY
unknown&#45;&gt;SURFING
unknown</title>
<path fill="none" stroke="purple" stroke-width="5" d="M204.94,-612.71C204.94,-634.38 204.94,-661.09 204.94,-684.1"/>
<polygon fill="purple" stroke="purple" stroke-width="5" points="200.57,-684.38 204.94,-694.38 209.32,-684.38 200.57,-684.38"/>
<text text-anchor="middle" x="336.44" y="-670.54" font-family="Arial" font-size="20.00" fill="purple">start_next: 04/11/17, 14:15:52</text>
<text text-anchor="middle" x="336.44" y="-648.54" font-family="Arial" font-size="20.00" fill="purple">gap: 7sec</text>
<text text-anchor="middle" x="336.44" y="-626.54" font-family="Arial" font-size="20.00" fill="purple">end_prev: 04/11/17, 14:15:45</text>
</g>
<!-- SURFING
unknown&#45;&gt;DATA EXFILTRATION
unknown | ID: 57 -->
<g id="edge6" class="edge">
<title>SURFING
unknown&#45;&gt;DATA EXFILTRATION
unknown | ID: 57</title>
<path fill="none" stroke="purple" stroke-width="5" d="M204.94,-779.46C204.94,-800.95 204.94,-827.55 204.94,-851.07"/>
<polygon fill="purple" stroke="purple" stroke-width="5" points="200.57,-851.29 204.94,-861.29 209.32,-851.29 200.57,-851.29"/>
<text text-anchor="middle" x="336.44" y="-837.39" font-family="Arial" font-size="20.00" fill="purple">start_next: 04/11/17, 14:15:53</text>
<text text-anchor="middle" x="336.44" y="-815.39" font-family="Arial" font-size="20.00" fill="purple">gap: &#45;8sec</text>
<text text-anchor="middle" x="336.44" y="-793.39" font-family="Arial" font-size="20.00" fill="purple">end_prev: 04/11/17, 14:16:01</text>
</g>
</g>
</svg>
