<?xml version="1.0" encoding="UTF-8" standalone="no"?>
<!DOCTYPE svg PUBLIC "-//W3C//DTD SVG 1.1//EN"
 "http://www.w3.org/Graphics/SVG/1.1/DTD/svg11.dtd">
<!-- Generated by graphviz version 2.50.0 (0)
 -->
<!-- Title: DATADELIVERYhttp Pages: 1 -->
<svg width="1191pt" height="1111pt"
 viewBox="0.00 0.00 1190.50 1110.89" xmlns="http://www.w3.org/2000/svg" xmlns:xlink="http://www.w3.org/1999/xlink">
<g id="graph0" class="graph" transform="scale(1 1) rotate(0) translate(4 1106.89)">
<title>DATADELIVERYhttp</title>
<polygon fill="white" stroke="transparent" points="-4,4 -4,-1106.89 1186.5,-1106.89 1186.5,4 -4,4"/>
<!-- Victim: 10.0.99.50
DATA DELIVERY
http -->
<g id="node1" class="node">
<title>Victim: 10.0.99.50
DATA DELIVERY
http</title>
<polygon fill="salmon" stroke="black" stroke-width="3" points="1080.45,-1005.87 1080.45,-1060.26 986.17,-1098.72 852.83,-1098.72 758.55,-1060.26 758.55,-1005.87 852.83,-967.41 986.17,-967.41 1080.45,-1005.87"/>
<polygon fill="none" stroke="black" stroke-width="3" points="1084.45,-1003.19 1084.45,-1062.94 986.96,-1102.71 852.04,-1102.71 754.55,-1062.94 754.55,-1003.19 852.04,-963.42 986.96,-963.42 1084.45,-1003.19"/>
<text text-anchor="middle" x="919.5" y="-1052.87" font-family="Arial" font-size="24.00">Victim: 10.0.99.50</text>
<text text-anchor="middle" x="919.5" y="-1026.87" font-family="Arial" font-size="24.00">DATA DELIVERY</text>
<text text-anchor="middle" x="919.5" y="-1000.87" font-family="Arial" font-size="24.00">http</text>
</g>
<!-- DATA DELIVERY
http | ID: 246 -->
<g id="node2" class="node">
<title>DATA DELIVERY
http | ID: 246</title>
<g id="a_node2"><a xlink:title="GPL WEB_SERVER perl post attempt">
<polygon fill="salmon" stroke="black" stroke-width="3" points="1082.6,-897.25 1001.05,-946.23 837.95,-946.23 756.4,-897.25 837.95,-848.27 1001.05,-848.27 1082.6,-897.25"/>
<text text-anchor="middle" x="919.5" y="-904.05" font-family="Arial" font-size="24.00">DATA DELIVERY</text>
<text text-anchor="middle" x="919.5" y="-878.05" font-family="Arial" font-size="24.00">http | ID: 246</text>
</a>
</g>
</g>
<!-- DATA DELIVERY
http | ID: 246&#45;&gt;Victim: 10.0.99.50
DATA DELIVERY
http -->
<g id="edge1" class="edge">
<title>DATA DELIVERY
http | ID: 246&#45;&gt;Victim: 10.0.99.50
DATA DELIVERY
http</title>
<path fill="none" stroke="black" stroke-width="5" d="M919.5,-946.56C919.5,-948.67 919.5,-950.8 919.5,-952.95"/>
<polygon fill="black" stroke="black" stroke-width="5" points="915.13,-953.1 919.5,-963.1 923.88,-953.1 915.13,-953.1"/>
</g>
<!-- INFO DISCOVERY
xdmcp -->
<g id="node3" class="node">
<title>INFO DISCOVERY
xdmcp</title>
<g id="a_node3"><a xlink:title="GPL RPC xdmcp info query">
<ellipse fill="yellow" stroke="black" stroke-width="3" cx="459.5" cy="-42.43" rx="156.04" ry="42.35"/>
<text text-anchor="middle" x="459.5" y="-49.23" font-family="Arial" font-size="24.00">INFO DISCOVERY</text>
<text text-anchor="middle" x="459.5" y="-23.23" font-family="Arial" font-size="24.00">xdmcp</text>
</a>
</g>
</g>
<!-- VULNERABILTY DISCOVERY
ahsp -->
<g id="node4" class="node">
<title>VULNERABILTY DISCOVERY
ahsp</title>
<g id="a_node4"><a xlink:title="ET POLICY Suspicious inbound to PostgreSQL port 5432&#10;ET POLICY Suspicious inbound to MSSQL port 1433&#10;ET POLICY Suspicious inbound to Oracle SQL port 1521&#10;ET POLICY Suspicious inbound to mSQL port 4333">
<ellipse fill="none" stroke="black" stroke-width="3" cx="459.5" cy="-223.28" rx="241.25" ry="42.35"/>
<text text-anchor="middle" x="459.5" y="-230.08" font-family="Arial" font-size="24.00">VULNERABILTY DISCOVERY</text>
<text text-anchor="middle" x="459.5" y="-204.08" font-family="Arial" font-size="24.00">ahsp</text>
</a>
</g>
</g>
<!-- INFO DISCOVERY
xdmcp&#45;&gt;VULNERABILTY DISCOVERY
ahsp -->
<g id="edge2" class="edge">
<title>INFO DISCOVERY
xdmcp&#45;&gt;VULNERABILTY DISCOVERY
ahsp</title>
<path fill="none" stroke="blue" stroke-width="5" d="M459.5,-84.91C459.5,-110.44 459.5,-143.37 459.5,-170.59"/>
<polygon fill="blue" stroke="blue" stroke-width="5" points="455.13,-170.71 459.5,-180.71 463.88,-170.71 455.13,-170.71"/>
<text text-anchor="start" x="459.5" y="-157.85" font-family="Arial" font-size="20.00" fill="blue"> start_next: 04/11/17, 17:58:38</text>
<text text-anchor="start" x="533" y="-137.85" font-family="Arial" font-size="20.00" fill="blue">gap: 5331sec</text>
<text text-anchor="start" x="463.5" y="-117.85" font-family="Arial" font-size="20.00" fill="blue">end_prev: 04/11/17, 16:29:48</text>
<text text-anchor="start" x="494" y="-97.85" font-family="Arial" font-weight="bold" font-size="20.00" fill="blue">Attacker: 10.0.254.31</text>
</g>
<!-- HOST DISCOVERY
ms&#45;wbt&#45;server -->
<g id="node5" class="node">
<title>HOST DISCOVERY
ms&#45;wbt&#45;server</title>
<g id="a_node5"><a xlink:title="ET SCAN Behavioral Unusually fast Terminal Server Traffic Potential Scan or Infection (Inbound)">
<ellipse fill="none" stroke="black" stroke-width="3" cx="459.5" cy="-390.13" rx="162.77" ry="42.35"/>
<text text-anchor="middle" x="459.5" y="-396.93" font-family="Arial" font-size="24.00">HOST DISCOVERY</text>
<text text-anchor="middle" x="459.5" y="-370.93" font-family="Arial" font-size="24.00">ms&#45;wbt&#45;server</text>
</a>
</g>
</g>
<!-- VULNERABILTY DISCOVERY
ahsp&#45;&gt;HOST DISCOVERY
ms&#45;wbt&#45;server -->
<g id="edge3" class="edge">
<title>VULNERABILTY DISCOVERY
ahsp&#45;&gt;HOST DISCOVERY
ms&#45;wbt&#45;server</title>
<path fill="none" stroke="blue" stroke-width="5" d="M459.5,-265.88C459.5,-287.55 459.5,-314.26 459.5,-337.27"/>
<polygon fill="blue" stroke="blue" stroke-width="5" points="455.13,-337.55 459.5,-347.55 463.88,-337.55 455.13,-337.55"/>
<text text-anchor="middle" x="591" y="-323.71" font-family="Arial" font-size="20.00" fill="blue">start_next: 04/11/17, 17:58:43</text>
<text text-anchor="middle" x="591" y="-301.71" font-family="Arial" font-size="20.00" fill="blue">gap: &#45;33sec</text>
<text text-anchor="middle" x="591" y="-279.71" font-family="Arial" font-size="20.00" fill="blue">end_prev: 04/11/17, 17:59:16</text>
</g>
<!-- ARBITRARY CODE EXECUTION
ssdp | ID: 355 -->
<g id="node6" class="node">
<title>ARBITRARY CODE EXECUTION
ssdp | ID: 355</title>
<g id="a_node6"><a xlink:title="GPL MISC UPnP malformed advertisement">
<polygon fill="none" stroke="black" stroke-width="3" points="375,-586.98 0,-586.98 0,-526.98 375,-526.98 375,-586.98"/>
<text text-anchor="middle" x="187.5" y="-563.78" font-family="Arial" font-size="24.00">ARBITRARY CODE EXECUTION</text>
<text text-anchor="middle" x="187.5" y="-537.78" font-family="Arial" font-size="24.00">ssdp | ID: 355</text>
</a>
</g>
</g>
<!-- HOST DISCOVERY
ms&#45;wbt&#45;server&#45;&gt;ARBITRARY CODE EXECUTION
ssdp | ID: 355 -->
<g id="edge4" class="edge">
<title>HOST DISCOVERY
ms&#45;wbt&#45;server&#45;&gt;ARBITRARY CODE EXECUTION
ssdp | ID: 355</title>
<path fill="none" stroke="blue" stroke-width="5" d="M304.52,-403.11C254.35,-410.39 207.49,-422.01 191.5,-440.56 173.86,-461.02 173.68,-491.92 177.47,-516.6"/>
<polygon fill="blue" stroke="blue" stroke-width="5" points="173.22,-517.69 179.3,-526.75 181.83,-516.14 173.22,-517.69"/>
<text text-anchor="middle" x="323" y="-490.56" font-family="Arial" font-size="20.00" fill="blue">start_next: 04/11/17, 18:00:13</text>
<text text-anchor="middle" x="323" y="-468.56" font-family="Arial" font-size="20.00" fill="blue">gap: 90sec</text>
<text text-anchor="middle" x="323" y="-446.56" font-family="Arial" font-size="20.00" fill="blue">end_prev: 04/11/17, 17:58:43</text>
</g>
<!-- SERVICE DISCOVERY
unknown -->
<g id="node8" class="node">
<title>SERVICE DISCOVERY
unknown</title>
<g id="a_node8"><a xlink:title="ET SCAN Potential VNC Scan 5800&#45;5820">
<ellipse fill="none" stroke="black" stroke-width="3" cx="919.5" cy="-556.98" rx="189.51" ry="42.35"/>
<text text-anchor="middle" x="919.5" y="-563.78" font-family="Arial" font-size="24.00">SERVICE DISCOVERY</text>
<text text-anchor="middle" x="919.5" y="-537.78" font-family="Arial" font-size="24.00">unknown</text>
</a>
</g>
</g>
<!-- HOST DISCOVERY
ms&#45;wbt&#45;server&#45;&gt;SERVICE DISCOVERY
unknown -->
<g id="edge7" class="edge">
<title>HOST DISCOVERY
ms&#45;wbt&#45;server&#45;&gt;SERVICE DISCOVERY
unknown</title>
<path fill="none" stroke="blue" stroke-width="5" d="M553.42,-424.79C628.29,-451.62 733.19,-489.22 811.52,-517.29"/>
<polygon fill="blue" stroke="blue" stroke-width="5" points="810.05,-521.41 820.94,-520.66 813,-513.17 810.05,-521.41"/>
<text text-anchor="middle" x="902" y="-490.56" font-family="Arial" font-size="20.00" fill="blue">start_next: 04/11/17, 18:57:32</text>
<text text-anchor="middle" x="902" y="-468.56" font-family="Arial" font-size="20.00" fill="blue">gap: 0sec</text>
<text text-anchor="middle" x="902" y="-446.56" font-family="Arial" font-size="20.00" fill="blue">end_prev: 04/11/17, 18:57:32</text>
</g>
<!-- VULNERABILTY DISCOVERY
ms&#45;sql&#45;s -->
<g id="node7" class="node">
<title>VULNERABILTY DISCOVERY
ms&#45;sql&#45;s</title>
<g id="a_node7"><a xlink:title="ET POLICY Suspicious inbound to MSSQL port 1433&#10;ET POLICY Suspicious inbound to mySQL port 3306&#10;ET POLICY Suspicious inbound to Oracle SQL port 1521&#10;ET POLICY Suspicious inbound to mSQL port 4333">
<ellipse fill="none" stroke="black" stroke-width="3" cx="323.5" cy="-723.84" rx="241.25" ry="42.35"/>
<text text-anchor="middle" x="323.5" y="-730.64" font-family="Arial" font-size="24.00">VULNERABILTY DISCOVERY</text>
<text text-anchor="middle" x="323.5" y="-704.64" font-family="Arial" font-size="24.00">ms&#45;sql&#45;s</text>
</a>
</g>
</g>
<!-- ARBITRARY CODE EXECUTION
ssdp | ID: 355&#45;&gt;VULNERABILTY DISCOVERY
ms&#45;sql&#45;s -->
<g id="edge5" class="edge">
<title>ARBITRARY CODE EXECUTION
ssdp | ID: 355&#45;&gt;VULNERABILTY DISCOVERY
ms&#45;sql&#45;s</title>
<path fill="none" stroke="blue" stroke-width="5" d="M180.13,-587.41C175.63,-612.62 173.7,-648.67 191.5,-673.41 193.06,-675.58 194.73,-677.66 196.5,-679.65"/>
<polygon fill="blue" stroke="blue" stroke-width="5" points="193.58,-682.92 203.76,-686.86 199.75,-676.71 193.58,-682.92"/>
<text text-anchor="middle" x="323" y="-657.41" font-family="Arial" font-size="20.00" fill="blue">start_next: 04/11/17, 18:56:58</text>
<text text-anchor="middle" x="323" y="-635.41" font-family="Arial" font-size="20.00" fill="blue">gap: 3395sec</text>
<text text-anchor="middle" x="323" y="-613.41" font-family="Arial" font-size="20.00" fill="blue">end_prev: 04/11/17, 18:00:23</text>
</g>
<!-- VULNERABILTY DISCOVERY
ms&#45;sql&#45;s&#45;&gt;HOST DISCOVERY
ms&#45;wbt&#45;server -->
<g id="edge6" class="edge">
<title>VULNERABILTY DISCOVERY
ms&#45;sql&#45;s&#45;&gt;HOST DISCOVERY
ms&#45;wbt&#45;server</title>
<path fill="none" stroke="blue" stroke-width="5" d="M439.68,-686.61C444.08,-682.66 448.06,-678.27 451.5,-673.41 464.41,-655.15 462.98,-519.58 461.1,-443.16"/>
<polygon fill="blue" stroke="blue" stroke-width="5" points="465.46,-442.67 460.83,-432.79 456.71,-442.9 465.46,-442.67"/>
<text text-anchor="middle" x="594" y="-573.98" font-family="Arial" font-size="20.00" fill="blue">start_next: 04/11/17, 18:57:32</text>
<text text-anchor="middle" x="594" y="-551.98" font-family="Arial" font-size="20.00" fill="blue">gap: 25sec</text>
<text text-anchor="middle" x="594" y="-529.98" font-family="Arial" font-size="20.00" fill="blue">end_prev: 04/11/17, 18:57:07</text>
</g>
<!-- ARBITRARY CODE EXECUTION
ssdp | ID: 703 -->
<g id="node9" class="node">
<title>ARBITRARY CODE EXECUTION
ssdp | ID: 703</title>
<g id="a_node9"><a xlink:title="GPL MISC UPnP malformed advertisement">
<polygon fill="none" stroke="black" stroke-width="3" points="1107,-753.84 732,-753.84 732,-693.84 1107,-693.84 1107,-753.84"/>
<text text-anchor="middle" x="919.5" y="-730.64" font-family="Arial" font-size="24.00">ARBITRARY CODE EXECUTION</text>
<text text-anchor="middle" x="919.5" y="-704.64" font-family="Arial" font-size="24.00">ssdp | ID: 703</text>
</a>
</g>
</g>
<!-- SERVICE DISCOVERY
unknown&#45;&gt;ARBITRARY CODE EXECUTION
ssdp | ID: 703 -->
<g id="edge8" class="edge">
<title>SERVICE DISCOVERY
unknown&#45;&gt;ARBITRARY CODE EXECUTION
ssdp | ID: 703</title>
<path fill="none" stroke="blue" stroke-width="5" d="M919.5,-599.58C919.5,-625.4 919.5,-658.38 919.5,-683.72"/>
<polygon fill="blue" stroke="blue" stroke-width="5" points="915.13,-683.72 919.5,-693.72 923.88,-683.72 915.13,-683.72"/>
<text text-anchor="middle" x="1051" y="-657.41" font-family="Arial" font-size="20.00" fill="blue">start_next: 04/11/17, 18:58:24</text>
<text text-anchor="middle" x="1051" y="-635.41" font-family="Arial" font-size="20.00" fill="blue">gap: 52sec</text>
<text text-anchor="middle" x="1051" y="-613.41" font-family="Arial" font-size="20.00" fill="blue">end_prev: 04/11/17, 18:57:32</text>
</g>
<!-- ARBITRARY CODE EXECUTION
ssdp | ID: 703&#45;&gt;DATA DELIVERY
http | ID: 246 -->
<g id="edge9" class="edge">
<title>ARBITRARY CODE EXECUTION
ssdp | ID: 703&#45;&gt;DATA DELIVERY
http | ID: 246</title>
<path fill="none" stroke="blue" stroke-width="5" d="M919.5,-753.92C919.5,-776.89 919.5,-809.68 919.5,-838"/>
<polygon fill="blue" stroke="blue" stroke-width="5" points="915.13,-838.2 919.5,-848.2 923.88,-838.2 915.13,-838.2"/>
<text text-anchor="middle" x="1051" y="-824.26" font-family="Arial" font-size="20.00" fill="blue">start_next: 04/11/17, 19:00:38</text>
<text text-anchor="middle" x="1051" y="-802.26" font-family="Arial" font-size="20.00" fill="blue">gap: 124sec</text>
<text text-anchor="middle" x="1051" y="-780.26" font-family="Arial" font-size="20.00" fill="blue">end_prev: 04/11/17, 18:58:34</text>
</g>
</g>
</svg>
