<?xml version="1.0" encoding="UTF-8" standalone="no"?>
<!DOCTYPE svg PUBLIC "-//W3C//DTD SVG 1.1//EN"
 "http://www.w3.org/Graphics/SVG/1.1/DTD/svg11.dtd">
<!-- Generated by graphviz version 2.50.0 (0)
 -->
<!-- Title: NETWORKDOSssdp Pages: 1 -->
<svg width="1076pt" height="803pt"
 viewBox="0.00 0.00 1076.39 803.43" xmlns="http://www.w3.org/2000/svg" xmlns:xlink="http://www.w3.org/1999/xlink">
<g id="graph0" class="graph" transform="scale(1 1) rotate(0) translate(4 799.43)">
<title>NETWORKDOSssdp</title>
<polygon fill="white" stroke="transparent" points="-4,4 -4,-799.43 1072.39,-799.43 1072.39,4 -4,4"/>
<!-- Victim: 10.0.99.245
NETWORK DoS
ssdp -->
<g id="node1" class="node">
<title>Victim: 10.0.99.245
NETWORK DoS
ssdp</title>
<polygon fill="salmon" stroke="black" stroke-width="3" points="976.77,-698.42 976.77,-752.81 876.38,-791.27 734.4,-791.27 634,-752.81 634,-698.42 734.4,-659.96 876.38,-659.96 976.77,-698.42"/>
<polygon fill="none" stroke="black" stroke-width="3" points="980.77,-695.68 980.77,-755.55 877.12,-795.26 733.66,-795.26 630,-755.55 630,-695.68 733.66,-655.97 877.12,-655.97 980.77,-695.68"/>
<text text-anchor="middle" x="805.39" y="-745.41" font-family="Arial" font-size="24.00">Victim: 10.0.99.245</text>
<text text-anchor="middle" x="805.39" y="-719.41" font-family="Arial" font-size="24.00">NETWORK DoS</text>
<text text-anchor="middle" x="805.39" y="-693.41" font-family="Arial" font-size="24.00">ssdp</text>
</g>
<!-- NETWORK DoS
ssdp | ID: 55 -->
<g id="node2" class="node">
<title>NETWORK DoS
ssdp | ID: 55</title>
<g id="a_node2"><a xlink:title="ET DOS Possible SSDP Amplification Scan in Progress">
<polygon fill="salmon" stroke="black" stroke-width="3" points="961.92,-589.8 883.66,-638.78 727.12,-638.78 648.85,-589.8 727.12,-540.82 883.66,-540.82 961.92,-589.8"/>
<text text-anchor="middle" x="805.39" y="-596.6" font-family="Arial" font-size="24.00">NETWORK DoS</text>
<text text-anchor="middle" x="805.39" y="-570.6" font-family="Arial" font-size="24.00">ssdp | ID: 55</text>
</a>
</g>
</g>
<!-- NETWORK DoS
ssdp | ID: 55&#45;&gt;Victim: 10.0.99.245
NETWORK DoS
ssdp -->
<g id="edge1" class="edge">
<title>NETWORK DoS
ssdp | ID: 55&#45;&gt;Victim: 10.0.99.245
NETWORK DoS
ssdp</title>
<path fill="none" stroke="black" stroke-width="5" d="M805.39,-639.11C805.39,-641.22 805.39,-643.35 805.39,-645.5"/>
<polygon fill="black" stroke="black" stroke-width="5" points="801.01,-645.65 805.39,-655.65 809.76,-645.65 801.01,-645.65"/>
</g>
<!-- INFO DISCOVERY
xdmcp -->
<g id="node3" class="node">
<title>INFO DISCOVERY
xdmcp</title>
<g id="a_node3"><a xlink:title="GPL WEB_SERVER mod_gzip_status access&#10;GPL RPC xdmcp info query">
<ellipse fill="yellow" stroke="black" stroke-width="3" cx="363.39" cy="-42.43" rx="156.04" ry="42.35"/>
<text text-anchor="middle" x="363.39" y="-49.23" font-family="Arial" font-size="24.00">INFO DISCOVERY</text>
<text text-anchor="middle" x="363.39" y="-23.23" font-family="Arial" font-size="24.00">xdmcp</text>
</a>
</g>
</g>
<!-- SURFING
unknown -->
<g id="node4" class="node">
<title>SURFING
unknown</title>
<g id="a_node4"><a xlink:title="ET WEB_SERVER WEB&#45;PHP phpinfo access">
<ellipse fill="none" stroke="black" stroke-width="3" cx="88.39" cy="-229.84" rx="88.28" ry="42.35"/>
<text text-anchor="middle" x="88.39" y="-236.64" font-family="Arial" font-size="24.00">SURFING</text>
<text text-anchor="middle" x="88.39" y="-210.64" font-family="Arial" font-size="24.00">unknown</text>
</a>
</g>
</g>
<!-- INFO DISCOVERY
xdmcp&#45;&gt;SURFING
unknown -->
<g id="edge2" class="edge">
<title>INFO DISCOVERY
xdmcp&#45;&gt;SURFING
unknown</title>
<path fill="none" stroke="blue" stroke-width="5" d="M212.77,-53.89C158.9,-61.01 107.29,-72.92 90.39,-92.85 70.94,-115.79 70.35,-149.56 74.66,-177.71"/>
<polygon fill="blue" stroke="blue" stroke-width="5" points="70.4,-178.72 76.45,-187.8 79.02,-177.19 70.4,-178.72"/>
<text text-anchor="start" x="90.39" y="-157.85" font-family="Arial" font-size="20.00" fill="blue"> start_next: 04/11/17, 14:10:08</text>
<text text-anchor="start" x="180.89" y="-137.85" font-family="Arial" font-size="20.00" fill="blue">gap: 1sec</text>
<text text-anchor="start" x="94.39" y="-117.85" font-family="Arial" font-size="20.00" fill="blue">end_prev: 04/11/17, 14:10:07</text>
<text text-anchor="start" x="124.89" y="-97.85" font-family="Arial" font-weight="bold" font-size="20.00" fill="blue">Attacker: 10.0.254.31</text>
</g>
<!-- DATA DELIVERY
unknown | ID: 935 -->
<g id="node6" class="node">
<title>DATA DELIVERY
unknown | ID: 935</title>
<g id="a_node6"><a xlink:title="ET WEB_SERVER PHP tags in HTTP POST&#10;GPL WEB_SERVER perl post attempt">
<polygon fill="none" stroke="black" stroke-width="3" stroke-dasharray="1,5" points="977.45,-229.84 891.42,-278.82 719.36,-278.82 633.33,-229.84 719.36,-180.86 891.42,-180.86 977.45,-229.84"/>
<text text-anchor="middle" x="805.39" y="-236.64" font-family="Arial" font-size="24.00">DATA DELIVERY</text>
<text text-anchor="middle" x="805.39" y="-210.64" font-family="Arial" font-size="24.00">unknown | ID: 935</text>
</a>
</g>
</g>
<!-- INFO DISCOVERY
xdmcp&#45;&gt;DATA DELIVERY
unknown | ID: 935 -->
<g id="edge5" class="edge">
<title>INFO DISCOVERY
xdmcp&#45;&gt;DATA DELIVERY
unknown | ID: 935</title>
<path fill="none" stroke="blue" stroke-width="5" d="M446.78,-78.41C517.94,-108.26 620.71,-151.37 698.01,-183.8"/>
<polygon fill="blue" stroke="blue" stroke-width="5" points="696.39,-187.86 707.31,-187.7 699.78,-179.8 696.39,-187.86"/>
<text text-anchor="middle" x="793.89" y="-149.85" font-family="Arial" font-size="20.00" fill="blue">start_next: 04/11/17, 16:32:34</text>
<text text-anchor="middle" x="793.89" y="-127.85" font-family="Arial" font-size="20.00" fill="blue">gap: 7sec</text>
<text text-anchor="middle" x="793.89" y="-105.85" font-family="Arial" font-size="20.00" fill="blue">end_prev: 04/11/17, 16:32:27</text>
</g>
<!-- DATA DELIVERY
unknown | ID: 56 -->
<g id="node5" class="node">
<title>DATA DELIVERY
unknown | ID: 56</title>
<g id="a_node5"><a xlink:title="ET WEB_SERVER PHP Possible php Remote File Inclusion Attempt&#10;ET WEB_SERVER PHP tags in HTTP POST&#10;GPL WEB_SERVER perl post attempt">
<polygon fill="none" stroke="black" stroke-width="3" points="389.49,-409.82 307.94,-458.8 144.84,-458.8 63.29,-409.82 144.84,-360.84 307.94,-360.84 389.49,-409.82"/>
<text text-anchor="middle" x="226.39" y="-416.62" font-family="Arial" font-size="24.00">DATA DELIVERY</text>
<text text-anchor="middle" x="226.39" y="-390.62" font-family="Arial" font-size="24.00">unknown | ID: 56</text>
</a>
</g>
</g>
<!-- SURFING
unknown&#45;&gt;DATA DELIVERY
unknown | ID: 56 -->
<g id="edge3" class="edge">
<title>SURFING
unknown&#45;&gt;DATA DELIVERY
unknown | ID: 56</title>
<path fill="none" stroke="blue" stroke-width="5" d="M80.46,-272.27C77.92,-297.72 79.18,-329.74 95.39,-352.83 99.79,-359.09 105.03,-364.66 110.86,-369.61"/>
<polygon fill="blue" stroke="blue" stroke-width="5" points="108.55,-373.35 119.14,-375.98 113.88,-366.41 108.55,-373.35"/>
<text text-anchor="middle" x="226.89" y="-336.83" font-family="Arial" font-size="20.00" fill="blue">start_next: 04/11/17, 14:10:09</text>
<text text-anchor="middle" x="226.89" y="-314.83" font-family="Arial" font-size="20.00" fill="blue">gap: 1sec</text>
<text text-anchor="middle" x="226.89" y="-292.83" font-family="Arial" font-size="20.00" fill="blue">end_prev: 04/11/17, 14:10:08</text>
</g>
<!-- DATA DELIVERY
unknown | ID: 56&#45;&gt;INFO DISCOVERY
xdmcp -->
<g id="edge4" class="edge">
<title>DATA DELIVERY
unknown | ID: 56&#45;&gt;INFO DISCOVERY
xdmcp</title>
<path fill="none" stroke="blue" stroke-width="5" d="M332.9,-375.55C341.63,-369.23 349.38,-361.74 355.39,-352.83 362.46,-342.36 363.46,-180.23 363.49,-94.96"/>
<polygon fill="blue" stroke="blue" stroke-width="5" points="367.87,-94.96 363.49,-84.96 359.12,-94.96 367.87,-94.96"/>
<text text-anchor="middle" x="494.89" y="-246.84" font-family="Arial" font-size="20.00" fill="blue">start_next: 04/11/17, 16:31:36</text>
<text text-anchor="middle" x="494.89" y="-224.84" font-family="Arial" font-size="20.00" fill="blue">gap: 8449sec</text>
<text text-anchor="middle" x="494.89" y="-202.84" font-family="Arial" font-size="20.00" fill="blue">end_prev: 04/11/17, 14:10:46</text>
</g>
<!-- DATA EXFILTRATION
unknown | ID: 383 -->
<g id="node7" class="node">
<title>DATA EXFILTRATION
unknown | ID: 383</title>
<g id="a_node7"><a xlink:title="ET WEB_SPECIFIC_APPS PHP&#45;CGI query string parameter vulnerability">
<polygon fill="none" stroke="black" stroke-width="3" points="1010.27,-409.82 907.83,-458.8 702.95,-458.8 600.51,-409.82 702.95,-360.84 907.83,-360.84 1010.27,-409.82"/>
<text text-anchor="middle" x="805.39" y="-416.62" font-family="Arial" font-size="24.00">DATA EXFILTRATION</text>
<text text-anchor="middle" x="805.39" y="-390.62" font-family="Arial" font-size="24.00">unknown | ID: 383</text>
</a>
</g>
</g>
<!-- DATA DELIVERY
unknown | ID: 935&#45;&gt;DATA EXFILTRATION
unknown | ID: 383 -->
<g id="edge6" class="edge">
<title>DATA DELIVERY
unknown | ID: 935&#45;&gt;DATA EXFILTRATION
unknown | ID: 383</title>
<path fill="none" stroke="blue" stroke-width="5" d="M805.39,-279.01C805.39,-301.07 805.39,-327.4 805.39,-350.57"/>
<polygon fill="blue" stroke="blue" stroke-width="5" points="801.01,-350.62 805.39,-360.62 809.76,-350.62 801.01,-350.62"/>
<text text-anchor="middle" x="936.89" y="-336.83" font-family="Arial" font-size="20.00" fill="blue">start_next: 04/11/17, 16:32:38</text>
<text text-anchor="middle" x="936.89" y="-314.83" font-family="Arial" font-size="20.00" fill="blue">gap: 0sec</text>
<text text-anchor="middle" x="936.89" y="-292.83" font-family="Arial" font-size="20.00" fill="blue">end_prev: 04/11/17, 16:32:38</text>
</g>
<!-- DATA EXFILTRATION
unknown | ID: 383&#45;&gt;NETWORK DoS
ssdp | ID: 55 -->
<g id="edge7" class="edge">
<title>DATA EXFILTRATION
unknown | ID: 383&#45;&gt;NETWORK DoS
ssdp | ID: 55</title>
<path fill="none" stroke="blue" stroke-width="5" d="M805.39,-458.99C805.39,-481.05 805.39,-507.38 805.39,-530.55"/>
<polygon fill="blue" stroke="blue" stroke-width="5" points="801.01,-530.6 805.39,-540.6 809.76,-530.6 801.01,-530.6"/>
<text text-anchor="middle" x="936.89" y="-516.81" font-family="Arial" font-size="20.00" fill="blue">start_next: 04/11/17, 18:03:37</text>
<text text-anchor="middle" x="936.89" y="-494.81" font-family="Arial" font-size="20.00" fill="blue">gap: 5458sec</text>
<text text-anchor="middle" x="936.89" y="-472.81" font-family="Arial" font-size="20.00" fill="blue">end_prev: 04/11/17, 16:32:39</text>
</g>
</g>
</svg>
