<?xml version="1.0" encoding="UTF-8" standalone="no"?>
<!DOCTYPE svg PUBLIC "-//W3C//DTD SVG 1.1//EN"
 "http://www.w3.org/Graphics/SVG/1.1/DTD/svg11.dtd">
<!-- Generated by graphviz version 2.50.0 (0)
 -->
<!-- Title: DATADELIVERYhttp Pages: 1 -->
<svg width="1220pt" height="1446pt"
 viewBox="0.00 0.00 1220.12 1445.99" xmlns="http://www.w3.org/2000/svg" xmlns:xlink="http://www.w3.org/1999/xlink">
<g id="graph0" class="graph" transform="scale(1 1) rotate(0) translate(4 1441.99)">
<title>DATADELIVERYhttp</title>
<polygon fill="white" stroke="transparent" points="-4,4 -4,-1441.99 1216.12,-1441.99 1216.12,4 -4,4"/>
<!-- Victim: 10.0.0.167
DATA DELIVERY
http -->
<g id="node1" class="node">
<title>Victim: 10.0.0.167
DATA DELIVERY
http</title>
<polygon fill="salmon" stroke="black" stroke-width="3" points="679.07,-1340.98 679.07,-1395.37 584.79,-1433.83 451.46,-1433.83 357.17,-1395.37 357.17,-1340.98 451.46,-1302.52 584.79,-1302.52 679.07,-1340.98"/>
<polygon fill="none" stroke="black" stroke-width="3" points="683.08,-1338.3 683.08,-1398.04 585.58,-1437.82 450.67,-1437.82 353.17,-1398.04 353.17,-1338.3 450.67,-1298.53 585.58,-1298.53 683.08,-1338.3"/>
<text text-anchor="middle" x="518.12" y="-1387.97" font-family="Arial" font-size="24.00">Victim: 10.0.0.167</text>
<text text-anchor="middle" x="518.12" y="-1361.97" font-family="Arial" font-size="24.00">DATA DELIVERY</text>
<text text-anchor="middle" x="518.12" y="-1335.97" font-family="Arial" font-size="24.00">http</text>
</g>
<!-- DATA DELIVERY
http | ID: 246 -->
<g id="node2" class="node">
<title>DATA DELIVERY
http | ID: 246</title>
<g id="a_node2"><a xlink:title="GPL WEB_SERVER perl post attempt">
<polygon fill="salmon" stroke="black" stroke-width="3" points="681.22,-1232.36 599.67,-1281.34 436.57,-1281.34 355.02,-1232.36 436.57,-1183.38 599.67,-1183.38 681.22,-1232.36"/>
<text text-anchor="middle" x="518.12" y="-1239.16" font-family="Arial" font-size="24.00">DATA DELIVERY</text>
<text text-anchor="middle" x="518.12" y="-1213.16" font-family="Arial" font-size="24.00">http | ID: 246</text>
</a>
</g>
</g>
<!-- DATA DELIVERY
http | ID: 246&#45;&gt;Victim: 10.0.0.167
DATA DELIVERY
http -->
<g id="edge1" class="edge">
<title>DATA DELIVERY
http | ID: 246&#45;&gt;Victim: 10.0.0.167
DATA DELIVERY
http</title>
<path fill="none" stroke="black" stroke-width="5" d="M518.12,-1281.67C518.12,-1283.77 518.12,-1285.91 518.12,-1288.06"/>
<polygon fill="black" stroke="black" stroke-width="5" points="513.75,-1288.21 518.12,-1298.21 522.5,-1288.21 513.75,-1288.21"/>
</g>
<!-- VULNERABILTY DISCOVERY
postgresql -->
<g id="node3" class="node">
<title>VULNERABILTY DISCOVERY
postgresql</title>
<g id="a_node3"><a xlink:title="ET POLICY Suspicious inbound to Oracle SQL port 1521&#10;ET POLICY Suspicious inbound to PostgreSQL port 5432">
<ellipse fill="yellow" stroke="black" stroke-width="3" cx="241.12" cy="-48.99" rx="241.25" ry="42.35"/>
<text text-anchor="middle" x="241.12" y="-55.79" font-family="Arial" font-size="24.00">VULNERABILTY DISCOVERY</text>
<text text-anchor="middle" x="241.12" y="-29.79" font-family="Arial" font-size="24.00">postgresql</text>
</a>
</g>
</g>
<!-- SERVICE DISCOVERY
ssh -->
<g id="node4" class="node">
<title>SERVICE DISCOVERY
ssh</title>
<g id="a_node4"><a xlink:title="ET SCAN Potential SSH Scan">
<ellipse fill="none" stroke="black" stroke-width="3" cx="243.12" cy="-236.41" rx="189.51" ry="42.35"/>
<text text-anchor="middle" x="243.12" y="-243.21" font-family="Arial" font-size="24.00">SERVICE DISCOVERY</text>
<text text-anchor="middle" x="243.12" y="-217.21" font-family="Arial" font-size="24.00">ssh</text>
</a>
</g>
</g>
<!-- VULNERABILTY DISCOVERY
postgresql&#45;&gt;SERVICE DISCOVERY
ssh -->
<g id="edge2" class="edge">
<title>VULNERABILTY DISCOVERY
postgresql&#45;&gt;SERVICE DISCOVERY
ssh</title>
<path fill="none" stroke="blue" stroke-width="5" d="M241.57,-91.6C241.87,-118.8 242.25,-154.53 242.56,-183.57"/>
<polygon fill="blue" stroke="blue" stroke-width="5" points="238.19,-183.98 242.68,-193.93 246.94,-183.89 238.19,-183.98"/>
<text text-anchor="start" x="243.12" y="-170.98" font-family="Arial" font-size="20.00" fill="blue"> start_next: 04/11/17, 13:34:49</text>
<text text-anchor="start" x="322.62" y="-150.98" font-family="Arial" font-size="20.00" fill="blue">gap: 859sec</text>
<text text-anchor="start" x="247.12" y="-130.98" font-family="Arial" font-size="20.00" fill="blue">end_prev: 04/11/17, 13:20:30</text>
<text text-anchor="start" x="277.62" y="-110.98" font-family="Arial" font-weight="bold" font-size="20.00" fill="blue">Attacker: 10.0.254.31</text>
</g>
<!-- VULNERABILTY DISCOVERY
ms&#45;sql&#45;s -->
<g id="node5" class="node">
<title>VULNERABILTY DISCOVERY
ms&#45;sql&#45;s</title>
<g id="a_node5"><a xlink:title="ET POLICY Suspicious inbound to mySQL port 3306&#10;ET POLICY Suspicious inbound to mSQL port 4333&#10;ET POLICY Suspicious inbound to MSSQL port 1433&#10;ET POLICY Suspicious inbound to Oracle SQL port 1521&#10;ET SCAN Nessus User Agent&#10;ET POLICY Suspicious inbound to PostgreSQL port 5432">
<ellipse fill="none" stroke="black" stroke-width="3" cx="518.12" cy="-403.26" rx="241.25" ry="42.35"/>
<text text-anchor="middle" x="518.12" y="-410.06" font-family="Arial" font-size="24.00">VULNERABILTY DISCOVERY</text>
<text text-anchor="middle" x="518.12" y="-384.06" font-family="Arial" font-size="24.00">ms&#45;sql&#45;s</text>
</a>
</g>
</g>
<!-- SERVICE DISCOVERY
ssh&#45;&gt;VULNERABILTY DISCOVERY
ms&#45;sql&#45;s -->
<g id="edge3" class="edge">
<title>SERVICE DISCOVERY
ssh&#45;&gt;VULNERABILTY DISCOVERY
ms&#45;sql&#45;s</title>
<path fill="none" stroke="blue" stroke-width="5" d="M234.03,-279C231.27,-303.37 232.69,-333.14 250.12,-352.83 259.47,-363.39 278.98,-371.71 303.42,-378.26"/>
<polygon fill="blue" stroke="blue" stroke-width="5" points="302.64,-382.58 313.41,-380.78 304.78,-374.09 302.64,-382.58"/>
<text text-anchor="middle" x="381.62" y="-336.83" font-family="Arial" font-size="20.00" fill="blue">start_next: 04/11/17, 14:01:06</text>
<text text-anchor="middle" x="381.62" y="-314.83" font-family="Arial" font-size="20.00" fill="blue">gap: 1578sec</text>
<text text-anchor="middle" x="381.62" y="-292.83" font-family="Arial" font-size="20.00" fill="blue">end_prev: 04/11/17, 13:34:49</text>
</g>
<!-- ARBITRARY CODE EXECUTION
ssdp | ID: 355 -->
<g id="node6" class="node">
<title>ARBITRARY CODE EXECUTION
ssdp | ID: 355</title>
<g id="a_node6"><a xlink:title="GPL MISC UPnP malformed advertisement">
<polygon fill="none" stroke="black" stroke-width="3" points="513.62,-600.11 138.62,-600.11 138.62,-540.11 513.62,-540.11 513.62,-600.11"/>
<text text-anchor="middle" x="326.12" y="-576.91" font-family="Arial" font-size="24.00">ARBITRARY CODE EXECUTION</text>
<text text-anchor="middle" x="326.12" y="-550.91" font-family="Arial" font-size="24.00">ssdp | ID: 355</text>
</a>
</g>
</g>
<!-- VULNERABILTY DISCOVERY
ms&#45;sql&#45;s&#45;&gt;ARBITRARY CODE EXECUTION
ssdp | ID: 355 -->
<g id="edge4" class="edge">
<title>VULNERABILTY DISCOVERY
ms&#45;sql&#45;s&#45;&gt;ARBITRARY CODE EXECUTION
ssdp | ID: 355</title>
<path fill="none" stroke="blue" stroke-width="5" d="M310.85,-424.95C281.37,-431.93 257.5,-441.24 247.12,-453.69 228.33,-476.21 232.91,-494.03 247.12,-519.69 249.82,-524.55 253.21,-529 257.07,-533.06"/>
<polygon fill="blue" stroke="blue" stroke-width="5" points="254.17,-536.33 264.47,-539.94 260.13,-529.93 254.17,-536.33"/>
<text text-anchor="middle" x="378.62" y="-503.69" font-family="Arial" font-size="20.00" fill="blue">start_next: 04/11/17, 14:03:08</text>
<text text-anchor="middle" x="378.62" y="-481.69" font-family="Arial" font-size="20.00" fill="blue">gap: 51sec</text>
<text text-anchor="middle" x="378.62" y="-459.69" font-family="Arial" font-size="20.00" fill="blue">end_prev: 04/11/17, 14:02:17</text>
</g>
<!-- VULNERABILTY DISCOVERY
ms&#45;sql&#45;s&#45;&gt;ARBITRARY CODE EXECUTION
ssdp | ID: 355 -->
<g id="edge11" class="edge">
<title>VULNERABILTY DISCOVERY
ms&#45;sql&#45;s&#45;&gt;ARBITRARY CODE EXECUTION
ssdp | ID: 355</title>
<path fill="none" stroke="blue" stroke-width="5" d="M519,-445.74C518.72,-474.19 516.36,-508.71 507.12,-519.69 501.98,-525.8 492.15,-531.39 479.62,-536.43"/>
<polygon fill="blue" stroke="blue" stroke-width="5" points="477.89,-532.4 470.05,-540 480.95,-540.6 477.89,-532.4"/>
<text text-anchor="middle" x="650.62" y="-503.69" font-family="Arial" font-size="20.00" fill="blue">start_next: 04/11/17, 16:31:31</text>
<text text-anchor="middle" x="650.62" y="-481.69" font-family="Arial" font-size="20.00" fill="blue">gap: &#45;116sec</text>
<text text-anchor="middle" x="650.62" y="-459.69" font-family="Arial" font-size="20.00" fill="blue">end_prev: 04/11/17, 16:33:27</text>
</g>
<!-- SERVICE DISCOVERY
unknown -->
<g id="node12" class="node">
<title>SERVICE DISCOVERY
unknown</title>
<g id="a_node12"><a xlink:title="ET SCAN Potential SSH Scan&#10;ET SCAN Potential VNC Scan 5900&#45;5920">
<ellipse fill="none" stroke="black" stroke-width="3" cx="793.12" cy="-570.11" rx="189.51" ry="42.35"/>
<text text-anchor="middle" x="793.12" y="-576.91" font-family="Arial" font-size="24.00">SERVICE DISCOVERY</text>
<text text-anchor="middle" x="793.12" y="-550.91" font-family="Arial" font-size="24.00">unknown</text>
</a>
</g>
</g>
<!-- VULNERABILTY DISCOVERY
ms&#45;sql&#45;s&#45;&gt;SERVICE DISCOVERY
unknown -->
<g id="edge17" class="edge">
<title>VULNERABILTY DISCOVERY
ms&#45;sql&#45;s&#45;&gt;SERVICE DISCOVERY
unknown</title>
<path fill="none" stroke="blue" stroke-width="5" d="M720.11,-426.44C748.48,-433.27 771.59,-442.15 782.12,-453.69 797.61,-470.63 801.48,-495.38 801.01,-517.63"/>
<polygon fill="blue" stroke="blue" stroke-width="5" points="796.64,-517.43 800.52,-527.63 805.38,-517.86 796.64,-517.43"/>
<text text-anchor="middle" x="932.62" y="-503.69" font-family="Arial" font-size="20.00" fill="blue">start_next: 04/11/17, 18:01:39</text>
<text text-anchor="middle" x="932.62" y="-481.69" font-family="Arial" font-size="20.00" fill="blue">gap: 40sec</text>
<text text-anchor="middle" x="932.62" y="-459.69" font-family="Arial" font-size="20.00" fill="blue">end_prev: 04/11/17, 18:00:59</text>
</g>
<!-- REMOTE SERVICE EXPLOIT
snmp | ID: 52 -->
<g id="node7" class="node">
<title>REMOTE SERVICE EXPLOIT
snmp | ID: 52</title>
<g id="a_node7"><a xlink:title="ET SNMP Samsung Printer SNMP Hardcode RW Community String">
<polygon fill="none" stroke="black" stroke-width="3" points="466.12,-773.53 128.12,-773.53 128.12,-713.53 466.12,-713.53 466.12,-773.53"/>
<text text-anchor="middle" x="297.12" y="-750.33" font-family="Arial" font-size="24.00">REMOTE SERVICE EXPLOIT</text>
<text text-anchor="middle" x="297.12" y="-724.33" font-family="Arial" font-size="24.00">snmp | ID: 52</text>
</a>
</g>
</g>
<!-- ARBITRARY CODE EXECUTION
ssdp | ID: 355&#45;&gt;REMOTE SERVICE EXPLOIT
snmp | ID: 52 -->
<g id="edge5" class="edge">
<title>ARBITRARY CODE EXECUTION
ssdp | ID: 355&#45;&gt;REMOTE SERVICE EXPLOIT
snmp | ID: 52</title>
<path fill="none" stroke="blue" stroke-width="5" d="M213.56,-600.23C205.68,-605.85 198.68,-612.55 193.12,-620.54 176.38,-644.62 178.08,-661.36 193.12,-686.54 197.87,-694.49 204.18,-701.38 211.36,-707.33"/>
<polygon fill="blue" stroke="blue" stroke-width="5" points="208.83,-710.9 219.45,-713.43 214.09,-703.91 208.83,-710.9"/>
<text text-anchor="middle" x="324.62" y="-670.54" font-family="Arial" font-size="20.00" fill="blue">start_next: 04/11/17, 14:03:40</text>
<text text-anchor="middle" x="324.62" y="-648.54" font-family="Arial" font-size="20.00" fill="blue">gap: 22sec</text>
<text text-anchor="middle" x="324.62" y="-626.54" font-family="Arial" font-size="20.00" fill="blue">end_prev: 04/11/17, 14:03:18</text>
</g>
<!-- ARBITRARY CODE EXECUTION
ssdp | ID: 355&#45;&gt;REMOTE SERVICE EXPLOIT
snmp | ID: 52 -->
<g id="edge12" class="edge">
<title>ARBITRARY CODE EXECUTION
ssdp | ID: 355&#45;&gt;REMOTE SERVICE EXPLOIT
snmp | ID: 52</title>
<path fill="none" stroke="blue" stroke-width="5" d="M432.81,-600.2C440.67,-605.82 447.65,-612.53 453.12,-620.54 469.68,-644.75 470,-662.55 453.12,-686.54 447.47,-694.57 440.55,-701.46 432.8,-707.37"/>
<polygon fill="blue" stroke="blue" stroke-width="5" points="429.82,-704.11 424.08,-713.4 434.8,-711.3 429.82,-704.11"/>
<text text-anchor="middle" x="597.62" y="-670.54" font-family="Arial" font-size="20.00" fill="blue">start_next: 04/11/17, 16:32:03</text>
<text text-anchor="middle" x="597.62" y="-648.54" font-family="Arial" font-size="20.00" fill="blue">gap: 22sec</text>
<text text-anchor="middle" x="597.62" y="-626.54" font-family="Arial" font-size="20.00" fill="blue">end_prev: 04/11/17, 16:31:41</text>
</g>
<!-- INFO DISCOVERY
xdmcp -->
<g id="node8" class="node">
<title>INFO DISCOVERY
xdmcp</title>
<g id="a_node8"><a xlink:title="GPL WEB_SERVER mod_gzip_status access&#10;GPL RPC xdmcp info query">
<ellipse fill="none" stroke="black" stroke-width="3" cx="518.12" cy="-916.94" rx="156.04" ry="42.35"/>
<text text-anchor="middle" x="518.12" y="-923.74" font-family="Arial" font-size="24.00">INFO DISCOVERY</text>
<text text-anchor="middle" x="518.12" y="-897.74" font-family="Arial" font-size="24.00">xdmcp</text>
</a>
</g>
</g>
<!-- REMOTE SERVICE EXPLOIT
snmp | ID: 52&#45;&gt;INFO DISCOVERY
xdmcp -->
<g id="edge6" class="edge">
<title>REMOTE SERVICE EXPLOIT
snmp | ID: 52&#45;&gt;INFO DISCOVERY
xdmcp</title>
<path fill="none" stroke="blue" stroke-width="5" d="M263.99,-773.72C257.12,-781.66 250.84,-790.78 247.12,-800.52 236.67,-827.92 228.33,-843.99 247.12,-866.52 262.63,-885.11 308.26,-896.73 357.77,-903.98"/>
<polygon fill="blue" stroke="blue" stroke-width="5" points="357.2,-908.32 367.71,-905.37 358.41,-899.65 357.2,-908.32"/>
<text text-anchor="middle" x="378.62" y="-850.52" font-family="Arial" font-size="20.00" fill="blue">start_next: 04/11/17, 14:03:41</text>
<text text-anchor="middle" x="378.62" y="-828.52" font-family="Arial" font-size="20.00" fill="blue">gap: 1sec</text>
<text text-anchor="middle" x="378.62" y="-806.52" font-family="Arial" font-size="20.00" fill="blue">end_prev: 04/11/17, 14:03:40</text>
</g>
<!-- REMOTE SERVICE EXPLOIT
snmp | ID: 52&#45;&gt;INFO DISCOVERY
xdmcp -->
<g id="edge13" class="edge">
<title>REMOTE SERVICE EXPLOIT
snmp | ID: 52&#45;&gt;INFO DISCOVERY
xdmcp</title>
<path fill="none" stroke="blue" stroke-width="5" d="M452.77,-773.58C477.75,-781.13 498.31,-790.12 507.12,-800.52 515.31,-810.18 518.1,-838.22 518.83,-864.24"/>
<polygon fill="blue" stroke="blue" stroke-width="5" points="514.46,-864.53 519.02,-874.45 523.21,-864.37 514.46,-864.53"/>
<text text-anchor="middle" x="650.62" y="-850.52" font-family="Arial" font-size="20.00" fill="blue">start_next: 04/11/17, 16:32:05</text>
<text text-anchor="middle" x="650.62" y="-828.52" font-family="Arial" font-size="20.00" fill="blue">gap: 2sec</text>
<text text-anchor="middle" x="650.62" y="-806.52" font-family="Arial" font-size="20.00" fill="blue">end_prev: 04/11/17, 16:32:03</text>
</g>
<!-- ACCOUNT MANIPULATION
snmp | ID: 53 -->
<g id="node9" class="node">
<title>ACCOUNT MANIPULATION
snmp | ID: 53</title>
<g id="a_node9"><a xlink:title="GPL SNMP private access udp&#10;GPL SNMP public access udp">
<polygon fill="none" stroke="black" stroke-width="3" points="678.12,-1101.37 358.12,-1101.37 358.12,-1041.37 678.12,-1041.37 678.12,-1101.37"/>
<text text-anchor="middle" x="518.12" y="-1078.17" font-family="Arial" font-size="24.00">ACCOUNT MANIPULATION</text>
<text text-anchor="middle" x="518.12" y="-1052.17" font-family="Arial" font-size="24.00">snmp | ID: 53</text>
</a>
</g>
</g>
<!-- INFO DISCOVERY
xdmcp&#45;&gt;ACCOUNT MANIPULATION
snmp | ID: 53 -->
<g id="edge7" class="edge">
<title>INFO DISCOVERY
xdmcp&#45;&gt;ACCOUNT MANIPULATION
snmp | ID: 53</title>
<path fill="none" stroke="blue" stroke-width="5" d="M367.71,-928.52C314.48,-935.64 263.67,-947.54 247.12,-967.37 228.33,-989.9 227.84,-1011.27 247.12,-1033.37 261.85,-1050.24 302.52,-1059.71 348.01,-1064.93"/>
<polygon fill="blue" stroke="blue" stroke-width="5" points="347.68,-1069.29 358.09,-1066.01 348.62,-1060.59 347.68,-1069.29"/>
<text text-anchor="middle" x="378.62" y="-1017.37" font-family="Arial" font-size="20.00" fill="blue">start_next: 04/11/17, 14:04:35</text>
<text text-anchor="middle" x="378.62" y="-995.37" font-family="Arial" font-size="20.00" fill="blue">gap: &#45;59sec</text>
<text text-anchor="middle" x="378.62" y="-973.37" font-family="Arial" font-size="20.00" fill="blue">end_prev: 04/11/17, 14:05:34</text>
</g>
<!-- INFO DISCOVERY
xdmcp&#45;&gt;ACCOUNT MANIPULATION
snmp | ID: 53 -->
<g id="edge14" class="edge">
<title>INFO DISCOVERY
xdmcp&#45;&gt;ACCOUNT MANIPULATION
snmp | ID: 53</title>
<path fill="none" stroke="blue" stroke-width="5" d="M518.12,-959.6C518.12,-981.87 518.12,-1009.13 518.12,-1031.04"/>
<polygon fill="blue" stroke="blue" stroke-width="5" points="513.75,-1031.32 518.12,-1041.32 522.5,-1031.32 513.75,-1031.32"/>
<text text-anchor="middle" x="649.62" y="-1017.37" font-family="Arial" font-size="20.00" fill="blue">start_next: 04/11/17, 16:33:04</text>
<text text-anchor="middle" x="649.62" y="-995.37" font-family="Arial" font-size="20.00" fill="blue">gap: &#45;25sec</text>
<text text-anchor="middle" x="649.62" y="-973.37" font-family="Arial" font-size="20.00" fill="blue">end_prev: 04/11/17, 16:33:28</text>
</g>
<!-- INFO DISCOVERY
xdmcp&#45;&gt;ACCOUNT MANIPULATION
snmp | ID: 53 -->
<g id="edge20" class="edge">
<title>INFO DISCOVERY
xdmcp&#45;&gt;ACCOUNT MANIPULATION
snmp | ID: 53</title>
<path fill="none" stroke="blue" stroke-width="5" d="M667.56,-929.38C718.36,-936.61 766.34,-948.36 782.12,-967.37 800.86,-989.94 801.37,-1011.24 782.12,-1033.37 768.28,-1049.29 730.83,-1058.56 688.33,-1063.9"/>
<polygon fill="blue" stroke="blue" stroke-width="5" points="687.74,-1059.57 678.32,-1065.08 688.76,-1068.26 687.74,-1059.57"/>
<text text-anchor="middle" x="928.62" y="-1017.37" font-family="Arial" font-size="20.00" fill="blue">start_next: 04/11/17, 18:04:03</text>
<text text-anchor="middle" x="928.62" y="-995.37" font-family="Arial" font-size="20.00" fill="blue">gap: 46sec</text>
<text text-anchor="middle" x="928.62" y="-973.37" font-family="Arial" font-size="20.00" fill="blue">end_prev: 04/11/17, 18:03:18</text>
</g>
<!-- ACCOUNT MANIPULATION
snmp | ID: 53&#45;&gt;DATA DELIVERY
http | ID: 246 -->
<g id="edge8" class="edge">
<title>ACCOUNT MANIPULATION
snmp | ID: 53&#45;&gt;DATA DELIVERY
http | ID: 246</title>
<path fill="none" stroke="blue" stroke-width="5" d="M358.09,-1076.73C308.63,-1081.69 262.93,-1091.26 247.12,-1109.37 227.84,-1131.47 228.6,-1152.63 247.12,-1175.37 263.51,-1195.49 314.32,-1208.6 367.59,-1217.03"/>
<polygon fill="blue" stroke="blue" stroke-width="5" points="367.01,-1221.37 377.56,-1218.55 368.33,-1212.72 367.01,-1221.37"/>
<text text-anchor="middle" x="378.62" y="-1159.37" font-family="Arial" font-size="20.00" fill="blue">start_next: 04/11/17, 14:05:37</text>
<text text-anchor="middle" x="378.62" y="-1137.37" font-family="Arial" font-size="20.00" fill="blue">gap: 33sec</text>
<text text-anchor="middle" x="378.62" y="-1115.37" font-family="Arial" font-size="20.00" fill="blue">end_prev: 04/11/17, 14:05:04</text>
</g>
<!-- ACCOUNT MANIPULATION
snmp | ID: 53&#45;&gt;DATA DELIVERY
http | ID: 246 -->
<g id="edge15" class="edge">
<title>ACCOUNT MANIPULATION
snmp | ID: 53&#45;&gt;DATA DELIVERY
http | ID: 246</title>
<path fill="none" stroke="blue" stroke-width="5" d="M518.12,-1101.53C518.12,-1121.53 518.12,-1148.76 518.12,-1173.11"/>
<polygon fill="blue" stroke="blue" stroke-width="5" points="513.75,-1173.34 518.12,-1183.34 522.5,-1173.34 513.75,-1173.34"/>
<text text-anchor="middle" x="649.62" y="-1159.37" font-family="Arial" font-size="20.00" fill="blue">start_next: 04/11/17, 16:33:31</text>
<text text-anchor="middle" x="649.62" y="-1137.37" font-family="Arial" font-size="20.00" fill="blue">gap: 15sec</text>
<text text-anchor="middle" x="649.62" y="-1115.37" font-family="Arial" font-size="20.00" fill="blue">end_prev: 04/11/17, 16:33:16</text>
</g>
<!-- ACCOUNT MANIPULATION
snmp | ID: 53&#45;&gt;DATA DELIVERY
http | ID: 246 -->
<g id="edge21" class="edge">
<title>ACCOUNT MANIPULATION
snmp | ID: 53&#45;&gt;DATA DELIVERY
http | ID: 246</title>
<path fill="none" stroke="blue" stroke-width="5" d="M678.32,-1077.66C724.85,-1082.78 767.2,-1092.21 782.12,-1109.37 801.37,-1131.5 800.59,-1152.58 782.12,-1175.37 766.43,-1194.74 718.19,-1207.68 667.15,-1216.19"/>
<polygon fill="blue" stroke="blue" stroke-width="5" points="666.44,-1211.87 657.26,-1217.78 667.83,-1220.51 666.44,-1211.87"/>
<text text-anchor="middle" x="928.62" y="-1159.37" font-family="Arial" font-size="20.00" fill="blue">start_next: 04/11/17, 18:04:41</text>
<text text-anchor="middle" x="928.62" y="-1137.37" font-family="Arial" font-size="20.00" fill="blue">gap: 30sec</text>
<text text-anchor="middle" x="928.62" y="-1115.37" font-family="Arial" font-size="20.00" fill="blue">end_prev: 04/11/17, 18:04:11</text>
</g>
<!-- DATA EXFILTRATION
http | ID: 26 -->
<g id="node10" class="node">
<title>DATA EXFILTRATION
http | ID: 26</title>
<g id="a_node10"><a xlink:title="ET WEB_SPECIFIC_APPS PHP&#45;CGI query string parameter vulnerability">
<polygon fill="yellow" stroke="black" stroke-width="3" points="1043,-48.99 940.56,-97.97 735.68,-97.97 633.24,-48.99 735.68,-0.01 940.56,-0.01 1043,-48.99"/>
<text text-anchor="middle" x="838.12" y="-55.79" font-family="Arial" font-size="24.00">DATA EXFILTRATION</text>
<text text-anchor="middle" x="838.12" y="-29.79" font-family="Arial" font-size="24.00">http | ID: 26</text>
</a>
</g>
</g>
<!-- DATA EXFILTRATION
http | ID: 26&#45;&gt;VULNERABILTY DISCOVERY
ms&#45;sql&#45;s -->
<g id="edge16" class="edge">
<title>DATA EXFILTRATION
http | ID: 26&#45;&gt;VULNERABILTY DISCOVERY
ms&#45;sql&#45;s</title>
<path fill="none" stroke="blue" stroke-width="5" d="M695.29,-78.7C631.08,-99.43 561.1,-134.65 522.12,-193.98 513.74,-206.74 514.68,-293.29 516.28,-350.73"/>
<polygon fill="blue" stroke="blue" stroke-width="5" points="511.91,-350.87 516.58,-360.74 520.66,-350.61 511.91,-350.87"/>
<text text-anchor="start" x="522.12" y="-261.41" font-family="Arial" font-size="20.00" fill="blue"> start_next: 04/11/17, 18:00:55</text>
<text text-anchor="start" x="595.62" y="-241.41" font-family="Arial" font-size="20.00" fill="blue">gap: 5237sec</text>
<text text-anchor="start" x="526.12" y="-221.41" font-family="Arial" font-size="20.00" fill="blue">end_prev: 04/11/17, 16:33:38</text>
<text text-anchor="start" x="556.62" y="-201.41" font-family="Arial" font-weight="bold" font-size="20.00" fill="blue">Attacker: 10.0.254.31</text>
</g>
<!-- SERVICE DISCOVERY
spt&#45;automation -->
<g id="node11" class="node">
<title>SERVICE DISCOVERY
spt&#45;automation</title>
<g id="a_node11"><a xlink:title="ET SCAN Potential VNC Scan 5800&#45;5820&#10;ET SCAN Potential SSH Scan">
<ellipse fill="none" stroke="black" stroke-width="3" cx="983.12" cy="-236.41" rx="189.51" ry="42.35"/>
<text text-anchor="middle" x="983.12" y="-243.21" font-family="Arial" font-size="24.00">SERVICE DISCOVERY</text>
<text text-anchor="middle" x="983.12" y="-217.21" font-family="Arial" font-size="24.00">spt&#45;automation</text>
</a>
</g>
</g>
<!-- DATA EXFILTRATION
http | ID: 26&#45;&gt;SERVICE DISCOVERY
spt&#45;automation -->
<g id="edge9" class="edge">
<title>DATA EXFILTRATION
http | ID: 26&#45;&gt;SERVICE DISCOVERY
spt&#45;automation</title>
<path fill="none" stroke="blue" stroke-width="5" d="M875.84,-98.22C896.98,-125.25 923.29,-158.9 944.57,-186.1"/>
<polygon fill="blue" stroke="blue" stroke-width="5" points="941.39,-189.14 951,-194.33 948.28,-183.75 941.39,-189.14"/>
<text text-anchor="start" x="944.12" y="-170.98" font-family="Arial" font-size="20.00" fill="blue"> start_next: 04/11/17, 16:29:32</text>
<text text-anchor="start" x="1017.62" y="-150.98" font-family="Arial" font-size="20.00" fill="blue">gap: 8632sec</text>
<text text-anchor="start" x="948.12" y="-130.98" font-family="Arial" font-size="20.00" fill="blue">end_prev: 04/11/17, 14:05:39</text>
<text text-anchor="start" x="978.62" y="-110.98" font-family="Arial" font-weight="bold" font-size="20.00" fill="blue">Attacker: 10.0.254.31</text>
</g>
<!-- SERVICE DISCOVERY
spt&#45;automation&#45;&gt;VULNERABILTY DISCOVERY
ms&#45;sql&#45;s -->
<g id="edge10" class="edge">
<title>SERVICE DISCOVERY
spt&#45;automation&#45;&gt;VULNERABILTY DISCOVERY
ms&#45;sql&#45;s</title>
<path fill="none" stroke="blue" stroke-width="5" d="M883.94,-272.57C810.4,-298.64 709.98,-334.24 632.96,-361.55"/>
<polygon fill="blue" stroke="blue" stroke-width="5" points="631.18,-357.54 623.21,-365 634.1,-365.78 631.18,-357.54"/>
<text text-anchor="middle" x="963.62" y="-336.83" font-family="Arial" font-size="20.00" fill="blue">start_next: 04/11/17, 16:29:55</text>
<text text-anchor="middle" x="963.62" y="-314.83" font-family="Arial" font-size="20.00" fill="blue">gap: &#45;30sec</text>
<text text-anchor="middle" x="963.62" y="-292.83" font-family="Arial" font-size="20.00" fill="blue">end_prev: 04/11/17, 16:30:24</text>
</g>
<!-- NETWORK DoS
ssdp | ID: 55 -->
<g id="node13" class="node">
<title>NETWORK DoS
ssdp | ID: 55</title>
<g id="a_node13"><a xlink:title="ET DOS Possible SSDP Amplification Scan in Progress">
<polygon fill="none" stroke="black" stroke-width="3" points="949.66,-743.53 871.39,-792.51 714.86,-792.51 636.59,-743.53 714.86,-694.55 871.39,-694.55 949.66,-743.53"/>
<text text-anchor="middle" x="793.12" y="-750.33" font-family="Arial" font-size="24.00">NETWORK DoS</text>
<text text-anchor="middle" x="793.12" y="-724.33" font-family="Arial" font-size="24.00">ssdp | ID: 55</text>
</a>
</g>
</g>
<!-- SERVICE DISCOVERY
unknown&#45;&gt;NETWORK DoS
ssdp | ID: 55 -->
<g id="edge18" class="edge">
<title>SERVICE DISCOVERY
unknown&#45;&gt;NETWORK DoS
ssdp | ID: 55</title>
<path fill="none" stroke="blue" stroke-width="5" d="M793.12,-612.61C793.12,-634.1 793.12,-660.7 793.12,-684.22"/>
<polygon fill="blue" stroke="blue" stroke-width="5" points="788.75,-684.43 793.12,-694.43 797.5,-684.43 788.75,-684.43"/>
<text text-anchor="middle" x="924.62" y="-670.54" font-family="Arial" font-size="20.00" fill="blue">start_next: 04/11/17, 18:02:30</text>
<text text-anchor="middle" x="924.62" y="-648.54" font-family="Arial" font-size="20.00" fill="blue">gap: &#45;57sec</text>
<text text-anchor="middle" x="924.62" y="-626.54" font-family="Arial" font-size="20.00" fill="blue">end_prev: 04/11/17, 18:03:27</text>
</g>
<!-- NETWORK DoS
ssdp | ID: 55&#45;&gt;INFO DISCOVERY
xdmcp -->
<g id="edge19" class="edge">
<title>NETWORK DoS
ssdp | ID: 55&#45;&gt;INFO DISCOVERY
xdmcp</title>
<path fill="none" stroke="blue" stroke-width="5" d="M801.49,-792.52C803.02,-817.54 799.93,-846.93 782.12,-866.52 766.6,-883.59 723.63,-894.85 676.75,-902.24"/>
<polygon fill="blue" stroke="blue" stroke-width="5" points="675.93,-897.94 666.7,-903.76 677.24,-906.59 675.93,-897.94"/>
<text text-anchor="middle" x="933.62" y="-850.52" font-family="Arial" font-size="20.00" fill="blue">start_next: 04/11/17, 18:03:14</text>
<text text-anchor="middle" x="933.62" y="-828.52" font-family="Arial" font-size="20.00" fill="blue">gap: 45sec</text>
<text text-anchor="middle" x="933.62" y="-806.52" font-family="Arial" font-size="20.00" fill="blue">end_prev: 04/11/17, 18:02:30</text>
</g>
</g>
</svg>
