<?xml version="1.0" encoding="UTF-8" standalone="no"?>
<!DOCTYPE svg PUBLIC "-//W3C//DTD SVG 1.1//EN"
 "http://www.w3.org/Graphics/SVG/1.1/DTD/svg11.dtd">
<!-- Generated by graphviz version 2.50.0 (0)
 -->
<!-- Title: DATAEXFILTRATIONwsman Pages: 1 -->
<svg width="1482pt" height="1925pt"
 viewBox="0.00 0.00 1482.12 1924.85" xmlns="http://www.w3.org/2000/svg" xmlns:xlink="http://www.w3.org/1999/xlink">
<g id="graph0" class="graph" transform="scale(1 1) rotate(0) translate(4 1920.85)">
<title>DATAEXFILTRATIONwsman</title>
<polygon fill="white" stroke="transparent" points="-4,4 -4,-1920.85 1478.12,-1920.85 1478.12,4 -4,4"/>
<!-- Victim: 10.0.0.222
DATA EXFILTRATION
wsman -->
<g id="node1" class="node">
<title>Victim: 10.0.0.222
DATA EXFILTRATION
wsman</title>
<polygon fill="salmon" stroke="black" stroke-width="3" points="981.34,-1819.83 981.34,-1874.22 868.74,-1912.68 709.51,-1912.68 596.91,-1874.22 596.91,-1819.83 709.51,-1781.37 868.74,-1781.37 981.34,-1819.83"/>
<polygon fill="none" stroke="black" stroke-width="3" points="985.34,-1816.98 985.34,-1877.07 869.41,-1916.67 708.84,-1916.67 592.91,-1877.07 592.91,-1816.98 708.84,-1777.38 869.41,-1777.38 985.34,-1816.98"/>
<text text-anchor="middle" x="789.12" y="-1866.82" font-family="Arial" font-size="24.00">Victim: 10.0.0.222</text>
<text text-anchor="middle" x="789.12" y="-1840.82" font-family="Arial" font-size="24.00">DATA EXFILTRATION</text>
<text text-anchor="middle" x="789.12" y="-1814.82" font-family="Arial" font-size="24.00">wsman</text>
</g>
<!-- DATA EXFILTRATION
wsman | ID: 63 -->
<g id="node2" class="node">
<title>DATA EXFILTRATION
wsman | ID: 63</title>
<g id="a_node2"><a xlink:title="ET WEB_SPECIFIC_APPS PHP&#45;CGI query string parameter vulnerability">
<polygon fill="salmon" stroke="black" stroke-width="3" points="994,-1711.21 891.56,-1760.19 686.68,-1760.19 584.24,-1711.21 686.68,-1662.23 891.56,-1662.23 994,-1711.21"/>
<text text-anchor="middle" x="789.12" y="-1718.01" font-family="Arial" font-size="24.00">DATA EXFILTRATION</text>
<text text-anchor="middle" x="789.12" y="-1692.01" font-family="Arial" font-size="24.00">wsman | ID: 63</text>
</a>
</g>
</g>
<!-- DATA EXFILTRATION
wsman | ID: 63&#45;&gt;Victim: 10.0.0.222
DATA EXFILTRATION
wsman -->
<g id="edge1" class="edge">
<title>DATA EXFILTRATION
wsman | ID: 63&#45;&gt;Victim: 10.0.0.222
DATA EXFILTRATION
wsman</title>
<path fill="none" stroke="black" stroke-width="5" d="M789.12,-1760.52C789.12,-1762.63 789.12,-1764.76 789.12,-1766.91"/>
<polygon fill="black" stroke="black" stroke-width="5" points="784.75,-1767.06 789.12,-1777.06 793.5,-1767.06 784.75,-1767.06"/>
</g>
<!-- VULNERABILTY DISCOVERY
ncube&#45;lm -->
<g id="node3" class="node">
<title>VULNERABILTY DISCOVERY
ncube&#45;lm</title>
<g id="a_node3"><a xlink:title="ET POLICY Suspicious inbound to Oracle SQL port 1521&#10;ET POLICY Suspicious inbound to mSQL port 4333">
<ellipse fill="yellow" stroke="black" stroke-width="3" cx="457.12" cy="-42.43" rx="241.25" ry="42.35"/>
<text text-anchor="middle" x="457.12" y="-49.23" font-family="Arial" font-size="24.00">VULNERABILTY DISCOVERY</text>
<text text-anchor="middle" x="457.12" y="-23.23" font-family="Arial" font-size="24.00">ncube&#45;lm</text>
</a>
</g>
</g>
<!-- SERVICE DISCOVERY
epmap -->
<g id="node4" class="node">
<title>SERVICE DISCOVERY
epmap</title>
<g id="a_node4"><a xlink:title="ET SCAN Behavioral Unusual Port 135 traffic Potential Scan or Infection">
<ellipse fill="none" stroke="black" stroke-width="3" cx="264.12" cy="-223.28" rx="189.51" ry="42.35"/>
<text text-anchor="middle" x="264.12" y="-230.08" font-family="Arial" font-size="24.00">SERVICE DISCOVERY</text>
<text text-anchor="middle" x="264.12" y="-204.08" font-family="Arial" font-size="24.00">epmap</text>
</a>
</g>
</g>
<!-- VULNERABILTY DISCOVERY
ncube&#45;lm&#45;&gt;SERVICE DISCOVERY
epmap -->
<g id="edge2" class="edge">
<title>VULNERABILTY DISCOVERY
ncube&#45;lm&#45;&gt;SERVICE DISCOVERY
epmap</title>
<path fill="none" stroke="blue" stroke-width="5" d="M362.15,-81.56C356.86,-85.06 351.8,-88.82 347.12,-92.85 322.07,-114.45 301.83,-145.45 287.61,-171.7"/>
<polygon fill="blue" stroke="blue" stroke-width="5" points="283.62,-169.88 282.83,-180.77 291.36,-173.96 283.62,-169.88"/>
<text text-anchor="start" x="347.12" y="-157.85" font-family="Arial" font-size="20.00" fill="blue"> start_next: 04/11/17, 13:35:02</text>
<text text-anchor="start" x="421.62" y="-137.85" font-family="Arial" font-size="20.00" fill="blue">gap: 2011sec</text>
<text text-anchor="start" x="351.12" y="-117.85" font-family="Arial" font-size="20.00" fill="blue">end_prev: 04/11/17, 13:01:31</text>
<text text-anchor="start" x="381.62" y="-97.85" font-family="Arial" font-weight="bold" font-size="20.00" fill="blue">Attacker: 10.0.254.31</text>
</g>
<!-- SERVICE DISCOVERY
unknown -->
<g id="node13" class="node">
<title>SERVICE DISCOVERY
unknown</title>
<g id="a_node13"><a xlink:title="ET SCAN Potential VNC Scan 5900&#45;5920">
<ellipse fill="none" stroke="black" stroke-width="3" cx="650.12" cy="-223.28" rx="189.51" ry="42.35"/>
<text text-anchor="middle" x="650.12" y="-230.08" font-family="Arial" font-size="24.00">SERVICE DISCOVERY</text>
<text text-anchor="middle" x="650.12" y="-204.08" font-family="Arial" font-size="24.00">unknown</text>
</a>
</g>
</g>
<!-- VULNERABILTY DISCOVERY
ncube&#45;lm&#45;&gt;SERVICE DISCOVERY
unknown -->
<g id="edge12" class="edge">
<title>VULNERABILTY DISCOVERY
ncube&#45;lm&#45;&gt;SERVICE DISCOVERY
unknown</title>
<path fill="none" stroke="blue" stroke-width="5" d="M593.46,-77.51C600.2,-82.01 606.5,-87.1 612.12,-92.85 632.28,-113.48 641.84,-144.21 646.33,-170.56"/>
<polygon fill="blue" stroke="blue" stroke-width="5" points="642.05,-171.54 647.86,-180.78 650.71,-170.24 642.05,-171.54"/>
<text text-anchor="start" x="647.12" y="-157.85" font-family="Arial" font-size="20.00" fill="blue"> start_next: 04/11/17, 16:32:37</text>
<text text-anchor="start" x="728.62" y="-137.85" font-family="Arial" font-size="20.00" fill="blue">gap: &#45;22sec</text>
<text text-anchor="start" x="651.12" y="-117.85" font-family="Arial" font-size="20.00" fill="blue">end_prev: 04/11/17, 16:32:59</text>
<text text-anchor="start" x="681.62" y="-97.85" font-family="Arial" font-weight="bold" font-size="20.00" fill="blue">Attacker: 10.0.254.31</text>
</g>
<!-- ACCOUNT MANIPULATION
snmp | ID: 326 -->
<g id="node5" class="node">
<title>ACCOUNT MANIPULATION
snmp | ID: 326</title>
<g id="a_node5"><a xlink:title="GPL SNMP private access udp&#10;GPL SNMP public access udp">
<polygon fill="none" stroke="black" stroke-width="3" stroke-dasharray="1,5" points="423.12,-407.71 103.12,-407.71 103.12,-347.71 423.12,-347.71 423.12,-407.71"/>
<text text-anchor="middle" x="263.12" y="-384.51" font-family="Arial" font-size="24.00">ACCOUNT MANIPULATION</text>
<text text-anchor="middle" x="263.12" y="-358.51" font-family="Arial" font-size="24.00">snmp | ID: 326</text>
</a>
</g>
</g>
<!-- SERVICE DISCOVERY
epmap&#45;&gt;ACCOUNT MANIPULATION
snmp | ID: 326 -->
<g id="edge3" class="edge">
<title>SERVICE DISCOVERY
epmap&#45;&gt;ACCOUNT MANIPULATION
snmp | ID: 326</title>
<path fill="none" stroke="blue" stroke-width="5" d="M263.85,-265.93C263.7,-288.2 263.53,-315.47 263.38,-337.38"/>
<polygon fill="blue" stroke="blue" stroke-width="5" points="259,-337.63 263.31,-347.65 267.75,-337.68 259,-337.63"/>
<text text-anchor="middle" x="395.12" y="-323.71" font-family="Arial" font-size="20.00" fill="blue">start_next: 04/11/17, 14:02:11</text>
<text text-anchor="middle" x="395.12" y="-301.71" font-family="Arial" font-size="20.00" fill="blue">gap: 1629sec</text>
<text text-anchor="middle" x="395.12" y="-279.71" font-family="Arial" font-size="20.00" fill="blue">end_prev: 04/11/17, 13:35:02</text>
</g>
<!-- ARBITRARY CODE EXECUTION
microsoft&#45;ds | ID: 40 -->
<g id="node6" class="node">
<title>ARBITRARY CODE EXECUTION
microsoft&#45;ds | ID: 40</title>
<g id="a_node6"><a xlink:title="GPL NETBIOS DCERPC Remote Activation bind attempt&#10;GPL NETBIOS SMB&#45;DS Session Setup NTMLSSP unicode asn1 overflow attempt&#10;GPL NETBIOS DCERPC IActivation little endian bind attempt">
<polygon fill="none" stroke="black" stroke-width="3" points="446.62,-549.71 71.62,-549.71 71.62,-489.71 446.62,-489.71 446.62,-549.71"/>
<text text-anchor="middle" x="259.12" y="-526.51" font-family="Arial" font-size="24.00">ARBITRARY CODE EXECUTION</text>
<text text-anchor="middle" x="259.12" y="-500.51" font-family="Arial" font-size="24.00">microsoft&#45;ds | ID: 40</text>
</a>
</g>
</g>
<!-- ACCOUNT MANIPULATION
snmp | ID: 326&#45;&gt;ARBITRARY CODE EXECUTION
microsoft&#45;ds | ID: 40 -->
<g id="edge4" class="edge">
<title>ACCOUNT MANIPULATION
snmp | ID: 326&#45;&gt;ARBITRARY CODE EXECUTION
microsoft&#45;ds | ID: 40</title>
<path fill="none" stroke="blue" stroke-width="5" d="M262.29,-407.71C261.7,-428.41 260.9,-456.49 260.25,-479.23"/>
<polygon fill="blue" stroke="blue" stroke-width="5" points="255.88,-479.13 259.96,-489.25 264.62,-479.38 255.88,-479.13"/>
<text text-anchor="middle" x="393.62" y="-465.71" font-family="Arial" font-size="20.00" fill="blue">start_next: 04/11/17, 14:02:19</text>
<text text-anchor="middle" x="393.62" y="-443.71" font-family="Arial" font-size="20.00" fill="blue">gap: &#45;225sec</text>
<text text-anchor="middle" x="393.62" y="-421.71" font-family="Arial" font-size="20.00" fill="blue">end_prev: 04/11/17, 14:06:04</text>
</g>
<!-- VULNERABILTY DISCOVERY
ms&#45;sql&#45;s -->
<g id="node7" class="node">
<title>VULNERABILTY DISCOVERY
ms&#45;sql&#45;s</title>
<g id="a_node7"><a xlink:title="ET POLICY Suspicious inbound to MSSQL port 1433&#10;ET POLICY Suspicious inbound to mySQL port 3306&#10;ET POLICY Suspicious inbound to mSQL port 4333">
<ellipse fill="none" stroke="black" stroke-width="3" cx="241.12" cy="-674.13" rx="241.25" ry="42.35"/>
<text text-anchor="middle" x="241.12" y="-680.93" font-family="Arial" font-size="24.00">VULNERABILTY DISCOVERY</text>
<text text-anchor="middle" x="241.12" y="-654.93" font-family="Arial" font-size="24.00">ms&#45;sql&#45;s</text>
</a>
</g>
</g>
<!-- ARBITRARY CODE EXECUTION
microsoft&#45;ds | ID: 40&#45;&gt;VULNERABILTY DISCOVERY
ms&#45;sql&#45;s -->
<g id="edge5" class="edge">
<title>ARBITRARY CODE EXECUTION
microsoft&#45;ds | ID: 40&#45;&gt;VULNERABILTY DISCOVERY
ms&#45;sql&#45;s</title>
<path fill="none" stroke="blue" stroke-width="5" d="M255.7,-549.73C253.3,-569.99 250.05,-597.58 247.22,-621.53"/>
<polygon fill="blue" stroke="blue" stroke-width="5" points="242.86,-621.1 246.03,-631.54 251.55,-622.12 242.86,-621.1"/>
<text text-anchor="middle" x="386.62" y="-607.71" font-family="Arial" font-size="20.00" fill="blue">start_next: 04/11/17, 14:03:07</text>
<text text-anchor="middle" x="386.62" y="-585.71" font-family="Arial" font-size="20.00" fill="blue">gap: &#45;220sec</text>
<text text-anchor="middle" x="386.62" y="-563.71" font-family="Arial" font-size="20.00" fill="blue">end_prev: 04/11/17, 14:06:47</text>
</g>
<!-- SERVICE DISCOVERY
microsoft&#45;ds -->
<g id="node8" class="node">
<title>SERVICE DISCOVERY
microsoft&#45;ds</title>
<g id="a_node8"><a xlink:title="ET SCAN Behavioral Unusual Port 445 traffic Potential Scan or Infection">
<ellipse fill="none" stroke="black" stroke-width="3" cx="235.12" cy="-840.98" rx="189.51" ry="42.35"/>
<text text-anchor="middle" x="235.12" y="-847.78" font-family="Arial" font-size="24.00">SERVICE DISCOVERY</text>
<text text-anchor="middle" x="235.12" y="-821.78" font-family="Arial" font-size="24.00">microsoft&#45;ds</text>
</a>
</g>
</g>
<!-- VULNERABILTY DISCOVERY
ms&#45;sql&#45;s&#45;&gt;SERVICE DISCOVERY
microsoft&#45;ds -->
<g id="edge6" class="edge">
<title>VULNERABILTY DISCOVERY
ms&#45;sql&#45;s&#45;&gt;SERVICE DISCOVERY
microsoft&#45;ds</title>
<path fill="none" stroke="blue" stroke-width="5" d="M239.61,-716.73C238.82,-738.4 237.85,-765.11 237.01,-788.12"/>
<polygon fill="blue" stroke="blue" stroke-width="5" points="232.63,-788.25 236.64,-798.4 241.37,-788.56 232.63,-788.25"/>
<text text-anchor="middle" x="371.62" y="-774.56" font-family="Arial" font-size="20.00" fill="blue">start_next: 04/11/17, 14:04:50</text>
<text text-anchor="middle" x="371.62" y="-752.56" font-family="Arial" font-size="20.00" fill="blue">gap: 31sec</text>
<text text-anchor="middle" x="371.62" y="-730.56" font-family="Arial" font-size="20.00" fill="blue">end_prev: 04/11/17, 14:04:19</text>
</g>
<!-- REMOTE SERVICE EXPLOIT
snmp | ID: 299 -->
<g id="node9" class="node">
<title>REMOTE SERVICE EXPLOIT
snmp | ID: 299</title>
<g id="a_node9"><a xlink:title="ET SNMP Samsung Printer SNMP Hardcode RW Community String">
<polygon fill="none" stroke="black" stroke-width="3" points="397.12,-1025.41 59.12,-1025.41 59.12,-965.41 397.12,-965.41 397.12,-1025.41"/>
<text text-anchor="middle" x="228.12" y="-1002.21" font-family="Arial" font-size="24.00">REMOTE SERVICE EXPLOIT</text>
<text text-anchor="middle" x="228.12" y="-976.21" font-family="Arial" font-size="24.00">snmp | ID: 299</text>
</a>
</g>
</g>
<!-- SERVICE DISCOVERY
microsoft&#45;ds&#45;&gt;REMOTE SERVICE EXPLOIT
snmp | ID: 299 -->
<g id="edge7" class="edge">
<title>SERVICE DISCOVERY
microsoft&#45;ds&#45;&gt;REMOTE SERVICE EXPLOIT
snmp | ID: 299</title>
<path fill="none" stroke="blue" stroke-width="5" d="M227.92,-883.46C227.6,-886.14 227.33,-888.81 227.12,-891.41 225,-917.79 226.39,-926.42 227.07,-955.22"/>
<polygon fill="blue" stroke="blue" stroke-width="5" points="222.7,-955.41 227.26,-965.33 231.45,-955.25 222.7,-955.41"/>
<text text-anchor="middle" x="358.62" y="-941.41" font-family="Arial" font-size="20.00" fill="blue">start_next: 04/11/17, 14:05:28</text>
<text text-anchor="middle" x="358.62" y="-919.41" font-family="Arial" font-size="20.00" fill="blue">gap: 38sec</text>
<text text-anchor="middle" x="358.62" y="-897.41" font-family="Arial" font-size="20.00" fill="blue">end_prev: 04/11/17, 14:04:50</text>
</g>
<!-- NETWORK DoS
ms&#45;wbt&#45;server | ID: 36 -->
<g id="node10" class="node">
<title>NETWORK DoS
ms&#45;wbt&#45;server | ID: 36</title>
<g id="a_node10"><a xlink:title="ET DOS Microsoft Remote Desktop (RDP) Syn then Reset 30 Second DoS Attempt">
<polygon fill="none" stroke="black" stroke-width="3" points="450.4,-1156.4 346.76,-1205.38 139.48,-1205.38 35.84,-1156.4 139.48,-1107.42 346.76,-1107.42 450.4,-1156.4"/>
<text text-anchor="middle" x="243.12" y="-1163.2" font-family="Arial" font-size="24.00">NETWORK DoS</text>
<text text-anchor="middle" x="243.12" y="-1137.2" font-family="Arial" font-size="24.00">ms&#45;wbt&#45;server | ID: 36</text>
</a>
</g>
</g>
<!-- REMOTE SERVICE EXPLOIT
snmp | ID: 299&#45;&gt;NETWORK DoS
ms&#45;wbt&#45;server | ID: 36 -->
<g id="edge8" class="edge">
<title>REMOTE SERVICE EXPLOIT
snmp | ID: 299&#45;&gt;NETWORK DoS
ms&#45;wbt&#45;server | ID: 36</title>
<path fill="none" stroke="blue" stroke-width="5" d="M230.87,-1025.57C232.76,-1045.57 235.33,-1072.8 237.63,-1097.15"/>
<polygon fill="blue" stroke="blue" stroke-width="5" points="233.3,-1097.84 238.59,-1107.39 242.01,-1097.02 233.3,-1097.84"/>
<text text-anchor="middle" x="369.62" y="-1083.41" font-family="Arial" font-size="20.00" fill="blue">start_next: 04/11/17, 14:05:34</text>
<text text-anchor="middle" x="369.62" y="-1061.41" font-family="Arial" font-size="20.00" fill="blue">gap: 6sec</text>
<text text-anchor="middle" x="369.62" y="-1039.41" font-family="Arial" font-size="20.00" fill="blue">end_prev: 04/11/17, 14:05:28</text>
</g>
<!-- INFO DISCOVERY
wsman -->
<g id="node11" class="node">
<title>INFO DISCOVERY
wsman</title>
<g id="a_node11"><a xlink:title="GPL WEB_SERVER mod_gzip_status access">
<ellipse fill="none" stroke="black" stroke-width="3" cx="301.12" cy="-1343.82" rx="156.04" ry="42.35"/>
<text text-anchor="middle" x="301.12" y="-1350.62" font-family="Arial" font-size="24.00">INFO DISCOVERY</text>
<text text-anchor="middle" x="301.12" y="-1324.62" font-family="Arial" font-size="24.00">wsman</text>
</a>
</g>
</g>
<!-- NETWORK DoS
ms&#45;wbt&#45;server | ID: 36&#45;&gt;INFO DISCOVERY
wsman -->
<g id="edge9" class="edge">
<title>NETWORK DoS
ms&#45;wbt&#45;server | ID: 36&#45;&gt;INFO DISCOVERY
wsman</title>
<path fill="none" stroke="blue" stroke-width="5" d="M258.21,-1205.63C266.49,-1232.1 276.76,-1264.92 285.17,-1291.81"/>
<polygon fill="blue" stroke="blue" stroke-width="5" points="281.02,-1293.19 288.18,-1301.43 289.37,-1290.58 281.02,-1293.19"/>
<text text-anchor="middle" x="417.62" y="-1270.39" font-family="Arial" font-size="20.00" fill="blue">start_next: 04/11/17, 14:06:38</text>
<text text-anchor="middle" x="417.62" y="-1248.39" font-family="Arial" font-size="20.00" fill="blue">gap: 19sec</text>
<text text-anchor="middle" x="417.62" y="-1226.39" font-family="Arial" font-size="20.00" fill="blue">end_prev: 04/11/17, 14:06:20</text>
</g>
<!-- DATA DELIVERY
wsman | ID: 399 -->
<g id="node12" class="node">
<title>DATA DELIVERY
wsman | ID: 399</title>
<g id="a_node12"><a xlink:title="GPL WEB_SERVER perl post attempt">
<polygon fill="none" stroke="black" stroke-width="3" points="815.22,-1531.23 733.67,-1580.21 570.57,-1580.21 489.02,-1531.23 570.57,-1482.25 733.67,-1482.25 815.22,-1531.23"/>
<text text-anchor="middle" x="652.12" y="-1538.03" font-family="Arial" font-size="24.00">DATA DELIVERY</text>
<text text-anchor="middle" x="652.12" y="-1512.03" font-family="Arial" font-size="24.00">wsman | ID: 399</text>
</a>
</g>
</g>
<!-- INFO DISCOVERY
wsman&#45;&gt;DATA DELIVERY
wsman | ID: 399 -->
<g id="edge10" class="edge">
<title>INFO DISCOVERY
wsman&#45;&gt;DATA DELIVERY
wsman | ID: 399</title>
<path fill="none" stroke="blue" stroke-width="5" d="M317.27,-1386.16C330.79,-1415.27 352.91,-1452.74 384.12,-1474.24 416.87,-1496.8 456.84,-1510.6 495.8,-1518.95"/>
<polygon fill="blue" stroke="blue" stroke-width="5" points="495.01,-1523.25 505.68,-1520.95 496.76,-1514.68 495.01,-1523.25"/>
<text text-anchor="middle" x="515.62" y="-1451.24" font-family="Arial" font-size="20.00" fill="blue">start_next: 04/11/17, 14:06:45</text>
<text text-anchor="middle" x="515.62" y="-1429.24" font-family="Arial" font-size="20.00" fill="blue">gap: 7sec</text>
<text text-anchor="middle" x="515.62" y="-1407.24" font-family="Arial" font-size="20.00" fill="blue">end_prev: 04/11/17, 14:06:38</text>
</g>
<!-- DATA DELIVERY
wsman | ID: 399&#45;&gt;DATA EXFILTRATION
wsman | ID: 63 -->
<g id="edge11" class="edge">
<title>DATA DELIVERY
wsman | ID: 399&#45;&gt;DATA EXFILTRATION
wsman | ID: 63</title>
<path fill="none" stroke="blue" stroke-width="5" d="M511.56,-1545.04C454.78,-1553.39 398.53,-1566.85 381.12,-1588.22 362.6,-1610.97 361.84,-1632.12 381.12,-1654.22 408.56,-1685.68 495.83,-1700.09 582.65,-1706.46"/>
<polygon fill="blue" stroke="blue" stroke-width="5" points="582.4,-1710.83 592.68,-1707.16 583.01,-1702.1 582.4,-1710.83"/>
<text text-anchor="middle" x="512.62" y="-1638.22" font-family="Arial" font-size="20.00" fill="blue">start_next: 04/11/17, 14:06:48</text>
<text text-anchor="middle" x="512.62" y="-1616.22" font-family="Arial" font-size="20.00" fill="blue">gap: 3sec</text>
<text text-anchor="middle" x="512.62" y="-1594.22" font-family="Arial" font-size="20.00" fill="blue">end_prev: 04/11/17, 14:06:45</text>
</g>
<!-- DATA DELIVERY
wsman | ID: 399&#45;&gt;DATA EXFILTRATION
wsman | ID: 63 -->
<g id="edge18" class="edge">
<title>DATA DELIVERY
wsman | ID: 399&#45;&gt;DATA EXFILTRATION
wsman | ID: 63</title>
<path fill="none" stroke="blue" stroke-width="5" d="M642.19,-1580.3C639.89,-1604.46 641.53,-1633.01 656.12,-1654.22 658.11,-1657.11 660.28,-1659.85 662.6,-1662.45"/>
<polygon fill="blue" stroke="blue" stroke-width="5" points="659.84,-1665.88 670.01,-1669.84 666.02,-1659.68 659.84,-1665.88"/>
<text text-anchor="middle" x="787.62" y="-1638.22" font-family="Arial" font-size="20.00" fill="blue">start_next: 04/11/17, 16:35:16</text>
<text text-anchor="middle" x="787.62" y="-1616.22" font-family="Arial" font-size="20.00" fill="blue">gap: 3sec</text>
<text text-anchor="middle" x="787.62" y="-1594.22" font-family="Arial" font-size="20.00" fill="blue">end_prev: 04/11/17, 16:35:12</text>
</g>
<!-- DATA DELIVERY
wsman | ID: 399&#45;&gt;DATA EXFILTRATION
wsman | ID: 63 -->
<g id="edge21" class="edge">
<title>DATA DELIVERY
wsman | ID: 399&#45;&gt;DATA EXFILTRATION
wsman | ID: 63</title>
<path fill="none" stroke="blue" stroke-width="5" d="M791.26,-1545.82C845.83,-1554.28 899.42,-1567.61 916.12,-1588.22 934.59,-1611.02 932.14,-1629.65 916.12,-1654.22 914.66,-1656.48 913.07,-1658.64 911.39,-1660.71"/>
<polygon fill="blue" stroke="blue" stroke-width="5" points="907.97,-1657.97 904.43,-1668.3 914.42,-1663.89 907.97,-1657.97"/>
<text text-anchor="middle" x="1059.62" y="-1638.22" font-family="Arial" font-size="20.00" fill="blue">start_next: 04/11/17, 18:06:48</text>
<text text-anchor="middle" x="1059.62" y="-1616.22" font-family="Arial" font-size="20.00" fill="blue">gap: 11sec</text>
<text text-anchor="middle" x="1059.62" y="-1594.22" font-family="Arial" font-size="20.00" fill="blue">end_prev: 04/11/17, 18:06:36</text>
</g>
<!-- BRUTE FORCE CREDENTIALS
pop3s | ID: 354 -->
<g id="node14" class="node">
<title>BRUTE FORCE CREDENTIALS
pop3s | ID: 354</title>
<g id="a_node14"><a xlink:title="ET SCAN Rapid POP3S Connections &#45; Possible Brute Force Attack">
<polygon fill="none" stroke="black" stroke-width="3" points="832.12,-407.71 470.12,-407.71 470.12,-347.71 832.12,-347.71 832.12,-407.71"/>
<text text-anchor="middle" x="651.12" y="-384.51" font-family="Arial" font-size="24.00">BRUTE FORCE CREDENTIALS</text>
<text text-anchor="middle" x="651.12" y="-358.51" font-family="Arial" font-size="24.00">pop3s | ID: 354</text>
</a>
</g>
</g>
<!-- SERVICE DISCOVERY
unknown&#45;&gt;BRUTE FORCE CREDENTIALS
pop3s | ID: 354 -->
<g id="edge13" class="edge">
<title>SERVICE DISCOVERY
unknown&#45;&gt;BRUTE FORCE CREDENTIALS
pop3s | ID: 354</title>
<path fill="none" stroke="blue" stroke-width="5" d="M650.4,-265.93C650.54,-288.2 650.72,-315.47 650.87,-337.38"/>
<polygon fill="blue" stroke="blue" stroke-width="5" points="646.49,-337.68 650.93,-347.65 655.24,-337.63 646.49,-337.68"/>
<text text-anchor="middle" x="782.62" y="-323.71" font-family="Arial" font-size="20.00" fill="blue">start_next: 04/11/17, 16:32:46</text>
<text text-anchor="middle" x="782.62" y="-301.71" font-family="Arial" font-size="20.00" fill="blue">gap: 9sec</text>
<text text-anchor="middle" x="782.62" y="-279.71" font-family="Arial" font-size="20.00" fill="blue">end_prev: 04/11/17, 16:32:37</text>
</g>
<!-- REMOTE SERVICE EXPLOIT
snmp | ID: 52 -->
<g id="node15" class="node">
<title>REMOTE SERVICE EXPLOIT
snmp | ID: 52</title>
<g id="a_node15"><a xlink:title="ET SNMP Samsung Printer SNMP Hardcode RW Community String">
<polygon fill="none" stroke="black" stroke-width="3" points="820.12,-549.71 482.12,-549.71 482.12,-489.71 820.12,-489.71 820.12,-549.71"/>
<text text-anchor="middle" x="651.12" y="-526.51" font-family="Arial" font-size="24.00">REMOTE SERVICE EXPLOIT</text>
<text text-anchor="middle" x="651.12" y="-500.51" font-family="Arial" font-size="24.00">snmp | ID: 52</text>
</a>
</g>
</g>
<!-- BRUTE FORCE CREDENTIALS
pop3s | ID: 354&#45;&gt;REMOTE SERVICE EXPLOIT
snmp | ID: 52 -->
<g id="edge14" class="edge">
<title>BRUTE FORCE CREDENTIALS
pop3s | ID: 354&#45;&gt;REMOTE SERVICE EXPLOIT
snmp | ID: 52</title>
<path fill="none" stroke="blue" stroke-width="5" d="M651.12,-407.71C651.12,-428.41 651.12,-456.49 651.12,-479.23"/>
<polygon fill="blue" stroke="blue" stroke-width="5" points="646.75,-479.25 651.12,-489.25 655.5,-479.25 646.75,-479.25"/>
<text text-anchor="middle" x="782.62" y="-465.71" font-family="Arial" font-size="20.00" fill="blue">start_next: 04/11/17, 16:33:55</text>
<text text-anchor="middle" x="782.62" y="-443.71" font-family="Arial" font-size="20.00" fill="blue">gap: 69sec</text>
<text text-anchor="middle" x="782.62" y="-421.71" font-family="Arial" font-size="20.00" fill="blue">end_prev: 04/11/17, 16:32:46</text>
</g>
<!-- COMMAND AND CONTROL
unknown | ID: 308 -->
<g id="node16" class="node">
<title>COMMAND AND CONTROL
unknown | ID: 308</title>
<g id="a_node16"><a xlink:title="ET POLICY RDP connection confirm">
<polygon fill="none" stroke="black" stroke-width="3" points="813.62,-704.13 490.62,-704.13 490.62,-644.13 813.62,-644.13 813.62,-704.13"/>
<text text-anchor="middle" x="652.12" y="-680.93" font-family="Arial" font-size="24.00">COMMAND AND CONTROL</text>
<text text-anchor="middle" x="652.12" y="-654.93" font-family="Arial" font-size="24.00">unknown | ID: 308</text>
</a>
</g>
</g>
<!-- REMOTE SERVICE EXPLOIT
snmp | ID: 52&#45;&gt;COMMAND AND CONTROL
unknown | ID: 308 -->
<g id="edge15" class="edge">
<title>REMOTE SERVICE EXPLOIT
snmp | ID: 52&#45;&gt;COMMAND AND CONTROL
unknown | ID: 308</title>
<path fill="none" stroke="blue" stroke-width="5" d="M651.31,-549.73C651.47,-573.6 651.69,-607.65 651.87,-633.94"/>
<polygon fill="blue" stroke="blue" stroke-width="5" points="647.49,-633.98 651.93,-643.95 656.24,-633.92 647.49,-633.98"/>
<text text-anchor="middle" x="783.62" y="-607.71" font-family="Arial" font-size="20.00" fill="blue">start_next: 04/11/17, 16:34:19</text>
<text text-anchor="middle" x="783.62" y="-585.71" font-family="Arial" font-size="20.00" fill="blue">gap: 24sec</text>
<text text-anchor="middle" x="783.62" y="-563.71" font-family="Arial" font-size="20.00" fill="blue">end_prev: 04/11/17, 16:33:55</text>
</g>
<!-- ACCOUNT MANIPULATION
snmp | ID: 53 -->
<g id="node17" class="node">
<title>ACCOUNT MANIPULATION
snmp | ID: 53</title>
<g id="a_node17"><a xlink:title="GPL SNMP public access udp">
<polygon fill="none" stroke="black" stroke-width="3" points="814.12,-954.41 494.12,-954.41 494.12,-894.41 814.12,-894.41 814.12,-954.41"/>
<text text-anchor="middle" x="654.12" y="-931.21" font-family="Arial" font-size="24.00">ACCOUNT MANIPULATION</text>
<text text-anchor="middle" x="654.12" y="-905.21" font-family="Arial" font-size="24.00">snmp | ID: 53</text>
</a>
</g>
</g>
<!-- COMMAND AND CONTROL
unknown | ID: 308&#45;&gt;ACCOUNT MANIPULATION
snmp | ID: 53 -->
<g id="edge16" class="edge">
<title>COMMAND AND CONTROL
unknown | ID: 308&#45;&gt;ACCOUNT MANIPULATION
snmp | ID: 53</title>
<path fill="none" stroke="blue" stroke-width="5" d="M652.36,-704.59C652.72,-749.32 653.41,-834.43 653.81,-884.3"/>
<polygon fill="blue" stroke="blue" stroke-width="5" points="649.43,-884.41 653.89,-894.38 658.18,-884.34 649.43,-884.41"/>
<text text-anchor="middle" x="784.62" y="-774.56" font-family="Arial" font-size="20.00" fill="blue">start_next: 04/11/17, 16:34:24</text>
<text text-anchor="middle" x="784.62" y="-752.56" font-family="Arial" font-size="20.00" fill="blue">gap: &#45;110sec</text>
<text text-anchor="middle" x="784.62" y="-730.56" font-family="Arial" font-size="20.00" fill="blue">end_prev: 04/11/17, 16:36:14</text>
</g>
<!-- ACCOUNT MANIPULATION
snmp | ID: 53&#45;&gt;DATA DELIVERY
wsman | ID: 399 -->
<g id="edge17" class="edge">
<title>ACCOUNT MANIPULATION
snmp | ID: 53&#45;&gt;DATA DELIVERY
wsman | ID: 399</title>
<path fill="none" stroke="blue" stroke-width="5" d="M653.46,-954.64C652.88,-982.96 652.12,-1027.13 652.12,-1065.41 652.12,-1065.41 652.12,-1065.41 652.12,-1344.82 652.12,-1387.3 652.12,-1435.26 652.12,-1471.75"/>
<polygon fill="blue" stroke="blue" stroke-width="5" points="647.75,-1472.21 652.12,-1482.21 656.5,-1472.21 647.75,-1472.21"/>
<text text-anchor="middle" x="783.62" y="-1173.4" font-family="Arial" font-size="20.00" fill="blue">start_next: 04/11/17, 16:35:12</text>
<text text-anchor="middle" x="783.62" y="-1151.4" font-family="Arial" font-size="20.00" fill="blue">gap: 45sec</text>
<text text-anchor="middle" x="783.62" y="-1129.4" font-family="Arial" font-size="20.00" fill="blue">end_prev: 04/11/17, 16:34:28</text>
</g>
<!-- INFO DISCOVERY
xdmcp -->
<g id="node18" class="node">
<title>INFO DISCOVERY
xdmcp</title>
<g id="a_node18"><a xlink:title="GPL WEB_SERVER mod_gzip_status access&#10;GPL RPC xdmcp info query">
<ellipse fill="yellow" stroke="black" stroke-width="3" cx="1078.12" cy="-1156.4" rx="156.04" ry="42.35"/>
<text text-anchor="middle" x="1078.12" y="-1163.2" font-family="Arial" font-size="24.00">INFO DISCOVERY</text>
<text text-anchor="middle" x="1078.12" y="-1137.2" font-family="Arial" font-size="24.00">xdmcp</text>
</a>
</g>
</g>
<!-- COMMAND AND CONTROL
unknown | ID: 956 -->
<g id="node19" class="node">
<title>COMMAND AND CONTROL
unknown | ID: 956</title>
<g id="a_node19"><a xlink:title="ET POLICY RDP connection confirm">
<polygon fill="none" stroke="black" stroke-width="3" points="1009.62,-1373.82 686.62,-1373.82 686.62,-1313.82 1009.62,-1313.82 1009.62,-1373.82"/>
<text text-anchor="middle" x="848.12" y="-1350.62" font-family="Arial" font-size="24.00">COMMAND AND CONTROL</text>
<text text-anchor="middle" x="848.12" y="-1324.62" font-family="Arial" font-size="24.00">unknown | ID: 956</text>
</a>
</g>
</g>
<!-- INFO DISCOVERY
xdmcp&#45;&gt;COMMAND AND CONTROL
unknown | ID: 956 -->
<g id="edge19" class="edge">
<title>INFO DISCOVERY
xdmcp&#45;&gt;COMMAND AND CONTROL
unknown | ID: 956</title>
<path fill="none" stroke="blue" stroke-width="5" d="M1029.35,-1196.72C988.84,-1229.37 931.72,-1275.43 892.49,-1307.05"/>
<polygon fill="blue" stroke="blue" stroke-width="5" points="889.44,-1303.89 884.4,-1313.57 894.93,-1310.7 889.44,-1303.89"/>
<text text-anchor="start" x="1003.12" y="-1278.39" font-family="Arial" font-size="20.00" fill="blue"> start_next: 04/11/17, 18:05:40</text>
<text text-anchor="start" x="1084.62" y="-1258.39" font-family="Arial" font-size="20.00" fill="blue">gap: &#45;54sec</text>
<text text-anchor="start" x="1007.12" y="-1238.39" font-family="Arial" font-size="20.00" fill="blue">end_prev: 04/11/17, 18:06:34</text>
<text text-anchor="start" x="1037.62" y="-1218.39" font-family="Arial" font-weight="bold" font-size="20.00" fill="blue">Attacker: 10.0.254.31</text>
</g>
<!-- COMMAND AND CONTROL
unknown | ID: 956&#45;&gt;DATA DELIVERY
wsman | ID: 399 -->
<g id="edge20" class="edge">
<title>COMMAND AND CONTROL
unknown | ID: 956&#45;&gt;DATA DELIVERY
wsman | ID: 399</title>
<path fill="none" stroke="blue" stroke-width="5" d="M817.07,-1374.2C788.45,-1401.27 745.24,-1442.15 710.22,-1475.27"/>
<polygon fill="blue" stroke="blue" stroke-width="5" points="707.14,-1472.17 702.88,-1482.22 713.15,-1478.52 707.14,-1472.17"/>
<text text-anchor="middle" x="927.62" y="-1451.24" font-family="Arial" font-size="20.00" fill="blue">start_next: 04/11/17, 18:06:36</text>
<text text-anchor="middle" x="927.62" y="-1429.24" font-family="Arial" font-size="20.00" fill="blue">gap: &#45;36sec</text>
<text text-anchor="middle" x="927.62" y="-1407.24" font-family="Arial" font-size="20.00" fill="blue">end_prev: 04/11/17, 18:07:13</text>
</g>
<!-- HOST DISCOVERY
wsman -->
<g id="node20" class="node">
<title>HOST DISCOVERY
wsman</title>
<g id="a_node20"><a xlink:title="ET SCAN Possible Nmap User&#45;Agent Observed&#10;ET SCAN Nmap Scripting Engine User&#45;Agent Detected (Nmap Scripting Engine)">
<ellipse fill="yellow" stroke="black" stroke-width="3" cx="1202.12" cy="-1343.82" rx="162.77" ry="42.35"/>
<text text-anchor="middle" x="1202.12" y="-1350.62" font-family="Arial" font-size="24.00">HOST DISCOVERY</text>
<text text-anchor="middle" x="1202.12" y="-1324.62" font-family="Arial" font-size="24.00">wsman</text>
</a>
</g>
</g>
<!-- SURFING
wsman -->
<g id="node21" class="node">
<title>SURFING
wsman</title>
<g id="a_node21"><a xlink:title="ET WEB_SERVER WEB&#45;PHP phpinfo access">
<ellipse fill="none" stroke="black" stroke-width="3" cx="1202.12" cy="-1531.23" rx="88.28" ry="42.35"/>
<text text-anchor="middle" x="1202.12" y="-1538.03" font-family="Arial" font-size="24.00">SURFING</text>
<text text-anchor="middle" x="1202.12" y="-1512.03" font-family="Arial" font-size="24.00">wsman</text>
</a>
</g>
</g>
<!-- HOST DISCOVERY
wsman&#45;&gt;SURFING
wsman -->
<g id="edge22" class="edge">
<title>HOST DISCOVERY
wsman&#45;&gt;SURFING
wsman</title>
<path fill="none" stroke="purple" stroke-width="5" d="M1202.12,-1386.43C1202.12,-1413.62 1202.12,-1449.35 1202.12,-1478.39"/>
<polygon fill="purple" stroke="purple" stroke-width="5" points="1197.75,-1478.76 1202.12,-1488.76 1206.5,-1478.76 1197.75,-1478.76"/>
<text text-anchor="start" x="1202.12" y="-1459.24" font-family="Arial" font-size="20.00" fill="purple"> start_next: 04/11/17, 14:07:11</text>
<text text-anchor="start" x="1286.62" y="-1439.24" font-family="Arial" font-size="20.00" fill="purple">gap: 38sec</text>
<text text-anchor="start" x="1205.62" y="-1419.24" font-family="Arial" font-size="20.00" fill="purple">end_prev: 04/11/17, 14:06:33</text>
<text text-anchor="start" x="1236.12" y="-1399.24" font-family="Arial" font-weight="bold" font-size="20.00" fill="purple">Attacker: 10.0.254.30</text>
</g>
<!-- SURFING
wsman&#45;&gt;DATA EXFILTRATION
wsman | ID: 63 -->
<g id="edge23" class="edge">
<title>SURFING
wsman&#45;&gt;DATA EXFILTRATION
wsman | ID: 63</title>
<path fill="none" stroke="purple" stroke-width="5" d="M1210.29,-1573.71C1212.93,-1600.16 1211.07,-1633.28 1191.12,-1654.22 1162.9,-1683.85 1077.53,-1698.12 992.68,-1704.87"/>
<polygon fill="purple" stroke="purple" stroke-width="5" points="992.25,-1700.51 982.61,-1705.64 992.91,-1709.24 992.25,-1700.51"/>
<text text-anchor="middle" x="1342.62" y="-1638.22" font-family="Arial" font-size="20.00" fill="purple">start_next: 04/11/17, 14:07:12</text>
<text text-anchor="middle" x="1342.62" y="-1616.22" font-family="Arial" font-size="20.00" fill="purple">gap: &#45;8sec</text>
<text text-anchor="middle" x="1342.62" y="-1594.22" font-family="Arial" font-size="20.00" fill="purple">end_prev: 04/11/17, 14:07:19</text>
</g>
</g>
</svg>
