<?xml version="1.0" encoding="UTF-8" standalone="no"?>
<!DOCTYPE svg PUBLIC "-//W3C//DTD SVG 1.1//EN"
 "http://www.w3.org/Graphics/SVG/1.1/DTD/svg11.dtd">
<!-- Generated by graphviz version 2.50.0 (0)
 -->
<!-- Title: DATADELIVERYhttp Pages: 1 -->
<svg width="1286pt" height="1788pt"
 viewBox="0.00 0.00 1286.00 1787.97" xmlns="http://www.w3.org/2000/svg" xmlns:xlink="http://www.w3.org/1999/xlink">
<g id="graph0" class="graph" transform="scale(1 1) rotate(0) translate(4 1783.97)">
<title>DATADELIVERYhttp</title>
<polygon fill="white" stroke="transparent" points="-4,4 -4,-1783.97 1282,-1783.97 1282,4 -4,4"/>
<!-- Victim: 10.0.0.27
DATA DELIVERY
http -->
<g id="node1" class="node">
<title>Victim: 10.0.0.27
DATA DELIVERY
http</title>
<polygon fill="salmon" stroke="black" stroke-width="3" points="882.14,-1682.96 882.14,-1737.35 792.43,-1775.8 665.57,-1775.8 575.86,-1737.35 575.86,-1682.96 665.57,-1644.5 792.43,-1644.5 882.14,-1682.96"/>
<polygon fill="none" stroke="black" stroke-width="3" points="886.15,-1680.33 886.15,-1739.97 793.26,-1779.79 664.74,-1779.79 571.85,-1739.97 571.85,-1680.33 664.74,-1640.51 793.26,-1640.51 886.15,-1680.33"/>
<text text-anchor="middle" x="729" y="-1729.95" font-family="Arial" font-size="24.00">Victim: 10.0.0.27</text>
<text text-anchor="middle" x="729" y="-1703.95" font-family="Arial" font-size="24.00">DATA DELIVERY</text>
<text text-anchor="middle" x="729" y="-1677.95" font-family="Arial" font-size="24.00">http</text>
</g>
<!-- DATA DELIVERY
http | ID: 21 -->
<g id="node2" class="node">
<title>DATA DELIVERY
http | ID: 21</title>
<g id="a_node2"><a xlink:title="ET WEB_SERVER PHP Possible php Remote File Inclusion Attempt&#10;ET WEB_SERVER PHP tags in HTTP POST">
<polygon fill="salmon" stroke="black" stroke-width="3" points="1130.1,-1574.34 1048.55,-1623.32 885.45,-1623.32 803.9,-1574.34 885.45,-1525.36 1048.55,-1525.36 1130.1,-1574.34"/>
<text text-anchor="middle" x="967" y="-1581.14" font-family="Arial" font-size="24.00">DATA DELIVERY</text>
<text text-anchor="middle" x="967" y="-1555.14" font-family="Arial" font-size="24.00">http | ID: 21</text>
</a>
</g>
</g>
<!-- DATA DELIVERY
http | ID: 21&#45;&gt;Victim: 10.0.0.27
DATA DELIVERY
http -->
<g id="edge1" class="edge">
<title>DATA DELIVERY
http | ID: 21&#45;&gt;Victim: 10.0.0.27
DATA DELIVERY
http</title>
<path fill="none" stroke="black" stroke-width="5" d="M883.42,-1622.33C867.83,-1631.1 851.34,-1640.37 835.17,-1649.46"/>
<polygon fill="black" stroke="black" stroke-width="5" points="832.8,-1645.77 826.23,-1654.49 837.09,-1653.4 832.8,-1645.77"/>
</g>
<!-- DATA DELIVERY
http | ID: 246 -->
<g id="node3" class="node">
<title>DATA DELIVERY
http | ID: 246</title>
<g id="a_node3"><a xlink:title="ET WEB_SERVER PHP tags in HTTP POST&#10;GPL WEB_SERVER perl post attempt">
<polygon fill="salmon" stroke="black" stroke-width="3" points="726.1,-1574.34 644.55,-1623.32 481.45,-1623.32 399.9,-1574.34 481.45,-1525.36 644.55,-1525.36 726.1,-1574.34"/>
<text text-anchor="middle" x="563" y="-1581.14" font-family="Arial" font-size="24.00">DATA DELIVERY</text>
<text text-anchor="middle" x="563" y="-1555.14" font-family="Arial" font-size="24.00">http | ID: 246</text>
</a>
</g>
</g>
<!-- DATA DELIVERY
http | ID: 246&#45;&gt;Victim: 10.0.0.27
DATA DELIVERY
http -->
<g id="edge2" class="edge">
<title>DATA DELIVERY
http | ID: 246&#45;&gt;Victim: 10.0.0.27
DATA DELIVERY
http</title>
<path fill="none" stroke="black" stroke-width="5" d="M622.93,-1623.65C629.47,-1628.92 636.22,-1634.36 643,-1639.82"/>
<polygon fill="black" stroke="black" stroke-width="5" points="640.42,-1643.37 650.95,-1646.24 645.91,-1636.56 640.42,-1643.37"/>
</g>
<!-- SERVICE DISCOVERY
unknown -->
<g id="node4" class="node">
<title>SERVICE DISCOVERY
unknown</title>
<g id="a_node4"><a xlink:title="ET SCAN Potential VNC Scan 5800&#45;5820&#10;ET SCAN Potential SSH Scan&#10;ET SCAN Potential VNC Scan 5900&#45;5920">
<ellipse fill="yellow" stroke="black" stroke-width="3" cx="307" cy="-236.41" rx="189.51" ry="42.35"/>
<text text-anchor="middle" x="307" y="-243.21" font-family="Arial" font-size="24.00">SERVICE DISCOVERY</text>
<text text-anchor="middle" x="307" y="-217.21" font-family="Arial" font-size="24.00">unknown</text>
</a>
</g>
</g>
<!-- VULNERABILTY DISCOVERY
ms&#45;sql&#45;s -->
<g id="node5" class="node">
<title>VULNERABILTY DISCOVERY
ms&#45;sql&#45;s</title>
<g id="a_node5"><a xlink:title="ET POLICY Suspicious inbound to mySQL port 3306&#10;ET POLICY Suspicious inbound to mSQL port 4333&#10;ET POLICY Suspicious inbound to MSSQL port 1433&#10;ET POLICY Suspicious inbound to Oracle SQL port 1521&#10;ET SCAN Nessus User Agent&#10;ET POLICY Suspicious inbound to PostgreSQL port 5432">
<ellipse fill="none" stroke="black" stroke-width="3" cx="307" cy="-417.26" rx="241.25" ry="42.35"/>
<text text-anchor="middle" x="307" y="-424.06" font-family="Arial" font-size="24.00">VULNERABILTY DISCOVERY</text>
<text text-anchor="middle" x="307" y="-398.06" font-family="Arial" font-size="24.00">ms&#45;sql&#45;s</text>
</a>
</g>
</g>
<!-- SERVICE DISCOVERY
unknown&#45;&gt;VULNERABILTY DISCOVERY
ms&#45;sql&#45;s -->
<g id="edge3" class="edge">
<title>SERVICE DISCOVERY
unknown&#45;&gt;VULNERABILTY DISCOVERY
ms&#45;sql&#45;s</title>
<path fill="none" stroke="blue" stroke-width="5" d="M129.28,-251.25C84.63,-258.57 45.29,-269.75 31,-286.83 8.18,-314.1 8.18,-339.56 31,-366.83 40.56,-378.26 61.34,-387.05 87.42,-393.81"/>
<polygon fill="blue" stroke="blue" stroke-width="5" points="86.51,-398.09 97.26,-396.21 88.58,-389.59 86.51,-398.09"/>
<text text-anchor="start" x="31" y="-351.83" font-family="Arial" font-size="20.00" fill="blue"> start_next: 04/11/17, 13:58:44</text>
<text text-anchor="start" x="107" y="-331.83" font-family="Arial" font-size="20.00" fill="blue">gap: &#45;213sec</text>
<text text-anchor="start" x="35" y="-311.83" font-family="Arial" font-size="20.00" fill="blue">end_prev: 04/11/17, 14:02:17</text>
<text text-anchor="start" x="65.5" y="-291.83" font-family="Arial" font-weight="bold" font-size="20.00" fill="blue">Attacker: 10.0.254.31</text>
</g>
<!-- SERVICE DISCOVERY
unknown&#45;&gt;VULNERABILTY DISCOVERY
ms&#45;sql&#45;s -->
<g id="edge11" class="edge">
<title>SERVICE DISCOVERY
unknown&#45;&gt;VULNERABILTY DISCOVERY
ms&#45;sql&#45;s</title>
<path fill="none" stroke="blue" stroke-width="5" d="M307,-278.89C307,-304.42 307,-337.35 307,-364.57"/>
<polygon fill="blue" stroke="blue" stroke-width="5" points="302.63,-364.69 307,-374.69 311.38,-364.69 302.63,-364.69"/>
<text text-anchor="middle" x="438.5" y="-343.83" font-family="Arial" font-size="20.00" fill="blue">start_next: 04/11/17, 16:26:51</text>
<text text-anchor="middle" x="438.5" y="-321.83" font-family="Arial" font-size="20.00" fill="blue">gap: 10sec</text>
<text text-anchor="middle" x="438.5" y="-299.83" font-family="Arial" font-size="20.00" fill="blue">end_prev: 04/11/17, 16:26:41</text>
</g>
<!-- SERVICE DISCOVERY
unknown&#45;&gt;VULNERABILTY DISCOVERY
ms&#45;sql&#45;s -->
<g id="edge17" class="edge">
<title>SERVICE DISCOVERY
unknown&#45;&gt;VULNERABILTY DISCOVERY
ms&#45;sql&#45;s</title>
<path fill="none" stroke="blue" stroke-width="5" d="M481.93,-252.93C522.6,-260.27 557.89,-271.05 571,-286.83 593.71,-314.19 593.71,-339.48 571,-366.83 562.36,-377.24 544.08,-385.47 520.98,-391.97"/>
<polygon fill="blue" stroke="blue" stroke-width="5" points="519.72,-387.78 511.16,-394.56 521.95,-396.24 519.72,-387.78"/>
<text text-anchor="middle" x="719.5" y="-343.83" font-family="Arial" font-size="20.00" fill="blue">start_next: 04/11/17, 17:57:53</text>
<text text-anchor="middle" x="719.5" y="-321.83" font-family="Arial" font-size="20.00" fill="blue">gap: 9sec</text>
<text text-anchor="middle" x="719.5" y="-299.83" font-family="Arial" font-size="20.00" fill="blue">end_prev: 04/11/17, 17:57:44</text>
</g>
<!-- NETWORK DoS
ssdp | ID: 55 -->
<g id="node6" class="node">
<title>NETWORK DoS
ssdp | ID: 55</title>
<g id="a_node6"><a xlink:title="ET DOS Possible SSDP Amplification Scan in Progress">
<polygon fill="none" stroke="black" stroke-width="3" points="463.54,-590.68 385.27,-639.65 228.73,-639.65 150.46,-590.68 228.73,-541.7 385.27,-541.7 463.54,-590.68"/>
<text text-anchor="middle" x="307" y="-597.48" font-family="Arial" font-size="24.00">NETWORK DoS</text>
<text text-anchor="middle" x="307" y="-571.48" font-family="Arial" font-size="24.00">ssdp | ID: 55</text>
</a>
</g>
</g>
<!-- VULNERABILTY DISCOVERY
ms&#45;sql&#45;s&#45;&gt;NETWORK DoS
ssdp | ID: 55 -->
<g id="edge4" class="edge">
<title>VULNERABILTY DISCOVERY
ms&#45;sql&#45;s&#45;&gt;NETWORK DoS
ssdp | ID: 55</title>
<path fill="none" stroke="blue" stroke-width="5" d="M99.73,-438.95C70.24,-445.93 46.38,-455.24 36,-467.69 17.21,-490.21 17.48,-510.94 36,-533.69 52.89,-554.42 106.33,-567.71 161.34,-576.1"/>
<polygon fill="blue" stroke="blue" stroke-width="5" points="160.73,-580.44 171.26,-577.57 162,-571.78 160.73,-580.44"/>
<text text-anchor="middle" x="167.5" y="-517.69" font-family="Arial" font-size="20.00" fill="blue">start_next: 04/11/17, 14:00:01</text>
<text text-anchor="middle" x="167.5" y="-495.69" font-family="Arial" font-size="20.00" fill="blue">gap: &#45;323sec</text>
<text text-anchor="middle" x="167.5" y="-473.69" font-family="Arial" font-size="20.00" fill="blue">end_prev: 04/11/17, 14:05:24</text>
</g>
<!-- VULNERABILTY DISCOVERY
ms&#45;sql&#45;s&#45;&gt;NETWORK DoS
ssdp | ID: 55 -->
<g id="edge12" class="edge">
<title>VULNERABILTY DISCOVERY
ms&#45;sql&#45;s&#45;&gt;NETWORK DoS
ssdp | ID: 55</title>
<path fill="none" stroke="blue" stroke-width="5" d="M307,-459.75C307,-481.25 307,-507.84 307,-531.37"/>
<polygon fill="blue" stroke="blue" stroke-width="5" points="302.63,-531.58 307,-541.58 311.38,-531.58 302.63,-531.58"/>
<text text-anchor="middle" x="438.5" y="-517.69" font-family="Arial" font-size="20.00" fill="blue">start_next: 04/11/17, 16:27:51</text>
<text text-anchor="middle" x="438.5" y="-495.69" font-family="Arial" font-size="20.00" fill="blue">gap: &#45;139sec</text>
<text text-anchor="middle" x="438.5" y="-473.69" font-family="Arial" font-size="20.00" fill="blue">end_prev: 04/11/17, 16:30:09</text>
</g>
<!-- VULNERABILTY DISCOVERY
ms&#45;sql&#45;s&#45;&gt;NETWORK DoS
ssdp | ID: 55 -->
<g id="edge18" class="edge">
<title>VULNERABILTY DISCOVERY
ms&#45;sql&#45;s&#45;&gt;NETWORK DoS
ssdp | ID: 55</title>
<path fill="none" stroke="blue" stroke-width="5" d="M511.16,-439.96C538.86,-446.83 561.17,-455.85 571,-467.69 589.74,-490.25 589.47,-510.89 571,-533.69 554.86,-553.61 504.27,-566.73 451.63,-575.22"/>
<polygon fill="blue" stroke="blue" stroke-width="5" points="450.65,-570.95 441.44,-576.81 451.99,-579.59 450.65,-570.95"/>
<text text-anchor="middle" x="715.5" y="-517.69" font-family="Arial" font-size="20.00" fill="blue">start_next: 04/11/17, 17:58:52</text>
<text text-anchor="middle" x="715.5" y="-495.69" font-family="Arial" font-size="20.00" fill="blue">gap: &#45;132sec</text>
<text text-anchor="middle" x="715.5" y="-473.69" font-family="Arial" font-size="20.00" fill="blue">end_prev: 04/11/17, 18:01:04</text>
</g>
<!-- INFO DISCOVERY
xdmcp -->
<g id="node7" class="node">
<title>INFO DISCOVERY
xdmcp</title>
<g id="a_node7"><a xlink:title="GPL WEB_SERVER mod_gzip_status access&#10;GPL RPC xdmcp info query">
<ellipse fill="none" stroke="black" stroke-width="3" cx="307" cy="-764.09" rx="156.04" ry="42.35"/>
<text text-anchor="middle" x="307" y="-770.89" font-family="Arial" font-size="24.00">INFO DISCOVERY</text>
<text text-anchor="middle" x="307" y="-744.89" font-family="Arial" font-size="24.00">xdmcp</text>
</a>
</g>
</g>
<!-- NETWORK DoS
ssdp | ID: 55&#45;&gt;INFO DISCOVERY
xdmcp -->
<g id="edge5" class="edge">
<title>NETWORK DoS
ssdp | ID: 55&#45;&gt;INFO DISCOVERY
xdmcp</title>
<path fill="none" stroke="blue" stroke-width="5" d="M171.26,-603.78C112.88,-612.07 53.9,-625.69 36,-647.66 17.48,-670.41 17.21,-691.14 36,-713.66 51.51,-732.26 97.14,-743.87 146.64,-751.13"/>
<polygon fill="blue" stroke="blue" stroke-width="5" points="146.08,-755.46 156.59,-752.52 147.29,-746.8 146.08,-755.46"/>
<text text-anchor="middle" x="167.5" y="-697.66" font-family="Arial" font-size="20.00" fill="blue">start_next: 04/11/17, 14:00:44</text>
<text text-anchor="middle" x="167.5" y="-675.66" font-family="Arial" font-size="20.00" fill="blue">gap: 43sec</text>
<text text-anchor="middle" x="167.5" y="-653.66" font-family="Arial" font-size="20.00" fill="blue">end_prev: 04/11/17, 14:00:01</text>
</g>
<!-- NETWORK DoS
ssdp | ID: 55&#45;&gt;INFO DISCOVERY
xdmcp -->
<g id="edge13" class="edge">
<title>NETWORK DoS
ssdp | ID: 55&#45;&gt;INFO DISCOVERY
xdmcp</title>
<path fill="none" stroke="blue" stroke-width="5" d="M307,-639.88C307,-662.21 307,-688.76 307,-711.49"/>
<polygon fill="blue" stroke="blue" stroke-width="5" points="302.63,-711.64 307,-721.64 311.38,-711.64 302.63,-711.64"/>
<text text-anchor="middle" x="438.5" y="-697.66" font-family="Arial" font-size="20.00" fill="blue">start_next: 04/11/17, 16:28:37</text>
<text text-anchor="middle" x="438.5" y="-675.66" font-family="Arial" font-size="20.00" fill="blue">gap: 46sec</text>
<text text-anchor="middle" x="438.5" y="-653.66" font-family="Arial" font-size="20.00" fill="blue">end_prev: 04/11/17, 16:27:51</text>
</g>
<!-- NETWORK DoS
ssdp | ID: 55&#45;&gt;INFO DISCOVERY
xdmcp -->
<g id="edge19" class="edge">
<title>NETWORK DoS
ssdp | ID: 55&#45;&gt;INFO DISCOVERY
xdmcp</title>
<path fill="none" stroke="blue" stroke-width="5" d="M441.44,-604.54C497.6,-612.96 553.82,-626.46 571,-647.66 589.47,-670.46 589.74,-691.1 571,-713.66 556.26,-731.42 513.47,-742.83 466.51,-750.15"/>
<polygon fill="blue" stroke="blue" stroke-width="5" points="465.68,-745.85 456.44,-751.65 466.97,-754.51 465.68,-745.85"/>
<text text-anchor="middle" x="715.5" y="-697.66" font-family="Arial" font-size="20.00" fill="blue">start_next: 04/11/17, 17:59:31</text>
<text text-anchor="middle" x="715.5" y="-675.66" font-family="Arial" font-size="20.00" fill="blue">gap: 40sec</text>
<text text-anchor="middle" x="715.5" y="-653.66" font-family="Arial" font-size="20.00" fill="blue">end_prev: 04/11/17, 17:58:52</text>
</g>
<!-- REMOTE SERVICE EXPLOIT
snmp | ID: 365 -->
<g id="node8" class="node">
<title>REMOTE SERVICE EXPLOIT
snmp | ID: 365</title>
<g id="a_node8"><a xlink:title="ET SNMP Samsung Printer SNMP Hardcode RW Community String">
<polygon fill="none" stroke="black" stroke-width="3" points="338,-951.52 0,-951.52 0,-891.52 338,-891.52 338,-951.52"/>
<text text-anchor="middle" x="169" y="-928.32" font-family="Arial" font-size="24.00">REMOTE SERVICE EXPLOIT</text>
<text text-anchor="middle" x="169" y="-902.32" font-family="Arial" font-size="24.00">snmp | ID: 365</text>
</a>
</g>
</g>
<!-- INFO DISCOVERY
xdmcp&#45;&gt;REMOTE SERVICE EXPLOIT
snmp | ID: 365 -->
<g id="edge6" class="edge">
<title>INFO DISCOVERY
xdmcp&#45;&gt;REMOTE SERVICE EXPLOIT
snmp | ID: 365</title>
<path fill="none" stroke="blue" stroke-width="5" d="M156.59,-775.66C103.36,-782.79 52.54,-794.69 36,-814.52 17.21,-837.04 18.5,-856.98 36,-880.52 36.92,-881.76 37.88,-882.96 38.87,-884.13"/>
<polygon fill="blue" stroke="blue" stroke-width="5" points="35.79,-887.23 45.91,-891.32 42.04,-881.11 35.79,-887.23"/>
<text text-anchor="middle" x="167.5" y="-864.52" font-family="Arial" font-size="20.00" fill="blue">start_next: 04/11/17, 14:00:46</text>
<text text-anchor="middle" x="167.5" y="-842.52" font-family="Arial" font-size="20.00" fill="blue">gap: &#45;231sec</text>
<text text-anchor="middle" x="167.5" y="-820.52" font-family="Arial" font-size="20.00" fill="blue">end_prev: 04/11/17, 14:04:37</text>
</g>
<!-- INFO DISCOVERY
xdmcp&#45;&gt;REMOTE SERVICE EXPLOIT
snmp | ID: 365 -->
<g id="edge20" class="edge">
<title>INFO DISCOVERY
xdmcp&#45;&gt;REMOTE SERVICE EXPLOIT
snmp | ID: 365</title>
<path fill="none" stroke="blue" stroke-width="5" d="M307.75,-806.76C307.39,-835.11 304.99,-869.41 296,-880.52 294.88,-881.91 293.7,-883.25 292.49,-884.55"/>
<polygon fill="blue" stroke="blue" stroke-width="5" points="289.38,-881.46 285.06,-891.48 295.36,-887.85 289.38,-881.46"/>
<text text-anchor="middle" x="439.5" y="-864.52" font-family="Arial" font-size="20.00" fill="blue">start_next: 04/11/17, 17:59:32</text>
<text text-anchor="middle" x="439.5" y="-842.52" font-family="Arial" font-size="20.00" fill="blue">gap: &#45;1sec</text>
<text text-anchor="middle" x="439.5" y="-820.52" font-family="Arial" font-size="20.00" fill="blue">end_prev: 04/11/17, 17:59:33</text>
</g>
<!-- ACCOUNT MANIPULATION
snmp | ID: 53 -->
<g id="node9" class="node">
<title>ACCOUNT MANIPULATION
snmp | ID: 53</title>
<g id="a_node9"><a xlink:title="GPL SNMP private access udp&#10;GPL SNMP public access udp">
<polygon fill="none" stroke="black" stroke-width="3" points="467,-1096.52 147,-1096.52 147,-1036.52 467,-1036.52 467,-1096.52"/>
<text text-anchor="middle" x="307" y="-1073.32" font-family="Arial" font-size="24.00">ACCOUNT MANIPULATION</text>
<text text-anchor="middle" x="307" y="-1047.32" font-family="Arial" font-size="24.00">snmp | ID: 53</text>
</a>
</g>
</g>
<!-- INFO DISCOVERY
xdmcp&#45;&gt;ACCOUNT MANIPULATION
snmp | ID: 53 -->
<g id="edge14" class="edge">
<title>INFO DISCOVERY
xdmcp&#45;&gt;ACCOUNT MANIPULATION
snmp | ID: 53</title>
<path fill="none" stroke="blue" stroke-width="5" d="M456.44,-776.53C507.24,-783.76 555.21,-795.5 571,-814.52 631.75,-887.7 633.41,-956.75 571,-1028.52 557.16,-1044.43 519.71,-1053.71 477.21,-1059.05"/>
<polygon fill="blue" stroke="blue" stroke-width="5" points="476.62,-1054.71 467.2,-1060.23 477.64,-1063.4 476.62,-1054.71"/>
<text text-anchor="middle" x="748.5" y="-938.52" font-family="Arial" font-size="20.00" fill="blue">start_next: 04/11/17, 16:29:32</text>
<text text-anchor="middle" x="748.5" y="-916.52" font-family="Arial" font-size="20.00" fill="blue">gap: &#45;197sec</text>
<text text-anchor="middle" x="748.5" y="-894.52" font-family="Arial" font-size="20.00" fill="blue">end_prev: 04/11/17, 16:32:48</text>
</g>
<!-- REMOTE SERVICE EXPLOIT
snmp | ID: 365&#45;&gt;ACCOUNT MANIPULATION
snmp | ID: 53 -->
<g id="edge7" class="edge">
<title>REMOTE SERVICE EXPLOIT
snmp | ID: 365&#45;&gt;ACCOUNT MANIPULATION
snmp | ID: 53</title>
<path fill="none" stroke="blue" stroke-width="5" d="M45.91,-951.72C42.28,-954.96 38.95,-958.55 36,-962.52 18.5,-986.06 16.71,-1006.42 36,-1028.52 50.73,-1045.39 91.39,-1054.85 136.89,-1060.08"/>
<polygon fill="blue" stroke="blue" stroke-width="5" points="136.56,-1064.44 146.97,-1061.16 137.49,-1055.74 136.56,-1064.44"/>
<text text-anchor="middle" x="167.5" y="-1012.52" font-family="Arial" font-size="20.00" fill="blue">start_next: 04/11/17, 14:01:36</text>
<text text-anchor="middle" x="167.5" y="-990.52" font-family="Arial" font-size="20.00" fill="blue">gap: 50sec</text>
<text text-anchor="middle" x="167.5" y="-968.52" font-family="Arial" font-size="20.00" fill="blue">end_prev: 04/11/17, 14:00:46</text>
</g>
<!-- REMOTE SERVICE EXPLOIT
snmp | ID: 365&#45;&gt;ACCOUNT MANIPULATION
snmp | ID: 53 -->
<g id="edge21" class="edge">
<title>REMOTE SERVICE EXPLOIT
snmp | ID: 365&#45;&gt;ACCOUNT MANIPULATION
snmp | ID: 53</title>
<path fill="none" stroke="blue" stroke-width="5" d="M285.01,-951.6C289.01,-954.87 292.71,-958.49 296,-962.52 303.85,-972.11 306.44,-1001.22 307.15,-1026.06"/>
<polygon fill="blue" stroke="blue" stroke-width="5" points="302.78,-1026.46 307.35,-1036.37 311.53,-1026.29 302.78,-1026.46"/>
<text text-anchor="middle" x="439.5" y="-1012.52" font-family="Arial" font-size="20.00" fill="blue">start_next: 04/11/17, 18:00:21</text>
<text text-anchor="middle" x="439.5" y="-990.52" font-family="Arial" font-size="20.00" fill="blue">gap: 48sec</text>
<text text-anchor="middle" x="439.5" y="-968.52" font-family="Arial" font-size="20.00" fill="blue">end_prev: 04/11/17, 17:59:32</text>
</g>
<!-- ACCOUNT MANIPULATION
snmp | ID: 53&#45;&gt;DATA DELIVERY
http | ID: 246 -->
<g id="edge15" class="edge">
<title>ACCOUNT MANIPULATION
snmp | ID: 53&#45;&gt;DATA DELIVERY
http | ID: 246</title>
<path fill="none" stroke="blue" stroke-width="5" d="M298.75,-1096.75C285.9,-1148.13 266.17,-1256.84 303,-1337.37 338.47,-1414.94 412.84,-1478.2 472.98,-1519.63"/>
<polygon fill="blue" stroke="blue" stroke-width="5" points="470.64,-1523.33 481.37,-1525.33 475.56,-1516.09 470.64,-1523.33"/>
<text text-anchor="middle" x="434.5" y="-1321.37" font-family="Arial" font-size="20.00" fill="blue">start_next: 04/11/17, 16:33:00</text>
<text text-anchor="middle" x="434.5" y="-1299.37" font-family="Arial" font-size="20.00" fill="blue">gap: 179sec</text>
<text text-anchor="middle" x="434.5" y="-1277.37" font-family="Arial" font-size="20.00" fill="blue">end_prev: 04/11/17, 16:30:00</text>
</g>
<!-- SURFING
http -->
<g id="node10" class="node">
<title>SURFING
http</title>
<g id="a_node10"><a xlink:title="ET WEB_SERVER WEB&#45;PHP phpinfo access">
<ellipse fill="none" stroke="black" stroke-width="3" cx="572" cy="-1220.94" rx="88.28" ry="42.35"/>
<text text-anchor="middle" x="572" y="-1227.74" font-family="Arial" font-size="24.00">SURFING</text>
<text text-anchor="middle" x="572" y="-1201.74" font-family="Arial" font-size="24.00">http</text>
</a>
</g>
</g>
<!-- ACCOUNT MANIPULATION
snmp | ID: 53&#45;&gt;SURFING
http -->
<g id="edge8" class="edge">
<title>ACCOUNT MANIPULATION
snmp | ID: 53&#45;&gt;SURFING
http</title>
<path fill="none" stroke="blue" stroke-width="5" d="M299.22,-1096.8C295.06,-1119.59 293.83,-1150.59 311,-1170.52 332.22,-1195.14 409.2,-1207.63 474.1,-1213.89"/>
<polygon fill="blue" stroke="blue" stroke-width="5" points="474.05,-1218.28 484.41,-1214.84 474.85,-1209.56 474.05,-1218.28"/>
<text text-anchor="middle" x="442.5" y="-1154.52" font-family="Arial" font-size="20.00" fill="blue">start_next: 04/11/17, 14:04:44</text>
<text text-anchor="middle" x="442.5" y="-1132.52" font-family="Arial" font-size="20.00" fill="blue">gap: 158sec</text>
<text text-anchor="middle" x="442.5" y="-1110.52" font-family="Arial" font-size="20.00" fill="blue">end_prev: 04/11/17, 14:02:06</text>
</g>
<!-- ACCOUNT MANIPULATION
snmp | ID: 53&#45;&gt;SURFING
http -->
<g id="edge22" class="edge">
<title>ACCOUNT MANIPULATION
snmp | ID: 53&#45;&gt;SURFING
http</title>
<path fill="none" stroke="blue" stroke-width="5" d="M467.11,-1072.88C513.64,-1078 556.01,-1087.43 571,-1104.52 586.07,-1121.7 587.91,-1146.47 585.32,-1168.67"/>
<polygon fill="blue" stroke="blue" stroke-width="5" points="580.98,-1168.12 583.85,-1178.65 589.64,-1169.4 580.98,-1168.12"/>
<text text-anchor="middle" x="717.5" y="-1154.52" font-family="Arial" font-size="20.00" fill="blue">start_next: 04/11/17, 18:03:33</text>
<text text-anchor="middle" x="717.5" y="-1132.52" font-family="Arial" font-size="20.00" fill="blue">gap: 160sec</text>
<text text-anchor="middle" x="717.5" y="-1110.52" font-family="Arial" font-size="20.00" fill="blue">end_prev: 04/11/17, 18:00:53</text>
</g>
<!-- SURFING
http&#45;&gt;DATA DELIVERY
http | ID: 246 -->
<g id="edge9" class="edge">
<title>SURFING
http&#45;&gt;DATA DELIVERY
http | ID: 246</title>
<path fill="none" stroke="blue" stroke-width="5" d="M570.07,-1263.64C569.03,-1287.56 567.79,-1318.15 567,-1345.37 565.32,-1403.12 564.26,-1469.13 563.65,-1515.2"/>
<polygon fill="blue" stroke="blue" stroke-width="5" points="559.28,-1515.24 563.52,-1525.3 568.03,-1515.36 559.28,-1515.24"/>
<text text-anchor="middle" x="698.5" y="-1411.36" font-family="Arial" font-size="20.00" fill="blue">start_next: 04/11/17, 14:04:47</text>
<text text-anchor="middle" x="698.5" y="-1389.36" font-family="Arial" font-size="20.00" fill="blue">gap: 1sec</text>
<text text-anchor="middle" x="698.5" y="-1367.36" font-family="Arial" font-size="20.00" fill="blue">end_prev: 04/11/17, 14:04:46</text>
</g>
<!-- DATA EXFILTRATION
http | ID: 228 -->
<g id="node12" class="node">
<title>DATA EXFILTRATION
http | ID: 228</title>
<g id="a_node12"><a xlink:title="ET WEB_SPECIFIC_APPS PHP&#45;CGI query string parameter vulnerability">
<polygon fill="none" stroke="black" stroke-width="3" points="1242.88,-1394.36 1140.44,-1443.34 935.56,-1443.34 833.12,-1394.36 935.56,-1345.38 1140.44,-1345.38 1242.88,-1394.36"/>
<text text-anchor="middle" x="1038" y="-1401.16" font-family="Arial" font-size="24.00">DATA EXFILTRATION</text>
<text text-anchor="middle" x="1038" y="-1375.16" font-family="Arial" font-size="24.00">http | ID: 228</text>
</a>
</g>
</g>
<!-- SURFING
http&#45;&gt;DATA EXFILTRATION
http | ID: 228 -->
<g id="edge23" class="edge">
<title>SURFING
http&#45;&gt;DATA EXFILTRATION
http | ID: 228</title>
<path fill="none" stroke="blue" stroke-width="5" d="M641.26,-1247.42C712.94,-1273.79 826.41,-1315.53 913.68,-1347.63"/>
<polygon fill="blue" stroke="blue" stroke-width="5" points="912.22,-1351.75 923.11,-1351.1 915.24,-1343.54 912.22,-1351.75"/>
<text text-anchor="middle" x="1004.5" y="-1321.37" font-family="Arial" font-size="20.00" fill="blue">start_next: 04/11/17, 18:04:16</text>
<text text-anchor="middle" x="1004.5" y="-1299.37" font-family="Arial" font-size="20.00" fill="blue">gap: 41sec</text>
<text text-anchor="middle" x="1004.5" y="-1277.37" font-family="Arial" font-size="20.00" fill="blue">end_prev: 04/11/17, 18:03:35</text>
</g>
<!-- DATA EXFILTRATION
http | ID: 26 -->
<g id="node11" class="node">
<title>DATA EXFILTRATION
http | ID: 26</title>
<g id="a_node11"><a xlink:title="ET WEB_SPECIFIC_APPS PHP&#45;CGI query string parameter vulnerability">
<polygon fill="yellow" stroke="black" stroke-width="3" points="511.88,-48.99 409.44,-97.97 204.56,-97.97 102.12,-48.99 204.56,-0.01 409.44,-0.01 511.88,-48.99"/>
<text text-anchor="middle" x="307" y="-55.79" font-family="Arial" font-size="24.00">DATA EXFILTRATION</text>
<text text-anchor="middle" x="307" y="-29.79" font-family="Arial" font-size="24.00">http | ID: 26</text>
</a>
</g>
</g>
<!-- DATA EXFILTRATION
http | ID: 26&#45;&gt;SERVICE DISCOVERY
unknown -->
<g id="edge10" class="edge">
<title>DATA EXFILTRATION
http | ID: 26&#45;&gt;SERVICE DISCOVERY
unknown</title>
<path fill="none" stroke="blue" stroke-width="5" d="M185.85,-89.22C180.22,-94.16 175.19,-99.72 171,-105.98 151.21,-135.52 150.6,-156.86 171,-185.98 173.67,-189.79 176.66,-193.3 179.91,-196.55"/>
<polygon fill="blue" stroke="blue" stroke-width="5" points="177.06,-199.86 187.44,-203.23 182.87,-193.32 177.06,-199.86"/>
<text text-anchor="start" x="171" y="-170.98" font-family="Arial" font-size="20.00" fill="blue"> start_next: 04/11/17, 16:26:40</text>
<text text-anchor="start" x="244.5" y="-150.98" font-family="Arial" font-size="20.00" fill="blue">gap: 8500sec</text>
<text text-anchor="start" x="175" y="-130.98" font-family="Arial" font-size="20.00" fill="blue">end_prev: 04/11/17, 14:05:00</text>
<text text-anchor="start" x="205.5" y="-110.98" font-family="Arial" font-weight="bold" font-size="20.00" fill="blue">Attacker: 10.0.254.31</text>
</g>
<!-- DATA EXFILTRATION
http | ID: 26&#45;&gt;SERVICE DISCOVERY
unknown -->
<g id="edge16" class="edge">
<title>DATA EXFILTRATION
http | ID: 26&#45;&gt;SERVICE DISCOVERY
unknown</title>
<path fill="none" stroke="blue" stroke-width="5" d="M423.58,-91.26C428.25,-95.68 432.45,-100.57 436,-105.98 455.5,-135.71 456.15,-156.68 436,-185.98 433.66,-189.38 431.05,-192.55 428.22,-195.51"/>
<polygon fill="blue" stroke="blue" stroke-width="5" points="425.13,-192.4 420.74,-202.4 431.06,-198.83 425.13,-192.4"/>
<text text-anchor="start" x="451" y="-170.98" font-family="Arial" font-size="20.00" fill="blue"> start_next: 04/11/17, 17:57:43</text>
<text text-anchor="start" x="524.5" y="-150.98" font-family="Arial" font-size="20.00" fill="blue">gap: 5073sec</text>
<text text-anchor="start" x="455.5" y="-130.98" font-family="Arial" font-size="20.00" fill="blue">end_prev: 04/11/17, 16:33:11</text>
<text text-anchor="start" x="485.5" y="-110.98" font-family="Arial" font-weight="bold" font-size="20.00" fill="blue">Attacker: 10.0.254.31</text>
</g>
<!-- DATA EXFILTRATION
http | ID: 228&#45;&gt;DATA DELIVERY
http | ID: 21 -->
<g id="edge24" class="edge">
<title>DATA EXFILTRATION
http | ID: 228&#45;&gt;DATA DELIVERY
http | ID: 21</title>
<path fill="none" stroke="blue" stroke-width="5" d="M1018.79,-1443.52C1009.91,-1465.78 999.29,-1492.39 989.99,-1515.71"/>
<polygon fill="blue" stroke="blue" stroke-width="5" points="985.87,-1514.23 986.23,-1525.14 994,-1517.47 985.87,-1514.23"/>
<text text-anchor="middle" x="1146.5" y="-1501.35" font-family="Arial" font-size="20.00" fill="blue">start_next: 04/11/17, 18:04:16</text>
<text text-anchor="middle" x="1146.5" y="-1479.35" font-family="Arial" font-size="20.00" fill="blue">gap: 0sec</text>
<text text-anchor="middle" x="1146.5" y="-1457.35" font-family="Arial" font-size="20.00" fill="blue">end_prev: 04/11/17, 18:04:16</text>
</g>
</g>
</svg>
