<?xml version="1.0" encoding="UTF-8" standalone="no"?>
<!DOCTYPE svg PUBLIC "-//W3C//DTD SVG 1.1//EN"
 "http://www.w3.org/Graphics/SVG/1.1/DTD/svg11.dtd">
<!-- Generated by graphviz version 2.50.0 (0)
 -->
<!-- Title: DATADELIVERYhttp Pages: 1 -->
<svg width="2244pt" height="1143pt"
 viewBox="0.00 0.00 2243.94 1142.87" xmlns="http://www.w3.org/2000/svg" xmlns:xlink="http://www.w3.org/1999/xlink">
<g id="graph0" class="graph" transform="scale(1 1) rotate(0) translate(4 1138.87)">
<title>DATADELIVERYhttp</title>
<polygon fill="white" stroke="transparent" points="-4,4 -4,-1138.87 2239.94,-1138.87 2239.94,4 -4,4"/>
<!-- Victim: 10.0.0.71
DATA DELIVERY
http -->
<g id="node1" class="node">
<title>Victim: 10.0.0.71
DATA DELIVERY
http</title>
<polygon fill="salmon" stroke="black" stroke-width="3" points="523.09,-1037.85 523.09,-1092.24 433.38,-1130.7 306.51,-1130.7 216.8,-1092.24 216.8,-1037.85 306.51,-999.39 433.38,-999.39 523.09,-1037.85"/>
<polygon fill="none" stroke="black" stroke-width="3" points="527.09,-1035.22 527.09,-1094.87 434.2,-1134.69 305.68,-1134.69 212.79,-1094.87 212.79,-1035.22 305.68,-995.4 434.2,-995.4 527.09,-1035.22"/>
<text text-anchor="middle" x="369.94" y="-1084.84" font-family="Arial" font-size="24.00">Victim: 10.0.0.71</text>
<text text-anchor="middle" x="369.94" y="-1058.84" font-family="Arial" font-size="24.00">DATA DELIVERY</text>
<text text-anchor="middle" x="369.94" y="-1032.84" font-family="Arial" font-size="24.00">http</text>
</g>
<!-- DATA DELIVERY
http | ID: 21 -->
<g id="node2" class="node">
<title>DATA DELIVERY
http | ID: 21</title>
<g id="a_node2"><a xlink:title="ET WEB_SERVER PHP tags in HTTP POST">
<polygon fill="salmon" stroke="black" stroke-width="3" points="367.04,-929.23 285.49,-978.21 122.39,-978.21 40.84,-929.23 122.39,-880.25 285.49,-880.25 367.04,-929.23"/>
<text text-anchor="middle" x="203.94" y="-936.03" font-family="Arial" font-size="24.00">DATA DELIVERY</text>
<text text-anchor="middle" x="203.94" y="-910.03" font-family="Arial" font-size="24.00">http | ID: 21</text>
</a>
</g>
</g>
<!-- DATA DELIVERY
http | ID: 21&#45;&gt;Victim: 10.0.0.71
DATA DELIVERY
http -->
<g id="edge1" class="edge">
<title>DATA DELIVERY
http | ID: 21&#45;&gt;Victim: 10.0.0.71
DATA DELIVERY
http</title>
<path fill="none" stroke="black" stroke-width="5" d="M263.87,-978.54C270.41,-983.82 277.16,-989.26 283.94,-994.72"/>
<polygon fill="black" stroke="black" stroke-width="5" points="281.36,-998.26 291.89,-1001.13 286.85,-991.45 281.36,-998.26"/>
</g>
<!-- DATA DELIVERY
http | ID: 705 -->
<g id="node3" class="node">
<title>DATA DELIVERY
http | ID: 705</title>
<g id="a_node3"><a xlink:title="ET WEB_SERVER PHP tags in HTTP POST&#10;ET WEB_SERVER PHP Possible php Remote File Inclusion Attempt&#10;ET WEB_SERVER PHP Possible https Local File Inclusion Attempt&#10;GPL WEB_SERVER perl post attempt">
<polygon fill="none" stroke="black" stroke-width="3" stroke-dasharray="1,5" points="701.04,-929.23 619.49,-978.21 456.39,-978.21 374.84,-929.23 456.39,-880.25 619.49,-880.25 701.04,-929.23"/>
<text text-anchor="middle" x="537.94" y="-936.03" font-family="Arial" font-size="24.00">DATA DELIVERY</text>
<text text-anchor="middle" x="537.94" y="-910.03" font-family="Arial" font-size="24.00">http | ID: 705</text>
</a>
</g>
</g>
<!-- DATA DELIVERY
http | ID: 705&#45;&gt;Victim: 10.0.0.71
DATA DELIVERY
http -->
<g id="edge2" class="edge">
<title>DATA DELIVERY
http | ID: 705&#45;&gt;Victim: 10.0.0.71
DATA DELIVERY
http</title>
<path fill="none" stroke="black" stroke-width="5" d="M477.29,-978.54C470.6,-983.87 463.7,-989.37 456.77,-994.88"/>
<polygon fill="black" stroke="black" stroke-width="5" points="453.73,-991.71 448.64,-1001.36 459.19,-998.56 453.73,-991.71"/>
</g>
<!-- VULNERABILTY DISCOVERY
ms&#45;sql&#45;s -->
<g id="node4" class="node">
<title>VULNERABILTY DISCOVERY
ms&#45;sql&#45;s</title>
<g id="a_node4"><a xlink:title="ET POLICY Suspicious inbound to MSSQL port 1433">
<ellipse fill="yellow" stroke="black" stroke-width="3" cx="1695.94" cy="-209.28" rx="241.25" ry="42.35"/>
<text text-anchor="middle" x="1695.94" y="-216.08" font-family="Arial" font-size="24.00">VULNERABILTY DISCOVERY</text>
<text text-anchor="middle" x="1695.94" y="-190.08" font-family="Arial" font-size="24.00">ms&#45;sql&#45;s</text>
</a>
</g>
</g>
<!-- SERVICE DISCOVERY
dsd -->
<g id="node5" class="node">
<title>SERVICE DISCOVERY
dsd</title>
<g id="a_node5"><a xlink:title="ET SCAN Potential VNC Scan 5900&#45;5920">
<ellipse fill="none" stroke="black" stroke-width="3" cx="1771.94" cy="-390.13" rx="189.51" ry="42.35"/>
<text text-anchor="middle" x="1771.94" y="-396.93" font-family="Arial" font-size="24.00">SERVICE DISCOVERY</text>
<text text-anchor="middle" x="1771.94" y="-370.93" font-family="Arial" font-size="24.00">dsd</text>
</a>
</g>
</g>
<!-- VULNERABILTY DISCOVERY
ms&#45;sql&#45;s&#45;&gt;SERVICE DISCOVERY
dsd -->
<g id="edge3" class="edge">
<title>VULNERABILTY DISCOVERY
ms&#45;sql&#45;s&#45;&gt;SERVICE DISCOVERY
dsd</title>
<path fill="none" stroke="blue" stroke-width="5" d="M1688.02,-251.84C1685.07,-278.54 1685.39,-313.07 1699.94,-339.71 1700.32,-340.4 1700.72,-341.09 1701.13,-341.78"/>
<polygon fill="blue" stroke="blue" stroke-width="5" points="1697.8,-344.64 1707.18,-350.22 1704.91,-339.54 1697.8,-344.64"/>
<text text-anchor="start" x="1699.94" y="-324.71" font-family="Arial" font-size="20.00" fill="blue"> start_next: 04/11/17, 13:00:02</text>
<text text-anchor="start" x="1779.44" y="-304.71" font-family="Arial" font-size="20.00" fill="blue">gap: 239sec</text>
<text text-anchor="start" x="1703.94" y="-284.71" font-family="Arial" font-size="20.00" fill="blue">end_prev: 04/11/17, 12:56:02</text>
<text text-anchor="start" x="1734.44" y="-264.71" font-family="Arial" font-weight="bold" font-size="20.00" fill="blue">Attacker: 10.0.254.31</text>
</g>
<!-- VULNERABILTY DISCOVERY
http -->
<g id="node6" class="node">
<title>VULNERABILTY DISCOVERY
http</title>
<g id="a_node6"><a xlink:title="ET POLICY Suspicious inbound to mySQL port 3306&#10;ET POLICY Suspicious inbound to mSQL port 4333&#10;ET POLICY Suspicious inbound to MSSQL port 1433&#10;ET POLICY Suspicious inbound to Oracle SQL port 1521&#10;ET SCAN Nessus User Agent">
<ellipse fill="none" stroke="black" stroke-width="3" cx="1644.94" cy="-556.98" rx="241.25" ry="42.35"/>
<text text-anchor="middle" x="1644.94" y="-563.78" font-family="Arial" font-size="24.00">VULNERABILTY DISCOVERY</text>
<text text-anchor="middle" x="1644.94" y="-537.78" font-family="Arial" font-size="24.00">http</text>
</a>
</g>
</g>
<!-- SERVICE DISCOVERY
dsd&#45;&gt;VULNERABILTY DISCOVERY
http -->
<g id="edge4" class="edge">
<title>SERVICE DISCOVERY
dsd&#45;&gt;VULNERABILTY DISCOVERY
http</title>
<path fill="none" stroke="blue" stroke-width="5" d="M1711.72,-430.44C1708.24,-433.67 1704.94,-437.05 1701.94,-440.56 1685.75,-459.5 1672.85,-483.84 1663.44,-505.28"/>
<polygon fill="blue" stroke="blue" stroke-width="5" points="1659.38,-503.67 1659.5,-514.58 1667.43,-507.08 1659.38,-503.67"/>
<text text-anchor="middle" x="1833.44" y="-490.56" font-family="Arial" font-size="20.00" fill="blue">start_next: 04/11/17, 13:59:50</text>
<text text-anchor="middle" x="1833.44" y="-468.56" font-family="Arial" font-size="20.00" fill="blue">gap: 3588sec</text>
<text text-anchor="middle" x="1833.44" y="-446.56" font-family="Arial" font-size="20.00" fill="blue">end_prev: 04/11/17, 13:00:02</text>
</g>
<!-- ARBITRARY CODE EXECUTION
ssdp | ID: 355 -->
<g id="node7" class="node">
<title>ARBITRARY CODE EXECUTION
ssdp | ID: 355</title>
<g id="a_node7"><a xlink:title="GPL MISC UPnP malformed advertisement">
<polygon fill="none" stroke="black" stroke-width="3" points="1657.44,-785.82 1282.44,-785.82 1282.44,-725.82 1657.44,-725.82 1657.44,-785.82"/>
<text text-anchor="middle" x="1469.94" y="-762.62" font-family="Arial" font-size="24.00">ARBITRARY CODE EXECUTION</text>
<text text-anchor="middle" x="1469.94" y="-736.62" font-family="Arial" font-size="24.00">ssdp | ID: 355</text>
</a>
</g>
</g>
<!-- VULNERABILTY DISCOVERY
http&#45;&gt;ARBITRARY CODE EXECUTION
ssdp | ID: 355 -->
<g id="edge5" class="edge">
<title>VULNERABILTY DISCOVERY
http&#45;&gt;ARBITRARY CODE EXECUTION
ssdp | ID: 355</title>
<path fill="none" stroke="blue" stroke-width="5" d="M1608.25,-599.25C1577.08,-634.31 1532.73,-684.19 1502.72,-717.94"/>
<polygon fill="blue" stroke="blue" stroke-width="5" points="1499.17,-715.35 1495.8,-725.73 1505.71,-721.17 1499.17,-715.35"/>
<text text-anchor="middle" x="1729.44" y="-673.4" font-family="Arial" font-size="20.00" fill="blue">start_next: 04/11/17, 14:01:40</text>
<text text-anchor="middle" x="1729.44" y="-651.4" font-family="Arial" font-size="20.00" fill="blue">gap: &#45;585sec</text>
<text text-anchor="middle" x="1729.44" y="-629.4" font-family="Arial" font-size="20.00" fill="blue">end_prev: 04/11/17, 14:11:25</text>
</g>
<!-- INFO DISCOVERY
xdmcp -->
<g id="node8" class="node">
<title>INFO DISCOVERY
xdmcp</title>
<g id="a_node8"><a xlink:title="GPL WEB_SERVER mod_gzip_status access&#10;GPL RPC xdmcp info query">
<ellipse fill="none" stroke="black" stroke-width="3" cx="901.94" cy="-42.43" rx="156.04" ry="42.35"/>
<text text-anchor="middle" x="901.94" y="-49.23" font-family="Arial" font-size="24.00">INFO DISCOVERY</text>
<text text-anchor="middle" x="901.94" y="-23.23" font-family="Arial" font-size="24.00">xdmcp</text>
</a>
</g>
</g>
<!-- ARBITRARY CODE EXECUTION
ssdp | ID: 355&#45;&gt;INFO DISCOVERY
xdmcp -->
<g id="edge6" class="edge">
<title>ARBITRARY CODE EXECUTION
ssdp | ID: 355&#45;&gt;INFO DISCOVERY
xdmcp</title>
<path fill="none" stroke="blue" stroke-width="5" d="M1455.91,-725.63C1441.21,-694.63 1417.82,-644.05 1399.94,-599.41 1372.1,-529.92 1398.45,-491.86 1343.94,-440.56 1334.52,-431.69 1323.97,-442.71 1315.94,-432.56 1242.64,-339.81 1376.33,-260.31 1303.94,-166.85 1271.11,-124.46 1143.61,-90.08 1040.88,-68.48"/>
<polygon fill="blue" stroke="blue" stroke-width="5" points="1041.7,-64.18 1031.02,-66.43 1039.92,-72.75 1041.7,-64.18"/>
<text text-anchor="middle" x="1447.44" y="-407.13" font-family="Arial" font-size="20.00" fill="blue">start_next: 04/11/17, 14:02:15</text>
<text text-anchor="middle" x="1447.44" y="-385.13" font-family="Arial" font-size="20.00" fill="blue">gap: 25sec</text>
<text text-anchor="middle" x="1447.44" y="-363.13" font-family="Arial" font-size="20.00" fill="blue">end_prev: 04/11/17, 14:01:50</text>
</g>
<!-- REMOTE SERVICE EXPLOIT
snmp | ID: 52 -->
<g id="node13" class="node">
<title>REMOTE SERVICE EXPLOIT
snmp | ID: 52</title>
<g id="a_node13"><a xlink:title="ET SNMP Samsung Printer SNMP Hardcode RW Community String">
<polygon fill="none" stroke="black" stroke-width="3" points="1949.94,-959.23 1611.94,-959.23 1611.94,-899.23 1949.94,-899.23 1949.94,-959.23"/>
<text text-anchor="middle" x="1780.94" y="-936.03" font-family="Arial" font-size="24.00">REMOTE SERVICE EXPLOIT</text>
<text text-anchor="middle" x="1780.94" y="-910.03" font-family="Arial" font-size="24.00">snmp | ID: 52</text>
</a>
</g>
</g>
<!-- ARBITRARY CODE EXECUTION
ssdp | ID: 355&#45;&gt;REMOTE SERVICE EXPLOIT
snmp | ID: 52 -->
<g id="edge12" class="edge">
<title>ARBITRARY CODE EXECUTION
ssdp | ID: 355&#45;&gt;REMOTE SERVICE EXPLOIT
snmp | ID: 52</title>
<path fill="none" stroke="blue" stroke-width="5" d="M1522.7,-785.9C1577.06,-815.86 1661.76,-862.54 1719.21,-894.21"/>
<polygon fill="blue" stroke="blue" stroke-width="5" points="1717.32,-898.16 1728.19,-899.16 1721.54,-890.5 1717.32,-898.16"/>
<text text-anchor="middle" x="1802.44" y="-856.24" font-family="Arial" font-size="20.00" fill="blue">start_next: 04/11/17, 16:30:27</text>
<text text-anchor="middle" x="1802.44" y="-834.24" font-family="Arial" font-size="20.00" fill="blue">gap: 26sec</text>
<text text-anchor="middle" x="1802.44" y="-812.24" font-family="Arial" font-size="20.00" fill="blue">end_prev: 04/11/17, 16:30:00</text>
</g>
<!-- ACCOUNT MANIPULATION
snmp | ID: 1155 -->
<g id="node9" class="node">
<title>ACCOUNT MANIPULATION
snmp | ID: 1155</title>
<g id="a_node9"><a xlink:title="GPL SNMP private access udp&#10;GPL SNMP public access udp">
<polygon fill="none" stroke="black" stroke-width="3" stroke-dasharray="1,5" points="366.94,-239.28 46.94,-239.28 46.94,-179.28 366.94,-179.28 366.94,-239.28"/>
<text text-anchor="middle" x="206.94" y="-216.08" font-family="Arial" font-size="24.00">ACCOUNT MANIPULATION</text>
<text text-anchor="middle" x="206.94" y="-190.08" font-family="Arial" font-size="24.00">snmp | ID: 1155</text>
</a>
</g>
</g>
<!-- INFO DISCOVERY
xdmcp&#45;&gt;ACCOUNT MANIPULATION
snmp | ID: 1155 -->
<g id="edge7" class="edge">
<title>INFO DISCOVERY
xdmcp&#45;&gt;ACCOUNT MANIPULATION
snmp | ID: 1155</title>
<path fill="none" stroke="blue" stroke-width="5" d="M745.71,-43.87C553.59,-46.04 248.33,-55.42 211.94,-92.85 192.83,-112.51 192.7,-144.08 196.73,-169.23"/>
<polygon fill="blue" stroke="blue" stroke-width="5" points="192.46,-170.19 198.6,-179.22 201.06,-168.59 192.46,-170.19"/>
<text text-anchor="middle" x="343.44" y="-142.85" font-family="Arial" font-size="20.00" fill="blue">start_next: 04/11/17, 14:03:06</text>
<text text-anchor="middle" x="343.44" y="-120.85" font-family="Arial" font-size="20.00" fill="blue">gap: 48sec</text>
<text text-anchor="middle" x="343.44" y="-98.85" font-family="Arial" font-size="20.00" fill="blue">end_prev: 04/11/17, 14:02:19</text>
</g>
<!-- BRUTE FORCE CREDENTIALS
unknown | ID: 358 -->
<g id="node14" class="node">
<title>BRUTE FORCE CREDENTIALS
unknown | ID: 358</title>
<g id="a_node14"><a xlink:title="ET SCAN Multiple MySQL Login Failures Possible Brute Force Attempt">
<polygon fill="none" stroke="black" stroke-width="3" points="946.94,-239.28 584.94,-239.28 584.94,-179.28 946.94,-179.28 946.94,-239.28"/>
<text text-anchor="middle" x="765.94" y="-216.08" font-family="Arial" font-size="24.00">BRUTE FORCE CREDENTIALS</text>
<text text-anchor="middle" x="765.94" y="-190.08" font-family="Arial" font-size="24.00">unknown | ID: 358</text>
</a>
</g>
</g>
<!-- INFO DISCOVERY
xdmcp&#45;&gt;BRUTE FORCE CREDENTIALS
unknown | ID: 358 -->
<g id="edge14" class="edge">
<title>INFO DISCOVERY
xdmcp&#45;&gt;BRUTE FORCE CREDENTIALS
unknown | ID: 358</title>
<path fill="none" stroke="blue" stroke-width="5" d="M791.11,-72.43C782.99,-78.07 775.73,-84.81 769.94,-92.85 754.37,-114.5 753.9,-144.81 757.04,-168.94"/>
<polygon fill="blue" stroke="blue" stroke-width="5" points="752.72,-169.64 758.57,-178.86 761.37,-168.31 752.72,-169.64"/>
<text text-anchor="middle" x="901.44" y="-142.85" font-family="Arial" font-size="20.00" fill="blue">start_next: 04/11/17, 16:31:18</text>
<text text-anchor="middle" x="901.44" y="-120.85" font-family="Arial" font-size="20.00" fill="blue">gap: 48sec</text>
<text text-anchor="middle" x="901.44" y="-98.85" font-family="Arial" font-size="20.00" fill="blue">end_prev: 04/11/17, 16:30:31</text>
</g>
<!-- ACCOUNT MANIPULATION
snmp | ID: 53 -->
<g id="node15" class="node">
<title>ACCOUNT MANIPULATION
snmp | ID: 53</title>
<g id="a_node15"><a xlink:title="GPL SNMP private access udp&#10;GPL SNMP public access udp">
<polygon fill="none" stroke="black" stroke-width="3" points="1064.94,-420.13 744.94,-420.13 744.94,-360.13 1064.94,-360.13 1064.94,-420.13"/>
<text text-anchor="middle" x="904.94" y="-396.93" font-family="Arial" font-size="24.00">ACCOUNT MANIPULATION</text>
<text text-anchor="middle" x="904.94" y="-370.93" font-family="Arial" font-size="24.00">snmp | ID: 53</text>
</a>
</g>
</g>
<!-- INFO DISCOVERY
xdmcp&#45;&gt;ACCOUNT MANIPULATION
snmp | ID: 53 -->
<g id="edge20" class="edge">
<title>INFO DISCOVERY
xdmcp&#45;&gt;ACCOUNT MANIPULATION
snmp | ID: 53</title>
<path fill="none" stroke="blue" stroke-width="5" d="M1010.32,-73.04C1017.89,-78.55 1024.62,-85.09 1029.94,-92.85 1045.45,-115.47 1045.36,-317.02 1029.94,-339.71 1026.45,-344.84 1022.34,-349.43 1017.77,-353.55"/>
<polygon fill="blue" stroke="blue" stroke-width="5" points="1014.74,-350.38 1009.68,-360.05 1020.22,-357.2 1014.74,-350.38"/>
<text text-anchor="middle" x="1172.44" y="-226.28" font-family="Arial" font-size="20.00" fill="blue">start_next: 04/11/17, 18:03:10</text>
<text text-anchor="middle" x="1172.44" y="-204.28" font-family="Arial" font-size="20.00" fill="blue">gap: &#45;89sec</text>
<text text-anchor="middle" x="1172.44" y="-182.28" font-family="Arial" font-size="20.00" fill="blue">end_prev: 04/11/17, 18:04:39</text>
</g>
<!-- BRUTE FORCE CREDENTIALS
unknown | ID: 672 -->
<g id="node10" class="node">
<title>BRUTE FORCE CREDENTIALS
unknown | ID: 672</title>
<g id="a_node10"><a xlink:title="ET SCAN Multiple MySQL Login Failures Possible Brute Force Attempt">
<polygon fill="none" stroke="black" stroke-width="3" points="386.94,-420.13 24.94,-420.13 24.94,-360.13 386.94,-360.13 386.94,-420.13"/>
<text text-anchor="middle" x="205.94" y="-396.93" font-family="Arial" font-size="24.00">BRUTE FORCE CREDENTIALS</text>
<text text-anchor="middle" x="205.94" y="-370.93" font-family="Arial" font-size="24.00">unknown | ID: 672</text>
</a>
</g>
</g>
<!-- ACCOUNT MANIPULATION
snmp | ID: 1155&#45;&gt;BRUTE FORCE CREDENTIALS
unknown | ID: 672 -->
<g id="edge8" class="edge">
<title>ACCOUNT MANIPULATION
snmp | ID: 1155&#45;&gt;BRUTE FORCE CREDENTIALS
unknown | ID: 672</title>
<path fill="none" stroke="blue" stroke-width="5" d="M206.78,-239.41C206.61,-269.42 206.35,-316.39 206.16,-349.71"/>
<polygon fill="blue" stroke="blue" stroke-width="5" points="201.78,-349.99 206.1,-360.01 210.53,-350.04 201.78,-349.99"/>
<text text-anchor="middle" x="338.44" y="-316.71" font-family="Arial" font-size="20.00" fill="blue">start_next: 04/11/17, 14:03:10</text>
<text text-anchor="middle" x="338.44" y="-294.71" font-family="Arial" font-size="20.00" fill="blue">gap: &#45;8sec</text>
<text text-anchor="middle" x="338.44" y="-272.71" font-family="Arial" font-size="20.00" fill="blue">end_prev: 04/11/17, 14:03:18</text>
</g>
<!-- DATA EXFILTRATION
http | ID: 228 -->
<g id="node11" class="node">
<title>DATA EXFILTRATION
http | ID: 228</title>
<g id="a_node11"><a xlink:title="ET WEB_SPECIFIC_APPS PHP&#45;CGI query string parameter vulnerability&#10;ET WEB_SERVER Tilde in URI &#45; potential .php~ source disclosure vulnerability">
<polygon fill="none" stroke="black" stroke-width="3" points="409.82,-656.4 307.38,-705.38 102.5,-705.38 0.06,-656.4 102.5,-607.42 307.38,-607.42 409.82,-656.4"/>
<text text-anchor="middle" x="204.94" y="-663.2" font-family="Arial" font-size="24.00">DATA EXFILTRATION</text>
<text text-anchor="middle" x="204.94" y="-637.2" font-family="Arial" font-size="24.00">http | ID: 228</text>
</a>
</g>
</g>
<!-- BRUTE FORCE CREDENTIALS
unknown | ID: 672&#45;&gt;DATA EXFILTRATION
http | ID: 228 -->
<g id="edge9" class="edge">
<title>BRUTE FORCE CREDENTIALS
unknown | ID: 672&#45;&gt;DATA EXFILTRATION
http | ID: 228</title>
<path fill="none" stroke="blue" stroke-width="5" d="M205.83,-420.17C205.67,-462.49 205.37,-542.04 205.16,-596.83"/>
<polygon fill="blue" stroke="blue" stroke-width="5" points="200.79,-597.08 205.12,-607.09 209.54,-597.11 200.79,-597.08"/>
<text text-anchor="middle" x="337.44" y="-490.56" font-family="Arial" font-size="20.00" fill="blue">start_next: 04/11/17, 14:04:26</text>
<text text-anchor="middle" x="337.44" y="-468.56" font-family="Arial" font-size="20.00" fill="blue">gap: 49sec</text>
<text text-anchor="middle" x="337.44" y="-446.56" font-family="Arial" font-size="20.00" fill="blue">end_prev: 04/11/17, 14:03:37</text>
</g>
<!-- DATA EXFILTRATION
http | ID: 228&#45;&gt;DATA DELIVERY
http | ID: 21 -->
<g id="edge10" class="edge">
<title>DATA EXFILTRATION
http | ID: 228&#45;&gt;DATA DELIVERY
http | ID: 21</title>
<path fill="none" stroke="blue" stroke-width="5" d="M204.76,-705.51C204.59,-751.49 204.34,-820.88 204.16,-869.97"/>
<polygon fill="blue" stroke="blue" stroke-width="5" points="199.78,-870.1 204.12,-880.12 208.53,-870.14 199.78,-870.1"/>
<text text-anchor="middle" x="336.44" y="-772.82" font-family="Arial" font-size="20.00" fill="blue">start_next: 04/11/17, 14:04:29</text>
<text text-anchor="middle" x="336.44" y="-750.82" font-family="Arial" font-size="20.00" fill="blue">gap: &#45;34sec</text>
<text text-anchor="middle" x="336.44" y="-728.82" font-family="Arial" font-size="20.00" fill="blue">end_prev: 04/11/17, 14:05:03</text>
</g>
<!-- VULNERABILTY DISCOVERY
mysql -->
<g id="node12" class="node">
<title>VULNERABILTY DISCOVERY
mysql</title>
<g id="a_node12"><a xlink:title="ET POLICY Suspicious inbound to mySQL port 3306&#10;ET POLICY Suspicious inbound to mSQL port 4333&#10;ET POLICY Suspicious inbound to MSSQL port 1433&#10;ET POLICY Suspicious inbound to Oracle SQL port 1521&#10;ET SCAN Nessus User Agent&#10;ET POLICY Suspicious inbound to PostgreSQL port 5432">
<ellipse fill="yellow" stroke="black" stroke-width="3" cx="1100.94" cy="-556.98" rx="241.25" ry="42.35"/>
<text text-anchor="middle" x="1100.94" y="-563.78" font-family="Arial" font-size="24.00">VULNERABILTY DISCOVERY</text>
<text text-anchor="middle" x="1100.94" y="-537.78" font-family="Arial" font-size="24.00">mysql</text>
</a>
</g>
</g>
<!-- VULNERABILTY DISCOVERY
mysql&#45;&gt;ARBITRARY CODE EXECUTION
ssdp | ID: 355 -->
<g id="edge11" class="edge">
<title>VULNERABILTY DISCOVERY
mysql&#45;&gt;ARBITRARY CODE EXECUTION
ssdp | ID: 355</title>
<path fill="none" stroke="blue" stroke-width="5" d="M1115.77,-599.35C1116.56,-602.07 1117.29,-604.77 1117.94,-607.41 1123.21,-628.8 1117.32,-689.86 1132.94,-705.39 1154.1,-726.42 1210.92,-738.55 1272,-745.53"/>
<polygon fill="blue" stroke="blue" stroke-width="5" points="1271.82,-749.91 1282.24,-746.64 1272.77,-741.21 1271.82,-749.91"/>
<text text-anchor="start" x="1132.94" y="-681.4" font-family="Arial" font-size="20.00" fill="blue"> start_next: 04/11/17, 16:29:55</text>
<text text-anchor="start" x="1214.44" y="-661.4" font-family="Arial" font-size="20.00" fill="blue">gap: &#45;66sec</text>
<text text-anchor="start" x="1136.94" y="-641.4" font-family="Arial" font-size="20.00" fill="blue">end_prev: 04/11/17, 16:31:01</text>
<text text-anchor="start" x="1167.44" y="-621.4" font-family="Arial" font-weight="bold" font-size="20.00" fill="blue">Attacker: 10.0.254.31</text>
</g>
<!-- SERVICE DISCOVERY
unknown -->
<g id="node16" class="node">
<title>SERVICE DISCOVERY
unknown</title>
<g id="a_node16"><a xlink:title="ET SCAN Potential VNC Scan 5800&#45;5820">
<ellipse fill="none" stroke="black" stroke-width="3" cx="864.94" cy="-755.82" rx="189.51" ry="42.35"/>
<text text-anchor="middle" x="864.94" y="-762.62" font-family="Arial" font-size="24.00">SERVICE DISCOVERY</text>
<text text-anchor="middle" x="864.94" y="-736.62" font-family="Arial" font-size="24.00">unknown</text>
</a>
</g>
</g>
<!-- VULNERABILTY DISCOVERY
mysql&#45;&gt;SERVICE DISCOVERY
unknown -->
<g id="edge17" class="edge">
<title>VULNERABILTY DISCOVERY
mysql&#45;&gt;SERVICE DISCOVERY
unknown</title>
<path fill="none" stroke="blue" stroke-width="5" d="M907.78,-582.47C884.69,-588.98 866.32,-597.16 857.94,-607.41 846.27,-621.69 849.94,-666.53 855.39,-703.04"/>
<polygon fill="blue" stroke="blue" stroke-width="5" points="851.09,-703.88 856.96,-713.08 859.74,-702.53 851.09,-703.88"/>
<text text-anchor="middle" x="989.44" y="-673.4" font-family="Arial" font-size="20.00" fill="blue">start_next: 04/11/17, 18:00:38</text>
<text text-anchor="middle" x="989.44" y="-651.4" font-family="Arial" font-size="20.00" fill="blue">gap: &#45;666sec</text>
<text text-anchor="middle" x="989.44" y="-629.4" font-family="Arial" font-size="20.00" fill="blue">end_prev: 04/11/17, 18:11:44</text>
</g>
<!-- REMOTE SERVICE EXPLOIT
snmp | ID: 52&#45;&gt;INFO DISCOVERY
xdmcp -->
<g id="edge13" class="edge">
<title>REMOTE SERVICE EXPLOIT
snmp | ID: 52&#45;&gt;INFO DISCOVERY
xdmcp</title>
<path fill="none" stroke="blue" stroke-width="5" d="M1897.68,-899.07C1911.45,-891.97 1924.34,-883.17 1934.94,-872.24 1972.54,-833.47 1972.94,-810.83 1972.94,-756.82 1972.94,-208.28 1972.94,-208.28 1972.94,-208.28 1972.94,-185.01 1961.18,-178.33 1940.94,-166.85 1795.47,-84.4 1321.88,-56.71 1067.34,-47.65"/>
<polygon fill="blue" stroke="blue" stroke-width="5" points="1067.41,-43.28 1057.26,-47.3 1067.1,-52.02 1067.41,-43.28"/>
<text text-anchor="middle" x="2104.44" y="-490.56" font-family="Arial" font-size="20.00" fill="blue">start_next: 04/11/17, 16:30:27</text>
<text text-anchor="middle" x="2104.44" y="-468.56" font-family="Arial" font-size="20.00" fill="blue">gap: 0sec</text>
<text text-anchor="middle" x="2104.44" y="-446.56" font-family="Arial" font-size="20.00" fill="blue">end_prev: 04/11/17, 16:30:27</text>
</g>
<!-- BRUTE FORCE CREDENTIALS
unknown | ID: 358&#45;&gt;ACCOUNT MANIPULATION
snmp | ID: 53 -->
<g id="edge15" class="edge">
<title>BRUTE FORCE CREDENTIALS
unknown | ID: 358&#45;&gt;ACCOUNT MANIPULATION
snmp | ID: 53</title>
<path fill="none" stroke="blue" stroke-width="5" d="M758.22,-239.46C752.54,-267.82 749.02,-310.73 769.94,-339.71 773.73,-344.95 778.13,-349.64 782.99,-353.83"/>
<polygon fill="blue" stroke="blue" stroke-width="5" points="780.39,-357.35 790.97,-360.02 785.75,-350.44 780.39,-357.35"/>
<text text-anchor="middle" x="901.44" y="-316.71" font-family="Arial" font-size="20.00" fill="blue">start_next: 04/11/17, 16:31:19</text>
<text text-anchor="middle" x="901.44" y="-294.71" font-family="Arial" font-size="20.00" fill="blue">gap: &#45;32sec</text>
<text text-anchor="middle" x="901.44" y="-272.71" font-family="Arial" font-size="20.00" fill="blue">end_prev: 04/11/17, 16:31:50</text>
</g>
<!-- ACCOUNT MANIPULATION
snmp | ID: 53&#45;&gt;VULNERABILTY DISCOVERY
mysql -->
<g id="edge16" class="edge">
<title>ACCOUNT MANIPULATION
snmp | ID: 53&#45;&gt;VULNERABILTY DISCOVERY
mysql</title>
<path fill="none" stroke="blue" stroke-width="5" d="M1003.84,-420.23C1015,-425.91 1025.67,-432.63 1034.94,-440.56 1055.22,-457.9 1070.64,-483.1 1081.46,-505.54"/>
<polygon fill="blue" stroke="blue" stroke-width="5" points="1077.49,-507.4 1085.66,-514.63 1085.43,-503.72 1077.49,-507.4"/>
<text text-anchor="middle" x="1211.44" y="-490.56" font-family="Arial" font-size="20.00" fill="blue">start_next: 04/11/17, 17:58:59</text>
<text text-anchor="middle" x="1211.44" y="-468.56" font-family="Arial" font-size="20.00" fill="blue">gap: 5253sec</text>
<text text-anchor="middle" x="1211.44" y="-446.56" font-family="Arial" font-size="20.00" fill="blue">end_prev: 04/11/17, 16:31:27</text>
</g>
<!-- BRUTE FORCE CREDENTIALS
unknown | ID: 1 -->
<g id="node18" class="node">
<title>BRUTE FORCE CREDENTIALS
unknown | ID: 1</title>
<g id="a_node18"><a xlink:title="ET SCAN Multiple MySQL Login Failures Possible Brute Force Attempt">
<polygon fill="none" stroke="black" stroke-width="3" points="852.94,-586.98 490.94,-586.98 490.94,-526.98 852.94,-526.98 852.94,-586.98"/>
<text text-anchor="middle" x="671.94" y="-563.78" font-family="Arial" font-size="24.00">BRUTE FORCE CREDENTIALS</text>
<text text-anchor="middle" x="671.94" y="-537.78" font-family="Arial" font-size="24.00">unknown | ID: 1</text>
</a>
</g>
</g>
<!-- ACCOUNT MANIPULATION
snmp | ID: 53&#45;&gt;BRUTE FORCE CREDENTIALS
unknown | ID: 1 -->
<g id="edge21" class="edge">
<title>ACCOUNT MANIPULATION
snmp | ID: 53&#45;&gt;BRUTE FORCE CREDENTIALS
unknown | ID: 1</title>
<path fill="none" stroke="blue" stroke-width="5" d="M800.48,-420.18C790.09,-425.83 780.31,-432.56 771.94,-440.56 748.9,-462.57 764.11,-481.89 743.94,-506.56 739.91,-511.49 735.27,-516.13 730.31,-520.45"/>
<polygon fill="blue" stroke="blue" stroke-width="5" points="727.31,-517.25 722.33,-526.96 732.84,-524.03 727.31,-517.25"/>
<text text-anchor="middle" x="902.94" y="-490.56" font-family="Arial" font-size="20.00" fill="blue">start_next: 04/11/17, 18:03:11</text>
<text text-anchor="middle" x="902.94" y="-468.56" font-family="Arial" font-size="20.00" fill="blue">gap: &#45;8sec</text>
<text text-anchor="middle" x="902.94" y="-446.56" font-family="Arial" font-size="20.00" fill="blue">end_prev: 04/11/17, 18:03:20</text>
</g>
<!-- NETWORK DoS
ssdp | ID: 55 -->
<g id="node17" class="node">
<title>NETWORK DoS
ssdp | ID: 55</title>
<g id="a_node17"><a xlink:title="ET DOS Possible SSDP Amplification Scan in Progress">
<polygon fill="none" stroke="black" stroke-width="3" points="1021.48,-929.23 943.21,-978.21 786.67,-978.21 708.41,-929.23 786.67,-880.25 943.21,-880.25 1021.48,-929.23"/>
<text text-anchor="middle" x="864.94" y="-936.03" font-family="Arial" font-size="24.00">NETWORK DoS</text>
<text text-anchor="middle" x="864.94" y="-910.03" font-family="Arial" font-size="24.00">ssdp | ID: 55</text>
</a>
</g>
</g>
<!-- SERVICE DISCOVERY
unknown&#45;&gt;NETWORK DoS
ssdp | ID: 55 -->
<g id="edge18" class="edge">
<title>SERVICE DISCOVERY
unknown&#45;&gt;NETWORK DoS
ssdp | ID: 55</title>
<path fill="none" stroke="blue" stroke-width="5" d="M864.94,-798.31C864.94,-819.8 864.94,-846.4 864.94,-869.93"/>
<polygon fill="blue" stroke="blue" stroke-width="5" points="860.57,-870.14 864.94,-880.14 869.32,-870.14 860.57,-870.14"/>
<text text-anchor="middle" x="996.44" y="-856.24" font-family="Arial" font-size="20.00" fill="blue">start_next: 04/11/17, 18:01:21</text>
<text text-anchor="middle" x="996.44" y="-834.24" font-family="Arial" font-size="20.00" fill="blue">gap: 42sec</text>
<text text-anchor="middle" x="996.44" y="-812.24" font-family="Arial" font-size="20.00" fill="blue">end_prev: 04/11/17, 18:00:38</text>
</g>
<!-- NETWORK DoS
ssdp | ID: 55&#45;&gt;INFO DISCOVERY
xdmcp -->
<g id="edge19" class="edge">
<title>NETWORK DoS
ssdp | ID: 55&#45;&gt;INFO DISCOVERY
xdmcp</title>
<path fill="none" stroke="blue" stroke-width="5" d="M764.04,-894.19C744.31,-888.66 723.63,-883.65 703.94,-880.24 670.61,-874.48 582.32,-887.11 551.94,-872.24 497.63,-845.66 479.94,-817.28 479.94,-756.82 479.94,-208.28 479.94,-208.28 479.94,-208.28 479.94,-145.82 642.37,-97.41 765.68,-69.65"/>
<polygon fill="blue" stroke="blue" stroke-width="5" points="766.8,-73.89 775.61,-67.44 764.9,-65.35 766.8,-73.89"/>
<text text-anchor="middle" x="611.44" y="-490.56" font-family="Arial" font-size="20.00" fill="blue">start_next: 04/11/17, 18:02:17</text>
<text text-anchor="middle" x="611.44" y="-468.56" font-family="Arial" font-size="20.00" fill="blue">gap: 56sec</text>
<text text-anchor="middle" x="611.44" y="-446.56" font-family="Arial" font-size="20.00" fill="blue">end_prev: 04/11/17, 18:01:21</text>
</g>
<!-- SURFING
http -->
<g id="node19" class="node">
<title>SURFING
http</title>
<g id="a_node19"><a xlink:title="ET WEB_SERVER WEB&#45;PHP phpinfo access">
<ellipse fill="none" stroke="black" stroke-width="3" cx="578.94" cy="-755.82" rx="88.28" ry="42.35"/>
<text text-anchor="middle" x="578.94" y="-762.62" font-family="Arial" font-size="24.00">SURFING</text>
<text text-anchor="middle" x="578.94" y="-736.62" font-family="Arial" font-size="24.00">http</text>
</a>
</g>
</g>
<!-- BRUTE FORCE CREDENTIALS
unknown | ID: 1&#45;&gt;SURFING
http -->
<g id="edge22" class="edge">
<title>BRUTE FORCE CREDENTIALS
unknown | ID: 1&#45;&gt;SURFING
http</title>
<path fill="none" stroke="blue" stroke-width="5" d="M601.55,-587.15C594.21,-592.85 587.71,-599.55 582.94,-607.41 565.71,-635.8 564.92,-673.26 568.32,-703.31"/>
<polygon fill="blue" stroke="blue" stroke-width="5" points="564.03,-704.27 569.68,-713.61 572.71,-703.12 564.03,-704.27"/>
<text text-anchor="middle" x="714.44" y="-673.4" font-family="Arial" font-size="20.00" fill="blue">start_next: 04/11/17, 18:04:45</text>
<text text-anchor="middle" x="714.44" y="-651.4" font-family="Arial" font-size="20.00" fill="blue">gap: 29sec</text>
<text text-anchor="middle" x="714.44" y="-629.4" font-family="Arial" font-size="20.00" fill="blue">end_prev: 04/11/17, 18:04:16</text>
</g>
<!-- SURFING
http&#45;&gt;DATA DELIVERY
http | ID: 705 -->
<g id="edge23" class="edge">
<title>SURFING
http&#45;&gt;DATA DELIVERY
http | ID: 705</title>
<path fill="none" stroke="blue" stroke-width="5" d="M569.02,-798.31C563.85,-819.9 557.46,-846.64 551.81,-870.24"/>
<polygon fill="blue" stroke="blue" stroke-width="5" points="547.52,-869.4 549.44,-880.14 556.03,-871.43 547.52,-869.4"/>
<text text-anchor="middle" x="698.44" y="-856.24" font-family="Arial" font-size="20.00" fill="blue">start_next: 04/11/17, 18:04:49</text>
<text text-anchor="middle" x="698.44" y="-834.24" font-family="Arial" font-size="20.00" fill="blue">gap: 1sec</text>
<text text-anchor="middle" x="698.44" y="-812.24" font-family="Arial" font-size="20.00" fill="blue">end_prev: 04/11/17, 18:04:48</text>
</g>
</g>
</svg>
