<?xml version="1.0" encoding="UTF-8" standalone="no"?>
<!DOCTYPE svg PUBLIC "-//W3C//DTD SVG 1.1//EN"
 "http://www.w3.org/Graphics/SVG/1.1/DTD/svg11.dtd">
<!-- Generated by graphviz version 2.50.0 (0)
 -->
<!-- Title: DATADELIVERYunknown Pages: 1 -->
<svg width="1350pt" height="1345pt"
 viewBox="0.00 0.00 1349.94 1345.12" xmlns="http://www.w3.org/2000/svg" xmlns:xlink="http://www.w3.org/1999/xlink">
<g id="graph0" class="graph" transform="scale(1 1) rotate(0) translate(4 1341.12)">
<title>DATADELIVERYunknown</title>
<polygon fill="white" stroke="transparent" points="-4,4 -4,-1341.12 1345.94,-1341.12 1345.94,4 -4,4"/>
<!-- Victim: 10.0.99.245
DATA DELIVERY
unknown -->
<g id="node1" class="node">
<title>Victim: 10.0.99.245
DATA DELIVERY
unknown</title>
<polygon fill="salmon" stroke="black" stroke-width="3" points="872.33,-1240.1 872.33,-1294.49 771.93,-1332.95 629.95,-1332.95 529.55,-1294.49 529.55,-1240.1 629.95,-1201.64 771.93,-1201.64 872.33,-1240.1"/>
<polygon fill="none" stroke="black" stroke-width="3" points="876.33,-1237.36 876.33,-1297.23 772.67,-1336.94 629.21,-1336.94 525.56,-1297.23 525.56,-1237.36 629.21,-1197.65 772.67,-1197.65 876.33,-1237.36"/>
<text text-anchor="middle" x="700.94" y="-1287.1" font-family="Arial" font-size="24.00">Victim: 10.0.99.245</text>
<text text-anchor="middle" x="700.94" y="-1261.1" font-family="Arial" font-size="24.00">DATA DELIVERY</text>
<text text-anchor="middle" x="700.94" y="-1235.1" font-family="Arial" font-size="24.00">unknown</text>
</g>
<!-- DATA DELIVERY
unknown | ID: 935 -->
<g id="node2" class="node">
<title>DATA DELIVERY
unknown | ID: 935</title>
<g id="a_node2"><a xlink:title="ET WEB_SERVER PHP tags in HTTP POST&#10;GPL WEB_SERVER perl post attempt">
<polygon fill="none" stroke="black" stroke-width="3" stroke-dasharray="1,5" points="1216,-1131.49 1129.97,-1180.47 957.91,-1180.47 871.88,-1131.49 957.91,-1082.51 1129.97,-1082.51 1216,-1131.49"/>
<text text-anchor="middle" x="1043.94" y="-1138.29" font-family="Arial" font-size="24.00">DATA DELIVERY</text>
<text text-anchor="middle" x="1043.94" y="-1112.29" font-family="Arial" font-size="24.00">unknown | ID: 935</text>
</a>
</g>
</g>
<!-- DATA DELIVERY
unknown | ID: 935&#45;&gt;Victim: 10.0.99.245
DATA DELIVERY
unknown -->
<g id="edge1" class="edge">
<title>DATA DELIVERY
unknown | ID: 935&#45;&gt;Victim: 10.0.99.245
DATA DELIVERY
unknown</title>
<path fill="none" stroke="black" stroke-width="5" d="M942.42,-1172.09C908.69,-1185.25 870.6,-1200.11 834.82,-1214.07"/>
<polygon fill="black" stroke="black" stroke-width="5" points="833.01,-1210.08 825.28,-1217.79 836.19,-1218.23 833.01,-1210.08"/>
</g>
<!-- DATA DELIVERY
unknown | ID: 388 -->
<g id="node3" class="node">
<title>DATA DELIVERY
unknown | ID: 388</title>
<g id="a_node3"><a xlink:title="ET WEB_SERVER PHP Possible php Remote File Inclusion Attempt&#10;ET WEB_SERVER PHP tags in HTTP POST&#10;GPL WEB_SERVER perl post attempt">
<polygon fill="salmon" stroke="black" stroke-width="3" points="530,-1131.49 443.97,-1180.47 271.91,-1180.47 185.88,-1131.49 271.91,-1082.51 443.97,-1082.51 530,-1131.49"/>
<text text-anchor="middle" x="357.94" y="-1138.29" font-family="Arial" font-size="24.00">DATA DELIVERY</text>
<text text-anchor="middle" x="357.94" y="-1112.29" font-family="Arial" font-size="24.00">unknown | ID: 388</text>
</a>
</g>
</g>
<!-- DATA DELIVERY
unknown | ID: 388&#45;&gt;Victim: 10.0.99.245
DATA DELIVERY
unknown -->
<g id="edge2" class="edge">
<title>DATA DELIVERY
unknown | ID: 388&#45;&gt;Victim: 10.0.99.245
DATA DELIVERY
unknown</title>
<path fill="none" stroke="black" stroke-width="5" d="M459.46,-1172.09C493.19,-1185.25 531.28,-1200.11 567.07,-1214.07"/>
<polygon fill="black" stroke="black" stroke-width="5" points="565.69,-1218.23 576.6,-1217.79 568.87,-1210.08 565.69,-1218.23"/>
</g>
<!-- DATA DELIVERY
unknown | ID: 56 -->
<g id="node4" class="node">
<title>DATA DELIVERY
unknown | ID: 56</title>
<g id="a_node4"><a xlink:title="ET WEB_SERVER PHP Possible php Remote File Inclusion Attempt&#10;ET WEB_SERVER PHP tags in HTTP POST&#10;GPL WEB_SERVER perl post attempt">
<polygon fill="salmon" stroke="black" stroke-width="3" points="864.04,-1131.49 782.49,-1180.47 619.39,-1180.47 537.84,-1131.49 619.39,-1082.51 782.49,-1082.51 864.04,-1131.49"/>
<text text-anchor="middle" x="700.94" y="-1138.29" font-family="Arial" font-size="24.00">DATA DELIVERY</text>
<text text-anchor="middle" x="700.94" y="-1112.29" font-family="Arial" font-size="24.00">unknown | ID: 56</text>
</a>
</g>
</g>
<!-- DATA DELIVERY
unknown | ID: 56&#45;&gt;Victim: 10.0.99.245
DATA DELIVERY
unknown -->
<g id="edge3" class="edge">
<title>DATA DELIVERY
unknown | ID: 56&#45;&gt;Victim: 10.0.99.245
DATA DELIVERY
unknown</title>
<path fill="none" stroke="black" stroke-width="5" d="M700.94,-1180.8C700.94,-1182.9 700.94,-1185.03 700.94,-1187.18"/>
<polygon fill="black" stroke="black" stroke-width="5" points="696.57,-1187.33 700.94,-1197.33 705.32,-1187.33 696.57,-1187.33"/>
</g>
<!-- INFO DISCOVERY
xdmcp -->
<g id="node5" class="node">
<title>INFO DISCOVERY
xdmcp</title>
<g id="a_node5"><a xlink:title="GPL WEB_SERVER mod_gzip_status access&#10;GPL RPC xdmcp info query">
<ellipse fill="yellow" stroke="black" stroke-width="3" cx="759.94" cy="-777.22" rx="156.04" ry="42.35"/>
<text text-anchor="middle" x="759.94" y="-784.02" font-family="Arial" font-size="24.00">INFO DISCOVERY</text>
<text text-anchor="middle" x="759.94" y="-758.02" font-family="Arial" font-size="24.00">xdmcp</text>
</a>
</g>
</g>
<!-- INFO DISCOVERY
xdmcp&#45;&gt;DATA DELIVERY
unknown | ID: 935 -->
<g id="edge6" class="edge">
<title>INFO DISCOVERY
xdmcp&#45;&gt;DATA DELIVERY
unknown | ID: 935</title>
<path fill="none" stroke="blue" stroke-width="5" d="M910.14,-789.01C963.64,-796.17 1014.9,-808.03 1031.94,-827.64 1090.21,-894.71 1076.84,-1005.03 1060.98,-1072.39"/>
<polygon fill="blue" stroke="blue" stroke-width="5" points="1056.65,-1071.66 1058.53,-1082.41 1065.15,-1073.74 1056.65,-1071.66"/>
<text text-anchor="start" x="1073.94" y="-983.07" font-family="Arial" font-size="20.00" fill="blue"> start_next: 04/11/17, 16:32:34</text>
<text text-anchor="start" x="1164.44" y="-963.07" font-family="Arial" font-size="20.00" fill="blue">gap: 7sec</text>
<text text-anchor="start" x="1077.94" y="-943.07" font-family="Arial" font-size="20.00" fill="blue">end_prev: 04/11/17, 16:32:27</text>
<text text-anchor="start" x="1108.44" y="-923.07" font-family="Arial" font-weight="bold" font-size="20.00" fill="blue">Attacker: 10.0.254.31</text>
</g>
<!-- SURFING
unknown -->
<g id="node6" class="node">
<title>SURFING
unknown</title>
<g id="a_node6"><a xlink:title="ET WEB_SERVER WEB&#45;PHP phpinfo access">
<ellipse fill="none" stroke="black" stroke-width="3" cx="446.94" cy="-958.07" rx="88.28" ry="42.35"/>
<text text-anchor="middle" x="446.94" y="-964.87" font-family="Arial" font-size="24.00">SURFING</text>
<text text-anchor="middle" x="446.94" y="-938.87" font-family="Arial" font-size="24.00">unknown</text>
</a>
</g>
</g>
<!-- INFO DISCOVERY
xdmcp&#45;&gt;SURFING
unknown -->
<g id="edge4" class="edge">
<title>INFO DISCOVERY
xdmcp&#45;&gt;SURFING
unknown</title>
<path fill="none" stroke="blue" stroke-width="5" d="M610.45,-789.86C555.85,-797.17 502.82,-808.92 483.94,-827.64 460.26,-851.13 476.64,-869.95 468.56,-906.63"/>
<polygon fill="blue" stroke="blue" stroke-width="5" points="464.32,-905.57 465.94,-916.36 472.77,-907.84 464.32,-905.57"/>
<text text-anchor="start" x="483.94" y="-892.64" font-family="Arial" font-size="20.00" fill="blue"> start_next: 04/11/17, 14:10:08</text>
<text text-anchor="start" x="574.44" y="-872.64" font-family="Arial" font-size="20.00" fill="blue">gap: 1sec</text>
<text text-anchor="start" x="487.94" y="-852.64" font-family="Arial" font-size="20.00" fill="blue">end_prev: 04/11/17, 14:10:07</text>
<text text-anchor="start" x="518.44" y="-832.64" font-family="Arial" font-weight="bold" font-size="20.00" fill="blue">Attacker: 10.0.254.31</text>
</g>
<!-- INFO DISCOVERY
xdmcp&#45;&gt;SURFING
unknown -->
<g id="edge15" class="edge">
<title>INFO DISCOVERY
xdmcp&#45;&gt;SURFING
unknown</title>
<path fill="none" stroke="blue" stroke-width="5" d="M768.42,-819.58C771.66,-847.94 770.38,-884.47 748.94,-907.64 721.87,-936.89 622.83,-948.83 545.45,-953.71"/>
<polygon fill="blue" stroke="blue" stroke-width="5" points="544.89,-949.36 535.17,-954.32 545.41,-958.09 544.89,-949.36"/>
<text text-anchor="middle" x="900.44" y="-884.64" font-family="Arial" font-size="20.00" fill="blue">start_next: 04/11/17, 19:00:32</text>
<text text-anchor="middle" x="900.44" y="-862.64" font-family="Arial" font-size="20.00" fill="blue">gap: 54sec</text>
<text text-anchor="middle" x="900.44" y="-840.64" font-family="Arial" font-size="20.00" fill="blue">end_prev: 04/11/17, 18:59:38</text>
</g>
<!-- SURFING
unknown&#45;&gt;DATA DELIVERY
unknown | ID: 388 -->
<g id="edge10" class="edge">
<title>SURFING
unknown&#45;&gt;DATA DELIVERY
unknown | ID: 388</title>
<path fill="none" stroke="blue" stroke-width="5" d="M358.87,-962.16C284.11,-966.85 185.07,-978.68 159.94,-1008.5 141.04,-1030.93 142.24,-1051.1 159.94,-1074.5 168.69,-1086.06 191.8,-1095.92 219.28,-1104"/>
<polygon fill="blue" stroke="blue" stroke-width="5" points="218.36,-1108.28 229.17,-1106.78 220.73,-1099.86 218.36,-1108.28"/>
<text text-anchor="middle" x="291.44" y="-1058.5" font-family="Arial" font-size="20.00" fill="blue">start_next: 04/11/17, 18:04:53</text>
<text text-anchor="middle" x="291.44" y="-1036.5" font-family="Arial" font-size="20.00" fill="blue">gap: 1sec</text>
<text text-anchor="middle" x="291.44" y="-1014.5" font-family="Arial" font-size="20.00" fill="blue">end_prev: 04/11/17, 18:04:51</text>
</g>
<!-- SURFING
unknown&#45;&gt;DATA DELIVERY
unknown | ID: 388 -->
<g id="edge16" class="edge">
<title>SURFING
unknown&#45;&gt;DATA DELIVERY
unknown | ID: 388</title>
<path fill="none" stroke="blue" stroke-width="5" d="M436.88,-1000.32C436.22,-1003.09 435.57,-1005.83 434.94,-1008.5 428.7,-1035.04 433.94,-1046.36 419.88,-1073.31"/>
<polygon fill="blue" stroke="blue" stroke-width="5" points="415.96,-1071.35 414.87,-1082.21 423.59,-1075.65 415.96,-1071.35"/>
<text text-anchor="middle" x="566.44" y="-1058.5" font-family="Arial" font-size="20.00" fill="blue">start_next: 04/11/17, 19:00:33</text>
<text text-anchor="middle" x="566.44" y="-1036.5" font-family="Arial" font-size="20.00" fill="blue">gap: 1sec</text>
<text text-anchor="middle" x="566.44" y="-1014.5" font-family="Arial" font-size="20.00" fill="blue">end_prev: 04/11/17, 19:00:32</text>
</g>
<!-- SURFING
unknown&#45;&gt;DATA DELIVERY
unknown | ID: 56 -->
<g id="edge5" class="edge">
<title>SURFING
unknown&#45;&gt;DATA DELIVERY
unknown | ID: 56</title>
<path fill="none" stroke="blue" stroke-width="5" d="M534.33,-965.26C597.09,-971.69 674.12,-984.35 694.94,-1008.5 709.77,-1025.7 713.24,-1049.85 712.26,-1072.14"/>
<polygon fill="blue" stroke="blue" stroke-width="5" points="707.89,-1071.92 711.53,-1082.22 716.62,-1072.56 707.89,-1071.92"/>
<text text-anchor="middle" x="843.44" y="-1058.5" font-family="Arial" font-size="20.00" fill="blue">start_next: 04/11/17, 14:10:09</text>
<text text-anchor="middle" x="843.44" y="-1036.5" font-family="Arial" font-size="20.00" fill="blue">gap: 1sec</text>
<text text-anchor="middle" x="843.44" y="-1014.5" font-family="Arial" font-size="20.00" fill="blue">end_prev: 04/11/17, 14:10:08</text>
</g>
<!-- DATA EXFILTRATION
unknown | ID: 383 -->
<g id="node7" class="node">
<title>DATA EXFILTRATION
unknown | ID: 383</title>
<g id="a_node7"><a xlink:title="ET WEB_SPECIFIC_APPS PHP&#45;CGI query string parameter vulnerability">
<polygon fill="yellow" stroke="black" stroke-width="3" points="409.82,-409.82 307.38,-458.8 102.5,-458.8 0.06,-409.82 102.5,-360.84 307.38,-360.84 409.82,-409.82"/>
<text text-anchor="middle" x="204.94" y="-416.62" font-family="Arial" font-size="24.00">DATA EXFILTRATION</text>
<text text-anchor="middle" x="204.94" y="-390.62" font-family="Arial" font-size="24.00">unknown | ID: 383</text>
</a>
</g>
</g>
<!-- NETWORK DoS
ssdp | ID: 55 -->
<g id="node8" class="node">
<title>NETWORK DoS
ssdp | ID: 55</title>
<g id="a_node8"><a xlink:title="ET DOS Possible SSDP Amplification Scan in Progress">
<polygon fill="none" stroke="black" stroke-width="3" points="361.48,-603.8 283.21,-652.78 126.67,-652.78 48.41,-603.8 126.67,-554.82 283.21,-554.82 361.48,-603.8"/>
<text text-anchor="middle" x="204.94" y="-610.6" font-family="Arial" font-size="24.00">NETWORK DoS</text>
<text text-anchor="middle" x="204.94" y="-584.6" font-family="Arial" font-size="24.00">ssdp | ID: 55</text>
</a>
</g>
</g>
<!-- DATA EXFILTRATION
unknown | ID: 383&#45;&gt;NETWORK DoS
ssdp | ID: 55 -->
<g id="edge7" class="edge">
<title>DATA EXFILTRATION
unknown | ID: 383&#45;&gt;NETWORK DoS
ssdp | ID: 55</title>
<path fill="none" stroke="blue" stroke-width="5" d="M204.94,-459.27C204.94,-485.17 204.94,-517.26 204.94,-544.52"/>
<polygon fill="blue" stroke="blue" stroke-width="5" points="200.57,-544.71 204.94,-554.71 209.32,-544.71 200.57,-544.71"/>
<text text-anchor="start" x="204.94" y="-531.81" font-family="Arial" font-size="20.00" fill="blue"> start_next: 04/11/17, 18:03:37</text>
<text text-anchor="start" x="278.44" y="-511.81" font-family="Arial" font-size="20.00" fill="blue">gap: 5458sec</text>
<text text-anchor="start" x="208.94" y="-491.81" font-family="Arial" font-size="20.00" fill="blue">end_prev: 04/11/17, 16:32:39</text>
<text text-anchor="start" x="239.44" y="-471.81" font-family="Arial" font-weight="bold" font-size="20.00" fill="blue">Attacker: 10.0.254.31</text>
</g>
<!-- INFO DISCOVERY
unknown -->
<g id="node9" class="node">
<title>INFO DISCOVERY
unknown</title>
<g id="a_node9"><a xlink:title="GPL WEB_SERVER mod_gzip_status access">
<ellipse fill="none" stroke="black" stroke-width="3" cx="204.94" cy="-777.22" rx="156.04" ry="42.35"/>
<text text-anchor="middle" x="204.94" y="-784.02" font-family="Arial" font-size="24.00">INFO DISCOVERY</text>
<text text-anchor="middle" x="204.94" y="-758.02" font-family="Arial" font-size="24.00">unknown</text>
</a>
</g>
</g>
<!-- NETWORK DoS
ssdp | ID: 55&#45;&gt;INFO DISCOVERY
unknown -->
<g id="edge8" class="edge">
<title>NETWORK DoS
ssdp | ID: 55&#45;&gt;INFO DISCOVERY
unknown</title>
<path fill="none" stroke="blue" stroke-width="5" d="M204.94,-653.01C204.94,-675.33 204.94,-701.89 204.94,-724.62"/>
<polygon fill="blue" stroke="blue" stroke-width="5" points="200.57,-724.77 204.94,-734.77 209.32,-724.77 200.57,-724.77"/>
<text text-anchor="middle" x="336.44" y="-710.79" font-family="Arial" font-size="20.00" fill="blue">start_next: 04/11/17, 18:04:49</text>
<text text-anchor="middle" x="336.44" y="-688.79" font-family="Arial" font-size="20.00" fill="blue">gap: 72sec</text>
<text text-anchor="middle" x="336.44" y="-666.79" font-family="Arial" font-size="20.00" fill="blue">end_prev: 04/11/17, 18:03:37</text>
</g>
<!-- INFO DISCOVERY
unknown&#45;&gt;SURFING
unknown -->
<g id="edge9" class="edge">
<title>INFO DISCOVERY
unknown&#45;&gt;SURFING
unknown</title>
<path fill="none" stroke="blue" stroke-width="5" d="M194.09,-819.61C189.39,-847.61 188.85,-883.71 208.94,-907.64 227.21,-929.41 292.12,-941.95 349.54,-948.95"/>
<polygon fill="blue" stroke="blue" stroke-width="5" points="349.35,-953.33 359.79,-950.15 350.37,-944.64 349.35,-953.33"/>
<text text-anchor="middle" x="340.44" y="-884.64" font-family="Arial" font-size="20.00" fill="blue">start_next: 04/11/17, 18:04:51</text>
<text text-anchor="middle" x="340.44" y="-862.64" font-family="Arial" font-size="20.00" fill="blue">gap: 3sec</text>
<text text-anchor="middle" x="340.44" y="-840.64" font-family="Arial" font-size="20.00" fill="blue">end_prev: 04/11/17, 18:04:49</text>
</g>
<!-- DATA EXFILTRATION
unknown | ID: 57 -->
<g id="node10" class="node">
<title>DATA EXFILTRATION
unknown | ID: 57</title>
<g id="a_node10"><a xlink:title="ET WEB_SPECIFIC_APPS PHP&#45;CGI query string parameter vulnerability">
<polygon fill="yellow" stroke="black" stroke-width="3" points="964.82,-48.99 862.38,-97.97 657.5,-97.97 555.06,-48.99 657.5,-0.01 862.38,-0.01 964.82,-48.99"/>
<text text-anchor="middle" x="759.94" y="-55.79" font-family="Arial" font-size="24.00">DATA EXFILTRATION</text>
<text text-anchor="middle" x="759.94" y="-29.79" font-family="Arial" font-size="24.00">unknown | ID: 57</text>
</a>
</g>
</g>
<!-- VULNERABILTY DISCOVERY
ms&#45;sql&#45;s -->
<g id="node11" class="node">
<title>VULNERABILTY DISCOVERY
ms&#45;sql&#45;s</title>
<g id="a_node11"><a xlink:title="ET POLICY Suspicious inbound to mySQL port 3306&#10;ET POLICY Suspicious inbound to mSQL port 4333&#10;ET POLICY Suspicious inbound to MSSQL port 1433&#10;ET POLICY Suspicious inbound to Oracle SQL port 1521&#10;ET SCAN Nessus User Agent&#10;ET POLICY Suspicious inbound to PostgreSQL port 5432">
<ellipse fill="none" stroke="black" stroke-width="3" cx="759.94" cy="-236.41" rx="241.25" ry="42.35"/>
<text text-anchor="middle" x="759.94" y="-243.21" font-family="Arial" font-size="24.00">VULNERABILTY DISCOVERY</text>
<text text-anchor="middle" x="759.94" y="-217.21" font-family="Arial" font-size="24.00">ms&#45;sql&#45;s</text>
</a>
</g>
</g>
<!-- DATA EXFILTRATION
unknown | ID: 57&#45;&gt;VULNERABILTY DISCOVERY
ms&#45;sql&#45;s -->
<g id="edge11" class="edge">
<title>DATA EXFILTRATION
unknown | ID: 57&#45;&gt;VULNERABILTY DISCOVERY
ms&#45;sql&#45;s</title>
<path fill="none" stroke="blue" stroke-width="5" d="M759.94,-98.22C759.94,-124.37 759.94,-156.7 759.94,-183.4"/>
<polygon fill="blue" stroke="blue" stroke-width="5" points="755.57,-183.71 759.94,-193.71 764.32,-183.71 755.57,-183.71"/>
<text text-anchor="start" x="759.94" y="-170.98" font-family="Arial" font-size="20.00" fill="blue"> start_next: 04/11/17, 18:58:13</text>
<text text-anchor="start" x="833.44" y="-150.98" font-family="Arial" font-size="20.00" fill="blue">gap: 3157sec</text>
<text text-anchor="start" x="763.94" y="-130.98" font-family="Arial" font-size="20.00" fill="blue">end_prev: 04/11/17, 18:05:36</text>
<text text-anchor="start" x="794.44" y="-110.98" font-family="Arial" font-weight="bold" font-size="20.00" fill="blue">Attacker: 10.0.254.31</text>
</g>
<!-- SERVICE DISCOVERY
unknown -->
<g id="node12" class="node">
<title>SERVICE DISCOVERY
unknown</title>
<g id="a_node12"><a xlink:title="ET SCAN Potential VNC Scan 5800&#45;5820">
<ellipse fill="none" stroke="black" stroke-width="3" cx="759.94" cy="-409.82" rx="189.51" ry="42.35"/>
<text text-anchor="middle" x="759.94" y="-416.62" font-family="Arial" font-size="24.00">SERVICE DISCOVERY</text>
<text text-anchor="middle" x="759.94" y="-390.62" font-family="Arial" font-size="24.00">unknown</text>
</a>
</g>
</g>
<!-- VULNERABILTY DISCOVERY
ms&#45;sql&#45;s&#45;&gt;SERVICE DISCOVERY
unknown -->
<g id="edge12" class="edge">
<title>VULNERABILTY DISCOVERY
ms&#45;sql&#45;s&#45;&gt;SERVICE DISCOVERY
unknown</title>
<path fill="none" stroke="blue" stroke-width="5" d="M759.94,-278.9C759.94,-302.41 759.94,-332.04 759.94,-357.06"/>
<polygon fill="blue" stroke="blue" stroke-width="5" points="755.57,-357.12 759.94,-367.12 764.32,-357.12 755.57,-357.12"/>
<text text-anchor="middle" x="891.44" y="-336.83" font-family="Arial" font-size="20.00" fill="blue">start_next: 04/11/17, 18:58:34</text>
<text text-anchor="middle" x="891.44" y="-314.83" font-family="Arial" font-size="20.00" fill="blue">gap: &#45;116sec</text>
<text text-anchor="middle" x="891.44" y="-292.83" font-family="Arial" font-size="20.00" fill="blue">end_prev: 04/11/17, 19:00:31</text>
</g>
<!-- ARBITRARY CODE EXECUTION
ssdp | ID: 355 -->
<g id="node13" class="node">
<title>ARBITRARY CODE EXECUTION
ssdp | ID: 355</title>
<g id="a_node13"><a xlink:title="GPL MISC UPnP malformed advertisement">
<polygon fill="none" stroke="black" stroke-width="3" points="947.44,-633.8 572.44,-633.8 572.44,-573.8 947.44,-573.8 947.44,-633.8"/>
<text text-anchor="middle" x="759.94" y="-610.6" font-family="Arial" font-size="24.00">ARBITRARY CODE EXECUTION</text>
<text text-anchor="middle" x="759.94" y="-584.6" font-family="Arial" font-size="24.00">ssdp | ID: 355</text>
</a>
</g>
</g>
<!-- SERVICE DISCOVERY
unknown&#45;&gt;ARBITRARY CODE EXECUTION
ssdp | ID: 355 -->
<g id="edge13" class="edge">
<title>SERVICE DISCOVERY
unknown&#45;&gt;ARBITRARY CODE EXECUTION
ssdp | ID: 355</title>
<path fill="none" stroke="blue" stroke-width="5" d="M759.94,-452.48C759.94,-485.37 759.94,-530.96 759.94,-563.29"/>
<polygon fill="blue" stroke="blue" stroke-width="5" points="755.57,-563.7 759.94,-573.7 764.32,-563.7 755.57,-563.7"/>
<text text-anchor="middle" x="891.44" y="-523.81" font-family="Arial" font-size="20.00" fill="blue">start_next: 04/11/17, 18:59:26</text>
<text text-anchor="middle" x="891.44" y="-501.81" font-family="Arial" font-size="20.00" fill="blue">gap: 52sec</text>
<text text-anchor="middle" x="891.44" y="-479.81" font-family="Arial" font-size="20.00" fill="blue">end_prev: 04/11/17, 18:58:34</text>
</g>
<!-- ARBITRARY CODE EXECUTION
ssdp | ID: 355&#45;&gt;INFO DISCOVERY
xdmcp -->
<g id="edge14" class="edge">
<title>ARBITRARY CODE EXECUTION
ssdp | ID: 355&#45;&gt;INFO DISCOVERY
xdmcp</title>
<path fill="none" stroke="blue" stroke-width="5" d="M759.94,-633.88C759.94,-658.66 759.94,-694.87 759.94,-724.56"/>
<polygon fill="blue" stroke="blue" stroke-width="5" points="755.57,-724.77 759.94,-734.77 764.32,-724.77 755.57,-724.77"/>
<text text-anchor="middle" x="891.44" y="-710.79" font-family="Arial" font-size="20.00" fill="blue">start_next: 04/11/17, 18:59:38</text>
<text text-anchor="middle" x="891.44" y="-688.79" font-family="Arial" font-size="20.00" fill="blue">gap: 12sec</text>
<text text-anchor="middle" x="891.44" y="-666.79" font-family="Arial" font-size="20.00" fill="blue">end_prev: 04/11/17, 18:59:26</text>
</g>
</g>
</svg>
