<?xml version="1.0" encoding="UTF-8" standalone="no"?>
<!DOCTYPE svg PUBLIC "-//W3C//DTD SVG 1.1//EN"
 "http://www.w3.org/Graphics/SVG/1.1/DTD/svg11.dtd">
<!-- Generated by graphviz version 2.50.0 (0)
 -->
<!-- Title: DATAEXFILTRATIONunknown Pages: 1 -->
<svg width="1723pt" height="1504pt"
 viewBox="0.00 0.00 1723.38 1503.87" xmlns="http://www.w3.org/2000/svg" xmlns:xlink="http://www.w3.org/1999/xlink">
<g id="graph0" class="graph" transform="scale(1 1) rotate(0) translate(4 1499.87)">
<title>DATAEXFILTRATIONunknown</title>
<polygon fill="white" stroke="transparent" points="-4,4 -4,-1499.87 1719.38,-1499.87 1719.38,4 -4,4"/>
<!-- Victim: 10.0.0.223
DATA EXFILTRATION
unknown -->
<g id="node1" class="node">
<title>Victim: 10.0.0.223
DATA EXFILTRATION
unknown</title>
<polygon fill="salmon" stroke="black" stroke-width="3" points="1644.59,-1398.85 1644.59,-1453.24 1532,-1491.7 1372.76,-1491.7 1260.17,-1453.24 1260.17,-1398.85 1372.76,-1360.39 1532,-1360.39 1644.59,-1398.85"/>
<polygon fill="none" stroke="black" stroke-width="3" points="1648.59,-1396 1648.59,-1456.09 1532.66,-1495.69 1372.1,-1495.69 1256.16,-1456.09 1256.16,-1396 1372.1,-1356.4 1532.66,-1356.4 1648.59,-1396"/>
<text text-anchor="middle" x="1452.38" y="-1445.84" font-family="Arial" font-size="24.00">Victim: 10.0.0.223</text>
<text text-anchor="middle" x="1452.38" y="-1419.84" font-family="Arial" font-size="24.00">DATA EXFILTRATION</text>
<text text-anchor="middle" x="1452.38" y="-1393.84" font-family="Arial" font-size="24.00">unknown</text>
</g>
<!-- DATA EXFILTRATION
unknown | ID: 301 -->
<g id="node2" class="node">
<title>DATA EXFILTRATION
unknown | ID: 301</title>
<g id="a_node2"><a xlink:title="ET WEB_SPECIFIC_APPS PHP&#45;CGI query string parameter vulnerability">
<polygon fill="salmon" stroke="black" stroke-width="3" points="1657.26,-1225.23 1554.82,-1274.21 1349.94,-1274.21 1247.5,-1225.23 1349.94,-1176.25 1554.82,-1176.25 1657.26,-1225.23"/>
<text text-anchor="middle" x="1452.38" y="-1232.03" font-family="Arial" font-size="24.00">DATA EXFILTRATION</text>
<text text-anchor="middle" x="1452.38" y="-1206.03" font-family="Arial" font-size="24.00">unknown | ID: 301</text>
</a>
</g>
</g>
<!-- DATA EXFILTRATION
unknown | ID: 301&#45;&gt;Victim: 10.0.0.223
DATA EXFILTRATION
unknown -->
<g id="edge1" class="edge">
<title>DATA EXFILTRATION
unknown | ID: 301&#45;&gt;Victim: 10.0.0.223
DATA EXFILTRATION
unknown</title>
<path fill="none" stroke="black" stroke-width="5" d="M1452.38,-1274.36C1452.38,-1295.88 1452.38,-1321.81 1452.38,-1346.05"/>
<polygon fill="black" stroke="black" stroke-width="5" points="1448,-1346.32 1452.38,-1356.32 1456.75,-1346.32 1448,-1346.32"/>
</g>
<!-- VULNERABILTY DISCOVERY
postgresql -->
<g id="node3" class="node">
<title>VULNERABILTY DISCOVERY
postgresql</title>
<g id="a_node3"><a xlink:title="ET POLICY Suspicious inbound to Oracle SQL port 1521&#10;ET POLICY Suspicious inbound to PostgreSQL port 5432">
<ellipse fill="yellow" stroke="black" stroke-width="3" cx="253.38" cy="-222.41" rx="241.25" ry="42.35"/>
<text text-anchor="middle" x="253.38" y="-229.21" font-family="Arial" font-size="24.00">VULNERABILTY DISCOVERY</text>
<text text-anchor="middle" x="253.38" y="-203.21" font-family="Arial" font-size="24.00">postgresql</text>
</a>
</g>
</g>
<!-- VULNERABILTY DISCOVERY
ms&#45;sql&#45;s -->
<g id="node4" class="node">
<title>VULNERABILTY DISCOVERY
ms&#45;sql&#45;s</title>
<g id="a_node4"><a xlink:title="ET POLICY Suspicious inbound to MSSQL port 1433&#10;ET POLICY Suspicious inbound to Oracle SQL port 1521&#10;ET POLICY Suspicious inbound to mSQL port 4333">
<ellipse fill="none" stroke="black" stroke-width="3" cx="253.38" cy="-403.26" rx="241.25" ry="42.35"/>
<text text-anchor="middle" x="253.38" y="-410.06" font-family="Arial" font-size="24.00">VULNERABILTY DISCOVERY</text>
<text text-anchor="middle" x="253.38" y="-384.06" font-family="Arial" font-size="24.00">ms&#45;sql&#45;s</text>
</a>
</g>
</g>
<!-- VULNERABILTY DISCOVERY
postgresql&#45;&gt;VULNERABILTY DISCOVERY
ms&#45;sql&#45;s -->
<g id="edge2" class="edge">
<title>VULNERABILTY DISCOVERY
postgresql&#45;&gt;VULNERABILTY DISCOVERY
ms&#45;sql&#45;s</title>
<path fill="none" stroke="blue" stroke-width="5" d="M253.38,-264.89C253.38,-290.42 253.38,-323.35 253.38,-350.57"/>
<polygon fill="blue" stroke="blue" stroke-width="5" points="249,-350.69 253.38,-360.69 257.75,-350.69 249,-350.69"/>
<text text-anchor="start" x="253.38" y="-337.83" font-family="Arial" font-size="20.00" fill="blue"> start_next: 04/11/17, 14:03:01</text>
<text text-anchor="start" x="326.88" y="-317.83" font-family="Arial" font-size="20.00" fill="blue">gap: 3603sec</text>
<text text-anchor="start" x="257.38" y="-297.83" font-family="Arial" font-size="20.00" fill="blue">end_prev: 04/11/17, 13:02:57</text>
<text text-anchor="start" x="287.88" y="-277.83" font-family="Arial" font-weight="bold" font-size="20.00" fill="blue">Attacker: 10.0.254.31</text>
</g>
<!-- SERVICE DISCOVERY
unknown -->
<g id="node5" class="node">
<title>SERVICE DISCOVERY
unknown</title>
<g id="a_node5"><a xlink:title="ET SCAN Potential VNC Scan 5800&#45;5820">
<ellipse fill="none" stroke="black" stroke-width="3" cx="304.38" cy="-570.11" rx="189.51" ry="42.35"/>
<text text-anchor="middle" x="304.38" y="-576.91" font-family="Arial" font-size="24.00">SERVICE DISCOVERY</text>
<text text-anchor="middle" x="304.38" y="-550.91" font-family="Arial" font-size="24.00">unknown</text>
</a>
</g>
</g>
<!-- VULNERABILTY DISCOVERY
ms&#45;sql&#45;s&#45;&gt;SERVICE DISCOVERY
unknown -->
<g id="edge3" class="edge">
<title>VULNERABILTY DISCOVERY
ms&#45;sql&#45;s&#45;&gt;SERVICE DISCOVERY
unknown</title>
<path fill="none" stroke="blue" stroke-width="5" d="M266.25,-445.86C273.01,-467.72 281.36,-494.72 288.53,-517.87"/>
<polygon fill="blue" stroke="blue" stroke-width="5" points="284.38,-519.27 291.51,-527.53 292.74,-516.68 284.38,-519.27"/>
<text text-anchor="middle" x="418.88" y="-503.69" font-family="Arial" font-size="20.00" fill="blue">start_next: 04/11/17, 14:04:31</text>
<text text-anchor="middle" x="418.88" y="-481.69" font-family="Arial" font-size="20.00" fill="blue">gap: 13sec</text>
<text text-anchor="middle" x="418.88" y="-459.69" font-family="Arial" font-size="20.00" fill="blue">end_prev: 04/11/17, 14:04:18</text>
</g>
<!-- ARBITRARY CODE EXECUTION
microsoft&#45;ds | ID: 309 -->
<g id="node6" class="node">
<title>ARBITRARY CODE EXECUTION
microsoft&#45;ds | ID: 309</title>
<g id="a_node6"><a xlink:title="GPL NETBIOS DCERPC Remote Activation bind attempt&#10;ET CURRENT_EVENTS QNAP Shellshock CVE&#45;2014&#45;6271&#10;GPL NETBIOS DCERPC IActivation little endian bind attempt&#10;GPL MISC UPnP malformed advertisement&#10;GPL NETBIOS SMB&#45;DS Session Setup NTMLSSP unicode asn1 overflow attempt">
<polygon fill="none" stroke="black" stroke-width="3" points="747.88,-757.54 372.88,-757.54 372.88,-697.54 747.88,-697.54 747.88,-757.54"/>
<text text-anchor="middle" x="560.38" y="-734.34" font-family="Arial" font-size="24.00">ARBITRARY CODE EXECUTION</text>
<text text-anchor="middle" x="560.38" y="-708.34" font-family="Arial" font-size="24.00">microsoft&#45;ds | ID: 309</text>
</a>
</g>
</g>
<!-- SERVICE DISCOVERY
unknown&#45;&gt;ARBITRARY CODE EXECUTION
microsoft&#45;ds | ID: 309 -->
<g id="edge4" class="edge">
<title>SERVICE DISCOVERY
unknown&#45;&gt;ARBITRARY CODE EXECUTION
microsoft&#45;ds | ID: 309</title>
<path fill="none" stroke="blue" stroke-width="5" d="M306.84,-612.64C310.57,-637.61 319.47,-668.04 340.38,-686.54 345.5,-691.07 353.37,-695.11 363.15,-698.71"/>
<polygon fill="blue" stroke="blue" stroke-width="5" points="361.76,-702.86 372.64,-701.89 364.55,-694.56 361.76,-702.86"/>
<text text-anchor="middle" x="471.88" y="-670.54" font-family="Arial" font-size="20.00" fill="blue">start_next: 04/11/17, 14:04:45</text>
<text text-anchor="middle" x="471.88" y="-648.54" font-family="Arial" font-size="20.00" fill="blue">gap: 14sec</text>
<text text-anchor="middle" x="471.88" y="-626.54" font-family="Arial" font-size="20.00" fill="blue">end_prev: 04/11/17, 14:04:31</text>
</g>
<!-- REMOTE SERVICE EXPLOIT
snmp | ID: 52 -->
<g id="node7" class="node">
<title>REMOTE SERVICE EXPLOIT
snmp | ID: 52</title>
<g id="a_node7"><a xlink:title="ET SNMP Samsung Printer SNMP Hardcode RW Community String">
<polygon fill="none" stroke="black" stroke-width="3" points="709.38,-914.96 371.38,-914.96 371.38,-854.96 709.38,-854.96 709.38,-914.96"/>
<text text-anchor="middle" x="540.38" y="-891.76" font-family="Arial" font-size="24.00">REMOTE SERVICE EXPLOIT</text>
<text text-anchor="middle" x="540.38" y="-865.76" font-family="Arial" font-size="24.00">snmp | ID: 52</text>
</a>
</g>
</g>
<!-- ARBITRARY CODE EXECUTION
microsoft&#45;ds | ID: 309&#45;&gt;REMOTE SERVICE EXPLOIT
snmp | ID: 52 -->
<g id="edge5" class="edge">
<title>ARBITRARY CODE EXECUTION
microsoft&#45;ds | ID: 309&#45;&gt;REMOTE SERVICE EXPLOIT
snmp | ID: 52</title>
<path fill="none" stroke="blue" stroke-width="5" d="M594.19,-757.67C596.66,-761.09 598.8,-764.73 600.38,-768.54 611.6,-795.64 612.9,-808.01 600.38,-834.54 598.26,-839.03 595.51,-843.25 592.35,-847.19"/>
<polygon fill="blue" stroke="blue" stroke-width="5" points="588.86,-844.53 585.37,-854.87 595.34,-850.41 588.86,-844.53"/>
<text text-anchor="middle" x="739.88" y="-818.54" font-family="Arial" font-size="20.00" fill="blue">start_next: 04/11/17, 14:05:21</text>
<text text-anchor="middle" x="739.88" y="-796.54" font-family="Arial" font-size="20.00" fill="blue">gap: &#45;80sec</text>
<text text-anchor="middle" x="739.88" y="-774.54" font-family="Arial" font-size="20.00" fill="blue">end_prev: 04/11/17, 14:06:41</text>
</g>
<!-- ARBITRARY CODE EXECUTION
microsoft&#45;ds | ID: 309&#45;&gt;REMOTE SERVICE EXPLOIT
snmp | ID: 52 -->
<g id="edge14" class="edge">
<title>ARBITRARY CODE EXECUTION
microsoft&#45;ds | ID: 309&#45;&gt;REMOTE SERVICE EXPLOIT
snmp | ID: 52</title>
<path fill="none" stroke="blue" stroke-width="5" d="M372.43,-749.4C355.88,-754.46 342.91,-760.74 336.38,-768.54 317.55,-791.03 318.24,-811.48 336.38,-834.54 341.27,-840.76 350.37,-846.29 362.12,-851.19"/>
<polygon fill="blue" stroke="blue" stroke-width="5" points="360.69,-855.32 371.59,-854.81 363.81,-847.15 360.69,-855.32"/>
<text text-anchor="middle" x="467.88" y="-818.54" font-family="Arial" font-size="20.00" fill="blue">start_next: 04/11/17, 16:33:47</text>
<text text-anchor="middle" x="467.88" y="-796.54" font-family="Arial" font-size="20.00" fill="blue">gap: &#45;170sec</text>
<text text-anchor="middle" x="467.88" y="-774.54" font-family="Arial" font-size="20.00" fill="blue">end_prev: 04/11/17, 16:36:37</text>
</g>
<!-- COMMAND AND CONTROL
unknown | ID: 308 -->
<g id="node8" class="node">
<title>COMMAND AND CONTROL
unknown | ID: 308</title>
<g id="a_node8"><a xlink:title="ET POLICY RDP connection confirm">
<polygon fill="none" stroke="black" stroke-width="3" points="680.88,-1081.82 357.88,-1081.82 357.88,-1021.82 680.88,-1021.82 680.88,-1081.82"/>
<text text-anchor="middle" x="519.38" y="-1058.62" font-family="Arial" font-size="24.00">COMMAND AND CONTROL</text>
<text text-anchor="middle" x="519.38" y="-1032.62" font-family="Arial" font-size="24.00">unknown | ID: 308</text>
</a>
</g>
</g>
<!-- REMOTE SERVICE EXPLOIT
snmp | ID: 52&#45;&gt;COMMAND AND CONTROL
unknown | ID: 308 -->
<g id="edge6" class="edge">
<title>REMOTE SERVICE EXPLOIT
snmp | ID: 52&#45;&gt;COMMAND AND CONTROL
unknown | ID: 308</title>
<path fill="none" stroke="blue" stroke-width="5" d="M569.16,-915.06C573.76,-921.31 577.84,-928.21 580.38,-935.39 590.17,-963.04 593,-974.91 580.38,-1001.39 578.25,-1005.85 575.51,-1010.03 572.36,-1013.93"/>
<polygon fill="blue" stroke="blue" stroke-width="5" points="568.93,-1011.2 565.41,-1021.54 575.39,-1017.11 568.93,-1011.2"/>
<text text-anchor="middle" x="719.88" y="-985.39" font-family="Arial" font-size="20.00" fill="blue">start_next: 04/11/17, 14:05:45</text>
<text text-anchor="middle" x="719.88" y="-963.39" font-family="Arial" font-size="20.00" fill="blue">gap: 24sec</text>
<text text-anchor="middle" x="719.88" y="-941.39" font-family="Arial" font-size="20.00" fill="blue">end_prev: 04/11/17, 14:05:21</text>
</g>
<!-- REMOTE SERVICE EXPLOIT
snmp | ID: 52&#45;&gt;COMMAND AND CONTROL
unknown | ID: 308 -->
<g id="edge15" class="edge">
<title>REMOTE SERVICE EXPLOIT
snmp | ID: 52&#45;&gt;COMMAND AND CONTROL
unknown | ID: 308</title>
<path fill="none" stroke="blue" stroke-width="5" d="M371.29,-909.12C345.81,-915.91 325.11,-924.52 316.38,-935.39 298.01,-958.26 298.26,-978.33 316.38,-1001.39 322.09,-1008.65 333.56,-1014.98 348.27,-1020.46"/>
<polygon fill="blue" stroke="blue" stroke-width="5" points="346.95,-1024.64 357.83,-1023.77 349.81,-1016.36 346.95,-1024.64"/>
<text text-anchor="middle" x="447.88" y="-985.39" font-family="Arial" font-size="20.00" fill="blue">start_next: 04/11/17, 16:34:13</text>
<text text-anchor="middle" x="447.88" y="-963.39" font-family="Arial" font-size="20.00" fill="blue">gap: 26sec</text>
<text text-anchor="middle" x="447.88" y="-941.39" font-family="Arial" font-size="20.00" fill="blue">end_prev: 04/11/17, 16:33:47</text>
</g>
<!-- ACCOUNT MANIPULATION
snmp | ID: 53 -->
<g id="node9" class="node">
<title>ACCOUNT MANIPULATION
snmp | ID: 53</title>
<g id="a_node9"><a xlink:title="GPL SNMP private access udp&#10;GPL SNMP public access udp">
<polygon fill="none" stroke="black" stroke-width="3" points="745.38,-1255.23 425.38,-1255.23 425.38,-1195.23 745.38,-1195.23 745.38,-1255.23"/>
<text text-anchor="middle" x="585.38" y="-1232.03" font-family="Arial" font-size="24.00">ACCOUNT MANIPULATION</text>
<text text-anchor="middle" x="585.38" y="-1206.03" font-family="Arial" font-size="24.00">snmp | ID: 53</text>
</a>
</g>
</g>
<!-- COMMAND AND CONTROL
unknown | ID: 308&#45;&gt;ACCOUNT MANIPULATION
snmp | ID: 53 -->
<g id="edge7" class="edge">
<title>COMMAND AND CONTROL
unknown | ID: 308&#45;&gt;ACCOUNT MANIPULATION
snmp | ID: 53</title>
<path fill="none" stroke="blue" stroke-width="5" d="M676.17,-1081.93C692.52,-1087.74 705.37,-1094.49 711.38,-1102.24 729.35,-1125.43 727.36,-1143.65 711.38,-1168.24 706.16,-1176.28 699.49,-1183.17 691.95,-1189.07"/>
<polygon fill="blue" stroke="blue" stroke-width="5" points="689.08,-1185.75 683.46,-1195.11 694.15,-1192.88 689.08,-1185.75"/>
<text text-anchor="middle" x="854.88" y="-1152.24" font-family="Arial" font-size="20.00" fill="blue">start_next: 04/11/17, 14:05:50</text>
<text text-anchor="middle" x="854.88" y="-1130.24" font-family="Arial" font-size="20.00" fill="blue">gap: &#45;110sec</text>
<text text-anchor="middle" x="854.88" y="-1108.24" font-family="Arial" font-size="20.00" fill="blue">end_prev: 04/11/17, 14:07:41</text>
</g>
<!-- COMMAND AND CONTROL
unknown | ID: 308&#45;&gt;ACCOUNT MANIPULATION
snmp | ID: 53 -->
<g id="edge16" class="edge">
<title>COMMAND AND CONTROL
unknown | ID: 308&#45;&gt;ACCOUNT MANIPULATION
snmp | ID: 53</title>
<path fill="none" stroke="blue" stroke-width="5" d="M464.14,-1081.82C457.41,-1087.67 451.48,-1094.46 447.38,-1102.24 433.71,-1128.2 430.99,-1143.91 447.38,-1168.24 452.79,-1176.28 459.57,-1183.16 467.2,-1189.05"/>
<polygon fill="blue" stroke="blue" stroke-width="5" points="465.1,-1192.92 475.8,-1195.07 470.11,-1185.75 465.1,-1192.92"/>
<text text-anchor="middle" x="578.88" y="-1152.24" font-family="Arial" font-size="20.00" fill="blue">start_next: 04/11/17, 16:34:19</text>
<text text-anchor="middle" x="578.88" y="-1130.24" font-family="Arial" font-size="20.00" fill="blue">gap: &#45;105sec</text>
<text text-anchor="middle" x="578.88" y="-1108.24" font-family="Arial" font-size="20.00" fill="blue">end_prev: 04/11/17, 16:36:04</text>
</g>
<!-- DATA DELIVERY
wsman | ID: 399 -->
<g id="node10" class="node">
<title>DATA DELIVERY
wsman | ID: 399</title>
<g id="a_node10"><a xlink:title="GPL WEB_SERVER perl post attempt">
<polygon fill="none" stroke="black" stroke-width="3" points="611.48,-1426.04 529.93,-1475.02 366.83,-1475.02 285.28,-1426.04 366.83,-1377.07 529.93,-1377.07 611.48,-1426.04"/>
<text text-anchor="middle" x="448.38" y="-1432.84" font-family="Arial" font-size="24.00">DATA DELIVERY</text>
<text text-anchor="middle" x="448.38" y="-1406.84" font-family="Arial" font-size="24.00">wsman | ID: 399</text>
</a>
</g>
</g>
<!-- ACCOUNT MANIPULATION
snmp | ID: 53&#45;&gt;DATA DELIVERY
wsman | ID: 399 -->
<g id="edge8" class="edge">
<title>ACCOUNT MANIPULATION
snmp | ID: 53&#45;&gt;DATA DELIVERY
wsman | ID: 399</title>
<path fill="none" stroke="blue" stroke-width="5" d="M589.75,-1255.4C592.15,-1281.67 591.74,-1320.33 574.38,-1348.22 567.65,-1359.04 558.78,-1368.55 548.86,-1376.85"/>
<polygon fill="blue" stroke="blue" stroke-width="5" points="545.87,-1373.64 540.7,-1383.26 551.27,-1380.53 545.87,-1373.64"/>
<text text-anchor="middle" x="721.88" y="-1332.22" font-family="Arial" font-size="20.00" fill="blue">start_next: 04/11/17, 14:06:39</text>
<text text-anchor="middle" x="721.88" y="-1310.22" font-family="Arial" font-size="20.00" fill="blue">gap: 41sec</text>
<text text-anchor="middle" x="721.88" y="-1288.22" font-family="Arial" font-size="20.00" fill="blue">end_prev: 04/11/17, 14:05:58</text>
</g>
<!-- ACCOUNT MANIPULATION
snmp | ID: 53&#45;&gt;DATA DELIVERY
wsman | ID: 399 -->
<g id="edge17" class="edge">
<title>ACCOUNT MANIPULATION
snmp | ID: 53&#45;&gt;DATA DELIVERY
wsman | ID: 399</title>
<path fill="none" stroke="blue" stroke-width="5" d="M425.12,-1241.5C373.87,-1249.93 326.25,-1262.79 310.38,-1282.22 291.82,-1304.94 295.51,-1322.94 310.38,-1348.22 318.07,-1361.31 328.89,-1372.33 341.13,-1381.57"/>
<polygon fill="blue" stroke="blue" stroke-width="5" points="338.67,-1385.18 349.36,-1387.38 343.72,-1378.04 338.67,-1385.18"/>
<text text-anchor="middle" x="441.88" y="-1332.22" font-family="Arial" font-size="20.00" fill="blue">start_next: 04/11/17, 16:35:00</text>
<text text-anchor="middle" x="441.88" y="-1310.22" font-family="Arial" font-size="20.00" fill="blue">gap: 34sec</text>
<text text-anchor="middle" x="441.88" y="-1288.22" font-family="Arial" font-size="20.00" fill="blue">end_prev: 04/11/17, 16:34:27</text>
</g>
<!-- DATA EXFILTRATION
wsman | ID: 63 -->
<g id="node11" class="node">
<title>DATA EXFILTRATION
wsman | ID: 63</title>
<g id="a_node11"><a xlink:title="ET WEB_SPECIFIC_APPS PHP&#45;CGI query string parameter vulnerability">
<polygon fill="none" stroke="black" stroke-width="3" points="1063.26,-48.99 960.82,-97.97 755.94,-97.97 653.5,-48.99 755.94,-0.01 960.82,-0.01 1063.26,-48.99"/>
<text text-anchor="middle" x="858.38" y="-55.79" font-family="Arial" font-size="24.00">DATA EXFILTRATION</text>
<text text-anchor="middle" x="858.38" y="-29.79" font-family="Arial" font-size="24.00">wsman | ID: 63</text>
</a>
</g>
</g>
<!-- DATA DELIVERY
wsman | ID: 399&#45;&gt;DATA EXFILTRATION
wsman | ID: 63 -->
<g id="edge9" class="edge">
<title>DATA DELIVERY
wsman | ID: 399&#45;&gt;DATA EXFILTRATION
wsman | ID: 63</title>
<path fill="none" stroke="blue" stroke-width="5" d="M595.14,-1416.04C675.02,-1406.61 773.71,-1387.38 854.38,-1348.22 928.62,-1312.19 994.38,-1308.76 994.38,-1226.23 994.38,-221.41 994.38,-221.41 994.38,-221.41 994.38,-169.98 1016,-148.02 986.38,-105.98 984.68,-103.56 982.85,-101.25 980.9,-99.04"/>
<polygon fill="blue" stroke="blue" stroke-width="5" points="984.01,-95.96 973.89,-91.88 977.77,-102.08 984.01,-95.96"/>
<text text-anchor="middle" x="1125.88" y="-744.54" font-family="Arial" font-size="20.00" fill="blue">start_next: 04/11/17, 14:06:42</text>
<text text-anchor="middle" x="1125.88" y="-722.54" font-family="Arial" font-size="20.00" fill="blue">gap: 3sec</text>
<text text-anchor="middle" x="1125.88" y="-700.54" font-family="Arial" font-size="20.00" fill="blue">end_prev: 04/11/17, 14:06:39</text>
</g>
<!-- DATA DELIVERY
wsman | ID: 399&#45;&gt;DATA EXFILTRATION
wsman | ID: 63 -->
<g id="edge18" class="edge">
<title>DATA DELIVERY
wsman | ID: 399&#45;&gt;DATA EXFILTRATION
wsman | ID: 63</title>
<path fill="none" stroke="blue" stroke-width="5" d="M297.67,-1418.46C167.9,-1403.72 1.38,-1358.94 1.38,-1226.23 1.38,-221.41 1.38,-221.41 1.38,-221.41 1.38,-202.65 -4.14,-192.98 9.38,-179.98 99.14,-93.63 433.3,-64.63 654.65,-54.89"/>
<polygon fill="blue" stroke="blue" stroke-width="5" points="654.97,-59.26 664.78,-54.46 654.6,-50.51 654.97,-59.26"/>
<text text-anchor="middle" x="132.88" y="-744.54" font-family="Arial" font-size="20.00" fill="blue">start_next: 04/11/17, 16:35:04</text>
<text text-anchor="middle" x="132.88" y="-722.54" font-family="Arial" font-size="20.00" fill="blue">gap: 3sec</text>
<text text-anchor="middle" x="132.88" y="-700.54" font-family="Arial" font-size="20.00" fill="blue">end_prev: 04/11/17, 16:35:00</text>
</g>
<!-- SERVICE DISCOVERY
rfb -->
<g id="node12" class="node">
<title>SERVICE DISCOVERY
rfb</title>
<g id="a_node12"><a xlink:title="ET SCAN Potential VNC Scan 5800&#45;5820&#10;ET SCAN Potential VNC Scan 5900&#45;5920">
<ellipse fill="none" stroke="black" stroke-width="3" cx="722.38" cy="-222.41" rx="189.51" ry="42.35"/>
<text text-anchor="middle" x="722.38" y="-229.21" font-family="Arial" font-size="24.00">SERVICE DISCOVERY</text>
<text text-anchor="middle" x="722.38" y="-203.21" font-family="Arial" font-size="24.00">rfb</text>
</a>
</g>
</g>
<!-- DATA EXFILTRATION
wsman | ID: 63&#45;&gt;SERVICE DISCOVERY
rfb -->
<g id="edge10" class="edge">
<title>DATA EXFILTRATION
wsman | ID: 63&#45;&gt;SERVICE DISCOVERY
rfb</title>
<path fill="none" stroke="blue" stroke-width="5" d="M740.16,-90.45C734.99,-95.08 730.33,-100.24 726.38,-105.98 713.84,-124.23 711.37,-148.21 712.62,-169.59"/>
<polygon fill="blue" stroke="blue" stroke-width="5" points="708.29,-170.25 713.51,-179.83 717.01,-169.49 708.29,-170.25"/>
<text text-anchor="middle" x="857.88" y="-155.98" font-family="Arial" font-size="20.00" fill="blue">start_next: 04/11/17, 16:22:36</text>
<text text-anchor="middle" x="857.88" y="-133.98" font-family="Arial" font-size="20.00" fill="blue">gap: 8154sec</text>
<text text-anchor="middle" x="857.88" y="-111.98" font-family="Arial" font-size="20.00" fill="blue">end_prev: 04/11/17, 14:06:42</text>
</g>
<!-- HOST DISCOVERY
wsman -->
<g id="node15" class="node">
<title>HOST DISCOVERY
wsman</title>
<g id="a_node15"><a xlink:title="ET SCAN Possible Nmap User&#45;Agent Observed&#10;ET SCAN Nmap Scripting Engine User&#45;Agent Detected (Nmap Scripting Engine)">
<ellipse fill="none" stroke="black" stroke-width="3" cx="1203.38" cy="-222.41" rx="162.77" ry="42.35"/>
<text text-anchor="middle" x="1203.38" y="-229.21" font-family="Arial" font-size="24.00">HOST DISCOVERY</text>
<text text-anchor="middle" x="1203.38" y="-203.21" font-family="Arial" font-size="24.00">wsman</text>
</a>
</g>
</g>
<!-- DATA EXFILTRATION
wsman | ID: 63&#45;&gt;HOST DISCOVERY
wsman -->
<g id="edge19" class="edge">
<title>DATA EXFILTRATION
wsman | ID: 63&#45;&gt;HOST DISCOVERY
wsman</title>
<path fill="none" stroke="blue" stroke-width="5" d="M971.34,-93.24C980.9,-97.39 990.35,-101.66 999.38,-105.98 1044.4,-127.53 1093.12,-154.93 1131.65,-177.63"/>
<polygon fill="blue" stroke="blue" stroke-width="5" points="1129.88,-181.66 1140.71,-182.99 1134.33,-174.13 1129.88,-181.66"/>
<text text-anchor="middle" x="1252.88" y="-155.98" font-family="Arial" font-size="20.00" fill="blue">start_next: 04/11/17, 16:36:36</text>
<text text-anchor="middle" x="1252.88" y="-133.98" font-family="Arial" font-size="20.00" fill="blue">gap: &#45;10sec</text>
<text text-anchor="middle" x="1252.88" y="-111.98" font-family="Arial" font-size="20.00" fill="blue">end_prev: 04/11/17, 16:36:46</text>
</g>
<!-- VULNERABILTY DISCOVERY
ahsp -->
<g id="node13" class="node">
<title>VULNERABILTY DISCOVERY
ahsp</title>
<g id="a_node13"><a xlink:title="ET POLICY Suspicious inbound to mySQL port 3306&#10;ET POLICY Suspicious inbound to mSQL port 4333&#10;ET POLICY Suspicious inbound to MSSQL port 1433&#10;ET POLICY Suspicious inbound to Oracle SQL port 1521&#10;ET POLICY Suspicious inbound to PostgreSQL port 5432">
<ellipse fill="none" stroke="black" stroke-width="3" cx="742.38" cy="-403.26" rx="241.25" ry="42.35"/>
<text text-anchor="middle" x="742.38" y="-410.06" font-family="Arial" font-size="24.00">VULNERABILTY DISCOVERY</text>
<text text-anchor="middle" x="742.38" y="-384.06" font-family="Arial" font-size="24.00">ahsp</text>
</a>
</g>
</g>
<!-- SERVICE DISCOVERY
rfb&#45;&gt;VULNERABILTY DISCOVERY
ahsp -->
<g id="edge11" class="edge">
<title>SERVICE DISCOVERY
rfb&#45;&gt;VULNERABILTY DISCOVERY
ahsp</title>
<path fill="none" stroke="blue" stroke-width="5" d="M720.7,-265.09C720.44,-288.21 721.18,-317.66 726.28,-350.4"/>
<polygon fill="blue" stroke="blue" stroke-width="5" points="722.03,-351.53 728,-360.67 730.66,-350.08 722.03,-351.53"/>
<text text-anchor="middle" x="857.88" y="-329.83" font-family="Arial" font-size="20.00" fill="blue">start_next: 04/11/17, 16:27:31</text>
<text text-anchor="middle" x="857.88" y="-307.83" font-family="Arial" font-size="20.00" fill="blue">gap: 290sec</text>
<text text-anchor="middle" x="857.88" y="-285.83" font-family="Arial" font-size="20.00" fill="blue">end_prev: 04/11/17, 16:22:42</text>
</g>
<!-- SERVICE DISCOVERY
microsoft&#45;ds -->
<g id="node14" class="node">
<title>SERVICE DISCOVERY
microsoft&#45;ds</title>
<g id="a_node14"><a xlink:title="ET SCAN Behavioral Unusual Port 445 traffic Potential Scan or Infection&#10;ET SCAN Potential VNC Scan 5900&#45;5920">
<ellipse fill="none" stroke="black" stroke-width="3" cx="696.38" cy="-570.11" rx="189.51" ry="42.35"/>
<text text-anchor="middle" x="696.38" y="-576.91" font-family="Arial" font-size="24.00">SERVICE DISCOVERY</text>
<text text-anchor="middle" x="696.38" y="-550.91" font-family="Arial" font-size="24.00">microsoft&#45;ds</text>
</a>
</g>
</g>
<!-- VULNERABILTY DISCOVERY
ahsp&#45;&gt;SERVICE DISCOVERY
microsoft&#45;ds -->
<g id="edge12" class="edge">
<title>VULNERABILTY DISCOVERY
ahsp&#45;&gt;SERVICE DISCOVERY
microsoft&#45;ds</title>
<path fill="none" stroke="blue" stroke-width="5" d="M728.76,-445.73C727.94,-448.42 727.14,-451.09 726.38,-453.69 720.31,-474.52 714.18,-497.63 709.06,-517.68"/>
<polygon fill="blue" stroke="blue" stroke-width="5" points="704.77,-516.78 706.55,-527.55 713.25,-518.93 704.77,-516.78"/>
<text text-anchor="middle" x="857.88" y="-503.69" font-family="Arial" font-size="20.00" fill="blue">start_next: 04/11/17, 16:31:24</text>
<text text-anchor="middle" x="857.88" y="-481.69" font-family="Arial" font-size="20.00" fill="blue">gap: &#45;294sec</text>
<text text-anchor="middle" x="857.88" y="-459.69" font-family="Arial" font-size="20.00" fill="blue">end_prev: 04/11/17, 16:36:18</text>
</g>
<!-- SERVICE DISCOVERY
microsoft&#45;ds&#45;&gt;ARBITRARY CODE EXECUTION
microsoft&#45;ds | ID: 309 -->
<g id="edge13" class="edge">
<title>SERVICE DISCOVERY
microsoft&#45;ds&#45;&gt;ARBITRARY CODE EXECUTION
microsoft&#45;ds | ID: 309</title>
<path fill="none" stroke="blue" stroke-width="5" d="M666.18,-612.22C648.91,-634.87 626.37,-663.07 604.38,-686.54 603.21,-687.78 602.02,-689.03 600.8,-690.28"/>
<polygon fill="blue" stroke="blue" stroke-width="5" points="597.64,-687.25 593.61,-697.39 603.79,-693.47 597.64,-687.25"/>
<text text-anchor="middle" x="789.88" y="-670.54" font-family="Arial" font-size="20.00" fill="blue">start_next: 04/11/17, 16:33:08</text>
<text text-anchor="middle" x="789.88" y="-648.54" font-family="Arial" font-size="20.00" fill="blue">gap: &#45;164sec</text>
<text text-anchor="middle" x="789.88" y="-626.54" font-family="Arial" font-size="20.00" fill="blue">end_prev: 04/11/17, 16:35:52</text>
</g>
<!-- SURFING
wsman -->
<g id="node16" class="node">
<title>SURFING
wsman</title>
<g id="a_node16"><a xlink:title="ET WEB_SERVER WEB&#45;PHP phpinfo access">
<ellipse fill="none" stroke="black" stroke-width="3" cx="1349.38" cy="-403.26" rx="88.28" ry="42.35"/>
<text text-anchor="middle" x="1349.38" y="-410.06" font-family="Arial" font-size="24.00">SURFING</text>
<text text-anchor="middle" x="1349.38" y="-384.06" font-family="Arial" font-size="24.00">wsman</text>
</a>
</g>
</g>
<!-- HOST DISCOVERY
wsman&#45;&gt;SURFING
wsman -->
<g id="edge20" class="edge">
<title>HOST DISCOVERY
wsman&#45;&gt;SURFING
wsman</title>
<path fill="none" stroke="blue" stroke-width="5" d="M1236.51,-263.99C1258.73,-291.22 1288.07,-327.16 1311.26,-355.57"/>
<polygon fill="blue" stroke="blue" stroke-width="5" points="1307.92,-358.39 1317.63,-363.37 1314.7,-352.86 1307.92,-358.39"/>
<text text-anchor="middle" x="1436.88" y="-329.83" font-family="Arial" font-size="20.00" fill="blue">start_next: 04/11/17, 16:36:38</text>
<text text-anchor="middle" x="1436.88" y="-307.83" font-family="Arial" font-size="20.00" fill="blue">gap: 2sec</text>
<text text-anchor="middle" x="1436.88" y="-285.83" font-family="Arial" font-size="20.00" fill="blue">end_prev: 04/11/17, 16:36:36</text>
</g>
<!-- HOST DISCOVERY
unknown -->
<g id="node17" class="node">
<title>HOST DISCOVERY
unknown</title>
<g id="a_node17"><a xlink:title="ET SCAN Possible Nmap User&#45;Agent Observed&#10;ET SCAN Nmap Scripting Engine User&#45;Agent Detected (Nmap Scripting Engine)">
<ellipse fill="none" stroke="black" stroke-width="3" cx="1429.38" cy="-570.11" rx="162.77" ry="42.35"/>
<text text-anchor="middle" x="1429.38" y="-576.91" font-family="Arial" font-size="24.00">HOST DISCOVERY</text>
<text text-anchor="middle" x="1429.38" y="-550.91" font-family="Arial" font-size="24.00">unknown</text>
</a>
</g>
</g>
<!-- SURFING
wsman&#45;&gt;HOST DISCOVERY
unknown -->
<g id="edge21" class="edge">
<title>SURFING
wsman&#45;&gt;HOST DISCOVERY
unknown</title>
<path fill="none" stroke="blue" stroke-width="5" d="M1369.15,-445.01C1379.98,-467.31 1393.48,-495.15 1404.96,-518.8"/>
<polygon fill="blue" stroke="blue" stroke-width="5" points="1401.11,-520.89 1409.41,-527.97 1408.98,-517.07 1401.11,-520.89"/>
<text text-anchor="middle" x="1534.88" y="-503.69" font-family="Arial" font-size="20.00" fill="blue">start_next: 04/11/17, 16:51:38</text>
<text text-anchor="middle" x="1534.88" y="-481.69" font-family="Arial" font-size="20.00" fill="blue">gap: 892sec</text>
<text text-anchor="middle" x="1534.88" y="-459.69" font-family="Arial" font-size="20.00" fill="blue">end_prev: 04/11/17, 16:36:46</text>
</g>
<!-- ARBITRARY CODE EXECUTION
unknown | ID: 47 -->
<g id="node18" class="node">
<title>ARBITRARY CODE EXECUTION
unknown | ID: 47</title>
<g id="a_node18"><a xlink:title="ET CURRENT_EVENTS QNAP Shellshock CVE&#45;2014&#45;6271">
<polygon fill="none" stroke="black" stroke-width="3" points="1639.88,-757.54 1264.88,-757.54 1264.88,-697.54 1639.88,-697.54 1639.88,-757.54"/>
<text text-anchor="middle" x="1452.38" y="-734.34" font-family="Arial" font-size="24.00">ARBITRARY CODE EXECUTION</text>
<text text-anchor="middle" x="1452.38" y="-708.34" font-family="Arial" font-size="24.00">unknown | ID: 47</text>
</a>
</g>
</g>
<!-- HOST DISCOVERY
unknown&#45;&gt;ARBITRARY CODE EXECUTION
unknown | ID: 47 -->
<g id="edge22" class="edge">
<title>HOST DISCOVERY
unknown&#45;&gt;ARBITRARY CODE EXECUTION
unknown | ID: 47</title>
<path fill="none" stroke="blue" stroke-width="5" d="M1435.54,-612.76C1438.96,-635.84 1443.18,-664.38 1446.54,-687.1"/>
<polygon fill="blue" stroke="blue" stroke-width="5" points="1442.23,-687.83 1448.02,-697.09 1450.88,-686.55 1442.23,-687.83"/>
<text text-anchor="middle" x="1576.88" y="-670.54" font-family="Arial" font-size="20.00" fill="blue">start_next: 04/11/17, 16:51:39</text>
<text text-anchor="middle" x="1576.88" y="-648.54" font-family="Arial" font-size="20.00" fill="blue">gap: 1sec</text>
<text text-anchor="middle" x="1576.88" y="-626.54" font-family="Arial" font-size="20.00" fill="blue">end_prev: 04/11/17, 16:51:38</text>
</g>
<!-- SURFING
unknown -->
<g id="node19" class="node">
<title>SURFING
unknown</title>
<g id="a_node19"><a xlink:title="ET WEB_SERVER WEB&#45;PHP phpinfo access">
<ellipse fill="none" stroke="black" stroke-width="3" cx="1452.38" cy="-884.96" rx="88.28" ry="42.35"/>
<text text-anchor="middle" x="1452.38" y="-891.76" font-family="Arial" font-size="24.00">SURFING</text>
<text text-anchor="middle" x="1452.38" y="-865.76" font-family="Arial" font-size="24.00">unknown</text>
</a>
</g>
</g>
<!-- ARBITRARY CODE EXECUTION
unknown | ID: 47&#45;&gt;SURFING
unknown -->
<g id="edge23" class="edge">
<title>ARBITRARY CODE EXECUTION
unknown | ID: 47&#45;&gt;SURFING
unknown</title>
<path fill="none" stroke="blue" stroke-width="5" d="M1452.38,-757.77C1452.38,-778.62 1452.38,-807.23 1452.38,-831.93"/>
<polygon fill="blue" stroke="blue" stroke-width="5" points="1448,-832.25 1452.38,-842.25 1456.75,-832.25 1448,-832.25"/>
<text text-anchor="middle" x="1583.88" y="-818.54" font-family="Arial" font-size="20.00" fill="blue">start_next: 04/11/17, 16:51:40</text>
<text text-anchor="middle" x="1583.88" y="-796.54" font-family="Arial" font-size="20.00" fill="blue">gap: 1sec</text>
<text text-anchor="middle" x="1583.88" y="-774.54" font-family="Arial" font-size="20.00" fill="blue">end_prev: 04/11/17, 16:51:39</text>
</g>
<!-- INFO DISCOVERY
unknown -->
<g id="node20" class="node">
<title>INFO DISCOVERY
unknown</title>
<g id="a_node20"><a xlink:title="GPL WEB_SERVER globals.pl access">
<ellipse fill="none" stroke="black" stroke-width="3" cx="1452.38" cy="-1051.82" rx="156.04" ry="42.35"/>
<text text-anchor="middle" x="1452.38" y="-1058.62" font-family="Arial" font-size="24.00">INFO DISCOVERY</text>
<text text-anchor="middle" x="1452.38" y="-1032.62" font-family="Arial" font-size="24.00">unknown</text>
</a>
</g>
</g>
<!-- SURFING
unknown&#45;&gt;INFO DISCOVERY
unknown -->
<g id="edge24" class="edge">
<title>SURFING
unknown&#45;&gt;INFO DISCOVERY
unknown</title>
<path fill="none" stroke="blue" stroke-width="5" d="M1452.38,-927.56C1452.38,-949.24 1452.38,-975.94 1452.38,-998.95"/>
<polygon fill="blue" stroke="blue" stroke-width="5" points="1448,-999.23 1452.38,-1009.23 1456.75,-999.23 1448,-999.23"/>
<text text-anchor="middle" x="1583.88" y="-985.39" font-family="Arial" font-size="20.00" fill="blue">start_next: 04/11/17, 16:51:42</text>
<text text-anchor="middle" x="1583.88" y="-963.39" font-family="Arial" font-size="20.00" fill="blue">gap: &#45;5sec</text>
<text text-anchor="middle" x="1583.88" y="-941.39" font-family="Arial" font-size="20.00" fill="blue">end_prev: 04/11/17, 16:51:47</text>
</g>
<!-- INFO DISCOVERY
unknown&#45;&gt;DATA EXFILTRATION
unknown | ID: 301 -->
<g id="edge25" class="edge">
<title>INFO DISCOVERY
unknown&#45;&gt;DATA EXFILTRATION
unknown | ID: 301</title>
<path fill="none" stroke="blue" stroke-width="5" d="M1452.38,-1094.31C1452.38,-1115.8 1452.38,-1142.4 1452.38,-1165.93"/>
<polygon fill="blue" stroke="blue" stroke-width="5" points="1448,-1166.14 1452.38,-1176.14 1456.75,-1166.14 1448,-1166.14"/>
<text text-anchor="middle" x="1583.88" y="-1152.24" font-family="Arial" font-size="20.00" fill="blue">start_next: 04/11/17, 16:51:43</text>
<text text-anchor="middle" x="1583.88" y="-1130.24" font-family="Arial" font-size="20.00" fill="blue">gap: 1sec</text>
<text text-anchor="middle" x="1583.88" y="-1108.24" font-family="Arial" font-size="20.00" fill="blue">end_prev: 04/11/17, 16:51:42</text>
</g>
</g>
</svg>
