<?xml version="1.0" encoding="UTF-8" standalone="no"?>
<!DOCTYPE svg PUBLIC "-//W3C//DTD SVG 1.1//EN"
 "http://www.w3.org/Graphics/SVG/1.1/DTD/svg11.dtd">
<!-- Generated by graphviz version 2.50.0 (0)
 -->
<!-- Title: DATADELIVERYhttp Pages: 1 -->
<svg width="2608pt" height="862pt"
 viewBox="0.00 0.00 2607.94 862.43" xmlns="http://www.w3.org/2000/svg" xmlns:xlink="http://www.w3.org/1999/xlink">
<g id="graph0" class="graph" transform="scale(1 1) rotate(0) translate(4 858.43)">
<title>DATADELIVERYhttp</title>
<polygon fill="white" stroke="transparent" points="-4,4 -4,-858.43 2603.94,-858.43 2603.94,4 -4,4"/>
<!-- Victim: 10.0.99.102
DATA DELIVERY
http -->
<g id="node1" class="node">
<title>Victim: 10.0.99.102
DATA DELIVERY
http</title>
<polygon fill="salmon" stroke="black" stroke-width="3" points="544.33,-757.42 544.33,-811.81 443.93,-850.27 301.95,-850.27 201.55,-811.81 201.55,-757.42 301.95,-718.96 443.93,-718.96 544.33,-757.42"/>
<polygon fill="none" stroke="black" stroke-width="3" points="548.33,-754.68 548.33,-814.55 444.67,-854.26 301.21,-854.26 197.56,-814.55 197.56,-754.68 301.21,-714.97 444.67,-714.97 548.33,-754.68"/>
<text text-anchor="middle" x="372.94" y="-804.41" font-family="Arial" font-size="24.00">Victim: 10.0.99.102</text>
<text text-anchor="middle" x="372.94" y="-778.41" font-family="Arial" font-size="24.00">DATA DELIVERY</text>
<text text-anchor="middle" x="372.94" y="-752.41" font-family="Arial" font-size="24.00">http</text>
</g>
<!-- DATA DELIVERY
http | ID: 21 -->
<g id="node2" class="node">
<title>DATA DELIVERY
http | ID: 21</title>
<g id="a_node2"><a xlink:title="ET WEB_SERVER PHP Possible php Remote File Inclusion Attempt&#10;ET WEB_SERVER PHP tags in HTTP POST">
<polygon fill="salmon" stroke="black" stroke-width="3" points="334.04,-515.8 252.49,-564.78 89.39,-564.78 7.84,-515.8 89.39,-466.82 252.49,-466.82 334.04,-515.8"/>
<text text-anchor="middle" x="170.94" y="-522.6" font-family="Arial" font-size="24.00">DATA DELIVERY</text>
<text text-anchor="middle" x="170.94" y="-496.6" font-family="Arial" font-size="24.00">http | ID: 21</text>
</a>
</g>
</g>
<!-- DATA DELIVERY
http | ID: 21&#45;&gt;Victim: 10.0.99.102
DATA DELIVERY
http -->
<g id="edge1" class="edge">
<title>DATA DELIVERY
http | ID: 21&#45;&gt;Victim: 10.0.99.102
DATA DELIVERY
http</title>
<path fill="none" stroke="black" stroke-width="5" d="M207.29,-564.81C237.18,-604.3 280.12,-661.01 314.79,-706.8"/>
<polygon fill="black" stroke="black" stroke-width="5" points="311.41,-709.59 320.94,-714.92 318.39,-704.31 311.41,-709.59"/>
</g>
<!-- DATA DELIVERY
http | ID: 246 -->
<g id="node3" class="node">
<title>DATA DELIVERY
http | ID: 246</title>
<g id="a_node3"><a xlink:title="ET WEB_SERVER PHP tags in HTTP POST&#10;GPL WEB_SERVER perl post attempt">
<polygon fill="salmon" stroke="black" stroke-width="3" points="666.04,-515.8 584.49,-564.78 421.39,-564.78 339.84,-515.8 421.39,-466.82 584.49,-466.82 666.04,-515.8"/>
<text text-anchor="middle" x="502.94" y="-522.6" font-family="Arial" font-size="24.00">DATA DELIVERY</text>
<text text-anchor="middle" x="502.94" y="-496.6" font-family="Arial" font-size="24.00">http | ID: 246</text>
</a>
</g>
</g>
<!-- DATA DELIVERY
http | ID: 246&#45;&gt;Victim: 10.0.99.102
DATA DELIVERY
http -->
<g id="edge2" class="edge">
<title>DATA DELIVERY
http | ID: 246&#45;&gt;Victim: 10.0.99.102
DATA DELIVERY
http</title>
<path fill="none" stroke="black" stroke-width="5" d="M479.55,-564.81C460.47,-603.97 433.14,-660.07 410.92,-705.66"/>
<polygon fill="black" stroke="black" stroke-width="5" points="406.86,-704.02 406.41,-714.92 414.72,-707.85 406.86,-704.02"/>
</g>
<!-- INFO DISCOVERY
xdmcp -->
<g id="node4" class="node">
<title>INFO DISCOVERY
xdmcp</title>
<g id="a_node4"><a xlink:title="GPL WEB_SERVER mod_gzip_status access&#10;GPL RPC xdmcp info query">
<ellipse fill="yellow" stroke="black" stroke-width="3" cx="1331.94" cy="-784.61" rx="156.04" ry="42.35"/>
<text text-anchor="middle" x="1331.94" y="-791.41" font-family="Arial" font-size="24.00">INFO DISCOVERY</text>
<text text-anchor="middle" x="1331.94" y="-765.41" font-family="Arial" font-size="24.00">xdmcp</text>
</a>
</g>
</g>
<!-- SURFING
http -->
<g id="node5" class="node">
<title>SURFING
http</title>
<g id="a_node5"><a xlink:title="ET WEB_SERVER WEB&#45;PHP phpinfo access">
<ellipse fill="none" stroke="black" stroke-width="3" cx="913.94" cy="-48.99" rx="88.28" ry="42.35"/>
<text text-anchor="middle" x="913.94" y="-55.79" font-family="Arial" font-size="24.00">SURFING</text>
<text text-anchor="middle" x="913.94" y="-29.79" font-family="Arial" font-size="24.00">http</text>
</a>
</g>
</g>
<!-- INFO DISCOVERY
xdmcp&#45;&gt;SURFING
http -->
<g id="edge3" class="edge">
<title>INFO DISCOVERY
xdmcp&#45;&gt;SURFING
http</title>
<path fill="none" stroke="blue" stroke-width="5" d="M1190.52,-766.5C1024.92,-742.43 772.94,-691.4 772.94,-603.79 772.94,-241.97 772.94,-241.97 772.94,-241.97 772.94,-181.3 819.25,-127.11 858.8,-91.9"/>
<polygon fill="blue" stroke="blue" stroke-width="5" points="861.92,-94.98 866.6,-85.12 856.18,-88.38 861.92,-94.98"/>
<text text-anchor="start" x="772.94" y="-441.39" font-family="Arial" font-size="20.00" fill="blue"> start_next: 04/11/17, 16:31:49</text>
<text text-anchor="start" x="863.44" y="-421.39" font-family="Arial" font-size="20.00" fill="blue">gap: 2sec</text>
<text text-anchor="start" x="776.94" y="-401.39" font-family="Arial" font-size="20.00" fill="blue">end_prev: 04/11/17, 16:31:48</text>
<text text-anchor="start" x="807.44" y="-381.39" font-family="Arial" font-weight="bold" font-size="20.00" fill="blue">Attacker: 10.0.254.31</text>
</g>
<!-- INFO DISCOVERY
xdmcp&#45;&gt;SURFING
http -->
<g id="edge8" class="edge">
<title>INFO DISCOVERY
xdmcp&#45;&gt;SURFING
http</title>
<path fill="none" stroke="blue" stroke-width="5" d="M1214.87,-756.43C1139.27,-731.14 1054.94,-684.78 1054.94,-603.79 1054.94,-241.97 1054.94,-241.97 1054.94,-241.97 1054.94,-181.3 1008.63,-127.11 969.09,-91.9"/>
<polygon fill="blue" stroke="blue" stroke-width="5" points="971.7,-88.38 961.28,-85.12 965.96,-94.98 971.7,-88.38"/>
<text text-anchor="middle" x="1186.44" y="-433.39" font-family="Arial" font-size="20.00" fill="blue">start_next: 04/11/17, 18:02:57</text>
<text text-anchor="middle" x="1186.44" y="-411.39" font-family="Arial" font-size="20.00" fill="blue">gap: 4sec</text>
<text text-anchor="middle" x="1186.44" y="-389.39" font-family="Arial" font-size="20.00" fill="blue">end_prev: 04/11/17, 18:02:53</text>
</g>
<!-- INFO DISCOVERY
xdmcp&#45;&gt;SURFING
http -->
<g id="edge14" class="edge">
<title>INFO DISCOVERY
xdmcp&#45;&gt;SURFING
http</title>
<path fill="none" stroke="blue" stroke-width="5" d="M1331.94,-741.83C1331.94,-705.38 1331.94,-651.09 1331.94,-603.79 1331.94,-241.97 1331.94,-241.97 1331.94,-241.97 1331.94,-101.96 1135.89,-63.68 1012.32,-53.46"/>
<polygon fill="blue" stroke="blue" stroke-width="5" points="1012.39,-49.07 1002.08,-52.66 1011.71,-57.8 1012.39,-49.07"/>
<text text-anchor="middle" x="1463.44" y="-433.39" font-family="Arial" font-size="20.00" fill="blue">start_next: 04/11/17, 19:00:35</text>
<text text-anchor="middle" x="1463.44" y="-411.39" font-family="Arial" font-size="20.00" fill="blue">gap: 1sec</text>
<text text-anchor="middle" x="1463.44" y="-389.39" font-family="Arial" font-size="20.00" fill="blue">end_prev: 04/11/17, 19:00:33</text>
</g>
<!-- SURFING
http&#45;&gt;DATA DELIVERY
http | ID: 246 -->
<g id="edge9" class="edge">
<title>SURFING
http&#45;&gt;DATA DELIVERY
http | ID: 246</title>
<path fill="none" stroke="blue" stroke-width="5" d="M825.6,-53.06C728.82,-61.71 577.69,-91.92 504.94,-193.98 449.94,-271.15 467.16,-387.44 484.9,-456.78"/>
<polygon fill="blue" stroke="blue" stroke-width="5" points="480.73,-458.11 487.51,-466.66 489.19,-455.87 480.73,-458.11"/>
<text text-anchor="middle" x="636.44" y="-259.97" font-family="Arial" font-size="20.00" fill="blue">start_next: 04/11/17, 18:02:59</text>
<text text-anchor="middle" x="636.44" y="-237.97" font-family="Arial" font-size="20.00" fill="blue">gap: 1sec</text>
<text text-anchor="middle" x="636.44" y="-215.97" font-family="Arial" font-size="20.00" fill="blue">end_prev: 04/11/17, 18:02:57</text>
</g>
<!-- SERVICE DISCOVERY
ssh -->
<g id="node6" class="node">
<title>SERVICE DISCOVERY
ssh</title>
<g id="a_node6"><a xlink:title="ET SCAN Potential SSH Scan&#10;ET SCAN Potential VNC Scan 5900&#45;5920">
<ellipse fill="none" stroke="black" stroke-width="3" cx="1656.94" cy="-242.97" rx="189.51" ry="42.35"/>
<text text-anchor="middle" x="1656.94" y="-249.77" font-family="Arial" font-size="24.00">SERVICE DISCOVERY</text>
<text text-anchor="middle" x="1656.94" y="-223.77" font-family="Arial" font-size="24.00">ssh</text>
</a>
</g>
</g>
<!-- SURFING
http&#45;&gt;SERVICE DISCOVERY
ssh -->
<g id="edge4" class="edge">
<title>SURFING
http&#45;&gt;SERVICE DISCOVERY
ssh</title>
<path fill="none" stroke="blue" stroke-width="5" d="M1001.58,-54.67C1088.09,-60.9 1223.5,-74.98 1336.94,-105.98 1420.33,-128.76 1510.56,-168.61 1573.88,-199.3"/>
<polygon fill="blue" stroke="blue" stroke-width="5" points="1572.12,-203.31 1583.03,-203.76 1575.96,-195.45 1572.12,-203.31"/>
<text text-anchor="middle" x="1676.44" y="-162.98" font-family="Arial" font-size="20.00" fill="blue">start_next: 04/11/17, 17:59:27</text>
<text text-anchor="middle" x="1676.44" y="-140.98" font-family="Arial" font-size="20.00" fill="blue">gap: 5257sec</text>
<text text-anchor="middle" x="1676.44" y="-118.98" font-family="Arial" font-size="20.00" fill="blue">end_prev: 04/11/17, 16:31:49</text>
</g>
<!-- DATA EXFILTRATION
http | ID: 228 -->
<g id="node12" class="node">
<title>DATA EXFILTRATION
http | ID: 228</title>
<g id="a_node12"><a xlink:title="ET WEB_SPECIFIC_APPS PHP&#45;CGI query string parameter vulnerability">
<polygon fill="none" stroke="black" stroke-width="3" points="409.82,-242.97 307.38,-291.95 102.5,-291.95 0.06,-242.97 102.5,-193.99 307.38,-193.99 409.82,-242.97"/>
<text text-anchor="middle" x="204.94" y="-249.77" font-family="Arial" font-size="24.00">DATA EXFILTRATION</text>
<text text-anchor="middle" x="204.94" y="-223.77" font-family="Arial" font-size="24.00">http | ID: 228</text>
</a>
</g>
</g>
<!-- SURFING
http&#45;&gt;DATA EXFILTRATION
http | ID: 228 -->
<g id="edge15" class="edge">
<title>SURFING
http&#45;&gt;DATA EXFILTRATION
http | ID: 228</title>
<path fill="none" stroke="blue" stroke-width="5" d="M825.45,-51.37C650.67,-54.93 274.26,-67.07 230.94,-105.98 209.61,-125.14 202.52,-155.96 201.02,-183.42"/>
<polygon fill="blue" stroke="blue" stroke-width="5" points="196.63,-183.62 200.7,-193.75 205.38,-183.89 196.63,-183.62"/>
<text text-anchor="middle" x="362.44" y="-162.98" font-family="Arial" font-size="20.00" fill="blue">start_next: 04/11/17, 19:00:40</text>
<text text-anchor="middle" x="362.44" y="-140.98" font-family="Arial" font-size="20.00" fill="blue">gap: 5sec</text>
<text text-anchor="middle" x="362.44" y="-118.98" font-family="Arial" font-size="20.00" fill="blue">end_prev: 04/11/17, 19:00:35</text>
</g>
<!-- VULNERABILTY DISCOVERY
ms&#45;sql&#45;s -->
<g id="node7" class="node">
<title>VULNERABILTY DISCOVERY
ms&#45;sql&#45;s</title>
<g id="a_node7"><a xlink:title="ET POLICY Suspicious inbound to MSSQL port 1433&#10;ET SCAN Nessus User Agent">
<ellipse fill="none" stroke="black" stroke-width="3" cx="1842.94" cy="-416.39" rx="241.25" ry="42.35"/>
<text text-anchor="middle" x="1842.94" y="-423.19" font-family="Arial" font-size="24.00">VULNERABILTY DISCOVERY</text>
<text text-anchor="middle" x="1842.94" y="-397.19" font-family="Arial" font-size="24.00">ms&#45;sql&#45;s</text>
</a>
</g>
</g>
<!-- SERVICE DISCOVERY
ssh&#45;&gt;VULNERABILTY DISCOVERY
ms&#45;sql&#45;s -->
<g id="edge5" class="edge">
<title>SERVICE DISCOVERY
ssh&#45;&gt;VULNERABILTY DISCOVERY
ms&#45;sql&#45;s</title>
<path fill="none" stroke="blue" stroke-width="5" d="M1701.02,-284.59C1728.04,-309.49 1762.76,-341.49 1791.1,-367.61"/>
<polygon fill="blue" stroke="blue" stroke-width="5" points="1788.21,-370.9 1798.53,-374.46 1794.14,-364.47 1788.21,-370.9"/>
<text text-anchor="middle" x="1919.44" y="-349.96" font-family="Arial" font-size="20.00" fill="blue">start_next: 04/11/17, 18:00:02</text>
<text text-anchor="middle" x="1919.44" y="-327.96" font-family="Arial" font-size="20.00" fill="blue">gap: 23sec</text>
<text text-anchor="middle" x="1919.44" y="-305.96" font-family="Arial" font-size="20.00" fill="blue">end_prev: 04/11/17, 17:59:38</text>
</g>
<!-- ARBITRARY CODE EXECUTION
ssdp | ID: 355 -->
<g id="node8" class="node">
<title>ARBITRARY CODE EXECUTION
ssdp | ID: 355</title>
<g id="a_node8"><a xlink:title="GPL MISC UPnP malformed advertisement">
<polygon fill="none" stroke="black" stroke-width="3" points="1906.44,-632.79 1531.44,-632.79 1531.44,-572.79 1906.44,-572.79 1906.44,-632.79"/>
<text text-anchor="middle" x="1718.94" y="-609.59" font-family="Arial" font-size="24.00">ARBITRARY CODE EXECUTION</text>
<text text-anchor="middle" x="1718.94" y="-583.59" font-family="Arial" font-size="24.00">ssdp | ID: 355</text>
</a>
</g>
</g>
<!-- VULNERABILTY DISCOVERY
ms&#45;sql&#45;s&#45;&gt;ARBITRARY CODE EXECUTION
ssdp | ID: 355 -->
<g id="edge6" class="edge">
<title>VULNERABILTY DISCOVERY
ms&#45;sql&#45;s&#45;&gt;ARBITRARY CODE EXECUTION
ssdp | ID: 355</title>
<path fill="none" stroke="blue" stroke-width="5" d="M1815.11,-458.77C1793.93,-490.28 1765,-533.3 1744.41,-563.91"/>
<polygon fill="blue" stroke="blue" stroke-width="5" points="1740.53,-561.85 1738.58,-572.59 1747.79,-566.73 1740.53,-561.85"/>
<text text-anchor="middle" x="1940.44" y="-532.8" font-family="Arial" font-size="20.00" fill="blue">start_next: 04/11/17, 18:00:53</text>
<text text-anchor="middle" x="1940.44" y="-510.8" font-family="Arial" font-size="20.00" fill="blue">gap: &#45;103sec</text>
<text text-anchor="middle" x="1940.44" y="-488.8" font-family="Arial" font-size="20.00" fill="blue">end_prev: 04/11/17, 18:02:36</text>
</g>
<!-- ARBITRARY CODE EXECUTION
ssdp | ID: 355&#45;&gt;INFO DISCOVERY
xdmcp -->
<g id="edge7" class="edge">
<title>ARBITRARY CODE EXECUTION
ssdp | ID: 355&#45;&gt;INFO DISCOVERY
xdmcp</title>
<path fill="none" stroke="blue" stroke-width="5" d="M1531.31,-616.72C1489.44,-622.2 1452.08,-629.92 1433.94,-640.79 1398.38,-662.1 1371.8,-701.11 1354.71,-732.98"/>
<polygon fill="blue" stroke="blue" stroke-width="5" points="1350.65,-731.29 1349.92,-742.18 1358.42,-735.33 1350.65,-731.29"/>
<text text-anchor="middle" x="1565.44" y="-690.79" font-family="Arial" font-size="20.00" fill="blue">start_next: 04/11/17, 18:01:27</text>
<text text-anchor="middle" x="1565.44" y="-668.79" font-family="Arial" font-size="20.00" fill="blue">gap: 23sec</text>
<text text-anchor="middle" x="1565.44" y="-646.79" font-family="Arial" font-size="20.00" fill="blue">end_prev: 04/11/17, 18:01:04</text>
</g>
<!-- ARBITRARY CODE EXECUTION
ssdp | ID: 355&#45;&gt;INFO DISCOVERY
xdmcp -->
<g id="edge13" class="edge">
<title>ARBITRARY CODE EXECUTION
ssdp | ID: 355&#45;&gt;INFO DISCOVERY
xdmcp</title>
<path fill="none" stroke="blue" stroke-width="5" d="M1719.78,-633.19C1718.78,-656.36 1713.47,-687.82 1693.94,-706.79 1663.96,-735.91 1570.96,-755.27 1486.74,-767.28"/>
<polygon fill="blue" stroke="blue" stroke-width="5" points="1486.08,-762.95 1476.78,-768.67 1487.29,-771.62 1486.08,-762.95"/>
<text text-anchor="middle" x="1850.44" y="-690.79" font-family="Arial" font-size="20.00" fill="blue">start_next: 04/11/17, 18:59:22</text>
<text text-anchor="middle" x="1850.44" y="-668.79" font-family="Arial" font-size="20.00" fill="blue">gap: 22sec</text>
<text text-anchor="middle" x="1850.44" y="-646.79" font-family="Arial" font-size="20.00" fill="blue">end_prev: 04/11/17, 18:58:59</text>
</g>
<!-- DATA EXFILTRATION
http | ID: 26 -->
<g id="node9" class="node">
<title>DATA EXFILTRATION
http | ID: 26</title>
<g id="a_node9"><a xlink:title="ET WEB_SPECIFIC_APPS PHP&#45;CGI query string parameter vulnerability">
<polygon fill="yellow" stroke="black" stroke-width="3" points="2536.82,-48.99 2434.38,-97.97 2229.5,-97.97 2127.06,-48.99 2229.5,-0.01 2434.38,-0.01 2536.82,-48.99"/>
<text text-anchor="middle" x="2331.94" y="-55.79" font-family="Arial" font-size="24.00">DATA EXFILTRATION</text>
<text text-anchor="middle" x="2331.94" y="-29.79" font-family="Arial" font-size="24.00">http | ID: 26</text>
</a>
</g>
</g>
<!-- SERVICE DISCOVERY
rpas&#45;c2 -->
<g id="node10" class="node">
<title>SERVICE DISCOVERY
rpas&#45;c2</title>
<g id="a_node10"><a xlink:title="ET SCAN Potential SSH Scan&#10;ET SCAN Potential VNC Scan 5900&#45;5920">
<ellipse fill="none" stroke="black" stroke-width="3" cx="2331.94" cy="-242.97" rx="189.51" ry="42.35"/>
<text text-anchor="middle" x="2331.94" y="-249.77" font-family="Arial" font-size="24.00">SERVICE DISCOVERY</text>
<text text-anchor="middle" x="2331.94" y="-223.77" font-family="Arial" font-size="24.00">rpas&#45;c2</text>
</a>
</g>
</g>
<!-- DATA EXFILTRATION
http | ID: 26&#45;&gt;SERVICE DISCOVERY
rpas&#45;c2 -->
<g id="edge10" class="edge">
<title>DATA EXFILTRATION
http | ID: 26&#45;&gt;SERVICE DISCOVERY
rpas&#45;c2</title>
<path fill="none" stroke="blue" stroke-width="5" d="M2331.94,-98.43C2331.94,-126.43 2331.94,-161.65 2331.94,-190.19"/>
<polygon fill="blue" stroke="blue" stroke-width="5" points="2327.57,-190.38 2331.94,-200.38 2336.32,-190.38 2327.57,-190.38"/>
<text text-anchor="start" x="2331.94" y="-170.98" font-family="Arial" font-size="20.00" fill="blue"> start_next: 04/11/17, 18:57:32</text>
<text text-anchor="start" x="2405.44" y="-150.98" font-family="Arial" font-size="20.00" fill="blue">gap: 3266sec</text>
<text text-anchor="start" x="2335.94" y="-130.98" font-family="Arial" font-size="20.00" fill="blue">end_prev: 04/11/17, 18:03:06</text>
<text text-anchor="start" x="2366.44" y="-110.98" font-family="Arial" font-weight="bold" font-size="20.00" fill="blue">Attacker: 10.0.254.31</text>
</g>
<!-- VULNERABILTY DISCOVERY
ncube&#45;lm -->
<g id="node11" class="node">
<title>VULNERABILTY DISCOVERY
ncube&#45;lm</title>
<g id="a_node11"><a xlink:title="ET POLICY Suspicious inbound to mySQL port 3306&#10;ET POLICY Suspicious inbound to Oracle SQL port 1521&#10;ET POLICY Suspicious inbound to PostgreSQL port 5432">
<ellipse fill="none" stroke="black" stroke-width="3" cx="2331.94" cy="-416.39" rx="241.25" ry="42.35"/>
<text text-anchor="middle" x="2331.94" y="-423.19" font-family="Arial" font-size="24.00">VULNERABILTY DISCOVERY</text>
<text text-anchor="middle" x="2331.94" y="-397.19" font-family="Arial" font-size="24.00">ncube&#45;lm</text>
</a>
</g>
</g>
<!-- SERVICE DISCOVERY
rpas&#45;c2&#45;&gt;VULNERABILTY DISCOVERY
ncube&#45;lm -->
<g id="edge11" class="edge">
<title>SERVICE DISCOVERY
rpas&#45;c2&#45;&gt;VULNERABILTY DISCOVERY
ncube&#45;lm</title>
<path fill="none" stroke="blue" stroke-width="5" d="M2331.94,-285.46C2331.94,-308.98 2331.94,-338.6 2331.94,-363.63"/>
<polygon fill="blue" stroke="blue" stroke-width="5" points="2327.57,-363.68 2331.94,-373.68 2336.32,-363.68 2327.57,-363.68"/>
<text text-anchor="middle" x="2463.44" y="-349.96" font-family="Arial" font-size="20.00" fill="blue">start_next: 04/11/17, 18:57:53</text>
<text text-anchor="middle" x="2463.44" y="-327.96" font-family="Arial" font-size="20.00" fill="blue">gap: 9sec</text>
<text text-anchor="middle" x="2463.44" y="-305.96" font-family="Arial" font-size="20.00" fill="blue">end_prev: 04/11/17, 18:57:44</text>
</g>
<!-- VULNERABILTY DISCOVERY
ncube&#45;lm&#45;&gt;ARBITRARY CODE EXECUTION
ssdp | ID: 355 -->
<g id="edge12" class="edge">
<title>VULNERABILTY DISCOVERY
ncube&#45;lm&#45;&gt;ARBITRARY CODE EXECUTION
ssdp | ID: 355</title>
<path fill="none" stroke="blue" stroke-width="5" d="M2276.5,-458.01C2226.1,-492.66 2148.31,-540.58 2072.94,-564.79 2042.99,-574.41 1980.88,-582.23 1916.92,-588.16"/>
<polygon fill="blue" stroke="blue" stroke-width="5" points="1916.21,-583.83 1906.65,-589.1 1917,-592.55 1916.21,-583.83"/>
<text text-anchor="middle" x="2392.44" y="-532.8" font-family="Arial" font-size="20.00" fill="blue">start_next: 04/11/17, 18:58:49</text>
<text text-anchor="middle" x="2392.44" y="-510.8" font-family="Arial" font-size="20.00" fill="blue">gap: 50sec</text>
<text text-anchor="middle" x="2392.44" y="-488.8" font-family="Arial" font-size="20.00" fill="blue">end_prev: 04/11/17, 18:57:59</text>
</g>
<!-- DATA EXFILTRATION
http | ID: 228&#45;&gt;DATA DELIVERY
http | ID: 21 -->
<g id="edge16" class="edge">
<title>DATA EXFILTRATION
http | ID: 228&#45;&gt;DATA DELIVERY
http | ID: 21</title>
<path fill="none" stroke="blue" stroke-width="5" d="M198.9,-292.08C193.13,-338.06 184.42,-407.45 178.26,-456.54"/>
<polygon fill="blue" stroke="blue" stroke-width="5" points="173.89,-456.22 176.98,-466.69 182.57,-457.31 173.89,-456.22"/>
<text text-anchor="middle" x="329.44" y="-349.96" font-family="Arial" font-size="20.00" fill="blue">start_next: 04/11/17, 19:00:40</text>
<text text-anchor="middle" x="329.44" y="-327.96" font-family="Arial" font-size="20.00" fill="blue">gap: &#45;1sec</text>
<text text-anchor="middle" x="329.44" y="-305.96" font-family="Arial" font-size="20.00" fill="blue">end_prev: 04/11/17, 19:00:41</text>
</g>
</g>
</svg>
