<?xml version="1.0" encoding="UTF-8" standalone="no"?>
<!DOCTYPE svg PUBLIC "-//W3C//DTD SVG 1.1//EN"
 "http://www.w3.org/Graphics/SVG/1.1/DTD/svg11.dtd">
<!-- Generated by graphviz version 2.50.0 (0)
 -->
<!-- Title: DATAEXFILTRATIONwapwsp Pages: 1 -->
<svg width="2442pt" height="1486pt"
 viewBox="0.00 0.00 2442.12 1485.72" xmlns="http://www.w3.org/2000/svg" xmlns:xlink="http://www.w3.org/1999/xlink">
<g id="graph0" class="graph" transform="scale(1 1) rotate(0) translate(4 1481.72)">
<title>DATAEXFILTRATIONwapwsp</title>
<polygon fill="white" stroke="transparent" points="-4,4 -4,-1481.72 2438.12,-1481.72 2438.12,4 -4,4"/>
<!-- Victim: 10.0.0.151
DATA EXFILTRATION
wap&#45;wsp -->
<g id="node1" class="node">
<title>Victim: 10.0.0.151
DATA EXFILTRATION
wap&#45;wsp</title>
<polygon fill="salmon" stroke="black" stroke-width="3" points="1105.34,-1380.7 1105.34,-1435.09 992.74,-1473.55 833.51,-1473.55 720.91,-1435.09 720.91,-1380.7 833.51,-1342.24 992.74,-1342.24 1105.34,-1380.7"/>
<polygon fill="none" stroke="black" stroke-width="3" points="1109.34,-1377.85 1109.34,-1437.94 993.41,-1477.54 832.84,-1477.54 716.91,-1437.94 716.91,-1377.85 832.84,-1338.25 993.41,-1338.25 1109.34,-1377.85"/>
<text text-anchor="middle" x="913.12" y="-1427.7" font-family="Arial" font-size="24.00">Victim: 10.0.0.151</text>
<text text-anchor="middle" x="913.12" y="-1401.7" font-family="Arial" font-size="24.00">DATA EXFILTRATION</text>
<text text-anchor="middle" x="913.12" y="-1375.7" font-family="Arial" font-size="24.00">wap&#45;wsp</text>
</g>
<!-- DATA EXFILTRATION
wap&#45;wsp | ID: 68 -->
<g id="node2" class="node">
<title>DATA EXFILTRATION
wap&#45;wsp | ID: 68</title>
<g id="a_node2"><a xlink:title="ET WEB_SPECIFIC_APPS PHP&#45;CGI query string parameter vulnerability">
<polygon fill="salmon" stroke="black" stroke-width="3" points="1118,-1272.09 1015.56,-1321.07 810.68,-1321.07 708.24,-1272.09 810.68,-1223.11 1015.56,-1223.11 1118,-1272.09"/>
<text text-anchor="middle" x="913.12" y="-1278.89" font-family="Arial" font-size="24.00">DATA EXFILTRATION</text>
<text text-anchor="middle" x="913.12" y="-1252.89" font-family="Arial" font-size="24.00">wap&#45;wsp | ID: 68</text>
</a>
</g>
</g>
<!-- DATA EXFILTRATION
wap&#45;wsp | ID: 68&#45;&gt;Victim: 10.0.0.151
DATA EXFILTRATION
wap&#45;wsp -->
<g id="edge1" class="edge">
<title>DATA EXFILTRATION
wap&#45;wsp | ID: 68&#45;&gt;Victim: 10.0.0.151
DATA EXFILTRATION
wap&#45;wsp</title>
<path fill="none" stroke="black" stroke-width="5" d="M913.12,-1321.4C913.12,-1323.5 913.12,-1325.63 913.12,-1327.78"/>
<polygon fill="black" stroke="black" stroke-width="5" points="908.75,-1327.93 913.12,-1337.93 917.5,-1327.93 908.75,-1327.93"/>
</g>
<!-- INFO DISCOVERY
xdmcp -->
<g id="node3" class="node">
<title>INFO DISCOVERY
xdmcp</title>
<g id="a_node3"><a xlink:title="GPL WEB_SERVER mod_gzip_status access&#10;GPL RPC xdmcp info query">
<ellipse fill="yellow" stroke="black" stroke-width="3" cx="503.12" cy="-737.84" rx="156.04" ry="42.35"/>
<text text-anchor="middle" x="503.12" y="-744.64" font-family="Arial" font-size="24.00">INFO DISCOVERY</text>
<text text-anchor="middle" x="503.12" y="-718.64" font-family="Arial" font-size="24.00">xdmcp</text>
</a>
</g>
</g>
<!-- ACCOUNT MANIPULATION
snmp | ID: 965 -->
<g id="node4" class="node">
<title>ACCOUNT MANIPULATION
snmp | ID: 965</title>
<g id="a_node4"><a xlink:title="GPL SNMP private access udp&#10;GPL SNMP public access udp">
<polygon fill="none" stroke="black" stroke-width="3" stroke-dasharray="1,5" points="663.12,-948.69 343.12,-948.69 343.12,-888.69 663.12,-888.69 663.12,-948.69"/>
<text text-anchor="middle" x="503.12" y="-925.49" font-family="Arial" font-size="24.00">ACCOUNT MANIPULATION</text>
<text text-anchor="middle" x="503.12" y="-899.49" font-family="Arial" font-size="24.00">snmp | ID: 965</text>
</a>
</g>
</g>
<!-- INFO DISCOVERY
xdmcp&#45;&gt;ACCOUNT MANIPULATION
snmp | ID: 965 -->
<g id="edge2" class="edge">
<title>INFO DISCOVERY
xdmcp&#45;&gt;ACCOUNT MANIPULATION
snmp | ID: 965</title>
<path fill="none" stroke="blue" stroke-width="5" d="M503.12,-780.32C503.12,-809.82 503.12,-849.21 503.12,-878.24"/>
<polygon fill="blue" stroke="blue" stroke-width="5" points="498.75,-878.43 503.12,-888.43 507.5,-878.43 498.75,-878.43"/>
<text text-anchor="start" x="503.12" y="-853.26" font-family="Arial" font-size="20.00" fill="blue"> start_next: 04/11/17, 14:03:19</text>
<text text-anchor="start" x="584.62" y="-833.26" font-family="Arial" font-size="20.00" fill="blue">gap: &#45;22sec</text>
<text text-anchor="start" x="507.12" y="-813.26" font-family="Arial" font-size="20.00" fill="blue">end_prev: 04/11/17, 14:03:41</text>
<text text-anchor="start" x="537.62" y="-793.26" font-family="Arial" font-weight="bold" font-size="20.00" fill="blue">Attacker: 10.0.254.31</text>
</g>
<!-- DATA DELIVERY
wap&#45;wsp | ID: 406 -->
<g id="node5" class="node">
<title>DATA DELIVERY
wap&#45;wsp | ID: 406</title>
<g id="a_node5"><a xlink:title="ET WEB_SERVER PHP tags in HTTP POST&#10;GPL WEB_SERVER perl post attempt">
<polygon fill="none" stroke="black" stroke-width="3" stroke-dasharray="1,5" points="673.92,-1092.11 588.52,-1141.09 417.73,-1141.09 332.33,-1092.11 417.73,-1043.13 588.52,-1043.13 673.92,-1092.11"/>
<text text-anchor="middle" x="503.12" y="-1098.91" font-family="Arial" font-size="24.00">DATA DELIVERY</text>
<text text-anchor="middle" x="503.12" y="-1072.91" font-family="Arial" font-size="24.00">wap&#45;wsp | ID: 406</text>
</a>
</g>
</g>
<!-- ACCOUNT MANIPULATION
snmp | ID: 965&#45;&gt;DATA DELIVERY
wap&#45;wsp | ID: 406 -->
<g id="edge3" class="edge">
<title>ACCOUNT MANIPULATION
snmp | ID: 965&#45;&gt;DATA DELIVERY
wap&#45;wsp | ID: 406</title>
<path fill="none" stroke="blue" stroke-width="5" d="M503.12,-948.77C503.12,-971.74 503.12,-1004.53 503.12,-1032.85"/>
<polygon fill="blue" stroke="blue" stroke-width="5" points="498.75,-1033.05 503.12,-1043.05 507.5,-1033.05 498.75,-1033.05"/>
<text text-anchor="middle" x="634.62" y="-1019.12" font-family="Arial" font-size="20.00" fill="blue">start_next: 04/11/17, 14:03:49</text>
<text text-anchor="middle" x="634.62" y="-997.12" font-family="Arial" font-size="20.00" fill="blue">gap: 26sec</text>
<text text-anchor="middle" x="634.62" y="-975.12" font-family="Arial" font-size="20.00" fill="blue">end_prev: 04/11/17, 14:03:23</text>
</g>
<!-- DATA DELIVERY
wap&#45;wsp | ID: 406&#45;&gt;DATA EXFILTRATION
wap&#45;wsp | ID: 68 -->
<g id="edge4" class="edge">
<title>DATA DELIVERY
wap&#45;wsp | ID: 406&#45;&gt;DATA EXFILTRATION
wap&#45;wsp | ID: 68</title>
<path fill="none" stroke="blue" stroke-width="5" d="M491.23,-1141.09C488.04,-1166.11 489.47,-1195.5 507.12,-1215.1 534.87,-1245.89 621.45,-1260.26 707.58,-1266.76"/>
<polygon fill="blue" stroke="blue" stroke-width="5" points="707.51,-1271.14 717.8,-1267.5 708.14,-1262.42 707.51,-1271.14"/>
<text text-anchor="middle" x="638.62" y="-1199.1" font-family="Arial" font-size="20.00" fill="blue">start_next: 04/11/17, 14:03:58</text>
<text text-anchor="middle" x="638.62" y="-1177.1" font-family="Arial" font-size="20.00" fill="blue">gap: 0sec</text>
<text text-anchor="middle" x="638.62" y="-1155.1" font-family="Arial" font-size="20.00" fill="blue">end_prev: 04/11/17, 14:03:58</text>
</g>
<!-- VULNERABILTY DISCOVERY
ms&#45;sql&#45;s -->
<g id="node6" class="node">
<title>VULNERABILTY DISCOVERY
ms&#45;sql&#45;s</title>
<g id="a_node6"><a xlink:title="ET POLICY Suspicious inbound to MSSQL port 1433">
<ellipse fill="yellow" stroke="black" stroke-width="3" cx="1071.12" cy="-42.43" rx="241.25" ry="42.35"/>
<text text-anchor="middle" x="1071.12" y="-49.23" font-family="Arial" font-size="24.00">VULNERABILTY DISCOVERY</text>
<text text-anchor="middle" x="1071.12" y="-23.23" font-family="Arial" font-size="24.00">ms&#45;sql&#45;s</text>
</a>
</g>
</g>
<!-- VULNERABILTY DISCOVERY
ncube&#45;lm -->
<g id="node7" class="node">
<title>VULNERABILTY DISCOVERY
ncube&#45;lm</title>
<g id="a_node7"><a xlink:title="ET POLICY Suspicious inbound to Oracle SQL port 1521&#10;ET POLICY Suspicious inbound to mSQL port 4333">
<ellipse fill="none" stroke="black" stroke-width="3" cx="1071.12" cy="-223.28" rx="241.25" ry="42.35"/>
<text text-anchor="middle" x="1071.12" y="-230.08" font-family="Arial" font-size="24.00">VULNERABILTY DISCOVERY</text>
<text text-anchor="middle" x="1071.12" y="-204.08" font-family="Arial" font-size="24.00">ncube&#45;lm</text>
</a>
</g>
</g>
<!-- VULNERABILTY DISCOVERY
ms&#45;sql&#45;s&#45;&gt;VULNERABILTY DISCOVERY
ncube&#45;lm -->
<g id="edge5" class="edge">
<title>VULNERABILTY DISCOVERY
ms&#45;sql&#45;s&#45;&gt;VULNERABILTY DISCOVERY
ncube&#45;lm</title>
<path fill="none" stroke="purple" stroke-width="5" d="M1071.12,-84.91C1071.12,-110.44 1071.12,-143.37 1071.12,-170.59"/>
<polygon fill="purple" stroke="purple" stroke-width="5" points="1066.75,-170.71 1071.12,-180.71 1075.5,-170.71 1066.75,-170.71"/>
<text text-anchor="start" x="1071.12" y="-157.85" font-family="Arial" font-size="20.00" fill="purple"> start_next: 04/11/17, 14:03:11</text>
<text text-anchor="start" x="1144.12" y="-137.85" font-family="Arial" font-size="20.00" fill="purple">gap: 1391sec</text>
<text text-anchor="start" x="1074.62" y="-117.85" font-family="Arial" font-size="20.00" fill="purple">end_prev: 04/11/17, 13:40:00</text>
<text text-anchor="start" x="1105.12" y="-97.85" font-family="Arial" font-weight="bold" font-size="20.00" fill="purple">Attacker: 10.0.254.30</text>
</g>
<!-- SERVICE DISCOVERY
unknown -->
<g id="node8" class="node">
<title>SERVICE DISCOVERY
unknown</title>
<g id="a_node8"><a xlink:title="ET SCAN Potential VNC Scan 5800&#45;5820&#10;ET SCAN Potential VNC Scan 5900&#45;5920">
<ellipse fill="yellow" stroke="black" stroke-width="3" cx="791.12" cy="-404.13" rx="189.51" ry="42.35"/>
<text text-anchor="middle" x="791.12" y="-410.93" font-family="Arial" font-size="24.00">SERVICE DISCOVERY</text>
<text text-anchor="middle" x="791.12" y="-384.93" font-family="Arial" font-size="24.00">unknown</text>
</a>
</g>
</g>
<!-- VULNERABILTY DISCOVERY
ncube&#45;lm&#45;&gt;SERVICE DISCOVERY
unknown -->
<g id="edge6" class="edge">
<title>VULNERABILTY DISCOVERY
ncube&#45;lm&#45;&gt;SERVICE DISCOVERY
unknown</title>
<path fill="none" stroke="purple" stroke-width="5" d="M833.63,-230.9C694.59,-237.3 542.04,-249.74 520.12,-273.71 508.13,-286.83 508.74,-340.05 520.12,-353.71 532.83,-368.94 565.77,-379.49 604.49,-386.8"/>
<polygon fill="purple" stroke="purple" stroke-width="5" points="603.83,-391.12 614.44,-388.58 605.38,-382.51 603.83,-391.12"/>
<text text-anchor="middle" x="651.62" y="-330.71" font-family="Arial" font-size="20.00" fill="purple">start_next: 04/11/17, 14:03:49</text>
<text text-anchor="middle" x="651.62" y="-308.71" font-family="Arial" font-size="20.00" fill="purple">gap: &#45;18sec</text>
<text text-anchor="middle" x="651.62" y="-286.71" font-family="Arial" font-size="20.00" fill="purple">end_prev: 04/11/17, 14:04:07</text>
</g>
<!-- HOST DISCOVERY
wap&#45;wsp -->
<g id="node9" class="node">
<title>HOST DISCOVERY
wap&#45;wsp</title>
<g id="a_node9"><a xlink:title="ET SCAN Possible Nmap User&#45;Agent Observed&#10;ET SCAN Nmap Scripting Engine User&#45;Agent Detected (Nmap Scripting Engine)">
<ellipse fill="none" stroke="black" stroke-width="3" cx="1343.12" cy="-570.98" rx="162.77" ry="42.35"/>
<text text-anchor="middle" x="1343.12" y="-577.78" font-family="Arial" font-size="24.00">HOST DISCOVERY</text>
<text text-anchor="middle" x="1343.12" y="-551.78" font-family="Arial" font-size="24.00">wap&#45;wsp</text>
</a>
</g>
</g>
<!-- VULNERABILTY DISCOVERY
ncube&#45;lm&#45;&gt;HOST DISCOVERY
wap&#45;wsp -->
<g id="edge12" class="edge">
<title>VULNERABILTY DISCOVERY
ncube&#45;lm&#45;&gt;HOST DISCOVERY
wap&#45;wsp</title>
<path fill="none" stroke="purple" stroke-width="5" d="M1274.71,-246.12C1302.58,-252.98 1325.1,-261.96 1335.12,-273.71 1350.55,-291.78 1347.88,-438.01 1345.2,-518.05"/>
<polygon fill="purple" stroke="purple" stroke-width="5" points="1340.81,-518.27 1344.84,-528.42 1349.56,-518.58 1340.81,-518.27"/>
<text text-anchor="middle" x="1478.62" y="-421.13" font-family="Arial" font-size="20.00" fill="purple">start_next: 04/11/17, 17:37:26</text>
<text text-anchor="middle" x="1478.62" y="-399.13" font-family="Arial" font-size="20.00" fill="purple">gap: 101sec</text>
<text text-anchor="middle" x="1478.62" y="-377.13" font-family="Arial" font-size="20.00" fill="purple">end_prev: 04/11/17, 17:35:45</text>
</g>
<!-- VULNERABILTY DISCOVERY
ncube&#45;lm&#45;&gt;HOST DISCOVERY
wap&#45;wsp -->
<g id="edge21" class="edge">
<title>VULNERABILTY DISCOVERY
ncube&#45;lm&#45;&gt;HOST DISCOVERY
wap&#45;wsp</title>
<path fill="none" stroke="purple" stroke-width="5" d="M1267.36,-247.95C1403.96,-269.08 1568.61,-305.5 1609.12,-361.71 1631.17,-392.3 1629.42,-414.77 1609.12,-446.56 1579.59,-492.82 1527.76,-522 1477.65,-540.29"/>
<polygon fill="purple" stroke="purple" stroke-width="5" points="1475.97,-536.25 1467.99,-543.7 1478.88,-544.5 1475.97,-536.25"/>
<text text-anchor="middle" x="1755.62" y="-421.13" font-family="Arial" font-size="20.00" fill="purple">start_next: 04/11/17, 20:44:14</text>
<text text-anchor="middle" x="1755.62" y="-399.13" font-family="Arial" font-size="20.00" fill="purple">gap: 172sec</text>
<text text-anchor="middle" x="1755.62" y="-377.13" font-family="Arial" font-size="20.00" fill="purple">end_prev: 04/11/17, 20:41:22</text>
</g>
<!-- SERVICE DISCOVERY
unknown&#45;&gt;VULNERABILTY DISCOVERY
ncube&#45;lm -->
<g id="edge11" class="edge">
<title>SERVICE DISCOVERY
unknown&#45;&gt;VULNERABILTY DISCOVERY
ncube&#45;lm</title>
<path fill="none" stroke="purple" stroke-width="5" d="M786.95,-361.5C784.63,-328.71 784.1,-286.47 795.12,-273.71 804.9,-262.38 825.89,-253.65 852.14,-246.91"/>
<polygon fill="purple" stroke="purple" stroke-width="5" points="853.34,-251.12 862.04,-244.52 851.29,-242.62 853.34,-251.12"/>
<text text-anchor="start" x="795.12" y="-338.71" font-family="Arial" font-size="20.00" fill="purple"> start_next: 04/11/17, 17:35:45</text>
<text text-anchor="start" x="885.62" y="-318.71" font-family="Arial" font-size="20.00" fill="purple">gap: 0sec</text>
<text text-anchor="start" x="799.12" y="-298.71" font-family="Arial" font-size="20.00" fill="purple">end_prev: 04/11/17, 17:35:45</text>
<text text-anchor="start" x="829.62" y="-278.71" font-family="Arial" font-weight="bold" font-size="20.00" fill="purple">Attacker: 10.0.254.30</text>
</g>
<!-- SERVICE DISCOVERY
unknown&#45;&gt;VULNERABILTY DISCOVERY
ncube&#45;lm -->
<g id="edge20" class="edge">
<title>SERVICE DISCOVERY
unknown&#45;&gt;VULNERABILTY DISCOVERY
ncube&#45;lm</title>
<path fill="none" stroke="purple" stroke-width="5" d="M966,-387.64C1008.46,-380.28 1045.8,-369.48 1060.12,-353.71 1070.34,-342.45 1072.84,-307.18 1072.93,-276.3"/>
<polygon fill="purple" stroke="purple" stroke-width="5" points="1077.3,-276.01 1072.87,-266.03 1068.55,-276.05 1077.3,-276.01"/>
<text text-anchor="middle" x="1203.62" y="-330.71" font-family="Arial" font-size="20.00" fill="purple">start_next: 04/11/17, 20:41:17</text>
<text text-anchor="middle" x="1203.62" y="-308.71" font-family="Arial" font-size="20.00" fill="purple">gap: 0sec</text>
<text text-anchor="middle" x="1203.62" y="-286.71" font-family="Arial" font-size="20.00" fill="purple">end_prev: 04/11/17, 20:41:17</text>
</g>
<!-- SERVICE DISCOVERY
unknown&#45;&gt;HOST DISCOVERY
wap&#45;wsp -->
<g id="edge7" class="edge">
<title>SERVICE DISCOVERY
unknown&#45;&gt;HOST DISCOVERY
wap&#45;wsp</title>
<path fill="none" stroke="purple" stroke-width="5" d="M870.97,-442.7C927.05,-467.8 1004.37,-499.89 1075.12,-520.56 1112.54,-531.49 1153.63,-540.5 1192.15,-547.7"/>
<polygon fill="purple" stroke="purple" stroke-width="5" points="1191.79,-552.08 1202.42,-549.59 1193.37,-543.48 1191.79,-552.08"/>
<text text-anchor="middle" x="1206.62" y="-504.56" font-family="Arial" font-size="20.00" fill="purple">start_next: 04/11/17, 14:06:33</text>
<text text-anchor="middle" x="1206.62" y="-482.56" font-family="Arial" font-size="20.00" fill="purple">gap: 110sec</text>
<text text-anchor="middle" x="1206.62" y="-460.56" font-family="Arial" font-size="20.00" fill="purple">end_prev: 04/11/17, 14:04:42</text>
</g>
<!-- INFO DISCOVERY
wap&#45;wsp -->
<g id="node10" class="node">
<title>INFO DISCOVERY
wap&#45;wsp</title>
<g id="a_node10"><a xlink:title="GPL WEB_SERVER globals.pl access">
<ellipse fill="none" stroke="black" stroke-width="3" cx="1087.12" cy="-918.69" rx="156.04" ry="42.35"/>
<text text-anchor="middle" x="1087.12" y="-925.49" font-family="Arial" font-size="24.00">INFO DISCOVERY</text>
<text text-anchor="middle" x="1087.12" y="-899.49" font-family="Arial" font-size="24.00">wap&#45;wsp</text>
</a>
</g>
</g>
<!-- HOST DISCOVERY
wap&#45;wsp&#45;&gt;INFO DISCOVERY
wap&#45;wsp -->
<g id="edge8" class="edge">
<title>HOST DISCOVERY
wap&#45;wsp&#45;&gt;INFO DISCOVERY
wap&#45;wsp</title>
<path fill="none" stroke="purple" stroke-width="5" d="M1236.33,-603.1C1190,-622.17 1139.69,-651.58 1110.12,-695.41 1076.17,-745.75 1075.14,-817.63 1079.46,-865.88"/>
<polygon fill="purple" stroke="purple" stroke-width="5" points="1075.14,-866.59 1080.49,-876.11 1083.84,-865.72 1075.14,-866.59"/>
<text text-anchor="middle" x="1241.62" y="-754.84" font-family="Arial" font-size="20.00" fill="purple">start_next: 04/11/17, 14:07:50</text>
<text text-anchor="middle" x="1241.62" y="-732.84" font-family="Arial" font-size="20.00" fill="purple">gap: 77sec</text>
<text text-anchor="middle" x="1241.62" y="-710.84" font-family="Arial" font-size="20.00" fill="purple">end_prev: 04/11/17, 14:06:33</text>
</g>
<!-- VULNERABILTY DISCOVERY
wap&#45;wsp -->
<g id="node12" class="node">
<title>VULNERABILTY DISCOVERY
wap&#45;wsp</title>
<g id="a_node12"><a xlink:title="ET SCAN Nikto Web App Scan in Progress">
<ellipse fill="none" stroke="black" stroke-width="3" cx="1618.12" cy="-737.84" rx="241.25" ry="42.35"/>
<text text-anchor="middle" x="1618.12" y="-744.64" font-family="Arial" font-size="24.00">VULNERABILTY DISCOVERY</text>
<text text-anchor="middle" x="1618.12" y="-718.64" font-family="Arial" font-size="24.00">wap&#45;wsp</text>
</a>
</g>
</g>
<!-- HOST DISCOVERY
wap&#45;wsp&#45;&gt;VULNERABILTY DISCOVERY
wap&#45;wsp -->
<g id="edge13" class="edge">
<title>HOST DISCOVERY
wap&#45;wsp&#45;&gt;VULNERABILTY DISCOVERY
wap&#45;wsp</title>
<path fill="none" stroke="purple" stroke-width="5" d="M1332.77,-613.45C1329.31,-637.78 1329.95,-667.53 1347.12,-687.41 1353.44,-694.72 1382.75,-702.34 1419.92,-709.34"/>
<polygon fill="purple" stroke="purple" stroke-width="5" points="1419.44,-713.7 1430.06,-711.2 1421.02,-705.09 1419.44,-713.7"/>
<text text-anchor="middle" x="1478.62" y="-671.41" font-family="Arial" font-size="20.00" fill="purple">start_next: 04/11/17, 17:46:43</text>
<text text-anchor="middle" x="1478.62" y="-649.41" font-family="Arial" font-size="20.00" fill="purple">gap: 556sec</text>
<text text-anchor="middle" x="1478.62" y="-627.41" font-family="Arial" font-size="20.00" fill="purple">end_prev: 04/11/17, 17:37:26</text>
</g>
<!-- HOST DISCOVERY
wap&#45;wsp&#45;&gt;VULNERABILTY DISCOVERY
wap&#45;wsp -->
<g id="edge22" class="edge">
<title>HOST DISCOVERY
wap&#45;wsp&#45;&gt;VULNERABILTY DISCOVERY
wap&#45;wsp</title>
<path fill="none" stroke="purple" stroke-width="5" d="M1497.02,-585.01C1545.69,-592.39 1591.04,-603.81 1607.12,-621.41 1622.61,-638.36 1626.48,-663.11 1626.01,-685.35"/>
<polygon fill="purple" stroke="purple" stroke-width="5" points="1621.64,-685.15 1625.52,-695.36 1630.38,-685.58 1621.64,-685.15"/>
<text text-anchor="middle" x="1756.62" y="-671.41" font-family="Arial" font-size="20.00" fill="purple">start_next: 04/11/17, 20:48:03</text>
<text text-anchor="middle" x="1756.62" y="-649.41" font-family="Arial" font-size="20.00" fill="purple">gap: 229sec</text>
<text text-anchor="middle" x="1756.62" y="-627.41" font-family="Arial" font-size="20.00" fill="purple">end_prev: 04/11/17, 20:44:14</text>
</g>
<!-- INFO DISCOVERY
wap&#45;wsp&#45;&gt;DATA EXFILTRATION
wap&#45;wsp | ID: 68 -->
<g id="edge17" class="edge">
<title>INFO DISCOVERY
wap&#45;wsp&#45;&gt;DATA EXFILTRATION
wap&#45;wsp | ID: 68</title>
<path fill="none" stroke="purple" stroke-width="5" d="M950.38,-939.46C887.77,-956.1 819.18,-986.73 781.12,-1043.12 756.76,-1079.21 764.3,-1100.93 781.12,-1141.1 793.12,-1169.75 814.85,-1195.29 837.27,-1215.98"/>
<polygon fill="purple" stroke="purple" stroke-width="5" points="834.52,-1219.39 844.88,-1222.81 840.36,-1212.87 834.52,-1219.39"/>
<text text-anchor="middle" x="912.62" y="-1109.11" font-family="Arial" font-size="20.00" fill="purple">start_next: 04/11/17, 17:47:28</text>
<text text-anchor="middle" x="912.62" y="-1087.11" font-family="Arial" font-size="20.00" fill="purple">gap: 1sec</text>
<text text-anchor="middle" x="912.62" y="-1065.11" font-family="Arial" font-size="20.00" fill="purple">end_prev: 04/11/17, 17:47:27</text>
</g>
<!-- INFO DISCOVERY
wap&#45;wsp&#45;&gt;DATA EXFILTRATION
wap&#45;wsp | ID: 68 -->
<g id="edge26" class="edge">
<title>INFO DISCOVERY
wap&#45;wsp&#45;&gt;DATA EXFILTRATION
wap&#45;wsp | ID: 68</title>
<path fill="none" stroke="purple" stroke-width="5" d="M1063.21,-960.7C1062.05,-963.5 1061,-966.32 1060.12,-969.12 1037.03,-1042.47 1074.15,-1071.65 1041.12,-1141.1 1027.74,-1169.24 1005.74,-1194.94 983.73,-1215.94"/>
<polygon fill="purple" stroke="purple" stroke-width="5" points="980.61,-1212.86 976.27,-1222.87 986.57,-1219.26 980.61,-1212.86"/>
<text text-anchor="middle" x="1187.62" y="-1109.11" font-family="Arial" font-size="20.00" fill="purple">start_next: 04/11/17, 20:48:48</text>
<text text-anchor="middle" x="1187.62" y="-1087.11" font-family="Arial" font-size="20.00" fill="purple">gap: 1sec</text>
<text text-anchor="middle" x="1187.62" y="-1065.11" font-family="Arial" font-size="20.00" fill="purple">end_prev: 04/11/17, 20:48:47</text>
</g>
<!-- SURFING
wap&#45;wsp -->
<g id="node11" class="node">
<title>SURFING
wap&#45;wsp</title>
<g id="a_node11"><a xlink:title="ET WEB_SERVER WEB&#45;PHP phpinfo access">
<ellipse fill="none" stroke="black" stroke-width="3" cx="1514.12" cy="-1092.11" rx="88.28" ry="42.35"/>
<text text-anchor="middle" x="1514.12" y="-1098.91" font-family="Arial" font-size="24.00">SURFING</text>
<text text-anchor="middle" x="1514.12" y="-1072.91" font-family="Arial" font-size="24.00">wap&#45;wsp</text>
</a>
</g>
</g>
<!-- INFO DISCOVERY
wap&#45;wsp&#45;&gt;SURFING
wap&#45;wsp -->
<g id="edge9" class="edge">
<title>INFO DISCOVERY
wap&#45;wsp&#45;&gt;SURFING
wap&#45;wsp</title>
<path fill="none" stroke="purple" stroke-width="5" d="M1067.02,-960.93C1058.18,-985.63 1053.5,-1015.88 1072.12,-1035.12 1081.56,-1044.86 1302.68,-1041.29 1316.12,-1043.12 1353.92,-1048.26 1395.02,-1057.59 1429.93,-1066.66"/>
<polygon fill="purple" stroke="purple" stroke-width="5" points="1428.81,-1070.9 1439.6,-1069.21 1431.04,-1062.43 1428.81,-1070.9"/>
<text text-anchor="middle" x="1203.62" y="-1019.12" font-family="Arial" font-size="20.00" fill="purple">start_next: 04/11/17, 14:07:50</text>
<text text-anchor="middle" x="1203.62" y="-997.12" font-family="Arial" font-size="20.00" fill="purple">gap: 1sec</text>
<text text-anchor="middle" x="1203.62" y="-975.12" font-family="Arial" font-size="20.00" fill="purple">end_prev: 04/11/17, 14:07:50</text>
</g>
<!-- SURFING
wap&#45;wsp&#45;&gt;DATA EXFILTRATION
wap&#45;wsp | ID: 68 -->
<g id="edge10" class="edge">
<title>SURFING
wap&#45;wsp&#45;&gt;DATA EXFILTRATION
wap&#45;wsp | ID: 68</title>
<path fill="none" stroke="purple" stroke-width="5" d="M1439.83,-1115.11C1342.28,-1144 1169.26,-1195.23 1048.23,-1231.08"/>
<polygon fill="purple" stroke="purple" stroke-width="5" points="1046.86,-1226.92 1038.52,-1233.95 1049.35,-1235.31 1046.86,-1226.92"/>
<text text-anchor="middle" x="1450.62" y="-1199.1" font-family="Arial" font-size="20.00" fill="purple">start_next: 04/11/17, 14:07:51</text>
<text text-anchor="middle" x="1450.62" y="-1177.1" font-family="Arial" font-size="20.00" fill="purple">gap: 0sec</text>
<text text-anchor="middle" x="1450.62" y="-1155.1" font-family="Arial" font-size="20.00" fill="purple">end_prev: 04/11/17, 14:07:51</text>
</g>
<!-- SURFING
wap&#45;wsp&#45;&gt;INFO DISCOVERY
wap&#45;wsp -->
<g id="edge16" class="edge">
<title>SURFING
wap&#45;wsp&#45;&gt;INFO DISCOVERY
wap&#45;wsp</title>
<path fill="none" stroke="purple" stroke-width="5" d="M1429.11,-1080.04C1399.41,-1072.1 1368.25,-1058.47 1347.12,-1035.12 1326.94,-1012.81 1353.65,-990.13 1332.12,-969.12 1317.67,-955.01 1281.34,-944.63 1240.95,-937.13"/>
<polygon fill="purple" stroke="purple" stroke-width="5" points="1241.5,-932.78 1230.89,-935.33 1239.97,-941.4 1241.5,-932.78"/>
<text text-anchor="middle" x="1478.62" y="-1019.12" font-family="Arial" font-size="20.00" fill="purple">start_next: 04/11/17, 17:47:27</text>
<text text-anchor="middle" x="1478.62" y="-997.12" font-family="Arial" font-size="20.00" fill="purple">gap: &#45;1sec</text>
<text text-anchor="middle" x="1478.62" y="-975.12" font-family="Arial" font-size="20.00" fill="purple">end_prev: 04/11/17, 17:47:29</text>
</g>
<!-- SURFING
wap&#45;wsp&#45;&gt;INFO DISCOVERY
wap&#45;wsp -->
<g id="edge25" class="edge">
<title>SURFING
wap&#45;wsp&#45;&gt;INFO DISCOVERY
wap&#45;wsp</title>
<path fill="none" stroke="purple" stroke-width="5" d="M1579.79,-1063.57C1590.74,-1055.99 1600.63,-1046.6 1607.12,-1035.12 1614.34,-1022.35 1616.99,-979.97 1607.12,-969.12 1583.35,-942.97 1395.72,-930.34 1252.6,-924.46"/>
<polygon fill="purple" stroke="purple" stroke-width="5" points="1252.54,-920.08 1242.37,-924.05 1252.19,-928.82 1252.54,-920.08"/>
<text text-anchor="middle" x="1744.62" y="-1019.12" font-family="Arial" font-size="20.00" fill="purple">start_next: 04/11/17, 20:48:47</text>
<text text-anchor="middle" x="1744.62" y="-997.12" font-family="Arial" font-size="20.00" fill="purple">gap: &#45;1sec</text>
<text text-anchor="middle" x="1744.62" y="-975.12" font-family="Arial" font-size="20.00" fill="purple">end_prev: 04/11/17, 20:48:48</text>
</g>
<!-- ARBITRARY CODE EXECUTION
wap&#45;wsp | ID: 81 -->
<g id="node13" class="node">
<title>ARBITRARY CODE EXECUTION
wap&#45;wsp | ID: 81</title>
<g id="a_node13"><a xlink:title="ET CURRENT_EVENTS QNAP Shellshock CVE&#45;2014&#45;6271">
<polygon fill="none" stroke="black" stroke-width="3" points="2080.62,-948.69 1705.62,-948.69 1705.62,-888.69 2080.62,-888.69 2080.62,-948.69"/>
<text text-anchor="middle" x="1893.12" y="-925.49" font-family="Arial" font-size="24.00">ARBITRARY CODE EXECUTION</text>
<text text-anchor="middle" x="1893.12" y="-899.49" font-family="Arial" font-size="24.00">wap&#45;wsp | ID: 81</text>
</a>
</g>
</g>
<!-- VULNERABILTY DISCOVERY
wap&#45;wsp&#45;&gt;ARBITRARY CODE EXECUTION
wap&#45;wsp | ID: 81 -->
<g id="edge14" class="edge">
<title>VULNERABILTY DISCOVERY
wap&#45;wsp&#45;&gt;ARBITRARY CODE EXECUTION
wap&#45;wsp | ID: 81</title>
<path fill="none" stroke="purple" stroke-width="5" d="M1607.09,-780.39C1602.31,-808.46 1601.74,-844.58 1622.12,-868.26 1633.77,-881.79 1661.65,-891.63 1695.32,-898.79"/>
<polygon fill="purple" stroke="purple" stroke-width="5" points="1694.78,-903.14 1705.45,-900.83 1696.51,-894.56 1694.78,-903.14"/>
<text text-anchor="middle" x="1753.62" y="-845.26" font-family="Arial" font-size="20.00" fill="purple">start_next: 04/11/17, 17:46:44</text>
<text text-anchor="middle" x="1753.62" y="-823.26" font-family="Arial" font-size="20.00" fill="purple">gap: 1sec</text>
<text text-anchor="middle" x="1753.62" y="-801.26" font-family="Arial" font-size="20.00" fill="purple">end_prev: 04/11/17, 17:46:43</text>
</g>
<!-- VULNERABILTY DISCOVERY
wap&#45;wsp&#45;&gt;ARBITRARY CODE EXECUTION
wap&#45;wsp | ID: 81 -->
<g id="edge23" class="edge">
<title>VULNERABILTY DISCOVERY
wap&#45;wsp&#45;&gt;ARBITRARY CODE EXECUTION
wap&#45;wsp | ID: 81</title>
<path fill="none" stroke="purple" stroke-width="5" d="M1820.52,-761.01C1848.74,-767.84 1871.68,-776.72 1882.12,-788.26 1903.81,-812.25 1904.66,-849.97 1901.2,-878.51"/>
<polygon fill="purple" stroke="purple" stroke-width="5" points="1896.85,-878.06 1899.76,-888.57 1905.51,-879.29 1896.85,-878.06"/>
<text text-anchor="middle" x="2033.62" y="-845.26" font-family="Arial" font-size="20.00" fill="purple">start_next: 04/11/17, 20:48:04</text>
<text text-anchor="middle" x="2033.62" y="-823.26" font-family="Arial" font-size="20.00" fill="purple">gap: 1sec</text>
<text text-anchor="middle" x="2033.62" y="-801.26" font-family="Arial" font-size="20.00" fill="purple">end_prev: 04/11/17, 20:48:03</text>
</g>
<!-- ARBITRARY CODE EXECUTION
wap&#45;wsp | ID: 81&#45;&gt;SURFING
wap&#45;wsp -->
<g id="edge15" class="edge">
<title>ARBITRARY CODE EXECUTION
wap&#45;wsp | ID: 81&#45;&gt;SURFING
wap&#45;wsp</title>
<path fill="none" stroke="purple" stroke-width="5" d="M1894.27,-948.78C1894.8,-978.86 1893.5,-1023.09 1882.12,-1035.12 1846.26,-1073.04 1709.14,-1085.4 1612.82,-1089.35"/>
<polygon fill="purple" stroke="purple" stroke-width="5" points="1612.58,-1084.99 1602.76,-1089.74 1612.92,-1093.73 1612.58,-1084.99"/>
<text text-anchor="middle" x="2025.62" y="-1019.12" font-family="Arial" font-size="20.00" fill="purple">start_next: 04/11/17, 17:47:25</text>
<text text-anchor="middle" x="2025.62" y="-997.12" font-family="Arial" font-size="20.00" fill="purple">gap: 41sec</text>
<text text-anchor="middle" x="2025.62" y="-975.12" font-family="Arial" font-size="20.00" fill="purple">end_prev: 04/11/17, 17:46:44</text>
</g>
<!-- ARBITRARY CODE EXECUTION
wap&#45;wsp | ID: 81&#45;&gt;SURFING
wap&#45;wsp -->
<g id="edge24" class="edge">
<title>ARBITRARY CODE EXECUTION
wap&#45;wsp | ID: 81&#45;&gt;SURFING
wap&#45;wsp</title>
<path fill="none" stroke="purple" stroke-width="5" d="M2080.68,-937.65C2115.9,-944.88 2145.4,-954.99 2157.12,-969.12 2175.86,-991.69 2176.95,-1013.49 2157.12,-1035.12 2121.12,-1074.4 1783.64,-1086.22 1612.56,-1089.7"/>
<polygon fill="purple" stroke="purple" stroke-width="5" points="1612.45,-1085.32 1602.54,-1089.89 1612.62,-1094.07 1612.45,-1085.32"/>
<text text-anchor="middle" x="2302.62" y="-1019.12" font-family="Arial" font-size="20.00" fill="purple">start_next: 04/11/17, 20:48:45</text>
<text text-anchor="middle" x="2302.62" y="-997.12" font-family="Arial" font-size="20.00" fill="purple">gap: 41sec</text>
<text text-anchor="middle" x="2302.62" y="-975.12" font-family="Arial" font-size="20.00" fill="purple">end_prev: 04/11/17, 20:48:04</text>
</g>
<!-- VULNERABILTY DISCOVERY
mysql -->
<g id="node14" class="node">
<title>VULNERABILTY DISCOVERY
mysql</title>
<g id="a_node14"><a xlink:title="ET POLICY Suspicious inbound to mySQL port 3306">
<ellipse fill="yellow" stroke="black" stroke-width="3" cx="241.12" cy="-42.43" rx="241.25" ry="42.35"/>
<text text-anchor="middle" x="241.12" y="-49.23" font-family="Arial" font-size="24.00">VULNERABILTY DISCOVERY</text>
<text text-anchor="middle" x="241.12" y="-23.23" font-family="Arial" font-size="24.00">mysql</text>
</a>
</g>
</g>
<!-- SERVICE DISCOVERY
ssh -->
<g id="node15" class="node">
<title>SERVICE DISCOVERY
ssh</title>
<g id="a_node15"><a xlink:title="ET SCAN Potential SSH Scan">
<ellipse fill="none" stroke="black" stroke-width="3" cx="241.12" cy="-223.28" rx="189.51" ry="42.35"/>
<text text-anchor="middle" x="241.12" y="-230.08" font-family="Arial" font-size="24.00">SERVICE DISCOVERY</text>
<text text-anchor="middle" x="241.12" y="-204.08" font-family="Arial" font-size="24.00">ssh</text>
</a>
</g>
</g>
<!-- VULNERABILTY DISCOVERY
mysql&#45;&gt;SERVICE DISCOVERY
ssh -->
<g id="edge18" class="edge">
<title>VULNERABILTY DISCOVERY
mysql&#45;&gt;SERVICE DISCOVERY
ssh</title>
<path fill="none" stroke="purple" stroke-width="5" d="M241.12,-84.91C241.12,-110.44 241.12,-143.37 241.12,-170.59"/>
<polygon fill="purple" stroke="purple" stroke-width="5" points="236.75,-170.71 241.12,-180.71 245.5,-170.71 236.75,-170.71"/>
<text text-anchor="start" x="241.12" y="-157.85" font-family="Arial" font-size="20.00" fill="purple"> start_next: 04/11/17, 19:40:46</text>
<text text-anchor="start" x="331.62" y="-137.85" font-family="Arial" font-size="20.00" fill="purple">gap: 1sec</text>
<text text-anchor="start" x="245.12" y="-117.85" font-family="Arial" font-size="20.00" fill="purple">end_prev: 04/11/17, 19:40:45</text>
<text text-anchor="start" x="275.62" y="-97.85" font-family="Arial" font-weight="bold" font-size="20.00" fill="purple">Attacker: 10.0.254.30</text>
</g>
<!-- SERVICE DISCOVERY
ssh&#45;&gt;SERVICE DISCOVERY
unknown -->
<g id="edge19" class="edge">
<title>SERVICE DISCOVERY
ssh&#45;&gt;SERVICE DISCOVERY
unknown</title>
<path fill="none" stroke="purple" stroke-width="5" d="M230.71,-265.64C226.22,-294.18 226.18,-330.94 248.12,-353.71 272.28,-378.77 447.95,-391.35 593.04,-397.51"/>
<polygon fill="purple" stroke="purple" stroke-width="5" points="593.26,-401.9 603.43,-397.95 593.62,-393.16 593.26,-401.9"/>
<text text-anchor="middle" x="379.62" y="-330.71" font-family="Arial" font-size="20.00" fill="purple">start_next: 04/11/17, 20:41:17</text>
<text text-anchor="middle" x="379.62" y="-308.71" font-family="Arial" font-size="20.00" fill="purple">gap: 3631sec</text>
<text text-anchor="middle" x="379.62" y="-286.71" font-family="Arial" font-size="20.00" fill="purple">end_prev: 04/11/17, 19:40:46</text>
</g>
</g>
</svg>
