<?xml version="1.0" encoding="UTF-8" standalone="no"?>
<!DOCTYPE svg PUBLIC "-//W3C//DTD SVG 1.1//EN"
 "http://www.w3.org/Graphics/SVG/1.1/DTD/svg11.dtd">
<!-- Generated by graphviz version 2.50.0 (0)
 -->
<!-- Title: NETWORKDOSmswbtserver Pages: 1 -->
<svg width="1469pt" height="1437pt"
 viewBox="0.00 0.00 1469.12 1436.89" xmlns="http://www.w3.org/2000/svg" xmlns:xlink="http://www.w3.org/1999/xlink">
<g id="graph0" class="graph" transform="scale(1 1) rotate(0) translate(4 1432.89)">
<title>NETWORKDOSmswbtserver</title>
<polygon fill="white" stroke="transparent" points="-4,4 -4,-1432.89 1465.12,-1432.89 1465.12,4 -4,4"/>
<!-- Victim: 10.0.0.222
NETWORK DoS
ms&#45;wbt&#45;server -->
<g id="node1" class="node">
<title>Victim: 10.0.0.222
NETWORK DoS
ms&#45;wbt&#45;server</title>
<polygon fill="salmon" stroke="black" stroke-width="3" points="911.07,-1331.87 911.07,-1386.26 816.79,-1424.72 683.46,-1424.72 589.17,-1386.26 589.17,-1331.87 683.46,-1293.41 816.79,-1293.41 911.07,-1331.87"/>
<polygon fill="none" stroke="black" stroke-width="3" points="915.08,-1329.19 915.08,-1388.94 817.58,-1428.71 682.67,-1428.71 585.17,-1388.94 585.17,-1329.19 682.67,-1289.42 817.58,-1289.42 915.08,-1329.19"/>
<text text-anchor="middle" x="750.12" y="-1378.87" font-family="Arial" font-size="24.00">Victim: 10.0.0.222</text>
<text text-anchor="middle" x="750.12" y="-1352.87" font-family="Arial" font-size="24.00">NETWORK DoS</text>
<text text-anchor="middle" x="750.12" y="-1326.87" font-family="Arial" font-size="24.00">ms&#45;wbt&#45;server</text>
</g>
<!-- NETWORK DoS
ms&#45;wbt&#45;server | ID: 36 -->
<g id="node2" class="node">
<title>NETWORK DoS
ms&#45;wbt&#45;server | ID: 36</title>
<g id="a_node2"><a xlink:title="ET DOS Microsoft Remote Desktop (RDP) Syn then Reset 30 Second DoS Attempt">
<polygon fill="salmon" stroke="black" stroke-width="3" points="957.4,-1223.25 853.76,-1272.23 646.48,-1272.23 542.84,-1223.25 646.48,-1174.27 853.76,-1174.27 957.4,-1223.25"/>
<text text-anchor="middle" x="750.12" y="-1230.05" font-family="Arial" font-size="24.00">NETWORK DoS</text>
<text text-anchor="middle" x="750.12" y="-1204.05" font-family="Arial" font-size="24.00">ms&#45;wbt&#45;server | ID: 36</text>
</a>
</g>
</g>
<!-- NETWORK DoS
ms&#45;wbt&#45;server | ID: 36&#45;&gt;Victim: 10.0.0.222
NETWORK DoS
ms&#45;wbt&#45;server -->
<g id="edge1" class="edge">
<title>NETWORK DoS
ms&#45;wbt&#45;server | ID: 36&#45;&gt;Victim: 10.0.0.222
NETWORK DoS
ms&#45;wbt&#45;server</title>
<path fill="none" stroke="black" stroke-width="5" d="M750.12,-1272.56C750.12,-1274.67 750.12,-1276.8 750.12,-1278.95"/>
<polygon fill="black" stroke="black" stroke-width="5" points="745.75,-1279.1 750.12,-1289.1 754.5,-1279.1 745.75,-1279.1"/>
</g>
<!-- SERVICE DISCOVERY
rpas&#45;c2 -->
<g id="node3" class="node">
<title>SERVICE DISCOVERY
rpas&#45;c2</title>
<g id="a_node3"><a xlink:title="ET SCAN Potential VNC Scan 5900&#45;5920">
<ellipse fill="yellow" stroke="black" stroke-width="3" cx="974.12" cy="-546.13" rx="189.51" ry="42.35"/>
<text text-anchor="middle" x="974.12" y="-552.93" font-family="Arial" font-size="24.00">SERVICE DISCOVERY</text>
<text text-anchor="middle" x="974.12" y="-526.93" font-family="Arial" font-size="24.00">rpas&#45;c2</text>
</a>
</g>
</g>
<!-- VULNERABILTY DISCOVERY
ms&#45;sql&#45;s -->
<g id="node4" class="node">
<title>VULNERABILTY DISCOVERY
ms&#45;sql&#45;s</title>
<g id="a_node4"><a xlink:title="ET POLICY Suspicious inbound to MSSQL port 1433&#10;ET POLICY Suspicious inbound to mySQL port 3306&#10;ET POLICY Suspicious inbound to Oracle SQL port 1521&#10;ET POLICY Suspicious inbound to mSQL port 4333">
<ellipse fill="none" stroke="black" stroke-width="3" cx="974.12" cy="-726.98" rx="241.25" ry="42.35"/>
<text text-anchor="middle" x="974.12" y="-733.78" font-family="Arial" font-size="24.00">VULNERABILTY DISCOVERY</text>
<text text-anchor="middle" x="974.12" y="-707.78" font-family="Arial" font-size="24.00">ms&#45;sql&#45;s</text>
</a>
</g>
</g>
<!-- SERVICE DISCOVERY
rpas&#45;c2&#45;&gt;VULNERABILTY DISCOVERY
ms&#45;sql&#45;s -->
<g id="edge2" class="edge">
<title>SERVICE DISCOVERY
rpas&#45;c2&#45;&gt;VULNERABILTY DISCOVERY
ms&#45;sql&#45;s</title>
<path fill="none" stroke="orange" stroke-width="5" d="M974.12,-588.61C974.12,-614.14 974.12,-647.07 974.12,-674.29"/>
<polygon fill="orange" stroke="orange" stroke-width="5" points="969.75,-674.42 974.12,-684.42 978.5,-674.42 969.75,-674.42"/>
<text text-anchor="start" x="974.12" y="-661.56" font-family="Arial" font-size="20.00" fill="orange"> start_next: 04/11/17, 13:26:17</text>
<text text-anchor="start" x="1059.12" y="-641.56" font-family="Arial" font-size="20.00" fill="orange">gap: 35sec</text>
<text text-anchor="start" x="978.12" y="-621.56" font-family="Arial" font-size="20.00" fill="orange">end_prev: 04/11/17, 13:25:42</text>
<text text-anchor="start" x="1008.62" y="-601.56" font-family="Arial" font-weight="bold" font-size="20.00" fill="orange">Attacker: 10.0.254.30</text>
</g>
<!-- ARBITRARY CODE EXECUTION
microsoft&#45;ds | ID: 321 -->
<g id="node5" class="node">
<title>ARBITRARY CODE EXECUTION
microsoft&#45;ds | ID: 321</title>
<g id="a_node5"><a xlink:title="GPL NETBIOS SMB&#45;DS Session Setup NTMLSSP unicode asn1 overflow attempt">
<polygon fill="none" stroke="black" stroke-width="3" points="1005.62,-937.84 630.62,-937.84 630.62,-877.84 1005.62,-877.84 1005.62,-937.84"/>
<text text-anchor="middle" x="818.12" y="-914.64" font-family="Arial" font-size="24.00">ARBITRARY CODE EXECUTION</text>
<text text-anchor="middle" x="818.12" y="-888.64" font-family="Arial" font-size="24.00">microsoft&#45;ds | ID: 321</text>
</a>
</g>
</g>
<!-- VULNERABILTY DISCOVERY
ms&#45;sql&#45;s&#45;&gt;ARBITRARY CODE EXECUTION
microsoft&#45;ds | ID: 321 -->
<g id="edge3" class="edge">
<title>VULNERABILTY DISCOVERY
ms&#45;sql&#45;s&#45;&gt;ARBITRARY CODE EXECUTION
microsoft&#45;ds | ID: 321</title>
<path fill="none" stroke="orange" stroke-width="5" d="M912.82,-768.29C909.42,-771.24 906.16,-774.29 903.12,-777.41 876.59,-804.67 853.42,-841.34 838,-868.69"/>
<polygon fill="orange" stroke="orange" stroke-width="5" points="834.1,-866.71 833.08,-877.58 841.75,-870.95 834.1,-866.71"/>
<text text-anchor="middle" x="1034.62" y="-834.41" font-family="Arial" font-size="20.00" fill="orange">start_next: 04/11/17, 14:02:15</text>
<text text-anchor="middle" x="1034.62" y="-812.41" font-family="Arial" font-size="20.00" fill="orange">gap: 2138sec</text>
<text text-anchor="middle" x="1034.62" y="-790.41" font-family="Arial" font-size="20.00" fill="orange">end_prev: 04/11/17, 13:26:37</text>
</g>
<!-- SERVICE DISCOVERY
microsoft&#45;ds -->
<g id="node13" class="node">
<title>SERVICE DISCOVERY
microsoft&#45;ds</title>
<g id="a_node13"><a xlink:title="ET SCAN Behavioral Unusual Port 445 traffic Potential Scan or Infection">
<ellipse fill="none" stroke="black" stroke-width="3" cx="1202.12" cy="-907.84" rx="189.51" ry="42.35"/>
<text text-anchor="middle" x="1202.12" y="-914.64" font-family="Arial" font-size="24.00">SERVICE DISCOVERY</text>
<text text-anchor="middle" x="1202.12" y="-888.64" font-family="Arial" font-size="24.00">microsoft&#45;ds</text>
</a>
</g>
</g>
<!-- VULNERABILTY DISCOVERY
ms&#45;sql&#45;s&#45;&gt;SERVICE DISCOVERY
microsoft&#45;ds -->
<g id="edge16" class="edge">
<title>VULNERABILTY DISCOVERY
ms&#45;sql&#45;s&#45;&gt;SERVICE DISCOVERY
microsoft&#45;ds</title>
<path fill="none" stroke="blue" stroke-width="5" d="M1137.5,-758.25C1146.77,-763.66 1155.43,-770 1163.12,-777.41 1184.1,-797.63 1193.9,-828.67 1198.44,-855.29"/>
<polygon fill="blue" stroke="blue" stroke-width="5" points="1194.12,-856 1199.93,-865.24 1202.77,-854.7 1194.12,-856"/>
<text text-anchor="middle" x="1329.62" y="-834.41" font-family="Arial" font-size="20.00" fill="blue">start_next: 04/11/17, 14:04:50</text>
<text text-anchor="middle" x="1329.62" y="-812.41" font-family="Arial" font-size="20.00" fill="blue">gap: 31sec</text>
<text text-anchor="middle" x="1329.62" y="-790.41" font-family="Arial" font-size="20.00" fill="blue">end_prev: 04/11/17, 14:04:19</text>
</g>
<!-- COMMAND AND CONTROL
unknown | ID: 39 -->
<g id="node6" class="node">
<title>COMMAND AND CONTROL
unknown | ID: 39</title>
<g id="a_node6"><a xlink:title="ET POLICY RDP connection confirm">
<polygon fill="none" stroke="black" stroke-width="3" points="720.62,-1092.26 397.62,-1092.26 397.62,-1032.26 720.62,-1032.26 720.62,-1092.26"/>
<text text-anchor="middle" x="559.12" y="-1069.06" font-family="Arial" font-size="24.00">COMMAND AND CONTROL</text>
<text text-anchor="middle" x="559.12" y="-1043.06" font-family="Arial" font-size="24.00">unknown | ID: 39</text>
</a>
</g>
</g>
<!-- ARBITRARY CODE EXECUTION
microsoft&#45;ds | ID: 321&#45;&gt;COMMAND AND CONTROL
unknown | ID: 39 -->
<g id="edge4" class="edge">
<title>ARBITRARY CODE EXECUTION
microsoft&#45;ds | ID: 321&#45;&gt;COMMAND AND CONTROL
unknown | ID: 39</title>
<path fill="none" stroke="orange" stroke-width="5" d="M824.95,-937.92C829.19,-963.98 830.38,-1001.49 809.12,-1024.26 796.78,-1037.5 766.43,-1046.04 730.96,-1051.55"/>
<polygon fill="orange" stroke="orange" stroke-width="5" points="730.1,-1047.25 720.83,-1053.02 731.36,-1055.91 730.1,-1047.25"/>
<text text-anchor="middle" x="958.62" y="-1008.26" font-family="Arial" font-size="20.00" fill="orange">start_next: 04/11/17, 14:08:19</text>
<text text-anchor="middle" x="958.62" y="-986.26" font-family="Arial" font-size="20.00" fill="orange">gap: 364sec</text>
<text text-anchor="middle" x="958.62" y="-964.26" font-family="Arial" font-size="20.00" fill="orange">end_prev: 04/11/17, 14:02:15</text>
</g>
<!-- COMMAND AND CONTROL
unknown | ID: 39&#45;&gt;NETWORK DoS
ms&#45;wbt&#45;server | ID: 36 -->
<g id="edge5" class="edge">
<title>COMMAND AND CONTROL
unknown | ID: 39&#45;&gt;NETWORK DoS
ms&#45;wbt&#45;server | ID: 36</title>
<path fill="none" stroke="orange" stroke-width="5" d="M720.93,-1072.73C793.7,-1078.68 865.9,-1087.66 877.12,-1100.26 896.63,-1122.17 893.14,-1141.69 877.12,-1166.26 875.81,-1168.27 874.41,-1170.21 872.93,-1172.08"/>
<polygon fill="orange" stroke="orange" stroke-width="5" points="869.39,-1169.48 865.95,-1179.84 875.89,-1175.33 869.39,-1169.48"/>
<text text-anchor="middle" x="1021.62" y="-1150.26" font-family="Arial" font-size="20.00" fill="orange">start_next: 04/11/17, 20:19:08</text>
<text text-anchor="middle" x="1021.62" y="-1128.26" font-family="Arial" font-size="20.00" fill="orange">gap: 22249sec</text>
<text text-anchor="middle" x="1021.62" y="-1106.26" font-family="Arial" font-size="20.00" fill="orange">end_prev: 04/11/17, 14:08:19</text>
</g>
<!-- COMMAND AND CONTROL
unknown | ID: 39&#45;&gt;NETWORK DoS
ms&#45;wbt&#45;server | ID: 36 -->
<g id="edge8" class="edge">
<title>COMMAND AND CONTROL
unknown | ID: 39&#45;&gt;NETWORK DoS
ms&#45;wbt&#45;server | ID: 36</title>
<path fill="none" stroke="orange" stroke-width="5" d="M397.45,-1076.89C371.9,-1082.28 350.97,-1089.79 342.12,-1100.26 323.2,-1122.68 322.84,-1144.16 342.12,-1166.26 369.3,-1197.43 455.22,-1211.86 541.24,-1218.32"/>
<polygon fill="orange" stroke="orange" stroke-width="5" points="541.17,-1222.7 551.45,-1219.05 541.79,-1213.97 541.17,-1222.7"/>
<text text-anchor="middle" x="473.62" y="-1150.26" font-family="Arial" font-size="20.00" fill="orange">start_next: 04/11/17, 20:26:25</text>
<text text-anchor="middle" x="473.62" y="-1128.26" font-family="Arial" font-size="20.00" fill="orange">gap: 364sec</text>
<text text-anchor="middle" x="473.62" y="-1106.26" font-family="Arial" font-size="20.00" fill="orange">end_prev: 04/11/17, 20:20:22</text>
</g>
<!-- COMMAND AND CONTROL
unknown | ID: 39&#45;&gt;NETWORK DoS
ms&#45;wbt&#45;server | ID: 36 -->
<g id="edge11" class="edge">
<title>COMMAND AND CONTROL
unknown | ID: 39&#45;&gt;NETWORK DoS
ms&#45;wbt&#45;server | ID: 36</title>
<path fill="none" stroke="darkgreen" stroke-width="5" d="M596.72,-1092.37C598.75,-1094.88 600.58,-1097.52 602.12,-1100.26 616.71,-1126.18 594.56,-1143.03 613.12,-1166.26 615.71,-1169.5 618.52,-1172.56 621.5,-1175.43"/>
<polygon fill="darkgreen" stroke="darkgreen" stroke-width="5" points="618.86,-1178.94 629.27,-1182.23 624.63,-1172.35 618.86,-1178.94"/>
<text text-anchor="middle" x="744.62" y="-1150.26" font-family="Arial" font-size="20.00" fill="darkgreen">start_next: 04/11/17, 13:42:15</text>
<text text-anchor="middle" x="744.62" y="-1128.26" font-family="Arial" font-size="20.00" fill="darkgreen">gap: 190sec</text>
<text text-anchor="middle" x="744.62" y="-1106.26" font-family="Arial" font-size="20.00" fill="darkgreen">end_prev: 04/11/17, 13:39:05</text>
</g>
<!-- VULNERABILTY DISCOVERY
postgresql -->
<g id="node7" class="node">
<title>VULNERABILTY DISCOVERY
postgresql</title>
<g id="a_node7"><a xlink:title="ET POLICY Suspicious inbound to MSSQL port 1433&#10;ET POLICY Suspicious inbound to mySQL port 3306&#10;ET POLICY Suspicious inbound to Oracle SQL port 1521&#10;ET POLICY Suspicious inbound to PostgreSQL port 5432">
<ellipse fill="yellow" stroke="black" stroke-width="3" cx="485.12" cy="-726.98" rx="241.25" ry="42.35"/>
<text text-anchor="middle" x="485.12" y="-733.78" font-family="Arial" font-size="24.00">VULNERABILTY DISCOVERY</text>
<text text-anchor="middle" x="485.12" y="-707.78" font-family="Arial" font-size="24.00">postgresql</text>
</a>
</g>
</g>
<!-- SERVICE DISCOVERY
unknown -->
<g id="node8" class="node">
<title>SERVICE DISCOVERY
unknown</title>
<g id="a_node8"><a xlink:title="ET SCAN Potential VNC Scan 5800&#45;5820&#10;ET SCAN NMAP OS Detection Probe&#10;ET SCAN Potential VNC Scan 5900&#45;5920">
<ellipse fill="none" stroke="black" stroke-width="3" cx="298.12" cy="-907.84" rx="189.51" ry="42.35"/>
<text text-anchor="middle" x="298.12" y="-914.64" font-family="Arial" font-size="24.00">SERVICE DISCOVERY</text>
<text text-anchor="middle" x="298.12" y="-888.64" font-family="Arial" font-size="24.00">unknown</text>
</a>
</g>
</g>
<!-- VULNERABILTY DISCOVERY
postgresql&#45;&gt;SERVICE DISCOVERY
unknown -->
<g id="edge6" class="edge">
<title>VULNERABILTY DISCOVERY
postgresql&#45;&gt;SERVICE DISCOVERY
unknown</title>
<path fill="none" stroke="orange" stroke-width="5" d="M442.22,-769.02C414.09,-795.92 377.21,-831.19 347.81,-859.32"/>
<polygon fill="orange" stroke="orange" stroke-width="5" points="344.71,-856.23 340.5,-866.3 350.75,-862.55 344.71,-856.23"/>
<text text-anchor="start" x="430.12" y="-842.41" font-family="Arial" font-size="20.00" fill="orange"> start_next: 04/11/17, 20:19:09</text>
<text text-anchor="start" x="511.62" y="-822.41" font-family="Arial" font-size="20.00" fill="orange">gap: &#45;29sec</text>
<text text-anchor="start" x="434.12" y="-802.41" font-family="Arial" font-size="20.00" fill="orange">end_prev: 04/11/17, 20:19:39</text>
<text text-anchor="start" x="464.62" y="-782.41" font-family="Arial" font-weight="bold" font-size="20.00" fill="orange">Attacker: 10.0.254.30</text>
</g>
<!-- SERVICE DISCOVERY
unknown&#45;&gt;COMMAND AND CONTROL
unknown | ID: 39 -->
<g id="edge7" class="edge">
<title>SERVICE DISCOVERY
unknown&#45;&gt;COMMAND AND CONTROL
unknown | ID: 39</title>
<path fill="none" stroke="orange" stroke-width="5" d="M461.74,-929.4C494.45,-936.59 522.39,-946.03 534.12,-958.26 552.7,-977.63 540.4,-992.41 545.21,-1021.85"/>
<polygon fill="orange" stroke="orange" stroke-width="5" points="541.01,-1023.12 547.44,-1031.95 549.56,-1021.24 541.01,-1023.12"/>
<text text-anchor="middle" x="676.62" y="-1008.26" font-family="Arial" font-size="20.00" fill="orange">start_next: 04/11/17, 20:20:22</text>
<text text-anchor="middle" x="676.62" y="-986.26" font-family="Arial" font-size="20.00" fill="orange">gap: &#45;434sec</text>
<text text-anchor="middle" x="676.62" y="-964.26" font-family="Arial" font-size="20.00" fill="orange">end_prev: 04/11/17, 20:27:36</text>
</g>
<!-- SERVICE DISCOVERY
unknown&#45;&gt;COMMAND AND CONTROL
unknown | ID: 39 -->
<g id="edge10" class="edge">
<title>SERVICE DISCOVERY
unknown&#45;&gt;COMMAND AND CONTROL
unknown | ID: 39</title>
<path fill="none" stroke="darkgreen" stroke-width="5" d="M271.85,-950.02C260.03,-974.24 252.28,-1003.99 270.12,-1024.26 279.01,-1034.36 330.39,-1042.45 387.42,-1048.46"/>
<polygon fill="darkgreen" stroke="darkgreen" stroke-width="5" points="386.97,-1052.82 397.36,-1049.49 387.86,-1044.11 386.97,-1052.82"/>
<text text-anchor="middle" x="401.62" y="-1008.26" font-family="Arial" font-size="20.00" fill="darkgreen">start_next: 04/11/17, 13:39:05</text>
<text text-anchor="middle" x="401.62" y="-986.26" font-family="Arial" font-size="20.00" fill="darkgreen">gap: 121sec</text>
<text text-anchor="middle" x="401.62" y="-964.26" font-family="Arial" font-size="20.00" fill="darkgreen">end_prev: 04/11/17, 13:37:04</text>
</g>
<!-- VULNERABILTY DISCOVERY
ncube&#45;lm -->
<g id="node9" class="node">
<title>VULNERABILTY DISCOVERY
ncube&#45;lm</title>
<g id="a_node9"><a xlink:title="ET POLICY Suspicious inbound to Oracle SQL port 1521&#10;ET POLICY Suspicious inbound to PostgreSQL port 5432">
<ellipse fill="yellow" stroke="black" stroke-width="3" cx="241.12" cy="-42.43" rx="241.25" ry="42.35"/>
<text text-anchor="middle" x="241.12" y="-49.23" font-family="Arial" font-size="24.00">VULNERABILTY DISCOVERY</text>
<text text-anchor="middle" x="241.12" y="-23.23" font-family="Arial" font-size="24.00">ncube&#45;lm</text>
</a>
</g>
</g>
<!-- VULNERABILTY DISCOVERY
ncube&#45;lm&#45;&gt;SERVICE DISCOVERY
unknown -->
<g id="edge9" class="edge">
<title>VULNERABILTY DISCOVERY
ncube&#45;lm&#45;&gt;SERVICE DISCOVERY
unknown</title>
<path fill="none" stroke="darkgreen" stroke-width="5" d="M238.21,-84.96C235.93,-121.2 233.12,-175.19 233.12,-222.28 233.12,-222.28 233.12,-222.28 233.12,-727.98 233.12,-773.48 251.93,-821.77 269.31,-856.7"/>
<polygon fill="darkgreen" stroke="darkgreen" stroke-width="5" points="265.48,-858.81 273.92,-865.73 273.27,-854.83 265.48,-858.81"/>
<text text-anchor="start" x="233.12" y="-480.71" font-family="Arial" font-size="20.00" fill="darkgreen"> start_next: 04/11/17, 13:37:04</text>
<text text-anchor="start" x="312.62" y="-460.71" font-family="Arial" font-size="20.00" fill="darkgreen">gap: 203sec</text>
<text text-anchor="start" x="237.12" y="-440.71" font-family="Arial" font-size="20.00" fill="darkgreen">end_prev: 04/11/17, 13:33:40</text>
<text text-anchor="start" x="267.62" y="-420.71" font-family="Arial" font-weight="bold" font-size="20.00" fill="darkgreen">Attacker: 10.0.254.35</text>
</g>
<!-- SERVICE DISCOVERY
epmap -->
<g id="node10" class="node">
<title>SERVICE DISCOVERY
epmap</title>
<g id="a_node10"><a xlink:title="ET SCAN Behavioral Unusual Port 135 traffic Potential Scan or Infection">
<ellipse fill="none" stroke="black" stroke-width="3" cx="512.12" cy="-223.28" rx="189.51" ry="42.35"/>
<text text-anchor="middle" x="512.12" y="-230.08" font-family="Arial" font-size="24.00">SERVICE DISCOVERY</text>
<text text-anchor="middle" x="512.12" y="-204.08" font-family="Arial" font-size="24.00">epmap</text>
</a>
</g>
</g>
<!-- VULNERABILTY DISCOVERY
ncube&#45;lm&#45;&gt;SERVICE DISCOVERY
epmap -->
<g id="edge12" class="edge">
<title>VULNERABILTY DISCOVERY
ncube&#45;lm&#45;&gt;SERVICE DISCOVERY
epmap</title>
<path fill="none" stroke="blue" stroke-width="5" d="M301.94,-83.56C344.08,-111.37 400.22,-148.43 443.88,-177.24"/>
<polygon fill="blue" stroke="blue" stroke-width="5" points="441.69,-181.03 452.44,-182.89 446.51,-173.73 441.69,-181.03"/>
<text text-anchor="start" x="432.12" y="-157.85" font-family="Arial" font-size="20.00" fill="blue"> start_next: 04/11/17, 13:35:02</text>
<text text-anchor="start" x="506.62" y="-137.85" font-family="Arial" font-size="20.00" fill="blue">gap: 2011sec</text>
<text text-anchor="start" x="436.12" y="-117.85" font-family="Arial" font-size="20.00" fill="blue">end_prev: 04/11/17, 13:01:31</text>
<text text-anchor="start" x="466.62" y="-97.85" font-family="Arial" font-weight="bold" font-size="20.00" fill="blue">Attacker: 10.0.254.31</text>
</g>
<!-- ACCOUNT MANIPULATION
snmp | ID: 326 -->
<g id="node11" class="node">
<title>ACCOUNT MANIPULATION
snmp | ID: 326</title>
<g id="a_node11"><a xlink:title="GPL SNMP private access udp&#10;GPL SNMP public access udp">
<polygon fill="none" stroke="black" stroke-width="3" stroke-dasharray="1,5" points="716.12,-407.71 396.12,-407.71 396.12,-347.71 716.12,-347.71 716.12,-407.71"/>
<text text-anchor="middle" x="556.12" y="-384.51" font-family="Arial" font-size="24.00">ACCOUNT MANIPULATION</text>
<text text-anchor="middle" x="556.12" y="-358.51" font-family="Arial" font-size="24.00">snmp | ID: 326</text>
</a>
</g>
</g>
<!-- SERVICE DISCOVERY
epmap&#45;&gt;ACCOUNT MANIPULATION
snmp | ID: 326 -->
<g id="edge13" class="edge">
<title>SERVICE DISCOVERY
epmap&#45;&gt;ACCOUNT MANIPULATION
snmp | ID: 326</title>
<path fill="none" stroke="blue" stroke-width="5" d="M524.15,-265.93C530.63,-288.4 538.59,-315.96 544.94,-337.97"/>
<polygon fill="blue" stroke="blue" stroke-width="5" points="540.76,-339.26 547.74,-347.65 549.17,-336.83 540.76,-339.26"/>
<text text-anchor="middle" x="675.12" y="-323.71" font-family="Arial" font-size="20.00" fill="blue">start_next: 04/11/17, 14:02:11</text>
<text text-anchor="middle" x="675.12" y="-301.71" font-family="Arial" font-size="20.00" fill="blue">gap: 1629sec</text>
<text text-anchor="middle" x="675.12" y="-279.71" font-family="Arial" font-size="20.00" fill="blue">end_prev: 04/11/17, 13:35:02</text>
</g>
<!-- ARBITRARY CODE EXECUTION
microsoft&#45;ds | ID: 40 -->
<g id="node12" class="node">
<title>ARBITRARY CODE EXECUTION
microsoft&#45;ds | ID: 40</title>
<g id="a_node12"><a xlink:title="GPL NETBIOS DCERPC Remote Activation bind attempt&#10;GPL NETBIOS SMB&#45;DS Session Setup NTMLSSP unicode asn1 overflow attempt&#10;GPL NETBIOS DCERPC IActivation little endian bind attempt">
<polygon fill="none" stroke="black" stroke-width="3" points="758.62,-576.13 383.62,-576.13 383.62,-516.13 758.62,-516.13 758.62,-576.13"/>
<text text-anchor="middle" x="571.12" y="-552.93" font-family="Arial" font-size="24.00">ARBITRARY CODE EXECUTION</text>
<text text-anchor="middle" x="571.12" y="-526.93" font-family="Arial" font-size="24.00">microsoft&#45;ds | ID: 40</text>
</a>
</g>
</g>
<!-- ACCOUNT MANIPULATION
snmp | ID: 326&#45;&gt;ARBITRARY CODE EXECUTION
microsoft&#45;ds | ID: 40 -->
<g id="edge14" class="edge">
<title>ACCOUNT MANIPULATION
snmp | ID: 326&#45;&gt;ARBITRARY CODE EXECUTION
microsoft&#45;ds | ID: 40</title>
<path fill="none" stroke="blue" stroke-width="5" d="M558.77,-408.08C561.22,-435.29 564.89,-475.96 567.59,-505.94"/>
<polygon fill="blue" stroke="blue" stroke-width="5" points="563.25,-506.49 568.5,-516.06 571.96,-505.7 563.25,-506.49"/>
<text text-anchor="middle" x="697.62" y="-472.71" font-family="Arial" font-size="20.00" fill="blue">start_next: 04/11/17, 14:02:19</text>
<text text-anchor="middle" x="697.62" y="-450.71" font-family="Arial" font-size="20.00" fill="blue">gap: &#45;225sec</text>
<text text-anchor="middle" x="697.62" y="-428.71" font-family="Arial" font-size="20.00" fill="blue">end_prev: 04/11/17, 14:06:04</text>
</g>
<!-- ARBITRARY CODE EXECUTION
microsoft&#45;ds | ID: 40&#45;&gt;VULNERABILTY DISCOVERY
ms&#45;sql&#45;s -->
<g id="edge15" class="edge">
<title>ARBITRARY CODE EXECUTION
microsoft&#45;ds | ID: 40&#45;&gt;VULNERABILTY DISCOVERY
ms&#45;sql&#45;s</title>
<path fill="none" stroke="blue" stroke-width="5" d="M593.83,-576.38C618.91,-606.49 662.14,-652.34 710.12,-676.56 724.63,-683.88 750.81,-690.88 781.23,-697.19"/>
<polygon fill="blue" stroke="blue" stroke-width="5" points="780.58,-701.52 791.25,-699.21 782.31,-692.94 780.58,-701.52"/>
<text text-anchor="middle" x="841.62" y="-653.56" font-family="Arial" font-size="20.00" fill="blue">start_next: 04/11/17, 14:03:07</text>
<text text-anchor="middle" x="841.62" y="-631.56" font-family="Arial" font-size="20.00" fill="blue">gap: &#45;220sec</text>
<text text-anchor="middle" x="841.62" y="-609.56" font-family="Arial" font-size="20.00" fill="blue">end_prev: 04/11/17, 14:06:47</text>
</g>
<!-- REMOTE SERVICE EXPLOIT
snmp | ID: 299 -->
<g id="node14" class="node">
<title>REMOTE SERVICE EXPLOIT
snmp | ID: 299</title>
<g id="a_node14"><a xlink:title="ET SNMP Samsung Printer SNMP Hardcode RW Community String">
<polygon fill="none" stroke="black" stroke-width="3" points="1361.12,-1092.26 1023.12,-1092.26 1023.12,-1032.26 1361.12,-1032.26 1361.12,-1092.26"/>
<text text-anchor="middle" x="1192.12" y="-1069.06" font-family="Arial" font-size="24.00">REMOTE SERVICE EXPLOIT</text>
<text text-anchor="middle" x="1192.12" y="-1043.06" font-family="Arial" font-size="24.00">snmp | ID: 299</text>
</a>
</g>
</g>
<!-- SERVICE DISCOVERY
microsoft&#45;ds&#45;&gt;REMOTE SERVICE EXPLOIT
snmp | ID: 299 -->
<g id="edge17" class="edge">
<title>SERVICE DISCOVERY
microsoft&#45;ds&#45;&gt;REMOTE SERVICE EXPLOIT
snmp | ID: 299</title>
<path fill="none" stroke="blue" stroke-width="5" d="M1199.39,-950.49C1197.92,-972.86 1196.12,-1000.27 1194.68,-1022.23"/>
<polygon fill="blue" stroke="blue" stroke-width="5" points="1190.32,-1021.95 1194.03,-1032.21 1199.05,-1022.52 1190.32,-1021.95"/>
<text text-anchor="middle" x="1329.62" y="-1008.26" font-family="Arial" font-size="20.00" fill="blue">start_next: 04/11/17, 14:05:28</text>
<text text-anchor="middle" x="1329.62" y="-986.26" font-family="Arial" font-size="20.00" fill="blue">gap: 38sec</text>
<text text-anchor="middle" x="1329.62" y="-964.26" font-family="Arial" font-size="20.00" fill="blue">end_prev: 04/11/17, 14:04:50</text>
</g>
<!-- REMOTE SERVICE EXPLOIT
snmp | ID: 299&#45;&gt;NETWORK DoS
ms&#45;wbt&#45;server | ID: 36 -->
<g id="edge18" class="edge">
<title>REMOTE SERVICE EXPLOIT
snmp | ID: 299&#45;&gt;NETWORK DoS
ms&#45;wbt&#45;server | ID: 36</title>
<path fill="none" stroke="blue" stroke-width="5" d="M1189.43,-1092.4C1185.62,-1116.06 1176.4,-1148.34 1154.12,-1166.26 1121.82,-1192.26 1034.52,-1206.18 949.31,-1213.65"/>
<polygon fill="blue" stroke="blue" stroke-width="5" points="948.79,-1209.3 939.2,-1214.5 949.53,-1218.02 948.79,-1209.3"/>
<text text-anchor="middle" x="1318.62" y="-1150.26" font-family="Arial" font-size="20.00" fill="blue">start_next: 04/11/17, 14:05:34</text>
<text text-anchor="middle" x="1318.62" y="-1128.26" font-family="Arial" font-size="20.00" fill="blue">gap: 6sec</text>
<text text-anchor="middle" x="1318.62" y="-1106.26" font-family="Arial" font-size="20.00" fill="blue">end_prev: 04/11/17, 14:05:28</text>
</g>
</g>
</svg>
