<?xml version="1.0" encoding="UTF-8" standalone="no"?>
<!DOCTYPE svg PUBLIC "-//W3C//DTD SVG 1.1//EN"
 "http://www.w3.org/Graphics/SVG/1.1/DTD/svg11.dtd">
<!-- Generated by graphviz version 2.50.0 (0)
 -->
<!-- Title: NETWORKDOSssdp Pages: 1 -->
<svg width="1546pt" height="1170pt"
 viewBox="0.00 0.00 1546.00 1169.89" xmlns="http://www.w3.org/2000/svg" xmlns:xlink="http://www.w3.org/1999/xlink">
<g id="graph0" class="graph" transform="scale(1 1) rotate(0) translate(4 1165.89)">
<title>NETWORKDOSssdp</title>
<polygon fill="white" stroke="transparent" points="-4,4 -4,-1165.89 1542,-1165.89 1542,4 -4,4"/>
<!-- Victim: 10.0.0.110
NETWORK DoS
ssdp -->
<g id="node1" class="node">
<title>Victim: 10.0.0.110
NETWORK DoS
ssdp</title>
<polygon fill="salmon" stroke="black" stroke-width="3" points="340.39,-1064.87 340.39,-1119.26 247.02,-1157.72 114.98,-1157.72 21.61,-1119.26 21.61,-1064.87 114.98,-1026.41 247.02,-1026.41 340.39,-1064.87"/>
<polygon fill="none" stroke="black" stroke-width="3" points="344.39,-1062.2 344.39,-1121.93 247.82,-1161.71 114.18,-1161.71 17.61,-1121.93 17.61,-1062.2 114.18,-1022.42 247.82,-1022.42 344.39,-1062.2"/>
<text text-anchor="middle" x="181" y="-1111.87" font-family="Arial" font-size="24.00">Victim: 10.0.0.110</text>
<text text-anchor="middle" x="181" y="-1085.87" font-family="Arial" font-size="24.00">NETWORK DoS</text>
<text text-anchor="middle" x="181" y="-1059.87" font-family="Arial" font-size="24.00">ssdp</text>
</g>
<!-- NETWORK DoS
ssdp | ID: 55 -->
<g id="node2" class="node">
<title>NETWORK DoS
ssdp | ID: 55</title>
<g id="a_node2"><a xlink:title="ET DOS Possible SSDP Amplification Scan in Progress">
<polygon fill="salmon" stroke="black" stroke-width="3" points="337.54,-489.55 259.27,-538.53 102.73,-538.53 24.46,-489.55 102.73,-440.57 259.27,-440.57 337.54,-489.55"/>
<text text-anchor="middle" x="181" y="-496.35" font-family="Arial" font-size="24.00">NETWORK DoS</text>
<text text-anchor="middle" x="181" y="-470.35" font-family="Arial" font-size="24.00">ssdp | ID: 55</text>
</a>
</g>
</g>
<!-- NETWORK DoS
ssdp | ID: 55&#45;&gt;Victim: 10.0.0.110
NETWORK DoS
ssdp -->
<g id="edge1" class="edge">
<title>NETWORK DoS
ssdp | ID: 55&#45;&gt;Victim: 10.0.0.110
NETWORK DoS
ssdp</title>
<path fill="none" stroke="black" stroke-width="5" d="M181,-538.68C181,-571.69 181,-616.48 181,-655.96 181,-655.96 181,-655.96 181,-898.82 181,-936.03 181,-977.29 181,-1012.02"/>
<polygon fill="black" stroke="black" stroke-width="5" points="176.63,-1012.11 181,-1022.11 185.38,-1012.11 176.63,-1012.11"/>
</g>
<!-- VULNERABILTY DISCOVERY
ms&#45;sql&#45;s -->
<g id="node3" class="node">
<title>VULNERABILTY DISCOVERY
ms&#45;sql&#45;s</title>
<g id="a_node3"><a xlink:title="ET POLICY Suspicious inbound to MSSQL port 1433&#10;ET POLICY Suspicious inbound to Oracle SQL port 1521&#10;ET POLICY Suspicious inbound to mSQL port 4333">
<ellipse fill="yellow" stroke="black" stroke-width="3" cx="453" cy="-42.43" rx="241.25" ry="42.35"/>
<text text-anchor="middle" x="453" y="-49.23" font-family="Arial" font-size="24.00">VULNERABILTY DISCOVERY</text>
<text text-anchor="middle" x="453" y="-23.23" font-family="Arial" font-size="24.00">ms&#45;sql&#45;s</text>
</a>
</g>
</g>
<!-- SERVICE DISCOVERY
dsd -->
<g id="node4" class="node">
<title>SERVICE DISCOVERY
dsd</title>
<g id="a_node4"><a xlink:title="ET SCAN Potential VNC Scan 5900&#45;5920">
<ellipse fill="none" stroke="black" stroke-width="3" cx="810" cy="-223.28" rx="189.51" ry="42.35"/>
<text text-anchor="middle" x="810" y="-230.08" font-family="Arial" font-size="24.00">SERVICE DISCOVERY</text>
<text text-anchor="middle" x="810" y="-204.08" font-family="Arial" font-size="24.00">dsd</text>
</a>
</g>
</g>
<!-- VULNERABILTY DISCOVERY
ms&#45;sql&#45;s&#45;&gt;SERVICE DISCOVERY
dsd -->
<g id="edge2" class="edge">
<title>VULNERABILTY DISCOVERY
ms&#45;sql&#45;s&#45;&gt;SERVICE DISCOVERY
dsd</title>
<path fill="none" stroke="blue" stroke-width="5" d="M531.35,-82.68C588.62,-111.37 666.25,-150.26 725.02,-179.71"/>
<polygon fill="blue" stroke="blue" stroke-width="5" points="723.39,-183.78 734.29,-184.35 727.31,-175.96 723.39,-183.78"/>
<text text-anchor="start" x="705" y="-157.85" font-family="Arial" font-size="20.00" fill="blue"> start_next: 04/11/17, 13:19:15</text>
<text text-anchor="start" x="778.5" y="-137.85" font-family="Arial" font-size="20.00" fill="blue">gap: 1347sec</text>
<text text-anchor="start" x="709" y="-117.85" font-family="Arial" font-size="20.00" fill="blue">end_prev: 04/11/17, 12:56:48</text>
<text text-anchor="start" x="739.5" y="-97.85" font-family="Arial" font-weight="bold" font-size="20.00" fill="blue">Attacker: 10.0.254.31</text>
</g>
<!-- BRUTE FORCE CREDENTIALS
pop3 | ID: 382 -->
<g id="node11" class="node">
<title>BRUTE FORCE CREDENTIALS
pop3 | ID: 382</title>
<g id="a_node11"><a xlink:title="ET SCAN Rapid POP3 Connections &#45; Possible Brute Force Attack">
<polygon fill="none" stroke="black" stroke-width="3" points="362,-253.28 0,-253.28 0,-193.28 362,-193.28 362,-253.28"/>
<text text-anchor="middle" x="181" y="-230.08" font-family="Arial" font-size="24.00">BRUTE FORCE CREDENTIALS</text>
<text text-anchor="middle" x="181" y="-204.08" font-family="Arial" font-size="24.00">pop3 | ID: 382</text>
</a>
</g>
</g>
<!-- VULNERABILTY DISCOVERY
ms&#45;sql&#45;s&#45;&gt;BRUTE FORCE CREDENTIALS
pop3 | ID: 382 -->
<g id="edge12" class="edge">
<title>VULNERABILTY DISCOVERY
ms&#45;sql&#45;s&#45;&gt;BRUTE FORCE CREDENTIALS
pop3 | ID: 382</title>
<path fill="none" stroke="blue" stroke-width="5" d="M247.67,-64.73C218.78,-71.65 195.37,-80.78 185,-92.85 164.06,-117.23 165.26,-154.74 170.4,-183.11"/>
<polygon fill="blue" stroke="blue" stroke-width="5" points="166.15,-184.19 172.44,-193.11 174.73,-182.44 166.15,-184.19"/>
<text text-anchor="middle" x="316.5" y="-149.85" font-family="Arial" font-size="20.00" fill="blue">start_next: 04/11/17, 16:29:36</text>
<text text-anchor="middle" x="316.5" y="-127.85" font-family="Arial" font-size="20.00" fill="blue">gap: &#45;17sec</text>
<text text-anchor="middle" x="316.5" y="-105.85" font-family="Arial" font-size="20.00" fill="blue">end_prev: 04/11/17, 16:29:53</text>
</g>
<!-- VULNERABILTY DISCOVERY
postgresql -->
<g id="node5" class="node">
<title>VULNERABILTY DISCOVERY
postgresql</title>
<g id="a_node5"><a xlink:title="ET POLICY Suspicious inbound to Oracle SQL port 1521&#10;ET POLICY Suspicious inbound to mSQL port 4333&#10;ET POLICY Suspicious inbound to PostgreSQL port 5432">
<ellipse fill="none" stroke="black" stroke-width="3" cx="865" cy="-390.13" rx="241.25" ry="42.35"/>
<text text-anchor="middle" x="865" y="-396.93" font-family="Arial" font-size="24.00">VULNERABILTY DISCOVERY</text>
<text text-anchor="middle" x="865" y="-370.93" font-family="Arial" font-size="24.00">postgresql</text>
</a>
</g>
</g>
<!-- SERVICE DISCOVERY
dsd&#45;&gt;VULNERABILTY DISCOVERY
postgresql -->
<g id="edge3" class="edge">
<title>SERVICE DISCOVERY
dsd&#45;&gt;VULNERABILTY DISCOVERY
postgresql</title>
<path fill="none" stroke="blue" stroke-width="5" d="M823.88,-265.88C831.17,-287.75 840.18,-314.74 847.9,-337.89"/>
<polygon fill="blue" stroke="blue" stroke-width="5" points="843.81,-339.44 851.13,-347.55 852.11,-336.68 843.81,-339.44"/>
<text text-anchor="middle" x="979.5" y="-323.71" font-family="Arial" font-size="20.00" fill="blue">start_next: 04/11/17, 13:22:46</text>
<text text-anchor="middle" x="979.5" y="-301.71" font-family="Arial" font-size="20.00" fill="blue">gap: 211sec</text>
<text text-anchor="middle" x="979.5" y="-279.71" font-family="Arial" font-size="20.00" fill="blue">end_prev: 04/11/17, 13:19:15</text>
</g>
<!-- VULNERABILTY DISCOVERY
ncube&#45;lm -->
<g id="node6" class="node">
<title>VULNERABILTY DISCOVERY
ncube&#45;lm</title>
<g id="a_node6"><a xlink:title="ET POLICY Suspicious inbound to Oracle SQL port 1521">
<ellipse fill="none" stroke="black" stroke-width="3" cx="716" cy="-656.96" rx="241.25" ry="42.35"/>
<text text-anchor="middle" x="716" y="-663.76" font-family="Arial" font-size="24.00">VULNERABILTY DISCOVERY</text>
<text text-anchor="middle" x="716" y="-637.76" font-family="Arial" font-size="24.00">ncube&#45;lm</text>
</a>
</g>
</g>
<!-- VULNERABILTY DISCOVERY
postgresql&#45;&gt;VULNERABILTY DISCOVERY
ncube&#45;lm -->
<g id="edge4" class="edge">
<title>VULNERABILTY DISCOVERY
postgresql&#45;&gt;VULNERABILTY DISCOVERY
ncube&#45;lm</title>
<path fill="none" stroke="blue" stroke-width="5" d="M741.17,-426.61C736.29,-430.76 731.85,-435.39 728,-440.56 718.48,-453.35 716.31,-544.42 715.93,-603.98"/>
<polygon fill="blue" stroke="blue" stroke-width="5" points="711.56,-604.32 715.88,-614.35 720.31,-604.37 711.56,-604.32"/>
<text text-anchor="middle" x="859.5" y="-506.55" font-family="Arial" font-size="20.00" fill="blue">start_next: 04/11/17, 13:30:32</text>
<text text-anchor="middle" x="859.5" y="-484.55" font-family="Arial" font-size="20.00" fill="blue">gap: 463sec</text>
<text text-anchor="middle" x="859.5" y="-462.55" font-family="Arial" font-size="20.00" fill="blue">end_prev: 04/11/17, 13:22:49</text>
</g>
<!-- ARBITRARY CODE EXECUTION
ssdp | ID: 355 -->
<g id="node9" class="node">
<title>ARBITRARY CODE EXECUTION
ssdp | ID: 355</title>
<g id="a_node9"><a xlink:title="GPL MISC UPnP malformed advertisement">
<polygon fill="none" stroke="black" stroke-width="3" points="1190.5,-606.54 815.5,-606.54 815.5,-546.54 1190.5,-546.54 1190.5,-606.54"/>
<text text-anchor="middle" x="1003" y="-583.34" font-family="Arial" font-size="24.00">ARBITRARY CODE EXECUTION</text>
<text text-anchor="middle" x="1003" y="-557.34" font-family="Arial" font-size="24.00">ssdp | ID: 355</text>
</a>
</g>
</g>
<!-- VULNERABILTY DISCOVERY
postgresql&#45;&gt;ARBITRARY CODE EXECUTION
ssdp | ID: 355 -->
<g id="edge8" class="edge">
<title>VULNERABILTY DISCOVERY
postgresql&#45;&gt;ARBITRARY CODE EXECUTION
ssdp | ID: 355</title>
<path fill="none" stroke="blue" stroke-width="5" d="M979.97,-427.65C984.41,-431.53 988.47,-435.82 992,-440.56 1002.92,-455.21 1004.63,-501.82 1004.3,-536.19"/>
<polygon fill="blue" stroke="blue" stroke-width="5" points="999.92,-536.34 1004.13,-546.41 1008.67,-536.48 999.92,-536.34"/>
<text text-anchor="middle" x="1135.5" y="-506.55" font-family="Arial" font-size="20.00" fill="blue">start_next: 04/11/17, 14:01:53</text>
<text text-anchor="middle" x="1135.5" y="-484.55" font-family="Arial" font-size="20.00" fill="blue">gap: 52sec</text>
<text text-anchor="middle" x="1135.5" y="-462.55" font-family="Arial" font-size="20.00" fill="blue">end_prev: 04/11/17, 14:01:01</text>
</g>
<!-- SERVICE DISCOVERY
unknown -->
<g id="node7" class="node">
<title>SERVICE DISCOVERY
unknown</title>
<g id="a_node7"><a xlink:title="ET SCAN NMAP OS Detection Probe&#10;ET SCAN Potential VNC Scan 5900&#45;5920">
<ellipse fill="none" stroke="black" stroke-width="3" cx="722" cy="-897.82" rx="189.51" ry="42.35"/>
<text text-anchor="middle" x="722" y="-904.62" font-family="Arial" font-size="24.00">SERVICE DISCOVERY</text>
<text text-anchor="middle" x="722" y="-878.62" font-family="Arial" font-size="24.00">unknown</text>
</a>
</g>
</g>
<!-- VULNERABILTY DISCOVERY
ncube&#45;lm&#45;&gt;SERVICE DISCOVERY
unknown -->
<g id="edge5" class="edge">
<title>VULNERABILTY DISCOVERY
ncube&#45;lm&#45;&gt;SERVICE DISCOVERY
unknown</title>
<path fill="none" stroke="blue" stroke-width="5" d="M619.98,-696.11C616.62,-699.56 613.59,-703.31 611,-707.39 595.28,-732.16 600.5,-746 611,-773.39 622.08,-802.27 643.38,-828.64 664.39,-849.51"/>
<polygon fill="blue" stroke="blue" stroke-width="5" points="661.56,-852.86 671.79,-856.66 667.64,-846.57 661.56,-852.86"/>
<text text-anchor="middle" x="742.5" y="-757.39" font-family="Arial" font-size="20.00" fill="blue">start_next: 04/11/17, 13:34:52</text>
<text text-anchor="middle" x="742.5" y="-735.39" font-family="Arial" font-size="20.00" fill="blue">gap: 256sec</text>
<text text-anchor="middle" x="742.5" y="-713.39" font-family="Arial" font-size="20.00" fill="blue">end_prev: 04/11/17, 13:30:36</text>
</g>
<!-- SERVICE DISCOVERY
unknown&#45;&gt;VULNERABILTY DISCOVERY
ms&#45;sql&#45;s -->
<g id="edge11" class="edge">
<title>SERVICE DISCOVERY
unknown&#45;&gt;VULNERABILTY DISCOVERY
ms&#45;sql&#45;s</title>
<path fill="none" stroke="blue" stroke-width="5" d="M581.98,-869.07C516.62,-847.14 453,-808.54 453,-741.39 453,-222.28 453,-222.28 453,-222.28 453,-179.46 453,-130.88 453,-95.17"/>
<polygon fill="blue" stroke="blue" stroke-width="5" points="457.38,-94.99 453,-84.99 448.63,-94.99 457.38,-94.99"/>
<text text-anchor="middle" x="584.5" y="-506.55" font-family="Arial" font-size="20.00" fill="blue">start_next: 04/11/17, 16:29:04</text>
<text text-anchor="middle" x="584.5" y="-484.55" font-family="Arial" font-size="20.00" fill="blue">gap: 27sec</text>
<text text-anchor="middle" x="584.5" y="-462.55" font-family="Arial" font-size="20.00" fill="blue">end_prev: 04/11/17, 16:28:37</text>
</g>
<!-- SERVICE DISCOVERY
epmap -->
<g id="node8" class="node">
<title>SERVICE DISCOVERY
epmap</title>
<g id="a_node8"><a xlink:title="ET SCAN Behavioral Unusual Port 135 traffic Potential Scan or Infection">
<ellipse fill="none" stroke="black" stroke-width="3" cx="1086" cy="-1092.07" rx="189.51" ry="42.35"/>
<text text-anchor="middle" x="1086" y="-1098.87" font-family="Arial" font-size="24.00">SERVICE DISCOVERY</text>
<text text-anchor="middle" x="1086" y="-1072.87" font-family="Arial" font-size="24.00">epmap</text>
</a>
</g>
</g>
<!-- SERVICE DISCOVERY
unknown&#45;&gt;SERVICE DISCOVERY
epmap -->
<g id="edge6" class="edge">
<title>SERVICE DISCOVERY
unknown&#45;&gt;SERVICE DISCOVERY
epmap</title>
<path fill="none" stroke="blue" stroke-width="5" d="M794.79,-937.26C855.3,-969.22 941.36,-1014.68 1004.24,-1047.88"/>
<polygon fill="blue" stroke="blue" stroke-width="5" points="1002.45,-1051.89 1013.34,-1052.69 1006.54,-1044.15 1002.45,-1051.89"/>
<text text-anchor="middle" x="1068.5" y="-998.24" font-family="Arial" font-size="20.00" fill="blue">start_next: 04/11/17, 13:59:48</text>
<text text-anchor="middle" x="1068.5" y="-976.24" font-family="Arial" font-size="20.00" fill="blue">gap: 1484sec</text>
<text text-anchor="middle" x="1068.5" y="-954.24" font-family="Arial" font-size="20.00" fill="blue">end_prev: 04/11/17, 13:35:04</text>
</g>
<!-- SERVICE DISCOVERY
epmap&#45;&gt;VULNERABILTY DISCOVERY
postgresql -->
<g id="edge7" class="edge">
<title>SERVICE DISCOVERY
epmap&#45;&gt;VULNERABILTY DISCOVERY
postgresql</title>
<path fill="none" stroke="blue" stroke-width="5" d="M1160.7,-1052.93C1213.53,-1020.07 1275,-967.15 1275,-898.82 1275,-575.54 1275,-575.54 1275,-575.54 1275,-515.44 1308.13,-484.37 1267,-440.56 1253.89,-426.6 1179.13,-415.57 1097.57,-407.5"/>
<polygon fill="blue" stroke="blue" stroke-width="5" points="1097.97,-403.14 1087.6,-406.53 1097.13,-411.85 1097.97,-403.14"/>
<text text-anchor="middle" x="1406.5" y="-757.39" font-family="Arial" font-size="20.00" fill="blue">start_next: 04/11/17, 14:00:55</text>
<text text-anchor="middle" x="1406.5" y="-735.39" font-family="Arial" font-size="20.00" fill="blue">gap: 68sec</text>
<text text-anchor="middle" x="1406.5" y="-713.39" font-family="Arial" font-size="20.00" fill="blue">end_prev: 04/11/17, 13:59:48</text>
</g>
<!-- REMOTE SERVICE EXPLOIT
snmp | ID: 52 -->
<g id="node10" class="node">
<title>REMOTE SERVICE EXPLOIT
snmp | ID: 52</title>
<g id="a_node10"><a xlink:title="ET SNMP Samsung Printer SNMP Hardcode RW Community String">
<polygon fill="none" stroke="black" stroke-width="3" points="1216,-770.39 878,-770.39 878,-710.39 1216,-710.39 1216,-770.39"/>
<text text-anchor="middle" x="1047" y="-747.19" font-family="Arial" font-size="24.00">REMOTE SERVICE EXPLOIT</text>
<text text-anchor="middle" x="1047" y="-721.19" font-family="Arial" font-size="24.00">snmp | ID: 52</text>
</a>
</g>
</g>
<!-- ARBITRARY CODE EXECUTION
ssdp | ID: 355&#45;&gt;REMOTE SERVICE EXPLOIT
snmp | ID: 52 -->
<g id="edge9" class="edge">
<title>ARBITRARY CODE EXECUTION
ssdp | ID: 355&#45;&gt;REMOTE SERVICE EXPLOIT
snmp | ID: 52</title>
<path fill="none" stroke="blue" stroke-width="5" d="M998.11,-606.91C995.19,-632.45 994.2,-669.87 1007,-699.39 1007.31,-700.1 1007.63,-700.8 1007.98,-701.5"/>
<polygon fill="blue" stroke="blue" stroke-width="5" points="1004.36,-703.97 1013.32,-710.2 1011.82,-699.39 1004.36,-703.97"/>
<text text-anchor="middle" x="1138.5" y="-673.96" font-family="Arial" font-size="20.00" fill="blue">start_next: 04/11/17, 14:02:32</text>
<text text-anchor="middle" x="1138.5" y="-651.96" font-family="Arial" font-size="20.00" fill="blue">gap: 28sec</text>
<text text-anchor="middle" x="1138.5" y="-629.96" font-family="Arial" font-size="20.00" fill="blue">end_prev: 04/11/17, 14:02:03</text>
</g>
<!-- REMOTE SERVICE EXPLOIT
snmp | ID: 52&#45;&gt;SERVICE DISCOVERY
unknown -->
<g id="edge10" class="edge">
<title>REMOTE SERVICE EXPLOIT
snmp | ID: 52&#45;&gt;SERVICE DISCOVERY
unknown</title>
<path fill="none" stroke="blue" stroke-width="5" d="M986.25,-770.44C936.65,-794.16 865.89,-828.01 810.07,-854.7"/>
<polygon fill="blue" stroke="blue" stroke-width="5" points="808.03,-850.83 800.89,-859.09 811.8,-858.72 808.03,-850.83"/>
<text text-anchor="middle" x="1091.5" y="-831.39" font-family="Arial" font-size="20.00" fill="blue">start_next: 04/11/17, 16:28:37</text>
<text text-anchor="middle" x="1091.5" y="-809.39" font-family="Arial" font-size="20.00" fill="blue">gap: 8765sec</text>
<text text-anchor="middle" x="1091.5" y="-787.39" font-family="Arial" font-size="20.00" fill="blue">end_prev: 04/11/17, 14:02:32</text>
</g>
<!-- BRUTE FORCE CREDENTIALS
pop3 | ID: 382&#45;&gt;NETWORK DoS
ssdp | ID: 55 -->
<g id="edge13" class="edge">
<title>BRUTE FORCE CREDENTIALS
pop3 | ID: 382&#45;&gt;NETWORK DoS
ssdp | ID: 55</title>
<path fill="none" stroke="blue" stroke-width="5" d="M181,-253.32C181,-295.64 181,-375.19 181,-429.97"/>
<polygon fill="blue" stroke="blue" stroke-width="5" points="176.63,-430.24 181,-440.24 185.38,-430.24 176.63,-430.24"/>
<text text-anchor="middle" x="312.5" y="-323.71" font-family="Arial" font-size="20.00" fill="blue">start_next: 04/11/17, 16:30:56</text>
<text text-anchor="middle" x="312.5" y="-301.71" font-family="Arial" font-size="20.00" fill="blue">gap: 80sec</text>
<text text-anchor="middle" x="312.5" y="-279.71" font-family="Arial" font-size="20.00" fill="blue">end_prev: 04/11/17, 16:29:36</text>
</g>
</g>
</svg>
