<?xml version="1.0" encoding="UTF-8" standalone="no"?>
<!DOCTYPE svg PUBLIC "-//W3C//DTD SVG 1.1//EN"
 "http://www.w3.org/Graphics/SVG/1.1/DTD/svg11.dtd">
<!-- Generated by graphviz version 2.50.0 (0)
 -->
<!-- Title: NETWORKDOSssdp Pages: 1 -->
<svg width="1215pt" height="1672pt"
 viewBox="0.00 0.00 1215.00 1671.85" xmlns="http://www.w3.org/2000/svg" xmlns:xlink="http://www.w3.org/1999/xlink">
<g id="graph0" class="graph" transform="scale(1 1) rotate(0) translate(4 1667.85)">
<title>NETWORKDOSssdp</title>
<polygon fill="white" stroke="transparent" points="-4,4 -4,-1667.85 1211,-1667.85 1211,4 -4,4"/>
<!-- Victim: 10.0.0.167
NETWORK DoS
ssdp -->
<g id="node1" class="node">
<title>Victim: 10.0.0.167
NETWORK DoS
ssdp</title>
<polygon fill="salmon" stroke="black" stroke-width="3" points="1132.95,-1566.83 1132.95,-1621.22 1038.67,-1659.68 905.33,-1659.68 811.05,-1621.22 811.05,-1566.83 905.33,-1528.37 1038.67,-1528.37 1132.95,-1566.83"/>
<polygon fill="none" stroke="black" stroke-width="3" points="1136.95,-1564.15 1136.95,-1623.9 1039.46,-1663.67 904.54,-1663.67 807.05,-1623.9 807.05,-1564.15 904.54,-1524.38 1039.46,-1524.38 1136.95,-1564.15"/>
<text text-anchor="middle" x="972" y="-1613.82" font-family="Arial" font-size="24.00">Victim: 10.0.0.167</text>
<text text-anchor="middle" x="972" y="-1587.82" font-family="Arial" font-size="24.00">NETWORK DoS</text>
<text text-anchor="middle" x="972" y="-1561.82" font-family="Arial" font-size="24.00">ssdp</text>
</g>
<!-- NETWORK DoS
ssdp | ID: 55 -->
<g id="node2" class="node">
<title>NETWORK DoS
ssdp | ID: 55</title>
<g id="a_node2"><a xlink:title="ET DOS Possible SSDP Amplification Scan in Progress">
<polygon fill="salmon" stroke="black" stroke-width="3" points="1110.54,-798.4 1032.27,-847.38 875.73,-847.38 797.46,-798.4 875.73,-749.42 1032.27,-749.42 1110.54,-798.4"/>
<text text-anchor="middle" x="954" y="-805.2" font-family="Arial" font-size="24.00">NETWORK DoS</text>
<text text-anchor="middle" x="954" y="-779.2" font-family="Arial" font-size="24.00">ssdp | ID: 55</text>
</a>
</g>
</g>
<!-- NETWORK DoS
ssdp | ID: 55&#45;&gt;Victim: 10.0.0.167
NETWORK DoS
ssdp -->
<g id="edge1" class="edge">
<title>NETWORK DoS
ssdp | ID: 55&#45;&gt;Victim: 10.0.0.167
NETWORK DoS
ssdp</title>
<path fill="none" stroke="black" stroke-width="5" d="M961.43,-847.63C966.38,-883.98 972,-935.13 972,-980.24 972,-980.24 972,-980.24 972,-1394.21 972,-1433.65 972,-1477.49 972,-1513.94"/>
<polygon fill="black" stroke="black" stroke-width="5" points="967.63,-1514.02 972,-1524.02 976.38,-1514.02 967.63,-1514.02"/>
</g>
<!-- VULNERABILTY DISCOVERY
postgresql -->
<g id="node3" class="node">
<title>VULNERABILTY DISCOVERY
postgresql</title>
<g id="a_node3"><a xlink:title="ET POLICY Suspicious inbound to Oracle SQL port 1521&#10;ET POLICY Suspicious inbound to PostgreSQL port 5432">
<ellipse fill="yellow" stroke="black" stroke-width="3" cx="428" cy="-42.43" rx="241.25" ry="42.35"/>
<text text-anchor="middle" x="428" y="-49.23" font-family="Arial" font-size="24.00">VULNERABILTY DISCOVERY</text>
<text text-anchor="middle" x="428" y="-23.23" font-family="Arial" font-size="24.00">postgresql</text>
</a>
</g>
</g>
<!-- SERVICE DISCOVERY
ssh -->
<g id="node4" class="node">
<title>SERVICE DISCOVERY
ssh</title>
<g id="a_node4"><a xlink:title="ET SCAN Potential SSH Scan">
<ellipse fill="none" stroke="black" stroke-width="3" cx="428" cy="-223.28" rx="189.51" ry="42.35"/>
<text text-anchor="middle" x="428" y="-230.08" font-family="Arial" font-size="24.00">SERVICE DISCOVERY</text>
<text text-anchor="middle" x="428" y="-204.08" font-family="Arial" font-size="24.00">ssh</text>
</a>
</g>
</g>
<!-- VULNERABILTY DISCOVERY
postgresql&#45;&gt;SERVICE DISCOVERY
ssh -->
<g id="edge2" class="edge">
<title>VULNERABILTY DISCOVERY
postgresql&#45;&gt;SERVICE DISCOVERY
ssh</title>
<path fill="none" stroke="blue" stroke-width="5" d="M428,-84.91C428,-110.44 428,-143.37 428,-170.59"/>
<polygon fill="blue" stroke="blue" stroke-width="5" points="423.63,-170.71 428,-180.71 432.38,-170.71 423.63,-170.71"/>
<text text-anchor="start" x="428" y="-157.85" font-family="Arial" font-size="20.00" fill="blue"> start_next: 04/11/17, 13:34:49</text>
<text text-anchor="start" x="507.5" y="-137.85" font-family="Arial" font-size="20.00" fill="blue">gap: 859sec</text>
<text text-anchor="start" x="432" y="-117.85" font-family="Arial" font-size="20.00" fill="blue">end_prev: 04/11/17, 13:20:30</text>
<text text-anchor="start" x="462.5" y="-97.85" font-family="Arial" font-weight="bold" font-size="20.00" fill="blue">Attacker: 10.0.254.31</text>
</g>
<!-- VULNERABILTY DISCOVERY
ms&#45;sql&#45;s -->
<g id="node5" class="node">
<title>VULNERABILTY DISCOVERY
ms&#45;sql&#45;s</title>
<g id="a_node5"><a xlink:title="ET POLICY Suspicious inbound to mySQL port 3306&#10;ET POLICY Suspicious inbound to mSQL port 4333&#10;ET POLICY Suspicious inbound to MSSQL port 1433&#10;ET POLICY Suspicious inbound to Oracle SQL port 1521&#10;ET SCAN Nessus User Agent&#10;ET POLICY Suspicious inbound to PostgreSQL port 5432">
<ellipse fill="none" stroke="black" stroke-width="3" cx="428" cy="-390.13" rx="241.25" ry="42.35"/>
<text text-anchor="middle" x="428" y="-396.93" font-family="Arial" font-size="24.00">VULNERABILTY DISCOVERY</text>
<text text-anchor="middle" x="428" y="-370.93" font-family="Arial" font-size="24.00">ms&#45;sql&#45;s</text>
</a>
</g>
</g>
<!-- SERVICE DISCOVERY
ssh&#45;&gt;VULNERABILTY DISCOVERY
ms&#45;sql&#45;s -->
<g id="edge3" class="edge">
<title>SERVICE DISCOVERY
ssh&#45;&gt;VULNERABILTY DISCOVERY
ms&#45;sql&#45;s</title>
<path fill="none" stroke="blue" stroke-width="5" d="M428,-265.88C428,-287.55 428,-314.26 428,-337.27"/>
<polygon fill="blue" stroke="blue" stroke-width="5" points="423.63,-337.55 428,-347.55 432.38,-337.55 423.63,-337.55"/>
<text text-anchor="middle" x="559.5" y="-323.71" font-family="Arial" font-size="20.00" fill="blue">start_next: 04/11/17, 14:01:06</text>
<text text-anchor="middle" x="559.5" y="-301.71" font-family="Arial" font-size="20.00" fill="blue">gap: 1578sec</text>
<text text-anchor="middle" x="559.5" y="-279.71" font-family="Arial" font-size="20.00" fill="blue">end_prev: 04/11/17, 13:34:49</text>
</g>
<!-- ARBITRARY CODE EXECUTION
ssdp | ID: 355 -->
<g id="node6" class="node">
<title>ARBITRARY CODE EXECUTION
ssdp | ID: 355</title>
<g id="a_node6"><a xlink:title="GPL MISC UPnP malformed advertisement">
<polygon fill="none" stroke="black" stroke-width="3" points="470.5,-586.98 95.5,-586.98 95.5,-526.98 470.5,-526.98 470.5,-586.98"/>
<text text-anchor="middle" x="283" y="-563.78" font-family="Arial" font-size="24.00">ARBITRARY CODE EXECUTION</text>
<text text-anchor="middle" x="283" y="-537.78" font-family="Arial" font-size="24.00">ssdp | ID: 355</text>
</a>
</g>
</g>
<!-- VULNERABILTY DISCOVERY
ms&#45;sql&#45;s&#45;&gt;ARBITRARY CODE EXECUTION
ssdp | ID: 355 -->
<g id="edge4" class="edge">
<title>VULNERABILTY DISCOVERY
ms&#45;sql&#45;s&#45;&gt;ARBITRARY CODE EXECUTION
ssdp | ID: 355</title>
<path fill="none" stroke="blue" stroke-width="5" d="M428.59,-432.68C428.15,-460.96 425.72,-495.23 417,-506.56 412.98,-511.78 408.35,-516.45 403.28,-520.63"/>
<polygon fill="blue" stroke="blue" stroke-width="5" points="400.4,-517.32 394.97,-526.79 405.61,-524.34 400.4,-517.32"/>
<text text-anchor="middle" x="560.5" y="-490.56" font-family="Arial" font-size="20.00" fill="blue">start_next: 04/11/17, 14:03:08</text>
<text text-anchor="middle" x="560.5" y="-468.56" font-family="Arial" font-size="20.00" fill="blue">gap: 51sec</text>
<text text-anchor="middle" x="560.5" y="-446.56" font-family="Arial" font-size="20.00" fill="blue">end_prev: 04/11/17, 14:02:17</text>
</g>
<!-- VULNERABILTY DISCOVERY
ms&#45;sql&#45;s&#45;&gt;ARBITRARY CODE EXECUTION
ssdp | ID: 355 -->
<g id="edge12" class="edge">
<title>VULNERABILTY DISCOVERY
ms&#45;sql&#45;s&#45;&gt;ARBITRARY CODE EXECUTION
ssdp | ID: 355</title>
<path fill="none" stroke="blue" stroke-width="5" d="M218.68,-411.33C188.3,-418.35 163.66,-427.81 153,-440.56 134.18,-463.06 136.35,-482.41 153,-506.56 156.51,-511.65 160.62,-516.22 165.18,-520.32"/>
<polygon fill="blue" stroke="blue" stroke-width="5" points="162.7,-523.94 173.24,-526.78 168.18,-517.11 162.7,-523.94"/>
<text text-anchor="middle" x="284.5" y="-490.56" font-family="Arial" font-size="20.00" fill="blue">start_next: 04/11/17, 16:31:31</text>
<text text-anchor="middle" x="284.5" y="-468.56" font-family="Arial" font-size="20.00" fill="blue">gap: &#45;116sec</text>
<text text-anchor="middle" x="284.5" y="-446.56" font-family="Arial" font-size="20.00" fill="blue">end_prev: 04/11/17, 16:33:27</text>
</g>
<!-- SERVICE DISCOVERY
unknown -->
<g id="node13" class="node">
<title>SERVICE DISCOVERY
unknown</title>
<g id="a_node13"><a xlink:title="ET SCAN Potential SSH Scan&#10;ET SCAN Potential VNC Scan 5900&#45;5920">
<ellipse fill="none" stroke="black" stroke-width="3" cx="936" cy="-556.98" rx="189.51" ry="42.35"/>
<text text-anchor="middle" x="936" y="-563.78" font-family="Arial" font-size="24.00">SERVICE DISCOVERY</text>
<text text-anchor="middle" x="936" y="-537.78" font-family="Arial" font-size="24.00">unknown</text>
</a>
</g>
</g>
<!-- VULNERABILTY DISCOVERY
ms&#45;sql&#45;s&#45;&gt;SERVICE DISCOVERY
unknown -->
<g id="edge19" class="edge">
<title>VULNERABILTY DISCOVERY
ms&#45;sql&#45;s&#45;&gt;SERVICE DISCOVERY
unknown</title>
<path fill="none" stroke="blue" stroke-width="5" d="M614.97,-416.93C645.43,-423.28 676.37,-431.07 705,-440.56 759.54,-458.63 817.38,-487.54 861.53,-511.91"/>
<polygon fill="blue" stroke="blue" stroke-width="5" points="859.59,-515.83 870.46,-516.87 863.84,-508.19 859.59,-515.83"/>
<text text-anchor="middle" x="981.5" y="-490.56" font-family="Arial" font-size="20.00" fill="blue">start_next: 04/11/17, 18:01:39</text>
<text text-anchor="middle" x="981.5" y="-468.56" font-family="Arial" font-size="20.00" fill="blue">gap: 40sec</text>
<text text-anchor="middle" x="981.5" y="-446.56" font-family="Arial" font-size="20.00" fill="blue">end_prev: 04/11/17, 18:00:59</text>
</g>
<!-- REMOTE SERVICE EXPLOIT
snmp | ID: 52 -->
<g id="node7" class="node">
<title>REMOTE SERVICE EXPLOIT
snmp | ID: 52</title>
<g id="a_node7"><a xlink:title="ET SNMP Samsung Printer SNMP Hardcode RW Community String">
<polygon fill="none" stroke="black" stroke-width="3" points="473,-741.41 135,-741.41 135,-681.41 473,-681.41 473,-741.41"/>
<text text-anchor="middle" x="304" y="-718.21" font-family="Arial" font-size="24.00">REMOTE SERVICE EXPLOIT</text>
<text text-anchor="middle" x="304" y="-692.21" font-family="Arial" font-size="24.00">snmp | ID: 52</text>
</a>
</g>
</g>
<!-- ARBITRARY CODE EXECUTION
ssdp | ID: 355&#45;&gt;REMOTE SERVICE EXPLOIT
snmp | ID: 52 -->
<g id="edge5" class="edge">
<title>ARBITRARY CODE EXECUTION
ssdp | ID: 355&#45;&gt;REMOTE SERVICE EXPLOIT
snmp | ID: 52</title>
<path fill="none" stroke="blue" stroke-width="5" d="M130.3,-587.04C113.89,-592.89 100.98,-599.66 95,-607.41 77.09,-630.64 76.15,-650.93 95,-673.41 100.58,-680.06 111.19,-685.52 124.78,-690"/>
<polygon fill="blue" stroke="blue" stroke-width="5" points="123.81,-694.27 134.65,-692.94 126.31,-685.89 123.81,-694.27"/>
<text text-anchor="middle" x="226.5" y="-657.41" font-family="Arial" font-size="20.00" fill="blue">start_next: 04/11/17, 14:03:40</text>
<text text-anchor="middle" x="226.5" y="-635.41" font-family="Arial" font-size="20.00" fill="blue">gap: 22sec</text>
<text text-anchor="middle" x="226.5" y="-613.41" font-family="Arial" font-size="20.00" fill="blue">end_prev: 04/11/17, 14:03:18</text>
</g>
<!-- ARBITRARY CODE EXECUTION
ssdp | ID: 355&#45;&gt;REMOTE SERVICE EXPLOIT
snmp | ID: 52 -->
<g id="edge13" class="edge">
<title>ARBITRARY CODE EXECUTION
ssdp | ID: 355&#45;&gt;REMOTE SERVICE EXPLOIT
snmp | ID: 52</title>
<path fill="none" stroke="blue" stroke-width="5" d="M338.24,-586.99C344.97,-592.84 350.9,-599.63 355,-607.41 367.38,-630.93 368.27,-644.57 354.52,-672.31"/>
<polygon fill="blue" stroke="blue" stroke-width="5" points="350.53,-670.5 349.79,-681.39 358.29,-674.55 350.53,-670.5"/>
<text text-anchor="middle" x="497.5" y="-657.41" font-family="Arial" font-size="20.00" fill="blue">start_next: 04/11/17, 16:32:03</text>
<text text-anchor="middle" x="497.5" y="-635.41" font-family="Arial" font-size="20.00" fill="blue">gap: 22sec</text>
<text text-anchor="middle" x="497.5" y="-613.41" font-family="Arial" font-size="20.00" fill="blue">end_prev: 04/11/17, 16:31:41</text>
</g>
<!-- INFO DISCOVERY
xdmcp -->
<g id="node8" class="node">
<title>INFO DISCOVERY
xdmcp</title>
<g id="a_node8"><a xlink:title="GPL WEB_SERVER mod_gzip_status access&#10;GPL RPC xdmcp info query">
<ellipse fill="none" stroke="black" stroke-width="3" cx="426" cy="-897.82" rx="156.04" ry="42.35"/>
<text text-anchor="middle" x="426" y="-904.62" font-family="Arial" font-size="24.00">INFO DISCOVERY</text>
<text text-anchor="middle" x="426" y="-878.62" font-family="Arial" font-size="24.00">xdmcp</text>
</a>
</g>
</g>
<!-- REMOTE SERVICE EXPLOIT
snmp | ID: 52&#45;&gt;INFO DISCOVERY
xdmcp -->
<g id="edge6" class="edge">
<title>REMOTE SERVICE EXPLOIT
snmp | ID: 52&#45;&gt;INFO DISCOVERY
xdmcp</title>
<path fill="none" stroke="blue" stroke-width="5" d="M165.87,-741.5C161.58,-743.96 158.2,-746.59 156,-749.41 129.2,-783.73 126.37,-815.48 156,-847.39 164.19,-856.21 252.12,-853.45 264,-855.39 278.81,-857.81 294.24,-860.95 309.43,-864.4"/>
<polygon fill="blue" stroke="blue" stroke-width="5" points="308.65,-868.71 319.38,-866.72 310.63,-860.19 308.65,-868.71"/>
<text text-anchor="middle" x="287.5" y="-815.4" font-family="Arial" font-size="20.00" fill="blue">start_next: 04/11/17, 14:03:41</text>
<text text-anchor="middle" x="287.5" y="-793.4" font-family="Arial" font-size="20.00" fill="blue">gap: 1sec</text>
<text text-anchor="middle" x="287.5" y="-771.4" font-family="Arial" font-size="20.00" fill="blue">end_prev: 04/11/17, 14:03:40</text>
</g>
<!-- REMOTE SERVICE EXPLOIT
snmp | ID: 52&#45;&gt;INFO DISCOVERY
xdmcp -->
<g id="edge14" class="edge">
<title>REMOTE SERVICE EXPLOIT
snmp | ID: 52&#45;&gt;INFO DISCOVERY
xdmcp</title>
<path fill="none" stroke="blue" stroke-width="5" d="M409,-741.75C411.52,-744.11 413.87,-746.66 416,-749.41 427.32,-764 429.07,-808.8 428.43,-845.21"/>
<polygon fill="blue" stroke="blue" stroke-width="5" points="424.06,-845.13 428.2,-855.23 432.81,-845.34 424.06,-845.13"/>
<text text-anchor="middle" x="560.5" y="-815.4" font-family="Arial" font-size="20.00" fill="blue">start_next: 04/11/17, 16:32:05</text>
<text text-anchor="middle" x="560.5" y="-793.4" font-family="Arial" font-size="20.00" fill="blue">gap: 2sec</text>
<text text-anchor="middle" x="560.5" y="-771.4" font-family="Arial" font-size="20.00" fill="blue">end_prev: 04/11/17, 16:32:03</text>
</g>
<!-- ACCOUNT MANIPULATION
snmp | ID: 53 -->
<g id="node9" class="node">
<title>ACCOUNT MANIPULATION
snmp | ID: 53</title>
<g id="a_node9"><a xlink:title="GPL SNMP private access udp&#10;GPL SNMP public access udp">
<polygon fill="none" stroke="black" stroke-width="3" points="519,-1082.24 199,-1082.24 199,-1022.24 519,-1022.24 519,-1082.24"/>
<text text-anchor="middle" x="359" y="-1059.04" font-family="Arial" font-size="24.00">ACCOUNT MANIPULATION</text>
<text text-anchor="middle" x="359" y="-1033.04" font-family="Arial" font-size="24.00">snmp | ID: 53</text>
</a>
</g>
</g>
<!-- INFO DISCOVERY
xdmcp&#45;&gt;ACCOUNT MANIPULATION
snmp | ID: 53 -->
<g id="edge7" class="edge">
<title>INFO DISCOVERY
xdmcp&#45;&gt;ACCOUNT MANIPULATION
snmp | ID: 53</title>
<path fill="none" stroke="blue" stroke-width="5" d="M319.38,-928.94C301.03,-933.3 282.05,-937.3 264,-940.24 251.9,-942.21 162.35,-939.27 154,-948.24 134.02,-969.72 135.19,-991.74 154,-1014.24 160.2,-1021.67 172.77,-1027.6 188.76,-1032.35"/>
<polygon fill="blue" stroke="blue" stroke-width="5" points="187.76,-1036.61 198.55,-1035.01 190.05,-1028.17 187.76,-1036.61"/>
<text text-anchor="middle" x="285.5" y="-998.24" font-family="Arial" font-size="20.00" fill="blue">start_next: 04/11/17, 14:04:35</text>
<text text-anchor="middle" x="285.5" y="-976.24" font-family="Arial" font-size="20.00" fill="blue">gap: &#45;59sec</text>
<text text-anchor="middle" x="285.5" y="-954.24" font-family="Arial" font-size="20.00" fill="blue">end_prev: 04/11/17, 14:05:34</text>
</g>
<!-- INFO DISCOVERY
xdmcp&#45;&gt;ACCOUNT MANIPULATION
snmp | ID: 53 -->
<g id="edge15" class="edge">
<title>INFO DISCOVERY
xdmcp&#45;&gt;ACCOUNT MANIPULATION
snmp | ID: 53</title>
<path fill="none" stroke="blue" stroke-width="5" d="M425.34,-940.4C424.37,-964.48 422.08,-992.94 413.04,-1013.13"/>
<polygon fill="blue" stroke="blue" stroke-width="5" points="409.13,-1011.17 408.22,-1022.05 416.82,-1015.33 409.13,-1011.17"/>
<text text-anchor="middle" x="556.5" y="-998.24" font-family="Arial" font-size="20.00" fill="blue">start_next: 04/11/17, 16:33:04</text>
<text text-anchor="middle" x="556.5" y="-976.24" font-family="Arial" font-size="20.00" fill="blue">gap: &#45;25sec</text>
<text text-anchor="middle" x="556.5" y="-954.24" font-family="Arial" font-size="20.00" fill="blue">end_prev: 04/11/17, 16:33:28</text>
</g>
<!-- DATA DELIVERY
http | ID: 246 -->
<g id="node10" class="node">
<title>DATA DELIVERY
http | ID: 246</title>
<g id="a_node10"><a xlink:title="GPL WEB_SERVER perl post attempt">
<polygon fill="none" stroke="black" stroke-width="3" points="506.1,-1213.23 424.55,-1262.21 261.45,-1262.21 179.9,-1213.23 261.45,-1164.25 424.55,-1164.25 506.1,-1213.23"/>
<text text-anchor="middle" x="343" y="-1220.03" font-family="Arial" font-size="24.00">DATA DELIVERY</text>
<text text-anchor="middle" x="343" y="-1194.03" font-family="Arial" font-size="24.00">http | ID: 246</text>
</a>
</g>
</g>
<!-- ACCOUNT MANIPULATION
snmp | ID: 53&#45;&gt;DATA DELIVERY
http | ID: 246 -->
<g id="edge8" class="edge">
<title>ACCOUNT MANIPULATION
snmp | ID: 53&#45;&gt;DATA DELIVERY
http | ID: 246</title>
<path fill="none" stroke="blue" stroke-width="5" d="M198.75,-1062.67C163.68,-1068.15 133.54,-1076.76 122,-1090.24 102.92,-1112.53 103.98,-1133.09 122,-1156.24 133.41,-1170.9 166.16,-1182.34 203.07,-1190.95"/>
<polygon fill="blue" stroke="blue" stroke-width="5" points="202.34,-1195.26 213.05,-1193.19 204.25,-1186.73 202.34,-1195.26"/>
<text text-anchor="middle" x="253.5" y="-1140.24" font-family="Arial" font-size="20.00" fill="blue">start_next: 04/11/17, 14:05:37</text>
<text text-anchor="middle" x="253.5" y="-1118.24" font-family="Arial" font-size="20.00" fill="blue">gap: 33sec</text>
<text text-anchor="middle" x="253.5" y="-1096.24" font-family="Arial" font-size="20.00" fill="blue">end_prev: 04/11/17, 14:05:04</text>
</g>
<!-- ACCOUNT MANIPULATION
snmp | ID: 53&#45;&gt;DATA DELIVERY
http | ID: 246 -->
<g id="edge16" class="edge">
<title>ACCOUNT MANIPULATION
snmp | ID: 53&#45;&gt;DATA DELIVERY
http | ID: 246</title>
<path fill="none" stroke="blue" stroke-width="5" d="M379.11,-1082.45C380.26,-1085.01 381.25,-1087.63 382,-1090.24 389.27,-1115.7 390.57,-1126.17 382.16,-1154.21"/>
<polygon fill="blue" stroke="blue" stroke-width="5" points="377.92,-1153.13 379.08,-1163.98 386.26,-1155.76 377.92,-1153.13"/>
<text text-anchor="middle" x="520.5" y="-1140.24" font-family="Arial" font-size="20.00" fill="blue">start_next: 04/11/17, 16:33:31</text>
<text text-anchor="middle" x="520.5" y="-1118.24" font-family="Arial" font-size="20.00" fill="blue">gap: 15sec</text>
<text text-anchor="middle" x="520.5" y="-1096.24" font-family="Arial" font-size="20.00" fill="blue">end_prev: 04/11/17, 16:33:16</text>
</g>
<!-- DATA EXFILTRATION
http | ID: 26 -->
<g id="node11" class="node">
<title>DATA EXFILTRATION
http | ID: 26</title>
<g id="a_node11"><a xlink:title="ET WEB_SPECIFIC_APPS PHP&#45;CGI query string parameter vulnerability">
<polygon fill="none" stroke="black" stroke-width="3" points="443.88,-1393.21 341.44,-1442.19 136.56,-1442.19 34.12,-1393.21 136.56,-1344.23 341.44,-1344.23 443.88,-1393.21"/>
<text text-anchor="middle" x="239" y="-1400.01" font-family="Arial" font-size="24.00">DATA EXFILTRATION</text>
<text text-anchor="middle" x="239" y="-1374.01" font-family="Arial" font-size="24.00">http | ID: 26</text>
</a>
</g>
</g>
<!-- DATA DELIVERY
http | ID: 246&#45;&gt;DATA EXFILTRATION
http | ID: 26 -->
<g id="edge9" class="edge">
<title>DATA DELIVERY
http | ID: 246&#45;&gt;DATA EXFILTRATION
http | ID: 26</title>
<path fill="none" stroke="blue" stroke-width="5" d="M367.43,-1262.3C375.92,-1286.17 380.18,-1314.47 366,-1336.22 364.53,-1338.48 362.95,-1340.64 361.27,-1342.71"/>
<polygon fill="blue" stroke="blue" stroke-width="5" points="357.85,-1339.97 354.31,-1350.3 364.29,-1345.89 357.85,-1339.97"/>
<text text-anchor="middle" x="507.5" y="-1320.22" font-family="Arial" font-size="20.00" fill="blue">start_next: 04/11/17, 14:05:39</text>
<text text-anchor="middle" x="507.5" y="-1298.22" font-family="Arial" font-size="20.00" fill="blue">gap: 2sec</text>
<text text-anchor="middle" x="507.5" y="-1276.22" font-family="Arial" font-size="20.00" fill="blue">end_prev: 04/11/17, 14:05:37</text>
</g>
<!-- DATA DELIVERY
http | ID: 246&#45;&gt;DATA EXFILTRATION
http | ID: 26 -->
<g id="edge17" class="edge">
<title>DATA DELIVERY
http | ID: 246&#45;&gt;DATA EXFILTRATION
http | ID: 26</title>
<path fill="none" stroke="blue" stroke-width="5" d="M208.62,-1230.59C161.37,-1239.32 116.39,-1252.1 102,-1270.22 83.76,-1293.19 85.65,-1311.87 102,-1336.22 104.42,-1339.82 107.11,-1343.19 110.04,-1346.34"/>
<polygon fill="blue" stroke="blue" stroke-width="5" points="107.02,-1349.51 117.25,-1353.31 113.1,-1343.22 107.02,-1349.51"/>
<text text-anchor="middle" x="233.5" y="-1320.22" font-family="Arial" font-size="20.00" fill="blue">start_next: 04/11/17, 16:33:38</text>
<text text-anchor="middle" x="233.5" y="-1298.22" font-family="Arial" font-size="20.00" fill="blue">gap: 7sec</text>
<text text-anchor="middle" x="233.5" y="-1276.22" font-family="Arial" font-size="20.00" fill="blue">end_prev: 04/11/17, 16:33:31</text>
</g>
<!-- DATA EXFILTRATION
http | ID: 26&#45;&gt;VULNERABILTY DISCOVERY
ms&#45;sql&#45;s -->
<g id="edge18" class="edge">
<title>DATA EXFILTRATION
http | ID: 26&#45;&gt;VULNERABILTY DISCOVERY
ms&#45;sql&#45;s</title>
<path fill="none" stroke="blue" stroke-width="5" d="M118.8,-1352.56C59.28,-1324.6 0,-1280.19 0,-1214.23 0,-555.98 0,-555.98 0,-555.98 0,-475.68 66.05,-474.12 139,-440.56 162.17,-429.9 187.34,-421.52 212.83,-414.94"/>
<polygon fill="blue" stroke="blue" stroke-width="5" points="213.97,-419.16 222.62,-412.5 211.86,-410.67 213.97,-419.16"/>
<text text-anchor="middle" x="131.5" y="-914.82" font-family="Arial" font-size="20.00" fill="blue">start_next: 04/11/17, 18:00:55</text>
<text text-anchor="middle" x="131.5" y="-892.82" font-family="Arial" font-size="20.00" fill="blue">gap: 5237sec</text>
<text text-anchor="middle" x="131.5" y="-870.82" font-family="Arial" font-size="20.00" fill="blue">end_prev: 04/11/17, 16:33:38</text>
</g>
<!-- SERVICE DISCOVERY
spt&#45;automation -->
<g id="node12" class="node">
<title>SERVICE DISCOVERY
spt&#45;automation</title>
<g id="a_node12"><a xlink:title="ET SCAN Potential VNC Scan 5800&#45;5820&#10;ET SCAN Potential SSH Scan">
<ellipse fill="none" stroke="black" stroke-width="3" cx="520" cy="-1594.02" rx="189.51" ry="42.35"/>
<text text-anchor="middle" x="520" y="-1600.82" font-family="Arial" font-size="24.00">SERVICE DISCOVERY</text>
<text text-anchor="middle" x="520" y="-1574.82" font-family="Arial" font-size="24.00">spt&#45;automation</text>
</a>
</g>
</g>
<!-- DATA EXFILTRATION
http | ID: 26&#45;&gt;SERVICE DISCOVERY
spt&#45;automation -->
<g id="edge10" class="edge">
<title>DATA EXFILTRATION
http | ID: 26&#45;&gt;SERVICE DISCOVERY
spt&#45;automation</title>
<path fill="none" stroke="blue" stroke-width="5" d="M307.02,-1442.34C352.19,-1474.3 411.12,-1515.99 455.54,-1547.42"/>
<polygon fill="blue" stroke="blue" stroke-width="5" points="453.25,-1551.15 463.94,-1553.36 458.3,-1544.01 453.25,-1551.15"/>
<text text-anchor="middle" x="536.5" y="-1500.2" font-family="Arial" font-size="20.00" fill="blue">start_next: 04/11/17, 16:29:32</text>
<text text-anchor="middle" x="536.5" y="-1478.2" font-family="Arial" font-size="20.00" fill="blue">gap: 8632sec</text>
<text text-anchor="middle" x="536.5" y="-1456.2" font-family="Arial" font-size="20.00" fill="blue">end_prev: 04/11/17, 14:05:39</text>
</g>
<!-- SERVICE DISCOVERY
spt&#45;automation&#45;&gt;VULNERABILTY DISCOVERY
ms&#45;sql&#45;s -->
<g id="edge11" class="edge">
<title>SERVICE DISCOVERY
spt&#45;automation&#45;&gt;VULNERABILTY DISCOVERY
ms&#45;sql&#45;s</title>
<path fill="none" stroke="blue" stroke-width="5" d="M618.14,-1557.53C637.25,-1546.77 655.5,-1533.17 669,-1516.2 703.82,-1472.42 700,-1450.15 700,-1394.21 700,-555.98 700,-555.98 700,-555.98 700,-530.27 709.1,-459.76 692,-440.56 682.86,-430.3 663.95,-422.14 640.23,-415.66"/>
<polygon fill="blue" stroke="blue" stroke-width="5" points="641.32,-411.43 630.55,-413.17 639.14,-419.9 641.32,-411.43"/>
<text text-anchor="middle" x="831.5" y="-998.24" font-family="Arial" font-size="20.00" fill="blue">start_next: 04/11/17, 16:29:55</text>
<text text-anchor="middle" x="831.5" y="-976.24" font-family="Arial" font-size="20.00" fill="blue">gap: &#45;30sec</text>
<text text-anchor="middle" x="831.5" y="-954.24" font-family="Arial" font-size="20.00" fill="blue">end_prev: 04/11/17, 16:30:24</text>
</g>
<!-- SERVICE DISCOVERY
unknown&#45;&gt;NETWORK DoS
ssdp | ID: 55 -->
<g id="edge20" class="edge">
<title>SERVICE DISCOVERY
unknown&#45;&gt;NETWORK DoS
ssdp | ID: 55</title>
<path fill="none" stroke="blue" stroke-width="5" d="M939.11,-599.41C942.01,-637.95 946.36,-695.75 949.61,-738.97"/>
<polygon fill="blue" stroke="blue" stroke-width="5" points="945.25,-739.42 950.37,-749.06 953.98,-738.76 945.25,-739.42"/>
<text text-anchor="middle" x="1075.5" y="-657.41" font-family="Arial" font-size="20.00" fill="blue">start_next: 04/11/17, 18:02:30</text>
<text text-anchor="middle" x="1075.5" y="-635.41" font-family="Arial" font-size="20.00" fill="blue">gap: &#45;57sec</text>
<text text-anchor="middle" x="1075.5" y="-613.41" font-family="Arial" font-size="20.00" fill="blue">end_prev: 04/11/17, 18:03:27</text>
</g>
</g>
</svg>
