<?xml version="1.0" encoding="UTF-8" standalone="no"?>
<!DOCTYPE svg PUBLIC "-//W3C//DTD SVG 1.1//EN"
 "http://www.w3.org/Graphics/SVG/1.1/DTD/svg11.dtd">
<!-- Generated by graphviz version 2.50.0 (0)
 -->
<!-- Title: NETWORKDOSssdp Pages: 1 -->
<svg width="1411pt" height="1369pt"
 viewBox="0.00 0.00 1411.44 1368.99" xmlns="http://www.w3.org/2000/svg" xmlns:xlink="http://www.w3.org/1999/xlink">
<g id="graph0" class="graph" transform="scale(1 1) rotate(0) translate(4 1364.99)">
<title>NETWORKDOSssdp</title>
<polygon fill="white" stroke="transparent" points="-4,4 -4,-1364.99 1407.44,-1364.99 1407.44,4 -4,4"/>
<!-- Victim: 10.0.99.225
NETWORK DoS
ssdp -->
<g id="node1" class="node">
<title>Victim: 10.0.99.225
NETWORK DoS
ssdp</title>
<polygon fill="salmon" stroke="black" stroke-width="3" points="346.83,-1263.98 346.83,-1318.37 246.43,-1356.83 104.45,-1356.83 4.06,-1318.37 4.06,-1263.98 104.45,-1225.52 246.43,-1225.52 346.83,-1263.98"/>
<polygon fill="none" stroke="black" stroke-width="3" points="350.83,-1261.23 350.83,-1321.11 247.17,-1360.82 103.71,-1360.82 0.06,-1321.11 0.06,-1261.23 103.71,-1221.53 247.17,-1221.53 350.83,-1261.23"/>
<text text-anchor="middle" x="175.44" y="-1310.97" font-family="Arial" font-size="24.00">Victim: 10.0.99.225</text>
<text text-anchor="middle" x="175.44" y="-1284.97" font-family="Arial" font-size="24.00">NETWORK DoS</text>
<text text-anchor="middle" x="175.44" y="-1258.97" font-family="Arial" font-size="24.00">ssdp</text>
</g>
<!-- NETWORK DoS
ssdp | ID: 231 -->
<g id="node2" class="node">
<title>NETWORK DoS
ssdp | ID: 231</title>
<g id="a_node2"><a xlink:title="ET DOS Possible SSDP Amplification Scan in Progress">
<polygon fill="salmon" stroke="black" stroke-width="3" points="331.98,-470.7 253.71,-519.68 97.17,-519.68 18.91,-470.7 97.17,-421.72 253.71,-421.72 331.98,-470.7"/>
<text text-anchor="middle" x="175.44" y="-477.5" font-family="Arial" font-size="24.00">NETWORK DoS</text>
<text text-anchor="middle" x="175.44" y="-451.5" font-family="Arial" font-size="24.00">ssdp | ID: 231</text>
</a>
</g>
</g>
<!-- NETWORK DoS
ssdp | ID: 231&#45;&gt;Victim: 10.0.99.225
NETWORK DoS
ssdp -->
<g id="edge1" class="edge">
<title>NETWORK DoS
ssdp | ID: 231&#45;&gt;Victim: 10.0.99.225
NETWORK DoS
ssdp</title>
<path fill="none" stroke="black" stroke-width="5" d="M175.44,-520.05C175.44,-556.47 175.44,-607.64 175.44,-652.54 175.44,-652.54 175.44,-652.54 175.44,-1097.92 175.44,-1135.14 175.44,-1176.4 175.44,-1211.13"/>
<polygon fill="black" stroke="black" stroke-width="5" points="171.07,-1211.21 175.44,-1221.21 179.82,-1211.21 171.07,-1211.21"/>
</g>
<!-- VULNERABILTY DISCOVERY
ms&#45;sql&#45;s -->
<g id="node3" class="node">
<title>VULNERABILTY DISCOVERY
ms&#45;sql&#45;s</title>
<g id="a_node3"><a xlink:title="ET POLICY Suspicious inbound to mySQL port 3306&#10;ET POLICY Suspicious inbound to mSQL port 4333&#10;ET POLICY Suspicious inbound to MSSQL port 1433&#10;ET POLICY Suspicious inbound to Oracle SQL port 1521&#10;ET POLICY Suspicious inbound to PostgreSQL port 5432">
<ellipse fill="yellow" stroke="black" stroke-width="3" cx="450.44" cy="-42.43" rx="241.25" ry="42.35"/>
<text text-anchor="middle" x="450.44" y="-49.23" font-family="Arial" font-size="24.00">VULNERABILTY DISCOVERY</text>
<text text-anchor="middle" x="450.44" y="-23.23" font-family="Arial" font-size="24.00">ms&#45;sql&#45;s</text>
</a>
</g>
</g>
<!-- SERVICE DISCOVERY
unknown -->
<g id="node4" class="node">
<title>SERVICE DISCOVERY
unknown</title>
<g id="a_node4"><a xlink:title="ET SCAN Potential VNC Scan 5800&#45;5820&#10;ET SCAN Potential SSH Scan&#10;ET SCAN Potential VNC Scan 5900&#45;5920">
<ellipse fill="none" stroke="black" stroke-width="3" cx="450.44" cy="-223.28" rx="189.51" ry="42.35"/>
<text text-anchor="middle" x="450.44" y="-230.08" font-family="Arial" font-size="24.00">SERVICE DISCOVERY</text>
<text text-anchor="middle" x="450.44" y="-204.08" font-family="Arial" font-size="24.00">unknown</text>
</a>
</g>
</g>
<!-- VULNERABILTY DISCOVERY
ms&#45;sql&#45;s&#45;&gt;SERVICE DISCOVERY
unknown -->
<g id="edge2" class="edge">
<title>VULNERABILTY DISCOVERY
ms&#45;sql&#45;s&#45;&gt;SERVICE DISCOVERY
unknown</title>
<path fill="none" stroke="blue" stroke-width="5" d="M450.44,-84.91C450.44,-110.44 450.44,-143.37 450.44,-170.59"/>
<polygon fill="blue" stroke="blue" stroke-width="5" points="446.07,-170.71 450.44,-180.71 454.82,-170.71 446.07,-170.71"/>
<text text-anchor="start" x="450.44" y="-157.85" font-family="Arial" font-size="20.00" fill="blue"> start_next: 04/11/17, 14:08:51</text>
<text text-anchor="start" x="531.94" y="-137.85" font-family="Arial" font-size="20.00" fill="blue">gap: &#45;31sec</text>
<text text-anchor="start" x="454.44" y="-117.85" font-family="Arial" font-size="20.00" fill="blue">end_prev: 04/11/17, 14:09:22</text>
<text text-anchor="start" x="484.94" y="-97.85" font-family="Arial" font-weight="bold" font-size="20.00" fill="blue">Attacker: 10.0.254.31</text>
</g>
<!-- SERVICE DISCOVERY
unknown&#45;&gt;NETWORK DoS
ssdp | ID: 231 -->
<g id="edge15" class="edge">
<title>SERVICE DISCOVERY
unknown&#45;&gt;NETWORK DoS
ssdp | ID: 231</title>
<path fill="none" stroke="blue" stroke-width="5" d="M273.99,-238.77C230.59,-246.11 192.49,-257.14 178.44,-273.71 146.7,-311.15 149.78,-368.63 158.51,-411.68"/>
<polygon fill="blue" stroke="blue" stroke-width="5" points="154.24,-412.62 160.65,-421.46 162.79,-410.76 154.24,-412.62"/>
<text text-anchor="middle" x="309.94" y="-323.71" font-family="Arial" font-size="20.00" fill="blue">start_next: 04/11/17, 21:02:41</text>
<text text-anchor="middle" x="309.94" y="-301.71" font-family="Arial" font-size="20.00" fill="blue">gap: 23sec</text>
<text text-anchor="middle" x="309.94" y="-279.71" font-family="Arial" font-size="20.00" fill="blue">end_prev: 04/11/17, 21:02:18</text>
</g>
<!-- ARBITRARY CODE EXECUTION
ssdp | ID: 355 -->
<g id="node5" class="node">
<title>ARBITRARY CODE EXECUTION
ssdp | ID: 355</title>
<g id="a_node5"><a xlink:title="GPL MISC UPnP malformed advertisement">
<polygon fill="none" stroke="black" stroke-width="3" points="625.94,-410.71 250.94,-410.71 250.94,-350.71 625.94,-350.71 625.94,-410.71"/>
<text text-anchor="middle" x="438.44" y="-387.51" font-family="Arial" font-size="24.00">ARBITRARY CODE EXECUTION</text>
<text text-anchor="middle" x="438.44" y="-361.51" font-family="Arial" font-size="24.00">ssdp | ID: 355</text>
</a>
</g>
</g>
<!-- SERVICE DISCOVERY
unknown&#45;&gt;ARBITRARY CODE EXECUTION
ssdp | ID: 355 -->
<g id="edge3" class="edge">
<title>SERVICE DISCOVERY
unknown&#45;&gt;ARBITRARY CODE EXECUTION
ssdp | ID: 355</title>
<path fill="none" stroke="blue" stroke-width="5" d="M447.23,-265.93C445.44,-289.01 443.24,-317.55 441.49,-340.27"/>
<polygon fill="blue" stroke="blue" stroke-width="5" points="437.12,-339.95 440.72,-350.25 445.85,-340.62 437.12,-339.95"/>
<text text-anchor="middle" x="578.94" y="-323.71" font-family="Arial" font-size="20.00" fill="blue">start_next: 04/11/17, 14:10:13</text>
<text text-anchor="middle" x="578.94" y="-301.71" font-family="Arial" font-size="20.00" fill="blue">gap: &#45;44sec</text>
<text text-anchor="middle" x="578.94" y="-279.71" font-family="Arial" font-size="20.00" fill="blue">end_prev: 04/11/17, 14:10:57</text>
</g>
<!-- INFO DISCOVERY
xdmcp -->
<g id="node6" class="node">
<title>INFO DISCOVERY
xdmcp</title>
<g id="a_node6"><a xlink:title="GPL WEB_SERVER mod_gzip_status access&#10;GPL RPC xdmcp info query">
<ellipse fill="none" stroke="black" stroke-width="3" cx="706.44" cy="-570.11" rx="156.04" ry="42.35"/>
<text text-anchor="middle" x="706.44" y="-576.91" font-family="Arial" font-size="24.00">INFO DISCOVERY</text>
<text text-anchor="middle" x="706.44" y="-550.91" font-family="Arial" font-size="24.00">xdmcp</text>
</a>
</g>
</g>
<!-- ARBITRARY CODE EXECUTION
ssdp | ID: 355&#45;&gt;INFO DISCOVERY
xdmcp -->
<g id="edge4" class="edge">
<title>ARBITRARY CODE EXECUTION
ssdp | ID: 355&#45;&gt;INFO DISCOVERY
xdmcp</title>
<path fill="none" stroke="blue" stroke-width="5" d="M425.9,-410.94C414.9,-441.66 404.24,-489.59 429.44,-519.69 445.57,-538.95 493.47,-550.71 544.99,-557.89"/>
<polygon fill="blue" stroke="blue" stroke-width="5" points="544.5,-562.24 554.99,-559.22 545.66,-553.57 544.5,-562.24"/>
<text text-anchor="middle" x="560.94" y="-487.7" font-family="Arial" font-size="20.00" fill="blue">start_next: 04/11/17, 14:10:45</text>
<text text-anchor="middle" x="560.94" y="-465.7" font-family="Arial" font-size="20.00" fill="blue">gap: 21sec</text>
<text text-anchor="middle" x="560.94" y="-443.7" font-family="Arial" font-size="20.00" fill="blue">end_prev: 04/11/17, 14:10:23</text>
</g>
<!-- ARBITRARY CODE EXECUTION
ssdp | ID: 355&#45;&gt;INFO DISCOVERY
xdmcp -->
<g id="edge13" class="edge">
<title>ARBITRARY CODE EXECUTION
ssdp | ID: 355&#45;&gt;INFO DISCOVERY
xdmcp</title>
<path fill="none" stroke="blue" stroke-width="5" d="M626.18,-396.64C654.98,-402.45 678.72,-410.51 689.44,-421.71 696.1,-428.66 700.78,-477.75 703.52,-517.4"/>
<polygon fill="blue" stroke="blue" stroke-width="5" points="699.16,-517.82 704.19,-527.51 707.89,-517.24 699.16,-517.82"/>
<text text-anchor="middle" x="835.94" y="-487.7" font-family="Arial" font-size="20.00" fill="blue">start_next: 04/11/17, 20:58:50</text>
<text text-anchor="middle" x="835.94" y="-465.7" font-family="Arial" font-size="20.00" fill="blue">gap: 6963sec</text>
<text text-anchor="middle" x="835.94" y="-443.7" font-family="Arial" font-size="20.00" fill="blue">end_prev: 04/11/17, 19:02:47</text>
</g>
<!-- INFO DISCOVERY
xdmcp&#45;&gt;SERVICE DISCOVERY
unknown -->
<g id="edge14" class="edge">
<title>INFO DISCOVERY
xdmcp&#45;&gt;SERVICE DISCOVERY
unknown</title>
<path fill="none" stroke="blue" stroke-width="5" d="M854.97,-556.91C903.7,-549.6 949.3,-538.01 964.44,-519.69 992.19,-486.12 986.11,-459.48 964.44,-421.71 899.45,-308.39 757.37,-259.79 639.03,-239.11"/>
<polygon fill="blue" stroke="blue" stroke-width="5" points="639.7,-234.79 629.11,-237.43 638.24,-243.41 639.7,-234.79"/>
<text text-anchor="middle" x="1086.94" y="-397.71" font-family="Arial" font-size="20.00" fill="blue">start_next: 04/11/17, 21:01:21</text>
<text text-anchor="middle" x="1086.94" y="-375.71" font-family="Arial" font-size="20.00" fill="blue">gap: &#45;184sec</text>
<text text-anchor="middle" x="1086.94" y="-353.71" font-family="Arial" font-size="20.00" fill="blue">end_prev: 04/11/17, 21:04:25</text>
</g>
<!-- DATA DELIVERY
http | ID: 246 -->
<g id="node7" class="node">
<title>DATA DELIVERY
http | ID: 246</title>
<g id="a_node7"><a xlink:title="GPL WEB_SERVER perl post attempt">
<polygon fill="none" stroke="black" stroke-width="3" points="925.54,-743.53 843.99,-792.51 680.89,-792.51 599.34,-743.53 680.89,-694.55 843.99,-694.55 925.54,-743.53"/>
<text text-anchor="middle" x="762.44" y="-750.33" font-family="Arial" font-size="24.00">DATA DELIVERY</text>
<text text-anchor="middle" x="762.44" y="-724.33" font-family="Arial" font-size="24.00">http | ID: 246</text>
</a>
</g>
</g>
<!-- INFO DISCOVERY
xdmcp&#45;&gt;DATA DELIVERY
http | ID: 246 -->
<g id="edge5" class="edge">
<title>INFO DISCOVERY
xdmcp&#45;&gt;DATA DELIVERY
http | ID: 246</title>
<path fill="none" stroke="blue" stroke-width="5" d="M720,-612.61C727.08,-634.29 735.86,-661.17 743.6,-684.85"/>
<polygon fill="blue" stroke="blue" stroke-width="5" points="739.47,-686.29 746.73,-694.43 747.78,-683.57 739.47,-686.29"/>
<text text-anchor="middle" x="874.94" y="-670.54" font-family="Arial" font-size="20.00" fill="blue">start_next: 04/11/17, 14:12:05</text>
<text text-anchor="middle" x="874.94" y="-648.54" font-family="Arial" font-size="20.00" fill="blue">gap: 2sec</text>
<text text-anchor="middle" x="874.94" y="-626.54" font-family="Arial" font-size="20.00" fill="blue">end_prev: 04/11/17, 14:12:04</text>
</g>
<!-- DATA EXFILTRATION
http | ID: 26 -->
<g id="node8" class="node">
<title>DATA EXFILTRATION
http | ID: 26</title>
<g id="a_node8"><a xlink:title="ET WEB_SPECIFIC_APPS PHP&#45;CGI query string parameter vulnerability">
<polygon fill="none" stroke="black" stroke-width="3" points="1338.32,-923.51 1235.88,-972.49 1031,-972.49 928.56,-923.51 1031,-874.53 1235.88,-874.53 1338.32,-923.51"/>
<text text-anchor="middle" x="1133.44" y="-930.31" font-family="Arial" font-size="24.00">DATA EXFILTRATION</text>
<text text-anchor="middle" x="1133.44" y="-904.31" font-family="Arial" font-size="24.00">http | ID: 26</text>
</a>
</g>
</g>
<!-- DATA DELIVERY
http | ID: 246&#45;&gt;DATA EXFILTRATION
http | ID: 26 -->
<g id="edge6" class="edge">
<title>DATA DELIVERY
http | ID: 246&#45;&gt;DATA EXFILTRATION
http | ID: 26</title>
<path fill="none" stroke="blue" stroke-width="5" d="M788.31,-792.78C805.01,-819.03 829.26,-849.53 859.44,-866.52 884.04,-880.36 894.65,-869.6 922.44,-874.52 944.03,-878.33 966.75,-882.91 988.95,-887.69"/>
<polygon fill="blue" stroke="blue" stroke-width="5" points="988.06,-891.97 998.76,-889.82 989.92,-883.42 988.06,-891.97"/>
<text text-anchor="middle" x="990.94" y="-850.52" font-family="Arial" font-size="20.00" fill="blue">start_next: 04/11/17, 14:12:08</text>
<text text-anchor="middle" x="990.94" y="-828.52" font-family="Arial" font-size="20.00" fill="blue">gap: 2sec</text>
<text text-anchor="middle" x="990.94" y="-806.52" font-family="Arial" font-size="20.00" fill="blue">end_prev: 04/11/17, 14:12:05</text>
</g>
<!-- DATA DELIVERY
http | ID: 246&#45;&gt;DATA EXFILTRATION
http | ID: 26 -->
<g id="edge9" class="edge">
<title>DATA DELIVERY
http | ID: 246&#45;&gt;DATA EXFILTRATION
http | ID: 26</title>
<path fill="none" stroke="blue" stroke-width="5" d="M914.32,-750.33C998.18,-756.9 1090.99,-770.87 1119.44,-800.52 1135.44,-817.19 1140.4,-841.62 1140.8,-864.24"/>
<polygon fill="blue" stroke="blue" stroke-width="5" points="1136.43,-864.43 1140.69,-874.47 1145.17,-864.52 1136.43,-864.43"/>
<text text-anchor="middle" x="1271.94" y="-850.52" font-family="Arial" font-size="20.00" fill="blue">start_next: 04/11/17, 18:04:50</text>
<text text-anchor="middle" x="1271.94" y="-828.52" font-family="Arial" font-size="20.00" fill="blue">gap: 4sec</text>
<text text-anchor="middle" x="1271.94" y="-806.52" font-family="Arial" font-size="20.00" fill="blue">end_prev: 04/11/17, 18:04:46</text>
</g>
<!-- INFO DISCOVERY
http -->
<g id="node9" class="node">
<title>INFO DISCOVERY
http</title>
<g id="a_node9"><a xlink:title="GPL WEB_SERVER mod_gzip_status access">
<ellipse fill="none" stroke="black" stroke-width="3" cx="688.44" cy="-1096.92" rx="156.04" ry="42.35"/>
<text text-anchor="middle" x="688.44" y="-1103.72" font-family="Arial" font-size="24.00">INFO DISCOVERY</text>
<text text-anchor="middle" x="688.44" y="-1077.72" font-family="Arial" font-size="24.00">http</text>
</a>
</g>
</g>
<!-- DATA EXFILTRATION
http | ID: 26&#45;&gt;INFO DISCOVERY
http -->
<g id="edge7" class="edge">
<title>DATA EXFILTRATION
http | ID: 26&#45;&gt;INFO DISCOVERY
http</title>
<path fill="none" stroke="blue" stroke-width="5" d="M999.4,-957.47C973.95,-963.03 947.46,-968.33 922.44,-972.5 889.37,-978 878.73,-968.47 847.44,-980.5 806.96,-996.06 767.47,-1024.64 737.98,-1049.46"/>
<polygon fill="blue" stroke="blue" stroke-width="5" points="735.07,-1046.19 730.31,-1056.01 740.76,-1052.84 735.07,-1046.19"/>
<text text-anchor="middle" x="978.94" y="-1030.5" font-family="Arial" font-size="20.00" fill="blue">start_next: 04/11/17, 18:04:44</text>
<text text-anchor="middle" x="978.94" y="-1008.5" font-family="Arial" font-size="20.00" fill="blue">gap: 13956sec</text>
<text text-anchor="middle" x="978.94" y="-986.5" font-family="Arial" font-size="20.00" fill="blue">end_prev: 04/11/17, 14:12:08</text>
</g>
<!-- SERVICE DISCOVERY
ssh -->
<g id="node10" class="node">
<title>SERVICE DISCOVERY
ssh</title>
<g id="a_node10"><a xlink:title="ET SCAN Potential VNC Scan 5800&#45;5820&#10;ET SCAN Potential SSH Scan&#10;ET SCAN Potential VNC Scan 5900&#45;5920">
<ellipse fill="none" stroke="black" stroke-width="3" cx="1102.44" cy="-1096.92" rx="189.51" ry="42.35"/>
<text text-anchor="middle" x="1102.44" y="-1103.72" font-family="Arial" font-size="24.00">SERVICE DISCOVERY</text>
<text text-anchor="middle" x="1102.44" y="-1077.72" font-family="Arial" font-size="24.00">ssh</text>
</a>
</g>
</g>
<!-- DATA EXFILTRATION
http | ID: 26&#45;&gt;SERVICE DISCOVERY
ssh -->
<g id="edge10" class="edge">
<title>DATA EXFILTRATION
http | ID: 26&#45;&gt;SERVICE DISCOVERY
ssh</title>
<path fill="none" stroke="blue" stroke-width="5" d="M1124.72,-972.71C1120.69,-995.04 1115.88,-1021.6 1111.77,-1044.33"/>
<polygon fill="blue" stroke="blue" stroke-width="5" points="1107.41,-1043.85 1109.94,-1054.47 1116.02,-1045.41 1107.41,-1043.85"/>
<text text-anchor="middle" x="1253.94" y="-1030.5" font-family="Arial" font-size="20.00" fill="blue">start_next: 04/11/17, 18:56:34</text>
<text text-anchor="middle" x="1253.94" y="-1008.5" font-family="Arial" font-size="20.00" fill="blue">gap: 3104sec</text>
<text text-anchor="middle" x="1253.94" y="-986.5" font-family="Arial" font-size="20.00" fill="blue">end_prev: 04/11/17, 18:04:50</text>
</g>
<!-- INFO DISCOVERY
http&#45;&gt;DATA DELIVERY
http | ID: 246 -->
<g id="edge8" class="edge">
<title>INFO DISCOVERY
http&#45;&gt;DATA DELIVERY
http | ID: 246</title>
<path fill="none" stroke="blue" stroke-width="5" d="M672.99,-1054.39C658.52,-1009.02 641.94,-934.79 662.44,-874.52 671.63,-847.51 688.94,-821.73 706.62,-800.35"/>
<polygon fill="blue" stroke="blue" stroke-width="5" points="709.99,-803.14 713.13,-792.68 703.32,-797.48 709.99,-803.14"/>
<text text-anchor="middle" x="793.94" y="-940.51" font-family="Arial" font-size="20.00" fill="blue">start_next: 04/11/17, 18:04:46</text>
<text text-anchor="middle" x="793.94" y="-918.51" font-family="Arial" font-size="20.00" fill="blue">gap: 2sec</text>
<text text-anchor="middle" x="793.94" y="-896.51" font-family="Arial" font-size="20.00" fill="blue">end_prev: 04/11/17, 18:04:44</text>
</g>
<!-- VULNERABILTY DISCOVERY
postgresql -->
<g id="node11" class="node">
<title>VULNERABILTY DISCOVERY
postgresql</title>
<g id="a_node11"><a xlink:title="ET POLICY Suspicious inbound to mySQL port 3306&#10;ET POLICY Suspicious inbound to mSQL port 4333&#10;ET POLICY Suspicious inbound to MSSQL port 1433&#10;ET POLICY Suspicious inbound to Oracle SQL port 1521&#10;ET SCAN Nessus User Agent&#10;ET POLICY Suspicious inbound to PostgreSQL port 5432">
<ellipse fill="none" stroke="black" stroke-width="3" cx="782.44" cy="-1291.17" rx="241.25" ry="42.35"/>
<text text-anchor="middle" x="782.44" y="-1297.97" font-family="Arial" font-size="24.00">VULNERABILTY DISCOVERY</text>
<text text-anchor="middle" x="782.44" y="-1271.97" font-family="Arial" font-size="24.00">postgresql</text>
</a>
</g>
</g>
<!-- SERVICE DISCOVERY
ssh&#45;&gt;VULNERABILTY DISCOVERY
postgresql -->
<g id="edge11" class="edge">
<title>SERVICE DISCOVERY
ssh&#45;&gt;VULNERABILTY DISCOVERY
postgresql</title>
<path fill="none" stroke="blue" stroke-width="5" d="M1037.69,-1136.83C985.51,-1168.18 912.08,-1212.29 857.37,-1245.16"/>
<polygon fill="blue" stroke="blue" stroke-width="5" points="855.07,-1241.43 848.75,-1250.33 859.58,-1248.93 855.07,-1241.43"/>
<text text-anchor="middle" x="1147.94" y="-1197.35" font-family="Arial" font-size="20.00" fill="blue">start_next: 04/11/17, 18:56:44</text>
<text text-anchor="middle" x="1147.94" y="-1175.35" font-family="Arial" font-size="20.00" fill="blue">gap: &#45;454sec</text>
<text text-anchor="middle" x="1147.94" y="-1153.35" font-family="Arial" font-size="20.00" fill="blue">end_prev: 04/11/17, 19:04:18</text>
</g>
<!-- VULNERABILTY DISCOVERY
postgresql&#45;&gt;ARBITRARY CODE EXECUTION
ssdp | ID: 355 -->
<g id="edge12" class="edge">
<title>VULNERABILTY DISCOVERY
postgresql&#45;&gt;ARBITRARY CODE EXECUTION
ssdp | ID: 355</title>
<path fill="none" stroke="blue" stroke-width="5" d="M583.78,-1266.99C485.42,-1243.23 387.44,-1195.16 387.44,-1097.92 387.44,-569.11 387.44,-569.11 387.44,-569.11 387.44,-502.59 389.6,-483.81 413.44,-421.71 413.66,-421.13 413.89,-420.56 414.13,-419.98"/>
<polygon fill="blue" stroke="blue" stroke-width="5" points="418.18,-421.66 418.54,-410.75 410.28,-417.88 418.18,-421.66"/>
<text text-anchor="middle" x="518.44" y="-850.52" font-family="Arial" font-size="20.00" fill="blue">start_next: 04/11/17, 18:58:11</text>
<text text-anchor="middle" x="518.44" y="-828.52" font-family="Arial" font-size="20.00" fill="blue">gap: &#45;226sec</text>
<text text-anchor="middle" x="518.44" y="-806.52" font-family="Arial" font-size="20.00" fill="blue">end_prev: 04/11/17, 19:01:57</text>
</g>
</g>
</svg>
