<?xml version="1.0" encoding="UTF-8" standalone="no"?>
<!DOCTYPE svg PUBLIC "-//W3C//DTD SVG 1.1//EN"
 "http://www.w3.org/Graphics/SVG/1.1/DTD/svg11.dtd">
<!-- Generated by graphviz version 2.50.0 (0)
 -->
<!-- Title: DATADELIVERYhttp Pages: 1 -->
<svg width="2037pt" height="804pt"
 viewBox="0.00 0.00 2037.12 804.31" xmlns="http://www.w3.org/2000/svg" xmlns:xlink="http://www.w3.org/1999/xlink">
<g id="graph0" class="graph" transform="scale(1 1) rotate(0) translate(4 800.31)">
<title>DATADELIVERYhttp</title>
<polygon fill="white" stroke="transparent" points="-4,4 -4,-800.31 2033.12,-800.31 2033.12,4 -4,4"/>
<!-- Victim: 10.0.99.44
DATA DELIVERY
http -->
<g id="node1" class="node">
<title>Victim: 10.0.99.44
DATA DELIVERY
http</title>
<polygon fill="salmon" stroke="black" stroke-width="3" points="1713.07,-699.29 1713.07,-753.68 1618.79,-792.14 1485.46,-792.14 1391.17,-753.68 1391.17,-699.29 1485.46,-660.83 1618.79,-660.83 1713.07,-699.29"/>
<polygon fill="none" stroke="black" stroke-width="3" points="1717.08,-696.61 1717.08,-756.36 1619.58,-796.13 1484.67,-796.13 1387.17,-756.36 1387.17,-696.61 1484.67,-656.84 1619.58,-656.84 1717.08,-696.61"/>
<text text-anchor="middle" x="1552.12" y="-746.29" font-family="Arial" font-size="24.00">Victim: 10.0.99.44</text>
<text text-anchor="middle" x="1552.12" y="-720.29" font-family="Arial" font-size="24.00">DATA DELIVERY</text>
<text text-anchor="middle" x="1552.12" y="-694.29" font-family="Arial" font-size="24.00">http</text>
</g>
<!-- DATA DELIVERY
http&#45;alt | ID: 242 -->
<g id="node2" class="node">
<title>DATA DELIVERY
http&#45;alt | ID: 242</title>
<g id="a_node2"><a xlink:title="ET WEB_SERVER PHP Possible php Remote File Inclusion Attempt&#10;ET WEB_SERVER PHP tags in HTTP POST&#10;GPL WEB_SERVER perl post attempt">
<polygon fill="salmon" stroke="black" stroke-width="3" points="1715.22,-590.68 1633.67,-639.65 1470.57,-639.65 1389.02,-590.68 1470.57,-541.7 1633.67,-541.7 1715.22,-590.68"/>
<text text-anchor="middle" x="1552.12" y="-597.48" font-family="Arial" font-size="24.00">DATA DELIVERY</text>
<text text-anchor="middle" x="1552.12" y="-571.48" font-family="Arial" font-size="24.00">http&#45;alt | ID: 242</text>
</a>
</g>
</g>
<!-- DATA DELIVERY
http&#45;alt | ID: 242&#45;&gt;Victim: 10.0.99.44
DATA DELIVERY
http -->
<g id="edge1" class="edge">
<title>DATA DELIVERY
http&#45;alt | ID: 242&#45;&gt;Victim: 10.0.99.44
DATA DELIVERY
http</title>
<path fill="none" stroke="black" stroke-width="5" d="M1552.12,-639.98C1552.12,-642.09 1552.12,-644.22 1552.12,-646.37"/>
<polygon fill="black" stroke="black" stroke-width="5" points="1547.75,-646.52 1552.12,-656.52 1556.5,-646.52 1547.75,-646.52"/>
</g>
<!-- VULNERABILTY DISCOVERY
ncube&#45;lm -->
<g id="node3" class="node">
<title>VULNERABILTY DISCOVERY
ncube&#45;lm</title>
<g id="a_node3"><a xlink:title="ET POLICY Suspicious inbound to mySQL port 3306&#10;ET POLICY Suspicious inbound to mSQL port 4333&#10;ET POLICY Suspicious inbound to MSSQL port 1433&#10;ET POLICY Suspicious inbound to Oracle SQL port 1521&#10;ET SCAN Nessus User Agent&#10;ET POLICY Suspicious inbound to PostgreSQL port 5432">
<ellipse fill="yellow" stroke="black" stroke-width="3" cx="241.12" cy="-236.41" rx="241.25" ry="42.35"/>
<text text-anchor="middle" x="241.12" y="-243.21" font-family="Arial" font-size="24.00">VULNERABILTY DISCOVERY</text>
<text text-anchor="middle" x="241.12" y="-217.21" font-family="Arial" font-size="24.00">ncube&#45;lm</text>
</a>
</g>
</g>
<!-- SERVICE DISCOVERY
unknown -->
<g id="node4" class="node">
<title>SERVICE DISCOVERY
unknown</title>
<g id="a_node4"><a xlink:title="ET SCAN Potential VNC Scan 5900&#45;5920">
<ellipse fill="none" stroke="black" stroke-width="3" cx="243.12" cy="-417.26" rx="189.51" ry="42.35"/>
<text text-anchor="middle" x="243.12" y="-424.06" font-family="Arial" font-size="24.00">SERVICE DISCOVERY</text>
<text text-anchor="middle" x="243.12" y="-398.06" font-family="Arial" font-size="24.00">unknown</text>
</a>
</g>
</g>
<!-- VULNERABILTY DISCOVERY
ncube&#45;lm&#45;&gt;SERVICE DISCOVERY
unknown -->
<g id="edge2" class="edge">
<title>VULNERABILTY DISCOVERY
ncube&#45;lm&#45;&gt;SERVICE DISCOVERY
unknown</title>
<path fill="none" stroke="blue" stroke-width="5" d="M241.59,-278.89C241.87,-304.42 242.24,-337.35 242.55,-364.57"/>
<polygon fill="blue" stroke="blue" stroke-width="5" points="238.17,-364.74 242.66,-374.69 246.92,-364.64 238.17,-364.74"/>
<text text-anchor="start" x="243.12" y="-351.83" font-family="Arial" font-size="20.00" fill="blue"> start_next: 04/11/17, 14:07:52</text>
<text text-anchor="start" x="319.12" y="-331.83" font-family="Arial" font-size="20.00" fill="blue">gap: &#45;177sec</text>
<text text-anchor="start" x="247.12" y="-311.83" font-family="Arial" font-size="20.00" fill="blue">end_prev: 04/11/17, 14:10:49</text>
<text text-anchor="start" x="277.62" y="-291.83" font-family="Arial" font-weight="bold" font-size="20.00" fill="blue">Attacker: 10.0.254.31</text>
</g>
<!-- ARBITRARY CODE EXECUTION
ssdp | ID: 355 -->
<g id="node5" class="node">
<title>ARBITRARY CODE EXECUTION
ssdp | ID: 355</title>
<g id="a_node5"><a xlink:title="GPL MISC UPnP malformed advertisement">
<polygon fill="none" stroke="black" stroke-width="3" points="1136.62,-620.68 761.62,-620.68 761.62,-560.68 1136.62,-560.68 1136.62,-620.68"/>
<text text-anchor="middle" x="949.12" y="-597.48" font-family="Arial" font-size="24.00">ARBITRARY CODE EXECUTION</text>
<text text-anchor="middle" x="949.12" y="-571.48" font-family="Arial" font-size="24.00">ssdp | ID: 355</text>
</a>
</g>
</g>
<!-- SERVICE DISCOVERY
unknown&#45;&gt;ARBITRARY CODE EXECUTION
ssdp | ID: 355 -->
<g id="edge3" class="edge">
<title>SERVICE DISCOVERY
unknown&#45;&gt;ARBITRARY CODE EXECUTION
ssdp | ID: 355</title>
<path fill="none" stroke="blue" stroke-width="5" d="M233.43,-459.67C230.28,-484.44 231.5,-514.69 250.12,-533.69 284.77,-569 557.23,-582.04 751.54,-586.86"/>
<polygon fill="blue" stroke="blue" stroke-width="5" points="751.5,-591.23 761.6,-587.1 751.71,-582.49 751.5,-591.23"/>
<text text-anchor="middle" x="381.62" y="-517.69" font-family="Arial" font-size="20.00" fill="blue">start_next: 04/11/17, 14:08:43</text>
<text text-anchor="middle" x="381.62" y="-495.69" font-family="Arial" font-size="20.00" fill="blue">gap: 51sec</text>
<text text-anchor="middle" x="381.62" y="-473.69" font-family="Arial" font-size="20.00" fill="blue">end_prev: 04/11/17, 14:07:52</text>
</g>
<!-- INFO DISCOVERY
xdmcp -->
<g id="node6" class="node">
<title>INFO DISCOVERY
xdmcp</title>
<g id="a_node6"><a xlink:title="GPL WEB_SERVER mod_gzip_status access&#10;GPL RPC xdmcp info query">
<ellipse fill="none" stroke="black" stroke-width="3" cx="1284.12" cy="-236.41" rx="156.04" ry="42.35"/>
<text text-anchor="middle" x="1284.12" y="-243.21" font-family="Arial" font-size="24.00">INFO DISCOVERY</text>
<text text-anchor="middle" x="1284.12" y="-217.21" font-family="Arial" font-size="24.00">xdmcp</text>
</a>
</g>
</g>
<!-- ARBITRARY CODE EXECUTION
ssdp | ID: 355&#45;&gt;INFO DISCOVERY
xdmcp -->
<g id="edge4" class="edge">
<title>ARBITRARY CODE EXECUTION
ssdp | ID: 355&#45;&gt;INFO DISCOVERY
xdmcp</title>
<path fill="none" stroke="blue" stroke-width="5" d="M1136.7,-576.82C1195.94,-568.67 1251,-555.38 1270.12,-533.69 1285.85,-515.85 1286.17,-369.51 1285.13,-289.39"/>
<polygon fill="blue" stroke="blue" stroke-width="5" points="1289.5,-288.96 1284.98,-279.02 1280.75,-289.08 1289.5,-288.96"/>
<text text-anchor="middle" x="1417.62" y="-434.26" font-family="Arial" font-size="20.00" fill="blue">start_next: 04/11/17, 14:09:15</text>
<text text-anchor="middle" x="1417.62" y="-412.26" font-family="Arial" font-size="20.00" fill="blue">gap: 21sec</text>
<text text-anchor="middle" x="1417.62" y="-390.26" font-family="Arial" font-size="20.00" fill="blue">end_prev: 04/11/17, 14:08:53</text>
</g>
<!-- ARBITRARY CODE EXECUTION
ssdp | ID: 355&#45;&gt;INFO DISCOVERY
xdmcp -->
<g id="edge10" class="edge">
<title>ARBITRARY CODE EXECUTION
ssdp | ID: 355&#45;&gt;INFO DISCOVERY
xdmcp</title>
<path fill="none" stroke="blue" stroke-width="5" d="M761.48,-561.59C611.51,-531.23 438.94,-473.42 521.12,-374.83 595.71,-285.36 918.2,-254.06 1119.3,-243.16"/>
<polygon fill="blue" stroke="blue" stroke-width="5" points="1119.62,-247.52 1129.38,-242.63 1119.16,-238.79 1119.62,-247.52"/>
<text text-anchor="middle" x="652.62" y="-434.26" font-family="Arial" font-size="20.00" fill="blue">start_next: 04/11/17, 18:58:54</text>
<text text-anchor="middle" x="652.62" y="-412.26" font-family="Arial" font-size="20.00" fill="blue">gap: 21sec</text>
<text text-anchor="middle" x="652.62" y="-390.26" font-family="Arial" font-size="20.00" fill="blue">end_prev: 04/11/17, 18:58:33</text>
</g>
<!-- SURFING
http&#45;alt -->
<g id="node7" class="node">
<title>SURFING
http&#45;alt</title>
<g id="a_node7"><a xlink:title="ET WEB_SERVER WEB&#45;PHP phpinfo access">
<ellipse fill="none" stroke="black" stroke-width="3" cx="1642.12" cy="-417.26" rx="88.28" ry="42.35"/>
<text text-anchor="middle" x="1642.12" y="-424.06" font-family="Arial" font-size="24.00">SURFING</text>
<text text-anchor="middle" x="1642.12" y="-398.06" font-family="Arial" font-size="24.00">http&#45;alt</text>
</a>
</g>
</g>
<!-- INFO DISCOVERY
xdmcp&#45;&gt;SURFING
http&#45;alt -->
<g id="edge5" class="edge">
<title>INFO DISCOVERY
xdmcp&#45;&gt;SURFING
http&#45;alt</title>
<path fill="none" stroke="blue" stroke-width="5" d="M1294.68,-278.86C1304.67,-308.84 1322.92,-347.35 1354.12,-366.83 1372.42,-378.26 1527.11,-369.95 1548.12,-374.83 1556.3,-376.73 1564.65,-379.33 1572.83,-382.31"/>
<polygon fill="blue" stroke="blue" stroke-width="5" points="1571.43,-386.46 1582.34,-385.97 1574.57,-378.3 1571.43,-386.46"/>
<text text-anchor="middle" x="1485.62" y="-343.83" font-family="Arial" font-size="20.00" fill="blue">start_next: 04/11/17, 14:10:39</text>
<text text-anchor="middle" x="1485.62" y="-321.83" font-family="Arial" font-size="20.00" fill="blue">gap: 2sec</text>
<text text-anchor="middle" x="1485.62" y="-299.83" font-family="Arial" font-size="20.00" fill="blue">end_prev: 04/11/17, 14:10:38</text>
</g>
<!-- INFO DISCOVERY
xdmcp&#45;&gt;SURFING
http&#45;alt -->
<g id="edge11" class="edge">
<title>INFO DISCOVERY
xdmcp&#45;&gt;SURFING
http&#45;alt</title>
<path fill="none" stroke="blue" stroke-width="5" d="M1438.19,-243.87C1511.25,-250.15 1588.19,-262.51 1614.12,-286.83 1635.09,-306.49 1642.26,-337.82 1644.1,-364.73"/>
<polygon fill="blue" stroke="blue" stroke-width="5" points="1639.73,-365 1644.56,-374.79 1648.47,-364.6 1639.73,-365"/>
<text text-anchor="middle" x="1776.62" y="-343.83" font-family="Arial" font-size="20.00" fill="blue">start_next: 04/11/17, 19:00:15</text>
<text text-anchor="middle" x="1776.62" y="-321.83" font-family="Arial" font-size="20.00" fill="blue">gap: 2sec</text>
<text text-anchor="middle" x="1776.62" y="-299.83" font-family="Arial" font-size="20.00" fill="blue">end_prev: 04/11/17, 19:00:13</text>
</g>
<!-- VULNERABILTY DISCOVERY
ms&#45;sql&#45;s -->
<g id="node9" class="node">
<title>VULNERABILTY DISCOVERY
ms&#45;sql&#45;s</title>
<g id="a_node9"><a xlink:title="ET POLICY Suspicious inbound to MSSQL port 1433&#10;ET POLICY Suspicious inbound to mySQL port 3306&#10;ET POLICY Suspicious inbound to mSQL port 4333">
<ellipse fill="none" stroke="black" stroke-width="3" cx="1029.12" cy="-417.26" rx="241.25" ry="42.35"/>
<text text-anchor="middle" x="1029.12" y="-424.06" font-family="Arial" font-size="24.00">VULNERABILTY DISCOVERY</text>
<text text-anchor="middle" x="1029.12" y="-398.06" font-family="Arial" font-size="24.00">ms&#45;sql&#45;s</text>
</a>
</g>
</g>
<!-- INFO DISCOVERY
xdmcp&#45;&gt;VULNERABILTY DISCOVERY
ms&#45;sql&#45;s -->
<g id="edge8" class="edge">
<title>INFO DISCOVERY
xdmcp&#45;&gt;VULNERABILTY DISCOVERY
ms&#45;sql&#45;s</title>
<path fill="none" stroke="blue" stroke-width="5" d="M1133.9,-248.38C1081.79,-255.55 1032.32,-267.38 1016.12,-286.83 998.38,-308.15 1000.65,-338.8 1007.82,-364.92"/>
<polygon fill="blue" stroke="blue" stroke-width="5" points="1003.69,-366.38 1010.77,-374.68 1012.06,-363.84 1003.69,-366.38"/>
<text text-anchor="middle" x="1147.62" y="-343.83" font-family="Arial" font-size="20.00" fill="blue">start_next: 04/11/17, 18:57:01</text>
<text text-anchor="middle" x="1147.62" y="-321.83" font-family="Arial" font-size="20.00" fill="blue">gap: 3359sec</text>
<text text-anchor="middle" x="1147.62" y="-299.83" font-family="Arial" font-size="20.00" fill="blue">end_prev: 04/11/17, 18:01:02</text>
</g>
<!-- SURFING
http&#45;alt&#45;&gt;DATA DELIVERY
http&#45;alt | ID: 242 -->
<g id="edge6" class="edge">
<title>SURFING
http&#45;alt&#45;&gt;DATA DELIVERY
http&#45;alt | ID: 242</title>
<path fill="none" stroke="blue" stroke-width="5" d="M1719.29,-438.14C1733.08,-445.21 1745.71,-454.78 1754.12,-467.69 1770.14,-492.26 1771.88,-510.34 1754.12,-533.69 1744.49,-546.35 1717.87,-556.9 1686.98,-565.29"/>
<polygon fill="blue" stroke="blue" stroke-width="5" points="1685.84,-561.07 1677.28,-567.83 1688.06,-569.54 1685.84,-561.07"/>
<text text-anchor="middle" x="1897.62" y="-517.69" font-family="Arial" font-size="20.00" fill="blue">start_next: 04/11/17, 14:10:40</text>
<text text-anchor="middle" x="1897.62" y="-495.69" font-family="Arial" font-size="20.00" fill="blue">gap: 1sec</text>
<text text-anchor="middle" x="1897.62" y="-473.69" font-family="Arial" font-size="20.00" fill="blue">end_prev: 04/11/17, 14:10:39</text>
</g>
<!-- SURFING
http&#45;alt&#45;&gt;DATA DELIVERY
http&#45;alt | ID: 242 -->
<g id="edge12" class="edge">
<title>SURFING
http&#45;alt&#45;&gt;DATA DELIVERY
http&#45;alt | ID: 242</title>
<path fill="none" stroke="blue" stroke-width="5" d="M1581.09,-448.07C1570.29,-452.49 1559.02,-456.6 1548.12,-459.69 1535.61,-463.23 1498.67,-457.88 1490.12,-467.69 1472.66,-487.73 1477.07,-503.63 1489.95,-532.14"/>
<polygon fill="blue" stroke="blue" stroke-width="5" points="1486.06,-534.15 1494.2,-541.42 1494.01,-530.5 1486.06,-534.15"/>
<text text-anchor="middle" x="1621.62" y="-517.69" font-family="Arial" font-size="20.00" fill="blue">start_next: 04/11/17, 19:00:16</text>
<text text-anchor="middle" x="1621.62" y="-495.69" font-family="Arial" font-size="20.00" fill="blue">gap: 0sec</text>
<text text-anchor="middle" x="1621.62" y="-473.69" font-family="Arial" font-size="20.00" fill="blue">end_prev: 04/11/17, 19:00:15</text>
</g>
<!-- DATA EXFILTRATION
http&#45;alt | ID: 25 -->
<g id="node8" class="node">
<title>DATA EXFILTRATION
http&#45;alt | ID: 25</title>
<g id="a_node8"><a xlink:title="ET WEB_SPECIFIC_APPS PHP&#45;CGI query string parameter vulnerability">
<polygon fill="yellow" stroke="black" stroke-width="3" points="1489,-48.99 1386.56,-97.97 1181.68,-97.97 1079.24,-48.99 1181.68,-0.01 1386.56,-0.01 1489,-48.99"/>
<text text-anchor="middle" x="1284.12" y="-55.79" font-family="Arial" font-size="24.00">DATA EXFILTRATION</text>
<text text-anchor="middle" x="1284.12" y="-29.79" font-family="Arial" font-size="24.00">http&#45;alt | ID: 25</text>
</a>
</g>
</g>
<!-- DATA EXFILTRATION
http&#45;alt | ID: 25&#45;&gt;INFO DISCOVERY
xdmcp -->
<g id="edge7" class="edge">
<title>DATA EXFILTRATION
http&#45;alt | ID: 25&#45;&gt;INFO DISCOVERY
xdmcp</title>
<path fill="none" stroke="blue" stroke-width="5" d="M1284.12,-98.22C1284.12,-124.37 1284.12,-156.7 1284.12,-183.4"/>
<polygon fill="blue" stroke="blue" stroke-width="5" points="1279.75,-183.71 1284.12,-193.71 1288.5,-183.71 1279.75,-183.71"/>
<text text-anchor="start" x="1284.12" y="-170.98" font-family="Arial" font-size="20.00" fill="blue"> start_next: 04/11/17, 18:00:58</text>
<text text-anchor="start" x="1352.12" y="-150.98" font-family="Arial" font-size="20.00" fill="blue">gap: 13810sec</text>
<text text-anchor="start" x="1288.12" y="-130.98" font-family="Arial" font-size="20.00" fill="blue">end_prev: 04/11/17, 14:10:49</text>
<text text-anchor="start" x="1318.62" y="-110.98" font-family="Arial" font-weight="bold" font-size="20.00" fill="blue">Attacker: 10.0.254.31</text>
</g>
<!-- VULNERABILTY DISCOVERY
ms&#45;sql&#45;s&#45;&gt;ARBITRARY CODE EXECUTION
ssdp | ID: 355 -->
<g id="edge9" class="edge">
<title>VULNERABILTY DISCOVERY
ms&#45;sql&#45;s&#45;&gt;ARBITRARY CODE EXECUTION
ssdp | ID: 355</title>
<path fill="none" stroke="blue" stroke-width="5" d="M1009.76,-459.75C996.73,-487.67 979.67,-524.21 966.97,-551.43"/>
<polygon fill="blue" stroke="blue" stroke-width="5" points="962.94,-549.72 962.68,-560.64 970.87,-553.42 962.94,-549.72"/>
<text text-anchor="middle" x="1137.62" y="-517.69" font-family="Arial" font-size="20.00" fill="blue">start_next: 04/11/17, 18:58:23</text>
<text text-anchor="middle" x="1137.62" y="-495.69" font-family="Arial" font-size="20.00" fill="blue">gap: 73sec</text>
<text text-anchor="middle" x="1137.62" y="-473.69" font-family="Arial" font-size="20.00" fill="blue">end_prev: 04/11/17, 18:57:10</text>
</g>
</g>
</svg>
