<?xml version="1.0" encoding="UTF-8" standalone="no"?>
<!DOCTYPE svg PUBLIC "-//W3C//DTD SVG 1.1//EN"
 "http://www.w3.org/Graphics/SVG/1.1/DTD/svg11.dtd">
<!-- Generated by graphviz version 2.50.0 (0)
 -->
<!-- Title: NETWORKDOSssdp Pages: 1 -->
<svg width="517pt" height="1061pt"
 viewBox="0.00 0.00 517.12 1061.18" xmlns="http://www.w3.org/2000/svg" xmlns:xlink="http://www.w3.org/1999/xlink">
<g id="graph0" class="graph" transform="scale(1 1) rotate(0) translate(4 1057.18)">
<title>NETWORKDOSssdp</title>
<polygon fill="white" stroke="transparent" points="-4,4 -4,-1057.18 513.12,-1057.18 513.12,4 -4,4"/>
<!-- Victim: 10.0.0.221
NETWORK DoS
ssdp -->
<g id="node1" class="node">
<title>Victim: 10.0.0.221
NETWORK DoS
ssdp</title>
<polygon fill="salmon" stroke="black" stroke-width="3" points="402.07,-956.16 402.07,-1010.55 307.79,-1049.01 174.46,-1049.01 80.17,-1010.55 80.17,-956.16 174.46,-917.71 307.79,-917.71 402.07,-956.16"/>
<polygon fill="none" stroke="black" stroke-width="3" points="406.08,-953.49 406.08,-1013.23 308.58,-1053 173.67,-1053 76.17,-1013.23 76.17,-953.49 173.67,-913.72 308.58,-913.72 406.08,-953.49"/>
<text text-anchor="middle" x="241.12" y="-1003.16" font-family="Arial" font-size="24.00">Victim: 10.0.0.221</text>
<text text-anchor="middle" x="241.12" y="-977.16" font-family="Arial" font-size="24.00">NETWORK DoS</text>
<text text-anchor="middle" x="241.12" y="-951.16" font-family="Arial" font-size="24.00">ssdp</text>
</g>
<!-- NETWORK DoS
ssdp | ID: 55 -->
<g id="node2" class="node">
<title>NETWORK DoS
ssdp | ID: 55</title>
<g id="a_node2"><a xlink:title="ET DOS Possible SSDP Amplification Scan in Progress&#10;ET DOS Microsoft Remote Desktop (RDP) Syn then Reset 30 Second DoS Attempt">
<polygon fill="salmon" stroke="black" stroke-width="3" points="397.66,-847.55 319.39,-896.53 162.86,-896.53 84.59,-847.55 162.86,-798.57 319.39,-798.57 397.66,-847.55"/>
<text text-anchor="middle" x="241.12" y="-854.35" font-family="Arial" font-size="24.00">NETWORK DoS</text>
<text text-anchor="middle" x="241.12" y="-828.35" font-family="Arial" font-size="24.00">ssdp | ID: 55</text>
</a>
</g>
</g>
<!-- NETWORK DoS
ssdp | ID: 55&#45;&gt;Victim: 10.0.0.221
NETWORK DoS
ssdp -->
<g id="edge1" class="edge">
<title>NETWORK DoS
ssdp | ID: 55&#45;&gt;Victim: 10.0.0.221
NETWORK DoS
ssdp</title>
<path fill="none" stroke="black" stroke-width="5" d="M241.12,-896.86C241.12,-898.96 241.12,-901.09 241.12,-903.24"/>
<polygon fill="black" stroke="black" stroke-width="5" points="236.75,-903.4 241.12,-913.4 245.5,-903.4 236.75,-903.4"/>
</g>
<!-- SERVICE DISCOVERY
epmap -->
<g id="node3" class="node">
<title>SERVICE DISCOVERY
epmap</title>
<g id="a_node3"><a xlink:title="ET SCAN Behavioral Unusual Port 135 traffic Potential Scan or Infection&#10;ET SCAN Behavioral Unusual Port 139 traffic Potential Scan or Infection">
<ellipse fill="yellow" stroke="black" stroke-width="3" cx="241.12" cy="-42.43" rx="189.51" ry="42.35"/>
<text text-anchor="middle" x="241.12" y="-49.23" font-family="Arial" font-size="24.00">SERVICE DISCOVERY</text>
<text text-anchor="middle" x="241.12" y="-23.23" font-family="Arial" font-size="24.00">epmap</text>
</a>
</g>
</g>
<!-- ACCOUNT MANIPULATION
snmp | ID: 326 -->
<g id="node4" class="node">
<title>ACCOUNT MANIPULATION
snmp | ID: 326</title>
<g id="a_node4"><a xlink:title="GPL SNMP private access udp&#10;GPL SNMP public access udp">
<polygon fill="none" stroke="black" stroke-width="3" stroke-dasharray="1,5" points="401.12,-240.85 81.12,-240.85 81.12,-180.85 401.12,-180.85 401.12,-240.85"/>
<text text-anchor="middle" x="241.12" y="-217.65" font-family="Arial" font-size="24.00">ACCOUNT MANIPULATION</text>
<text text-anchor="middle" x="241.12" y="-191.65" font-family="Arial" font-size="24.00">snmp | ID: 326</text>
</a>
</g>
</g>
<!-- SERVICE DISCOVERY
epmap&#45;&gt;ACCOUNT MANIPULATION
snmp | ID: 326 -->
<g id="edge2" class="edge">
<title>SERVICE DISCOVERY
epmap&#45;&gt;ACCOUNT MANIPULATION
snmp | ID: 326</title>
<path fill="none" stroke="blue" stroke-width="5" d="M241.12,-84.99C241.12,-111.23 241.12,-144.9 241.12,-170.66"/>
<polygon fill="blue" stroke="blue" stroke-width="5" points="236.75,-170.82 241.12,-180.82 245.5,-170.82 236.75,-170.82"/>
<text text-anchor="start" x="241.12" y="-157.85" font-family="Arial" font-size="20.00" fill="blue"> start_next: 04/11/17, 14:01:59</text>
<text text-anchor="start" x="315.62" y="-137.85" font-family="Arial" font-size="20.00" fill="blue">gap: 4114sec</text>
<text text-anchor="start" x="245.12" y="-117.85" font-family="Arial" font-size="20.00" fill="blue">end_prev: 04/11/17, 12:53:25</text>
<text text-anchor="start" x="275.62" y="-97.85" font-family="Arial" font-weight="bold" font-size="20.00" fill="blue">Attacker: 10.0.254.31</text>
</g>
<!-- ARBITRARY CODE EXECUTION
microsoft&#45;ds | ID: 40 -->
<g id="node5" class="node">
<title>ARBITRARY CODE EXECUTION
microsoft&#45;ds | ID: 40</title>
<g id="a_node5"><a xlink:title="GPL MISC UPnP malformed advertisement&#10;GPL NETBIOS DCERPC Remote Activation bind attempt&#10;GPL NETBIOS SMB&#45;DS Session Setup NTMLSSP unicode asn1 overflow attempt&#10;GPL NETBIOS DCERPC IActivation little endian bind attempt">
<polygon fill="none" stroke="black" stroke-width="3" points="428.62,-382.85 53.62,-382.85 53.62,-322.85 428.62,-322.85 428.62,-382.85"/>
<text text-anchor="middle" x="241.12" y="-359.65" font-family="Arial" font-size="24.00">ARBITRARY CODE EXECUTION</text>
<text text-anchor="middle" x="241.12" y="-333.65" font-family="Arial" font-size="24.00">microsoft&#45;ds | ID: 40</text>
</a>
</g>
</g>
<!-- ACCOUNT MANIPULATION
snmp | ID: 326&#45;&gt;ARBITRARY CODE EXECUTION
microsoft&#45;ds | ID: 40 -->
<g id="edge3" class="edge">
<title>ACCOUNT MANIPULATION
snmp | ID: 326&#45;&gt;ARBITRARY CODE EXECUTION
microsoft&#45;ds | ID: 40</title>
<path fill="none" stroke="blue" stroke-width="5" d="M241.12,-240.86C241.12,-261.56 241.12,-289.64 241.12,-312.38"/>
<polygon fill="blue" stroke="blue" stroke-width="5" points="236.75,-312.4 241.12,-322.4 245.5,-312.4 236.75,-312.4"/>
<text text-anchor="middle" x="372.62" y="-298.85" font-family="Arial" font-size="20.00" fill="blue">start_next: 04/11/17, 14:02:06</text>
<text text-anchor="middle" x="372.62" y="-276.85" font-family="Arial" font-size="20.00" fill="blue">gap: &#45;225sec</text>
<text text-anchor="middle" x="372.62" y="-254.85" font-family="Arial" font-size="20.00" fill="blue">end_prev: 04/11/17, 14:05:51</text>
</g>
<!-- SERVICE DISCOVERY
microsoft&#45;ds -->
<g id="node6" class="node">
<title>SERVICE DISCOVERY
microsoft&#45;ds</title>
<g id="a_node6"><a xlink:title="ET SCAN Behavioral Unusual Port 445 traffic Potential Scan or Infection">
<ellipse fill="none" stroke="black" stroke-width="3" cx="241.12" cy="-507.28" rx="189.51" ry="42.35"/>
<text text-anchor="middle" x="241.12" y="-514.08" font-family="Arial" font-size="24.00">SERVICE DISCOVERY</text>
<text text-anchor="middle" x="241.12" y="-488.08" font-family="Arial" font-size="24.00">microsoft&#45;ds</text>
</a>
</g>
</g>
<!-- ARBITRARY CODE EXECUTION
microsoft&#45;ds | ID: 40&#45;&gt;SERVICE DISCOVERY
microsoft&#45;ds -->
<g id="edge4" class="edge">
<title>ARBITRARY CODE EXECUTION
microsoft&#45;ds | ID: 40&#45;&gt;SERVICE DISCOVERY
microsoft&#45;ds</title>
<path fill="none" stroke="blue" stroke-width="5" d="M241.12,-382.88C241.12,-403.14 241.12,-430.72 241.12,-454.68"/>
<polygon fill="blue" stroke="blue" stroke-width="5" points="236.75,-454.69 241.12,-464.69 245.5,-454.69 236.75,-454.69"/>
<text text-anchor="middle" x="372.62" y="-440.85" font-family="Arial" font-size="20.00" fill="blue">start_next: 04/11/17, 14:02:15</text>
<text text-anchor="middle" x="372.62" y="-418.85" font-family="Arial" font-size="20.00" fill="blue">gap: &#45;263sec</text>
<text text-anchor="middle" x="372.62" y="-396.85" font-family="Arial" font-size="20.00" fill="blue">end_prev: 04/11/17, 14:06:37</text>
</g>
<!-- VULNERABILTY DISCOVERY
ahsp -->
<g id="node7" class="node">
<title>VULNERABILTY DISCOVERY
ahsp</title>
<g id="a_node7"><a xlink:title="ET POLICY Suspicious inbound to mySQL port 3306&#10;ET POLICY Suspicious inbound to mSQL port 4333">
<ellipse fill="none" stroke="black" stroke-width="3" cx="241.12" cy="-674.13" rx="241.25" ry="42.35"/>
<text text-anchor="middle" x="241.12" y="-680.93" font-family="Arial" font-size="24.00">VULNERABILTY DISCOVERY</text>
<text text-anchor="middle" x="241.12" y="-654.93" font-family="Arial" font-size="24.00">ahsp</text>
</a>
</g>
</g>
<!-- SERVICE DISCOVERY
microsoft&#45;ds&#45;&gt;VULNERABILTY DISCOVERY
ahsp -->
<g id="edge5" class="edge">
<title>SERVICE DISCOVERY
microsoft&#45;ds&#45;&gt;VULNERABILTY DISCOVERY
ahsp</title>
<path fill="none" stroke="blue" stroke-width="5" d="M241.12,-549.88C241.12,-571.55 241.12,-598.26 241.12,-621.27"/>
<polygon fill="blue" stroke="blue" stroke-width="5" points="236.75,-621.55 241.12,-631.55 245.5,-621.55 236.75,-621.55"/>
<text text-anchor="middle" x="372.62" y="-607.71" font-family="Arial" font-size="20.00" fill="blue">start_next: 04/11/17, 14:03:02</text>
<text text-anchor="middle" x="372.62" y="-585.71" font-family="Arial" font-size="20.00" fill="blue">gap: &#45;181sec</text>
<text text-anchor="middle" x="372.62" y="-563.71" font-family="Arial" font-size="20.00" fill="blue">end_prev: 04/11/17, 14:06:04</text>
</g>
<!-- VULNERABILTY DISCOVERY
ahsp&#45;&gt;NETWORK DoS
ssdp | ID: 55 -->
<g id="edge6" class="edge">
<title>VULNERABILTY DISCOVERY
ahsp&#45;&gt;NETWORK DoS
ssdp | ID: 55</title>
<path fill="none" stroke="blue" stroke-width="5" d="M241.12,-716.63C241.12,-738.12 241.12,-764.72 241.12,-788.24"/>
<polygon fill="blue" stroke="blue" stroke-width="5" points="236.75,-788.45 241.12,-798.45 245.5,-788.45 236.75,-788.45"/>
<text text-anchor="middle" x="372.62" y="-774.56" font-family="Arial" font-size="20.00" fill="blue">start_next: 04/11/17, 14:04:52</text>
<text text-anchor="middle" x="372.62" y="-752.56" font-family="Arial" font-size="20.00" fill="blue">gap: 32sec</text>
<text text-anchor="middle" x="372.62" y="-730.56" font-family="Arial" font-size="20.00" fill="blue">end_prev: 04/11/17, 14:04:19</text>
</g>
</g>
</svg>
