<?xml version="1.0" encoding="UTF-8" standalone="no"?>
<!DOCTYPE svg PUBLIC "-//W3C//DTD SVG 1.1//EN"
 "http://www.w3.org/Graphics/SVG/1.1/DTD/svg11.dtd">
<!-- Generated by graphviz version 2.50.0 (0)
 -->
<!-- Title: NETWORKDOSmswbtserver Pages: 1 -->
<svg width="483pt" height="419pt"
 viewBox="0.00 0.00 483.39 418.62" xmlns="http://www.w3.org/2000/svg" xmlns:xlink="http://www.w3.org/1999/xlink">
<g id="graph0" class="graph" transform="scale(1 1) rotate(0) translate(4 414.62)">
<title>NETWORKDOSmswbtserver</title>
<polygon fill="white" stroke="transparent" points="-4,4 -4,-414.62 479.39,-414.62 479.39,4 -4,4"/>
<!-- Victim: 10.0.0.224
NETWORK DoS
ms&#45;wbt&#45;server -->
<g id="node1" class="node">
<title>Victim: 10.0.0.224
NETWORK DoS
ms&#45;wbt&#45;server</title>
<polygon fill="salmon" stroke="black" stroke-width="3" points="368.34,-313.61 368.34,-368 274.06,-406.45 140.72,-406.45 46.44,-368 46.44,-313.61 140.72,-275.15 274.06,-275.15 368.34,-313.61"/>
<polygon fill="none" stroke="black" stroke-width="3" points="372.34,-310.93 372.34,-370.67 274.85,-410.44 139.93,-410.44 42.44,-370.67 42.44,-310.93 139.93,-271.16 274.85,-271.16 372.34,-310.93"/>
<text text-anchor="middle" x="207.39" y="-360.6" font-family="Arial" font-size="24.00">Victim: 10.0.0.224</text>
<text text-anchor="middle" x="207.39" y="-334.6" font-family="Arial" font-size="24.00">NETWORK DoS</text>
<text text-anchor="middle" x="207.39" y="-308.6" font-family="Arial" font-size="24.00">ms&#45;wbt&#45;server</text>
</g>
<!-- NETWORK DoS
ms&#45;wbt&#45;server | ID: 36 -->
<g id="node2" class="node">
<title>NETWORK DoS
ms&#45;wbt&#45;server | ID: 36</title>
<g id="a_node2"><a xlink:title="ET DOS Microsoft Remote Desktop (RDP) Syn then Reset 30 Second DoS Attempt">
<polygon fill="salmon" stroke="black" stroke-width="3" points="414.67,-204.99 311.03,-253.97 103.75,-253.97 0.11,-204.99 103.75,-156.01 311.03,-156.01 414.67,-204.99"/>
<text text-anchor="middle" x="207.39" y="-211.79" font-family="Arial" font-size="24.00">NETWORK DoS</text>
<text text-anchor="middle" x="207.39" y="-185.79" font-family="Arial" font-size="24.00">ms&#45;wbt&#45;server | ID: 36</text>
</a>
</g>
</g>
<!-- NETWORK DoS
ms&#45;wbt&#45;server | ID: 36&#45;&gt;Victim: 10.0.0.224
NETWORK DoS
ms&#45;wbt&#45;server -->
<g id="edge1" class="edge">
<title>NETWORK DoS
ms&#45;wbt&#45;server | ID: 36&#45;&gt;Victim: 10.0.0.224
NETWORK DoS
ms&#45;wbt&#45;server</title>
<path fill="none" stroke="black" stroke-width="5" d="M207.39,-254.3C207.39,-256.4 207.39,-258.54 207.39,-260.69"/>
<polygon fill="black" stroke="black" stroke-width="5" points="203.02,-260.84 207.39,-270.84 211.77,-260.84 203.02,-260.84"/>
</g>
<!-- COMMAND AND CONTROL
unknown | ID: 39 -->
<g id="node3" class="node">
<title>COMMAND AND CONTROL
unknown | ID: 39</title>
<g id="a_node3"><a xlink:title="ET POLICY RDP connection confirm">
<polygon fill="yellow" stroke="black" stroke-width="3" points="368.89,-60 45.89,-60 45.89,0 368.89,0 368.89,-60"/>
<text text-anchor="middle" x="207.39" y="-36.8" font-family="Arial" font-size="24.00">COMMAND AND CONTROL</text>
<text text-anchor="middle" x="207.39" y="-10.8" font-family="Arial" font-size="24.00">unknown | ID: 39</text>
</a>
</g>
</g>
<!-- COMMAND AND CONTROL
unknown | ID: 39&#45;&gt;NETWORK DoS
ms&#45;wbt&#45;server | ID: 36 -->
<g id="edge2" class="edge">
<title>COMMAND AND CONTROL
unknown | ID: 39&#45;&gt;NETWORK DoS
ms&#45;wbt&#45;server | ID: 36</title>
<path fill="none" stroke="magenta" stroke-width="5" d="M207.39,-60.35C207.39,-83.61 207.39,-116.86 207.39,-145.52"/>
<polygon fill="magenta" stroke="magenta" stroke-width="5" points="203.02,-145.84 207.39,-155.84 211.77,-145.84 203.02,-145.84"/>
<text text-anchor="start" x="207.39" y="-133" font-family="Arial" font-size="20.00" fill="magenta"> start_next: 04/11/17, 13:34:55</text>
<text text-anchor="start" x="286.89" y="-113" font-family="Arial" font-size="20.00" fill="magenta">gap: 539sec</text>
<text text-anchor="start" x="211.39" y="-93" font-family="Arial" font-size="20.00" fill="magenta">end_prev: 04/11/17, 13:25:56</text>
<text text-anchor="start" x="241.89" y="-73" font-family="Arial" font-weight="bold" font-size="20.00" fill="magenta">Attacker: 10.0.254.30</text>
</g>
</g>
</svg>
